%TF.GenerationSoftware,KiCad,Pcbnew,10.0.3*%
%TF.CreationDate,2026-07-11T12:58:40+02:00*%
%TF.ProjectId,musicbrain-enc5front,6d757369-6362-4726-9169-6e2d656e6335,1.0*%
%TF.SameCoordinates,Original*%
%TF.FileFunction,Copper,L1,Top*%
%TF.FilePolarity,Positive*%
%FSLAX46Y46*%
G04 Gerber Fmt 4.6, Leading zero omitted, Abs format (unit mm)*
G04 Created by KiCad (PCBNEW 10.0.3) date 2026-07-11 12:58:40*
%MOMM*%
%LPD*%
G01*
G04 APERTURE LIST*
G04 Aperture macros list*
%AMRoundRect*
0 Rectangle with rounded corners*
0 $1 Rounding radius*
0 $2 $3 $4 $5 $6 $7 $8 $9 X,Y pos of 4 corners*
0 Add a 4 corners polygon primitive as box body*
4,1,4,$2,$3,$4,$5,$6,$7,$8,$9,$2,$3,0*
0 Add four circle primitives for the rounded corners*
1,1,$1+$1,$2,$3*
1,1,$1+$1,$4,$5*
1,1,$1+$1,$6,$7*
1,1,$1+$1,$8,$9*
0 Add four rect primitives between the rounded corners*
20,1,$1+$1,$2,$3,$4,$5,0*
20,1,$1+$1,$4,$5,$6,$7,0*
20,1,$1+$1,$6,$7,$8,$9,0*
20,1,$1+$1,$8,$9,$2,$3,0*%
G04 Aperture macros list end*
%TA.AperFunction,ComponentPad*%
%ADD10R,2.000000X2.000000*%
%TD*%
%TA.AperFunction,ComponentPad*%
%ADD11C,2.000000*%
%TD*%
%TA.AperFunction,ComponentPad*%
%ADD12R,3.200000X2.000000*%
%TD*%
%TA.AperFunction,ComponentPad*%
%ADD13C,1.500000*%
%TD*%
%TA.AperFunction,SMDPad,CuDef*%
%ADD14RoundRect,0.075000X-0.437500X-0.075000X0.437500X-0.075000X0.437500X0.075000X-0.437500X0.075000X0*%
%TD*%
%TA.AperFunction,SMDPad,CuDef*%
%ADD15RoundRect,0.075000X-0.075000X-0.437500X0.075000X-0.437500X0.075000X0.437500X-0.075000X0.437500X0*%
%TD*%
%TA.AperFunction,HeatsinkPad*%
%ADD16R,4.250000X4.250000*%
%TD*%
%TA.AperFunction,SMDPad,CuDef*%
%ADD17RoundRect,0.250000X-0.475000X0.250000X-0.475000X-0.250000X0.475000X-0.250000X0.475000X0.250000X0*%
%TD*%
%TA.AperFunction,ComponentPad*%
%ADD18R,1.700000X1.700000*%
%TD*%
%TA.AperFunction,ComponentPad*%
%ADD19O,1.700000X1.700000*%
%TD*%
%TA.AperFunction,ViaPad*%
%ADD20C,0.500000*%
%TD*%
%TA.AperFunction,Conductor*%
%ADD21C,0.200000*%
%TD*%
G04 APERTURE END LIST*
D10*
%TO.P,SW1,A*%
%TO.N,/E1A*%
X115500000Y-110700000D03*
D11*
%TO.P,SW1,B*%
%TO.N,/E1B*%
X115500000Y-105700000D03*
%TO.P,SW1,C*%
%TO.N,GND*%
X115500000Y-108200000D03*
D12*
%TO.P,SW1,MP*%
%TO.N,N/C*%
X108000000Y-113800000D03*
X108000000Y-102600000D03*
D13*
%TO.P,SW1,S1*%
X101000000Y-105700000D03*
%TO.P,SW1,S2*%
X101000000Y-110700000D03*
%TD*%
D10*
%TO.P,SW2,A*%
%TO.N,/E2A*%
X115500000Y-124900000D03*
D11*
%TO.P,SW2,B*%
%TO.N,/E2B*%
X115500000Y-119900000D03*
%TO.P,SW2,C*%
%TO.N,GND*%
X115500000Y-122400000D03*
D12*
%TO.P,SW2,MP*%
%TO.N,N/C*%
X108000000Y-128000000D03*
X108000000Y-116800000D03*
D13*
%TO.P,SW2,S1*%
X101000000Y-119900000D03*
%TO.P,SW2,S2*%
X101000000Y-124900000D03*
%TD*%
D10*
%TO.P,SW3,A*%
%TO.N,/E3A*%
X115500000Y-139100000D03*
D11*
%TO.P,SW3,B*%
%TO.N,/E3B*%
X115500000Y-134100000D03*
%TO.P,SW3,C*%
%TO.N,GND*%
X115500000Y-136600000D03*
D12*
%TO.P,SW3,MP*%
%TO.N,N/C*%
X108000000Y-142200000D03*
X108000000Y-131000000D03*
D13*
%TO.P,SW3,S1*%
X101000000Y-134100000D03*
%TO.P,SW3,S2*%
X101000000Y-139100000D03*
%TD*%
D10*
%TO.P,SW4,A*%
%TO.N,/E4A*%
X115500000Y-153300000D03*
D11*
%TO.P,SW4,B*%
%TO.N,/E4B*%
X115500000Y-148300000D03*
%TO.P,SW4,C*%
%TO.N,GND*%
X115500000Y-150800000D03*
D12*
%TO.P,SW4,MP*%
%TO.N,N/C*%
X108000000Y-156400000D03*
X108000000Y-145200000D03*
D13*
%TO.P,SW4,S1*%
X101000000Y-148300000D03*
%TO.P,SW4,S2*%
X101000000Y-153300000D03*
%TD*%
D10*
%TO.P,SW5,A*%
%TO.N,/E5A*%
X115500000Y-167500000D03*
D11*
%TO.P,SW5,B*%
%TO.N,/E5B*%
X115500000Y-162500000D03*
%TO.P,SW5,C*%
%TO.N,GND*%
X115500000Y-165000000D03*
D12*
%TO.P,SW5,MP*%
%TO.N,N/C*%
X108000000Y-170600000D03*
X108000000Y-159400000D03*
D13*
%TO.P,SW5,S1*%
X101000000Y-162500000D03*
%TO.P,SW5,S2*%
X101000000Y-167500000D03*
%TD*%
D14*
%TO.P,U1,1*%
%TO.N,/E5B*%
X105162500Y-177050000D03*
%TO.P,U1,2*%
%TO.N,N/C*%
X105162500Y-177700000D03*
%TO.P,U1,3*%
X105162500Y-178350000D03*
%TO.P,U1,4*%
X105162500Y-179000000D03*
%TO.P,U1,5*%
X105162500Y-179650000D03*
%TO.P,U1,6*%
X105162500Y-180300000D03*
%TO.P,U1,7*%
X105162500Y-180950000D03*
D15*
%TO.P,U1,8*%
%TO.N,+3V3*%
X106050000Y-181837500D03*
%TO.P,U1,9*%
%TO.N,GND*%
X106700000Y-181837500D03*
%TO.P,U1,10*%
%TO.N,N/C*%
X107350000Y-181837500D03*
%TO.P,U1,11*%
%TO.N,/SCL*%
X108000000Y-181837500D03*
%TO.P,U1,12*%
%TO.N,/SDA*%
X108650000Y-181837500D03*
%TO.P,U1,13*%
%TO.N,N/C*%
X109300000Y-181837500D03*
%TO.P,U1,14*%
%TO.N,/E1A*%
X109950000Y-181837500D03*
D14*
%TO.P,U1,15*%
%TO.N,/E1B*%
X110837500Y-180950000D03*
%TO.P,U1,16*%
%TO.N,/E2A*%
X110837500Y-180300000D03*
%TO.P,U1,17*%
%TO.N,/E2B*%
X110837500Y-179650000D03*
%TO.P,U1,18*%
%TO.N,/E3A*%
X110837500Y-179000000D03*
%TO.P,U1,19*%
%TO.N,/E3B*%
X110837500Y-178350000D03*
%TO.P,U1,20*%
%TO.N,/E4A*%
X110837500Y-177700000D03*
%TO.P,U1,21*%
%TO.N,/E4B*%
X110837500Y-177050000D03*
D15*
%TO.P,U1,22*%
%TO.N,/IRQ*%
X109950000Y-176162500D03*
%TO.P,U1,23*%
%TO.N,N/C*%
X109300000Y-176162500D03*
%TO.P,U1,24*%
%TO.N,+3V3*%
X108650000Y-176162500D03*
%TO.P,U1,25*%
%TO.N,GND*%
X108000000Y-176162500D03*
%TO.P,U1,26*%
X107350000Y-176162500D03*
%TO.P,U1,27*%
X106700000Y-176162500D03*
%TO.P,U1,28*%
%TO.N,/E5A*%
X106050000Y-176162500D03*
D16*
%TO.P,U1,29*%
%TO.N,GND*%
X108000000Y-179000000D03*
%TD*%
D17*
%TO.P,C10,1*%
%TO.N,+3V3*%
X114600000Y-178050000D03*
%TO.P,C10,2*%
%TO.N,GND*%
X114600000Y-179950000D03*
%TD*%
D18*
%TO.P,J1,1*%
%TO.N,N/C*%
X106730000Y-186000000D03*
D19*
%TO.P,J1,2*%
X109270000Y-186000000D03*
%TO.P,J1,3*%
%TO.N,/SDA*%
X106730000Y-188540000D03*
%TO.P,J1,4*%
%TO.N,/SCL*%
X109270000Y-188540000D03*
%TO.P,J1,5*%
%TO.N,N/C*%
X106730000Y-191080000D03*
%TO.P,J1,6*%
%TO.N,/IRQ*%
X109270000Y-191080000D03*
%TO.P,J1,7*%
%TO.N,N/C*%
X106730000Y-193620000D03*
%TO.P,J1,8*%
%TO.N,GND*%
X109270000Y-193620000D03*
%TO.P,J1,9*%
%TO.N,N/C*%
X106730000Y-196160000D03*
%TO.P,J1,10*%
%TO.N,GND*%
X109270000Y-196160000D03*
%TO.P,J1,11*%
%TO.N,N/C*%
X106730000Y-198700000D03*
%TO.P,J1,12*%
%TO.N,GND*%
X109270000Y-198700000D03*
%TO.P,J1,13*%
%TO.N,N/C*%
X106730000Y-201240000D03*
%TO.P,J1,14*%
%TO.N,GND*%
X109270000Y-201240000D03*
%TO.P,J1,15*%
X106730000Y-203780000D03*
%TO.P,J1,16*%
%TO.N,+3V3*%
X109270000Y-203780000D03*
%TO.P,J1,17*%
%TO.N,GND*%
X106730000Y-206320000D03*
%TO.P,J1,18*%
%TO.N,N/C*%
X109270000Y-206320000D03*
%TO.P,J1,19*%
%TO.N,GND*%
X106730000Y-208860000D03*
%TO.P,J1,20*%
%TO.N,N/C*%
X109270000Y-208860000D03*
%TD*%
D20*
%TO.N,+3V3*%
X114970100Y-176835900D03*
X110071800Y-174508100D03*
%TO.N,/IRQ*%
X107977500Y-174200600D03*
%TO.N,/E1A*%
X119346500Y-110919500D03*
%TO.N,/E2A*%
X117024800Y-128061800D03*
%TO.N,/E4A*%
X111480800Y-154999700D03*
%TO.N,/E4B*%
X111337300Y-150101900D03*
%TO.N,/E5A*%
X105954500Y-173903200D03*
%TO.N,/E5B*%
X105301300Y-170025900D03*
%TO.N,GND*%
X102000000Y-102000000D03*
X118000000Y-102000000D03*
X102000000Y-208000000D03*
X118000000Y-208000000D03*
X102000000Y-155000000D03*
X118000000Y-155000000D03*
X105900000Y-183200000D03*
X115200000Y-170500000D03*
%TO.N,/E3B*%
X113400000Y-136200000D03*
%TO.N,GND*%
X115600000Y-141500000D03*
%TD*%
%TO.N,+3V3*%
D21*
X109871800Y-174508100D02*
X110071800Y-174508100D01*
X110071800Y-174508100D02*
X109871800Y-174508100D01*
X114761900Y-177044100D02*
X114970100Y-176835900D01*
X114970100Y-176835900D02*
X114761900Y-177044100D01*
X114970100Y-176835900D02*
X114600000Y-177206000D01*
X114600000Y-177206000D02*
X114600000Y-178050000D01*
X108650000Y-175953600D02*
X108650000Y-175729900D01*
X108650000Y-175729900D02*
X109871800Y-174508100D01*
X109871800Y-174508100D02*
X110071800Y-174508100D01*
X108650000Y-175953600D02*
X108650000Y-175744700D01*
X108650000Y-175744700D02*
X106059000Y-173153700D01*
X106059000Y-173153700D02*
X106059000Y-169898600D01*
X106059000Y-169898600D02*
X105578000Y-169417600D01*
X105578000Y-169417600D02*
X105034300Y-169417600D01*
X105034300Y-169417600D02*
X104283300Y-170168600D01*
X104283300Y-170168600D02*
X104283300Y-181221200D01*
X104283300Y-181221200D02*
X104899600Y-181837500D01*
X104899600Y-181837500D02*
X105165100Y-181837500D01*
X108650000Y-176162500D02*
X108650000Y-175953600D01*
X105165100Y-181837500D02*
X105165100Y-191156800D01*
X105165100Y-191156800D02*
X106330300Y-192322000D01*
X106330300Y-192322000D02*
X109686000Y-192322000D01*
X109686000Y-192322000D02*
X110422700Y-193058700D01*
X110422700Y-193058700D02*
X110422700Y-201744100D01*
X110422700Y-201744100D02*
X109538500Y-202628300D01*
X109538500Y-202628300D02*
X109270000Y-202628300D01*
X105165100Y-181837500D02*
X106050000Y-181837500D01*
X109270000Y-203780000D02*
X109270000Y-202628300D01*
%TO.N,/SDA*%
X106730000Y-188540000D02*
X106730000Y-187388300D01*
X106730000Y-187388300D02*
X107521800Y-187388300D01*
X107521800Y-187388300D02*
X107881700Y-187028400D01*
X107881700Y-187028400D02*
X107881700Y-185418600D01*
X107881700Y-185418600D02*
X108650000Y-184650300D01*
X108650000Y-184650300D02*
X108650000Y-181837500D01*
%TO.N,/SCL*%
X109270000Y-188540000D02*
X108118300Y-188540000D01*
X108118300Y-188540000D02*
X108118300Y-188827900D01*
X108118300Y-188827900D02*
X107232400Y-189713800D01*
X107232400Y-189713800D02*
X106240800Y-189713800D01*
X106240800Y-189713800D02*
X105578300Y-189051300D01*
X105578300Y-189051300D02*
X105578300Y-184960100D01*
X105578300Y-184960100D02*
X108000000Y-182538400D01*
X108000000Y-182538400D02*
X108000000Y-181837500D01*
%TO.N,/IRQ*%
X108311000Y-174200600D02*
X107977500Y-174200600D01*
X107977500Y-174200600D02*
X108311000Y-174200600D01*
X109950000Y-176162500D02*
X110687200Y-175425300D01*
X110687200Y-175425300D02*
X110687200Y-174264200D01*
X110687200Y-174264200D02*
X110290100Y-173867100D01*
X110290100Y-173867100D02*
X108311000Y-173867100D01*
X108311000Y-173867100D02*
X107977500Y-174200600D01*
%TO.N,/E1A*%
X109950000Y-181837500D02*
X114967900Y-181837500D01*
X114967900Y-181837500D02*
X119346500Y-177458900D01*
X119346500Y-177458900D02*
X119346500Y-110919500D01*
%TO.N,/E1B*%
X115500000Y-105700000D02*
X118603000Y-108803000D01*
X118603000Y-108803000D02*
X118603000Y-177556300D01*
X118603000Y-177556300D02*
X115209300Y-180950000D01*
X115209300Y-180950000D02*
X110837500Y-180950000D01*
%TO.N,/E2A*%
X117266800Y-128061800D02*
X117024800Y-128061800D01*
X117024800Y-128061800D02*
X117266800Y-128061800D01*
X117024800Y-128061800D02*
X117266800Y-128303800D01*
X117266800Y-128303800D02*
X117266800Y-176912700D01*
X117266800Y-176912700D02*
X115179500Y-179000000D01*
X115179500Y-179000000D02*
X113661300Y-179000000D01*
X113661300Y-179000000D02*
X112361300Y-180300000D01*
X112361300Y-180300000D02*
X110837500Y-180300000D01*
%TO.N,/E2B*%
X115500000Y-119900000D02*
X116823900Y-121223900D01*
X116823900Y-121223900D02*
X116823900Y-127411900D01*
X116823900Y-127411900D02*
X116423100Y-127812700D01*
X116423100Y-127812700D02*
X116423100Y-128985000D01*
X116423100Y-128985000D02*
X116823900Y-129385800D01*
X116823900Y-129385800D02*
X116823900Y-174101000D01*
X116823900Y-174101000D02*
X111274900Y-179650000D01*
X111274900Y-179650000D02*
X110837500Y-179650000D01*
%TO.N,/E3A*%
X115500000Y-139100000D02*
X115500000Y-140401700D01*
X110837500Y-179000000D02*
X111233200Y-179000000D01*
X111233200Y-179000000D02*
X112568600Y-177664600D01*
X112568600Y-177664600D02*
X112568600Y-143333100D01*
X112568600Y-143333100D02*
X115500000Y-140401700D01*
%TO.N,/E3B*%
X115500000Y-134100000D02*
X112137600Y-137462400D01*
X112137600Y-137462400D02*
X112137600Y-177527500D01*
X112137600Y-177527500D02*
X111315100Y-178350000D01*
X111315100Y-178350000D02*
X110837500Y-178350000D01*
%TO.N,/E4A*%
X111480800Y-154999700D02*
X111688900Y-155207800D01*
X111688900Y-155207800D02*
X111688900Y-177350400D01*
X111688900Y-177350400D02*
X111339300Y-177700000D01*
X111339300Y-177700000D02*
X110837500Y-177700000D01*
%TO.N,/E4B*%
X111003800Y-168815700D02*
X110837500Y-168649400D01*
X111003800Y-168815700D02*
X110837500Y-168649400D01*
X110837500Y-168649400D02*
X110837500Y-150601700D01*
X110837500Y-150601700D02*
X111337300Y-150101900D01*
X110837500Y-177050000D02*
X111121500Y-176766000D01*
X111121500Y-176766000D02*
X111121500Y-168933400D01*
X111121500Y-168933400D02*
X111003800Y-168815700D01*
%TO.N,/E5A*%
X106050000Y-176162500D02*
X105954500Y-176067000D01*
X105954500Y-176067000D02*
X105954500Y-173903200D01*
%TO.N,/E5B*%
X105301300Y-170025900D02*
X105301300Y-176911200D01*
X105301300Y-176911200D02*
X105162500Y-177050000D01*
%TD*%
%TA.AperFunction,Conductor*%
%TO.N,GND*%
G36*
X119459191Y-100518907D02*
G01*
X119495155Y-100568407D01*
X119500000Y-100599000D01*
X119500000Y-110270000D01*
X119481093Y-110328191D01*
X119431593Y-110364155D01*
X119401000Y-110369000D01*
X119274025Y-110369000D01*
X119134015Y-110406516D01*
X119134014Y-110406516D01*
X119128123Y-110408095D01*
X119067022Y-110404893D01*
X119019472Y-110366387D01*
X119003500Y-110312468D01*
X119003500Y-108863714D01*
X119003501Y-108863701D01*
X119003501Y-108750272D01*
X119003500Y-108750270D01*
X118976207Y-108648413D01*
X118976205Y-108648409D01*
X118923481Y-108557089D01*
X118923480Y-108557087D01*
X118848913Y-108482520D01*
X118848910Y-108482518D01*
X116708956Y-106342563D01*
X116681179Y-106288046D01*
X116690749Y-106227618D01*
X116705220Y-106199219D01*
X116768477Y-106004534D01*
X116768478Y-106004529D01*
X116800500Y-105802355D01*
X116800500Y-105597644D01*
X116768478Y-105395470D01*
X116768477Y-105395466D01*
X116705220Y-105200781D01*
X116612287Y-105018390D01*
X116612285Y-105018386D01*
X116491970Y-104852786D01*
X116491968Y-104852784D01*
X116491966Y-104852781D01*
X116347219Y-104708034D01*
X116347215Y-104708031D01*
X116347213Y-104708029D01*
X116181613Y-104587714D01*
X116181609Y-104587712D01*
X115999219Y-104494780D01*
X115804529Y-104431521D01*
X115602355Y-104399500D01*
X115602352Y-104399500D01*
X115397648Y-104399500D01*
X115397645Y-104399500D01*
X115195470Y-104431521D01*
X115000780Y-104494780D01*
X114818390Y-104587712D01*
X114818386Y-104587714D01*
X114652786Y-104708029D01*
X114508029Y-104852786D01*
X114387714Y-105018386D01*
X114387712Y-105018390D01*
X114294780Y-105200780D01*
X114231521Y-105395470D01*
X114199500Y-105597644D01*
X114199500Y-105802355D01*
X114231521Y-106004529D01*
X114294780Y-106199219D01*
X114387712Y-106381609D01*
X114387714Y-106381613D01*
X114508029Y-106547213D01*
X114508031Y-106547215D01*
X114508034Y-106547219D01*
X114652781Y-106691966D01*
X114652784Y-106691968D01*
X114652786Y-106691970D01*
X114818386Y-106812285D01*
X114818390Y-106812287D01*
X115000781Y-106905220D01*
X115195466Y-106968477D01*
X115195467Y-106968477D01*
X115195470Y-106968478D01*
X115397645Y-107000500D01*
X115397648Y-107000500D01*
X115602355Y-107000500D01*
X115804529Y-106968478D01*
X115804530Y-106968477D01*
X115804534Y-106968477D01*
X115999219Y-106905220D01*
X116027614Y-106890751D01*
X116088042Y-106881178D01*
X116142560Y-106908954D01*
X116142563Y-106908956D01*
X118173504Y-108939896D01*
X118201281Y-108994413D01*
X118202500Y-109009900D01*
X118202500Y-177349399D01*
X118183593Y-177407590D01*
X118173504Y-177419403D01*
X115072403Y-180520504D01*
X115017886Y-180548281D01*
X115002399Y-180549500D01*
X112917201Y-180549500D01*
X112859010Y-180530593D01*
X112823046Y-180481093D01*
X112823046Y-180419907D01*
X112847197Y-180380496D01*
X113798196Y-179429496D01*
X113852713Y-179401719D01*
X113868200Y-179400500D01*
X115232225Y-179400500D01*
X115232227Y-179400500D01*
X115334088Y-179373207D01*
X115334090Y-179373205D01*
X115334092Y-179373205D01*
X115425408Y-179320483D01*
X115425408Y-179320482D01*
X115425413Y-179320480D01*
X117587280Y-177158613D01*
X117587283Y-177158608D01*
X117640005Y-177067292D01*
X117640005Y-177067290D01*
X117640007Y-177067288D01*
X117667300Y-176965427D01*
X117667300Y-176859973D01*
X117667300Y-128356530D01*
X117667301Y-128356527D01*
X117667301Y-128251073D01*
X117653552Y-128199765D01*
X117652825Y-128190836D01*
X117655872Y-128177988D01*
X117655872Y-128157175D01*
X117667300Y-128114527D01*
X117667300Y-128009073D01*
X117640007Y-127907213D01*
X117587280Y-127815887D01*
X117512713Y-127741320D01*
X117453328Y-127707034D01*
X117432829Y-127691304D01*
X117362815Y-127621291D01*
X117362810Y-127621287D01*
X117272296Y-127569029D01*
X117231355Y-127523560D01*
X117223644Y-127470364D01*
X117224400Y-127464624D01*
X117224400Y-121171174D01*
X117223678Y-121168478D01*
X117197107Y-121069313D01*
X117144380Y-120977987D01*
X117116892Y-120950499D01*
X117069813Y-120903419D01*
X117069813Y-120903420D01*
X116708956Y-120542563D01*
X116681179Y-120488046D01*
X116690749Y-120427618D01*
X116705220Y-120399219D01*
X116768477Y-120204534D01*
X116768478Y-120204529D01*
X116800500Y-120002355D01*
X116800500Y-119797644D01*
X116768478Y-119595470D01*
X116768477Y-119595466D01*
X116705220Y-119400781D01*
X116612287Y-119218390D01*
X116612285Y-119218386D01*
X116491970Y-119052786D01*
X116491968Y-119052784D01*
X116491966Y-119052781D01*
X116347219Y-118908034D01*
X116347215Y-118908031D01*
X116347213Y-118908029D01*
X116181613Y-118787714D01*
X116181609Y-118787712D01*
X115999219Y-118694780D01*
X115804529Y-118631521D01*
X115602355Y-118599500D01*
X115602352Y-118599500D01*
X115397648Y-118599500D01*
X115397645Y-118599500D01*
X115195470Y-118631521D01*
X115000780Y-118694780D01*
X114818390Y-118787712D01*
X114818386Y-118787714D01*
X114652786Y-118908029D01*
X114508029Y-119052786D01*
X114387714Y-119218386D01*
X114387712Y-119218390D01*
X114294780Y-119400780D01*
X114231521Y-119595470D01*
X114199500Y-119797644D01*
X114199500Y-120002355D01*
X114231521Y-120204529D01*
X114294780Y-120399219D01*
X114387712Y-120581609D01*
X114387714Y-120581613D01*
X114508029Y-120747213D01*
X114508031Y-120747215D01*
X114508034Y-120747219D01*
X114652781Y-120891966D01*
X114652784Y-120891968D01*
X114652786Y-120891970D01*
X114818386Y-121012285D01*
X114818390Y-121012287D01*
X115000781Y-121105220D01*
X115195466Y-121168477D01*
X115195467Y-121168477D01*
X115195470Y-121168478D01*
X115397645Y-121200500D01*
X115397648Y-121200500D01*
X115602355Y-121200500D01*
X115804529Y-121168478D01*
X115804530Y-121168477D01*
X115804534Y-121168477D01*
X115999219Y-121105220D01*
X116027614Y-121090751D01*
X116088042Y-121081178D01*
X116142560Y-121108954D01*
X116142563Y-121108956D01*
X116394404Y-121360797D01*
X116422181Y-121415314D01*
X116423400Y-121430801D01*
X116423400Y-123500500D01*
X116404493Y-123558691D01*
X116354993Y-123594655D01*
X116324400Y-123599500D01*
X114455139Y-123599500D01*
X114455136Y-123599501D01*
X114430009Y-123602414D01*
X114327235Y-123647794D01*
X114247794Y-123727235D01*
X114202414Y-123830011D01*
X114199500Y-123855130D01*
X114199500Y-125944860D01*
X114199501Y-125944863D01*
X114202414Y-125969990D01*
X114227756Y-126027385D01*
X114247794Y-126072765D01*
X114327235Y-126152206D01*
X114430009Y-126197585D01*
X114455135Y-126200500D01*
X116324400Y-126200499D01*
X116382591Y-126219406D01*
X116418555Y-126268906D01*
X116423400Y-126299499D01*
X116423400Y-127204999D01*
X116404493Y-127263190D01*
X116394404Y-127275002D01*
X116102620Y-127566786D01*
X116102616Y-127566791D01*
X116049893Y-127658111D01*
X116049892Y-127658111D01*
X116049893Y-127658112D01*
X116038531Y-127700518D01*
X116022600Y-127759973D01*
X116022600Y-128932273D01*
X116022600Y-129037727D01*
X116024513Y-129044865D01*
X116049894Y-129139592D01*
X116102616Y-129230908D01*
X116102618Y-129230910D01*
X116102620Y-129230913D01*
X116394405Y-129522698D01*
X116422181Y-129577213D01*
X116423400Y-129592700D01*
X116423400Y-132969084D01*
X116404493Y-133027275D01*
X116354993Y-133063239D01*
X116293807Y-133063239D01*
X116266210Y-133049177D01*
X116181613Y-132987715D01*
X116181609Y-132987712D01*
X115999219Y-132894780D01*
X115804529Y-132831521D01*
X115602355Y-132799500D01*
X115602352Y-132799500D01*
X115397648Y-132799500D01*
X115397645Y-132799500D01*
X115195470Y-132831521D01*
X115000780Y-132894780D01*
X114818390Y-132987712D01*
X114818386Y-132987714D01*
X114652786Y-133108029D01*
X114508029Y-133252786D01*
X114387714Y-133418386D01*
X114387712Y-133418390D01*
X114294780Y-133600780D01*
X114231521Y-133795470D01*
X114199500Y-133997644D01*
X114199500Y-134202355D01*
X114231521Y-134404529D01*
X114294781Y-134599222D01*
X114309248Y-134627616D01*
X114318819Y-134688048D01*
X114291042Y-134742564D01*
X113413103Y-135620504D01*
X113358586Y-135648281D01*
X113343099Y-135649500D01*
X113327525Y-135649500D01*
X113265790Y-135666041D01*
X113187510Y-135687017D01*
X113061989Y-135759487D01*
X112959487Y-135861989D01*
X112887017Y-135987510D01*
X112849500Y-136127525D01*
X112849500Y-136143099D01*
X112830593Y-136201290D01*
X112820504Y-136213103D01*
X111817116Y-137216491D01*
X111764393Y-137307811D01*
X111764392Y-137307811D01*
X111764393Y-137307812D01*
X111737100Y-137409673D01*
X111737100Y-149525589D01*
X111718193Y-149583780D01*
X111668693Y-149619744D01*
X111607507Y-149619744D01*
X111588600Y-149611325D01*
X111549788Y-149588917D01*
X111549789Y-149588917D01*
X111473506Y-149568477D01*
X111409775Y-149551400D01*
X111264825Y-149551400D01*
X111203090Y-149567941D01*
X111124810Y-149588917D01*
X110999289Y-149661387D01*
X110896787Y-149763889D01*
X110824317Y-149889410D01*
X110786800Y-150029425D01*
X110786800Y-150044999D01*
X110767893Y-150103190D01*
X110757804Y-150115002D01*
X110517020Y-150355786D01*
X110517016Y-150355791D01*
X110464293Y-150447111D01*
X110464292Y-150447111D01*
X110464293Y-150447112D01*
X110464293Y-150447113D01*
X110437000Y-150548973D01*
X110437000Y-168596673D01*
X110437000Y-168702127D01*
X110461070Y-168791959D01*
X110464294Y-168803992D01*
X110517019Y-168895313D01*
X110638808Y-169017100D01*
X110683319Y-169061611D01*
X110683320Y-169061613D01*
X110692005Y-169070298D01*
X110692006Y-169070299D01*
X110703658Y-169093169D01*
X110719781Y-169124813D01*
X110719781Y-169124814D01*
X110719782Y-169124816D01*
X110719781Y-169124819D01*
X110721000Y-169140300D01*
X110721000Y-173492599D01*
X110702093Y-173550790D01*
X110652593Y-173586754D01*
X110591407Y-173586754D01*
X110551998Y-173562604D01*
X110536014Y-173546621D01*
X110536008Y-173546616D01*
X110444691Y-173493894D01*
X110444693Y-173493894D01*
X110405170Y-173483304D01*
X110342827Y-173466600D01*
X108363727Y-173466600D01*
X108258273Y-173466600D01*
X108195929Y-173483304D01*
X108156407Y-173493894D01*
X108065091Y-173546616D01*
X108065086Y-173546620D01*
X107990602Y-173621104D01*
X107936085Y-173648881D01*
X107920599Y-173650100D01*
X107905025Y-173650100D01*
X107843290Y-173666641D01*
X107765010Y-173687617D01*
X107639489Y-173760087D01*
X107536989Y-173862587D01*
X107527302Y-173879366D01*
X107481832Y-173920306D01*
X107420982Y-173926701D01*
X107371562Y-173899869D01*
X106488496Y-173016803D01*
X106460719Y-172962286D01*
X106459500Y-172946799D01*
X106459500Y-171999499D01*
X106478407Y-171941308D01*
X106527907Y-171905344D01*
X106558500Y-171900499D01*
X109644861Y-171900499D01*
X109644864Y-171900499D01*
X109669991Y-171897585D01*
X109772765Y-171852206D01*
X109852206Y-171772765D01*
X109897585Y-171669991D01*
X109900500Y-171644865D01*
X109900499Y-169555136D01*
X109897585Y-169530009D01*
X109852206Y-169427235D01*
X109772765Y-169347794D01*
X109669991Y-169302415D01*
X109669990Y-169302414D01*
X109669988Y-169302414D01*
X109644868Y-169299500D01*
X106355139Y-169299500D01*
X106355136Y-169299501D01*
X106330009Y-169302414D01*
X106227234Y-169347794D01*
X106220911Y-169354117D01*
X106166393Y-169381893D01*
X106105961Y-169372319D01*
X106080906Y-169354114D01*
X105823913Y-169097120D01*
X105823908Y-169097116D01*
X105732591Y-169044394D01*
X105732593Y-169044394D01*
X105693070Y-169033804D01*
X105630727Y-169017100D01*
X104981573Y-169017100D01*
X104879713Y-169044393D01*
X104879712Y-169044393D01*
X104879710Y-169044394D01*
X104834844Y-169070298D01*
X104804204Y-169087988D01*
X104793659Y-169094076D01*
X104788388Y-169097119D01*
X103962816Y-169922691D01*
X103910094Y-170014007D01*
X103910093Y-170014012D01*
X103882800Y-170115873D01*
X103882800Y-181168473D01*
X103882800Y-181273927D01*
X103903317Y-181350500D01*
X103910094Y-181375792D01*
X103962816Y-181467108D01*
X103962818Y-181467110D01*
X103962820Y-181467113D01*
X104653687Y-182157980D01*
X104715102Y-182193438D01*
X104756041Y-182238906D01*
X104764600Y-182279173D01*
X104764600Y-191104073D01*
X104764600Y-191209527D01*
X104788670Y-191299359D01*
X104791894Y-191311392D01*
X104844616Y-191402708D01*
X104844618Y-191402710D01*
X104844620Y-191402713D01*
X106009818Y-192567910D01*
X106009820Y-192567913D01*
X106016608Y-192574701D01*
X106044384Y-192629216D01*
X106034813Y-192689648D01*
X106004794Y-192724795D01*
X105980504Y-192742442D01*
X105980499Y-192742447D01*
X105852447Y-192870499D01*
X105845769Y-192879691D01*
X105746002Y-193017008D01*
X105663788Y-193178362D01*
X105607828Y-193350593D01*
X105579500Y-193529450D01*
X105579500Y-193710549D01*
X105607828Y-193889406D01*
X105607829Y-193889409D01*
X105663789Y-194061639D01*
X105746004Y-194222994D01*
X105852447Y-194369501D01*
X105980499Y-194497553D01*
X106127006Y-194603996D01*
X106288361Y-194686211D01*
X106460591Y-194742171D01*
X106532136Y-194753502D01*
X106639451Y-194770500D01*
X106639454Y-194770500D01*
X106820549Y-194770500D01*
X106909977Y-194756335D01*
X106999409Y-194742171D01*
X107171639Y-194686211D01*
X107332994Y-194603996D01*
X107479501Y-194497553D01*
X107607553Y-194369501D01*
X107713996Y-194222994D01*
X107796211Y-194061639D01*
X107852171Y-193889409D01*
X107880500Y-193710546D01*
X107880500Y-193529454D01*
X107880500Y-193529450D01*
X107852171Y-193350593D01*
X107852171Y-193350591D01*
X107796211Y-193178361D01*
X107713996Y-193017006D01*
X107614228Y-192879687D01*
X107595323Y-192821500D01*
X107614230Y-192763309D01*
X107663730Y-192727345D01*
X107694323Y-192722500D01*
X109479099Y-192722500D01*
X109537290Y-192741407D01*
X109549103Y-192751496D01*
X109993204Y-193195597D01*
X110020981Y-193250114D01*
X110022200Y-193265601D01*
X110022200Y-201537199D01*
X110003293Y-201595390D01*
X109993204Y-201607203D01*
X109401603Y-202198804D01*
X109347086Y-202226581D01*
X109331599Y-202227800D01*
X109322727Y-202227800D01*
X109217273Y-202227800D01*
X109115413Y-202255093D01*
X109115412Y-202255093D01*
X109115410Y-202255094D01*
X109115409Y-202255094D01*
X109024089Y-202307818D01*
X108949518Y-202382389D01*
X108896794Y-202473709D01*
X108896794Y-202473710D01*
X108869500Y-202575574D01*
X108869500Y-202632160D01*
X108850593Y-202690351D01*
X108815445Y-202720370D01*
X108667008Y-202796002D01*
X108604179Y-202841650D01*
X108520499Y-202902447D01*
X108392447Y-203030499D01*
X108339225Y-203103752D01*
X108286002Y-203177008D01*
X108203788Y-203338362D01*
X108147828Y-203510593D01*
X108119500Y-203689450D01*
X108119500Y-203870549D01*
X108147828Y-204049406D01*
X108147829Y-204049409D01*
X108203789Y-204221639D01*
X108286004Y-204382994D01*
X108392447Y-204529501D01*
X108520499Y-204657553D01*
X108667006Y-204763996D01*
X108828361Y-204846211D01*
X109000591Y-204902171D01*
X109072136Y-204913502D01*
X109179451Y-204930500D01*
X109179454Y-204930500D01*
X109360549Y-204930500D01*
X109449977Y-204916335D01*
X109539409Y-204902171D01*
X109711639Y-204846211D01*
X109872994Y-204763996D01*
X110019501Y-204657553D01*
X110147553Y-204529501D01*
X110253996Y-204382994D01*
X110336211Y-204221639D01*
X110392171Y-204049409D01*
X110420500Y-203870546D01*
X110420500Y-203689454D01*
X110420500Y-203689450D01*
X110392171Y-203510593D01*
X110392171Y-203510591D01*
X110336211Y-203338361D01*
X110253996Y-203177006D01*
X110147553Y-203030499D01*
X110019501Y-202902447D01*
X110019497Y-202902444D01*
X110019496Y-202902443D01*
X110003952Y-202891150D01*
X109967988Y-202841650D01*
X109967987Y-202780465D01*
X109992136Y-202741055D01*
X110668610Y-202064581D01*
X110668613Y-202064580D01*
X110743180Y-201990013D01*
X110795907Y-201898687D01*
X110810830Y-201842994D01*
X110823201Y-201796827D01*
X110823201Y-201691373D01*
X110823200Y-201691369D01*
X110823200Y-193005973D01*
X110795907Y-192904113D01*
X110795907Y-192904112D01*
X110795907Y-192904111D01*
X110743183Y-192812791D01*
X110743181Y-192812789D01*
X110743180Y-192812787D01*
X110023724Y-192093331D01*
X109995949Y-192038817D01*
X110005520Y-191978385D01*
X110023724Y-191953329D01*
X110147553Y-191829501D01*
X110253996Y-191682994D01*
X110336211Y-191521639D01*
X110392171Y-191349409D01*
X110414326Y-191209527D01*
X110420500Y-191170549D01*
X110420500Y-190989450D01*
X110392171Y-190810593D01*
X110392171Y-190810591D01*
X110336211Y-190638361D01*
X110253996Y-190477006D01*
X110147553Y-190330499D01*
X110019501Y-190202447D01*
X109872994Y-190096004D01*
X109872993Y-190096003D01*
X109872991Y-190096002D01*
X109711637Y-190013788D01*
X109539406Y-189957828D01*
X109360549Y-189929500D01*
X109360546Y-189929500D01*
X109179454Y-189929500D01*
X109179451Y-189929500D01*
X109000593Y-189957828D01*
X108828362Y-190013788D01*
X108667008Y-190096002D01*
X108597969Y-190146162D01*
X108520499Y-190202447D01*
X108392447Y-190330499D01*
X108339225Y-190403752D01*
X108286002Y-190477008D01*
X108203788Y-190638362D01*
X108147828Y-190810593D01*
X108119500Y-190989450D01*
X108119500Y-191170549D01*
X108147828Y-191349406D01*
X108165146Y-191402708D01*
X108203789Y-191521639D01*
X108286004Y-191682994D01*
X108345083Y-191764310D01*
X108363990Y-191822500D01*
X108345083Y-191880691D01*
X108295583Y-191916655D01*
X108264990Y-191921500D01*
X107735010Y-191921500D01*
X107676819Y-191902593D01*
X107640855Y-191853093D01*
X107640855Y-191791907D01*
X107654915Y-191764311D01*
X107713996Y-191682994D01*
X107796211Y-191521639D01*
X107852171Y-191349409D01*
X107874326Y-191209527D01*
X107880500Y-191170549D01*
X107880500Y-190989450D01*
X107852171Y-190810593D01*
X107852171Y-190810591D01*
X107796211Y-190638361D01*
X107713996Y-190477006D01*
X107607553Y-190330499D01*
X107479501Y-190202447D01*
X107473331Y-190197964D01*
X107437369Y-190148467D01*
X107437369Y-190087281D01*
X107473333Y-190037781D01*
X107476047Y-190036017D01*
X107478307Y-190034283D01*
X107478313Y-190034280D01*
X108239218Y-189273373D01*
X108293733Y-189245598D01*
X108354165Y-189255169D01*
X108389309Y-189285183D01*
X108392442Y-189289495D01*
X108392444Y-189289497D01*
X108392447Y-189289501D01*
X108520499Y-189417553D01*
X108667006Y-189523996D01*
X108828361Y-189606211D01*
X109000591Y-189662171D01*
X109072136Y-189673502D01*
X109179451Y-189690500D01*
X109179454Y-189690500D01*
X109360549Y-189690500D01*
X109449977Y-189676335D01*
X109539409Y-189662171D01*
X109711639Y-189606211D01*
X109872994Y-189523996D01*
X110019501Y-189417553D01*
X110147553Y-189289501D01*
X110253996Y-189142994D01*
X110336211Y-188981639D01*
X110392171Y-188809409D01*
X110420500Y-188630546D01*
X110420500Y-188449454D01*
X110420500Y-188449450D01*
X110392171Y-188270593D01*
X110392171Y-188270591D01*
X110336211Y-188098361D01*
X110253996Y-187937006D01*
X110147553Y-187790499D01*
X110019501Y-187662447D01*
X109872994Y-187556004D01*
X109872993Y-187556003D01*
X109872991Y-187556002D01*
X109711637Y-187473788D01*
X109539406Y-187417828D01*
X109360549Y-187389500D01*
X109360546Y-187389500D01*
X109179454Y-187389500D01*
X109179451Y-187389500D01*
X109000593Y-187417828D01*
X108828362Y-187473788D01*
X108667008Y-187556002D01*
X108593752Y-187609225D01*
X108520499Y-187662447D01*
X108392447Y-187790499D01*
X108364595Y-187828834D01*
X108286002Y-187937008D01*
X108247129Y-188013301D01*
X108210369Y-188085446D01*
X108167106Y-188128710D01*
X108122161Y-188139500D01*
X108065573Y-188139500D01*
X108014643Y-188153146D01*
X107963711Y-188166793D01*
X107947267Y-188176288D01*
X107887419Y-188189009D01*
X107831523Y-188164122D01*
X107803613Y-188121142D01*
X107796212Y-188098363D01*
X107713996Y-187937006D01*
X107713992Y-187937000D01*
X107677682Y-187887024D01*
X107658774Y-187828834D01*
X107677681Y-187770643D01*
X107708272Y-187743098D01*
X107767713Y-187708780D01*
X108202180Y-187274313D01*
X108249607Y-187192167D01*
X108254869Y-187183053D01*
X108254879Y-187183034D01*
X108254906Y-187182988D01*
X108254907Y-187182987D01*
X108282200Y-187081127D01*
X108282200Y-186878261D01*
X108301107Y-186820070D01*
X108350607Y-186784106D01*
X108411793Y-186784106D01*
X108451201Y-186808255D01*
X108520499Y-186877553D01*
X108667006Y-186983996D01*
X108828361Y-187066211D01*
X109000591Y-187122171D01*
X109072136Y-187133502D01*
X109179451Y-187150500D01*
X109179454Y-187150500D01*
X109360549Y-187150500D01*
X109449977Y-187136335D01*
X109539409Y-187122171D01*
X109711639Y-187066211D01*
X109872994Y-186983996D01*
X110019501Y-186877553D01*
X110147553Y-186749501D01*
X110253996Y-186602994D01*
X110336211Y-186441639D01*
X110392171Y-186269409D01*
X110420500Y-186090546D01*
X110420500Y-185909454D01*
X110420500Y-185909450D01*
X110392171Y-185730593D01*
X110392171Y-185730591D01*
X110336211Y-185558361D01*
X110253996Y-185397006D01*
X110147553Y-185250499D01*
X110019501Y-185122447D01*
X109872994Y-185016004D01*
X109872993Y-185016003D01*
X109872991Y-185016002D01*
X109711637Y-184933788D01*
X109539406Y-184877828D01*
X109360549Y-184849500D01*
X109360546Y-184849500D01*
X109179454Y-184849500D01*
X109179453Y-184849500D01*
X109154364Y-184853473D01*
X109093932Y-184843899D01*
X109050669Y-184800633D01*
X109041099Y-184740201D01*
X109043249Y-184730085D01*
X109050500Y-184703027D01*
X109050500Y-184597573D01*
X109050500Y-182744737D01*
X109069407Y-182686546D01*
X109118907Y-182650582D01*
X109163770Y-182646771D01*
X109189364Y-182650500D01*
X109189367Y-182650500D01*
X109410632Y-182650500D01*
X109410636Y-182650500D01*
X109483625Y-182639866D01*
X109581520Y-182592007D01*
X109642101Y-182583437D01*
X109668478Y-182592007D01*
X109766375Y-182639866D01*
X109839364Y-182650500D01*
X109839367Y-182650500D01*
X110060632Y-182650500D01*
X110060636Y-182650500D01*
X110133625Y-182639866D01*
X110246211Y-182584826D01*
X110334826Y-182496211D01*
X110389866Y-182383625D01*
X110398738Y-182322725D01*
X110425838Y-182267870D01*
X110480005Y-182239418D01*
X110496704Y-182238000D01*
X115020625Y-182238000D01*
X115020627Y-182238000D01*
X115122488Y-182210707D01*
X115122490Y-182210705D01*
X115122492Y-182210705D01*
X115213808Y-182157983D01*
X115213808Y-182157982D01*
X115213813Y-182157980D01*
X119330996Y-178040794D01*
X119385513Y-178013018D01*
X119445945Y-178022589D01*
X119489210Y-178065854D01*
X119500000Y-178110799D01*
X119500000Y-209401000D01*
X119481093Y-209459191D01*
X119431593Y-209495155D01*
X119401000Y-209500000D01*
X110396694Y-209500000D01*
X110338503Y-209481093D01*
X110302539Y-209431593D01*
X110302539Y-209370407D01*
X110308485Y-209356054D01*
X110336210Y-209301640D01*
X110336211Y-209301639D01*
X110392171Y-209129409D01*
X110420500Y-208950546D01*
X110420500Y-208769454D01*
X110420500Y-208769450D01*
X110392171Y-208590593D01*
X110392171Y-208590591D01*
X110336211Y-208418361D01*
X110253996Y-208257006D01*
X110147553Y-208110499D01*
X110019501Y-207982447D01*
X109872994Y-207876004D01*
X109872993Y-207876003D01*
X109872991Y-207876002D01*
X109711637Y-207793788D01*
X109539406Y-207737828D01*
X109360549Y-207709500D01*
X109360546Y-207709500D01*
X109179454Y-207709500D01*
X109179451Y-207709500D01*
X109000593Y-207737828D01*
X108828362Y-207793788D01*
X108667008Y-207876002D01*
X108593752Y-207929225D01*
X108520499Y-207982447D01*
X108392447Y-208110499D01*
X108339225Y-208183752D01*
X108286002Y-208257008D01*
X108203788Y-208418362D01*
X108147828Y-208590593D01*
X108119500Y-208769450D01*
X108119500Y-208950549D01*
X108147828Y-209129406D01*
X108203789Y-209301640D01*
X108231515Y-209356054D01*
X108241087Y-209416486D01*
X108213310Y-209471003D01*
X108158794Y-209498781D01*
X108143306Y-209500000D01*
X100599000Y-209500000D01*
X100540809Y-209481093D01*
X100504845Y-209431593D01*
X100500000Y-209401000D01*
X100500000Y-206229450D01*
X108119500Y-206229450D01*
X108119500Y-206410549D01*
X108147828Y-206589406D01*
X108147829Y-206589409D01*
X108203789Y-206761639D01*
X108286004Y-206922994D01*
X108392447Y-207069501D01*
X108520499Y-207197553D01*
X108667006Y-207303996D01*
X108828361Y-207386211D01*
X109000591Y-207442171D01*
X109072136Y-207453502D01*
X109179451Y-207470500D01*
X109179454Y-207470500D01*
X109360549Y-207470500D01*
X109449977Y-207456335D01*
X109539409Y-207442171D01*
X109711639Y-207386211D01*
X109872994Y-207303996D01*
X110019501Y-207197553D01*
X110147553Y-207069501D01*
X110253996Y-206922994D01*
X110336211Y-206761639D01*
X110392171Y-206589409D01*
X110420500Y-206410546D01*
X110420500Y-206229454D01*
X110420500Y-206229450D01*
X110392171Y-206050593D01*
X110392171Y-206050591D01*
X110336211Y-205878361D01*
X110253996Y-205717006D01*
X110147553Y-205570499D01*
X110019501Y-205442447D01*
X109872994Y-205336004D01*
X109872993Y-205336003D01*
X109872991Y-205336002D01*
X109711637Y-205253788D01*
X109539406Y-205197828D01*
X109360549Y-205169500D01*
X109360546Y-205169500D01*
X109179454Y-205169500D01*
X109179451Y-205169500D01*
X109000593Y-205197828D01*
X108828362Y-205253788D01*
X108667008Y-205336002D01*
X108593752Y-205389225D01*
X108520499Y-205442447D01*
X108392447Y-205570499D01*
X108339225Y-205643752D01*
X108286002Y-205717008D01*
X108203788Y-205878362D01*
X108147828Y-206050593D01*
X108119500Y-206229450D01*
X100500000Y-206229450D01*
X100500000Y-201149450D01*
X105579500Y-201149450D01*
X105579500Y-201330549D01*
X105607828Y-201509406D01*
X105663788Y-201681637D01*
X105746002Y-201842990D01*
X105746001Y-201842990D01*
X105746004Y-201842994D01*
X105852447Y-201989501D01*
X105980499Y-202117553D01*
X106127006Y-202223996D01*
X106288361Y-202306211D01*
X106460591Y-202362171D01*
X106532136Y-202373502D01*
X106639451Y-202390500D01*
X106639454Y-202390500D01*
X106820549Y-202390500D01*
X106909977Y-202376335D01*
X106999409Y-202362171D01*
X107171639Y-202306211D01*
X107332994Y-202223996D01*
X107479501Y-202117553D01*
X107607553Y-201989501D01*
X107713996Y-201842994D01*
X107796211Y-201681639D01*
X107852171Y-201509409D01*
X107880500Y-201330546D01*
X107880500Y-201149454D01*
X107880500Y-201149450D01*
X107852171Y-200970593D01*
X107852171Y-200970591D01*
X107796211Y-200798361D01*
X107713996Y-200637006D01*
X107607553Y-200490499D01*
X107479501Y-200362447D01*
X107332994Y-200256004D01*
X107332993Y-200256003D01*
X107332991Y-200256002D01*
X107171637Y-200173788D01*
X106999406Y-200117828D01*
X106820549Y-200089500D01*
X106820546Y-200089500D01*
X106639454Y-200089500D01*
X106639451Y-200089500D01*
X106460593Y-200117828D01*
X106288362Y-200173788D01*
X106127008Y-200256002D01*
X106053752Y-200309225D01*
X105980499Y-200362447D01*
X105852447Y-200490499D01*
X105799225Y-200563752D01*
X105746002Y-200637008D01*
X105663788Y-200798362D01*
X105607828Y-200970593D01*
X105579500Y-201149450D01*
X100500000Y-201149450D01*
X100500000Y-198609450D01*
X105579500Y-198609450D01*
X105579500Y-198790549D01*
X105607828Y-198969406D01*
X105607829Y-198969409D01*
X105663789Y-199141639D01*
X105746004Y-199302994D01*
X105852447Y-199449501D01*
X105980499Y-199577553D01*
X106127006Y-199683996D01*
X106288361Y-199766211D01*
X106460591Y-199822171D01*
X106532136Y-199833502D01*
X106639451Y-199850500D01*
X106639454Y-199850500D01*
X106820549Y-199850500D01*
X106909977Y-199836335D01*
X106999409Y-199822171D01*
X107171639Y-199766211D01*
X107332994Y-199683996D01*
X107479501Y-199577553D01*
X107607553Y-199449501D01*
X107713996Y-199302994D01*
X107796211Y-199141639D01*
X107852171Y-198969409D01*
X107880500Y-198790546D01*
X107880500Y-198609454D01*
X107880500Y-198609450D01*
X107852171Y-198430593D01*
X107852171Y-198430591D01*
X107796211Y-198258361D01*
X107713996Y-198097006D01*
X107607553Y-197950499D01*
X107479501Y-197822447D01*
X107332994Y-197716004D01*
X107332993Y-197716003D01*
X107332991Y-197716002D01*
X107171637Y-197633788D01*
X106999406Y-197577828D01*
X106820549Y-197549500D01*
X106820546Y-197549500D01*
X106639454Y-197549500D01*
X106639451Y-197549500D01*
X106460593Y-197577828D01*
X106288362Y-197633788D01*
X106127008Y-197716002D01*
X106053752Y-197769225D01*
X105980499Y-197822447D01*
X105852447Y-197950499D01*
X105799225Y-198023752D01*
X105746002Y-198097008D01*
X105663788Y-198258362D01*
X105607828Y-198430593D01*
X105579500Y-198609450D01*
X100500000Y-198609450D01*
X100500000Y-196069450D01*
X105579500Y-196069450D01*
X105579500Y-196250549D01*
X105607828Y-196429406D01*
X105607829Y-196429409D01*
X105663789Y-196601639D01*
X105746004Y-196762994D01*
X105852447Y-196909501D01*
X105980499Y-197037553D01*
X106127006Y-197143996D01*
X106288361Y-197226211D01*
X106460591Y-197282171D01*
X106532136Y-197293502D01*
X106639451Y-197310500D01*
X106639454Y-197310500D01*
X106820549Y-197310500D01*
X106909977Y-197296335D01*
X106999409Y-197282171D01*
X107171639Y-197226211D01*
X107332994Y-197143996D01*
X107479501Y-197037553D01*
X107607553Y-196909501D01*
X107713996Y-196762994D01*
X107796211Y-196601639D01*
X107852171Y-196429409D01*
X107880500Y-196250546D01*
X107880500Y-196069454D01*
X107880500Y-196069450D01*
X107852171Y-195890593D01*
X107852171Y-195890591D01*
X107796211Y-195718361D01*
X107713996Y-195557006D01*
X107607553Y-195410499D01*
X107479501Y-195282447D01*
X107332994Y-195176004D01*
X107332993Y-195176003D01*
X107332991Y-195176002D01*
X107171637Y-195093788D01*
X106999406Y-195037828D01*
X106820549Y-195009500D01*
X106820546Y-195009500D01*
X106639454Y-195009500D01*
X106639451Y-195009500D01*
X106460593Y-195037828D01*
X106288362Y-195093788D01*
X106127008Y-195176002D01*
X106053752Y-195229225D01*
X105980499Y-195282447D01*
X105852447Y-195410499D01*
X105799225Y-195483752D01*
X105746002Y-195557008D01*
X105663788Y-195718362D01*
X105607828Y-195890593D01*
X105579500Y-196069450D01*
X100500000Y-196069450D01*
X100500000Y-168578110D01*
X100518907Y-168519919D01*
X100568407Y-168483955D01*
X100629593Y-168483955D01*
X100636876Y-168486642D01*
X100693580Y-168510130D01*
X100896535Y-168550500D01*
X100896536Y-168550500D01*
X101103464Y-168550500D01*
X101103465Y-168550500D01*
X101306420Y-168510130D01*
X101497598Y-168430941D01*
X101669655Y-168315977D01*
X101815977Y-168169655D01*
X101930941Y-167997598D01*
X102010130Y-167806420D01*
X102050500Y-167603465D01*
X102050500Y-167396535D01*
X102010130Y-167193580D01*
X101930941Y-167002402D01*
X101815977Y-166830345D01*
X101669655Y-166684023D01*
X101497598Y-166569059D01*
X101497599Y-166569059D01*
X101497597Y-166569058D01*
X101306418Y-166489869D01*
X101103467Y-166449500D01*
X101103465Y-166449500D01*
X100896535Y-166449500D01*
X100896532Y-166449500D01*
X100693581Y-166489869D01*
X100661016Y-166503358D01*
X100636884Y-166513354D01*
X100575889Y-166518155D01*
X100523720Y-166486185D01*
X100500305Y-166429658D01*
X100500000Y-166421890D01*
X100500000Y-163578110D01*
X100518907Y-163519919D01*
X100568407Y-163483955D01*
X100629593Y-163483955D01*
X100636876Y-163486642D01*
X100693580Y-163510130D01*
X100896535Y-163550500D01*
X100896536Y-163550500D01*
X101103464Y-163550500D01*
X101103465Y-163550500D01*
X101306420Y-163510130D01*
X101497598Y-163430941D01*
X101669655Y-163315977D01*
X101815977Y-163169655D01*
X101930941Y-162997598D01*
X102010130Y-162806420D01*
X102050500Y-162603465D01*
X102050500Y-162396535D01*
X102010130Y-162193580D01*
X101930941Y-162002402D01*
X101815977Y-161830345D01*
X101669655Y-161684023D01*
X101669651Y-161684020D01*
X101497597Y-161569058D01*
X101306418Y-161489869D01*
X101103467Y-161449500D01*
X101103465Y-161449500D01*
X100896535Y-161449500D01*
X100896532Y-161449500D01*
X100693581Y-161489869D01*
X100661016Y-161503358D01*
X100636884Y-161513354D01*
X100575889Y-161518155D01*
X100523720Y-161486185D01*
X100500305Y-161429658D01*
X100500000Y-161421890D01*
X100500000Y-158355130D01*
X106099500Y-158355130D01*
X106099500Y-160444860D01*
X106099501Y-160444863D01*
X106102414Y-160469990D01*
X106127756Y-160527385D01*
X106147794Y-160572765D01*
X106227235Y-160652206D01*
X106330009Y-160697585D01*
X106355135Y-160700500D01*
X109644864Y-160700499D01*
X109669991Y-160697585D01*
X109772765Y-160652206D01*
X109852206Y-160572765D01*
X109897585Y-160469991D01*
X109900500Y-160444865D01*
X109900499Y-158355136D01*
X109897585Y-158330009D01*
X109852206Y-158227235D01*
X109772765Y-158147794D01*
X109669991Y-158102415D01*
X109669990Y-158102414D01*
X109669988Y-158102414D01*
X109644868Y-158099500D01*
X106355139Y-158099500D01*
X106355136Y-158099501D01*
X106330009Y-158102414D01*
X106227235Y-158147794D01*
X106147794Y-158227235D01*
X106102414Y-158330011D01*
X106099500Y-158355130D01*
X100500000Y-158355130D01*
X100500000Y-155355130D01*
X106099500Y-155355130D01*
X106099500Y-157444860D01*
X106099501Y-157444863D01*
X106102414Y-157469990D01*
X106127756Y-157527385D01*
X106147794Y-157572765D01*
X106227235Y-157652206D01*
X106330009Y-157697585D01*
X106355135Y-157700500D01*
X109644864Y-157700499D01*
X109669991Y-157697585D01*
X109772765Y-157652206D01*
X109852206Y-157572765D01*
X109897585Y-157469991D01*
X109900500Y-157444865D01*
X109900499Y-155355136D01*
X109897585Y-155330009D01*
X109852206Y-155227235D01*
X109772765Y-155147794D01*
X109669991Y-155102415D01*
X109669990Y-155102414D01*
X109669988Y-155102414D01*
X109644868Y-155099500D01*
X106355139Y-155099500D01*
X106355136Y-155099501D01*
X106330009Y-155102414D01*
X106227235Y-155147794D01*
X106147794Y-155227235D01*
X106102414Y-155330011D01*
X106099500Y-155355130D01*
X100500000Y-155355130D01*
X100500000Y-154378110D01*
X100518907Y-154319919D01*
X100568407Y-154283955D01*
X100629593Y-154283955D01*
X100636876Y-154286642D01*
X100693580Y-154310130D01*
X100896535Y-154350500D01*
X100896536Y-154350500D01*
X101103464Y-154350500D01*
X101103465Y-154350500D01*
X101306420Y-154310130D01*
X101497598Y-154230941D01*
X101669655Y-154115977D01*
X101815977Y-153969655D01*
X101930941Y-153797598D01*
X102010130Y-153606420D01*
X102050500Y-153403465D01*
X102050500Y-153196535D01*
X102010130Y-152993580D01*
X101930941Y-152802402D01*
X101815977Y-152630345D01*
X101669655Y-152484023D01*
X101497598Y-152369059D01*
X101497599Y-152369059D01*
X101497597Y-152369058D01*
X101306418Y-152289869D01*
X101103467Y-152249500D01*
X101103465Y-152249500D01*
X100896535Y-152249500D01*
X100896532Y-152249500D01*
X100693581Y-152289869D01*
X100661016Y-152303358D01*
X100636884Y-152313354D01*
X100575889Y-152318155D01*
X100523720Y-152286185D01*
X100500305Y-152229658D01*
X100500000Y-152221890D01*
X100500000Y-149378110D01*
X100518907Y-149319919D01*
X100568407Y-149283955D01*
X100629593Y-149283955D01*
X100636876Y-149286642D01*
X100693580Y-149310130D01*
X100896535Y-149350500D01*
X100896536Y-149350500D01*
X101103464Y-149350500D01*
X101103465Y-149350500D01*
X101306420Y-149310130D01*
X101497598Y-149230941D01*
X101669655Y-149115977D01*
X101815977Y-148969655D01*
X101930941Y-148797598D01*
X102010130Y-148606420D01*
X102050500Y-148403465D01*
X102050500Y-148196535D01*
X102010130Y-147993580D01*
X101930941Y-147802402D01*
X101815977Y-147630345D01*
X101669655Y-147484023D01*
X101669651Y-147484020D01*
X101497597Y-147369058D01*
X101306418Y-147289869D01*
X101103467Y-147249500D01*
X101103465Y-147249500D01*
X100896535Y-147249500D01*
X100896532Y-147249500D01*
X100693581Y-147289869D01*
X100661016Y-147303358D01*
X100636884Y-147313354D01*
X100575889Y-147318155D01*
X100523720Y-147286185D01*
X100500305Y-147229658D01*
X100500000Y-147221890D01*
X100500000Y-144155130D01*
X106099500Y-144155130D01*
X106099500Y-146244860D01*
X106099501Y-146244863D01*
X106102414Y-146269990D01*
X106127756Y-146327385D01*
X106147794Y-146372765D01*
X106227235Y-146452206D01*
X106330009Y-146497585D01*
X106355135Y-146500500D01*
X109644864Y-146500499D01*
X109669991Y-146497585D01*
X109772765Y-146452206D01*
X109852206Y-146372765D01*
X109897585Y-146269991D01*
X109900500Y-146244865D01*
X109900499Y-144155136D01*
X109897585Y-144130009D01*
X109852206Y-144027235D01*
X109772765Y-143947794D01*
X109669991Y-143902415D01*
X109669990Y-143902414D01*
X109669988Y-143902414D01*
X109644868Y-143899500D01*
X106355139Y-143899500D01*
X106355136Y-143899501D01*
X106330009Y-143902414D01*
X106227235Y-143947794D01*
X106147794Y-144027235D01*
X106102414Y-144130011D01*
X106099500Y-144155130D01*
X100500000Y-144155130D01*
X100500000Y-141155130D01*
X106099500Y-141155130D01*
X106099500Y-143244860D01*
X106099501Y-143244863D01*
X106102414Y-143269990D01*
X106127756Y-143327385D01*
X106147794Y-143372765D01*
X106227235Y-143452206D01*
X106330009Y-143497585D01*
X106355135Y-143500500D01*
X109644864Y-143500499D01*
X109669991Y-143497585D01*
X109772765Y-143452206D01*
X109852206Y-143372765D01*
X109897585Y-143269991D01*
X109900500Y-143244865D01*
X109900499Y-141155136D01*
X109897585Y-141130009D01*
X109852206Y-141027235D01*
X109772765Y-140947794D01*
X109669991Y-140902415D01*
X109669990Y-140902414D01*
X109669988Y-140902414D01*
X109644868Y-140899500D01*
X106355139Y-140899500D01*
X106355136Y-140899501D01*
X106330009Y-140902414D01*
X106227235Y-140947794D01*
X106147794Y-141027235D01*
X106102414Y-141130011D01*
X106099500Y-141155130D01*
X100500000Y-141155130D01*
X100500000Y-140178110D01*
X100518907Y-140119919D01*
X100568407Y-140083955D01*
X100629593Y-140083955D01*
X100636876Y-140086642D01*
X100693580Y-140110130D01*
X100896535Y-140150500D01*
X100896536Y-140150500D01*
X101103464Y-140150500D01*
X101103465Y-140150500D01*
X101306420Y-140110130D01*
X101497598Y-140030941D01*
X101669655Y-139915977D01*
X101815977Y-139769655D01*
X101930941Y-139597598D01*
X102010130Y-139406420D01*
X102050500Y-139203465D01*
X102050500Y-138996535D01*
X102010130Y-138793580D01*
X101930941Y-138602402D01*
X101815977Y-138430345D01*
X101669655Y-138284023D01*
X101497598Y-138169059D01*
X101497599Y-138169059D01*
X101497597Y-138169058D01*
X101306418Y-138089869D01*
X101103467Y-138049500D01*
X101103465Y-138049500D01*
X100896535Y-138049500D01*
X100896532Y-138049500D01*
X100693581Y-138089869D01*
X100661016Y-138103358D01*
X100636884Y-138113354D01*
X100575889Y-138118155D01*
X100523720Y-138086185D01*
X100500305Y-138029658D01*
X100500000Y-138021890D01*
X100500000Y-135178110D01*
X100518907Y-135119919D01*
X100568407Y-135083955D01*
X100629593Y-135083955D01*
X100636876Y-135086642D01*
X100693580Y-135110130D01*
X100896535Y-135150500D01*
X100896536Y-135150500D01*
X101103464Y-135150500D01*
X101103465Y-135150500D01*
X101306420Y-135110130D01*
X101497598Y-135030941D01*
X101669655Y-134915977D01*
X101815977Y-134769655D01*
X101930941Y-134597598D01*
X102010130Y-134406420D01*
X102050500Y-134203465D01*
X102050500Y-133996535D01*
X102010130Y-133793580D01*
X101930941Y-133602402D01*
X101815977Y-133430345D01*
X101669655Y-133284023D01*
X101669651Y-133284020D01*
X101497597Y-133169058D01*
X101306418Y-133089869D01*
X101103467Y-133049500D01*
X101103465Y-133049500D01*
X100896535Y-133049500D01*
X100896532Y-133049500D01*
X100693581Y-133089869D01*
X100661016Y-133103358D01*
X100636884Y-133113354D01*
X100575889Y-133118155D01*
X100523720Y-133086185D01*
X100500305Y-133029658D01*
X100500000Y-133021890D01*
X100500000Y-129955130D01*
X106099500Y-129955130D01*
X106099500Y-132044860D01*
X106099501Y-132044863D01*
X106102414Y-132069990D01*
X106127756Y-132127385D01*
X106147794Y-132172765D01*
X106227235Y-132252206D01*
X106330009Y-132297585D01*
X106355135Y-132300500D01*
X109644864Y-132300499D01*
X109669991Y-132297585D01*
X109772765Y-132252206D01*
X109852206Y-132172765D01*
X109897585Y-132069991D01*
X109900500Y-132044865D01*
X109900499Y-129955136D01*
X109897585Y-129930009D01*
X109852206Y-129827235D01*
X109772765Y-129747794D01*
X109669991Y-129702415D01*
X109669990Y-129702414D01*
X109669988Y-129702414D01*
X109644868Y-129699500D01*
X106355139Y-129699500D01*
X106355136Y-129699501D01*
X106330009Y-129702414D01*
X106227235Y-129747794D01*
X106147794Y-129827235D01*
X106102414Y-129930011D01*
X106099500Y-129955130D01*
X100500000Y-129955130D01*
X100500000Y-126955130D01*
X106099500Y-126955130D01*
X106099500Y-129044860D01*
X106099501Y-129044863D01*
X106102414Y-129069990D01*
X106127756Y-129127385D01*
X106147794Y-129172765D01*
X106227235Y-129252206D01*
X106330009Y-129297585D01*
X106355135Y-129300500D01*
X109644864Y-129300499D01*
X109669991Y-129297585D01*
X109772765Y-129252206D01*
X109852206Y-129172765D01*
X109897585Y-129069991D01*
X109900500Y-129044865D01*
X109900499Y-126955136D01*
X109897585Y-126930009D01*
X109852206Y-126827235D01*
X109772765Y-126747794D01*
X109669991Y-126702415D01*
X109669990Y-126702414D01*
X109669988Y-126702414D01*
X109644868Y-126699500D01*
X106355139Y-126699500D01*
X106355136Y-126699501D01*
X106330009Y-126702414D01*
X106227235Y-126747794D01*
X106147794Y-126827235D01*
X106102414Y-126930011D01*
X106099500Y-126955130D01*
X100500000Y-126955130D01*
X100500000Y-125978110D01*
X100518907Y-125919919D01*
X100568407Y-125883955D01*
X100629593Y-125883955D01*
X100636876Y-125886642D01*
X100693580Y-125910130D01*
X100896535Y-125950500D01*
X100896536Y-125950500D01*
X101103464Y-125950500D01*
X101103465Y-125950500D01*
X101306420Y-125910130D01*
X101497598Y-125830941D01*
X101669655Y-125715977D01*
X101815977Y-125569655D01*
X101930941Y-125397598D01*
X102010130Y-125206420D01*
X102050500Y-125003465D01*
X102050500Y-124796535D01*
X102010130Y-124593580D01*
X101930941Y-124402402D01*
X101815977Y-124230345D01*
X101669655Y-124084023D01*
X101497598Y-123969059D01*
X101497599Y-123969059D01*
X101497597Y-123969058D01*
X101306418Y-123889869D01*
X101103467Y-123849500D01*
X101103465Y-123849500D01*
X100896535Y-123849500D01*
X100896532Y-123849500D01*
X100693581Y-123889869D01*
X100661016Y-123903358D01*
X100636884Y-123913354D01*
X100575889Y-123918155D01*
X100523720Y-123886185D01*
X100500305Y-123829658D01*
X100500000Y-123821890D01*
X100500000Y-120978110D01*
X100518907Y-120919919D01*
X100568407Y-120883955D01*
X100629593Y-120883955D01*
X100636876Y-120886642D01*
X100693580Y-120910130D01*
X100896535Y-120950500D01*
X100896536Y-120950500D01*
X101103464Y-120950500D01*
X101103465Y-120950500D01*
X101306420Y-120910130D01*
X101497598Y-120830941D01*
X101669655Y-120715977D01*
X101815977Y-120569655D01*
X101930941Y-120397598D01*
X102010130Y-120206420D01*
X102050500Y-120003465D01*
X102050500Y-119796535D01*
X102010130Y-119593580D01*
X101930941Y-119402402D01*
X101815977Y-119230345D01*
X101669655Y-119084023D01*
X101669651Y-119084020D01*
X101497597Y-118969058D01*
X101306418Y-118889869D01*
X101103467Y-118849500D01*
X101103465Y-118849500D01*
X100896535Y-118849500D01*
X100896532Y-118849500D01*
X100693581Y-118889869D01*
X100661016Y-118903358D01*
X100636884Y-118913354D01*
X100575889Y-118918155D01*
X100523720Y-118886185D01*
X100500305Y-118829658D01*
X100500000Y-118821890D01*
X100500000Y-115755130D01*
X106099500Y-115755130D01*
X106099500Y-117844860D01*
X106099501Y-117844863D01*
X106102414Y-117869990D01*
X106127756Y-117927385D01*
X106147794Y-117972765D01*
X106227235Y-118052206D01*
X106330009Y-118097585D01*
X106355135Y-118100500D01*
X109644864Y-118100499D01*
X109669991Y-118097585D01*
X109772765Y-118052206D01*
X109852206Y-117972765D01*
X109897585Y-117869991D01*
X109900500Y-117844865D01*
X109900499Y-115755136D01*
X109897585Y-115730009D01*
X109852206Y-115627235D01*
X109772765Y-115547794D01*
X109669991Y-115502415D01*
X109669990Y-115502414D01*
X109669988Y-115502414D01*
X109644868Y-115499500D01*
X106355139Y-115499500D01*
X106355136Y-115499501D01*
X106330009Y-115502414D01*
X106227235Y-115547794D01*
X106147794Y-115627235D01*
X106102414Y-115730011D01*
X106099500Y-115755130D01*
X100500000Y-115755130D01*
X100500000Y-112755130D01*
X106099500Y-112755130D01*
X106099500Y-114844860D01*
X106099501Y-114844863D01*
X106102414Y-114869990D01*
X106127756Y-114927385D01*
X106147794Y-114972765D01*
X106227235Y-115052206D01*
X106330009Y-115097585D01*
X106355135Y-115100500D01*
X109644864Y-115100499D01*
X109669991Y-115097585D01*
X109772765Y-115052206D01*
X109852206Y-114972765D01*
X109897585Y-114869991D01*
X109900500Y-114844865D01*
X109900499Y-112755136D01*
X109897585Y-112730009D01*
X109852206Y-112627235D01*
X109772765Y-112547794D01*
X109669991Y-112502415D01*
X109669990Y-112502414D01*
X109669988Y-112502414D01*
X109644868Y-112499500D01*
X106355139Y-112499500D01*
X106355136Y-112499501D01*
X106330009Y-112502414D01*
X106227235Y-112547794D01*
X106147794Y-112627235D01*
X106102414Y-112730011D01*
X106099500Y-112755130D01*
X100500000Y-112755130D01*
X100500000Y-111778110D01*
X100518907Y-111719919D01*
X100568407Y-111683955D01*
X100629593Y-111683955D01*
X100636876Y-111686642D01*
X100693580Y-111710130D01*
X100896535Y-111750500D01*
X100896536Y-111750500D01*
X101103464Y-111750500D01*
X101103465Y-111750500D01*
X101306420Y-111710130D01*
X101497598Y-111630941D01*
X101669655Y-111515977D01*
X101815977Y-111369655D01*
X101930941Y-111197598D01*
X102010130Y-111006420D01*
X102050500Y-110803465D01*
X102050500Y-110596535D01*
X102010130Y-110393580D01*
X101930941Y-110202402D01*
X101815977Y-110030345D01*
X101669655Y-109884023D01*
X101497598Y-109769059D01*
X101497599Y-109769059D01*
X101497597Y-109769058D01*
X101436473Y-109743740D01*
X101306418Y-109689869D01*
X101131771Y-109655130D01*
X114199500Y-109655130D01*
X114199500Y-111744860D01*
X114199501Y-111744863D01*
X114202414Y-111769990D01*
X114227756Y-111827385D01*
X114247794Y-111872765D01*
X114327235Y-111952206D01*
X114430009Y-111997585D01*
X114455135Y-112000500D01*
X116544864Y-112000499D01*
X116569991Y-111997585D01*
X116672765Y-111952206D01*
X116752206Y-111872765D01*
X116797585Y-111769991D01*
X116800500Y-111744865D01*
X116800499Y-109655136D01*
X116797585Y-109630009D01*
X116752206Y-109527235D01*
X116672765Y-109447794D01*
X116569991Y-109402415D01*
X116569990Y-109402414D01*
X116569988Y-109402414D01*
X116544868Y-109399500D01*
X114455139Y-109399500D01*
X114455136Y-109399501D01*
X114430009Y-109402414D01*
X114327235Y-109447794D01*
X114247794Y-109527235D01*
X114202414Y-109630011D01*
X114199500Y-109655130D01*
X101131771Y-109655130D01*
X101103467Y-109649500D01*
X101103465Y-109649500D01*
X100896535Y-109649500D01*
X100896532Y-109649500D01*
X100693581Y-109689869D01*
X100661016Y-109703358D01*
X100636884Y-109713354D01*
X100575889Y-109718155D01*
X100523720Y-109686185D01*
X100500305Y-109629658D01*
X100500000Y-109621890D01*
X100500000Y-106778110D01*
X100518907Y-106719919D01*
X100568407Y-106683955D01*
X100629593Y-106683955D01*
X100636876Y-106686642D01*
X100693580Y-106710130D01*
X100896535Y-106750500D01*
X100896536Y-106750500D01*
X101103464Y-106750500D01*
X101103465Y-106750500D01*
X101306420Y-106710130D01*
X101497598Y-106630941D01*
X101669655Y-106515977D01*
X101815977Y-106369655D01*
X101930941Y-106197598D01*
X102010130Y-106006420D01*
X102050500Y-105803465D01*
X102050500Y-105596535D01*
X102010130Y-105393580D01*
X101930941Y-105202402D01*
X101815977Y-105030345D01*
X101669655Y-104884023D01*
X101669651Y-104884020D01*
X101497597Y-104769058D01*
X101306418Y-104689869D01*
X101103467Y-104649500D01*
X101103465Y-104649500D01*
X100896535Y-104649500D01*
X100896532Y-104649500D01*
X100693581Y-104689869D01*
X100661016Y-104703358D01*
X100636884Y-104713354D01*
X100575889Y-104718155D01*
X100523720Y-104686185D01*
X100500305Y-104629658D01*
X100500000Y-104621890D01*
X100500000Y-101555130D01*
X106099500Y-101555130D01*
X106099500Y-103644860D01*
X106099501Y-103644863D01*
X106102414Y-103669990D01*
X106127756Y-103727385D01*
X106147794Y-103772765D01*
X106227235Y-103852206D01*
X106330009Y-103897585D01*
X106355135Y-103900500D01*
X109644864Y-103900499D01*
X109669991Y-103897585D01*
X109772765Y-103852206D01*
X109852206Y-103772765D01*
X109897585Y-103669991D01*
X109900500Y-103644865D01*
X109900499Y-101555136D01*
X109897585Y-101530009D01*
X109852206Y-101427235D01*
X109772765Y-101347794D01*
X109669991Y-101302415D01*
X109669990Y-101302414D01*
X109669988Y-101302414D01*
X109644868Y-101299500D01*
X106355139Y-101299500D01*
X106355136Y-101299501D01*
X106330009Y-101302414D01*
X106227235Y-101347794D01*
X106147794Y-101427235D01*
X106102414Y-101530011D01*
X106099500Y-101555130D01*
X100500000Y-101555130D01*
X100500000Y-100599000D01*
X100518907Y-100540809D01*
X100568407Y-100504845D01*
X100599000Y-100500000D01*
X119401000Y-100500000D01*
X119459191Y-100518907D01*
G37*
%TD.AperFunction*%
%TA.AperFunction,Conductor*%
G36*
X106511910Y-174192239D02*
G01*
X106519344Y-174192619D01*
X106533161Y-174203776D01*
X106553995Y-174215088D01*
X108170504Y-175831597D01*
X108198281Y-175886114D01*
X108199500Y-175901601D01*
X108199500Y-176635636D01*
X108210134Y-176708625D01*
X108265174Y-176821211D01*
X108353789Y-176909826D01*
X108466375Y-176964866D01*
X108539364Y-176975500D01*
X108539367Y-176975500D01*
X108760632Y-176975500D01*
X108760636Y-176975500D01*
X108833625Y-176964866D01*
X108931520Y-176917007D01*
X108992101Y-176908437D01*
X109018478Y-176917007D01*
X109116375Y-176964866D01*
X109189364Y-176975500D01*
X109189367Y-176975500D01*
X109410632Y-176975500D01*
X109410636Y-176975500D01*
X109483625Y-176964866D01*
X109581520Y-176917007D01*
X109642101Y-176908437D01*
X109668478Y-176917007D01*
X109766375Y-176964866D01*
X109839364Y-176975500D01*
X109925500Y-176975500D01*
X109983691Y-176994407D01*
X110019655Y-177043907D01*
X110024500Y-177074500D01*
X110024500Y-177160636D01*
X110026434Y-177173910D01*
X110035134Y-177233626D01*
X110035135Y-177233628D01*
X110082991Y-177331520D01*
X110091562Y-177392102D01*
X110082991Y-177418480D01*
X110035135Y-177516371D01*
X110035134Y-177516373D01*
X110035134Y-177516375D01*
X110024500Y-177589364D01*
X110024500Y-177810636D01*
X110025705Y-177818904D01*
X110035134Y-177883626D01*
X110035135Y-177883628D01*
X110082991Y-177981520D01*
X110091562Y-178042102D01*
X110082991Y-178068480D01*
X110035135Y-178166371D01*
X110035134Y-178166373D01*
X110035134Y-178166375D01*
X110024500Y-178239364D01*
X110024500Y-178460636D01*
X110028182Y-178485907D01*
X110035134Y-178533626D01*
X110035135Y-178533628D01*
X110082991Y-178631520D01*
X110091562Y-178692102D01*
X110082991Y-178718480D01*
X110035135Y-178816371D01*
X110035134Y-178816373D01*
X110035134Y-178816375D01*
X110024500Y-178889364D01*
X110024500Y-179110636D01*
X110033007Y-179169027D01*
X110035134Y-179183626D01*
X110035135Y-179183628D01*
X110082991Y-179281520D01*
X110091562Y-179342102D01*
X110082991Y-179368480D01*
X110035135Y-179466371D01*
X110035134Y-179466373D01*
X110035134Y-179466375D01*
X110024500Y-179539364D01*
X110024500Y-179760636D01*
X110025851Y-179769907D01*
X110035134Y-179833626D01*
X110035135Y-179833628D01*
X110082991Y-179931520D01*
X110091562Y-179992102D01*
X110082991Y-180018480D01*
X110035135Y-180116371D01*
X110035134Y-180116373D01*
X110035134Y-180116375D01*
X110024500Y-180189364D01*
X110024500Y-180410636D01*
X110025851Y-180419907D01*
X110035134Y-180483626D01*
X110035135Y-180483628D01*
X110082991Y-180581520D01*
X110091562Y-180642102D01*
X110082991Y-180668480D01*
X110035135Y-180766371D01*
X110035134Y-180766373D01*
X110024500Y-180839367D01*
X110024500Y-180925500D01*
X110005593Y-180983691D01*
X109956093Y-181019655D01*
X109925500Y-181024500D01*
X109839364Y-181024500D01*
X109795570Y-181030880D01*
X109766373Y-181035134D01*
X109766371Y-181035135D01*
X109668480Y-181082991D01*
X109607898Y-181091562D01*
X109581520Y-181082991D01*
X109483628Y-181035135D01*
X109483626Y-181035134D01*
X109465377Y-181032475D01*
X109410636Y-181024500D01*
X109189364Y-181024500D01*
X109145570Y-181030880D01*
X109116373Y-181035134D01*
X109116371Y-181035135D01*
X109018480Y-181082991D01*
X108957898Y-181091562D01*
X108931520Y-181082991D01*
X108833628Y-181035135D01*
X108833626Y-181035134D01*
X108815377Y-181032475D01*
X108760636Y-181024500D01*
X108539364Y-181024500D01*
X108495570Y-181030880D01*
X108466373Y-181035134D01*
X108466371Y-181035135D01*
X108368480Y-181082991D01*
X108307898Y-181091562D01*
X108281520Y-181082991D01*
X108183628Y-181035135D01*
X108183626Y-181035134D01*
X108165377Y-181032475D01*
X108110636Y-181024500D01*
X107889364Y-181024500D01*
X107845570Y-181030880D01*
X107816373Y-181035134D01*
X107816371Y-181035135D01*
X107718480Y-181082991D01*
X107657898Y-181091562D01*
X107631520Y-181082991D01*
X107533628Y-181035135D01*
X107533626Y-181035134D01*
X107515377Y-181032475D01*
X107460636Y-181024500D01*
X107239364Y-181024500D01*
X107195570Y-181030880D01*
X107166373Y-181035134D01*
X107053790Y-181090173D01*
X106965173Y-181178790D01*
X106910134Y-181291373D01*
X106910134Y-181291375D01*
X106899500Y-181364364D01*
X106899500Y-182310636D01*
X106910134Y-182383625D01*
X106965174Y-182496211D01*
X107053789Y-182584826D01*
X107153141Y-182633396D01*
X107197115Y-182675939D01*
X107207685Y-182736205D01*
X107180813Y-182791173D01*
X107179665Y-182792341D01*
X105734604Y-184237403D01*
X105680087Y-184265180D01*
X105619655Y-184255609D01*
X105576390Y-184212344D01*
X105565600Y-184167399D01*
X105565600Y-182635644D01*
X105584507Y-182577453D01*
X105634007Y-182541489D01*
X105695193Y-182541489D01*
X105734601Y-182565638D01*
X105753789Y-182584826D01*
X105866375Y-182639866D01*
X105939364Y-182650500D01*
X105939367Y-182650500D01*
X106160632Y-182650500D01*
X106160636Y-182650500D01*
X106233625Y-182639866D01*
X106346211Y-182584826D01*
X106434826Y-182496211D01*
X106489866Y-182383625D01*
X106500500Y-182310636D01*
X106500500Y-181364364D01*
X106489866Y-181291375D01*
X106434826Y-181178789D01*
X106346211Y-181090174D01*
X106233625Y-181035134D01*
X106233626Y-181035134D01*
X106215377Y-181032475D01*
X106160636Y-181024500D01*
X106160633Y-181024500D01*
X106074500Y-181024500D01*
X106016309Y-181005593D01*
X105980345Y-180956093D01*
X105975500Y-180925500D01*
X105975500Y-180839367D01*
X105975500Y-180839364D01*
X105964866Y-180766375D01*
X105917007Y-180668479D01*
X105908437Y-180607899D01*
X105917008Y-180581519D01*
X105964866Y-180483625D01*
X105975500Y-180410636D01*
X105975500Y-180189364D01*
X105964866Y-180116375D01*
X105917007Y-180018479D01*
X105908437Y-179957899D01*
X105917008Y-179931519D01*
X105964866Y-179833625D01*
X105975500Y-179760636D01*
X105975500Y-179539364D01*
X105964866Y-179466375D01*
X105917007Y-179368479D01*
X105908437Y-179307899D01*
X105917008Y-179281519D01*
X105964866Y-179183625D01*
X105975500Y-179110636D01*
X105975500Y-178889364D01*
X105964866Y-178816375D01*
X105917007Y-178718479D01*
X105908437Y-178657899D01*
X105917008Y-178631519D01*
X105919318Y-178626794D01*
X105964866Y-178533625D01*
X105975500Y-178460636D01*
X105975500Y-178239364D01*
X105964866Y-178166375D01*
X105917007Y-178068479D01*
X105908437Y-178007899D01*
X105917008Y-177981519D01*
X105948651Y-177916793D01*
X105964866Y-177883625D01*
X105975500Y-177810636D01*
X105975500Y-177589364D01*
X105964866Y-177516375D01*
X105917007Y-177418479D01*
X105908437Y-177357899D01*
X105917008Y-177331519D01*
X105964866Y-177233625D01*
X105975500Y-177160636D01*
X105975500Y-177074500D01*
X105994407Y-177016309D01*
X106043907Y-176980345D01*
X106074500Y-176975500D01*
X106160632Y-176975500D01*
X106160636Y-176975500D01*
X106233625Y-176964866D01*
X106346211Y-176909826D01*
X106434826Y-176821211D01*
X106489866Y-176708625D01*
X106500500Y-176635636D01*
X106500500Y-175689364D01*
X106489866Y-175616375D01*
X106434826Y-175503789D01*
X106434824Y-175503787D01*
X106383996Y-175452958D01*
X106356219Y-175398441D01*
X106355000Y-175382955D01*
X106355000Y-174322231D01*
X106355813Y-174319726D01*
X106355129Y-174317184D01*
X106360748Y-174304539D01*
X106373907Y-174264040D01*
X106376978Y-174260033D01*
X106380280Y-174255943D01*
X106395009Y-174241215D01*
X106402119Y-174228899D01*
X106406969Y-174222894D01*
X106426448Y-174210205D01*
X106443721Y-174194653D01*
X106451598Y-174193824D01*
X106458238Y-174189500D01*
X106481457Y-174190685D01*
X106504571Y-174188255D01*
X106511910Y-174192239D01*
G37*
%TD.AperFunction*%
%TA.AperFunction,Conductor*%
G36*
X116382591Y-140419406D02*
G01*
X116418555Y-140468906D01*
X116423400Y-140499499D01*
X116423400Y-147169084D01*
X116404493Y-147227275D01*
X116354993Y-147263239D01*
X116293807Y-147263239D01*
X116266210Y-147249177D01*
X116181613Y-147187715D01*
X116181609Y-147187712D01*
X115999219Y-147094780D01*
X115804529Y-147031521D01*
X115602355Y-146999500D01*
X115602352Y-146999500D01*
X115397648Y-146999500D01*
X115397645Y-146999500D01*
X115195470Y-147031521D01*
X115000780Y-147094780D01*
X114818390Y-147187712D01*
X114818386Y-147187714D01*
X114652786Y-147308029D01*
X114508029Y-147452786D01*
X114387714Y-147618386D01*
X114387712Y-147618390D01*
X114294780Y-147800780D01*
X114231521Y-147995470D01*
X114199500Y-148197644D01*
X114199500Y-148402355D01*
X114231521Y-148604529D01*
X114294780Y-148799219D01*
X114387712Y-148981609D01*
X114387714Y-148981613D01*
X114508029Y-149147213D01*
X114508031Y-149147215D01*
X114508034Y-149147219D01*
X114652781Y-149291966D01*
X114652784Y-149291968D01*
X114652786Y-149291970D01*
X114818386Y-149412285D01*
X114818390Y-149412287D01*
X115000781Y-149505220D01*
X115195466Y-149568477D01*
X115195467Y-149568477D01*
X115195470Y-149568478D01*
X115397645Y-149600500D01*
X115397648Y-149600500D01*
X115602355Y-149600500D01*
X115804529Y-149568478D01*
X115804530Y-149568477D01*
X115804534Y-149568477D01*
X115999219Y-149505220D01*
X116181610Y-149412287D01*
X116266210Y-149350821D01*
X116324400Y-149331915D01*
X116382591Y-149350822D01*
X116418555Y-149400322D01*
X116423400Y-149430915D01*
X116423400Y-151900500D01*
X116404493Y-151958691D01*
X116354993Y-151994655D01*
X116324400Y-151999500D01*
X114455139Y-151999500D01*
X114455136Y-151999501D01*
X114430009Y-152002414D01*
X114327235Y-152047794D01*
X114247794Y-152127235D01*
X114202414Y-152230011D01*
X114199500Y-152255130D01*
X114199500Y-154344860D01*
X114199501Y-154344863D01*
X114202414Y-154369990D01*
X114224380Y-154419738D01*
X114247794Y-154472765D01*
X114327235Y-154552206D01*
X114430009Y-154597585D01*
X114455135Y-154600500D01*
X116324400Y-154600499D01*
X116382591Y-154619406D01*
X116418555Y-154668906D01*
X116423400Y-154699499D01*
X116423400Y-161369084D01*
X116404493Y-161427275D01*
X116354993Y-161463239D01*
X116293807Y-161463239D01*
X116266210Y-161449177D01*
X116181613Y-161387715D01*
X116181609Y-161387712D01*
X115999219Y-161294780D01*
X115804529Y-161231521D01*
X115602355Y-161199500D01*
X115602352Y-161199500D01*
X115397648Y-161199500D01*
X115397645Y-161199500D01*
X115195470Y-161231521D01*
X115000780Y-161294780D01*
X114818390Y-161387712D01*
X114818386Y-161387714D01*
X114652786Y-161508029D01*
X114508029Y-161652786D01*
X114387714Y-161818386D01*
X114387712Y-161818390D01*
X114294780Y-162000780D01*
X114231521Y-162195470D01*
X114199500Y-162397644D01*
X114199500Y-162602355D01*
X114231521Y-162804529D01*
X114294780Y-162999219D01*
X114387712Y-163181609D01*
X114387714Y-163181613D01*
X114508029Y-163347213D01*
X114508031Y-163347215D01*
X114508034Y-163347219D01*
X114652781Y-163491966D01*
X114652784Y-163491968D01*
X114652786Y-163491970D01*
X114818386Y-163612285D01*
X114818390Y-163612287D01*
X115000781Y-163705220D01*
X115195466Y-163768477D01*
X115195467Y-163768477D01*
X115195470Y-163768478D01*
X115397645Y-163800500D01*
X115397648Y-163800500D01*
X115602355Y-163800500D01*
X115804529Y-163768478D01*
X115804530Y-163768477D01*
X115804534Y-163768477D01*
X115999219Y-163705220D01*
X116181610Y-163612287D01*
X116266210Y-163550821D01*
X116324400Y-163531915D01*
X116382591Y-163550822D01*
X116418555Y-163600322D01*
X116423400Y-163630915D01*
X116423400Y-166100500D01*
X116404493Y-166158691D01*
X116354993Y-166194655D01*
X116324400Y-166199500D01*
X114455139Y-166199500D01*
X114455136Y-166199501D01*
X114430009Y-166202414D01*
X114327235Y-166247794D01*
X114247794Y-166327235D01*
X114202414Y-166430011D01*
X114199500Y-166455130D01*
X114199500Y-168544860D01*
X114199501Y-168544863D01*
X114202414Y-168569990D01*
X114214196Y-168596673D01*
X114247794Y-168672765D01*
X114327235Y-168752206D01*
X114430009Y-168797585D01*
X114455135Y-168800500D01*
X116324400Y-168800499D01*
X116382591Y-168819406D01*
X116418555Y-168868906D01*
X116423400Y-168899499D01*
X116423400Y-173894099D01*
X116404493Y-173952290D01*
X116394404Y-173964103D01*
X113138104Y-177220403D01*
X113083587Y-177248180D01*
X113023155Y-177238609D01*
X112979890Y-177195344D01*
X112969100Y-177150399D01*
X112969100Y-143539999D01*
X112988007Y-143481808D01*
X112998090Y-143470001D01*
X115745910Y-140722181D01*
X115745913Y-140722180D01*
X115820480Y-140647613D01*
X115873207Y-140556287D01*
X115895290Y-140473872D01*
X115928614Y-140422561D01*
X115985735Y-140400635D01*
X115990916Y-140400499D01*
X116324400Y-140400499D01*
X116382591Y-140419406D01*
G37*
%TD.AperFunction*%
%TA.AperFunction,Conductor*%
G36*
X116382591Y-135150822D02*
G01*
X116418555Y-135200322D01*
X116423400Y-135230915D01*
X116423400Y-137700500D01*
X116404493Y-137758691D01*
X116354993Y-137794655D01*
X116324400Y-137799500D01*
X114455139Y-137799500D01*
X114455136Y-137799501D01*
X114430009Y-137802414D01*
X114327235Y-137847794D01*
X114247794Y-137927235D01*
X114202414Y-138030011D01*
X114199500Y-138055130D01*
X114199500Y-140144860D01*
X114199501Y-140144863D01*
X114202414Y-140169990D01*
X114227756Y-140227385D01*
X114247794Y-140272765D01*
X114327235Y-140352206D01*
X114430009Y-140397585D01*
X114455135Y-140400500D01*
X114695800Y-140400499D01*
X114753989Y-140419406D01*
X114789953Y-140468906D01*
X114789954Y-140530091D01*
X114765803Y-140569503D01*
X112707104Y-142628203D01*
X112652587Y-142655980D01*
X112592155Y-142646409D01*
X112548890Y-142603144D01*
X112538100Y-142558199D01*
X112538100Y-137669300D01*
X112557007Y-137611109D01*
X112567096Y-137599296D01*
X113386897Y-136779496D01*
X113441414Y-136751719D01*
X113456901Y-136750500D01*
X113472474Y-136750500D01*
X113472475Y-136750500D01*
X113612485Y-136712984D01*
X113612487Y-136712982D01*
X113612489Y-136712982D01*
X113738010Y-136640512D01*
X113738010Y-136640511D01*
X113738015Y-136640509D01*
X113840509Y-136538015D01*
X113912984Y-136412485D01*
X113950500Y-136272475D01*
X113950500Y-136256899D01*
X113969407Y-136198708D01*
X113979490Y-136186901D01*
X114857436Y-135308954D01*
X114911951Y-135281179D01*
X114972381Y-135290749D01*
X115000781Y-135305220D01*
X115195466Y-135368477D01*
X115195467Y-135368477D01*
X115195470Y-135368478D01*
X115397645Y-135400500D01*
X115397648Y-135400500D01*
X115602355Y-135400500D01*
X115804529Y-135368478D01*
X115804530Y-135368477D01*
X115804534Y-135368477D01*
X115999219Y-135305220D01*
X116181610Y-135212287D01*
X116266210Y-135150821D01*
X116324400Y-135131915D01*
X116382591Y-135150822D01*
G37*
%TD.AperFunction*%
%TD*%
M02*
