M48
; DRILL file KiCad 10.0.3 date 2026-07-11T14:09:25
; FORMAT={-:-/ absolute / metric / decimal}
; #@! TF.CreationDate,2026-07-11T14:09:25+02:00
; #@! TF.GenerationSoftware,Kicad,Pcbnew,10.0.3
; #@! TF.FileFunction,Plated,1,2,PTH
FMAT,2
METRIC
; #@! TA.AperFunction,Plated,PTH,ViaDrill
T1C0.300
; #@! TA.AperFunction,Plated,PTH,ComponentDrill
T2C1.000
%
G90
G05
T1
X102.0Y-102.0
X102.0Y-130.0
X102.0Y-144.0
X102.0Y-178.0
X104.0Y-118.0
X105.0Y-160.0
X109.84Y-118.5
X110.8Y-156.5
X111.11Y-129.0
X111.987Y-148.9
X112.06Y-122.9
X113.65Y-129.8
X114.6Y-127.3
X115.555Y-132.9
X116.19Y-145.0
X116.19Y-156.5
X117.14Y-122.9
X117.46Y-118.2
X118.095Y-129.0
X118.095Y-145.0
X118.73Y-145.8
X119.365Y-129.8
X119.365Y-145.8
X119.68Y-127.3
X120.0Y-118.2
X120.0Y-165.0
X120.635Y-130.6
X120.635Y-146.6
X121.27Y-146.6
X121.905Y-131.4
X121.905Y-147.4
X122.22Y-122.9
X122.54Y-118.2
X123.81Y-147.4
X124.445Y-136.9
X124.76Y-127.3
X126.0Y-160.0
X126.35Y-130.6
X127.3Y-122.9
X127.62Y-118.5
X128.89Y-131.4
X129.84Y-127.3
X130.2Y-156.5
X134.637Y-132.9
X135.8Y-141.5
X136.4Y-170.3
X138.0Y-102.0
X138.0Y-122.9
X138.0Y-127.3
X138.0Y-132.9
X138.0Y-148.9
X139.0Y-158.0
T2
X108.57Y-106.58
X108.57Y-173.42
X108.57Y-175.96
X111.11Y-106.58
X111.11Y-173.42
X111.11Y-175.96
X113.65Y-106.58
X113.65Y-173.42
X113.65Y-175.96
X116.19Y-106.58
X116.19Y-173.42
X116.19Y-175.96
X118.73Y-106.58
X118.73Y-173.42
X118.73Y-175.96
X121.27Y-106.58
X121.27Y-173.42
X121.27Y-175.96
X123.81Y-106.58
X123.81Y-173.42
X123.81Y-175.96
X126.35Y-106.58
X126.35Y-173.42
X126.35Y-175.96
X128.89Y-106.58
X128.89Y-173.42
X128.89Y-175.96
X131.43Y-106.58
X131.43Y-173.42
X131.43Y-175.96
M30
