%TF.GenerationSoftware,KiCad,Pcbnew,10.0.3*%
%TF.CreationDate,2026-07-08T12:05:27+02:00*%
%TF.ProjectId,musicbrain-pot8,6d757369-6362-4726-9169-6e2d706f7438,1.0*%
%TF.SameCoordinates,Original*%
%TF.FileFunction,Legend,Top*%
%TF.FilePolarity,Positive*%
%FSLAX46Y46*%
G04 Gerber Fmt 4.6, Leading zero omitted, Abs format (unit mm)*
G04 Created by KiCad (PCBNEW 10.0.3) date 2026-07-08 12:05:27*
%MOMM*%
%LPD*%
G01*
G04 APERTURE LIST*
%ADD10C,0.150000*%
%ADD11C,0.120000*%
G04 APERTURE END LIST*
D10*
X110428571Y-178854819D02*
X110428571Y-178188152D01*
X110428571Y-178283390D02*
X110476190Y-178235771D01*
X110476190Y-178235771D02*
X110571428Y-178188152D01*
X110571428Y-178188152D02*
X110714285Y-178188152D01*
X110714285Y-178188152D02*
X110809523Y-178235771D01*
X110809523Y-178235771D02*
X110857142Y-178331009D01*
X110857142Y-178331009D02*
X110857142Y-178854819D01*
X110857142Y-178331009D02*
X110904761Y-178235771D01*
X110904761Y-178235771D02*
X110999999Y-178188152D01*
X110999999Y-178188152D02*
X111142856Y-178188152D01*
X111142856Y-178188152D02*
X111238095Y-178235771D01*
X111238095Y-178235771D02*
X111285714Y-178331009D01*
X111285714Y-178331009D02*
X111285714Y-178854819D01*
X112190475Y-178188152D02*
X112190475Y-178854819D01*
X111761904Y-178188152D02*
X111761904Y-178711961D01*
X111761904Y-178711961D02*
X111809523Y-178807200D01*
X111809523Y-178807200D02*
X111904761Y-178854819D01*
X111904761Y-178854819D02*
X112047618Y-178854819D01*
X112047618Y-178854819D02*
X112142856Y-178807200D01*
X112142856Y-178807200D02*
X112190475Y-178759580D01*
X112619047Y-178807200D02*
X112714285Y-178854819D01*
X112714285Y-178854819D02*
X112904761Y-178854819D01*
X112904761Y-178854819D02*
X112999999Y-178807200D01*
X112999999Y-178807200D02*
X113047618Y-178711961D01*
X113047618Y-178711961D02*
X113047618Y-178664342D01*
X113047618Y-178664342D02*
X112999999Y-178569104D01*
X112999999Y-178569104D02*
X112904761Y-178521485D01*
X112904761Y-178521485D02*
X112761904Y-178521485D01*
X112761904Y-178521485D02*
X112666666Y-178473866D01*
X112666666Y-178473866D02*
X112619047Y-178378628D01*
X112619047Y-178378628D02*
X112619047Y-178331009D01*
X112619047Y-178331009D02*
X112666666Y-178235771D01*
X112666666Y-178235771D02*
X112761904Y-178188152D01*
X112761904Y-178188152D02*
X112904761Y-178188152D01*
X112904761Y-178188152D02*
X112999999Y-178235771D01*
X113476190Y-178854819D02*
X113476190Y-178188152D01*
X113476190Y-177854819D02*
X113428571Y-177902438D01*
X113428571Y-177902438D02*
X113476190Y-177950057D01*
X113476190Y-177950057D02*
X113523809Y-177902438D01*
X113523809Y-177902438D02*
X113476190Y-177854819D01*
X113476190Y-177854819D02*
X113476190Y-177950057D01*
X114380951Y-178807200D02*
X114285713Y-178854819D01*
X114285713Y-178854819D02*
X114095237Y-178854819D01*
X114095237Y-178854819D02*
X113999999Y-178807200D01*
X113999999Y-178807200D02*
X113952380Y-178759580D01*
X113952380Y-178759580D02*
X113904761Y-178664342D01*
X113904761Y-178664342D02*
X113904761Y-178378628D01*
X113904761Y-178378628D02*
X113952380Y-178283390D01*
X113952380Y-178283390D02*
X113999999Y-178235771D01*
X113999999Y-178235771D02*
X114095237Y-178188152D01*
X114095237Y-178188152D02*
X114285713Y-178188152D01*
X114285713Y-178188152D02*
X114380951Y-178235771D01*
X114809523Y-178854819D02*
X114809523Y-177854819D01*
X114809523Y-178235771D02*
X114904761Y-178188152D01*
X114904761Y-178188152D02*
X115095237Y-178188152D01*
X115095237Y-178188152D02*
X115190475Y-178235771D01*
X115190475Y-178235771D02*
X115238094Y-178283390D01*
X115238094Y-178283390D02*
X115285713Y-178378628D01*
X115285713Y-178378628D02*
X115285713Y-178664342D01*
X115285713Y-178664342D02*
X115238094Y-178759580D01*
X115238094Y-178759580D02*
X115190475Y-178807200D01*
X115190475Y-178807200D02*
X115095237Y-178854819D01*
X115095237Y-178854819D02*
X114904761Y-178854819D01*
X114904761Y-178854819D02*
X114809523Y-178807200D01*
X115714285Y-178854819D02*
X115714285Y-178188152D01*
X115714285Y-178378628D02*
X115761904Y-178283390D01*
X115761904Y-178283390D02*
X115809523Y-178235771D01*
X115809523Y-178235771D02*
X115904761Y-178188152D01*
X115904761Y-178188152D02*
X115999999Y-178188152D01*
X116761904Y-178854819D02*
X116761904Y-178331009D01*
X116761904Y-178331009D02*
X116714285Y-178235771D01*
X116714285Y-178235771D02*
X116619047Y-178188152D01*
X116619047Y-178188152D02*
X116428571Y-178188152D01*
X116428571Y-178188152D02*
X116333333Y-178235771D01*
X116761904Y-178807200D02*
X116666666Y-178854819D01*
X116666666Y-178854819D02*
X116428571Y-178854819D01*
X116428571Y-178854819D02*
X116333333Y-178807200D01*
X116333333Y-178807200D02*
X116285714Y-178711961D01*
X116285714Y-178711961D02*
X116285714Y-178616723D01*
X116285714Y-178616723D02*
X116333333Y-178521485D01*
X116333333Y-178521485D02*
X116428571Y-178473866D01*
X116428571Y-178473866D02*
X116666666Y-178473866D01*
X116666666Y-178473866D02*
X116761904Y-178426247D01*
X117238095Y-178854819D02*
X117238095Y-178188152D01*
X117238095Y-177854819D02*
X117190476Y-177902438D01*
X117190476Y-177902438D02*
X117238095Y-177950057D01*
X117238095Y-177950057D02*
X117285714Y-177902438D01*
X117285714Y-177902438D02*
X117238095Y-177854819D01*
X117238095Y-177854819D02*
X117238095Y-177950057D01*
X117714285Y-178188152D02*
X117714285Y-178854819D01*
X117714285Y-178283390D02*
X117761904Y-178235771D01*
X117761904Y-178235771D02*
X117857142Y-178188152D01*
X117857142Y-178188152D02*
X117999999Y-178188152D01*
X117999999Y-178188152D02*
X118095237Y-178235771D01*
X118095237Y-178235771D02*
X118142856Y-178331009D01*
X118142856Y-178331009D02*
X118142856Y-178854819D01*
X118619047Y-178759580D02*
X118666666Y-178807200D01*
X118666666Y-178807200D02*
X118619047Y-178854819D01*
X118619047Y-178854819D02*
X118571428Y-178807200D01*
X118571428Y-178807200D02*
X118619047Y-178759580D01*
X118619047Y-178759580D02*
X118619047Y-178854819D01*
X119095237Y-178188152D02*
X119095237Y-178854819D01*
X119095237Y-178283390D02*
X119142856Y-178235771D01*
X119142856Y-178235771D02*
X119238094Y-178188152D01*
X119238094Y-178188152D02*
X119380951Y-178188152D01*
X119380951Y-178188152D02*
X119476189Y-178235771D01*
X119476189Y-178235771D02*
X119523808Y-178331009D01*
X119523808Y-178331009D02*
X119523808Y-178854819D01*
X120142856Y-178854819D02*
X120047618Y-178807200D01*
X120047618Y-178807200D02*
X119999999Y-178711961D01*
X119999999Y-178711961D02*
X119999999Y-177854819D01*
X121238094Y-177807200D02*
X120380952Y-179092914D01*
X121571428Y-178854819D02*
X121571428Y-177854819D01*
X121999999Y-178854819D02*
X121999999Y-178331009D01*
X121999999Y-178331009D02*
X121952380Y-178235771D01*
X121952380Y-178235771D02*
X121857142Y-178188152D01*
X121857142Y-178188152D02*
X121714285Y-178188152D01*
X121714285Y-178188152D02*
X121619047Y-178235771D01*
X121619047Y-178235771D02*
X121571428Y-178283390D01*
X122380952Y-178188152D02*
X122571428Y-178854819D01*
X122571428Y-178854819D02*
X122761904Y-178378628D01*
X122761904Y-178378628D02*
X122952380Y-178854819D01*
X122952380Y-178854819D02*
X123142856Y-178188152D01*
X124238094Y-177807200D02*
X123380952Y-179092914D01*
X124571428Y-178188152D02*
X124571428Y-179188152D01*
X124571428Y-178235771D02*
X124666666Y-178188152D01*
X124666666Y-178188152D02*
X124857142Y-178188152D01*
X124857142Y-178188152D02*
X124952380Y-178235771D01*
X124952380Y-178235771D02*
X124999999Y-178283390D01*
X124999999Y-178283390D02*
X125047618Y-178378628D01*
X125047618Y-178378628D02*
X125047618Y-178664342D01*
X125047618Y-178664342D02*
X124999999Y-178759580D01*
X124999999Y-178759580D02*
X124952380Y-178807200D01*
X124952380Y-178807200D02*
X124857142Y-178854819D01*
X124857142Y-178854819D02*
X124666666Y-178854819D01*
X124666666Y-178854819D02*
X124571428Y-178807200D01*
X125619047Y-178854819D02*
X125523809Y-178807200D01*
X125523809Y-178807200D02*
X125476190Y-178759580D01*
X125476190Y-178759580D02*
X125428571Y-178664342D01*
X125428571Y-178664342D02*
X125428571Y-178378628D01*
X125428571Y-178378628D02*
X125476190Y-178283390D01*
X125476190Y-178283390D02*
X125523809Y-178235771D01*
X125523809Y-178235771D02*
X125619047Y-178188152D01*
X125619047Y-178188152D02*
X125761904Y-178188152D01*
X125761904Y-178188152D02*
X125857142Y-178235771D01*
X125857142Y-178235771D02*
X125904761Y-178283390D01*
X125904761Y-178283390D02*
X125952380Y-178378628D01*
X125952380Y-178378628D02*
X125952380Y-178664342D01*
X125952380Y-178664342D02*
X125904761Y-178759580D01*
X125904761Y-178759580D02*
X125857142Y-178807200D01*
X125857142Y-178807200D02*
X125761904Y-178854819D01*
X125761904Y-178854819D02*
X125619047Y-178854819D01*
X126238095Y-178188152D02*
X126619047Y-178188152D01*
X126380952Y-177854819D02*
X126380952Y-178711961D01*
X126380952Y-178711961D02*
X126428571Y-178807200D01*
X126428571Y-178807200D02*
X126523809Y-178854819D01*
X126523809Y-178854819D02*
X126619047Y-178854819D01*
X127095238Y-178283390D02*
X127000000Y-178235771D01*
X127000000Y-178235771D02*
X126952381Y-178188152D01*
X126952381Y-178188152D02*
X126904762Y-178092914D01*
X126904762Y-178092914D02*
X126904762Y-178045295D01*
X126904762Y-178045295D02*
X126952381Y-177950057D01*
X126952381Y-177950057D02*
X127000000Y-177902438D01*
X127000000Y-177902438D02*
X127095238Y-177854819D01*
X127095238Y-177854819D02*
X127285714Y-177854819D01*
X127285714Y-177854819D02*
X127380952Y-177902438D01*
X127380952Y-177902438D02*
X127428571Y-177950057D01*
X127428571Y-177950057D02*
X127476190Y-178045295D01*
X127476190Y-178045295D02*
X127476190Y-178092914D01*
X127476190Y-178092914D02*
X127428571Y-178188152D01*
X127428571Y-178188152D02*
X127380952Y-178235771D01*
X127380952Y-178235771D02*
X127285714Y-178283390D01*
X127285714Y-178283390D02*
X127095238Y-178283390D01*
X127095238Y-178283390D02*
X127000000Y-178331009D01*
X127000000Y-178331009D02*
X126952381Y-178378628D01*
X126952381Y-178378628D02*
X126904762Y-178473866D01*
X126904762Y-178473866D02*
X126904762Y-178664342D01*
X126904762Y-178664342D02*
X126952381Y-178759580D01*
X126952381Y-178759580D02*
X127000000Y-178807200D01*
X127000000Y-178807200D02*
X127095238Y-178854819D01*
X127095238Y-178854819D02*
X127285714Y-178854819D01*
X127285714Y-178854819D02*
X127380952Y-178807200D01*
X127380952Y-178807200D02*
X127428571Y-178759580D01*
X127428571Y-178759580D02*
X127476190Y-178664342D01*
X127476190Y-178664342D02*
X127476190Y-178473866D01*
X127476190Y-178473866D02*
X127428571Y-178378628D01*
X127428571Y-178378628D02*
X127380952Y-178331009D01*
X127380952Y-178331009D02*
X127285714Y-178283390D01*
X128666667Y-178854819D02*
X128666667Y-178188152D01*
X128666667Y-178378628D02*
X128714286Y-178283390D01*
X128714286Y-178283390D02*
X128761905Y-178235771D01*
X128761905Y-178235771D02*
X128857143Y-178188152D01*
X128857143Y-178188152D02*
X128952381Y-178188152D01*
X129666667Y-178807200D02*
X129571429Y-178854819D01*
X129571429Y-178854819D02*
X129380953Y-178854819D01*
X129380953Y-178854819D02*
X129285715Y-178807200D01*
X129285715Y-178807200D02*
X129238096Y-178711961D01*
X129238096Y-178711961D02*
X129238096Y-178331009D01*
X129238096Y-178331009D02*
X129285715Y-178235771D01*
X129285715Y-178235771D02*
X129380953Y-178188152D01*
X129380953Y-178188152D02*
X129571429Y-178188152D01*
X129571429Y-178188152D02*
X129666667Y-178235771D01*
X129666667Y-178235771D02*
X129714286Y-178331009D01*
X129714286Y-178331009D02*
X129714286Y-178426247D01*
X129714286Y-178426247D02*
X129238096Y-178521485D01*
X130047620Y-178188152D02*
X130285715Y-178854819D01*
X130285715Y-178854819D02*
X130523810Y-178188152D01*
X132190477Y-178854819D02*
X131619049Y-178854819D01*
X131904763Y-178854819D02*
X131904763Y-177854819D01*
X131904763Y-177854819D02*
X131809525Y-177997676D01*
X131809525Y-177997676D02*
X131714287Y-178092914D01*
X131714287Y-178092914D02*
X131619049Y-178140533D01*
X132619049Y-178759580D02*
X132666668Y-178807200D01*
X132666668Y-178807200D02*
X132619049Y-178854819D01*
X132619049Y-178854819D02*
X132571430Y-178807200D01*
X132571430Y-178807200D02*
X132619049Y-178759580D01*
X132619049Y-178759580D02*
X132619049Y-178854819D01*
X133285715Y-177854819D02*
X133380953Y-177854819D01*
X133380953Y-177854819D02*
X133476191Y-177902438D01*
X133476191Y-177902438D02*
X133523810Y-177950057D01*
X133523810Y-177950057D02*
X133571429Y-178045295D01*
X133571429Y-178045295D02*
X133619048Y-178235771D01*
X133619048Y-178235771D02*
X133619048Y-178473866D01*
X133619048Y-178473866D02*
X133571429Y-178664342D01*
X133571429Y-178664342D02*
X133523810Y-178759580D01*
X133523810Y-178759580D02*
X133476191Y-178807200D01*
X133476191Y-178807200D02*
X133380953Y-178854819D01*
X133380953Y-178854819D02*
X133285715Y-178854819D01*
X133285715Y-178854819D02*
X133190477Y-178807200D01*
X133190477Y-178807200D02*
X133142858Y-178759580D01*
X133142858Y-178759580D02*
X133095239Y-178664342D01*
X133095239Y-178664342D02*
X133047620Y-178473866D01*
X133047620Y-178473866D02*
X133047620Y-178235771D01*
X133047620Y-178235771D02*
X133095239Y-178045295D01*
X133095239Y-178045295D02*
X133142858Y-177950057D01*
X133142858Y-177950057D02*
X133190477Y-177902438D01*
X133190477Y-177902438D02*
X133285715Y-177854819D01*
X168366666Y-178529819D02*
X168366666Y-179244104D01*
X168366666Y-179244104D02*
X168319047Y-179386961D01*
X168319047Y-179386961D02*
X168223809Y-179482200D01*
X168223809Y-179482200D02*
X168080952Y-179529819D01*
X168080952Y-179529819D02*
X167985714Y-179529819D01*
X169366666Y-179529819D02*
X168795238Y-179529819D01*
X169080952Y-179529819D02*
X169080952Y-178529819D01*
X169080952Y-178529819D02*
X168985714Y-178672676D01*
X168985714Y-178672676D02*
X168890476Y-178767914D01*
X168890476Y-178767914D02*
X168795238Y-178815533D01*
X148338095Y-129454819D02*
X148338095Y-130264342D01*
X148338095Y-130264342D02*
X148385714Y-130359580D01*
X148385714Y-130359580D02*
X148433333Y-130407200D01*
X148433333Y-130407200D02*
X148528571Y-130454819D01*
X148528571Y-130454819D02*
X148719047Y-130454819D01*
X148719047Y-130454819D02*
X148814285Y-130407200D01*
X148814285Y-130407200D02*
X148861904Y-130359580D01*
X148861904Y-130359580D02*
X148909523Y-130264342D01*
X148909523Y-130264342D02*
X148909523Y-129454819D01*
X149909523Y-130454819D02*
X149338095Y-130454819D01*
X149623809Y-130454819D02*
X149623809Y-129454819D01*
X149623809Y-129454819D02*
X149528571Y-129597676D01*
X149528571Y-129597676D02*
X149433333Y-129692914D01*
X149433333Y-129692914D02*
X149338095Y-129740533D01*
X107154761Y-112954819D02*
X106821428Y-112478628D01*
X106583333Y-112954819D02*
X106583333Y-111954819D01*
X106583333Y-111954819D02*
X106964285Y-111954819D01*
X106964285Y-111954819D02*
X107059523Y-112002438D01*
X107059523Y-112002438D02*
X107107142Y-112050057D01*
X107107142Y-112050057D02*
X107154761Y-112145295D01*
X107154761Y-112145295D02*
X107154761Y-112288152D01*
X107154761Y-112288152D02*
X107107142Y-112383390D01*
X107107142Y-112383390D02*
X107059523Y-112431009D01*
X107059523Y-112431009D02*
X106964285Y-112478628D01*
X106964285Y-112478628D02*
X106583333Y-112478628D01*
X107440476Y-111954819D02*
X107773809Y-112954819D01*
X107773809Y-112954819D02*
X108107142Y-111954819D01*
X108964285Y-112954819D02*
X108392857Y-112954819D01*
X108678571Y-112954819D02*
X108678571Y-111954819D01*
X108678571Y-111954819D02*
X108583333Y-112097676D01*
X108583333Y-112097676D02*
X108488095Y-112192914D01*
X108488095Y-112192914D02*
X108392857Y-112240533D01*
X111063333Y-113259580D02*
X111015714Y-113307200D01*
X111015714Y-113307200D02*
X110872857Y-113354819D01*
X110872857Y-113354819D02*
X110777619Y-113354819D01*
X110777619Y-113354819D02*
X110634762Y-113307200D01*
X110634762Y-113307200D02*
X110539524Y-113211961D01*
X110539524Y-113211961D02*
X110491905Y-113116723D01*
X110491905Y-113116723D02*
X110444286Y-112926247D01*
X110444286Y-112926247D02*
X110444286Y-112783390D01*
X110444286Y-112783390D02*
X110491905Y-112592914D01*
X110491905Y-112592914D02*
X110539524Y-112497676D01*
X110539524Y-112497676D02*
X110634762Y-112402438D01*
X110634762Y-112402438D02*
X110777619Y-112354819D01*
X110777619Y-112354819D02*
X110872857Y-112354819D01*
X110872857Y-112354819D02*
X111015714Y-112402438D01*
X111015714Y-112402438D02*
X111063333Y-112450057D01*
X112015714Y-113354819D02*
X111444286Y-113354819D01*
X111730000Y-113354819D02*
X111730000Y-112354819D01*
X111730000Y-112354819D02*
X111634762Y-112497676D01*
X111634762Y-112497676D02*
X111539524Y-112592914D01*
X111539524Y-112592914D02*
X111444286Y-112640533D01*
X120654761Y-112954819D02*
X120321428Y-112478628D01*
X120083333Y-112954819D02*
X120083333Y-111954819D01*
X120083333Y-111954819D02*
X120464285Y-111954819D01*
X120464285Y-111954819D02*
X120559523Y-112002438D01*
X120559523Y-112002438D02*
X120607142Y-112050057D01*
X120607142Y-112050057D02*
X120654761Y-112145295D01*
X120654761Y-112145295D02*
X120654761Y-112288152D01*
X120654761Y-112288152D02*
X120607142Y-112383390D01*
X120607142Y-112383390D02*
X120559523Y-112431009D01*
X120559523Y-112431009D02*
X120464285Y-112478628D01*
X120464285Y-112478628D02*
X120083333Y-112478628D01*
X120940476Y-111954819D02*
X121273809Y-112954819D01*
X121273809Y-112954819D02*
X121607142Y-111954819D01*
X121892857Y-112050057D02*
X121940476Y-112002438D01*
X121940476Y-112002438D02*
X122035714Y-111954819D01*
X122035714Y-111954819D02*
X122273809Y-111954819D01*
X122273809Y-111954819D02*
X122369047Y-112002438D01*
X122369047Y-112002438D02*
X122416666Y-112050057D01*
X122416666Y-112050057D02*
X122464285Y-112145295D01*
X122464285Y-112145295D02*
X122464285Y-112240533D01*
X122464285Y-112240533D02*
X122416666Y-112383390D01*
X122416666Y-112383390D02*
X121845238Y-112954819D01*
X121845238Y-112954819D02*
X122464285Y-112954819D01*
X124563333Y-113259580D02*
X124515714Y-113307200D01*
X124515714Y-113307200D02*
X124372857Y-113354819D01*
X124372857Y-113354819D02*
X124277619Y-113354819D01*
X124277619Y-113354819D02*
X124134762Y-113307200D01*
X124134762Y-113307200D02*
X124039524Y-113211961D01*
X124039524Y-113211961D02*
X123991905Y-113116723D01*
X123991905Y-113116723D02*
X123944286Y-112926247D01*
X123944286Y-112926247D02*
X123944286Y-112783390D01*
X123944286Y-112783390D02*
X123991905Y-112592914D01*
X123991905Y-112592914D02*
X124039524Y-112497676D01*
X124039524Y-112497676D02*
X124134762Y-112402438D01*
X124134762Y-112402438D02*
X124277619Y-112354819D01*
X124277619Y-112354819D02*
X124372857Y-112354819D01*
X124372857Y-112354819D02*
X124515714Y-112402438D01*
X124515714Y-112402438D02*
X124563333Y-112450057D01*
X124944286Y-112450057D02*
X124991905Y-112402438D01*
X124991905Y-112402438D02*
X125087143Y-112354819D01*
X125087143Y-112354819D02*
X125325238Y-112354819D01*
X125325238Y-112354819D02*
X125420476Y-112402438D01*
X125420476Y-112402438D02*
X125468095Y-112450057D01*
X125468095Y-112450057D02*
X125515714Y-112545295D01*
X125515714Y-112545295D02*
X125515714Y-112640533D01*
X125515714Y-112640533D02*
X125468095Y-112783390D01*
X125468095Y-112783390D02*
X124896667Y-113354819D01*
X124896667Y-113354819D02*
X125515714Y-113354819D01*
X134154761Y-112954819D02*
X133821428Y-112478628D01*
X133583333Y-112954819D02*
X133583333Y-111954819D01*
X133583333Y-111954819D02*
X133964285Y-111954819D01*
X133964285Y-111954819D02*
X134059523Y-112002438D01*
X134059523Y-112002438D02*
X134107142Y-112050057D01*
X134107142Y-112050057D02*
X134154761Y-112145295D01*
X134154761Y-112145295D02*
X134154761Y-112288152D01*
X134154761Y-112288152D02*
X134107142Y-112383390D01*
X134107142Y-112383390D02*
X134059523Y-112431009D01*
X134059523Y-112431009D02*
X133964285Y-112478628D01*
X133964285Y-112478628D02*
X133583333Y-112478628D01*
X134440476Y-111954819D02*
X134773809Y-112954819D01*
X134773809Y-112954819D02*
X135107142Y-111954819D01*
X135345238Y-111954819D02*
X135964285Y-111954819D01*
X135964285Y-111954819D02*
X135630952Y-112335771D01*
X135630952Y-112335771D02*
X135773809Y-112335771D01*
X135773809Y-112335771D02*
X135869047Y-112383390D01*
X135869047Y-112383390D02*
X135916666Y-112431009D01*
X135916666Y-112431009D02*
X135964285Y-112526247D01*
X135964285Y-112526247D02*
X135964285Y-112764342D01*
X135964285Y-112764342D02*
X135916666Y-112859580D01*
X135916666Y-112859580D02*
X135869047Y-112907200D01*
X135869047Y-112907200D02*
X135773809Y-112954819D01*
X135773809Y-112954819D02*
X135488095Y-112954819D01*
X135488095Y-112954819D02*
X135392857Y-112907200D01*
X135392857Y-112907200D02*
X135345238Y-112859580D01*
X138063333Y-113259580D02*
X138015714Y-113307200D01*
X138015714Y-113307200D02*
X137872857Y-113354819D01*
X137872857Y-113354819D02*
X137777619Y-113354819D01*
X137777619Y-113354819D02*
X137634762Y-113307200D01*
X137634762Y-113307200D02*
X137539524Y-113211961D01*
X137539524Y-113211961D02*
X137491905Y-113116723D01*
X137491905Y-113116723D02*
X137444286Y-112926247D01*
X137444286Y-112926247D02*
X137444286Y-112783390D01*
X137444286Y-112783390D02*
X137491905Y-112592914D01*
X137491905Y-112592914D02*
X137539524Y-112497676D01*
X137539524Y-112497676D02*
X137634762Y-112402438D01*
X137634762Y-112402438D02*
X137777619Y-112354819D01*
X137777619Y-112354819D02*
X137872857Y-112354819D01*
X137872857Y-112354819D02*
X138015714Y-112402438D01*
X138015714Y-112402438D02*
X138063333Y-112450057D01*
X138396667Y-112354819D02*
X139015714Y-112354819D01*
X139015714Y-112354819D02*
X138682381Y-112735771D01*
X138682381Y-112735771D02*
X138825238Y-112735771D01*
X138825238Y-112735771D02*
X138920476Y-112783390D01*
X138920476Y-112783390D02*
X138968095Y-112831009D01*
X138968095Y-112831009D02*
X139015714Y-112926247D01*
X139015714Y-112926247D02*
X139015714Y-113164342D01*
X139015714Y-113164342D02*
X138968095Y-113259580D01*
X138968095Y-113259580D02*
X138920476Y-113307200D01*
X138920476Y-113307200D02*
X138825238Y-113354819D01*
X138825238Y-113354819D02*
X138539524Y-113354819D01*
X138539524Y-113354819D02*
X138444286Y-113307200D01*
X138444286Y-113307200D02*
X138396667Y-113259580D01*
X147654761Y-112954819D02*
X147321428Y-112478628D01*
X147083333Y-112954819D02*
X147083333Y-111954819D01*
X147083333Y-111954819D02*
X147464285Y-111954819D01*
X147464285Y-111954819D02*
X147559523Y-112002438D01*
X147559523Y-112002438D02*
X147607142Y-112050057D01*
X147607142Y-112050057D02*
X147654761Y-112145295D01*
X147654761Y-112145295D02*
X147654761Y-112288152D01*
X147654761Y-112288152D02*
X147607142Y-112383390D01*
X147607142Y-112383390D02*
X147559523Y-112431009D01*
X147559523Y-112431009D02*
X147464285Y-112478628D01*
X147464285Y-112478628D02*
X147083333Y-112478628D01*
X147940476Y-111954819D02*
X148273809Y-112954819D01*
X148273809Y-112954819D02*
X148607142Y-111954819D01*
X149369047Y-112288152D02*
X149369047Y-112954819D01*
X149130952Y-111907200D02*
X148892857Y-112621485D01*
X148892857Y-112621485D02*
X149511904Y-112621485D01*
X151563333Y-113259580D02*
X151515714Y-113307200D01*
X151515714Y-113307200D02*
X151372857Y-113354819D01*
X151372857Y-113354819D02*
X151277619Y-113354819D01*
X151277619Y-113354819D02*
X151134762Y-113307200D01*
X151134762Y-113307200D02*
X151039524Y-113211961D01*
X151039524Y-113211961D02*
X150991905Y-113116723D01*
X150991905Y-113116723D02*
X150944286Y-112926247D01*
X150944286Y-112926247D02*
X150944286Y-112783390D01*
X150944286Y-112783390D02*
X150991905Y-112592914D01*
X150991905Y-112592914D02*
X151039524Y-112497676D01*
X151039524Y-112497676D02*
X151134762Y-112402438D01*
X151134762Y-112402438D02*
X151277619Y-112354819D01*
X151277619Y-112354819D02*
X151372857Y-112354819D01*
X151372857Y-112354819D02*
X151515714Y-112402438D01*
X151515714Y-112402438D02*
X151563333Y-112450057D01*
X152420476Y-112688152D02*
X152420476Y-113354819D01*
X152182381Y-112307200D02*
X151944286Y-113021485D01*
X151944286Y-113021485D02*
X152563333Y-113021485D01*
X161154761Y-112954819D02*
X160821428Y-112478628D01*
X160583333Y-112954819D02*
X160583333Y-111954819D01*
X160583333Y-111954819D02*
X160964285Y-111954819D01*
X160964285Y-111954819D02*
X161059523Y-112002438D01*
X161059523Y-112002438D02*
X161107142Y-112050057D01*
X161107142Y-112050057D02*
X161154761Y-112145295D01*
X161154761Y-112145295D02*
X161154761Y-112288152D01*
X161154761Y-112288152D02*
X161107142Y-112383390D01*
X161107142Y-112383390D02*
X161059523Y-112431009D01*
X161059523Y-112431009D02*
X160964285Y-112478628D01*
X160964285Y-112478628D02*
X160583333Y-112478628D01*
X161440476Y-111954819D02*
X161773809Y-112954819D01*
X161773809Y-112954819D02*
X162107142Y-111954819D01*
X162916666Y-111954819D02*
X162440476Y-111954819D01*
X162440476Y-111954819D02*
X162392857Y-112431009D01*
X162392857Y-112431009D02*
X162440476Y-112383390D01*
X162440476Y-112383390D02*
X162535714Y-112335771D01*
X162535714Y-112335771D02*
X162773809Y-112335771D01*
X162773809Y-112335771D02*
X162869047Y-112383390D01*
X162869047Y-112383390D02*
X162916666Y-112431009D01*
X162916666Y-112431009D02*
X162964285Y-112526247D01*
X162964285Y-112526247D02*
X162964285Y-112764342D01*
X162964285Y-112764342D02*
X162916666Y-112859580D01*
X162916666Y-112859580D02*
X162869047Y-112907200D01*
X162869047Y-112907200D02*
X162773809Y-112954819D01*
X162773809Y-112954819D02*
X162535714Y-112954819D01*
X162535714Y-112954819D02*
X162440476Y-112907200D01*
X162440476Y-112907200D02*
X162392857Y-112859580D01*
X165063333Y-113259580D02*
X165015714Y-113307200D01*
X165015714Y-113307200D02*
X164872857Y-113354819D01*
X164872857Y-113354819D02*
X164777619Y-113354819D01*
X164777619Y-113354819D02*
X164634762Y-113307200D01*
X164634762Y-113307200D02*
X164539524Y-113211961D01*
X164539524Y-113211961D02*
X164491905Y-113116723D01*
X164491905Y-113116723D02*
X164444286Y-112926247D01*
X164444286Y-112926247D02*
X164444286Y-112783390D01*
X164444286Y-112783390D02*
X164491905Y-112592914D01*
X164491905Y-112592914D02*
X164539524Y-112497676D01*
X164539524Y-112497676D02*
X164634762Y-112402438D01*
X164634762Y-112402438D02*
X164777619Y-112354819D01*
X164777619Y-112354819D02*
X164872857Y-112354819D01*
X164872857Y-112354819D02*
X165015714Y-112402438D01*
X165015714Y-112402438D02*
X165063333Y-112450057D01*
X165968095Y-112354819D02*
X165491905Y-112354819D01*
X165491905Y-112354819D02*
X165444286Y-112831009D01*
X165444286Y-112831009D02*
X165491905Y-112783390D01*
X165491905Y-112783390D02*
X165587143Y-112735771D01*
X165587143Y-112735771D02*
X165825238Y-112735771D01*
X165825238Y-112735771D02*
X165920476Y-112783390D01*
X165920476Y-112783390D02*
X165968095Y-112831009D01*
X165968095Y-112831009D02*
X166015714Y-112926247D01*
X166015714Y-112926247D02*
X166015714Y-113164342D01*
X166015714Y-113164342D02*
X165968095Y-113259580D01*
X165968095Y-113259580D02*
X165920476Y-113307200D01*
X165920476Y-113307200D02*
X165825238Y-113354819D01*
X165825238Y-113354819D02*
X165587143Y-113354819D01*
X165587143Y-113354819D02*
X165491905Y-113307200D01*
X165491905Y-113307200D02*
X165444286Y-113259580D01*
X174654761Y-112954819D02*
X174321428Y-112478628D01*
X174083333Y-112954819D02*
X174083333Y-111954819D01*
X174083333Y-111954819D02*
X174464285Y-111954819D01*
X174464285Y-111954819D02*
X174559523Y-112002438D01*
X174559523Y-112002438D02*
X174607142Y-112050057D01*
X174607142Y-112050057D02*
X174654761Y-112145295D01*
X174654761Y-112145295D02*
X174654761Y-112288152D01*
X174654761Y-112288152D02*
X174607142Y-112383390D01*
X174607142Y-112383390D02*
X174559523Y-112431009D01*
X174559523Y-112431009D02*
X174464285Y-112478628D01*
X174464285Y-112478628D02*
X174083333Y-112478628D01*
X174940476Y-111954819D02*
X175273809Y-112954819D01*
X175273809Y-112954819D02*
X175607142Y-111954819D01*
X176369047Y-111954819D02*
X176178571Y-111954819D01*
X176178571Y-111954819D02*
X176083333Y-112002438D01*
X176083333Y-112002438D02*
X176035714Y-112050057D01*
X176035714Y-112050057D02*
X175940476Y-112192914D01*
X175940476Y-112192914D02*
X175892857Y-112383390D01*
X175892857Y-112383390D02*
X175892857Y-112764342D01*
X175892857Y-112764342D02*
X175940476Y-112859580D01*
X175940476Y-112859580D02*
X175988095Y-112907200D01*
X175988095Y-112907200D02*
X176083333Y-112954819D01*
X176083333Y-112954819D02*
X176273809Y-112954819D01*
X176273809Y-112954819D02*
X176369047Y-112907200D01*
X176369047Y-112907200D02*
X176416666Y-112859580D01*
X176416666Y-112859580D02*
X176464285Y-112764342D01*
X176464285Y-112764342D02*
X176464285Y-112526247D01*
X176464285Y-112526247D02*
X176416666Y-112431009D01*
X176416666Y-112431009D02*
X176369047Y-112383390D01*
X176369047Y-112383390D02*
X176273809Y-112335771D01*
X176273809Y-112335771D02*
X176083333Y-112335771D01*
X176083333Y-112335771D02*
X175988095Y-112383390D01*
X175988095Y-112383390D02*
X175940476Y-112431009D01*
X175940476Y-112431009D02*
X175892857Y-112526247D01*
X178563333Y-113259580D02*
X178515714Y-113307200D01*
X178515714Y-113307200D02*
X178372857Y-113354819D01*
X178372857Y-113354819D02*
X178277619Y-113354819D01*
X178277619Y-113354819D02*
X178134762Y-113307200D01*
X178134762Y-113307200D02*
X178039524Y-113211961D01*
X178039524Y-113211961D02*
X177991905Y-113116723D01*
X177991905Y-113116723D02*
X177944286Y-112926247D01*
X177944286Y-112926247D02*
X177944286Y-112783390D01*
X177944286Y-112783390D02*
X177991905Y-112592914D01*
X177991905Y-112592914D02*
X178039524Y-112497676D01*
X178039524Y-112497676D02*
X178134762Y-112402438D01*
X178134762Y-112402438D02*
X178277619Y-112354819D01*
X178277619Y-112354819D02*
X178372857Y-112354819D01*
X178372857Y-112354819D02*
X178515714Y-112402438D01*
X178515714Y-112402438D02*
X178563333Y-112450057D01*
X179420476Y-112354819D02*
X179230000Y-112354819D01*
X179230000Y-112354819D02*
X179134762Y-112402438D01*
X179134762Y-112402438D02*
X179087143Y-112450057D01*
X179087143Y-112450057D02*
X178991905Y-112592914D01*
X178991905Y-112592914D02*
X178944286Y-112783390D01*
X178944286Y-112783390D02*
X178944286Y-113164342D01*
X178944286Y-113164342D02*
X178991905Y-113259580D01*
X178991905Y-113259580D02*
X179039524Y-113307200D01*
X179039524Y-113307200D02*
X179134762Y-113354819D01*
X179134762Y-113354819D02*
X179325238Y-113354819D01*
X179325238Y-113354819D02*
X179420476Y-113307200D01*
X179420476Y-113307200D02*
X179468095Y-113259580D01*
X179468095Y-113259580D02*
X179515714Y-113164342D01*
X179515714Y-113164342D02*
X179515714Y-112926247D01*
X179515714Y-112926247D02*
X179468095Y-112831009D01*
X179468095Y-112831009D02*
X179420476Y-112783390D01*
X179420476Y-112783390D02*
X179325238Y-112735771D01*
X179325238Y-112735771D02*
X179134762Y-112735771D01*
X179134762Y-112735771D02*
X179039524Y-112783390D01*
X179039524Y-112783390D02*
X178991905Y-112831009D01*
X178991905Y-112831009D02*
X178944286Y-112926247D01*
X188154761Y-112954819D02*
X187821428Y-112478628D01*
X187583333Y-112954819D02*
X187583333Y-111954819D01*
X187583333Y-111954819D02*
X187964285Y-111954819D01*
X187964285Y-111954819D02*
X188059523Y-112002438D01*
X188059523Y-112002438D02*
X188107142Y-112050057D01*
X188107142Y-112050057D02*
X188154761Y-112145295D01*
X188154761Y-112145295D02*
X188154761Y-112288152D01*
X188154761Y-112288152D02*
X188107142Y-112383390D01*
X188107142Y-112383390D02*
X188059523Y-112431009D01*
X188059523Y-112431009D02*
X187964285Y-112478628D01*
X187964285Y-112478628D02*
X187583333Y-112478628D01*
X188440476Y-111954819D02*
X188773809Y-112954819D01*
X188773809Y-112954819D02*
X189107142Y-111954819D01*
X189345238Y-111954819D02*
X190011904Y-111954819D01*
X190011904Y-111954819D02*
X189583333Y-112954819D01*
X192063333Y-113259580D02*
X192015714Y-113307200D01*
X192015714Y-113307200D02*
X191872857Y-113354819D01*
X191872857Y-113354819D02*
X191777619Y-113354819D01*
X191777619Y-113354819D02*
X191634762Y-113307200D01*
X191634762Y-113307200D02*
X191539524Y-113211961D01*
X191539524Y-113211961D02*
X191491905Y-113116723D01*
X191491905Y-113116723D02*
X191444286Y-112926247D01*
X191444286Y-112926247D02*
X191444286Y-112783390D01*
X191444286Y-112783390D02*
X191491905Y-112592914D01*
X191491905Y-112592914D02*
X191539524Y-112497676D01*
X191539524Y-112497676D02*
X191634762Y-112402438D01*
X191634762Y-112402438D02*
X191777619Y-112354819D01*
X191777619Y-112354819D02*
X191872857Y-112354819D01*
X191872857Y-112354819D02*
X192015714Y-112402438D01*
X192015714Y-112402438D02*
X192063333Y-112450057D01*
X192396667Y-112354819D02*
X193063333Y-112354819D01*
X193063333Y-112354819D02*
X192634762Y-113354819D01*
X201654761Y-112954819D02*
X201321428Y-112478628D01*
X201083333Y-112954819D02*
X201083333Y-111954819D01*
X201083333Y-111954819D02*
X201464285Y-111954819D01*
X201464285Y-111954819D02*
X201559523Y-112002438D01*
X201559523Y-112002438D02*
X201607142Y-112050057D01*
X201607142Y-112050057D02*
X201654761Y-112145295D01*
X201654761Y-112145295D02*
X201654761Y-112288152D01*
X201654761Y-112288152D02*
X201607142Y-112383390D01*
X201607142Y-112383390D02*
X201559523Y-112431009D01*
X201559523Y-112431009D02*
X201464285Y-112478628D01*
X201464285Y-112478628D02*
X201083333Y-112478628D01*
X201940476Y-111954819D02*
X202273809Y-112954819D01*
X202273809Y-112954819D02*
X202607142Y-111954819D01*
X203083333Y-112383390D02*
X202988095Y-112335771D01*
X202988095Y-112335771D02*
X202940476Y-112288152D01*
X202940476Y-112288152D02*
X202892857Y-112192914D01*
X202892857Y-112192914D02*
X202892857Y-112145295D01*
X202892857Y-112145295D02*
X202940476Y-112050057D01*
X202940476Y-112050057D02*
X202988095Y-112002438D01*
X202988095Y-112002438D02*
X203083333Y-111954819D01*
X203083333Y-111954819D02*
X203273809Y-111954819D01*
X203273809Y-111954819D02*
X203369047Y-112002438D01*
X203369047Y-112002438D02*
X203416666Y-112050057D01*
X203416666Y-112050057D02*
X203464285Y-112145295D01*
X203464285Y-112145295D02*
X203464285Y-112192914D01*
X203464285Y-112192914D02*
X203416666Y-112288152D01*
X203416666Y-112288152D02*
X203369047Y-112335771D01*
X203369047Y-112335771D02*
X203273809Y-112383390D01*
X203273809Y-112383390D02*
X203083333Y-112383390D01*
X203083333Y-112383390D02*
X202988095Y-112431009D01*
X202988095Y-112431009D02*
X202940476Y-112478628D01*
X202940476Y-112478628D02*
X202892857Y-112573866D01*
X202892857Y-112573866D02*
X202892857Y-112764342D01*
X202892857Y-112764342D02*
X202940476Y-112859580D01*
X202940476Y-112859580D02*
X202988095Y-112907200D01*
X202988095Y-112907200D02*
X203083333Y-112954819D01*
X203083333Y-112954819D02*
X203273809Y-112954819D01*
X203273809Y-112954819D02*
X203369047Y-112907200D01*
X203369047Y-112907200D02*
X203416666Y-112859580D01*
X203416666Y-112859580D02*
X203464285Y-112764342D01*
X203464285Y-112764342D02*
X203464285Y-112573866D01*
X203464285Y-112573866D02*
X203416666Y-112478628D01*
X203416666Y-112478628D02*
X203369047Y-112431009D01*
X203369047Y-112431009D02*
X203273809Y-112383390D01*
X205563333Y-113259580D02*
X205515714Y-113307200D01*
X205515714Y-113307200D02*
X205372857Y-113354819D01*
X205372857Y-113354819D02*
X205277619Y-113354819D01*
X205277619Y-113354819D02*
X205134762Y-113307200D01*
X205134762Y-113307200D02*
X205039524Y-113211961D01*
X205039524Y-113211961D02*
X204991905Y-113116723D01*
X204991905Y-113116723D02*
X204944286Y-112926247D01*
X204944286Y-112926247D02*
X204944286Y-112783390D01*
X204944286Y-112783390D02*
X204991905Y-112592914D01*
X204991905Y-112592914D02*
X205039524Y-112497676D01*
X205039524Y-112497676D02*
X205134762Y-112402438D01*
X205134762Y-112402438D02*
X205277619Y-112354819D01*
X205277619Y-112354819D02*
X205372857Y-112354819D01*
X205372857Y-112354819D02*
X205515714Y-112402438D01*
X205515714Y-112402438D02*
X205563333Y-112450057D01*
X206134762Y-112783390D02*
X206039524Y-112735771D01*
X206039524Y-112735771D02*
X205991905Y-112688152D01*
X205991905Y-112688152D02*
X205944286Y-112592914D01*
X205944286Y-112592914D02*
X205944286Y-112545295D01*
X205944286Y-112545295D02*
X205991905Y-112450057D01*
X205991905Y-112450057D02*
X206039524Y-112402438D01*
X206039524Y-112402438D02*
X206134762Y-112354819D01*
X206134762Y-112354819D02*
X206325238Y-112354819D01*
X206325238Y-112354819D02*
X206420476Y-112402438D01*
X206420476Y-112402438D02*
X206468095Y-112450057D01*
X206468095Y-112450057D02*
X206515714Y-112545295D01*
X206515714Y-112545295D02*
X206515714Y-112592914D01*
X206515714Y-112592914D02*
X206468095Y-112688152D01*
X206468095Y-112688152D02*
X206420476Y-112735771D01*
X206420476Y-112735771D02*
X206325238Y-112783390D01*
X206325238Y-112783390D02*
X206134762Y-112783390D01*
X206134762Y-112783390D02*
X206039524Y-112831009D01*
X206039524Y-112831009D02*
X205991905Y-112878628D01*
X205991905Y-112878628D02*
X205944286Y-112973866D01*
X205944286Y-112973866D02*
X205944286Y-113164342D01*
X205944286Y-113164342D02*
X205991905Y-113259580D01*
X205991905Y-113259580D02*
X206039524Y-113307200D01*
X206039524Y-113307200D02*
X206134762Y-113354819D01*
X206134762Y-113354819D02*
X206325238Y-113354819D01*
X206325238Y-113354819D02*
X206420476Y-113307200D01*
X206420476Y-113307200D02*
X206468095Y-113259580D01*
X206468095Y-113259580D02*
X206515714Y-113164342D01*
X206515714Y-113164342D02*
X206515714Y-112973866D01*
X206515714Y-112973866D02*
X206468095Y-112878628D01*
X206468095Y-112878628D02*
X206420476Y-112831009D01*
X206420476Y-112831009D02*
X206325238Y-112783390D01*
X148708333Y-124659580D02*
X148660714Y-124707200D01*
X148660714Y-124707200D02*
X148517857Y-124754819D01*
X148517857Y-124754819D02*
X148422619Y-124754819D01*
X148422619Y-124754819D02*
X148279762Y-124707200D01*
X148279762Y-124707200D02*
X148184524Y-124611961D01*
X148184524Y-124611961D02*
X148136905Y-124516723D01*
X148136905Y-124516723D02*
X148089286Y-124326247D01*
X148089286Y-124326247D02*
X148089286Y-124183390D01*
X148089286Y-124183390D02*
X148136905Y-123992914D01*
X148136905Y-123992914D02*
X148184524Y-123897676D01*
X148184524Y-123897676D02*
X148279762Y-123802438D01*
X148279762Y-123802438D02*
X148422619Y-123754819D01*
X148422619Y-123754819D02*
X148517857Y-123754819D01*
X148517857Y-123754819D02*
X148660714Y-123802438D01*
X148660714Y-123802438D02*
X148708333Y-123850057D01*
X149184524Y-124754819D02*
X149375000Y-124754819D01*
X149375000Y-124754819D02*
X149470238Y-124707200D01*
X149470238Y-124707200D02*
X149517857Y-124659580D01*
X149517857Y-124659580D02*
X149613095Y-124516723D01*
X149613095Y-124516723D02*
X149660714Y-124326247D01*
X149660714Y-124326247D02*
X149660714Y-123945295D01*
X149660714Y-123945295D02*
X149613095Y-123850057D01*
X149613095Y-123850057D02*
X149565476Y-123802438D01*
X149565476Y-123802438D02*
X149470238Y-123754819D01*
X149470238Y-123754819D02*
X149279762Y-123754819D01*
X149279762Y-123754819D02*
X149184524Y-123802438D01*
X149184524Y-123802438D02*
X149136905Y-123850057D01*
X149136905Y-123850057D02*
X149089286Y-123945295D01*
X149089286Y-123945295D02*
X149089286Y-124183390D01*
X149089286Y-124183390D02*
X149136905Y-124278628D01*
X149136905Y-124278628D02*
X149184524Y-124326247D01*
X149184524Y-124326247D02*
X149279762Y-124373866D01*
X149279762Y-124373866D02*
X149470238Y-124373866D01*
X149470238Y-124373866D02*
X149565476Y-124326247D01*
X149565476Y-124326247D02*
X149613095Y-124278628D01*
X149613095Y-124278628D02*
X149660714Y-124183390D01*
X199957142Y-160359580D02*
X199909523Y-160407200D01*
X199909523Y-160407200D02*
X199766666Y-160454819D01*
X199766666Y-160454819D02*
X199671428Y-160454819D01*
X199671428Y-160454819D02*
X199528571Y-160407200D01*
X199528571Y-160407200D02*
X199433333Y-160311961D01*
X199433333Y-160311961D02*
X199385714Y-160216723D01*
X199385714Y-160216723D02*
X199338095Y-160026247D01*
X199338095Y-160026247D02*
X199338095Y-159883390D01*
X199338095Y-159883390D02*
X199385714Y-159692914D01*
X199385714Y-159692914D02*
X199433333Y-159597676D01*
X199433333Y-159597676D02*
X199528571Y-159502438D01*
X199528571Y-159502438D02*
X199671428Y-159454819D01*
X199671428Y-159454819D02*
X199766666Y-159454819D01*
X199766666Y-159454819D02*
X199909523Y-159502438D01*
X199909523Y-159502438D02*
X199957142Y-159550057D01*
X200909523Y-160454819D02*
X200338095Y-160454819D01*
X200623809Y-160454819D02*
X200623809Y-159454819D01*
X200623809Y-159454819D02*
X200528571Y-159597676D01*
X200528571Y-159597676D02*
X200433333Y-159692914D01*
X200433333Y-159692914D02*
X200338095Y-159740533D01*
X201528571Y-159454819D02*
X201623809Y-159454819D01*
X201623809Y-159454819D02*
X201719047Y-159502438D01*
X201719047Y-159502438D02*
X201766666Y-159550057D01*
X201766666Y-159550057D02*
X201814285Y-159645295D01*
X201814285Y-159645295D02*
X201861904Y-159835771D01*
X201861904Y-159835771D02*
X201861904Y-160073866D01*
X201861904Y-160073866D02*
X201814285Y-160264342D01*
X201814285Y-160264342D02*
X201766666Y-160359580D01*
X201766666Y-160359580D02*
X201719047Y-160407200D01*
X201719047Y-160407200D02*
X201623809Y-160454819D01*
X201623809Y-160454819D02*
X201528571Y-160454819D01*
X201528571Y-160454819D02*
X201433333Y-160407200D01*
X201433333Y-160407200D02*
X201385714Y-160359580D01*
X201385714Y-160359580D02*
X201338095Y-160264342D01*
X201338095Y-160264342D02*
X201290476Y-160073866D01*
X201290476Y-160073866D02*
X201290476Y-159835771D01*
X201290476Y-159835771D02*
X201338095Y-159645295D01*
X201338095Y-159645295D02*
X201385714Y-159550057D01*
X201385714Y-159550057D02*
X201433333Y-159502438D01*
X201433333Y-159502438D02*
X201528571Y-159454819D01*
%TO.C,J1*%
D11*
X167700000Y-172150000D02*
X167700000Y-173420000D01*
X166430000Y-172150000D02*
X167700000Y-172150000D01*
X164320000Y-174497358D02*
X164320000Y-174882642D01*
X163460000Y-174497358D02*
X163460000Y-174882642D01*
X161780000Y-174497358D02*
X161780000Y-174882642D01*
X160920000Y-174497358D02*
X160920000Y-174882642D01*
X159240000Y-174497358D02*
X159240000Y-174882642D01*
X158380000Y-174497358D02*
X158380000Y-174882642D01*
X156700000Y-174497358D02*
X156700000Y-174882642D01*
X155840000Y-174497358D02*
X155840000Y-174882642D01*
X154160000Y-174497358D02*
X154160000Y-174882642D01*
X153300000Y-174497358D02*
X153300000Y-174882642D01*
X151620000Y-174497358D02*
X151620000Y-174882642D01*
X150760000Y-174497358D02*
X150760000Y-174882642D01*
X149080000Y-174497358D02*
X149080000Y-174882642D01*
X148220000Y-174497358D02*
X148220000Y-174882642D01*
X146540000Y-174497358D02*
X146540000Y-174882642D01*
X145680000Y-174497358D02*
X145680000Y-174882642D01*
X144000000Y-174497358D02*
X144000000Y-174882642D01*
X143140000Y-174497358D02*
X143140000Y-174882642D01*
X166860000Y-174580000D02*
X166860000Y-174882642D01*
X166000000Y-174580000D02*
X166000000Y-174882642D01*
X166860000Y-177037358D02*
X166860000Y-177350000D01*
X166000000Y-177037358D02*
X166000000Y-177350000D01*
X164320000Y-177037358D02*
X164320000Y-177350000D01*
X163460000Y-177037358D02*
X163460000Y-177350000D01*
X161780000Y-177037358D02*
X161780000Y-177350000D01*
X160920000Y-177037358D02*
X160920000Y-177350000D01*
X159240000Y-177037358D02*
X159240000Y-177350000D01*
X158380000Y-177037358D02*
X158380000Y-177350000D01*
X156700000Y-177037358D02*
X156700000Y-177350000D01*
X155840000Y-177037358D02*
X155840000Y-177350000D01*
X154160000Y-177037358D02*
X154160000Y-177350000D01*
X153300000Y-177037358D02*
X153300000Y-177350000D01*
X151620000Y-177037358D02*
X151620000Y-177350000D01*
X150760000Y-177037358D02*
X150760000Y-177350000D01*
X149080000Y-177037358D02*
X149080000Y-177350000D01*
X148220000Y-177037358D02*
X148220000Y-177350000D01*
X146540000Y-177037358D02*
X146540000Y-177350000D01*
X145680000Y-177037358D02*
X145680000Y-177350000D01*
X144000000Y-177037358D02*
X144000000Y-177350000D01*
X143140000Y-177037358D02*
X143140000Y-177350000D01*
X165160000Y-177350000D02*
X165160000Y-180110000D01*
X162620000Y-177350000D02*
X162620000Y-180110000D01*
X160080000Y-177350000D02*
X160080000Y-180110000D01*
X157540000Y-177350000D02*
X157540000Y-180110000D01*
X155000000Y-177350000D02*
X155000000Y-180110000D01*
X152460000Y-177350000D02*
X152460000Y-180110000D01*
X149920000Y-177350000D02*
X149920000Y-180110000D01*
X147380000Y-177350000D02*
X147380000Y-180110000D01*
X144840000Y-177350000D02*
X144840000Y-180110000D01*
X164320000Y-180110000D02*
X164320000Y-186110000D01*
X161780000Y-180110000D02*
X161780000Y-186110000D01*
X159240000Y-180110000D02*
X159240000Y-186110000D01*
X156700000Y-180110000D02*
X156700000Y-186110000D01*
X154160000Y-180110000D02*
X154160000Y-186110000D01*
X151620000Y-180110000D02*
X151620000Y-186110000D01*
X149080000Y-180110000D02*
X149080000Y-186110000D01*
X146540000Y-180110000D02*
X146540000Y-186110000D01*
X144000000Y-180110000D02*
X144000000Y-186110000D01*
X164320000Y-186110000D02*
X163460000Y-186110000D01*
X163460000Y-186110000D02*
X163460000Y-180110000D01*
X161780000Y-186110000D02*
X160920000Y-186110000D01*
X160920000Y-186110000D02*
X160920000Y-180110000D01*
X159240000Y-186110000D02*
X158380000Y-186110000D01*
X158380000Y-186110000D02*
X158380000Y-180110000D01*
X156700000Y-186110000D02*
X155840000Y-186110000D01*
X155840000Y-186110000D02*
X155840000Y-180110000D01*
X154160000Y-186110000D02*
X153300000Y-186110000D01*
X153300000Y-186110000D02*
X153300000Y-180110000D01*
X151620000Y-186110000D02*
X150760000Y-186110000D01*
X150760000Y-186110000D02*
X150760000Y-180110000D01*
X149080000Y-186110000D02*
X148220000Y-186110000D01*
X148220000Y-186110000D02*
X148220000Y-180110000D01*
X146540000Y-186110000D02*
X145680000Y-186110000D01*
X145680000Y-186110000D02*
X145680000Y-180110000D01*
X144000000Y-186110000D02*
X143140000Y-186110000D01*
X143140000Y-186110000D02*
X143140000Y-180110000D01*
X142190000Y-177350000D02*
X167810000Y-177350000D01*
X167810000Y-180110000D01*
X142190000Y-180110000D01*
X142190000Y-177350000D01*
X166000000Y-180110000D02*
X166860000Y-180110000D01*
X166860000Y-186110000D01*
X166000000Y-186110000D01*
X166000000Y-180110000D01*
G36*
X166000000Y-180110000D02*
G01*
X166860000Y-180110000D01*
X166860000Y-186110000D01*
X166000000Y-186110000D01*
X166000000Y-180110000D01*
G37*
%TO.C,U1*%
X149940000Y-132060000D02*
X149940000Y-127940000D01*
X149995000Y-132060000D02*
X149940000Y-132060000D01*
X160060000Y-132060000D02*
X160005000Y-132060000D01*
X149940000Y-127940000D02*
X149995000Y-127940000D01*
X160005000Y-127940000D02*
X160060000Y-127940000D01*
X160060000Y-127940000D02*
X160060000Y-132060000D01*
X149990000Y-132600000D02*
X149660000Y-132840000D01*
X149660000Y-132360000D01*
X149990000Y-132600000D01*
G36*
X149990000Y-132600000D02*
G01*
X149660000Y-132840000D01*
X149660000Y-132360000D01*
X149990000Y-132600000D01*
G37*
%TO.C,RV1*%
X101700000Y-100000000D02*
X113800000Y-100000000D01*
X113800000Y-110400000D01*
X101700000Y-110400000D01*
X101700000Y-100000000D01*
%TO.C,C1*%
X110285000Y-112638748D02*
X110285000Y-113161252D01*
X108815000Y-112638748D02*
X108815000Y-113161252D01*
%TO.C,RV2*%
X115200000Y-100000000D02*
X127300000Y-100000000D01*
X127300000Y-110400000D01*
X115200000Y-110400000D01*
X115200000Y-100000000D01*
%TO.C,C2*%
X123785000Y-112638748D02*
X123785000Y-113161252D01*
X122315000Y-112638748D02*
X122315000Y-113161252D01*
%TO.C,RV3*%
X128700000Y-100000000D02*
X140800000Y-100000000D01*
X140800000Y-110400000D01*
X128700000Y-110400000D01*
X128700000Y-100000000D01*
%TO.C,C3*%
X137285000Y-112638748D02*
X137285000Y-113161252D01*
X135815000Y-112638748D02*
X135815000Y-113161252D01*
%TO.C,RV4*%
X142200000Y-100000000D02*
X154300000Y-100000000D01*
X154300000Y-110400000D01*
X142200000Y-110400000D01*
X142200000Y-100000000D01*
%TO.C,C4*%
X150785000Y-112638748D02*
X150785000Y-113161252D01*
X149315000Y-112638748D02*
X149315000Y-113161252D01*
%TO.C,RV5*%
X155700000Y-100000000D02*
X167800000Y-100000000D01*
X167800000Y-110400000D01*
X155700000Y-110400000D01*
X155700000Y-100000000D01*
%TO.C,C5*%
X164285000Y-112638748D02*
X164285000Y-113161252D01*
X162815000Y-112638748D02*
X162815000Y-113161252D01*
%TO.C,RV6*%
X169200000Y-100000000D02*
X181300000Y-100000000D01*
X181300000Y-110400000D01*
X169200000Y-110400000D01*
X169200000Y-100000000D01*
%TO.C,C6*%
X177785000Y-112638748D02*
X177785000Y-113161252D01*
X176315000Y-112638748D02*
X176315000Y-113161252D01*
%TO.C,RV7*%
X182700000Y-100000000D02*
X194800000Y-100000000D01*
X194800000Y-110400000D01*
X182700000Y-110400000D01*
X182700000Y-100000000D01*
%TO.C,C7*%
X191285000Y-112638748D02*
X191285000Y-113161252D01*
X189815000Y-112638748D02*
X189815000Y-113161252D01*
%TO.C,RV8*%
X196200000Y-100000000D02*
X208300000Y-100000000D01*
X208300000Y-110400000D01*
X196200000Y-110400000D01*
X196200000Y-100000000D01*
%TO.C,C8*%
X204785000Y-112638748D02*
X204785000Y-113161252D01*
X203315000Y-112638748D02*
X203315000Y-113161252D01*
%TO.C,C9*%
X149820000Y-124561252D02*
X149820000Y-124038748D01*
X151290000Y-124561252D02*
X151290000Y-124038748D01*
%TO.C,C10*%
X202240000Y-163000000D02*
X202240000Y-162500000D01*
X201990000Y-162750000D02*
X202490000Y-162750000D01*
X202604437Y-162260000D02*
X202740000Y-162260000D01*
X202604437Y-162260000D02*
X201540000Y-161195563D01*
X204995563Y-162260000D02*
X204860000Y-162260000D01*
X204995563Y-162260000D02*
X206060000Y-161195563D01*
X201540000Y-161195563D02*
X201540000Y-157740000D01*
X206060000Y-161195563D02*
X206060000Y-157740000D01*
X201540000Y-157740000D02*
X202740000Y-157740000D01*
X206060000Y-157740000D02*
X204860000Y-157740000D01*
%TD*%
M02*
