%TF.GenerationSoftware,KiCad,Pcbnew,10.0.3*%
%TF.CreationDate,2026-07-11T15:12:05+02:00*%
%TF.ProjectId,musicbrain-enc5front,6d757369-6362-4726-9169-6e2d656e6335,2.0*%
%TF.SameCoordinates,Original*%
%TF.FileFunction,Soldermask,Bot*%
%TF.FilePolarity,Negative*%
%FSLAX46Y46*%
G04 Gerber Fmt 4.6, Leading zero omitted, Abs format (unit mm)*
G04 Created by KiCad (PCBNEW 10.0.3) date 2026-07-11 15:12:05*
%MOMM*%
%LPD*%
G01*
G04 APERTURE LIST*
%ADD10R,2.000000X2.000000*%
%ADD11C,2.000000*%
%ADD12R,2.000000X3.200000*%
%ADD13R,1.700000X1.700000*%
%ADD14O,1.700000X1.700000*%
G04 APERTURE END LIST*
D10*
%TO.C,SW1*%
X105500000Y-117100000D03*
D11*
X110500000Y-117100000D03*
X108000000Y-117100000D03*
D12*
X102400000Y-109600000D03*
X113600000Y-109600000D03*
D11*
X110500000Y-102600000D03*
X105500000Y-102600000D03*
%TD*%
D10*
%TO.C,SW2*%
X105500000Y-134700000D03*
D11*
X110500000Y-134700000D03*
X108000000Y-134700000D03*
D12*
X102400000Y-127200000D03*
X113600000Y-127200000D03*
D11*
X110500000Y-120200000D03*
X105500000Y-120200000D03*
%TD*%
D10*
%TO.C,SW3*%
X105500000Y-152300000D03*
D11*
X110500000Y-152300000D03*
X108000000Y-152300000D03*
D12*
X102400000Y-144800000D03*
X113600000Y-144800000D03*
D11*
X110500000Y-137800000D03*
X105500000Y-137800000D03*
%TD*%
D10*
%TO.C,SW4*%
X105500000Y-169900000D03*
D11*
X110500000Y-169900000D03*
X108000000Y-169900000D03*
D12*
X102400000Y-162400000D03*
X113600000Y-162400000D03*
D11*
X110500000Y-155400000D03*
X105500000Y-155400000D03*
%TD*%
D10*
%TO.C,SW5*%
X105500000Y-187500000D03*
D11*
X110500000Y-187500000D03*
X108000000Y-187500000D03*
D12*
X102400000Y-180000000D03*
X113600000Y-180000000D03*
D11*
X110500000Y-173000000D03*
X105500000Y-173000000D03*
%TD*%
%TO.C,SW6*%
X104750000Y-191750000D03*
X111250000Y-191750000D03*
X104750000Y-196250000D03*
X111250000Y-196250000D03*
%TD*%
%TO.C,SW7*%
X104750000Y-200750000D03*
X111250000Y-200750000D03*
X104750000Y-205250000D03*
X111250000Y-205250000D03*
%TD*%
D13*
%TO.C,J1*%
X116500000Y-143570000D03*
D14*
X116500000Y-146110000D03*
X116500000Y-148650000D03*
X116500000Y-151190000D03*
X116500000Y-153730000D03*
X116500000Y-156270000D03*
X116500000Y-158810000D03*
X116500000Y-161350000D03*
X116500000Y-163890000D03*
X116500000Y-166430000D03*
%TD*%
D13*
%TO.C,J2*%
X122770000Y-189800000D03*
D14*
X125310000Y-189800000D03*
X122770000Y-192340000D03*
X125310000Y-192340000D03*
X122770000Y-194880000D03*
X125310000Y-194880000D03*
X122770000Y-197420000D03*
X125310000Y-197420000D03*
X122770000Y-199960000D03*
X125310000Y-199960000D03*
X122770000Y-202500000D03*
X125310000Y-202500000D03*
X122770000Y-205040000D03*
X125310000Y-205040000D03*
X122770000Y-207580000D03*
X125310000Y-207580000D03*
%TD*%
M02*
