M48
; DRILL file KiCad 10.0.3 date 2026-07-11T15:12:06
; FORMAT={-:-/ absolute / metric / decimal}
; #@! TF.CreationDate,2026-07-11T15:12:06+02:00
; #@! TF.GenerationSoftware,Kicad,Pcbnew,10.0.3
; #@! TF.FileFunction,Plated,1,2,PTH
FMAT,2
METRIC
; #@! TA.AperFunction,Plated,PTH,ViaDrill
T1C0.300
; #@! TA.AperFunction,Plated,PTH,ComponentDrill
T2C1.000
; #@! TA.AperFunction,Plated,PTH,ComponentDrill
T3C1.100
; #@! TA.AperFunction,Plated,PTH,ComponentDrill
T4C1.500
%
G90
G05
T1
X101.5Y-101.5
X101.5Y-208.5
X102.0Y-155.0
X102.0Y-190.5
X111.375Y-123.991
X115.208Y-199.383
X115.41Y-184.158
X116.773Y-190.92
X119.109Y-183.488
X119.3Y-115.0
X119.3Y-135.0
X119.3Y-155.0
X119.3Y-175.0
X119.3Y-195.0
X120.81Y-185.964
X120.876Y-179.103
X120.898Y-198.331
X122.05Y-125.927
X123.459Y-146.106
X123.536Y-116.601
X124.025Y-179.817
X124.113Y-150.634
X125.258Y-181.011
X125.312Y-150.72
X125.685Y-126.366
X125.909Y-133.935
X125.917Y-136.42
X125.917Y-141.374
X126.421Y-153.577
X126.587Y-191.749
X126.592Y-173.233
X126.594Y-125.857
X126.613Y-118.865
X126.767Y-124.686
X128.05Y-175.35
X128.37Y-173.145
X128.5Y-101.5
X128.5Y-208.5
X128.607Y-121.16
X128.648Y-201.517
T2
X105.5Y-102.6
X105.5Y-117.1
X105.5Y-120.2
X105.5Y-134.7
X105.5Y-137.8
X105.5Y-152.3
X105.5Y-155.4
X105.5Y-169.9
X105.5Y-173.0
X105.5Y-187.5
X108.0Y-117.1
X108.0Y-134.7
X108.0Y-152.3
X108.0Y-169.9
X108.0Y-187.5
X110.5Y-102.6
X110.5Y-117.1
X110.5Y-120.2
X110.5Y-134.7
X110.5Y-137.8
X110.5Y-152.3
X110.5Y-155.4
X110.5Y-169.9
X110.5Y-173.0
X110.5Y-187.5
X116.5Y-143.57
X116.5Y-146.11
X116.5Y-148.65
X116.5Y-151.19
X116.5Y-153.73
X116.5Y-156.27
X116.5Y-158.81
X116.5Y-161.35
X116.5Y-163.89
X116.5Y-166.43
X122.77Y-189.8
X122.77Y-192.34
X122.77Y-194.88
X122.77Y-197.42
X122.77Y-199.96
X122.77Y-202.5
X122.77Y-205.04
X122.77Y-207.58
X125.31Y-189.8
X125.31Y-192.34
X125.31Y-194.88
X125.31Y-197.42
X125.31Y-199.96
X125.31Y-202.5
X125.31Y-205.04
X125.31Y-207.58
T3
X104.75Y-191.75
X104.75Y-196.25
X104.75Y-200.75
X104.75Y-205.25
X111.25Y-191.75
X111.25Y-196.25
X111.25Y-200.75
X111.25Y-205.25
T4
X102.4Y-110.25G85X102.4Y-108.95
G05
X102.4Y-127.85G85X102.4Y-126.55
G05
X102.4Y-145.45G85X102.4Y-144.15
G05
X102.4Y-163.05G85X102.4Y-161.75
G05
X102.4Y-180.65G85X102.4Y-179.35
G05
X113.6Y-110.25G85X113.6Y-108.95
G05
X113.6Y-127.85G85X113.6Y-126.55
G05
X113.6Y-145.45G85X113.6Y-144.15
G05
X113.6Y-163.05G85X113.6Y-161.75
G05
X113.6Y-180.65G85X113.6Y-179.35
G05
M30
