%TF.GenerationSoftware,KiCad,Pcbnew,10.0.3*%
%TF.CreationDate,2026-07-11T15:12:05+02:00*%
%TF.ProjectId,musicbrain-enc5front,6d757369-6362-4726-9169-6e2d656e6335,2.0*%
%TF.SameCoordinates,Original*%
%TF.FileFunction,Legend,Bot*%
%TF.FilePolarity,Positive*%
%FSLAX46Y46*%
G04 Gerber Fmt 4.6, Leading zero omitted, Abs format (unit mm)*
G04 Created by KiCad (PCBNEW 10.0.3) date 2026-07-11 15:12:05*
%MOMM*%
%LPD*%
G01*
G04 APERTURE LIST*
%ADD10C,0.150000*%
%ADD11C,0.120000*%
G04 APERTURE END LIST*
D10*
X119633333Y-140824819D02*
X119633333Y-141539104D01*
X119633333Y-141539104D02*
X119680952Y-141681961D01*
X119680952Y-141681961D02*
X119776190Y-141777200D01*
X119776190Y-141777200D02*
X119919047Y-141824819D01*
X119919047Y-141824819D02*
X120014285Y-141824819D01*
X118633333Y-141824819D02*
X119204761Y-141824819D01*
X118919047Y-141824819D02*
X118919047Y-140824819D01*
X118919047Y-140824819D02*
X119014285Y-140967676D01*
X119014285Y-140967676D02*
X119109523Y-141062914D01*
X119109523Y-141062914D02*
X119204761Y-141110533D01*
X128443333Y-187054819D02*
X128443333Y-187769104D01*
X128443333Y-187769104D02*
X128490952Y-187911961D01*
X128490952Y-187911961D02*
X128586190Y-188007200D01*
X128586190Y-188007200D02*
X128729047Y-188054819D01*
X128729047Y-188054819D02*
X128824285Y-188054819D01*
X128014761Y-187150057D02*
X127967142Y-187102438D01*
X127967142Y-187102438D02*
X127871904Y-187054819D01*
X127871904Y-187054819D02*
X127633809Y-187054819D01*
X127633809Y-187054819D02*
X127538571Y-187102438D01*
X127538571Y-187102438D02*
X127490952Y-187150057D01*
X127490952Y-187150057D02*
X127443333Y-187245295D01*
X127443333Y-187245295D02*
X127443333Y-187340533D01*
X127443333Y-187340533D02*
X127490952Y-187483390D01*
X127490952Y-187483390D02*
X128062380Y-188054819D01*
X128062380Y-188054819D02*
X127443333Y-188054819D01*
%TO.C,J1*%
D11*
X115150000Y-142220000D02*
X117850000Y-142220000D01*
X117850000Y-167780000D01*
X115150000Y-167780000D01*
X115150000Y-142220000D01*
%TO.C,J2*%
X121420000Y-188450000D02*
X126660000Y-188450000D01*
X126660000Y-208930000D01*
X121420000Y-208930000D01*
X121420000Y-188450000D01*
%TD*%
M02*
