%TF.GenerationSoftware,KiCad,Pcbnew,10.0.3*%
%TF.CreationDate,2026-07-11T15:12:06+02:00*%
%TF.ProjectId,musicbrain-enc5front,6d757369-6362-4726-9169-6e2d656e6335,2.0*%
%TF.SameCoordinates,Original*%
%TF.FileFunction,Drillmap*%
%TF.FilePolarity,Positive*%
%FSLAX45Y45*%
G04 Gerber Fmt 4.5, Leading zero omitted, Abs format (unit mm)*
G04 Created by KiCad (PCBNEW 10.0.3) date 2026-07-11 15:12:06*
%MOMM*%
%LPD*%
G01*
G04 APERTURE LIST*
%ADD10C,0.100000*%
%ADD11C,0.200000*%
G04 APERTURE END LIST*
D10*
X10000000Y-10000000D02*
X13000000Y-10000000D01*
X13000000Y-21000000D01*
X10000000Y-21000000D01*
X10000000Y-10000000D01*
D11*
X10255777Y-21316484D02*
X10255777Y-21116484D01*
X10255777Y-21116484D02*
X10303396Y-21116484D01*
X10303396Y-21116484D02*
X10331967Y-21126008D01*
X10331967Y-21126008D02*
X10351015Y-21145055D01*
X10351015Y-21145055D02*
X10360539Y-21164103D01*
X10360539Y-21164103D02*
X10370063Y-21202198D01*
X10370063Y-21202198D02*
X10370063Y-21230770D01*
X10370063Y-21230770D02*
X10360539Y-21268865D01*
X10360539Y-21268865D02*
X10351015Y-21287912D01*
X10351015Y-21287912D02*
X10331967Y-21306960D01*
X10331967Y-21306960D02*
X10303396Y-21316484D01*
X10303396Y-21316484D02*
X10255777Y-21316484D01*
X10455777Y-21316484D02*
X10455777Y-21183150D01*
X10455777Y-21221246D02*
X10465301Y-21202198D01*
X10465301Y-21202198D02*
X10474824Y-21192674D01*
X10474824Y-21192674D02*
X10493872Y-21183150D01*
X10493872Y-21183150D02*
X10512920Y-21183150D01*
X10579586Y-21316484D02*
X10579586Y-21183150D01*
X10579586Y-21116484D02*
X10570063Y-21126008D01*
X10570063Y-21126008D02*
X10579586Y-21135531D01*
X10579586Y-21135531D02*
X10589110Y-21126008D01*
X10589110Y-21126008D02*
X10579586Y-21116484D01*
X10579586Y-21116484D02*
X10579586Y-21135531D01*
X10703396Y-21316484D02*
X10684348Y-21306960D01*
X10684348Y-21306960D02*
X10674824Y-21287912D01*
X10674824Y-21287912D02*
X10674824Y-21116484D01*
X10808158Y-21316484D02*
X10789110Y-21306960D01*
X10789110Y-21306960D02*
X10779586Y-21287912D01*
X10779586Y-21287912D02*
X10779586Y-21116484D01*
X11036729Y-21316484D02*
X11036729Y-21116484D01*
X11036729Y-21116484D02*
X11103396Y-21259341D01*
X11103396Y-21259341D02*
X11170063Y-21116484D01*
X11170063Y-21116484D02*
X11170063Y-21316484D01*
X11351015Y-21316484D02*
X11351015Y-21211722D01*
X11351015Y-21211722D02*
X11341491Y-21192674D01*
X11341491Y-21192674D02*
X11322443Y-21183150D01*
X11322443Y-21183150D02*
X11284348Y-21183150D01*
X11284348Y-21183150D02*
X11265301Y-21192674D01*
X11351015Y-21306960D02*
X11331967Y-21316484D01*
X11331967Y-21316484D02*
X11284348Y-21316484D01*
X11284348Y-21316484D02*
X11265301Y-21306960D01*
X11265301Y-21306960D02*
X11255777Y-21287912D01*
X11255777Y-21287912D02*
X11255777Y-21268865D01*
X11255777Y-21268865D02*
X11265301Y-21249817D01*
X11265301Y-21249817D02*
X11284348Y-21240293D01*
X11284348Y-21240293D02*
X11331967Y-21240293D01*
X11331967Y-21240293D02*
X11351015Y-21230770D01*
X11446253Y-21183150D02*
X11446253Y-21383150D01*
X11446253Y-21192674D02*
X11465301Y-21183150D01*
X11465301Y-21183150D02*
X11503396Y-21183150D01*
X11503396Y-21183150D02*
X11522443Y-21192674D01*
X11522443Y-21192674D02*
X11531967Y-21202198D01*
X11531967Y-21202198D02*
X11541491Y-21221246D01*
X11541491Y-21221246D02*
X11541491Y-21278389D01*
X11541491Y-21278389D02*
X11531967Y-21297436D01*
X11531967Y-21297436D02*
X11522443Y-21306960D01*
X11522443Y-21306960D02*
X11503396Y-21316484D01*
X11503396Y-21316484D02*
X11465301Y-21316484D01*
X11465301Y-21316484D02*
X11446253Y-21306960D01*
X11627205Y-21297436D02*
X11636729Y-21306960D01*
X11636729Y-21306960D02*
X11627205Y-21316484D01*
X11627205Y-21316484D02*
X11617682Y-21306960D01*
X11617682Y-21306960D02*
X11627205Y-21297436D01*
X11627205Y-21297436D02*
X11627205Y-21316484D01*
X11627205Y-21192674D02*
X11636729Y-21202198D01*
X11636729Y-21202198D02*
X11627205Y-21211722D01*
X11627205Y-21211722D02*
X11617682Y-21202198D01*
X11617682Y-21202198D02*
X11627205Y-21192674D01*
X11627205Y-21192674D02*
X11627205Y-21211722D01*
M02*
