%TF.GenerationSoftware,KiCad,Pcbnew,10.0.3*%
%TF.CreationDate,2026-07-11T15:12:05+02:00*%
%TF.ProjectId,musicbrain-enc5front,6d757369-6362-4726-9169-6e2d656e6335,2.0*%
%TF.SameCoordinates,Original*%
%TF.FileFunction,Paste,Top*%
%TF.FilePolarity,Positive*%
%FSLAX46Y46*%
G04 Gerber Fmt 4.6, Leading zero omitted, Abs format (unit mm)*
G04 Created by KiCad (PCBNEW 10.0.3) date 2026-07-11 15:12:05*
%MOMM*%
%LPD*%
G01*
G04 APERTURE LIST*
G04 Aperture macros list*
%AMRoundRect*
0 Rectangle with rounded corners*
0 $1 Rounding radius*
0 $2 $3 $4 $5 $6 $7 $8 $9 X,Y pos of 4 corners*
0 Add a 4 corners polygon primitive as box body*
4,1,4,$2,$3,$4,$5,$6,$7,$8,$9,$2,$3,0*
0 Add four circle primitives for the rounded corners*
1,1,$1+$1,$2,$3*
1,1,$1+$1,$4,$5*
1,1,$1+$1,$6,$7*
1,1,$1+$1,$8,$9*
0 Add four rect primitives between the rounded corners*
20,1,$1+$1,$2,$3,$4,$5,0*
20,1,$1+$1,$4,$5,$6,$7,0*
20,1,$1+$1,$6,$7,$8,$9,0*
20,1,$1+$1,$8,$9,$2,$3,0*%
G04 Aperture macros list end*
%ADD10RoundRect,0.250000X-0.320000X-0.320000X0.320000X-0.320000X0.320000X0.320000X-0.320000X0.320000X0*%
%ADD11RoundRect,0.075000X-0.437500X-0.075000X0.437500X-0.075000X0.437500X0.075000X-0.437500X0.075000X0*%
%ADD12RoundRect,0.075000X-0.075000X-0.437500X0.075000X-0.437500X0.075000X0.437500X-0.075000X0.437500X0*%
%ADD13RoundRect,0.250000X-0.250000X-0.475000X0.250000X-0.475000X0.250000X0.475000X-0.250000X0.475000X0*%
G04 APERTURE END LIST*
D10*
%TO.C,U1*%
X122580000Y-120580000D03*
X122580000Y-122000000D03*
X122580000Y-123420000D03*
X124000000Y-120580000D03*
X124000000Y-122000000D03*
X124000000Y-123420000D03*
X125420000Y-120580000D03*
X125420000Y-122000000D03*
X125420000Y-123420000D03*
D11*
X121162500Y-120050000D03*
X121162500Y-120700000D03*
X121162500Y-121350000D03*
X121162500Y-122000000D03*
X121162500Y-122650000D03*
X121162500Y-123300000D03*
X121162500Y-123950000D03*
D12*
X122050000Y-124837500D03*
X122700000Y-124837500D03*
X123350000Y-124837500D03*
X124000000Y-124837500D03*
X124650000Y-124837500D03*
X125300000Y-124837500D03*
X125950000Y-124837500D03*
D11*
X126837500Y-123950000D03*
X126837500Y-123300000D03*
X126837500Y-122650000D03*
X126837500Y-122000000D03*
X126837500Y-121350000D03*
X126837500Y-120700000D03*
X126837500Y-120050000D03*
D12*
X125950000Y-119162500D03*
X125300000Y-119162500D03*
X124650000Y-119162500D03*
X124000000Y-119162500D03*
X123350000Y-119162500D03*
X122700000Y-119162500D03*
X122050000Y-119162500D03*
%TD*%
D13*
%TO.C,C10*%
X123050000Y-114600000D03*
X124950000Y-114600000D03*
%TD*%
D10*
%TO.C,U2*%
X122580000Y-174580000D03*
X122580000Y-176000000D03*
X122580000Y-177420000D03*
X124000000Y-174580000D03*
X124000000Y-176000000D03*
X124000000Y-177420000D03*
X125420000Y-174580000D03*
X125420000Y-176000000D03*
X125420000Y-177420000D03*
D11*
X121162500Y-174050000D03*
X121162500Y-174700000D03*
X121162500Y-175350000D03*
X121162500Y-176000000D03*
X121162500Y-176650000D03*
X121162500Y-177300000D03*
X121162500Y-177950000D03*
D12*
X122050000Y-178837500D03*
X122700000Y-178837500D03*
X123350000Y-178837500D03*
X124000000Y-178837500D03*
X124650000Y-178837500D03*
X125300000Y-178837500D03*
X125950000Y-178837500D03*
D11*
X126837500Y-177950000D03*
X126837500Y-177300000D03*
X126837500Y-176650000D03*
X126837500Y-176000000D03*
X126837500Y-175350000D03*
X126837500Y-174700000D03*
X126837500Y-174050000D03*
D12*
X125950000Y-173162500D03*
X125300000Y-173162500D03*
X124650000Y-173162500D03*
X124000000Y-173162500D03*
X123350000Y-173162500D03*
X122700000Y-173162500D03*
X122050000Y-173162500D03*
%TD*%
D13*
%TO.C,C11*%
X123050000Y-169800000D03*
X124950000Y-169800000D03*
%TD*%
M02*
