%TF.GenerationSoftware,KiCad,Pcbnew,10.0.3*%
%TF.CreationDate,2026-07-11T12:58:40+02:00*%
%TF.ProjectId,musicbrain-enc5front,6d757369-6362-4726-9169-6e2d656e6335,1.0*%
%TF.SameCoordinates,Original*%
%TF.FileFunction,Soldermask,Bot*%
%TF.FilePolarity,Negative*%
%FSLAX46Y46*%
G04 Gerber Fmt 4.6, Leading zero omitted, Abs format (unit mm)*
G04 Created by KiCad (PCBNEW 10.0.3) date 2026-07-11 12:58:40*
%MOMM*%
%LPD*%
G01*
G04 APERTURE LIST*
%ADD10R,2.000000X2.000000*%
%ADD11C,2.000000*%
%ADD12R,3.200000X2.000000*%
%ADD13C,1.500000*%
%ADD14R,1.700000X1.700000*%
%ADD15O,1.700000X1.700000*%
G04 APERTURE END LIST*
D10*
%TO.C,SW1*%
X115500000Y-110700000D03*
D11*
X115500000Y-105700000D03*
X115500000Y-108200000D03*
D12*
X108000000Y-113800000D03*
X108000000Y-102600000D03*
D13*
X101000000Y-105700000D03*
X101000000Y-110700000D03*
%TD*%
D10*
%TO.C,SW2*%
X115500000Y-124900000D03*
D11*
X115500000Y-119900000D03*
X115500000Y-122400000D03*
D12*
X108000000Y-128000000D03*
X108000000Y-116800000D03*
D13*
X101000000Y-119900000D03*
X101000000Y-124900000D03*
%TD*%
D10*
%TO.C,SW3*%
X115500000Y-139100000D03*
D11*
X115500000Y-134100000D03*
X115500000Y-136600000D03*
D12*
X108000000Y-142200000D03*
X108000000Y-131000000D03*
D13*
X101000000Y-134100000D03*
X101000000Y-139100000D03*
%TD*%
D10*
%TO.C,SW4*%
X115500000Y-153300000D03*
D11*
X115500000Y-148300000D03*
X115500000Y-150800000D03*
D12*
X108000000Y-156400000D03*
X108000000Y-145200000D03*
D13*
X101000000Y-148300000D03*
X101000000Y-153300000D03*
%TD*%
D10*
%TO.C,SW5*%
X115500000Y-167500000D03*
D11*
X115500000Y-162500000D03*
X115500000Y-165000000D03*
D12*
X108000000Y-170600000D03*
X108000000Y-159400000D03*
D13*
X101000000Y-162500000D03*
X101000000Y-167500000D03*
%TD*%
D14*
%TO.C,J1*%
X106730000Y-186000000D03*
D15*
X109270000Y-186000000D03*
X106730000Y-188540000D03*
X109270000Y-188540000D03*
X106730000Y-191080000D03*
X109270000Y-191080000D03*
X106730000Y-193620000D03*
X109270000Y-193620000D03*
X106730000Y-196160000D03*
X109270000Y-196160000D03*
X106730000Y-198700000D03*
X109270000Y-198700000D03*
X106730000Y-201240000D03*
X109270000Y-201240000D03*
X106730000Y-203780000D03*
X109270000Y-203780000D03*
X106730000Y-206320000D03*
X109270000Y-206320000D03*
X106730000Y-208860000D03*
X109270000Y-208860000D03*
%TD*%
M02*
