%TF.GenerationSoftware,KiCad,Pcbnew,10.0.3*%
%TF.CreationDate,2026-07-11T15:12:05+02:00*%
%TF.ProjectId,musicbrain-enc5front,6d757369-6362-4726-9169-6e2d656e6335,2.0*%
%TF.SameCoordinates,Original*%
%TF.FileFunction,Copper,L2,Bot*%
%TF.FilePolarity,Positive*%
%FSLAX46Y46*%
G04 Gerber Fmt 4.6, Leading zero omitted, Abs format (unit mm)*
G04 Created by KiCad (PCBNEW 10.0.3) date 2026-07-11 15:12:05*
%MOMM*%
%LPD*%
G01*
G04 APERTURE LIST*
%TA.AperFunction,ComponentPad*%
%ADD10R,2.000000X2.000000*%
%TD*%
%TA.AperFunction,ComponentPad*%
%ADD11C,2.000000*%
%TD*%
%TA.AperFunction,ComponentPad*%
%ADD12R,2.000000X3.200000*%
%TD*%
%TA.AperFunction,ComponentPad*%
%ADD13R,1.700000X1.700000*%
%TD*%
%TA.AperFunction,ComponentPad*%
%ADD14O,1.700000X1.700000*%
%TD*%
%TA.AperFunction,ViaPad*%
%ADD15C,0.500000*%
%TD*%
%TA.AperFunction,Conductor*%
%ADD16C,0.250000*%
%TD*%
%TA.AperFunction,Conductor*%
%ADD17C,0.200000*%
%TD*%
G04 APERTURE END LIST*
D10*
%TO.P,SW1,A*%
%TO.N,/E1A*%
X105500000Y-117100000D03*
D11*
%TO.P,SW1,B*%
%TO.N,/E1B*%
X110500000Y-117100000D03*
%TO.P,SW1,C*%
%TO.N,GND*%
X108000000Y-117100000D03*
D12*
%TO.P,SW1,MP*%
%TO.N,N/C*%
X102400000Y-109600000D03*
X113600000Y-109600000D03*
D11*
%TO.P,SW1,S1*%
%TO.N,/E1S*%
X110500000Y-102600000D03*
%TO.P,SW1,S2*%
%TO.N,GND*%
X105500000Y-102600000D03*
%TD*%
D10*
%TO.P,SW2,A*%
%TO.N,/E2A*%
X105500000Y-134700000D03*
D11*
%TO.P,SW2,B*%
%TO.N,/E2B*%
X110500000Y-134700000D03*
%TO.P,SW2,C*%
%TO.N,GND*%
X108000000Y-134700000D03*
D12*
%TO.P,SW2,MP*%
%TO.N,N/C*%
X102400000Y-127200000D03*
X113600000Y-127200000D03*
D11*
%TO.P,SW2,S1*%
%TO.N,/E2S*%
X110500000Y-120200000D03*
%TO.P,SW2,S2*%
%TO.N,GND*%
X105500000Y-120200000D03*
%TD*%
D10*
%TO.P,SW3,A*%
%TO.N,/E3A*%
X105500000Y-152300000D03*
D11*
%TO.P,SW3,B*%
%TO.N,/E3B*%
X110500000Y-152300000D03*
%TO.P,SW3,C*%
%TO.N,GND*%
X108000000Y-152300000D03*
D12*
%TO.P,SW3,MP*%
%TO.N,N/C*%
X102400000Y-144800000D03*
X113600000Y-144800000D03*
D11*
%TO.P,SW3,S1*%
%TO.N,/E3S*%
X110500000Y-137800000D03*
%TO.P,SW3,S2*%
%TO.N,GND*%
X105500000Y-137800000D03*
%TD*%
D10*
%TO.P,SW4,A*%
%TO.N,/E4A*%
X105500000Y-169900000D03*
D11*
%TO.P,SW4,B*%
%TO.N,/E4B*%
X110500000Y-169900000D03*
%TO.P,SW4,C*%
%TO.N,GND*%
X108000000Y-169900000D03*
D12*
%TO.P,SW4,MP*%
%TO.N,N/C*%
X102400000Y-162400000D03*
X113600000Y-162400000D03*
D11*
%TO.P,SW4,S1*%
%TO.N,/E4S*%
X110500000Y-155400000D03*
%TO.P,SW4,S2*%
%TO.N,GND*%
X105500000Y-155400000D03*
%TD*%
D10*
%TO.P,SW5,A*%
%TO.N,/E5A*%
X105500000Y-187500000D03*
D11*
%TO.P,SW5,B*%
%TO.N,/E5B*%
X110500000Y-187500000D03*
%TO.P,SW5,C*%
%TO.N,GND*%
X108000000Y-187500000D03*
D12*
%TO.P,SW5,MP*%
%TO.N,N/C*%
X102400000Y-180000000D03*
X113600000Y-180000000D03*
D11*
%TO.P,SW5,S1*%
%TO.N,/E5S*%
X110500000Y-173000000D03*
%TO.P,SW5,S2*%
%TO.N,GND*%
X105500000Y-173000000D03*
%TD*%
%TO.P,SW6,1*%
%TO.N,/K1*%
X104750000Y-191750000D03*
X111250000Y-191750000D03*
%TO.P,SW6,2*%
%TO.N,GND*%
X104750000Y-196250000D03*
X111250000Y-196250000D03*
%TD*%
%TO.P,SW7,1*%
%TO.N,/K2*%
X104750000Y-200750000D03*
X111250000Y-200750000D03*
%TO.P,SW7,2*%
%TO.N,GND*%
X104750000Y-205250000D03*
X111250000Y-205250000D03*
%TD*%
D13*
%TO.P,J1,1*%
%TO.N,GND*%
X116500000Y-143570000D03*
D14*
%TO.P,J1,2*%
%TO.N,/SDA*%
X116500000Y-146110000D03*
%TO.P,J1,3*%
%TO.N,/SCL*%
X116500000Y-148650000D03*
%TO.P,J1,4*%
%TO.N,/IRQ*%
X116500000Y-151190000D03*
%TO.P,J1,5*%
%TO.N,N/C*%
X116500000Y-153730000D03*
%TO.P,J1,6*%
X116500000Y-156270000D03*
%TO.P,J1,7*%
X116500000Y-158810000D03*
%TO.P,J1,8*%
X116500000Y-161350000D03*
%TO.P,J1,9*%
X116500000Y-163890000D03*
%TO.P,J1,10*%
%TO.N,+3V3*%
X116500000Y-166430000D03*
%TD*%
D13*
%TO.P,J2,1*%
%TO.N,GND*%
X122770000Y-189800000D03*
D14*
%TO.P,J2,2*%
%TO.N,+3V3*%
X125310000Y-189800000D03*
%TO.P,J2,3*%
%TO.N,/X_E6A*%
X122770000Y-192340000D03*
%TO.P,J2,4*%
%TO.N,/X_E6B*%
X125310000Y-192340000D03*
%TO.P,J2,5*%
%TO.N,/X_E6S*%
X122770000Y-194880000D03*
%TO.P,J2,6*%
%TO.N,/X_E7A*%
X125310000Y-194880000D03*
%TO.P,J2,7*%
%TO.N,/X_E7B*%
X122770000Y-197420000D03*
%TO.P,J2,8*%
%TO.N,/X_E7S*%
X125310000Y-197420000D03*
%TO.P,J2,9*%
%TO.N,/X_K1*%
X122770000Y-199960000D03*
%TO.P,J2,10*%
%TO.N,/X_K2*%
X125310000Y-199960000D03*
%TO.P,J2,11*%
%TO.N,/X_K3*%
X122770000Y-202500000D03*
%TO.P,J2,12*%
%TO.N,/X_K4*%
X125310000Y-202500000D03*
%TO.P,J2,13*%
%TO.N,/X_SP1*%
X122770000Y-205040000D03*
%TO.P,J2,14*%
%TO.N,/X_SP2*%
X125310000Y-205040000D03*
%TO.P,J2,15*%
%TO.N,GND*%
X122770000Y-207580000D03*
%TO.P,J2,16*%
X125310000Y-207580000D03*
%TD*%
D15*
%TO.N,/X_E7S*%
X128050000Y-175350000D03*
%TO.N,+3V3*%
X123536400Y-116601200D03*
X122050000Y-125927300D03*
X115409700Y-184157600D03*
%TO.N,/SDA*%
X128370200Y-173145200D03*
X125258500Y-181011000D03*
X123458700Y-146105900D03*
%TO.N,/SCL*%
X126592000Y-173233200D03*
X124025100Y-179816700D03*
%TO.N,/IRQ*%
X128606900Y-121160500D03*
X126594400Y-125857000D03*
X124112900Y-150634300D03*
%TO.N,/E1A*%
X125685300Y-126366400D03*
%TO.N,/E1B*%
X126766800Y-124686000D03*
%TO.N,/E2A*%
X125909400Y-133934800D03*
%TO.N,/E2B*%
X125916900Y-136419600D03*
%TO.N,/E3A*%
X125916900Y-141374200D03*
%TO.N,/E3B*%
X125312100Y-150720200D03*
%TO.N,/E4A*%
X126420900Y-153577400D03*
%TO.N,/E4B*%
X111375200Y-123990600D03*
X126613500Y-118864900D03*
%TO.N,/E5A*%
X119108600Y-183488300D03*
%TO.N,/E5B*%
X120810500Y-185964400D03*
%TO.N,/E5S*%
X120876200Y-179103400D03*
%TO.N,/K1*%
X116772900Y-190920200D03*
%TO.N,/K2*%
X120897900Y-198331100D03*
%TO.N,/X_E6S*%
X126587200Y-191749500D03*
%TO.N,/X_K2*%
X128648400Y-201516600D03*
%TO.N,/X_SP1*%
X115208300Y-199382700D03*
%TO.N,GND*%
X101500000Y-101500000D03*
X128500000Y-101500000D03*
X101500000Y-208500000D03*
X128500000Y-208500000D03*
X102000000Y-155000000D03*
X119300000Y-115000000D03*
X119300000Y-135000000D03*
X119300000Y-155000000D03*
X119300000Y-175000000D03*
X119300000Y-195000000D03*
X102000000Y-190500000D03*
%TD*%
%TO.N,/X_E7S*%
D16*
X125310000Y-197420000D02*
X128700000Y-197420000D01*
X128700000Y-197420000D02*
X128700000Y-175350000D01*
X128700000Y-175350000D02*
X128050000Y-175350000D01*
%TO.N,+3V3*%
D17*
X123536400Y-116601200D02*
X122050000Y-118087600D01*
X122050000Y-118087600D02*
X122050000Y-125927300D01*
X125310000Y-189800000D02*
X124198300Y-189800000D01*
X124198300Y-189800000D02*
X124198300Y-189105100D01*
X124198300Y-189105100D02*
X123781500Y-188688300D01*
X123781500Y-188688300D02*
X119940400Y-188688300D01*
X119940400Y-188688300D02*
X115409700Y-184157600D01*
%TO.N,/SDA*%
X125258500Y-181011000D02*
X125258500Y-176256900D01*
X125258500Y-176256900D02*
X128370200Y-173145200D01*
X116500000Y-146110000D02*
X117611700Y-146110000D01*
X123458700Y-146105900D02*
X117615800Y-146105900D01*
X117615800Y-146105900D02*
X117611700Y-146110000D01*
%TO.N,/SCL*%
X124025100Y-179816700D02*
X124025100Y-175800100D01*
X124025100Y-175800100D02*
X126592000Y-173233200D01*
%TO.N,/IRQ*%
X126594400Y-125857000D02*
X128606900Y-123844500D01*
X128606900Y-123844500D02*
X128606900Y-121160500D01*
X116500000Y-151190000D02*
X123557200Y-151190000D01*
X123557200Y-151190000D02*
X124112900Y-150634300D01*
%TO.N,/E1A*%
X105500000Y-117100000D02*
X105500000Y-118361700D01*
X125685300Y-126366400D02*
X125184700Y-126867000D01*
X125184700Y-126867000D02*
X116237100Y-126867000D01*
X116237100Y-126867000D02*
X114708400Y-125338300D01*
X114708400Y-125338300D02*
X111897500Y-125338300D01*
X111897500Y-125338300D02*
X106761700Y-120202500D01*
X106761700Y-120202500D02*
X106761700Y-119623400D01*
X106761700Y-119623400D02*
X105500000Y-118361700D01*
%TO.N,/E1B*%
X110500000Y-117100000D02*
X111564200Y-116035800D01*
X111564200Y-116035800D02*
X124586400Y-116035800D01*
X124586400Y-116035800D02*
X127198900Y-118648300D01*
X127198900Y-118648300D02*
X127198900Y-124253900D01*
X127198900Y-124253900D02*
X126766800Y-124686000D01*
%TO.N,/E2A*%
X105500000Y-134700000D02*
X106777000Y-133423000D01*
X106777000Y-133423000D02*
X125397600Y-133423000D01*
X125397600Y-133423000D02*
X125909400Y-133934800D01*
%TO.N,/E2B*%
X110500000Y-134700000D02*
X112219600Y-136419600D01*
X112219600Y-136419600D02*
X125916900Y-136419600D01*
%TO.N,/E3A*%
X125916900Y-141374200D02*
X122292800Y-144998300D01*
X122292800Y-144998300D02*
X116039500Y-144998300D01*
X116039500Y-144998300D02*
X115237200Y-145800600D01*
X115237200Y-145800600D02*
X115237200Y-146230400D01*
X115237200Y-146230400D02*
X110808400Y-150659200D01*
X110808400Y-150659200D02*
X107140800Y-150659200D01*
X107140800Y-150659200D02*
X105500000Y-152300000D01*
%TO.N,/E3B*%
X110500000Y-152300000D02*
X110580000Y-152380000D01*
X110580000Y-152380000D02*
X123652300Y-152380000D01*
X123652300Y-152380000D02*
X125312100Y-150720200D01*
%TO.N,/E4A*%
X105500000Y-169900000D02*
X105500000Y-167529800D01*
X105500000Y-167529800D02*
X115589000Y-157440800D01*
X115589000Y-157440800D02*
X122557500Y-157440800D01*
X122557500Y-157440800D02*
X126420900Y-153577400D01*
%TO.N,/E4B*%
X111981200Y-123990600D02*
X111375200Y-123990600D01*
X111375200Y-123990600D02*
X111981200Y-123990600D01*
X122326500Y-126505300D02*
X121787500Y-126505300D01*
X122326500Y-126505300D02*
X126613500Y-122218300D01*
X126613500Y-122218300D02*
X126613500Y-118864900D01*
X111375200Y-123990600D02*
X119272800Y-123990600D01*
X119272800Y-123990600D02*
X121787500Y-126505300D01*
%TO.N,/E5A*%
X119108600Y-183488300D02*
X118854500Y-183234200D01*
X118854500Y-183234200D02*
X109765800Y-183234200D01*
X109765800Y-183234200D02*
X105500000Y-187500000D01*
%TO.N,/E5B*%
X120810500Y-185964400D02*
X118010800Y-185964400D01*
X118010800Y-185964400D02*
X118010800Y-185964300D01*
X118010800Y-185964300D02*
X115642400Y-183595900D01*
X115642400Y-183595900D02*
X114404100Y-183595900D01*
X114404100Y-183595900D02*
X110500000Y-187500000D01*
%TO.N,/E5S*%
X110500000Y-173000000D02*
X116603400Y-179103400D01*
X116603400Y-179103400D02*
X120876200Y-179103400D01*
%TO.N,/K1*%
X116453300Y-190920200D02*
X116772900Y-190920200D01*
X111250000Y-191750000D02*
X115623500Y-191750000D01*
X115623500Y-191750000D02*
X116453300Y-190920200D01*
X104750000Y-191750000D02*
X111250000Y-191750000D01*
%TO.N,/K2*%
X120897900Y-198331100D02*
X113668900Y-198331100D01*
X113668900Y-198331100D02*
X111250000Y-200750000D01*
X104750000Y-200750000D02*
X111250000Y-200750000D01*
%TO.N,/X_E6S*%
X122770000Y-194880000D02*
X123881700Y-194880000D01*
X126587200Y-191749500D02*
X126587200Y-192694900D01*
X126587200Y-192694900D02*
X125544700Y-193737400D01*
X125544700Y-193737400D02*
X124793900Y-193737400D01*
X124793900Y-193737400D02*
X123881700Y-194649600D01*
X123881700Y-194649600D02*
X123881700Y-194880000D01*
%TO.N,/X_K2*%
X128648400Y-201516600D02*
X127091800Y-199960000D01*
X127091800Y-199960000D02*
X125310000Y-199960000D01*
%TO.N,/X_SP1*%
X122770000Y-205040000D02*
X121658300Y-205040000D01*
X121658300Y-205040000D02*
X116001000Y-199382700D01*
X116001000Y-199382700D02*
X115208300Y-199382700D01*
%TD*%
%TA.AperFunction,Conductor*%
%TO.N,GND*%
G36*
X129458691Y-100519407D02*
G01*
X129494655Y-100568907D01*
X129499500Y-100599500D01*
X129499500Y-209400500D01*
X129480593Y-209458691D01*
X129431093Y-209494655D01*
X129400500Y-209499500D01*
X100599500Y-209499500D01*
X100541309Y-209480593D01*
X100505345Y-209431093D01*
X100500500Y-209400500D01*
X100500500Y-200647644D01*
X103449500Y-200647644D01*
X103449500Y-200852355D01*
X103481521Y-201054529D01*
X103544780Y-201249219D01*
X103637712Y-201431609D01*
X103637714Y-201431613D01*
X103758029Y-201597213D01*
X103758031Y-201597215D01*
X103758034Y-201597219D01*
X103902781Y-201741966D01*
X103902784Y-201741968D01*
X103902786Y-201741970D01*
X104068386Y-201862285D01*
X104068390Y-201862287D01*
X104250781Y-201955220D01*
X104445466Y-202018477D01*
X104445467Y-202018477D01*
X104445470Y-202018478D01*
X104647645Y-202050500D01*
X104647648Y-202050500D01*
X104852355Y-202050500D01*
X105054529Y-202018478D01*
X105054530Y-202018477D01*
X105054534Y-202018477D01*
X105249219Y-201955220D01*
X105431610Y-201862287D01*
X105597219Y-201741966D01*
X105741966Y-201597219D01*
X105822180Y-201486813D01*
X105862285Y-201431613D01*
X105862287Y-201431610D01*
X105955220Y-201249219D01*
X105955224Y-201249208D01*
X105965070Y-201218907D01*
X106001034Y-201169407D01*
X106059224Y-201150500D01*
X109940776Y-201150500D01*
X109998967Y-201169407D01*
X110034930Y-201218907D01*
X110044775Y-201249208D01*
X110044778Y-201249215D01*
X110044780Y-201249219D01*
X110072751Y-201304115D01*
X110137712Y-201431609D01*
X110137714Y-201431613D01*
X110258029Y-201597213D01*
X110258031Y-201597215D01*
X110258034Y-201597219D01*
X110402781Y-201741966D01*
X110402784Y-201741968D01*
X110402786Y-201741970D01*
X110568386Y-201862285D01*
X110568390Y-201862287D01*
X110750781Y-201955220D01*
X110945466Y-202018477D01*
X110945467Y-202018477D01*
X110945470Y-202018478D01*
X111147645Y-202050500D01*
X111147648Y-202050500D01*
X111352355Y-202050500D01*
X111554529Y-202018478D01*
X111554530Y-202018477D01*
X111554534Y-202018477D01*
X111749219Y-201955220D01*
X111931610Y-201862287D01*
X112097219Y-201741966D01*
X112241966Y-201597219D01*
X112322180Y-201486813D01*
X112362285Y-201431613D01*
X112362287Y-201431610D01*
X112455220Y-201249219D01*
X112518477Y-201054534D01*
X112532484Y-200966100D01*
X112550500Y-200852355D01*
X112550500Y-200647644D01*
X112518478Y-200445470D01*
X112508433Y-200414555D01*
X112455220Y-200250781D01*
X112440750Y-200222384D01*
X112431179Y-200161953D01*
X112458956Y-200107436D01*
X113805797Y-198760596D01*
X113860314Y-198732819D01*
X113875801Y-198731600D01*
X114865566Y-198731600D01*
X114923757Y-198750507D01*
X114959721Y-198800007D01*
X114959721Y-198861193D01*
X114923757Y-198910693D01*
X114915071Y-198916333D01*
X114893260Y-198928925D01*
X114870286Y-198942190D01*
X114767787Y-199044689D01*
X114695317Y-199170210D01*
X114695316Y-199170215D01*
X114657800Y-199310225D01*
X114657800Y-199455175D01*
X114664860Y-199481523D01*
X114695317Y-199595189D01*
X114767787Y-199720710D01*
X114767789Y-199720712D01*
X114767791Y-199720715D01*
X114870285Y-199823209D01*
X114870287Y-199823210D01*
X114870289Y-199823212D01*
X114995811Y-199895682D01*
X114995812Y-199895682D01*
X114995815Y-199895684D01*
X115135825Y-199933200D01*
X115135826Y-199933200D01*
X115280774Y-199933200D01*
X115280775Y-199933200D01*
X115420785Y-199895684D01*
X115420787Y-199895682D01*
X115420789Y-199895682D01*
X115546310Y-199823212D01*
X115546310Y-199823211D01*
X115546315Y-199823209D01*
X115557329Y-199812194D01*
X115564444Y-199808569D01*
X115569140Y-199802107D01*
X115591188Y-199794943D01*
X115611844Y-199784419D01*
X115627331Y-199783200D01*
X115794099Y-199783200D01*
X115852290Y-199802107D01*
X115864103Y-199812196D01*
X121337820Y-205285913D01*
X121337819Y-205285913D01*
X121412387Y-205360480D01*
X121503713Y-205413207D01*
X121605573Y-205440500D01*
X121622161Y-205440500D01*
X121680352Y-205459407D01*
X121710368Y-205494552D01*
X121786004Y-205642994D01*
X121892447Y-205789501D01*
X122020499Y-205917553D01*
X122167006Y-206023996D01*
X122328361Y-206106211D01*
X122500591Y-206162171D01*
X122572136Y-206173502D01*
X122679451Y-206190500D01*
X122679454Y-206190500D01*
X122860549Y-206190500D01*
X122949977Y-206176335D01*
X123039409Y-206162171D01*
X123211639Y-206106211D01*
X123372994Y-206023996D01*
X123519501Y-205917553D01*
X123647553Y-205789501D01*
X123753996Y-205642994D01*
X123836211Y-205481639D01*
X123892171Y-205309409D01*
X123920500Y-205130546D01*
X123920500Y-204949454D01*
X123920500Y-204949450D01*
X124159500Y-204949450D01*
X124159500Y-205130549D01*
X124187828Y-205309406D01*
X124236565Y-205459407D01*
X124243789Y-205481639D01*
X124326004Y-205642994D01*
X124432447Y-205789501D01*
X124560499Y-205917553D01*
X124707006Y-206023996D01*
X124868361Y-206106211D01*
X125040591Y-206162171D01*
X125112136Y-206173502D01*
X125219451Y-206190500D01*
X125219454Y-206190500D01*
X125400549Y-206190500D01*
X125489977Y-206176335D01*
X125579409Y-206162171D01*
X125751639Y-206106211D01*
X125912994Y-206023996D01*
X126059501Y-205917553D01*
X126187553Y-205789501D01*
X126293996Y-205642994D01*
X126376211Y-205481639D01*
X126432171Y-205309409D01*
X126460500Y-205130546D01*
X126460500Y-204949454D01*
X126460500Y-204949450D01*
X126432171Y-204770593D01*
X126432171Y-204770591D01*
X126376211Y-204598361D01*
X126293996Y-204437006D01*
X126187553Y-204290499D01*
X126059501Y-204162447D01*
X125912994Y-204056004D01*
X125912993Y-204056003D01*
X125912991Y-204056002D01*
X125751637Y-203973788D01*
X125579406Y-203917828D01*
X125400549Y-203889500D01*
X125400546Y-203889500D01*
X125219454Y-203889500D01*
X125219451Y-203889500D01*
X125040593Y-203917828D01*
X124868362Y-203973788D01*
X124707008Y-204056002D01*
X124633752Y-204109225D01*
X124560499Y-204162447D01*
X124432447Y-204290499D01*
X124432445Y-204290502D01*
X124326002Y-204437008D01*
X124243788Y-204598362D01*
X124187828Y-204770593D01*
X124159500Y-204949450D01*
X123920500Y-204949450D01*
X123892171Y-204770593D01*
X123892171Y-204770591D01*
X123836211Y-204598361D01*
X123753996Y-204437006D01*
X123647553Y-204290499D01*
X123519501Y-204162447D01*
X123372994Y-204056004D01*
X123372993Y-204056003D01*
X123372991Y-204056002D01*
X123211637Y-203973788D01*
X123039406Y-203917828D01*
X122860549Y-203889500D01*
X122860546Y-203889500D01*
X122679454Y-203889500D01*
X122679451Y-203889500D01*
X122500593Y-203917828D01*
X122328362Y-203973788D01*
X122167008Y-204056002D01*
X122093752Y-204109225D01*
X122020499Y-204162447D01*
X122020497Y-204162449D01*
X121892444Y-204290502D01*
X121784995Y-204438393D01*
X121735495Y-204474357D01*
X121674310Y-204474356D01*
X121634899Y-204450206D01*
X119660261Y-202475568D01*
X119594143Y-202409450D01*
X121619500Y-202409450D01*
X121619500Y-202590549D01*
X121647828Y-202769406D01*
X121647829Y-202769409D01*
X121703789Y-202941639D01*
X121786004Y-203102994D01*
X121892447Y-203249501D01*
X122020499Y-203377553D01*
X122167006Y-203483996D01*
X122328361Y-203566211D01*
X122500591Y-203622171D01*
X122572136Y-203633502D01*
X122679451Y-203650500D01*
X122679454Y-203650500D01*
X122860549Y-203650500D01*
X122949977Y-203636335D01*
X123039409Y-203622171D01*
X123211639Y-203566211D01*
X123372994Y-203483996D01*
X123519501Y-203377553D01*
X123647553Y-203249501D01*
X123753996Y-203102994D01*
X123836211Y-202941639D01*
X123892171Y-202769409D01*
X123920500Y-202590546D01*
X123920500Y-202409454D01*
X123920500Y-202409450D01*
X124159500Y-202409450D01*
X124159500Y-202590549D01*
X124187828Y-202769406D01*
X124187829Y-202769409D01*
X124243789Y-202941639D01*
X124326004Y-203102994D01*
X124432447Y-203249501D01*
X124560499Y-203377553D01*
X124707006Y-203483996D01*
X124868361Y-203566211D01*
X125040591Y-203622171D01*
X125112136Y-203633502D01*
X125219451Y-203650500D01*
X125219454Y-203650500D01*
X125400549Y-203650500D01*
X125489977Y-203636335D01*
X125579409Y-203622171D01*
X125751639Y-203566211D01*
X125912994Y-203483996D01*
X126059501Y-203377553D01*
X126187553Y-203249501D01*
X126293996Y-203102994D01*
X126376211Y-202941639D01*
X126432171Y-202769409D01*
X126460500Y-202590546D01*
X126460500Y-202409454D01*
X126460500Y-202409450D01*
X126432171Y-202230593D01*
X126432171Y-202230591D01*
X126376211Y-202058361D01*
X126293996Y-201897006D01*
X126187553Y-201750499D01*
X126059501Y-201622447D01*
X125912994Y-201516004D01*
X125912993Y-201516003D01*
X125912991Y-201516002D01*
X125751637Y-201433788D01*
X125579406Y-201377828D01*
X125400549Y-201349500D01*
X125400546Y-201349500D01*
X125219454Y-201349500D01*
X125219451Y-201349500D01*
X125040593Y-201377828D01*
X124868362Y-201433788D01*
X124707008Y-201516002D01*
X124649184Y-201558014D01*
X124560499Y-201622447D01*
X124432447Y-201750499D01*
X124379225Y-201823752D01*
X124326002Y-201897008D01*
X124243788Y-202058362D01*
X124187828Y-202230593D01*
X124159500Y-202409450D01*
X123920500Y-202409450D01*
X123892171Y-202230593D01*
X123892171Y-202230591D01*
X123836211Y-202058361D01*
X123753996Y-201897006D01*
X123647553Y-201750499D01*
X123519501Y-201622447D01*
X123372994Y-201516004D01*
X123372993Y-201516003D01*
X123372991Y-201516002D01*
X123211637Y-201433788D01*
X123039406Y-201377828D01*
X122860549Y-201349500D01*
X122860546Y-201349500D01*
X122679454Y-201349500D01*
X122679451Y-201349500D01*
X122500593Y-201377828D01*
X122328362Y-201433788D01*
X122167008Y-201516002D01*
X122109184Y-201558014D01*
X122020499Y-201622447D01*
X121892447Y-201750499D01*
X121839225Y-201823752D01*
X121786002Y-201897008D01*
X121703788Y-202058362D01*
X121647828Y-202230593D01*
X121619500Y-202409450D01*
X119594143Y-202409450D01*
X118403600Y-201218907D01*
X117054143Y-199869450D01*
X121619500Y-199869450D01*
X121619500Y-200050549D01*
X121647828Y-200229406D01*
X121699843Y-200389496D01*
X121703789Y-200401639D01*
X121786004Y-200562994D01*
X121892447Y-200709501D01*
X122020499Y-200837553D01*
X122167006Y-200943996D01*
X122328361Y-201026211D01*
X122500591Y-201082171D01*
X122572136Y-201093502D01*
X122679451Y-201110500D01*
X122679454Y-201110500D01*
X122860549Y-201110500D01*
X122949977Y-201096335D01*
X123039409Y-201082171D01*
X123211639Y-201026211D01*
X123372994Y-200943996D01*
X123519501Y-200837553D01*
X123647553Y-200709501D01*
X123753996Y-200562994D01*
X123836211Y-200401639D01*
X123892171Y-200229409D01*
X123917674Y-200068390D01*
X123920500Y-200050549D01*
X123920500Y-199869450D01*
X124159500Y-199869450D01*
X124159500Y-200050549D01*
X124187828Y-200229406D01*
X124239843Y-200389496D01*
X124243789Y-200401639D01*
X124326004Y-200562994D01*
X124432447Y-200709501D01*
X124560499Y-200837553D01*
X124707006Y-200943996D01*
X124868361Y-201026211D01*
X125040591Y-201082171D01*
X125112136Y-201093502D01*
X125219451Y-201110500D01*
X125219454Y-201110500D01*
X125400549Y-201110500D01*
X125489977Y-201096335D01*
X125579409Y-201082171D01*
X125751639Y-201026211D01*
X125912994Y-200943996D01*
X126059501Y-200837553D01*
X126187553Y-200709501D01*
X126293996Y-200562994D01*
X126369630Y-200414553D01*
X126412894Y-200371290D01*
X126457839Y-200360500D01*
X126884899Y-200360500D01*
X126943090Y-200379407D01*
X126954903Y-200389496D01*
X128068904Y-201503497D01*
X128096681Y-201558014D01*
X128097900Y-201573501D01*
X128097900Y-201589074D01*
X128135417Y-201729089D01*
X128207887Y-201854610D01*
X128207889Y-201854612D01*
X128207891Y-201854615D01*
X128310385Y-201957109D01*
X128310387Y-201957110D01*
X128310389Y-201957112D01*
X128435911Y-202029582D01*
X128435912Y-202029582D01*
X128435915Y-202029584D01*
X128575925Y-202067100D01*
X128575926Y-202067100D01*
X128720874Y-202067100D01*
X128720875Y-202067100D01*
X128860885Y-202029584D01*
X128860887Y-202029582D01*
X128860889Y-202029582D01*
X128986410Y-201957112D01*
X128986410Y-201957111D01*
X128986415Y-201957109D01*
X129088909Y-201854615D01*
X129161384Y-201729085D01*
X129198900Y-201589075D01*
X129198900Y-201444125D01*
X129161384Y-201304115D01*
X129161382Y-201304112D01*
X129161382Y-201304110D01*
X129088912Y-201178589D01*
X129088910Y-201178587D01*
X129088909Y-201178585D01*
X128986415Y-201076091D01*
X128986412Y-201076089D01*
X128986410Y-201076087D01*
X128860888Y-201003617D01*
X128860889Y-201003617D01*
X128831296Y-200995687D01*
X128720875Y-200966100D01*
X128720874Y-200966100D01*
X128705301Y-200966100D01*
X128647110Y-200947193D01*
X128635297Y-200937104D01*
X128028786Y-200330593D01*
X127337713Y-199639520D01*
X127337710Y-199639518D01*
X127337709Y-199639517D01*
X127337708Y-199639516D01*
X127246391Y-199586794D01*
X127246393Y-199586794D01*
X127206870Y-199576204D01*
X127144527Y-199559500D01*
X127144525Y-199559500D01*
X126457839Y-199559500D01*
X126399648Y-199540593D01*
X126369631Y-199505447D01*
X126293996Y-199357006D01*
X126187553Y-199210499D01*
X126059501Y-199082447D01*
X125912994Y-198976004D01*
X125912993Y-198976003D01*
X125912991Y-198976002D01*
X125751637Y-198893788D01*
X125579406Y-198837828D01*
X125400549Y-198809500D01*
X125400546Y-198809500D01*
X125219454Y-198809500D01*
X125219451Y-198809500D01*
X125040593Y-198837828D01*
X124868362Y-198893788D01*
X124707008Y-198976002D01*
X124633752Y-199029225D01*
X124560499Y-199082447D01*
X124432447Y-199210499D01*
X124379225Y-199283752D01*
X124326002Y-199357008D01*
X124243788Y-199518362D01*
X124187828Y-199690593D01*
X124159500Y-199869450D01*
X123920500Y-199869450D01*
X123892171Y-199690593D01*
X123892171Y-199690591D01*
X123836211Y-199518361D01*
X123753996Y-199357006D01*
X123647553Y-199210499D01*
X123519501Y-199082447D01*
X123372994Y-198976004D01*
X123372993Y-198976003D01*
X123372991Y-198976002D01*
X123211637Y-198893788D01*
X123039406Y-198837828D01*
X122860549Y-198809500D01*
X122860546Y-198809500D01*
X122679454Y-198809500D01*
X122679451Y-198809500D01*
X122500593Y-198837828D01*
X122328362Y-198893788D01*
X122167008Y-198976002D01*
X122093752Y-199029225D01*
X122020499Y-199082447D01*
X121892447Y-199210499D01*
X121839225Y-199283752D01*
X121786002Y-199357008D01*
X121703788Y-199518362D01*
X121647828Y-199690593D01*
X121619500Y-199869450D01*
X117054143Y-199869450D01*
X116246913Y-199062220D01*
X116246910Y-199062218D01*
X116246908Y-199062216D01*
X116155591Y-199009494D01*
X116155593Y-199009494D01*
X116116070Y-198998904D01*
X116053727Y-198982200D01*
X116053725Y-198982200D01*
X115627331Y-198982200D01*
X115571139Y-198964707D01*
X115563707Y-198959583D01*
X115546315Y-198942191D01*
X115498107Y-198914358D01*
X115494842Y-198912107D01*
X115478545Y-198890805D01*
X115460593Y-198870867D01*
X115460163Y-198866777D01*
X115457665Y-198863512D01*
X115457001Y-198836701D01*
X115454197Y-198810017D01*
X115456253Y-198806454D01*
X115456152Y-198802345D01*
X115471377Y-198780260D01*
X115484790Y-198757029D01*
X115488545Y-198755356D01*
X115490880Y-198751971D01*
X115516180Y-198743052D01*
X115540686Y-198732142D01*
X115548258Y-198731745D01*
X115548586Y-198731630D01*
X115548866Y-198731713D01*
X115551034Y-198731600D01*
X120478869Y-198731600D01*
X120537060Y-198750507D01*
X120548866Y-198760590D01*
X120559885Y-198771609D01*
X120559887Y-198771610D01*
X120559889Y-198771612D01*
X120685411Y-198844082D01*
X120685412Y-198844082D01*
X120685415Y-198844084D01*
X120825425Y-198881600D01*
X120825426Y-198881600D01*
X120970374Y-198881600D01*
X120970375Y-198881600D01*
X121110385Y-198844084D01*
X121110387Y-198844082D01*
X121110389Y-198844082D01*
X121235910Y-198771612D01*
X121235910Y-198771611D01*
X121235915Y-198771609D01*
X121338409Y-198669115D01*
X121410884Y-198543585D01*
X121448400Y-198403575D01*
X121448400Y-198258625D01*
X121410884Y-198118615D01*
X121410882Y-198118612D01*
X121410882Y-198118610D01*
X121338412Y-197993089D01*
X121338410Y-197993087D01*
X121338409Y-197993085D01*
X121235915Y-197890591D01*
X121235912Y-197890589D01*
X121235910Y-197890587D01*
X121110388Y-197818117D01*
X121110389Y-197818117D01*
X121080796Y-197810187D01*
X120970375Y-197780600D01*
X120825425Y-197780600D01*
X120763690Y-197797141D01*
X120685410Y-197818117D01*
X120559889Y-197890587D01*
X120559888Y-197890588D01*
X120559885Y-197890590D01*
X120559885Y-197890591D01*
X120548870Y-197901605D01*
X120494356Y-197929381D01*
X120478869Y-197930600D01*
X113721627Y-197930600D01*
X113616173Y-197930600D01*
X113553829Y-197947304D01*
X113514307Y-197957894D01*
X113422991Y-198010616D01*
X113422990Y-198010617D01*
X111892563Y-199541042D01*
X111838046Y-199568819D01*
X111777614Y-199559248D01*
X111749219Y-199544780D01*
X111554529Y-199481521D01*
X111352355Y-199449500D01*
X111352352Y-199449500D01*
X111147648Y-199449500D01*
X111147645Y-199449500D01*
X110945470Y-199481521D01*
X110750780Y-199544780D01*
X110568390Y-199637712D01*
X110568386Y-199637714D01*
X110402786Y-199758029D01*
X110258029Y-199902786D01*
X110137714Y-200068386D01*
X110137712Y-200068390D01*
X110044775Y-200250791D01*
X110034930Y-200281093D01*
X109998966Y-200330593D01*
X109940776Y-200349500D01*
X106059224Y-200349500D01*
X106001033Y-200330593D01*
X105965070Y-200281093D01*
X105955224Y-200250791D01*
X105955221Y-200250786D01*
X105955220Y-200250781D01*
X105862287Y-200068390D01*
X105862285Y-200068386D01*
X105741970Y-199902786D01*
X105741968Y-199902784D01*
X105741966Y-199902781D01*
X105597219Y-199758034D01*
X105597215Y-199758031D01*
X105597213Y-199758029D01*
X105431613Y-199637714D01*
X105431609Y-199637712D01*
X105249219Y-199544780D01*
X105054529Y-199481521D01*
X104852355Y-199449500D01*
X104852352Y-199449500D01*
X104647648Y-199449500D01*
X104647645Y-199449500D01*
X104445470Y-199481521D01*
X104250780Y-199544780D01*
X104068390Y-199637712D01*
X104068386Y-199637714D01*
X103902786Y-199758029D01*
X103758029Y-199902786D01*
X103637714Y-200068386D01*
X103637712Y-200068390D01*
X103544780Y-200250780D01*
X103481521Y-200445470D01*
X103449500Y-200647644D01*
X100500500Y-200647644D01*
X100500500Y-197329450D01*
X121619500Y-197329450D01*
X121619500Y-197510549D01*
X121647828Y-197689406D01*
X121703788Y-197861637D01*
X121779697Y-198010617D01*
X121786004Y-198022994D01*
X121892447Y-198169501D01*
X122020499Y-198297553D01*
X122167006Y-198403996D01*
X122328361Y-198486211D01*
X122500591Y-198542171D01*
X122572136Y-198553502D01*
X122679451Y-198570500D01*
X122679454Y-198570500D01*
X122860549Y-198570500D01*
X122949977Y-198556335D01*
X123039409Y-198542171D01*
X123211639Y-198486211D01*
X123372994Y-198403996D01*
X123519501Y-198297553D01*
X123647553Y-198169501D01*
X123753996Y-198022994D01*
X123836211Y-197861639D01*
X123892171Y-197689409D01*
X123920500Y-197510546D01*
X123920500Y-197329454D01*
X123920500Y-197329450D01*
X124159500Y-197329450D01*
X124159500Y-197510549D01*
X124187828Y-197689406D01*
X124243788Y-197861637D01*
X124319697Y-198010617D01*
X124326004Y-198022994D01*
X124432447Y-198169501D01*
X124560499Y-198297553D01*
X124707006Y-198403996D01*
X124868361Y-198486211D01*
X125040591Y-198542171D01*
X125112136Y-198553502D01*
X125219451Y-198570500D01*
X125219454Y-198570500D01*
X125400549Y-198570500D01*
X125489977Y-198556335D01*
X125579409Y-198542171D01*
X125751639Y-198486211D01*
X125912994Y-198403996D01*
X126059501Y-198297553D01*
X126187553Y-198169501D01*
X126293996Y-198022994D01*
X126356892Y-197899553D01*
X126400156Y-197856290D01*
X126445101Y-197845500D01*
X128756016Y-197845500D01*
X128756018Y-197845500D01*
X128864237Y-197816503D01*
X128864239Y-197816501D01*
X128864241Y-197816501D01*
X128893064Y-197799859D01*
X128961263Y-197760485D01*
X129040485Y-197681263D01*
X129096503Y-197584237D01*
X129125500Y-197476018D01*
X129125500Y-175293982D01*
X129096503Y-175185763D01*
X129096501Y-175185760D01*
X129096501Y-175185758D01*
X129040486Y-175088739D01*
X129040485Y-175088737D01*
X128961263Y-175009515D01*
X128961260Y-175009513D01*
X128864240Y-174953498D01*
X128864242Y-174953498D01*
X128822251Y-174942247D01*
X128756018Y-174924500D01*
X128756016Y-174924500D01*
X128440539Y-174924500D01*
X128391039Y-174911236D01*
X128262488Y-174837017D01*
X128262489Y-174837017D01*
X128232896Y-174829087D01*
X128122475Y-174799500D01*
X127977525Y-174799500D01*
X127915790Y-174816041D01*
X127837510Y-174837017D01*
X127711989Y-174909487D01*
X127609487Y-175011989D01*
X127537017Y-175137510D01*
X127499500Y-175277525D01*
X127499500Y-175422474D01*
X127537017Y-175562489D01*
X127609487Y-175688010D01*
X127609489Y-175688012D01*
X127609491Y-175688015D01*
X127711985Y-175790509D01*
X127711987Y-175790510D01*
X127711989Y-175790512D01*
X127837511Y-175862982D01*
X127837512Y-175862982D01*
X127837515Y-175862984D01*
X127977525Y-175900500D01*
X127977526Y-175900500D01*
X128122476Y-175900500D01*
X128122476Y-175900499D01*
X128142829Y-175895045D01*
X128149876Y-175893158D01*
X128210977Y-175896359D01*
X128258528Y-175934864D01*
X128274500Y-175988784D01*
X128274500Y-196895500D01*
X128255593Y-196953691D01*
X128206093Y-196989655D01*
X128175500Y-196994500D01*
X126445101Y-196994500D01*
X126386910Y-196975593D01*
X126356892Y-196940447D01*
X126293996Y-196817006D01*
X126187553Y-196670499D01*
X126059501Y-196542447D01*
X125912994Y-196436004D01*
X125912993Y-196436003D01*
X125912991Y-196436002D01*
X125751637Y-196353788D01*
X125579406Y-196297828D01*
X125400549Y-196269500D01*
X125400546Y-196269500D01*
X125219454Y-196269500D01*
X125219451Y-196269500D01*
X125040593Y-196297828D01*
X124868362Y-196353788D01*
X124707008Y-196436002D01*
X124633752Y-196489225D01*
X124560499Y-196542447D01*
X124432447Y-196670499D01*
X124379225Y-196743752D01*
X124326002Y-196817008D01*
X124243788Y-196978362D01*
X124187828Y-197150593D01*
X124159500Y-197329450D01*
X123920500Y-197329450D01*
X123892171Y-197150593D01*
X123892171Y-197150591D01*
X123836211Y-196978361D01*
X123753996Y-196817006D01*
X123647553Y-196670499D01*
X123519501Y-196542447D01*
X123372994Y-196436004D01*
X123372993Y-196436003D01*
X123372991Y-196436002D01*
X123211637Y-196353788D01*
X123039406Y-196297828D01*
X122860549Y-196269500D01*
X122860546Y-196269500D01*
X122679454Y-196269500D01*
X122679451Y-196269500D01*
X122500593Y-196297828D01*
X122328362Y-196353788D01*
X122167008Y-196436002D01*
X122093752Y-196489225D01*
X122020499Y-196542447D01*
X121892447Y-196670499D01*
X121839225Y-196743752D01*
X121786002Y-196817008D01*
X121703788Y-196978362D01*
X121647828Y-197150593D01*
X121619500Y-197329450D01*
X100500500Y-197329450D01*
X100500500Y-194789450D01*
X121619500Y-194789450D01*
X121619500Y-194970549D01*
X121647828Y-195149406D01*
X121647829Y-195149409D01*
X121703789Y-195321639D01*
X121786004Y-195482994D01*
X121892447Y-195629501D01*
X122020499Y-195757553D01*
X122167006Y-195863996D01*
X122328361Y-195946211D01*
X122500591Y-196002171D01*
X122572136Y-196013502D01*
X122679451Y-196030500D01*
X122679454Y-196030500D01*
X122860549Y-196030500D01*
X122949977Y-196016335D01*
X123039409Y-196002171D01*
X123211639Y-195946211D01*
X123372994Y-195863996D01*
X123519501Y-195757553D01*
X123647553Y-195629501D01*
X123753996Y-195482994D01*
X123829630Y-195334553D01*
X123872894Y-195291290D01*
X123917839Y-195280500D01*
X123934425Y-195280500D01*
X123934427Y-195280500D01*
X124036287Y-195253207D01*
X124086413Y-195224267D01*
X124146261Y-195211545D01*
X124202157Y-195236432D01*
X124230068Y-195279410D01*
X124243789Y-195321639D01*
X124326004Y-195482994D01*
X124432447Y-195629501D01*
X124560499Y-195757553D01*
X124707006Y-195863996D01*
X124868361Y-195946211D01*
X125040591Y-196002171D01*
X125112136Y-196013502D01*
X125219451Y-196030500D01*
X125219454Y-196030500D01*
X125400549Y-196030500D01*
X125489977Y-196016335D01*
X125579409Y-196002171D01*
X125751639Y-195946211D01*
X125912994Y-195863996D01*
X126059501Y-195757553D01*
X126187553Y-195629501D01*
X126293996Y-195482994D01*
X126376211Y-195321639D01*
X126432171Y-195149409D01*
X126460500Y-194970546D01*
X126460500Y-194789454D01*
X126460500Y-194789450D01*
X126432171Y-194610593D01*
X126432171Y-194610591D01*
X126376211Y-194438361D01*
X126293996Y-194277006D01*
X126187553Y-194130499D01*
X126059501Y-194002447D01*
X126029643Y-193980754D01*
X125993681Y-193931256D01*
X125993681Y-193870070D01*
X126017830Y-193830661D01*
X126833110Y-193015381D01*
X126833113Y-193015380D01*
X126907680Y-192940813D01*
X126960407Y-192849487D01*
X126978587Y-192781639D01*
X126987701Y-192747627D01*
X126987701Y-192642173D01*
X126987700Y-192642169D01*
X126987700Y-192168531D01*
X127006607Y-192110340D01*
X127016690Y-192098533D01*
X127027709Y-192087515D01*
X127037480Y-192070591D01*
X127100182Y-191961989D01*
X127100182Y-191961987D01*
X127100184Y-191961985D01*
X127137700Y-191821975D01*
X127137700Y-191677025D01*
X127100184Y-191537015D01*
X127100182Y-191537012D01*
X127100182Y-191537010D01*
X127027712Y-191411489D01*
X127027710Y-191411487D01*
X127027709Y-191411485D01*
X126925215Y-191308991D01*
X126925212Y-191308989D01*
X126925210Y-191308987D01*
X126799688Y-191236517D01*
X126799689Y-191236517D01*
X126729941Y-191217828D01*
X126659675Y-191199000D01*
X126514725Y-191199000D01*
X126452990Y-191215541D01*
X126374710Y-191236517D01*
X126249189Y-191308987D01*
X126249188Y-191308988D01*
X126249185Y-191308990D01*
X126249185Y-191308991D01*
X126146691Y-191411485D01*
X126146689Y-191411487D01*
X126142103Y-191416074D01*
X126140381Y-191414352D01*
X126098634Y-191443029D01*
X126037470Y-191441411D01*
X126012352Y-191428191D01*
X125912997Y-191356005D01*
X125912993Y-191356003D01*
X125751637Y-191273788D01*
X125579406Y-191217828D01*
X125400549Y-191189500D01*
X125400546Y-191189500D01*
X125219454Y-191189500D01*
X125219451Y-191189500D01*
X125040593Y-191217828D01*
X124868362Y-191273788D01*
X124707008Y-191356002D01*
X124633752Y-191409225D01*
X124560499Y-191462447D01*
X124432447Y-191590499D01*
X124390929Y-191647644D01*
X124326002Y-191737008D01*
X124243788Y-191898362D01*
X124187828Y-192070593D01*
X124159500Y-192249450D01*
X124159500Y-192430549D01*
X124187828Y-192609406D01*
X124243787Y-192781634D01*
X124243787Y-192781635D01*
X124324892Y-192940813D01*
X124326004Y-192942994D01*
X124432447Y-193089501D01*
X124560499Y-193217553D01*
X124584529Y-193235012D01*
X124620492Y-193284509D01*
X124620493Y-193345695D01*
X124591123Y-193389962D01*
X124583994Y-193396130D01*
X124547987Y-193416920D01*
X124473420Y-193491487D01*
X124473418Y-193491489D01*
X124470910Y-193493996D01*
X124470896Y-193494009D01*
X123808145Y-194156759D01*
X123753629Y-194184536D01*
X123693197Y-194174965D01*
X123658049Y-194144946D01*
X123647554Y-194130501D01*
X123647553Y-194130499D01*
X123519501Y-194002447D01*
X123372994Y-193896004D01*
X123372993Y-193896003D01*
X123372991Y-193896002D01*
X123211637Y-193813788D01*
X123039406Y-193757828D01*
X122860549Y-193729500D01*
X122860546Y-193729500D01*
X122679454Y-193729500D01*
X122679451Y-193729500D01*
X122500593Y-193757828D01*
X122328362Y-193813788D01*
X122167008Y-193896002D01*
X122093752Y-193949225D01*
X122020499Y-194002447D01*
X121892447Y-194130499D01*
X121892446Y-194130501D01*
X121786002Y-194277008D01*
X121703788Y-194438362D01*
X121647828Y-194610593D01*
X121619500Y-194789450D01*
X100500500Y-194789450D01*
X100500500Y-191647644D01*
X103449500Y-191647644D01*
X103449500Y-191852355D01*
X103481521Y-192054529D01*
X103544780Y-192249219D01*
X103637712Y-192431609D01*
X103637714Y-192431613D01*
X103758029Y-192597213D01*
X103758031Y-192597215D01*
X103758034Y-192597219D01*
X103902781Y-192741966D01*
X103902784Y-192741968D01*
X103902786Y-192741970D01*
X104068386Y-192862285D01*
X104068390Y-192862287D01*
X104250781Y-192955220D01*
X104445466Y-193018477D01*
X104445467Y-193018477D01*
X104445470Y-193018478D01*
X104647645Y-193050500D01*
X104647648Y-193050500D01*
X104852355Y-193050500D01*
X105054529Y-193018478D01*
X105054530Y-193018477D01*
X105054534Y-193018477D01*
X105249219Y-192955220D01*
X105431610Y-192862287D01*
X105597219Y-192741966D01*
X105741966Y-192597219D01*
X105862287Y-192431610D01*
X105955220Y-192249219D01*
X105955224Y-192249208D01*
X105965070Y-192218907D01*
X106001034Y-192169407D01*
X106059224Y-192150500D01*
X109940776Y-192150500D01*
X109998967Y-192169407D01*
X110034930Y-192218907D01*
X110044775Y-192249208D01*
X110044778Y-192249215D01*
X110044780Y-192249219D01*
X110044898Y-192249450D01*
X110137712Y-192431609D01*
X110137714Y-192431613D01*
X110258029Y-192597213D01*
X110258031Y-192597215D01*
X110258034Y-192597219D01*
X110402781Y-192741966D01*
X110402784Y-192741968D01*
X110402786Y-192741970D01*
X110568386Y-192862285D01*
X110568390Y-192862287D01*
X110750781Y-192955220D01*
X110945466Y-193018477D01*
X110945467Y-193018477D01*
X110945470Y-193018478D01*
X111147645Y-193050500D01*
X111147648Y-193050500D01*
X111352355Y-193050500D01*
X111554529Y-193018478D01*
X111554530Y-193018477D01*
X111554534Y-193018477D01*
X111749219Y-192955220D01*
X111931610Y-192862287D01*
X112097219Y-192741966D01*
X112241966Y-192597219D01*
X112362287Y-192431610D01*
X112455102Y-192249450D01*
X121619500Y-192249450D01*
X121619500Y-192430549D01*
X121647828Y-192609406D01*
X121703787Y-192781634D01*
X121703787Y-192781635D01*
X121784892Y-192940813D01*
X121786004Y-192942994D01*
X121892447Y-193089501D01*
X122020499Y-193217553D01*
X122167006Y-193323996D01*
X122328361Y-193406211D01*
X122500591Y-193462171D01*
X122572136Y-193473502D01*
X122679451Y-193490500D01*
X122679454Y-193490500D01*
X122860549Y-193490500D01*
X122949977Y-193476335D01*
X123039409Y-193462171D01*
X123211639Y-193406211D01*
X123372994Y-193323996D01*
X123519501Y-193217553D01*
X123647553Y-193089501D01*
X123753996Y-192942994D01*
X123836211Y-192781639D01*
X123892171Y-192609409D01*
X123920331Y-192431613D01*
X123920500Y-192430549D01*
X123920500Y-192249450D01*
X123901188Y-192127524D01*
X123892171Y-192070591D01*
X123836211Y-191898361D01*
X123753996Y-191737006D01*
X123647553Y-191590499D01*
X123519501Y-191462447D01*
X123372994Y-191356004D01*
X123372993Y-191356003D01*
X123372991Y-191356002D01*
X123211637Y-191273788D01*
X123039406Y-191217828D01*
X122860549Y-191189500D01*
X122860546Y-191189500D01*
X122679454Y-191189500D01*
X122679451Y-191189500D01*
X122500593Y-191217828D01*
X122328362Y-191273788D01*
X122167008Y-191356002D01*
X122093752Y-191409225D01*
X122020499Y-191462447D01*
X121892447Y-191590499D01*
X121850929Y-191647644D01*
X121786002Y-191737008D01*
X121703788Y-191898362D01*
X121647828Y-192070593D01*
X121619500Y-192249450D01*
X112455102Y-192249450D01*
X112455220Y-192249219D01*
X112455224Y-192249208D01*
X112465070Y-192218907D01*
X112501034Y-192169407D01*
X112559224Y-192150500D01*
X115676226Y-192150500D01*
X115676227Y-192150500D01*
X115778088Y-192123207D01*
X115778090Y-192123205D01*
X115778092Y-192123205D01*
X115869408Y-192070483D01*
X115869408Y-192070482D01*
X115869413Y-192070480D01*
X116477643Y-191462248D01*
X116532158Y-191434473D01*
X116573267Y-191436627D01*
X116700422Y-191470699D01*
X116700424Y-191470700D01*
X116700425Y-191470700D01*
X116845374Y-191470700D01*
X116845375Y-191470700D01*
X116985385Y-191433184D01*
X116985387Y-191433182D01*
X116985389Y-191433182D01*
X117110910Y-191360712D01*
X117110910Y-191360711D01*
X117110915Y-191360709D01*
X117213409Y-191258215D01*
X117217702Y-191250780D01*
X117285882Y-191132689D01*
X117285882Y-191132687D01*
X117285884Y-191132685D01*
X117323400Y-190992675D01*
X117323400Y-190847725D01*
X117285884Y-190707715D01*
X117285882Y-190707712D01*
X117285882Y-190707710D01*
X117213412Y-190582189D01*
X117213410Y-190582187D01*
X117213409Y-190582185D01*
X117110915Y-190479691D01*
X117110912Y-190479689D01*
X117110910Y-190479687D01*
X116985388Y-190407217D01*
X116985389Y-190407217D01*
X116955796Y-190399287D01*
X116845375Y-190369700D01*
X116700425Y-190369700D01*
X116638690Y-190386241D01*
X116560410Y-190407217D01*
X116434884Y-190479691D01*
X116411545Y-190503029D01*
X116379395Y-190524501D01*
X116373406Y-190526978D01*
X116298713Y-190546993D01*
X116237759Y-190582185D01*
X116232131Y-190585433D01*
X116232129Y-190585435D01*
X116207387Y-190599720D01*
X115486603Y-191320504D01*
X115432086Y-191348281D01*
X115416599Y-191349500D01*
X112559224Y-191349500D01*
X112501033Y-191330593D01*
X112465070Y-191281093D01*
X112455224Y-191250791D01*
X112455221Y-191250786D01*
X112455220Y-191250781D01*
X112362287Y-191068390D01*
X112362285Y-191068386D01*
X112241970Y-190902786D01*
X112241968Y-190902784D01*
X112241966Y-190902781D01*
X112097219Y-190758034D01*
X112097215Y-190758031D01*
X112097213Y-190758029D01*
X111931613Y-190637714D01*
X111931609Y-190637712D01*
X111749219Y-190544780D01*
X111554529Y-190481521D01*
X111352355Y-190449500D01*
X111352352Y-190449500D01*
X111147648Y-190449500D01*
X111147645Y-190449500D01*
X110945470Y-190481521D01*
X110750780Y-190544780D01*
X110568390Y-190637712D01*
X110568386Y-190637714D01*
X110402786Y-190758029D01*
X110258029Y-190902786D01*
X110137714Y-191068386D01*
X110137712Y-191068390D01*
X110044775Y-191250791D01*
X110034930Y-191281093D01*
X109998966Y-191330593D01*
X109940776Y-191349500D01*
X106059224Y-191349500D01*
X106001033Y-191330593D01*
X105965070Y-191281093D01*
X105955224Y-191250791D01*
X105955221Y-191250786D01*
X105955220Y-191250781D01*
X105862287Y-191068390D01*
X105862285Y-191068386D01*
X105741970Y-190902786D01*
X105741968Y-190902784D01*
X105741966Y-190902781D01*
X105597219Y-190758034D01*
X105597215Y-190758031D01*
X105597213Y-190758029D01*
X105431613Y-190637714D01*
X105431609Y-190637712D01*
X105249219Y-190544780D01*
X105054529Y-190481521D01*
X104852355Y-190449500D01*
X104852352Y-190449500D01*
X104647648Y-190449500D01*
X104647645Y-190449500D01*
X104445470Y-190481521D01*
X104250780Y-190544780D01*
X104068390Y-190637712D01*
X104068386Y-190637714D01*
X103902786Y-190758029D01*
X103758029Y-190902786D01*
X103637714Y-191068386D01*
X103637712Y-191068390D01*
X103544780Y-191250780D01*
X103481521Y-191445470D01*
X103449500Y-191647644D01*
X100500500Y-191647644D01*
X100500500Y-186455130D01*
X104199500Y-186455130D01*
X104199500Y-188544860D01*
X104199501Y-188544863D01*
X104202414Y-188569990D01*
X104221090Y-188612287D01*
X104247794Y-188672765D01*
X104327235Y-188752206D01*
X104430009Y-188797585D01*
X104455135Y-188800500D01*
X106544864Y-188800499D01*
X106569991Y-188797585D01*
X106672765Y-188752206D01*
X106752206Y-188672765D01*
X106797585Y-188569991D01*
X106800500Y-188544865D01*
X106800499Y-186806899D01*
X106819406Y-186748709D01*
X106829489Y-186736902D01*
X109902697Y-183663696D01*
X109957214Y-183635919D01*
X109972701Y-183634700D01*
X113559899Y-183634700D01*
X113618090Y-183653607D01*
X113654054Y-183703107D01*
X113654054Y-183764293D01*
X113629903Y-183803704D01*
X111142563Y-186291042D01*
X111088046Y-186318819D01*
X111027614Y-186309248D01*
X110999219Y-186294780D01*
X110804529Y-186231521D01*
X110602355Y-186199500D01*
X110602352Y-186199500D01*
X110397648Y-186199500D01*
X110397645Y-186199500D01*
X110195470Y-186231521D01*
X110000780Y-186294780D01*
X109818390Y-186387712D01*
X109818386Y-186387714D01*
X109652786Y-186508029D01*
X109508029Y-186652786D01*
X109387714Y-186818386D01*
X109387712Y-186818390D01*
X109294780Y-187000780D01*
X109231521Y-187195470D01*
X109199500Y-187397644D01*
X109199500Y-187602355D01*
X109231521Y-187804529D01*
X109294780Y-187999219D01*
X109387712Y-188181609D01*
X109387714Y-188181613D01*
X109508029Y-188347213D01*
X109508031Y-188347215D01*
X109508034Y-188347219D01*
X109652781Y-188491966D01*
X109652784Y-188491968D01*
X109652786Y-188491970D01*
X109818386Y-188612285D01*
X109818390Y-188612287D01*
X110000781Y-188705220D01*
X110195466Y-188768477D01*
X110195467Y-188768477D01*
X110195470Y-188768478D01*
X110397645Y-188800500D01*
X110397648Y-188800500D01*
X110602355Y-188800500D01*
X110804529Y-188768478D01*
X110804530Y-188768477D01*
X110804534Y-188768477D01*
X110999219Y-188705220D01*
X111181610Y-188612287D01*
X111347219Y-188491966D01*
X111491966Y-188347219D01*
X111612287Y-188181610D01*
X111705220Y-187999219D01*
X111768477Y-187804534D01*
X111800500Y-187602352D01*
X111800500Y-187397648D01*
X111800500Y-187397644D01*
X111768478Y-187195470D01*
X111768477Y-187195466D01*
X111705220Y-187000781D01*
X111690750Y-186972384D01*
X111681179Y-186911953D01*
X111708956Y-186857436D01*
X114540997Y-184025396D01*
X114548114Y-184021769D01*
X114552810Y-184015307D01*
X114574858Y-184008143D01*
X114595514Y-183997619D01*
X114611001Y-183996400D01*
X114760200Y-183996400D01*
X114818391Y-184015307D01*
X114854355Y-184064807D01*
X114859200Y-184095400D01*
X114859200Y-184230074D01*
X114896717Y-184370089D01*
X114969187Y-184495610D01*
X114969189Y-184495612D01*
X114969191Y-184495615D01*
X115071685Y-184598109D01*
X115071687Y-184598110D01*
X115071689Y-184598112D01*
X115197211Y-184670582D01*
X115197212Y-184670582D01*
X115197215Y-184670584D01*
X115337225Y-184708100D01*
X115352799Y-184708100D01*
X115410990Y-184727007D01*
X115422803Y-184737096D01*
X119619920Y-188934213D01*
X119619919Y-188934213D01*
X119694487Y-189008780D01*
X119785813Y-189061507D01*
X119887673Y-189088800D01*
X119993127Y-189088800D01*
X123574599Y-189088800D01*
X123582196Y-189091268D01*
X123590086Y-189090019D01*
X123610741Y-189100543D01*
X123632790Y-189107707D01*
X123644603Y-189117796D01*
X123768804Y-189241997D01*
X123796581Y-189296514D01*
X123797800Y-189312001D01*
X123797800Y-189852727D01*
X123825093Y-189954587D01*
X123825094Y-189954589D01*
X123825094Y-189954590D01*
X123877818Y-190045910D01*
X123877820Y-190045913D01*
X123952387Y-190120480D01*
X124043713Y-190173207D01*
X124145573Y-190200500D01*
X124162161Y-190200500D01*
X124220352Y-190219407D01*
X124250368Y-190254552D01*
X124326004Y-190402994D01*
X124432447Y-190549501D01*
X124560499Y-190677553D01*
X124707006Y-190783996D01*
X124868361Y-190866211D01*
X125040591Y-190922171D01*
X125112136Y-190933502D01*
X125219451Y-190950500D01*
X125219454Y-190950500D01*
X125400549Y-190950500D01*
X125489977Y-190936335D01*
X125579409Y-190922171D01*
X125751639Y-190866211D01*
X125912994Y-190783996D01*
X126059501Y-190677553D01*
X126187553Y-190549501D01*
X126293996Y-190402994D01*
X126376211Y-190241639D01*
X126432171Y-190069409D01*
X126446335Y-189979977D01*
X126460500Y-189890549D01*
X126460500Y-189709450D01*
X126432171Y-189530593D01*
X126432171Y-189530591D01*
X126376211Y-189358361D01*
X126293996Y-189197006D01*
X126187553Y-189050499D01*
X126059501Y-188922447D01*
X125912994Y-188816004D01*
X125912993Y-188816003D01*
X125912991Y-188816002D01*
X125751637Y-188733788D01*
X125579406Y-188677828D01*
X125400549Y-188649500D01*
X125400546Y-188649500D01*
X125219454Y-188649500D01*
X125219451Y-188649500D01*
X125040593Y-188677828D01*
X124868362Y-188733788D01*
X124707006Y-188816003D01*
X124707002Y-188816006D01*
X124641380Y-188863683D01*
X124583189Y-188882590D01*
X124524999Y-188863682D01*
X124513192Y-188853599D01*
X124027413Y-188367820D01*
X124027410Y-188367818D01*
X124027408Y-188367816D01*
X123936091Y-188315094D01*
X123936093Y-188315094D01*
X123896570Y-188304504D01*
X123834227Y-188287800D01*
X123834225Y-188287800D01*
X120147301Y-188287800D01*
X120089110Y-188268893D01*
X120077297Y-188258804D01*
X118352397Y-186533904D01*
X118324620Y-186479387D01*
X118334191Y-186418955D01*
X118377456Y-186375690D01*
X118422401Y-186364900D01*
X120391469Y-186364900D01*
X120449660Y-186383807D01*
X120461466Y-186393890D01*
X120472485Y-186404909D01*
X120472487Y-186404910D01*
X120472489Y-186404912D01*
X120598011Y-186477382D01*
X120598012Y-186477382D01*
X120598015Y-186477384D01*
X120738025Y-186514900D01*
X120738026Y-186514900D01*
X120882974Y-186514900D01*
X120882975Y-186514900D01*
X121022985Y-186477384D01*
X121022987Y-186477382D01*
X121022989Y-186477382D01*
X121148510Y-186404912D01*
X121148510Y-186404911D01*
X121148515Y-186404909D01*
X121251009Y-186302415D01*
X121323484Y-186176885D01*
X121361000Y-186036875D01*
X121361000Y-185891925D01*
X121323484Y-185751915D01*
X121323482Y-185751912D01*
X121323482Y-185751910D01*
X121251012Y-185626389D01*
X121251010Y-185626387D01*
X121251009Y-185626385D01*
X121148515Y-185523891D01*
X121148512Y-185523889D01*
X121148510Y-185523887D01*
X121022988Y-185451417D01*
X121022989Y-185451417D01*
X120993396Y-185443487D01*
X120882975Y-185413900D01*
X120738025Y-185413900D01*
X120676290Y-185430441D01*
X120598010Y-185451417D01*
X120472489Y-185523887D01*
X120472488Y-185523888D01*
X120472485Y-185523890D01*
X120472485Y-185523891D01*
X120461470Y-185534905D01*
X120406956Y-185562681D01*
X120391469Y-185563900D01*
X118217801Y-185563900D01*
X118159610Y-185544993D01*
X118147797Y-185534904D01*
X116416597Y-183803704D01*
X116388820Y-183749187D01*
X116398391Y-183688755D01*
X116441656Y-183645490D01*
X116486601Y-183634700D01*
X118502093Y-183634700D01*
X118560284Y-183653607D01*
X118593558Y-183695816D01*
X118595618Y-183700790D01*
X118668087Y-183826310D01*
X118668089Y-183826312D01*
X118668091Y-183826315D01*
X118770585Y-183928809D01*
X118770587Y-183928810D01*
X118770589Y-183928812D01*
X118896111Y-184001282D01*
X118896112Y-184001282D01*
X118896115Y-184001284D01*
X119036125Y-184038800D01*
X119036126Y-184038800D01*
X119181074Y-184038800D01*
X119181075Y-184038800D01*
X119321085Y-184001284D01*
X119321087Y-184001282D01*
X119321089Y-184001282D01*
X119446610Y-183928812D01*
X119446610Y-183928811D01*
X119446615Y-183928809D01*
X119549109Y-183826315D01*
X119593639Y-183749187D01*
X119621582Y-183700789D01*
X119621582Y-183700787D01*
X119621584Y-183700785D01*
X119659100Y-183560775D01*
X119659100Y-183415825D01*
X119621584Y-183275815D01*
X119621582Y-183275812D01*
X119621582Y-183275810D01*
X119549112Y-183150289D01*
X119549110Y-183150287D01*
X119549109Y-183150285D01*
X119446615Y-183047791D01*
X119446612Y-183047789D01*
X119446610Y-183047787D01*
X119321088Y-182975317D01*
X119321089Y-182975317D01*
X119291496Y-182967387D01*
X119181075Y-182937800D01*
X119181074Y-182937800D01*
X119165401Y-182937800D01*
X119107210Y-182918893D01*
X119105134Y-182917342D01*
X119100412Y-182913718D01*
X119009091Y-182860994D01*
X119009093Y-182860994D01*
X118969570Y-182850404D01*
X118907227Y-182833700D01*
X109818527Y-182833700D01*
X109713073Y-182833700D01*
X109650729Y-182850404D01*
X109611207Y-182860994D01*
X109519891Y-182913716D01*
X109519890Y-182913717D01*
X106263101Y-186170504D01*
X106208584Y-186198281D01*
X106193097Y-186199500D01*
X104455139Y-186199500D01*
X104455136Y-186199501D01*
X104430009Y-186202414D01*
X104327235Y-186247794D01*
X104247794Y-186327235D01*
X104202414Y-186430011D01*
X104199500Y-186455130D01*
X100500500Y-186455130D01*
X100500500Y-178355130D01*
X101099500Y-178355130D01*
X101099500Y-181644860D01*
X101099501Y-181644863D01*
X101102414Y-181669990D01*
X101127756Y-181727385D01*
X101147794Y-181772765D01*
X101227235Y-181852206D01*
X101330009Y-181897585D01*
X101355135Y-181900500D01*
X103444864Y-181900499D01*
X103469991Y-181897585D01*
X103572765Y-181852206D01*
X103652206Y-181772765D01*
X103697585Y-181669991D01*
X103700500Y-181644865D01*
X103700499Y-178355136D01*
X103700498Y-178355130D01*
X112299500Y-178355130D01*
X112299500Y-181644860D01*
X112299501Y-181644863D01*
X112302414Y-181669990D01*
X112327756Y-181727385D01*
X112347794Y-181772765D01*
X112427235Y-181852206D01*
X112530009Y-181897585D01*
X112555135Y-181900500D01*
X114644864Y-181900499D01*
X114669991Y-181897585D01*
X114772765Y-181852206D01*
X114852206Y-181772765D01*
X114897585Y-181669991D01*
X114900500Y-181644865D01*
X114900500Y-180938525D01*
X124708000Y-180938525D01*
X124708000Y-181083474D01*
X124745517Y-181223489D01*
X124817987Y-181349010D01*
X124817989Y-181349012D01*
X124817991Y-181349015D01*
X124920485Y-181451509D01*
X124920487Y-181451510D01*
X124920489Y-181451512D01*
X125046011Y-181523982D01*
X125046012Y-181523982D01*
X125046015Y-181523984D01*
X125186025Y-181561500D01*
X125186026Y-181561500D01*
X125330974Y-181561500D01*
X125330975Y-181561500D01*
X125470985Y-181523984D01*
X125470987Y-181523982D01*
X125470989Y-181523982D01*
X125596510Y-181451512D01*
X125596510Y-181451511D01*
X125596515Y-181451509D01*
X125699009Y-181349015D01*
X125771484Y-181223485D01*
X125809000Y-181083475D01*
X125809000Y-180938525D01*
X125771484Y-180798515D01*
X125771482Y-180798512D01*
X125771482Y-180798510D01*
X125699012Y-180672989D01*
X125699007Y-180672983D01*
X125687994Y-180661969D01*
X125660218Y-180607452D01*
X125659000Y-180591968D01*
X125659000Y-176463801D01*
X125677907Y-176405610D01*
X125687996Y-176393797D01*
X128357097Y-173724696D01*
X128411614Y-173696919D01*
X128427101Y-173695700D01*
X128442674Y-173695700D01*
X128442675Y-173695700D01*
X128582685Y-173658184D01*
X128582687Y-173658182D01*
X128582689Y-173658182D01*
X128708210Y-173585712D01*
X128708210Y-173585711D01*
X128708215Y-173585709D01*
X128810709Y-173483215D01*
X128883184Y-173357685D01*
X128920700Y-173217675D01*
X128920700Y-173072725D01*
X128883184Y-172932715D01*
X128883182Y-172932712D01*
X128883182Y-172932710D01*
X128810712Y-172807189D01*
X128810710Y-172807187D01*
X128810709Y-172807185D01*
X128708215Y-172704691D01*
X128708212Y-172704689D01*
X128708210Y-172704687D01*
X128582688Y-172632217D01*
X128582689Y-172632217D01*
X128553096Y-172624287D01*
X128442675Y-172594700D01*
X128297725Y-172594700D01*
X128235990Y-172611241D01*
X128157710Y-172632217D01*
X128032189Y-172704687D01*
X127929687Y-172807189D01*
X127857217Y-172932710D01*
X127819700Y-173072725D01*
X127819700Y-173088299D01*
X127800793Y-173146490D01*
X127790704Y-173158303D01*
X124938016Y-176010991D01*
X124885293Y-176102311D01*
X124885292Y-176102311D01*
X124885293Y-176102312D01*
X124858000Y-176204173D01*
X124858000Y-180591968D01*
X124839093Y-180650159D01*
X124829006Y-180661969D01*
X124817992Y-180672983D01*
X124817987Y-180672989D01*
X124745517Y-180798510D01*
X124708000Y-180938525D01*
X114900500Y-180938525D01*
X114900499Y-179889175D01*
X114900499Y-179744225D01*
X123474600Y-179744225D01*
X123474600Y-179889174D01*
X123512117Y-180029189D01*
X123584587Y-180154710D01*
X123584589Y-180154712D01*
X123584591Y-180154715D01*
X123687085Y-180257209D01*
X123687087Y-180257210D01*
X123687089Y-180257212D01*
X123812611Y-180329682D01*
X123812612Y-180329682D01*
X123812615Y-180329684D01*
X123952625Y-180367200D01*
X123952626Y-180367200D01*
X124097574Y-180367200D01*
X124097575Y-180367200D01*
X124237585Y-180329684D01*
X124237587Y-180329682D01*
X124237589Y-180329682D01*
X124363110Y-180257212D01*
X124363110Y-180257211D01*
X124363115Y-180257209D01*
X124465609Y-180154715D01*
X124538084Y-180029185D01*
X124575600Y-179889175D01*
X124575600Y-179744225D01*
X124538084Y-179604215D01*
X124538082Y-179604212D01*
X124538082Y-179604210D01*
X124465612Y-179478689D01*
X124465607Y-179478683D01*
X124454594Y-179467669D01*
X124426818Y-179413152D01*
X124425600Y-179397668D01*
X124425600Y-176007001D01*
X124444507Y-175948810D01*
X124454596Y-175936997D01*
X126578897Y-173812696D01*
X126633414Y-173784919D01*
X126648901Y-173783700D01*
X126664474Y-173783700D01*
X126664475Y-173783700D01*
X126804485Y-173746184D01*
X126804487Y-173746182D01*
X126804489Y-173746182D01*
X126930010Y-173673712D01*
X126930010Y-173673711D01*
X126930015Y-173673709D01*
X127032509Y-173571215D01*
X127104984Y-173445685D01*
X127142500Y-173305675D01*
X127142500Y-173160725D01*
X127104984Y-173020715D01*
X127104982Y-173020712D01*
X127104982Y-173020710D01*
X127032512Y-172895189D01*
X127032510Y-172895187D01*
X127032509Y-172895185D01*
X126930015Y-172792691D01*
X126930012Y-172792689D01*
X126930010Y-172792687D01*
X126804488Y-172720217D01*
X126804489Y-172720217D01*
X126774896Y-172712287D01*
X126664475Y-172682700D01*
X126519525Y-172682700D01*
X126471882Y-172695466D01*
X126379510Y-172720217D01*
X126253989Y-172792687D01*
X126151487Y-172895189D01*
X126079017Y-173020710D01*
X126041500Y-173160725D01*
X126041500Y-173176299D01*
X126022593Y-173234490D01*
X126012504Y-173246303D01*
X123704616Y-175554191D01*
X123651893Y-175645511D01*
X123651892Y-175645511D01*
X123651893Y-175645512D01*
X123624600Y-175747373D01*
X123624600Y-179397668D01*
X123605693Y-179455859D01*
X123595606Y-179467669D01*
X123584592Y-179478683D01*
X123584587Y-179478689D01*
X123512117Y-179604210D01*
X123474600Y-179744225D01*
X114900499Y-179744225D01*
X114900499Y-178355139D01*
X114900499Y-178355136D01*
X114897585Y-178330009D01*
X114852206Y-178227235D01*
X114772765Y-178147794D01*
X114669991Y-178102415D01*
X114669990Y-178102414D01*
X114669988Y-178102414D01*
X114644868Y-178099500D01*
X112555139Y-178099500D01*
X112555136Y-178099501D01*
X112530009Y-178102414D01*
X112427235Y-178147794D01*
X112347794Y-178227235D01*
X112302414Y-178330011D01*
X112299500Y-178355130D01*
X103700498Y-178355130D01*
X103697585Y-178330009D01*
X103652206Y-178227235D01*
X103572765Y-178147794D01*
X103469991Y-178102415D01*
X103469990Y-178102414D01*
X103469988Y-178102414D01*
X103444868Y-178099500D01*
X101355139Y-178099500D01*
X101355136Y-178099501D01*
X101330009Y-178102414D01*
X101227235Y-178147794D01*
X101147794Y-178227235D01*
X101102414Y-178330011D01*
X101099500Y-178355130D01*
X100500500Y-178355130D01*
X100500500Y-172897644D01*
X109199500Y-172897644D01*
X109199500Y-173102355D01*
X109231521Y-173304529D01*
X109294780Y-173499219D01*
X109387712Y-173681609D01*
X109387714Y-173681613D01*
X109508029Y-173847213D01*
X109508031Y-173847215D01*
X109508034Y-173847219D01*
X109652781Y-173991966D01*
X109652784Y-173991968D01*
X109652786Y-173991970D01*
X109818386Y-174112285D01*
X109818390Y-174112287D01*
X110000781Y-174205220D01*
X110195466Y-174268477D01*
X110195467Y-174268477D01*
X110195470Y-174268478D01*
X110397645Y-174300500D01*
X110397648Y-174300500D01*
X110602355Y-174300500D01*
X110804529Y-174268478D01*
X110804530Y-174268477D01*
X110804534Y-174268477D01*
X110999219Y-174205220D01*
X111027614Y-174190751D01*
X111088042Y-174181178D01*
X111142560Y-174208954D01*
X111142563Y-174208956D01*
X116357487Y-179423880D01*
X116357489Y-179423881D01*
X116357490Y-179423882D01*
X116357491Y-179423883D01*
X116448808Y-179476605D01*
X116448806Y-179476605D01*
X116448810Y-179476606D01*
X116448812Y-179476607D01*
X116550673Y-179503900D01*
X120457169Y-179503900D01*
X120515360Y-179522807D01*
X120527166Y-179532890D01*
X120538185Y-179543909D01*
X120538187Y-179543910D01*
X120538189Y-179543912D01*
X120663711Y-179616382D01*
X120663712Y-179616382D01*
X120663715Y-179616384D01*
X120803725Y-179653900D01*
X120803726Y-179653900D01*
X120948674Y-179653900D01*
X120948675Y-179653900D01*
X121088685Y-179616384D01*
X121214215Y-179543909D01*
X121316709Y-179441415D01*
X121333027Y-179413152D01*
X121389182Y-179315889D01*
X121389182Y-179315887D01*
X121389184Y-179315885D01*
X121426700Y-179175875D01*
X121426700Y-179030925D01*
X121389184Y-178890915D01*
X121389182Y-178890912D01*
X121389182Y-178890910D01*
X121316712Y-178765389D01*
X121316710Y-178765387D01*
X121316709Y-178765385D01*
X121214215Y-178662891D01*
X121214212Y-178662889D01*
X121214210Y-178662887D01*
X121088688Y-178590417D01*
X121088689Y-178590417D01*
X121059096Y-178582487D01*
X120948675Y-178552900D01*
X120803725Y-178552900D01*
X120741990Y-178569441D01*
X120663710Y-178590417D01*
X120538189Y-178662887D01*
X120538188Y-178662888D01*
X120538185Y-178662890D01*
X120538185Y-178662891D01*
X120527170Y-178673905D01*
X120472656Y-178701681D01*
X120457169Y-178702900D01*
X116810301Y-178702900D01*
X116752110Y-178683993D01*
X116740297Y-178673904D01*
X111708956Y-173642563D01*
X111681179Y-173588046D01*
X111690749Y-173527618D01*
X111705220Y-173499219D01*
X111768477Y-173304534D01*
X111779571Y-173234490D01*
X111800500Y-173102355D01*
X111800500Y-172897644D01*
X111768478Y-172695470D01*
X111747926Y-172632217D01*
X111705220Y-172500781D01*
X111612287Y-172318390D01*
X111612285Y-172318386D01*
X111491970Y-172152786D01*
X111491968Y-172152784D01*
X111491966Y-172152781D01*
X111347219Y-172008034D01*
X111347215Y-172008031D01*
X111347213Y-172008029D01*
X111181613Y-171887714D01*
X111181609Y-171887712D01*
X110999219Y-171794780D01*
X110804529Y-171731521D01*
X110602355Y-171699500D01*
X110602352Y-171699500D01*
X110397648Y-171699500D01*
X110397645Y-171699500D01*
X110195470Y-171731521D01*
X110000780Y-171794780D01*
X109818390Y-171887712D01*
X109818386Y-171887714D01*
X109652786Y-172008029D01*
X109508029Y-172152786D01*
X109387714Y-172318386D01*
X109387712Y-172318390D01*
X109294780Y-172500780D01*
X109231521Y-172695470D01*
X109199500Y-172897644D01*
X100500500Y-172897644D01*
X100500500Y-168855130D01*
X104199500Y-168855130D01*
X104199500Y-170944860D01*
X104199501Y-170944863D01*
X104202414Y-170969990D01*
X104221090Y-171012287D01*
X104247794Y-171072765D01*
X104327235Y-171152206D01*
X104430009Y-171197585D01*
X104455135Y-171200500D01*
X106544864Y-171200499D01*
X106569991Y-171197585D01*
X106672765Y-171152206D01*
X106752206Y-171072765D01*
X106797585Y-170969991D01*
X106800500Y-170944865D01*
X106800499Y-169797644D01*
X109199500Y-169797644D01*
X109199500Y-170002355D01*
X109231521Y-170204529D01*
X109294780Y-170399219D01*
X109387712Y-170581609D01*
X109387714Y-170581613D01*
X109508029Y-170747213D01*
X109508031Y-170747215D01*
X109508034Y-170747219D01*
X109652781Y-170891966D01*
X109652784Y-170891968D01*
X109652786Y-170891970D01*
X109818386Y-171012285D01*
X109818390Y-171012287D01*
X110000781Y-171105220D01*
X110195466Y-171168477D01*
X110195467Y-171168477D01*
X110195470Y-171168478D01*
X110397645Y-171200500D01*
X110397648Y-171200500D01*
X110602355Y-171200500D01*
X110804529Y-171168478D01*
X110804530Y-171168477D01*
X110804534Y-171168477D01*
X110999219Y-171105220D01*
X111181610Y-171012287D01*
X111347219Y-170891966D01*
X111491966Y-170747219D01*
X111612287Y-170581610D01*
X111705220Y-170399219D01*
X111768477Y-170204534D01*
X111800500Y-170002352D01*
X111800500Y-169797648D01*
X111800500Y-169797644D01*
X111768478Y-169595470D01*
X111768477Y-169595466D01*
X111705220Y-169400781D01*
X111612287Y-169218390D01*
X111612285Y-169218386D01*
X111491970Y-169052786D01*
X111491968Y-169052784D01*
X111491966Y-169052781D01*
X111347219Y-168908034D01*
X111347215Y-168908031D01*
X111347213Y-168908029D01*
X111181613Y-168787714D01*
X111181609Y-168787712D01*
X110999219Y-168694780D01*
X110804529Y-168631521D01*
X110602355Y-168599500D01*
X110602352Y-168599500D01*
X110397648Y-168599500D01*
X110397645Y-168599500D01*
X110195470Y-168631521D01*
X110000780Y-168694780D01*
X109818390Y-168787712D01*
X109818386Y-168787714D01*
X109652786Y-168908029D01*
X109508029Y-169052786D01*
X109387714Y-169218386D01*
X109387712Y-169218390D01*
X109294780Y-169400780D01*
X109231521Y-169595470D01*
X109199500Y-169797644D01*
X106800499Y-169797644D01*
X106800499Y-168855136D01*
X106797585Y-168830009D01*
X106752206Y-168727235D01*
X106672765Y-168647794D01*
X106569991Y-168602415D01*
X106569990Y-168602414D01*
X106569988Y-168602414D01*
X106544869Y-168599500D01*
X106544865Y-168599500D01*
X105999500Y-168599500D01*
X105941309Y-168580593D01*
X105905345Y-168531093D01*
X105900500Y-168500500D01*
X105900500Y-167736700D01*
X105919407Y-167678509D01*
X105929496Y-167666696D01*
X107256742Y-166339450D01*
X115349500Y-166339450D01*
X115349500Y-166520549D01*
X115377828Y-166699406D01*
X115377829Y-166699409D01*
X115433789Y-166871639D01*
X115516004Y-167032994D01*
X115622447Y-167179501D01*
X115750499Y-167307553D01*
X115897006Y-167413996D01*
X116058361Y-167496211D01*
X116230591Y-167552171D01*
X116302136Y-167563502D01*
X116409451Y-167580500D01*
X116409454Y-167580500D01*
X116590549Y-167580500D01*
X116679977Y-167566335D01*
X116769409Y-167552171D01*
X116941639Y-167496211D01*
X117102994Y-167413996D01*
X117249501Y-167307553D01*
X117377553Y-167179501D01*
X117483996Y-167032994D01*
X117566211Y-166871639D01*
X117622171Y-166699409D01*
X117650500Y-166520546D01*
X117650500Y-166339454D01*
X117650500Y-166339450D01*
X117622171Y-166160593D01*
X117622171Y-166160591D01*
X117566211Y-165988361D01*
X117483996Y-165827006D01*
X117377553Y-165680499D01*
X117249501Y-165552447D01*
X117102994Y-165446004D01*
X117102993Y-165446003D01*
X117102991Y-165446002D01*
X116941637Y-165363788D01*
X116769406Y-165307828D01*
X116590549Y-165279500D01*
X116590546Y-165279500D01*
X116409454Y-165279500D01*
X116409451Y-165279500D01*
X116230593Y-165307828D01*
X116058362Y-165363788D01*
X115897008Y-165446002D01*
X115823752Y-165499225D01*
X115750499Y-165552447D01*
X115622447Y-165680499D01*
X115569225Y-165753752D01*
X115516002Y-165827008D01*
X115433788Y-165988362D01*
X115377828Y-166160593D01*
X115349500Y-166339450D01*
X107256742Y-166339450D01*
X107330632Y-166265560D01*
X109615646Y-163980546D01*
X112130498Y-161465693D01*
X112185013Y-161437918D01*
X112245445Y-161447489D01*
X112288710Y-161490754D01*
X112299500Y-161535699D01*
X112299500Y-164044860D01*
X112299501Y-164044863D01*
X112302414Y-164069990D01*
X112327756Y-164127385D01*
X112347794Y-164172765D01*
X112427235Y-164252206D01*
X112530009Y-164297585D01*
X112555135Y-164300500D01*
X114644864Y-164300499D01*
X114669991Y-164297585D01*
X114772765Y-164252206D01*
X114852206Y-164172765D01*
X114897585Y-164069991D01*
X114900500Y-164044865D01*
X114900500Y-163799450D01*
X115349500Y-163799450D01*
X115349500Y-163980549D01*
X115377828Y-164159406D01*
X115377829Y-164159409D01*
X115433789Y-164331639D01*
X115516004Y-164492994D01*
X115622447Y-164639501D01*
X115750499Y-164767553D01*
X115897006Y-164873996D01*
X116058361Y-164956211D01*
X116230591Y-165012171D01*
X116302136Y-165023502D01*
X116409451Y-165040500D01*
X116409454Y-165040500D01*
X116590549Y-165040500D01*
X116679977Y-165026335D01*
X116769409Y-165012171D01*
X116941639Y-164956211D01*
X117102994Y-164873996D01*
X117249501Y-164767553D01*
X117377553Y-164639501D01*
X117483996Y-164492994D01*
X117566211Y-164331639D01*
X117622171Y-164159409D01*
X117650500Y-163980546D01*
X117650500Y-163799454D01*
X117650500Y-163799450D01*
X117622171Y-163620593D01*
X117622171Y-163620591D01*
X117566211Y-163448361D01*
X117483996Y-163287006D01*
X117377553Y-163140499D01*
X117249501Y-163012447D01*
X117102994Y-162906004D01*
X117102993Y-162906003D01*
X117102991Y-162906002D01*
X116941637Y-162823788D01*
X116769406Y-162767828D01*
X116590549Y-162739500D01*
X116590546Y-162739500D01*
X116409454Y-162739500D01*
X116409451Y-162739500D01*
X116230593Y-162767828D01*
X116058362Y-162823788D01*
X115897008Y-162906002D01*
X115823752Y-162959225D01*
X115750499Y-163012447D01*
X115622447Y-163140499D01*
X115569225Y-163213752D01*
X115516002Y-163287008D01*
X115433788Y-163448362D01*
X115377828Y-163620593D01*
X115349500Y-163799450D01*
X114900500Y-163799450D01*
X114900499Y-161259450D01*
X115349500Y-161259450D01*
X115349500Y-161440549D01*
X115377828Y-161619406D01*
X115377829Y-161619409D01*
X115433789Y-161791639D01*
X115516004Y-161952994D01*
X115622447Y-162099501D01*
X115750499Y-162227553D01*
X115897006Y-162333996D01*
X116058361Y-162416211D01*
X116230591Y-162472171D01*
X116302136Y-162483502D01*
X116409451Y-162500500D01*
X116409454Y-162500500D01*
X116590549Y-162500500D01*
X116679977Y-162486335D01*
X116769409Y-162472171D01*
X116941639Y-162416211D01*
X117102994Y-162333996D01*
X117249501Y-162227553D01*
X117377553Y-162099501D01*
X117483996Y-161952994D01*
X117566211Y-161791639D01*
X117622171Y-161619409D01*
X117646517Y-161465695D01*
X117650500Y-161440549D01*
X117650500Y-161259450D01*
X117622171Y-161080593D01*
X117622171Y-161080591D01*
X117566211Y-160908361D01*
X117483996Y-160747006D01*
X117377553Y-160600499D01*
X117249501Y-160472447D01*
X117102994Y-160366004D01*
X117102993Y-160366003D01*
X117102991Y-160366002D01*
X116941637Y-160283788D01*
X116769406Y-160227828D01*
X116590549Y-160199500D01*
X116590546Y-160199500D01*
X116409454Y-160199500D01*
X116409451Y-160199500D01*
X116230593Y-160227828D01*
X116058362Y-160283788D01*
X115897008Y-160366002D01*
X115823752Y-160419225D01*
X115750499Y-160472447D01*
X115622447Y-160600499D01*
X115569225Y-160673752D01*
X115516002Y-160747008D01*
X115433788Y-160908362D01*
X115377828Y-161080593D01*
X115349500Y-161259450D01*
X114900499Y-161259450D01*
X114900499Y-160755136D01*
X114897585Y-160730009D01*
X114852206Y-160627235D01*
X114772765Y-160547794D01*
X114669991Y-160502415D01*
X114669990Y-160502414D01*
X114669988Y-160502414D01*
X114644869Y-160499500D01*
X114644865Y-160499500D01*
X113335699Y-160499500D01*
X113277508Y-160480593D01*
X113241544Y-160431093D01*
X113241544Y-160369907D01*
X113265695Y-160330496D01*
X114344554Y-159251637D01*
X115241332Y-158354859D01*
X115295848Y-158327083D01*
X115356280Y-158336654D01*
X115399545Y-158379919D01*
X115409116Y-158440351D01*
X115405490Y-158455456D01*
X115377828Y-158540593D01*
X115349500Y-158719450D01*
X115349500Y-158900549D01*
X115377828Y-159079406D01*
X115377829Y-159079409D01*
X115433789Y-159251639D01*
X115516004Y-159412994D01*
X115622447Y-159559501D01*
X115750499Y-159687553D01*
X115897006Y-159793996D01*
X116058361Y-159876211D01*
X116230591Y-159932171D01*
X116302136Y-159943502D01*
X116409451Y-159960500D01*
X116409454Y-159960500D01*
X116590549Y-159960500D01*
X116679977Y-159946335D01*
X116769409Y-159932171D01*
X116941639Y-159876211D01*
X117102994Y-159793996D01*
X117249501Y-159687553D01*
X117377553Y-159559501D01*
X117483996Y-159412994D01*
X117566211Y-159251639D01*
X117622171Y-159079409D01*
X117650500Y-158900546D01*
X117650500Y-158719454D01*
X117650500Y-158719450D01*
X117622171Y-158540593D01*
X117622171Y-158540591D01*
X117566211Y-158368361D01*
X117483996Y-158207006D01*
X117377553Y-158060499D01*
X117327355Y-158010301D01*
X117299580Y-157955787D01*
X117309151Y-157895355D01*
X117352416Y-157852090D01*
X117397361Y-157841300D01*
X122610225Y-157841300D01*
X122610227Y-157841300D01*
X122712088Y-157814007D01*
X122712090Y-157814005D01*
X122712092Y-157814005D01*
X122803408Y-157761283D01*
X122803408Y-157761282D01*
X122803413Y-157761280D01*
X126407796Y-154156895D01*
X126462313Y-154129119D01*
X126477800Y-154127900D01*
X126493374Y-154127900D01*
X126493375Y-154127900D01*
X126633385Y-154090384D01*
X126633387Y-154090382D01*
X126633389Y-154090382D01*
X126758910Y-154017912D01*
X126758910Y-154017911D01*
X126758915Y-154017909D01*
X126861409Y-153915415D01*
X126933884Y-153789885D01*
X126971400Y-153649875D01*
X126971400Y-153504925D01*
X126933884Y-153364915D01*
X126933882Y-153364912D01*
X126933882Y-153364910D01*
X126861412Y-153239389D01*
X126861410Y-153239387D01*
X126861409Y-153239385D01*
X126758915Y-153136891D01*
X126758912Y-153136889D01*
X126758910Y-153136887D01*
X126633388Y-153064417D01*
X126633389Y-153064417D01*
X126603796Y-153056487D01*
X126493375Y-153026900D01*
X126348425Y-153026900D01*
X126286690Y-153043441D01*
X126208410Y-153064417D01*
X126082889Y-153136887D01*
X125980387Y-153239389D01*
X125907917Y-153364910D01*
X125870400Y-153504925D01*
X125870400Y-153520499D01*
X125851493Y-153578690D01*
X125841404Y-153590503D01*
X122420603Y-157011304D01*
X122366086Y-157039081D01*
X122350599Y-157040300D01*
X117556740Y-157040300D01*
X117498549Y-157021393D01*
X117462585Y-156971893D01*
X117462585Y-156910707D01*
X117476646Y-156883111D01*
X117483995Y-156872995D01*
X117483996Y-156872994D01*
X117566211Y-156711639D01*
X117622171Y-156539409D01*
X117650500Y-156360546D01*
X117650500Y-156179454D01*
X117650500Y-156179450D01*
X117622171Y-156000593D01*
X117622171Y-156000591D01*
X117566211Y-155828361D01*
X117483996Y-155667006D01*
X117377553Y-155520499D01*
X117249501Y-155392447D01*
X117102994Y-155286004D01*
X117102993Y-155286003D01*
X117102991Y-155286002D01*
X116941637Y-155203788D01*
X116769406Y-155147828D01*
X116590549Y-155119500D01*
X116590546Y-155119500D01*
X116409454Y-155119500D01*
X116409451Y-155119500D01*
X116230593Y-155147828D01*
X116058362Y-155203788D01*
X115897008Y-155286002D01*
X115880979Y-155297648D01*
X115750499Y-155392447D01*
X115622447Y-155520499D01*
X115569225Y-155593752D01*
X115516002Y-155667008D01*
X115433788Y-155828362D01*
X115377828Y-156000593D01*
X115349500Y-156179450D01*
X115349500Y-156360549D01*
X115377828Y-156539406D01*
X115433788Y-156711637D01*
X115516003Y-156872993D01*
X115516006Y-156872997D01*
X115536385Y-156901047D01*
X115555292Y-156959238D01*
X115536384Y-157017428D01*
X115486884Y-157053392D01*
X115481917Y-157054863D01*
X115434412Y-157067593D01*
X115434409Y-157067594D01*
X115343087Y-157120319D01*
X115268519Y-157194886D01*
X115268520Y-157194887D01*
X105179516Y-167283891D01*
X105126793Y-167375211D01*
X105126792Y-167375211D01*
X105126793Y-167375212D01*
X105099500Y-167477073D01*
X105099500Y-168500500D01*
X105080593Y-168558691D01*
X105031093Y-168594655D01*
X105000500Y-168599500D01*
X104455139Y-168599500D01*
X104455136Y-168599501D01*
X104430009Y-168602414D01*
X104327235Y-168647794D01*
X104247794Y-168727235D01*
X104202414Y-168830011D01*
X104199500Y-168855130D01*
X100500500Y-168855130D01*
X100500500Y-160755130D01*
X101099500Y-160755130D01*
X101099500Y-164044860D01*
X101099501Y-164044863D01*
X101102414Y-164069990D01*
X101127756Y-164127385D01*
X101147794Y-164172765D01*
X101227235Y-164252206D01*
X101330009Y-164297585D01*
X101355135Y-164300500D01*
X103444864Y-164300499D01*
X103469991Y-164297585D01*
X103572765Y-164252206D01*
X103652206Y-164172765D01*
X103697585Y-164069991D01*
X103700500Y-164044865D01*
X103700499Y-160755136D01*
X103697585Y-160730009D01*
X103652206Y-160627235D01*
X103572765Y-160547794D01*
X103469991Y-160502415D01*
X103469990Y-160502414D01*
X103469988Y-160502414D01*
X103444868Y-160499500D01*
X101355139Y-160499500D01*
X101355136Y-160499501D01*
X101330009Y-160502414D01*
X101227235Y-160547794D01*
X101147794Y-160627235D01*
X101102414Y-160730011D01*
X101099500Y-160755130D01*
X100500500Y-160755130D01*
X100500500Y-155297644D01*
X109199500Y-155297644D01*
X109199500Y-155502355D01*
X109231521Y-155704529D01*
X109294780Y-155899219D01*
X109387712Y-156081609D01*
X109387714Y-156081613D01*
X109508029Y-156247213D01*
X109508031Y-156247215D01*
X109508034Y-156247219D01*
X109652781Y-156391966D01*
X109652784Y-156391968D01*
X109652786Y-156391970D01*
X109818386Y-156512285D01*
X109818390Y-156512287D01*
X110000781Y-156605220D01*
X110195466Y-156668477D01*
X110195467Y-156668477D01*
X110195470Y-156668478D01*
X110397645Y-156700500D01*
X110397648Y-156700500D01*
X110602355Y-156700500D01*
X110804529Y-156668478D01*
X110804530Y-156668477D01*
X110804534Y-156668477D01*
X110999219Y-156605220D01*
X111181610Y-156512287D01*
X111347219Y-156391966D01*
X111491966Y-156247219D01*
X111612287Y-156081610D01*
X111705220Y-155899219D01*
X111768477Y-155704534D01*
X111797626Y-155520499D01*
X111800500Y-155502355D01*
X111800500Y-155297644D01*
X111768478Y-155095470D01*
X111768477Y-155095466D01*
X111705220Y-154900781D01*
X111612287Y-154718390D01*
X111612285Y-154718386D01*
X111491970Y-154552786D01*
X111491968Y-154552784D01*
X111491966Y-154552781D01*
X111347219Y-154408034D01*
X111347215Y-154408031D01*
X111347213Y-154408029D01*
X111181613Y-154287714D01*
X111181609Y-154287712D01*
X110999219Y-154194780D01*
X110804529Y-154131521D01*
X110602355Y-154099500D01*
X110602352Y-154099500D01*
X110397648Y-154099500D01*
X110397645Y-154099500D01*
X110195470Y-154131521D01*
X110000780Y-154194780D01*
X109818390Y-154287712D01*
X109818386Y-154287714D01*
X109652786Y-154408029D01*
X109508029Y-154552786D01*
X109387714Y-154718386D01*
X109387712Y-154718390D01*
X109294780Y-154900780D01*
X109231521Y-155095470D01*
X109199500Y-155297644D01*
X100500500Y-155297644D01*
X100500500Y-151255130D01*
X104199500Y-151255130D01*
X104199500Y-153344860D01*
X104199501Y-153344863D01*
X104202414Y-153369990D01*
X104221090Y-153412287D01*
X104247794Y-153472765D01*
X104327235Y-153552206D01*
X104430009Y-153597585D01*
X104455135Y-153600500D01*
X106544864Y-153600499D01*
X106569991Y-153597585D01*
X106672765Y-153552206D01*
X106752206Y-153472765D01*
X106797585Y-153369991D01*
X106800500Y-153344865D01*
X106800499Y-151606899D01*
X106819406Y-151548709D01*
X106829496Y-151536896D01*
X107277697Y-151088696D01*
X107332213Y-151060919D01*
X107347700Y-151059700D01*
X109689893Y-151059700D01*
X109748084Y-151078607D01*
X109784048Y-151128107D01*
X109784048Y-151189293D01*
X109748084Y-151238793D01*
X109652783Y-151308032D01*
X109508029Y-151452786D01*
X109387714Y-151618386D01*
X109387712Y-151618390D01*
X109294780Y-151800780D01*
X109231521Y-151995470D01*
X109199500Y-152197644D01*
X109199500Y-152402355D01*
X109231521Y-152604529D01*
X109294780Y-152799219D01*
X109387712Y-152981609D01*
X109387714Y-152981613D01*
X109508029Y-153147213D01*
X109508031Y-153147215D01*
X109508034Y-153147219D01*
X109652781Y-153291966D01*
X109652784Y-153291968D01*
X109652786Y-153291970D01*
X109818386Y-153412285D01*
X109818390Y-153412287D01*
X110000781Y-153505220D01*
X110195466Y-153568477D01*
X110195467Y-153568477D01*
X110195470Y-153568478D01*
X110397645Y-153600500D01*
X110397648Y-153600500D01*
X110602355Y-153600500D01*
X110804529Y-153568478D01*
X110804530Y-153568477D01*
X110804534Y-153568477D01*
X110999219Y-153505220D01*
X111181610Y-153412287D01*
X111347219Y-153291966D01*
X111491966Y-153147219D01*
X111612287Y-152981610D01*
X111687215Y-152834554D01*
X111730480Y-152791290D01*
X111775425Y-152780500D01*
X115583439Y-152780500D01*
X115641630Y-152799407D01*
X115677594Y-152848907D01*
X115677594Y-152910093D01*
X115653444Y-152949501D01*
X115622447Y-152980499D01*
X115621641Y-152981609D01*
X115516002Y-153127008D01*
X115433788Y-153288362D01*
X115377828Y-153460593D01*
X115349500Y-153639450D01*
X115349500Y-153820549D01*
X115377828Y-153999406D01*
X115433788Y-154171637D01*
X115492932Y-154287714D01*
X115516004Y-154332994D01*
X115622447Y-154479501D01*
X115750499Y-154607553D01*
X115897006Y-154713996D01*
X116058361Y-154796211D01*
X116230591Y-154852171D01*
X116302136Y-154863502D01*
X116409451Y-154880500D01*
X116409454Y-154880500D01*
X116590549Y-154880500D01*
X116679977Y-154866335D01*
X116769409Y-154852171D01*
X116941639Y-154796211D01*
X117102994Y-154713996D01*
X117249501Y-154607553D01*
X117377553Y-154479501D01*
X117483996Y-154332994D01*
X117566211Y-154171639D01*
X117622171Y-153999409D01*
X117650500Y-153820546D01*
X117650500Y-153639454D01*
X117650500Y-153639450D01*
X117631614Y-153520212D01*
X117622171Y-153460591D01*
X117566211Y-153288361D01*
X117483996Y-153127006D01*
X117377553Y-152980499D01*
X117346555Y-152949501D01*
X117318780Y-152894987D01*
X117328351Y-152834555D01*
X117371616Y-152791290D01*
X117416561Y-152780500D01*
X123705025Y-152780500D01*
X123705027Y-152780500D01*
X123806888Y-152753207D01*
X123806890Y-152753205D01*
X123806892Y-152753205D01*
X123898208Y-152700483D01*
X123898208Y-152700482D01*
X123898213Y-152700480D01*
X125298996Y-151299695D01*
X125353513Y-151271919D01*
X125369000Y-151270700D01*
X125384574Y-151270700D01*
X125384575Y-151270700D01*
X125524585Y-151233184D01*
X125524587Y-151233182D01*
X125524589Y-151233182D01*
X125650110Y-151160712D01*
X125650110Y-151160711D01*
X125650115Y-151160709D01*
X125752609Y-151058215D01*
X125752612Y-151058210D01*
X125825082Y-150932689D01*
X125825082Y-150932687D01*
X125825084Y-150932685D01*
X125862600Y-150792675D01*
X125862600Y-150647725D01*
X125825084Y-150507715D01*
X125825082Y-150507712D01*
X125825082Y-150507710D01*
X125752612Y-150382189D01*
X125752610Y-150382187D01*
X125752609Y-150382185D01*
X125650115Y-150279691D01*
X125650112Y-150279689D01*
X125650110Y-150279687D01*
X125524588Y-150207217D01*
X125524589Y-150207217D01*
X125474468Y-150193787D01*
X125384575Y-150169700D01*
X125239625Y-150169700D01*
X125177890Y-150186241D01*
X125099610Y-150207217D01*
X124974089Y-150279687D01*
X124871589Y-150382187D01*
X124816020Y-150478435D01*
X124770550Y-150519375D01*
X124709700Y-150525770D01*
X124656712Y-150495177D01*
X124634658Y-150454558D01*
X124625884Y-150421815D01*
X124625882Y-150421811D01*
X124553412Y-150296289D01*
X124553410Y-150296287D01*
X124553409Y-150296285D01*
X124450915Y-150193791D01*
X124450912Y-150193789D01*
X124450910Y-150193787D01*
X124325388Y-150121317D01*
X124325389Y-150121317D01*
X124295796Y-150113387D01*
X124185375Y-150083800D01*
X124040425Y-150083800D01*
X123978690Y-150100341D01*
X123900410Y-150121317D01*
X123774889Y-150193787D01*
X123672387Y-150296289D01*
X123599917Y-150421810D01*
X123562400Y-150561825D01*
X123562400Y-150577399D01*
X123559931Y-150584996D01*
X123561181Y-150592886D01*
X123550656Y-150613541D01*
X123543493Y-150635590D01*
X123533404Y-150647403D01*
X123420303Y-150760504D01*
X123365786Y-150788281D01*
X123350299Y-150789500D01*
X117647839Y-150789500D01*
X117589648Y-150770593D01*
X117559631Y-150735447D01*
X117483996Y-150587006D01*
X117377553Y-150440499D01*
X117249501Y-150312447D01*
X117102994Y-150206004D01*
X117102993Y-150206003D01*
X117102991Y-150206002D01*
X116941637Y-150123788D01*
X116769406Y-150067828D01*
X116590549Y-150039500D01*
X116590546Y-150039500D01*
X116409454Y-150039500D01*
X116409451Y-150039500D01*
X116230593Y-150067828D01*
X116058362Y-150123788D01*
X115897008Y-150206002D01*
X115826154Y-150257481D01*
X115750499Y-150312447D01*
X115622447Y-150440499D01*
X115612233Y-150454558D01*
X115516002Y-150587008D01*
X115433788Y-150748362D01*
X115377828Y-150920593D01*
X115349500Y-151099450D01*
X115349500Y-151280549D01*
X115377828Y-151459406D01*
X115433788Y-151631637D01*
X115492508Y-151746882D01*
X115516004Y-151792994D01*
X115537303Y-151822310D01*
X115556210Y-151880500D01*
X115537303Y-151938691D01*
X115487803Y-151974655D01*
X115457210Y-151979500D01*
X111835217Y-151979500D01*
X111777026Y-151960593D01*
X111741062Y-151911093D01*
X111741062Y-151911092D01*
X111705220Y-151800782D01*
X111705220Y-151800781D01*
X111612287Y-151618390D01*
X111612285Y-151618386D01*
X111491970Y-151452786D01*
X111491968Y-151452784D01*
X111491966Y-151452781D01*
X111347219Y-151308034D01*
X111347215Y-151308031D01*
X111347213Y-151308029D01*
X111181613Y-151187714D01*
X111181609Y-151187712D01*
X111080877Y-151136387D01*
X111037612Y-151093122D01*
X111028041Y-151032690D01*
X111055815Y-150978177D01*
X113474541Y-148559450D01*
X115349500Y-148559450D01*
X115349500Y-148740549D01*
X115377828Y-148919406D01*
X115377829Y-148919409D01*
X115433789Y-149091639D01*
X115516004Y-149252994D01*
X115622447Y-149399501D01*
X115750499Y-149527553D01*
X115897006Y-149633996D01*
X116058361Y-149716211D01*
X116230591Y-149772171D01*
X116302136Y-149783502D01*
X116409451Y-149800500D01*
X116409454Y-149800500D01*
X116590549Y-149800500D01*
X116679977Y-149786335D01*
X116769409Y-149772171D01*
X116941639Y-149716211D01*
X117102994Y-149633996D01*
X117249501Y-149527553D01*
X117377553Y-149399501D01*
X117483996Y-149252994D01*
X117566211Y-149091639D01*
X117622171Y-148919409D01*
X117650500Y-148740546D01*
X117650500Y-148559454D01*
X117650500Y-148559450D01*
X117622171Y-148380593D01*
X117622171Y-148380591D01*
X117566211Y-148208361D01*
X117483996Y-148047006D01*
X117377553Y-147900499D01*
X117249501Y-147772447D01*
X117102994Y-147666004D01*
X117102993Y-147666003D01*
X117102991Y-147666002D01*
X116941637Y-147583788D01*
X116769406Y-147527828D01*
X116590549Y-147499500D01*
X116590546Y-147499500D01*
X116409454Y-147499500D01*
X116409451Y-147499500D01*
X116230593Y-147527828D01*
X116058362Y-147583788D01*
X115897008Y-147666002D01*
X115823752Y-147719225D01*
X115750499Y-147772447D01*
X115622447Y-147900499D01*
X115569225Y-147973752D01*
X115516002Y-148047008D01*
X115433788Y-148208362D01*
X115377828Y-148380593D01*
X115349500Y-148559450D01*
X113474541Y-148559450D01*
X115353831Y-146680160D01*
X115408346Y-146652385D01*
X115468778Y-146661956D01*
X115512041Y-146705218D01*
X115516000Y-146712987D01*
X115516001Y-146712990D01*
X115516002Y-146712991D01*
X115516004Y-146712994D01*
X115622447Y-146859501D01*
X115750499Y-146987553D01*
X115897006Y-147093996D01*
X116058361Y-147176211D01*
X116230591Y-147232171D01*
X116302136Y-147243502D01*
X116409451Y-147260500D01*
X116409454Y-147260500D01*
X116590549Y-147260500D01*
X116679977Y-147246335D01*
X116769409Y-147232171D01*
X116941639Y-147176211D01*
X117102994Y-147093996D01*
X117249501Y-146987553D01*
X117377553Y-146859501D01*
X117483996Y-146712994D01*
X117559630Y-146564553D01*
X117572962Y-146551221D01*
X117582610Y-146535028D01*
X117593100Y-146531083D01*
X117602894Y-146521290D01*
X117638841Y-146510910D01*
X117643333Y-146510500D01*
X117664427Y-146510500D01*
X117675323Y-146507580D01*
X117683764Y-146506810D01*
X117685924Y-146507300D01*
X117692762Y-146506400D01*
X123039669Y-146506400D01*
X123097860Y-146525307D01*
X123109666Y-146535390D01*
X123120685Y-146546409D01*
X123120687Y-146546410D01*
X123120689Y-146546412D01*
X123246211Y-146618882D01*
X123246212Y-146618882D01*
X123246215Y-146618884D01*
X123386225Y-146656400D01*
X123386226Y-146656400D01*
X123531174Y-146656400D01*
X123531175Y-146656400D01*
X123671185Y-146618884D01*
X123671187Y-146618882D01*
X123671189Y-146618882D01*
X123796710Y-146546412D01*
X123796710Y-146546411D01*
X123796715Y-146546409D01*
X123899209Y-146443915D01*
X123971684Y-146318385D01*
X124009200Y-146178375D01*
X124009200Y-146033425D01*
X123971684Y-145893415D01*
X123971682Y-145893412D01*
X123971682Y-145893410D01*
X123899212Y-145767889D01*
X123899210Y-145767887D01*
X123899209Y-145767885D01*
X123796715Y-145665391D01*
X123796712Y-145665389D01*
X123796710Y-145665387D01*
X123671188Y-145592917D01*
X123671189Y-145592917D01*
X123633361Y-145582781D01*
X123531175Y-145555400D01*
X123386225Y-145555400D01*
X123324490Y-145571941D01*
X123246210Y-145592917D01*
X123120689Y-145665387D01*
X123120688Y-145665388D01*
X123120685Y-145665390D01*
X123120685Y-145665391D01*
X123109670Y-145676405D01*
X123055156Y-145704181D01*
X123039669Y-145705400D01*
X117645750Y-145705400D01*
X117623698Y-145698235D01*
X117600805Y-145694609D01*
X117595157Y-145688961D01*
X117587559Y-145686493D01*
X117557542Y-145651347D01*
X117502205Y-145542744D01*
X117492635Y-145482313D01*
X117520413Y-145427796D01*
X117574929Y-145400019D01*
X117590416Y-145398800D01*
X122345525Y-145398800D01*
X122345527Y-145398800D01*
X122447388Y-145371507D01*
X122447390Y-145371505D01*
X122447392Y-145371505D01*
X122538708Y-145318783D01*
X122538708Y-145318782D01*
X122538713Y-145318780D01*
X125903797Y-141953696D01*
X125958314Y-141925919D01*
X125973801Y-141924700D01*
X125989374Y-141924700D01*
X125989375Y-141924700D01*
X126129385Y-141887184D01*
X126129387Y-141887182D01*
X126129389Y-141887182D01*
X126254910Y-141814712D01*
X126254910Y-141814711D01*
X126254915Y-141814709D01*
X126357409Y-141712215D01*
X126429884Y-141586685D01*
X126467400Y-141446675D01*
X126467400Y-141301725D01*
X126429884Y-141161715D01*
X126429882Y-141161712D01*
X126429882Y-141161710D01*
X126357412Y-141036189D01*
X126357410Y-141036187D01*
X126357409Y-141036185D01*
X126254915Y-140933691D01*
X126254912Y-140933689D01*
X126254910Y-140933687D01*
X126129388Y-140861217D01*
X126129389Y-140861217D01*
X126099796Y-140853287D01*
X125989375Y-140823700D01*
X125844425Y-140823700D01*
X125782690Y-140840241D01*
X125704410Y-140861217D01*
X125578889Y-140933687D01*
X125476387Y-141036189D01*
X125403917Y-141161710D01*
X125366400Y-141301725D01*
X125366400Y-141317299D01*
X125347493Y-141375490D01*
X125337404Y-141387303D01*
X122155903Y-144568804D01*
X122101386Y-144596581D01*
X122085899Y-144597800D01*
X116098306Y-144597800D01*
X116098290Y-144597799D01*
X116092227Y-144597799D01*
X115986773Y-144597799D01*
X115986770Y-144597799D01*
X115884913Y-144625092D01*
X115884909Y-144625094D01*
X115793587Y-144677819D01*
X115719019Y-144752386D01*
X115719020Y-144752387D01*
X115069503Y-145401904D01*
X115014986Y-145429681D01*
X114954554Y-145420110D01*
X114911289Y-145376845D01*
X114900499Y-145331900D01*
X114900499Y-143155139D01*
X114900499Y-143155136D01*
X114897585Y-143130009D01*
X114852206Y-143027235D01*
X114772765Y-142947794D01*
X114669991Y-142902415D01*
X114669990Y-142902414D01*
X114669988Y-142902414D01*
X114644868Y-142899500D01*
X112555139Y-142899500D01*
X112555136Y-142899501D01*
X112530009Y-142902414D01*
X112427235Y-142947794D01*
X112347794Y-143027235D01*
X112302414Y-143130011D01*
X112299500Y-143155130D01*
X112299500Y-146444860D01*
X112299501Y-146444863D01*
X112302414Y-146469990D01*
X112318491Y-146506400D01*
X112347794Y-146572765D01*
X112427235Y-146652206D01*
X112530009Y-146697585D01*
X112555135Y-146700500D01*
X113961698Y-146700499D01*
X114019889Y-146719406D01*
X114055853Y-146768906D01*
X114055853Y-146830092D01*
X114031702Y-146869503D01*
X110671503Y-150229704D01*
X110616986Y-150257481D01*
X110601499Y-150258700D01*
X107199606Y-150258700D01*
X107199590Y-150258699D01*
X107193527Y-150258699D01*
X107088073Y-150258699D01*
X107088070Y-150258699D01*
X106986213Y-150285992D01*
X106986209Y-150285994D01*
X106894887Y-150338719D01*
X106820319Y-150413286D01*
X106820320Y-150413287D01*
X106820318Y-150413289D01*
X106263102Y-150970504D01*
X106208585Y-150998281D01*
X106193098Y-150999500D01*
X104455139Y-150999500D01*
X104455136Y-150999501D01*
X104430009Y-151002414D01*
X104327235Y-151047794D01*
X104247794Y-151127235D01*
X104202414Y-151230011D01*
X104199500Y-151255130D01*
X100500500Y-151255130D01*
X100500500Y-143155130D01*
X101099500Y-143155130D01*
X101099500Y-146444860D01*
X101099501Y-146444863D01*
X101102414Y-146469990D01*
X101118491Y-146506400D01*
X101147794Y-146572765D01*
X101227235Y-146652206D01*
X101330009Y-146697585D01*
X101355135Y-146700500D01*
X103444864Y-146700499D01*
X103469991Y-146697585D01*
X103572765Y-146652206D01*
X103652206Y-146572765D01*
X103697585Y-146469991D01*
X103700500Y-146444865D01*
X103700499Y-143155136D01*
X103697585Y-143130009D01*
X103652206Y-143027235D01*
X103572765Y-142947794D01*
X103469991Y-142902415D01*
X103469990Y-142902414D01*
X103469988Y-142902414D01*
X103444868Y-142899500D01*
X101355139Y-142899500D01*
X101355136Y-142899501D01*
X101330009Y-142902414D01*
X101227235Y-142947794D01*
X101147794Y-143027235D01*
X101102414Y-143130011D01*
X101099500Y-143155130D01*
X100500500Y-143155130D01*
X100500500Y-137697644D01*
X109199500Y-137697644D01*
X109199500Y-137902355D01*
X109231521Y-138104529D01*
X109294780Y-138299219D01*
X109387712Y-138481609D01*
X109387714Y-138481613D01*
X109508029Y-138647213D01*
X109508031Y-138647215D01*
X109508034Y-138647219D01*
X109652781Y-138791966D01*
X109652784Y-138791968D01*
X109652786Y-138791970D01*
X109818386Y-138912285D01*
X109818390Y-138912287D01*
X110000781Y-139005220D01*
X110195466Y-139068477D01*
X110195467Y-139068477D01*
X110195470Y-139068478D01*
X110397645Y-139100500D01*
X110397648Y-139100500D01*
X110602355Y-139100500D01*
X110804529Y-139068478D01*
X110804530Y-139068477D01*
X110804534Y-139068477D01*
X110999219Y-139005220D01*
X111181610Y-138912287D01*
X111347219Y-138791966D01*
X111491966Y-138647219D01*
X111612287Y-138481610D01*
X111705220Y-138299219D01*
X111768477Y-138104534D01*
X111800500Y-137902352D01*
X111800500Y-137697648D01*
X111800500Y-137697644D01*
X111768478Y-137495470D01*
X111768477Y-137495466D01*
X111705220Y-137300781D01*
X111612287Y-137118390D01*
X111612285Y-137118386D01*
X111491970Y-136952786D01*
X111491968Y-136952784D01*
X111491966Y-136952781D01*
X111347219Y-136808034D01*
X111347215Y-136808031D01*
X111347213Y-136808029D01*
X111181613Y-136687714D01*
X111181609Y-136687712D01*
X110999219Y-136594780D01*
X110804529Y-136531521D01*
X110602355Y-136499500D01*
X110602352Y-136499500D01*
X110397648Y-136499500D01*
X110397645Y-136499500D01*
X110195470Y-136531521D01*
X110000780Y-136594780D01*
X109818390Y-136687712D01*
X109818386Y-136687714D01*
X109652786Y-136808029D01*
X109508029Y-136952786D01*
X109387714Y-137118386D01*
X109387712Y-137118390D01*
X109294780Y-137300780D01*
X109231521Y-137495470D01*
X109199500Y-137697644D01*
X100500500Y-137697644D01*
X100500500Y-133655130D01*
X104199500Y-133655130D01*
X104199500Y-135744860D01*
X104199501Y-135744863D01*
X104202414Y-135769990D01*
X104221090Y-135812287D01*
X104247794Y-135872765D01*
X104327235Y-135952206D01*
X104430009Y-135997585D01*
X104455135Y-136000500D01*
X106544864Y-136000499D01*
X106569991Y-135997585D01*
X106672765Y-135952206D01*
X106752206Y-135872765D01*
X106797585Y-135769991D01*
X106800500Y-135744865D01*
X106800499Y-134006899D01*
X106802967Y-133999302D01*
X106801718Y-133991412D01*
X106812241Y-133970758D01*
X106819406Y-133948709D01*
X106829496Y-133936896D01*
X106913897Y-133852496D01*
X106968414Y-133824719D01*
X106983900Y-133823500D01*
X109335010Y-133823500D01*
X109393201Y-133842407D01*
X109429165Y-133891907D01*
X109429165Y-133953093D01*
X109415103Y-133980690D01*
X109387714Y-134018386D01*
X109387712Y-134018390D01*
X109294780Y-134200780D01*
X109231521Y-134395470D01*
X109199500Y-134597644D01*
X109199500Y-134802355D01*
X109231521Y-135004529D01*
X109294780Y-135199219D01*
X109387712Y-135381609D01*
X109387714Y-135381613D01*
X109508029Y-135547213D01*
X109508031Y-135547215D01*
X109508034Y-135547219D01*
X109652781Y-135691966D01*
X109652784Y-135691968D01*
X109652786Y-135691970D01*
X109818386Y-135812285D01*
X109818390Y-135812287D01*
X110000781Y-135905220D01*
X110195466Y-135968477D01*
X110195467Y-135968477D01*
X110195470Y-135968478D01*
X110397645Y-136000500D01*
X110397648Y-136000500D01*
X110602355Y-136000500D01*
X110804529Y-135968478D01*
X110804530Y-135968477D01*
X110804534Y-135968477D01*
X110999219Y-135905220D01*
X111027614Y-135890751D01*
X111088042Y-135881178D01*
X111142560Y-135908954D01*
X111142563Y-135908956D01*
X111899118Y-136665510D01*
X111899120Y-136665513D01*
X111973687Y-136740080D01*
X112004059Y-136757615D01*
X112065013Y-136792807D01*
X112166870Y-136820100D01*
X112166872Y-136820101D01*
X112166873Y-136820101D01*
X112278390Y-136820101D01*
X112278406Y-136820100D01*
X125497869Y-136820100D01*
X125556060Y-136839007D01*
X125567866Y-136849090D01*
X125578885Y-136860109D01*
X125578887Y-136860110D01*
X125578889Y-136860112D01*
X125704411Y-136932582D01*
X125704412Y-136932582D01*
X125704415Y-136932584D01*
X125844425Y-136970100D01*
X125844426Y-136970100D01*
X125989374Y-136970100D01*
X125989375Y-136970100D01*
X126129385Y-136932584D01*
X126129387Y-136932582D01*
X126129389Y-136932582D01*
X126254910Y-136860112D01*
X126254910Y-136860111D01*
X126254915Y-136860109D01*
X126357409Y-136757615D01*
X126367533Y-136740080D01*
X126429882Y-136632089D01*
X126429882Y-136632087D01*
X126429884Y-136632085D01*
X126467400Y-136492075D01*
X126467400Y-136347125D01*
X126429884Y-136207115D01*
X126429882Y-136207112D01*
X126429882Y-136207110D01*
X126357412Y-136081589D01*
X126357410Y-136081587D01*
X126357409Y-136081585D01*
X126254915Y-135979091D01*
X126254912Y-135979089D01*
X126254910Y-135979087D01*
X126129388Y-135906617D01*
X126129389Y-135906617D01*
X126034450Y-135881178D01*
X125989375Y-135869100D01*
X125844425Y-135869100D01*
X125799350Y-135881178D01*
X125704410Y-135906617D01*
X125578889Y-135979087D01*
X125578888Y-135979088D01*
X125578885Y-135979090D01*
X125578885Y-135979091D01*
X125567870Y-135990105D01*
X125513356Y-136017881D01*
X125497869Y-136019100D01*
X112426500Y-136019100D01*
X112368309Y-136000193D01*
X112356496Y-135990104D01*
X111708956Y-135342563D01*
X111681179Y-135288046D01*
X111690749Y-135227618D01*
X111705220Y-135199219D01*
X111768477Y-135004534D01*
X111800500Y-134802352D01*
X111800500Y-134597648D01*
X111800500Y-134597644D01*
X111768478Y-134395470D01*
X111768477Y-134395466D01*
X111705220Y-134200781D01*
X111612287Y-134018390D01*
X111612285Y-134018386D01*
X111584897Y-133980690D01*
X111565990Y-133922499D01*
X111584898Y-133864309D01*
X111634398Y-133828345D01*
X111664990Y-133823500D01*
X125190700Y-133823500D01*
X125198297Y-133825968D01*
X125206186Y-133824719D01*
X125226839Y-133835242D01*
X125248891Y-133842407D01*
X125260703Y-133852496D01*
X125329903Y-133921695D01*
X125357681Y-133976211D01*
X125358900Y-133991699D01*
X125358900Y-134007275D01*
X125388487Y-134117696D01*
X125396417Y-134147289D01*
X125468887Y-134272810D01*
X125468889Y-134272812D01*
X125468891Y-134272815D01*
X125571385Y-134375309D01*
X125571387Y-134375310D01*
X125571389Y-134375312D01*
X125696911Y-134447782D01*
X125696912Y-134447782D01*
X125696915Y-134447784D01*
X125836925Y-134485300D01*
X125836926Y-134485300D01*
X125981874Y-134485300D01*
X125981875Y-134485300D01*
X126121885Y-134447784D01*
X126121887Y-134447782D01*
X126121889Y-134447782D01*
X126247410Y-134375312D01*
X126247410Y-134375311D01*
X126247415Y-134375309D01*
X126349909Y-134272815D01*
X126422384Y-134147285D01*
X126459900Y-134007275D01*
X126459900Y-133862325D01*
X126422384Y-133722315D01*
X126422382Y-133722312D01*
X126422382Y-133722310D01*
X126349912Y-133596789D01*
X126349910Y-133596787D01*
X126349909Y-133596785D01*
X126247415Y-133494291D01*
X126247412Y-133494289D01*
X126247410Y-133494287D01*
X126121888Y-133421817D01*
X126121889Y-133421817D01*
X126049480Y-133402415D01*
X125981875Y-133384300D01*
X125981874Y-133384300D01*
X125966301Y-133384300D01*
X125908110Y-133365393D01*
X125896298Y-133355304D01*
X125643513Y-133102520D01*
X125643508Y-133102516D01*
X125552191Y-133049794D01*
X125552193Y-133049794D01*
X125512670Y-133039204D01*
X125450327Y-133022500D01*
X125450325Y-133022500D01*
X106835806Y-133022500D01*
X106835790Y-133022499D01*
X106829727Y-133022499D01*
X106724273Y-133022499D01*
X106724270Y-133022499D01*
X106622413Y-133049792D01*
X106622409Y-133049794D01*
X106531087Y-133102519D01*
X106456519Y-133177086D01*
X106456520Y-133177087D01*
X106456518Y-133177089D01*
X106456517Y-133177089D01*
X106263101Y-133370504D01*
X106208585Y-133398281D01*
X106193098Y-133399500D01*
X104455139Y-133399500D01*
X104455136Y-133399501D01*
X104430009Y-133402414D01*
X104327235Y-133447794D01*
X104247794Y-133527235D01*
X104202414Y-133630011D01*
X104199500Y-133655130D01*
X100500500Y-133655130D01*
X100500500Y-125555130D01*
X101099500Y-125555130D01*
X101099500Y-128844860D01*
X101099501Y-128844863D01*
X101102414Y-128869990D01*
X101127756Y-128927385D01*
X101147794Y-128972765D01*
X101227235Y-129052206D01*
X101330009Y-129097585D01*
X101355135Y-129100500D01*
X103444864Y-129100499D01*
X103469991Y-129097585D01*
X103572765Y-129052206D01*
X103652206Y-128972765D01*
X103697585Y-128869991D01*
X103700500Y-128844865D01*
X103700499Y-125555136D01*
X103697585Y-125530009D01*
X103652206Y-125427235D01*
X103572765Y-125347794D01*
X103469991Y-125302415D01*
X103469990Y-125302414D01*
X103469988Y-125302414D01*
X103444868Y-125299500D01*
X101355139Y-125299500D01*
X101355136Y-125299501D01*
X101330009Y-125302414D01*
X101227235Y-125347794D01*
X101147794Y-125427235D01*
X101102414Y-125530011D01*
X101099500Y-125555130D01*
X100500500Y-125555130D01*
X100500500Y-116055130D01*
X104199500Y-116055130D01*
X104199500Y-118144860D01*
X104199501Y-118144863D01*
X104202414Y-118169990D01*
X104221090Y-118212287D01*
X104247794Y-118272765D01*
X104327235Y-118352206D01*
X104430009Y-118397585D01*
X104455135Y-118400500D01*
X105019802Y-118400499D01*
X105077993Y-118419406D01*
X105113957Y-118468906D01*
X105115425Y-118473864D01*
X105126793Y-118516288D01*
X105126794Y-118516290D01*
X105126795Y-118516293D01*
X105179516Y-118607608D01*
X105179518Y-118607610D01*
X105179520Y-118607613D01*
X106332205Y-119760298D01*
X106359981Y-119814813D01*
X106361200Y-119830300D01*
X106361200Y-120149773D01*
X106361200Y-120255227D01*
X106373827Y-120302352D01*
X106388494Y-120357092D01*
X106441216Y-120448408D01*
X106441218Y-120448410D01*
X106441220Y-120448413D01*
X111651587Y-125658780D01*
X111651589Y-125658781D01*
X111651591Y-125658783D01*
X111742908Y-125711505D01*
X111742906Y-125711505D01*
X111742910Y-125711506D01*
X111742912Y-125711507D01*
X111844773Y-125738800D01*
X111950227Y-125738800D01*
X112200500Y-125738800D01*
X112258691Y-125757707D01*
X112294655Y-125807207D01*
X112299500Y-125837800D01*
X112299500Y-128844860D01*
X112299501Y-128844863D01*
X112302414Y-128869990D01*
X112327756Y-128927385D01*
X112347794Y-128972765D01*
X112427235Y-129052206D01*
X112530009Y-129097585D01*
X112555135Y-129100500D01*
X114644864Y-129100499D01*
X114669991Y-129097585D01*
X114772765Y-129052206D01*
X114852206Y-128972765D01*
X114897585Y-128869991D01*
X114900500Y-128844865D01*
X114900499Y-126335798D01*
X114919406Y-126277608D01*
X114968906Y-126241644D01*
X115030092Y-126241644D01*
X115069500Y-126265793D01*
X115991187Y-127187480D01*
X115991189Y-127187481D01*
X115991191Y-127187483D01*
X116082508Y-127240205D01*
X116082506Y-127240205D01*
X116082510Y-127240206D01*
X116082512Y-127240207D01*
X116184373Y-127267500D01*
X116184375Y-127267500D01*
X125237425Y-127267500D01*
X125237427Y-127267500D01*
X125339288Y-127240207D01*
X125339290Y-127240205D01*
X125339292Y-127240205D01*
X125430608Y-127187483D01*
X125430608Y-127187482D01*
X125430613Y-127187480D01*
X125551405Y-127066687D01*
X125672198Y-126945896D01*
X125726714Y-126918119D01*
X125742201Y-126916900D01*
X125757774Y-126916900D01*
X125757775Y-126916900D01*
X125897785Y-126879384D01*
X125897787Y-126879382D01*
X125897789Y-126879382D01*
X126023310Y-126806912D01*
X126023310Y-126806911D01*
X126023315Y-126806909D01*
X126125809Y-126704415D01*
X126198284Y-126578885D01*
X126235800Y-126438875D01*
X126235800Y-126438873D01*
X126237479Y-126432608D01*
X126240013Y-126433287D01*
X126261537Y-126388137D01*
X126315302Y-126358930D01*
X126375965Y-126366903D01*
X126381479Y-126369803D01*
X126381910Y-126369982D01*
X126381912Y-126369982D01*
X126381915Y-126369984D01*
X126521925Y-126407500D01*
X126521926Y-126407500D01*
X126666874Y-126407500D01*
X126666875Y-126407500D01*
X126806885Y-126369984D01*
X126806887Y-126369982D01*
X126806889Y-126369982D01*
X126932410Y-126297512D01*
X126932410Y-126297511D01*
X126932415Y-126297509D01*
X127034909Y-126195015D01*
X127058641Y-126153910D01*
X127107382Y-126069489D01*
X127107382Y-126069487D01*
X127107384Y-126069485D01*
X127144900Y-125929475D01*
X127144900Y-125913900D01*
X127163807Y-125855709D01*
X127173890Y-125843902D01*
X128927380Y-124090413D01*
X128980107Y-123999088D01*
X129007400Y-123897227D01*
X129007400Y-123791773D01*
X129007400Y-121579531D01*
X129026307Y-121521340D01*
X129036390Y-121509533D01*
X129047409Y-121498515D01*
X129119884Y-121372985D01*
X129157400Y-121232975D01*
X129157400Y-121088025D01*
X129119884Y-120948015D01*
X129119882Y-120948012D01*
X129119882Y-120948010D01*
X129047412Y-120822489D01*
X129047410Y-120822487D01*
X129047409Y-120822485D01*
X128944915Y-120719991D01*
X128944912Y-120719989D01*
X128944910Y-120719987D01*
X128819388Y-120647517D01*
X128819389Y-120647517D01*
X128789796Y-120639587D01*
X128679375Y-120610000D01*
X128534425Y-120610000D01*
X128472690Y-120626541D01*
X128394410Y-120647517D01*
X128268889Y-120719987D01*
X128166387Y-120822489D01*
X128093917Y-120948010D01*
X128056400Y-121088025D01*
X128056400Y-121232974D01*
X128093917Y-121372989D01*
X128166387Y-121498510D01*
X128166389Y-121498512D01*
X128166391Y-121498515D01*
X128177405Y-121509529D01*
X128205181Y-121564044D01*
X128206400Y-121579531D01*
X128206400Y-123637599D01*
X128187493Y-123695790D01*
X128177404Y-123707603D01*
X127768404Y-124116603D01*
X127713887Y-124144380D01*
X127653455Y-124134809D01*
X127610190Y-124091544D01*
X127599400Y-124046599D01*
X127599400Y-118595574D01*
X127599400Y-118595573D01*
X127580997Y-118526889D01*
X127578156Y-118516286D01*
X127578156Y-118516285D01*
X127572106Y-118493710D01*
X127572105Y-118493708D01*
X127519383Y-118402391D01*
X127519381Y-118402389D01*
X127519380Y-118402387D01*
X124832313Y-115715320D01*
X124832310Y-115715318D01*
X124832308Y-115715316D01*
X124740991Y-115662594D01*
X124740993Y-115662594D01*
X124701470Y-115652004D01*
X124639127Y-115635300D01*
X111616927Y-115635300D01*
X111511473Y-115635300D01*
X111449129Y-115652004D01*
X111409607Y-115662594D01*
X111318291Y-115715316D01*
X111318286Y-115715320D01*
X111142563Y-115891042D01*
X111088046Y-115918819D01*
X111027616Y-115909248D01*
X110999222Y-115894781D01*
X110804529Y-115831521D01*
X110602355Y-115799500D01*
X110602352Y-115799500D01*
X110397648Y-115799500D01*
X110397645Y-115799500D01*
X110195470Y-115831521D01*
X110000780Y-115894780D01*
X109818390Y-115987712D01*
X109818386Y-115987714D01*
X109652786Y-116108029D01*
X109508029Y-116252786D01*
X109387714Y-116418386D01*
X109387712Y-116418390D01*
X109294780Y-116600780D01*
X109231521Y-116795470D01*
X109199500Y-116997644D01*
X109199500Y-117202355D01*
X109231521Y-117404529D01*
X109294780Y-117599219D01*
X109387712Y-117781609D01*
X109387714Y-117781613D01*
X109508029Y-117947213D01*
X109508031Y-117947215D01*
X109508034Y-117947219D01*
X109652781Y-118091966D01*
X109652784Y-118091968D01*
X109652786Y-118091970D01*
X109818386Y-118212285D01*
X109818390Y-118212287D01*
X110000781Y-118305220D01*
X110195466Y-118368477D01*
X110195467Y-118368477D01*
X110195470Y-118368478D01*
X110397645Y-118400500D01*
X110397648Y-118400500D01*
X110602355Y-118400500D01*
X110804529Y-118368478D01*
X110804530Y-118368477D01*
X110804534Y-118368477D01*
X110999219Y-118305220D01*
X111181610Y-118212287D01*
X111347219Y-118091966D01*
X111491966Y-117947219D01*
X111612287Y-117781610D01*
X111705220Y-117599219D01*
X111768477Y-117404534D01*
X111800500Y-117202352D01*
X111800500Y-116997648D01*
X111800500Y-116997644D01*
X111768478Y-116795470D01*
X111768477Y-116795466D01*
X111705220Y-116600781D01*
X111694755Y-116580244D01*
X111685185Y-116519813D01*
X111712963Y-116465296D01*
X111767479Y-116437519D01*
X111782966Y-116436300D01*
X122886900Y-116436300D01*
X122901812Y-116441145D01*
X122917493Y-116441145D01*
X122930178Y-116450361D01*
X122945091Y-116455207D01*
X122954307Y-116467892D01*
X122966993Y-116477109D01*
X122971838Y-116492021D01*
X122981055Y-116504707D01*
X122985900Y-116535300D01*
X122985900Y-116544299D01*
X122966993Y-116602490D01*
X122956904Y-116614303D01*
X121729516Y-117841691D01*
X121676794Y-117933008D01*
X121676792Y-117933012D01*
X121669239Y-117961198D01*
X121669240Y-117961199D01*
X121649500Y-118034873D01*
X121649500Y-125508268D01*
X121648050Y-125512727D01*
X121649087Y-125517301D01*
X121640869Y-125534829D01*
X121630593Y-125566459D01*
X121624949Y-125573524D01*
X121622798Y-125575977D01*
X121609491Y-125589285D01*
X121606319Y-125594777D01*
X121599898Y-125602104D01*
X121581556Y-125613022D01*
X121565691Y-125627300D01*
X121555836Y-125628333D01*
X121547323Y-125633401D01*
X121526069Y-125631453D01*
X121504840Y-125633679D01*
X121495602Y-125628661D01*
X121486393Y-125627818D01*
X121473922Y-125616887D01*
X121455445Y-125606852D01*
X120607067Y-124758474D01*
X119518713Y-123670120D01*
X119518710Y-123670118D01*
X119518709Y-123670117D01*
X119518708Y-123670116D01*
X119427391Y-123617394D01*
X119427393Y-123617394D01*
X119387870Y-123606804D01*
X119325527Y-123590100D01*
X119325525Y-123590100D01*
X111794231Y-123590100D01*
X111736040Y-123571193D01*
X111724233Y-123561109D01*
X111713215Y-123550091D01*
X111713212Y-123550089D01*
X111713210Y-123550087D01*
X111587688Y-123477617D01*
X111587689Y-123477617D01*
X111558096Y-123469687D01*
X111447675Y-123440100D01*
X111302725Y-123440100D01*
X111240990Y-123456641D01*
X111162710Y-123477617D01*
X111037189Y-123550087D01*
X111037188Y-123550088D01*
X111037185Y-123550090D01*
X111037185Y-123550091D01*
X110934691Y-123652585D01*
X110934689Y-123652587D01*
X110930103Y-123657174D01*
X110928972Y-123656043D01*
X110885025Y-123686242D01*
X110823861Y-123684634D01*
X110786913Y-123661320D01*
X107223237Y-120097644D01*
X109199500Y-120097644D01*
X109199500Y-120302355D01*
X109231521Y-120504529D01*
X109294780Y-120699219D01*
X109387712Y-120881609D01*
X109387714Y-120881613D01*
X109508029Y-121047213D01*
X109508031Y-121047215D01*
X109508034Y-121047219D01*
X109652781Y-121191966D01*
X109652784Y-121191968D01*
X109652786Y-121191970D01*
X109818386Y-121312285D01*
X109818390Y-121312287D01*
X110000781Y-121405220D01*
X110195466Y-121468477D01*
X110195467Y-121468477D01*
X110195470Y-121468478D01*
X110397645Y-121500500D01*
X110397648Y-121500500D01*
X110602355Y-121500500D01*
X110804529Y-121468478D01*
X110804530Y-121468477D01*
X110804534Y-121468477D01*
X110999219Y-121405220D01*
X111181610Y-121312287D01*
X111347219Y-121191966D01*
X111491966Y-121047219D01*
X111612287Y-120881610D01*
X111705220Y-120699219D01*
X111768477Y-120504534D01*
X111800500Y-120302352D01*
X111800500Y-120097648D01*
X111800500Y-120097644D01*
X111768478Y-119895470D01*
X111733979Y-119789293D01*
X111705220Y-119700781D01*
X111612287Y-119518390D01*
X111612285Y-119518386D01*
X111491970Y-119352786D01*
X111491968Y-119352784D01*
X111491966Y-119352781D01*
X111347219Y-119208034D01*
X111347215Y-119208031D01*
X111347213Y-119208029D01*
X111181613Y-119087714D01*
X111181609Y-119087712D01*
X110999219Y-118994780D01*
X110804529Y-118931521D01*
X110602355Y-118899500D01*
X110602352Y-118899500D01*
X110397648Y-118899500D01*
X110397645Y-118899500D01*
X110195470Y-118931521D01*
X110000780Y-118994780D01*
X109818390Y-119087712D01*
X109818386Y-119087714D01*
X109652786Y-119208029D01*
X109508029Y-119352786D01*
X109387714Y-119518386D01*
X109387712Y-119518390D01*
X109294780Y-119700780D01*
X109231521Y-119895470D01*
X109199500Y-120097644D01*
X107223237Y-120097644D01*
X107191196Y-120065603D01*
X107163419Y-120011086D01*
X107162200Y-119995599D01*
X107162200Y-119570674D01*
X107162200Y-119570673D01*
X107148191Y-119518390D01*
X107148191Y-119518389D01*
X107148191Y-119518388D01*
X107134906Y-119468810D01*
X107134905Y-119468808D01*
X107082183Y-119377491D01*
X107082182Y-119377490D01*
X107082181Y-119377489D01*
X107082180Y-119377487D01*
X106274196Y-118569503D01*
X106246419Y-118514986D01*
X106255990Y-118454554D01*
X106299255Y-118411289D01*
X106344200Y-118400499D01*
X106544861Y-118400499D01*
X106544864Y-118400499D01*
X106569991Y-118397585D01*
X106672765Y-118352206D01*
X106752206Y-118272765D01*
X106797585Y-118169991D01*
X106800500Y-118144865D01*
X106800499Y-116055136D01*
X106797585Y-116030009D01*
X106752206Y-115927235D01*
X106672765Y-115847794D01*
X106569991Y-115802415D01*
X106569990Y-115802414D01*
X106569988Y-115802414D01*
X106544868Y-115799500D01*
X104455139Y-115799500D01*
X104455136Y-115799501D01*
X104430009Y-115802414D01*
X104327235Y-115847794D01*
X104247794Y-115927235D01*
X104202414Y-116030011D01*
X104199500Y-116055130D01*
X100500500Y-116055130D01*
X100500500Y-107955130D01*
X101099500Y-107955130D01*
X101099500Y-111244860D01*
X101099501Y-111244863D01*
X101102414Y-111269990D01*
X101127756Y-111327385D01*
X101147794Y-111372765D01*
X101227235Y-111452206D01*
X101330009Y-111497585D01*
X101355135Y-111500500D01*
X103444864Y-111500499D01*
X103469991Y-111497585D01*
X103572765Y-111452206D01*
X103652206Y-111372765D01*
X103697585Y-111269991D01*
X103700500Y-111244865D01*
X103700499Y-107955136D01*
X103700498Y-107955130D01*
X112299500Y-107955130D01*
X112299500Y-111244860D01*
X112299501Y-111244863D01*
X112302414Y-111269990D01*
X112327756Y-111327385D01*
X112347794Y-111372765D01*
X112427235Y-111452206D01*
X112530009Y-111497585D01*
X112555135Y-111500500D01*
X114644864Y-111500499D01*
X114669991Y-111497585D01*
X114772765Y-111452206D01*
X114852206Y-111372765D01*
X114897585Y-111269991D01*
X114900500Y-111244865D01*
X114900499Y-107955136D01*
X114897585Y-107930009D01*
X114852206Y-107827235D01*
X114772765Y-107747794D01*
X114669991Y-107702415D01*
X114669990Y-107702414D01*
X114669988Y-107702414D01*
X114644868Y-107699500D01*
X112555139Y-107699500D01*
X112555136Y-107699501D01*
X112530009Y-107702414D01*
X112427235Y-107747794D01*
X112347794Y-107827235D01*
X112302414Y-107930011D01*
X112299500Y-107955130D01*
X103700498Y-107955130D01*
X103697585Y-107930009D01*
X103652206Y-107827235D01*
X103572765Y-107747794D01*
X103469991Y-107702415D01*
X103469990Y-107702414D01*
X103469988Y-107702414D01*
X103444868Y-107699500D01*
X101355139Y-107699500D01*
X101355136Y-107699501D01*
X101330009Y-107702414D01*
X101227235Y-107747794D01*
X101147794Y-107827235D01*
X101102414Y-107930011D01*
X101099500Y-107955130D01*
X100500500Y-107955130D01*
X100500500Y-102497644D01*
X109199500Y-102497644D01*
X109199500Y-102702355D01*
X109231521Y-102904529D01*
X109294780Y-103099219D01*
X109387712Y-103281609D01*
X109387714Y-103281613D01*
X109508029Y-103447213D01*
X109508031Y-103447215D01*
X109508034Y-103447219D01*
X109652781Y-103591966D01*
X109652784Y-103591968D01*
X109652786Y-103591970D01*
X109818386Y-103712285D01*
X109818390Y-103712287D01*
X110000781Y-103805220D01*
X110195466Y-103868477D01*
X110195467Y-103868477D01*
X110195470Y-103868478D01*
X110397645Y-103900500D01*
X110397648Y-103900500D01*
X110602355Y-103900500D01*
X110804529Y-103868478D01*
X110804530Y-103868477D01*
X110804534Y-103868477D01*
X110999219Y-103805220D01*
X111181610Y-103712287D01*
X111347219Y-103591966D01*
X111491966Y-103447219D01*
X111612287Y-103281610D01*
X111705220Y-103099219D01*
X111768477Y-102904534D01*
X111800500Y-102702352D01*
X111800500Y-102497648D01*
X111800500Y-102497644D01*
X111768478Y-102295470D01*
X111768477Y-102295466D01*
X111705220Y-102100781D01*
X111612287Y-101918390D01*
X111612285Y-101918386D01*
X111491970Y-101752786D01*
X111491968Y-101752784D01*
X111491966Y-101752781D01*
X111347219Y-101608034D01*
X111347215Y-101608031D01*
X111347213Y-101608029D01*
X111181613Y-101487714D01*
X111181609Y-101487712D01*
X110999219Y-101394780D01*
X110804529Y-101331521D01*
X110602355Y-101299500D01*
X110602352Y-101299500D01*
X110397648Y-101299500D01*
X110397645Y-101299500D01*
X110195470Y-101331521D01*
X110000780Y-101394780D01*
X109818390Y-101487712D01*
X109818386Y-101487714D01*
X109652786Y-101608029D01*
X109508029Y-101752786D01*
X109387714Y-101918386D01*
X109387712Y-101918390D01*
X109294780Y-102100780D01*
X109231521Y-102295470D01*
X109199500Y-102497644D01*
X100500500Y-102497644D01*
X100500500Y-100599500D01*
X100519407Y-100541309D01*
X100568907Y-100505345D01*
X100599500Y-100500500D01*
X129400500Y-100500500D01*
X129458691Y-100519407D01*
G37*
%TD.AperFunction*%
%TD*%
M02*
