%TF.GenerationSoftware,KiCad,Pcbnew,10.0.3*%
%TF.CreationDate,2026-07-11T15:12:05+02:00*%
%TF.ProjectId,musicbrain-enc5front,6d757369-6362-4726-9169-6e2d656e6335,2.0*%
%TF.SameCoordinates,Original*%
%TF.FileFunction,Copper,L1,Top*%
%TF.FilePolarity,Positive*%
%FSLAX46Y46*%
G04 Gerber Fmt 4.6, Leading zero omitted, Abs format (unit mm)*
G04 Created by KiCad (PCBNEW 10.0.3) date 2026-07-11 15:12:05*
%MOMM*%
%LPD*%
G01*
G04 APERTURE LIST*
G04 Aperture macros list*
%AMRoundRect*
0 Rectangle with rounded corners*
0 $1 Rounding radius*
0 $2 $3 $4 $5 $6 $7 $8 $9 X,Y pos of 4 corners*
0 Add a 4 corners polygon primitive as box body*
4,1,4,$2,$3,$4,$5,$6,$7,$8,$9,$2,$3,0*
0 Add four circle primitives for the rounded corners*
1,1,$1+$1,$2,$3*
1,1,$1+$1,$4,$5*
1,1,$1+$1,$6,$7*
1,1,$1+$1,$8,$9*
0 Add four rect primitives between the rounded corners*
20,1,$1+$1,$2,$3,$4,$5,0*
20,1,$1+$1,$4,$5,$6,$7,0*
20,1,$1+$1,$6,$7,$8,$9,0*
20,1,$1+$1,$8,$9,$2,$3,0*%
G04 Aperture macros list end*
%TA.AperFunction,ComponentPad*%
%ADD10R,2.000000X2.000000*%
%TD*%
%TA.AperFunction,ComponentPad*%
%ADD11C,2.000000*%
%TD*%
%TA.AperFunction,ComponentPad*%
%ADD12R,2.000000X3.200000*%
%TD*%
%TA.AperFunction,SMDPad,CuDef*%
%ADD13RoundRect,0.075000X-0.437500X-0.075000X0.437500X-0.075000X0.437500X0.075000X-0.437500X0.075000X0*%
%TD*%
%TA.AperFunction,SMDPad,CuDef*%
%ADD14RoundRect,0.075000X-0.075000X-0.437500X0.075000X-0.437500X0.075000X0.437500X-0.075000X0.437500X0*%
%TD*%
%TA.AperFunction,HeatsinkPad*%
%ADD15R,4.250000X4.250000*%
%TD*%
%TA.AperFunction,SMDPad,CuDef*%
%ADD16RoundRect,0.250000X-0.250000X-0.475000X0.250000X-0.475000X0.250000X0.475000X-0.250000X0.475000X0*%
%TD*%
%TA.AperFunction,ComponentPad*%
%ADD17R,1.700000X1.700000*%
%TD*%
%TA.AperFunction,ComponentPad*%
%ADD18O,1.700000X1.700000*%
%TD*%
%TA.AperFunction,ViaPad*%
%ADD19C,0.500000*%
%TD*%
%TA.AperFunction,Conductor*%
%ADD20C,0.250000*%
%TD*%
%TA.AperFunction,Conductor*%
%ADD21C,0.200000*%
%TD*%
G04 APERTURE END LIST*
D10*
%TO.P,SW1,A*%
%TO.N,/E1A*%
X105500000Y-117100000D03*
D11*
%TO.P,SW1,B*%
%TO.N,/E1B*%
X110500000Y-117100000D03*
%TO.P,SW1,C*%
%TO.N,GND*%
X108000000Y-117100000D03*
D12*
%TO.P,SW1,MP*%
%TO.N,N/C*%
X102400000Y-109600000D03*
X113600000Y-109600000D03*
D11*
%TO.P,SW1,S1*%
%TO.N,/E1S*%
X110500000Y-102600000D03*
%TO.P,SW1,S2*%
%TO.N,GND*%
X105500000Y-102600000D03*
%TD*%
D10*
%TO.P,SW2,A*%
%TO.N,/E2A*%
X105500000Y-134700000D03*
D11*
%TO.P,SW2,B*%
%TO.N,/E2B*%
X110500000Y-134700000D03*
%TO.P,SW2,C*%
%TO.N,GND*%
X108000000Y-134700000D03*
D12*
%TO.P,SW2,MP*%
%TO.N,N/C*%
X102400000Y-127200000D03*
X113600000Y-127200000D03*
D11*
%TO.P,SW2,S1*%
%TO.N,/E2S*%
X110500000Y-120200000D03*
%TO.P,SW2,S2*%
%TO.N,GND*%
X105500000Y-120200000D03*
%TD*%
D10*
%TO.P,SW3,A*%
%TO.N,/E3A*%
X105500000Y-152300000D03*
D11*
%TO.P,SW3,B*%
%TO.N,/E3B*%
X110500000Y-152300000D03*
%TO.P,SW3,C*%
%TO.N,GND*%
X108000000Y-152300000D03*
D12*
%TO.P,SW3,MP*%
%TO.N,N/C*%
X102400000Y-144800000D03*
X113600000Y-144800000D03*
D11*
%TO.P,SW3,S1*%
%TO.N,/E3S*%
X110500000Y-137800000D03*
%TO.P,SW3,S2*%
%TO.N,GND*%
X105500000Y-137800000D03*
%TD*%
D10*
%TO.P,SW4,A*%
%TO.N,/E4A*%
X105500000Y-169900000D03*
D11*
%TO.P,SW4,B*%
%TO.N,/E4B*%
X110500000Y-169900000D03*
%TO.P,SW4,C*%
%TO.N,GND*%
X108000000Y-169900000D03*
D12*
%TO.P,SW4,MP*%
%TO.N,N/C*%
X102400000Y-162400000D03*
X113600000Y-162400000D03*
D11*
%TO.P,SW4,S1*%
%TO.N,/E4S*%
X110500000Y-155400000D03*
%TO.P,SW4,S2*%
%TO.N,GND*%
X105500000Y-155400000D03*
%TD*%
D10*
%TO.P,SW5,A*%
%TO.N,/E5A*%
X105500000Y-187500000D03*
D11*
%TO.P,SW5,B*%
%TO.N,/E5B*%
X110500000Y-187500000D03*
%TO.P,SW5,C*%
%TO.N,GND*%
X108000000Y-187500000D03*
D12*
%TO.P,SW5,MP*%
%TO.N,N/C*%
X102400000Y-180000000D03*
X113600000Y-180000000D03*
D11*
%TO.P,SW5,S1*%
%TO.N,/E5S*%
X110500000Y-173000000D03*
%TO.P,SW5,S2*%
%TO.N,GND*%
X105500000Y-173000000D03*
%TD*%
%TO.P,SW6,1*%
%TO.N,/K1*%
X104750000Y-191750000D03*
X111250000Y-191750000D03*
%TO.P,SW6,2*%
%TO.N,GND*%
X104750000Y-196250000D03*
X111250000Y-196250000D03*
%TD*%
%TO.P,SW7,1*%
%TO.N,/K2*%
X104750000Y-200750000D03*
X111250000Y-200750000D03*
%TO.P,SW7,2*%
%TO.N,GND*%
X104750000Y-205250000D03*
X111250000Y-205250000D03*
%TD*%
D13*
%TO.P,U1,1*%
%TO.N,/E2S*%
X121162500Y-120050000D03*
%TO.P,U1,2*%
%TO.N,/E3S*%
X121162500Y-120700000D03*
%TO.P,U1,3*%
%TO.N,/E4S*%
X121162500Y-121350000D03*
%TO.P,U1,4*%
%TO.N,/X_SP1*%
X121162500Y-122000000D03*
%TO.P,U1,5*%
%TO.N,/X_SP2*%
X121162500Y-122650000D03*
%TO.P,U1,6*%
%TO.N,N/C*%
X121162500Y-123300000D03*
%TO.P,U1,7*%
X121162500Y-123950000D03*
D14*
%TO.P,U1,8*%
%TO.N,+3V3*%
X122050000Y-124837500D03*
%TO.P,U1,9*%
%TO.N,GND*%
X122700000Y-124837500D03*
%TO.P,U1,10*%
%TO.N,N/C*%
X123350000Y-124837500D03*
%TO.P,U1,11*%
%TO.N,/SCL*%
X124000000Y-124837500D03*
%TO.P,U1,12*%
%TO.N,/SDA*%
X124650000Y-124837500D03*
%TO.P,U1,13*%
%TO.N,N/C*%
X125300000Y-124837500D03*
%TO.P,U1,14*%
%TO.N,/E1A*%
X125950000Y-124837500D03*
D13*
%TO.P,U1,15*%
%TO.N,/E1B*%
X126837500Y-123950000D03*
%TO.P,U1,16*%
%TO.N,/E2A*%
X126837500Y-123300000D03*
%TO.P,U1,17*%
%TO.N,/E2B*%
X126837500Y-122650000D03*
%TO.P,U1,18*%
%TO.N,/E3A*%
X126837500Y-122000000D03*
%TO.P,U1,19*%
%TO.N,/E3B*%
X126837500Y-121350000D03*
%TO.P,U1,20*%
%TO.N,/E4A*%
X126837500Y-120700000D03*
%TO.P,U1,21*%
%TO.N,/E4B*%
X126837500Y-120050000D03*
D14*
%TO.P,U1,22*%
%TO.N,/IRQ*%
X125950000Y-119162500D03*
%TO.P,U1,23*%
%TO.N,N/C*%
X125300000Y-119162500D03*
%TO.P,U1,24*%
%TO.N,+3V3*%
X124650000Y-119162500D03*
%TO.P,U1,25*%
%TO.N,GND*%
X124000000Y-119162500D03*
%TO.P,U1,26*%
X123350000Y-119162500D03*
%TO.P,U1,27*%
X122700000Y-119162500D03*
%TO.P,U1,28*%
%TO.N,/E1S*%
X122050000Y-119162500D03*
D15*
%TO.P,U1,29*%
%TO.N,GND*%
X124000000Y-122000000D03*
%TD*%
D16*
%TO.P,C10,1*%
%TO.N,+3V3*%
X123050000Y-114600000D03*
%TO.P,C10,2*%
%TO.N,GND*%
X124950000Y-114600000D03*
%TD*%
D13*
%TO.P,U2,1*%
%TO.N,/X_K4*%
X121162500Y-174050000D03*
%TO.P,U2,2*%
%TO.N,/K1*%
X121162500Y-174700000D03*
%TO.P,U2,3*%
%TO.N,/K2*%
X121162500Y-175350000D03*
%TO.P,U2,4*%
%TO.N,/E5A*%
X121162500Y-176000000D03*
%TO.P,U2,5*%
%TO.N,/E5B*%
X121162500Y-176650000D03*
%TO.P,U2,6*%
%TO.N,/E5S*%
X121162500Y-177300000D03*
%TO.P,U2,7*%
%TO.N,N/C*%
X121162500Y-177950000D03*
D14*
%TO.P,U2,8*%
%TO.N,+3V3*%
X122050000Y-178837500D03*
%TO.P,U2,9*%
%TO.N,GND*%
X122700000Y-178837500D03*
%TO.P,U2,10*%
%TO.N,N/C*%
X123350000Y-178837500D03*
%TO.P,U2,11*%
%TO.N,/SCL*%
X124000000Y-178837500D03*
%TO.P,U2,12*%
%TO.N,/SDA*%
X124650000Y-178837500D03*
%TO.P,U2,13*%
%TO.N,N/C*%
X125300000Y-178837500D03*
%TO.P,U2,14*%
%TO.N,/X_E6A*%
X125950000Y-178837500D03*
D13*
%TO.P,U2,15*%
%TO.N,/X_E6B*%
X126837500Y-177950000D03*
%TO.P,U2,16*%
%TO.N,/X_E6S*%
X126837500Y-177300000D03*
%TO.P,U2,17*%
%TO.N,/X_E7A*%
X126837500Y-176650000D03*
%TO.P,U2,18*%
%TO.N,/X_E7B*%
X126837500Y-176000000D03*
%TO.P,U2,19*%
%TO.N,/X_E7S*%
X126837500Y-175350000D03*
%TO.P,U2,20*%
%TO.N,/X_K1*%
X126837500Y-174700000D03*
%TO.P,U2,21*%
%TO.N,/X_K2*%
X126837500Y-174050000D03*
D14*
%TO.P,U2,22*%
%TO.N,/IRQ*%
X125950000Y-173162500D03*
%TO.P,U2,23*%
%TO.N,N/C*%
X125300000Y-173162500D03*
%TO.P,U2,24*%
%TO.N,+3V3*%
X124650000Y-173162500D03*
%TO.P,U2,25*%
%TO.N,GND*%
X124000000Y-173162500D03*
%TO.P,U2,26*%
X123350000Y-173162500D03*
%TO.P,U2,27*%
%TO.N,+3V3*%
X122700000Y-173162500D03*
%TO.P,U2,28*%
%TO.N,/X_K3*%
X122050000Y-173162500D03*
D15*
%TO.P,U2,29*%
%TO.N,GND*%
X124000000Y-176000000D03*
%TD*%
D16*
%TO.P,C11,1*%
%TO.N,+3V3*%
X123050000Y-169800000D03*
%TO.P,C11,2*%
%TO.N,GND*%
X124950000Y-169800000D03*
%TD*%
D17*
%TO.P,J1,1*%
%TO.N,GND*%
X116500000Y-143570000D03*
D18*
%TO.P,J1,2*%
%TO.N,/SDA*%
X116500000Y-146110000D03*
%TO.P,J1,3*%
%TO.N,/SCL*%
X116500000Y-148650000D03*
%TO.P,J1,4*%
%TO.N,/IRQ*%
X116500000Y-151190000D03*
%TO.P,J1,5*%
%TO.N,N/C*%
X116500000Y-153730000D03*
%TO.P,J1,6*%
X116500000Y-156270000D03*
%TO.P,J1,7*%
X116500000Y-158810000D03*
%TO.P,J1,8*%
X116500000Y-161350000D03*
%TO.P,J1,9*%
X116500000Y-163890000D03*
%TO.P,J1,10*%
%TO.N,+3V3*%
X116500000Y-166430000D03*
%TD*%
D17*
%TO.P,J2,1*%
%TO.N,GND*%
X122770000Y-189800000D03*
D18*
%TO.P,J2,2*%
%TO.N,+3V3*%
X125310000Y-189800000D03*
%TO.P,J2,3*%
%TO.N,/X_E6A*%
X122770000Y-192340000D03*
%TO.P,J2,4*%
%TO.N,/X_E6B*%
X125310000Y-192340000D03*
%TO.P,J2,5*%
%TO.N,/X_E6S*%
X122770000Y-194880000D03*
%TO.P,J2,6*%
%TO.N,/X_E7A*%
X125310000Y-194880000D03*
%TO.P,J2,7*%
%TO.N,/X_E7B*%
X122770000Y-197420000D03*
%TO.P,J2,8*%
%TO.N,/X_E7S*%
X125310000Y-197420000D03*
%TO.P,J2,9*%
%TO.N,/X_K1*%
X122770000Y-199960000D03*
%TO.P,J2,10*%
%TO.N,/X_K2*%
X125310000Y-199960000D03*
%TO.P,J2,11*%
%TO.N,/X_K3*%
X122770000Y-202500000D03*
%TO.P,J2,12*%
%TO.N,/X_K4*%
X125310000Y-202500000D03*
%TO.P,J2,13*%
%TO.N,/X_SP1*%
X122770000Y-205040000D03*
%TO.P,J2,14*%
%TO.N,/X_SP2*%
X125310000Y-205040000D03*
%TO.P,J2,15*%
%TO.N,GND*%
X122770000Y-207580000D03*
%TO.P,J2,16*%
X125310000Y-207580000D03*
%TD*%
D19*
%TO.N,/X_E7S*%
X128050000Y-175350000D03*
%TO.N,+3V3*%
X123536400Y-116601200D03*
X122050000Y-125927300D03*
X115409700Y-184157600D03*
%TO.N,/SDA*%
X128370200Y-173145200D03*
X125258500Y-181011000D03*
X123458700Y-146105900D03*
%TO.N,/SCL*%
X126592000Y-173233200D03*
X124025100Y-179816700D03*
%TO.N,/IRQ*%
X128606900Y-121160500D03*
X126594400Y-125857000D03*
X124112900Y-150634300D03*
%TO.N,/E1A*%
X125685300Y-126366400D03*
%TO.N,/E1B*%
X126766800Y-124686000D03*
%TO.N,/E2A*%
X125909400Y-133934800D03*
%TO.N,/E2B*%
X125916900Y-136419600D03*
%TO.N,/E3A*%
X125916900Y-141374200D03*
%TO.N,/E3B*%
X125312100Y-150720200D03*
%TO.N,/E4A*%
X126420900Y-153577400D03*
%TO.N,/E4B*%
X111375200Y-123990600D03*
X126613500Y-118864900D03*
%TO.N,/E5A*%
X119108600Y-183488300D03*
%TO.N,/E5B*%
X120810500Y-185964400D03*
%TO.N,/E5S*%
X120876200Y-179103400D03*
%TO.N,/K1*%
X116772900Y-190920200D03*
%TO.N,/K2*%
X120897900Y-198331100D03*
%TO.N,/X_E6S*%
X126587200Y-191749500D03*
%TO.N,/X_K2*%
X128648400Y-201516600D03*
%TO.N,/X_SP1*%
X115208300Y-199382700D03*
%TO.N,GND*%
X101500000Y-101500000D03*
X128500000Y-101500000D03*
X101500000Y-208500000D03*
X128500000Y-208500000D03*
X102000000Y-155000000D03*
X119300000Y-115000000D03*
X119300000Y-135000000D03*
X119300000Y-155000000D03*
X119300000Y-175000000D03*
X119300000Y-195000000D03*
X102000000Y-190500000D03*
%TD*%
%TO.N,/X_E7S*%
D20*
X128050000Y-175350000D02*
X126837500Y-175350000D01*
%TO.N,+3V3*%
D21*
X122050000Y-125927300D02*
X122050000Y-124837500D01*
X124650000Y-119162500D02*
X124650000Y-117714800D01*
X124650000Y-117714800D02*
X123536400Y-116601200D01*
X123536400Y-116601200D02*
X123536400Y-115086400D01*
X123536400Y-115086400D02*
X123050000Y-114600000D01*
X116500000Y-165318300D02*
X116269600Y-165318300D01*
X116269600Y-165318300D02*
X115360000Y-164408700D01*
X115360000Y-164408700D02*
X115360000Y-141823000D01*
X115360000Y-141823000D02*
X122050000Y-135133000D01*
X122050000Y-135133000D02*
X122050000Y-125927300D01*
X116500000Y-166430000D02*
X116500000Y-167541700D01*
X115409700Y-184157600D02*
X115409700Y-168632000D01*
X115409700Y-168632000D02*
X116500000Y-167541700D01*
X116500000Y-166430000D02*
X116500000Y-165318300D01*
X122050000Y-178837500D02*
X121653600Y-179233900D01*
X121653600Y-179233900D02*
X121653600Y-192873400D01*
X121653600Y-192873400D02*
X122310300Y-193530100D01*
X122310300Y-193530100D02*
X123165800Y-193530100D01*
X123165800Y-193530100D02*
X124014400Y-192681500D01*
X124014400Y-192681500D02*
X124014400Y-191494800D01*
X124014400Y-191494800D02*
X125310000Y-190199200D01*
X125310000Y-190199200D02*
X125310000Y-189800000D01*
X122700000Y-170150000D02*
X121331700Y-170150000D01*
X121331700Y-170150000D02*
X117611700Y-166430000D01*
X122700000Y-170150000D02*
X122700000Y-173162500D01*
X123050000Y-169800000D02*
X122700000Y-170150000D01*
X116500000Y-166430000D02*
X117611700Y-166430000D01*
X124650000Y-173162500D02*
X124650000Y-171400000D01*
X124650000Y-171400000D02*
X123050000Y-169800000D01*
%TO.N,/SDA*%
X128370200Y-173145200D02*
X128370200Y-156652500D01*
X128370200Y-156652500D02*
X123458700Y-151741000D01*
X123458700Y-151741000D02*
X123458700Y-146105900D01*
X124650000Y-178837500D02*
X124650000Y-180402500D01*
X124650000Y-180402500D02*
X125258500Y-181011000D01*
X124650000Y-124837500D02*
X124650000Y-144914600D01*
X124650000Y-144914600D02*
X123458700Y-146105900D01*
%TO.N,/SCL*%
X116500000Y-148650000D02*
X116500000Y-149761700D01*
X126592000Y-173233200D02*
X126592000Y-159623400D01*
X126592000Y-159623400D02*
X116730300Y-149761700D01*
X116730300Y-149761700D02*
X116500000Y-149761700D01*
X124000000Y-178837500D02*
X124025100Y-178862600D01*
X124025100Y-178862600D02*
X124025100Y-179816700D01*
X124000000Y-124837500D02*
X124000000Y-140251700D01*
X124000000Y-140251700D02*
X116713400Y-147538300D01*
X116713400Y-147538300D02*
X116500000Y-147538300D01*
X116500000Y-148650000D02*
X116500000Y-147538300D01*
%TO.N,/IRQ*%
X124112900Y-150634300D02*
X125271600Y-149475600D01*
X125271600Y-149475600D02*
X125271600Y-127574500D01*
X125271600Y-127574500D02*
X126594400Y-126251700D01*
X126594400Y-126251700D02*
X126594400Y-125857000D01*
X128606900Y-121160500D02*
X128606900Y-119962500D01*
X128606900Y-119962500D02*
X126928100Y-118283700D01*
X126928100Y-118283700D02*
X126400100Y-118283700D01*
X126400100Y-118283700D02*
X125950000Y-118733800D01*
X125950000Y-118733800D02*
X125950000Y-119162500D01*
X116500000Y-152301700D02*
X117338000Y-152301700D01*
X117338000Y-152301700D02*
X125950000Y-160913700D01*
X125950000Y-160913700D02*
X125950000Y-173162500D01*
X116500000Y-151190000D02*
X116500000Y-152301700D01*
%TO.N,/E1A*%
X125950000Y-124837500D02*
X125950000Y-126101700D01*
X125950000Y-126101700D02*
X125685300Y-126366400D01*
%TO.N,/E1B*%
X126766800Y-124686000D02*
X126837500Y-124615300D01*
X126837500Y-124615300D02*
X126837500Y-123950000D01*
%TO.N,/E2A*%
X125909400Y-133934800D02*
X127622100Y-132222100D01*
X127622100Y-132222100D02*
X127622100Y-123719500D01*
X127622100Y-123719500D02*
X127202600Y-123300000D01*
X127202600Y-123300000D02*
X126837500Y-123300000D01*
%TO.N,/E2B*%
X125916900Y-136419600D02*
X127983800Y-134352700D01*
X127983800Y-134352700D02*
X127983800Y-123431200D01*
X127983800Y-123431200D02*
X127202600Y-122650000D01*
X127202600Y-122650000D02*
X126837500Y-122650000D01*
%TO.N,/E3A*%
X125916900Y-141374200D02*
X128345500Y-138945600D01*
X128345500Y-138945600D02*
X128345500Y-123121500D01*
X128345500Y-123121500D02*
X127224000Y-122000000D01*
X127224000Y-122000000D02*
X126837500Y-122000000D01*
%TO.N,/E3B*%
X125312100Y-150720200D02*
X128707200Y-147325100D01*
X128707200Y-147325100D02*
X128707200Y-122828900D01*
X128707200Y-122828900D02*
X127228300Y-121350000D01*
X127228300Y-121350000D02*
X126837500Y-121350000D01*
%TO.N,/E4A*%
X126837500Y-120700000D02*
X127275400Y-120700000D01*
X127275400Y-120700000D02*
X129068900Y-122493500D01*
X129068900Y-122493500D02*
X129068900Y-150929400D01*
X129068900Y-150929400D02*
X126420900Y-153577400D01*
%TO.N,/E4B*%
X111981200Y-123990600D02*
X111375200Y-123990600D01*
X111375200Y-123990600D02*
X111981200Y-123990600D01*
X126613500Y-119405500D02*
X126613500Y-118864900D01*
X126613500Y-118864900D02*
X126613500Y-119405500D01*
X126613500Y-118864900D02*
X126613500Y-119826000D01*
X126613500Y-119826000D02*
X126837500Y-120050000D01*
X110500000Y-169900000D02*
X104198700Y-163598700D01*
X104198700Y-163598700D02*
X104198700Y-142278600D01*
X104198700Y-142278600D02*
X109939000Y-136538300D01*
X109939000Y-136538300D02*
X110453500Y-136538300D01*
X110453500Y-136538300D02*
X111803700Y-135188100D01*
X111803700Y-135188100D02*
X111803700Y-124419100D01*
X111803700Y-124419100D02*
X111375200Y-123990600D01*
%TO.N,/E5A*%
X121162500Y-176000000D02*
X120781700Y-176000000D01*
X120781700Y-176000000D02*
X119108600Y-177673100D01*
X119108600Y-177673100D02*
X119108600Y-183488300D01*
%TO.N,/E5B*%
X121162500Y-176650000D02*
X120773100Y-176650000D01*
X120773100Y-176650000D02*
X120008100Y-177415000D01*
X120008100Y-177415000D02*
X120008100Y-185162000D01*
X120008100Y-185162000D02*
X120810500Y-185964400D01*
%TO.N,/E1S*%
X110500000Y-102600000D02*
X122050000Y-114150000D01*
X122050000Y-114150000D02*
X122050000Y-119162500D01*
%TO.N,/E2S*%
X110500000Y-120200000D02*
X121012500Y-120200000D01*
X121012500Y-120200000D02*
X121162500Y-120050000D01*
%TO.N,/E3S*%
X121162500Y-120700000D02*
X120782100Y-120700000D01*
X120782100Y-120700000D02*
X115115000Y-126367100D01*
X115115000Y-126367100D02*
X115115000Y-133185000D01*
X115115000Y-133185000D02*
X110500000Y-137800000D01*
%TO.N,/E4S*%
X121162500Y-121350000D02*
X120793500Y-121350000D01*
X120793500Y-121350000D02*
X115832300Y-126311200D01*
X115832300Y-126311200D02*
X115832300Y-137554300D01*
X115832300Y-137554300D02*
X111922300Y-141464300D01*
X111922300Y-141464300D02*
X111922300Y-153977700D01*
X111922300Y-153977700D02*
X110500000Y-155400000D01*
%TO.N,/E5S*%
X120876200Y-179103400D02*
X120369800Y-178597000D01*
X120369800Y-178597000D02*
X120369800Y-177719500D01*
X120369800Y-177719500D02*
X120789300Y-177300000D01*
X120789300Y-177300000D02*
X121162500Y-177300000D01*
%TO.N,/K1*%
X116772900Y-190920200D02*
X116772900Y-178702800D01*
X116772900Y-178702800D02*
X120775700Y-174700000D01*
X120775700Y-174700000D02*
X121162500Y-174700000D01*
%TO.N,/K2*%
X121162500Y-175350000D02*
X120821900Y-175350000D01*
X120821900Y-175350000D02*
X118522700Y-177649200D01*
X118522700Y-177649200D02*
X118522700Y-195955900D01*
X118522700Y-195955900D02*
X120897900Y-198331100D01*
%TO.N,/X_E6A*%
X125950000Y-178837500D02*
X125950000Y-186017700D01*
X125950000Y-186017700D02*
X123912600Y-188055100D01*
X123912600Y-188055100D02*
X123912600Y-190790500D01*
X123912600Y-190790500D02*
X123474800Y-191228300D01*
X123474800Y-191228300D02*
X122770000Y-191228300D01*
X122770000Y-192340000D02*
X122770000Y-191228300D01*
%TO.N,/X_E6B*%
X126837500Y-177950000D02*
X126837500Y-189931100D01*
X126837500Y-189931100D02*
X125540300Y-191228300D01*
X125540300Y-191228300D02*
X125310000Y-191228300D01*
X125310000Y-192340000D02*
X125310000Y-191228300D01*
%TO.N,/X_E6S*%
X126837500Y-177300000D02*
X127252600Y-177300000D01*
X127252600Y-177300000D02*
X127623900Y-177671300D01*
X127623900Y-177671300D02*
X127623900Y-190712800D01*
X127623900Y-190712800D02*
X126587200Y-191749500D01*
%TO.N,/X_E7A*%
X126837500Y-176650000D02*
X127231700Y-176650000D01*
X127231700Y-176650000D02*
X127985600Y-177403900D01*
X127985600Y-177403900D02*
X127985600Y-191260500D01*
X127985600Y-191260500D02*
X125477800Y-193768300D01*
X125477800Y-193768300D02*
X125310000Y-193768300D01*
X125310000Y-194880000D02*
X125310000Y-193768300D01*
%TO.N,/X_E7B*%
X126837500Y-176000000D02*
X127224600Y-176000000D01*
X127224600Y-176000000D02*
X128347300Y-177122700D01*
X128347300Y-177122700D02*
X128347300Y-193421500D01*
X128347300Y-193421500D02*
X125618800Y-196150000D01*
X125618800Y-196150000D02*
X124921300Y-196150000D01*
X124921300Y-196150000D02*
X123881700Y-197189600D01*
X123881700Y-197189600D02*
X123881700Y-197420000D01*
X122770000Y-197420000D02*
X123881700Y-197420000D01*
%TO.N,/X_K1*%
X126837500Y-174700000D02*
X128205100Y-174700000D01*
X128205100Y-174700000D02*
X128719100Y-175214000D01*
X128719100Y-175214000D02*
X128719100Y-200651600D01*
X128719100Y-200651600D02*
X128086700Y-201284000D01*
X128086700Y-201284000D02*
X128086700Y-201356200D01*
X128086700Y-201356200D02*
X125831200Y-203611700D01*
X125831200Y-203611700D02*
X124812500Y-203611700D01*
X124812500Y-203611700D02*
X124198300Y-202997500D01*
X124198300Y-202997500D02*
X124198300Y-202269700D01*
X124198300Y-202269700D02*
X123000300Y-201071700D01*
X123000300Y-201071700D02*
X122770000Y-201071700D01*
X122770000Y-199960000D02*
X122770000Y-201071700D01*
%TO.N,/X_K2*%
X126837500Y-174050000D02*
X128126700Y-174050000D01*
X128126700Y-174050000D02*
X129104600Y-175027900D01*
X129104600Y-175027900D02*
X129104600Y-201060400D01*
X129104600Y-201060400D02*
X128648400Y-201516600D01*
%TO.N,/X_K3*%
X122770000Y-202500000D02*
X115849400Y-195579400D01*
X115849400Y-195579400D02*
X115849400Y-184512300D01*
X115849400Y-184512300D02*
X115971400Y-184390300D01*
X115971400Y-184390300D02*
X115971400Y-177009200D01*
X115971400Y-177009200D02*
X119818100Y-173162500D01*
X119818100Y-173162500D02*
X122050000Y-173162500D01*
%TO.N,/X_K4*%
X125310000Y-201388300D02*
X125079600Y-201388300D01*
X125079600Y-201388300D02*
X123912600Y-200221300D01*
X123912600Y-200221300D02*
X123912600Y-199516700D01*
X123912600Y-199516700D02*
X123237900Y-198842000D01*
X123237900Y-198842000D02*
X121465900Y-198842000D01*
X121465900Y-198842000D02*
X121393700Y-198914200D01*
X121393700Y-198914200D02*
X120670600Y-198914200D01*
X120670600Y-198914200D02*
X116211100Y-194454700D01*
X116211100Y-194454700D02*
X116211100Y-184662100D01*
X116211100Y-184662100D02*
X116333100Y-184540100D01*
X116333100Y-184540100D02*
X116333100Y-177195900D01*
X116333100Y-177195900D02*
X119479000Y-174050000D01*
X119479000Y-174050000D02*
X121162500Y-174050000D01*
X125310000Y-202500000D02*
X125310000Y-201388300D01*
%TO.N,/X_SP1*%
X115208300Y-199382700D02*
X112722000Y-196896400D01*
X112722000Y-196896400D02*
X112722000Y-182092100D01*
X112722000Y-182092100D02*
X112311900Y-181682000D01*
X112311900Y-181682000D02*
X112311900Y-142200000D01*
X112311900Y-142200000D02*
X116554200Y-137957700D01*
X116554200Y-137957700D02*
X116554200Y-126185100D01*
X116554200Y-126185100D02*
X120739300Y-122000000D01*
X120739300Y-122000000D02*
X121162500Y-122000000D01*
%TO.N,/X_SP2*%
X124198300Y-205040000D02*
X124198300Y-205317900D01*
X124198300Y-205317900D02*
X123360000Y-206156200D01*
X123360000Y-206156200D02*
X122310600Y-206156200D01*
X122310600Y-206156200D02*
X115770000Y-199615600D01*
X115770000Y-199615600D02*
X115770000Y-199150000D01*
X115770000Y-199150000D02*
X114848000Y-198228000D01*
X114848000Y-198228000D02*
X114848000Y-183925000D01*
X114848000Y-183925000D02*
X114968500Y-183804500D01*
X114968500Y-183804500D02*
X114968500Y-141597500D01*
X114968500Y-141597500D02*
X120362100Y-136203900D01*
X120362100Y-136203900D02*
X120362100Y-123075200D01*
X120362100Y-123075200D02*
X120787300Y-122650000D01*
X120787300Y-122650000D02*
X121162500Y-122650000D01*
X125310000Y-205040000D02*
X124198300Y-205040000D01*
%TD*%
%TA.AperFunction,Conductor*%
%TO.N,GND*%
G36*
X129458691Y-100519407D02*
G01*
X129494655Y-100568907D01*
X129499500Y-100599500D01*
X129499500Y-122118699D01*
X129480593Y-122176890D01*
X129431093Y-122212854D01*
X129369907Y-122212854D01*
X129330496Y-122188703D01*
X128908011Y-121766218D01*
X128880234Y-121711701D01*
X128889805Y-121651269D01*
X128928516Y-121610477D01*
X128928607Y-121610424D01*
X128944915Y-121601009D01*
X129047409Y-121498515D01*
X129119884Y-121372985D01*
X129157400Y-121232975D01*
X129157400Y-121088025D01*
X129119884Y-120948015D01*
X129119882Y-120948012D01*
X129119882Y-120948010D01*
X129047412Y-120822489D01*
X129047407Y-120822483D01*
X129036394Y-120811469D01*
X129008618Y-120756952D01*
X129007400Y-120741468D01*
X129007400Y-120023214D01*
X129007401Y-120023201D01*
X129007401Y-119909772D01*
X129007400Y-119909770D01*
X128995772Y-119866375D01*
X128980107Y-119807913D01*
X128963245Y-119778707D01*
X128963245Y-119778706D01*
X128935755Y-119731093D01*
X128927380Y-119716587D01*
X128852813Y-119642020D01*
X128852810Y-119642018D01*
X127174013Y-117963220D01*
X127174010Y-117963218D01*
X127174008Y-117963216D01*
X127082691Y-117910494D01*
X127082693Y-117910494D01*
X127043170Y-117899904D01*
X126980827Y-117883200D01*
X126980825Y-117883200D01*
X126458906Y-117883200D01*
X126458890Y-117883199D01*
X126452827Y-117883199D01*
X126347374Y-117883199D01*
X126245513Y-117910493D01*
X126245511Y-117910493D01*
X126245507Y-117910495D01*
X126154187Y-117963219D01*
X126079619Y-118037786D01*
X126079620Y-118037787D01*
X126079618Y-118037789D01*
X126079617Y-118037789D01*
X125760247Y-118357158D01*
X125733724Y-118376095D01*
X125668479Y-118407991D01*
X125607897Y-118416562D01*
X125581519Y-118407991D01*
X125483628Y-118360135D01*
X125483626Y-118360134D01*
X125465377Y-118357475D01*
X125410636Y-118349500D01*
X125189364Y-118349500D01*
X125189360Y-118349500D01*
X125163770Y-118353228D01*
X125103462Y-118342906D01*
X125060738Y-118299107D01*
X125050500Y-118255262D01*
X125050500Y-117662074D01*
X125050500Y-117662073D01*
X125023207Y-117560213D01*
X125023207Y-117560212D01*
X125023207Y-117560211D01*
X124970483Y-117468891D01*
X124970482Y-117468890D01*
X124970481Y-117468889D01*
X124970480Y-117468887D01*
X124115896Y-116614303D01*
X124088119Y-116559786D01*
X124086900Y-116544299D01*
X124086900Y-116528725D01*
X124057334Y-116418386D01*
X124049384Y-116388715D01*
X124049382Y-116388712D01*
X124049382Y-116388710D01*
X123976912Y-116263189D01*
X123976907Y-116263183D01*
X123965894Y-116252169D01*
X123938118Y-116197652D01*
X123936900Y-116182168D01*
X123936900Y-115033674D01*
X123936900Y-115033673D01*
X123909607Y-114931813D01*
X123863762Y-114852407D01*
X123850500Y-114802910D01*
X123850500Y-114081899D01*
X123850499Y-114081893D01*
X123839877Y-113993436D01*
X123784361Y-113852658D01*
X123692922Y-113732078D01*
X123572342Y-113640639D01*
X123572341Y-113640638D01*
X123572339Y-113640637D01*
X123431565Y-113585123D01*
X123343106Y-113574500D01*
X123343102Y-113574500D01*
X122756898Y-113574500D01*
X122756893Y-113574500D01*
X122668434Y-113585123D01*
X122527660Y-113640637D01*
X122527656Y-113640640D01*
X122407075Y-113732079D01*
X122407075Y-113732080D01*
X122385713Y-113760250D01*
X122335486Y-113795192D01*
X122274314Y-113793938D01*
X122236826Y-113770434D01*
X111708956Y-103242563D01*
X111681179Y-103188046D01*
X111690749Y-103127618D01*
X111705220Y-103099219D01*
X111768477Y-102904534D01*
X111800500Y-102702352D01*
X111800500Y-102497648D01*
X111800500Y-102497644D01*
X111768478Y-102295470D01*
X111768477Y-102295466D01*
X111705220Y-102100781D01*
X111612287Y-101918390D01*
X111612285Y-101918386D01*
X111491970Y-101752786D01*
X111491968Y-101752784D01*
X111491966Y-101752781D01*
X111347219Y-101608034D01*
X111347215Y-101608031D01*
X111347213Y-101608029D01*
X111181613Y-101487714D01*
X111181609Y-101487712D01*
X110999219Y-101394780D01*
X110804529Y-101331521D01*
X110602355Y-101299500D01*
X110602352Y-101299500D01*
X110397648Y-101299500D01*
X110397645Y-101299500D01*
X110195470Y-101331521D01*
X110000780Y-101394780D01*
X109818390Y-101487712D01*
X109818386Y-101487714D01*
X109652786Y-101608029D01*
X109508029Y-101752786D01*
X109387714Y-101918386D01*
X109387712Y-101918390D01*
X109294780Y-102100780D01*
X109231521Y-102295470D01*
X109199500Y-102497644D01*
X109199500Y-102702355D01*
X109231521Y-102904529D01*
X109294780Y-103099219D01*
X109387712Y-103281609D01*
X109387714Y-103281613D01*
X109508029Y-103447213D01*
X109508031Y-103447215D01*
X109508034Y-103447219D01*
X109652781Y-103591966D01*
X109652784Y-103591968D01*
X109652786Y-103591970D01*
X109818386Y-103712285D01*
X109818390Y-103712287D01*
X110000781Y-103805220D01*
X110195466Y-103868477D01*
X110195467Y-103868477D01*
X110195470Y-103868478D01*
X110397645Y-103900500D01*
X110397648Y-103900500D01*
X110602355Y-103900500D01*
X110804529Y-103868478D01*
X110804530Y-103868477D01*
X110804534Y-103868477D01*
X110999219Y-103805220D01*
X111027614Y-103790751D01*
X111088042Y-103781178D01*
X111142560Y-103808954D01*
X111142563Y-103808956D01*
X121620504Y-114286896D01*
X121648281Y-114341413D01*
X121649500Y-114356900D01*
X121649500Y-118512945D01*
X121639441Y-118556425D01*
X121610135Y-118616371D01*
X121610134Y-118616373D01*
X121599500Y-118689367D01*
X121599500Y-119500500D01*
X121580593Y-119558691D01*
X121531093Y-119594655D01*
X121500500Y-119599500D01*
X120689364Y-119599500D01*
X120645570Y-119605880D01*
X120616373Y-119610134D01*
X120503790Y-119665173D01*
X120415169Y-119753794D01*
X120412146Y-119758029D01*
X120362944Y-119794400D01*
X120331577Y-119799500D01*
X111809224Y-119799500D01*
X111751033Y-119780593D01*
X111715070Y-119731093D01*
X111705224Y-119700791D01*
X111705221Y-119700786D01*
X111705220Y-119700781D01*
X111612287Y-119518390D01*
X111612285Y-119518386D01*
X111491970Y-119352786D01*
X111491968Y-119352784D01*
X111491966Y-119352781D01*
X111347219Y-119208034D01*
X111347215Y-119208031D01*
X111347213Y-119208029D01*
X111181613Y-119087714D01*
X111181609Y-119087712D01*
X110999219Y-118994780D01*
X110804529Y-118931521D01*
X110602355Y-118899500D01*
X110602352Y-118899500D01*
X110397648Y-118899500D01*
X110397645Y-118899500D01*
X110195470Y-118931521D01*
X110000780Y-118994780D01*
X109818390Y-119087712D01*
X109818386Y-119087714D01*
X109652786Y-119208029D01*
X109508029Y-119352786D01*
X109387714Y-119518386D01*
X109387712Y-119518390D01*
X109294780Y-119700780D01*
X109231521Y-119895470D01*
X109199500Y-120097644D01*
X109199500Y-120302355D01*
X109231521Y-120504529D01*
X109294780Y-120699219D01*
X109387712Y-120881609D01*
X109387714Y-120881613D01*
X109508029Y-121047213D01*
X109508031Y-121047215D01*
X109508034Y-121047219D01*
X109652781Y-121191966D01*
X109652784Y-121191968D01*
X109652786Y-121191970D01*
X109818386Y-121312285D01*
X109818390Y-121312287D01*
X110000781Y-121405220D01*
X110195466Y-121468477D01*
X110195467Y-121468477D01*
X110195470Y-121468478D01*
X110397645Y-121500500D01*
X110397648Y-121500500D01*
X110602355Y-121500500D01*
X110804529Y-121468478D01*
X110804530Y-121468477D01*
X110804534Y-121468477D01*
X110999219Y-121405220D01*
X111181610Y-121312287D01*
X111347219Y-121191966D01*
X111491966Y-121047219D01*
X111612287Y-120881610D01*
X111705220Y-120699219D01*
X111705224Y-120699208D01*
X111715070Y-120668907D01*
X111751034Y-120619407D01*
X111809224Y-120600500D01*
X120076200Y-120600500D01*
X120134391Y-120619407D01*
X120170355Y-120668907D01*
X120170355Y-120730093D01*
X120146204Y-120769504D01*
X115069503Y-125846203D01*
X115014986Y-125873980D01*
X114954554Y-125864409D01*
X114911289Y-125821144D01*
X114900499Y-125776199D01*
X114900499Y-125555139D01*
X114900499Y-125555136D01*
X114897585Y-125530009D01*
X114852206Y-125427235D01*
X114772765Y-125347794D01*
X114669991Y-125302415D01*
X114669990Y-125302414D01*
X114669988Y-125302414D01*
X114644868Y-125299500D01*
X112555139Y-125299500D01*
X112555136Y-125299501D01*
X112530009Y-125302414D01*
X112435791Y-125344016D01*
X112427235Y-125347794D01*
X112373201Y-125401827D01*
X112318687Y-125429603D01*
X112258255Y-125420032D01*
X112214990Y-125376767D01*
X112204200Y-125331822D01*
X112204200Y-124479813D01*
X112204200Y-124471829D01*
X112204201Y-124471827D01*
X112204201Y-124374998D01*
X112223108Y-124316809D01*
X112223108Y-124316808D01*
X112233191Y-124305001D01*
X112301680Y-124236513D01*
X112354407Y-124145187D01*
X112381700Y-124043327D01*
X112381700Y-123937873D01*
X112354407Y-123836013D01*
X112301680Y-123744687D01*
X112227113Y-123670120D01*
X112224274Y-123668481D01*
X112135789Y-123617394D01*
X112135788Y-123617393D01*
X112135787Y-123617393D01*
X112033927Y-123590100D01*
X112033925Y-123590100D01*
X111794231Y-123590100D01*
X111736040Y-123571193D01*
X111724233Y-123561109D01*
X111713215Y-123550091D01*
X111713212Y-123550089D01*
X111713210Y-123550087D01*
X111587688Y-123477617D01*
X111587689Y-123477617D01*
X111558096Y-123469687D01*
X111447675Y-123440100D01*
X111302725Y-123440100D01*
X111240990Y-123456641D01*
X111162710Y-123477617D01*
X111037189Y-123550087D01*
X110934687Y-123652589D01*
X110862217Y-123778110D01*
X110824700Y-123918125D01*
X110824700Y-124063074D01*
X110862217Y-124203089D01*
X110934687Y-124328610D01*
X110934689Y-124328612D01*
X110934691Y-124328615D01*
X111037185Y-124431109D01*
X111037187Y-124431110D01*
X111037189Y-124431112D01*
X111162711Y-124503582D01*
X111162712Y-124503582D01*
X111162715Y-124503584D01*
X111302725Y-124541100D01*
X111304200Y-124541100D01*
X111305205Y-124541426D01*
X111309158Y-124541947D01*
X111309061Y-124542679D01*
X111362391Y-124560007D01*
X111398355Y-124609507D01*
X111403200Y-124640100D01*
X111403200Y-133554408D01*
X111384293Y-133612599D01*
X111334793Y-133648563D01*
X111273607Y-133648563D01*
X111246010Y-133634501D01*
X111181613Y-133587715D01*
X111181609Y-133587712D01*
X110999219Y-133494780D01*
X110804529Y-133431521D01*
X110602355Y-133399500D01*
X110602352Y-133399500D01*
X110397648Y-133399500D01*
X110397645Y-133399500D01*
X110195470Y-133431521D01*
X110000780Y-133494780D01*
X109818390Y-133587712D01*
X109818386Y-133587714D01*
X109652786Y-133708029D01*
X109508029Y-133852786D01*
X109387714Y-134018386D01*
X109387712Y-134018390D01*
X109294780Y-134200780D01*
X109231521Y-134395470D01*
X109199500Y-134597644D01*
X109199500Y-134802355D01*
X109231521Y-135004529D01*
X109294780Y-135199219D01*
X109387712Y-135381609D01*
X109387714Y-135381613D01*
X109508029Y-135547213D01*
X109508031Y-135547215D01*
X109508034Y-135547219D01*
X109652781Y-135691966D01*
X109652784Y-135691968D01*
X109652786Y-135691970D01*
X109818386Y-135812285D01*
X109818390Y-135812287D01*
X110000781Y-135905220D01*
X110122119Y-135944645D01*
X110171619Y-135980609D01*
X110190526Y-136038800D01*
X110171619Y-136096991D01*
X110122119Y-136132955D01*
X110091526Y-136137800D01*
X109991727Y-136137800D01*
X109886273Y-136137800D01*
X109823929Y-136154504D01*
X109784407Y-136165094D01*
X109693091Y-136217816D01*
X103878216Y-142032691D01*
X103825495Y-142124006D01*
X103806149Y-142196207D01*
X103798200Y-142225873D01*
X103798200Y-142934222D01*
X103779293Y-142992413D01*
X103729793Y-143028377D01*
X103668607Y-143028377D01*
X103629198Y-143004227D01*
X103572765Y-142947794D01*
X103469991Y-142902415D01*
X103469990Y-142902414D01*
X103469988Y-142902414D01*
X103444868Y-142899500D01*
X101355139Y-142899500D01*
X101355136Y-142899501D01*
X101330009Y-142902414D01*
X101227235Y-142947794D01*
X101147794Y-143027235D01*
X101102414Y-143130011D01*
X101099500Y-143155130D01*
X101099500Y-146444860D01*
X101099501Y-146444863D01*
X101102414Y-146469990D01*
X101108567Y-146483924D01*
X101147794Y-146572765D01*
X101227235Y-146652206D01*
X101330009Y-146697585D01*
X101355135Y-146700500D01*
X103444864Y-146700499D01*
X103469991Y-146697585D01*
X103572765Y-146652206D01*
X103629198Y-146595772D01*
X103683713Y-146567997D01*
X103744145Y-146577568D01*
X103787410Y-146620833D01*
X103798200Y-146665778D01*
X103798200Y-160534222D01*
X103779293Y-160592413D01*
X103729793Y-160628377D01*
X103668607Y-160628377D01*
X103629198Y-160604227D01*
X103572765Y-160547794D01*
X103469991Y-160502415D01*
X103469990Y-160502414D01*
X103469988Y-160502414D01*
X103444868Y-160499500D01*
X101355139Y-160499500D01*
X101355136Y-160499501D01*
X101330009Y-160502414D01*
X101227235Y-160547794D01*
X101147794Y-160627235D01*
X101102414Y-160730011D01*
X101099500Y-160755130D01*
X101099500Y-164044860D01*
X101099501Y-164044863D01*
X101102414Y-164069990D01*
X101127756Y-164127385D01*
X101147794Y-164172765D01*
X101227235Y-164252206D01*
X101330009Y-164297585D01*
X101355135Y-164300500D01*
X103444864Y-164300499D01*
X103469991Y-164297585D01*
X103572765Y-164252206D01*
X103652206Y-164172765D01*
X103697585Y-164069991D01*
X103700500Y-164044865D01*
X103700499Y-163904646D01*
X103719406Y-163846458D01*
X103768906Y-163810494D01*
X103830091Y-163810493D01*
X103872906Y-163840749D01*
X103873632Y-163840024D01*
X103877850Y-163844242D01*
X103878035Y-163844373D01*
X103878213Y-163844605D01*
X103878218Y-163844610D01*
X103878220Y-163844613D01*
X106677271Y-166643664D01*
X109291042Y-169257435D01*
X109318819Y-169311952D01*
X109309249Y-169372382D01*
X109294780Y-169400779D01*
X109231521Y-169595470D01*
X109199500Y-169797644D01*
X109199500Y-170002355D01*
X109231521Y-170204529D01*
X109294780Y-170399219D01*
X109387712Y-170581609D01*
X109387714Y-170581613D01*
X109508029Y-170747213D01*
X109508031Y-170747215D01*
X109508034Y-170747219D01*
X109652781Y-170891966D01*
X109652784Y-170891968D01*
X109652786Y-170891970D01*
X109818386Y-171012285D01*
X109818390Y-171012287D01*
X110000781Y-171105220D01*
X110195466Y-171168477D01*
X110195467Y-171168477D01*
X110195470Y-171168478D01*
X110397645Y-171200500D01*
X110397648Y-171200500D01*
X110602355Y-171200500D01*
X110804529Y-171168478D01*
X110804530Y-171168477D01*
X110804534Y-171168477D01*
X110999219Y-171105220D01*
X111181610Y-171012287D01*
X111347219Y-170891966D01*
X111491966Y-170747219D01*
X111612287Y-170581610D01*
X111705220Y-170399219D01*
X111718245Y-170359131D01*
X111754209Y-170309632D01*
X111812399Y-170290724D01*
X111870590Y-170309631D01*
X111906554Y-170359131D01*
X111911400Y-170389724D01*
X111911400Y-172510275D01*
X111892493Y-172568466D01*
X111842993Y-172604430D01*
X111781807Y-172604430D01*
X111732307Y-172568466D01*
X111718245Y-172540868D01*
X111705220Y-172500781D01*
X111612287Y-172318390D01*
X111612285Y-172318386D01*
X111491970Y-172152786D01*
X111491968Y-172152784D01*
X111491966Y-172152781D01*
X111347219Y-172008034D01*
X111347215Y-172008031D01*
X111347213Y-172008029D01*
X111181613Y-171887714D01*
X111181609Y-171887712D01*
X110999219Y-171794780D01*
X110804529Y-171731521D01*
X110602355Y-171699500D01*
X110602352Y-171699500D01*
X110397648Y-171699500D01*
X110397645Y-171699500D01*
X110195470Y-171731521D01*
X110000780Y-171794780D01*
X109818390Y-171887712D01*
X109818386Y-171887714D01*
X109652786Y-172008029D01*
X109508029Y-172152786D01*
X109387714Y-172318386D01*
X109387712Y-172318390D01*
X109294780Y-172500780D01*
X109231521Y-172695470D01*
X109199500Y-172897644D01*
X109199500Y-173102355D01*
X109231521Y-173304529D01*
X109294780Y-173499219D01*
X109387712Y-173681609D01*
X109387714Y-173681613D01*
X109508029Y-173847213D01*
X109508031Y-173847215D01*
X109508034Y-173847219D01*
X109652781Y-173991966D01*
X109652784Y-173991968D01*
X109652786Y-173991970D01*
X109818386Y-174112285D01*
X109818390Y-174112287D01*
X110000781Y-174205220D01*
X110195466Y-174268477D01*
X110195467Y-174268477D01*
X110195470Y-174268478D01*
X110397645Y-174300500D01*
X110397648Y-174300500D01*
X110602355Y-174300500D01*
X110804529Y-174268478D01*
X110804530Y-174268477D01*
X110804534Y-174268477D01*
X110999219Y-174205220D01*
X111181610Y-174112287D01*
X111347219Y-173991966D01*
X111491966Y-173847219D01*
X111612287Y-173681610D01*
X111705220Y-173499219D01*
X111718245Y-173459131D01*
X111754209Y-173409632D01*
X111812399Y-173390724D01*
X111870590Y-173409631D01*
X111906554Y-173459131D01*
X111911400Y-173489724D01*
X111911400Y-181629273D01*
X111911400Y-181734727D01*
X111921592Y-181772764D01*
X111938694Y-181836592D01*
X111991416Y-181927908D01*
X111991418Y-181927910D01*
X111991420Y-181927913D01*
X112292505Y-182228998D01*
X112320281Y-182283513D01*
X112321500Y-182299000D01*
X112321500Y-190743308D01*
X112302593Y-190801499D01*
X112253093Y-190837463D01*
X112191907Y-190837463D01*
X112152498Y-190813313D01*
X112097219Y-190758034D01*
X112097215Y-190758031D01*
X112097213Y-190758029D01*
X111931613Y-190637714D01*
X111931609Y-190637712D01*
X111749219Y-190544780D01*
X111554529Y-190481521D01*
X111352355Y-190449500D01*
X111352352Y-190449500D01*
X111147648Y-190449500D01*
X111147645Y-190449500D01*
X110945470Y-190481521D01*
X110750780Y-190544780D01*
X110568390Y-190637712D01*
X110568386Y-190637714D01*
X110402786Y-190758029D01*
X110258029Y-190902786D01*
X110137714Y-191068386D01*
X110137712Y-191068390D01*
X110044780Y-191250780D01*
X109981521Y-191445470D01*
X109949500Y-191647644D01*
X109949500Y-191852355D01*
X109981521Y-192054529D01*
X110044780Y-192249219D01*
X110137712Y-192431609D01*
X110137714Y-192431613D01*
X110258029Y-192597213D01*
X110258031Y-192597215D01*
X110258034Y-192597219D01*
X110402781Y-192741966D01*
X110402784Y-192741968D01*
X110402786Y-192741970D01*
X110568386Y-192862285D01*
X110568390Y-192862287D01*
X110750781Y-192955220D01*
X110945466Y-193018477D01*
X110945467Y-193018477D01*
X110945470Y-193018478D01*
X111147645Y-193050500D01*
X111147648Y-193050500D01*
X111352355Y-193050500D01*
X111554529Y-193018478D01*
X111554530Y-193018477D01*
X111554534Y-193018477D01*
X111749219Y-192955220D01*
X111931610Y-192862287D01*
X112097219Y-192741966D01*
X112152498Y-192686686D01*
X112207013Y-192658911D01*
X112267445Y-192668482D01*
X112310710Y-192711747D01*
X112321500Y-192756692D01*
X112321500Y-196843673D01*
X112321500Y-196949127D01*
X112345570Y-197038959D01*
X112348794Y-197050992D01*
X112401516Y-197142308D01*
X112401518Y-197142310D01*
X112401520Y-197142313D01*
X114628805Y-199369598D01*
X114656581Y-199424113D01*
X114657800Y-199439600D01*
X114657800Y-199455175D01*
X114664860Y-199481523D01*
X114695317Y-199595189D01*
X114767787Y-199720710D01*
X114767789Y-199720712D01*
X114767791Y-199720715D01*
X114870285Y-199823209D01*
X114870287Y-199823210D01*
X114870289Y-199823212D01*
X114995811Y-199895682D01*
X114995812Y-199895682D01*
X114995815Y-199895684D01*
X115135825Y-199933200D01*
X115135826Y-199933200D01*
X115280776Y-199933200D01*
X115280776Y-199933199D01*
X115415186Y-199897184D01*
X115476287Y-199900385D01*
X115510813Y-199922806D01*
X122064687Y-206476680D01*
X122064689Y-206476681D01*
X122064690Y-206476682D01*
X122064691Y-206476683D01*
X122156008Y-206529405D01*
X122156006Y-206529405D01*
X122156010Y-206529406D01*
X122156012Y-206529407D01*
X122257873Y-206556700D01*
X122257875Y-206556700D01*
X123412725Y-206556700D01*
X123412727Y-206556700D01*
X123514588Y-206529407D01*
X123514590Y-206529405D01*
X123514592Y-206529405D01*
X123605908Y-206476683D01*
X123605908Y-206476682D01*
X123605913Y-206476680D01*
X124292767Y-205789824D01*
X124347282Y-205762049D01*
X124407714Y-205771620D01*
X124432769Y-205789823D01*
X124560499Y-205917553D01*
X124707006Y-206023996D01*
X124868361Y-206106211D01*
X125040591Y-206162171D01*
X125112136Y-206173502D01*
X125219451Y-206190500D01*
X125219454Y-206190500D01*
X125400549Y-206190500D01*
X125489977Y-206176335D01*
X125579409Y-206162171D01*
X125751639Y-206106211D01*
X125912994Y-206023996D01*
X126059501Y-205917553D01*
X126187553Y-205789501D01*
X126293996Y-205642994D01*
X126376211Y-205481639D01*
X126432171Y-205309409D01*
X126460500Y-205130546D01*
X126460500Y-204949454D01*
X126460500Y-204949450D01*
X126433421Y-204778485D01*
X126432171Y-204770591D01*
X126376211Y-204598361D01*
X126293996Y-204437006D01*
X126187553Y-204290499D01*
X126059501Y-204162447D01*
X126014031Y-204129411D01*
X125978067Y-204079911D01*
X125978068Y-204018726D01*
X126014032Y-203969226D01*
X126022708Y-203963590D01*
X126077113Y-203932180D01*
X128111280Y-201898010D01*
X128165797Y-201870234D01*
X128226229Y-201879805D01*
X128251284Y-201898008D01*
X128310385Y-201957109D01*
X128310387Y-201957110D01*
X128310389Y-201957112D01*
X128435911Y-202029582D01*
X128435912Y-202029582D01*
X128435915Y-202029584D01*
X128575925Y-202067100D01*
X128575926Y-202067100D01*
X128720874Y-202067100D01*
X128720875Y-202067100D01*
X128860885Y-202029584D01*
X128860887Y-202029582D01*
X128860889Y-202029582D01*
X128986410Y-201957112D01*
X128986410Y-201957111D01*
X128986415Y-201957109D01*
X129088909Y-201854615D01*
X129140645Y-201765006D01*
X129161382Y-201729089D01*
X129161382Y-201729087D01*
X129161384Y-201729085D01*
X129198900Y-201589075D01*
X129198900Y-201573500D01*
X129201368Y-201565902D01*
X129200119Y-201558013D01*
X129210643Y-201537357D01*
X129217807Y-201515309D01*
X129227890Y-201503502D01*
X129330498Y-201400894D01*
X129385013Y-201373119D01*
X129445445Y-201382690D01*
X129488710Y-201425955D01*
X129499500Y-201470900D01*
X129499500Y-209400500D01*
X129480593Y-209458691D01*
X129431093Y-209494655D01*
X129400500Y-209499500D01*
X100599500Y-209499500D01*
X100541309Y-209480593D01*
X100505345Y-209431093D01*
X100500500Y-209400500D01*
X100500500Y-200647644D01*
X103449500Y-200647644D01*
X103449500Y-200852355D01*
X103481521Y-201054529D01*
X103544780Y-201249219D01*
X103637712Y-201431609D01*
X103637714Y-201431613D01*
X103758029Y-201597213D01*
X103758031Y-201597215D01*
X103758034Y-201597219D01*
X103902781Y-201741966D01*
X103902784Y-201741968D01*
X103902786Y-201741970D01*
X104068386Y-201862285D01*
X104068390Y-201862287D01*
X104250781Y-201955220D01*
X104445466Y-202018477D01*
X104445467Y-202018477D01*
X104445470Y-202018478D01*
X104647645Y-202050500D01*
X104647648Y-202050500D01*
X104852355Y-202050500D01*
X105054529Y-202018478D01*
X105054530Y-202018477D01*
X105054534Y-202018477D01*
X105249219Y-201955220D01*
X105431610Y-201862287D01*
X105597219Y-201741966D01*
X105741966Y-201597219D01*
X105862287Y-201431610D01*
X105955220Y-201249219D01*
X106018477Y-201054534D01*
X106020846Y-201039577D01*
X106050500Y-200852355D01*
X106050500Y-200647644D01*
X109949500Y-200647644D01*
X109949500Y-200852355D01*
X109981521Y-201054529D01*
X110044780Y-201249219D01*
X110137712Y-201431609D01*
X110137714Y-201431613D01*
X110258029Y-201597213D01*
X110258031Y-201597215D01*
X110258034Y-201597219D01*
X110402781Y-201741966D01*
X110402784Y-201741968D01*
X110402786Y-201741970D01*
X110568386Y-201862285D01*
X110568390Y-201862287D01*
X110750781Y-201955220D01*
X110945466Y-202018477D01*
X110945467Y-202018477D01*
X110945470Y-202018478D01*
X111147645Y-202050500D01*
X111147648Y-202050500D01*
X111352355Y-202050500D01*
X111554529Y-202018478D01*
X111554530Y-202018477D01*
X111554534Y-202018477D01*
X111749219Y-201955220D01*
X111931610Y-201862287D01*
X112097219Y-201741966D01*
X112241966Y-201597219D01*
X112362287Y-201431610D01*
X112455220Y-201249219D01*
X112518477Y-201054534D01*
X112520846Y-201039577D01*
X112550500Y-200852355D01*
X112550500Y-200647644D01*
X112518478Y-200445470D01*
X112518477Y-200445466D01*
X112455220Y-200250781D01*
X112362287Y-200068390D01*
X112362285Y-200068386D01*
X112241970Y-199902786D01*
X112241968Y-199902784D01*
X112241966Y-199902781D01*
X112097219Y-199758034D01*
X112097215Y-199758031D01*
X112097213Y-199758029D01*
X111931613Y-199637714D01*
X111931609Y-199637712D01*
X111749219Y-199544780D01*
X111554529Y-199481521D01*
X111352355Y-199449500D01*
X111352352Y-199449500D01*
X111147648Y-199449500D01*
X111147645Y-199449500D01*
X110945470Y-199481521D01*
X110750780Y-199544780D01*
X110568390Y-199637712D01*
X110568386Y-199637714D01*
X110402786Y-199758029D01*
X110258029Y-199902786D01*
X110137714Y-200068386D01*
X110137712Y-200068390D01*
X110044780Y-200250780D01*
X109981521Y-200445470D01*
X109949500Y-200647644D01*
X106050500Y-200647644D01*
X106018478Y-200445470D01*
X106018477Y-200445466D01*
X105955220Y-200250781D01*
X105862287Y-200068390D01*
X105862285Y-200068386D01*
X105741970Y-199902786D01*
X105741968Y-199902784D01*
X105741966Y-199902781D01*
X105597219Y-199758034D01*
X105597215Y-199758031D01*
X105597213Y-199758029D01*
X105431613Y-199637714D01*
X105431609Y-199637712D01*
X105249219Y-199544780D01*
X105054529Y-199481521D01*
X104852355Y-199449500D01*
X104852352Y-199449500D01*
X104647648Y-199449500D01*
X104647645Y-199449500D01*
X104445470Y-199481521D01*
X104250780Y-199544780D01*
X104068390Y-199637712D01*
X104068386Y-199637714D01*
X103902786Y-199758029D01*
X103758029Y-199902786D01*
X103637714Y-200068386D01*
X103637712Y-200068390D01*
X103544780Y-200250780D01*
X103481521Y-200445470D01*
X103449500Y-200647644D01*
X100500500Y-200647644D01*
X100500500Y-191647644D01*
X103449500Y-191647644D01*
X103449500Y-191852355D01*
X103481521Y-192054529D01*
X103544780Y-192249219D01*
X103637712Y-192431609D01*
X103637714Y-192431613D01*
X103758029Y-192597213D01*
X103758031Y-192597215D01*
X103758034Y-192597219D01*
X103902781Y-192741966D01*
X103902784Y-192741968D01*
X103902786Y-192741970D01*
X104068386Y-192862285D01*
X104068390Y-192862287D01*
X104250781Y-192955220D01*
X104445466Y-193018477D01*
X104445467Y-193018477D01*
X104445470Y-193018478D01*
X104647645Y-193050500D01*
X104647648Y-193050500D01*
X104852355Y-193050500D01*
X105054529Y-193018478D01*
X105054530Y-193018477D01*
X105054534Y-193018477D01*
X105249219Y-192955220D01*
X105431610Y-192862287D01*
X105597219Y-192741966D01*
X105741966Y-192597219D01*
X105862287Y-192431610D01*
X105955220Y-192249219D01*
X106018477Y-192054534D01*
X106026019Y-192006919D01*
X106050500Y-191852355D01*
X106050500Y-191647644D01*
X106018478Y-191445470D01*
X106014486Y-191433184D01*
X105955220Y-191250781D01*
X105862287Y-191068390D01*
X105862285Y-191068386D01*
X105741970Y-190902786D01*
X105741968Y-190902784D01*
X105741966Y-190902781D01*
X105597219Y-190758034D01*
X105597215Y-190758031D01*
X105597213Y-190758029D01*
X105431613Y-190637714D01*
X105431609Y-190637712D01*
X105249219Y-190544780D01*
X105054529Y-190481521D01*
X104852355Y-190449500D01*
X104852352Y-190449500D01*
X104647648Y-190449500D01*
X104647645Y-190449500D01*
X104445470Y-190481521D01*
X104250780Y-190544780D01*
X104068390Y-190637712D01*
X104068386Y-190637714D01*
X103902786Y-190758029D01*
X103758029Y-190902786D01*
X103637714Y-191068386D01*
X103637712Y-191068390D01*
X103544780Y-191250780D01*
X103481521Y-191445470D01*
X103449500Y-191647644D01*
X100500500Y-191647644D01*
X100500500Y-186455130D01*
X104199500Y-186455130D01*
X104199500Y-188544860D01*
X104199501Y-188544863D01*
X104202414Y-188569990D01*
X104221090Y-188612287D01*
X104247794Y-188672765D01*
X104327235Y-188752206D01*
X104430009Y-188797585D01*
X104455135Y-188800500D01*
X106544864Y-188800499D01*
X106569991Y-188797585D01*
X106672765Y-188752206D01*
X106752206Y-188672765D01*
X106797585Y-188569991D01*
X106800500Y-188544865D01*
X106800499Y-187397644D01*
X109199500Y-187397644D01*
X109199500Y-187602355D01*
X109231521Y-187804529D01*
X109294780Y-187999219D01*
X109387712Y-188181609D01*
X109387714Y-188181613D01*
X109508029Y-188347213D01*
X109508031Y-188347215D01*
X109508034Y-188347219D01*
X109652781Y-188491966D01*
X109652784Y-188491968D01*
X109652786Y-188491970D01*
X109818386Y-188612285D01*
X109818390Y-188612287D01*
X110000781Y-188705220D01*
X110195466Y-188768477D01*
X110195467Y-188768477D01*
X110195470Y-188768478D01*
X110397645Y-188800500D01*
X110397648Y-188800500D01*
X110602355Y-188800500D01*
X110804529Y-188768478D01*
X110804530Y-188768477D01*
X110804534Y-188768477D01*
X110999219Y-188705220D01*
X111181610Y-188612287D01*
X111347219Y-188491966D01*
X111491966Y-188347219D01*
X111612287Y-188181610D01*
X111705220Y-187999219D01*
X111768477Y-187804534D01*
X111800500Y-187602352D01*
X111800500Y-187397648D01*
X111800500Y-187397644D01*
X111768478Y-187195470D01*
X111768477Y-187195466D01*
X111705220Y-187000781D01*
X111612287Y-186818390D01*
X111612285Y-186818386D01*
X111491970Y-186652786D01*
X111491968Y-186652784D01*
X111491966Y-186652781D01*
X111347219Y-186508034D01*
X111347215Y-186508031D01*
X111347213Y-186508029D01*
X111181613Y-186387714D01*
X111181609Y-186387712D01*
X110999219Y-186294780D01*
X110804529Y-186231521D01*
X110602355Y-186199500D01*
X110602352Y-186199500D01*
X110397648Y-186199500D01*
X110397645Y-186199500D01*
X110195470Y-186231521D01*
X110000780Y-186294780D01*
X109818390Y-186387712D01*
X109818386Y-186387714D01*
X109652786Y-186508029D01*
X109508029Y-186652786D01*
X109387714Y-186818386D01*
X109387712Y-186818390D01*
X109294780Y-187000780D01*
X109231521Y-187195470D01*
X109199500Y-187397644D01*
X106800499Y-187397644D01*
X106800499Y-186455136D01*
X106797585Y-186430009D01*
X106752206Y-186327235D01*
X106672765Y-186247794D01*
X106569991Y-186202415D01*
X106569990Y-186202414D01*
X106569988Y-186202414D01*
X106544868Y-186199500D01*
X104455139Y-186199500D01*
X104455136Y-186199501D01*
X104430009Y-186202414D01*
X104327235Y-186247794D01*
X104247794Y-186327235D01*
X104202414Y-186430011D01*
X104199500Y-186455130D01*
X100500500Y-186455130D01*
X100500500Y-178355130D01*
X101099500Y-178355130D01*
X101099500Y-181644860D01*
X101099501Y-181644863D01*
X101102414Y-181669990D01*
X101127756Y-181727385D01*
X101147794Y-181772765D01*
X101227235Y-181852206D01*
X101330009Y-181897585D01*
X101355135Y-181900500D01*
X103444864Y-181900499D01*
X103469991Y-181897585D01*
X103572765Y-181852206D01*
X103652206Y-181772765D01*
X103697585Y-181669991D01*
X103700500Y-181644865D01*
X103700499Y-178355136D01*
X103697585Y-178330009D01*
X103652206Y-178227235D01*
X103572765Y-178147794D01*
X103469991Y-178102415D01*
X103469990Y-178102414D01*
X103469988Y-178102414D01*
X103444868Y-178099500D01*
X101355139Y-178099500D01*
X101355136Y-178099501D01*
X101330009Y-178102414D01*
X101227235Y-178147794D01*
X101147794Y-178227235D01*
X101102414Y-178330011D01*
X101099500Y-178355130D01*
X100500500Y-178355130D01*
X100500500Y-168855130D01*
X104199500Y-168855130D01*
X104199500Y-170944860D01*
X104199501Y-170944863D01*
X104202414Y-170969990D01*
X104221090Y-171012287D01*
X104247794Y-171072765D01*
X104327235Y-171152206D01*
X104430009Y-171197585D01*
X104455135Y-171200500D01*
X106544864Y-171200499D01*
X106569991Y-171197585D01*
X106672765Y-171152206D01*
X106752206Y-171072765D01*
X106797585Y-170969991D01*
X106800500Y-170944865D01*
X106800499Y-168855136D01*
X106797585Y-168830009D01*
X106752206Y-168727235D01*
X106672765Y-168647794D01*
X106569991Y-168602415D01*
X106569990Y-168602414D01*
X106569988Y-168602414D01*
X106544868Y-168599500D01*
X104455139Y-168599500D01*
X104455136Y-168599501D01*
X104430009Y-168602414D01*
X104327235Y-168647794D01*
X104247794Y-168727235D01*
X104202414Y-168830011D01*
X104199500Y-168855130D01*
X100500500Y-168855130D01*
X100500500Y-133655130D01*
X104199500Y-133655130D01*
X104199500Y-135744860D01*
X104199501Y-135744863D01*
X104202414Y-135769990D01*
X104221090Y-135812287D01*
X104247794Y-135872765D01*
X104327235Y-135952206D01*
X104430009Y-135997585D01*
X104455135Y-136000500D01*
X106544864Y-136000499D01*
X106569991Y-135997585D01*
X106672765Y-135952206D01*
X106752206Y-135872765D01*
X106797585Y-135769991D01*
X106800500Y-135744865D01*
X106800499Y-133655136D01*
X106797585Y-133630009D01*
X106752206Y-133527235D01*
X106672765Y-133447794D01*
X106569991Y-133402415D01*
X106569990Y-133402414D01*
X106569988Y-133402414D01*
X106544868Y-133399500D01*
X104455139Y-133399500D01*
X104455136Y-133399501D01*
X104430009Y-133402414D01*
X104327235Y-133447794D01*
X104247794Y-133527235D01*
X104202414Y-133630011D01*
X104199500Y-133655130D01*
X100500500Y-133655130D01*
X100500500Y-125555130D01*
X101099500Y-125555130D01*
X101099500Y-128844860D01*
X101099501Y-128844863D01*
X101102414Y-128869990D01*
X101127756Y-128927385D01*
X101147794Y-128972765D01*
X101227235Y-129052206D01*
X101330009Y-129097585D01*
X101355135Y-129100500D01*
X103444864Y-129100499D01*
X103469991Y-129097585D01*
X103572765Y-129052206D01*
X103652206Y-128972765D01*
X103697585Y-128869991D01*
X103700500Y-128844865D01*
X103700499Y-125555136D01*
X103697585Y-125530009D01*
X103652206Y-125427235D01*
X103572765Y-125347794D01*
X103469991Y-125302415D01*
X103469990Y-125302414D01*
X103469988Y-125302414D01*
X103444868Y-125299500D01*
X101355139Y-125299500D01*
X101355136Y-125299501D01*
X101330009Y-125302414D01*
X101227235Y-125347794D01*
X101147794Y-125427235D01*
X101102414Y-125530011D01*
X101099500Y-125555130D01*
X100500500Y-125555130D01*
X100500500Y-116055130D01*
X104199500Y-116055130D01*
X104199500Y-118144860D01*
X104199501Y-118144863D01*
X104202414Y-118169990D01*
X104221090Y-118212287D01*
X104247794Y-118272765D01*
X104327235Y-118352206D01*
X104430009Y-118397585D01*
X104455135Y-118400500D01*
X106544864Y-118400499D01*
X106569991Y-118397585D01*
X106672765Y-118352206D01*
X106752206Y-118272765D01*
X106797585Y-118169991D01*
X106800500Y-118144865D01*
X106800499Y-116997644D01*
X109199500Y-116997644D01*
X109199500Y-117202355D01*
X109231521Y-117404529D01*
X109294780Y-117599219D01*
X109387712Y-117781609D01*
X109387714Y-117781613D01*
X109508029Y-117947213D01*
X109508031Y-117947215D01*
X109508034Y-117947219D01*
X109652781Y-118091966D01*
X109652784Y-118091968D01*
X109652786Y-118091970D01*
X109818386Y-118212285D01*
X109818390Y-118212287D01*
X110000781Y-118305220D01*
X110195466Y-118368477D01*
X110195467Y-118368477D01*
X110195470Y-118368478D01*
X110397645Y-118400500D01*
X110397648Y-118400500D01*
X110602355Y-118400500D01*
X110804529Y-118368478D01*
X110804530Y-118368477D01*
X110804534Y-118368477D01*
X110999219Y-118305220D01*
X111181610Y-118212287D01*
X111347219Y-118091966D01*
X111491966Y-117947219D01*
X111612287Y-117781610D01*
X111705220Y-117599219D01*
X111768477Y-117404534D01*
X111800500Y-117202352D01*
X111800500Y-116997648D01*
X111800500Y-116997644D01*
X111768478Y-116795470D01*
X111768477Y-116795466D01*
X111705220Y-116600781D01*
X111612287Y-116418390D01*
X111612285Y-116418386D01*
X111491970Y-116252786D01*
X111491968Y-116252784D01*
X111491966Y-116252781D01*
X111347219Y-116108034D01*
X111347215Y-116108031D01*
X111347213Y-116108029D01*
X111181613Y-115987714D01*
X111181609Y-115987712D01*
X110999219Y-115894780D01*
X110804529Y-115831521D01*
X110602355Y-115799500D01*
X110602352Y-115799500D01*
X110397648Y-115799500D01*
X110397645Y-115799500D01*
X110195470Y-115831521D01*
X110000780Y-115894780D01*
X109818390Y-115987712D01*
X109818386Y-115987714D01*
X109652786Y-116108029D01*
X109508029Y-116252786D01*
X109387714Y-116418386D01*
X109387712Y-116418390D01*
X109294780Y-116600780D01*
X109231521Y-116795470D01*
X109199500Y-116997644D01*
X106800499Y-116997644D01*
X106800499Y-116055136D01*
X106797585Y-116030009D01*
X106752206Y-115927235D01*
X106672765Y-115847794D01*
X106569991Y-115802415D01*
X106569990Y-115802414D01*
X106569988Y-115802414D01*
X106544868Y-115799500D01*
X104455139Y-115799500D01*
X104455136Y-115799501D01*
X104430009Y-115802414D01*
X104327235Y-115847794D01*
X104247794Y-115927235D01*
X104202414Y-116030011D01*
X104199500Y-116055130D01*
X100500500Y-116055130D01*
X100500500Y-107955130D01*
X101099500Y-107955130D01*
X101099500Y-111244860D01*
X101099501Y-111244863D01*
X101102414Y-111269990D01*
X101127756Y-111327385D01*
X101147794Y-111372765D01*
X101227235Y-111452206D01*
X101330009Y-111497585D01*
X101355135Y-111500500D01*
X103444864Y-111500499D01*
X103469991Y-111497585D01*
X103572765Y-111452206D01*
X103652206Y-111372765D01*
X103697585Y-111269991D01*
X103700500Y-111244865D01*
X103700499Y-107955136D01*
X103700498Y-107955130D01*
X112299500Y-107955130D01*
X112299500Y-111244860D01*
X112299501Y-111244863D01*
X112302414Y-111269990D01*
X112327756Y-111327385D01*
X112347794Y-111372765D01*
X112427235Y-111452206D01*
X112530009Y-111497585D01*
X112555135Y-111500500D01*
X114644864Y-111500499D01*
X114669991Y-111497585D01*
X114772765Y-111452206D01*
X114852206Y-111372765D01*
X114897585Y-111269991D01*
X114900500Y-111244865D01*
X114900499Y-107955136D01*
X114897585Y-107930009D01*
X114852206Y-107827235D01*
X114772765Y-107747794D01*
X114669991Y-107702415D01*
X114669990Y-107702414D01*
X114669988Y-107702414D01*
X114644868Y-107699500D01*
X112555139Y-107699500D01*
X112555136Y-107699501D01*
X112530009Y-107702414D01*
X112427235Y-107747794D01*
X112347794Y-107827235D01*
X112302414Y-107930011D01*
X112299500Y-107955130D01*
X103700498Y-107955130D01*
X103697585Y-107930009D01*
X103652206Y-107827235D01*
X103572765Y-107747794D01*
X103469991Y-107702415D01*
X103469990Y-107702414D01*
X103469988Y-107702414D01*
X103444868Y-107699500D01*
X101355139Y-107699500D01*
X101355136Y-107699501D01*
X101330009Y-107702414D01*
X101227235Y-107747794D01*
X101147794Y-107827235D01*
X101102414Y-107930011D01*
X101099500Y-107955130D01*
X100500500Y-107955130D01*
X100500500Y-100599500D01*
X100519407Y-100541309D01*
X100568907Y-100505345D01*
X100599500Y-100500500D01*
X129400500Y-100500500D01*
X129458691Y-100519407D01*
G37*
%TD.AperFunction*%
%TA.AperFunction,Conductor*%
G36*
X119564672Y-183924443D02*
G01*
X119601921Y-183972984D01*
X119607600Y-184006033D01*
X119607600Y-185109273D01*
X119607600Y-185214727D01*
X119631670Y-185304559D01*
X119634894Y-185316592D01*
X119687616Y-185407908D01*
X119687618Y-185407910D01*
X119687620Y-185407913D01*
X120231005Y-185951298D01*
X120258781Y-186005813D01*
X120260000Y-186021300D01*
X120260000Y-186036875D01*
X120289587Y-186147296D01*
X120297517Y-186176889D01*
X120369987Y-186302410D01*
X120369989Y-186302412D01*
X120369991Y-186302415D01*
X120472485Y-186404909D01*
X120472487Y-186404910D01*
X120472489Y-186404912D01*
X120598011Y-186477382D01*
X120598012Y-186477382D01*
X120598015Y-186477384D01*
X120738025Y-186514900D01*
X120738026Y-186514900D01*
X120882974Y-186514900D01*
X120882975Y-186514900D01*
X121022985Y-186477384D01*
X121022987Y-186477382D01*
X121022989Y-186477382D01*
X121104600Y-186430264D01*
X121164448Y-186417542D01*
X121220344Y-186442428D01*
X121250937Y-186495416D01*
X121253100Y-186516000D01*
X121253100Y-192820673D01*
X121253100Y-192926127D01*
X121271097Y-192993295D01*
X121280394Y-193027992D01*
X121333116Y-193119308D01*
X121333118Y-193119310D01*
X121333120Y-193119313D01*
X122051916Y-193838109D01*
X122079692Y-193892624D01*
X122070121Y-193953056D01*
X122040104Y-193988202D01*
X122020503Y-194002443D01*
X122020500Y-194002446D01*
X122020499Y-194002447D01*
X121892447Y-194130499D01*
X121852417Y-194185596D01*
X121786002Y-194277008D01*
X121703788Y-194438362D01*
X121647828Y-194610593D01*
X121619500Y-194789450D01*
X121619500Y-194970549D01*
X121647828Y-195149406D01*
X121703788Y-195321637D01*
X121765372Y-195442503D01*
X121786004Y-195482994D01*
X121892447Y-195629501D01*
X122020499Y-195757553D01*
X122167006Y-195863996D01*
X122328361Y-195946211D01*
X122500591Y-196002171D01*
X122572136Y-196013502D01*
X122679451Y-196030500D01*
X122679454Y-196030500D01*
X122860549Y-196030500D01*
X122949977Y-196016335D01*
X123039409Y-196002171D01*
X123211639Y-195946211D01*
X123372994Y-195863996D01*
X123519501Y-195757553D01*
X123647553Y-195629501D01*
X123753996Y-195482994D01*
X123836211Y-195321639D01*
X123892171Y-195149409D01*
X123920500Y-194970546D01*
X123920500Y-194789454D01*
X123920500Y-194789450D01*
X123901614Y-194670212D01*
X123892171Y-194610591D01*
X123836211Y-194438361D01*
X123753996Y-194277006D01*
X123647553Y-194130499D01*
X123519501Y-194002447D01*
X123462884Y-193961312D01*
X123426922Y-193911815D01*
X123426922Y-193850629D01*
X123451071Y-193811221D01*
X124241219Y-193021071D01*
X124295734Y-192993295D01*
X124356166Y-193002866D01*
X124391313Y-193032885D01*
X124432447Y-193089501D01*
X124560499Y-193217553D01*
X124707006Y-193323996D01*
X124868361Y-193406211D01*
X124868364Y-193406212D01*
X124868362Y-193406212D01*
X124910588Y-193419931D01*
X124960089Y-193455894D01*
X124978997Y-193514084D01*
X124965734Y-193563585D01*
X124936793Y-193613711D01*
X124909500Y-193715574D01*
X124909500Y-193732160D01*
X124890593Y-193790351D01*
X124855445Y-193820370D01*
X124707008Y-193896002D01*
X124679336Y-193916107D01*
X124560499Y-194002447D01*
X124432447Y-194130499D01*
X124392417Y-194185596D01*
X124326002Y-194277008D01*
X124243788Y-194438362D01*
X124187828Y-194610593D01*
X124159500Y-194789450D01*
X124159500Y-194970549D01*
X124187828Y-195149406D01*
X124243788Y-195321637D01*
X124305372Y-195442503D01*
X124326004Y-195482994D01*
X124432447Y-195629501D01*
X124560499Y-195757553D01*
X124570042Y-195764486D01*
X124574946Y-195768049D01*
X124610910Y-195817549D01*
X124610910Y-195878734D01*
X124586759Y-195918146D01*
X123808146Y-196696759D01*
X123753629Y-196724536D01*
X123693197Y-196714965D01*
X123658049Y-196684946D01*
X123647554Y-196670501D01*
X123647553Y-196670499D01*
X123519501Y-196542447D01*
X123372994Y-196436004D01*
X123372993Y-196436003D01*
X123372991Y-196436002D01*
X123211637Y-196353788D01*
X123039406Y-196297828D01*
X122860549Y-196269500D01*
X122860546Y-196269500D01*
X122679454Y-196269500D01*
X122679451Y-196269500D01*
X122500593Y-196297828D01*
X122328362Y-196353788D01*
X122167008Y-196436002D01*
X122093752Y-196489225D01*
X122020499Y-196542447D01*
X121892447Y-196670499D01*
X121892446Y-196670501D01*
X121786002Y-196817008D01*
X121703788Y-196978362D01*
X121647828Y-197150593D01*
X121619500Y-197329450D01*
X121619500Y-197510549D01*
X121647828Y-197689406D01*
X121703788Y-197861637D01*
X121770766Y-197993089D01*
X121786004Y-198022994D01*
X121892447Y-198169501D01*
X121995444Y-198272498D01*
X122023220Y-198327013D01*
X122013649Y-198387445D01*
X121970384Y-198430710D01*
X121925439Y-198441500D01*
X121547400Y-198441500D01*
X121489209Y-198422593D01*
X121453245Y-198373093D01*
X121448400Y-198342500D01*
X121448400Y-198258625D01*
X121424519Y-198169501D01*
X121410884Y-198118615D01*
X121410882Y-198118612D01*
X121410882Y-198118610D01*
X121338412Y-197993089D01*
X121338410Y-197993087D01*
X121338409Y-197993085D01*
X121235915Y-197890591D01*
X121235912Y-197890589D01*
X121235910Y-197890587D01*
X121110388Y-197818117D01*
X121110389Y-197818117D01*
X121017424Y-197793207D01*
X120970375Y-197780600D01*
X120970374Y-197780600D01*
X120954801Y-197780600D01*
X120896610Y-197761693D01*
X120884797Y-197751604D01*
X118952196Y-195819003D01*
X118924419Y-195764486D01*
X118923200Y-195748999D01*
X118923200Y-184136821D01*
X118942107Y-184078630D01*
X118991607Y-184042666D01*
X119029636Y-184039172D01*
X119029636Y-184038800D01*
X119033686Y-184038800D01*
X119035123Y-184038668D01*
X119036124Y-184038799D01*
X119036125Y-184038800D01*
X119036126Y-184038800D01*
X119181074Y-184038800D01*
X119181075Y-184038800D01*
X119321085Y-184001284D01*
X119321087Y-184001282D01*
X119321089Y-184001282D01*
X119383850Y-183965046D01*
X119446615Y-183928809D01*
X119446619Y-183928804D01*
X119448330Y-183927493D01*
X119449793Y-183926974D01*
X119452235Y-183925565D01*
X119452496Y-183926017D01*
X119506006Y-183907067D01*
X119564672Y-183924443D01*
G37*
%TD.AperFunction*%
%TA.AperFunction,Conductor*%
G36*
X123438050Y-170815659D02*
G01*
X123491518Y-170819222D01*
X123524737Y-170841130D01*
X124220504Y-171536896D01*
X124248281Y-171591413D01*
X124249500Y-171606900D01*
X124249500Y-172512945D01*
X124239441Y-172556425D01*
X124210135Y-172616371D01*
X124210134Y-172616373D01*
X124210134Y-172616375D01*
X124199500Y-172689364D01*
X124199500Y-173635636D01*
X124210134Y-173708625D01*
X124265174Y-173821211D01*
X124353789Y-173909826D01*
X124466375Y-173964866D01*
X124539364Y-173975500D01*
X124539367Y-173975500D01*
X124760632Y-173975500D01*
X124760636Y-173975500D01*
X124833625Y-173964866D01*
X124931520Y-173917007D01*
X124992101Y-173908437D01*
X125018478Y-173917007D01*
X125116375Y-173964866D01*
X125189364Y-173975500D01*
X125189367Y-173975500D01*
X125410632Y-173975500D01*
X125410636Y-173975500D01*
X125483625Y-173964866D01*
X125581520Y-173917007D01*
X125642101Y-173908437D01*
X125668478Y-173917007D01*
X125766375Y-173964866D01*
X125839364Y-173975500D01*
X125925500Y-173975500D01*
X125983691Y-173994407D01*
X126019655Y-174043907D01*
X126024500Y-174074500D01*
X126024500Y-174160636D01*
X126030996Y-174205220D01*
X126035134Y-174233626D01*
X126035135Y-174233628D01*
X126082991Y-174331520D01*
X126091562Y-174392102D01*
X126082991Y-174418480D01*
X126035135Y-174516371D01*
X126035134Y-174516373D01*
X126035134Y-174516375D01*
X126024500Y-174589364D01*
X126024500Y-174810636D01*
X126033007Y-174869027D01*
X126035134Y-174883626D01*
X126035135Y-174883628D01*
X126082991Y-174981520D01*
X126091562Y-175042102D01*
X126082991Y-175068480D01*
X126035135Y-175166371D01*
X126035134Y-175166373D01*
X126035134Y-175166375D01*
X126024500Y-175239364D01*
X126024500Y-175460636D01*
X126033007Y-175519027D01*
X126035134Y-175533626D01*
X126035135Y-175533628D01*
X126082991Y-175631520D01*
X126091562Y-175692102D01*
X126082991Y-175718480D01*
X126035135Y-175816371D01*
X126035134Y-175816373D01*
X126035134Y-175816375D01*
X126024500Y-175889364D01*
X126024500Y-176110636D01*
X126033007Y-176169027D01*
X126035134Y-176183626D01*
X126035135Y-176183628D01*
X126082991Y-176281520D01*
X126091562Y-176342102D01*
X126082991Y-176368480D01*
X126035135Y-176466371D01*
X126035134Y-176466373D01*
X126035134Y-176466375D01*
X126024500Y-176539364D01*
X126024500Y-176760636D01*
X126033007Y-176819027D01*
X126035134Y-176833626D01*
X126035135Y-176833628D01*
X126082991Y-176931520D01*
X126091562Y-176992102D01*
X126082991Y-177018480D01*
X126035135Y-177116371D01*
X126035134Y-177116373D01*
X126035134Y-177116375D01*
X126024500Y-177189364D01*
X126024500Y-177410636D01*
X126033007Y-177469027D01*
X126035134Y-177483626D01*
X126035135Y-177483628D01*
X126082991Y-177581520D01*
X126091562Y-177642102D01*
X126082991Y-177668480D01*
X126035135Y-177766371D01*
X126035134Y-177766373D01*
X126035134Y-177766375D01*
X126024555Y-177838992D01*
X126024500Y-177839367D01*
X126024500Y-177925500D01*
X126005593Y-177983691D01*
X125956093Y-178019655D01*
X125925500Y-178024500D01*
X125839364Y-178024500D01*
X125795570Y-178030880D01*
X125766373Y-178035134D01*
X125766371Y-178035135D01*
X125668480Y-178082991D01*
X125607898Y-178091562D01*
X125581520Y-178082991D01*
X125483628Y-178035135D01*
X125483626Y-178035134D01*
X125465377Y-178032475D01*
X125410636Y-178024500D01*
X125189364Y-178024500D01*
X125145570Y-178030880D01*
X125116373Y-178035134D01*
X125116371Y-178035135D01*
X125018480Y-178082991D01*
X124957898Y-178091562D01*
X124931520Y-178082991D01*
X124833628Y-178035135D01*
X124833626Y-178035134D01*
X124815377Y-178032475D01*
X124760636Y-178024500D01*
X124539364Y-178024500D01*
X124495570Y-178030880D01*
X124466373Y-178035134D01*
X124466371Y-178035135D01*
X124368480Y-178082991D01*
X124307898Y-178091562D01*
X124281520Y-178082991D01*
X124183628Y-178035135D01*
X124183626Y-178035134D01*
X124165377Y-178032475D01*
X124110636Y-178024500D01*
X123889364Y-178024500D01*
X123845570Y-178030880D01*
X123816373Y-178035134D01*
X123816371Y-178035135D01*
X123718480Y-178082991D01*
X123657898Y-178091562D01*
X123631520Y-178082991D01*
X123533628Y-178035135D01*
X123533626Y-178035134D01*
X123515377Y-178032475D01*
X123460636Y-178024500D01*
X123239364Y-178024500D01*
X123195570Y-178030880D01*
X123166373Y-178035134D01*
X123053790Y-178090173D01*
X122965173Y-178178790D01*
X122910134Y-178291373D01*
X122910134Y-178291375D01*
X122899500Y-178364364D01*
X122899500Y-179310636D01*
X122908007Y-179369027D01*
X122910134Y-179383626D01*
X122938386Y-179441415D01*
X122965174Y-179496211D01*
X123053789Y-179584826D01*
X123166375Y-179639866D01*
X123239364Y-179650500D01*
X123239367Y-179650500D01*
X123375600Y-179650500D01*
X123433791Y-179669407D01*
X123469755Y-179718907D01*
X123474600Y-179749500D01*
X123474600Y-179889174D01*
X123512117Y-180029189D01*
X123584587Y-180154710D01*
X123584589Y-180154712D01*
X123584591Y-180154715D01*
X123687085Y-180257209D01*
X123687087Y-180257210D01*
X123687089Y-180257212D01*
X123812611Y-180329682D01*
X123812612Y-180329682D01*
X123812615Y-180329684D01*
X123952625Y-180367200D01*
X123952626Y-180367200D01*
X124097573Y-180367200D01*
X124097575Y-180367200D01*
X124124877Y-180359884D01*
X124185978Y-180363086D01*
X124233528Y-180401591D01*
X124247552Y-180448937D01*
X124248653Y-180448793D01*
X124249499Y-180455224D01*
X124276794Y-180557092D01*
X124329516Y-180648408D01*
X124329518Y-180648410D01*
X124329520Y-180648413D01*
X124679005Y-180997898D01*
X124706781Y-181052413D01*
X124708000Y-181067900D01*
X124708000Y-181083474D01*
X124745517Y-181223489D01*
X124817987Y-181349010D01*
X124817989Y-181349012D01*
X124817991Y-181349015D01*
X124920485Y-181451509D01*
X124920487Y-181451510D01*
X124920489Y-181451512D01*
X125046011Y-181523982D01*
X125046012Y-181523982D01*
X125046015Y-181523984D01*
X125186025Y-181561500D01*
X125186026Y-181561500D01*
X125330976Y-181561500D01*
X125330976Y-181561499D01*
X125424876Y-181536339D01*
X125485978Y-181539540D01*
X125533528Y-181578045D01*
X125549500Y-181631965D01*
X125549500Y-185810799D01*
X125530593Y-185868990D01*
X125520504Y-185880803D01*
X123592116Y-187809191D01*
X123539393Y-187900511D01*
X123539392Y-187900511D01*
X123539393Y-187900512D01*
X123512100Y-188002373D01*
X123512100Y-190583599D01*
X123493193Y-190641790D01*
X123483104Y-190653603D01*
X123337903Y-190798804D01*
X123283386Y-190826581D01*
X123267899Y-190827800D01*
X122822727Y-190827800D01*
X122717273Y-190827800D01*
X122615413Y-190855093D01*
X122615412Y-190855093D01*
X122615410Y-190855094D01*
X122615409Y-190855094D01*
X122524089Y-190907818D01*
X122449518Y-190982389D01*
X122396794Y-191073709D01*
X122396794Y-191073710D01*
X122396793Y-191073712D01*
X122396793Y-191073713D01*
X122386571Y-191111865D01*
X122369500Y-191175574D01*
X122369500Y-191192160D01*
X122362336Y-191214207D01*
X122358710Y-191237105D01*
X122353061Y-191242753D01*
X122350593Y-191250351D01*
X122315445Y-191280370D01*
X122198045Y-191340188D01*
X122137613Y-191349759D01*
X122083096Y-191321981D01*
X122055319Y-191267465D01*
X122054100Y-191251978D01*
X122054100Y-179749500D01*
X122073007Y-179691309D01*
X122122507Y-179655345D01*
X122153100Y-179650500D01*
X122160632Y-179650500D01*
X122160636Y-179650500D01*
X122233625Y-179639866D01*
X122346211Y-179584826D01*
X122434826Y-179496211D01*
X122489866Y-179383625D01*
X122500500Y-179310636D01*
X122500500Y-178364364D01*
X122489866Y-178291375D01*
X122434826Y-178178789D01*
X122346211Y-178090174D01*
X122233625Y-178035134D01*
X122233626Y-178035134D01*
X122215377Y-178032475D01*
X122160636Y-178024500D01*
X122160633Y-178024500D01*
X122074500Y-178024500D01*
X122016309Y-178005593D01*
X121980345Y-177956093D01*
X121975500Y-177925500D01*
X121975500Y-177839367D01*
X121975500Y-177839364D01*
X121964866Y-177766375D01*
X121917007Y-177668479D01*
X121908437Y-177607899D01*
X121917008Y-177581519D01*
X121964866Y-177483625D01*
X121975500Y-177410636D01*
X121975500Y-177189364D01*
X121964866Y-177116375D01*
X121917007Y-177018479D01*
X121908437Y-176957899D01*
X121917008Y-176931519D01*
X121964866Y-176833625D01*
X121975500Y-176760636D01*
X121975500Y-176539364D01*
X121964866Y-176466375D01*
X121917007Y-176368479D01*
X121908437Y-176307899D01*
X121917008Y-176281519D01*
X121964866Y-176183625D01*
X121975500Y-176110636D01*
X121975500Y-175889364D01*
X121964866Y-175816375D01*
X121917007Y-175718479D01*
X121908437Y-175657899D01*
X121917008Y-175631519D01*
X121964866Y-175533625D01*
X121975500Y-175460636D01*
X121975500Y-175239364D01*
X121964866Y-175166375D01*
X121917007Y-175068479D01*
X121908437Y-175007899D01*
X121917008Y-174981519D01*
X121930328Y-174954273D01*
X121964866Y-174883625D01*
X121975500Y-174810636D01*
X121975500Y-174589364D01*
X121964866Y-174516375D01*
X121917007Y-174418479D01*
X121908437Y-174357899D01*
X121917008Y-174331519D01*
X121964866Y-174233625D01*
X121975500Y-174160636D01*
X121975500Y-174074500D01*
X121994407Y-174016309D01*
X122043907Y-173980345D01*
X122074500Y-173975500D01*
X122160632Y-173975500D01*
X122160636Y-173975500D01*
X122233625Y-173964866D01*
X122331520Y-173917007D01*
X122392101Y-173908437D01*
X122418478Y-173917007D01*
X122516375Y-173964866D01*
X122589364Y-173975500D01*
X122589367Y-173975500D01*
X122810632Y-173975500D01*
X122810636Y-173975500D01*
X122883625Y-173964866D01*
X122996211Y-173909826D01*
X123084826Y-173821211D01*
X123139866Y-173708625D01*
X123150500Y-173635636D01*
X123150500Y-172689364D01*
X123139866Y-172616375D01*
X123137724Y-172611993D01*
X123110559Y-172556425D01*
X123100500Y-172512945D01*
X123100500Y-170924500D01*
X123119407Y-170866309D01*
X123168907Y-170830345D01*
X123199500Y-170825500D01*
X123343100Y-170825500D01*
X123343102Y-170825500D01*
X123431564Y-170814877D01*
X123431564Y-170814876D01*
X123437866Y-170814120D01*
X123438050Y-170815659D01*
G37*
%TD.AperFunction*%
%TA.AperFunction,Conductor*%
G36*
X120277989Y-174469407D02*
G01*
X120313953Y-174518907D01*
X120313953Y-174580093D01*
X120289802Y-174619504D01*
X116902604Y-178006702D01*
X116848087Y-178034479D01*
X116787655Y-178024908D01*
X116744390Y-177981643D01*
X116733600Y-177936698D01*
X116733600Y-177402801D01*
X116752507Y-177344610D01*
X116762596Y-177332797D01*
X119615897Y-174479496D01*
X119670414Y-174451719D01*
X119685901Y-174450500D01*
X120219798Y-174450500D01*
X120277989Y-174469407D01*
G37*
%TD.AperFunction*%
%TA.AperFunction,Conductor*%
G36*
X117753546Y-153285363D02*
G01*
X117765359Y-153295452D01*
X125520504Y-161050597D01*
X125548281Y-161105114D01*
X125549500Y-161120601D01*
X125549500Y-172255262D01*
X125530593Y-172313453D01*
X125481093Y-172349417D01*
X125436230Y-172353228D01*
X125410639Y-172349500D01*
X125410636Y-172349500D01*
X125189364Y-172349500D01*
X125189360Y-172349500D01*
X125163770Y-172353228D01*
X125103462Y-172342906D01*
X125060738Y-172299107D01*
X125050500Y-172255262D01*
X125050500Y-171460714D01*
X125050501Y-171460701D01*
X125050501Y-171347272D01*
X125050500Y-171347270D01*
X125023207Y-171245413D01*
X125023205Y-171245409D01*
X124970481Y-171154089D01*
X124970480Y-171154087D01*
X124895913Y-171079520D01*
X124895910Y-171079518D01*
X124398001Y-170581609D01*
X123879496Y-170063103D01*
X123851719Y-170008586D01*
X123850500Y-169993099D01*
X123850500Y-169281899D01*
X123850499Y-169281893D01*
X123847562Y-169257435D01*
X123839877Y-169193436D01*
X123812119Y-169123047D01*
X123784362Y-169052660D01*
X123784361Y-169052659D01*
X123784361Y-169052658D01*
X123692922Y-168932078D01*
X123572342Y-168840639D01*
X123572341Y-168840638D01*
X123572339Y-168840637D01*
X123431565Y-168785123D01*
X123343106Y-168774500D01*
X123343102Y-168774500D01*
X122756898Y-168774500D01*
X122756893Y-168774500D01*
X122668434Y-168785123D01*
X122527660Y-168840637D01*
X122527656Y-168840640D01*
X122407081Y-168932075D01*
X122407075Y-168932081D01*
X122315640Y-169052656D01*
X122315637Y-169052660D01*
X122260123Y-169193434D01*
X122249500Y-169281893D01*
X122249500Y-169650500D01*
X122230593Y-169708691D01*
X122181093Y-169744655D01*
X122150500Y-169749500D01*
X121538601Y-169749500D01*
X121480410Y-169730593D01*
X121468597Y-169720504D01*
X119685394Y-167937301D01*
X117857613Y-166109520D01*
X117857610Y-166109518D01*
X117857609Y-166109517D01*
X117857608Y-166109516D01*
X117766291Y-166056794D01*
X117766293Y-166056794D01*
X117726770Y-166046204D01*
X117664427Y-166029500D01*
X117664425Y-166029500D01*
X117647839Y-166029500D01*
X117589648Y-166010593D01*
X117559631Y-165975447D01*
X117483996Y-165827006D01*
X117377553Y-165680499D01*
X117249501Y-165552447D01*
X117102994Y-165446004D01*
X117102993Y-165446003D01*
X117102991Y-165446002D01*
X116954555Y-165370370D01*
X116911290Y-165327105D01*
X116900500Y-165282160D01*
X116900500Y-165265574D01*
X116900500Y-165265573D01*
X116873207Y-165163713D01*
X116844265Y-165113584D01*
X116831544Y-165053738D01*
X116856430Y-164997843D01*
X116899412Y-164969931D01*
X116941633Y-164956213D01*
X116941633Y-164956212D01*
X116941639Y-164956211D01*
X117102994Y-164873996D01*
X117249501Y-164767553D01*
X117377553Y-164639501D01*
X117483996Y-164492994D01*
X117566211Y-164331639D01*
X117622171Y-164159409D01*
X117650500Y-163980546D01*
X117650500Y-163799454D01*
X117650500Y-163799450D01*
X117622171Y-163620593D01*
X117622171Y-163620591D01*
X117566211Y-163448361D01*
X117483996Y-163287006D01*
X117377553Y-163140499D01*
X117249501Y-163012447D01*
X117102994Y-162906004D01*
X117102993Y-162906003D01*
X117102991Y-162906002D01*
X116941637Y-162823788D01*
X116769406Y-162767828D01*
X116590549Y-162739500D01*
X116590546Y-162739500D01*
X116409454Y-162739500D01*
X116409451Y-162739500D01*
X116230593Y-162767828D01*
X116058362Y-162823788D01*
X115904445Y-162902213D01*
X115844013Y-162911784D01*
X115789496Y-162884007D01*
X115761719Y-162829490D01*
X115760500Y-162814003D01*
X115760500Y-162425996D01*
X115779407Y-162367805D01*
X115828907Y-162331841D01*
X115890093Y-162331841D01*
X115904445Y-162337787D01*
X116058353Y-162416208D01*
X116058359Y-162416210D01*
X116058361Y-162416211D01*
X116230591Y-162472171D01*
X116302136Y-162483502D01*
X116409451Y-162500500D01*
X116409454Y-162500500D01*
X116590549Y-162500500D01*
X116679977Y-162486335D01*
X116769409Y-162472171D01*
X116941639Y-162416211D01*
X117102994Y-162333996D01*
X117249501Y-162227553D01*
X117377553Y-162099501D01*
X117483996Y-161952994D01*
X117566211Y-161791639D01*
X117622171Y-161619409D01*
X117650500Y-161440546D01*
X117650500Y-161259454D01*
X117650500Y-161259450D01*
X117622171Y-161080593D01*
X117622171Y-161080591D01*
X117566211Y-160908361D01*
X117483996Y-160747006D01*
X117377553Y-160600499D01*
X117249501Y-160472447D01*
X117102994Y-160366004D01*
X117102993Y-160366003D01*
X117102991Y-160366002D01*
X116941637Y-160283788D01*
X116769406Y-160227828D01*
X116590549Y-160199500D01*
X116590546Y-160199500D01*
X116409454Y-160199500D01*
X116409451Y-160199500D01*
X116230593Y-160227828D01*
X116058362Y-160283788D01*
X115904445Y-160362213D01*
X115844013Y-160371784D01*
X115789496Y-160344007D01*
X115761719Y-160289490D01*
X115760500Y-160274003D01*
X115760500Y-159885996D01*
X115779407Y-159827805D01*
X115828907Y-159791841D01*
X115890093Y-159791841D01*
X115904445Y-159797787D01*
X116058353Y-159876208D01*
X116058359Y-159876210D01*
X116058361Y-159876211D01*
X116230591Y-159932171D01*
X116302136Y-159943502D01*
X116409451Y-159960500D01*
X116409454Y-159960500D01*
X116590549Y-159960500D01*
X116679977Y-159946335D01*
X116769409Y-159932171D01*
X116941639Y-159876211D01*
X117102994Y-159793996D01*
X117249501Y-159687553D01*
X117377553Y-159559501D01*
X117483996Y-159412994D01*
X117566211Y-159251639D01*
X117622171Y-159079409D01*
X117650500Y-158900546D01*
X117650500Y-158719454D01*
X117650500Y-158719450D01*
X117622171Y-158540593D01*
X117622171Y-158540591D01*
X117566211Y-158368361D01*
X117483996Y-158207006D01*
X117377553Y-158060499D01*
X117249501Y-157932447D01*
X117102994Y-157826004D01*
X117102993Y-157826003D01*
X117102991Y-157826002D01*
X116941637Y-157743788D01*
X116769406Y-157687828D01*
X116590549Y-157659500D01*
X116590546Y-157659500D01*
X116409454Y-157659500D01*
X116409451Y-157659500D01*
X116230593Y-157687828D01*
X116058362Y-157743788D01*
X115904445Y-157822213D01*
X115844013Y-157831784D01*
X115789496Y-157804007D01*
X115761719Y-157749490D01*
X115760500Y-157734003D01*
X115760500Y-157345996D01*
X115779407Y-157287805D01*
X115828907Y-157251841D01*
X115890093Y-157251841D01*
X115904445Y-157257787D01*
X116058353Y-157336208D01*
X116058359Y-157336210D01*
X116058361Y-157336211D01*
X116230591Y-157392171D01*
X116302136Y-157403502D01*
X116409451Y-157420500D01*
X116409454Y-157420500D01*
X116590549Y-157420500D01*
X116679977Y-157406335D01*
X116769409Y-157392171D01*
X116941639Y-157336211D01*
X117102994Y-157253996D01*
X117249501Y-157147553D01*
X117377553Y-157019501D01*
X117483996Y-156872994D01*
X117566211Y-156711639D01*
X117622171Y-156539409D01*
X117643207Y-156406591D01*
X117650500Y-156360549D01*
X117650500Y-156179450D01*
X117622171Y-156000593D01*
X117622171Y-156000591D01*
X117566211Y-155828361D01*
X117483996Y-155667006D01*
X117377553Y-155520499D01*
X117249501Y-155392447D01*
X117102994Y-155286004D01*
X117102993Y-155286003D01*
X117102991Y-155286002D01*
X116941637Y-155203788D01*
X116769406Y-155147828D01*
X116590549Y-155119500D01*
X116590546Y-155119500D01*
X116409454Y-155119500D01*
X116409451Y-155119500D01*
X116230593Y-155147828D01*
X116058362Y-155203788D01*
X115904445Y-155282213D01*
X115844013Y-155291784D01*
X115789496Y-155264007D01*
X115761719Y-155209490D01*
X115760500Y-155194003D01*
X115760500Y-154805996D01*
X115779407Y-154747805D01*
X115828907Y-154711841D01*
X115890093Y-154711841D01*
X115904445Y-154717787D01*
X116058353Y-154796208D01*
X116058359Y-154796210D01*
X116058361Y-154796211D01*
X116230591Y-154852171D01*
X116302136Y-154863502D01*
X116409451Y-154880500D01*
X116409454Y-154880500D01*
X116590549Y-154880500D01*
X116679977Y-154866335D01*
X116769409Y-154852171D01*
X116941639Y-154796211D01*
X117102994Y-154713996D01*
X117249501Y-154607553D01*
X117377553Y-154479501D01*
X117483996Y-154332994D01*
X117566211Y-154171639D01*
X117622171Y-153999409D01*
X117650500Y-153820546D01*
X117650500Y-153639454D01*
X117650500Y-153639450D01*
X117631614Y-153520212D01*
X117622171Y-153460591D01*
X117601200Y-153396047D01*
X117601200Y-153334863D01*
X117637164Y-153285363D01*
X117695355Y-153266456D01*
X117753546Y-153285363D01*
G37*
%TD.AperFunction*%
%TA.AperFunction,Conductor*%
G36*
X115377745Y-133585389D02*
G01*
X115421010Y-133628654D01*
X115431800Y-133673599D01*
X115431800Y-137347399D01*
X115412893Y-137405590D01*
X115402804Y-137417403D01*
X111601816Y-141218391D01*
X111549095Y-141309706D01*
X111549091Y-141309716D01*
X111545942Y-141321472D01*
X111521800Y-141411573D01*
X111521800Y-151243608D01*
X111502893Y-151301799D01*
X111453393Y-151337763D01*
X111392207Y-151337763D01*
X111352798Y-151313613D01*
X111347219Y-151308034D01*
X111347215Y-151308031D01*
X111347213Y-151308029D01*
X111181613Y-151187714D01*
X111181609Y-151187712D01*
X110999219Y-151094780D01*
X110804529Y-151031521D01*
X110602355Y-150999500D01*
X110602352Y-150999500D01*
X110397648Y-150999500D01*
X110397645Y-150999500D01*
X110195470Y-151031521D01*
X110000780Y-151094780D01*
X109818390Y-151187712D01*
X109818386Y-151187714D01*
X109652786Y-151308029D01*
X109508029Y-151452786D01*
X109387714Y-151618386D01*
X109387712Y-151618390D01*
X109294780Y-151800780D01*
X109231521Y-151995470D01*
X109199500Y-152197644D01*
X109199500Y-152402355D01*
X109231521Y-152604529D01*
X109294780Y-152799219D01*
X109387712Y-152981609D01*
X109387714Y-152981613D01*
X109508029Y-153147213D01*
X109508031Y-153147215D01*
X109508034Y-153147219D01*
X109652781Y-153291966D01*
X109652784Y-153291968D01*
X109652786Y-153291970D01*
X109818386Y-153412285D01*
X109818390Y-153412287D01*
X110000781Y-153505220D01*
X110195466Y-153568477D01*
X110195467Y-153568477D01*
X110195470Y-153568478D01*
X110397645Y-153600500D01*
X110397648Y-153600500D01*
X110602355Y-153600500D01*
X110804529Y-153568478D01*
X110804530Y-153568477D01*
X110804534Y-153568477D01*
X110999219Y-153505220D01*
X111181610Y-153412287D01*
X111347219Y-153291966D01*
X111352798Y-153286386D01*
X111407313Y-153258611D01*
X111467745Y-153268182D01*
X111511010Y-153311447D01*
X111521800Y-153356392D01*
X111521800Y-153770799D01*
X111502893Y-153828990D01*
X111492803Y-153840803D01*
X111142563Y-154191042D01*
X111088047Y-154218819D01*
X111027616Y-154209248D01*
X110999222Y-154194781D01*
X110804529Y-154131521D01*
X110602355Y-154099500D01*
X110602352Y-154099500D01*
X110397648Y-154099500D01*
X110397645Y-154099500D01*
X110195470Y-154131521D01*
X110000780Y-154194780D01*
X109818390Y-154287712D01*
X109818386Y-154287714D01*
X109652786Y-154408029D01*
X109508029Y-154552786D01*
X109387714Y-154718386D01*
X109387712Y-154718390D01*
X109294780Y-154900780D01*
X109231521Y-155095470D01*
X109199500Y-155297644D01*
X109199500Y-155502355D01*
X109231521Y-155704529D01*
X109294780Y-155899219D01*
X109387712Y-156081609D01*
X109387714Y-156081613D01*
X109508029Y-156247213D01*
X109508031Y-156247215D01*
X109508034Y-156247219D01*
X109652781Y-156391966D01*
X109652784Y-156391968D01*
X109652786Y-156391970D01*
X109818386Y-156512285D01*
X109818390Y-156512287D01*
X110000781Y-156605220D01*
X110195466Y-156668477D01*
X110195467Y-156668477D01*
X110195470Y-156668478D01*
X110397645Y-156700500D01*
X110397648Y-156700500D01*
X110602355Y-156700500D01*
X110804529Y-156668478D01*
X110804530Y-156668477D01*
X110804534Y-156668477D01*
X110999219Y-156605220D01*
X111181610Y-156512287D01*
X111347219Y-156391966D01*
X111491966Y-156247219D01*
X111612287Y-156081610D01*
X111705220Y-155899219D01*
X111718245Y-155859131D01*
X111754209Y-155809632D01*
X111812399Y-155790724D01*
X111870590Y-155809631D01*
X111906554Y-155859131D01*
X111911400Y-155889724D01*
X111911400Y-169410275D01*
X111892493Y-169468466D01*
X111842993Y-169504430D01*
X111781807Y-169504430D01*
X111732307Y-169468466D01*
X111718245Y-169440868D01*
X111705220Y-169400781D01*
X111612287Y-169218390D01*
X111612285Y-169218386D01*
X111491970Y-169052786D01*
X111491968Y-169052784D01*
X111491966Y-169052781D01*
X111347219Y-168908034D01*
X111347215Y-168908031D01*
X111347213Y-168908029D01*
X111181613Y-168787714D01*
X111181609Y-168787712D01*
X110999219Y-168694780D01*
X110804529Y-168631521D01*
X110602355Y-168599500D01*
X110602352Y-168599500D01*
X110397648Y-168599500D01*
X110397645Y-168599500D01*
X110195470Y-168631521D01*
X110000779Y-168694780D01*
X109972382Y-168709249D01*
X109911950Y-168718819D01*
X109857435Y-168691042D01*
X104628196Y-163461803D01*
X104600419Y-163407286D01*
X104599200Y-163391799D01*
X104599200Y-153699499D01*
X104618107Y-153641308D01*
X104667607Y-153605344D01*
X104698200Y-153600499D01*
X106544861Y-153600499D01*
X106544864Y-153600499D01*
X106569991Y-153597585D01*
X106672765Y-153552206D01*
X106752206Y-153472765D01*
X106797585Y-153369991D01*
X106800500Y-153344865D01*
X106800499Y-151255136D01*
X106797585Y-151230009D01*
X106752206Y-151127235D01*
X106672765Y-151047794D01*
X106569991Y-151002415D01*
X106569990Y-151002414D01*
X106569988Y-151002414D01*
X106544869Y-150999500D01*
X106544865Y-150999500D01*
X104698200Y-150999500D01*
X104640009Y-150980593D01*
X104604045Y-150931093D01*
X104599200Y-150900500D01*
X104599200Y-142485501D01*
X104618107Y-142427310D01*
X104628196Y-142415497D01*
X106475100Y-140568593D01*
X109054159Y-137989533D01*
X109108674Y-137961758D01*
X109169106Y-137971329D01*
X109212371Y-138014594D01*
X109221942Y-138044050D01*
X109231522Y-138104531D01*
X109294780Y-138299219D01*
X109387712Y-138481609D01*
X109387714Y-138481613D01*
X109508029Y-138647213D01*
X109508031Y-138647215D01*
X109508034Y-138647219D01*
X109652781Y-138791966D01*
X109652784Y-138791968D01*
X109652786Y-138791970D01*
X109818386Y-138912285D01*
X109818390Y-138912287D01*
X110000781Y-139005220D01*
X110195466Y-139068477D01*
X110195467Y-139068477D01*
X110195470Y-139068478D01*
X110397645Y-139100500D01*
X110397648Y-139100500D01*
X110602355Y-139100500D01*
X110804529Y-139068478D01*
X110804530Y-139068477D01*
X110804534Y-139068477D01*
X110999219Y-139005220D01*
X111181610Y-138912287D01*
X111347219Y-138791966D01*
X111491966Y-138647219D01*
X111612287Y-138481610D01*
X111705220Y-138299219D01*
X111768477Y-138104534D01*
X111778057Y-138044050D01*
X111800500Y-137902355D01*
X111800500Y-137697644D01*
X111768478Y-137495470D01*
X111768477Y-137495466D01*
X111705220Y-137300781D01*
X111690750Y-137272384D01*
X111681179Y-137211953D01*
X111708956Y-137157436D01*
X111708956Y-137157435D01*
X115262796Y-133603594D01*
X115317313Y-133575818D01*
X115377745Y-133585389D01*
G37*
%TD.AperFunction*%
%TA.AperFunction,Conductor*%
G36*
X122585819Y-115582297D02*
G01*
X122668436Y-115614877D01*
X122756898Y-115625500D01*
X123036900Y-115625500D01*
X123095091Y-115644407D01*
X123131055Y-115693907D01*
X123135900Y-115724500D01*
X123135900Y-116182168D01*
X123116993Y-116240359D01*
X123106906Y-116252169D01*
X123095892Y-116263183D01*
X123095887Y-116263189D01*
X123023417Y-116388710D01*
X122985900Y-116528725D01*
X122985900Y-116673674D01*
X123023417Y-116813689D01*
X123095887Y-116939210D01*
X123095889Y-116939212D01*
X123095891Y-116939215D01*
X123198385Y-117041709D01*
X123198387Y-117041710D01*
X123198389Y-117041712D01*
X123323911Y-117114182D01*
X123323912Y-117114182D01*
X123323915Y-117114184D01*
X123463925Y-117151700D01*
X123479499Y-117151700D01*
X123537690Y-117170607D01*
X123549503Y-117180696D01*
X124220504Y-117851697D01*
X124248281Y-117906214D01*
X124249500Y-117921701D01*
X124249500Y-118512945D01*
X124239441Y-118556425D01*
X124210135Y-118616371D01*
X124210134Y-118616373D01*
X124210134Y-118616375D01*
X124199500Y-118689364D01*
X124199500Y-119635636D01*
X124207270Y-119688965D01*
X124210134Y-119708626D01*
X124244395Y-119778707D01*
X124265174Y-119821211D01*
X124353789Y-119909826D01*
X124466375Y-119964866D01*
X124539364Y-119975500D01*
X124539367Y-119975500D01*
X124760632Y-119975500D01*
X124760636Y-119975500D01*
X124833625Y-119964866D01*
X124931520Y-119917007D01*
X124992101Y-119908437D01*
X125018478Y-119917007D01*
X125116375Y-119964866D01*
X125189364Y-119975500D01*
X125189367Y-119975500D01*
X125410632Y-119975500D01*
X125410636Y-119975500D01*
X125483625Y-119964866D01*
X125581520Y-119917007D01*
X125642101Y-119908437D01*
X125668478Y-119917007D01*
X125766375Y-119964866D01*
X125839364Y-119975500D01*
X125925500Y-119975500D01*
X125983691Y-119994407D01*
X126019655Y-120043907D01*
X126024500Y-120074500D01*
X126024500Y-120160636D01*
X126025777Y-120169400D01*
X126035134Y-120233626D01*
X126035135Y-120233628D01*
X126082991Y-120331520D01*
X126091562Y-120392102D01*
X126082991Y-120418480D01*
X126035135Y-120516371D01*
X126035134Y-120516373D01*
X126035134Y-120516375D01*
X126024500Y-120589364D01*
X126024500Y-120810636D01*
X126026227Y-120822489D01*
X126035134Y-120883626D01*
X126035135Y-120883628D01*
X126082991Y-120981520D01*
X126091562Y-121042102D01*
X126082991Y-121068480D01*
X126035135Y-121166371D01*
X126035134Y-121166373D01*
X126035134Y-121166375D01*
X126024500Y-121239364D01*
X126024500Y-121460636D01*
X126025643Y-121468478D01*
X126035134Y-121533626D01*
X126035135Y-121533628D01*
X126082991Y-121631520D01*
X126091562Y-121692102D01*
X126082991Y-121718480D01*
X126035135Y-121816371D01*
X126035134Y-121816373D01*
X126035134Y-121816375D01*
X126024500Y-121889364D01*
X126024500Y-122110636D01*
X126025675Y-122118699D01*
X126035134Y-122183626D01*
X126035135Y-122183628D01*
X126082991Y-122281520D01*
X126091562Y-122342102D01*
X126082991Y-122368480D01*
X126035135Y-122466371D01*
X126035134Y-122466373D01*
X126035134Y-122466375D01*
X126024500Y-122539364D01*
X126024500Y-122760636D01*
X126033007Y-122819027D01*
X126035134Y-122833626D01*
X126035135Y-122833628D01*
X126082991Y-122931520D01*
X126091562Y-122992102D01*
X126082991Y-123018480D01*
X126035135Y-123116371D01*
X126035134Y-123116373D01*
X126035134Y-123116375D01*
X126024500Y-123189364D01*
X126024500Y-123410636D01*
X126028793Y-123440100D01*
X126035134Y-123483626D01*
X126035135Y-123483628D01*
X126082991Y-123581520D01*
X126091562Y-123642102D01*
X126082991Y-123668480D01*
X126035135Y-123766371D01*
X126035134Y-123766373D01*
X126030880Y-123795570D01*
X126024989Y-123836013D01*
X126024500Y-123839367D01*
X126024500Y-123925500D01*
X126005593Y-123983691D01*
X125956093Y-124019655D01*
X125925500Y-124024500D01*
X125839364Y-124024500D01*
X125795570Y-124030880D01*
X125766373Y-124035134D01*
X125766371Y-124035135D01*
X125668480Y-124082991D01*
X125607898Y-124091562D01*
X125581520Y-124082991D01*
X125483628Y-124035135D01*
X125483626Y-124035134D01*
X125465377Y-124032475D01*
X125410636Y-124024500D01*
X125189364Y-124024500D01*
X125145570Y-124030880D01*
X125116373Y-124035134D01*
X125116371Y-124035135D01*
X125018480Y-124082991D01*
X124957898Y-124091562D01*
X124931520Y-124082991D01*
X124833628Y-124035135D01*
X124833626Y-124035134D01*
X124815377Y-124032475D01*
X124760636Y-124024500D01*
X124539364Y-124024500D01*
X124495570Y-124030880D01*
X124466373Y-124035134D01*
X124466371Y-124035135D01*
X124368480Y-124082991D01*
X124307898Y-124091562D01*
X124281520Y-124082991D01*
X124183628Y-124035135D01*
X124183626Y-124035134D01*
X124165377Y-124032475D01*
X124110636Y-124024500D01*
X123889364Y-124024500D01*
X123845570Y-124030880D01*
X123816373Y-124035134D01*
X123816371Y-124035135D01*
X123718480Y-124082991D01*
X123657898Y-124091562D01*
X123631520Y-124082991D01*
X123533628Y-124035135D01*
X123533626Y-124035134D01*
X123515377Y-124032475D01*
X123460636Y-124024500D01*
X123239364Y-124024500D01*
X123195570Y-124030880D01*
X123166373Y-124035134D01*
X123053790Y-124090173D01*
X122965173Y-124178790D01*
X122910134Y-124291373D01*
X122910134Y-124291375D01*
X122899500Y-124364364D01*
X122899500Y-125310636D01*
X122902587Y-125331822D01*
X122910134Y-125383626D01*
X122932611Y-125429603D01*
X122965174Y-125496211D01*
X123053789Y-125584826D01*
X123166375Y-125639866D01*
X123239364Y-125650500D01*
X123239367Y-125650500D01*
X123460632Y-125650500D01*
X123460636Y-125650500D01*
X123486228Y-125646771D01*
X123546536Y-125657092D01*
X123589260Y-125700889D01*
X123599500Y-125744737D01*
X123599500Y-140044799D01*
X123580593Y-140102990D01*
X123570504Y-140114803D01*
X117789989Y-145895317D01*
X117735472Y-145923094D01*
X117675040Y-145913523D01*
X117631775Y-145870258D01*
X117623346Y-145844309D01*
X117623080Y-145844374D01*
X117622265Y-145840981D01*
X117622202Y-145840786D01*
X117622171Y-145840591D01*
X117566211Y-145668362D01*
X117566211Y-145668361D01*
X117483996Y-145507006D01*
X117377553Y-145360499D01*
X117249501Y-145232447D01*
X117102994Y-145126004D01*
X117102993Y-145126003D01*
X117102991Y-145126002D01*
X116941637Y-145043788D01*
X116769406Y-144987828D01*
X116590549Y-144959500D01*
X116590546Y-144959500D01*
X116409454Y-144959500D01*
X116409451Y-144959500D01*
X116230593Y-144987828D01*
X116058362Y-145043788D01*
X115904445Y-145122213D01*
X115844013Y-145131784D01*
X115789496Y-145104007D01*
X115761719Y-145049490D01*
X115760500Y-145034003D01*
X115760500Y-142029899D01*
X115779407Y-141971708D01*
X115789490Y-141959901D01*
X122295910Y-135453481D01*
X122295913Y-135453480D01*
X122370480Y-135378913D01*
X122423207Y-135287587D01*
X122450501Y-135185727D01*
X122450501Y-135080273D01*
X122450501Y-135074211D01*
X122450500Y-135074193D01*
X122450500Y-126346331D01*
X122469407Y-126288140D01*
X122479490Y-126276333D01*
X122490509Y-126265315D01*
X122510447Y-126230781D01*
X122562982Y-126139789D01*
X122562982Y-126139787D01*
X122562984Y-126139785D01*
X122600500Y-125999775D01*
X122600500Y-125854825D01*
X122562984Y-125714815D01*
X122562982Y-125714812D01*
X122562982Y-125714810D01*
X122490512Y-125589289D01*
X122490507Y-125589283D01*
X122479494Y-125578269D01*
X122475868Y-125571153D01*
X122469407Y-125566459D01*
X122462242Y-125544409D01*
X122451718Y-125523752D01*
X122450500Y-125508268D01*
X122450500Y-125487053D01*
X122460559Y-125443573D01*
X122489866Y-125383625D01*
X122500500Y-125310636D01*
X122500500Y-124364364D01*
X122489866Y-124291375D01*
X122434826Y-124178789D01*
X122346211Y-124090174D01*
X122233625Y-124035134D01*
X122233626Y-124035134D01*
X122215377Y-124032475D01*
X122160636Y-124024500D01*
X122160633Y-124024500D01*
X122074500Y-124024500D01*
X122016309Y-124005593D01*
X121980345Y-123956093D01*
X121975500Y-123925500D01*
X121975500Y-123839367D01*
X121975500Y-123839364D01*
X121964866Y-123766375D01*
X121917007Y-123668479D01*
X121908437Y-123607899D01*
X121917008Y-123581519D01*
X121964866Y-123483625D01*
X121975500Y-123410636D01*
X121975500Y-123189364D01*
X121964866Y-123116375D01*
X121917007Y-123018479D01*
X121908437Y-122957899D01*
X121917008Y-122931519D01*
X121964866Y-122833625D01*
X121975500Y-122760636D01*
X121975500Y-122539364D01*
X121964866Y-122466375D01*
X121917007Y-122368479D01*
X121908437Y-122307899D01*
X121917008Y-122281519D01*
X121964866Y-122183625D01*
X121975500Y-122110636D01*
X121975500Y-121889364D01*
X121964866Y-121816375D01*
X121917007Y-121718479D01*
X121908437Y-121657899D01*
X121917008Y-121631519D01*
X121931923Y-121601010D01*
X121964866Y-121533625D01*
X121975500Y-121460636D01*
X121975500Y-121239364D01*
X121964866Y-121166375D01*
X121917007Y-121068479D01*
X121908437Y-121007899D01*
X121917008Y-120981519D01*
X121931804Y-120951254D01*
X121964866Y-120883625D01*
X121975500Y-120810636D01*
X121975500Y-120589364D01*
X121964866Y-120516375D01*
X121917007Y-120418479D01*
X121908437Y-120357899D01*
X121917008Y-120331519D01*
X121964866Y-120233625D01*
X121975500Y-120160636D01*
X121975500Y-120074500D01*
X121994407Y-120016309D01*
X122043907Y-119980345D01*
X122074500Y-119975500D01*
X122160632Y-119975500D01*
X122160636Y-119975500D01*
X122233625Y-119964866D01*
X122346211Y-119909826D01*
X122434826Y-119821211D01*
X122489866Y-119708625D01*
X122500500Y-119635636D01*
X122500500Y-118689364D01*
X122489866Y-118616375D01*
X122487724Y-118611993D01*
X122460559Y-118556425D01*
X122450500Y-118512945D01*
X122450500Y-115674394D01*
X122469407Y-115616203D01*
X122518907Y-115580239D01*
X122580093Y-115580239D01*
X122585819Y-115582297D01*
G37*
%TD.AperFunction*%
%TA.AperFunction,Conductor*%
G36*
X119907545Y-123494891D02*
G01*
X119950810Y-123538156D01*
X119961600Y-123583101D01*
X119961600Y-135996999D01*
X119942693Y-136055190D01*
X119932604Y-136067003D01*
X114648016Y-141351591D01*
X114595294Y-141442907D01*
X114584190Y-141484345D01*
X114575434Y-141517027D01*
X114575434Y-141517028D01*
X114575433Y-141517027D01*
X114568000Y-141544769D01*
X114568000Y-142800500D01*
X114549093Y-142858691D01*
X114499593Y-142894655D01*
X114469000Y-142899500D01*
X112811400Y-142899500D01*
X112753209Y-142880593D01*
X112717245Y-142831093D01*
X112712400Y-142800500D01*
X112712400Y-142406900D01*
X112731307Y-142348709D01*
X112741390Y-142336902D01*
X116874680Y-138203613D01*
X116927407Y-138112288D01*
X116954700Y-138010427D01*
X116954700Y-137904973D01*
X116954700Y-126392001D01*
X116973607Y-126333810D01*
X116983696Y-126321997D01*
X119792596Y-123513097D01*
X119847113Y-123485320D01*
X119907545Y-123494891D01*
G37*
%TD.AperFunction*%
%TD*%
M02*
