%TF.GenerationSoftware,KiCad,Pcbnew,10.0.3*%
%TF.CreationDate,2026-07-11T15:12:05+02:00*%
%TF.ProjectId,musicbrain-enc5front,6d757369-6362-4726-9169-6e2d656e6335,2.0*%
%TF.SameCoordinates,Original*%
%TF.FileFunction,Legend,Top*%
%TF.FilePolarity,Positive*%
%FSLAX46Y46*%
G04 Gerber Fmt 4.6, Leading zero omitted, Abs format (unit mm)*
G04 Created by KiCad (PCBNEW 10.0.3) date 2026-07-11 15:12:05*
%MOMM*%
%LPD*%
G01*
G04 APERTURE LIST*
%ADD10C,0.150000*%
%ADD11C,0.120000*%
G04 APERTURE END LIST*
D10*
X129354819Y-168476191D02*
X128688152Y-168476191D01*
X128783390Y-168476191D02*
X128735771Y-168428572D01*
X128735771Y-168428572D02*
X128688152Y-168333334D01*
X128688152Y-168333334D02*
X128688152Y-168190477D01*
X128688152Y-168190477D02*
X128735771Y-168095239D01*
X128735771Y-168095239D02*
X128831009Y-168047620D01*
X128831009Y-168047620D02*
X129354819Y-168047620D01*
X128831009Y-168047620D02*
X128735771Y-168000001D01*
X128735771Y-168000001D02*
X128688152Y-167904763D01*
X128688152Y-167904763D02*
X128688152Y-167761906D01*
X128688152Y-167761906D02*
X128735771Y-167666667D01*
X128735771Y-167666667D02*
X128831009Y-167619048D01*
X128831009Y-167619048D02*
X129354819Y-167619048D01*
X128688152Y-166714287D02*
X129354819Y-166714287D01*
X128688152Y-167142858D02*
X129211961Y-167142858D01*
X129211961Y-167142858D02*
X129307200Y-167095239D01*
X129307200Y-167095239D02*
X129354819Y-167000001D01*
X129354819Y-167000001D02*
X129354819Y-166857144D01*
X129354819Y-166857144D02*
X129307200Y-166761906D01*
X129307200Y-166761906D02*
X129259580Y-166714287D01*
X129307200Y-166285715D02*
X129354819Y-166190477D01*
X129354819Y-166190477D02*
X129354819Y-166000001D01*
X129354819Y-166000001D02*
X129307200Y-165904763D01*
X129307200Y-165904763D02*
X129211961Y-165857144D01*
X129211961Y-165857144D02*
X129164342Y-165857144D01*
X129164342Y-165857144D02*
X129069104Y-165904763D01*
X129069104Y-165904763D02*
X129021485Y-166000001D01*
X129021485Y-166000001D02*
X129021485Y-166142858D01*
X129021485Y-166142858D02*
X128973866Y-166238096D01*
X128973866Y-166238096D02*
X128878628Y-166285715D01*
X128878628Y-166285715D02*
X128831009Y-166285715D01*
X128831009Y-166285715D02*
X128735771Y-166238096D01*
X128735771Y-166238096D02*
X128688152Y-166142858D01*
X128688152Y-166142858D02*
X128688152Y-166000001D01*
X128688152Y-166000001D02*
X128735771Y-165904763D01*
X129354819Y-165428572D02*
X128688152Y-165428572D01*
X128354819Y-165428572D02*
X128402438Y-165476191D01*
X128402438Y-165476191D02*
X128450057Y-165428572D01*
X128450057Y-165428572D02*
X128402438Y-165380953D01*
X128402438Y-165380953D02*
X128354819Y-165428572D01*
X128354819Y-165428572D02*
X128450057Y-165428572D01*
X129307200Y-164523811D02*
X129354819Y-164619049D01*
X129354819Y-164619049D02*
X129354819Y-164809525D01*
X129354819Y-164809525D02*
X129307200Y-164904763D01*
X129307200Y-164904763D02*
X129259580Y-164952382D01*
X129259580Y-164952382D02*
X129164342Y-165000001D01*
X129164342Y-165000001D02*
X128878628Y-165000001D01*
X128878628Y-165000001D02*
X128783390Y-164952382D01*
X128783390Y-164952382D02*
X128735771Y-164904763D01*
X128735771Y-164904763D02*
X128688152Y-164809525D01*
X128688152Y-164809525D02*
X128688152Y-164619049D01*
X128688152Y-164619049D02*
X128735771Y-164523811D01*
X129354819Y-164095239D02*
X128354819Y-164095239D01*
X128735771Y-164095239D02*
X128688152Y-164000001D01*
X128688152Y-164000001D02*
X128688152Y-163809525D01*
X128688152Y-163809525D02*
X128735771Y-163714287D01*
X128735771Y-163714287D02*
X128783390Y-163666668D01*
X128783390Y-163666668D02*
X128878628Y-163619049D01*
X128878628Y-163619049D02*
X129164342Y-163619049D01*
X129164342Y-163619049D02*
X129259580Y-163666668D01*
X129259580Y-163666668D02*
X129307200Y-163714287D01*
X129307200Y-163714287D02*
X129354819Y-163809525D01*
X129354819Y-163809525D02*
X129354819Y-164000001D01*
X129354819Y-164000001D02*
X129307200Y-164095239D01*
X129354819Y-163190477D02*
X128688152Y-163190477D01*
X128878628Y-163190477D02*
X128783390Y-163142858D01*
X128783390Y-163142858D02*
X128735771Y-163095239D01*
X128735771Y-163095239D02*
X128688152Y-163000001D01*
X128688152Y-163000001D02*
X128688152Y-162904763D01*
X129354819Y-162142858D02*
X128831009Y-162142858D01*
X128831009Y-162142858D02*
X128735771Y-162190477D01*
X128735771Y-162190477D02*
X128688152Y-162285715D01*
X128688152Y-162285715D02*
X128688152Y-162476191D01*
X128688152Y-162476191D02*
X128735771Y-162571429D01*
X129307200Y-162142858D02*
X129354819Y-162238096D01*
X129354819Y-162238096D02*
X129354819Y-162476191D01*
X129354819Y-162476191D02*
X129307200Y-162571429D01*
X129307200Y-162571429D02*
X129211961Y-162619048D01*
X129211961Y-162619048D02*
X129116723Y-162619048D01*
X129116723Y-162619048D02*
X129021485Y-162571429D01*
X129021485Y-162571429D02*
X128973866Y-162476191D01*
X128973866Y-162476191D02*
X128973866Y-162238096D01*
X128973866Y-162238096D02*
X128926247Y-162142858D01*
X129354819Y-161666667D02*
X128688152Y-161666667D01*
X128354819Y-161666667D02*
X128402438Y-161714286D01*
X128402438Y-161714286D02*
X128450057Y-161666667D01*
X128450057Y-161666667D02*
X128402438Y-161619048D01*
X128402438Y-161619048D02*
X128354819Y-161666667D01*
X128354819Y-161666667D02*
X128450057Y-161666667D01*
X128688152Y-161190477D02*
X129354819Y-161190477D01*
X128783390Y-161190477D02*
X128735771Y-161142858D01*
X128735771Y-161142858D02*
X128688152Y-161047620D01*
X128688152Y-161047620D02*
X128688152Y-160904763D01*
X128688152Y-160904763D02*
X128735771Y-160809525D01*
X128735771Y-160809525D02*
X128831009Y-160761906D01*
X128831009Y-160761906D02*
X129354819Y-160761906D01*
X129259580Y-160285715D02*
X129307200Y-160238096D01*
X129307200Y-160238096D02*
X129354819Y-160285715D01*
X129354819Y-160285715D02*
X129307200Y-160333334D01*
X129307200Y-160333334D02*
X129259580Y-160285715D01*
X129259580Y-160285715D02*
X129354819Y-160285715D01*
X128688152Y-159809525D02*
X129354819Y-159809525D01*
X128783390Y-159809525D02*
X128735771Y-159761906D01*
X128735771Y-159761906D02*
X128688152Y-159666668D01*
X128688152Y-159666668D02*
X128688152Y-159523811D01*
X128688152Y-159523811D02*
X128735771Y-159428573D01*
X128735771Y-159428573D02*
X128831009Y-159380954D01*
X128831009Y-159380954D02*
X129354819Y-159380954D01*
X129354819Y-158761906D02*
X129307200Y-158857144D01*
X129307200Y-158857144D02*
X129211961Y-158904763D01*
X129211961Y-158904763D02*
X128354819Y-158904763D01*
X128307200Y-157666668D02*
X129592914Y-158523810D01*
X129354819Y-157333334D02*
X128354819Y-157333334D01*
X129354819Y-156904763D02*
X128831009Y-156904763D01*
X128831009Y-156904763D02*
X128735771Y-156952382D01*
X128735771Y-156952382D02*
X128688152Y-157047620D01*
X128688152Y-157047620D02*
X128688152Y-157190477D01*
X128688152Y-157190477D02*
X128735771Y-157285715D01*
X128735771Y-157285715D02*
X128783390Y-157333334D01*
X128688152Y-156523810D02*
X129354819Y-156333334D01*
X129354819Y-156333334D02*
X128878628Y-156142858D01*
X128878628Y-156142858D02*
X129354819Y-155952382D01*
X129354819Y-155952382D02*
X128688152Y-155761906D01*
X128307200Y-154666668D02*
X129592914Y-155523810D01*
X129307200Y-153952382D02*
X129354819Y-154047620D01*
X129354819Y-154047620D02*
X129354819Y-154238096D01*
X129354819Y-154238096D02*
X129307200Y-154333334D01*
X129307200Y-154333334D02*
X129211961Y-154380953D01*
X129211961Y-154380953D02*
X128831009Y-154380953D01*
X128831009Y-154380953D02*
X128735771Y-154333334D01*
X128735771Y-154333334D02*
X128688152Y-154238096D01*
X128688152Y-154238096D02*
X128688152Y-154047620D01*
X128688152Y-154047620D02*
X128735771Y-153952382D01*
X128735771Y-153952382D02*
X128831009Y-153904763D01*
X128831009Y-153904763D02*
X128926247Y-153904763D01*
X128926247Y-153904763D02*
X129021485Y-154380953D01*
X128688152Y-153476191D02*
X129354819Y-153476191D01*
X128783390Y-153476191D02*
X128735771Y-153428572D01*
X128735771Y-153428572D02*
X128688152Y-153333334D01*
X128688152Y-153333334D02*
X128688152Y-153190477D01*
X128688152Y-153190477D02*
X128735771Y-153095239D01*
X128735771Y-153095239D02*
X128831009Y-153047620D01*
X128831009Y-153047620D02*
X129354819Y-153047620D01*
X129307200Y-152142858D02*
X129354819Y-152238096D01*
X129354819Y-152238096D02*
X129354819Y-152428572D01*
X129354819Y-152428572D02*
X129307200Y-152523810D01*
X129307200Y-152523810D02*
X129259580Y-152571429D01*
X129259580Y-152571429D02*
X129164342Y-152619048D01*
X129164342Y-152619048D02*
X128878628Y-152619048D01*
X128878628Y-152619048D02*
X128783390Y-152571429D01*
X128783390Y-152571429D02*
X128735771Y-152523810D01*
X128735771Y-152523810D02*
X128688152Y-152428572D01*
X128688152Y-152428572D02*
X128688152Y-152238096D01*
X128688152Y-152238096D02*
X128735771Y-152142858D01*
X128354819Y-151238096D02*
X128354819Y-151714286D01*
X128354819Y-151714286D02*
X128831009Y-151761905D01*
X128831009Y-151761905D02*
X128783390Y-151714286D01*
X128783390Y-151714286D02*
X128735771Y-151619048D01*
X128735771Y-151619048D02*
X128735771Y-151380953D01*
X128735771Y-151380953D02*
X128783390Y-151285715D01*
X128783390Y-151285715D02*
X128831009Y-151238096D01*
X128831009Y-151238096D02*
X128926247Y-151190477D01*
X128926247Y-151190477D02*
X129164342Y-151190477D01*
X129164342Y-151190477D02*
X129259580Y-151238096D01*
X129259580Y-151238096D02*
X129307200Y-151285715D01*
X129307200Y-151285715D02*
X129354819Y-151380953D01*
X129354819Y-151380953D02*
X129354819Y-151619048D01*
X129354819Y-151619048D02*
X129307200Y-151714286D01*
X129307200Y-151714286D02*
X129259580Y-151761905D01*
X128688152Y-150904762D02*
X128688152Y-150523810D01*
X129354819Y-150761905D02*
X128497676Y-150761905D01*
X128497676Y-150761905D02*
X128402438Y-150714286D01*
X128402438Y-150714286D02*
X128354819Y-150619048D01*
X128354819Y-150619048D02*
X128354819Y-150523810D01*
X129354819Y-150190476D02*
X128688152Y-150190476D01*
X128878628Y-150190476D02*
X128783390Y-150142857D01*
X128783390Y-150142857D02*
X128735771Y-150095238D01*
X128735771Y-150095238D02*
X128688152Y-150000000D01*
X128688152Y-150000000D02*
X128688152Y-149904762D01*
X129354819Y-149428571D02*
X129307200Y-149523809D01*
X129307200Y-149523809D02*
X129259580Y-149571428D01*
X129259580Y-149571428D02*
X129164342Y-149619047D01*
X129164342Y-149619047D02*
X128878628Y-149619047D01*
X128878628Y-149619047D02*
X128783390Y-149571428D01*
X128783390Y-149571428D02*
X128735771Y-149523809D01*
X128735771Y-149523809D02*
X128688152Y-149428571D01*
X128688152Y-149428571D02*
X128688152Y-149285714D01*
X128688152Y-149285714D02*
X128735771Y-149190476D01*
X128735771Y-149190476D02*
X128783390Y-149142857D01*
X128783390Y-149142857D02*
X128878628Y-149095238D01*
X128878628Y-149095238D02*
X129164342Y-149095238D01*
X129164342Y-149095238D02*
X129259580Y-149142857D01*
X129259580Y-149142857D02*
X129307200Y-149190476D01*
X129307200Y-149190476D02*
X129354819Y-149285714D01*
X129354819Y-149285714D02*
X129354819Y-149428571D01*
X128688152Y-148666666D02*
X129354819Y-148666666D01*
X128783390Y-148666666D02*
X128735771Y-148619047D01*
X128735771Y-148619047D02*
X128688152Y-148523809D01*
X128688152Y-148523809D02*
X128688152Y-148380952D01*
X128688152Y-148380952D02*
X128735771Y-148285714D01*
X128735771Y-148285714D02*
X128831009Y-148238095D01*
X128831009Y-148238095D02*
X129354819Y-148238095D01*
X128688152Y-147904761D02*
X128688152Y-147523809D01*
X128354819Y-147761904D02*
X129211961Y-147761904D01*
X129211961Y-147761904D02*
X129307200Y-147714285D01*
X129307200Y-147714285D02*
X129354819Y-147619047D01*
X129354819Y-147619047D02*
X129354819Y-147523809D01*
X129354819Y-146428570D02*
X128688152Y-146428570D01*
X128878628Y-146428570D02*
X128783390Y-146380951D01*
X128783390Y-146380951D02*
X128735771Y-146333332D01*
X128735771Y-146333332D02*
X128688152Y-146238094D01*
X128688152Y-146238094D02*
X128688152Y-146142856D01*
X129307200Y-145428570D02*
X129354819Y-145523808D01*
X129354819Y-145523808D02*
X129354819Y-145714284D01*
X129354819Y-145714284D02*
X129307200Y-145809522D01*
X129307200Y-145809522D02*
X129211961Y-145857141D01*
X129211961Y-145857141D02*
X128831009Y-145857141D01*
X128831009Y-145857141D02*
X128735771Y-145809522D01*
X128735771Y-145809522D02*
X128688152Y-145714284D01*
X128688152Y-145714284D02*
X128688152Y-145523808D01*
X128688152Y-145523808D02*
X128735771Y-145428570D01*
X128735771Y-145428570D02*
X128831009Y-145380951D01*
X128831009Y-145380951D02*
X128926247Y-145380951D01*
X128926247Y-145380951D02*
X129021485Y-145857141D01*
X128688152Y-145047617D02*
X129354819Y-144809522D01*
X129354819Y-144809522D02*
X128688152Y-144571427D01*
X128450057Y-143476188D02*
X128402438Y-143428569D01*
X128402438Y-143428569D02*
X128354819Y-143333331D01*
X128354819Y-143333331D02*
X128354819Y-143095236D01*
X128354819Y-143095236D02*
X128402438Y-142999998D01*
X128402438Y-142999998D02*
X128450057Y-142952379D01*
X128450057Y-142952379D02*
X128545295Y-142904760D01*
X128545295Y-142904760D02*
X128640533Y-142904760D01*
X128640533Y-142904760D02*
X128783390Y-142952379D01*
X128783390Y-142952379D02*
X129354819Y-143523807D01*
X129354819Y-143523807D02*
X129354819Y-142904760D01*
X129259580Y-142476188D02*
X129307200Y-142428569D01*
X129307200Y-142428569D02*
X129354819Y-142476188D01*
X129354819Y-142476188D02*
X129307200Y-142523807D01*
X129307200Y-142523807D02*
X129259580Y-142476188D01*
X129259580Y-142476188D02*
X129354819Y-142476188D01*
X128354819Y-141809522D02*
X128354819Y-141714284D01*
X128354819Y-141714284D02*
X128402438Y-141619046D01*
X128402438Y-141619046D02*
X128450057Y-141571427D01*
X128450057Y-141571427D02*
X128545295Y-141523808D01*
X128545295Y-141523808D02*
X128735771Y-141476189D01*
X128735771Y-141476189D02*
X128973866Y-141476189D01*
X128973866Y-141476189D02*
X129164342Y-141523808D01*
X129164342Y-141523808D02*
X129259580Y-141571427D01*
X129259580Y-141571427D02*
X129307200Y-141619046D01*
X129307200Y-141619046D02*
X129354819Y-141714284D01*
X129354819Y-141714284D02*
X129354819Y-141809522D01*
X129354819Y-141809522D02*
X129307200Y-141904760D01*
X129307200Y-141904760D02*
X129259580Y-141952379D01*
X129259580Y-141952379D02*
X129164342Y-141999998D01*
X129164342Y-141999998D02*
X128973866Y-142047617D01*
X128973866Y-142047617D02*
X128735771Y-142047617D01*
X128735771Y-142047617D02*
X128545295Y-141999998D01*
X128545295Y-141999998D02*
X128450057Y-141952379D01*
X128450057Y-141952379D02*
X128402438Y-141904760D01*
X128402438Y-141904760D02*
X128354819Y-141809522D01*
X99466667Y-114707200D02*
X99609524Y-114754819D01*
X99609524Y-114754819D02*
X99847619Y-114754819D01*
X99847619Y-114754819D02*
X99942857Y-114707200D01*
X99942857Y-114707200D02*
X99990476Y-114659580D01*
X99990476Y-114659580D02*
X100038095Y-114564342D01*
X100038095Y-114564342D02*
X100038095Y-114469104D01*
X100038095Y-114469104D02*
X99990476Y-114373866D01*
X99990476Y-114373866D02*
X99942857Y-114326247D01*
X99942857Y-114326247D02*
X99847619Y-114278628D01*
X99847619Y-114278628D02*
X99657143Y-114231009D01*
X99657143Y-114231009D02*
X99561905Y-114183390D01*
X99561905Y-114183390D02*
X99514286Y-114135771D01*
X99514286Y-114135771D02*
X99466667Y-114040533D01*
X99466667Y-114040533D02*
X99466667Y-113945295D01*
X99466667Y-113945295D02*
X99514286Y-113850057D01*
X99514286Y-113850057D02*
X99561905Y-113802438D01*
X99561905Y-113802438D02*
X99657143Y-113754819D01*
X99657143Y-113754819D02*
X99895238Y-113754819D01*
X99895238Y-113754819D02*
X100038095Y-113802438D01*
X100371429Y-113754819D02*
X100609524Y-114754819D01*
X100609524Y-114754819D02*
X100800000Y-114040533D01*
X100800000Y-114040533D02*
X100990476Y-114754819D01*
X100990476Y-114754819D02*
X101228572Y-113754819D01*
X102133333Y-114754819D02*
X101561905Y-114754819D01*
X101847619Y-114754819D02*
X101847619Y-113754819D01*
X101847619Y-113754819D02*
X101752381Y-113897676D01*
X101752381Y-113897676D02*
X101657143Y-113992914D01*
X101657143Y-113992914D02*
X101561905Y-114040533D01*
X99466667Y-132307200D02*
X99609524Y-132354819D01*
X99609524Y-132354819D02*
X99847619Y-132354819D01*
X99847619Y-132354819D02*
X99942857Y-132307200D01*
X99942857Y-132307200D02*
X99990476Y-132259580D01*
X99990476Y-132259580D02*
X100038095Y-132164342D01*
X100038095Y-132164342D02*
X100038095Y-132069104D01*
X100038095Y-132069104D02*
X99990476Y-131973866D01*
X99990476Y-131973866D02*
X99942857Y-131926247D01*
X99942857Y-131926247D02*
X99847619Y-131878628D01*
X99847619Y-131878628D02*
X99657143Y-131831009D01*
X99657143Y-131831009D02*
X99561905Y-131783390D01*
X99561905Y-131783390D02*
X99514286Y-131735771D01*
X99514286Y-131735771D02*
X99466667Y-131640533D01*
X99466667Y-131640533D02*
X99466667Y-131545295D01*
X99466667Y-131545295D02*
X99514286Y-131450057D01*
X99514286Y-131450057D02*
X99561905Y-131402438D01*
X99561905Y-131402438D02*
X99657143Y-131354819D01*
X99657143Y-131354819D02*
X99895238Y-131354819D01*
X99895238Y-131354819D02*
X100038095Y-131402438D01*
X100371429Y-131354819D02*
X100609524Y-132354819D01*
X100609524Y-132354819D02*
X100800000Y-131640533D01*
X100800000Y-131640533D02*
X100990476Y-132354819D01*
X100990476Y-132354819D02*
X101228572Y-131354819D01*
X101561905Y-131450057D02*
X101609524Y-131402438D01*
X101609524Y-131402438D02*
X101704762Y-131354819D01*
X101704762Y-131354819D02*
X101942857Y-131354819D01*
X101942857Y-131354819D02*
X102038095Y-131402438D01*
X102038095Y-131402438D02*
X102085714Y-131450057D01*
X102085714Y-131450057D02*
X102133333Y-131545295D01*
X102133333Y-131545295D02*
X102133333Y-131640533D01*
X102133333Y-131640533D02*
X102085714Y-131783390D01*
X102085714Y-131783390D02*
X101514286Y-132354819D01*
X101514286Y-132354819D02*
X102133333Y-132354819D01*
X99466667Y-149907200D02*
X99609524Y-149954819D01*
X99609524Y-149954819D02*
X99847619Y-149954819D01*
X99847619Y-149954819D02*
X99942857Y-149907200D01*
X99942857Y-149907200D02*
X99990476Y-149859580D01*
X99990476Y-149859580D02*
X100038095Y-149764342D01*
X100038095Y-149764342D02*
X100038095Y-149669104D01*
X100038095Y-149669104D02*
X99990476Y-149573866D01*
X99990476Y-149573866D02*
X99942857Y-149526247D01*
X99942857Y-149526247D02*
X99847619Y-149478628D01*
X99847619Y-149478628D02*
X99657143Y-149431009D01*
X99657143Y-149431009D02*
X99561905Y-149383390D01*
X99561905Y-149383390D02*
X99514286Y-149335771D01*
X99514286Y-149335771D02*
X99466667Y-149240533D01*
X99466667Y-149240533D02*
X99466667Y-149145295D01*
X99466667Y-149145295D02*
X99514286Y-149050057D01*
X99514286Y-149050057D02*
X99561905Y-149002438D01*
X99561905Y-149002438D02*
X99657143Y-148954819D01*
X99657143Y-148954819D02*
X99895238Y-148954819D01*
X99895238Y-148954819D02*
X100038095Y-149002438D01*
X100371429Y-148954819D02*
X100609524Y-149954819D01*
X100609524Y-149954819D02*
X100800000Y-149240533D01*
X100800000Y-149240533D02*
X100990476Y-149954819D01*
X100990476Y-149954819D02*
X101228572Y-148954819D01*
X101514286Y-148954819D02*
X102133333Y-148954819D01*
X102133333Y-148954819D02*
X101800000Y-149335771D01*
X101800000Y-149335771D02*
X101942857Y-149335771D01*
X101942857Y-149335771D02*
X102038095Y-149383390D01*
X102038095Y-149383390D02*
X102085714Y-149431009D01*
X102085714Y-149431009D02*
X102133333Y-149526247D01*
X102133333Y-149526247D02*
X102133333Y-149764342D01*
X102133333Y-149764342D02*
X102085714Y-149859580D01*
X102085714Y-149859580D02*
X102038095Y-149907200D01*
X102038095Y-149907200D02*
X101942857Y-149954819D01*
X101942857Y-149954819D02*
X101657143Y-149954819D01*
X101657143Y-149954819D02*
X101561905Y-149907200D01*
X101561905Y-149907200D02*
X101514286Y-149859580D01*
X99466667Y-167507200D02*
X99609524Y-167554819D01*
X99609524Y-167554819D02*
X99847619Y-167554819D01*
X99847619Y-167554819D02*
X99942857Y-167507200D01*
X99942857Y-167507200D02*
X99990476Y-167459580D01*
X99990476Y-167459580D02*
X100038095Y-167364342D01*
X100038095Y-167364342D02*
X100038095Y-167269104D01*
X100038095Y-167269104D02*
X99990476Y-167173866D01*
X99990476Y-167173866D02*
X99942857Y-167126247D01*
X99942857Y-167126247D02*
X99847619Y-167078628D01*
X99847619Y-167078628D02*
X99657143Y-167031009D01*
X99657143Y-167031009D02*
X99561905Y-166983390D01*
X99561905Y-166983390D02*
X99514286Y-166935771D01*
X99514286Y-166935771D02*
X99466667Y-166840533D01*
X99466667Y-166840533D02*
X99466667Y-166745295D01*
X99466667Y-166745295D02*
X99514286Y-166650057D01*
X99514286Y-166650057D02*
X99561905Y-166602438D01*
X99561905Y-166602438D02*
X99657143Y-166554819D01*
X99657143Y-166554819D02*
X99895238Y-166554819D01*
X99895238Y-166554819D02*
X100038095Y-166602438D01*
X100371429Y-166554819D02*
X100609524Y-167554819D01*
X100609524Y-167554819D02*
X100800000Y-166840533D01*
X100800000Y-166840533D02*
X100990476Y-167554819D01*
X100990476Y-167554819D02*
X101228572Y-166554819D01*
X102038095Y-166888152D02*
X102038095Y-167554819D01*
X101800000Y-166507200D02*
X101561905Y-167221485D01*
X101561905Y-167221485D02*
X102180952Y-167221485D01*
X99466667Y-185107200D02*
X99609524Y-185154819D01*
X99609524Y-185154819D02*
X99847619Y-185154819D01*
X99847619Y-185154819D02*
X99942857Y-185107200D01*
X99942857Y-185107200D02*
X99990476Y-185059580D01*
X99990476Y-185059580D02*
X100038095Y-184964342D01*
X100038095Y-184964342D02*
X100038095Y-184869104D01*
X100038095Y-184869104D02*
X99990476Y-184773866D01*
X99990476Y-184773866D02*
X99942857Y-184726247D01*
X99942857Y-184726247D02*
X99847619Y-184678628D01*
X99847619Y-184678628D02*
X99657143Y-184631009D01*
X99657143Y-184631009D02*
X99561905Y-184583390D01*
X99561905Y-184583390D02*
X99514286Y-184535771D01*
X99514286Y-184535771D02*
X99466667Y-184440533D01*
X99466667Y-184440533D02*
X99466667Y-184345295D01*
X99466667Y-184345295D02*
X99514286Y-184250057D01*
X99514286Y-184250057D02*
X99561905Y-184202438D01*
X99561905Y-184202438D02*
X99657143Y-184154819D01*
X99657143Y-184154819D02*
X99895238Y-184154819D01*
X99895238Y-184154819D02*
X100038095Y-184202438D01*
X100371429Y-184154819D02*
X100609524Y-185154819D01*
X100609524Y-185154819D02*
X100800000Y-184440533D01*
X100800000Y-184440533D02*
X100990476Y-185154819D01*
X100990476Y-185154819D02*
X101228572Y-184154819D01*
X102085714Y-184154819D02*
X101609524Y-184154819D01*
X101609524Y-184154819D02*
X101561905Y-184631009D01*
X101561905Y-184631009D02*
X101609524Y-184583390D01*
X101609524Y-184583390D02*
X101704762Y-184535771D01*
X101704762Y-184535771D02*
X101942857Y-184535771D01*
X101942857Y-184535771D02*
X102038095Y-184583390D01*
X102038095Y-184583390D02*
X102085714Y-184631009D01*
X102085714Y-184631009D02*
X102133333Y-184726247D01*
X102133333Y-184726247D02*
X102133333Y-184964342D01*
X102133333Y-184964342D02*
X102085714Y-185059580D01*
X102085714Y-185059580D02*
X102038095Y-185107200D01*
X102038095Y-185107200D02*
X101942857Y-185154819D01*
X101942857Y-185154819D02*
X101704762Y-185154819D01*
X101704762Y-185154819D02*
X101609524Y-185107200D01*
X101609524Y-185107200D02*
X101561905Y-185059580D01*
X106666667Y-190157200D02*
X106809524Y-190204819D01*
X106809524Y-190204819D02*
X107047619Y-190204819D01*
X107047619Y-190204819D02*
X107142857Y-190157200D01*
X107142857Y-190157200D02*
X107190476Y-190109580D01*
X107190476Y-190109580D02*
X107238095Y-190014342D01*
X107238095Y-190014342D02*
X107238095Y-189919104D01*
X107238095Y-189919104D02*
X107190476Y-189823866D01*
X107190476Y-189823866D02*
X107142857Y-189776247D01*
X107142857Y-189776247D02*
X107047619Y-189728628D01*
X107047619Y-189728628D02*
X106857143Y-189681009D01*
X106857143Y-189681009D02*
X106761905Y-189633390D01*
X106761905Y-189633390D02*
X106714286Y-189585771D01*
X106714286Y-189585771D02*
X106666667Y-189490533D01*
X106666667Y-189490533D02*
X106666667Y-189395295D01*
X106666667Y-189395295D02*
X106714286Y-189300057D01*
X106714286Y-189300057D02*
X106761905Y-189252438D01*
X106761905Y-189252438D02*
X106857143Y-189204819D01*
X106857143Y-189204819D02*
X107095238Y-189204819D01*
X107095238Y-189204819D02*
X107238095Y-189252438D01*
X107571429Y-189204819D02*
X107809524Y-190204819D01*
X107809524Y-190204819D02*
X108000000Y-189490533D01*
X108000000Y-189490533D02*
X108190476Y-190204819D01*
X108190476Y-190204819D02*
X108428572Y-189204819D01*
X109238095Y-189204819D02*
X109047619Y-189204819D01*
X109047619Y-189204819D02*
X108952381Y-189252438D01*
X108952381Y-189252438D02*
X108904762Y-189300057D01*
X108904762Y-189300057D02*
X108809524Y-189442914D01*
X108809524Y-189442914D02*
X108761905Y-189633390D01*
X108761905Y-189633390D02*
X108761905Y-190014342D01*
X108761905Y-190014342D02*
X108809524Y-190109580D01*
X108809524Y-190109580D02*
X108857143Y-190157200D01*
X108857143Y-190157200D02*
X108952381Y-190204819D01*
X108952381Y-190204819D02*
X109142857Y-190204819D01*
X109142857Y-190204819D02*
X109238095Y-190157200D01*
X109238095Y-190157200D02*
X109285714Y-190109580D01*
X109285714Y-190109580D02*
X109333333Y-190014342D01*
X109333333Y-190014342D02*
X109333333Y-189776247D01*
X109333333Y-189776247D02*
X109285714Y-189681009D01*
X109285714Y-189681009D02*
X109238095Y-189633390D01*
X109238095Y-189633390D02*
X109142857Y-189585771D01*
X109142857Y-189585771D02*
X108952381Y-189585771D01*
X108952381Y-189585771D02*
X108857143Y-189633390D01*
X108857143Y-189633390D02*
X108809524Y-189681009D01*
X108809524Y-189681009D02*
X108761905Y-189776247D01*
X106666667Y-199157200D02*
X106809524Y-199204819D01*
X106809524Y-199204819D02*
X107047619Y-199204819D01*
X107047619Y-199204819D02*
X107142857Y-199157200D01*
X107142857Y-199157200D02*
X107190476Y-199109580D01*
X107190476Y-199109580D02*
X107238095Y-199014342D01*
X107238095Y-199014342D02*
X107238095Y-198919104D01*
X107238095Y-198919104D02*
X107190476Y-198823866D01*
X107190476Y-198823866D02*
X107142857Y-198776247D01*
X107142857Y-198776247D02*
X107047619Y-198728628D01*
X107047619Y-198728628D02*
X106857143Y-198681009D01*
X106857143Y-198681009D02*
X106761905Y-198633390D01*
X106761905Y-198633390D02*
X106714286Y-198585771D01*
X106714286Y-198585771D02*
X106666667Y-198490533D01*
X106666667Y-198490533D02*
X106666667Y-198395295D01*
X106666667Y-198395295D02*
X106714286Y-198300057D01*
X106714286Y-198300057D02*
X106761905Y-198252438D01*
X106761905Y-198252438D02*
X106857143Y-198204819D01*
X106857143Y-198204819D02*
X107095238Y-198204819D01*
X107095238Y-198204819D02*
X107238095Y-198252438D01*
X107571429Y-198204819D02*
X107809524Y-199204819D01*
X107809524Y-199204819D02*
X108000000Y-198490533D01*
X108000000Y-198490533D02*
X108190476Y-199204819D01*
X108190476Y-199204819D02*
X108428572Y-198204819D01*
X108714286Y-198204819D02*
X109380952Y-198204819D01*
X109380952Y-198204819D02*
X108952381Y-199204819D01*
X123238095Y-117154819D02*
X123238095Y-117964342D01*
X123238095Y-117964342D02*
X123285714Y-118059580D01*
X123285714Y-118059580D02*
X123333333Y-118107200D01*
X123333333Y-118107200D02*
X123428571Y-118154819D01*
X123428571Y-118154819D02*
X123619047Y-118154819D01*
X123619047Y-118154819D02*
X123714285Y-118107200D01*
X123714285Y-118107200D02*
X123761904Y-118059580D01*
X123761904Y-118059580D02*
X123809523Y-117964342D01*
X123809523Y-117964342D02*
X123809523Y-117154819D01*
X124809523Y-118154819D02*
X124238095Y-118154819D01*
X124523809Y-118154819D02*
X124523809Y-117154819D01*
X124523809Y-117154819D02*
X124428571Y-117297676D01*
X124428571Y-117297676D02*
X124333333Y-117392914D01*
X124333333Y-117392914D02*
X124238095Y-117440533D01*
X123357142Y-113279580D02*
X123309523Y-113327200D01*
X123309523Y-113327200D02*
X123166666Y-113374819D01*
X123166666Y-113374819D02*
X123071428Y-113374819D01*
X123071428Y-113374819D02*
X122928571Y-113327200D01*
X122928571Y-113327200D02*
X122833333Y-113231961D01*
X122833333Y-113231961D02*
X122785714Y-113136723D01*
X122785714Y-113136723D02*
X122738095Y-112946247D01*
X122738095Y-112946247D02*
X122738095Y-112803390D01*
X122738095Y-112803390D02*
X122785714Y-112612914D01*
X122785714Y-112612914D02*
X122833333Y-112517676D01*
X122833333Y-112517676D02*
X122928571Y-112422438D01*
X122928571Y-112422438D02*
X123071428Y-112374819D01*
X123071428Y-112374819D02*
X123166666Y-112374819D01*
X123166666Y-112374819D02*
X123309523Y-112422438D01*
X123309523Y-112422438D02*
X123357142Y-112470057D01*
X124309523Y-113374819D02*
X123738095Y-113374819D01*
X124023809Y-113374819D02*
X124023809Y-112374819D01*
X124023809Y-112374819D02*
X123928571Y-112517676D01*
X123928571Y-112517676D02*
X123833333Y-112612914D01*
X123833333Y-112612914D02*
X123738095Y-112660533D01*
X124928571Y-112374819D02*
X125023809Y-112374819D01*
X125023809Y-112374819D02*
X125119047Y-112422438D01*
X125119047Y-112422438D02*
X125166666Y-112470057D01*
X125166666Y-112470057D02*
X125214285Y-112565295D01*
X125214285Y-112565295D02*
X125261904Y-112755771D01*
X125261904Y-112755771D02*
X125261904Y-112993866D01*
X125261904Y-112993866D02*
X125214285Y-113184342D01*
X125214285Y-113184342D02*
X125166666Y-113279580D01*
X125166666Y-113279580D02*
X125119047Y-113327200D01*
X125119047Y-113327200D02*
X125023809Y-113374819D01*
X125023809Y-113374819D02*
X124928571Y-113374819D01*
X124928571Y-113374819D02*
X124833333Y-113327200D01*
X124833333Y-113327200D02*
X124785714Y-113279580D01*
X124785714Y-113279580D02*
X124738095Y-113184342D01*
X124738095Y-113184342D02*
X124690476Y-112993866D01*
X124690476Y-112993866D02*
X124690476Y-112755771D01*
X124690476Y-112755771D02*
X124738095Y-112565295D01*
X124738095Y-112565295D02*
X124785714Y-112470057D01*
X124785714Y-112470057D02*
X124833333Y-112422438D01*
X124833333Y-112422438D02*
X124928571Y-112374819D01*
X123238095Y-171154819D02*
X123238095Y-171964342D01*
X123238095Y-171964342D02*
X123285714Y-172059580D01*
X123285714Y-172059580D02*
X123333333Y-172107200D01*
X123333333Y-172107200D02*
X123428571Y-172154819D01*
X123428571Y-172154819D02*
X123619047Y-172154819D01*
X123619047Y-172154819D02*
X123714285Y-172107200D01*
X123714285Y-172107200D02*
X123761904Y-172059580D01*
X123761904Y-172059580D02*
X123809523Y-171964342D01*
X123809523Y-171964342D02*
X123809523Y-171154819D01*
X124238095Y-171250057D02*
X124285714Y-171202438D01*
X124285714Y-171202438D02*
X124380952Y-171154819D01*
X124380952Y-171154819D02*
X124619047Y-171154819D01*
X124619047Y-171154819D02*
X124714285Y-171202438D01*
X124714285Y-171202438D02*
X124761904Y-171250057D01*
X124761904Y-171250057D02*
X124809523Y-171345295D01*
X124809523Y-171345295D02*
X124809523Y-171440533D01*
X124809523Y-171440533D02*
X124761904Y-171583390D01*
X124761904Y-171583390D02*
X124190476Y-172154819D01*
X124190476Y-172154819D02*
X124809523Y-172154819D01*
X123357142Y-168479580D02*
X123309523Y-168527200D01*
X123309523Y-168527200D02*
X123166666Y-168574819D01*
X123166666Y-168574819D02*
X123071428Y-168574819D01*
X123071428Y-168574819D02*
X122928571Y-168527200D01*
X122928571Y-168527200D02*
X122833333Y-168431961D01*
X122833333Y-168431961D02*
X122785714Y-168336723D01*
X122785714Y-168336723D02*
X122738095Y-168146247D01*
X122738095Y-168146247D02*
X122738095Y-168003390D01*
X122738095Y-168003390D02*
X122785714Y-167812914D01*
X122785714Y-167812914D02*
X122833333Y-167717676D01*
X122833333Y-167717676D02*
X122928571Y-167622438D01*
X122928571Y-167622438D02*
X123071428Y-167574819D01*
X123071428Y-167574819D02*
X123166666Y-167574819D01*
X123166666Y-167574819D02*
X123309523Y-167622438D01*
X123309523Y-167622438D02*
X123357142Y-167670057D01*
X124309523Y-168574819D02*
X123738095Y-168574819D01*
X124023809Y-168574819D02*
X124023809Y-167574819D01*
X124023809Y-167574819D02*
X123928571Y-167717676D01*
X123928571Y-167717676D02*
X123833333Y-167812914D01*
X123833333Y-167812914D02*
X123738095Y-167860533D01*
X125261904Y-168574819D02*
X124690476Y-168574819D01*
X124976190Y-168574819D02*
X124976190Y-167574819D01*
X124976190Y-167574819D02*
X124880952Y-167717676D01*
X124880952Y-167717676D02*
X124785714Y-167812914D01*
X124785714Y-167812914D02*
X124690476Y-167860533D01*
%TO.C,SW1*%
D11*
X103900000Y-117400000D02*
X103900000Y-116800000D01*
X104200000Y-117100000D02*
X103900000Y-117400000D01*
X103900000Y-116800000D02*
X104200000Y-117100000D01*
X102100000Y-115700000D02*
X113900000Y-115700000D01*
X102100000Y-111600000D02*
X102100000Y-115700000D01*
X113900000Y-111600000D02*
X113900000Y-115700000D01*
X108000000Y-110100000D02*
X108000000Y-109100000D01*
X107500000Y-109600000D02*
X108500000Y-109600000D01*
X102100000Y-107600000D02*
X102100000Y-103500000D01*
X102100000Y-103500000D02*
X104500000Y-103500000D01*
X106700000Y-103500000D02*
X109300000Y-103500000D01*
X111500000Y-103500000D02*
X113900000Y-103500000D01*
X113900000Y-103500000D02*
X113900000Y-107600000D01*
X111000000Y-109600000D02*
G75*
G02*
X105000000Y-109600000I-3000000J0D01*
G01*
X105000000Y-109600000D02*
G75*
G02*
X111000000Y-109600000I3000000J0D01*
G01*
%TO.C,SW2*%
X103900000Y-135000000D02*
X103900000Y-134400000D01*
X104200000Y-134700000D02*
X103900000Y-135000000D01*
X103900000Y-134400000D02*
X104200000Y-134700000D01*
X102100000Y-133300000D02*
X113900000Y-133300000D01*
X102100000Y-129200000D02*
X102100000Y-133300000D01*
X113900000Y-129200000D02*
X113900000Y-133300000D01*
X108000000Y-127700000D02*
X108000000Y-126700000D01*
X107500000Y-127200000D02*
X108500000Y-127200000D01*
X102100000Y-125200000D02*
X102100000Y-121100000D01*
X102100000Y-121100000D02*
X104500000Y-121100000D01*
X106700000Y-121100000D02*
X109300000Y-121100000D01*
X111500000Y-121100000D02*
X113900000Y-121100000D01*
X113900000Y-121100000D02*
X113900000Y-125200000D01*
X111000000Y-127200000D02*
G75*
G02*
X105000000Y-127200000I-3000000J0D01*
G01*
X105000000Y-127200000D02*
G75*
G02*
X111000000Y-127200000I3000000J0D01*
G01*
%TO.C,SW3*%
X103900000Y-152600000D02*
X103900000Y-152000000D01*
X104200000Y-152300000D02*
X103900000Y-152600000D01*
X103900000Y-152000000D02*
X104200000Y-152300000D01*
X102100000Y-150900000D02*
X113900000Y-150900000D01*
X102100000Y-146800000D02*
X102100000Y-150900000D01*
X113900000Y-146800000D02*
X113900000Y-150900000D01*
X108000000Y-145300000D02*
X108000000Y-144300000D01*
X107500000Y-144800000D02*
X108500000Y-144800000D01*
X102100000Y-142800000D02*
X102100000Y-138700000D01*
X102100000Y-138700000D02*
X104500000Y-138700000D01*
X106700000Y-138700000D02*
X109300000Y-138700000D01*
X111500000Y-138700000D02*
X113900000Y-138700000D01*
X113900000Y-138700000D02*
X113900000Y-142800000D01*
X111000000Y-144800000D02*
G75*
G02*
X105000000Y-144800000I-3000000J0D01*
G01*
X105000000Y-144800000D02*
G75*
G02*
X111000000Y-144800000I3000000J0D01*
G01*
%TO.C,SW4*%
X103900000Y-170200000D02*
X103900000Y-169600000D01*
X104200000Y-169900000D02*
X103900000Y-170200000D01*
X103900000Y-169600000D02*
X104200000Y-169900000D01*
X102100000Y-168500000D02*
X113900000Y-168500000D01*
X102100000Y-164400000D02*
X102100000Y-168500000D01*
X113900000Y-164400000D02*
X113900000Y-168500000D01*
X108000000Y-162900000D02*
X108000000Y-161900000D01*
X107500000Y-162400000D02*
X108500000Y-162400000D01*
X102100000Y-160400000D02*
X102100000Y-156300000D01*
X102100000Y-156300000D02*
X104500000Y-156300000D01*
X106700000Y-156300000D02*
X109300000Y-156300000D01*
X111500000Y-156300000D02*
X113900000Y-156300000D01*
X113900000Y-156300000D02*
X113900000Y-160400000D01*
X111000000Y-162400000D02*
G75*
G02*
X105000000Y-162400000I-3000000J0D01*
G01*
X105000000Y-162400000D02*
G75*
G02*
X111000000Y-162400000I3000000J0D01*
G01*
%TO.C,SW5*%
X103900000Y-187800000D02*
X103900000Y-187200000D01*
X104200000Y-187500000D02*
X103900000Y-187800000D01*
X103900000Y-187200000D02*
X104200000Y-187500000D01*
X102100000Y-186100000D02*
X113900000Y-186100000D01*
X102100000Y-182000000D02*
X102100000Y-186100000D01*
X113900000Y-182000000D02*
X113900000Y-186100000D01*
X108000000Y-180500000D02*
X108000000Y-179500000D01*
X107500000Y-180000000D02*
X108500000Y-180000000D01*
X102100000Y-178000000D02*
X102100000Y-173900000D01*
X102100000Y-173900000D02*
X104500000Y-173900000D01*
X106700000Y-173900000D02*
X109300000Y-173900000D01*
X111500000Y-173900000D02*
X113900000Y-173900000D01*
X113900000Y-173900000D02*
X113900000Y-178000000D01*
X111000000Y-180000000D02*
G75*
G02*
X105000000Y-180000000I-3000000J0D01*
G01*
X105000000Y-180000000D02*
G75*
G02*
X111000000Y-180000000I3000000J0D01*
G01*
%TO.C,SW6*%
X104500000Y-193250000D02*
X104500000Y-194750000D01*
X105750000Y-197250000D02*
X110250000Y-197250000D01*
X110250000Y-190750000D02*
X105750000Y-190750000D01*
X111500000Y-194750000D02*
X111500000Y-193250000D01*
%TO.C,SW7*%
X104500000Y-202250000D02*
X104500000Y-203750000D01*
X105750000Y-206250000D02*
X110250000Y-206250000D01*
X110250000Y-199750000D02*
X105750000Y-199750000D01*
X111500000Y-203750000D02*
X111500000Y-202250000D01*
%TO.C,U1*%
X120890000Y-118890000D02*
X121640000Y-118890000D01*
X120890000Y-119640000D02*
X120890000Y-118890000D01*
X120890000Y-125110000D02*
X120890000Y-124360000D01*
X121640000Y-125110000D02*
X120890000Y-125110000D01*
X126360000Y-118890000D02*
X127110000Y-118890000D01*
X127110000Y-118890000D02*
X127110000Y-119640000D01*
X127110000Y-124360000D02*
X127110000Y-125110000D01*
X127110000Y-125110000D02*
X126360000Y-125110000D01*
X120390000Y-120050000D02*
X120060000Y-120290000D01*
X120060000Y-119810000D01*
X120390000Y-120050000D01*
G36*
X120390000Y-120050000D02*
G01*
X120060000Y-120290000D01*
X120060000Y-119810000D01*
X120390000Y-120050000D01*
G37*
%TO.C,C10*%
X123738748Y-113865000D02*
X124261252Y-113865000D01*
X123738748Y-115335000D02*
X124261252Y-115335000D01*
%TO.C,U2*%
X120890000Y-172890000D02*
X121640000Y-172890000D01*
X120890000Y-173640000D02*
X120890000Y-172890000D01*
X120890000Y-179110000D02*
X120890000Y-178360000D01*
X121640000Y-179110000D02*
X120890000Y-179110000D01*
X126360000Y-172890000D02*
X127110000Y-172890000D01*
X127110000Y-172890000D02*
X127110000Y-173640000D01*
X127110000Y-178360000D02*
X127110000Y-179110000D01*
X127110000Y-179110000D02*
X126360000Y-179110000D01*
X120390000Y-174050000D02*
X120060000Y-174290000D01*
X120060000Y-173810000D01*
X120390000Y-174050000D01*
G36*
X120390000Y-174050000D02*
G01*
X120060000Y-174290000D01*
X120060000Y-173810000D01*
X120390000Y-174050000D01*
G37*
%TO.C,C11*%
X123738748Y-169065000D02*
X124261252Y-169065000D01*
X123738748Y-170535000D02*
X124261252Y-170535000D01*
%TD*%
M02*
