M48
; DRILL file KiCad 10.0.3 date 2026-07-11T12:58:40
; FORMAT={-:-/ absolute / metric / decimal}
; #@! TF.CreationDate,2026-07-11T12:58:40+02:00
; #@! TF.GenerationSoftware,Kicad,Pcbnew,10.0.3
; #@! TF.FileFunction,Plated,1,2,PTH
FMAT,2
METRIC
; #@! TA.AperFunction,Plated,PTH,ViaDrill
T1C0.300
; #@! TA.AperFunction,Plated,PTH,ComponentDrill
T2C1.000
; #@! TA.AperFunction,Plated,PTH,ComponentDrill
T3C1.500
%
G90
G05
T1
X102.0Y-102.0
X102.0Y-155.0
X102.0Y-208.0
X105.301Y-170.026
X105.9Y-183.2
X105.954Y-173.903
X107.977Y-174.201
X110.072Y-174.508
X111.337Y-150.102
X111.481Y-155.0
X113.4Y-136.2
X114.97Y-176.836
X115.2Y-170.5
X115.6Y-141.5
X117.025Y-128.062
X118.0Y-102.0
X118.0Y-155.0
X118.0Y-208.0
X119.346Y-110.919
T2
X101.0Y-105.7
X101.0Y-110.7
X101.0Y-119.9
X101.0Y-124.9
X101.0Y-134.1
X101.0Y-139.1
X101.0Y-148.3
X101.0Y-153.3
X101.0Y-162.5
X101.0Y-167.5
X106.73Y-186.0
X106.73Y-188.54
X106.73Y-191.08
X106.73Y-193.62
X106.73Y-196.16
X106.73Y-198.7
X106.73Y-201.24
X106.73Y-203.78
X106.73Y-206.32
X106.73Y-208.86
X109.27Y-186.0
X109.27Y-188.54
X109.27Y-191.08
X109.27Y-193.62
X109.27Y-196.16
X109.27Y-198.7
X109.27Y-201.24
X109.27Y-203.78
X109.27Y-206.32
X109.27Y-208.86
X115.5Y-105.7
X115.5Y-108.2
X115.5Y-110.7
X115.5Y-119.9
X115.5Y-122.4
X115.5Y-124.9
X115.5Y-134.1
X115.5Y-136.6
X115.5Y-139.1
X115.5Y-148.3
X115.5Y-150.8
X115.5Y-153.3
X115.5Y-162.5
X115.5Y-165.0
X115.5Y-167.5
T3
X108.65Y-102.6G85X107.35Y-102.6
G05
X108.65Y-113.8G85X107.35Y-113.8
G05
X108.65Y-116.8G85X107.35Y-116.8
G05
X108.65Y-128.0G85X107.35Y-128.0
G05
X108.65Y-131.0G85X107.35Y-131.0
G05
X108.65Y-142.2G85X107.35Y-142.2
G05
X108.65Y-145.2G85X107.35Y-145.2
G05
X108.65Y-156.4G85X107.35Y-156.4
G05
X108.65Y-159.4G85X107.35Y-159.4
G05
X108.65Y-170.6G85X107.35Y-170.6
G05
M30
