%TF.GenerationSoftware,KiCad,Pcbnew,10.0.3*%
%TF.CreationDate,2026-07-11T15:12:06+02:00*%
%TF.ProjectId,musicbrain-enc5front,6d757369-6362-4726-9169-6e2d656e6335,2.0*%
%TF.SameCoordinates,Original*%
%TF.FileFunction,Drillmap*%
%TF.FilePolarity,Positive*%
%FSLAX45Y45*%
G04 Gerber Fmt 4.5, Leading zero omitted, Abs format (unit mm)*
G04 Created by KiCad (PCBNEW 10.0.3) date 2026-07-11 15:12:06*
%MOMM*%
%LPD*%
G01*
G04 APERTURE LIST*
%ADD10C,0.100000*%
%ADD11C,0.200000*%
%ADD12C,0.110000*%
%ADD13C,0.150000*%
G04 APERTURE END LIST*
D10*
X10000000Y-10000000D02*
X13000000Y-10000000D01*
X13000000Y-21000000D01*
X10000000Y-21000000D01*
X10000000Y-10000000D01*
D11*
D10*
X10135000Y-10135000D02*
X10165000Y-10165000D01*
X10165000Y-10135000D02*
X10135000Y-10165000D01*
X10135000Y-20835000D02*
X10165000Y-20865000D01*
X10165000Y-20835000D02*
X10135000Y-20865000D01*
X10185000Y-15485000D02*
X10215000Y-15515000D01*
X10215000Y-15485000D02*
X10185000Y-15515000D01*
X10185000Y-19035000D02*
X10215000Y-19065000D01*
X10215000Y-19035000D02*
X10185000Y-19065000D01*
X11122520Y-12384060D02*
X11152520Y-12414060D01*
X11152520Y-12384060D02*
X11122520Y-12414060D01*
X11505830Y-19923270D02*
X11535830Y-19953270D01*
X11535830Y-19923270D02*
X11505830Y-19953270D01*
X11525970Y-18400760D02*
X11555970Y-18430760D01*
X11555970Y-18400760D02*
X11525970Y-18430760D01*
X11662290Y-19077020D02*
X11692290Y-19107020D01*
X11692290Y-19077020D02*
X11662290Y-19107020D01*
X11895860Y-18333830D02*
X11925860Y-18363830D01*
X11925860Y-18333830D02*
X11895860Y-18363830D01*
X11915000Y-11485000D02*
X11945000Y-11515000D01*
X11945000Y-11485000D02*
X11915000Y-11515000D01*
X11915000Y-13485000D02*
X11945000Y-13515000D01*
X11945000Y-13485000D02*
X11915000Y-13515000D01*
X11915000Y-15485000D02*
X11945000Y-15515000D01*
X11945000Y-15485000D02*
X11915000Y-15515000D01*
X11915000Y-17485000D02*
X11945000Y-17515000D01*
X11945000Y-17485000D02*
X11915000Y-17515000D01*
X11915000Y-19485000D02*
X11945000Y-19515000D01*
X11945000Y-19485000D02*
X11915000Y-19515000D01*
X12066050Y-18581440D02*
X12096050Y-18611440D01*
X12096050Y-18581440D02*
X12066050Y-18611440D01*
X12072620Y-17895340D02*
X12102620Y-17925340D01*
X12102620Y-17895340D02*
X12072620Y-17925340D01*
X12074790Y-19818110D02*
X12104790Y-19848110D01*
X12104790Y-19818110D02*
X12074790Y-19848110D01*
X12190000Y-12577730D02*
X12220000Y-12607730D01*
X12220000Y-12577730D02*
X12190000Y-12607730D01*
X12330870Y-14595590D02*
X12360870Y-14625590D01*
X12360870Y-14595590D02*
X12330870Y-14625590D01*
X12338640Y-11645120D02*
X12368640Y-11675120D01*
X12368640Y-11645120D02*
X12338640Y-11675120D01*
X12387510Y-17966670D02*
X12417510Y-17996670D01*
X12417510Y-17966670D02*
X12387510Y-17996670D01*
X12396290Y-15048430D02*
X12426290Y-15078430D01*
X12426290Y-15048430D02*
X12396290Y-15078430D01*
X12510850Y-18086100D02*
X12540850Y-18116100D01*
X12540850Y-18086100D02*
X12510850Y-18116100D01*
X12516210Y-15057020D02*
X12546210Y-15087020D01*
X12546210Y-15057020D02*
X12516210Y-15087020D01*
X12553530Y-12621640D02*
X12583530Y-12651640D01*
X12583530Y-12621640D02*
X12553530Y-12651640D01*
X12575940Y-13378480D02*
X12605940Y-13408480D01*
X12605940Y-13378480D02*
X12575940Y-13408480D01*
X12576690Y-13626960D02*
X12606690Y-13656960D01*
X12606690Y-13626960D02*
X12576690Y-13656960D01*
X12576690Y-14122420D02*
X12606690Y-14152420D01*
X12606690Y-14122420D02*
X12576690Y-14152420D01*
X12627090Y-15342740D02*
X12657090Y-15372740D01*
X12657090Y-15342740D02*
X12627090Y-15372740D01*
X12643720Y-19159950D02*
X12673720Y-19189950D01*
X12673720Y-19159950D02*
X12643720Y-19189950D01*
X12644200Y-17308320D02*
X12674200Y-17338320D01*
X12674200Y-17308320D02*
X12644200Y-17338320D01*
X12644440Y-12570700D02*
X12674440Y-12600700D01*
X12674440Y-12570700D02*
X12644440Y-12600700D01*
X12646350Y-11871490D02*
X12676350Y-11901490D01*
X12676350Y-11871490D02*
X12646350Y-11901490D01*
X12661680Y-12453600D02*
X12691680Y-12483600D01*
X12691680Y-12453600D02*
X12661680Y-12483600D01*
X12790000Y-17520000D02*
X12820000Y-17550000D01*
X12820000Y-17520000D02*
X12790000Y-17550000D01*
X12822020Y-17299520D02*
X12852020Y-17329520D01*
X12852020Y-17299520D02*
X12822020Y-17329520D01*
X12835000Y-10135000D02*
X12865000Y-10165000D01*
X12865000Y-10135000D02*
X12835000Y-10165000D01*
X12835000Y-20835000D02*
X12865000Y-20865000D01*
X12865000Y-20835000D02*
X12835000Y-20865000D01*
X12845690Y-12101050D02*
X12875690Y-12131050D01*
X12875690Y-12101050D02*
X12845690Y-12131050D01*
X12849840Y-20136660D02*
X12879840Y-20166660D01*
X12879840Y-20136660D02*
X12849840Y-20166660D01*
X10600000Y-10260000D02*
G75*
G02*
X10500000Y-10260000I-50000J0D01*
G01*
X10500000Y-10260000D02*
G75*
G02*
X10600000Y-10260000I50000J0D01*
G01*
X10600000Y-11710000D02*
G75*
G02*
X10500000Y-11710000I-50000J0D01*
G01*
X10500000Y-11710000D02*
G75*
G02*
X10600000Y-11710000I50000J0D01*
G01*
X10600000Y-12020000D02*
G75*
G02*
X10500000Y-12020000I-50000J0D01*
G01*
X10500000Y-12020000D02*
G75*
G02*
X10600000Y-12020000I50000J0D01*
G01*
X10600000Y-13470000D02*
G75*
G02*
X10500000Y-13470000I-50000J0D01*
G01*
X10500000Y-13470000D02*
G75*
G02*
X10600000Y-13470000I50000J0D01*
G01*
X10600000Y-13780000D02*
G75*
G02*
X10500000Y-13780000I-50000J0D01*
G01*
X10500000Y-13780000D02*
G75*
G02*
X10600000Y-13780000I50000J0D01*
G01*
X10600000Y-15230000D02*
G75*
G02*
X10500000Y-15230000I-50000J0D01*
G01*
X10500000Y-15230000D02*
G75*
G02*
X10600000Y-15230000I50000J0D01*
G01*
X10600000Y-15540000D02*
G75*
G02*
X10500000Y-15540000I-50000J0D01*
G01*
X10500000Y-15540000D02*
G75*
G02*
X10600000Y-15540000I50000J0D01*
G01*
X10600000Y-16990000D02*
G75*
G02*
X10500000Y-16990000I-50000J0D01*
G01*
X10500000Y-16990000D02*
G75*
G02*
X10600000Y-16990000I50000J0D01*
G01*
X10600000Y-17300000D02*
G75*
G02*
X10500000Y-17300000I-50000J0D01*
G01*
X10500000Y-17300000D02*
G75*
G02*
X10600000Y-17300000I50000J0D01*
G01*
X10600000Y-18750000D02*
G75*
G02*
X10500000Y-18750000I-50000J0D01*
G01*
X10500000Y-18750000D02*
G75*
G02*
X10600000Y-18750000I50000J0D01*
G01*
X10850000Y-11710000D02*
G75*
G02*
X10750000Y-11710000I-50000J0D01*
G01*
X10750000Y-11710000D02*
G75*
G02*
X10850000Y-11710000I50000J0D01*
G01*
X10850000Y-13470000D02*
G75*
G02*
X10750000Y-13470000I-50000J0D01*
G01*
X10750000Y-13470000D02*
G75*
G02*
X10850000Y-13470000I50000J0D01*
G01*
X10850000Y-15230000D02*
G75*
G02*
X10750000Y-15230000I-50000J0D01*
G01*
X10750000Y-15230000D02*
G75*
G02*
X10850000Y-15230000I50000J0D01*
G01*
X10850000Y-16990000D02*
G75*
G02*
X10750000Y-16990000I-50000J0D01*
G01*
X10750000Y-16990000D02*
G75*
G02*
X10850000Y-16990000I50000J0D01*
G01*
X10850000Y-18750000D02*
G75*
G02*
X10750000Y-18750000I-50000J0D01*
G01*
X10750000Y-18750000D02*
G75*
G02*
X10850000Y-18750000I50000J0D01*
G01*
X11100000Y-10260000D02*
G75*
G02*
X11000000Y-10260000I-50000J0D01*
G01*
X11000000Y-10260000D02*
G75*
G02*
X11100000Y-10260000I50000J0D01*
G01*
X11100000Y-11710000D02*
G75*
G02*
X11000000Y-11710000I-50000J0D01*
G01*
X11000000Y-11710000D02*
G75*
G02*
X11100000Y-11710000I50000J0D01*
G01*
X11100000Y-12020000D02*
G75*
G02*
X11000000Y-12020000I-50000J0D01*
G01*
X11000000Y-12020000D02*
G75*
G02*
X11100000Y-12020000I50000J0D01*
G01*
X11100000Y-13470000D02*
G75*
G02*
X11000000Y-13470000I-50000J0D01*
G01*
X11000000Y-13470000D02*
G75*
G02*
X11100000Y-13470000I50000J0D01*
G01*
X11100000Y-13780000D02*
G75*
G02*
X11000000Y-13780000I-50000J0D01*
G01*
X11000000Y-13780000D02*
G75*
G02*
X11100000Y-13780000I50000J0D01*
G01*
X11100000Y-15230000D02*
G75*
G02*
X11000000Y-15230000I-50000J0D01*
G01*
X11000000Y-15230000D02*
G75*
G02*
X11100000Y-15230000I50000J0D01*
G01*
X11100000Y-15540000D02*
G75*
G02*
X11000000Y-15540000I-50000J0D01*
G01*
X11000000Y-15540000D02*
G75*
G02*
X11100000Y-15540000I50000J0D01*
G01*
X11100000Y-16990000D02*
G75*
G02*
X11000000Y-16990000I-50000J0D01*
G01*
X11000000Y-16990000D02*
G75*
G02*
X11100000Y-16990000I50000J0D01*
G01*
X11100000Y-17300000D02*
G75*
G02*
X11000000Y-17300000I-50000J0D01*
G01*
X11000000Y-17300000D02*
G75*
G02*
X11100000Y-17300000I50000J0D01*
G01*
X11100000Y-18750000D02*
G75*
G02*
X11000000Y-18750000I-50000J0D01*
G01*
X11000000Y-18750000D02*
G75*
G02*
X11100000Y-18750000I50000J0D01*
G01*
X11700000Y-14357000D02*
G75*
G02*
X11600000Y-14357000I-50000J0D01*
G01*
X11600000Y-14357000D02*
G75*
G02*
X11700000Y-14357000I50000J0D01*
G01*
X11700000Y-14611000D02*
G75*
G02*
X11600000Y-14611000I-50000J0D01*
G01*
X11600000Y-14611000D02*
G75*
G02*
X11700000Y-14611000I50000J0D01*
G01*
X11700000Y-14865000D02*
G75*
G02*
X11600000Y-14865000I-50000J0D01*
G01*
X11600000Y-14865000D02*
G75*
G02*
X11700000Y-14865000I50000J0D01*
G01*
X11700000Y-15119000D02*
G75*
G02*
X11600000Y-15119000I-50000J0D01*
G01*
X11600000Y-15119000D02*
G75*
G02*
X11700000Y-15119000I50000J0D01*
G01*
X11700000Y-15373000D02*
G75*
G02*
X11600000Y-15373000I-50000J0D01*
G01*
X11600000Y-15373000D02*
G75*
G02*
X11700000Y-15373000I50000J0D01*
G01*
X11700000Y-15627000D02*
G75*
G02*
X11600000Y-15627000I-50000J0D01*
G01*
X11600000Y-15627000D02*
G75*
G02*
X11700000Y-15627000I50000J0D01*
G01*
X11700000Y-15881000D02*
G75*
G02*
X11600000Y-15881000I-50000J0D01*
G01*
X11600000Y-15881000D02*
G75*
G02*
X11700000Y-15881000I50000J0D01*
G01*
X11700000Y-16135000D02*
G75*
G02*
X11600000Y-16135000I-50000J0D01*
G01*
X11600000Y-16135000D02*
G75*
G02*
X11700000Y-16135000I50000J0D01*
G01*
X11700000Y-16389000D02*
G75*
G02*
X11600000Y-16389000I-50000J0D01*
G01*
X11600000Y-16389000D02*
G75*
G02*
X11700000Y-16389000I50000J0D01*
G01*
X11700000Y-16643000D02*
G75*
G02*
X11600000Y-16643000I-50000J0D01*
G01*
X11600000Y-16643000D02*
G75*
G02*
X11700000Y-16643000I50000J0D01*
G01*
X12327000Y-18980000D02*
G75*
G02*
X12227000Y-18980000I-50000J0D01*
G01*
X12227000Y-18980000D02*
G75*
G02*
X12327000Y-18980000I50000J0D01*
G01*
X12327000Y-19234000D02*
G75*
G02*
X12227000Y-19234000I-50000J0D01*
G01*
X12227000Y-19234000D02*
G75*
G02*
X12327000Y-19234000I50000J0D01*
G01*
X12327000Y-19488000D02*
G75*
G02*
X12227000Y-19488000I-50000J0D01*
G01*
X12227000Y-19488000D02*
G75*
G02*
X12327000Y-19488000I50000J0D01*
G01*
X12327000Y-19742000D02*
G75*
G02*
X12227000Y-19742000I-50000J0D01*
G01*
X12227000Y-19742000D02*
G75*
G02*
X12327000Y-19742000I50000J0D01*
G01*
X12327000Y-19996000D02*
G75*
G02*
X12227000Y-19996000I-50000J0D01*
G01*
X12227000Y-19996000D02*
G75*
G02*
X12327000Y-19996000I50000J0D01*
G01*
X12327000Y-20250000D02*
G75*
G02*
X12227000Y-20250000I-50000J0D01*
G01*
X12227000Y-20250000D02*
G75*
G02*
X12327000Y-20250000I50000J0D01*
G01*
X12327000Y-20504000D02*
G75*
G02*
X12227000Y-20504000I-50000J0D01*
G01*
X12227000Y-20504000D02*
G75*
G02*
X12327000Y-20504000I50000J0D01*
G01*
X12327000Y-20758000D02*
G75*
G02*
X12227000Y-20758000I-50000J0D01*
G01*
X12227000Y-20758000D02*
G75*
G02*
X12327000Y-20758000I50000J0D01*
G01*
X12581000Y-18980000D02*
G75*
G02*
X12481000Y-18980000I-50000J0D01*
G01*
X12481000Y-18980000D02*
G75*
G02*
X12581000Y-18980000I50000J0D01*
G01*
X12581000Y-19234000D02*
G75*
G02*
X12481000Y-19234000I-50000J0D01*
G01*
X12481000Y-19234000D02*
G75*
G02*
X12581000Y-19234000I50000J0D01*
G01*
X12581000Y-19488000D02*
G75*
G02*
X12481000Y-19488000I-50000J0D01*
G01*
X12481000Y-19488000D02*
G75*
G02*
X12581000Y-19488000I50000J0D01*
G01*
X12581000Y-19742000D02*
G75*
G02*
X12481000Y-19742000I-50000J0D01*
G01*
X12481000Y-19742000D02*
G75*
G02*
X12581000Y-19742000I50000J0D01*
G01*
X12581000Y-19996000D02*
G75*
G02*
X12481000Y-19996000I-50000J0D01*
G01*
X12481000Y-19996000D02*
G75*
G02*
X12581000Y-19996000I50000J0D01*
G01*
X12581000Y-20250000D02*
G75*
G02*
X12481000Y-20250000I-50000J0D01*
G01*
X12481000Y-20250000D02*
G75*
G02*
X12581000Y-20250000I50000J0D01*
G01*
X12581000Y-20504000D02*
G75*
G02*
X12481000Y-20504000I-50000J0D01*
G01*
X12481000Y-20504000D02*
G75*
G02*
X12581000Y-20504000I50000J0D01*
G01*
X12581000Y-20758000D02*
G75*
G02*
X12481000Y-20758000I-50000J0D01*
G01*
X12481000Y-20758000D02*
G75*
G02*
X12581000Y-20758000I50000J0D01*
G01*
D12*
X10475000Y-19120000D02*
X10475000Y-19230000D01*
X10420000Y-19175000D02*
X10530000Y-19175000D01*
X10475000Y-19570000D02*
X10475000Y-19680000D01*
X10420000Y-19625000D02*
X10530000Y-19625000D01*
X10475000Y-20020000D02*
X10475000Y-20130000D01*
X10420000Y-20075000D02*
X10530000Y-20075000D01*
X10475000Y-20470000D02*
X10475000Y-20580000D01*
X10420000Y-20525000D02*
X10530000Y-20525000D01*
X11125000Y-19120000D02*
X11125000Y-19230000D01*
X11070000Y-19175000D02*
X11180000Y-19175000D01*
X11125000Y-19570000D02*
X11125000Y-19680000D01*
X11070000Y-19625000D02*
X11180000Y-19625000D01*
X11125000Y-20020000D02*
X11125000Y-20130000D01*
X11070000Y-20075000D02*
X11180000Y-20075000D01*
X11125000Y-20470000D02*
X11125000Y-20580000D01*
X11070000Y-20525000D02*
X11180000Y-20525000D01*
D13*
X10293034Y-11013034D02*
X10293034Y-10906967D01*
X10186967Y-10906967D01*
X10186967Y-11013034D01*
X10293034Y-11013034D01*
D10*
X10315000Y-11025000D02*
X10315000Y-10895000D01*
X10165000Y-10895000D02*
G75*
G02*
X10315000Y-10895000I75000J0D01*
G01*
X10165000Y-10895000D02*
X10165000Y-11025000D01*
X10165000Y-11025000D02*
G75*
G03*
X10315000Y-11025000I75000J0D01*
G01*
D13*
X10293034Y-12773033D02*
X10293034Y-12666966D01*
X10186967Y-12666966D01*
X10186967Y-12773033D01*
X10293034Y-12773033D01*
D10*
X10315000Y-12785000D02*
X10315000Y-12655000D01*
X10165000Y-12655000D02*
G75*
G02*
X10315000Y-12655000I75000J0D01*
G01*
X10165000Y-12655000D02*
X10165000Y-12785000D01*
X10165000Y-12785000D02*
G75*
G03*
X10315000Y-12785000I75000J0D01*
G01*
D13*
X10293034Y-14533033D02*
X10293034Y-14426966D01*
X10186967Y-14426966D01*
X10186967Y-14533033D01*
X10293034Y-14533033D01*
D10*
X10315000Y-14545000D02*
X10315000Y-14415000D01*
X10165000Y-14415000D02*
G75*
G02*
X10315000Y-14415000I75000J0D01*
G01*
X10165000Y-14415000D02*
X10165000Y-14545000D01*
X10165000Y-14545000D02*
G75*
G03*
X10315000Y-14545000I75000J0D01*
G01*
D13*
X10293034Y-16293033D02*
X10293034Y-16186966D01*
X10186967Y-16186966D01*
X10186967Y-16293033D01*
X10293034Y-16293033D01*
D10*
X10315000Y-16305000D02*
X10315000Y-16175000D01*
X10165000Y-16175000D02*
G75*
G02*
X10315000Y-16175000I75000J0D01*
G01*
X10165000Y-16175000D02*
X10165000Y-16305000D01*
X10165000Y-16305000D02*
G75*
G03*
X10315000Y-16305000I75000J0D01*
G01*
D13*
X10293034Y-18053034D02*
X10293034Y-17946967D01*
X10186967Y-17946967D01*
X10186967Y-18053034D01*
X10293034Y-18053034D01*
D10*
X10315000Y-18065000D02*
X10315000Y-17935000D01*
X10165000Y-17935000D02*
G75*
G02*
X10315000Y-17935000I75000J0D01*
G01*
X10165000Y-17935000D02*
X10165000Y-18065000D01*
X10165000Y-18065000D02*
G75*
G03*
X10315000Y-18065000I75000J0D01*
G01*
D13*
X11413033Y-11013034D02*
X11413033Y-10906967D01*
X11306966Y-10906967D01*
X11306966Y-11013034D01*
X11413033Y-11013034D01*
D10*
X11435000Y-11025000D02*
X11435000Y-10895000D01*
X11285000Y-10895000D02*
G75*
G02*
X11435000Y-10895000I75000J0D01*
G01*
X11285000Y-10895000D02*
X11285000Y-11025000D01*
X11285000Y-11025000D02*
G75*
G03*
X11435000Y-11025000I75000J0D01*
G01*
D13*
X11413033Y-12773033D02*
X11413033Y-12666966D01*
X11306966Y-12666966D01*
X11306966Y-12773033D01*
X11413033Y-12773033D01*
D10*
X11435000Y-12785000D02*
X11435000Y-12655000D01*
X11285000Y-12655000D02*
G75*
G02*
X11435000Y-12655000I75000J0D01*
G01*
X11285000Y-12655000D02*
X11285000Y-12785000D01*
X11285000Y-12785000D02*
G75*
G03*
X11435000Y-12785000I75000J0D01*
G01*
D13*
X11413033Y-14533033D02*
X11413033Y-14426966D01*
X11306966Y-14426966D01*
X11306966Y-14533033D01*
X11413033Y-14533033D01*
D10*
X11435000Y-14545000D02*
X11435000Y-14415000D01*
X11285000Y-14415000D02*
G75*
G02*
X11435000Y-14415000I75000J0D01*
G01*
X11285000Y-14415000D02*
X11285000Y-14545000D01*
X11285000Y-14545000D02*
G75*
G03*
X11435000Y-14545000I75000J0D01*
G01*
D13*
X11413033Y-16293033D02*
X11413033Y-16186966D01*
X11306966Y-16186966D01*
X11306966Y-16293033D01*
X11413033Y-16293033D01*
D10*
X11435000Y-16305000D02*
X11435000Y-16175000D01*
X11285000Y-16175000D02*
G75*
G02*
X11435000Y-16175000I75000J0D01*
G01*
X11285000Y-16175000D02*
X11285000Y-16305000D01*
X11285000Y-16305000D02*
G75*
G03*
X11435000Y-16305000I75000J0D01*
G01*
D13*
X11413033Y-18053034D02*
X11413033Y-17946967D01*
X11306966Y-17946967D01*
X11306966Y-18053034D01*
X11413033Y-18053034D01*
D10*
X11435000Y-18065000D02*
X11435000Y-17935000D01*
X11285000Y-17935000D02*
G75*
G02*
X11435000Y-17935000I75000J0D01*
G01*
X11285000Y-17935000D02*
X11285000Y-18065000D01*
X11285000Y-18065000D02*
G75*
G03*
X11435000Y-18065000I75000J0D01*
G01*
D11*
X10255777Y-21316484D02*
X10255777Y-21116484D01*
X10255777Y-21116484D02*
X10303396Y-21116484D01*
X10303396Y-21116484D02*
X10331967Y-21126008D01*
X10331967Y-21126008D02*
X10351015Y-21145055D01*
X10351015Y-21145055D02*
X10360539Y-21164103D01*
X10360539Y-21164103D02*
X10370063Y-21202198D01*
X10370063Y-21202198D02*
X10370063Y-21230770D01*
X10370063Y-21230770D02*
X10360539Y-21268865D01*
X10360539Y-21268865D02*
X10351015Y-21287912D01*
X10351015Y-21287912D02*
X10331967Y-21306960D01*
X10331967Y-21306960D02*
X10303396Y-21316484D01*
X10303396Y-21316484D02*
X10255777Y-21316484D01*
X10455777Y-21316484D02*
X10455777Y-21183150D01*
X10455777Y-21221246D02*
X10465301Y-21202198D01*
X10465301Y-21202198D02*
X10474824Y-21192674D01*
X10474824Y-21192674D02*
X10493872Y-21183150D01*
X10493872Y-21183150D02*
X10512920Y-21183150D01*
X10579586Y-21316484D02*
X10579586Y-21183150D01*
X10579586Y-21116484D02*
X10570063Y-21126008D01*
X10570063Y-21126008D02*
X10579586Y-21135531D01*
X10579586Y-21135531D02*
X10589110Y-21126008D01*
X10589110Y-21126008D02*
X10579586Y-21116484D01*
X10579586Y-21116484D02*
X10579586Y-21135531D01*
X10703396Y-21316484D02*
X10684348Y-21306960D01*
X10684348Y-21306960D02*
X10674824Y-21287912D01*
X10674824Y-21287912D02*
X10674824Y-21116484D01*
X10808158Y-21316484D02*
X10789110Y-21306960D01*
X10789110Y-21306960D02*
X10779586Y-21287912D01*
X10779586Y-21287912D02*
X10779586Y-21116484D01*
X11036729Y-21316484D02*
X11036729Y-21116484D01*
X11036729Y-21116484D02*
X11103396Y-21259341D01*
X11103396Y-21259341D02*
X11170063Y-21116484D01*
X11170063Y-21116484D02*
X11170063Y-21316484D01*
X11351015Y-21316484D02*
X11351015Y-21211722D01*
X11351015Y-21211722D02*
X11341491Y-21192674D01*
X11341491Y-21192674D02*
X11322443Y-21183150D01*
X11322443Y-21183150D02*
X11284348Y-21183150D01*
X11284348Y-21183150D02*
X11265301Y-21192674D01*
X11351015Y-21306960D02*
X11331967Y-21316484D01*
X11331967Y-21316484D02*
X11284348Y-21316484D01*
X11284348Y-21316484D02*
X11265301Y-21306960D01*
X11265301Y-21306960D02*
X11255777Y-21287912D01*
X11255777Y-21287912D02*
X11255777Y-21268865D01*
X11255777Y-21268865D02*
X11265301Y-21249817D01*
X11265301Y-21249817D02*
X11284348Y-21240293D01*
X11284348Y-21240293D02*
X11331967Y-21240293D01*
X11331967Y-21240293D02*
X11351015Y-21230770D01*
X11446253Y-21183150D02*
X11446253Y-21383150D01*
X11446253Y-21192674D02*
X11465301Y-21183150D01*
X11465301Y-21183150D02*
X11503396Y-21183150D01*
X11503396Y-21183150D02*
X11522443Y-21192674D01*
X11522443Y-21192674D02*
X11531967Y-21202198D01*
X11531967Y-21202198D02*
X11541491Y-21221246D01*
X11541491Y-21221246D02*
X11541491Y-21278389D01*
X11541491Y-21278389D02*
X11531967Y-21297436D01*
X11531967Y-21297436D02*
X11522443Y-21306960D01*
X11522443Y-21306960D02*
X11503396Y-21316484D01*
X11503396Y-21316484D02*
X11465301Y-21316484D01*
X11465301Y-21316484D02*
X11446253Y-21306960D01*
X11627205Y-21297436D02*
X11636729Y-21306960D01*
X11636729Y-21306960D02*
X11627205Y-21316484D01*
X11627205Y-21316484D02*
X11617682Y-21306960D01*
X11617682Y-21306960D02*
X11627205Y-21297436D01*
X11627205Y-21297436D02*
X11627205Y-21316484D01*
X11627205Y-21192674D02*
X11636729Y-21202198D01*
X11636729Y-21202198D02*
X11627205Y-21211722D01*
X11627205Y-21211722D02*
X11617682Y-21202198D01*
X11617682Y-21202198D02*
X11627205Y-21192674D01*
X11627205Y-21192674D02*
X11627205Y-21211722D01*
D10*
X9965000Y-21630000D02*
X9995000Y-21660000D01*
X9995000Y-21630000D02*
X9965000Y-21660000D01*
D11*
X10293872Y-21536484D02*
X10312920Y-21536484D01*
X10312920Y-21536484D02*
X10331967Y-21546008D01*
X10331967Y-21546008D02*
X10341491Y-21555531D01*
X10341491Y-21555531D02*
X10351015Y-21574579D01*
X10351015Y-21574579D02*
X10360539Y-21612674D01*
X10360539Y-21612674D02*
X10360539Y-21660293D01*
X10360539Y-21660293D02*
X10351015Y-21698389D01*
X10351015Y-21698389D02*
X10341491Y-21717436D01*
X10341491Y-21717436D02*
X10331967Y-21726960D01*
X10331967Y-21726960D02*
X10312920Y-21736484D01*
X10312920Y-21736484D02*
X10293872Y-21736484D01*
X10293872Y-21736484D02*
X10274824Y-21726960D01*
X10274824Y-21726960D02*
X10265301Y-21717436D01*
X10265301Y-21717436D02*
X10255777Y-21698389D01*
X10255777Y-21698389D02*
X10246253Y-21660293D01*
X10246253Y-21660293D02*
X10246253Y-21612674D01*
X10246253Y-21612674D02*
X10255777Y-21574579D01*
X10255777Y-21574579D02*
X10265301Y-21555531D01*
X10265301Y-21555531D02*
X10274824Y-21546008D01*
X10274824Y-21546008D02*
X10293872Y-21536484D01*
X10455777Y-21726960D02*
X10455777Y-21736484D01*
X10455777Y-21736484D02*
X10446253Y-21755531D01*
X10446253Y-21755531D02*
X10436729Y-21765055D01*
X10522444Y-21536484D02*
X10646253Y-21536484D01*
X10646253Y-21536484D02*
X10579586Y-21612674D01*
X10579586Y-21612674D02*
X10608158Y-21612674D01*
X10608158Y-21612674D02*
X10627205Y-21622198D01*
X10627205Y-21622198D02*
X10636729Y-21631722D01*
X10636729Y-21631722D02*
X10646253Y-21650770D01*
X10646253Y-21650770D02*
X10646253Y-21698389D01*
X10646253Y-21698389D02*
X10636729Y-21717436D01*
X10636729Y-21717436D02*
X10627205Y-21726960D01*
X10627205Y-21726960D02*
X10608158Y-21736484D01*
X10608158Y-21736484D02*
X10551015Y-21736484D01*
X10551015Y-21736484D02*
X10531967Y-21726960D01*
X10531967Y-21726960D02*
X10522444Y-21717436D01*
X10770063Y-21536484D02*
X10789110Y-21536484D01*
X10789110Y-21536484D02*
X10808158Y-21546008D01*
X10808158Y-21546008D02*
X10817682Y-21555531D01*
X10817682Y-21555531D02*
X10827205Y-21574579D01*
X10827205Y-21574579D02*
X10836729Y-21612674D01*
X10836729Y-21612674D02*
X10836729Y-21660293D01*
X10836729Y-21660293D02*
X10827205Y-21698389D01*
X10827205Y-21698389D02*
X10817682Y-21717436D01*
X10817682Y-21717436D02*
X10808158Y-21726960D01*
X10808158Y-21726960D02*
X10789110Y-21736484D01*
X10789110Y-21736484D02*
X10770063Y-21736484D01*
X10770063Y-21736484D02*
X10751015Y-21726960D01*
X10751015Y-21726960D02*
X10741491Y-21717436D01*
X10741491Y-21717436D02*
X10731967Y-21698389D01*
X10731967Y-21698389D02*
X10722444Y-21660293D01*
X10722444Y-21660293D02*
X10722444Y-21612674D01*
X10722444Y-21612674D02*
X10731967Y-21574579D01*
X10731967Y-21574579D02*
X10741491Y-21555531D01*
X10741491Y-21555531D02*
X10751015Y-21546008D01*
X10751015Y-21546008D02*
X10770063Y-21536484D01*
X10960539Y-21536484D02*
X10979586Y-21536484D01*
X10979586Y-21536484D02*
X10998634Y-21546008D01*
X10998634Y-21546008D02*
X11008158Y-21555531D01*
X11008158Y-21555531D02*
X11017682Y-21574579D01*
X11017682Y-21574579D02*
X11027205Y-21612674D01*
X11027205Y-21612674D02*
X11027205Y-21660293D01*
X11027205Y-21660293D02*
X11017682Y-21698389D01*
X11017682Y-21698389D02*
X11008158Y-21717436D01*
X11008158Y-21717436D02*
X10998634Y-21726960D01*
X10998634Y-21726960D02*
X10979586Y-21736484D01*
X10979586Y-21736484D02*
X10960539Y-21736484D01*
X10960539Y-21736484D02*
X10941491Y-21726960D01*
X10941491Y-21726960D02*
X10931967Y-21717436D01*
X10931967Y-21717436D02*
X10922444Y-21698389D01*
X10922444Y-21698389D02*
X10912920Y-21660293D01*
X10912920Y-21660293D02*
X10912920Y-21612674D01*
X10912920Y-21612674D02*
X10922444Y-21574579D01*
X10922444Y-21574579D02*
X10931967Y-21555531D01*
X10931967Y-21555531D02*
X10941491Y-21546008D01*
X10941491Y-21546008D02*
X10960539Y-21536484D01*
X11112920Y-21736484D02*
X11112920Y-21603150D01*
X11112920Y-21622198D02*
X11122444Y-21612674D01*
X11122444Y-21612674D02*
X11141491Y-21603150D01*
X11141491Y-21603150D02*
X11170063Y-21603150D01*
X11170063Y-21603150D02*
X11189110Y-21612674D01*
X11189110Y-21612674D02*
X11198634Y-21631722D01*
X11198634Y-21631722D02*
X11198634Y-21736484D01*
X11198634Y-21631722D02*
X11208158Y-21612674D01*
X11208158Y-21612674D02*
X11227205Y-21603150D01*
X11227205Y-21603150D02*
X11255777Y-21603150D01*
X11255777Y-21603150D02*
X11274824Y-21612674D01*
X11274824Y-21612674D02*
X11284348Y-21631722D01*
X11284348Y-21631722D02*
X11284348Y-21736484D01*
X11379586Y-21736484D02*
X11379586Y-21603150D01*
X11379586Y-21622198D02*
X11389110Y-21612674D01*
X11389110Y-21612674D02*
X11408158Y-21603150D01*
X11408158Y-21603150D02*
X11436729Y-21603150D01*
X11436729Y-21603150D02*
X11455777Y-21612674D01*
X11455777Y-21612674D02*
X11465301Y-21631722D01*
X11465301Y-21631722D02*
X11465301Y-21736484D01*
X11465301Y-21631722D02*
X11474824Y-21612674D01*
X11474824Y-21612674D02*
X11493872Y-21603150D01*
X11493872Y-21603150D02*
X11522443Y-21603150D01*
X11522443Y-21603150D02*
X11541491Y-21612674D01*
X11541491Y-21612674D02*
X11551015Y-21631722D01*
X11551015Y-21631722D02*
X11551015Y-21736484D01*
X11941491Y-21526960D02*
X11770063Y-21784103D01*
X12198634Y-21536484D02*
X12217682Y-21536484D01*
X12217682Y-21536484D02*
X12236729Y-21546008D01*
X12236729Y-21546008D02*
X12246253Y-21555531D01*
X12246253Y-21555531D02*
X12255777Y-21574579D01*
X12255777Y-21574579D02*
X12265301Y-21612674D01*
X12265301Y-21612674D02*
X12265301Y-21660293D01*
X12265301Y-21660293D02*
X12255777Y-21698389D01*
X12255777Y-21698389D02*
X12246253Y-21717436D01*
X12246253Y-21717436D02*
X12236729Y-21726960D01*
X12236729Y-21726960D02*
X12217682Y-21736484D01*
X12217682Y-21736484D02*
X12198634Y-21736484D01*
X12198634Y-21736484D02*
X12179586Y-21726960D01*
X12179586Y-21726960D02*
X12170063Y-21717436D01*
X12170063Y-21717436D02*
X12160539Y-21698389D01*
X12160539Y-21698389D02*
X12151015Y-21660293D01*
X12151015Y-21660293D02*
X12151015Y-21612674D01*
X12151015Y-21612674D02*
X12160539Y-21574579D01*
X12160539Y-21574579D02*
X12170063Y-21555531D01*
X12170063Y-21555531D02*
X12179586Y-21546008D01*
X12179586Y-21546008D02*
X12198634Y-21536484D01*
X12360539Y-21726960D02*
X12360539Y-21736484D01*
X12360539Y-21736484D02*
X12351015Y-21755531D01*
X12351015Y-21755531D02*
X12341491Y-21765055D01*
X12484348Y-21536484D02*
X12503396Y-21536484D01*
X12503396Y-21536484D02*
X12522444Y-21546008D01*
X12522444Y-21546008D02*
X12531967Y-21555531D01*
X12531967Y-21555531D02*
X12541491Y-21574579D01*
X12541491Y-21574579D02*
X12551015Y-21612674D01*
X12551015Y-21612674D02*
X12551015Y-21660293D01*
X12551015Y-21660293D02*
X12541491Y-21698389D01*
X12541491Y-21698389D02*
X12531967Y-21717436D01*
X12531967Y-21717436D02*
X12522444Y-21726960D01*
X12522444Y-21726960D02*
X12503396Y-21736484D01*
X12503396Y-21736484D02*
X12484348Y-21736484D01*
X12484348Y-21736484D02*
X12465301Y-21726960D01*
X12465301Y-21726960D02*
X12455777Y-21717436D01*
X12455777Y-21717436D02*
X12446253Y-21698389D01*
X12446253Y-21698389D02*
X12436729Y-21660293D01*
X12436729Y-21660293D02*
X12436729Y-21612674D01*
X12436729Y-21612674D02*
X12446253Y-21574579D01*
X12446253Y-21574579D02*
X12455777Y-21555531D01*
X12455777Y-21555531D02*
X12465301Y-21546008D01*
X12465301Y-21546008D02*
X12484348Y-21536484D01*
X12741491Y-21736484D02*
X12627206Y-21736484D01*
X12684348Y-21736484D02*
X12684348Y-21536484D01*
X12684348Y-21536484D02*
X12665301Y-21565055D01*
X12665301Y-21565055D02*
X12646253Y-21584103D01*
X12646253Y-21584103D02*
X12627206Y-21593627D01*
X12931967Y-21736484D02*
X12817682Y-21736484D01*
X12874825Y-21736484D02*
X12874825Y-21536484D01*
X12874825Y-21536484D02*
X12855777Y-21565055D01*
X12855777Y-21565055D02*
X12836729Y-21584103D01*
X12836729Y-21584103D02*
X12817682Y-21593627D01*
X13046253Y-21622198D02*
X13027206Y-21612674D01*
X13027206Y-21612674D02*
X13017682Y-21603150D01*
X13017682Y-21603150D02*
X13008158Y-21584103D01*
X13008158Y-21584103D02*
X13008158Y-21574579D01*
X13008158Y-21574579D02*
X13017682Y-21555531D01*
X13017682Y-21555531D02*
X13027206Y-21546008D01*
X13027206Y-21546008D02*
X13046253Y-21536484D01*
X13046253Y-21536484D02*
X13084348Y-21536484D01*
X13084348Y-21536484D02*
X13103396Y-21546008D01*
X13103396Y-21546008D02*
X13112920Y-21555531D01*
X13112920Y-21555531D02*
X13122444Y-21574579D01*
X13122444Y-21574579D02*
X13122444Y-21584103D01*
X13122444Y-21584103D02*
X13112920Y-21603150D01*
X13112920Y-21603150D02*
X13103396Y-21612674D01*
X13103396Y-21612674D02*
X13084348Y-21622198D01*
X13084348Y-21622198D02*
X13046253Y-21622198D01*
X13046253Y-21622198D02*
X13027206Y-21631722D01*
X13027206Y-21631722D02*
X13017682Y-21641246D01*
X13017682Y-21641246D02*
X13008158Y-21660293D01*
X13008158Y-21660293D02*
X13008158Y-21698389D01*
X13008158Y-21698389D02*
X13017682Y-21717436D01*
X13017682Y-21717436D02*
X13027206Y-21726960D01*
X13027206Y-21726960D02*
X13046253Y-21736484D01*
X13046253Y-21736484D02*
X13084348Y-21736484D01*
X13084348Y-21736484D02*
X13103396Y-21726960D01*
X13103396Y-21726960D02*
X13112920Y-21717436D01*
X13112920Y-21717436D02*
X13122444Y-21698389D01*
X13122444Y-21698389D02*
X13122444Y-21660293D01*
X13122444Y-21660293D02*
X13112920Y-21641246D01*
X13112920Y-21641246D02*
X13103396Y-21631722D01*
X13103396Y-21631722D02*
X13084348Y-21622198D01*
X13198634Y-21536484D02*
X13198634Y-21574579D01*
X13274825Y-21536484D02*
X13274825Y-21574579D01*
X13570063Y-21812674D02*
X13560539Y-21803150D01*
X13560539Y-21803150D02*
X13541491Y-21774579D01*
X13541491Y-21774579D02*
X13531968Y-21755531D01*
X13531968Y-21755531D02*
X13522444Y-21726960D01*
X13522444Y-21726960D02*
X13512920Y-21679341D01*
X13512920Y-21679341D02*
X13512920Y-21641246D01*
X13512920Y-21641246D02*
X13522444Y-21593627D01*
X13522444Y-21593627D02*
X13531968Y-21565055D01*
X13531968Y-21565055D02*
X13541491Y-21546008D01*
X13541491Y-21546008D02*
X13560539Y-21517436D01*
X13560539Y-21517436D02*
X13570063Y-21507912D01*
X13731968Y-21603150D02*
X13731968Y-21736484D01*
X13684348Y-21526960D02*
X13636729Y-21669817D01*
X13636729Y-21669817D02*
X13760539Y-21669817D01*
X13874825Y-21536484D02*
X13893872Y-21536484D01*
X13893872Y-21536484D02*
X13912920Y-21546008D01*
X13912920Y-21546008D02*
X13922444Y-21555531D01*
X13922444Y-21555531D02*
X13931968Y-21574579D01*
X13931968Y-21574579D02*
X13941491Y-21612674D01*
X13941491Y-21612674D02*
X13941491Y-21660293D01*
X13941491Y-21660293D02*
X13931968Y-21698389D01*
X13931968Y-21698389D02*
X13922444Y-21717436D01*
X13922444Y-21717436D02*
X13912920Y-21726960D01*
X13912920Y-21726960D02*
X13893872Y-21736484D01*
X13893872Y-21736484D02*
X13874825Y-21736484D01*
X13874825Y-21736484D02*
X13855777Y-21726960D01*
X13855777Y-21726960D02*
X13846253Y-21717436D01*
X13846253Y-21717436D02*
X13836729Y-21698389D01*
X13836729Y-21698389D02*
X13827206Y-21660293D01*
X13827206Y-21660293D02*
X13827206Y-21612674D01*
X13827206Y-21612674D02*
X13836729Y-21574579D01*
X13836729Y-21574579D02*
X13846253Y-21555531D01*
X13846253Y-21555531D02*
X13855777Y-21546008D01*
X13855777Y-21546008D02*
X13874825Y-21536484D01*
X14179587Y-21736484D02*
X14179587Y-21536484D01*
X14265301Y-21736484D02*
X14265301Y-21631722D01*
X14265301Y-21631722D02*
X14255777Y-21612674D01*
X14255777Y-21612674D02*
X14236730Y-21603150D01*
X14236730Y-21603150D02*
X14208158Y-21603150D01*
X14208158Y-21603150D02*
X14189110Y-21612674D01*
X14189110Y-21612674D02*
X14179587Y-21622198D01*
X14389110Y-21736484D02*
X14370063Y-21726960D01*
X14370063Y-21726960D02*
X14360539Y-21717436D01*
X14360539Y-21717436D02*
X14351015Y-21698389D01*
X14351015Y-21698389D02*
X14351015Y-21641246D01*
X14351015Y-21641246D02*
X14360539Y-21622198D01*
X14360539Y-21622198D02*
X14370063Y-21612674D01*
X14370063Y-21612674D02*
X14389110Y-21603150D01*
X14389110Y-21603150D02*
X14417682Y-21603150D01*
X14417682Y-21603150D02*
X14436730Y-21612674D01*
X14436730Y-21612674D02*
X14446253Y-21622198D01*
X14446253Y-21622198D02*
X14455777Y-21641246D01*
X14455777Y-21641246D02*
X14455777Y-21698389D01*
X14455777Y-21698389D02*
X14446253Y-21717436D01*
X14446253Y-21717436D02*
X14436730Y-21726960D01*
X14436730Y-21726960D02*
X14417682Y-21736484D01*
X14417682Y-21736484D02*
X14389110Y-21736484D01*
X14570063Y-21736484D02*
X14551015Y-21726960D01*
X14551015Y-21726960D02*
X14541491Y-21707912D01*
X14541491Y-21707912D02*
X14541491Y-21536484D01*
X14722444Y-21726960D02*
X14703396Y-21736484D01*
X14703396Y-21736484D02*
X14665301Y-21736484D01*
X14665301Y-21736484D02*
X14646253Y-21726960D01*
X14646253Y-21726960D02*
X14636730Y-21707912D01*
X14636730Y-21707912D02*
X14636730Y-21631722D01*
X14636730Y-21631722D02*
X14646253Y-21612674D01*
X14646253Y-21612674D02*
X14665301Y-21603150D01*
X14665301Y-21603150D02*
X14703396Y-21603150D01*
X14703396Y-21603150D02*
X14722444Y-21612674D01*
X14722444Y-21612674D02*
X14731968Y-21631722D01*
X14731968Y-21631722D02*
X14731968Y-21650770D01*
X14731968Y-21650770D02*
X14636730Y-21669817D01*
X14808158Y-21726960D02*
X14827206Y-21736484D01*
X14827206Y-21736484D02*
X14865301Y-21736484D01*
X14865301Y-21736484D02*
X14884349Y-21726960D01*
X14884349Y-21726960D02*
X14893872Y-21707912D01*
X14893872Y-21707912D02*
X14893872Y-21698389D01*
X14893872Y-21698389D02*
X14884349Y-21679341D01*
X14884349Y-21679341D02*
X14865301Y-21669817D01*
X14865301Y-21669817D02*
X14836730Y-21669817D01*
X14836730Y-21669817D02*
X14817682Y-21660293D01*
X14817682Y-21660293D02*
X14808158Y-21641246D01*
X14808158Y-21641246D02*
X14808158Y-21631722D01*
X14808158Y-21631722D02*
X14817682Y-21612674D01*
X14817682Y-21612674D02*
X14836730Y-21603150D01*
X14836730Y-21603150D02*
X14865301Y-21603150D01*
X14865301Y-21603150D02*
X14884349Y-21612674D01*
X14960539Y-21812674D02*
X14970063Y-21803150D01*
X14970063Y-21803150D02*
X14989111Y-21774579D01*
X14989111Y-21774579D02*
X14998634Y-21755531D01*
X14998634Y-21755531D02*
X15008158Y-21726960D01*
X15008158Y-21726960D02*
X15017682Y-21679341D01*
X15017682Y-21679341D02*
X15017682Y-21641246D01*
X15017682Y-21641246D02*
X15008158Y-21593627D01*
X15008158Y-21593627D02*
X14998634Y-21565055D01*
X14998634Y-21565055D02*
X14989111Y-21546008D01*
X14989111Y-21546008D02*
X14970063Y-21517436D01*
X14970063Y-21517436D02*
X14960539Y-21507912D01*
D10*
X9995000Y-21909000D02*
G75*
G02*
X9895000Y-21909000I-50000J0D01*
G01*
X9895000Y-21909000D02*
G75*
G02*
X9995000Y-21909000I50000J0D01*
G01*
D11*
X10360539Y-22000484D02*
X10246253Y-22000484D01*
X10303396Y-22000484D02*
X10303396Y-21800484D01*
X10303396Y-21800484D02*
X10284348Y-21829055D01*
X10284348Y-21829055D02*
X10265301Y-21848103D01*
X10265301Y-21848103D02*
X10246253Y-21857627D01*
X10455777Y-21990960D02*
X10455777Y-22000484D01*
X10455777Y-22000484D02*
X10446253Y-22019531D01*
X10446253Y-22019531D02*
X10436729Y-22029055D01*
X10579586Y-21800484D02*
X10598634Y-21800484D01*
X10598634Y-21800484D02*
X10617682Y-21810008D01*
X10617682Y-21810008D02*
X10627205Y-21819531D01*
X10627205Y-21819531D02*
X10636729Y-21838579D01*
X10636729Y-21838579D02*
X10646253Y-21876674D01*
X10646253Y-21876674D02*
X10646253Y-21924293D01*
X10646253Y-21924293D02*
X10636729Y-21962389D01*
X10636729Y-21962389D02*
X10627205Y-21981436D01*
X10627205Y-21981436D02*
X10617682Y-21990960D01*
X10617682Y-21990960D02*
X10598634Y-22000484D01*
X10598634Y-22000484D02*
X10579586Y-22000484D01*
X10579586Y-22000484D02*
X10560539Y-21990960D01*
X10560539Y-21990960D02*
X10551015Y-21981436D01*
X10551015Y-21981436D02*
X10541491Y-21962389D01*
X10541491Y-21962389D02*
X10531967Y-21924293D01*
X10531967Y-21924293D02*
X10531967Y-21876674D01*
X10531967Y-21876674D02*
X10541491Y-21838579D01*
X10541491Y-21838579D02*
X10551015Y-21819531D01*
X10551015Y-21819531D02*
X10560539Y-21810008D01*
X10560539Y-21810008D02*
X10579586Y-21800484D01*
X10770063Y-21800484D02*
X10789110Y-21800484D01*
X10789110Y-21800484D02*
X10808158Y-21810008D01*
X10808158Y-21810008D02*
X10817682Y-21819531D01*
X10817682Y-21819531D02*
X10827205Y-21838579D01*
X10827205Y-21838579D02*
X10836729Y-21876674D01*
X10836729Y-21876674D02*
X10836729Y-21924293D01*
X10836729Y-21924293D02*
X10827205Y-21962389D01*
X10827205Y-21962389D02*
X10817682Y-21981436D01*
X10817682Y-21981436D02*
X10808158Y-21990960D01*
X10808158Y-21990960D02*
X10789110Y-22000484D01*
X10789110Y-22000484D02*
X10770063Y-22000484D01*
X10770063Y-22000484D02*
X10751015Y-21990960D01*
X10751015Y-21990960D02*
X10741491Y-21981436D01*
X10741491Y-21981436D02*
X10731967Y-21962389D01*
X10731967Y-21962389D02*
X10722444Y-21924293D01*
X10722444Y-21924293D02*
X10722444Y-21876674D01*
X10722444Y-21876674D02*
X10731967Y-21838579D01*
X10731967Y-21838579D02*
X10741491Y-21819531D01*
X10741491Y-21819531D02*
X10751015Y-21810008D01*
X10751015Y-21810008D02*
X10770063Y-21800484D01*
X10960539Y-21800484D02*
X10979586Y-21800484D01*
X10979586Y-21800484D02*
X10998634Y-21810008D01*
X10998634Y-21810008D02*
X11008158Y-21819531D01*
X11008158Y-21819531D02*
X11017682Y-21838579D01*
X11017682Y-21838579D02*
X11027205Y-21876674D01*
X11027205Y-21876674D02*
X11027205Y-21924293D01*
X11027205Y-21924293D02*
X11017682Y-21962389D01*
X11017682Y-21962389D02*
X11008158Y-21981436D01*
X11008158Y-21981436D02*
X10998634Y-21990960D01*
X10998634Y-21990960D02*
X10979586Y-22000484D01*
X10979586Y-22000484D02*
X10960539Y-22000484D01*
X10960539Y-22000484D02*
X10941491Y-21990960D01*
X10941491Y-21990960D02*
X10931967Y-21981436D01*
X10931967Y-21981436D02*
X10922444Y-21962389D01*
X10922444Y-21962389D02*
X10912920Y-21924293D01*
X10912920Y-21924293D02*
X10912920Y-21876674D01*
X10912920Y-21876674D02*
X10922444Y-21838579D01*
X10922444Y-21838579D02*
X10931967Y-21819531D01*
X10931967Y-21819531D02*
X10941491Y-21810008D01*
X10941491Y-21810008D02*
X10960539Y-21800484D01*
X11112920Y-22000484D02*
X11112920Y-21867150D01*
X11112920Y-21886198D02*
X11122444Y-21876674D01*
X11122444Y-21876674D02*
X11141491Y-21867150D01*
X11141491Y-21867150D02*
X11170063Y-21867150D01*
X11170063Y-21867150D02*
X11189110Y-21876674D01*
X11189110Y-21876674D02*
X11198634Y-21895722D01*
X11198634Y-21895722D02*
X11198634Y-22000484D01*
X11198634Y-21895722D02*
X11208158Y-21876674D01*
X11208158Y-21876674D02*
X11227205Y-21867150D01*
X11227205Y-21867150D02*
X11255777Y-21867150D01*
X11255777Y-21867150D02*
X11274824Y-21876674D01*
X11274824Y-21876674D02*
X11284348Y-21895722D01*
X11284348Y-21895722D02*
X11284348Y-22000484D01*
X11379586Y-22000484D02*
X11379586Y-21867150D01*
X11379586Y-21886198D02*
X11389110Y-21876674D01*
X11389110Y-21876674D02*
X11408158Y-21867150D01*
X11408158Y-21867150D02*
X11436729Y-21867150D01*
X11436729Y-21867150D02*
X11455777Y-21876674D01*
X11455777Y-21876674D02*
X11465301Y-21895722D01*
X11465301Y-21895722D02*
X11465301Y-22000484D01*
X11465301Y-21895722D02*
X11474824Y-21876674D01*
X11474824Y-21876674D02*
X11493872Y-21867150D01*
X11493872Y-21867150D02*
X11522443Y-21867150D01*
X11522443Y-21867150D02*
X11541491Y-21876674D01*
X11541491Y-21876674D02*
X11551015Y-21895722D01*
X11551015Y-21895722D02*
X11551015Y-22000484D01*
X11941491Y-21790960D02*
X11770063Y-22048103D01*
X12198634Y-21800484D02*
X12217682Y-21800484D01*
X12217682Y-21800484D02*
X12236729Y-21810008D01*
X12236729Y-21810008D02*
X12246253Y-21819531D01*
X12246253Y-21819531D02*
X12255777Y-21838579D01*
X12255777Y-21838579D02*
X12265301Y-21876674D01*
X12265301Y-21876674D02*
X12265301Y-21924293D01*
X12265301Y-21924293D02*
X12255777Y-21962389D01*
X12255777Y-21962389D02*
X12246253Y-21981436D01*
X12246253Y-21981436D02*
X12236729Y-21990960D01*
X12236729Y-21990960D02*
X12217682Y-22000484D01*
X12217682Y-22000484D02*
X12198634Y-22000484D01*
X12198634Y-22000484D02*
X12179586Y-21990960D01*
X12179586Y-21990960D02*
X12170063Y-21981436D01*
X12170063Y-21981436D02*
X12160539Y-21962389D01*
X12160539Y-21962389D02*
X12151015Y-21924293D01*
X12151015Y-21924293D02*
X12151015Y-21876674D01*
X12151015Y-21876674D02*
X12160539Y-21838579D01*
X12160539Y-21838579D02*
X12170063Y-21819531D01*
X12170063Y-21819531D02*
X12179586Y-21810008D01*
X12179586Y-21810008D02*
X12198634Y-21800484D01*
X12360539Y-21990960D02*
X12360539Y-22000484D01*
X12360539Y-22000484D02*
X12351015Y-22019531D01*
X12351015Y-22019531D02*
X12341491Y-22029055D01*
X12484348Y-21800484D02*
X12503396Y-21800484D01*
X12503396Y-21800484D02*
X12522444Y-21810008D01*
X12522444Y-21810008D02*
X12531967Y-21819531D01*
X12531967Y-21819531D02*
X12541491Y-21838579D01*
X12541491Y-21838579D02*
X12551015Y-21876674D01*
X12551015Y-21876674D02*
X12551015Y-21924293D01*
X12551015Y-21924293D02*
X12541491Y-21962389D01*
X12541491Y-21962389D02*
X12531967Y-21981436D01*
X12531967Y-21981436D02*
X12522444Y-21990960D01*
X12522444Y-21990960D02*
X12503396Y-22000484D01*
X12503396Y-22000484D02*
X12484348Y-22000484D01*
X12484348Y-22000484D02*
X12465301Y-21990960D01*
X12465301Y-21990960D02*
X12455777Y-21981436D01*
X12455777Y-21981436D02*
X12446253Y-21962389D01*
X12446253Y-21962389D02*
X12436729Y-21924293D01*
X12436729Y-21924293D02*
X12436729Y-21876674D01*
X12436729Y-21876674D02*
X12446253Y-21838579D01*
X12446253Y-21838579D02*
X12455777Y-21819531D01*
X12455777Y-21819531D02*
X12465301Y-21810008D01*
X12465301Y-21810008D02*
X12484348Y-21800484D01*
X12617682Y-21800484D02*
X12741491Y-21800484D01*
X12741491Y-21800484D02*
X12674825Y-21876674D01*
X12674825Y-21876674D02*
X12703396Y-21876674D01*
X12703396Y-21876674D02*
X12722444Y-21886198D01*
X12722444Y-21886198D02*
X12731967Y-21895722D01*
X12731967Y-21895722D02*
X12741491Y-21914770D01*
X12741491Y-21914770D02*
X12741491Y-21962389D01*
X12741491Y-21962389D02*
X12731967Y-21981436D01*
X12731967Y-21981436D02*
X12722444Y-21990960D01*
X12722444Y-21990960D02*
X12703396Y-22000484D01*
X12703396Y-22000484D02*
X12646253Y-22000484D01*
X12646253Y-22000484D02*
X12627206Y-21990960D01*
X12627206Y-21990960D02*
X12617682Y-21981436D01*
X12836729Y-22000484D02*
X12874825Y-22000484D01*
X12874825Y-22000484D02*
X12893872Y-21990960D01*
X12893872Y-21990960D02*
X12903396Y-21981436D01*
X12903396Y-21981436D02*
X12922444Y-21952865D01*
X12922444Y-21952865D02*
X12931967Y-21914770D01*
X12931967Y-21914770D02*
X12931967Y-21838579D01*
X12931967Y-21838579D02*
X12922444Y-21819531D01*
X12922444Y-21819531D02*
X12912920Y-21810008D01*
X12912920Y-21810008D02*
X12893872Y-21800484D01*
X12893872Y-21800484D02*
X12855777Y-21800484D01*
X12855777Y-21800484D02*
X12836729Y-21810008D01*
X12836729Y-21810008D02*
X12827206Y-21819531D01*
X12827206Y-21819531D02*
X12817682Y-21838579D01*
X12817682Y-21838579D02*
X12817682Y-21886198D01*
X12817682Y-21886198D02*
X12827206Y-21905246D01*
X12827206Y-21905246D02*
X12836729Y-21914770D01*
X12836729Y-21914770D02*
X12855777Y-21924293D01*
X12855777Y-21924293D02*
X12893872Y-21924293D01*
X12893872Y-21924293D02*
X12912920Y-21914770D01*
X12912920Y-21914770D02*
X12922444Y-21905246D01*
X12922444Y-21905246D02*
X12931967Y-21886198D01*
X13103396Y-21867150D02*
X13103396Y-22000484D01*
X13055777Y-21790960D02*
X13008158Y-21933817D01*
X13008158Y-21933817D02*
X13131967Y-21933817D01*
X13198634Y-21800484D02*
X13198634Y-21838579D01*
X13274825Y-21800484D02*
X13274825Y-21838579D01*
X13570063Y-22076674D02*
X13560539Y-22067150D01*
X13560539Y-22067150D02*
X13541491Y-22038579D01*
X13541491Y-22038579D02*
X13531968Y-22019531D01*
X13531968Y-22019531D02*
X13522444Y-21990960D01*
X13522444Y-21990960D02*
X13512920Y-21943341D01*
X13512920Y-21943341D02*
X13512920Y-21905246D01*
X13512920Y-21905246D02*
X13522444Y-21857627D01*
X13522444Y-21857627D02*
X13531968Y-21829055D01*
X13531968Y-21829055D02*
X13541491Y-21810008D01*
X13541491Y-21810008D02*
X13560539Y-21781436D01*
X13560539Y-21781436D02*
X13570063Y-21771912D01*
X13741491Y-21800484D02*
X13646253Y-21800484D01*
X13646253Y-21800484D02*
X13636729Y-21895722D01*
X13636729Y-21895722D02*
X13646253Y-21886198D01*
X13646253Y-21886198D02*
X13665301Y-21876674D01*
X13665301Y-21876674D02*
X13712920Y-21876674D01*
X13712920Y-21876674D02*
X13731968Y-21886198D01*
X13731968Y-21886198D02*
X13741491Y-21895722D01*
X13741491Y-21895722D02*
X13751015Y-21914770D01*
X13751015Y-21914770D02*
X13751015Y-21962389D01*
X13751015Y-21962389D02*
X13741491Y-21981436D01*
X13741491Y-21981436D02*
X13731968Y-21990960D01*
X13731968Y-21990960D02*
X13712920Y-22000484D01*
X13712920Y-22000484D02*
X13665301Y-22000484D01*
X13665301Y-22000484D02*
X13646253Y-21990960D01*
X13646253Y-21990960D02*
X13636729Y-21981436D01*
X13941491Y-22000484D02*
X13827206Y-22000484D01*
X13884348Y-22000484D02*
X13884348Y-21800484D01*
X13884348Y-21800484D02*
X13865301Y-21829055D01*
X13865301Y-21829055D02*
X13846253Y-21848103D01*
X13846253Y-21848103D02*
X13827206Y-21857627D01*
X14179587Y-22000484D02*
X14179587Y-21800484D01*
X14265301Y-22000484D02*
X14265301Y-21895722D01*
X14265301Y-21895722D02*
X14255777Y-21876674D01*
X14255777Y-21876674D02*
X14236730Y-21867150D01*
X14236730Y-21867150D02*
X14208158Y-21867150D01*
X14208158Y-21867150D02*
X14189110Y-21876674D01*
X14189110Y-21876674D02*
X14179587Y-21886198D01*
X14389110Y-22000484D02*
X14370063Y-21990960D01*
X14370063Y-21990960D02*
X14360539Y-21981436D01*
X14360539Y-21981436D02*
X14351015Y-21962389D01*
X14351015Y-21962389D02*
X14351015Y-21905246D01*
X14351015Y-21905246D02*
X14360539Y-21886198D01*
X14360539Y-21886198D02*
X14370063Y-21876674D01*
X14370063Y-21876674D02*
X14389110Y-21867150D01*
X14389110Y-21867150D02*
X14417682Y-21867150D01*
X14417682Y-21867150D02*
X14436730Y-21876674D01*
X14436730Y-21876674D02*
X14446253Y-21886198D01*
X14446253Y-21886198D02*
X14455777Y-21905246D01*
X14455777Y-21905246D02*
X14455777Y-21962389D01*
X14455777Y-21962389D02*
X14446253Y-21981436D01*
X14446253Y-21981436D02*
X14436730Y-21990960D01*
X14436730Y-21990960D02*
X14417682Y-22000484D01*
X14417682Y-22000484D02*
X14389110Y-22000484D01*
X14570063Y-22000484D02*
X14551015Y-21990960D01*
X14551015Y-21990960D02*
X14541491Y-21971912D01*
X14541491Y-21971912D02*
X14541491Y-21800484D01*
X14722444Y-21990960D02*
X14703396Y-22000484D01*
X14703396Y-22000484D02*
X14665301Y-22000484D01*
X14665301Y-22000484D02*
X14646253Y-21990960D01*
X14646253Y-21990960D02*
X14636730Y-21971912D01*
X14636730Y-21971912D02*
X14636730Y-21895722D01*
X14636730Y-21895722D02*
X14646253Y-21876674D01*
X14646253Y-21876674D02*
X14665301Y-21867150D01*
X14665301Y-21867150D02*
X14703396Y-21867150D01*
X14703396Y-21867150D02*
X14722444Y-21876674D01*
X14722444Y-21876674D02*
X14731968Y-21895722D01*
X14731968Y-21895722D02*
X14731968Y-21914770D01*
X14731968Y-21914770D02*
X14636730Y-21933817D01*
X14808158Y-21990960D02*
X14827206Y-22000484D01*
X14827206Y-22000484D02*
X14865301Y-22000484D01*
X14865301Y-22000484D02*
X14884349Y-21990960D01*
X14884349Y-21990960D02*
X14893872Y-21971912D01*
X14893872Y-21971912D02*
X14893872Y-21962389D01*
X14893872Y-21962389D02*
X14884349Y-21943341D01*
X14884349Y-21943341D02*
X14865301Y-21933817D01*
X14865301Y-21933817D02*
X14836730Y-21933817D01*
X14836730Y-21933817D02*
X14817682Y-21924293D01*
X14817682Y-21924293D02*
X14808158Y-21905246D01*
X14808158Y-21905246D02*
X14808158Y-21895722D01*
X14808158Y-21895722D02*
X14817682Y-21876674D01*
X14817682Y-21876674D02*
X14836730Y-21867150D01*
X14836730Y-21867150D02*
X14865301Y-21867150D01*
X14865301Y-21867150D02*
X14884349Y-21876674D01*
X14960539Y-22076674D02*
X14970063Y-22067150D01*
X14970063Y-22067150D02*
X14989111Y-22038579D01*
X14989111Y-22038579D02*
X14998634Y-22019531D01*
X14998634Y-22019531D02*
X15008158Y-21990960D01*
X15008158Y-21990960D02*
X15017682Y-21943341D01*
X15017682Y-21943341D02*
X15017682Y-21905246D01*
X15017682Y-21905246D02*
X15008158Y-21857627D01*
X15008158Y-21857627D02*
X14998634Y-21829055D01*
X14998634Y-21829055D02*
X14989111Y-21810008D01*
X14989111Y-21810008D02*
X14970063Y-21781436D01*
X14970063Y-21781436D02*
X14960539Y-21771912D01*
D12*
X9940000Y-22118000D02*
X9940000Y-22228000D01*
X9885000Y-22173000D02*
X9995000Y-22173000D01*
D11*
X10360539Y-22264484D02*
X10246253Y-22264484D01*
X10303396Y-22264484D02*
X10303396Y-22064484D01*
X10303396Y-22064484D02*
X10284348Y-22093055D01*
X10284348Y-22093055D02*
X10265301Y-22112103D01*
X10265301Y-22112103D02*
X10246253Y-22121627D01*
X10455777Y-22254960D02*
X10455777Y-22264484D01*
X10455777Y-22264484D02*
X10446253Y-22283531D01*
X10446253Y-22283531D02*
X10436729Y-22293055D01*
X10646253Y-22264484D02*
X10531967Y-22264484D01*
X10589110Y-22264484D02*
X10589110Y-22064484D01*
X10589110Y-22064484D02*
X10570063Y-22093055D01*
X10570063Y-22093055D02*
X10551015Y-22112103D01*
X10551015Y-22112103D02*
X10531967Y-22121627D01*
X10770063Y-22064484D02*
X10789110Y-22064484D01*
X10789110Y-22064484D02*
X10808158Y-22074008D01*
X10808158Y-22074008D02*
X10817682Y-22083531D01*
X10817682Y-22083531D02*
X10827205Y-22102579D01*
X10827205Y-22102579D02*
X10836729Y-22140674D01*
X10836729Y-22140674D02*
X10836729Y-22188293D01*
X10836729Y-22188293D02*
X10827205Y-22226389D01*
X10827205Y-22226389D02*
X10817682Y-22245436D01*
X10817682Y-22245436D02*
X10808158Y-22254960D01*
X10808158Y-22254960D02*
X10789110Y-22264484D01*
X10789110Y-22264484D02*
X10770063Y-22264484D01*
X10770063Y-22264484D02*
X10751015Y-22254960D01*
X10751015Y-22254960D02*
X10741491Y-22245436D01*
X10741491Y-22245436D02*
X10731967Y-22226389D01*
X10731967Y-22226389D02*
X10722444Y-22188293D01*
X10722444Y-22188293D02*
X10722444Y-22140674D01*
X10722444Y-22140674D02*
X10731967Y-22102579D01*
X10731967Y-22102579D02*
X10741491Y-22083531D01*
X10741491Y-22083531D02*
X10751015Y-22074008D01*
X10751015Y-22074008D02*
X10770063Y-22064484D01*
X10960539Y-22064484D02*
X10979586Y-22064484D01*
X10979586Y-22064484D02*
X10998634Y-22074008D01*
X10998634Y-22074008D02*
X11008158Y-22083531D01*
X11008158Y-22083531D02*
X11017682Y-22102579D01*
X11017682Y-22102579D02*
X11027205Y-22140674D01*
X11027205Y-22140674D02*
X11027205Y-22188293D01*
X11027205Y-22188293D02*
X11017682Y-22226389D01*
X11017682Y-22226389D02*
X11008158Y-22245436D01*
X11008158Y-22245436D02*
X10998634Y-22254960D01*
X10998634Y-22254960D02*
X10979586Y-22264484D01*
X10979586Y-22264484D02*
X10960539Y-22264484D01*
X10960539Y-22264484D02*
X10941491Y-22254960D01*
X10941491Y-22254960D02*
X10931967Y-22245436D01*
X10931967Y-22245436D02*
X10922444Y-22226389D01*
X10922444Y-22226389D02*
X10912920Y-22188293D01*
X10912920Y-22188293D02*
X10912920Y-22140674D01*
X10912920Y-22140674D02*
X10922444Y-22102579D01*
X10922444Y-22102579D02*
X10931967Y-22083531D01*
X10931967Y-22083531D02*
X10941491Y-22074008D01*
X10941491Y-22074008D02*
X10960539Y-22064484D01*
X11112920Y-22264484D02*
X11112920Y-22131150D01*
X11112920Y-22150198D02*
X11122444Y-22140674D01*
X11122444Y-22140674D02*
X11141491Y-22131150D01*
X11141491Y-22131150D02*
X11170063Y-22131150D01*
X11170063Y-22131150D02*
X11189110Y-22140674D01*
X11189110Y-22140674D02*
X11198634Y-22159722D01*
X11198634Y-22159722D02*
X11198634Y-22264484D01*
X11198634Y-22159722D02*
X11208158Y-22140674D01*
X11208158Y-22140674D02*
X11227205Y-22131150D01*
X11227205Y-22131150D02*
X11255777Y-22131150D01*
X11255777Y-22131150D02*
X11274824Y-22140674D01*
X11274824Y-22140674D02*
X11284348Y-22159722D01*
X11284348Y-22159722D02*
X11284348Y-22264484D01*
X11379586Y-22264484D02*
X11379586Y-22131150D01*
X11379586Y-22150198D02*
X11389110Y-22140674D01*
X11389110Y-22140674D02*
X11408158Y-22131150D01*
X11408158Y-22131150D02*
X11436729Y-22131150D01*
X11436729Y-22131150D02*
X11455777Y-22140674D01*
X11455777Y-22140674D02*
X11465301Y-22159722D01*
X11465301Y-22159722D02*
X11465301Y-22264484D01*
X11465301Y-22159722D02*
X11474824Y-22140674D01*
X11474824Y-22140674D02*
X11493872Y-22131150D01*
X11493872Y-22131150D02*
X11522443Y-22131150D01*
X11522443Y-22131150D02*
X11541491Y-22140674D01*
X11541491Y-22140674D02*
X11551015Y-22159722D01*
X11551015Y-22159722D02*
X11551015Y-22264484D01*
X11941491Y-22054960D02*
X11770063Y-22312103D01*
X12198634Y-22064484D02*
X12217682Y-22064484D01*
X12217682Y-22064484D02*
X12236729Y-22074008D01*
X12236729Y-22074008D02*
X12246253Y-22083531D01*
X12246253Y-22083531D02*
X12255777Y-22102579D01*
X12255777Y-22102579D02*
X12265301Y-22140674D01*
X12265301Y-22140674D02*
X12265301Y-22188293D01*
X12265301Y-22188293D02*
X12255777Y-22226389D01*
X12255777Y-22226389D02*
X12246253Y-22245436D01*
X12246253Y-22245436D02*
X12236729Y-22254960D01*
X12236729Y-22254960D02*
X12217682Y-22264484D01*
X12217682Y-22264484D02*
X12198634Y-22264484D01*
X12198634Y-22264484D02*
X12179586Y-22254960D01*
X12179586Y-22254960D02*
X12170063Y-22245436D01*
X12170063Y-22245436D02*
X12160539Y-22226389D01*
X12160539Y-22226389D02*
X12151015Y-22188293D01*
X12151015Y-22188293D02*
X12151015Y-22140674D01*
X12151015Y-22140674D02*
X12160539Y-22102579D01*
X12160539Y-22102579D02*
X12170063Y-22083531D01*
X12170063Y-22083531D02*
X12179586Y-22074008D01*
X12179586Y-22074008D02*
X12198634Y-22064484D01*
X12360539Y-22254960D02*
X12360539Y-22264484D01*
X12360539Y-22264484D02*
X12351015Y-22283531D01*
X12351015Y-22283531D02*
X12341491Y-22293055D01*
X12484348Y-22064484D02*
X12503396Y-22064484D01*
X12503396Y-22064484D02*
X12522444Y-22074008D01*
X12522444Y-22074008D02*
X12531967Y-22083531D01*
X12531967Y-22083531D02*
X12541491Y-22102579D01*
X12541491Y-22102579D02*
X12551015Y-22140674D01*
X12551015Y-22140674D02*
X12551015Y-22188293D01*
X12551015Y-22188293D02*
X12541491Y-22226389D01*
X12541491Y-22226389D02*
X12531967Y-22245436D01*
X12531967Y-22245436D02*
X12522444Y-22254960D01*
X12522444Y-22254960D02*
X12503396Y-22264484D01*
X12503396Y-22264484D02*
X12484348Y-22264484D01*
X12484348Y-22264484D02*
X12465301Y-22254960D01*
X12465301Y-22254960D02*
X12455777Y-22245436D01*
X12455777Y-22245436D02*
X12446253Y-22226389D01*
X12446253Y-22226389D02*
X12436729Y-22188293D01*
X12436729Y-22188293D02*
X12436729Y-22140674D01*
X12436729Y-22140674D02*
X12446253Y-22102579D01*
X12446253Y-22102579D02*
X12455777Y-22083531D01*
X12455777Y-22083531D02*
X12465301Y-22074008D01*
X12465301Y-22074008D02*
X12484348Y-22064484D01*
X12722444Y-22131150D02*
X12722444Y-22264484D01*
X12674825Y-22054960D02*
X12627206Y-22197817D01*
X12627206Y-22197817D02*
X12751015Y-22197817D01*
X12808158Y-22064484D02*
X12931967Y-22064484D01*
X12931967Y-22064484D02*
X12865301Y-22140674D01*
X12865301Y-22140674D02*
X12893872Y-22140674D01*
X12893872Y-22140674D02*
X12912920Y-22150198D01*
X12912920Y-22150198D02*
X12922444Y-22159722D01*
X12922444Y-22159722D02*
X12931967Y-22178770D01*
X12931967Y-22178770D02*
X12931967Y-22226389D01*
X12931967Y-22226389D02*
X12922444Y-22245436D01*
X12922444Y-22245436D02*
X12912920Y-22254960D01*
X12912920Y-22254960D02*
X12893872Y-22264484D01*
X12893872Y-22264484D02*
X12836729Y-22264484D01*
X12836729Y-22264484D02*
X12817682Y-22254960D01*
X12817682Y-22254960D02*
X12808158Y-22245436D01*
X12998634Y-22064484D02*
X13122444Y-22064484D01*
X13122444Y-22064484D02*
X13055777Y-22140674D01*
X13055777Y-22140674D02*
X13084348Y-22140674D01*
X13084348Y-22140674D02*
X13103396Y-22150198D01*
X13103396Y-22150198D02*
X13112920Y-22159722D01*
X13112920Y-22159722D02*
X13122444Y-22178770D01*
X13122444Y-22178770D02*
X13122444Y-22226389D01*
X13122444Y-22226389D02*
X13112920Y-22245436D01*
X13112920Y-22245436D02*
X13103396Y-22254960D01*
X13103396Y-22254960D02*
X13084348Y-22264484D01*
X13084348Y-22264484D02*
X13027206Y-22264484D01*
X13027206Y-22264484D02*
X13008158Y-22254960D01*
X13008158Y-22254960D02*
X12998634Y-22245436D01*
X13198634Y-22064484D02*
X13198634Y-22102579D01*
X13274825Y-22064484D02*
X13274825Y-22102579D01*
X13570063Y-22340674D02*
X13560539Y-22331150D01*
X13560539Y-22331150D02*
X13541491Y-22302579D01*
X13541491Y-22302579D02*
X13531968Y-22283531D01*
X13531968Y-22283531D02*
X13522444Y-22254960D01*
X13522444Y-22254960D02*
X13512920Y-22207341D01*
X13512920Y-22207341D02*
X13512920Y-22169246D01*
X13512920Y-22169246D02*
X13522444Y-22121627D01*
X13522444Y-22121627D02*
X13531968Y-22093055D01*
X13531968Y-22093055D02*
X13541491Y-22074008D01*
X13541491Y-22074008D02*
X13560539Y-22045436D01*
X13560539Y-22045436D02*
X13570063Y-22035912D01*
X13674825Y-22150198D02*
X13655777Y-22140674D01*
X13655777Y-22140674D02*
X13646253Y-22131150D01*
X13646253Y-22131150D02*
X13636729Y-22112103D01*
X13636729Y-22112103D02*
X13636729Y-22102579D01*
X13636729Y-22102579D02*
X13646253Y-22083531D01*
X13646253Y-22083531D02*
X13655777Y-22074008D01*
X13655777Y-22074008D02*
X13674825Y-22064484D01*
X13674825Y-22064484D02*
X13712920Y-22064484D01*
X13712920Y-22064484D02*
X13731968Y-22074008D01*
X13731968Y-22074008D02*
X13741491Y-22083531D01*
X13741491Y-22083531D02*
X13751015Y-22102579D01*
X13751015Y-22102579D02*
X13751015Y-22112103D01*
X13751015Y-22112103D02*
X13741491Y-22131150D01*
X13741491Y-22131150D02*
X13731968Y-22140674D01*
X13731968Y-22140674D02*
X13712920Y-22150198D01*
X13712920Y-22150198D02*
X13674825Y-22150198D01*
X13674825Y-22150198D02*
X13655777Y-22159722D01*
X13655777Y-22159722D02*
X13646253Y-22169246D01*
X13646253Y-22169246D02*
X13636729Y-22188293D01*
X13636729Y-22188293D02*
X13636729Y-22226389D01*
X13636729Y-22226389D02*
X13646253Y-22245436D01*
X13646253Y-22245436D02*
X13655777Y-22254960D01*
X13655777Y-22254960D02*
X13674825Y-22264484D01*
X13674825Y-22264484D02*
X13712920Y-22264484D01*
X13712920Y-22264484D02*
X13731968Y-22254960D01*
X13731968Y-22254960D02*
X13741491Y-22245436D01*
X13741491Y-22245436D02*
X13751015Y-22226389D01*
X13751015Y-22226389D02*
X13751015Y-22188293D01*
X13751015Y-22188293D02*
X13741491Y-22169246D01*
X13741491Y-22169246D02*
X13731968Y-22159722D01*
X13731968Y-22159722D02*
X13712920Y-22150198D01*
X13989110Y-22264484D02*
X13989110Y-22064484D01*
X14074825Y-22264484D02*
X14074825Y-22159722D01*
X14074825Y-22159722D02*
X14065301Y-22140674D01*
X14065301Y-22140674D02*
X14046253Y-22131150D01*
X14046253Y-22131150D02*
X14017682Y-22131150D01*
X14017682Y-22131150D02*
X13998634Y-22140674D01*
X13998634Y-22140674D02*
X13989110Y-22150198D01*
X14198634Y-22264484D02*
X14179587Y-22254960D01*
X14179587Y-22254960D02*
X14170063Y-22245436D01*
X14170063Y-22245436D02*
X14160539Y-22226389D01*
X14160539Y-22226389D02*
X14160539Y-22169246D01*
X14160539Y-22169246D02*
X14170063Y-22150198D01*
X14170063Y-22150198D02*
X14179587Y-22140674D01*
X14179587Y-22140674D02*
X14198634Y-22131150D01*
X14198634Y-22131150D02*
X14227206Y-22131150D01*
X14227206Y-22131150D02*
X14246253Y-22140674D01*
X14246253Y-22140674D02*
X14255777Y-22150198D01*
X14255777Y-22150198D02*
X14265301Y-22169246D01*
X14265301Y-22169246D02*
X14265301Y-22226389D01*
X14265301Y-22226389D02*
X14255777Y-22245436D01*
X14255777Y-22245436D02*
X14246253Y-22254960D01*
X14246253Y-22254960D02*
X14227206Y-22264484D01*
X14227206Y-22264484D02*
X14198634Y-22264484D01*
X14379587Y-22264484D02*
X14360539Y-22254960D01*
X14360539Y-22254960D02*
X14351015Y-22235912D01*
X14351015Y-22235912D02*
X14351015Y-22064484D01*
X14531968Y-22254960D02*
X14512920Y-22264484D01*
X14512920Y-22264484D02*
X14474825Y-22264484D01*
X14474825Y-22264484D02*
X14455777Y-22254960D01*
X14455777Y-22254960D02*
X14446253Y-22235912D01*
X14446253Y-22235912D02*
X14446253Y-22159722D01*
X14446253Y-22159722D02*
X14455777Y-22140674D01*
X14455777Y-22140674D02*
X14474825Y-22131150D01*
X14474825Y-22131150D02*
X14512920Y-22131150D01*
X14512920Y-22131150D02*
X14531968Y-22140674D01*
X14531968Y-22140674D02*
X14541491Y-22159722D01*
X14541491Y-22159722D02*
X14541491Y-22178770D01*
X14541491Y-22178770D02*
X14446253Y-22197817D01*
X14617682Y-22254960D02*
X14636730Y-22264484D01*
X14636730Y-22264484D02*
X14674825Y-22264484D01*
X14674825Y-22264484D02*
X14693872Y-22254960D01*
X14693872Y-22254960D02*
X14703396Y-22235912D01*
X14703396Y-22235912D02*
X14703396Y-22226389D01*
X14703396Y-22226389D02*
X14693872Y-22207341D01*
X14693872Y-22207341D02*
X14674825Y-22197817D01*
X14674825Y-22197817D02*
X14646253Y-22197817D01*
X14646253Y-22197817D02*
X14627206Y-22188293D01*
X14627206Y-22188293D02*
X14617682Y-22169246D01*
X14617682Y-22169246D02*
X14617682Y-22159722D01*
X14617682Y-22159722D02*
X14627206Y-22140674D01*
X14627206Y-22140674D02*
X14646253Y-22131150D01*
X14646253Y-22131150D02*
X14674825Y-22131150D01*
X14674825Y-22131150D02*
X14693872Y-22140674D01*
X14770063Y-22340674D02*
X14779587Y-22331150D01*
X14779587Y-22331150D02*
X14798634Y-22302579D01*
X14798634Y-22302579D02*
X14808158Y-22283531D01*
X14808158Y-22283531D02*
X14817682Y-22254960D01*
X14817682Y-22254960D02*
X14827206Y-22207341D01*
X14827206Y-22207341D02*
X14827206Y-22169246D01*
X14827206Y-22169246D02*
X14817682Y-22121627D01*
X14817682Y-22121627D02*
X14808158Y-22093055D01*
X14808158Y-22093055D02*
X14798634Y-22074008D01*
X14798634Y-22074008D02*
X14779587Y-22045436D01*
X14779587Y-22045436D02*
X14770063Y-22035912D01*
D13*
X9973034Y-22490033D02*
X9973034Y-22383966D01*
X9866967Y-22383966D01*
X9866967Y-22490033D01*
X9973034Y-22490033D01*
D11*
X10360539Y-22528484D02*
X10246253Y-22528484D01*
X10303396Y-22528484D02*
X10303396Y-22328484D01*
X10303396Y-22328484D02*
X10284348Y-22357055D01*
X10284348Y-22357055D02*
X10265301Y-22376103D01*
X10265301Y-22376103D02*
X10246253Y-22385627D01*
X10455777Y-22518960D02*
X10455777Y-22528484D01*
X10455777Y-22528484D02*
X10446253Y-22547531D01*
X10446253Y-22547531D02*
X10436729Y-22557055D01*
X10636729Y-22328484D02*
X10541491Y-22328484D01*
X10541491Y-22328484D02*
X10531967Y-22423722D01*
X10531967Y-22423722D02*
X10541491Y-22414198D01*
X10541491Y-22414198D02*
X10560539Y-22404674D01*
X10560539Y-22404674D02*
X10608158Y-22404674D01*
X10608158Y-22404674D02*
X10627205Y-22414198D01*
X10627205Y-22414198D02*
X10636729Y-22423722D01*
X10636729Y-22423722D02*
X10646253Y-22442769D01*
X10646253Y-22442769D02*
X10646253Y-22490388D01*
X10646253Y-22490388D02*
X10636729Y-22509436D01*
X10636729Y-22509436D02*
X10627205Y-22518960D01*
X10627205Y-22518960D02*
X10608158Y-22528484D01*
X10608158Y-22528484D02*
X10560539Y-22528484D01*
X10560539Y-22528484D02*
X10541491Y-22518960D01*
X10541491Y-22518960D02*
X10531967Y-22509436D01*
X10770063Y-22328484D02*
X10789110Y-22328484D01*
X10789110Y-22328484D02*
X10808158Y-22338008D01*
X10808158Y-22338008D02*
X10817682Y-22347531D01*
X10817682Y-22347531D02*
X10827205Y-22366579D01*
X10827205Y-22366579D02*
X10836729Y-22404674D01*
X10836729Y-22404674D02*
X10836729Y-22452293D01*
X10836729Y-22452293D02*
X10827205Y-22490388D01*
X10827205Y-22490388D02*
X10817682Y-22509436D01*
X10817682Y-22509436D02*
X10808158Y-22518960D01*
X10808158Y-22518960D02*
X10789110Y-22528484D01*
X10789110Y-22528484D02*
X10770063Y-22528484D01*
X10770063Y-22528484D02*
X10751015Y-22518960D01*
X10751015Y-22518960D02*
X10741491Y-22509436D01*
X10741491Y-22509436D02*
X10731967Y-22490388D01*
X10731967Y-22490388D02*
X10722444Y-22452293D01*
X10722444Y-22452293D02*
X10722444Y-22404674D01*
X10722444Y-22404674D02*
X10731967Y-22366579D01*
X10731967Y-22366579D02*
X10741491Y-22347531D01*
X10741491Y-22347531D02*
X10751015Y-22338008D01*
X10751015Y-22338008D02*
X10770063Y-22328484D01*
X10960539Y-22328484D02*
X10979586Y-22328484D01*
X10979586Y-22328484D02*
X10998634Y-22338008D01*
X10998634Y-22338008D02*
X11008158Y-22347531D01*
X11008158Y-22347531D02*
X11017682Y-22366579D01*
X11017682Y-22366579D02*
X11027205Y-22404674D01*
X11027205Y-22404674D02*
X11027205Y-22452293D01*
X11027205Y-22452293D02*
X11017682Y-22490388D01*
X11017682Y-22490388D02*
X11008158Y-22509436D01*
X11008158Y-22509436D02*
X10998634Y-22518960D01*
X10998634Y-22518960D02*
X10979586Y-22528484D01*
X10979586Y-22528484D02*
X10960539Y-22528484D01*
X10960539Y-22528484D02*
X10941491Y-22518960D01*
X10941491Y-22518960D02*
X10931967Y-22509436D01*
X10931967Y-22509436D02*
X10922444Y-22490388D01*
X10922444Y-22490388D02*
X10912920Y-22452293D01*
X10912920Y-22452293D02*
X10912920Y-22404674D01*
X10912920Y-22404674D02*
X10922444Y-22366579D01*
X10922444Y-22366579D02*
X10931967Y-22347531D01*
X10931967Y-22347531D02*
X10941491Y-22338008D01*
X10941491Y-22338008D02*
X10960539Y-22328484D01*
X11112920Y-22528484D02*
X11112920Y-22395150D01*
X11112920Y-22414198D02*
X11122444Y-22404674D01*
X11122444Y-22404674D02*
X11141491Y-22395150D01*
X11141491Y-22395150D02*
X11170063Y-22395150D01*
X11170063Y-22395150D02*
X11189110Y-22404674D01*
X11189110Y-22404674D02*
X11198634Y-22423722D01*
X11198634Y-22423722D02*
X11198634Y-22528484D01*
X11198634Y-22423722D02*
X11208158Y-22404674D01*
X11208158Y-22404674D02*
X11227205Y-22395150D01*
X11227205Y-22395150D02*
X11255777Y-22395150D01*
X11255777Y-22395150D02*
X11274824Y-22404674D01*
X11274824Y-22404674D02*
X11284348Y-22423722D01*
X11284348Y-22423722D02*
X11284348Y-22528484D01*
X11379586Y-22528484D02*
X11379586Y-22395150D01*
X11379586Y-22414198D02*
X11389110Y-22404674D01*
X11389110Y-22404674D02*
X11408158Y-22395150D01*
X11408158Y-22395150D02*
X11436729Y-22395150D01*
X11436729Y-22395150D02*
X11455777Y-22404674D01*
X11455777Y-22404674D02*
X11465301Y-22423722D01*
X11465301Y-22423722D02*
X11465301Y-22528484D01*
X11465301Y-22423722D02*
X11474824Y-22404674D01*
X11474824Y-22404674D02*
X11493872Y-22395150D01*
X11493872Y-22395150D02*
X11522443Y-22395150D01*
X11522443Y-22395150D02*
X11541491Y-22404674D01*
X11541491Y-22404674D02*
X11551015Y-22423722D01*
X11551015Y-22423722D02*
X11551015Y-22528484D01*
X11941491Y-22318960D02*
X11770063Y-22576103D01*
X12198634Y-22328484D02*
X12217682Y-22328484D01*
X12217682Y-22328484D02*
X12236729Y-22338008D01*
X12236729Y-22338008D02*
X12246253Y-22347531D01*
X12246253Y-22347531D02*
X12255777Y-22366579D01*
X12255777Y-22366579D02*
X12265301Y-22404674D01*
X12265301Y-22404674D02*
X12265301Y-22452293D01*
X12265301Y-22452293D02*
X12255777Y-22490388D01*
X12255777Y-22490388D02*
X12246253Y-22509436D01*
X12246253Y-22509436D02*
X12236729Y-22518960D01*
X12236729Y-22518960D02*
X12217682Y-22528484D01*
X12217682Y-22528484D02*
X12198634Y-22528484D01*
X12198634Y-22528484D02*
X12179586Y-22518960D01*
X12179586Y-22518960D02*
X12170063Y-22509436D01*
X12170063Y-22509436D02*
X12160539Y-22490388D01*
X12160539Y-22490388D02*
X12151015Y-22452293D01*
X12151015Y-22452293D02*
X12151015Y-22404674D01*
X12151015Y-22404674D02*
X12160539Y-22366579D01*
X12160539Y-22366579D02*
X12170063Y-22347531D01*
X12170063Y-22347531D02*
X12179586Y-22338008D01*
X12179586Y-22338008D02*
X12198634Y-22328484D01*
X12360539Y-22518960D02*
X12360539Y-22528484D01*
X12360539Y-22528484D02*
X12351015Y-22547531D01*
X12351015Y-22547531D02*
X12341491Y-22557055D01*
X12484348Y-22328484D02*
X12503396Y-22328484D01*
X12503396Y-22328484D02*
X12522444Y-22338008D01*
X12522444Y-22338008D02*
X12531967Y-22347531D01*
X12531967Y-22347531D02*
X12541491Y-22366579D01*
X12541491Y-22366579D02*
X12551015Y-22404674D01*
X12551015Y-22404674D02*
X12551015Y-22452293D01*
X12551015Y-22452293D02*
X12541491Y-22490388D01*
X12541491Y-22490388D02*
X12531967Y-22509436D01*
X12531967Y-22509436D02*
X12522444Y-22518960D01*
X12522444Y-22518960D02*
X12503396Y-22528484D01*
X12503396Y-22528484D02*
X12484348Y-22528484D01*
X12484348Y-22528484D02*
X12465301Y-22518960D01*
X12465301Y-22518960D02*
X12455777Y-22509436D01*
X12455777Y-22509436D02*
X12446253Y-22490388D01*
X12446253Y-22490388D02*
X12436729Y-22452293D01*
X12436729Y-22452293D02*
X12436729Y-22404674D01*
X12436729Y-22404674D02*
X12446253Y-22366579D01*
X12446253Y-22366579D02*
X12455777Y-22347531D01*
X12455777Y-22347531D02*
X12465301Y-22338008D01*
X12465301Y-22338008D02*
X12484348Y-22328484D01*
X12731967Y-22328484D02*
X12636729Y-22328484D01*
X12636729Y-22328484D02*
X12627206Y-22423722D01*
X12627206Y-22423722D02*
X12636729Y-22414198D01*
X12636729Y-22414198D02*
X12655777Y-22404674D01*
X12655777Y-22404674D02*
X12703396Y-22404674D01*
X12703396Y-22404674D02*
X12722444Y-22414198D01*
X12722444Y-22414198D02*
X12731967Y-22423722D01*
X12731967Y-22423722D02*
X12741491Y-22442769D01*
X12741491Y-22442769D02*
X12741491Y-22490388D01*
X12741491Y-22490388D02*
X12731967Y-22509436D01*
X12731967Y-22509436D02*
X12722444Y-22518960D01*
X12722444Y-22518960D02*
X12703396Y-22528484D01*
X12703396Y-22528484D02*
X12655777Y-22528484D01*
X12655777Y-22528484D02*
X12636729Y-22518960D01*
X12636729Y-22518960D02*
X12627206Y-22509436D01*
X12836729Y-22528484D02*
X12874825Y-22528484D01*
X12874825Y-22528484D02*
X12893872Y-22518960D01*
X12893872Y-22518960D02*
X12903396Y-22509436D01*
X12903396Y-22509436D02*
X12922444Y-22480865D01*
X12922444Y-22480865D02*
X12931967Y-22442769D01*
X12931967Y-22442769D02*
X12931967Y-22366579D01*
X12931967Y-22366579D02*
X12922444Y-22347531D01*
X12922444Y-22347531D02*
X12912920Y-22338008D01*
X12912920Y-22338008D02*
X12893872Y-22328484D01*
X12893872Y-22328484D02*
X12855777Y-22328484D01*
X12855777Y-22328484D02*
X12836729Y-22338008D01*
X12836729Y-22338008D02*
X12827206Y-22347531D01*
X12827206Y-22347531D02*
X12817682Y-22366579D01*
X12817682Y-22366579D02*
X12817682Y-22414198D01*
X12817682Y-22414198D02*
X12827206Y-22433246D01*
X12827206Y-22433246D02*
X12836729Y-22442769D01*
X12836729Y-22442769D02*
X12855777Y-22452293D01*
X12855777Y-22452293D02*
X12893872Y-22452293D01*
X12893872Y-22452293D02*
X12912920Y-22442769D01*
X12912920Y-22442769D02*
X12922444Y-22433246D01*
X12922444Y-22433246D02*
X12931967Y-22414198D01*
X13122444Y-22528484D02*
X13008158Y-22528484D01*
X13065301Y-22528484D02*
X13065301Y-22328484D01*
X13065301Y-22328484D02*
X13046253Y-22357055D01*
X13046253Y-22357055D02*
X13027206Y-22376103D01*
X13027206Y-22376103D02*
X13008158Y-22385627D01*
X13198634Y-22328484D02*
X13198634Y-22366579D01*
X13274825Y-22328484D02*
X13274825Y-22366579D01*
X13570063Y-22604674D02*
X13560539Y-22595150D01*
X13560539Y-22595150D02*
X13541491Y-22566579D01*
X13541491Y-22566579D02*
X13531968Y-22547531D01*
X13531968Y-22547531D02*
X13522444Y-22518960D01*
X13522444Y-22518960D02*
X13512920Y-22471341D01*
X13512920Y-22471341D02*
X13512920Y-22433246D01*
X13512920Y-22433246D02*
X13522444Y-22385627D01*
X13522444Y-22385627D02*
X13531968Y-22357055D01*
X13531968Y-22357055D02*
X13541491Y-22338008D01*
X13541491Y-22338008D02*
X13560539Y-22309436D01*
X13560539Y-22309436D02*
X13570063Y-22299912D01*
X13684348Y-22328484D02*
X13703396Y-22328484D01*
X13703396Y-22328484D02*
X13722444Y-22338008D01*
X13722444Y-22338008D02*
X13731968Y-22347531D01*
X13731968Y-22347531D02*
X13741491Y-22366579D01*
X13741491Y-22366579D02*
X13751015Y-22404674D01*
X13751015Y-22404674D02*
X13751015Y-22452293D01*
X13751015Y-22452293D02*
X13741491Y-22490388D01*
X13741491Y-22490388D02*
X13731968Y-22509436D01*
X13731968Y-22509436D02*
X13722444Y-22518960D01*
X13722444Y-22518960D02*
X13703396Y-22528484D01*
X13703396Y-22528484D02*
X13684348Y-22528484D01*
X13684348Y-22528484D02*
X13665301Y-22518960D01*
X13665301Y-22518960D02*
X13655777Y-22509436D01*
X13655777Y-22509436D02*
X13646253Y-22490388D01*
X13646253Y-22490388D02*
X13636729Y-22452293D01*
X13636729Y-22452293D02*
X13636729Y-22404674D01*
X13636729Y-22404674D02*
X13646253Y-22366579D01*
X13646253Y-22366579D02*
X13655777Y-22347531D01*
X13655777Y-22347531D02*
X13665301Y-22338008D01*
X13665301Y-22338008D02*
X13684348Y-22328484D01*
X13989110Y-22528484D02*
X13989110Y-22328484D01*
X14074825Y-22528484D02*
X14074825Y-22423722D01*
X14074825Y-22423722D02*
X14065301Y-22404674D01*
X14065301Y-22404674D02*
X14046253Y-22395150D01*
X14046253Y-22395150D02*
X14017682Y-22395150D01*
X14017682Y-22395150D02*
X13998634Y-22404674D01*
X13998634Y-22404674D02*
X13989110Y-22414198D01*
X14198634Y-22528484D02*
X14179587Y-22518960D01*
X14179587Y-22518960D02*
X14170063Y-22509436D01*
X14170063Y-22509436D02*
X14160539Y-22490388D01*
X14160539Y-22490388D02*
X14160539Y-22433246D01*
X14160539Y-22433246D02*
X14170063Y-22414198D01*
X14170063Y-22414198D02*
X14179587Y-22404674D01*
X14179587Y-22404674D02*
X14198634Y-22395150D01*
X14198634Y-22395150D02*
X14227206Y-22395150D01*
X14227206Y-22395150D02*
X14246253Y-22404674D01*
X14246253Y-22404674D02*
X14255777Y-22414198D01*
X14255777Y-22414198D02*
X14265301Y-22433246D01*
X14265301Y-22433246D02*
X14265301Y-22490388D01*
X14265301Y-22490388D02*
X14255777Y-22509436D01*
X14255777Y-22509436D02*
X14246253Y-22518960D01*
X14246253Y-22518960D02*
X14227206Y-22528484D01*
X14227206Y-22528484D02*
X14198634Y-22528484D01*
X14379587Y-22528484D02*
X14360539Y-22518960D01*
X14360539Y-22518960D02*
X14351015Y-22499912D01*
X14351015Y-22499912D02*
X14351015Y-22328484D01*
X14531968Y-22518960D02*
X14512920Y-22528484D01*
X14512920Y-22528484D02*
X14474825Y-22528484D01*
X14474825Y-22528484D02*
X14455777Y-22518960D01*
X14455777Y-22518960D02*
X14446253Y-22499912D01*
X14446253Y-22499912D02*
X14446253Y-22423722D01*
X14446253Y-22423722D02*
X14455777Y-22404674D01*
X14455777Y-22404674D02*
X14474825Y-22395150D01*
X14474825Y-22395150D02*
X14512920Y-22395150D01*
X14512920Y-22395150D02*
X14531968Y-22404674D01*
X14531968Y-22404674D02*
X14541491Y-22423722D01*
X14541491Y-22423722D02*
X14541491Y-22442769D01*
X14541491Y-22442769D02*
X14446253Y-22461817D01*
X14617682Y-22518960D02*
X14636730Y-22528484D01*
X14636730Y-22528484D02*
X14674825Y-22528484D01*
X14674825Y-22528484D02*
X14693872Y-22518960D01*
X14693872Y-22518960D02*
X14703396Y-22499912D01*
X14703396Y-22499912D02*
X14703396Y-22490388D01*
X14703396Y-22490388D02*
X14693872Y-22471341D01*
X14693872Y-22471341D02*
X14674825Y-22461817D01*
X14674825Y-22461817D02*
X14646253Y-22461817D01*
X14646253Y-22461817D02*
X14627206Y-22452293D01*
X14627206Y-22452293D02*
X14617682Y-22433246D01*
X14617682Y-22433246D02*
X14617682Y-22423722D01*
X14617682Y-22423722D02*
X14627206Y-22404674D01*
X14627206Y-22404674D02*
X14646253Y-22395150D01*
X14646253Y-22395150D02*
X14674825Y-22395150D01*
X14674825Y-22395150D02*
X14693872Y-22404674D01*
X14941492Y-22452293D02*
X15093873Y-22452293D01*
X15017682Y-22528484D02*
X15017682Y-22376103D01*
X15446253Y-22528484D02*
X15331968Y-22528484D01*
X15389111Y-22528484D02*
X15389111Y-22328484D01*
X15389111Y-22328484D02*
X15370063Y-22357055D01*
X15370063Y-22357055D02*
X15351015Y-22376103D01*
X15351015Y-22376103D02*
X15331968Y-22385627D01*
X15570063Y-22328484D02*
X15589111Y-22328484D01*
X15589111Y-22328484D02*
X15608158Y-22338008D01*
X15608158Y-22338008D02*
X15617682Y-22347531D01*
X15617682Y-22347531D02*
X15627206Y-22366579D01*
X15627206Y-22366579D02*
X15636730Y-22404674D01*
X15636730Y-22404674D02*
X15636730Y-22452293D01*
X15636730Y-22452293D02*
X15627206Y-22490388D01*
X15627206Y-22490388D02*
X15617682Y-22509436D01*
X15617682Y-22509436D02*
X15608158Y-22518960D01*
X15608158Y-22518960D02*
X15589111Y-22528484D01*
X15589111Y-22528484D02*
X15570063Y-22528484D01*
X15570063Y-22528484D02*
X15551015Y-22518960D01*
X15551015Y-22518960D02*
X15541492Y-22509436D01*
X15541492Y-22509436D02*
X15531968Y-22490388D01*
X15531968Y-22490388D02*
X15522444Y-22452293D01*
X15522444Y-22452293D02*
X15522444Y-22404674D01*
X15522444Y-22404674D02*
X15531968Y-22366579D01*
X15531968Y-22366579D02*
X15541492Y-22347531D01*
X15541492Y-22347531D02*
X15551015Y-22338008D01*
X15551015Y-22338008D02*
X15570063Y-22328484D01*
X15865301Y-22518960D02*
X15884349Y-22528484D01*
X15884349Y-22528484D02*
X15922444Y-22528484D01*
X15922444Y-22528484D02*
X15941492Y-22518960D01*
X15941492Y-22518960D02*
X15951015Y-22499912D01*
X15951015Y-22499912D02*
X15951015Y-22490388D01*
X15951015Y-22490388D02*
X15941492Y-22471341D01*
X15941492Y-22471341D02*
X15922444Y-22461817D01*
X15922444Y-22461817D02*
X15893873Y-22461817D01*
X15893873Y-22461817D02*
X15874825Y-22452293D01*
X15874825Y-22452293D02*
X15865301Y-22433246D01*
X15865301Y-22433246D02*
X15865301Y-22423722D01*
X15865301Y-22423722D02*
X15874825Y-22404674D01*
X15874825Y-22404674D02*
X15893873Y-22395150D01*
X15893873Y-22395150D02*
X15922444Y-22395150D01*
X15922444Y-22395150D02*
X15941492Y-22404674D01*
X16065301Y-22528484D02*
X16046254Y-22518960D01*
X16046254Y-22518960D02*
X16036730Y-22499912D01*
X16036730Y-22499912D02*
X16036730Y-22328484D01*
X16170063Y-22528484D02*
X16151015Y-22518960D01*
X16151015Y-22518960D02*
X16141492Y-22509436D01*
X16141492Y-22509436D02*
X16131968Y-22490388D01*
X16131968Y-22490388D02*
X16131968Y-22433246D01*
X16131968Y-22433246D02*
X16141492Y-22414198D01*
X16141492Y-22414198D02*
X16151015Y-22404674D01*
X16151015Y-22404674D02*
X16170063Y-22395150D01*
X16170063Y-22395150D02*
X16198635Y-22395150D01*
X16198635Y-22395150D02*
X16217682Y-22404674D01*
X16217682Y-22404674D02*
X16227206Y-22414198D01*
X16227206Y-22414198D02*
X16236730Y-22433246D01*
X16236730Y-22433246D02*
X16236730Y-22490388D01*
X16236730Y-22490388D02*
X16227206Y-22509436D01*
X16227206Y-22509436D02*
X16217682Y-22518960D01*
X16217682Y-22518960D02*
X16198635Y-22528484D01*
X16198635Y-22528484D02*
X16170063Y-22528484D01*
X16293873Y-22395150D02*
X16370063Y-22395150D01*
X16322444Y-22328484D02*
X16322444Y-22499912D01*
X16322444Y-22499912D02*
X16331968Y-22518960D01*
X16331968Y-22518960D02*
X16351015Y-22528484D01*
X16351015Y-22528484D02*
X16370063Y-22528484D01*
X16427206Y-22518960D02*
X16446254Y-22528484D01*
X16446254Y-22528484D02*
X16484349Y-22528484D01*
X16484349Y-22528484D02*
X16503396Y-22518960D01*
X16503396Y-22518960D02*
X16512920Y-22499912D01*
X16512920Y-22499912D02*
X16512920Y-22490388D01*
X16512920Y-22490388D02*
X16503396Y-22471341D01*
X16503396Y-22471341D02*
X16484349Y-22461817D01*
X16484349Y-22461817D02*
X16455777Y-22461817D01*
X16455777Y-22461817D02*
X16436730Y-22452293D01*
X16436730Y-22452293D02*
X16427206Y-22433246D01*
X16427206Y-22433246D02*
X16427206Y-22423722D01*
X16427206Y-22423722D02*
X16436730Y-22404674D01*
X16436730Y-22404674D02*
X16455777Y-22395150D01*
X16455777Y-22395150D02*
X16484349Y-22395150D01*
X16484349Y-22395150D02*
X16503396Y-22404674D01*
X16579587Y-22604674D02*
X16589111Y-22595150D01*
X16589111Y-22595150D02*
X16608158Y-22566579D01*
X16608158Y-22566579D02*
X16617682Y-22547531D01*
X16617682Y-22547531D02*
X16627206Y-22518960D01*
X16627206Y-22518960D02*
X16636730Y-22471341D01*
X16636730Y-22471341D02*
X16636730Y-22433246D01*
X16636730Y-22433246D02*
X16627206Y-22385627D01*
X16627206Y-22385627D02*
X16617682Y-22357055D01*
X16617682Y-22357055D02*
X16608158Y-22338008D01*
X16608158Y-22338008D02*
X16589111Y-22309436D01*
X16589111Y-22309436D02*
X16579587Y-22299912D01*
M02*
