%TF.GenerationSoftware,KiCad,Pcbnew,10.0.3*%
%TF.CreationDate,2026-07-08T12:05:21+02:00*%
%TF.ProjectId,musicbrain-busboard,6d757369-6362-4726-9169-6e2d62757362,1.1*%
%TF.SameCoordinates,Original*%
%TF.FileFunction,Soldermask,Bot*%
%TF.FilePolarity,Negative*%
%FSLAX46Y46*%
G04 Gerber Fmt 4.6, Leading zero omitted, Abs format (unit mm)*
G04 Created by KiCad (PCBNEW 10.0.3) date 2026-07-08 12:05:21*
%MOMM*%
%LPD*%
G01*
G04 APERTURE LIST*
G04 Aperture macros list*
%AMRoundRect*
0 Rectangle with rounded corners*
0 $1 Rounding radius*
0 $2 $3 $4 $5 $6 $7 $8 $9 X,Y pos of 4 corners*
0 Add a 4 corners polygon primitive as box body*
4,1,4,$2,$3,$4,$5,$6,$7,$8,$9,$2,$3,0*
0 Add four circle primitives for the rounded corners*
1,1,$1+$1,$2,$3*
1,1,$1+$1,$4,$5*
1,1,$1+$1,$6,$7*
1,1,$1+$1,$8,$9*
0 Add four rect primitives between the rounded corners*
20,1,$1+$1,$2,$3,$4,$5,0*
20,1,$1+$1,$4,$5,$6,$7,0*
20,1,$1+$1,$6,$7,$8,$9,0*
20,1,$1+$1,$8,$9,$2,$3,0*%
G04 Aperture macros list end*
%ADD10R,1.700000X1.700000*%
%ADD11O,1.700000X1.700000*%
%ADD12RoundRect,0.250000X-0.600000X-0.600000X0.600000X-0.600000X0.600000X0.600000X-0.600000X0.600000X0*%
%ADD13C,1.700000*%
%ADD14R,1.500000X2.300000*%
%ADD15O,1.500000X2.300000*%
%ADD16C,3.200000*%
G04 APERTURE END LIST*
D10*
%TO.C,U1*%
X30000000Y-40000000D03*
D11*
X30000000Y-42540000D03*
X30000000Y-45080000D03*
X30000000Y-47620000D03*
X30000000Y-50160000D03*
X30000000Y-52700000D03*
X30000000Y-55240000D03*
X30000000Y-57780000D03*
X30000000Y-60320000D03*
X30000000Y-62860000D03*
X30000000Y-65400000D03*
X30000000Y-67940000D03*
X30000000Y-70480000D03*
X30000000Y-73020000D03*
X30000000Y-75560000D03*
X30000000Y-78100000D03*
X30000000Y-80640000D03*
X30000000Y-83180000D03*
X30000000Y-85720000D03*
X30000000Y-88260000D03*
X30000000Y-90800000D03*
X30000000Y-93340000D03*
X30000000Y-95880000D03*
X30000000Y-98420000D03*
X45240000Y-98420000D03*
X45240000Y-95880000D03*
X45240000Y-93340000D03*
X45240000Y-90800000D03*
X45240000Y-88260000D03*
X45240000Y-85720000D03*
X45240000Y-83180000D03*
X45240000Y-80640000D03*
X45240000Y-78100000D03*
X45240000Y-75560000D03*
X45240000Y-73020000D03*
X45240000Y-70480000D03*
X45240000Y-67940000D03*
X45240000Y-65400000D03*
X45240000Y-62860000D03*
X45240000Y-60320000D03*
X45240000Y-57780000D03*
X45240000Y-55240000D03*
X45240000Y-52700000D03*
X45240000Y-50160000D03*
X45240000Y-47620000D03*
X45240000Y-45080000D03*
X45240000Y-42540000D03*
X45240000Y-40000000D03*
%TD*%
D12*
%TO.C,J9*%
X22000000Y-108000000D03*
D13*
X24540000Y-108000000D03*
X22000000Y-110540000D03*
X24540000Y-110540000D03*
X22000000Y-113080000D03*
X24540000Y-113080000D03*
X22000000Y-115620000D03*
X24540000Y-115620000D03*
X22000000Y-118160000D03*
X24540000Y-118160000D03*
%TD*%
D14*
%TO.C,U2*%
X62000000Y-108000000D03*
D15*
X64540000Y-108000000D03*
X67080000Y-108000000D03*
%TD*%
D10*
%TO.C,J1*%
X70000000Y-40000000D03*
D13*
X67460000Y-40000000D03*
X70000000Y-42540000D03*
X67460000Y-42540000D03*
X70000000Y-45080000D03*
X67460000Y-45080000D03*
X70000000Y-47620000D03*
X67460000Y-47620000D03*
X70000000Y-50160000D03*
X67460000Y-50160000D03*
X70000000Y-52700000D03*
X67460000Y-52700000D03*
X70000000Y-55240000D03*
X67460000Y-55240000D03*
X70000000Y-57780000D03*
X67460000Y-57780000D03*
X70000000Y-60320000D03*
X67460000Y-60320000D03*
X70000000Y-62860000D03*
X67460000Y-62860000D03*
%TD*%
D10*
%TO.C,J2*%
X90000000Y-40000000D03*
D13*
X87460000Y-40000000D03*
X90000000Y-42540000D03*
X87460000Y-42540000D03*
X90000000Y-45080000D03*
X87460000Y-45080000D03*
X90000000Y-47620000D03*
X87460000Y-47620000D03*
X90000000Y-50160000D03*
X87460000Y-50160000D03*
X90000000Y-52700000D03*
X87460000Y-52700000D03*
X90000000Y-55240000D03*
X87460000Y-55240000D03*
X90000000Y-57780000D03*
X87460000Y-57780000D03*
X90000000Y-60320000D03*
X87460000Y-60320000D03*
X90000000Y-62860000D03*
X87460000Y-62860000D03*
%TD*%
D10*
%TO.C,J3*%
X110000000Y-40000000D03*
D13*
X107460000Y-40000000D03*
X110000000Y-42540000D03*
X107460000Y-42540000D03*
X110000000Y-45080000D03*
X107460000Y-45080000D03*
X110000000Y-47620000D03*
X107460000Y-47620000D03*
X110000000Y-50160000D03*
X107460000Y-50160000D03*
X110000000Y-52700000D03*
X107460000Y-52700000D03*
X110000000Y-55240000D03*
X107460000Y-55240000D03*
X110000000Y-57780000D03*
X107460000Y-57780000D03*
X110000000Y-60320000D03*
X107460000Y-60320000D03*
X110000000Y-62860000D03*
X107460000Y-62860000D03*
%TD*%
D10*
%TO.C,J4*%
X130000000Y-40000000D03*
D13*
X127460000Y-40000000D03*
X130000000Y-42540000D03*
X127460000Y-42540000D03*
X130000000Y-45080000D03*
X127460000Y-45080000D03*
X130000000Y-47620000D03*
X127460000Y-47620000D03*
X130000000Y-50160000D03*
X127460000Y-50160000D03*
X130000000Y-52700000D03*
X127460000Y-52700000D03*
X130000000Y-55240000D03*
X127460000Y-55240000D03*
X130000000Y-57780000D03*
X127460000Y-57780000D03*
X130000000Y-60320000D03*
X127460000Y-60320000D03*
X130000000Y-62860000D03*
X127460000Y-62860000D03*
%TD*%
D10*
%TO.C,J5*%
X150000000Y-40000000D03*
D13*
X147460000Y-40000000D03*
X150000000Y-42540000D03*
X147460000Y-42540000D03*
X150000000Y-45080000D03*
X147460000Y-45080000D03*
X150000000Y-47620000D03*
X147460000Y-47620000D03*
X150000000Y-50160000D03*
X147460000Y-50160000D03*
X150000000Y-52700000D03*
X147460000Y-52700000D03*
X150000000Y-55240000D03*
X147460000Y-55240000D03*
X150000000Y-57780000D03*
X147460000Y-57780000D03*
X150000000Y-60320000D03*
X147460000Y-60320000D03*
X150000000Y-62860000D03*
X147460000Y-62860000D03*
%TD*%
D10*
%TO.C,J6*%
X170000000Y-40000000D03*
D13*
X167460000Y-40000000D03*
X170000000Y-42540000D03*
X167460000Y-42540000D03*
X170000000Y-45080000D03*
X167460000Y-45080000D03*
X170000000Y-47620000D03*
X167460000Y-47620000D03*
X170000000Y-50160000D03*
X167460000Y-50160000D03*
X170000000Y-52700000D03*
X167460000Y-52700000D03*
X170000000Y-55240000D03*
X167460000Y-55240000D03*
X170000000Y-57780000D03*
X167460000Y-57780000D03*
X170000000Y-60320000D03*
X167460000Y-60320000D03*
X170000000Y-62860000D03*
X167460000Y-62860000D03*
%TD*%
D12*
%TO.C,J7*%
X193000000Y-42000000D03*
D13*
X195540000Y-42000000D03*
X193000000Y-44540000D03*
X195540000Y-44540000D03*
X193000000Y-47080000D03*
X195540000Y-47080000D03*
X193000000Y-49620000D03*
X195540000Y-49620000D03*
X193000000Y-52160000D03*
X195540000Y-52160000D03*
%TD*%
D12*
%TO.C,J8*%
X193000000Y-104000000D03*
D13*
X195540000Y-104000000D03*
X193000000Y-106540000D03*
X195540000Y-106540000D03*
X193000000Y-109080000D03*
X195540000Y-109080000D03*
X193000000Y-111620000D03*
X195540000Y-111620000D03*
X193000000Y-114160000D03*
X195540000Y-114160000D03*
%TD*%
D10*
%TO.C,J10*%
X16600000Y-27500000D03*
D13*
X16600000Y-24960000D03*
X19140000Y-27500000D03*
X19140000Y-24960000D03*
X21680000Y-27500000D03*
X21680000Y-24960000D03*
X24220000Y-27500000D03*
X24220000Y-24960000D03*
X26760000Y-27500000D03*
X26760000Y-24960000D03*
X29300000Y-27500000D03*
X29300000Y-24960000D03*
X31840000Y-27500000D03*
X31840000Y-24960000D03*
%TD*%
D10*
%TO.C,J11*%
X33000000Y-20000000D03*
D13*
X35540000Y-20000000D03*
X38080000Y-20000000D03*
X40620000Y-20000000D03*
X43160000Y-20000000D03*
X45700000Y-20000000D03*
X48240000Y-20000000D03*
X50780000Y-20000000D03*
X53320000Y-20000000D03*
%TD*%
D10*
%TO.C,J12*%
X165760000Y-121500000D03*
D13*
X168300000Y-121500000D03*
X170840000Y-121500000D03*
X173380000Y-121500000D03*
%TD*%
D16*
%TO.C,H1*%
X18000000Y-13000000D03*
%TD*%
%TO.C,H2*%
X115000000Y-13000000D03*
%TD*%
%TO.C,H3*%
X212000000Y-13000000D03*
%TD*%
%TO.C,H4*%
X60000000Y-122000000D03*
%TD*%
%TO.C,H5*%
X140000000Y-122000000D03*
%TD*%
M02*
