%TF.GenerationSoftware,KiCad,Pcbnew,10.0.3*%
%TF.CreationDate,2026-07-11T14:04:22+02:00*%
%TF.ProjectId,musicbrain-jack8,6d757369-6362-4726-9169-6e2d6a61636b,1.2*%
%TF.SameCoordinates,Original*%
%TF.FileFunction,Copper,L2,Bot*%
%TF.FilePolarity,Positive*%
%FSLAX46Y46*%
G04 Gerber Fmt 4.6, Leading zero omitted, Abs format (unit mm)*
G04 Created by KiCad (PCBNEW 10.0.3) date 2026-07-11 14:04:22*
%MOMM*%
%LPD*%
G01*
G04 APERTURE LIST*
G04 Aperture macros list*
%AMRoundRect*
0 Rectangle with rounded corners*
0 $1 Rounding radius*
0 $2 $3 $4 $5 $6 $7 $8 $9 X,Y pos of 4 corners*
0 Add a 4 corners polygon primitive as box body*
4,1,4,$2,$3,$4,$5,$6,$7,$8,$9,$2,$3,0*
0 Add four circle primitives for the rounded corners*
1,1,$1+$1,$2,$3*
1,1,$1+$1,$4,$5*
1,1,$1+$1,$6,$7*
1,1,$1+$1,$8,$9*
0 Add four rect primitives between the rounded corners*
20,1,$1+$1,$2,$3,$4,$5,0*
20,1,$1+$1,$4,$5,$6,$7,0*
20,1,$1+$1,$6,$7,$8,$9,0*
20,1,$1+$1,$8,$9,$2,$3,0*%
G04 Aperture macros list end*
%TA.AperFunction,ComponentPad*%
%ADD10RoundRect,0.650000X-0.650000X-0.650000X0.650000X-0.650000X0.650000X0.650000X-0.650000X0.650000X0*%
%TD*%
%TA.AperFunction,ComponentPad*%
%ADD11O,3.100000X2.300000*%
%TD*%
%TA.AperFunction,ComponentPad*%
%ADD12R,1.700000X1.700000*%
%TD*%
%TA.AperFunction,ComponentPad*%
%ADD13O,1.700000X1.700000*%
%TD*%
%TA.AperFunction,ViaPad*%
%ADD14C,0.500000*%
%TD*%
G04 APERTURE END LIST*
D10*
%TO.P,J2,1*%
%TO.N,/CH1*%
X108000000Y-103080000D03*
D11*
%TO.P,J2,2*%
%TO.N,GND*%
X108000000Y-114480000D03*
D10*
%TO.P,J2,3*%
%TO.N,/NORM*%
X108000000Y-111380000D03*
%TD*%
%TO.P,J3,1*%
%TO.N,/CH2*%
X108000000Y-118080000D03*
D11*
%TO.P,J3,2*%
%TO.N,GND*%
X108000000Y-129480000D03*
D10*
%TO.P,J3,3*%
%TO.N,/NORM*%
X108000000Y-126380000D03*
%TD*%
%TO.P,J4,1*%
%TO.N,/CH3*%
X108000000Y-133080000D03*
D11*
%TO.P,J4,2*%
%TO.N,GND*%
X108000000Y-144480000D03*
D10*
%TO.P,J4,3*%
%TO.N,/NORM*%
X108000000Y-141380000D03*
%TD*%
%TO.P,J5,1*%
%TO.N,/CH4*%
X108000000Y-148080000D03*
D11*
%TO.P,J5,2*%
%TO.N,GND*%
X108000000Y-159480000D03*
D10*
%TO.P,J5,3*%
%TO.N,/NORM*%
X108000000Y-156380000D03*
%TD*%
%TO.P,J6,1*%
%TO.N,/CH5*%
X108000000Y-163080000D03*
D11*
%TO.P,J6,2*%
%TO.N,GND*%
X108000000Y-174480000D03*
D10*
%TO.P,J6,3*%
%TO.N,/NORM*%
X108000000Y-171380000D03*
%TD*%
%TO.P,J7,1*%
%TO.N,/CH6*%
X108000000Y-178080000D03*
D11*
%TO.P,J7,2*%
%TO.N,GND*%
X108000000Y-189480000D03*
D10*
%TO.P,J7,3*%
%TO.N,/NORM*%
X108000000Y-186380000D03*
%TD*%
%TO.P,J8,1*%
%TO.N,/CH7*%
X108000000Y-193080000D03*
D11*
%TO.P,J8,2*%
%TO.N,GND*%
X108000000Y-204480000D03*
D10*
%TO.P,J8,3*%
%TO.N,/NORM*%
X108000000Y-201380000D03*
%TD*%
%TO.P,J9,1*%
%TO.N,/CH8*%
X108000000Y-208080000D03*
D11*
%TO.P,J9,2*%
%TO.N,GND*%
X108000000Y-219480000D03*
D10*
%TO.P,J9,3*%
%TO.N,/NORM*%
X108000000Y-216380000D03*
%TD*%
D12*
%TO.P,J1,1*%
%TO.N,GND*%
X116500000Y-143570000D03*
D13*
%TO.P,J1,2*%
%TO.N,/CH1*%
X116500000Y-146110000D03*
%TO.P,J1,3*%
%TO.N,/CH2*%
X116500000Y-148650000D03*
%TO.P,J1,4*%
%TO.N,/CH3*%
X116500000Y-151190000D03*
%TO.P,J1,5*%
%TO.N,/CH4*%
X116500000Y-153730000D03*
%TO.P,J1,6*%
%TO.N,/CH5*%
X116500000Y-156270000D03*
%TO.P,J1,7*%
%TO.N,/CH6*%
X116500000Y-158810000D03*
%TO.P,J1,8*%
%TO.N,/CH7*%
X116500000Y-161350000D03*
%TO.P,J1,9*%
%TO.N,/CH8*%
X116500000Y-163890000D03*
%TO.P,J1,10*%
%TO.N,GND*%
X116500000Y-166430000D03*
%TD*%
D14*
%TO.N,GND*%
X102000000Y-102000000D03*
X118000000Y-102000000D03*
X102000000Y-223200000D03*
X118000000Y-223000000D03*
X118000000Y-162500000D03*
%TD*%
%TA.AperFunction,Conductor*%
%TO.N,GND*%
G36*
X119458691Y-100519407D02*
G01*
X119494655Y-100568907D01*
X119499500Y-100599500D01*
X119499500Y-224400500D01*
X119480593Y-224458691D01*
X119431093Y-224494655D01*
X119400500Y-224499500D01*
X100599500Y-224499500D01*
X100541309Y-224480593D01*
X100505345Y-224431093D01*
X100500500Y-224400500D01*
X100500500Y-215674865D01*
X106399500Y-215674865D01*
X106399500Y-217085134D01*
X106409583Y-217198554D01*
X106462761Y-217384399D01*
X106462763Y-217384406D01*
X106552264Y-217555748D01*
X106674426Y-217705568D01*
X106674429Y-217705571D01*
X106824249Y-217827734D01*
X106995594Y-217917237D01*
X107181448Y-217970417D01*
X107294862Y-217980500D01*
X107294866Y-217980500D01*
X108705134Y-217980500D01*
X108705138Y-217980500D01*
X108818552Y-217970417D01*
X109004406Y-217917237D01*
X109175751Y-217827734D01*
X109325571Y-217705571D01*
X109447734Y-217555751D01*
X109537237Y-217384406D01*
X109590417Y-217198552D01*
X109600500Y-217085138D01*
X109600500Y-215674862D01*
X109590417Y-215561448D01*
X109537237Y-215375594D01*
X109447734Y-215204249D01*
X109325571Y-215054429D01*
X109325568Y-215054426D01*
X109242597Y-214986772D01*
X109175751Y-214932266D01*
X109175749Y-214932265D01*
X109175748Y-214932264D01*
X109004406Y-214842763D01*
X109004399Y-214842761D01*
X108818554Y-214789583D01*
X108780747Y-214786222D01*
X108705138Y-214779500D01*
X107294862Y-214779500D01*
X107230054Y-214785261D01*
X107181445Y-214789583D01*
X106995600Y-214842761D01*
X106995593Y-214842763D01*
X106824251Y-214932264D01*
X106674431Y-215054426D01*
X106674426Y-215054431D01*
X106552264Y-215204251D01*
X106462763Y-215375593D01*
X106462761Y-215375600D01*
X106409583Y-215561445D01*
X106399500Y-215674865D01*
X100500500Y-215674865D01*
X100500500Y-207374865D01*
X106399500Y-207374865D01*
X106399500Y-208785134D01*
X106409583Y-208898554D01*
X106462761Y-209084399D01*
X106462763Y-209084406D01*
X106552264Y-209255748D01*
X106674426Y-209405568D01*
X106674429Y-209405571D01*
X106824249Y-209527734D01*
X106995594Y-209617237D01*
X107181448Y-209670417D01*
X107294862Y-209680500D01*
X107294866Y-209680500D01*
X108705134Y-209680500D01*
X108705138Y-209680500D01*
X108818552Y-209670417D01*
X109004406Y-209617237D01*
X109175751Y-209527734D01*
X109325571Y-209405571D01*
X109447734Y-209255751D01*
X109537237Y-209084406D01*
X109590417Y-208898552D01*
X109600500Y-208785138D01*
X109600500Y-207374862D01*
X109590417Y-207261448D01*
X109537237Y-207075594D01*
X109447734Y-206904249D01*
X109325571Y-206754429D01*
X109325568Y-206754426D01*
X109242597Y-206686772D01*
X109175751Y-206632266D01*
X109175749Y-206632265D01*
X109175748Y-206632264D01*
X109004406Y-206542763D01*
X109004399Y-206542761D01*
X108818554Y-206489583D01*
X108780747Y-206486222D01*
X108705138Y-206479500D01*
X107294862Y-206479500D01*
X107230054Y-206485261D01*
X107181445Y-206489583D01*
X106995600Y-206542761D01*
X106995593Y-206542763D01*
X106824251Y-206632264D01*
X106674431Y-206754426D01*
X106674426Y-206754431D01*
X106552264Y-206904251D01*
X106462763Y-207075593D01*
X106462761Y-207075600D01*
X106409583Y-207261445D01*
X106399500Y-207374865D01*
X100500500Y-207374865D01*
X100500500Y-200674865D01*
X106399500Y-200674865D01*
X106399500Y-202085134D01*
X106409583Y-202198554D01*
X106462761Y-202384399D01*
X106462763Y-202384406D01*
X106552264Y-202555748D01*
X106674426Y-202705568D01*
X106674429Y-202705571D01*
X106824249Y-202827734D01*
X106995594Y-202917237D01*
X107181448Y-202970417D01*
X107294862Y-202980500D01*
X107294866Y-202980500D01*
X108705134Y-202980500D01*
X108705138Y-202980500D01*
X108818552Y-202970417D01*
X109004406Y-202917237D01*
X109175751Y-202827734D01*
X109325571Y-202705571D01*
X109447734Y-202555751D01*
X109537237Y-202384406D01*
X109590417Y-202198552D01*
X109600500Y-202085138D01*
X109600500Y-200674862D01*
X109590417Y-200561448D01*
X109537237Y-200375594D01*
X109447734Y-200204249D01*
X109325571Y-200054429D01*
X109325568Y-200054426D01*
X109242597Y-199986772D01*
X109175751Y-199932266D01*
X109175749Y-199932265D01*
X109175748Y-199932264D01*
X109004406Y-199842763D01*
X109004399Y-199842761D01*
X108818554Y-199789583D01*
X108780747Y-199786222D01*
X108705138Y-199779500D01*
X107294862Y-199779500D01*
X107230054Y-199785261D01*
X107181445Y-199789583D01*
X106995600Y-199842761D01*
X106995593Y-199842763D01*
X106824251Y-199932264D01*
X106674431Y-200054426D01*
X106674426Y-200054431D01*
X106552264Y-200204251D01*
X106462763Y-200375593D01*
X106462761Y-200375600D01*
X106409583Y-200561445D01*
X106399500Y-200674865D01*
X100500500Y-200674865D01*
X100500500Y-192374865D01*
X106399500Y-192374865D01*
X106399500Y-193785134D01*
X106409583Y-193898554D01*
X106462761Y-194084399D01*
X106462763Y-194084406D01*
X106552264Y-194255748D01*
X106674426Y-194405568D01*
X106674429Y-194405571D01*
X106824249Y-194527734D01*
X106995594Y-194617237D01*
X107181448Y-194670417D01*
X107294862Y-194680500D01*
X107294866Y-194680500D01*
X108705134Y-194680500D01*
X108705138Y-194680500D01*
X108818552Y-194670417D01*
X109004406Y-194617237D01*
X109175751Y-194527734D01*
X109325571Y-194405571D01*
X109447734Y-194255751D01*
X109537237Y-194084406D01*
X109590417Y-193898552D01*
X109600500Y-193785138D01*
X109600500Y-192374862D01*
X109590417Y-192261448D01*
X109537237Y-192075594D01*
X109447734Y-191904249D01*
X109325571Y-191754429D01*
X109325568Y-191754426D01*
X109242597Y-191686772D01*
X109175751Y-191632266D01*
X109175749Y-191632265D01*
X109175748Y-191632264D01*
X109004406Y-191542763D01*
X109004399Y-191542761D01*
X108818554Y-191489583D01*
X108780747Y-191486222D01*
X108705138Y-191479500D01*
X107294862Y-191479500D01*
X107230054Y-191485261D01*
X107181445Y-191489583D01*
X106995600Y-191542761D01*
X106995593Y-191542763D01*
X106824251Y-191632264D01*
X106674431Y-191754426D01*
X106674426Y-191754431D01*
X106552264Y-191904251D01*
X106462763Y-192075593D01*
X106462761Y-192075600D01*
X106409583Y-192261445D01*
X106399500Y-192374865D01*
X100500500Y-192374865D01*
X100500500Y-185674865D01*
X106399500Y-185674865D01*
X106399500Y-187085134D01*
X106409583Y-187198554D01*
X106462761Y-187384399D01*
X106462763Y-187384406D01*
X106552264Y-187555748D01*
X106674426Y-187705568D01*
X106674429Y-187705571D01*
X106824249Y-187827734D01*
X106995594Y-187917237D01*
X107181448Y-187970417D01*
X107294862Y-187980500D01*
X107294866Y-187980500D01*
X108705134Y-187980500D01*
X108705138Y-187980500D01*
X108818552Y-187970417D01*
X109004406Y-187917237D01*
X109175751Y-187827734D01*
X109325571Y-187705571D01*
X109447734Y-187555751D01*
X109537237Y-187384406D01*
X109590417Y-187198552D01*
X109600500Y-187085138D01*
X109600500Y-185674862D01*
X109590417Y-185561448D01*
X109537237Y-185375594D01*
X109447734Y-185204249D01*
X109325571Y-185054429D01*
X109325568Y-185054426D01*
X109242597Y-184986772D01*
X109175751Y-184932266D01*
X109175749Y-184932265D01*
X109175748Y-184932264D01*
X109004406Y-184842763D01*
X109004399Y-184842761D01*
X108818554Y-184789583D01*
X108780747Y-184786222D01*
X108705138Y-184779500D01*
X107294862Y-184779500D01*
X107230054Y-184785261D01*
X107181445Y-184789583D01*
X106995600Y-184842761D01*
X106995593Y-184842763D01*
X106824251Y-184932264D01*
X106674431Y-185054426D01*
X106674426Y-185054431D01*
X106552264Y-185204251D01*
X106462763Y-185375593D01*
X106462761Y-185375600D01*
X106409583Y-185561445D01*
X106399500Y-185674865D01*
X100500500Y-185674865D01*
X100500500Y-177374865D01*
X106399500Y-177374865D01*
X106399500Y-178785134D01*
X106409583Y-178898554D01*
X106462761Y-179084399D01*
X106462763Y-179084406D01*
X106552264Y-179255748D01*
X106674426Y-179405568D01*
X106674429Y-179405571D01*
X106824249Y-179527734D01*
X106995594Y-179617237D01*
X107181448Y-179670417D01*
X107294862Y-179680500D01*
X107294866Y-179680500D01*
X108705134Y-179680500D01*
X108705138Y-179680500D01*
X108818552Y-179670417D01*
X109004406Y-179617237D01*
X109175751Y-179527734D01*
X109325571Y-179405571D01*
X109447734Y-179255751D01*
X109537237Y-179084406D01*
X109590417Y-178898552D01*
X109600500Y-178785138D01*
X109600500Y-177374862D01*
X109590417Y-177261448D01*
X109537237Y-177075594D01*
X109447734Y-176904249D01*
X109325571Y-176754429D01*
X109325568Y-176754426D01*
X109242597Y-176686772D01*
X109175751Y-176632266D01*
X109175749Y-176632265D01*
X109175748Y-176632264D01*
X109004406Y-176542763D01*
X109004399Y-176542761D01*
X108818554Y-176489583D01*
X108780747Y-176486222D01*
X108705138Y-176479500D01*
X107294862Y-176479500D01*
X107230054Y-176485261D01*
X107181445Y-176489583D01*
X106995600Y-176542761D01*
X106995593Y-176542763D01*
X106824251Y-176632264D01*
X106674431Y-176754426D01*
X106674426Y-176754431D01*
X106552264Y-176904251D01*
X106462763Y-177075593D01*
X106462761Y-177075600D01*
X106409583Y-177261445D01*
X106399500Y-177374865D01*
X100500500Y-177374865D01*
X100500500Y-170674865D01*
X106399500Y-170674865D01*
X106399500Y-172085134D01*
X106409583Y-172198554D01*
X106462761Y-172384399D01*
X106462763Y-172384406D01*
X106552264Y-172555748D01*
X106674426Y-172705568D01*
X106674429Y-172705571D01*
X106824249Y-172827734D01*
X106995594Y-172917237D01*
X107181448Y-172970417D01*
X107294862Y-172980500D01*
X107294866Y-172980500D01*
X108705134Y-172980500D01*
X108705138Y-172980500D01*
X108818552Y-172970417D01*
X109004406Y-172917237D01*
X109175751Y-172827734D01*
X109325571Y-172705571D01*
X109447734Y-172555751D01*
X109537237Y-172384406D01*
X109590417Y-172198552D01*
X109600500Y-172085138D01*
X109600500Y-170674862D01*
X109590417Y-170561448D01*
X109537237Y-170375594D01*
X109447734Y-170204249D01*
X109325571Y-170054429D01*
X109325568Y-170054426D01*
X109242597Y-169986772D01*
X109175751Y-169932266D01*
X109175749Y-169932265D01*
X109175748Y-169932264D01*
X109004406Y-169842763D01*
X109004399Y-169842761D01*
X108818554Y-169789583D01*
X108780747Y-169786222D01*
X108705138Y-169779500D01*
X107294862Y-169779500D01*
X107230054Y-169785261D01*
X107181445Y-169789583D01*
X106995600Y-169842761D01*
X106995593Y-169842763D01*
X106824251Y-169932264D01*
X106674431Y-170054426D01*
X106674426Y-170054431D01*
X106552264Y-170204251D01*
X106462763Y-170375593D01*
X106462761Y-170375600D01*
X106409583Y-170561445D01*
X106399500Y-170674865D01*
X100500500Y-170674865D01*
X100500500Y-162374862D01*
X106399500Y-162374862D01*
X106399500Y-163785138D01*
X106400773Y-163799454D01*
X106409583Y-163898554D01*
X106462761Y-164084399D01*
X106462763Y-164084406D01*
X106552264Y-164255748D01*
X106674426Y-164405568D01*
X106674429Y-164405571D01*
X106824249Y-164527734D01*
X106995594Y-164617237D01*
X107181448Y-164670417D01*
X107294862Y-164680500D01*
X107294866Y-164680500D01*
X108705134Y-164680500D01*
X108705138Y-164680500D01*
X108818552Y-164670417D01*
X109004406Y-164617237D01*
X109175751Y-164527734D01*
X109325571Y-164405571D01*
X109447734Y-164255751D01*
X109537237Y-164084406D01*
X109590417Y-163898552D01*
X109599228Y-163799450D01*
X115349500Y-163799450D01*
X115349500Y-163980549D01*
X115377828Y-164159406D01*
X115377829Y-164159409D01*
X115433789Y-164331639D01*
X115516004Y-164492994D01*
X115622447Y-164639501D01*
X115750499Y-164767553D01*
X115897006Y-164873996D01*
X116058361Y-164956211D01*
X116230591Y-165012171D01*
X116302136Y-165023502D01*
X116409451Y-165040500D01*
X116409454Y-165040500D01*
X116590549Y-165040500D01*
X116679977Y-165026335D01*
X116769409Y-165012171D01*
X116941639Y-164956211D01*
X117102994Y-164873996D01*
X117249501Y-164767553D01*
X117377553Y-164639501D01*
X117483996Y-164492994D01*
X117566211Y-164331639D01*
X117622171Y-164159409D01*
X117650500Y-163980546D01*
X117650500Y-163799454D01*
X117650500Y-163799450D01*
X117622171Y-163620593D01*
X117622171Y-163620591D01*
X117566211Y-163448361D01*
X117483996Y-163287006D01*
X117377553Y-163140499D01*
X117249501Y-163012447D01*
X117102994Y-162906004D01*
X117102993Y-162906003D01*
X117102991Y-162906002D01*
X116941637Y-162823788D01*
X116769406Y-162767828D01*
X116590549Y-162739500D01*
X116590546Y-162739500D01*
X116409454Y-162739500D01*
X116409451Y-162739500D01*
X116230593Y-162767828D01*
X116058362Y-162823788D01*
X115897008Y-162906002D01*
X115823752Y-162959225D01*
X115750499Y-163012447D01*
X115622447Y-163140499D01*
X115569225Y-163213752D01*
X115516002Y-163287008D01*
X115433788Y-163448362D01*
X115377828Y-163620593D01*
X115349500Y-163799450D01*
X109599228Y-163799450D01*
X109600500Y-163785138D01*
X109600500Y-162374862D01*
X109590417Y-162261448D01*
X109537237Y-162075594D01*
X109447734Y-161904249D01*
X109325571Y-161754429D01*
X109325568Y-161754426D01*
X109242597Y-161686772D01*
X109175751Y-161632266D01*
X109175749Y-161632265D01*
X109175748Y-161632264D01*
X109004406Y-161542763D01*
X109004399Y-161542761D01*
X108818554Y-161489583D01*
X108780747Y-161486222D01*
X108705138Y-161479500D01*
X107294862Y-161479500D01*
X107230054Y-161485261D01*
X107181445Y-161489583D01*
X106995600Y-161542761D01*
X106995593Y-161542763D01*
X106824251Y-161632264D01*
X106674431Y-161754426D01*
X106674426Y-161754431D01*
X106552264Y-161904251D01*
X106462763Y-162075593D01*
X106462761Y-162075600D01*
X106409583Y-162261445D01*
X106409583Y-162261448D01*
X106399500Y-162374862D01*
X100500500Y-162374862D01*
X100500500Y-161259450D01*
X115349500Y-161259450D01*
X115349500Y-161440549D01*
X115377828Y-161619406D01*
X115421699Y-161754431D01*
X115433789Y-161791639D01*
X115516004Y-161952994D01*
X115622447Y-162099501D01*
X115750499Y-162227553D01*
X115897006Y-162333996D01*
X116058361Y-162416211D01*
X116230591Y-162472171D01*
X116302136Y-162483502D01*
X116409451Y-162500500D01*
X116409454Y-162500500D01*
X116590549Y-162500500D01*
X116679977Y-162486335D01*
X116769409Y-162472171D01*
X116941639Y-162416211D01*
X117102994Y-162333996D01*
X117249501Y-162227553D01*
X117377553Y-162099501D01*
X117483996Y-161952994D01*
X117566211Y-161791639D01*
X117622171Y-161619409D01*
X117636335Y-161529977D01*
X117650500Y-161440549D01*
X117650500Y-161259450D01*
X117622171Y-161080593D01*
X117622171Y-161080591D01*
X117566211Y-160908361D01*
X117483996Y-160747006D01*
X117377553Y-160600499D01*
X117249501Y-160472447D01*
X117102994Y-160366004D01*
X117102993Y-160366003D01*
X117102991Y-160366002D01*
X116941637Y-160283788D01*
X116769406Y-160227828D01*
X116590549Y-160199500D01*
X116590546Y-160199500D01*
X116409454Y-160199500D01*
X116409451Y-160199500D01*
X116230593Y-160227828D01*
X116058362Y-160283788D01*
X115897008Y-160366002D01*
X115823752Y-160419225D01*
X115750499Y-160472447D01*
X115622447Y-160600499D01*
X115569225Y-160673752D01*
X115516002Y-160747008D01*
X115433788Y-160908362D01*
X115377828Y-161080593D01*
X115349500Y-161259450D01*
X100500500Y-161259450D01*
X100500500Y-158719450D01*
X115349500Y-158719450D01*
X115349500Y-158900549D01*
X115377828Y-159079406D01*
X115377829Y-159079409D01*
X115433789Y-159251639D01*
X115516004Y-159412994D01*
X115622447Y-159559501D01*
X115750499Y-159687553D01*
X115897006Y-159793996D01*
X116058361Y-159876211D01*
X116230591Y-159932171D01*
X116302136Y-159943502D01*
X116409451Y-159960500D01*
X116409454Y-159960500D01*
X116590549Y-159960500D01*
X116679977Y-159946335D01*
X116769409Y-159932171D01*
X116941639Y-159876211D01*
X117102994Y-159793996D01*
X117249501Y-159687553D01*
X117377553Y-159559501D01*
X117483996Y-159412994D01*
X117566211Y-159251639D01*
X117622171Y-159079409D01*
X117650500Y-158900546D01*
X117650500Y-158719454D01*
X117650500Y-158719450D01*
X117622171Y-158540593D01*
X117622171Y-158540591D01*
X117566211Y-158368361D01*
X117483996Y-158207006D01*
X117377553Y-158060499D01*
X117249501Y-157932447D01*
X117102994Y-157826004D01*
X117102993Y-157826003D01*
X117102991Y-157826002D01*
X116941637Y-157743788D01*
X116769406Y-157687828D01*
X116590549Y-157659500D01*
X116590546Y-157659500D01*
X116409454Y-157659500D01*
X116409451Y-157659500D01*
X116230593Y-157687828D01*
X116058362Y-157743788D01*
X115897008Y-157826002D01*
X115894623Y-157827735D01*
X115750499Y-157932447D01*
X115622447Y-158060499D01*
X115569225Y-158133752D01*
X115516002Y-158207008D01*
X115433788Y-158368362D01*
X115377828Y-158540593D01*
X115349500Y-158719450D01*
X100500500Y-158719450D01*
X100500500Y-155674865D01*
X106399500Y-155674865D01*
X106399500Y-157085134D01*
X106409583Y-157198554D01*
X106462761Y-157384399D01*
X106462763Y-157384406D01*
X106552264Y-157555748D01*
X106674426Y-157705568D01*
X106674429Y-157705571D01*
X106824249Y-157827734D01*
X106995594Y-157917237D01*
X107181448Y-157970417D01*
X107294862Y-157980500D01*
X107294866Y-157980500D01*
X108705134Y-157980500D01*
X108705138Y-157980500D01*
X108818552Y-157970417D01*
X109004406Y-157917237D01*
X109175751Y-157827734D01*
X109325571Y-157705571D01*
X109447734Y-157555751D01*
X109537237Y-157384406D01*
X109590417Y-157198552D01*
X109600500Y-157085138D01*
X109600500Y-156179450D01*
X115349500Y-156179450D01*
X115349500Y-156360549D01*
X115377828Y-156539406D01*
X115377829Y-156539409D01*
X115433789Y-156711639D01*
X115516004Y-156872994D01*
X115622447Y-157019501D01*
X115750499Y-157147553D01*
X115897006Y-157253996D01*
X116058361Y-157336211D01*
X116230591Y-157392171D01*
X116302136Y-157403502D01*
X116409451Y-157420500D01*
X116409454Y-157420500D01*
X116590549Y-157420500D01*
X116679977Y-157406335D01*
X116769409Y-157392171D01*
X116941639Y-157336211D01*
X117102994Y-157253996D01*
X117249501Y-157147553D01*
X117377553Y-157019501D01*
X117483996Y-156872994D01*
X117566211Y-156711639D01*
X117622171Y-156539409D01*
X117650500Y-156360546D01*
X117650500Y-156179454D01*
X117650500Y-156179450D01*
X117622171Y-156000593D01*
X117622171Y-156000591D01*
X117566211Y-155828361D01*
X117483996Y-155667006D01*
X117377553Y-155520499D01*
X117249501Y-155392447D01*
X117102994Y-155286004D01*
X117102993Y-155286003D01*
X117102991Y-155286002D01*
X116941637Y-155203788D01*
X116769406Y-155147828D01*
X116590549Y-155119500D01*
X116590546Y-155119500D01*
X116409454Y-155119500D01*
X116409451Y-155119500D01*
X116230593Y-155147828D01*
X116058362Y-155203788D01*
X115897008Y-155286002D01*
X115823752Y-155339225D01*
X115750499Y-155392447D01*
X115622447Y-155520499D01*
X115592698Y-155561445D01*
X115516002Y-155667008D01*
X115433788Y-155828362D01*
X115377828Y-156000593D01*
X115349500Y-156179450D01*
X109600500Y-156179450D01*
X109600500Y-155674862D01*
X109590417Y-155561448D01*
X109537237Y-155375594D01*
X109447734Y-155204249D01*
X109325571Y-155054429D01*
X109325568Y-155054426D01*
X109242597Y-154986772D01*
X109175751Y-154932266D01*
X109175749Y-154932265D01*
X109175748Y-154932264D01*
X109004406Y-154842763D01*
X109004399Y-154842761D01*
X108818554Y-154789583D01*
X108780747Y-154786222D01*
X108705138Y-154779500D01*
X107294862Y-154779500D01*
X107230054Y-154785261D01*
X107181445Y-154789583D01*
X106995600Y-154842761D01*
X106995593Y-154842763D01*
X106824251Y-154932264D01*
X106674431Y-155054426D01*
X106674426Y-155054431D01*
X106552264Y-155204251D01*
X106462763Y-155375593D01*
X106462761Y-155375600D01*
X106409583Y-155561445D01*
X106409583Y-155561448D01*
X106400199Y-155667006D01*
X106399500Y-155674865D01*
X100500500Y-155674865D01*
X100500500Y-153639450D01*
X115349500Y-153639450D01*
X115349500Y-153820549D01*
X115377828Y-153999406D01*
X115377829Y-153999409D01*
X115433789Y-154171639D01*
X115516004Y-154332994D01*
X115622447Y-154479501D01*
X115750499Y-154607553D01*
X115897006Y-154713996D01*
X116058361Y-154796211D01*
X116230591Y-154852171D01*
X116302136Y-154863502D01*
X116409451Y-154880500D01*
X116409454Y-154880500D01*
X116590549Y-154880500D01*
X116679977Y-154866335D01*
X116769409Y-154852171D01*
X116941639Y-154796211D01*
X117102994Y-154713996D01*
X117249501Y-154607553D01*
X117377553Y-154479501D01*
X117483996Y-154332994D01*
X117566211Y-154171639D01*
X117622171Y-153999409D01*
X117650500Y-153820546D01*
X117650500Y-153639454D01*
X117650500Y-153639450D01*
X117622171Y-153460593D01*
X117622171Y-153460591D01*
X117566211Y-153288361D01*
X117483996Y-153127006D01*
X117377553Y-152980499D01*
X117249501Y-152852447D01*
X117102994Y-152746004D01*
X117102993Y-152746003D01*
X117102991Y-152746002D01*
X116941637Y-152663788D01*
X116769406Y-152607828D01*
X116590549Y-152579500D01*
X116590546Y-152579500D01*
X116409454Y-152579500D01*
X116409451Y-152579500D01*
X116230593Y-152607828D01*
X116058362Y-152663788D01*
X115897008Y-152746002D01*
X115823752Y-152799225D01*
X115750499Y-152852447D01*
X115622447Y-152980499D01*
X115569225Y-153053752D01*
X115516002Y-153127008D01*
X115433788Y-153288362D01*
X115377828Y-153460593D01*
X115349500Y-153639450D01*
X100500500Y-153639450D01*
X100500500Y-151099450D01*
X115349500Y-151099450D01*
X115349500Y-151280549D01*
X115377828Y-151459406D01*
X115377829Y-151459409D01*
X115433789Y-151631639D01*
X115516004Y-151792994D01*
X115622447Y-151939501D01*
X115750499Y-152067553D01*
X115897006Y-152173996D01*
X116058361Y-152256211D01*
X116230591Y-152312171D01*
X116302136Y-152323502D01*
X116409451Y-152340500D01*
X116409454Y-152340500D01*
X116590549Y-152340500D01*
X116679977Y-152326335D01*
X116769409Y-152312171D01*
X116941639Y-152256211D01*
X117102994Y-152173996D01*
X117249501Y-152067553D01*
X117377553Y-151939501D01*
X117483996Y-151792994D01*
X117566211Y-151631639D01*
X117622171Y-151459409D01*
X117650500Y-151280546D01*
X117650500Y-151099454D01*
X117650500Y-151099450D01*
X117622171Y-150920593D01*
X117622171Y-150920591D01*
X117566211Y-150748361D01*
X117483996Y-150587006D01*
X117377553Y-150440499D01*
X117249501Y-150312447D01*
X117102994Y-150206004D01*
X117102993Y-150206003D01*
X117102991Y-150206002D01*
X116941637Y-150123788D01*
X116769406Y-150067828D01*
X116590549Y-150039500D01*
X116590546Y-150039500D01*
X116409454Y-150039500D01*
X116409451Y-150039500D01*
X116230593Y-150067828D01*
X116058362Y-150123788D01*
X115897008Y-150206002D01*
X115823752Y-150259225D01*
X115750499Y-150312447D01*
X115622447Y-150440499D01*
X115569225Y-150513752D01*
X115516002Y-150587008D01*
X115433788Y-150748362D01*
X115377828Y-150920593D01*
X115349500Y-151099450D01*
X100500500Y-151099450D01*
X100500500Y-147374865D01*
X106399500Y-147374865D01*
X106399500Y-148785134D01*
X106409583Y-148898554D01*
X106462761Y-149084399D01*
X106462763Y-149084406D01*
X106552264Y-149255748D01*
X106674426Y-149405568D01*
X106674429Y-149405571D01*
X106824249Y-149527734D01*
X106995594Y-149617237D01*
X107181448Y-149670417D01*
X107294862Y-149680500D01*
X107294866Y-149680500D01*
X108705134Y-149680500D01*
X108705138Y-149680500D01*
X108818552Y-149670417D01*
X109004406Y-149617237D01*
X109175751Y-149527734D01*
X109325571Y-149405571D01*
X109447734Y-149255751D01*
X109537237Y-149084406D01*
X109590417Y-148898552D01*
X109600500Y-148785138D01*
X109600500Y-148559450D01*
X115349500Y-148559450D01*
X115349500Y-148740549D01*
X115377828Y-148919406D01*
X115431436Y-149084399D01*
X115433789Y-149091639D01*
X115516004Y-149252994D01*
X115622447Y-149399501D01*
X115750499Y-149527553D01*
X115897006Y-149633996D01*
X116058361Y-149716211D01*
X116230591Y-149772171D01*
X116302136Y-149783502D01*
X116409451Y-149800500D01*
X116409454Y-149800500D01*
X116590549Y-149800500D01*
X116679977Y-149786335D01*
X116769409Y-149772171D01*
X116941639Y-149716211D01*
X117102994Y-149633996D01*
X117249501Y-149527553D01*
X117377553Y-149399501D01*
X117483996Y-149252994D01*
X117566211Y-149091639D01*
X117622171Y-148919409D01*
X117636335Y-148829977D01*
X117650500Y-148740549D01*
X117650500Y-148559450D01*
X117622171Y-148380593D01*
X117622171Y-148380591D01*
X117566211Y-148208361D01*
X117483996Y-148047006D01*
X117377553Y-147900499D01*
X117249501Y-147772447D01*
X117102994Y-147666004D01*
X117102993Y-147666003D01*
X117102991Y-147666002D01*
X116941637Y-147583788D01*
X116769406Y-147527828D01*
X116590549Y-147499500D01*
X116590546Y-147499500D01*
X116409454Y-147499500D01*
X116409451Y-147499500D01*
X116230593Y-147527828D01*
X116058362Y-147583788D01*
X115897008Y-147666002D01*
X115823752Y-147719225D01*
X115750499Y-147772447D01*
X115622447Y-147900499D01*
X115569225Y-147973752D01*
X115516002Y-148047008D01*
X115433788Y-148208362D01*
X115377828Y-148380593D01*
X115349500Y-148559450D01*
X109600500Y-148559450D01*
X109600500Y-147374862D01*
X109590417Y-147261448D01*
X109537237Y-147075594D01*
X109447734Y-146904249D01*
X109325571Y-146754429D01*
X109325568Y-146754426D01*
X109242597Y-146686772D01*
X109175751Y-146632266D01*
X109175749Y-146632265D01*
X109175748Y-146632264D01*
X109004406Y-146542763D01*
X109004399Y-146542761D01*
X108818554Y-146489583D01*
X108780747Y-146486222D01*
X108705138Y-146479500D01*
X107294862Y-146479500D01*
X107230054Y-146485261D01*
X107181445Y-146489583D01*
X106995600Y-146542761D01*
X106995593Y-146542763D01*
X106824251Y-146632264D01*
X106674431Y-146754426D01*
X106674426Y-146754431D01*
X106552264Y-146904251D01*
X106462763Y-147075593D01*
X106462761Y-147075600D01*
X106409583Y-147261445D01*
X106399500Y-147374865D01*
X100500500Y-147374865D01*
X100500500Y-146019450D01*
X115349500Y-146019450D01*
X115349500Y-146200549D01*
X115377828Y-146379406D01*
X115377829Y-146379409D01*
X115433789Y-146551639D01*
X115516004Y-146712994D01*
X115622447Y-146859501D01*
X115750499Y-146987553D01*
X115897006Y-147093996D01*
X116058361Y-147176211D01*
X116230591Y-147232171D01*
X116302136Y-147243502D01*
X116409451Y-147260500D01*
X116409454Y-147260500D01*
X116590549Y-147260500D01*
X116679977Y-147246335D01*
X116769409Y-147232171D01*
X116941639Y-147176211D01*
X117102994Y-147093996D01*
X117249501Y-146987553D01*
X117377553Y-146859501D01*
X117483996Y-146712994D01*
X117566211Y-146551639D01*
X117622171Y-146379409D01*
X117650500Y-146200546D01*
X117650500Y-146019454D01*
X117650500Y-146019450D01*
X117622171Y-145840593D01*
X117622171Y-145840591D01*
X117566211Y-145668361D01*
X117483996Y-145507006D01*
X117377553Y-145360499D01*
X117249501Y-145232447D01*
X117102994Y-145126004D01*
X117102993Y-145126003D01*
X117102991Y-145126002D01*
X116941637Y-145043788D01*
X116769406Y-144987828D01*
X116590549Y-144959500D01*
X116590546Y-144959500D01*
X116409454Y-144959500D01*
X116409451Y-144959500D01*
X116230593Y-144987828D01*
X116058362Y-145043788D01*
X115897008Y-145126002D01*
X115823752Y-145179225D01*
X115750499Y-145232447D01*
X115622447Y-145360499D01*
X115569225Y-145433752D01*
X115516002Y-145507008D01*
X115433788Y-145668362D01*
X115377828Y-145840593D01*
X115349500Y-146019450D01*
X100500500Y-146019450D01*
X100500500Y-140674865D01*
X106399500Y-140674865D01*
X106399500Y-142085134D01*
X106409583Y-142198554D01*
X106462761Y-142384399D01*
X106462763Y-142384406D01*
X106552264Y-142555748D01*
X106674426Y-142705568D01*
X106674429Y-142705571D01*
X106824249Y-142827734D01*
X106995594Y-142917237D01*
X107181448Y-142970417D01*
X107294862Y-142980500D01*
X107294866Y-142980500D01*
X108705134Y-142980500D01*
X108705138Y-142980500D01*
X108818552Y-142970417D01*
X109004406Y-142917237D01*
X109175751Y-142827734D01*
X109325571Y-142705571D01*
X109447734Y-142555751D01*
X109537237Y-142384406D01*
X109590417Y-142198552D01*
X109600500Y-142085138D01*
X109600500Y-140674862D01*
X109590417Y-140561448D01*
X109537237Y-140375594D01*
X109447734Y-140204249D01*
X109325571Y-140054429D01*
X109325568Y-140054426D01*
X109242597Y-139986772D01*
X109175751Y-139932266D01*
X109175749Y-139932265D01*
X109175748Y-139932264D01*
X109004406Y-139842763D01*
X109004399Y-139842761D01*
X108818554Y-139789583D01*
X108780747Y-139786222D01*
X108705138Y-139779500D01*
X107294862Y-139779500D01*
X107230054Y-139785261D01*
X107181445Y-139789583D01*
X106995600Y-139842761D01*
X106995593Y-139842763D01*
X106824251Y-139932264D01*
X106674431Y-140054426D01*
X106674426Y-140054431D01*
X106552264Y-140204251D01*
X106462763Y-140375593D01*
X106462761Y-140375600D01*
X106409583Y-140561445D01*
X106399500Y-140674865D01*
X100500500Y-140674865D01*
X100500500Y-132374865D01*
X106399500Y-132374865D01*
X106399500Y-133785134D01*
X106409583Y-133898554D01*
X106462761Y-134084399D01*
X106462763Y-134084406D01*
X106552264Y-134255748D01*
X106674426Y-134405568D01*
X106674429Y-134405571D01*
X106824249Y-134527734D01*
X106995594Y-134617237D01*
X107181448Y-134670417D01*
X107294862Y-134680500D01*
X107294866Y-134680500D01*
X108705134Y-134680500D01*
X108705138Y-134680500D01*
X108818552Y-134670417D01*
X109004406Y-134617237D01*
X109175751Y-134527734D01*
X109325571Y-134405571D01*
X109447734Y-134255751D01*
X109537237Y-134084406D01*
X109590417Y-133898552D01*
X109600500Y-133785138D01*
X109600500Y-132374862D01*
X109590417Y-132261448D01*
X109537237Y-132075594D01*
X109447734Y-131904249D01*
X109325571Y-131754429D01*
X109325568Y-131754426D01*
X109242597Y-131686772D01*
X109175751Y-131632266D01*
X109175749Y-131632265D01*
X109175748Y-131632264D01*
X109004406Y-131542763D01*
X109004399Y-131542761D01*
X108818554Y-131489583D01*
X108780747Y-131486222D01*
X108705138Y-131479500D01*
X107294862Y-131479500D01*
X107230054Y-131485261D01*
X107181445Y-131489583D01*
X106995600Y-131542761D01*
X106995593Y-131542763D01*
X106824251Y-131632264D01*
X106674431Y-131754426D01*
X106674426Y-131754431D01*
X106552264Y-131904251D01*
X106462763Y-132075593D01*
X106462761Y-132075600D01*
X106409583Y-132261445D01*
X106399500Y-132374865D01*
X100500500Y-132374865D01*
X100500500Y-125674865D01*
X106399500Y-125674865D01*
X106399500Y-127085134D01*
X106409583Y-127198554D01*
X106462761Y-127384399D01*
X106462763Y-127384406D01*
X106552264Y-127555748D01*
X106674426Y-127705568D01*
X106674429Y-127705571D01*
X106824249Y-127827734D01*
X106995594Y-127917237D01*
X107181448Y-127970417D01*
X107294862Y-127980500D01*
X107294866Y-127980500D01*
X108705134Y-127980500D01*
X108705138Y-127980500D01*
X108818552Y-127970417D01*
X109004406Y-127917237D01*
X109175751Y-127827734D01*
X109325571Y-127705571D01*
X109447734Y-127555751D01*
X109537237Y-127384406D01*
X109590417Y-127198552D01*
X109600500Y-127085138D01*
X109600500Y-125674862D01*
X109590417Y-125561448D01*
X109537237Y-125375594D01*
X109447734Y-125204249D01*
X109325571Y-125054429D01*
X109325568Y-125054426D01*
X109242597Y-124986772D01*
X109175751Y-124932266D01*
X109175749Y-124932265D01*
X109175748Y-124932264D01*
X109004406Y-124842763D01*
X109004399Y-124842761D01*
X108818554Y-124789583D01*
X108780747Y-124786222D01*
X108705138Y-124779500D01*
X107294862Y-124779500D01*
X107230054Y-124785261D01*
X107181445Y-124789583D01*
X106995600Y-124842761D01*
X106995593Y-124842763D01*
X106824251Y-124932264D01*
X106674431Y-125054426D01*
X106674426Y-125054431D01*
X106552264Y-125204251D01*
X106462763Y-125375593D01*
X106462761Y-125375600D01*
X106409583Y-125561445D01*
X106399500Y-125674865D01*
X100500500Y-125674865D01*
X100500500Y-117374865D01*
X106399500Y-117374865D01*
X106399500Y-118785134D01*
X106409583Y-118898554D01*
X106462761Y-119084399D01*
X106462763Y-119084406D01*
X106552264Y-119255748D01*
X106674426Y-119405568D01*
X106674429Y-119405571D01*
X106824249Y-119527734D01*
X106995594Y-119617237D01*
X107181448Y-119670417D01*
X107294862Y-119680500D01*
X107294866Y-119680500D01*
X108705134Y-119680500D01*
X108705138Y-119680500D01*
X108818552Y-119670417D01*
X109004406Y-119617237D01*
X109175751Y-119527734D01*
X109325571Y-119405571D01*
X109447734Y-119255751D01*
X109537237Y-119084406D01*
X109590417Y-118898552D01*
X109600500Y-118785138D01*
X109600500Y-117374862D01*
X109590417Y-117261448D01*
X109537237Y-117075594D01*
X109447734Y-116904249D01*
X109325571Y-116754429D01*
X109325568Y-116754426D01*
X109242597Y-116686772D01*
X109175751Y-116632266D01*
X109175749Y-116632265D01*
X109175748Y-116632264D01*
X109004406Y-116542763D01*
X109004399Y-116542761D01*
X108818554Y-116489583D01*
X108780747Y-116486222D01*
X108705138Y-116479500D01*
X107294862Y-116479500D01*
X107230054Y-116485261D01*
X107181445Y-116489583D01*
X106995600Y-116542761D01*
X106995593Y-116542763D01*
X106824251Y-116632264D01*
X106674431Y-116754426D01*
X106674426Y-116754431D01*
X106552264Y-116904251D01*
X106462763Y-117075593D01*
X106462761Y-117075600D01*
X106409583Y-117261445D01*
X106399500Y-117374865D01*
X100500500Y-117374865D01*
X100500500Y-110674865D01*
X106399500Y-110674865D01*
X106399500Y-112085134D01*
X106409583Y-112198554D01*
X106462761Y-112384399D01*
X106462763Y-112384406D01*
X106552264Y-112555748D01*
X106674426Y-112705568D01*
X106674429Y-112705571D01*
X106824249Y-112827734D01*
X106995594Y-112917237D01*
X107181448Y-112970417D01*
X107294862Y-112980500D01*
X107294866Y-112980500D01*
X108705134Y-112980500D01*
X108705138Y-112980500D01*
X108818552Y-112970417D01*
X109004406Y-112917237D01*
X109175751Y-112827734D01*
X109325571Y-112705571D01*
X109447734Y-112555751D01*
X109537237Y-112384406D01*
X109590417Y-112198552D01*
X109600500Y-112085138D01*
X109600500Y-110674862D01*
X109590417Y-110561448D01*
X109537237Y-110375594D01*
X109447734Y-110204249D01*
X109325571Y-110054429D01*
X109325568Y-110054426D01*
X109242597Y-109986772D01*
X109175751Y-109932266D01*
X109175749Y-109932265D01*
X109175748Y-109932264D01*
X109004406Y-109842763D01*
X109004399Y-109842761D01*
X108818554Y-109789583D01*
X108780747Y-109786222D01*
X108705138Y-109779500D01*
X107294862Y-109779500D01*
X107230054Y-109785261D01*
X107181445Y-109789583D01*
X106995600Y-109842761D01*
X106995593Y-109842763D01*
X106824251Y-109932264D01*
X106674431Y-110054426D01*
X106674426Y-110054431D01*
X106552264Y-110204251D01*
X106462763Y-110375593D01*
X106462761Y-110375600D01*
X106409583Y-110561445D01*
X106399500Y-110674865D01*
X100500500Y-110674865D01*
X100500500Y-102374865D01*
X106399500Y-102374865D01*
X106399500Y-103785134D01*
X106409583Y-103898554D01*
X106462761Y-104084399D01*
X106462763Y-104084406D01*
X106552264Y-104255748D01*
X106674426Y-104405568D01*
X106674429Y-104405571D01*
X106824249Y-104527734D01*
X106995594Y-104617237D01*
X107181448Y-104670417D01*
X107294862Y-104680500D01*
X107294866Y-104680500D01*
X108705134Y-104680500D01*
X108705138Y-104680500D01*
X108818552Y-104670417D01*
X109004406Y-104617237D01*
X109175751Y-104527734D01*
X109325571Y-104405571D01*
X109447734Y-104255751D01*
X109537237Y-104084406D01*
X109590417Y-103898552D01*
X109600500Y-103785138D01*
X109600500Y-102374862D01*
X109590417Y-102261448D01*
X109537237Y-102075594D01*
X109447734Y-101904249D01*
X109325571Y-101754429D01*
X109325568Y-101754426D01*
X109242597Y-101686772D01*
X109175751Y-101632266D01*
X109175749Y-101632265D01*
X109175748Y-101632264D01*
X109004406Y-101542763D01*
X109004399Y-101542761D01*
X108818554Y-101489583D01*
X108780747Y-101486222D01*
X108705138Y-101479500D01*
X107294862Y-101479500D01*
X107230054Y-101485261D01*
X107181445Y-101489583D01*
X106995600Y-101542761D01*
X106995593Y-101542763D01*
X106824251Y-101632264D01*
X106674431Y-101754426D01*
X106674426Y-101754431D01*
X106552264Y-101904251D01*
X106462763Y-102075593D01*
X106462761Y-102075600D01*
X106409583Y-102261445D01*
X106399500Y-102374865D01*
X100500500Y-102374865D01*
X100500500Y-100599500D01*
X100519407Y-100541309D01*
X100568907Y-100505345D01*
X100599500Y-100500500D01*
X119400500Y-100500500D01*
X119458691Y-100519407D01*
G37*
%TD.AperFunction*%
%TD*%
M02*
