M48
; DRILL file KiCad 10.0.3 date 2026-07-11T14:04:22
; FORMAT={-:-/ absolute / metric / decimal}
; #@! TF.CreationDate,2026-07-11T14:04:22+02:00
; #@! TF.GenerationSoftware,Kicad,Pcbnew,10.0.3
; #@! TF.FileFunction,Plated,1,2,PTH
FMAT,2
METRIC
; #@! TA.AperFunction,Plated,PTH,ViaDrill
T1C0.300
; #@! TA.AperFunction,Plated,PTH,ComponentDrill
T2C0.600
; #@! TA.AperFunction,Plated,PTH,ComponentDrill
T3C1.000
%
G90
G05
T1
X102.0Y-102.0
X102.0Y-223.2
X118.0Y-102.0
X118.0Y-162.5
X118.0Y-223.0
T3
X116.5Y-143.57
X116.5Y-146.11
X116.5Y-148.65
X116.5Y-151.19
X116.5Y-153.73
X116.5Y-156.27
X116.5Y-158.81
X116.5Y-161.35
X116.5Y-163.89
X116.5Y-166.43
T2
X107.5Y-103.08G85X108.5Y-103.08
G05
X107.5Y-111.38G85X108.5Y-111.38
G05
X107.5Y-114.48G85X108.5Y-114.48
G05
X107.5Y-118.08G85X108.5Y-118.08
G05
X107.5Y-126.38G85X108.5Y-126.38
G05
X107.5Y-129.48G85X108.5Y-129.48
G05
X107.5Y-133.08G85X108.5Y-133.08
G05
X107.5Y-141.38G85X108.5Y-141.38
G05
X107.5Y-144.48G85X108.5Y-144.48
G05
X107.5Y-148.08G85X108.5Y-148.08
G05
X107.5Y-156.38G85X108.5Y-156.38
G05
X107.5Y-159.48G85X108.5Y-159.48
G05
X107.5Y-163.08G85X108.5Y-163.08
G05
X107.5Y-171.38G85X108.5Y-171.38
G05
X107.5Y-174.48G85X108.5Y-174.48
G05
X107.5Y-178.08G85X108.5Y-178.08
G05
X107.5Y-186.38G85X108.5Y-186.38
G05
X107.5Y-189.48G85X108.5Y-189.48
G05
X107.5Y-193.08G85X108.5Y-193.08
G05
X107.5Y-201.38G85X108.5Y-201.38
G05
X107.5Y-204.48G85X108.5Y-204.48
G05
X107.5Y-208.08G85X108.5Y-208.08
G05
X107.5Y-216.38G85X108.5Y-216.38
G05
X107.5Y-219.48G85X108.5Y-219.48
G05
M30
