%TF.GenerationSoftware,KiCad,Pcbnew,10.0.3*%
%TF.CreationDate,2026-07-11T14:04:22+02:00*%
%TF.ProjectId,musicbrain-jack8,6d757369-6362-4726-9169-6e2d6a61636b,1.2*%
%TF.SameCoordinates,Original*%
%TF.FileFunction,Legend,Top*%
%TF.FilePolarity,Positive*%
%FSLAX46Y46*%
G04 Gerber Fmt 4.6, Leading zero omitted, Abs format (unit mm)*
G04 Created by KiCad (PCBNEW 10.0.3) date 2026-07-11 14:04:22*
%MOMM*%
%LPD*%
G01*
G04 APERTURE LIST*
%ADD10C,0.150000*%
%ADD11C,0.120000*%
G04 APERTURE END LIST*
D10*
X101754819Y-174404761D02*
X101088152Y-174404761D01*
X101183390Y-174404761D02*
X101135771Y-174357142D01*
X101135771Y-174357142D02*
X101088152Y-174261904D01*
X101088152Y-174261904D02*
X101088152Y-174119047D01*
X101088152Y-174119047D02*
X101135771Y-174023809D01*
X101135771Y-174023809D02*
X101231009Y-173976190D01*
X101231009Y-173976190D02*
X101754819Y-173976190D01*
X101231009Y-173976190D02*
X101135771Y-173928571D01*
X101135771Y-173928571D02*
X101088152Y-173833333D01*
X101088152Y-173833333D02*
X101088152Y-173690476D01*
X101088152Y-173690476D02*
X101135771Y-173595237D01*
X101135771Y-173595237D02*
X101231009Y-173547618D01*
X101231009Y-173547618D02*
X101754819Y-173547618D01*
X101088152Y-172642857D02*
X101754819Y-172642857D01*
X101088152Y-173071428D02*
X101611961Y-173071428D01*
X101611961Y-173071428D02*
X101707200Y-173023809D01*
X101707200Y-173023809D02*
X101754819Y-172928571D01*
X101754819Y-172928571D02*
X101754819Y-172785714D01*
X101754819Y-172785714D02*
X101707200Y-172690476D01*
X101707200Y-172690476D02*
X101659580Y-172642857D01*
X101707200Y-172214285D02*
X101754819Y-172119047D01*
X101754819Y-172119047D02*
X101754819Y-171928571D01*
X101754819Y-171928571D02*
X101707200Y-171833333D01*
X101707200Y-171833333D02*
X101611961Y-171785714D01*
X101611961Y-171785714D02*
X101564342Y-171785714D01*
X101564342Y-171785714D02*
X101469104Y-171833333D01*
X101469104Y-171833333D02*
X101421485Y-171928571D01*
X101421485Y-171928571D02*
X101421485Y-172071428D01*
X101421485Y-172071428D02*
X101373866Y-172166666D01*
X101373866Y-172166666D02*
X101278628Y-172214285D01*
X101278628Y-172214285D02*
X101231009Y-172214285D01*
X101231009Y-172214285D02*
X101135771Y-172166666D01*
X101135771Y-172166666D02*
X101088152Y-172071428D01*
X101088152Y-172071428D02*
X101088152Y-171928571D01*
X101088152Y-171928571D02*
X101135771Y-171833333D01*
X101754819Y-171357142D02*
X101088152Y-171357142D01*
X100754819Y-171357142D02*
X100802438Y-171404761D01*
X100802438Y-171404761D02*
X100850057Y-171357142D01*
X100850057Y-171357142D02*
X100802438Y-171309523D01*
X100802438Y-171309523D02*
X100754819Y-171357142D01*
X100754819Y-171357142D02*
X100850057Y-171357142D01*
X101707200Y-170452381D02*
X101754819Y-170547619D01*
X101754819Y-170547619D02*
X101754819Y-170738095D01*
X101754819Y-170738095D02*
X101707200Y-170833333D01*
X101707200Y-170833333D02*
X101659580Y-170880952D01*
X101659580Y-170880952D02*
X101564342Y-170928571D01*
X101564342Y-170928571D02*
X101278628Y-170928571D01*
X101278628Y-170928571D02*
X101183390Y-170880952D01*
X101183390Y-170880952D02*
X101135771Y-170833333D01*
X101135771Y-170833333D02*
X101088152Y-170738095D01*
X101088152Y-170738095D02*
X101088152Y-170547619D01*
X101088152Y-170547619D02*
X101135771Y-170452381D01*
X101754819Y-170023809D02*
X100754819Y-170023809D01*
X101135771Y-170023809D02*
X101088152Y-169928571D01*
X101088152Y-169928571D02*
X101088152Y-169738095D01*
X101088152Y-169738095D02*
X101135771Y-169642857D01*
X101135771Y-169642857D02*
X101183390Y-169595238D01*
X101183390Y-169595238D02*
X101278628Y-169547619D01*
X101278628Y-169547619D02*
X101564342Y-169547619D01*
X101564342Y-169547619D02*
X101659580Y-169595238D01*
X101659580Y-169595238D02*
X101707200Y-169642857D01*
X101707200Y-169642857D02*
X101754819Y-169738095D01*
X101754819Y-169738095D02*
X101754819Y-169928571D01*
X101754819Y-169928571D02*
X101707200Y-170023809D01*
X101754819Y-169119047D02*
X101088152Y-169119047D01*
X101278628Y-169119047D02*
X101183390Y-169071428D01*
X101183390Y-169071428D02*
X101135771Y-169023809D01*
X101135771Y-169023809D02*
X101088152Y-168928571D01*
X101088152Y-168928571D02*
X101088152Y-168833333D01*
X101754819Y-168071428D02*
X101231009Y-168071428D01*
X101231009Y-168071428D02*
X101135771Y-168119047D01*
X101135771Y-168119047D02*
X101088152Y-168214285D01*
X101088152Y-168214285D02*
X101088152Y-168404761D01*
X101088152Y-168404761D02*
X101135771Y-168499999D01*
X101707200Y-168071428D02*
X101754819Y-168166666D01*
X101754819Y-168166666D02*
X101754819Y-168404761D01*
X101754819Y-168404761D02*
X101707200Y-168499999D01*
X101707200Y-168499999D02*
X101611961Y-168547618D01*
X101611961Y-168547618D02*
X101516723Y-168547618D01*
X101516723Y-168547618D02*
X101421485Y-168499999D01*
X101421485Y-168499999D02*
X101373866Y-168404761D01*
X101373866Y-168404761D02*
X101373866Y-168166666D01*
X101373866Y-168166666D02*
X101326247Y-168071428D01*
X101754819Y-167595237D02*
X101088152Y-167595237D01*
X100754819Y-167595237D02*
X100802438Y-167642856D01*
X100802438Y-167642856D02*
X100850057Y-167595237D01*
X100850057Y-167595237D02*
X100802438Y-167547618D01*
X100802438Y-167547618D02*
X100754819Y-167595237D01*
X100754819Y-167595237D02*
X100850057Y-167595237D01*
X101088152Y-167119047D02*
X101754819Y-167119047D01*
X101183390Y-167119047D02*
X101135771Y-167071428D01*
X101135771Y-167071428D02*
X101088152Y-166976190D01*
X101088152Y-166976190D02*
X101088152Y-166833333D01*
X101088152Y-166833333D02*
X101135771Y-166738095D01*
X101135771Y-166738095D02*
X101231009Y-166690476D01*
X101231009Y-166690476D02*
X101754819Y-166690476D01*
X101659580Y-166214285D02*
X101707200Y-166166666D01*
X101707200Y-166166666D02*
X101754819Y-166214285D01*
X101754819Y-166214285D02*
X101707200Y-166261904D01*
X101707200Y-166261904D02*
X101659580Y-166214285D01*
X101659580Y-166214285D02*
X101754819Y-166214285D01*
X101088152Y-165738095D02*
X101754819Y-165738095D01*
X101183390Y-165738095D02*
X101135771Y-165690476D01*
X101135771Y-165690476D02*
X101088152Y-165595238D01*
X101088152Y-165595238D02*
X101088152Y-165452381D01*
X101088152Y-165452381D02*
X101135771Y-165357143D01*
X101135771Y-165357143D02*
X101231009Y-165309524D01*
X101231009Y-165309524D02*
X101754819Y-165309524D01*
X101754819Y-164690476D02*
X101707200Y-164785714D01*
X101707200Y-164785714D02*
X101611961Y-164833333D01*
X101611961Y-164833333D02*
X100754819Y-164833333D01*
X100707200Y-163595238D02*
X101992914Y-164452380D01*
X101754819Y-163261904D02*
X100754819Y-163261904D01*
X101754819Y-162833333D02*
X101231009Y-162833333D01*
X101231009Y-162833333D02*
X101135771Y-162880952D01*
X101135771Y-162880952D02*
X101088152Y-162976190D01*
X101088152Y-162976190D02*
X101088152Y-163119047D01*
X101088152Y-163119047D02*
X101135771Y-163214285D01*
X101135771Y-163214285D02*
X101183390Y-163261904D01*
X101088152Y-162452380D02*
X101754819Y-162261904D01*
X101754819Y-162261904D02*
X101278628Y-162071428D01*
X101278628Y-162071428D02*
X101754819Y-161880952D01*
X101754819Y-161880952D02*
X101088152Y-161690476D01*
X100707200Y-160595238D02*
X101992914Y-161452380D01*
X101088152Y-160261904D02*
X101945295Y-160261904D01*
X101945295Y-160261904D02*
X102040533Y-160309523D01*
X102040533Y-160309523D02*
X102088152Y-160404761D01*
X102088152Y-160404761D02*
X102088152Y-160452380D01*
X100754819Y-160261904D02*
X100802438Y-160309523D01*
X100802438Y-160309523D02*
X100850057Y-160261904D01*
X100850057Y-160261904D02*
X100802438Y-160214285D01*
X100802438Y-160214285D02*
X100754819Y-160261904D01*
X100754819Y-160261904D02*
X100850057Y-160261904D01*
X101754819Y-159357143D02*
X101231009Y-159357143D01*
X101231009Y-159357143D02*
X101135771Y-159404762D01*
X101135771Y-159404762D02*
X101088152Y-159500000D01*
X101088152Y-159500000D02*
X101088152Y-159690476D01*
X101088152Y-159690476D02*
X101135771Y-159785714D01*
X101707200Y-159357143D02*
X101754819Y-159452381D01*
X101754819Y-159452381D02*
X101754819Y-159690476D01*
X101754819Y-159690476D02*
X101707200Y-159785714D01*
X101707200Y-159785714D02*
X101611961Y-159833333D01*
X101611961Y-159833333D02*
X101516723Y-159833333D01*
X101516723Y-159833333D02*
X101421485Y-159785714D01*
X101421485Y-159785714D02*
X101373866Y-159690476D01*
X101373866Y-159690476D02*
X101373866Y-159452381D01*
X101373866Y-159452381D02*
X101326247Y-159357143D01*
X101707200Y-158452381D02*
X101754819Y-158547619D01*
X101754819Y-158547619D02*
X101754819Y-158738095D01*
X101754819Y-158738095D02*
X101707200Y-158833333D01*
X101707200Y-158833333D02*
X101659580Y-158880952D01*
X101659580Y-158880952D02*
X101564342Y-158928571D01*
X101564342Y-158928571D02*
X101278628Y-158928571D01*
X101278628Y-158928571D02*
X101183390Y-158880952D01*
X101183390Y-158880952D02*
X101135771Y-158833333D01*
X101135771Y-158833333D02*
X101088152Y-158738095D01*
X101088152Y-158738095D02*
X101088152Y-158547619D01*
X101088152Y-158547619D02*
X101135771Y-158452381D01*
X101754819Y-158023809D02*
X100754819Y-158023809D01*
X101373866Y-157928571D02*
X101754819Y-157642857D01*
X101088152Y-157642857D02*
X101469104Y-158023809D01*
X101183390Y-157071428D02*
X101135771Y-157166666D01*
X101135771Y-157166666D02*
X101088152Y-157214285D01*
X101088152Y-157214285D02*
X100992914Y-157261904D01*
X100992914Y-157261904D02*
X100945295Y-157261904D01*
X100945295Y-157261904D02*
X100850057Y-157214285D01*
X100850057Y-157214285D02*
X100802438Y-157166666D01*
X100802438Y-157166666D02*
X100754819Y-157071428D01*
X100754819Y-157071428D02*
X100754819Y-156880952D01*
X100754819Y-156880952D02*
X100802438Y-156785714D01*
X100802438Y-156785714D02*
X100850057Y-156738095D01*
X100850057Y-156738095D02*
X100945295Y-156690476D01*
X100945295Y-156690476D02*
X100992914Y-156690476D01*
X100992914Y-156690476D02*
X101088152Y-156738095D01*
X101088152Y-156738095D02*
X101135771Y-156785714D01*
X101135771Y-156785714D02*
X101183390Y-156880952D01*
X101183390Y-156880952D02*
X101183390Y-157071428D01*
X101183390Y-157071428D02*
X101231009Y-157166666D01*
X101231009Y-157166666D02*
X101278628Y-157214285D01*
X101278628Y-157214285D02*
X101373866Y-157261904D01*
X101373866Y-157261904D02*
X101564342Y-157261904D01*
X101564342Y-157261904D02*
X101659580Y-157214285D01*
X101659580Y-157214285D02*
X101707200Y-157166666D01*
X101707200Y-157166666D02*
X101754819Y-157071428D01*
X101754819Y-157071428D02*
X101754819Y-156880952D01*
X101754819Y-156880952D02*
X101707200Y-156785714D01*
X101707200Y-156785714D02*
X101659580Y-156738095D01*
X101659580Y-156738095D02*
X101564342Y-156690476D01*
X101564342Y-156690476D02*
X101373866Y-156690476D01*
X101373866Y-156690476D02*
X101278628Y-156738095D01*
X101278628Y-156738095D02*
X101231009Y-156785714D01*
X101231009Y-156785714D02*
X101183390Y-156880952D01*
X101754819Y-155499999D02*
X101088152Y-155499999D01*
X101278628Y-155499999D02*
X101183390Y-155452380D01*
X101183390Y-155452380D02*
X101135771Y-155404761D01*
X101135771Y-155404761D02*
X101088152Y-155309523D01*
X101088152Y-155309523D02*
X101088152Y-155214285D01*
X101707200Y-154499999D02*
X101754819Y-154595237D01*
X101754819Y-154595237D02*
X101754819Y-154785713D01*
X101754819Y-154785713D02*
X101707200Y-154880951D01*
X101707200Y-154880951D02*
X101611961Y-154928570D01*
X101611961Y-154928570D02*
X101231009Y-154928570D01*
X101231009Y-154928570D02*
X101135771Y-154880951D01*
X101135771Y-154880951D02*
X101088152Y-154785713D01*
X101088152Y-154785713D02*
X101088152Y-154595237D01*
X101088152Y-154595237D02*
X101135771Y-154499999D01*
X101135771Y-154499999D02*
X101231009Y-154452380D01*
X101231009Y-154452380D02*
X101326247Y-154452380D01*
X101326247Y-154452380D02*
X101421485Y-154928570D01*
X101088152Y-154119046D02*
X101754819Y-153880951D01*
X101754819Y-153880951D02*
X101088152Y-153642856D01*
X101754819Y-151976189D02*
X101754819Y-152547617D01*
X101754819Y-152261903D02*
X100754819Y-152261903D01*
X100754819Y-152261903D02*
X100897676Y-152357141D01*
X100897676Y-152357141D02*
X100992914Y-152452379D01*
X100992914Y-152452379D02*
X101040533Y-152547617D01*
X101659580Y-151547617D02*
X101707200Y-151499998D01*
X101707200Y-151499998D02*
X101754819Y-151547617D01*
X101754819Y-151547617D02*
X101707200Y-151595236D01*
X101707200Y-151595236D02*
X101659580Y-151547617D01*
X101659580Y-151547617D02*
X101754819Y-151547617D01*
X100850057Y-151119046D02*
X100802438Y-151071427D01*
X100802438Y-151071427D02*
X100754819Y-150976189D01*
X100754819Y-150976189D02*
X100754819Y-150738094D01*
X100754819Y-150738094D02*
X100802438Y-150642856D01*
X100802438Y-150642856D02*
X100850057Y-150595237D01*
X100850057Y-150595237D02*
X100945295Y-150547618D01*
X100945295Y-150547618D02*
X101040533Y-150547618D01*
X101040533Y-150547618D02*
X101183390Y-150595237D01*
X101183390Y-150595237D02*
X101754819Y-151166665D01*
X101754819Y-151166665D02*
X101754819Y-150547618D01*
X113754819Y-108333333D02*
X114469104Y-108333333D01*
X114469104Y-108333333D02*
X114611961Y-108380952D01*
X114611961Y-108380952D02*
X114707200Y-108476190D01*
X114707200Y-108476190D02*
X114754819Y-108619047D01*
X114754819Y-108619047D02*
X114754819Y-108714285D01*
X113850057Y-107904761D02*
X113802438Y-107857142D01*
X113802438Y-107857142D02*
X113754819Y-107761904D01*
X113754819Y-107761904D02*
X113754819Y-107523809D01*
X113754819Y-107523809D02*
X113802438Y-107428571D01*
X113802438Y-107428571D02*
X113850057Y-107380952D01*
X113850057Y-107380952D02*
X113945295Y-107333333D01*
X113945295Y-107333333D02*
X114040533Y-107333333D01*
X114040533Y-107333333D02*
X114183390Y-107380952D01*
X114183390Y-107380952D02*
X114754819Y-107952380D01*
X114754819Y-107952380D02*
X114754819Y-107333333D01*
X113754819Y-123333333D02*
X114469104Y-123333333D01*
X114469104Y-123333333D02*
X114611961Y-123380952D01*
X114611961Y-123380952D02*
X114707200Y-123476190D01*
X114707200Y-123476190D02*
X114754819Y-123619047D01*
X114754819Y-123619047D02*
X114754819Y-123714285D01*
X113754819Y-122952380D02*
X113754819Y-122333333D01*
X113754819Y-122333333D02*
X114135771Y-122666666D01*
X114135771Y-122666666D02*
X114135771Y-122523809D01*
X114135771Y-122523809D02*
X114183390Y-122428571D01*
X114183390Y-122428571D02*
X114231009Y-122380952D01*
X114231009Y-122380952D02*
X114326247Y-122333333D01*
X114326247Y-122333333D02*
X114564342Y-122333333D01*
X114564342Y-122333333D02*
X114659580Y-122380952D01*
X114659580Y-122380952D02*
X114707200Y-122428571D01*
X114707200Y-122428571D02*
X114754819Y-122523809D01*
X114754819Y-122523809D02*
X114754819Y-122809523D01*
X114754819Y-122809523D02*
X114707200Y-122904761D01*
X114707200Y-122904761D02*
X114659580Y-122952380D01*
X113754819Y-138333333D02*
X114469104Y-138333333D01*
X114469104Y-138333333D02*
X114611961Y-138380952D01*
X114611961Y-138380952D02*
X114707200Y-138476190D01*
X114707200Y-138476190D02*
X114754819Y-138619047D01*
X114754819Y-138619047D02*
X114754819Y-138714285D01*
X114088152Y-137428571D02*
X114754819Y-137428571D01*
X113707200Y-137666666D02*
X114421485Y-137904761D01*
X114421485Y-137904761D02*
X114421485Y-137285714D01*
X113754819Y-153333333D02*
X114469104Y-153333333D01*
X114469104Y-153333333D02*
X114611961Y-153380952D01*
X114611961Y-153380952D02*
X114707200Y-153476190D01*
X114707200Y-153476190D02*
X114754819Y-153619047D01*
X114754819Y-153619047D02*
X114754819Y-153714285D01*
X113754819Y-152380952D02*
X113754819Y-152857142D01*
X113754819Y-152857142D02*
X114231009Y-152904761D01*
X114231009Y-152904761D02*
X114183390Y-152857142D01*
X114183390Y-152857142D02*
X114135771Y-152761904D01*
X114135771Y-152761904D02*
X114135771Y-152523809D01*
X114135771Y-152523809D02*
X114183390Y-152428571D01*
X114183390Y-152428571D02*
X114231009Y-152380952D01*
X114231009Y-152380952D02*
X114326247Y-152333333D01*
X114326247Y-152333333D02*
X114564342Y-152333333D01*
X114564342Y-152333333D02*
X114659580Y-152380952D01*
X114659580Y-152380952D02*
X114707200Y-152428571D01*
X114707200Y-152428571D02*
X114754819Y-152523809D01*
X114754819Y-152523809D02*
X114754819Y-152761904D01*
X114754819Y-152761904D02*
X114707200Y-152857142D01*
X114707200Y-152857142D02*
X114659580Y-152904761D01*
X113754819Y-168333333D02*
X114469104Y-168333333D01*
X114469104Y-168333333D02*
X114611961Y-168380952D01*
X114611961Y-168380952D02*
X114707200Y-168476190D01*
X114707200Y-168476190D02*
X114754819Y-168619047D01*
X114754819Y-168619047D02*
X114754819Y-168714285D01*
X113754819Y-167428571D02*
X113754819Y-167619047D01*
X113754819Y-167619047D02*
X113802438Y-167714285D01*
X113802438Y-167714285D02*
X113850057Y-167761904D01*
X113850057Y-167761904D02*
X113992914Y-167857142D01*
X113992914Y-167857142D02*
X114183390Y-167904761D01*
X114183390Y-167904761D02*
X114564342Y-167904761D01*
X114564342Y-167904761D02*
X114659580Y-167857142D01*
X114659580Y-167857142D02*
X114707200Y-167809523D01*
X114707200Y-167809523D02*
X114754819Y-167714285D01*
X114754819Y-167714285D02*
X114754819Y-167523809D01*
X114754819Y-167523809D02*
X114707200Y-167428571D01*
X114707200Y-167428571D02*
X114659580Y-167380952D01*
X114659580Y-167380952D02*
X114564342Y-167333333D01*
X114564342Y-167333333D02*
X114326247Y-167333333D01*
X114326247Y-167333333D02*
X114231009Y-167380952D01*
X114231009Y-167380952D02*
X114183390Y-167428571D01*
X114183390Y-167428571D02*
X114135771Y-167523809D01*
X114135771Y-167523809D02*
X114135771Y-167714285D01*
X114135771Y-167714285D02*
X114183390Y-167809523D01*
X114183390Y-167809523D02*
X114231009Y-167857142D01*
X114231009Y-167857142D02*
X114326247Y-167904761D01*
X113754819Y-183333333D02*
X114469104Y-183333333D01*
X114469104Y-183333333D02*
X114611961Y-183380952D01*
X114611961Y-183380952D02*
X114707200Y-183476190D01*
X114707200Y-183476190D02*
X114754819Y-183619047D01*
X114754819Y-183619047D02*
X114754819Y-183714285D01*
X113754819Y-182952380D02*
X113754819Y-182285714D01*
X113754819Y-182285714D02*
X114754819Y-182714285D01*
X113754819Y-198333333D02*
X114469104Y-198333333D01*
X114469104Y-198333333D02*
X114611961Y-198380952D01*
X114611961Y-198380952D02*
X114707200Y-198476190D01*
X114707200Y-198476190D02*
X114754819Y-198619047D01*
X114754819Y-198619047D02*
X114754819Y-198714285D01*
X114183390Y-197714285D02*
X114135771Y-197809523D01*
X114135771Y-197809523D02*
X114088152Y-197857142D01*
X114088152Y-197857142D02*
X113992914Y-197904761D01*
X113992914Y-197904761D02*
X113945295Y-197904761D01*
X113945295Y-197904761D02*
X113850057Y-197857142D01*
X113850057Y-197857142D02*
X113802438Y-197809523D01*
X113802438Y-197809523D02*
X113754819Y-197714285D01*
X113754819Y-197714285D02*
X113754819Y-197523809D01*
X113754819Y-197523809D02*
X113802438Y-197428571D01*
X113802438Y-197428571D02*
X113850057Y-197380952D01*
X113850057Y-197380952D02*
X113945295Y-197333333D01*
X113945295Y-197333333D02*
X113992914Y-197333333D01*
X113992914Y-197333333D02*
X114088152Y-197380952D01*
X114088152Y-197380952D02*
X114135771Y-197428571D01*
X114135771Y-197428571D02*
X114183390Y-197523809D01*
X114183390Y-197523809D02*
X114183390Y-197714285D01*
X114183390Y-197714285D02*
X114231009Y-197809523D01*
X114231009Y-197809523D02*
X114278628Y-197857142D01*
X114278628Y-197857142D02*
X114373866Y-197904761D01*
X114373866Y-197904761D02*
X114564342Y-197904761D01*
X114564342Y-197904761D02*
X114659580Y-197857142D01*
X114659580Y-197857142D02*
X114707200Y-197809523D01*
X114707200Y-197809523D02*
X114754819Y-197714285D01*
X114754819Y-197714285D02*
X114754819Y-197523809D01*
X114754819Y-197523809D02*
X114707200Y-197428571D01*
X114707200Y-197428571D02*
X114659580Y-197380952D01*
X114659580Y-197380952D02*
X114564342Y-197333333D01*
X114564342Y-197333333D02*
X114373866Y-197333333D01*
X114373866Y-197333333D02*
X114278628Y-197380952D01*
X114278628Y-197380952D02*
X114231009Y-197428571D01*
X114231009Y-197428571D02*
X114183390Y-197523809D01*
X113754819Y-213333333D02*
X114469104Y-213333333D01*
X114469104Y-213333333D02*
X114611961Y-213380952D01*
X114611961Y-213380952D02*
X114707200Y-213476190D01*
X114707200Y-213476190D02*
X114754819Y-213619047D01*
X114754819Y-213619047D02*
X114754819Y-213714285D01*
X114754819Y-212809523D02*
X114754819Y-212619047D01*
X114754819Y-212619047D02*
X114707200Y-212523809D01*
X114707200Y-212523809D02*
X114659580Y-212476190D01*
X114659580Y-212476190D02*
X114516723Y-212380952D01*
X114516723Y-212380952D02*
X114326247Y-212333333D01*
X114326247Y-212333333D02*
X113945295Y-212333333D01*
X113945295Y-212333333D02*
X113850057Y-212380952D01*
X113850057Y-212380952D02*
X113802438Y-212428571D01*
X113802438Y-212428571D02*
X113754819Y-212523809D01*
X113754819Y-212523809D02*
X113754819Y-212714285D01*
X113754819Y-212714285D02*
X113802438Y-212809523D01*
X113802438Y-212809523D02*
X113850057Y-212857142D01*
X113850057Y-212857142D02*
X113945295Y-212904761D01*
X113945295Y-212904761D02*
X114183390Y-212904761D01*
X114183390Y-212904761D02*
X114278628Y-212857142D01*
X114278628Y-212857142D02*
X114326247Y-212809523D01*
X114326247Y-212809523D02*
X114373866Y-212714285D01*
X114373866Y-212714285D02*
X114373866Y-212523809D01*
X114373866Y-212523809D02*
X114326247Y-212428571D01*
X114326247Y-212428571D02*
X114278628Y-212380952D01*
X114278628Y-212380952D02*
X114183390Y-212333333D01*
X102666666Y-219254819D02*
X102666666Y-219969104D01*
X102666666Y-219969104D02*
X102619047Y-220111961D01*
X102619047Y-220111961D02*
X102523809Y-220207200D01*
X102523809Y-220207200D02*
X102380952Y-220254819D01*
X102380952Y-220254819D02*
X102285714Y-220254819D01*
X103142857Y-220254819D02*
X103142857Y-219254819D01*
X103142857Y-219254819D02*
X103523809Y-219254819D01*
X103523809Y-219254819D02*
X103619047Y-219302438D01*
X103619047Y-219302438D02*
X103666666Y-219350057D01*
X103666666Y-219350057D02*
X103714285Y-219445295D01*
X103714285Y-219445295D02*
X103714285Y-219588152D01*
X103714285Y-219588152D02*
X103666666Y-219683390D01*
X103666666Y-219683390D02*
X103619047Y-219731009D01*
X103619047Y-219731009D02*
X103523809Y-219778628D01*
X103523809Y-219778628D02*
X103142857Y-219778628D01*
X104666666Y-220254819D02*
X104095238Y-220254819D01*
X104380952Y-220254819D02*
X104380952Y-219254819D01*
X104380952Y-219254819D02*
X104285714Y-219397676D01*
X104285714Y-219397676D02*
X104190476Y-219492914D01*
X104190476Y-219492914D02*
X104095238Y-219540533D01*
%TO.C,J2*%
D11*
X103500000Y-102250000D02*
X112500000Y-102250000D01*
X112500000Y-114080000D01*
X103500000Y-114080000D01*
X103500000Y-102250000D01*
%TO.C,J3*%
X103500000Y-117250000D02*
X112500000Y-117250000D01*
X112500000Y-129080000D01*
X103500000Y-129080000D01*
X103500000Y-117250000D01*
%TO.C,J4*%
X103500000Y-132250000D02*
X112500000Y-132250000D01*
X112500000Y-144080000D01*
X103500000Y-144080000D01*
X103500000Y-132250000D01*
%TO.C,J5*%
X103500000Y-147250000D02*
X112500000Y-147250000D01*
X112500000Y-159080000D01*
X103500000Y-159080000D01*
X103500000Y-147250000D01*
%TO.C,J6*%
X103500000Y-162250000D02*
X112500000Y-162250000D01*
X112500000Y-174080000D01*
X103500000Y-174080000D01*
X103500000Y-162250000D01*
%TO.C,J7*%
X103500000Y-177250000D02*
X112500000Y-177250000D01*
X112500000Y-189080000D01*
X103500000Y-189080000D01*
X103500000Y-177250000D01*
%TO.C,J8*%
X103500000Y-192250000D02*
X112500000Y-192250000D01*
X112500000Y-204080000D01*
X103500000Y-204080000D01*
X103500000Y-192250000D01*
%TO.C,J9*%
X103500000Y-207250000D02*
X112500000Y-207250000D01*
X112500000Y-219080000D01*
X103500000Y-219080000D01*
X103500000Y-207250000D01*
%TD*%
M02*
