%TF.GenerationSoftware,KiCad,Pcbnew,10.0.3*%
%TF.CreationDate,2026-07-11T03:56:28+02:00*%
%TF.ProjectId,musicbrain-jack8,6d757369-6362-4726-9169-6e2d6a61636b,1.1*%
%TF.SameCoordinates,Original*%
%TF.FileFunction,Legend,Top*%
%TF.FilePolarity,Positive*%
%FSLAX46Y46*%
G04 Gerber Fmt 4.6, Leading zero omitted, Abs format (unit mm)*
G04 Created by KiCad (PCBNEW 10.0.3) date 2026-07-11 03:56:28*
%MOMM*%
%LPD*%
G01*
G04 APERTURE LIST*
%ADD10C,0.150000*%
%ADD11C,0.120000*%
G04 APERTURE END LIST*
D10*
X101754819Y-234904761D02*
X101088152Y-234904761D01*
X101183390Y-234904761D02*
X101135771Y-234857142D01*
X101135771Y-234857142D02*
X101088152Y-234761904D01*
X101088152Y-234761904D02*
X101088152Y-234619047D01*
X101088152Y-234619047D02*
X101135771Y-234523809D01*
X101135771Y-234523809D02*
X101231009Y-234476190D01*
X101231009Y-234476190D02*
X101754819Y-234476190D01*
X101231009Y-234476190D02*
X101135771Y-234428571D01*
X101135771Y-234428571D02*
X101088152Y-234333333D01*
X101088152Y-234333333D02*
X101088152Y-234190476D01*
X101088152Y-234190476D02*
X101135771Y-234095237D01*
X101135771Y-234095237D02*
X101231009Y-234047618D01*
X101231009Y-234047618D02*
X101754819Y-234047618D01*
X101088152Y-233142857D02*
X101754819Y-233142857D01*
X101088152Y-233571428D02*
X101611961Y-233571428D01*
X101611961Y-233571428D02*
X101707200Y-233523809D01*
X101707200Y-233523809D02*
X101754819Y-233428571D01*
X101754819Y-233428571D02*
X101754819Y-233285714D01*
X101754819Y-233285714D02*
X101707200Y-233190476D01*
X101707200Y-233190476D02*
X101659580Y-233142857D01*
X101707200Y-232714285D02*
X101754819Y-232619047D01*
X101754819Y-232619047D02*
X101754819Y-232428571D01*
X101754819Y-232428571D02*
X101707200Y-232333333D01*
X101707200Y-232333333D02*
X101611961Y-232285714D01*
X101611961Y-232285714D02*
X101564342Y-232285714D01*
X101564342Y-232285714D02*
X101469104Y-232333333D01*
X101469104Y-232333333D02*
X101421485Y-232428571D01*
X101421485Y-232428571D02*
X101421485Y-232571428D01*
X101421485Y-232571428D02*
X101373866Y-232666666D01*
X101373866Y-232666666D02*
X101278628Y-232714285D01*
X101278628Y-232714285D02*
X101231009Y-232714285D01*
X101231009Y-232714285D02*
X101135771Y-232666666D01*
X101135771Y-232666666D02*
X101088152Y-232571428D01*
X101088152Y-232571428D02*
X101088152Y-232428571D01*
X101088152Y-232428571D02*
X101135771Y-232333333D01*
X101754819Y-231857142D02*
X101088152Y-231857142D01*
X100754819Y-231857142D02*
X100802438Y-231904761D01*
X100802438Y-231904761D02*
X100850057Y-231857142D01*
X100850057Y-231857142D02*
X100802438Y-231809523D01*
X100802438Y-231809523D02*
X100754819Y-231857142D01*
X100754819Y-231857142D02*
X100850057Y-231857142D01*
X101707200Y-230952381D02*
X101754819Y-231047619D01*
X101754819Y-231047619D02*
X101754819Y-231238095D01*
X101754819Y-231238095D02*
X101707200Y-231333333D01*
X101707200Y-231333333D02*
X101659580Y-231380952D01*
X101659580Y-231380952D02*
X101564342Y-231428571D01*
X101564342Y-231428571D02*
X101278628Y-231428571D01*
X101278628Y-231428571D02*
X101183390Y-231380952D01*
X101183390Y-231380952D02*
X101135771Y-231333333D01*
X101135771Y-231333333D02*
X101088152Y-231238095D01*
X101088152Y-231238095D02*
X101088152Y-231047619D01*
X101088152Y-231047619D02*
X101135771Y-230952381D01*
X101754819Y-230523809D02*
X100754819Y-230523809D01*
X101135771Y-230523809D02*
X101088152Y-230428571D01*
X101088152Y-230428571D02*
X101088152Y-230238095D01*
X101088152Y-230238095D02*
X101135771Y-230142857D01*
X101135771Y-230142857D02*
X101183390Y-230095238D01*
X101183390Y-230095238D02*
X101278628Y-230047619D01*
X101278628Y-230047619D02*
X101564342Y-230047619D01*
X101564342Y-230047619D02*
X101659580Y-230095238D01*
X101659580Y-230095238D02*
X101707200Y-230142857D01*
X101707200Y-230142857D02*
X101754819Y-230238095D01*
X101754819Y-230238095D02*
X101754819Y-230428571D01*
X101754819Y-230428571D02*
X101707200Y-230523809D01*
X101754819Y-229619047D02*
X101088152Y-229619047D01*
X101278628Y-229619047D02*
X101183390Y-229571428D01*
X101183390Y-229571428D02*
X101135771Y-229523809D01*
X101135771Y-229523809D02*
X101088152Y-229428571D01*
X101088152Y-229428571D02*
X101088152Y-229333333D01*
X101754819Y-228571428D02*
X101231009Y-228571428D01*
X101231009Y-228571428D02*
X101135771Y-228619047D01*
X101135771Y-228619047D02*
X101088152Y-228714285D01*
X101088152Y-228714285D02*
X101088152Y-228904761D01*
X101088152Y-228904761D02*
X101135771Y-228999999D01*
X101707200Y-228571428D02*
X101754819Y-228666666D01*
X101754819Y-228666666D02*
X101754819Y-228904761D01*
X101754819Y-228904761D02*
X101707200Y-228999999D01*
X101707200Y-228999999D02*
X101611961Y-229047618D01*
X101611961Y-229047618D02*
X101516723Y-229047618D01*
X101516723Y-229047618D02*
X101421485Y-228999999D01*
X101421485Y-228999999D02*
X101373866Y-228904761D01*
X101373866Y-228904761D02*
X101373866Y-228666666D01*
X101373866Y-228666666D02*
X101326247Y-228571428D01*
X101754819Y-228095237D02*
X101088152Y-228095237D01*
X100754819Y-228095237D02*
X100802438Y-228142856D01*
X100802438Y-228142856D02*
X100850057Y-228095237D01*
X100850057Y-228095237D02*
X100802438Y-228047618D01*
X100802438Y-228047618D02*
X100754819Y-228095237D01*
X100754819Y-228095237D02*
X100850057Y-228095237D01*
X101088152Y-227619047D02*
X101754819Y-227619047D01*
X101183390Y-227619047D02*
X101135771Y-227571428D01*
X101135771Y-227571428D02*
X101088152Y-227476190D01*
X101088152Y-227476190D02*
X101088152Y-227333333D01*
X101088152Y-227333333D02*
X101135771Y-227238095D01*
X101135771Y-227238095D02*
X101231009Y-227190476D01*
X101231009Y-227190476D02*
X101754819Y-227190476D01*
X101659580Y-226714285D02*
X101707200Y-226666666D01*
X101707200Y-226666666D02*
X101754819Y-226714285D01*
X101754819Y-226714285D02*
X101707200Y-226761904D01*
X101707200Y-226761904D02*
X101659580Y-226714285D01*
X101659580Y-226714285D02*
X101754819Y-226714285D01*
X101088152Y-226238095D02*
X101754819Y-226238095D01*
X101183390Y-226238095D02*
X101135771Y-226190476D01*
X101135771Y-226190476D02*
X101088152Y-226095238D01*
X101088152Y-226095238D02*
X101088152Y-225952381D01*
X101088152Y-225952381D02*
X101135771Y-225857143D01*
X101135771Y-225857143D02*
X101231009Y-225809524D01*
X101231009Y-225809524D02*
X101754819Y-225809524D01*
X101754819Y-225190476D02*
X101707200Y-225285714D01*
X101707200Y-225285714D02*
X101611961Y-225333333D01*
X101611961Y-225333333D02*
X100754819Y-225333333D01*
X100707200Y-224095238D02*
X101992914Y-224952380D01*
X101754819Y-223761904D02*
X100754819Y-223761904D01*
X101754819Y-223333333D02*
X101231009Y-223333333D01*
X101231009Y-223333333D02*
X101135771Y-223380952D01*
X101135771Y-223380952D02*
X101088152Y-223476190D01*
X101088152Y-223476190D02*
X101088152Y-223619047D01*
X101088152Y-223619047D02*
X101135771Y-223714285D01*
X101135771Y-223714285D02*
X101183390Y-223761904D01*
X101088152Y-222952380D02*
X101754819Y-222761904D01*
X101754819Y-222761904D02*
X101278628Y-222571428D01*
X101278628Y-222571428D02*
X101754819Y-222380952D01*
X101754819Y-222380952D02*
X101088152Y-222190476D01*
X100707200Y-221095238D02*
X101992914Y-221952380D01*
X101088152Y-220761904D02*
X101945295Y-220761904D01*
X101945295Y-220761904D02*
X102040533Y-220809523D01*
X102040533Y-220809523D02*
X102088152Y-220904761D01*
X102088152Y-220904761D02*
X102088152Y-220952380D01*
X100754819Y-220761904D02*
X100802438Y-220809523D01*
X100802438Y-220809523D02*
X100850057Y-220761904D01*
X100850057Y-220761904D02*
X100802438Y-220714285D01*
X100802438Y-220714285D02*
X100754819Y-220761904D01*
X100754819Y-220761904D02*
X100850057Y-220761904D01*
X101754819Y-219857143D02*
X101231009Y-219857143D01*
X101231009Y-219857143D02*
X101135771Y-219904762D01*
X101135771Y-219904762D02*
X101088152Y-220000000D01*
X101088152Y-220000000D02*
X101088152Y-220190476D01*
X101088152Y-220190476D02*
X101135771Y-220285714D01*
X101707200Y-219857143D02*
X101754819Y-219952381D01*
X101754819Y-219952381D02*
X101754819Y-220190476D01*
X101754819Y-220190476D02*
X101707200Y-220285714D01*
X101707200Y-220285714D02*
X101611961Y-220333333D01*
X101611961Y-220333333D02*
X101516723Y-220333333D01*
X101516723Y-220333333D02*
X101421485Y-220285714D01*
X101421485Y-220285714D02*
X101373866Y-220190476D01*
X101373866Y-220190476D02*
X101373866Y-219952381D01*
X101373866Y-219952381D02*
X101326247Y-219857143D01*
X101707200Y-218952381D02*
X101754819Y-219047619D01*
X101754819Y-219047619D02*
X101754819Y-219238095D01*
X101754819Y-219238095D02*
X101707200Y-219333333D01*
X101707200Y-219333333D02*
X101659580Y-219380952D01*
X101659580Y-219380952D02*
X101564342Y-219428571D01*
X101564342Y-219428571D02*
X101278628Y-219428571D01*
X101278628Y-219428571D02*
X101183390Y-219380952D01*
X101183390Y-219380952D02*
X101135771Y-219333333D01*
X101135771Y-219333333D02*
X101088152Y-219238095D01*
X101088152Y-219238095D02*
X101088152Y-219047619D01*
X101088152Y-219047619D02*
X101135771Y-218952381D01*
X101754819Y-218523809D02*
X100754819Y-218523809D01*
X101373866Y-218428571D02*
X101754819Y-218142857D01*
X101088152Y-218142857D02*
X101469104Y-218523809D01*
X101183390Y-217571428D02*
X101135771Y-217666666D01*
X101135771Y-217666666D02*
X101088152Y-217714285D01*
X101088152Y-217714285D02*
X100992914Y-217761904D01*
X100992914Y-217761904D02*
X100945295Y-217761904D01*
X100945295Y-217761904D02*
X100850057Y-217714285D01*
X100850057Y-217714285D02*
X100802438Y-217666666D01*
X100802438Y-217666666D02*
X100754819Y-217571428D01*
X100754819Y-217571428D02*
X100754819Y-217380952D01*
X100754819Y-217380952D02*
X100802438Y-217285714D01*
X100802438Y-217285714D02*
X100850057Y-217238095D01*
X100850057Y-217238095D02*
X100945295Y-217190476D01*
X100945295Y-217190476D02*
X100992914Y-217190476D01*
X100992914Y-217190476D02*
X101088152Y-217238095D01*
X101088152Y-217238095D02*
X101135771Y-217285714D01*
X101135771Y-217285714D02*
X101183390Y-217380952D01*
X101183390Y-217380952D02*
X101183390Y-217571428D01*
X101183390Y-217571428D02*
X101231009Y-217666666D01*
X101231009Y-217666666D02*
X101278628Y-217714285D01*
X101278628Y-217714285D02*
X101373866Y-217761904D01*
X101373866Y-217761904D02*
X101564342Y-217761904D01*
X101564342Y-217761904D02*
X101659580Y-217714285D01*
X101659580Y-217714285D02*
X101707200Y-217666666D01*
X101707200Y-217666666D02*
X101754819Y-217571428D01*
X101754819Y-217571428D02*
X101754819Y-217380952D01*
X101754819Y-217380952D02*
X101707200Y-217285714D01*
X101707200Y-217285714D02*
X101659580Y-217238095D01*
X101659580Y-217238095D02*
X101564342Y-217190476D01*
X101564342Y-217190476D02*
X101373866Y-217190476D01*
X101373866Y-217190476D02*
X101278628Y-217238095D01*
X101278628Y-217238095D02*
X101231009Y-217285714D01*
X101231009Y-217285714D02*
X101183390Y-217380952D01*
X101754819Y-215999999D02*
X101088152Y-215999999D01*
X101278628Y-215999999D02*
X101183390Y-215952380D01*
X101183390Y-215952380D02*
X101135771Y-215904761D01*
X101135771Y-215904761D02*
X101088152Y-215809523D01*
X101088152Y-215809523D02*
X101088152Y-215714285D01*
X101707200Y-214999999D02*
X101754819Y-215095237D01*
X101754819Y-215095237D02*
X101754819Y-215285713D01*
X101754819Y-215285713D02*
X101707200Y-215380951D01*
X101707200Y-215380951D02*
X101611961Y-215428570D01*
X101611961Y-215428570D02*
X101231009Y-215428570D01*
X101231009Y-215428570D02*
X101135771Y-215380951D01*
X101135771Y-215380951D02*
X101088152Y-215285713D01*
X101088152Y-215285713D02*
X101088152Y-215095237D01*
X101088152Y-215095237D02*
X101135771Y-214999999D01*
X101135771Y-214999999D02*
X101231009Y-214952380D01*
X101231009Y-214952380D02*
X101326247Y-214952380D01*
X101326247Y-214952380D02*
X101421485Y-215428570D01*
X101088152Y-214619046D02*
X101754819Y-214380951D01*
X101754819Y-214380951D02*
X101088152Y-214142856D01*
X101754819Y-212476189D02*
X101754819Y-213047617D01*
X101754819Y-212761903D02*
X100754819Y-212761903D01*
X100754819Y-212761903D02*
X100897676Y-212857141D01*
X100897676Y-212857141D02*
X100992914Y-212952379D01*
X100992914Y-212952379D02*
X101040533Y-213047617D01*
X101659580Y-212047617D02*
X101707200Y-211999998D01*
X101707200Y-211999998D02*
X101754819Y-212047617D01*
X101754819Y-212047617D02*
X101707200Y-212095236D01*
X101707200Y-212095236D02*
X101659580Y-212047617D01*
X101659580Y-212047617D02*
X101754819Y-212047617D01*
X101754819Y-211047618D02*
X101754819Y-211619046D01*
X101754819Y-211333332D02*
X100754819Y-211333332D01*
X100754819Y-211333332D02*
X100897676Y-211428570D01*
X100897676Y-211428570D02*
X100992914Y-211523808D01*
X100992914Y-211523808D02*
X101040533Y-211619046D01*
X113754819Y-108333333D02*
X114469104Y-108333333D01*
X114469104Y-108333333D02*
X114611961Y-108380952D01*
X114611961Y-108380952D02*
X114707200Y-108476190D01*
X114707200Y-108476190D02*
X114754819Y-108619047D01*
X114754819Y-108619047D02*
X114754819Y-108714285D01*
X113850057Y-107904761D02*
X113802438Y-107857142D01*
X113802438Y-107857142D02*
X113754819Y-107761904D01*
X113754819Y-107761904D02*
X113754819Y-107523809D01*
X113754819Y-107523809D02*
X113802438Y-107428571D01*
X113802438Y-107428571D02*
X113850057Y-107380952D01*
X113850057Y-107380952D02*
X113945295Y-107333333D01*
X113945295Y-107333333D02*
X114040533Y-107333333D01*
X114040533Y-107333333D02*
X114183390Y-107380952D01*
X114183390Y-107380952D02*
X114754819Y-107952380D01*
X114754819Y-107952380D02*
X114754819Y-107333333D01*
X113754819Y-123333333D02*
X114469104Y-123333333D01*
X114469104Y-123333333D02*
X114611961Y-123380952D01*
X114611961Y-123380952D02*
X114707200Y-123476190D01*
X114707200Y-123476190D02*
X114754819Y-123619047D01*
X114754819Y-123619047D02*
X114754819Y-123714285D01*
X113754819Y-122952380D02*
X113754819Y-122333333D01*
X113754819Y-122333333D02*
X114135771Y-122666666D01*
X114135771Y-122666666D02*
X114135771Y-122523809D01*
X114135771Y-122523809D02*
X114183390Y-122428571D01*
X114183390Y-122428571D02*
X114231009Y-122380952D01*
X114231009Y-122380952D02*
X114326247Y-122333333D01*
X114326247Y-122333333D02*
X114564342Y-122333333D01*
X114564342Y-122333333D02*
X114659580Y-122380952D01*
X114659580Y-122380952D02*
X114707200Y-122428571D01*
X114707200Y-122428571D02*
X114754819Y-122523809D01*
X114754819Y-122523809D02*
X114754819Y-122809523D01*
X114754819Y-122809523D02*
X114707200Y-122904761D01*
X114707200Y-122904761D02*
X114659580Y-122952380D01*
X113754819Y-138333333D02*
X114469104Y-138333333D01*
X114469104Y-138333333D02*
X114611961Y-138380952D01*
X114611961Y-138380952D02*
X114707200Y-138476190D01*
X114707200Y-138476190D02*
X114754819Y-138619047D01*
X114754819Y-138619047D02*
X114754819Y-138714285D01*
X114088152Y-137428571D02*
X114754819Y-137428571D01*
X113707200Y-137666666D02*
X114421485Y-137904761D01*
X114421485Y-137904761D02*
X114421485Y-137285714D01*
X113754819Y-153333333D02*
X114469104Y-153333333D01*
X114469104Y-153333333D02*
X114611961Y-153380952D01*
X114611961Y-153380952D02*
X114707200Y-153476190D01*
X114707200Y-153476190D02*
X114754819Y-153619047D01*
X114754819Y-153619047D02*
X114754819Y-153714285D01*
X113754819Y-152380952D02*
X113754819Y-152857142D01*
X113754819Y-152857142D02*
X114231009Y-152904761D01*
X114231009Y-152904761D02*
X114183390Y-152857142D01*
X114183390Y-152857142D02*
X114135771Y-152761904D01*
X114135771Y-152761904D02*
X114135771Y-152523809D01*
X114135771Y-152523809D02*
X114183390Y-152428571D01*
X114183390Y-152428571D02*
X114231009Y-152380952D01*
X114231009Y-152380952D02*
X114326247Y-152333333D01*
X114326247Y-152333333D02*
X114564342Y-152333333D01*
X114564342Y-152333333D02*
X114659580Y-152380952D01*
X114659580Y-152380952D02*
X114707200Y-152428571D01*
X114707200Y-152428571D02*
X114754819Y-152523809D01*
X114754819Y-152523809D02*
X114754819Y-152761904D01*
X114754819Y-152761904D02*
X114707200Y-152857142D01*
X114707200Y-152857142D02*
X114659580Y-152904761D01*
X113754819Y-168333333D02*
X114469104Y-168333333D01*
X114469104Y-168333333D02*
X114611961Y-168380952D01*
X114611961Y-168380952D02*
X114707200Y-168476190D01*
X114707200Y-168476190D02*
X114754819Y-168619047D01*
X114754819Y-168619047D02*
X114754819Y-168714285D01*
X113754819Y-167428571D02*
X113754819Y-167619047D01*
X113754819Y-167619047D02*
X113802438Y-167714285D01*
X113802438Y-167714285D02*
X113850057Y-167761904D01*
X113850057Y-167761904D02*
X113992914Y-167857142D01*
X113992914Y-167857142D02*
X114183390Y-167904761D01*
X114183390Y-167904761D02*
X114564342Y-167904761D01*
X114564342Y-167904761D02*
X114659580Y-167857142D01*
X114659580Y-167857142D02*
X114707200Y-167809523D01*
X114707200Y-167809523D02*
X114754819Y-167714285D01*
X114754819Y-167714285D02*
X114754819Y-167523809D01*
X114754819Y-167523809D02*
X114707200Y-167428571D01*
X114707200Y-167428571D02*
X114659580Y-167380952D01*
X114659580Y-167380952D02*
X114564342Y-167333333D01*
X114564342Y-167333333D02*
X114326247Y-167333333D01*
X114326247Y-167333333D02*
X114231009Y-167380952D01*
X114231009Y-167380952D02*
X114183390Y-167428571D01*
X114183390Y-167428571D02*
X114135771Y-167523809D01*
X114135771Y-167523809D02*
X114135771Y-167714285D01*
X114135771Y-167714285D02*
X114183390Y-167809523D01*
X114183390Y-167809523D02*
X114231009Y-167857142D01*
X114231009Y-167857142D02*
X114326247Y-167904761D01*
X113754819Y-183333333D02*
X114469104Y-183333333D01*
X114469104Y-183333333D02*
X114611961Y-183380952D01*
X114611961Y-183380952D02*
X114707200Y-183476190D01*
X114707200Y-183476190D02*
X114754819Y-183619047D01*
X114754819Y-183619047D02*
X114754819Y-183714285D01*
X113754819Y-182952380D02*
X113754819Y-182285714D01*
X113754819Y-182285714D02*
X114754819Y-182714285D01*
X113754819Y-198333333D02*
X114469104Y-198333333D01*
X114469104Y-198333333D02*
X114611961Y-198380952D01*
X114611961Y-198380952D02*
X114707200Y-198476190D01*
X114707200Y-198476190D02*
X114754819Y-198619047D01*
X114754819Y-198619047D02*
X114754819Y-198714285D01*
X114183390Y-197714285D02*
X114135771Y-197809523D01*
X114135771Y-197809523D02*
X114088152Y-197857142D01*
X114088152Y-197857142D02*
X113992914Y-197904761D01*
X113992914Y-197904761D02*
X113945295Y-197904761D01*
X113945295Y-197904761D02*
X113850057Y-197857142D01*
X113850057Y-197857142D02*
X113802438Y-197809523D01*
X113802438Y-197809523D02*
X113754819Y-197714285D01*
X113754819Y-197714285D02*
X113754819Y-197523809D01*
X113754819Y-197523809D02*
X113802438Y-197428571D01*
X113802438Y-197428571D02*
X113850057Y-197380952D01*
X113850057Y-197380952D02*
X113945295Y-197333333D01*
X113945295Y-197333333D02*
X113992914Y-197333333D01*
X113992914Y-197333333D02*
X114088152Y-197380952D01*
X114088152Y-197380952D02*
X114135771Y-197428571D01*
X114135771Y-197428571D02*
X114183390Y-197523809D01*
X114183390Y-197523809D02*
X114183390Y-197714285D01*
X114183390Y-197714285D02*
X114231009Y-197809523D01*
X114231009Y-197809523D02*
X114278628Y-197857142D01*
X114278628Y-197857142D02*
X114373866Y-197904761D01*
X114373866Y-197904761D02*
X114564342Y-197904761D01*
X114564342Y-197904761D02*
X114659580Y-197857142D01*
X114659580Y-197857142D02*
X114707200Y-197809523D01*
X114707200Y-197809523D02*
X114754819Y-197714285D01*
X114754819Y-197714285D02*
X114754819Y-197523809D01*
X114754819Y-197523809D02*
X114707200Y-197428571D01*
X114707200Y-197428571D02*
X114659580Y-197380952D01*
X114659580Y-197380952D02*
X114564342Y-197333333D01*
X114564342Y-197333333D02*
X114373866Y-197333333D01*
X114373866Y-197333333D02*
X114278628Y-197380952D01*
X114278628Y-197380952D02*
X114231009Y-197428571D01*
X114231009Y-197428571D02*
X114183390Y-197523809D01*
X113754819Y-213333333D02*
X114469104Y-213333333D01*
X114469104Y-213333333D02*
X114611961Y-213380952D01*
X114611961Y-213380952D02*
X114707200Y-213476190D01*
X114707200Y-213476190D02*
X114754819Y-213619047D01*
X114754819Y-213619047D02*
X114754819Y-213714285D01*
X114754819Y-212809523D02*
X114754819Y-212619047D01*
X114754819Y-212619047D02*
X114707200Y-212523809D01*
X114707200Y-212523809D02*
X114659580Y-212476190D01*
X114659580Y-212476190D02*
X114516723Y-212380952D01*
X114516723Y-212380952D02*
X114326247Y-212333333D01*
X114326247Y-212333333D02*
X113945295Y-212333333D01*
X113945295Y-212333333D02*
X113850057Y-212380952D01*
X113850057Y-212380952D02*
X113802438Y-212428571D01*
X113802438Y-212428571D02*
X113754819Y-212523809D01*
X113754819Y-212523809D02*
X113754819Y-212714285D01*
X113754819Y-212714285D02*
X113802438Y-212809523D01*
X113802438Y-212809523D02*
X113850057Y-212857142D01*
X113850057Y-212857142D02*
X113945295Y-212904761D01*
X113945295Y-212904761D02*
X114183390Y-212904761D01*
X114183390Y-212904761D02*
X114278628Y-212857142D01*
X114278628Y-212857142D02*
X114326247Y-212809523D01*
X114326247Y-212809523D02*
X114373866Y-212714285D01*
X114373866Y-212714285D02*
X114373866Y-212523809D01*
X114373866Y-212523809D02*
X114326247Y-212428571D01*
X114326247Y-212428571D02*
X114278628Y-212380952D01*
X114278628Y-212380952D02*
X114183390Y-212333333D01*
X102666666Y-219254819D02*
X102666666Y-219969104D01*
X102666666Y-219969104D02*
X102619047Y-220111961D01*
X102619047Y-220111961D02*
X102523809Y-220207200D01*
X102523809Y-220207200D02*
X102380952Y-220254819D01*
X102380952Y-220254819D02*
X102285714Y-220254819D01*
X103142857Y-220254819D02*
X103142857Y-219254819D01*
X103142857Y-219254819D02*
X103523809Y-219254819D01*
X103523809Y-219254819D02*
X103619047Y-219302438D01*
X103619047Y-219302438D02*
X103666666Y-219350057D01*
X103666666Y-219350057D02*
X103714285Y-219445295D01*
X103714285Y-219445295D02*
X103714285Y-219588152D01*
X103714285Y-219588152D02*
X103666666Y-219683390D01*
X103666666Y-219683390D02*
X103619047Y-219731009D01*
X103619047Y-219731009D02*
X103523809Y-219778628D01*
X103523809Y-219778628D02*
X103142857Y-219778628D01*
X104666666Y-220254819D02*
X104095238Y-220254819D01*
X104380952Y-220254819D02*
X104380952Y-219254819D01*
X104380952Y-219254819D02*
X104285714Y-219397676D01*
X104285714Y-219397676D02*
X104190476Y-219492914D01*
X104190476Y-219492914D02*
X104095238Y-219540533D01*
%TO.C,J2*%
D11*
X103500000Y-102250000D02*
X112500000Y-102250000D01*
X112500000Y-114080000D01*
X103500000Y-114080000D01*
X103500000Y-102250000D01*
%TO.C,J3*%
X103500000Y-117250000D02*
X112500000Y-117250000D01*
X112500000Y-129080000D01*
X103500000Y-129080000D01*
X103500000Y-117250000D01*
%TO.C,J4*%
X103500000Y-132250000D02*
X112500000Y-132250000D01*
X112500000Y-144080000D01*
X103500000Y-144080000D01*
X103500000Y-132250000D01*
%TO.C,J5*%
X103500000Y-147250000D02*
X112500000Y-147250000D01*
X112500000Y-159080000D01*
X103500000Y-159080000D01*
X103500000Y-147250000D01*
%TO.C,J6*%
X103500000Y-162250000D02*
X112500000Y-162250000D01*
X112500000Y-174080000D01*
X103500000Y-174080000D01*
X103500000Y-162250000D01*
%TO.C,J7*%
X103500000Y-177250000D02*
X112500000Y-177250000D01*
X112500000Y-189080000D01*
X103500000Y-189080000D01*
X103500000Y-177250000D01*
%TO.C,J8*%
X103500000Y-192250000D02*
X112500000Y-192250000D01*
X112500000Y-204080000D01*
X103500000Y-204080000D01*
X103500000Y-192250000D01*
%TO.C,J9*%
X103500000Y-207250000D02*
X112500000Y-207250000D01*
X112500000Y-219080000D01*
X103500000Y-219080000D01*
X103500000Y-207250000D01*
%TD*%
M02*
