%TF.GenerationSoftware,KiCad,Pcbnew,10.0.3*%
%TF.CreationDate,2026-07-11T14:04:23+02:00*%
%TF.ProjectId,musicbrain-jack4,6d757369-6362-4726-9169-6e2d6a61636b,1.2*%
%TF.SameCoordinates,Original*%
%TF.FileFunction,Drillmap*%
%TF.FilePolarity,Positive*%
%FSLAX45Y45*%
G04 Gerber Fmt 4.5, Leading zero omitted, Abs format (unit mm)*
G04 Created by KiCad (PCBNEW 10.0.3) date 2026-07-11 14:04:23*
%MOMM*%
%LPD*%
G01*
G04 APERTURE LIST*
%ADD10C,0.100000*%
%ADD11C,0.200000*%
G04 APERTURE END LIST*
D10*
X10000000Y-10000000D02*
X12000000Y-10000000D01*
X12000000Y-16500000D01*
X10000000Y-16500000D01*
X10000000Y-10000000D01*
D11*
D10*
X10185000Y-10185000D02*
X10215000Y-10215000D01*
X10215000Y-10185000D02*
X10185000Y-10215000D01*
X10185000Y-16305000D02*
X10215000Y-16335000D01*
X10215000Y-16305000D02*
X10185000Y-16335000D01*
X11785000Y-10185000D02*
X11815000Y-10215000D01*
X11815000Y-10185000D02*
X11785000Y-10215000D01*
X11785000Y-13235000D02*
X11815000Y-13265000D01*
X11815000Y-13235000D02*
X11785000Y-13265000D01*
X11785000Y-16285000D02*
X11815000Y-16315000D01*
X11815000Y-16285000D02*
X11785000Y-16315000D01*
X10830000Y-10308000D02*
G75*
G02*
X10770000Y-10308000I-30000J0D01*
G01*
X10770000Y-10308000D02*
G75*
G02*
X10830000Y-10308000I30000J0D01*
G01*
X10750000Y-10338000D02*
X10850000Y-10338000D01*
X10850000Y-10278000D02*
G75*
G02*
X10850000Y-10338000I0J-30000D01*
G01*
X10850000Y-10278000D02*
X10750000Y-10278000D01*
X10750000Y-10278000D02*
G75*
G03*
X10750000Y-10338000I0J-30000D01*
G01*
X10830000Y-11138000D02*
G75*
G02*
X10770000Y-11138000I-30000J0D01*
G01*
X10770000Y-11138000D02*
G75*
G02*
X10830000Y-11138000I30000J0D01*
G01*
X10750000Y-11168000D02*
X10850000Y-11168000D01*
X10850000Y-11108000D02*
G75*
G02*
X10850000Y-11168000I0J-30000D01*
G01*
X10850000Y-11108000D02*
X10750000Y-11108000D01*
X10750000Y-11108000D02*
G75*
G03*
X10750000Y-11168000I0J-30000D01*
G01*
X10830000Y-11448000D02*
G75*
G02*
X10770000Y-11448000I-30000J0D01*
G01*
X10770000Y-11448000D02*
G75*
G02*
X10830000Y-11448000I30000J0D01*
G01*
X10750000Y-11478000D02*
X10850000Y-11478000D01*
X10850000Y-11418000D02*
G75*
G02*
X10850000Y-11478000I0J-30000D01*
G01*
X10850000Y-11418000D02*
X10750000Y-11418000D01*
X10750000Y-11418000D02*
G75*
G03*
X10750000Y-11478000I0J-30000D01*
G01*
X10830000Y-11808000D02*
G75*
G02*
X10770000Y-11808000I-30000J0D01*
G01*
X10770000Y-11808000D02*
G75*
G02*
X10830000Y-11808000I30000J0D01*
G01*
X10750000Y-11838000D02*
X10850000Y-11838000D01*
X10850000Y-11778000D02*
G75*
G02*
X10850000Y-11838000I0J-30000D01*
G01*
X10850000Y-11778000D02*
X10750000Y-11778000D01*
X10750000Y-11778000D02*
G75*
G03*
X10750000Y-11838000I0J-30000D01*
G01*
X10830000Y-12638000D02*
G75*
G02*
X10770000Y-12638000I-30000J0D01*
G01*
X10770000Y-12638000D02*
G75*
G02*
X10830000Y-12638000I30000J0D01*
G01*
X10750000Y-12668000D02*
X10850000Y-12668000D01*
X10850000Y-12608000D02*
G75*
G02*
X10850000Y-12668000I0J-30000D01*
G01*
X10850000Y-12608000D02*
X10750000Y-12608000D01*
X10750000Y-12608000D02*
G75*
G03*
X10750000Y-12668000I0J-30000D01*
G01*
X10830000Y-12948000D02*
G75*
G02*
X10770000Y-12948000I-30000J0D01*
G01*
X10770000Y-12948000D02*
G75*
G02*
X10830000Y-12948000I30000J0D01*
G01*
X10750000Y-12978000D02*
X10850000Y-12978000D01*
X10850000Y-12918000D02*
G75*
G02*
X10850000Y-12978000I0J-30000D01*
G01*
X10850000Y-12918000D02*
X10750000Y-12918000D01*
X10750000Y-12918000D02*
G75*
G03*
X10750000Y-12978000I0J-30000D01*
G01*
X10830000Y-13308000D02*
G75*
G02*
X10770000Y-13308000I-30000J0D01*
G01*
X10770000Y-13308000D02*
G75*
G02*
X10830000Y-13308000I30000J0D01*
G01*
X10750000Y-13338000D02*
X10850000Y-13338000D01*
X10850000Y-13278000D02*
G75*
G02*
X10850000Y-13338000I0J-30000D01*
G01*
X10850000Y-13278000D02*
X10750000Y-13278000D01*
X10750000Y-13278000D02*
G75*
G03*
X10750000Y-13338000I0J-30000D01*
G01*
X10830000Y-14138000D02*
G75*
G02*
X10770000Y-14138000I-30000J0D01*
G01*
X10770000Y-14138000D02*
G75*
G02*
X10830000Y-14138000I30000J0D01*
G01*
X10750000Y-14168000D02*
X10850000Y-14168000D01*
X10850000Y-14108000D02*
G75*
G02*
X10850000Y-14168000I0J-30000D01*
G01*
X10850000Y-14108000D02*
X10750000Y-14108000D01*
X10750000Y-14108000D02*
G75*
G03*
X10750000Y-14168000I0J-30000D01*
G01*
X10830000Y-14448000D02*
G75*
G02*
X10770000Y-14448000I-30000J0D01*
G01*
X10770000Y-14448000D02*
G75*
G02*
X10830000Y-14448000I30000J0D01*
G01*
X10750000Y-14478000D02*
X10850000Y-14478000D01*
X10850000Y-14418000D02*
G75*
G02*
X10850000Y-14478000I0J-30000D01*
G01*
X10850000Y-14418000D02*
X10750000Y-14418000D01*
X10750000Y-14418000D02*
G75*
G03*
X10750000Y-14478000I0J-30000D01*
G01*
X10830000Y-14808000D02*
G75*
G02*
X10770000Y-14808000I-30000J0D01*
G01*
X10770000Y-14808000D02*
G75*
G02*
X10830000Y-14808000I30000J0D01*
G01*
X10750000Y-14838000D02*
X10850000Y-14838000D01*
X10850000Y-14778000D02*
G75*
G02*
X10850000Y-14838000I0J-30000D01*
G01*
X10850000Y-14778000D02*
X10750000Y-14778000D01*
X10750000Y-14778000D02*
G75*
G03*
X10750000Y-14838000I0J-30000D01*
G01*
X10830000Y-15638000D02*
G75*
G02*
X10770000Y-15638000I-30000J0D01*
G01*
X10770000Y-15638000D02*
G75*
G02*
X10830000Y-15638000I30000J0D01*
G01*
X10750000Y-15668000D02*
X10850000Y-15668000D01*
X10850000Y-15608000D02*
G75*
G02*
X10850000Y-15668000I0J-30000D01*
G01*
X10850000Y-15608000D02*
X10750000Y-15608000D01*
X10750000Y-15608000D02*
G75*
G03*
X10750000Y-15668000I0J-30000D01*
G01*
X10830000Y-15948000D02*
G75*
G02*
X10770000Y-15948000I-30000J0D01*
G01*
X10770000Y-15948000D02*
G75*
G02*
X10830000Y-15948000I30000J0D01*
G01*
X10750000Y-15978000D02*
X10850000Y-15978000D01*
X10850000Y-15918000D02*
G75*
G02*
X10850000Y-15978000I0J-30000D01*
G01*
X10850000Y-15918000D02*
X10750000Y-15918000D01*
X10750000Y-15918000D02*
G75*
G03*
X10750000Y-15978000I0J-30000D01*
G01*
X11650000Y-14307000D02*
X11650000Y-14407000D01*
X11600000Y-14357000D02*
X11700000Y-14357000D01*
X11650000Y-14561000D02*
X11650000Y-14661000D01*
X11600000Y-14611000D02*
X11700000Y-14611000D01*
X11650000Y-14815000D02*
X11650000Y-14915000D01*
X11600000Y-14865000D02*
X11700000Y-14865000D01*
X11650000Y-15069000D02*
X11650000Y-15169000D01*
X11600000Y-15119000D02*
X11700000Y-15119000D01*
X11650000Y-15323000D02*
X11650000Y-15423000D01*
X11600000Y-15373000D02*
X11700000Y-15373000D01*
X11650000Y-15577000D02*
X11650000Y-15677000D01*
X11600000Y-15627000D02*
X11700000Y-15627000D01*
D11*
X10255777Y-16816484D02*
X10255777Y-16616484D01*
X10255777Y-16616484D02*
X10303396Y-16616484D01*
X10303396Y-16616484D02*
X10331967Y-16626008D01*
X10331967Y-16626008D02*
X10351015Y-16645055D01*
X10351015Y-16645055D02*
X10360539Y-16664103D01*
X10360539Y-16664103D02*
X10370063Y-16702198D01*
X10370063Y-16702198D02*
X10370063Y-16730769D01*
X10370063Y-16730769D02*
X10360539Y-16768865D01*
X10360539Y-16768865D02*
X10351015Y-16787912D01*
X10351015Y-16787912D02*
X10331967Y-16806960D01*
X10331967Y-16806960D02*
X10303396Y-16816484D01*
X10303396Y-16816484D02*
X10255777Y-16816484D01*
X10455777Y-16816484D02*
X10455777Y-16683150D01*
X10455777Y-16721246D02*
X10465301Y-16702198D01*
X10465301Y-16702198D02*
X10474824Y-16692674D01*
X10474824Y-16692674D02*
X10493872Y-16683150D01*
X10493872Y-16683150D02*
X10512920Y-16683150D01*
X10579586Y-16816484D02*
X10579586Y-16683150D01*
X10579586Y-16616484D02*
X10570063Y-16626008D01*
X10570063Y-16626008D02*
X10579586Y-16635531D01*
X10579586Y-16635531D02*
X10589110Y-16626008D01*
X10589110Y-16626008D02*
X10579586Y-16616484D01*
X10579586Y-16616484D02*
X10579586Y-16635531D01*
X10703396Y-16816484D02*
X10684348Y-16806960D01*
X10684348Y-16806960D02*
X10674824Y-16787912D01*
X10674824Y-16787912D02*
X10674824Y-16616484D01*
X10808158Y-16816484D02*
X10789110Y-16806960D01*
X10789110Y-16806960D02*
X10779586Y-16787912D01*
X10779586Y-16787912D02*
X10779586Y-16616484D01*
X11036729Y-16816484D02*
X11036729Y-16616484D01*
X11036729Y-16616484D02*
X11103396Y-16759341D01*
X11103396Y-16759341D02*
X11170063Y-16616484D01*
X11170063Y-16616484D02*
X11170063Y-16816484D01*
X11351015Y-16816484D02*
X11351015Y-16711722D01*
X11351015Y-16711722D02*
X11341491Y-16692674D01*
X11341491Y-16692674D02*
X11322443Y-16683150D01*
X11322443Y-16683150D02*
X11284348Y-16683150D01*
X11284348Y-16683150D02*
X11265301Y-16692674D01*
X11351015Y-16806960D02*
X11331967Y-16816484D01*
X11331967Y-16816484D02*
X11284348Y-16816484D01*
X11284348Y-16816484D02*
X11265301Y-16806960D01*
X11265301Y-16806960D02*
X11255777Y-16787912D01*
X11255777Y-16787912D02*
X11255777Y-16768865D01*
X11255777Y-16768865D02*
X11265301Y-16749817D01*
X11265301Y-16749817D02*
X11284348Y-16740293D01*
X11284348Y-16740293D02*
X11331967Y-16740293D01*
X11331967Y-16740293D02*
X11351015Y-16730769D01*
X11446253Y-16683150D02*
X11446253Y-16883150D01*
X11446253Y-16692674D02*
X11465301Y-16683150D01*
X11465301Y-16683150D02*
X11503396Y-16683150D01*
X11503396Y-16683150D02*
X11522443Y-16692674D01*
X11522443Y-16692674D02*
X11531967Y-16702198D01*
X11531967Y-16702198D02*
X11541491Y-16721246D01*
X11541491Y-16721246D02*
X11541491Y-16778389D01*
X11541491Y-16778389D02*
X11531967Y-16797436D01*
X11531967Y-16797436D02*
X11522443Y-16806960D01*
X11522443Y-16806960D02*
X11503396Y-16816484D01*
X11503396Y-16816484D02*
X11465301Y-16816484D01*
X11465301Y-16816484D02*
X11446253Y-16806960D01*
X11627205Y-16797436D02*
X11636729Y-16806960D01*
X11636729Y-16806960D02*
X11627205Y-16816484D01*
X11627205Y-16816484D02*
X11617682Y-16806960D01*
X11617682Y-16806960D02*
X11627205Y-16797436D01*
X11627205Y-16797436D02*
X11627205Y-16816484D01*
X11627205Y-16692674D02*
X11636729Y-16702198D01*
X11636729Y-16702198D02*
X11627205Y-16711722D01*
X11627205Y-16711722D02*
X11617682Y-16702198D01*
X11617682Y-16702198D02*
X11627205Y-16692674D01*
X11627205Y-16692674D02*
X11627205Y-16711722D01*
D10*
X9965000Y-17130000D02*
X9995000Y-17160000D01*
X9995000Y-17130000D02*
X9965000Y-17160000D01*
D11*
X10293872Y-17036484D02*
X10312920Y-17036484D01*
X10312920Y-17036484D02*
X10331967Y-17046008D01*
X10331967Y-17046008D02*
X10341491Y-17055531D01*
X10341491Y-17055531D02*
X10351015Y-17074579D01*
X10351015Y-17074579D02*
X10360539Y-17112674D01*
X10360539Y-17112674D02*
X10360539Y-17160293D01*
X10360539Y-17160293D02*
X10351015Y-17198389D01*
X10351015Y-17198389D02*
X10341491Y-17217436D01*
X10341491Y-17217436D02*
X10331967Y-17226960D01*
X10331967Y-17226960D02*
X10312920Y-17236484D01*
X10312920Y-17236484D02*
X10293872Y-17236484D01*
X10293872Y-17236484D02*
X10274824Y-17226960D01*
X10274824Y-17226960D02*
X10265301Y-17217436D01*
X10265301Y-17217436D02*
X10255777Y-17198389D01*
X10255777Y-17198389D02*
X10246253Y-17160293D01*
X10246253Y-17160293D02*
X10246253Y-17112674D01*
X10246253Y-17112674D02*
X10255777Y-17074579D01*
X10255777Y-17074579D02*
X10265301Y-17055531D01*
X10265301Y-17055531D02*
X10274824Y-17046008D01*
X10274824Y-17046008D02*
X10293872Y-17036484D01*
X10455777Y-17226960D02*
X10455777Y-17236484D01*
X10455777Y-17236484D02*
X10446253Y-17255531D01*
X10446253Y-17255531D02*
X10436729Y-17265055D01*
X10522444Y-17036484D02*
X10646253Y-17036484D01*
X10646253Y-17036484D02*
X10579586Y-17112674D01*
X10579586Y-17112674D02*
X10608158Y-17112674D01*
X10608158Y-17112674D02*
X10627205Y-17122198D01*
X10627205Y-17122198D02*
X10636729Y-17131722D01*
X10636729Y-17131722D02*
X10646253Y-17150770D01*
X10646253Y-17150770D02*
X10646253Y-17198389D01*
X10646253Y-17198389D02*
X10636729Y-17217436D01*
X10636729Y-17217436D02*
X10627205Y-17226960D01*
X10627205Y-17226960D02*
X10608158Y-17236484D01*
X10608158Y-17236484D02*
X10551015Y-17236484D01*
X10551015Y-17236484D02*
X10531967Y-17226960D01*
X10531967Y-17226960D02*
X10522444Y-17217436D01*
X10770063Y-17036484D02*
X10789110Y-17036484D01*
X10789110Y-17036484D02*
X10808158Y-17046008D01*
X10808158Y-17046008D02*
X10817682Y-17055531D01*
X10817682Y-17055531D02*
X10827205Y-17074579D01*
X10827205Y-17074579D02*
X10836729Y-17112674D01*
X10836729Y-17112674D02*
X10836729Y-17160293D01*
X10836729Y-17160293D02*
X10827205Y-17198389D01*
X10827205Y-17198389D02*
X10817682Y-17217436D01*
X10817682Y-17217436D02*
X10808158Y-17226960D01*
X10808158Y-17226960D02*
X10789110Y-17236484D01*
X10789110Y-17236484D02*
X10770063Y-17236484D01*
X10770063Y-17236484D02*
X10751015Y-17226960D01*
X10751015Y-17226960D02*
X10741491Y-17217436D01*
X10741491Y-17217436D02*
X10731967Y-17198389D01*
X10731967Y-17198389D02*
X10722444Y-17160293D01*
X10722444Y-17160293D02*
X10722444Y-17112674D01*
X10722444Y-17112674D02*
X10731967Y-17074579D01*
X10731967Y-17074579D02*
X10741491Y-17055531D01*
X10741491Y-17055531D02*
X10751015Y-17046008D01*
X10751015Y-17046008D02*
X10770063Y-17036484D01*
X10960539Y-17036484D02*
X10979586Y-17036484D01*
X10979586Y-17036484D02*
X10998634Y-17046008D01*
X10998634Y-17046008D02*
X11008158Y-17055531D01*
X11008158Y-17055531D02*
X11017682Y-17074579D01*
X11017682Y-17074579D02*
X11027205Y-17112674D01*
X11027205Y-17112674D02*
X11027205Y-17160293D01*
X11027205Y-17160293D02*
X11017682Y-17198389D01*
X11017682Y-17198389D02*
X11008158Y-17217436D01*
X11008158Y-17217436D02*
X10998634Y-17226960D01*
X10998634Y-17226960D02*
X10979586Y-17236484D01*
X10979586Y-17236484D02*
X10960539Y-17236484D01*
X10960539Y-17236484D02*
X10941491Y-17226960D01*
X10941491Y-17226960D02*
X10931967Y-17217436D01*
X10931967Y-17217436D02*
X10922444Y-17198389D01*
X10922444Y-17198389D02*
X10912920Y-17160293D01*
X10912920Y-17160293D02*
X10912920Y-17112674D01*
X10912920Y-17112674D02*
X10922444Y-17074579D01*
X10922444Y-17074579D02*
X10931967Y-17055531D01*
X10931967Y-17055531D02*
X10941491Y-17046008D01*
X10941491Y-17046008D02*
X10960539Y-17036484D01*
X11112920Y-17236484D02*
X11112920Y-17103150D01*
X11112920Y-17122198D02*
X11122444Y-17112674D01*
X11122444Y-17112674D02*
X11141491Y-17103150D01*
X11141491Y-17103150D02*
X11170063Y-17103150D01*
X11170063Y-17103150D02*
X11189110Y-17112674D01*
X11189110Y-17112674D02*
X11198634Y-17131722D01*
X11198634Y-17131722D02*
X11198634Y-17236484D01*
X11198634Y-17131722D02*
X11208158Y-17112674D01*
X11208158Y-17112674D02*
X11227205Y-17103150D01*
X11227205Y-17103150D02*
X11255777Y-17103150D01*
X11255777Y-17103150D02*
X11274824Y-17112674D01*
X11274824Y-17112674D02*
X11284348Y-17131722D01*
X11284348Y-17131722D02*
X11284348Y-17236484D01*
X11379586Y-17236484D02*
X11379586Y-17103150D01*
X11379586Y-17122198D02*
X11389110Y-17112674D01*
X11389110Y-17112674D02*
X11408158Y-17103150D01*
X11408158Y-17103150D02*
X11436729Y-17103150D01*
X11436729Y-17103150D02*
X11455777Y-17112674D01*
X11455777Y-17112674D02*
X11465301Y-17131722D01*
X11465301Y-17131722D02*
X11465301Y-17236484D01*
X11465301Y-17131722D02*
X11474824Y-17112674D01*
X11474824Y-17112674D02*
X11493872Y-17103150D01*
X11493872Y-17103150D02*
X11522443Y-17103150D01*
X11522443Y-17103150D02*
X11541491Y-17112674D01*
X11541491Y-17112674D02*
X11551015Y-17131722D01*
X11551015Y-17131722D02*
X11551015Y-17236484D01*
X11941491Y-17026960D02*
X11770063Y-17284103D01*
X12198634Y-17036484D02*
X12217682Y-17036484D01*
X12217682Y-17036484D02*
X12236729Y-17046008D01*
X12236729Y-17046008D02*
X12246253Y-17055531D01*
X12246253Y-17055531D02*
X12255777Y-17074579D01*
X12255777Y-17074579D02*
X12265301Y-17112674D01*
X12265301Y-17112674D02*
X12265301Y-17160293D01*
X12265301Y-17160293D02*
X12255777Y-17198389D01*
X12255777Y-17198389D02*
X12246253Y-17217436D01*
X12246253Y-17217436D02*
X12236729Y-17226960D01*
X12236729Y-17226960D02*
X12217682Y-17236484D01*
X12217682Y-17236484D02*
X12198634Y-17236484D01*
X12198634Y-17236484D02*
X12179586Y-17226960D01*
X12179586Y-17226960D02*
X12170063Y-17217436D01*
X12170063Y-17217436D02*
X12160539Y-17198389D01*
X12160539Y-17198389D02*
X12151015Y-17160293D01*
X12151015Y-17160293D02*
X12151015Y-17112674D01*
X12151015Y-17112674D02*
X12160539Y-17074579D01*
X12160539Y-17074579D02*
X12170063Y-17055531D01*
X12170063Y-17055531D02*
X12179586Y-17046008D01*
X12179586Y-17046008D02*
X12198634Y-17036484D01*
X12360539Y-17226960D02*
X12360539Y-17236484D01*
X12360539Y-17236484D02*
X12351015Y-17255531D01*
X12351015Y-17255531D02*
X12341491Y-17265055D01*
X12484348Y-17036484D02*
X12503396Y-17036484D01*
X12503396Y-17036484D02*
X12522444Y-17046008D01*
X12522444Y-17046008D02*
X12531967Y-17055531D01*
X12531967Y-17055531D02*
X12541491Y-17074579D01*
X12541491Y-17074579D02*
X12551015Y-17112674D01*
X12551015Y-17112674D02*
X12551015Y-17160293D01*
X12551015Y-17160293D02*
X12541491Y-17198389D01*
X12541491Y-17198389D02*
X12531967Y-17217436D01*
X12531967Y-17217436D02*
X12522444Y-17226960D01*
X12522444Y-17226960D02*
X12503396Y-17236484D01*
X12503396Y-17236484D02*
X12484348Y-17236484D01*
X12484348Y-17236484D02*
X12465301Y-17226960D01*
X12465301Y-17226960D02*
X12455777Y-17217436D01*
X12455777Y-17217436D02*
X12446253Y-17198389D01*
X12446253Y-17198389D02*
X12436729Y-17160293D01*
X12436729Y-17160293D02*
X12436729Y-17112674D01*
X12436729Y-17112674D02*
X12446253Y-17074579D01*
X12446253Y-17074579D02*
X12455777Y-17055531D01*
X12455777Y-17055531D02*
X12465301Y-17046008D01*
X12465301Y-17046008D02*
X12484348Y-17036484D01*
X12741491Y-17236484D02*
X12627206Y-17236484D01*
X12684348Y-17236484D02*
X12684348Y-17036484D01*
X12684348Y-17036484D02*
X12665301Y-17065055D01*
X12665301Y-17065055D02*
X12646253Y-17084103D01*
X12646253Y-17084103D02*
X12627206Y-17093627D01*
X12931967Y-17236484D02*
X12817682Y-17236484D01*
X12874825Y-17236484D02*
X12874825Y-17036484D01*
X12874825Y-17036484D02*
X12855777Y-17065055D01*
X12855777Y-17065055D02*
X12836729Y-17084103D01*
X12836729Y-17084103D02*
X12817682Y-17093627D01*
X13046253Y-17122198D02*
X13027206Y-17112674D01*
X13027206Y-17112674D02*
X13017682Y-17103150D01*
X13017682Y-17103150D02*
X13008158Y-17084103D01*
X13008158Y-17084103D02*
X13008158Y-17074579D01*
X13008158Y-17074579D02*
X13017682Y-17055531D01*
X13017682Y-17055531D02*
X13027206Y-17046008D01*
X13027206Y-17046008D02*
X13046253Y-17036484D01*
X13046253Y-17036484D02*
X13084348Y-17036484D01*
X13084348Y-17036484D02*
X13103396Y-17046008D01*
X13103396Y-17046008D02*
X13112920Y-17055531D01*
X13112920Y-17055531D02*
X13122444Y-17074579D01*
X13122444Y-17074579D02*
X13122444Y-17084103D01*
X13122444Y-17084103D02*
X13112920Y-17103150D01*
X13112920Y-17103150D02*
X13103396Y-17112674D01*
X13103396Y-17112674D02*
X13084348Y-17122198D01*
X13084348Y-17122198D02*
X13046253Y-17122198D01*
X13046253Y-17122198D02*
X13027206Y-17131722D01*
X13027206Y-17131722D02*
X13017682Y-17141246D01*
X13017682Y-17141246D02*
X13008158Y-17160293D01*
X13008158Y-17160293D02*
X13008158Y-17198389D01*
X13008158Y-17198389D02*
X13017682Y-17217436D01*
X13017682Y-17217436D02*
X13027206Y-17226960D01*
X13027206Y-17226960D02*
X13046253Y-17236484D01*
X13046253Y-17236484D02*
X13084348Y-17236484D01*
X13084348Y-17236484D02*
X13103396Y-17226960D01*
X13103396Y-17226960D02*
X13112920Y-17217436D01*
X13112920Y-17217436D02*
X13122444Y-17198389D01*
X13122444Y-17198389D02*
X13122444Y-17160293D01*
X13122444Y-17160293D02*
X13112920Y-17141246D01*
X13112920Y-17141246D02*
X13103396Y-17131722D01*
X13103396Y-17131722D02*
X13084348Y-17122198D01*
X13198634Y-17036484D02*
X13198634Y-17074579D01*
X13274825Y-17036484D02*
X13274825Y-17074579D01*
X13570063Y-17312674D02*
X13560539Y-17303150D01*
X13560539Y-17303150D02*
X13541491Y-17274579D01*
X13541491Y-17274579D02*
X13531968Y-17255531D01*
X13531968Y-17255531D02*
X13522444Y-17226960D01*
X13522444Y-17226960D02*
X13512920Y-17179341D01*
X13512920Y-17179341D02*
X13512920Y-17141246D01*
X13512920Y-17141246D02*
X13522444Y-17093627D01*
X13522444Y-17093627D02*
X13531968Y-17065055D01*
X13531968Y-17065055D02*
X13541491Y-17046008D01*
X13541491Y-17046008D02*
X13560539Y-17017436D01*
X13560539Y-17017436D02*
X13570063Y-17007912D01*
X13741491Y-17036484D02*
X13646253Y-17036484D01*
X13646253Y-17036484D02*
X13636729Y-17131722D01*
X13636729Y-17131722D02*
X13646253Y-17122198D01*
X13646253Y-17122198D02*
X13665301Y-17112674D01*
X13665301Y-17112674D02*
X13712920Y-17112674D01*
X13712920Y-17112674D02*
X13731968Y-17122198D01*
X13731968Y-17122198D02*
X13741491Y-17131722D01*
X13741491Y-17131722D02*
X13751015Y-17150770D01*
X13751015Y-17150770D02*
X13751015Y-17198389D01*
X13751015Y-17198389D02*
X13741491Y-17217436D01*
X13741491Y-17217436D02*
X13731968Y-17226960D01*
X13731968Y-17226960D02*
X13712920Y-17236484D01*
X13712920Y-17236484D02*
X13665301Y-17236484D01*
X13665301Y-17236484D02*
X13646253Y-17226960D01*
X13646253Y-17226960D02*
X13636729Y-17217436D01*
X13989110Y-17236484D02*
X13989110Y-17036484D01*
X14074825Y-17236484D02*
X14074825Y-17131722D01*
X14074825Y-17131722D02*
X14065301Y-17112674D01*
X14065301Y-17112674D02*
X14046253Y-17103150D01*
X14046253Y-17103150D02*
X14017682Y-17103150D01*
X14017682Y-17103150D02*
X13998634Y-17112674D01*
X13998634Y-17112674D02*
X13989110Y-17122198D01*
X14198634Y-17236484D02*
X14179587Y-17226960D01*
X14179587Y-17226960D02*
X14170063Y-17217436D01*
X14170063Y-17217436D02*
X14160539Y-17198389D01*
X14160539Y-17198389D02*
X14160539Y-17141246D01*
X14160539Y-17141246D02*
X14170063Y-17122198D01*
X14170063Y-17122198D02*
X14179587Y-17112674D01*
X14179587Y-17112674D02*
X14198634Y-17103150D01*
X14198634Y-17103150D02*
X14227206Y-17103150D01*
X14227206Y-17103150D02*
X14246253Y-17112674D01*
X14246253Y-17112674D02*
X14255777Y-17122198D01*
X14255777Y-17122198D02*
X14265301Y-17141246D01*
X14265301Y-17141246D02*
X14265301Y-17198389D01*
X14265301Y-17198389D02*
X14255777Y-17217436D01*
X14255777Y-17217436D02*
X14246253Y-17226960D01*
X14246253Y-17226960D02*
X14227206Y-17236484D01*
X14227206Y-17236484D02*
X14198634Y-17236484D01*
X14379587Y-17236484D02*
X14360539Y-17226960D01*
X14360539Y-17226960D02*
X14351015Y-17207912D01*
X14351015Y-17207912D02*
X14351015Y-17036484D01*
X14531968Y-17226960D02*
X14512920Y-17236484D01*
X14512920Y-17236484D02*
X14474825Y-17236484D01*
X14474825Y-17236484D02*
X14455777Y-17226960D01*
X14455777Y-17226960D02*
X14446253Y-17207912D01*
X14446253Y-17207912D02*
X14446253Y-17131722D01*
X14446253Y-17131722D02*
X14455777Y-17112674D01*
X14455777Y-17112674D02*
X14474825Y-17103150D01*
X14474825Y-17103150D02*
X14512920Y-17103150D01*
X14512920Y-17103150D02*
X14531968Y-17112674D01*
X14531968Y-17112674D02*
X14541491Y-17131722D01*
X14541491Y-17131722D02*
X14541491Y-17150770D01*
X14541491Y-17150770D02*
X14446253Y-17169817D01*
X14617682Y-17226960D02*
X14636730Y-17236484D01*
X14636730Y-17236484D02*
X14674825Y-17236484D01*
X14674825Y-17236484D02*
X14693872Y-17226960D01*
X14693872Y-17226960D02*
X14703396Y-17207912D01*
X14703396Y-17207912D02*
X14703396Y-17198389D01*
X14703396Y-17198389D02*
X14693872Y-17179341D01*
X14693872Y-17179341D02*
X14674825Y-17169817D01*
X14674825Y-17169817D02*
X14646253Y-17169817D01*
X14646253Y-17169817D02*
X14627206Y-17160293D01*
X14627206Y-17160293D02*
X14617682Y-17141246D01*
X14617682Y-17141246D02*
X14617682Y-17131722D01*
X14617682Y-17131722D02*
X14627206Y-17112674D01*
X14627206Y-17112674D02*
X14646253Y-17103150D01*
X14646253Y-17103150D02*
X14674825Y-17103150D01*
X14674825Y-17103150D02*
X14693872Y-17112674D01*
X14770063Y-17312674D02*
X14779587Y-17303150D01*
X14779587Y-17303150D02*
X14798634Y-17274579D01*
X14798634Y-17274579D02*
X14808158Y-17255531D01*
X14808158Y-17255531D02*
X14817682Y-17226960D01*
X14817682Y-17226960D02*
X14827206Y-17179341D01*
X14827206Y-17179341D02*
X14827206Y-17141246D01*
X14827206Y-17141246D02*
X14817682Y-17093627D01*
X14817682Y-17093627D02*
X14808158Y-17065055D01*
X14808158Y-17065055D02*
X14798634Y-17046008D01*
X14798634Y-17046008D02*
X14779587Y-17017436D01*
X14779587Y-17017436D02*
X14770063Y-17007912D01*
D10*
X9995000Y-17409000D02*
G75*
G02*
X9935000Y-17409000I-30000J0D01*
G01*
X9935000Y-17409000D02*
G75*
G02*
X9995000Y-17409000I30000J0D01*
G01*
D11*
X10293872Y-17300484D02*
X10312920Y-17300484D01*
X10312920Y-17300484D02*
X10331967Y-17310008D01*
X10331967Y-17310008D02*
X10341491Y-17319531D01*
X10341491Y-17319531D02*
X10351015Y-17338579D01*
X10351015Y-17338579D02*
X10360539Y-17376674D01*
X10360539Y-17376674D02*
X10360539Y-17424293D01*
X10360539Y-17424293D02*
X10351015Y-17462389D01*
X10351015Y-17462389D02*
X10341491Y-17481436D01*
X10341491Y-17481436D02*
X10331967Y-17490960D01*
X10331967Y-17490960D02*
X10312920Y-17500484D01*
X10312920Y-17500484D02*
X10293872Y-17500484D01*
X10293872Y-17500484D02*
X10274824Y-17490960D01*
X10274824Y-17490960D02*
X10265301Y-17481436D01*
X10265301Y-17481436D02*
X10255777Y-17462389D01*
X10255777Y-17462389D02*
X10246253Y-17424293D01*
X10246253Y-17424293D02*
X10246253Y-17376674D01*
X10246253Y-17376674D02*
X10255777Y-17338579D01*
X10255777Y-17338579D02*
X10265301Y-17319531D01*
X10265301Y-17319531D02*
X10274824Y-17310008D01*
X10274824Y-17310008D02*
X10293872Y-17300484D01*
X10455777Y-17490960D02*
X10455777Y-17500484D01*
X10455777Y-17500484D02*
X10446253Y-17519531D01*
X10446253Y-17519531D02*
X10436729Y-17529055D01*
X10627205Y-17300484D02*
X10589110Y-17300484D01*
X10589110Y-17300484D02*
X10570063Y-17310008D01*
X10570063Y-17310008D02*
X10560539Y-17319531D01*
X10560539Y-17319531D02*
X10541491Y-17348103D01*
X10541491Y-17348103D02*
X10531967Y-17386198D01*
X10531967Y-17386198D02*
X10531967Y-17462389D01*
X10531967Y-17462389D02*
X10541491Y-17481436D01*
X10541491Y-17481436D02*
X10551015Y-17490960D01*
X10551015Y-17490960D02*
X10570063Y-17500484D01*
X10570063Y-17500484D02*
X10608158Y-17500484D01*
X10608158Y-17500484D02*
X10627205Y-17490960D01*
X10627205Y-17490960D02*
X10636729Y-17481436D01*
X10636729Y-17481436D02*
X10646253Y-17462389D01*
X10646253Y-17462389D02*
X10646253Y-17414770D01*
X10646253Y-17414770D02*
X10636729Y-17395722D01*
X10636729Y-17395722D02*
X10627205Y-17386198D01*
X10627205Y-17386198D02*
X10608158Y-17376674D01*
X10608158Y-17376674D02*
X10570063Y-17376674D01*
X10570063Y-17376674D02*
X10551015Y-17386198D01*
X10551015Y-17386198D02*
X10541491Y-17395722D01*
X10541491Y-17395722D02*
X10531967Y-17414770D01*
X10770063Y-17300484D02*
X10789110Y-17300484D01*
X10789110Y-17300484D02*
X10808158Y-17310008D01*
X10808158Y-17310008D02*
X10817682Y-17319531D01*
X10817682Y-17319531D02*
X10827205Y-17338579D01*
X10827205Y-17338579D02*
X10836729Y-17376674D01*
X10836729Y-17376674D02*
X10836729Y-17424293D01*
X10836729Y-17424293D02*
X10827205Y-17462389D01*
X10827205Y-17462389D02*
X10817682Y-17481436D01*
X10817682Y-17481436D02*
X10808158Y-17490960D01*
X10808158Y-17490960D02*
X10789110Y-17500484D01*
X10789110Y-17500484D02*
X10770063Y-17500484D01*
X10770063Y-17500484D02*
X10751015Y-17490960D01*
X10751015Y-17490960D02*
X10741491Y-17481436D01*
X10741491Y-17481436D02*
X10731967Y-17462389D01*
X10731967Y-17462389D02*
X10722444Y-17424293D01*
X10722444Y-17424293D02*
X10722444Y-17376674D01*
X10722444Y-17376674D02*
X10731967Y-17338579D01*
X10731967Y-17338579D02*
X10741491Y-17319531D01*
X10741491Y-17319531D02*
X10751015Y-17310008D01*
X10751015Y-17310008D02*
X10770063Y-17300484D01*
X10960539Y-17300484D02*
X10979586Y-17300484D01*
X10979586Y-17300484D02*
X10998634Y-17310008D01*
X10998634Y-17310008D02*
X11008158Y-17319531D01*
X11008158Y-17319531D02*
X11017682Y-17338579D01*
X11017682Y-17338579D02*
X11027205Y-17376674D01*
X11027205Y-17376674D02*
X11027205Y-17424293D01*
X11027205Y-17424293D02*
X11017682Y-17462389D01*
X11017682Y-17462389D02*
X11008158Y-17481436D01*
X11008158Y-17481436D02*
X10998634Y-17490960D01*
X10998634Y-17490960D02*
X10979586Y-17500484D01*
X10979586Y-17500484D02*
X10960539Y-17500484D01*
X10960539Y-17500484D02*
X10941491Y-17490960D01*
X10941491Y-17490960D02*
X10931967Y-17481436D01*
X10931967Y-17481436D02*
X10922444Y-17462389D01*
X10922444Y-17462389D02*
X10912920Y-17424293D01*
X10912920Y-17424293D02*
X10912920Y-17376674D01*
X10912920Y-17376674D02*
X10922444Y-17338579D01*
X10922444Y-17338579D02*
X10931967Y-17319531D01*
X10931967Y-17319531D02*
X10941491Y-17310008D01*
X10941491Y-17310008D02*
X10960539Y-17300484D01*
X11112920Y-17500484D02*
X11112920Y-17367150D01*
X11112920Y-17386198D02*
X11122444Y-17376674D01*
X11122444Y-17376674D02*
X11141491Y-17367150D01*
X11141491Y-17367150D02*
X11170063Y-17367150D01*
X11170063Y-17367150D02*
X11189110Y-17376674D01*
X11189110Y-17376674D02*
X11198634Y-17395722D01*
X11198634Y-17395722D02*
X11198634Y-17500484D01*
X11198634Y-17395722D02*
X11208158Y-17376674D01*
X11208158Y-17376674D02*
X11227205Y-17367150D01*
X11227205Y-17367150D02*
X11255777Y-17367150D01*
X11255777Y-17367150D02*
X11274824Y-17376674D01*
X11274824Y-17376674D02*
X11284348Y-17395722D01*
X11284348Y-17395722D02*
X11284348Y-17500484D01*
X11379586Y-17500484D02*
X11379586Y-17367150D01*
X11379586Y-17386198D02*
X11389110Y-17376674D01*
X11389110Y-17376674D02*
X11408158Y-17367150D01*
X11408158Y-17367150D02*
X11436729Y-17367150D01*
X11436729Y-17367150D02*
X11455777Y-17376674D01*
X11455777Y-17376674D02*
X11465301Y-17395722D01*
X11465301Y-17395722D02*
X11465301Y-17500484D01*
X11465301Y-17395722D02*
X11474824Y-17376674D01*
X11474824Y-17376674D02*
X11493872Y-17367150D01*
X11493872Y-17367150D02*
X11522443Y-17367150D01*
X11522443Y-17367150D02*
X11541491Y-17376674D01*
X11541491Y-17376674D02*
X11551015Y-17395722D01*
X11551015Y-17395722D02*
X11551015Y-17500484D01*
X11941491Y-17290960D02*
X11770063Y-17548103D01*
X12198634Y-17300484D02*
X12217682Y-17300484D01*
X12217682Y-17300484D02*
X12236729Y-17310008D01*
X12236729Y-17310008D02*
X12246253Y-17319531D01*
X12246253Y-17319531D02*
X12255777Y-17338579D01*
X12255777Y-17338579D02*
X12265301Y-17376674D01*
X12265301Y-17376674D02*
X12265301Y-17424293D01*
X12265301Y-17424293D02*
X12255777Y-17462389D01*
X12255777Y-17462389D02*
X12246253Y-17481436D01*
X12246253Y-17481436D02*
X12236729Y-17490960D01*
X12236729Y-17490960D02*
X12217682Y-17500484D01*
X12217682Y-17500484D02*
X12198634Y-17500484D01*
X12198634Y-17500484D02*
X12179586Y-17490960D01*
X12179586Y-17490960D02*
X12170063Y-17481436D01*
X12170063Y-17481436D02*
X12160539Y-17462389D01*
X12160539Y-17462389D02*
X12151015Y-17424293D01*
X12151015Y-17424293D02*
X12151015Y-17376674D01*
X12151015Y-17376674D02*
X12160539Y-17338579D01*
X12160539Y-17338579D02*
X12170063Y-17319531D01*
X12170063Y-17319531D02*
X12179586Y-17310008D01*
X12179586Y-17310008D02*
X12198634Y-17300484D01*
X12360539Y-17490960D02*
X12360539Y-17500484D01*
X12360539Y-17500484D02*
X12351015Y-17519531D01*
X12351015Y-17519531D02*
X12341491Y-17529055D01*
X12484348Y-17300484D02*
X12503396Y-17300484D01*
X12503396Y-17300484D02*
X12522444Y-17310008D01*
X12522444Y-17310008D02*
X12531967Y-17319531D01*
X12531967Y-17319531D02*
X12541491Y-17338579D01*
X12541491Y-17338579D02*
X12551015Y-17376674D01*
X12551015Y-17376674D02*
X12551015Y-17424293D01*
X12551015Y-17424293D02*
X12541491Y-17462389D01*
X12541491Y-17462389D02*
X12531967Y-17481436D01*
X12531967Y-17481436D02*
X12522444Y-17490960D01*
X12522444Y-17490960D02*
X12503396Y-17500484D01*
X12503396Y-17500484D02*
X12484348Y-17500484D01*
X12484348Y-17500484D02*
X12465301Y-17490960D01*
X12465301Y-17490960D02*
X12455777Y-17481436D01*
X12455777Y-17481436D02*
X12446253Y-17462389D01*
X12446253Y-17462389D02*
X12436729Y-17424293D01*
X12436729Y-17424293D02*
X12436729Y-17376674D01*
X12436729Y-17376674D02*
X12446253Y-17338579D01*
X12446253Y-17338579D02*
X12455777Y-17319531D01*
X12455777Y-17319531D02*
X12465301Y-17310008D01*
X12465301Y-17310008D02*
X12484348Y-17300484D01*
X12627206Y-17319531D02*
X12636729Y-17310008D01*
X12636729Y-17310008D02*
X12655777Y-17300484D01*
X12655777Y-17300484D02*
X12703396Y-17300484D01*
X12703396Y-17300484D02*
X12722444Y-17310008D01*
X12722444Y-17310008D02*
X12731967Y-17319531D01*
X12731967Y-17319531D02*
X12741491Y-17338579D01*
X12741491Y-17338579D02*
X12741491Y-17357627D01*
X12741491Y-17357627D02*
X12731967Y-17386198D01*
X12731967Y-17386198D02*
X12617682Y-17500484D01*
X12617682Y-17500484D02*
X12741491Y-17500484D01*
X12808158Y-17300484D02*
X12931967Y-17300484D01*
X12931967Y-17300484D02*
X12865301Y-17376674D01*
X12865301Y-17376674D02*
X12893872Y-17376674D01*
X12893872Y-17376674D02*
X12912920Y-17386198D01*
X12912920Y-17386198D02*
X12922444Y-17395722D01*
X12922444Y-17395722D02*
X12931967Y-17414770D01*
X12931967Y-17414770D02*
X12931967Y-17462389D01*
X12931967Y-17462389D02*
X12922444Y-17481436D01*
X12922444Y-17481436D02*
X12912920Y-17490960D01*
X12912920Y-17490960D02*
X12893872Y-17500484D01*
X12893872Y-17500484D02*
X12836729Y-17500484D01*
X12836729Y-17500484D02*
X12817682Y-17490960D01*
X12817682Y-17490960D02*
X12808158Y-17481436D01*
X13103396Y-17300484D02*
X13065301Y-17300484D01*
X13065301Y-17300484D02*
X13046253Y-17310008D01*
X13046253Y-17310008D02*
X13036729Y-17319531D01*
X13036729Y-17319531D02*
X13017682Y-17348103D01*
X13017682Y-17348103D02*
X13008158Y-17386198D01*
X13008158Y-17386198D02*
X13008158Y-17462389D01*
X13008158Y-17462389D02*
X13017682Y-17481436D01*
X13017682Y-17481436D02*
X13027206Y-17490960D01*
X13027206Y-17490960D02*
X13046253Y-17500484D01*
X13046253Y-17500484D02*
X13084348Y-17500484D01*
X13084348Y-17500484D02*
X13103396Y-17490960D01*
X13103396Y-17490960D02*
X13112920Y-17481436D01*
X13112920Y-17481436D02*
X13122444Y-17462389D01*
X13122444Y-17462389D02*
X13122444Y-17414770D01*
X13122444Y-17414770D02*
X13112920Y-17395722D01*
X13112920Y-17395722D02*
X13103396Y-17386198D01*
X13103396Y-17386198D02*
X13084348Y-17376674D01*
X13084348Y-17376674D02*
X13046253Y-17376674D01*
X13046253Y-17376674D02*
X13027206Y-17386198D01*
X13027206Y-17386198D02*
X13017682Y-17395722D01*
X13017682Y-17395722D02*
X13008158Y-17414770D01*
X13198634Y-17300484D02*
X13198634Y-17338579D01*
X13274825Y-17300484D02*
X13274825Y-17338579D01*
X13570063Y-17576674D02*
X13560539Y-17567150D01*
X13560539Y-17567150D02*
X13541491Y-17538579D01*
X13541491Y-17538579D02*
X13531968Y-17519531D01*
X13531968Y-17519531D02*
X13522444Y-17490960D01*
X13522444Y-17490960D02*
X13512920Y-17443341D01*
X13512920Y-17443341D02*
X13512920Y-17405246D01*
X13512920Y-17405246D02*
X13522444Y-17357627D01*
X13522444Y-17357627D02*
X13531968Y-17329055D01*
X13531968Y-17329055D02*
X13541491Y-17310008D01*
X13541491Y-17310008D02*
X13560539Y-17281436D01*
X13560539Y-17281436D02*
X13570063Y-17271912D01*
X13684348Y-17300484D02*
X13703396Y-17300484D01*
X13703396Y-17300484D02*
X13722444Y-17310008D01*
X13722444Y-17310008D02*
X13731968Y-17319531D01*
X13731968Y-17319531D02*
X13741491Y-17338579D01*
X13741491Y-17338579D02*
X13751015Y-17376674D01*
X13751015Y-17376674D02*
X13751015Y-17424293D01*
X13751015Y-17424293D02*
X13741491Y-17462389D01*
X13741491Y-17462389D02*
X13731968Y-17481436D01*
X13731968Y-17481436D02*
X13722444Y-17490960D01*
X13722444Y-17490960D02*
X13703396Y-17500484D01*
X13703396Y-17500484D02*
X13684348Y-17500484D01*
X13684348Y-17500484D02*
X13665301Y-17490960D01*
X13665301Y-17490960D02*
X13655777Y-17481436D01*
X13655777Y-17481436D02*
X13646253Y-17462389D01*
X13646253Y-17462389D02*
X13636729Y-17424293D01*
X13636729Y-17424293D02*
X13636729Y-17376674D01*
X13636729Y-17376674D02*
X13646253Y-17338579D01*
X13646253Y-17338579D02*
X13655777Y-17319531D01*
X13655777Y-17319531D02*
X13665301Y-17310008D01*
X13665301Y-17310008D02*
X13684348Y-17300484D01*
X13989110Y-17500484D02*
X13989110Y-17300484D01*
X14074825Y-17500484D02*
X14074825Y-17395722D01*
X14074825Y-17395722D02*
X14065301Y-17376674D01*
X14065301Y-17376674D02*
X14046253Y-17367150D01*
X14046253Y-17367150D02*
X14017682Y-17367150D01*
X14017682Y-17367150D02*
X13998634Y-17376674D01*
X13998634Y-17376674D02*
X13989110Y-17386198D01*
X14198634Y-17500484D02*
X14179587Y-17490960D01*
X14179587Y-17490960D02*
X14170063Y-17481436D01*
X14170063Y-17481436D02*
X14160539Y-17462389D01*
X14160539Y-17462389D02*
X14160539Y-17405246D01*
X14160539Y-17405246D02*
X14170063Y-17386198D01*
X14170063Y-17386198D02*
X14179587Y-17376674D01*
X14179587Y-17376674D02*
X14198634Y-17367150D01*
X14198634Y-17367150D02*
X14227206Y-17367150D01*
X14227206Y-17367150D02*
X14246253Y-17376674D01*
X14246253Y-17376674D02*
X14255777Y-17386198D01*
X14255777Y-17386198D02*
X14265301Y-17405246D01*
X14265301Y-17405246D02*
X14265301Y-17462389D01*
X14265301Y-17462389D02*
X14255777Y-17481436D01*
X14255777Y-17481436D02*
X14246253Y-17490960D01*
X14246253Y-17490960D02*
X14227206Y-17500484D01*
X14227206Y-17500484D02*
X14198634Y-17500484D01*
X14379587Y-17500484D02*
X14360539Y-17490960D01*
X14360539Y-17490960D02*
X14351015Y-17471912D01*
X14351015Y-17471912D02*
X14351015Y-17300484D01*
X14531968Y-17490960D02*
X14512920Y-17500484D01*
X14512920Y-17500484D02*
X14474825Y-17500484D01*
X14474825Y-17500484D02*
X14455777Y-17490960D01*
X14455777Y-17490960D02*
X14446253Y-17471912D01*
X14446253Y-17471912D02*
X14446253Y-17395722D01*
X14446253Y-17395722D02*
X14455777Y-17376674D01*
X14455777Y-17376674D02*
X14474825Y-17367150D01*
X14474825Y-17367150D02*
X14512920Y-17367150D01*
X14512920Y-17367150D02*
X14531968Y-17376674D01*
X14531968Y-17376674D02*
X14541491Y-17395722D01*
X14541491Y-17395722D02*
X14541491Y-17414770D01*
X14541491Y-17414770D02*
X14446253Y-17433817D01*
X14617682Y-17490960D02*
X14636730Y-17500484D01*
X14636730Y-17500484D02*
X14674825Y-17500484D01*
X14674825Y-17500484D02*
X14693872Y-17490960D01*
X14693872Y-17490960D02*
X14703396Y-17471912D01*
X14703396Y-17471912D02*
X14703396Y-17462389D01*
X14703396Y-17462389D02*
X14693872Y-17443341D01*
X14693872Y-17443341D02*
X14674825Y-17433817D01*
X14674825Y-17433817D02*
X14646253Y-17433817D01*
X14646253Y-17433817D02*
X14627206Y-17424293D01*
X14627206Y-17424293D02*
X14617682Y-17405246D01*
X14617682Y-17405246D02*
X14617682Y-17395722D01*
X14617682Y-17395722D02*
X14627206Y-17376674D01*
X14627206Y-17376674D02*
X14646253Y-17367150D01*
X14646253Y-17367150D02*
X14674825Y-17367150D01*
X14674825Y-17367150D02*
X14693872Y-17376674D01*
X14941492Y-17424293D02*
X15093873Y-17424293D01*
X15017682Y-17500484D02*
X15017682Y-17348103D01*
X15446253Y-17500484D02*
X15331968Y-17500484D01*
X15389111Y-17500484D02*
X15389111Y-17300484D01*
X15389111Y-17300484D02*
X15370063Y-17329055D01*
X15370063Y-17329055D02*
X15351015Y-17348103D01*
X15351015Y-17348103D02*
X15331968Y-17357627D01*
X15522444Y-17319531D02*
X15531968Y-17310008D01*
X15531968Y-17310008D02*
X15551015Y-17300484D01*
X15551015Y-17300484D02*
X15598634Y-17300484D01*
X15598634Y-17300484D02*
X15617682Y-17310008D01*
X15617682Y-17310008D02*
X15627206Y-17319531D01*
X15627206Y-17319531D02*
X15636730Y-17338579D01*
X15636730Y-17338579D02*
X15636730Y-17357627D01*
X15636730Y-17357627D02*
X15627206Y-17386198D01*
X15627206Y-17386198D02*
X15512920Y-17500484D01*
X15512920Y-17500484D02*
X15636730Y-17500484D01*
X15865301Y-17490960D02*
X15884349Y-17500484D01*
X15884349Y-17500484D02*
X15922444Y-17500484D01*
X15922444Y-17500484D02*
X15941492Y-17490960D01*
X15941492Y-17490960D02*
X15951015Y-17471912D01*
X15951015Y-17471912D02*
X15951015Y-17462389D01*
X15951015Y-17462389D02*
X15941492Y-17443341D01*
X15941492Y-17443341D02*
X15922444Y-17433817D01*
X15922444Y-17433817D02*
X15893873Y-17433817D01*
X15893873Y-17433817D02*
X15874825Y-17424293D01*
X15874825Y-17424293D02*
X15865301Y-17405246D01*
X15865301Y-17405246D02*
X15865301Y-17395722D01*
X15865301Y-17395722D02*
X15874825Y-17376674D01*
X15874825Y-17376674D02*
X15893873Y-17367150D01*
X15893873Y-17367150D02*
X15922444Y-17367150D01*
X15922444Y-17367150D02*
X15941492Y-17376674D01*
X16065301Y-17500484D02*
X16046254Y-17490960D01*
X16046254Y-17490960D02*
X16036730Y-17471912D01*
X16036730Y-17471912D02*
X16036730Y-17300484D01*
X16170063Y-17500484D02*
X16151015Y-17490960D01*
X16151015Y-17490960D02*
X16141492Y-17481436D01*
X16141492Y-17481436D02*
X16131968Y-17462389D01*
X16131968Y-17462389D02*
X16131968Y-17405246D01*
X16131968Y-17405246D02*
X16141492Y-17386198D01*
X16141492Y-17386198D02*
X16151015Y-17376674D01*
X16151015Y-17376674D02*
X16170063Y-17367150D01*
X16170063Y-17367150D02*
X16198635Y-17367150D01*
X16198635Y-17367150D02*
X16217682Y-17376674D01*
X16217682Y-17376674D02*
X16227206Y-17386198D01*
X16227206Y-17386198D02*
X16236730Y-17405246D01*
X16236730Y-17405246D02*
X16236730Y-17462389D01*
X16236730Y-17462389D02*
X16227206Y-17481436D01*
X16227206Y-17481436D02*
X16217682Y-17490960D01*
X16217682Y-17490960D02*
X16198635Y-17500484D01*
X16198635Y-17500484D02*
X16170063Y-17500484D01*
X16293873Y-17367150D02*
X16370063Y-17367150D01*
X16322444Y-17300484D02*
X16322444Y-17471912D01*
X16322444Y-17471912D02*
X16331968Y-17490960D01*
X16331968Y-17490960D02*
X16351015Y-17500484D01*
X16351015Y-17500484D02*
X16370063Y-17500484D01*
X16427206Y-17490960D02*
X16446254Y-17500484D01*
X16446254Y-17500484D02*
X16484349Y-17500484D01*
X16484349Y-17500484D02*
X16503396Y-17490960D01*
X16503396Y-17490960D02*
X16512920Y-17471912D01*
X16512920Y-17471912D02*
X16512920Y-17462389D01*
X16512920Y-17462389D02*
X16503396Y-17443341D01*
X16503396Y-17443341D02*
X16484349Y-17433817D01*
X16484349Y-17433817D02*
X16455777Y-17433817D01*
X16455777Y-17433817D02*
X16436730Y-17424293D01*
X16436730Y-17424293D02*
X16427206Y-17405246D01*
X16427206Y-17405246D02*
X16427206Y-17395722D01*
X16427206Y-17395722D02*
X16436730Y-17376674D01*
X16436730Y-17376674D02*
X16455777Y-17367150D01*
X16455777Y-17367150D02*
X16484349Y-17367150D01*
X16484349Y-17367150D02*
X16503396Y-17376674D01*
X16579587Y-17576674D02*
X16589111Y-17567150D01*
X16589111Y-17567150D02*
X16608158Y-17538579D01*
X16608158Y-17538579D02*
X16617682Y-17519531D01*
X16617682Y-17519531D02*
X16627206Y-17490960D01*
X16627206Y-17490960D02*
X16636730Y-17443341D01*
X16636730Y-17443341D02*
X16636730Y-17405246D01*
X16636730Y-17405246D02*
X16627206Y-17357627D01*
X16627206Y-17357627D02*
X16617682Y-17329055D01*
X16617682Y-17329055D02*
X16608158Y-17310008D01*
X16608158Y-17310008D02*
X16589111Y-17281436D01*
X16589111Y-17281436D02*
X16579587Y-17271912D01*
D10*
X9945000Y-17623000D02*
X9945000Y-17723000D01*
X9895000Y-17673000D02*
X9995000Y-17673000D01*
D11*
X10360539Y-17764484D02*
X10246253Y-17764484D01*
X10303396Y-17764484D02*
X10303396Y-17564484D01*
X10303396Y-17564484D02*
X10284348Y-17593055D01*
X10284348Y-17593055D02*
X10265301Y-17612103D01*
X10265301Y-17612103D02*
X10246253Y-17621627D01*
X10455777Y-17754960D02*
X10455777Y-17764484D01*
X10455777Y-17764484D02*
X10446253Y-17783531D01*
X10446253Y-17783531D02*
X10436729Y-17793055D01*
X10579586Y-17564484D02*
X10598634Y-17564484D01*
X10598634Y-17564484D02*
X10617682Y-17574008D01*
X10617682Y-17574008D02*
X10627205Y-17583531D01*
X10627205Y-17583531D02*
X10636729Y-17602579D01*
X10636729Y-17602579D02*
X10646253Y-17640674D01*
X10646253Y-17640674D02*
X10646253Y-17688293D01*
X10646253Y-17688293D02*
X10636729Y-17726389D01*
X10636729Y-17726389D02*
X10627205Y-17745436D01*
X10627205Y-17745436D02*
X10617682Y-17754960D01*
X10617682Y-17754960D02*
X10598634Y-17764484D01*
X10598634Y-17764484D02*
X10579586Y-17764484D01*
X10579586Y-17764484D02*
X10560539Y-17754960D01*
X10560539Y-17754960D02*
X10551015Y-17745436D01*
X10551015Y-17745436D02*
X10541491Y-17726389D01*
X10541491Y-17726389D02*
X10531967Y-17688293D01*
X10531967Y-17688293D02*
X10531967Y-17640674D01*
X10531967Y-17640674D02*
X10541491Y-17602579D01*
X10541491Y-17602579D02*
X10551015Y-17583531D01*
X10551015Y-17583531D02*
X10560539Y-17574008D01*
X10560539Y-17574008D02*
X10579586Y-17564484D01*
X10770063Y-17564484D02*
X10789110Y-17564484D01*
X10789110Y-17564484D02*
X10808158Y-17574008D01*
X10808158Y-17574008D02*
X10817682Y-17583531D01*
X10817682Y-17583531D02*
X10827205Y-17602579D01*
X10827205Y-17602579D02*
X10836729Y-17640674D01*
X10836729Y-17640674D02*
X10836729Y-17688293D01*
X10836729Y-17688293D02*
X10827205Y-17726389D01*
X10827205Y-17726389D02*
X10817682Y-17745436D01*
X10817682Y-17745436D02*
X10808158Y-17754960D01*
X10808158Y-17754960D02*
X10789110Y-17764484D01*
X10789110Y-17764484D02*
X10770063Y-17764484D01*
X10770063Y-17764484D02*
X10751015Y-17754960D01*
X10751015Y-17754960D02*
X10741491Y-17745436D01*
X10741491Y-17745436D02*
X10731967Y-17726389D01*
X10731967Y-17726389D02*
X10722444Y-17688293D01*
X10722444Y-17688293D02*
X10722444Y-17640674D01*
X10722444Y-17640674D02*
X10731967Y-17602579D01*
X10731967Y-17602579D02*
X10741491Y-17583531D01*
X10741491Y-17583531D02*
X10751015Y-17574008D01*
X10751015Y-17574008D02*
X10770063Y-17564484D01*
X10960539Y-17564484D02*
X10979586Y-17564484D01*
X10979586Y-17564484D02*
X10998634Y-17574008D01*
X10998634Y-17574008D02*
X11008158Y-17583531D01*
X11008158Y-17583531D02*
X11017682Y-17602579D01*
X11017682Y-17602579D02*
X11027205Y-17640674D01*
X11027205Y-17640674D02*
X11027205Y-17688293D01*
X11027205Y-17688293D02*
X11017682Y-17726389D01*
X11017682Y-17726389D02*
X11008158Y-17745436D01*
X11008158Y-17745436D02*
X10998634Y-17754960D01*
X10998634Y-17754960D02*
X10979586Y-17764484D01*
X10979586Y-17764484D02*
X10960539Y-17764484D01*
X10960539Y-17764484D02*
X10941491Y-17754960D01*
X10941491Y-17754960D02*
X10931967Y-17745436D01*
X10931967Y-17745436D02*
X10922444Y-17726389D01*
X10922444Y-17726389D02*
X10912920Y-17688293D01*
X10912920Y-17688293D02*
X10912920Y-17640674D01*
X10912920Y-17640674D02*
X10922444Y-17602579D01*
X10922444Y-17602579D02*
X10931967Y-17583531D01*
X10931967Y-17583531D02*
X10941491Y-17574008D01*
X10941491Y-17574008D02*
X10960539Y-17564484D01*
X11112920Y-17764484D02*
X11112920Y-17631150D01*
X11112920Y-17650198D02*
X11122444Y-17640674D01*
X11122444Y-17640674D02*
X11141491Y-17631150D01*
X11141491Y-17631150D02*
X11170063Y-17631150D01*
X11170063Y-17631150D02*
X11189110Y-17640674D01*
X11189110Y-17640674D02*
X11198634Y-17659722D01*
X11198634Y-17659722D02*
X11198634Y-17764484D01*
X11198634Y-17659722D02*
X11208158Y-17640674D01*
X11208158Y-17640674D02*
X11227205Y-17631150D01*
X11227205Y-17631150D02*
X11255777Y-17631150D01*
X11255777Y-17631150D02*
X11274824Y-17640674D01*
X11274824Y-17640674D02*
X11284348Y-17659722D01*
X11284348Y-17659722D02*
X11284348Y-17764484D01*
X11379586Y-17764484D02*
X11379586Y-17631150D01*
X11379586Y-17650198D02*
X11389110Y-17640674D01*
X11389110Y-17640674D02*
X11408158Y-17631150D01*
X11408158Y-17631150D02*
X11436729Y-17631150D01*
X11436729Y-17631150D02*
X11455777Y-17640674D01*
X11455777Y-17640674D02*
X11465301Y-17659722D01*
X11465301Y-17659722D02*
X11465301Y-17764484D01*
X11465301Y-17659722D02*
X11474824Y-17640674D01*
X11474824Y-17640674D02*
X11493872Y-17631150D01*
X11493872Y-17631150D02*
X11522443Y-17631150D01*
X11522443Y-17631150D02*
X11541491Y-17640674D01*
X11541491Y-17640674D02*
X11551015Y-17659722D01*
X11551015Y-17659722D02*
X11551015Y-17764484D01*
X11941491Y-17554960D02*
X11770063Y-17812103D01*
X12198634Y-17564484D02*
X12217682Y-17564484D01*
X12217682Y-17564484D02*
X12236729Y-17574008D01*
X12236729Y-17574008D02*
X12246253Y-17583531D01*
X12246253Y-17583531D02*
X12255777Y-17602579D01*
X12255777Y-17602579D02*
X12265301Y-17640674D01*
X12265301Y-17640674D02*
X12265301Y-17688293D01*
X12265301Y-17688293D02*
X12255777Y-17726389D01*
X12255777Y-17726389D02*
X12246253Y-17745436D01*
X12246253Y-17745436D02*
X12236729Y-17754960D01*
X12236729Y-17754960D02*
X12217682Y-17764484D01*
X12217682Y-17764484D02*
X12198634Y-17764484D01*
X12198634Y-17764484D02*
X12179586Y-17754960D01*
X12179586Y-17754960D02*
X12170063Y-17745436D01*
X12170063Y-17745436D02*
X12160539Y-17726389D01*
X12160539Y-17726389D02*
X12151015Y-17688293D01*
X12151015Y-17688293D02*
X12151015Y-17640674D01*
X12151015Y-17640674D02*
X12160539Y-17602579D01*
X12160539Y-17602579D02*
X12170063Y-17583531D01*
X12170063Y-17583531D02*
X12179586Y-17574008D01*
X12179586Y-17574008D02*
X12198634Y-17564484D01*
X12360539Y-17754960D02*
X12360539Y-17764484D01*
X12360539Y-17764484D02*
X12351015Y-17783531D01*
X12351015Y-17783531D02*
X12341491Y-17793055D01*
X12484348Y-17564484D02*
X12503396Y-17564484D01*
X12503396Y-17564484D02*
X12522444Y-17574008D01*
X12522444Y-17574008D02*
X12531967Y-17583531D01*
X12531967Y-17583531D02*
X12541491Y-17602579D01*
X12541491Y-17602579D02*
X12551015Y-17640674D01*
X12551015Y-17640674D02*
X12551015Y-17688293D01*
X12551015Y-17688293D02*
X12541491Y-17726389D01*
X12541491Y-17726389D02*
X12531967Y-17745436D01*
X12531967Y-17745436D02*
X12522444Y-17754960D01*
X12522444Y-17754960D02*
X12503396Y-17764484D01*
X12503396Y-17764484D02*
X12484348Y-17764484D01*
X12484348Y-17764484D02*
X12465301Y-17754960D01*
X12465301Y-17754960D02*
X12455777Y-17745436D01*
X12455777Y-17745436D02*
X12446253Y-17726389D01*
X12446253Y-17726389D02*
X12436729Y-17688293D01*
X12436729Y-17688293D02*
X12436729Y-17640674D01*
X12436729Y-17640674D02*
X12446253Y-17602579D01*
X12446253Y-17602579D02*
X12455777Y-17583531D01*
X12455777Y-17583531D02*
X12465301Y-17574008D01*
X12465301Y-17574008D02*
X12484348Y-17564484D01*
X12617682Y-17564484D02*
X12741491Y-17564484D01*
X12741491Y-17564484D02*
X12674825Y-17640674D01*
X12674825Y-17640674D02*
X12703396Y-17640674D01*
X12703396Y-17640674D02*
X12722444Y-17650198D01*
X12722444Y-17650198D02*
X12731967Y-17659722D01*
X12731967Y-17659722D02*
X12741491Y-17678770D01*
X12741491Y-17678770D02*
X12741491Y-17726389D01*
X12741491Y-17726389D02*
X12731967Y-17745436D01*
X12731967Y-17745436D02*
X12722444Y-17754960D01*
X12722444Y-17754960D02*
X12703396Y-17764484D01*
X12703396Y-17764484D02*
X12646253Y-17764484D01*
X12646253Y-17764484D02*
X12627206Y-17754960D01*
X12627206Y-17754960D02*
X12617682Y-17745436D01*
X12836729Y-17764484D02*
X12874825Y-17764484D01*
X12874825Y-17764484D02*
X12893872Y-17754960D01*
X12893872Y-17754960D02*
X12903396Y-17745436D01*
X12903396Y-17745436D02*
X12922444Y-17716865D01*
X12922444Y-17716865D02*
X12931967Y-17678770D01*
X12931967Y-17678770D02*
X12931967Y-17602579D01*
X12931967Y-17602579D02*
X12922444Y-17583531D01*
X12922444Y-17583531D02*
X12912920Y-17574008D01*
X12912920Y-17574008D02*
X12893872Y-17564484D01*
X12893872Y-17564484D02*
X12855777Y-17564484D01*
X12855777Y-17564484D02*
X12836729Y-17574008D01*
X12836729Y-17574008D02*
X12827206Y-17583531D01*
X12827206Y-17583531D02*
X12817682Y-17602579D01*
X12817682Y-17602579D02*
X12817682Y-17650198D01*
X12817682Y-17650198D02*
X12827206Y-17669246D01*
X12827206Y-17669246D02*
X12836729Y-17678770D01*
X12836729Y-17678770D02*
X12855777Y-17688293D01*
X12855777Y-17688293D02*
X12893872Y-17688293D01*
X12893872Y-17688293D02*
X12912920Y-17678770D01*
X12912920Y-17678770D02*
X12922444Y-17669246D01*
X12922444Y-17669246D02*
X12931967Y-17650198D01*
X13103396Y-17631150D02*
X13103396Y-17764484D01*
X13055777Y-17554960D02*
X13008158Y-17697817D01*
X13008158Y-17697817D02*
X13131967Y-17697817D01*
X13198634Y-17564484D02*
X13198634Y-17602579D01*
X13274825Y-17564484D02*
X13274825Y-17602579D01*
X13570063Y-17840674D02*
X13560539Y-17831150D01*
X13560539Y-17831150D02*
X13541491Y-17802579D01*
X13541491Y-17802579D02*
X13531968Y-17783531D01*
X13531968Y-17783531D02*
X13522444Y-17754960D01*
X13522444Y-17754960D02*
X13512920Y-17707341D01*
X13512920Y-17707341D02*
X13512920Y-17669246D01*
X13512920Y-17669246D02*
X13522444Y-17621627D01*
X13522444Y-17621627D02*
X13531968Y-17593055D01*
X13531968Y-17593055D02*
X13541491Y-17574008D01*
X13541491Y-17574008D02*
X13560539Y-17545436D01*
X13560539Y-17545436D02*
X13570063Y-17535912D01*
X13731968Y-17564484D02*
X13693872Y-17564484D01*
X13693872Y-17564484D02*
X13674825Y-17574008D01*
X13674825Y-17574008D02*
X13665301Y-17583531D01*
X13665301Y-17583531D02*
X13646253Y-17612103D01*
X13646253Y-17612103D02*
X13636729Y-17650198D01*
X13636729Y-17650198D02*
X13636729Y-17726389D01*
X13636729Y-17726389D02*
X13646253Y-17745436D01*
X13646253Y-17745436D02*
X13655777Y-17754960D01*
X13655777Y-17754960D02*
X13674825Y-17764484D01*
X13674825Y-17764484D02*
X13712920Y-17764484D01*
X13712920Y-17764484D02*
X13731968Y-17754960D01*
X13731968Y-17754960D02*
X13741491Y-17745436D01*
X13741491Y-17745436D02*
X13751015Y-17726389D01*
X13751015Y-17726389D02*
X13751015Y-17678770D01*
X13751015Y-17678770D02*
X13741491Y-17659722D01*
X13741491Y-17659722D02*
X13731968Y-17650198D01*
X13731968Y-17650198D02*
X13712920Y-17640674D01*
X13712920Y-17640674D02*
X13674825Y-17640674D01*
X13674825Y-17640674D02*
X13655777Y-17650198D01*
X13655777Y-17650198D02*
X13646253Y-17659722D01*
X13646253Y-17659722D02*
X13636729Y-17678770D01*
X13989110Y-17764484D02*
X13989110Y-17564484D01*
X14074825Y-17764484D02*
X14074825Y-17659722D01*
X14074825Y-17659722D02*
X14065301Y-17640674D01*
X14065301Y-17640674D02*
X14046253Y-17631150D01*
X14046253Y-17631150D02*
X14017682Y-17631150D01*
X14017682Y-17631150D02*
X13998634Y-17640674D01*
X13998634Y-17640674D02*
X13989110Y-17650198D01*
X14198634Y-17764484D02*
X14179587Y-17754960D01*
X14179587Y-17754960D02*
X14170063Y-17745436D01*
X14170063Y-17745436D02*
X14160539Y-17726389D01*
X14160539Y-17726389D02*
X14160539Y-17669246D01*
X14160539Y-17669246D02*
X14170063Y-17650198D01*
X14170063Y-17650198D02*
X14179587Y-17640674D01*
X14179587Y-17640674D02*
X14198634Y-17631150D01*
X14198634Y-17631150D02*
X14227206Y-17631150D01*
X14227206Y-17631150D02*
X14246253Y-17640674D01*
X14246253Y-17640674D02*
X14255777Y-17650198D01*
X14255777Y-17650198D02*
X14265301Y-17669246D01*
X14265301Y-17669246D02*
X14265301Y-17726389D01*
X14265301Y-17726389D02*
X14255777Y-17745436D01*
X14255777Y-17745436D02*
X14246253Y-17754960D01*
X14246253Y-17754960D02*
X14227206Y-17764484D01*
X14227206Y-17764484D02*
X14198634Y-17764484D01*
X14379587Y-17764484D02*
X14360539Y-17754960D01*
X14360539Y-17754960D02*
X14351015Y-17735912D01*
X14351015Y-17735912D02*
X14351015Y-17564484D01*
X14531968Y-17754960D02*
X14512920Y-17764484D01*
X14512920Y-17764484D02*
X14474825Y-17764484D01*
X14474825Y-17764484D02*
X14455777Y-17754960D01*
X14455777Y-17754960D02*
X14446253Y-17735912D01*
X14446253Y-17735912D02*
X14446253Y-17659722D01*
X14446253Y-17659722D02*
X14455777Y-17640674D01*
X14455777Y-17640674D02*
X14474825Y-17631150D01*
X14474825Y-17631150D02*
X14512920Y-17631150D01*
X14512920Y-17631150D02*
X14531968Y-17640674D01*
X14531968Y-17640674D02*
X14541491Y-17659722D01*
X14541491Y-17659722D02*
X14541491Y-17678770D01*
X14541491Y-17678770D02*
X14446253Y-17697817D01*
X14617682Y-17754960D02*
X14636730Y-17764484D01*
X14636730Y-17764484D02*
X14674825Y-17764484D01*
X14674825Y-17764484D02*
X14693872Y-17754960D01*
X14693872Y-17754960D02*
X14703396Y-17735912D01*
X14703396Y-17735912D02*
X14703396Y-17726389D01*
X14703396Y-17726389D02*
X14693872Y-17707341D01*
X14693872Y-17707341D02*
X14674825Y-17697817D01*
X14674825Y-17697817D02*
X14646253Y-17697817D01*
X14646253Y-17697817D02*
X14627206Y-17688293D01*
X14627206Y-17688293D02*
X14617682Y-17669246D01*
X14617682Y-17669246D02*
X14617682Y-17659722D01*
X14617682Y-17659722D02*
X14627206Y-17640674D01*
X14627206Y-17640674D02*
X14646253Y-17631150D01*
X14646253Y-17631150D02*
X14674825Y-17631150D01*
X14674825Y-17631150D02*
X14693872Y-17640674D01*
X14770063Y-17840674D02*
X14779587Y-17831150D01*
X14779587Y-17831150D02*
X14798634Y-17802579D01*
X14798634Y-17802579D02*
X14808158Y-17783531D01*
X14808158Y-17783531D02*
X14817682Y-17754960D01*
X14817682Y-17754960D02*
X14827206Y-17707341D01*
X14827206Y-17707341D02*
X14827206Y-17669246D01*
X14827206Y-17669246D02*
X14817682Y-17621627D01*
X14817682Y-17621627D02*
X14808158Y-17593055D01*
X14808158Y-17593055D02*
X14798634Y-17574008D01*
X14798634Y-17574008D02*
X14779587Y-17545436D01*
X14779587Y-17545436D02*
X14770063Y-17535912D01*
M02*
