%TF.GenerationSoftware,KiCad,Pcbnew,10.0.3*%
%TF.CreationDate,2026-07-11T14:04:23+02:00*%
%TF.ProjectId,musicbrain-jack4,6d757369-6362-4726-9169-6e2d6a61636b,1.2*%
%TF.SameCoordinates,Original*%
%TF.FileFunction,Copper,L1,Top*%
%TF.FilePolarity,Positive*%
%FSLAX46Y46*%
G04 Gerber Fmt 4.6, Leading zero omitted, Abs format (unit mm)*
G04 Created by KiCad (PCBNEW 10.0.3) date 2026-07-11 14:04:23*
%MOMM*%
%LPD*%
G01*
G04 APERTURE LIST*
G04 Aperture macros list*
%AMRoundRect*
0 Rectangle with rounded corners*
0 $1 Rounding radius*
0 $2 $3 $4 $5 $6 $7 $8 $9 X,Y pos of 4 corners*
0 Add a 4 corners polygon primitive as box body*
4,1,4,$2,$3,$4,$5,$6,$7,$8,$9,$2,$3,0*
0 Add four circle primitives for the rounded corners*
1,1,$1+$1,$2,$3*
1,1,$1+$1,$4,$5*
1,1,$1+$1,$6,$7*
1,1,$1+$1,$8,$9*
0 Add four rect primitives between the rounded corners*
20,1,$1+$1,$2,$3,$4,$5,0*
20,1,$1+$1,$4,$5,$6,$7,0*
20,1,$1+$1,$6,$7,$8,$9,0*
20,1,$1+$1,$8,$9,$2,$3,0*%
%AMFreePoly0*
4,1,5,0.500000,-0.750000,-0.500000,-0.750000,-0.500000,0.750000,0.500000,0.750000,0.500000,-0.750000,0.500000,-0.750000,$1*%
G04 Aperture macros list end*
%TA.AperFunction,ComponentPad*%
%ADD10RoundRect,0.650000X-0.650000X-0.650000X0.650000X-0.650000X0.650000X0.650000X-0.650000X0.650000X0*%
%TD*%
%TA.AperFunction,ComponentPad*%
%ADD11O,3.100000X2.300000*%
%TD*%
%TA.AperFunction,ComponentPad*%
%ADD12R,1.700000X1.700000*%
%TD*%
%TA.AperFunction,ComponentPad*%
%ADD13O,1.700000X1.700000*%
%TD*%
%TA.AperFunction,SMDPad,CuDef*%
%ADD14FreePoly0,0.000000*%
%TD*%
%TA.AperFunction,ViaPad*%
%ADD15C,0.500000*%
%TD*%
%TA.AperFunction,Conductor*%
%ADD16C,0.250000*%
%TD*%
%TA.AperFunction,Conductor*%
%ADD17C,0.300000*%
%TD*%
G04 APERTURE END LIST*
D10*
%TO.P,J2,1*%
%TO.N,/CH1*%
X108000000Y-103080000D03*
D11*
%TO.P,J2,2*%
%TO.N,GND*%
X108000000Y-114480000D03*
D10*
%TO.P,J2,3*%
%TO.N,/NORM*%
X108000000Y-111380000D03*
%TD*%
%TO.P,J3,1*%
%TO.N,/CH2*%
X108000000Y-118080000D03*
D11*
%TO.P,J3,2*%
%TO.N,GND*%
X108000000Y-129480000D03*
D10*
%TO.P,J3,3*%
%TO.N,/NORM*%
X108000000Y-126380000D03*
%TD*%
%TO.P,J4,1*%
%TO.N,/CH3*%
X108000000Y-133080000D03*
D11*
%TO.P,J4,2*%
%TO.N,GND*%
X108000000Y-144480000D03*
D10*
%TO.P,J4,3*%
%TO.N,/NORM*%
X108000000Y-141380000D03*
%TD*%
%TO.P,J5,1*%
%TO.N,/CH4*%
X108000000Y-148080000D03*
D11*
%TO.P,J5,2*%
%TO.N,GND*%
X108000000Y-159480000D03*
D10*
%TO.P,J5,3*%
%TO.N,/NORM*%
X108000000Y-156380000D03*
%TD*%
D12*
%TO.P,J1,1*%
%TO.N,GND*%
X116500000Y-143570000D03*
D13*
%TO.P,J1,2*%
%TO.N,/CH1*%
X116500000Y-146110000D03*
%TO.P,J1,3*%
%TO.N,/CH2*%
X116500000Y-148650000D03*
%TO.P,J1,4*%
%TO.N,/CH3*%
X116500000Y-151190000D03*
%TO.P,J1,5*%
%TO.N,/CH4*%
X116500000Y-153730000D03*
%TO.P,J1,6*%
%TO.N,GND*%
X116500000Y-156270000D03*
%TD*%
D14*
%TO.P,JP1,1*%
%TO.N,/NORM*%
X102850000Y-162000000D03*
%TO.P,JP1,2*%
%TO.N,GND*%
X104150000Y-162000000D03*
%TD*%
D15*
%TO.N,GND*%
X102000000Y-102000000D03*
X118000000Y-102000000D03*
X102000000Y-163200000D03*
X118000000Y-163000000D03*
X118000000Y-132500000D03*
%TD*%
%TO.N,/CH1*%
D16*
X116500000Y-146110000D02*
X111550000Y-146110000D01*
X111550000Y-146110000D02*
X111550000Y-103080000D01*
X111550000Y-103080000D02*
X108000000Y-103080000D01*
%TO.N,/CH2*%
X116500000Y-148650000D02*
X111050000Y-148650000D01*
X111050000Y-148650000D02*
X111050000Y-118080000D01*
X111050000Y-118080000D02*
X108000000Y-118080000D01*
%TO.N,/CH3*%
X116500000Y-151190000D02*
X110550000Y-151190000D01*
X110550000Y-151190000D02*
X110550000Y-133080000D01*
X110550000Y-133080000D02*
X108000000Y-133080000D01*
%TO.N,/CH4*%
X116500000Y-153730000D02*
X110050000Y-153730000D01*
X110050000Y-153730000D02*
X110050000Y-148080000D01*
X110050000Y-148080000D02*
X108000000Y-148080000D01*
%TO.N,/NORM*%
D17*
X108000000Y-111380000D02*
X103500000Y-111380000D01*
X103500000Y-111380000D02*
X103500000Y-159000000D01*
X103500000Y-159000000D02*
X102850000Y-159000000D01*
X102850000Y-159000000D02*
X102850000Y-162000000D01*
X108000000Y-126380000D02*
X103500000Y-126380000D01*
X108000000Y-141380000D02*
X103500000Y-141380000D01*
X108000000Y-156380000D02*
X103500000Y-156380000D01*
%TD*%
%TA.AperFunction,Conductor*%
%TO.N,GND*%
G36*
X119458691Y-100519407D02*
G01*
X119494655Y-100568907D01*
X119499500Y-100599500D01*
X119499500Y-164400500D01*
X119480593Y-164458691D01*
X119431093Y-164494655D01*
X119400500Y-164499500D01*
X100599500Y-164499500D01*
X100541309Y-164480593D01*
X100505345Y-164431093D01*
X100500500Y-164400500D01*
X100500500Y-161249999D01*
X102044500Y-161249999D01*
X102044500Y-162750004D01*
X102045802Y-162778183D01*
X102045802Y-162778186D01*
X102045803Y-162778188D01*
X102076528Y-162886173D01*
X102144186Y-162975767D01*
X102239641Y-163034870D01*
X102350000Y-163055500D01*
X103350005Y-163055500D01*
X103364094Y-163054848D01*
X103378188Y-163054197D01*
X103486173Y-163023472D01*
X103575767Y-162955814D01*
X103634870Y-162860359D01*
X103655500Y-162750000D01*
X103655500Y-161250000D01*
X103654197Y-161221812D01*
X103623472Y-161113827D01*
X103555814Y-161024233D01*
X103555811Y-161024231D01*
X103460358Y-160965129D01*
X103381309Y-160950352D01*
X103327583Y-160921074D01*
X103301327Y-160865809D01*
X103300500Y-160853038D01*
X103300500Y-159549500D01*
X103319407Y-159491309D01*
X103368907Y-159455345D01*
X103399500Y-159450500D01*
X103559307Y-159450500D01*
X103559309Y-159450500D01*
X103673886Y-159419799D01*
X103673888Y-159419797D01*
X103673890Y-159419797D01*
X103776608Y-159360492D01*
X103776608Y-159360491D01*
X103776613Y-159360489D01*
X103860489Y-159276613D01*
X103919799Y-159173886D01*
X103950500Y-159059309D01*
X103950500Y-156929500D01*
X103969407Y-156871309D01*
X104018907Y-156835345D01*
X104049500Y-156830500D01*
X106300500Y-156830500D01*
X106358691Y-156849407D01*
X106394655Y-156898907D01*
X106399500Y-156929500D01*
X106399500Y-157085134D01*
X106409583Y-157198554D01*
X106462761Y-157384399D01*
X106462763Y-157384406D01*
X106552264Y-157555748D01*
X106674426Y-157705568D01*
X106674429Y-157705571D01*
X106824249Y-157827734D01*
X106995594Y-157917237D01*
X107181448Y-157970417D01*
X107294862Y-157980500D01*
X107294866Y-157980500D01*
X108705134Y-157980500D01*
X108705138Y-157980500D01*
X108818552Y-157970417D01*
X109004406Y-157917237D01*
X109175751Y-157827734D01*
X109325571Y-157705571D01*
X109447734Y-157555751D01*
X109537237Y-157384406D01*
X109590417Y-157198552D01*
X109600500Y-157085138D01*
X109600500Y-155674862D01*
X109590417Y-155561448D01*
X109537237Y-155375594D01*
X109447734Y-155204249D01*
X109325571Y-155054429D01*
X109325568Y-155054426D01*
X109242597Y-154986772D01*
X109175751Y-154932266D01*
X109175749Y-154932265D01*
X109175748Y-154932264D01*
X109004406Y-154842763D01*
X109004399Y-154842761D01*
X108818554Y-154789583D01*
X108780747Y-154786222D01*
X108705138Y-154779500D01*
X107294862Y-154779500D01*
X107230054Y-154785261D01*
X107181445Y-154789583D01*
X106995600Y-154842761D01*
X106995593Y-154842763D01*
X106824251Y-154932264D01*
X106674431Y-155054426D01*
X106674426Y-155054431D01*
X106552264Y-155204251D01*
X106462763Y-155375593D01*
X106462761Y-155375600D01*
X106409583Y-155561445D01*
X106399500Y-155674865D01*
X106399500Y-155830500D01*
X106380593Y-155888691D01*
X106331093Y-155924655D01*
X106300500Y-155929500D01*
X104049500Y-155929500D01*
X103991309Y-155910593D01*
X103955345Y-155861093D01*
X103950500Y-155830500D01*
X103950500Y-141929500D01*
X103969407Y-141871309D01*
X104018907Y-141835345D01*
X104049500Y-141830500D01*
X106300500Y-141830500D01*
X106358691Y-141849407D01*
X106394655Y-141898907D01*
X106399500Y-141929500D01*
X106399500Y-142085134D01*
X106409583Y-142198554D01*
X106462761Y-142384399D01*
X106462763Y-142384406D01*
X106552264Y-142555748D01*
X106674426Y-142705568D01*
X106674429Y-142705571D01*
X106824249Y-142827734D01*
X106995594Y-142917237D01*
X107181448Y-142970417D01*
X107294862Y-142980500D01*
X107294866Y-142980500D01*
X108705134Y-142980500D01*
X108705138Y-142980500D01*
X108818552Y-142970417D01*
X109004406Y-142917237D01*
X109175751Y-142827734D01*
X109325571Y-142705571D01*
X109447734Y-142555751D01*
X109537237Y-142384406D01*
X109590417Y-142198552D01*
X109600500Y-142085138D01*
X109600500Y-140674862D01*
X109590417Y-140561448D01*
X109537237Y-140375594D01*
X109447734Y-140204249D01*
X109325571Y-140054429D01*
X109325568Y-140054426D01*
X109242597Y-139986772D01*
X109175751Y-139932266D01*
X109175749Y-139932265D01*
X109175748Y-139932264D01*
X109004406Y-139842763D01*
X109004399Y-139842761D01*
X108818554Y-139789583D01*
X108780747Y-139786222D01*
X108705138Y-139779500D01*
X107294862Y-139779500D01*
X107230054Y-139785261D01*
X107181445Y-139789583D01*
X106995600Y-139842761D01*
X106995593Y-139842763D01*
X106824251Y-139932264D01*
X106674431Y-140054426D01*
X106674426Y-140054431D01*
X106552264Y-140204251D01*
X106462763Y-140375593D01*
X106462761Y-140375600D01*
X106409583Y-140561445D01*
X106399500Y-140674865D01*
X106399500Y-140830500D01*
X106380593Y-140888691D01*
X106331093Y-140924655D01*
X106300500Y-140929500D01*
X104049500Y-140929500D01*
X103991309Y-140910593D01*
X103955345Y-140861093D01*
X103950500Y-140830500D01*
X103950500Y-126929500D01*
X103969407Y-126871309D01*
X104018907Y-126835345D01*
X104049500Y-126830500D01*
X106300500Y-126830500D01*
X106358691Y-126849407D01*
X106394655Y-126898907D01*
X106399500Y-126929500D01*
X106399500Y-127085134D01*
X106409583Y-127198554D01*
X106462761Y-127384399D01*
X106462763Y-127384406D01*
X106552264Y-127555748D01*
X106674426Y-127705568D01*
X106674429Y-127705571D01*
X106824249Y-127827734D01*
X106995594Y-127917237D01*
X107181448Y-127970417D01*
X107294862Y-127980500D01*
X107294866Y-127980500D01*
X108705134Y-127980500D01*
X108705138Y-127980500D01*
X108818552Y-127970417D01*
X109004406Y-127917237D01*
X109175751Y-127827734D01*
X109325571Y-127705571D01*
X109447734Y-127555751D01*
X109537237Y-127384406D01*
X109590417Y-127198552D01*
X109600500Y-127085138D01*
X109600500Y-125674862D01*
X109590417Y-125561448D01*
X109537237Y-125375594D01*
X109447734Y-125204249D01*
X109325571Y-125054429D01*
X109325568Y-125054426D01*
X109242597Y-124986772D01*
X109175751Y-124932266D01*
X109175749Y-124932265D01*
X109175748Y-124932264D01*
X109004406Y-124842763D01*
X109004399Y-124842761D01*
X108818554Y-124789583D01*
X108780747Y-124786222D01*
X108705138Y-124779500D01*
X107294862Y-124779500D01*
X107230054Y-124785261D01*
X107181445Y-124789583D01*
X106995600Y-124842761D01*
X106995593Y-124842763D01*
X106824251Y-124932264D01*
X106674431Y-125054426D01*
X106674426Y-125054431D01*
X106552264Y-125204251D01*
X106462763Y-125375593D01*
X106462761Y-125375600D01*
X106409583Y-125561445D01*
X106399500Y-125674865D01*
X106399500Y-125830500D01*
X106380593Y-125888691D01*
X106331093Y-125924655D01*
X106300500Y-125929500D01*
X104049500Y-125929500D01*
X103991309Y-125910593D01*
X103955345Y-125861093D01*
X103950500Y-125830500D01*
X103950500Y-111929500D01*
X103969407Y-111871309D01*
X104018907Y-111835345D01*
X104049500Y-111830500D01*
X106300500Y-111830500D01*
X106358691Y-111849407D01*
X106394655Y-111898907D01*
X106399500Y-111929500D01*
X106399500Y-112085134D01*
X106409583Y-112198554D01*
X106462761Y-112384399D01*
X106462763Y-112384406D01*
X106552264Y-112555748D01*
X106674426Y-112705568D01*
X106674429Y-112705571D01*
X106824249Y-112827734D01*
X106995594Y-112917237D01*
X107181448Y-112970417D01*
X107294862Y-112980500D01*
X107294866Y-112980500D01*
X108705134Y-112980500D01*
X108705138Y-112980500D01*
X108818552Y-112970417D01*
X109004406Y-112917237D01*
X109175751Y-112827734D01*
X109325571Y-112705571D01*
X109447734Y-112555751D01*
X109537237Y-112384406D01*
X109590417Y-112198552D01*
X109600500Y-112085138D01*
X109600500Y-110674862D01*
X109590417Y-110561448D01*
X109537237Y-110375594D01*
X109447734Y-110204249D01*
X109325571Y-110054429D01*
X109325568Y-110054426D01*
X109242597Y-109986772D01*
X109175751Y-109932266D01*
X109175749Y-109932265D01*
X109175748Y-109932264D01*
X109004406Y-109842763D01*
X109004399Y-109842761D01*
X108818554Y-109789583D01*
X108780747Y-109786222D01*
X108705138Y-109779500D01*
X107294862Y-109779500D01*
X107230054Y-109785261D01*
X107181445Y-109789583D01*
X106995600Y-109842761D01*
X106995593Y-109842763D01*
X106824251Y-109932264D01*
X106674431Y-110054426D01*
X106674426Y-110054431D01*
X106552264Y-110204251D01*
X106462763Y-110375593D01*
X106462761Y-110375600D01*
X106409583Y-110561445D01*
X106399500Y-110674865D01*
X106399500Y-110830500D01*
X106380593Y-110888691D01*
X106331093Y-110924655D01*
X106300500Y-110929500D01*
X103559309Y-110929500D01*
X103440691Y-110929500D01*
X103370567Y-110948289D01*
X103326109Y-110960202D01*
X103223391Y-111019507D01*
X103139507Y-111103391D01*
X103080202Y-111206109D01*
X103049500Y-111320692D01*
X103049500Y-158450500D01*
X103030593Y-158508691D01*
X102981093Y-158544655D01*
X102950500Y-158549500D01*
X102909309Y-158549500D01*
X102790691Y-158549500D01*
X102720567Y-158568289D01*
X102676109Y-158580202D01*
X102573391Y-158639507D01*
X102489507Y-158723391D01*
X102430202Y-158826109D01*
X102399500Y-158940692D01*
X102399500Y-160848970D01*
X102380593Y-160907161D01*
X102331093Y-160943125D01*
X102327266Y-160944059D01*
X102327317Y-160944237D01*
X102321813Y-160945802D01*
X102321812Y-160945803D01*
X102265608Y-160961794D01*
X102213826Y-160976528D01*
X102124233Y-161044185D01*
X102124231Y-161044188D01*
X102065129Y-161139641D01*
X102044500Y-161249999D01*
X100500500Y-161249999D01*
X100500500Y-102374865D01*
X106399500Y-102374865D01*
X106399500Y-103785134D01*
X106409583Y-103898554D01*
X106462761Y-104084399D01*
X106462763Y-104084406D01*
X106552264Y-104255748D01*
X106674426Y-104405568D01*
X106674429Y-104405571D01*
X106824249Y-104527734D01*
X106995594Y-104617237D01*
X107181448Y-104670417D01*
X107294862Y-104680500D01*
X107294866Y-104680500D01*
X108705134Y-104680500D01*
X108705138Y-104680500D01*
X108818552Y-104670417D01*
X109004406Y-104617237D01*
X109175751Y-104527734D01*
X109325571Y-104405571D01*
X109447734Y-104255751D01*
X109537237Y-104084406D01*
X109590417Y-103898552D01*
X109600500Y-103785138D01*
X109600500Y-103604500D01*
X109619407Y-103546309D01*
X109668907Y-103510345D01*
X109699500Y-103505500D01*
X111025500Y-103505500D01*
X111083691Y-103524407D01*
X111119655Y-103573907D01*
X111124500Y-103604500D01*
X111124500Y-117555500D01*
X111105593Y-117613691D01*
X111056093Y-117649655D01*
X111025500Y-117654500D01*
X109699500Y-117654500D01*
X109641309Y-117635593D01*
X109605345Y-117586093D01*
X109600500Y-117555500D01*
X109600500Y-117374865D01*
X109600500Y-117374862D01*
X109590417Y-117261448D01*
X109537237Y-117075594D01*
X109447734Y-116904249D01*
X109325571Y-116754429D01*
X109325568Y-116754426D01*
X109242597Y-116686772D01*
X109175751Y-116632266D01*
X109175749Y-116632265D01*
X109175748Y-116632264D01*
X109004406Y-116542763D01*
X109004399Y-116542761D01*
X108818554Y-116489583D01*
X108780747Y-116486222D01*
X108705138Y-116479500D01*
X107294862Y-116479500D01*
X107230054Y-116485261D01*
X107181445Y-116489583D01*
X106995600Y-116542761D01*
X106995593Y-116542763D01*
X106824251Y-116632264D01*
X106674431Y-116754426D01*
X106674426Y-116754431D01*
X106552264Y-116904251D01*
X106462763Y-117075593D01*
X106462761Y-117075600D01*
X106409583Y-117261445D01*
X106399500Y-117374865D01*
X106399500Y-118785134D01*
X106409583Y-118898554D01*
X106462761Y-119084399D01*
X106462763Y-119084406D01*
X106552264Y-119255748D01*
X106674426Y-119405568D01*
X106674429Y-119405571D01*
X106824249Y-119527734D01*
X106995594Y-119617237D01*
X107181448Y-119670417D01*
X107294862Y-119680500D01*
X107294866Y-119680500D01*
X108705134Y-119680500D01*
X108705138Y-119680500D01*
X108818552Y-119670417D01*
X109004406Y-119617237D01*
X109175751Y-119527734D01*
X109325571Y-119405571D01*
X109447734Y-119255751D01*
X109537237Y-119084406D01*
X109590417Y-118898552D01*
X109600500Y-118785138D01*
X109600500Y-118604500D01*
X109619407Y-118546309D01*
X109668907Y-118510345D01*
X109699500Y-118505500D01*
X110525500Y-118505500D01*
X110583691Y-118524407D01*
X110619655Y-118573907D01*
X110624500Y-118604500D01*
X110624500Y-132555500D01*
X110605593Y-132613691D01*
X110556093Y-132649655D01*
X110525500Y-132654500D01*
X109699500Y-132654500D01*
X109641309Y-132635593D01*
X109605345Y-132586093D01*
X109600500Y-132555500D01*
X109600500Y-132374865D01*
X109600500Y-132374862D01*
X109590417Y-132261448D01*
X109537237Y-132075594D01*
X109447734Y-131904249D01*
X109325571Y-131754429D01*
X109325568Y-131754426D01*
X109242597Y-131686772D01*
X109175751Y-131632266D01*
X109175749Y-131632265D01*
X109175748Y-131632264D01*
X109004406Y-131542763D01*
X109004399Y-131542761D01*
X108818554Y-131489583D01*
X108780747Y-131486222D01*
X108705138Y-131479500D01*
X107294862Y-131479500D01*
X107230054Y-131485261D01*
X107181445Y-131489583D01*
X106995600Y-131542761D01*
X106995593Y-131542763D01*
X106824251Y-131632264D01*
X106674431Y-131754426D01*
X106674426Y-131754431D01*
X106552264Y-131904251D01*
X106462763Y-132075593D01*
X106462761Y-132075600D01*
X106409583Y-132261445D01*
X106399500Y-132374865D01*
X106399500Y-133785134D01*
X106409583Y-133898554D01*
X106462761Y-134084399D01*
X106462763Y-134084406D01*
X106552264Y-134255748D01*
X106674426Y-134405568D01*
X106674429Y-134405571D01*
X106824249Y-134527734D01*
X106995594Y-134617237D01*
X107181448Y-134670417D01*
X107294862Y-134680500D01*
X107294866Y-134680500D01*
X108705134Y-134680500D01*
X108705138Y-134680500D01*
X108818552Y-134670417D01*
X109004406Y-134617237D01*
X109175751Y-134527734D01*
X109325571Y-134405571D01*
X109447734Y-134255751D01*
X109537237Y-134084406D01*
X109590417Y-133898552D01*
X109600500Y-133785138D01*
X109600500Y-133604500D01*
X109619407Y-133546309D01*
X109668907Y-133510345D01*
X109699500Y-133505500D01*
X110025500Y-133505500D01*
X110083691Y-133524407D01*
X110119655Y-133573907D01*
X110124500Y-133604500D01*
X110124500Y-147555500D01*
X110105593Y-147613691D01*
X110056093Y-147649655D01*
X110025500Y-147654500D01*
X109699500Y-147654500D01*
X109641309Y-147635593D01*
X109605345Y-147586093D01*
X109600500Y-147555500D01*
X109600500Y-147374865D01*
X109600500Y-147374862D01*
X109590417Y-147261448D01*
X109537237Y-147075594D01*
X109447734Y-146904249D01*
X109325571Y-146754429D01*
X109325568Y-146754426D01*
X109242597Y-146686772D01*
X109175751Y-146632266D01*
X109175749Y-146632265D01*
X109175748Y-146632264D01*
X109004406Y-146542763D01*
X109004399Y-146542761D01*
X108818554Y-146489583D01*
X108780747Y-146486222D01*
X108705138Y-146479500D01*
X107294862Y-146479500D01*
X107230054Y-146485261D01*
X107181445Y-146489583D01*
X106995600Y-146542761D01*
X106995593Y-146542763D01*
X106824251Y-146632264D01*
X106674431Y-146754426D01*
X106674426Y-146754431D01*
X106552264Y-146904251D01*
X106462763Y-147075593D01*
X106462761Y-147075600D01*
X106409583Y-147261445D01*
X106399500Y-147374865D01*
X106399500Y-148785134D01*
X106409583Y-148898554D01*
X106462761Y-149084399D01*
X106462763Y-149084406D01*
X106550825Y-149252994D01*
X106552266Y-149255751D01*
X106602239Y-149317037D01*
X106674426Y-149405568D01*
X106674429Y-149405571D01*
X106824249Y-149527734D01*
X106995594Y-149617237D01*
X107181448Y-149670417D01*
X107294862Y-149680500D01*
X107294866Y-149680500D01*
X108705134Y-149680500D01*
X108705138Y-149680500D01*
X108818552Y-149670417D01*
X109004406Y-149617237D01*
X109175751Y-149527734D01*
X109325571Y-149405571D01*
X109447734Y-149255751D01*
X109447736Y-149255746D01*
X109448773Y-149254475D01*
X109500200Y-149221324D01*
X109561290Y-149224733D01*
X109608710Y-149263398D01*
X109624500Y-149317037D01*
X109624500Y-153786018D01*
X109650072Y-153881455D01*
X109653498Y-153894241D01*
X109709513Y-153991260D01*
X109709515Y-153991263D01*
X109788737Y-154070485D01*
X109788739Y-154070486D01*
X109885759Y-154126501D01*
X109885757Y-154126501D01*
X109885761Y-154126502D01*
X109885763Y-154126503D01*
X109993982Y-154155500D01*
X110106018Y-154155500D01*
X115364899Y-154155500D01*
X115423090Y-154174407D01*
X115453107Y-154209552D01*
X115516004Y-154332994D01*
X115622447Y-154479501D01*
X115750499Y-154607553D01*
X115897006Y-154713996D01*
X116058361Y-154796211D01*
X116230591Y-154852171D01*
X116302136Y-154863502D01*
X116409451Y-154880500D01*
X116409454Y-154880500D01*
X116590549Y-154880500D01*
X116679977Y-154866335D01*
X116769409Y-154852171D01*
X116941639Y-154796211D01*
X117102994Y-154713996D01*
X117249501Y-154607553D01*
X117377553Y-154479501D01*
X117483996Y-154332994D01*
X117566211Y-154171639D01*
X117622171Y-153999409D01*
X117650500Y-153820546D01*
X117650500Y-153639454D01*
X117650500Y-153639450D01*
X117622171Y-153460593D01*
X117622171Y-153460591D01*
X117566211Y-153288361D01*
X117483996Y-153127006D01*
X117377553Y-152980499D01*
X117249501Y-152852447D01*
X117102994Y-152746004D01*
X117102993Y-152746003D01*
X117102991Y-152746002D01*
X116941637Y-152663788D01*
X116769406Y-152607828D01*
X116590549Y-152579500D01*
X116590546Y-152579500D01*
X116409454Y-152579500D01*
X116409451Y-152579500D01*
X116230593Y-152607828D01*
X116058362Y-152663788D01*
X115897008Y-152746002D01*
X115823752Y-152799225D01*
X115750499Y-152852447D01*
X115622447Y-152980499D01*
X115569225Y-153053752D01*
X115516002Y-153127008D01*
X115479529Y-153198590D01*
X115453107Y-153250446D01*
X115409844Y-153293710D01*
X115364899Y-153304500D01*
X110574500Y-153304500D01*
X110516309Y-153285593D01*
X110480345Y-153236093D01*
X110475500Y-153205500D01*
X110475500Y-151714500D01*
X110494407Y-151656309D01*
X110543907Y-151620345D01*
X110574500Y-151615500D01*
X110606018Y-151615500D01*
X115364899Y-151615500D01*
X115423090Y-151634407D01*
X115453107Y-151669552D01*
X115516004Y-151792994D01*
X115622447Y-151939501D01*
X115750499Y-152067553D01*
X115897006Y-152173996D01*
X116058361Y-152256211D01*
X116230591Y-152312171D01*
X116302136Y-152323502D01*
X116409451Y-152340500D01*
X116409454Y-152340500D01*
X116590549Y-152340500D01*
X116679977Y-152326335D01*
X116769409Y-152312171D01*
X116941639Y-152256211D01*
X117102994Y-152173996D01*
X117249501Y-152067553D01*
X117377553Y-151939501D01*
X117483996Y-151792994D01*
X117566211Y-151631639D01*
X117622171Y-151459409D01*
X117650500Y-151280546D01*
X117650500Y-151099454D01*
X117650500Y-151099450D01*
X117622171Y-150920593D01*
X117622171Y-150920591D01*
X117566211Y-150748361D01*
X117483996Y-150587006D01*
X117377553Y-150440499D01*
X117249501Y-150312447D01*
X117102994Y-150206004D01*
X117102993Y-150206003D01*
X117102991Y-150206002D01*
X116941637Y-150123788D01*
X116769406Y-150067828D01*
X116590549Y-150039500D01*
X116590546Y-150039500D01*
X116409454Y-150039500D01*
X116409451Y-150039500D01*
X116230593Y-150067828D01*
X116058362Y-150123788D01*
X115897008Y-150206002D01*
X115823752Y-150259225D01*
X115750499Y-150312447D01*
X115622447Y-150440499D01*
X115569225Y-150513752D01*
X115516002Y-150587008D01*
X115479529Y-150658590D01*
X115453107Y-150710446D01*
X115409844Y-150753710D01*
X115364899Y-150764500D01*
X111074500Y-150764500D01*
X111016309Y-150745593D01*
X110980345Y-150696093D01*
X110975500Y-150665500D01*
X110975500Y-149174500D01*
X110994407Y-149116309D01*
X111043907Y-149080345D01*
X111074500Y-149075500D01*
X111106018Y-149075500D01*
X115364899Y-149075500D01*
X115423090Y-149094407D01*
X115453107Y-149129552D01*
X115516004Y-149252994D01*
X115622447Y-149399501D01*
X115750499Y-149527553D01*
X115897006Y-149633996D01*
X116058361Y-149716211D01*
X116230591Y-149772171D01*
X116302136Y-149783502D01*
X116409451Y-149800500D01*
X116409454Y-149800500D01*
X116590549Y-149800500D01*
X116679977Y-149786335D01*
X116769409Y-149772171D01*
X116941639Y-149716211D01*
X117102994Y-149633996D01*
X117249501Y-149527553D01*
X117377553Y-149399501D01*
X117483996Y-149252994D01*
X117566211Y-149091639D01*
X117622171Y-148919409D01*
X117636335Y-148829977D01*
X117650500Y-148740549D01*
X117650500Y-148559450D01*
X117622171Y-148380593D01*
X117622171Y-148380591D01*
X117566211Y-148208361D01*
X117483996Y-148047006D01*
X117377553Y-147900499D01*
X117249501Y-147772447D01*
X117102994Y-147666004D01*
X117102993Y-147666003D01*
X117102991Y-147666002D01*
X116941637Y-147583788D01*
X116769406Y-147527828D01*
X116590549Y-147499500D01*
X116590546Y-147499500D01*
X116409454Y-147499500D01*
X116409451Y-147499500D01*
X116230593Y-147527828D01*
X116058362Y-147583788D01*
X115897008Y-147666002D01*
X115823752Y-147719225D01*
X115750499Y-147772447D01*
X115622447Y-147900499D01*
X115569225Y-147973752D01*
X115516002Y-148047008D01*
X115479529Y-148118590D01*
X115453107Y-148170446D01*
X115409844Y-148213710D01*
X115364899Y-148224500D01*
X111574500Y-148224500D01*
X111516309Y-148205593D01*
X111480345Y-148156093D01*
X111475500Y-148125500D01*
X111475500Y-146634500D01*
X111494407Y-146576309D01*
X111543907Y-146540345D01*
X111574500Y-146535500D01*
X111606018Y-146535500D01*
X115364899Y-146535500D01*
X115423090Y-146554407D01*
X115453107Y-146589552D01*
X115516004Y-146712994D01*
X115622447Y-146859501D01*
X115750499Y-146987553D01*
X115897006Y-147093996D01*
X116058361Y-147176211D01*
X116230591Y-147232171D01*
X116302136Y-147243502D01*
X116409451Y-147260500D01*
X116409454Y-147260500D01*
X116590549Y-147260500D01*
X116679977Y-147246335D01*
X116769409Y-147232171D01*
X116941639Y-147176211D01*
X117102994Y-147093996D01*
X117249501Y-146987553D01*
X117377553Y-146859501D01*
X117483996Y-146712994D01*
X117566211Y-146551639D01*
X117622171Y-146379409D01*
X117650500Y-146200546D01*
X117650500Y-146019454D01*
X117650500Y-146019450D01*
X117622171Y-145840593D01*
X117622171Y-145840591D01*
X117566211Y-145668361D01*
X117483996Y-145507006D01*
X117377553Y-145360499D01*
X117249501Y-145232447D01*
X117102994Y-145126004D01*
X117102993Y-145126003D01*
X117102991Y-145126002D01*
X116941637Y-145043788D01*
X116769406Y-144987828D01*
X116590549Y-144959500D01*
X116590546Y-144959500D01*
X116409454Y-144959500D01*
X116409451Y-144959500D01*
X116230593Y-144987828D01*
X116058362Y-145043788D01*
X115897008Y-145126002D01*
X115823752Y-145179225D01*
X115750499Y-145232447D01*
X115622447Y-145360499D01*
X115569225Y-145433752D01*
X115516002Y-145507008D01*
X115479529Y-145578590D01*
X115453107Y-145630446D01*
X115409844Y-145673710D01*
X115364899Y-145684500D01*
X112074500Y-145684500D01*
X112016309Y-145665593D01*
X111980345Y-145616093D01*
X111975500Y-145585500D01*
X111975500Y-103023983D01*
X111975500Y-103023982D01*
X111946503Y-102915763D01*
X111946501Y-102915760D01*
X111946501Y-102915758D01*
X111890486Y-102818739D01*
X111890485Y-102818737D01*
X111811263Y-102739515D01*
X111811260Y-102739513D01*
X111714240Y-102683498D01*
X111714242Y-102683498D01*
X111672251Y-102672247D01*
X111606018Y-102654500D01*
X111606016Y-102654500D01*
X109699500Y-102654500D01*
X109641309Y-102635593D01*
X109605345Y-102586093D01*
X109600500Y-102555500D01*
X109600500Y-102374865D01*
X109600500Y-102374862D01*
X109590417Y-102261448D01*
X109537237Y-102075594D01*
X109447734Y-101904249D01*
X109325571Y-101754429D01*
X109325568Y-101754426D01*
X109242597Y-101686772D01*
X109175751Y-101632266D01*
X109175749Y-101632265D01*
X109175748Y-101632264D01*
X109004406Y-101542763D01*
X109004399Y-101542761D01*
X108818554Y-101489583D01*
X108780747Y-101486222D01*
X108705138Y-101479500D01*
X107294862Y-101479500D01*
X107230054Y-101485261D01*
X107181445Y-101489583D01*
X106995600Y-101542761D01*
X106995593Y-101542763D01*
X106824251Y-101632264D01*
X106674431Y-101754426D01*
X106674426Y-101754431D01*
X106552264Y-101904251D01*
X106462763Y-102075593D01*
X106462761Y-102075600D01*
X106409583Y-102261445D01*
X106399500Y-102374865D01*
X100500500Y-102374865D01*
X100500500Y-100599500D01*
X100519407Y-100541309D01*
X100568907Y-100505345D01*
X100599500Y-100500500D01*
X119400500Y-100500500D01*
X119458691Y-100519407D01*
G37*
%TD.AperFunction*%
%TD*%
M02*
