M48
; DRILL file KiCad 10.0.3 date 2026-07-11T03:56:30
; FORMAT={-:-/ absolute / metric / decimal}
; #@! TF.CreationDate,2026-07-11T03:56:30+02:00
; #@! TF.GenerationSoftware,Kicad,Pcbnew,10.0.3
; #@! TF.FileFunction,Plated,1,2,PTH
FMAT,2
METRIC
; #@! TA.AperFunction,Plated,PTH,ViaDrill
T1C0.300
; #@! TA.AperFunction,Plated,PTH,ComponentDrill
T2C0.600
; #@! TA.AperFunction,Plated,PTH,ComponentDrill
T3C1.000
%
G90
G05
T1
X102.0Y-102.0
X102.0Y-163.2
X118.0Y-102.0
X118.0Y-132.5
X118.0Y-163.0
T3
X115.0Y-126.15
X115.0Y-128.69
X115.0Y-131.23
X115.0Y-133.77
X115.0Y-136.31
X115.0Y-138.85
T2
X107.5Y-103.08G85X108.5Y-103.08
G05
X107.5Y-111.38G85X108.5Y-111.38
G05
X107.5Y-114.48G85X108.5Y-114.48
G05
X107.5Y-118.08G85X108.5Y-118.08
G05
X107.5Y-126.38G85X108.5Y-126.38
G05
X107.5Y-129.48G85X108.5Y-129.48
G05
X107.5Y-133.08G85X108.5Y-133.08
G05
X107.5Y-141.38G85X108.5Y-141.38
G05
X107.5Y-144.48G85X108.5Y-144.48
G05
X107.5Y-148.08G85X108.5Y-148.08
G05
X107.5Y-156.38G85X108.5Y-156.38
G05
X107.5Y-159.48G85X108.5Y-159.48
G05
M30
