%TF.GenerationSoftware,KiCad,Pcbnew,10.0.3*%
%TF.CreationDate,2026-07-11T14:04:23+02:00*%
%TF.ProjectId,musicbrain-jack4,6d757369-6362-4726-9169-6e2d6a61636b,1.2*%
%TF.SameCoordinates,Original*%
%TF.FileFunction,Legend,Top*%
%TF.FilePolarity,Positive*%
%FSLAX46Y46*%
G04 Gerber Fmt 4.6, Leading zero omitted, Abs format (unit mm)*
G04 Created by KiCad (PCBNEW 10.0.3) date 2026-07-11 14:04:23*
%MOMM*%
%LPD*%
G01*
G04 APERTURE LIST*
%ADD10C,0.150000*%
%ADD11C,0.120000*%
G04 APERTURE END LIST*
D10*
X101754819Y-144404761D02*
X101088152Y-144404761D01*
X101183390Y-144404761D02*
X101135771Y-144357142D01*
X101135771Y-144357142D02*
X101088152Y-144261904D01*
X101088152Y-144261904D02*
X101088152Y-144119047D01*
X101088152Y-144119047D02*
X101135771Y-144023809D01*
X101135771Y-144023809D02*
X101231009Y-143976190D01*
X101231009Y-143976190D02*
X101754819Y-143976190D01*
X101231009Y-143976190D02*
X101135771Y-143928571D01*
X101135771Y-143928571D02*
X101088152Y-143833333D01*
X101088152Y-143833333D02*
X101088152Y-143690476D01*
X101088152Y-143690476D02*
X101135771Y-143595237D01*
X101135771Y-143595237D02*
X101231009Y-143547618D01*
X101231009Y-143547618D02*
X101754819Y-143547618D01*
X101088152Y-142642857D02*
X101754819Y-142642857D01*
X101088152Y-143071428D02*
X101611961Y-143071428D01*
X101611961Y-143071428D02*
X101707200Y-143023809D01*
X101707200Y-143023809D02*
X101754819Y-142928571D01*
X101754819Y-142928571D02*
X101754819Y-142785714D01*
X101754819Y-142785714D02*
X101707200Y-142690476D01*
X101707200Y-142690476D02*
X101659580Y-142642857D01*
X101707200Y-142214285D02*
X101754819Y-142119047D01*
X101754819Y-142119047D02*
X101754819Y-141928571D01*
X101754819Y-141928571D02*
X101707200Y-141833333D01*
X101707200Y-141833333D02*
X101611961Y-141785714D01*
X101611961Y-141785714D02*
X101564342Y-141785714D01*
X101564342Y-141785714D02*
X101469104Y-141833333D01*
X101469104Y-141833333D02*
X101421485Y-141928571D01*
X101421485Y-141928571D02*
X101421485Y-142071428D01*
X101421485Y-142071428D02*
X101373866Y-142166666D01*
X101373866Y-142166666D02*
X101278628Y-142214285D01*
X101278628Y-142214285D02*
X101231009Y-142214285D01*
X101231009Y-142214285D02*
X101135771Y-142166666D01*
X101135771Y-142166666D02*
X101088152Y-142071428D01*
X101088152Y-142071428D02*
X101088152Y-141928571D01*
X101088152Y-141928571D02*
X101135771Y-141833333D01*
X101754819Y-141357142D02*
X101088152Y-141357142D01*
X100754819Y-141357142D02*
X100802438Y-141404761D01*
X100802438Y-141404761D02*
X100850057Y-141357142D01*
X100850057Y-141357142D02*
X100802438Y-141309523D01*
X100802438Y-141309523D02*
X100754819Y-141357142D01*
X100754819Y-141357142D02*
X100850057Y-141357142D01*
X101707200Y-140452381D02*
X101754819Y-140547619D01*
X101754819Y-140547619D02*
X101754819Y-140738095D01*
X101754819Y-140738095D02*
X101707200Y-140833333D01*
X101707200Y-140833333D02*
X101659580Y-140880952D01*
X101659580Y-140880952D02*
X101564342Y-140928571D01*
X101564342Y-140928571D02*
X101278628Y-140928571D01*
X101278628Y-140928571D02*
X101183390Y-140880952D01*
X101183390Y-140880952D02*
X101135771Y-140833333D01*
X101135771Y-140833333D02*
X101088152Y-140738095D01*
X101088152Y-140738095D02*
X101088152Y-140547619D01*
X101088152Y-140547619D02*
X101135771Y-140452381D01*
X101754819Y-140023809D02*
X100754819Y-140023809D01*
X101135771Y-140023809D02*
X101088152Y-139928571D01*
X101088152Y-139928571D02*
X101088152Y-139738095D01*
X101088152Y-139738095D02*
X101135771Y-139642857D01*
X101135771Y-139642857D02*
X101183390Y-139595238D01*
X101183390Y-139595238D02*
X101278628Y-139547619D01*
X101278628Y-139547619D02*
X101564342Y-139547619D01*
X101564342Y-139547619D02*
X101659580Y-139595238D01*
X101659580Y-139595238D02*
X101707200Y-139642857D01*
X101707200Y-139642857D02*
X101754819Y-139738095D01*
X101754819Y-139738095D02*
X101754819Y-139928571D01*
X101754819Y-139928571D02*
X101707200Y-140023809D01*
X101754819Y-139119047D02*
X101088152Y-139119047D01*
X101278628Y-139119047D02*
X101183390Y-139071428D01*
X101183390Y-139071428D02*
X101135771Y-139023809D01*
X101135771Y-139023809D02*
X101088152Y-138928571D01*
X101088152Y-138928571D02*
X101088152Y-138833333D01*
X101754819Y-138071428D02*
X101231009Y-138071428D01*
X101231009Y-138071428D02*
X101135771Y-138119047D01*
X101135771Y-138119047D02*
X101088152Y-138214285D01*
X101088152Y-138214285D02*
X101088152Y-138404761D01*
X101088152Y-138404761D02*
X101135771Y-138499999D01*
X101707200Y-138071428D02*
X101754819Y-138166666D01*
X101754819Y-138166666D02*
X101754819Y-138404761D01*
X101754819Y-138404761D02*
X101707200Y-138499999D01*
X101707200Y-138499999D02*
X101611961Y-138547618D01*
X101611961Y-138547618D02*
X101516723Y-138547618D01*
X101516723Y-138547618D02*
X101421485Y-138499999D01*
X101421485Y-138499999D02*
X101373866Y-138404761D01*
X101373866Y-138404761D02*
X101373866Y-138166666D01*
X101373866Y-138166666D02*
X101326247Y-138071428D01*
X101754819Y-137595237D02*
X101088152Y-137595237D01*
X100754819Y-137595237D02*
X100802438Y-137642856D01*
X100802438Y-137642856D02*
X100850057Y-137595237D01*
X100850057Y-137595237D02*
X100802438Y-137547618D01*
X100802438Y-137547618D02*
X100754819Y-137595237D01*
X100754819Y-137595237D02*
X100850057Y-137595237D01*
X101088152Y-137119047D02*
X101754819Y-137119047D01*
X101183390Y-137119047D02*
X101135771Y-137071428D01*
X101135771Y-137071428D02*
X101088152Y-136976190D01*
X101088152Y-136976190D02*
X101088152Y-136833333D01*
X101088152Y-136833333D02*
X101135771Y-136738095D01*
X101135771Y-136738095D02*
X101231009Y-136690476D01*
X101231009Y-136690476D02*
X101754819Y-136690476D01*
X101659580Y-136214285D02*
X101707200Y-136166666D01*
X101707200Y-136166666D02*
X101754819Y-136214285D01*
X101754819Y-136214285D02*
X101707200Y-136261904D01*
X101707200Y-136261904D02*
X101659580Y-136214285D01*
X101659580Y-136214285D02*
X101754819Y-136214285D01*
X101088152Y-135738095D02*
X101754819Y-135738095D01*
X101183390Y-135738095D02*
X101135771Y-135690476D01*
X101135771Y-135690476D02*
X101088152Y-135595238D01*
X101088152Y-135595238D02*
X101088152Y-135452381D01*
X101088152Y-135452381D02*
X101135771Y-135357143D01*
X101135771Y-135357143D02*
X101231009Y-135309524D01*
X101231009Y-135309524D02*
X101754819Y-135309524D01*
X101754819Y-134690476D02*
X101707200Y-134785714D01*
X101707200Y-134785714D02*
X101611961Y-134833333D01*
X101611961Y-134833333D02*
X100754819Y-134833333D01*
X100707200Y-133595238D02*
X101992914Y-134452380D01*
X101754819Y-133261904D02*
X100754819Y-133261904D01*
X101754819Y-132833333D02*
X101231009Y-132833333D01*
X101231009Y-132833333D02*
X101135771Y-132880952D01*
X101135771Y-132880952D02*
X101088152Y-132976190D01*
X101088152Y-132976190D02*
X101088152Y-133119047D01*
X101088152Y-133119047D02*
X101135771Y-133214285D01*
X101135771Y-133214285D02*
X101183390Y-133261904D01*
X101088152Y-132452380D02*
X101754819Y-132261904D01*
X101754819Y-132261904D02*
X101278628Y-132071428D01*
X101278628Y-132071428D02*
X101754819Y-131880952D01*
X101754819Y-131880952D02*
X101088152Y-131690476D01*
X100707200Y-130595238D02*
X101992914Y-131452380D01*
X101088152Y-130261904D02*
X101945295Y-130261904D01*
X101945295Y-130261904D02*
X102040533Y-130309523D01*
X102040533Y-130309523D02*
X102088152Y-130404761D01*
X102088152Y-130404761D02*
X102088152Y-130452380D01*
X100754819Y-130261904D02*
X100802438Y-130309523D01*
X100802438Y-130309523D02*
X100850057Y-130261904D01*
X100850057Y-130261904D02*
X100802438Y-130214285D01*
X100802438Y-130214285D02*
X100754819Y-130261904D01*
X100754819Y-130261904D02*
X100850057Y-130261904D01*
X101754819Y-129357143D02*
X101231009Y-129357143D01*
X101231009Y-129357143D02*
X101135771Y-129404762D01*
X101135771Y-129404762D02*
X101088152Y-129500000D01*
X101088152Y-129500000D02*
X101088152Y-129690476D01*
X101088152Y-129690476D02*
X101135771Y-129785714D01*
X101707200Y-129357143D02*
X101754819Y-129452381D01*
X101754819Y-129452381D02*
X101754819Y-129690476D01*
X101754819Y-129690476D02*
X101707200Y-129785714D01*
X101707200Y-129785714D02*
X101611961Y-129833333D01*
X101611961Y-129833333D02*
X101516723Y-129833333D01*
X101516723Y-129833333D02*
X101421485Y-129785714D01*
X101421485Y-129785714D02*
X101373866Y-129690476D01*
X101373866Y-129690476D02*
X101373866Y-129452381D01*
X101373866Y-129452381D02*
X101326247Y-129357143D01*
X101707200Y-128452381D02*
X101754819Y-128547619D01*
X101754819Y-128547619D02*
X101754819Y-128738095D01*
X101754819Y-128738095D02*
X101707200Y-128833333D01*
X101707200Y-128833333D02*
X101659580Y-128880952D01*
X101659580Y-128880952D02*
X101564342Y-128928571D01*
X101564342Y-128928571D02*
X101278628Y-128928571D01*
X101278628Y-128928571D02*
X101183390Y-128880952D01*
X101183390Y-128880952D02*
X101135771Y-128833333D01*
X101135771Y-128833333D02*
X101088152Y-128738095D01*
X101088152Y-128738095D02*
X101088152Y-128547619D01*
X101088152Y-128547619D02*
X101135771Y-128452381D01*
X101754819Y-128023809D02*
X100754819Y-128023809D01*
X101373866Y-127928571D02*
X101754819Y-127642857D01*
X101088152Y-127642857D02*
X101469104Y-128023809D01*
X101088152Y-126785714D02*
X101754819Y-126785714D01*
X100707200Y-127023809D02*
X101421485Y-127261904D01*
X101421485Y-127261904D02*
X101421485Y-126642857D01*
X101754819Y-125499999D02*
X101088152Y-125499999D01*
X101278628Y-125499999D02*
X101183390Y-125452380D01*
X101183390Y-125452380D02*
X101135771Y-125404761D01*
X101135771Y-125404761D02*
X101088152Y-125309523D01*
X101088152Y-125309523D02*
X101088152Y-125214285D01*
X101707200Y-124499999D02*
X101754819Y-124595237D01*
X101754819Y-124595237D02*
X101754819Y-124785713D01*
X101754819Y-124785713D02*
X101707200Y-124880951D01*
X101707200Y-124880951D02*
X101611961Y-124928570D01*
X101611961Y-124928570D02*
X101231009Y-124928570D01*
X101231009Y-124928570D02*
X101135771Y-124880951D01*
X101135771Y-124880951D02*
X101088152Y-124785713D01*
X101088152Y-124785713D02*
X101088152Y-124595237D01*
X101088152Y-124595237D02*
X101135771Y-124499999D01*
X101135771Y-124499999D02*
X101231009Y-124452380D01*
X101231009Y-124452380D02*
X101326247Y-124452380D01*
X101326247Y-124452380D02*
X101421485Y-124928570D01*
X101088152Y-124119046D02*
X101754819Y-123880951D01*
X101754819Y-123880951D02*
X101088152Y-123642856D01*
X101754819Y-121976189D02*
X101754819Y-122547617D01*
X101754819Y-122261903D02*
X100754819Y-122261903D01*
X100754819Y-122261903D02*
X100897676Y-122357141D01*
X100897676Y-122357141D02*
X100992914Y-122452379D01*
X100992914Y-122452379D02*
X101040533Y-122547617D01*
X101659580Y-121547617D02*
X101707200Y-121499998D01*
X101707200Y-121499998D02*
X101754819Y-121547617D01*
X101754819Y-121547617D02*
X101707200Y-121595236D01*
X101707200Y-121595236D02*
X101659580Y-121547617D01*
X101659580Y-121547617D02*
X101754819Y-121547617D01*
X100850057Y-121119046D02*
X100802438Y-121071427D01*
X100802438Y-121071427D02*
X100754819Y-120976189D01*
X100754819Y-120976189D02*
X100754819Y-120738094D01*
X100754819Y-120738094D02*
X100802438Y-120642856D01*
X100802438Y-120642856D02*
X100850057Y-120595237D01*
X100850057Y-120595237D02*
X100945295Y-120547618D01*
X100945295Y-120547618D02*
X101040533Y-120547618D01*
X101040533Y-120547618D02*
X101183390Y-120595237D01*
X101183390Y-120595237D02*
X101754819Y-121166665D01*
X101754819Y-121166665D02*
X101754819Y-120547618D01*
X113754819Y-108333333D02*
X114469104Y-108333333D01*
X114469104Y-108333333D02*
X114611961Y-108380952D01*
X114611961Y-108380952D02*
X114707200Y-108476190D01*
X114707200Y-108476190D02*
X114754819Y-108619047D01*
X114754819Y-108619047D02*
X114754819Y-108714285D01*
X113850057Y-107904761D02*
X113802438Y-107857142D01*
X113802438Y-107857142D02*
X113754819Y-107761904D01*
X113754819Y-107761904D02*
X113754819Y-107523809D01*
X113754819Y-107523809D02*
X113802438Y-107428571D01*
X113802438Y-107428571D02*
X113850057Y-107380952D01*
X113850057Y-107380952D02*
X113945295Y-107333333D01*
X113945295Y-107333333D02*
X114040533Y-107333333D01*
X114040533Y-107333333D02*
X114183390Y-107380952D01*
X114183390Y-107380952D02*
X114754819Y-107952380D01*
X114754819Y-107952380D02*
X114754819Y-107333333D01*
X113754819Y-123333333D02*
X114469104Y-123333333D01*
X114469104Y-123333333D02*
X114611961Y-123380952D01*
X114611961Y-123380952D02*
X114707200Y-123476190D01*
X114707200Y-123476190D02*
X114754819Y-123619047D01*
X114754819Y-123619047D02*
X114754819Y-123714285D01*
X113754819Y-122952380D02*
X113754819Y-122333333D01*
X113754819Y-122333333D02*
X114135771Y-122666666D01*
X114135771Y-122666666D02*
X114135771Y-122523809D01*
X114135771Y-122523809D02*
X114183390Y-122428571D01*
X114183390Y-122428571D02*
X114231009Y-122380952D01*
X114231009Y-122380952D02*
X114326247Y-122333333D01*
X114326247Y-122333333D02*
X114564342Y-122333333D01*
X114564342Y-122333333D02*
X114659580Y-122380952D01*
X114659580Y-122380952D02*
X114707200Y-122428571D01*
X114707200Y-122428571D02*
X114754819Y-122523809D01*
X114754819Y-122523809D02*
X114754819Y-122809523D01*
X114754819Y-122809523D02*
X114707200Y-122904761D01*
X114707200Y-122904761D02*
X114659580Y-122952380D01*
X113754819Y-138333333D02*
X114469104Y-138333333D01*
X114469104Y-138333333D02*
X114611961Y-138380952D01*
X114611961Y-138380952D02*
X114707200Y-138476190D01*
X114707200Y-138476190D02*
X114754819Y-138619047D01*
X114754819Y-138619047D02*
X114754819Y-138714285D01*
X114088152Y-137428571D02*
X114754819Y-137428571D01*
X113707200Y-137666666D02*
X114421485Y-137904761D01*
X114421485Y-137904761D02*
X114421485Y-137285714D01*
X113754819Y-153333333D02*
X114469104Y-153333333D01*
X114469104Y-153333333D02*
X114611961Y-153380952D01*
X114611961Y-153380952D02*
X114707200Y-153476190D01*
X114707200Y-153476190D02*
X114754819Y-153619047D01*
X114754819Y-153619047D02*
X114754819Y-153714285D01*
X113754819Y-152380952D02*
X113754819Y-152857142D01*
X113754819Y-152857142D02*
X114231009Y-152904761D01*
X114231009Y-152904761D02*
X114183390Y-152857142D01*
X114183390Y-152857142D02*
X114135771Y-152761904D01*
X114135771Y-152761904D02*
X114135771Y-152523809D01*
X114135771Y-152523809D02*
X114183390Y-152428571D01*
X114183390Y-152428571D02*
X114231009Y-152380952D01*
X114231009Y-152380952D02*
X114326247Y-152333333D01*
X114326247Y-152333333D02*
X114564342Y-152333333D01*
X114564342Y-152333333D02*
X114659580Y-152380952D01*
X114659580Y-152380952D02*
X114707200Y-152428571D01*
X114707200Y-152428571D02*
X114754819Y-152523809D01*
X114754819Y-152523809D02*
X114754819Y-152761904D01*
X114754819Y-152761904D02*
X114707200Y-152857142D01*
X114707200Y-152857142D02*
X114659580Y-152904761D01*
X102666666Y-159254819D02*
X102666666Y-159969104D01*
X102666666Y-159969104D02*
X102619047Y-160111961D01*
X102619047Y-160111961D02*
X102523809Y-160207200D01*
X102523809Y-160207200D02*
X102380952Y-160254819D01*
X102380952Y-160254819D02*
X102285714Y-160254819D01*
X103142857Y-160254819D02*
X103142857Y-159254819D01*
X103142857Y-159254819D02*
X103523809Y-159254819D01*
X103523809Y-159254819D02*
X103619047Y-159302438D01*
X103619047Y-159302438D02*
X103666666Y-159350057D01*
X103666666Y-159350057D02*
X103714285Y-159445295D01*
X103714285Y-159445295D02*
X103714285Y-159588152D01*
X103714285Y-159588152D02*
X103666666Y-159683390D01*
X103666666Y-159683390D02*
X103619047Y-159731009D01*
X103619047Y-159731009D02*
X103523809Y-159778628D01*
X103523809Y-159778628D02*
X103142857Y-159778628D01*
X104666666Y-160254819D02*
X104095238Y-160254819D01*
X104380952Y-160254819D02*
X104380952Y-159254819D01*
X104380952Y-159254819D02*
X104285714Y-159397676D01*
X104285714Y-159397676D02*
X104190476Y-159492914D01*
X104190476Y-159492914D02*
X104095238Y-159540533D01*
%TO.C,J2*%
D11*
X103500000Y-102250000D02*
X112500000Y-102250000D01*
X112500000Y-114080000D01*
X103500000Y-114080000D01*
X103500000Y-102250000D01*
%TO.C,J3*%
X103500000Y-117250000D02*
X112500000Y-117250000D01*
X112500000Y-129080000D01*
X103500000Y-129080000D01*
X103500000Y-117250000D01*
%TO.C,J4*%
X103500000Y-132250000D02*
X112500000Y-132250000D01*
X112500000Y-144080000D01*
X103500000Y-144080000D01*
X103500000Y-132250000D01*
%TO.C,J5*%
X103500000Y-147250000D02*
X112500000Y-147250000D01*
X112500000Y-159080000D01*
X103500000Y-159080000D01*
X103500000Y-147250000D01*
%TD*%
M02*
