%TF.GenerationSoftware,KiCad,Pcbnew,10.0.3*%
%TF.CreationDate,2026-07-11T14:04:23+02:00*%
%TF.ProjectId,musicbrain-jack4,6d757369-6362-4726-9169-6e2d6a61636b,1.2*%
%TF.SameCoordinates,Original*%
%TF.FileFunction,Drillmap*%
%TF.FilePolarity,Positive*%
%FSLAX45Y45*%
G04 Gerber Fmt 4.5, Leading zero omitted, Abs format (unit mm)*
G04 Created by KiCad (PCBNEW 10.0.3) date 2026-07-11 14:04:23*
%MOMM*%
%LPD*%
G01*
G04 APERTURE LIST*
%ADD10C,0.100000*%
%ADD11C,0.200000*%
G04 APERTURE END LIST*
D10*
X10000000Y-10000000D02*
X12000000Y-10000000D01*
X12000000Y-16500000D01*
X10000000Y-16500000D01*
X10000000Y-10000000D01*
D11*
X10255777Y-16816484D02*
X10255777Y-16616484D01*
X10255777Y-16616484D02*
X10303396Y-16616484D01*
X10303396Y-16616484D02*
X10331967Y-16626008D01*
X10331967Y-16626008D02*
X10351015Y-16645055D01*
X10351015Y-16645055D02*
X10360539Y-16664103D01*
X10360539Y-16664103D02*
X10370063Y-16702198D01*
X10370063Y-16702198D02*
X10370063Y-16730769D01*
X10370063Y-16730769D02*
X10360539Y-16768865D01*
X10360539Y-16768865D02*
X10351015Y-16787912D01*
X10351015Y-16787912D02*
X10331967Y-16806960D01*
X10331967Y-16806960D02*
X10303396Y-16816484D01*
X10303396Y-16816484D02*
X10255777Y-16816484D01*
X10455777Y-16816484D02*
X10455777Y-16683150D01*
X10455777Y-16721246D02*
X10465301Y-16702198D01*
X10465301Y-16702198D02*
X10474824Y-16692674D01*
X10474824Y-16692674D02*
X10493872Y-16683150D01*
X10493872Y-16683150D02*
X10512920Y-16683150D01*
X10579586Y-16816484D02*
X10579586Y-16683150D01*
X10579586Y-16616484D02*
X10570063Y-16626008D01*
X10570063Y-16626008D02*
X10579586Y-16635531D01*
X10579586Y-16635531D02*
X10589110Y-16626008D01*
X10589110Y-16626008D02*
X10579586Y-16616484D01*
X10579586Y-16616484D02*
X10579586Y-16635531D01*
X10703396Y-16816484D02*
X10684348Y-16806960D01*
X10684348Y-16806960D02*
X10674824Y-16787912D01*
X10674824Y-16787912D02*
X10674824Y-16616484D01*
X10808158Y-16816484D02*
X10789110Y-16806960D01*
X10789110Y-16806960D02*
X10779586Y-16787912D01*
X10779586Y-16787912D02*
X10779586Y-16616484D01*
X11036729Y-16816484D02*
X11036729Y-16616484D01*
X11036729Y-16616484D02*
X11103396Y-16759341D01*
X11103396Y-16759341D02*
X11170063Y-16616484D01*
X11170063Y-16616484D02*
X11170063Y-16816484D01*
X11351015Y-16816484D02*
X11351015Y-16711722D01*
X11351015Y-16711722D02*
X11341491Y-16692674D01*
X11341491Y-16692674D02*
X11322443Y-16683150D01*
X11322443Y-16683150D02*
X11284348Y-16683150D01*
X11284348Y-16683150D02*
X11265301Y-16692674D01*
X11351015Y-16806960D02*
X11331967Y-16816484D01*
X11331967Y-16816484D02*
X11284348Y-16816484D01*
X11284348Y-16816484D02*
X11265301Y-16806960D01*
X11265301Y-16806960D02*
X11255777Y-16787912D01*
X11255777Y-16787912D02*
X11255777Y-16768865D01*
X11255777Y-16768865D02*
X11265301Y-16749817D01*
X11265301Y-16749817D02*
X11284348Y-16740293D01*
X11284348Y-16740293D02*
X11331967Y-16740293D01*
X11331967Y-16740293D02*
X11351015Y-16730769D01*
X11446253Y-16683150D02*
X11446253Y-16883150D01*
X11446253Y-16692674D02*
X11465301Y-16683150D01*
X11465301Y-16683150D02*
X11503396Y-16683150D01*
X11503396Y-16683150D02*
X11522443Y-16692674D01*
X11522443Y-16692674D02*
X11531967Y-16702198D01*
X11531967Y-16702198D02*
X11541491Y-16721246D01*
X11541491Y-16721246D02*
X11541491Y-16778389D01*
X11541491Y-16778389D02*
X11531967Y-16797436D01*
X11531967Y-16797436D02*
X11522443Y-16806960D01*
X11522443Y-16806960D02*
X11503396Y-16816484D01*
X11503396Y-16816484D02*
X11465301Y-16816484D01*
X11465301Y-16816484D02*
X11446253Y-16806960D01*
X11627205Y-16797436D02*
X11636729Y-16806960D01*
X11636729Y-16806960D02*
X11627205Y-16816484D01*
X11627205Y-16816484D02*
X11617682Y-16806960D01*
X11617682Y-16806960D02*
X11627205Y-16797436D01*
X11627205Y-16797436D02*
X11627205Y-16816484D01*
X11627205Y-16692674D02*
X11636729Y-16702198D01*
X11636729Y-16702198D02*
X11627205Y-16711722D01*
X11627205Y-16711722D02*
X11617682Y-16702198D01*
X11617682Y-16702198D02*
X11627205Y-16692674D01*
X11627205Y-16692674D02*
X11627205Y-16711722D01*
M02*
