%TF.GenerationSoftware,KiCad,Pcbnew,10.0.3*%
%TF.CreationDate,2026-07-11T14:09:28+02:00*%
%TF.ProjectId,musicbrain-potriser,6d757369-6362-4726-9169-6e2d706f7472,1.0*%
%TF.SameCoordinates,Original*%
%TF.FileFunction,Drillmap*%
%TF.FilePolarity,Positive*%
%FSLAX45Y45*%
G04 Gerber Fmt 4.5, Leading zero omitted, Abs format (unit mm)*
G04 Created by KiCad (PCBNEW 10.0.3) date 2026-07-11 14:09:28*
%MOMM*%
%LPD*%
G01*
G04 APERTURE LIST*
%ADD10C,0.100000*%
%ADD11C,0.200000*%
G04 APERTURE END LIST*
D10*
X10200000Y-10000000D02*
X13000000Y-10000000D01*
X13000000Y-18000000D01*
X10200000Y-18000000D01*
X10200000Y-10000000D01*
D11*
D10*
X10385000Y-10185000D02*
X10415000Y-10215000D01*
X10415000Y-10185000D02*
X10385000Y-10215000D01*
X10385000Y-11185000D02*
X10415000Y-11215000D01*
X10415000Y-11185000D02*
X10385000Y-11215000D01*
X10385000Y-12985000D02*
X10415000Y-13015000D01*
X10415000Y-12985000D02*
X10385000Y-13015000D01*
X10385000Y-17785000D02*
X10415000Y-17815000D01*
X10415000Y-17785000D02*
X10385000Y-17815000D01*
X10625000Y-12275000D02*
X10655000Y-12305000D01*
X10655000Y-12275000D02*
X10625000Y-12305000D01*
X10636000Y-11635000D02*
X10666000Y-11665000D01*
X10666000Y-11635000D02*
X10636000Y-11665000D01*
X10705000Y-12055000D02*
X10735000Y-12085000D01*
X10735000Y-12055000D02*
X10705000Y-12085000D01*
X10785000Y-10115000D02*
X10815000Y-10145000D01*
X10815000Y-10115000D02*
X10785000Y-10145000D01*
X10823000Y-11240000D02*
X10853000Y-11270000D01*
X10853000Y-11240000D02*
X10823000Y-11270000D01*
X10985000Y-14985000D02*
X11015000Y-15015000D01*
X11015000Y-14985000D02*
X10985000Y-15015000D01*
X11077000Y-11240000D02*
X11107000Y-11270000D01*
X11107000Y-11240000D02*
X11077000Y-11270000D01*
X11267500Y-12275000D02*
X11297500Y-12305000D01*
X11297500Y-12275000D02*
X11267500Y-12305000D01*
X11331000Y-11240000D02*
X11361000Y-11270000D01*
X11361000Y-11240000D02*
X11331000Y-11270000D01*
X11394500Y-12245000D02*
X11424500Y-12275000D01*
X11424500Y-12245000D02*
X11394500Y-12275000D01*
X11521500Y-12340000D02*
X11551500Y-12370000D01*
X11551500Y-12340000D02*
X11521500Y-12370000D01*
X11585000Y-10345000D02*
X11615000Y-10375000D01*
X11615000Y-10345000D02*
X11585000Y-10375000D01*
X11585000Y-11240000D02*
X11615000Y-11270000D01*
X11615000Y-11240000D02*
X11585000Y-11270000D01*
X11648500Y-12470000D02*
X11678500Y-12500000D01*
X11678500Y-12470000D02*
X11648500Y-12500000D01*
X11775500Y-12535000D02*
X11805500Y-12565000D01*
X11805500Y-12535000D02*
X11775500Y-12565000D01*
X11839000Y-11240000D02*
X11869000Y-11270000D01*
X11869000Y-11240000D02*
X11839000Y-11270000D01*
X11902500Y-12405000D02*
X11932500Y-12435000D01*
X11932500Y-12405000D02*
X11902500Y-12435000D01*
X12029500Y-12245000D02*
X12059500Y-12275000D01*
X12059500Y-12245000D02*
X12029500Y-12275000D01*
X12093000Y-11240000D02*
X12123000Y-11270000D01*
X12123000Y-11240000D02*
X12093000Y-11270000D01*
X12185000Y-10115000D02*
X12215000Y-10145000D01*
X12215000Y-10115000D02*
X12185000Y-10145000D01*
X12185000Y-14985000D02*
X12215000Y-15015000D01*
X12215000Y-14985000D02*
X12185000Y-15015000D01*
X12347000Y-11240000D02*
X12377000Y-11270000D01*
X12377000Y-11240000D02*
X12347000Y-11270000D01*
X12405000Y-11235000D02*
X12435000Y-11265000D01*
X12435000Y-11235000D02*
X12405000Y-11265000D01*
X12601000Y-11240000D02*
X12631000Y-11270000D01*
X12631000Y-11240000D02*
X12601000Y-11270000D01*
X12635000Y-10385000D02*
X12665000Y-10415000D01*
X12665000Y-10385000D02*
X12635000Y-10415000D01*
X12635000Y-14985000D02*
X12665000Y-15015000D01*
X12665000Y-14985000D02*
X12635000Y-15015000D01*
X10507000Y-10658000D02*
G75*
G02*
X10407000Y-10658000I-50000J0D01*
G01*
X10407000Y-10658000D02*
G75*
G02*
X10507000Y-10658000I50000J0D01*
G01*
X10507000Y-17342000D02*
G75*
G02*
X10407000Y-17342000I-50000J0D01*
G01*
X10407000Y-17342000D02*
G75*
G02*
X10507000Y-17342000I50000J0D01*
G01*
X10507000Y-17596000D02*
G75*
G02*
X10407000Y-17596000I-50000J0D01*
G01*
X10407000Y-17596000D02*
G75*
G02*
X10507000Y-17596000I50000J0D01*
G01*
X10761000Y-10658000D02*
G75*
G02*
X10661000Y-10658000I-50000J0D01*
G01*
X10661000Y-10658000D02*
G75*
G02*
X10761000Y-10658000I50000J0D01*
G01*
X10761000Y-17342000D02*
G75*
G02*
X10661000Y-17342000I-50000J0D01*
G01*
X10661000Y-17342000D02*
G75*
G02*
X10761000Y-17342000I50000J0D01*
G01*
X10761000Y-17596000D02*
G75*
G02*
X10661000Y-17596000I-50000J0D01*
G01*
X10661000Y-17596000D02*
G75*
G02*
X10761000Y-17596000I50000J0D01*
G01*
X11015000Y-10658000D02*
G75*
G02*
X10915000Y-10658000I-50000J0D01*
G01*
X10915000Y-10658000D02*
G75*
G02*
X11015000Y-10658000I50000J0D01*
G01*
X11015000Y-17342000D02*
G75*
G02*
X10915000Y-17342000I-50000J0D01*
G01*
X10915000Y-17342000D02*
G75*
G02*
X11015000Y-17342000I50000J0D01*
G01*
X11015000Y-17596000D02*
G75*
G02*
X10915000Y-17596000I-50000J0D01*
G01*
X10915000Y-17596000D02*
G75*
G02*
X11015000Y-17596000I50000J0D01*
G01*
X11269000Y-10658000D02*
G75*
G02*
X11169000Y-10658000I-50000J0D01*
G01*
X11169000Y-10658000D02*
G75*
G02*
X11269000Y-10658000I50000J0D01*
G01*
X11269000Y-17342000D02*
G75*
G02*
X11169000Y-17342000I-50000J0D01*
G01*
X11169000Y-17342000D02*
G75*
G02*
X11269000Y-17342000I50000J0D01*
G01*
X11269000Y-17596000D02*
G75*
G02*
X11169000Y-17596000I-50000J0D01*
G01*
X11169000Y-17596000D02*
G75*
G02*
X11269000Y-17596000I50000J0D01*
G01*
X11523000Y-10658000D02*
G75*
G02*
X11423000Y-10658000I-50000J0D01*
G01*
X11423000Y-10658000D02*
G75*
G02*
X11523000Y-10658000I50000J0D01*
G01*
X11523000Y-17342000D02*
G75*
G02*
X11423000Y-17342000I-50000J0D01*
G01*
X11423000Y-17342000D02*
G75*
G02*
X11523000Y-17342000I50000J0D01*
G01*
X11523000Y-17596000D02*
G75*
G02*
X11423000Y-17596000I-50000J0D01*
G01*
X11423000Y-17596000D02*
G75*
G02*
X11523000Y-17596000I50000J0D01*
G01*
X11777000Y-10658000D02*
G75*
G02*
X11677000Y-10658000I-50000J0D01*
G01*
X11677000Y-10658000D02*
G75*
G02*
X11777000Y-10658000I50000J0D01*
G01*
X11777000Y-17342000D02*
G75*
G02*
X11677000Y-17342000I-50000J0D01*
G01*
X11677000Y-17342000D02*
G75*
G02*
X11777000Y-17342000I50000J0D01*
G01*
X11777000Y-17596000D02*
G75*
G02*
X11677000Y-17596000I-50000J0D01*
G01*
X11677000Y-17596000D02*
G75*
G02*
X11777000Y-17596000I50000J0D01*
G01*
X12031000Y-10658000D02*
G75*
G02*
X11931000Y-10658000I-50000J0D01*
G01*
X11931000Y-10658000D02*
G75*
G02*
X12031000Y-10658000I50000J0D01*
G01*
X12031000Y-17342000D02*
G75*
G02*
X11931000Y-17342000I-50000J0D01*
G01*
X11931000Y-17342000D02*
G75*
G02*
X12031000Y-17342000I50000J0D01*
G01*
X12031000Y-17596000D02*
G75*
G02*
X11931000Y-17596000I-50000J0D01*
G01*
X11931000Y-17596000D02*
G75*
G02*
X12031000Y-17596000I50000J0D01*
G01*
X12285000Y-10658000D02*
G75*
G02*
X12185000Y-10658000I-50000J0D01*
G01*
X12185000Y-10658000D02*
G75*
G02*
X12285000Y-10658000I50000J0D01*
G01*
X12285000Y-17342000D02*
G75*
G02*
X12185000Y-17342000I-50000J0D01*
G01*
X12185000Y-17342000D02*
G75*
G02*
X12285000Y-17342000I50000J0D01*
G01*
X12285000Y-17596000D02*
G75*
G02*
X12185000Y-17596000I-50000J0D01*
G01*
X12185000Y-17596000D02*
G75*
G02*
X12285000Y-17596000I50000J0D01*
G01*
X12539000Y-10658000D02*
G75*
G02*
X12439000Y-10658000I-50000J0D01*
G01*
X12439000Y-10658000D02*
G75*
G02*
X12539000Y-10658000I50000J0D01*
G01*
X12539000Y-17342000D02*
G75*
G02*
X12439000Y-17342000I-50000J0D01*
G01*
X12439000Y-17342000D02*
G75*
G02*
X12539000Y-17342000I50000J0D01*
G01*
X12539000Y-17596000D02*
G75*
G02*
X12439000Y-17596000I-50000J0D01*
G01*
X12439000Y-17596000D02*
G75*
G02*
X12539000Y-17596000I50000J0D01*
G01*
X12793000Y-10658000D02*
G75*
G02*
X12693000Y-10658000I-50000J0D01*
G01*
X12693000Y-10658000D02*
G75*
G02*
X12793000Y-10658000I50000J0D01*
G01*
X12793000Y-17342000D02*
G75*
G02*
X12693000Y-17342000I-50000J0D01*
G01*
X12693000Y-17342000D02*
G75*
G02*
X12793000Y-17342000I50000J0D01*
G01*
X12793000Y-17596000D02*
G75*
G02*
X12693000Y-17596000I-50000J0D01*
G01*
X12693000Y-17596000D02*
G75*
G02*
X12793000Y-17596000I50000J0D01*
G01*
D11*
X10455777Y-18316484D02*
X10455777Y-18116484D01*
X10455777Y-18116484D02*
X10503396Y-18116484D01*
X10503396Y-18116484D02*
X10531967Y-18126008D01*
X10531967Y-18126008D02*
X10551015Y-18145055D01*
X10551015Y-18145055D02*
X10560539Y-18164103D01*
X10560539Y-18164103D02*
X10570063Y-18202198D01*
X10570063Y-18202198D02*
X10570063Y-18230770D01*
X10570063Y-18230770D02*
X10560539Y-18268865D01*
X10560539Y-18268865D02*
X10551015Y-18287912D01*
X10551015Y-18287912D02*
X10531967Y-18306960D01*
X10531967Y-18306960D02*
X10503396Y-18316484D01*
X10503396Y-18316484D02*
X10455777Y-18316484D01*
X10655777Y-18316484D02*
X10655777Y-18183150D01*
X10655777Y-18221246D02*
X10665301Y-18202198D01*
X10665301Y-18202198D02*
X10674824Y-18192674D01*
X10674824Y-18192674D02*
X10693872Y-18183150D01*
X10693872Y-18183150D02*
X10712920Y-18183150D01*
X10779586Y-18316484D02*
X10779586Y-18183150D01*
X10779586Y-18116484D02*
X10770063Y-18126008D01*
X10770063Y-18126008D02*
X10779586Y-18135531D01*
X10779586Y-18135531D02*
X10789110Y-18126008D01*
X10789110Y-18126008D02*
X10779586Y-18116484D01*
X10779586Y-18116484D02*
X10779586Y-18135531D01*
X10903396Y-18316484D02*
X10884348Y-18306960D01*
X10884348Y-18306960D02*
X10874824Y-18287912D01*
X10874824Y-18287912D02*
X10874824Y-18116484D01*
X11008158Y-18316484D02*
X10989110Y-18306960D01*
X10989110Y-18306960D02*
X10979586Y-18287912D01*
X10979586Y-18287912D02*
X10979586Y-18116484D01*
X11236729Y-18316484D02*
X11236729Y-18116484D01*
X11236729Y-18116484D02*
X11303396Y-18259341D01*
X11303396Y-18259341D02*
X11370062Y-18116484D01*
X11370062Y-18116484D02*
X11370062Y-18316484D01*
X11551015Y-18316484D02*
X11551015Y-18211722D01*
X11551015Y-18211722D02*
X11541491Y-18192674D01*
X11541491Y-18192674D02*
X11522443Y-18183150D01*
X11522443Y-18183150D02*
X11484348Y-18183150D01*
X11484348Y-18183150D02*
X11465301Y-18192674D01*
X11551015Y-18306960D02*
X11531967Y-18316484D01*
X11531967Y-18316484D02*
X11484348Y-18316484D01*
X11484348Y-18316484D02*
X11465301Y-18306960D01*
X11465301Y-18306960D02*
X11455777Y-18287912D01*
X11455777Y-18287912D02*
X11455777Y-18268865D01*
X11455777Y-18268865D02*
X11465301Y-18249817D01*
X11465301Y-18249817D02*
X11484348Y-18240293D01*
X11484348Y-18240293D02*
X11531967Y-18240293D01*
X11531967Y-18240293D02*
X11551015Y-18230770D01*
X11646253Y-18183150D02*
X11646253Y-18383150D01*
X11646253Y-18192674D02*
X11665301Y-18183150D01*
X11665301Y-18183150D02*
X11703396Y-18183150D01*
X11703396Y-18183150D02*
X11722443Y-18192674D01*
X11722443Y-18192674D02*
X11731967Y-18202198D01*
X11731967Y-18202198D02*
X11741491Y-18221246D01*
X11741491Y-18221246D02*
X11741491Y-18278389D01*
X11741491Y-18278389D02*
X11731967Y-18297436D01*
X11731967Y-18297436D02*
X11722443Y-18306960D01*
X11722443Y-18306960D02*
X11703396Y-18316484D01*
X11703396Y-18316484D02*
X11665301Y-18316484D01*
X11665301Y-18316484D02*
X11646253Y-18306960D01*
X11827205Y-18297436D02*
X11836729Y-18306960D01*
X11836729Y-18306960D02*
X11827205Y-18316484D01*
X11827205Y-18316484D02*
X11817682Y-18306960D01*
X11817682Y-18306960D02*
X11827205Y-18297436D01*
X11827205Y-18297436D02*
X11827205Y-18316484D01*
X11827205Y-18192674D02*
X11836729Y-18202198D01*
X11836729Y-18202198D02*
X11827205Y-18211722D01*
X11827205Y-18211722D02*
X11817682Y-18202198D01*
X11817682Y-18202198D02*
X11827205Y-18192674D01*
X11827205Y-18192674D02*
X11827205Y-18211722D01*
D10*
X10165000Y-18630000D02*
X10195000Y-18660000D01*
X10195000Y-18630000D02*
X10165000Y-18660000D01*
D11*
X10493872Y-18536484D02*
X10512920Y-18536484D01*
X10512920Y-18536484D02*
X10531967Y-18546008D01*
X10531967Y-18546008D02*
X10541491Y-18555531D01*
X10541491Y-18555531D02*
X10551015Y-18574579D01*
X10551015Y-18574579D02*
X10560539Y-18612674D01*
X10560539Y-18612674D02*
X10560539Y-18660293D01*
X10560539Y-18660293D02*
X10551015Y-18698389D01*
X10551015Y-18698389D02*
X10541491Y-18717436D01*
X10541491Y-18717436D02*
X10531967Y-18726960D01*
X10531967Y-18726960D02*
X10512920Y-18736484D01*
X10512920Y-18736484D02*
X10493872Y-18736484D01*
X10493872Y-18736484D02*
X10474824Y-18726960D01*
X10474824Y-18726960D02*
X10465301Y-18717436D01*
X10465301Y-18717436D02*
X10455777Y-18698389D01*
X10455777Y-18698389D02*
X10446253Y-18660293D01*
X10446253Y-18660293D02*
X10446253Y-18612674D01*
X10446253Y-18612674D02*
X10455777Y-18574579D01*
X10455777Y-18574579D02*
X10465301Y-18555531D01*
X10465301Y-18555531D02*
X10474824Y-18546008D01*
X10474824Y-18546008D02*
X10493872Y-18536484D01*
X10655777Y-18726960D02*
X10655777Y-18736484D01*
X10655777Y-18736484D02*
X10646253Y-18755531D01*
X10646253Y-18755531D02*
X10636729Y-18765055D01*
X10722444Y-18536484D02*
X10846253Y-18536484D01*
X10846253Y-18536484D02*
X10779586Y-18612674D01*
X10779586Y-18612674D02*
X10808158Y-18612674D01*
X10808158Y-18612674D02*
X10827205Y-18622198D01*
X10827205Y-18622198D02*
X10836729Y-18631722D01*
X10836729Y-18631722D02*
X10846253Y-18650770D01*
X10846253Y-18650770D02*
X10846253Y-18698389D01*
X10846253Y-18698389D02*
X10836729Y-18717436D01*
X10836729Y-18717436D02*
X10827205Y-18726960D01*
X10827205Y-18726960D02*
X10808158Y-18736484D01*
X10808158Y-18736484D02*
X10751015Y-18736484D01*
X10751015Y-18736484D02*
X10731967Y-18726960D01*
X10731967Y-18726960D02*
X10722444Y-18717436D01*
X10970063Y-18536484D02*
X10989110Y-18536484D01*
X10989110Y-18536484D02*
X11008158Y-18546008D01*
X11008158Y-18546008D02*
X11017682Y-18555531D01*
X11017682Y-18555531D02*
X11027205Y-18574579D01*
X11027205Y-18574579D02*
X11036729Y-18612674D01*
X11036729Y-18612674D02*
X11036729Y-18660293D01*
X11036729Y-18660293D02*
X11027205Y-18698389D01*
X11027205Y-18698389D02*
X11017682Y-18717436D01*
X11017682Y-18717436D02*
X11008158Y-18726960D01*
X11008158Y-18726960D02*
X10989110Y-18736484D01*
X10989110Y-18736484D02*
X10970063Y-18736484D01*
X10970063Y-18736484D02*
X10951015Y-18726960D01*
X10951015Y-18726960D02*
X10941491Y-18717436D01*
X10941491Y-18717436D02*
X10931967Y-18698389D01*
X10931967Y-18698389D02*
X10922444Y-18660293D01*
X10922444Y-18660293D02*
X10922444Y-18612674D01*
X10922444Y-18612674D02*
X10931967Y-18574579D01*
X10931967Y-18574579D02*
X10941491Y-18555531D01*
X10941491Y-18555531D02*
X10951015Y-18546008D01*
X10951015Y-18546008D02*
X10970063Y-18536484D01*
X11160539Y-18536484D02*
X11179586Y-18536484D01*
X11179586Y-18536484D02*
X11198634Y-18546008D01*
X11198634Y-18546008D02*
X11208158Y-18555531D01*
X11208158Y-18555531D02*
X11217682Y-18574579D01*
X11217682Y-18574579D02*
X11227205Y-18612674D01*
X11227205Y-18612674D02*
X11227205Y-18660293D01*
X11227205Y-18660293D02*
X11217682Y-18698389D01*
X11217682Y-18698389D02*
X11208158Y-18717436D01*
X11208158Y-18717436D02*
X11198634Y-18726960D01*
X11198634Y-18726960D02*
X11179586Y-18736484D01*
X11179586Y-18736484D02*
X11160539Y-18736484D01*
X11160539Y-18736484D02*
X11141491Y-18726960D01*
X11141491Y-18726960D02*
X11131967Y-18717436D01*
X11131967Y-18717436D02*
X11122444Y-18698389D01*
X11122444Y-18698389D02*
X11112920Y-18660293D01*
X11112920Y-18660293D02*
X11112920Y-18612674D01*
X11112920Y-18612674D02*
X11122444Y-18574579D01*
X11122444Y-18574579D02*
X11131967Y-18555531D01*
X11131967Y-18555531D02*
X11141491Y-18546008D01*
X11141491Y-18546008D02*
X11160539Y-18536484D01*
X11312920Y-18736484D02*
X11312920Y-18603150D01*
X11312920Y-18622198D02*
X11322443Y-18612674D01*
X11322443Y-18612674D02*
X11341491Y-18603150D01*
X11341491Y-18603150D02*
X11370063Y-18603150D01*
X11370063Y-18603150D02*
X11389110Y-18612674D01*
X11389110Y-18612674D02*
X11398634Y-18631722D01*
X11398634Y-18631722D02*
X11398634Y-18736484D01*
X11398634Y-18631722D02*
X11408158Y-18612674D01*
X11408158Y-18612674D02*
X11427205Y-18603150D01*
X11427205Y-18603150D02*
X11455777Y-18603150D01*
X11455777Y-18603150D02*
X11474824Y-18612674D01*
X11474824Y-18612674D02*
X11484348Y-18631722D01*
X11484348Y-18631722D02*
X11484348Y-18736484D01*
X11579586Y-18736484D02*
X11579586Y-18603150D01*
X11579586Y-18622198D02*
X11589110Y-18612674D01*
X11589110Y-18612674D02*
X11608158Y-18603150D01*
X11608158Y-18603150D02*
X11636729Y-18603150D01*
X11636729Y-18603150D02*
X11655777Y-18612674D01*
X11655777Y-18612674D02*
X11665301Y-18631722D01*
X11665301Y-18631722D02*
X11665301Y-18736484D01*
X11665301Y-18631722D02*
X11674824Y-18612674D01*
X11674824Y-18612674D02*
X11693872Y-18603150D01*
X11693872Y-18603150D02*
X11722443Y-18603150D01*
X11722443Y-18603150D02*
X11741491Y-18612674D01*
X11741491Y-18612674D02*
X11751015Y-18631722D01*
X11751015Y-18631722D02*
X11751015Y-18736484D01*
X12141491Y-18526960D02*
X11970063Y-18784103D01*
X12398634Y-18536484D02*
X12417682Y-18536484D01*
X12417682Y-18536484D02*
X12436729Y-18546008D01*
X12436729Y-18546008D02*
X12446253Y-18555531D01*
X12446253Y-18555531D02*
X12455777Y-18574579D01*
X12455777Y-18574579D02*
X12465301Y-18612674D01*
X12465301Y-18612674D02*
X12465301Y-18660293D01*
X12465301Y-18660293D02*
X12455777Y-18698389D01*
X12455777Y-18698389D02*
X12446253Y-18717436D01*
X12446253Y-18717436D02*
X12436729Y-18726960D01*
X12436729Y-18726960D02*
X12417682Y-18736484D01*
X12417682Y-18736484D02*
X12398634Y-18736484D01*
X12398634Y-18736484D02*
X12379586Y-18726960D01*
X12379586Y-18726960D02*
X12370063Y-18717436D01*
X12370063Y-18717436D02*
X12360539Y-18698389D01*
X12360539Y-18698389D02*
X12351015Y-18660293D01*
X12351015Y-18660293D02*
X12351015Y-18612674D01*
X12351015Y-18612674D02*
X12360539Y-18574579D01*
X12360539Y-18574579D02*
X12370063Y-18555531D01*
X12370063Y-18555531D02*
X12379586Y-18546008D01*
X12379586Y-18546008D02*
X12398634Y-18536484D01*
X12560539Y-18726960D02*
X12560539Y-18736484D01*
X12560539Y-18736484D02*
X12551015Y-18755531D01*
X12551015Y-18755531D02*
X12541491Y-18765055D01*
X12684348Y-18536484D02*
X12703396Y-18536484D01*
X12703396Y-18536484D02*
X12722444Y-18546008D01*
X12722444Y-18546008D02*
X12731967Y-18555531D01*
X12731967Y-18555531D02*
X12741491Y-18574579D01*
X12741491Y-18574579D02*
X12751015Y-18612674D01*
X12751015Y-18612674D02*
X12751015Y-18660293D01*
X12751015Y-18660293D02*
X12741491Y-18698389D01*
X12741491Y-18698389D02*
X12731967Y-18717436D01*
X12731967Y-18717436D02*
X12722444Y-18726960D01*
X12722444Y-18726960D02*
X12703396Y-18736484D01*
X12703396Y-18736484D02*
X12684348Y-18736484D01*
X12684348Y-18736484D02*
X12665301Y-18726960D01*
X12665301Y-18726960D02*
X12655777Y-18717436D01*
X12655777Y-18717436D02*
X12646253Y-18698389D01*
X12646253Y-18698389D02*
X12636729Y-18660293D01*
X12636729Y-18660293D02*
X12636729Y-18612674D01*
X12636729Y-18612674D02*
X12646253Y-18574579D01*
X12646253Y-18574579D02*
X12655777Y-18555531D01*
X12655777Y-18555531D02*
X12665301Y-18546008D01*
X12665301Y-18546008D02*
X12684348Y-18536484D01*
X12941491Y-18736484D02*
X12827206Y-18736484D01*
X12884348Y-18736484D02*
X12884348Y-18536484D01*
X12884348Y-18536484D02*
X12865301Y-18565055D01*
X12865301Y-18565055D02*
X12846253Y-18584103D01*
X12846253Y-18584103D02*
X12827206Y-18593627D01*
X13131967Y-18736484D02*
X13017682Y-18736484D01*
X13074825Y-18736484D02*
X13074825Y-18536484D01*
X13074825Y-18536484D02*
X13055777Y-18565055D01*
X13055777Y-18565055D02*
X13036729Y-18584103D01*
X13036729Y-18584103D02*
X13017682Y-18593627D01*
X13246253Y-18622198D02*
X13227206Y-18612674D01*
X13227206Y-18612674D02*
X13217682Y-18603150D01*
X13217682Y-18603150D02*
X13208158Y-18584103D01*
X13208158Y-18584103D02*
X13208158Y-18574579D01*
X13208158Y-18574579D02*
X13217682Y-18555531D01*
X13217682Y-18555531D02*
X13227206Y-18546008D01*
X13227206Y-18546008D02*
X13246253Y-18536484D01*
X13246253Y-18536484D02*
X13284348Y-18536484D01*
X13284348Y-18536484D02*
X13303396Y-18546008D01*
X13303396Y-18546008D02*
X13312920Y-18555531D01*
X13312920Y-18555531D02*
X13322444Y-18574579D01*
X13322444Y-18574579D02*
X13322444Y-18584103D01*
X13322444Y-18584103D02*
X13312920Y-18603150D01*
X13312920Y-18603150D02*
X13303396Y-18612674D01*
X13303396Y-18612674D02*
X13284348Y-18622198D01*
X13284348Y-18622198D02*
X13246253Y-18622198D01*
X13246253Y-18622198D02*
X13227206Y-18631722D01*
X13227206Y-18631722D02*
X13217682Y-18641246D01*
X13217682Y-18641246D02*
X13208158Y-18660293D01*
X13208158Y-18660293D02*
X13208158Y-18698389D01*
X13208158Y-18698389D02*
X13217682Y-18717436D01*
X13217682Y-18717436D02*
X13227206Y-18726960D01*
X13227206Y-18726960D02*
X13246253Y-18736484D01*
X13246253Y-18736484D02*
X13284348Y-18736484D01*
X13284348Y-18736484D02*
X13303396Y-18726960D01*
X13303396Y-18726960D02*
X13312920Y-18717436D01*
X13312920Y-18717436D02*
X13322444Y-18698389D01*
X13322444Y-18698389D02*
X13322444Y-18660293D01*
X13322444Y-18660293D02*
X13312920Y-18641246D01*
X13312920Y-18641246D02*
X13303396Y-18631722D01*
X13303396Y-18631722D02*
X13284348Y-18622198D01*
X13398634Y-18536484D02*
X13398634Y-18574579D01*
X13474825Y-18536484D02*
X13474825Y-18574579D01*
X13770063Y-18812674D02*
X13760539Y-18803150D01*
X13760539Y-18803150D02*
X13741491Y-18774579D01*
X13741491Y-18774579D02*
X13731968Y-18755531D01*
X13731968Y-18755531D02*
X13722444Y-18726960D01*
X13722444Y-18726960D02*
X13712920Y-18679341D01*
X13712920Y-18679341D02*
X13712920Y-18641246D01*
X13712920Y-18641246D02*
X13722444Y-18593627D01*
X13722444Y-18593627D02*
X13731968Y-18565055D01*
X13731968Y-18565055D02*
X13741491Y-18546008D01*
X13741491Y-18546008D02*
X13760539Y-18517436D01*
X13760539Y-18517436D02*
X13770063Y-18507912D01*
X13827206Y-18536484D02*
X13951015Y-18536484D01*
X13951015Y-18536484D02*
X13884348Y-18612674D01*
X13884348Y-18612674D02*
X13912920Y-18612674D01*
X13912920Y-18612674D02*
X13931968Y-18622198D01*
X13931968Y-18622198D02*
X13941491Y-18631722D01*
X13941491Y-18631722D02*
X13951015Y-18650770D01*
X13951015Y-18650770D02*
X13951015Y-18698389D01*
X13951015Y-18698389D02*
X13941491Y-18717436D01*
X13941491Y-18717436D02*
X13931968Y-18726960D01*
X13931968Y-18726960D02*
X13912920Y-18736484D01*
X13912920Y-18736484D02*
X13855777Y-18736484D01*
X13855777Y-18736484D02*
X13836729Y-18726960D01*
X13836729Y-18726960D02*
X13827206Y-18717436D01*
X14074825Y-18536484D02*
X14093872Y-18536484D01*
X14093872Y-18536484D02*
X14112920Y-18546008D01*
X14112920Y-18546008D02*
X14122444Y-18555531D01*
X14122444Y-18555531D02*
X14131968Y-18574579D01*
X14131968Y-18574579D02*
X14141491Y-18612674D01*
X14141491Y-18612674D02*
X14141491Y-18660293D01*
X14141491Y-18660293D02*
X14131968Y-18698389D01*
X14131968Y-18698389D02*
X14122444Y-18717436D01*
X14122444Y-18717436D02*
X14112920Y-18726960D01*
X14112920Y-18726960D02*
X14093872Y-18736484D01*
X14093872Y-18736484D02*
X14074825Y-18736484D01*
X14074825Y-18736484D02*
X14055777Y-18726960D01*
X14055777Y-18726960D02*
X14046253Y-18717436D01*
X14046253Y-18717436D02*
X14036729Y-18698389D01*
X14036729Y-18698389D02*
X14027206Y-18660293D01*
X14027206Y-18660293D02*
X14027206Y-18612674D01*
X14027206Y-18612674D02*
X14036729Y-18574579D01*
X14036729Y-18574579D02*
X14046253Y-18555531D01*
X14046253Y-18555531D02*
X14055777Y-18546008D01*
X14055777Y-18546008D02*
X14074825Y-18536484D01*
X14379587Y-18736484D02*
X14379587Y-18536484D01*
X14465301Y-18736484D02*
X14465301Y-18631722D01*
X14465301Y-18631722D02*
X14455777Y-18612674D01*
X14455777Y-18612674D02*
X14436730Y-18603150D01*
X14436730Y-18603150D02*
X14408158Y-18603150D01*
X14408158Y-18603150D02*
X14389110Y-18612674D01*
X14389110Y-18612674D02*
X14379587Y-18622198D01*
X14589110Y-18736484D02*
X14570063Y-18726960D01*
X14570063Y-18726960D02*
X14560539Y-18717436D01*
X14560539Y-18717436D02*
X14551015Y-18698389D01*
X14551015Y-18698389D02*
X14551015Y-18641246D01*
X14551015Y-18641246D02*
X14560539Y-18622198D01*
X14560539Y-18622198D02*
X14570063Y-18612674D01*
X14570063Y-18612674D02*
X14589110Y-18603150D01*
X14589110Y-18603150D02*
X14617682Y-18603150D01*
X14617682Y-18603150D02*
X14636730Y-18612674D01*
X14636730Y-18612674D02*
X14646253Y-18622198D01*
X14646253Y-18622198D02*
X14655777Y-18641246D01*
X14655777Y-18641246D02*
X14655777Y-18698389D01*
X14655777Y-18698389D02*
X14646253Y-18717436D01*
X14646253Y-18717436D02*
X14636730Y-18726960D01*
X14636730Y-18726960D02*
X14617682Y-18736484D01*
X14617682Y-18736484D02*
X14589110Y-18736484D01*
X14770063Y-18736484D02*
X14751015Y-18726960D01*
X14751015Y-18726960D02*
X14741491Y-18707912D01*
X14741491Y-18707912D02*
X14741491Y-18536484D01*
X14922444Y-18726960D02*
X14903396Y-18736484D01*
X14903396Y-18736484D02*
X14865301Y-18736484D01*
X14865301Y-18736484D02*
X14846253Y-18726960D01*
X14846253Y-18726960D02*
X14836730Y-18707912D01*
X14836730Y-18707912D02*
X14836730Y-18631722D01*
X14836730Y-18631722D02*
X14846253Y-18612674D01*
X14846253Y-18612674D02*
X14865301Y-18603150D01*
X14865301Y-18603150D02*
X14903396Y-18603150D01*
X14903396Y-18603150D02*
X14922444Y-18612674D01*
X14922444Y-18612674D02*
X14931968Y-18631722D01*
X14931968Y-18631722D02*
X14931968Y-18650770D01*
X14931968Y-18650770D02*
X14836730Y-18669817D01*
X15008158Y-18726960D02*
X15027206Y-18736484D01*
X15027206Y-18736484D02*
X15065301Y-18736484D01*
X15065301Y-18736484D02*
X15084349Y-18726960D01*
X15084349Y-18726960D02*
X15093872Y-18707912D01*
X15093872Y-18707912D02*
X15093872Y-18698389D01*
X15093872Y-18698389D02*
X15084349Y-18679341D01*
X15084349Y-18679341D02*
X15065301Y-18669817D01*
X15065301Y-18669817D02*
X15036730Y-18669817D01*
X15036730Y-18669817D02*
X15017682Y-18660293D01*
X15017682Y-18660293D02*
X15008158Y-18641246D01*
X15008158Y-18641246D02*
X15008158Y-18631722D01*
X15008158Y-18631722D02*
X15017682Y-18612674D01*
X15017682Y-18612674D02*
X15036730Y-18603150D01*
X15036730Y-18603150D02*
X15065301Y-18603150D01*
X15065301Y-18603150D02*
X15084349Y-18612674D01*
X15160539Y-18812674D02*
X15170063Y-18803150D01*
X15170063Y-18803150D02*
X15189111Y-18774579D01*
X15189111Y-18774579D02*
X15198634Y-18755531D01*
X15198634Y-18755531D02*
X15208158Y-18726960D01*
X15208158Y-18726960D02*
X15217682Y-18679341D01*
X15217682Y-18679341D02*
X15217682Y-18641246D01*
X15217682Y-18641246D02*
X15208158Y-18593627D01*
X15208158Y-18593627D02*
X15198634Y-18565055D01*
X15198634Y-18565055D02*
X15189111Y-18546008D01*
X15189111Y-18546008D02*
X15170063Y-18517436D01*
X15170063Y-18517436D02*
X15160539Y-18507912D01*
D10*
X10195000Y-18909000D02*
G75*
G02*
X10095000Y-18909000I-50000J0D01*
G01*
X10095000Y-18909000D02*
G75*
G02*
X10195000Y-18909000I50000J0D01*
G01*
D11*
X10560539Y-19000484D02*
X10446253Y-19000484D01*
X10503396Y-19000484D02*
X10503396Y-18800484D01*
X10503396Y-18800484D02*
X10484348Y-18829055D01*
X10484348Y-18829055D02*
X10465301Y-18848103D01*
X10465301Y-18848103D02*
X10446253Y-18857627D01*
X10655777Y-18990960D02*
X10655777Y-19000484D01*
X10655777Y-19000484D02*
X10646253Y-19019531D01*
X10646253Y-19019531D02*
X10636729Y-19029055D01*
X10779586Y-18800484D02*
X10798634Y-18800484D01*
X10798634Y-18800484D02*
X10817682Y-18810008D01*
X10817682Y-18810008D02*
X10827205Y-18819531D01*
X10827205Y-18819531D02*
X10836729Y-18838579D01*
X10836729Y-18838579D02*
X10846253Y-18876674D01*
X10846253Y-18876674D02*
X10846253Y-18924293D01*
X10846253Y-18924293D02*
X10836729Y-18962389D01*
X10836729Y-18962389D02*
X10827205Y-18981436D01*
X10827205Y-18981436D02*
X10817682Y-18990960D01*
X10817682Y-18990960D02*
X10798634Y-19000484D01*
X10798634Y-19000484D02*
X10779586Y-19000484D01*
X10779586Y-19000484D02*
X10760539Y-18990960D01*
X10760539Y-18990960D02*
X10751015Y-18981436D01*
X10751015Y-18981436D02*
X10741491Y-18962389D01*
X10741491Y-18962389D02*
X10731967Y-18924293D01*
X10731967Y-18924293D02*
X10731967Y-18876674D01*
X10731967Y-18876674D02*
X10741491Y-18838579D01*
X10741491Y-18838579D02*
X10751015Y-18819531D01*
X10751015Y-18819531D02*
X10760539Y-18810008D01*
X10760539Y-18810008D02*
X10779586Y-18800484D01*
X10970063Y-18800484D02*
X10989110Y-18800484D01*
X10989110Y-18800484D02*
X11008158Y-18810008D01*
X11008158Y-18810008D02*
X11017682Y-18819531D01*
X11017682Y-18819531D02*
X11027205Y-18838579D01*
X11027205Y-18838579D02*
X11036729Y-18876674D01*
X11036729Y-18876674D02*
X11036729Y-18924293D01*
X11036729Y-18924293D02*
X11027205Y-18962389D01*
X11027205Y-18962389D02*
X11017682Y-18981436D01*
X11017682Y-18981436D02*
X11008158Y-18990960D01*
X11008158Y-18990960D02*
X10989110Y-19000484D01*
X10989110Y-19000484D02*
X10970063Y-19000484D01*
X10970063Y-19000484D02*
X10951015Y-18990960D01*
X10951015Y-18990960D02*
X10941491Y-18981436D01*
X10941491Y-18981436D02*
X10931967Y-18962389D01*
X10931967Y-18962389D02*
X10922444Y-18924293D01*
X10922444Y-18924293D02*
X10922444Y-18876674D01*
X10922444Y-18876674D02*
X10931967Y-18838579D01*
X10931967Y-18838579D02*
X10941491Y-18819531D01*
X10941491Y-18819531D02*
X10951015Y-18810008D01*
X10951015Y-18810008D02*
X10970063Y-18800484D01*
X11160539Y-18800484D02*
X11179586Y-18800484D01*
X11179586Y-18800484D02*
X11198634Y-18810008D01*
X11198634Y-18810008D02*
X11208158Y-18819531D01*
X11208158Y-18819531D02*
X11217682Y-18838579D01*
X11217682Y-18838579D02*
X11227205Y-18876674D01*
X11227205Y-18876674D02*
X11227205Y-18924293D01*
X11227205Y-18924293D02*
X11217682Y-18962389D01*
X11217682Y-18962389D02*
X11208158Y-18981436D01*
X11208158Y-18981436D02*
X11198634Y-18990960D01*
X11198634Y-18990960D02*
X11179586Y-19000484D01*
X11179586Y-19000484D02*
X11160539Y-19000484D01*
X11160539Y-19000484D02*
X11141491Y-18990960D01*
X11141491Y-18990960D02*
X11131967Y-18981436D01*
X11131967Y-18981436D02*
X11122444Y-18962389D01*
X11122444Y-18962389D02*
X11112920Y-18924293D01*
X11112920Y-18924293D02*
X11112920Y-18876674D01*
X11112920Y-18876674D02*
X11122444Y-18838579D01*
X11122444Y-18838579D02*
X11131967Y-18819531D01*
X11131967Y-18819531D02*
X11141491Y-18810008D01*
X11141491Y-18810008D02*
X11160539Y-18800484D01*
X11312920Y-19000484D02*
X11312920Y-18867150D01*
X11312920Y-18886198D02*
X11322443Y-18876674D01*
X11322443Y-18876674D02*
X11341491Y-18867150D01*
X11341491Y-18867150D02*
X11370063Y-18867150D01*
X11370063Y-18867150D02*
X11389110Y-18876674D01*
X11389110Y-18876674D02*
X11398634Y-18895722D01*
X11398634Y-18895722D02*
X11398634Y-19000484D01*
X11398634Y-18895722D02*
X11408158Y-18876674D01*
X11408158Y-18876674D02*
X11427205Y-18867150D01*
X11427205Y-18867150D02*
X11455777Y-18867150D01*
X11455777Y-18867150D02*
X11474824Y-18876674D01*
X11474824Y-18876674D02*
X11484348Y-18895722D01*
X11484348Y-18895722D02*
X11484348Y-19000484D01*
X11579586Y-19000484D02*
X11579586Y-18867150D01*
X11579586Y-18886198D02*
X11589110Y-18876674D01*
X11589110Y-18876674D02*
X11608158Y-18867150D01*
X11608158Y-18867150D02*
X11636729Y-18867150D01*
X11636729Y-18867150D02*
X11655777Y-18876674D01*
X11655777Y-18876674D02*
X11665301Y-18895722D01*
X11665301Y-18895722D02*
X11665301Y-19000484D01*
X11665301Y-18895722D02*
X11674824Y-18876674D01*
X11674824Y-18876674D02*
X11693872Y-18867150D01*
X11693872Y-18867150D02*
X11722443Y-18867150D01*
X11722443Y-18867150D02*
X11741491Y-18876674D01*
X11741491Y-18876674D02*
X11751015Y-18895722D01*
X11751015Y-18895722D02*
X11751015Y-19000484D01*
X12141491Y-18790960D02*
X11970063Y-19048103D01*
X12398634Y-18800484D02*
X12417682Y-18800484D01*
X12417682Y-18800484D02*
X12436729Y-18810008D01*
X12436729Y-18810008D02*
X12446253Y-18819531D01*
X12446253Y-18819531D02*
X12455777Y-18838579D01*
X12455777Y-18838579D02*
X12465301Y-18876674D01*
X12465301Y-18876674D02*
X12465301Y-18924293D01*
X12465301Y-18924293D02*
X12455777Y-18962389D01*
X12455777Y-18962389D02*
X12446253Y-18981436D01*
X12446253Y-18981436D02*
X12436729Y-18990960D01*
X12436729Y-18990960D02*
X12417682Y-19000484D01*
X12417682Y-19000484D02*
X12398634Y-19000484D01*
X12398634Y-19000484D02*
X12379586Y-18990960D01*
X12379586Y-18990960D02*
X12370063Y-18981436D01*
X12370063Y-18981436D02*
X12360539Y-18962389D01*
X12360539Y-18962389D02*
X12351015Y-18924293D01*
X12351015Y-18924293D02*
X12351015Y-18876674D01*
X12351015Y-18876674D02*
X12360539Y-18838579D01*
X12360539Y-18838579D02*
X12370063Y-18819531D01*
X12370063Y-18819531D02*
X12379586Y-18810008D01*
X12379586Y-18810008D02*
X12398634Y-18800484D01*
X12560539Y-18990960D02*
X12560539Y-19000484D01*
X12560539Y-19000484D02*
X12551015Y-19019531D01*
X12551015Y-19019531D02*
X12541491Y-19029055D01*
X12684348Y-18800484D02*
X12703396Y-18800484D01*
X12703396Y-18800484D02*
X12722444Y-18810008D01*
X12722444Y-18810008D02*
X12731967Y-18819531D01*
X12731967Y-18819531D02*
X12741491Y-18838579D01*
X12741491Y-18838579D02*
X12751015Y-18876674D01*
X12751015Y-18876674D02*
X12751015Y-18924293D01*
X12751015Y-18924293D02*
X12741491Y-18962389D01*
X12741491Y-18962389D02*
X12731967Y-18981436D01*
X12731967Y-18981436D02*
X12722444Y-18990960D01*
X12722444Y-18990960D02*
X12703396Y-19000484D01*
X12703396Y-19000484D02*
X12684348Y-19000484D01*
X12684348Y-19000484D02*
X12665301Y-18990960D01*
X12665301Y-18990960D02*
X12655777Y-18981436D01*
X12655777Y-18981436D02*
X12646253Y-18962389D01*
X12646253Y-18962389D02*
X12636729Y-18924293D01*
X12636729Y-18924293D02*
X12636729Y-18876674D01*
X12636729Y-18876674D02*
X12646253Y-18838579D01*
X12646253Y-18838579D02*
X12655777Y-18819531D01*
X12655777Y-18819531D02*
X12665301Y-18810008D01*
X12665301Y-18810008D02*
X12684348Y-18800484D01*
X12817682Y-18800484D02*
X12941491Y-18800484D01*
X12941491Y-18800484D02*
X12874825Y-18876674D01*
X12874825Y-18876674D02*
X12903396Y-18876674D01*
X12903396Y-18876674D02*
X12922444Y-18886198D01*
X12922444Y-18886198D02*
X12931967Y-18895722D01*
X12931967Y-18895722D02*
X12941491Y-18914770D01*
X12941491Y-18914770D02*
X12941491Y-18962389D01*
X12941491Y-18962389D02*
X12931967Y-18981436D01*
X12931967Y-18981436D02*
X12922444Y-18990960D01*
X12922444Y-18990960D02*
X12903396Y-19000484D01*
X12903396Y-19000484D02*
X12846253Y-19000484D01*
X12846253Y-19000484D02*
X12827206Y-18990960D01*
X12827206Y-18990960D02*
X12817682Y-18981436D01*
X13036729Y-19000484D02*
X13074825Y-19000484D01*
X13074825Y-19000484D02*
X13093872Y-18990960D01*
X13093872Y-18990960D02*
X13103396Y-18981436D01*
X13103396Y-18981436D02*
X13122444Y-18952865D01*
X13122444Y-18952865D02*
X13131967Y-18914770D01*
X13131967Y-18914770D02*
X13131967Y-18838579D01*
X13131967Y-18838579D02*
X13122444Y-18819531D01*
X13122444Y-18819531D02*
X13112920Y-18810008D01*
X13112920Y-18810008D02*
X13093872Y-18800484D01*
X13093872Y-18800484D02*
X13055777Y-18800484D01*
X13055777Y-18800484D02*
X13036729Y-18810008D01*
X13036729Y-18810008D02*
X13027206Y-18819531D01*
X13027206Y-18819531D02*
X13017682Y-18838579D01*
X13017682Y-18838579D02*
X13017682Y-18886198D01*
X13017682Y-18886198D02*
X13027206Y-18905246D01*
X13027206Y-18905246D02*
X13036729Y-18914770D01*
X13036729Y-18914770D02*
X13055777Y-18924293D01*
X13055777Y-18924293D02*
X13093872Y-18924293D01*
X13093872Y-18924293D02*
X13112920Y-18914770D01*
X13112920Y-18914770D02*
X13122444Y-18905246D01*
X13122444Y-18905246D02*
X13131967Y-18886198D01*
X13303396Y-18867150D02*
X13303396Y-19000484D01*
X13255777Y-18790960D02*
X13208158Y-18933817D01*
X13208158Y-18933817D02*
X13331967Y-18933817D01*
X13398634Y-18800484D02*
X13398634Y-18838579D01*
X13474825Y-18800484D02*
X13474825Y-18838579D01*
X13770063Y-19076674D02*
X13760539Y-19067150D01*
X13760539Y-19067150D02*
X13741491Y-19038579D01*
X13741491Y-19038579D02*
X13731968Y-19019531D01*
X13731968Y-19019531D02*
X13722444Y-18990960D01*
X13722444Y-18990960D02*
X13712920Y-18943341D01*
X13712920Y-18943341D02*
X13712920Y-18905246D01*
X13712920Y-18905246D02*
X13722444Y-18857627D01*
X13722444Y-18857627D02*
X13731968Y-18829055D01*
X13731968Y-18829055D02*
X13741491Y-18810008D01*
X13741491Y-18810008D02*
X13760539Y-18781436D01*
X13760539Y-18781436D02*
X13770063Y-18771912D01*
X13827206Y-18800484D02*
X13951015Y-18800484D01*
X13951015Y-18800484D02*
X13884348Y-18876674D01*
X13884348Y-18876674D02*
X13912920Y-18876674D01*
X13912920Y-18876674D02*
X13931968Y-18886198D01*
X13931968Y-18886198D02*
X13941491Y-18895722D01*
X13941491Y-18895722D02*
X13951015Y-18914770D01*
X13951015Y-18914770D02*
X13951015Y-18962389D01*
X13951015Y-18962389D02*
X13941491Y-18981436D01*
X13941491Y-18981436D02*
X13931968Y-18990960D01*
X13931968Y-18990960D02*
X13912920Y-19000484D01*
X13912920Y-19000484D02*
X13855777Y-19000484D01*
X13855777Y-19000484D02*
X13836729Y-18990960D01*
X13836729Y-18990960D02*
X13827206Y-18981436D01*
X14074825Y-18800484D02*
X14093872Y-18800484D01*
X14093872Y-18800484D02*
X14112920Y-18810008D01*
X14112920Y-18810008D02*
X14122444Y-18819531D01*
X14122444Y-18819531D02*
X14131968Y-18838579D01*
X14131968Y-18838579D02*
X14141491Y-18876674D01*
X14141491Y-18876674D02*
X14141491Y-18924293D01*
X14141491Y-18924293D02*
X14131968Y-18962389D01*
X14131968Y-18962389D02*
X14122444Y-18981436D01*
X14122444Y-18981436D02*
X14112920Y-18990960D01*
X14112920Y-18990960D02*
X14093872Y-19000484D01*
X14093872Y-19000484D02*
X14074825Y-19000484D01*
X14074825Y-19000484D02*
X14055777Y-18990960D01*
X14055777Y-18990960D02*
X14046253Y-18981436D01*
X14046253Y-18981436D02*
X14036729Y-18962389D01*
X14036729Y-18962389D02*
X14027206Y-18924293D01*
X14027206Y-18924293D02*
X14027206Y-18876674D01*
X14027206Y-18876674D02*
X14036729Y-18838579D01*
X14036729Y-18838579D02*
X14046253Y-18819531D01*
X14046253Y-18819531D02*
X14055777Y-18810008D01*
X14055777Y-18810008D02*
X14074825Y-18800484D01*
X14379587Y-19000484D02*
X14379587Y-18800484D01*
X14465301Y-19000484D02*
X14465301Y-18895722D01*
X14465301Y-18895722D02*
X14455777Y-18876674D01*
X14455777Y-18876674D02*
X14436730Y-18867150D01*
X14436730Y-18867150D02*
X14408158Y-18867150D01*
X14408158Y-18867150D02*
X14389110Y-18876674D01*
X14389110Y-18876674D02*
X14379587Y-18886198D01*
X14589110Y-19000484D02*
X14570063Y-18990960D01*
X14570063Y-18990960D02*
X14560539Y-18981436D01*
X14560539Y-18981436D02*
X14551015Y-18962389D01*
X14551015Y-18962389D02*
X14551015Y-18905246D01*
X14551015Y-18905246D02*
X14560539Y-18886198D01*
X14560539Y-18886198D02*
X14570063Y-18876674D01*
X14570063Y-18876674D02*
X14589110Y-18867150D01*
X14589110Y-18867150D02*
X14617682Y-18867150D01*
X14617682Y-18867150D02*
X14636730Y-18876674D01*
X14636730Y-18876674D02*
X14646253Y-18886198D01*
X14646253Y-18886198D02*
X14655777Y-18905246D01*
X14655777Y-18905246D02*
X14655777Y-18962389D01*
X14655777Y-18962389D02*
X14646253Y-18981436D01*
X14646253Y-18981436D02*
X14636730Y-18990960D01*
X14636730Y-18990960D02*
X14617682Y-19000484D01*
X14617682Y-19000484D02*
X14589110Y-19000484D01*
X14770063Y-19000484D02*
X14751015Y-18990960D01*
X14751015Y-18990960D02*
X14741491Y-18971912D01*
X14741491Y-18971912D02*
X14741491Y-18800484D01*
X14922444Y-18990960D02*
X14903396Y-19000484D01*
X14903396Y-19000484D02*
X14865301Y-19000484D01*
X14865301Y-19000484D02*
X14846253Y-18990960D01*
X14846253Y-18990960D02*
X14836730Y-18971912D01*
X14836730Y-18971912D02*
X14836730Y-18895722D01*
X14836730Y-18895722D02*
X14846253Y-18876674D01*
X14846253Y-18876674D02*
X14865301Y-18867150D01*
X14865301Y-18867150D02*
X14903396Y-18867150D01*
X14903396Y-18867150D02*
X14922444Y-18876674D01*
X14922444Y-18876674D02*
X14931968Y-18895722D01*
X14931968Y-18895722D02*
X14931968Y-18914770D01*
X14931968Y-18914770D02*
X14836730Y-18933817D01*
X15008158Y-18990960D02*
X15027206Y-19000484D01*
X15027206Y-19000484D02*
X15065301Y-19000484D01*
X15065301Y-19000484D02*
X15084349Y-18990960D01*
X15084349Y-18990960D02*
X15093872Y-18971912D01*
X15093872Y-18971912D02*
X15093872Y-18962389D01*
X15093872Y-18962389D02*
X15084349Y-18943341D01*
X15084349Y-18943341D02*
X15065301Y-18933817D01*
X15065301Y-18933817D02*
X15036730Y-18933817D01*
X15036730Y-18933817D02*
X15017682Y-18924293D01*
X15017682Y-18924293D02*
X15008158Y-18905246D01*
X15008158Y-18905246D02*
X15008158Y-18895722D01*
X15008158Y-18895722D02*
X15017682Y-18876674D01*
X15017682Y-18876674D02*
X15036730Y-18867150D01*
X15036730Y-18867150D02*
X15065301Y-18867150D01*
X15065301Y-18867150D02*
X15084349Y-18876674D01*
X15160539Y-19076674D02*
X15170063Y-19067150D01*
X15170063Y-19067150D02*
X15189111Y-19038579D01*
X15189111Y-19038579D02*
X15198634Y-19019531D01*
X15198634Y-19019531D02*
X15208158Y-18990960D01*
X15208158Y-18990960D02*
X15217682Y-18943341D01*
X15217682Y-18943341D02*
X15217682Y-18905246D01*
X15217682Y-18905246D02*
X15208158Y-18857627D01*
X15208158Y-18857627D02*
X15198634Y-18829055D01*
X15198634Y-18829055D02*
X15189111Y-18810008D01*
X15189111Y-18810008D02*
X15170063Y-18781436D01*
X15170063Y-18781436D02*
X15160539Y-18771912D01*
M02*
