M48
; DRILL file KiCad 10.0.3 date 2026-07-11T14:09:28
; FORMAT={-:-/ absolute / metric / decimal}
; #@! TF.CreationDate,2026-07-11T14:09:28+02:00
; #@! TF.GenerationSoftware,Kicad,Pcbnew,10.0.3
; #@! TF.FileFunction,Plated,1,2,PTH
FMAT,2
METRIC
; #@! TA.AperFunction,Plated,PTH,ViaDrill
T1C0.300
; #@! TA.AperFunction,Plated,PTH,ComponentDrill
T2C1.000
%
G90
G05
T1
X104.0Y-102.0
X104.0Y-112.0
X104.0Y-130.0
X104.0Y-178.0
X106.4Y-122.9
X106.51Y-116.5
X107.2Y-120.7
X108.0Y-101.3
X108.38Y-112.55
X110.0Y-150.0
X110.92Y-112.55
X112.825Y-122.9
X113.46Y-112.55
X114.095Y-122.6
X115.365Y-123.55
X116.0Y-103.6
X116.0Y-112.55
X116.635Y-124.85
X117.905Y-125.5
X118.54Y-112.55
X119.175Y-124.2
X120.445Y-122.6
X121.08Y-112.55
X122.0Y-101.3
X122.0Y-150.0
X123.62Y-112.55
X124.2Y-112.5
X126.16Y-112.55
X126.5Y-104.0
X126.5Y-150.0
T2
X104.57Y-106.58
X104.57Y-173.42
X104.57Y-175.96
X107.11Y-106.58
X107.11Y-173.42
X107.11Y-175.96
X109.65Y-106.58
X109.65Y-173.42
X109.65Y-175.96
X112.19Y-106.58
X112.19Y-173.42
X112.19Y-175.96
X114.73Y-106.58
X114.73Y-173.42
X114.73Y-175.96
X117.27Y-106.58
X117.27Y-173.42
X117.27Y-175.96
X119.81Y-106.58
X119.81Y-173.42
X119.81Y-175.96
X122.35Y-106.58
X122.35Y-173.42
X122.35Y-175.96
X124.89Y-106.58
X124.89Y-173.42
X124.89Y-175.96
X127.43Y-106.58
X127.43Y-173.42
X127.43Y-175.96
M30
