<svg xmlns="http://www.w3.org/2000/svg" width="490" height="286" viewBox="0 0 490 286" font-family="sans-serif">
<rect width="490" height="286" fill="white"/>
<text x="12" y="26" font-size="17" font-weight="bold">J1 — Socket_1x10_backside</text>
<text x="12" y="46" font-size="12" fill="#666">bovenaanzicht bord (kijkend op de pinnen); pin 1 = vierkant</text>
<rect x="49.0" y="186.0" width="358.0" height="44.0" rx="4" fill="#2b2b2b"/>
<rect x="56.0" y="193.0" width="344.0" height="30.0" rx="2" fill="#3d3d3d"/>
<rect x="372.0" y="199.0" width="18" height="18" fill="#9aa0a6" stroke="#5f6368" stroke-width="1.5"/>
<text x="381.0" y="212.0" font-size="10" text-anchor="middle" fill="#222">1</text>
<text x="385.0" y="176.0" font-size="12" transform="rotate(-55 385.0 176.0)">GND</text>
<circle cx="347.0" cy="208.0" r="9" fill="#ffd966" stroke="#7f6000" stroke-width="1.5"/>
<text x="347.0" y="212.0" font-size="10" text-anchor="middle" fill="#222">2</text>
<text x="351.0" y="176.0" font-size="12" transform="rotate(-55 351.0 176.0)">SDA</text>
<circle cx="313.0" cy="208.0" r="9" fill="#ffd966" stroke="#7f6000" stroke-width="1.5"/>
<text x="313.0" y="212.0" font-size="10" text-anchor="middle" fill="#222">3</text>
<text x="317.0" y="176.0" font-size="12" transform="rotate(-55 317.0 176.0)">SCL</text>
<circle cx="279.0" cy="208.0" r="9" fill="#ffd966" stroke="#7f6000" stroke-width="1.5"/>
<text x="279.0" y="212.0" font-size="10" text-anchor="middle" fill="#222">4</text>
<text x="283.0" y="176.0" font-size="12" transform="rotate(-55 283.0 176.0)">IRQ</text>
<circle cx="245.0" cy="208.0" r="9" fill="#ddd" stroke="#999" stroke-width="1.5"/>
<text x="245.0" y="212.0" font-size="10" text-anchor="middle" fill="#222">5</text>
<text x="249.0" y="176.0" font-size="12" transform="rotate(-55 249.0 176.0)">nc</text>
<circle cx="211.0" cy="208.0" r="9" fill="#ddd" stroke="#999" stroke-width="1.5"/>
<text x="211.0" y="212.0" font-size="10" text-anchor="middle" fill="#222">6</text>
<text x="215.0" y="176.0" font-size="12" transform="rotate(-55 215.0 176.0)">nc</text>
<circle cx="177.0" cy="208.0" r="9" fill="#ddd" stroke="#999" stroke-width="1.5"/>
<text x="177.0" y="212.0" font-size="10" text-anchor="middle" fill="#222">7</text>
<text x="181.0" y="176.0" font-size="12" transform="rotate(-55 181.0 176.0)">nc</text>
<circle cx="142.99999999999997" cy="208.0" r="9" fill="#ddd" stroke="#999" stroke-width="1.5"/>
<text x="142.99999999999997" y="212.0" font-size="10" text-anchor="middle" fill="#222">8</text>
<text x="146.99999999999997" y="176.0" font-size="12" transform="rotate(-55 146.99999999999997 176.0)">nc</text>
<circle cx="108.99999999999999" cy="208.0" r="9" fill="#ddd" stroke="#999" stroke-width="1.5"/>
<text x="108.99999999999999" y="212.0" font-size="10" text-anchor="middle" fill="#222">9</text>
<text x="112.99999999999999" y="176.0" font-size="12" transform="rotate(-55 112.99999999999999 176.0)">nc</text>
<circle cx="75.0" cy="208.0" r="9" fill="#e06666" stroke="#990000" stroke-width="1.5"/>
<text x="75.0" y="212.0" font-size="10" text-anchor="middle" fill="#222">10</text>
<text x="79.0" y="176.0" font-size="12" transform="rotate(-55 79.0 176.0)">+3V3</text>
</svg>