%TF.GenerationSoftware,KiCad,Pcbnew,10.0.3*%
%TF.CreationDate,2026-07-08T12:05:26+02:00*%
%TF.ProjectId,musicbrain-gatein8,6d757369-6362-4726-9169-6e2d67617465,1.0*%
%TF.SameCoordinates,Original*%
%TF.FileFunction,Paste,Top*%
%TF.FilePolarity,Positive*%
%FSLAX46Y46*%
G04 Gerber Fmt 4.6, Leading zero omitted, Abs format (unit mm)*
G04 Created by KiCad (PCBNEW 10.0.3) date 2026-07-08 12:05:26*
%MOMM*%
%LPD*%
G01*
G04 APERTURE LIST*
G04 Aperture macros list*
%AMRoundRect*
0 Rectangle with rounded corners*
0 $1 Rounding radius*
0 $2 $3 $4 $5 $6 $7 $8 $9 X,Y pos of 4 corners*
0 Add a 4 corners polygon primitive as box body*
4,1,4,$2,$3,$4,$5,$6,$7,$8,$9,$2,$3,0*
0 Add four circle primitives for the rounded corners*
1,1,$1+$1,$2,$3*
1,1,$1+$1,$4,$5*
1,1,$1+$1,$6,$7*
1,1,$1+$1,$8,$9*
0 Add four rect primitives between the rounded corners*
20,1,$1+$1,$2,$3,$4,$5,0*
20,1,$1+$1,$4,$5,$6,$7,0*
20,1,$1+$1,$6,$7,$8,$9,0*
20,1,$1+$1,$8,$9,$2,$3,0*%
G04 Aperture macros list end*
%ADD10RoundRect,0.150000X0.150000X-0.825000X0.150000X0.825000X-0.150000X0.825000X-0.150000X-0.825000X0*%
%ADD11RoundRect,0.150000X-0.512500X-0.150000X0.512500X-0.150000X0.512500X0.150000X-0.512500X0.150000X0*%
%ADD12RoundRect,0.250000X-0.450000X0.262500X-0.450000X-0.262500X0.450000X-0.262500X0.450000X0.262500X0*%
%ADD13RoundRect,0.150000X0.150000X-0.587500X0.150000X0.587500X-0.150000X0.587500X-0.150000X-0.587500X0*%
%ADD14RoundRect,0.250000X-0.262500X-0.450000X0.262500X-0.450000X0.262500X0.450000X-0.262500X0.450000X0*%
%ADD15RoundRect,0.250000X-0.475000X0.250000X-0.475000X-0.250000X0.475000X-0.250000X0.475000X0.250000X0*%
%ADD16RoundRect,0.250000X0.250000X0.475000X-0.250000X0.475000X-0.250000X-0.475000X0.250000X-0.475000X0*%
%ADD17RoundRect,0.250000X0.550000X-1.050000X0.550000X1.050000X-0.550000X1.050000X-0.550000X-1.050000X0*%
G04 APERTURE END LIST*
D10*
%TO.C,U1*%
X115555000Y-140475000D03*
X116825000Y-140475000D03*
X118095000Y-140475000D03*
X119365000Y-140475000D03*
X120635000Y-140475000D03*
X121905000Y-140475000D03*
X123175000Y-140475000D03*
X124445000Y-140475000D03*
X124445000Y-135525000D03*
X123175000Y-135525000D03*
X121905000Y-135525000D03*
X120635000Y-135525000D03*
X119365000Y-135525000D03*
X118095000Y-135525000D03*
X116825000Y-135525000D03*
X115555000Y-135525000D03*
%TD*%
D11*
%TO.C,U2*%
X132362500Y-140550000D03*
X132362500Y-141500000D03*
X132362500Y-142450000D03*
X134637500Y-142450000D03*
X134637500Y-140550000D03*
%TD*%
D12*
%TO.C,R1*%
X111110000Y-110587500D03*
X111110000Y-112412500D03*
%TD*%
%TO.C,R11*%
X112380000Y-114587500D03*
X112380000Y-116412500D03*
%TD*%
D13*
%TO.C,D1*%
X110160000Y-121537500D03*
X112060000Y-121537500D03*
X111110000Y-119662500D03*
%TD*%
D12*
%TO.C,R2*%
X113650000Y-110587500D03*
X113650000Y-112412500D03*
%TD*%
%TO.C,R12*%
X114920000Y-114587500D03*
X114920000Y-116412500D03*
%TD*%
D13*
%TO.C,D2*%
X112700000Y-125937500D03*
X114600000Y-125937500D03*
X113650000Y-124062500D03*
%TD*%
D12*
%TO.C,R3*%
X116190000Y-110587500D03*
X116190000Y-112412500D03*
%TD*%
%TO.C,R13*%
X117460000Y-114587500D03*
X117460000Y-116412500D03*
%TD*%
D13*
%TO.C,D3*%
X115240000Y-121537500D03*
X117140000Y-121537500D03*
X116190000Y-119662500D03*
%TD*%
D12*
%TO.C,R4*%
X118730000Y-110587500D03*
X118730000Y-112412500D03*
%TD*%
%TO.C,R14*%
X120000000Y-114587500D03*
X120000000Y-116412500D03*
%TD*%
D13*
%TO.C,D4*%
X117780000Y-125937500D03*
X119680000Y-125937500D03*
X118730000Y-124062500D03*
%TD*%
D12*
%TO.C,R5*%
X121270000Y-110587500D03*
X121270000Y-112412500D03*
%TD*%
%TO.C,R15*%
X122540000Y-114587500D03*
X122540000Y-116412500D03*
%TD*%
D13*
%TO.C,D5*%
X120320000Y-121537500D03*
X122220000Y-121537500D03*
X121270000Y-119662500D03*
%TD*%
D12*
%TO.C,R6*%
X123810000Y-110587500D03*
X123810000Y-112412500D03*
%TD*%
%TO.C,R16*%
X125080000Y-114587500D03*
X125080000Y-116412500D03*
%TD*%
D13*
%TO.C,D6*%
X122860000Y-125937500D03*
X124760000Y-125937500D03*
X123810000Y-124062500D03*
%TD*%
D12*
%TO.C,R7*%
X126350000Y-110587500D03*
X126350000Y-112412500D03*
%TD*%
%TO.C,R17*%
X127620000Y-114587500D03*
X127620000Y-116412500D03*
%TD*%
D13*
%TO.C,D7*%
X125400000Y-121537500D03*
X127300000Y-121537500D03*
X126350000Y-119662500D03*
%TD*%
D12*
%TO.C,R8*%
X128890000Y-110587500D03*
X128890000Y-112412500D03*
%TD*%
%TO.C,R18*%
X130160000Y-114587500D03*
X130160000Y-116412500D03*
%TD*%
D13*
%TO.C,D8*%
X127940000Y-125937500D03*
X129840000Y-125937500D03*
X128890000Y-124062500D03*
%TD*%
D14*
%TO.C,R9*%
X111987500Y-145400000D03*
X113812500Y-145400000D03*
%TD*%
D15*
%TO.C,C3*%
X110800000Y-149550000D03*
X110800000Y-151450000D03*
%TD*%
D16*
%TO.C,C1*%
X114550000Y-132900000D03*
X112650000Y-132900000D03*
%TD*%
D17*
%TO.C,C2*%
X135000000Y-119000000D03*
X135000000Y-115400000D03*
%TD*%
M02*
