%TF.GenerationSoftware,KiCad,Pcbnew,10.0.3*%
%TF.CreationDate,2026-07-11T15:12:07+02:00*%
%TF.ProjectId,musicbrain-i2criser,6d757369-6362-4726-9169-6e2d69326372,1.0*%
%TF.SameCoordinates,Original*%
%TF.FileFunction,Copper,L1,Top*%
%TF.FilePolarity,Positive*%
%FSLAX46Y46*%
G04 Gerber Fmt 4.6, Leading zero omitted, Abs format (unit mm)*
G04 Created by KiCad (PCBNEW 10.0.3) date 2026-07-11 15:12:07*
%MOMM*%
%LPD*%
G01*
G04 APERTURE LIST*
%TA.AperFunction,ComponentPad*%
%ADD10R,1.700000X1.700000*%
%TD*%
%TA.AperFunction,ComponentPad*%
%ADD11C,1.700000*%
%TD*%
%TA.AperFunction,ViaPad*%
%ADD12C,0.500000*%
%TD*%
%TA.AperFunction,Conductor*%
%ADD13C,0.400000*%
%TD*%
G04 APERTURE END LIST*
D10*
%TO.P,J1,1*%
%TO.N,GND*%
X127430000Y-173420000D03*
D11*
%TO.P,J1,2*%
%TO.N,N/C*%
X127430000Y-175960000D03*
%TO.P,J1,3*%
%TO.N,GND*%
X124890000Y-173420000D03*
%TO.P,J1,4*%
%TO.N,N/C*%
X124890000Y-175960000D03*
%TO.P,J1,5*%
%TO.N,GND*%
X122350000Y-173420000D03*
%TO.P,J1,6*%
%TO.N,+3V3*%
X122350000Y-175960000D03*
%TO.P,J1,7*%
%TO.N,N/C*%
X119810000Y-173420000D03*
%TO.P,J1,8*%
%TO.N,GND*%
X119810000Y-175960000D03*
%TO.P,J1,9*%
%TO.N,N/C*%
X117270000Y-173420000D03*
%TO.P,J1,10*%
%TO.N,GND*%
X117270000Y-175960000D03*
%TO.P,J1,11*%
%TO.N,N/C*%
X114730000Y-173420000D03*
%TO.P,J1,12*%
%TO.N,GND*%
X114730000Y-175960000D03*
%TO.P,J1,13*%
%TO.N,N/C*%
X112190000Y-173420000D03*
%TO.P,J1,14*%
%TO.N,GND*%
X112190000Y-175960000D03*
%TO.P,J1,15*%
%TO.N,N/C*%
X109650000Y-173420000D03*
%TO.P,J1,16*%
%TO.N,/IRQ*%
X109650000Y-175960000D03*
%TO.P,J1,17*%
%TO.N,/SDA*%
X107110000Y-173420000D03*
%TO.P,J1,18*%
%TO.N,/SCL*%
X107110000Y-175960000D03*
%TO.P,J1,19*%
%TO.N,N/C*%
X104570000Y-173420000D03*
%TO.P,J1,20*%
X104570000Y-175960000D03*
%TD*%
D10*
%TO.P,J2,1*%
%TO.N,GND*%
X104570000Y-106580000D03*
D11*
%TO.P,J2,2*%
%TO.N,/SDA*%
X107110000Y-106580000D03*
%TO.P,J2,3*%
%TO.N,/SCL*%
X109650000Y-106580000D03*
%TO.P,J2,4*%
%TO.N,/IRQ*%
X112190000Y-106580000D03*
%TO.P,J2,5*%
%TO.N,N/C*%
X114730000Y-106580000D03*
%TO.P,J2,6*%
X117270000Y-106580000D03*
%TO.P,J2,7*%
X119810000Y-106580000D03*
%TO.P,J2,8*%
X122350000Y-106580000D03*
%TO.P,J2,9*%
X124890000Y-106580000D03*
%TO.P,J2,10*%
%TO.N,+3V3*%
X127430000Y-106580000D03*
%TD*%
D12*
%TO.N,GND*%
X103500000Y-101500000D03*
X128500000Y-101500000D03*
X103500000Y-178500000D03*
X126000000Y-178500000D03*
X103500000Y-140000000D03*
X127000000Y-140000000D03*
X116000000Y-120000000D03*
X116000000Y-160000000D03*
%TD*%
%TO.N,+3V3*%
D13*
X122350000Y-175960000D02*
X122350000Y-177400000D01*
X122350000Y-177400000D02*
X128800000Y-177400000D01*
X128800000Y-177400000D02*
X128800000Y-107500000D01*
X128800000Y-107500000D02*
X127430000Y-107500000D01*
X127430000Y-107500000D02*
X127430000Y-106580000D01*
%TD*%
%TA.AperFunction,Conductor*%
%TO.N,GND*%
G36*
X129458691Y-100519407D02*
G01*
X129494655Y-100568907D01*
X129499500Y-100599500D01*
X129499500Y-179400500D01*
X129480593Y-179458691D01*
X129431093Y-179494655D01*
X129400500Y-179499500D01*
X102599500Y-179499500D01*
X102541309Y-179480593D01*
X102505345Y-179431093D01*
X102500500Y-179400500D01*
X102500500Y-175869450D01*
X103419500Y-175869450D01*
X103419500Y-176050549D01*
X103447828Y-176229406D01*
X103447829Y-176229409D01*
X103503789Y-176401639D01*
X103586004Y-176562994D01*
X103692447Y-176709501D01*
X103820499Y-176837553D01*
X103967006Y-176943996D01*
X104128361Y-177026211D01*
X104300591Y-177082171D01*
X104372136Y-177093502D01*
X104479451Y-177110500D01*
X104479454Y-177110500D01*
X104660549Y-177110500D01*
X104749977Y-177096335D01*
X104839409Y-177082171D01*
X105011639Y-177026211D01*
X105172994Y-176943996D01*
X105319501Y-176837553D01*
X105447553Y-176709501D01*
X105553996Y-176562994D01*
X105636211Y-176401639D01*
X105692171Y-176229409D01*
X105720500Y-176050546D01*
X105720500Y-175869454D01*
X105720500Y-175869450D01*
X105959500Y-175869450D01*
X105959500Y-176050549D01*
X105987828Y-176229406D01*
X105987829Y-176229409D01*
X106043789Y-176401639D01*
X106126004Y-176562994D01*
X106232447Y-176709501D01*
X106360499Y-176837553D01*
X106507006Y-176943996D01*
X106668361Y-177026211D01*
X106840591Y-177082171D01*
X106912136Y-177093502D01*
X107019451Y-177110500D01*
X107019454Y-177110500D01*
X107200549Y-177110500D01*
X107289977Y-177096335D01*
X107379409Y-177082171D01*
X107551639Y-177026211D01*
X107712994Y-176943996D01*
X107859501Y-176837553D01*
X107987553Y-176709501D01*
X108093996Y-176562994D01*
X108176211Y-176401639D01*
X108232171Y-176229409D01*
X108260500Y-176050546D01*
X108260500Y-175869454D01*
X108260500Y-175869450D01*
X108499500Y-175869450D01*
X108499500Y-176050549D01*
X108527828Y-176229406D01*
X108527829Y-176229409D01*
X108583789Y-176401639D01*
X108666004Y-176562994D01*
X108772447Y-176709501D01*
X108900499Y-176837553D01*
X109047006Y-176943996D01*
X109208361Y-177026211D01*
X109380591Y-177082171D01*
X109452136Y-177093502D01*
X109559451Y-177110500D01*
X109559454Y-177110500D01*
X109740549Y-177110500D01*
X109829977Y-177096335D01*
X109919409Y-177082171D01*
X110091639Y-177026211D01*
X110252994Y-176943996D01*
X110399501Y-176837553D01*
X110527553Y-176709501D01*
X110633996Y-176562994D01*
X110716211Y-176401639D01*
X110772171Y-176229409D01*
X110800500Y-176050546D01*
X110800500Y-175869454D01*
X110800500Y-175869450D01*
X121199500Y-175869450D01*
X121199500Y-176050549D01*
X121227828Y-176229406D01*
X121227829Y-176229409D01*
X121283789Y-176401639D01*
X121366004Y-176562994D01*
X121472447Y-176709501D01*
X121600499Y-176837553D01*
X121747006Y-176943996D01*
X121747010Y-176943998D01*
X121795444Y-176968676D01*
X121838709Y-177011940D01*
X121849500Y-177056886D01*
X121849500Y-177334108D01*
X121849500Y-177465892D01*
X121879579Y-177578151D01*
X121883609Y-177593190D01*
X121949496Y-177707309D01*
X121949498Y-177707311D01*
X121949500Y-177707314D01*
X122042686Y-177800500D01*
X122042688Y-177800501D01*
X122042690Y-177800503D01*
X122156810Y-177866390D01*
X122156808Y-177866390D01*
X122156812Y-177866391D01*
X122156814Y-177866392D01*
X122284108Y-177900500D01*
X122284110Y-177900500D01*
X128865890Y-177900500D01*
X128865892Y-177900500D01*
X128993186Y-177866392D01*
X128993188Y-177866390D01*
X128993190Y-177866390D01*
X129107309Y-177800503D01*
X129107309Y-177800502D01*
X129107314Y-177800500D01*
X129200500Y-177707314D01*
X129266392Y-177593186D01*
X129300500Y-177465892D01*
X129300500Y-107434108D01*
X129266392Y-107306814D01*
X129266390Y-107306811D01*
X129266390Y-107306809D01*
X129200503Y-107192690D01*
X129200501Y-107192688D01*
X129200500Y-107192686D01*
X129107314Y-107099500D01*
X129107311Y-107099498D01*
X129107309Y-107099496D01*
X128993189Y-107033609D01*
X128993191Y-107033609D01*
X128943799Y-107020375D01*
X128865892Y-106999500D01*
X128865890Y-106999500D01*
X128639666Y-106999500D01*
X128581475Y-106980593D01*
X128545511Y-106931093D01*
X128545511Y-106869909D01*
X128552171Y-106849408D01*
X128580500Y-106670549D01*
X128580500Y-106489450D01*
X128552171Y-106310593D01*
X128552171Y-106310591D01*
X128496211Y-106138361D01*
X128413996Y-105977006D01*
X128307553Y-105830499D01*
X128179501Y-105702447D01*
X128032994Y-105596004D01*
X128032993Y-105596003D01*
X128032991Y-105596002D01*
X127871637Y-105513788D01*
X127699406Y-105457828D01*
X127520549Y-105429500D01*
X127520546Y-105429500D01*
X127339454Y-105429500D01*
X127339451Y-105429500D01*
X127160593Y-105457828D01*
X126988362Y-105513788D01*
X126827008Y-105596002D01*
X126753752Y-105649225D01*
X126680499Y-105702447D01*
X126552447Y-105830499D01*
X126499225Y-105903752D01*
X126446002Y-105977008D01*
X126363788Y-106138362D01*
X126307828Y-106310593D01*
X126279500Y-106489450D01*
X126279500Y-106670549D01*
X126307828Y-106849406D01*
X126356595Y-106999500D01*
X126363789Y-107021639D01*
X126446004Y-107182994D01*
X126552447Y-107329501D01*
X126680499Y-107457553D01*
X126827006Y-107563996D01*
X126827009Y-107563998D01*
X126827011Y-107563999D01*
X126905844Y-107604167D01*
X126949108Y-107647431D01*
X126956524Y-107666751D01*
X126963608Y-107693186D01*
X126963609Y-107693189D01*
X127029496Y-107807309D01*
X127029498Y-107807311D01*
X127029500Y-107807314D01*
X127122686Y-107900500D01*
X127122688Y-107900501D01*
X127122690Y-107900503D01*
X127236810Y-107966390D01*
X127236808Y-107966390D01*
X127236812Y-107966391D01*
X127236814Y-107966392D01*
X127364108Y-108000500D01*
X127495892Y-108000500D01*
X128200500Y-108000500D01*
X128258691Y-108019407D01*
X128294655Y-108068907D01*
X128299500Y-108099500D01*
X128299500Y-174975333D01*
X128280593Y-175033524D01*
X128231093Y-175069488D01*
X128169907Y-175069488D01*
X128142310Y-175055427D01*
X128032994Y-174976004D01*
X128032993Y-174976003D01*
X128032991Y-174976002D01*
X127871637Y-174893788D01*
X127699406Y-174837828D01*
X127520549Y-174809500D01*
X127520546Y-174809500D01*
X127339454Y-174809500D01*
X127339451Y-174809500D01*
X127160593Y-174837828D01*
X126988362Y-174893788D01*
X126827008Y-174976002D01*
X126753752Y-175029225D01*
X126680499Y-175082447D01*
X126552447Y-175210499D01*
X126499225Y-175283752D01*
X126446002Y-175357008D01*
X126363788Y-175518362D01*
X126307828Y-175690593D01*
X126279500Y-175869450D01*
X126279500Y-176050549D01*
X126307828Y-176229406D01*
X126307829Y-176229409D01*
X126363789Y-176401639D01*
X126446004Y-176562994D01*
X126552447Y-176709501D01*
X126573444Y-176730498D01*
X126601220Y-176785013D01*
X126591649Y-176845445D01*
X126548384Y-176888710D01*
X126503439Y-176899500D01*
X125816561Y-176899500D01*
X125758370Y-176880593D01*
X125722406Y-176831093D01*
X125722406Y-176769907D01*
X125746555Y-176730498D01*
X125767553Y-176709501D01*
X125873996Y-176562994D01*
X125956211Y-176401639D01*
X126012171Y-176229409D01*
X126040500Y-176050546D01*
X126040500Y-175869454D01*
X126040500Y-175869450D01*
X126012171Y-175690593D01*
X126012171Y-175690591D01*
X125956211Y-175518361D01*
X125873996Y-175357006D01*
X125767553Y-175210499D01*
X125639501Y-175082447D01*
X125492994Y-174976004D01*
X125492993Y-174976003D01*
X125492991Y-174976002D01*
X125331637Y-174893788D01*
X125159406Y-174837828D01*
X124980549Y-174809500D01*
X124980546Y-174809500D01*
X124799454Y-174809500D01*
X124799451Y-174809500D01*
X124620593Y-174837828D01*
X124448362Y-174893788D01*
X124287008Y-174976002D01*
X124213752Y-175029225D01*
X124140499Y-175082447D01*
X124012447Y-175210499D01*
X123959225Y-175283752D01*
X123906002Y-175357008D01*
X123823788Y-175518362D01*
X123767828Y-175690593D01*
X123739500Y-175869450D01*
X123739500Y-176050549D01*
X123767828Y-176229406D01*
X123767829Y-176229409D01*
X123823789Y-176401639D01*
X123906004Y-176562994D01*
X124012447Y-176709501D01*
X124033444Y-176730498D01*
X124061220Y-176785013D01*
X124051649Y-176845445D01*
X124008384Y-176888710D01*
X123963439Y-176899500D01*
X123276561Y-176899500D01*
X123218370Y-176880593D01*
X123182406Y-176831093D01*
X123182406Y-176769907D01*
X123206555Y-176730498D01*
X123227553Y-176709501D01*
X123333996Y-176562994D01*
X123416211Y-176401639D01*
X123472171Y-176229409D01*
X123500500Y-176050546D01*
X123500500Y-175869454D01*
X123500500Y-175869450D01*
X123472171Y-175690593D01*
X123472171Y-175690591D01*
X123416211Y-175518361D01*
X123333996Y-175357006D01*
X123227553Y-175210499D01*
X123099501Y-175082447D01*
X122952994Y-174976004D01*
X122952993Y-174976003D01*
X122952991Y-174976002D01*
X122791637Y-174893788D01*
X122619406Y-174837828D01*
X122440549Y-174809500D01*
X122440546Y-174809500D01*
X122259454Y-174809500D01*
X122259451Y-174809500D01*
X122080593Y-174837828D01*
X121908362Y-174893788D01*
X121747008Y-174976002D01*
X121673752Y-175029225D01*
X121600499Y-175082447D01*
X121472447Y-175210499D01*
X121419225Y-175283752D01*
X121366002Y-175357008D01*
X121283788Y-175518362D01*
X121227828Y-175690593D01*
X121199500Y-175869450D01*
X110800500Y-175869450D01*
X110772171Y-175690593D01*
X110772171Y-175690591D01*
X110716211Y-175518361D01*
X110633996Y-175357006D01*
X110527553Y-175210499D01*
X110399501Y-175082447D01*
X110252994Y-174976004D01*
X110252993Y-174976003D01*
X110252991Y-174976002D01*
X110091637Y-174893788D01*
X109919406Y-174837828D01*
X109740549Y-174809500D01*
X109740546Y-174809500D01*
X109559454Y-174809500D01*
X109559451Y-174809500D01*
X109380593Y-174837828D01*
X109208362Y-174893788D01*
X109047008Y-174976002D01*
X108973752Y-175029225D01*
X108900499Y-175082447D01*
X108772447Y-175210499D01*
X108719225Y-175283752D01*
X108666002Y-175357008D01*
X108583788Y-175518362D01*
X108527828Y-175690593D01*
X108499500Y-175869450D01*
X108260500Y-175869450D01*
X108232171Y-175690593D01*
X108232171Y-175690591D01*
X108176211Y-175518361D01*
X108093996Y-175357006D01*
X107987553Y-175210499D01*
X107859501Y-175082447D01*
X107712994Y-174976004D01*
X107712993Y-174976003D01*
X107712991Y-174976002D01*
X107551637Y-174893788D01*
X107379406Y-174837828D01*
X107200549Y-174809500D01*
X107200546Y-174809500D01*
X107019454Y-174809500D01*
X107019451Y-174809500D01*
X106840593Y-174837828D01*
X106668362Y-174893788D01*
X106507008Y-174976002D01*
X106433752Y-175029225D01*
X106360499Y-175082447D01*
X106232447Y-175210499D01*
X106179225Y-175283752D01*
X106126002Y-175357008D01*
X106043788Y-175518362D01*
X105987828Y-175690593D01*
X105959500Y-175869450D01*
X105720500Y-175869450D01*
X105692171Y-175690593D01*
X105692171Y-175690591D01*
X105636211Y-175518361D01*
X105553996Y-175357006D01*
X105447553Y-175210499D01*
X105319501Y-175082447D01*
X105172994Y-174976004D01*
X105172993Y-174976003D01*
X105172991Y-174976002D01*
X105011637Y-174893788D01*
X104839406Y-174837828D01*
X104660549Y-174809500D01*
X104660546Y-174809500D01*
X104479454Y-174809500D01*
X104479451Y-174809500D01*
X104300593Y-174837828D01*
X104128362Y-174893788D01*
X103967008Y-174976002D01*
X103893752Y-175029225D01*
X103820499Y-175082447D01*
X103692447Y-175210499D01*
X103639225Y-175283752D01*
X103586002Y-175357008D01*
X103503788Y-175518362D01*
X103447828Y-175690593D01*
X103419500Y-175869450D01*
X102500500Y-175869450D01*
X102500500Y-173329450D01*
X103419500Y-173329450D01*
X103419500Y-173510549D01*
X103447828Y-173689406D01*
X103447829Y-173689409D01*
X103503789Y-173861639D01*
X103586004Y-174022994D01*
X103692447Y-174169501D01*
X103820499Y-174297553D01*
X103967006Y-174403996D01*
X104128361Y-174486211D01*
X104300591Y-174542171D01*
X104372136Y-174553502D01*
X104479451Y-174570500D01*
X104479454Y-174570500D01*
X104660549Y-174570500D01*
X104749977Y-174556335D01*
X104839409Y-174542171D01*
X105011639Y-174486211D01*
X105172994Y-174403996D01*
X105319501Y-174297553D01*
X105447553Y-174169501D01*
X105553996Y-174022994D01*
X105636211Y-173861639D01*
X105692171Y-173689409D01*
X105720500Y-173510546D01*
X105720500Y-173329454D01*
X105720500Y-173329450D01*
X105959500Y-173329450D01*
X105959500Y-173510549D01*
X105987828Y-173689406D01*
X105987829Y-173689409D01*
X106043789Y-173861639D01*
X106126004Y-174022994D01*
X106232447Y-174169501D01*
X106360499Y-174297553D01*
X106507006Y-174403996D01*
X106668361Y-174486211D01*
X106840591Y-174542171D01*
X106912136Y-174553502D01*
X107019451Y-174570500D01*
X107019454Y-174570500D01*
X107200549Y-174570500D01*
X107289977Y-174556335D01*
X107379409Y-174542171D01*
X107551639Y-174486211D01*
X107712994Y-174403996D01*
X107859501Y-174297553D01*
X107987553Y-174169501D01*
X108093996Y-174022994D01*
X108176211Y-173861639D01*
X108232171Y-173689409D01*
X108260500Y-173510546D01*
X108260500Y-173329454D01*
X108260500Y-173329450D01*
X108499500Y-173329450D01*
X108499500Y-173510549D01*
X108527828Y-173689406D01*
X108527829Y-173689409D01*
X108583789Y-173861639D01*
X108666004Y-174022994D01*
X108772447Y-174169501D01*
X108900499Y-174297553D01*
X109047006Y-174403996D01*
X109208361Y-174486211D01*
X109380591Y-174542171D01*
X109452136Y-174553502D01*
X109559451Y-174570500D01*
X109559454Y-174570500D01*
X109740549Y-174570500D01*
X109829977Y-174556335D01*
X109919409Y-174542171D01*
X110091639Y-174486211D01*
X110252994Y-174403996D01*
X110399501Y-174297553D01*
X110527553Y-174169501D01*
X110633996Y-174022994D01*
X110716211Y-173861639D01*
X110772171Y-173689409D01*
X110800500Y-173510546D01*
X110800500Y-173329454D01*
X110800500Y-173329450D01*
X111039500Y-173329450D01*
X111039500Y-173510549D01*
X111067828Y-173689406D01*
X111067829Y-173689409D01*
X111123789Y-173861639D01*
X111206004Y-174022994D01*
X111312447Y-174169501D01*
X111440499Y-174297553D01*
X111587006Y-174403996D01*
X111748361Y-174486211D01*
X111920591Y-174542171D01*
X111992136Y-174553502D01*
X112099451Y-174570500D01*
X112099454Y-174570500D01*
X112280549Y-174570500D01*
X112369977Y-174556335D01*
X112459409Y-174542171D01*
X112631639Y-174486211D01*
X112792994Y-174403996D01*
X112939501Y-174297553D01*
X113067553Y-174169501D01*
X113173996Y-174022994D01*
X113256211Y-173861639D01*
X113312171Y-173689409D01*
X113340500Y-173510546D01*
X113340500Y-173329454D01*
X113340500Y-173329450D01*
X113579500Y-173329450D01*
X113579500Y-173510549D01*
X113607828Y-173689406D01*
X113607829Y-173689409D01*
X113663789Y-173861639D01*
X113746004Y-174022994D01*
X113852447Y-174169501D01*
X113980499Y-174297553D01*
X114127006Y-174403996D01*
X114288361Y-174486211D01*
X114460591Y-174542171D01*
X114532136Y-174553502D01*
X114639451Y-174570500D01*
X114639454Y-174570500D01*
X114820549Y-174570500D01*
X114909977Y-174556335D01*
X114999409Y-174542171D01*
X115171639Y-174486211D01*
X115332994Y-174403996D01*
X115479501Y-174297553D01*
X115607553Y-174169501D01*
X115713996Y-174022994D01*
X115796211Y-173861639D01*
X115852171Y-173689409D01*
X115880500Y-173510546D01*
X115880500Y-173329454D01*
X115880500Y-173329450D01*
X116119500Y-173329450D01*
X116119500Y-173510549D01*
X116147828Y-173689406D01*
X116147829Y-173689409D01*
X116203789Y-173861639D01*
X116286004Y-174022994D01*
X116392447Y-174169501D01*
X116520499Y-174297553D01*
X116667006Y-174403996D01*
X116828361Y-174486211D01*
X117000591Y-174542171D01*
X117072136Y-174553502D01*
X117179451Y-174570500D01*
X117179454Y-174570500D01*
X117360549Y-174570500D01*
X117449977Y-174556335D01*
X117539409Y-174542171D01*
X117711639Y-174486211D01*
X117872994Y-174403996D01*
X118019501Y-174297553D01*
X118147553Y-174169501D01*
X118253996Y-174022994D01*
X118336211Y-173861639D01*
X118392171Y-173689409D01*
X118420500Y-173510546D01*
X118420500Y-173329454D01*
X118420500Y-173329450D01*
X118659500Y-173329450D01*
X118659500Y-173510549D01*
X118687828Y-173689406D01*
X118687829Y-173689409D01*
X118743789Y-173861639D01*
X118826004Y-174022994D01*
X118932447Y-174169501D01*
X119060499Y-174297553D01*
X119207006Y-174403996D01*
X119368361Y-174486211D01*
X119540591Y-174542171D01*
X119612136Y-174553502D01*
X119719451Y-174570500D01*
X119719454Y-174570500D01*
X119900549Y-174570500D01*
X119989977Y-174556335D01*
X120079409Y-174542171D01*
X120251639Y-174486211D01*
X120412994Y-174403996D01*
X120559501Y-174297553D01*
X120687553Y-174169501D01*
X120793996Y-174022994D01*
X120876211Y-173861639D01*
X120932171Y-173689409D01*
X120960500Y-173510546D01*
X120960500Y-173329454D01*
X120960500Y-173329450D01*
X120932171Y-173150593D01*
X120932171Y-173150591D01*
X120876211Y-172978361D01*
X120793996Y-172817006D01*
X120687553Y-172670499D01*
X120559501Y-172542447D01*
X120412994Y-172436004D01*
X120412993Y-172436003D01*
X120412991Y-172436002D01*
X120251637Y-172353788D01*
X120079406Y-172297828D01*
X119900549Y-172269500D01*
X119900546Y-172269500D01*
X119719454Y-172269500D01*
X119719451Y-172269500D01*
X119540593Y-172297828D01*
X119368362Y-172353788D01*
X119207008Y-172436002D01*
X119133752Y-172489225D01*
X119060499Y-172542447D01*
X118932447Y-172670499D01*
X118879225Y-172743752D01*
X118826002Y-172817008D01*
X118743788Y-172978362D01*
X118687828Y-173150593D01*
X118659500Y-173329450D01*
X118420500Y-173329450D01*
X118392171Y-173150593D01*
X118392171Y-173150591D01*
X118336211Y-172978361D01*
X118253996Y-172817006D01*
X118147553Y-172670499D01*
X118019501Y-172542447D01*
X117872994Y-172436004D01*
X117872993Y-172436003D01*
X117872991Y-172436002D01*
X117711637Y-172353788D01*
X117539406Y-172297828D01*
X117360549Y-172269500D01*
X117360546Y-172269500D01*
X117179454Y-172269500D01*
X117179451Y-172269500D01*
X117000593Y-172297828D01*
X116828362Y-172353788D01*
X116667008Y-172436002D01*
X116593752Y-172489225D01*
X116520499Y-172542447D01*
X116392447Y-172670499D01*
X116339225Y-172743752D01*
X116286002Y-172817008D01*
X116203788Y-172978362D01*
X116147828Y-173150593D01*
X116119500Y-173329450D01*
X115880500Y-173329450D01*
X115852171Y-173150593D01*
X115852171Y-173150591D01*
X115796211Y-172978361D01*
X115713996Y-172817006D01*
X115607553Y-172670499D01*
X115479501Y-172542447D01*
X115332994Y-172436004D01*
X115332993Y-172436003D01*
X115332991Y-172436002D01*
X115171637Y-172353788D01*
X114999406Y-172297828D01*
X114820549Y-172269500D01*
X114820546Y-172269500D01*
X114639454Y-172269500D01*
X114639451Y-172269500D01*
X114460593Y-172297828D01*
X114288362Y-172353788D01*
X114127008Y-172436002D01*
X114053752Y-172489225D01*
X113980499Y-172542447D01*
X113852447Y-172670499D01*
X113799225Y-172743752D01*
X113746002Y-172817008D01*
X113663788Y-172978362D01*
X113607828Y-173150593D01*
X113579500Y-173329450D01*
X113340500Y-173329450D01*
X113312171Y-173150593D01*
X113312171Y-173150591D01*
X113256211Y-172978361D01*
X113173996Y-172817006D01*
X113067553Y-172670499D01*
X112939501Y-172542447D01*
X112792994Y-172436004D01*
X112792993Y-172436003D01*
X112792991Y-172436002D01*
X112631637Y-172353788D01*
X112459406Y-172297828D01*
X112280549Y-172269500D01*
X112280546Y-172269500D01*
X112099454Y-172269500D01*
X112099451Y-172269500D01*
X111920593Y-172297828D01*
X111748362Y-172353788D01*
X111587008Y-172436002D01*
X111513752Y-172489225D01*
X111440499Y-172542447D01*
X111312447Y-172670499D01*
X111259225Y-172743752D01*
X111206002Y-172817008D01*
X111123788Y-172978362D01*
X111067828Y-173150593D01*
X111039500Y-173329450D01*
X110800500Y-173329450D01*
X110772171Y-173150593D01*
X110772171Y-173150591D01*
X110716211Y-172978361D01*
X110633996Y-172817006D01*
X110527553Y-172670499D01*
X110399501Y-172542447D01*
X110252994Y-172436004D01*
X110252993Y-172436003D01*
X110252991Y-172436002D01*
X110091637Y-172353788D01*
X109919406Y-172297828D01*
X109740549Y-172269500D01*
X109740546Y-172269500D01*
X109559454Y-172269500D01*
X109559451Y-172269500D01*
X109380593Y-172297828D01*
X109208362Y-172353788D01*
X109047008Y-172436002D01*
X108973752Y-172489225D01*
X108900499Y-172542447D01*
X108772447Y-172670499D01*
X108719225Y-172743752D01*
X108666002Y-172817008D01*
X108583788Y-172978362D01*
X108527828Y-173150593D01*
X108499500Y-173329450D01*
X108260500Y-173329450D01*
X108232171Y-173150593D01*
X108232171Y-173150591D01*
X108176211Y-172978361D01*
X108093996Y-172817006D01*
X107987553Y-172670499D01*
X107859501Y-172542447D01*
X107712994Y-172436004D01*
X107712993Y-172436003D01*
X107712991Y-172436002D01*
X107551637Y-172353788D01*
X107379406Y-172297828D01*
X107200549Y-172269500D01*
X107200546Y-172269500D01*
X107019454Y-172269500D01*
X107019451Y-172269500D01*
X106840593Y-172297828D01*
X106668362Y-172353788D01*
X106507008Y-172436002D01*
X106433752Y-172489225D01*
X106360499Y-172542447D01*
X106232447Y-172670499D01*
X106179225Y-172743752D01*
X106126002Y-172817008D01*
X106043788Y-172978362D01*
X105987828Y-173150593D01*
X105959500Y-173329450D01*
X105720500Y-173329450D01*
X105692171Y-173150593D01*
X105692171Y-173150591D01*
X105636211Y-172978361D01*
X105553996Y-172817006D01*
X105447553Y-172670499D01*
X105319501Y-172542447D01*
X105172994Y-172436004D01*
X105172993Y-172436003D01*
X105172991Y-172436002D01*
X105011637Y-172353788D01*
X104839406Y-172297828D01*
X104660549Y-172269500D01*
X104660546Y-172269500D01*
X104479454Y-172269500D01*
X104479451Y-172269500D01*
X104300593Y-172297828D01*
X104128362Y-172353788D01*
X103967008Y-172436002D01*
X103893752Y-172489225D01*
X103820499Y-172542447D01*
X103692447Y-172670499D01*
X103639225Y-172743752D01*
X103586002Y-172817008D01*
X103503788Y-172978362D01*
X103447828Y-173150593D01*
X103419500Y-173329450D01*
X102500500Y-173329450D01*
X102500500Y-106489450D01*
X105959500Y-106489450D01*
X105959500Y-106670549D01*
X105987828Y-106849406D01*
X106036595Y-106999500D01*
X106043789Y-107021639D01*
X106126004Y-107182994D01*
X106232447Y-107329501D01*
X106360499Y-107457553D01*
X106507006Y-107563996D01*
X106668361Y-107646211D01*
X106840591Y-107702171D01*
X106912136Y-107713502D01*
X107019451Y-107730500D01*
X107019454Y-107730500D01*
X107200549Y-107730500D01*
X107289977Y-107716335D01*
X107379409Y-107702171D01*
X107551639Y-107646211D01*
X107712994Y-107563996D01*
X107859501Y-107457553D01*
X107987553Y-107329501D01*
X108093996Y-107182994D01*
X108176211Y-107021639D01*
X108232171Y-106849409D01*
X108260500Y-106670546D01*
X108260500Y-106489454D01*
X108260500Y-106489450D01*
X108499500Y-106489450D01*
X108499500Y-106670549D01*
X108527828Y-106849406D01*
X108576595Y-106999500D01*
X108583789Y-107021639D01*
X108666004Y-107182994D01*
X108772447Y-107329501D01*
X108900499Y-107457553D01*
X109047006Y-107563996D01*
X109208361Y-107646211D01*
X109380591Y-107702171D01*
X109452136Y-107713502D01*
X109559451Y-107730500D01*
X109559454Y-107730500D01*
X109740549Y-107730500D01*
X109829977Y-107716335D01*
X109919409Y-107702171D01*
X110091639Y-107646211D01*
X110252994Y-107563996D01*
X110399501Y-107457553D01*
X110527553Y-107329501D01*
X110633996Y-107182994D01*
X110716211Y-107021639D01*
X110772171Y-106849409D01*
X110800500Y-106670546D01*
X110800500Y-106489454D01*
X110800500Y-106489450D01*
X111039500Y-106489450D01*
X111039500Y-106670549D01*
X111067828Y-106849406D01*
X111116595Y-106999500D01*
X111123789Y-107021639D01*
X111206004Y-107182994D01*
X111312447Y-107329501D01*
X111440499Y-107457553D01*
X111587006Y-107563996D01*
X111748361Y-107646211D01*
X111920591Y-107702171D01*
X111992136Y-107713502D01*
X112099451Y-107730500D01*
X112099454Y-107730500D01*
X112280549Y-107730500D01*
X112369977Y-107716335D01*
X112459409Y-107702171D01*
X112631639Y-107646211D01*
X112792994Y-107563996D01*
X112939501Y-107457553D01*
X113067553Y-107329501D01*
X113173996Y-107182994D01*
X113256211Y-107021639D01*
X113312171Y-106849409D01*
X113340500Y-106670546D01*
X113340500Y-106489454D01*
X113340500Y-106489450D01*
X113579500Y-106489450D01*
X113579500Y-106670549D01*
X113607828Y-106849406D01*
X113656595Y-106999500D01*
X113663789Y-107021639D01*
X113746004Y-107182994D01*
X113852447Y-107329501D01*
X113980499Y-107457553D01*
X114127006Y-107563996D01*
X114288361Y-107646211D01*
X114460591Y-107702171D01*
X114532136Y-107713502D01*
X114639451Y-107730500D01*
X114639454Y-107730500D01*
X114820549Y-107730500D01*
X114909977Y-107716335D01*
X114999409Y-107702171D01*
X115171639Y-107646211D01*
X115332994Y-107563996D01*
X115479501Y-107457553D01*
X115607553Y-107329501D01*
X115713996Y-107182994D01*
X115796211Y-107021639D01*
X115852171Y-106849409D01*
X115880500Y-106670546D01*
X115880500Y-106489454D01*
X115880500Y-106489450D01*
X116119500Y-106489450D01*
X116119500Y-106670549D01*
X116147828Y-106849406D01*
X116196595Y-106999500D01*
X116203789Y-107021639D01*
X116286004Y-107182994D01*
X116392447Y-107329501D01*
X116520499Y-107457553D01*
X116667006Y-107563996D01*
X116828361Y-107646211D01*
X117000591Y-107702171D01*
X117072136Y-107713502D01*
X117179451Y-107730500D01*
X117179454Y-107730500D01*
X117360549Y-107730500D01*
X117449977Y-107716335D01*
X117539409Y-107702171D01*
X117711639Y-107646211D01*
X117872994Y-107563996D01*
X118019501Y-107457553D01*
X118147553Y-107329501D01*
X118253996Y-107182994D01*
X118336211Y-107021639D01*
X118392171Y-106849409D01*
X118420500Y-106670546D01*
X118420500Y-106489454D01*
X118420500Y-106489450D01*
X118659500Y-106489450D01*
X118659500Y-106670549D01*
X118687828Y-106849406D01*
X118736595Y-106999500D01*
X118743789Y-107021639D01*
X118826004Y-107182994D01*
X118932447Y-107329501D01*
X119060499Y-107457553D01*
X119207006Y-107563996D01*
X119368361Y-107646211D01*
X119540591Y-107702171D01*
X119612136Y-107713502D01*
X119719451Y-107730500D01*
X119719454Y-107730500D01*
X119900549Y-107730500D01*
X119989977Y-107716335D01*
X120079409Y-107702171D01*
X120251639Y-107646211D01*
X120412994Y-107563996D01*
X120559501Y-107457553D01*
X120687553Y-107329501D01*
X120793996Y-107182994D01*
X120876211Y-107021639D01*
X120932171Y-106849409D01*
X120960500Y-106670546D01*
X120960500Y-106489454D01*
X120960500Y-106489450D01*
X121199500Y-106489450D01*
X121199500Y-106670549D01*
X121227828Y-106849406D01*
X121276595Y-106999500D01*
X121283789Y-107021639D01*
X121366004Y-107182994D01*
X121472447Y-107329501D01*
X121600499Y-107457553D01*
X121747006Y-107563996D01*
X121908361Y-107646211D01*
X122080591Y-107702171D01*
X122152136Y-107713502D01*
X122259451Y-107730500D01*
X122259454Y-107730500D01*
X122440549Y-107730500D01*
X122529977Y-107716335D01*
X122619409Y-107702171D01*
X122791639Y-107646211D01*
X122952994Y-107563996D01*
X123099501Y-107457553D01*
X123227553Y-107329501D01*
X123333996Y-107182994D01*
X123416211Y-107021639D01*
X123472171Y-106849409D01*
X123500500Y-106670546D01*
X123500500Y-106489454D01*
X123500500Y-106489450D01*
X123739500Y-106489450D01*
X123739500Y-106670549D01*
X123767828Y-106849406D01*
X123816595Y-106999500D01*
X123823789Y-107021639D01*
X123906004Y-107182994D01*
X124012447Y-107329501D01*
X124140499Y-107457553D01*
X124287006Y-107563996D01*
X124448361Y-107646211D01*
X124620591Y-107702171D01*
X124692136Y-107713502D01*
X124799451Y-107730500D01*
X124799454Y-107730500D01*
X124980549Y-107730500D01*
X125069977Y-107716335D01*
X125159409Y-107702171D01*
X125331639Y-107646211D01*
X125492994Y-107563996D01*
X125639501Y-107457553D01*
X125767553Y-107329501D01*
X125873996Y-107182994D01*
X125956211Y-107021639D01*
X126012171Y-106849409D01*
X126040500Y-106670546D01*
X126040500Y-106489454D01*
X126040500Y-106489450D01*
X126012171Y-106310593D01*
X126012171Y-106310591D01*
X125956211Y-106138361D01*
X125873996Y-105977006D01*
X125767553Y-105830499D01*
X125639501Y-105702447D01*
X125492994Y-105596004D01*
X125492993Y-105596003D01*
X125492991Y-105596002D01*
X125331637Y-105513788D01*
X125159406Y-105457828D01*
X124980549Y-105429500D01*
X124980546Y-105429500D01*
X124799454Y-105429500D01*
X124799451Y-105429500D01*
X124620593Y-105457828D01*
X124448362Y-105513788D01*
X124287008Y-105596002D01*
X124213752Y-105649225D01*
X124140499Y-105702447D01*
X124012447Y-105830499D01*
X123959225Y-105903752D01*
X123906002Y-105977008D01*
X123823788Y-106138362D01*
X123767828Y-106310593D01*
X123739500Y-106489450D01*
X123500500Y-106489450D01*
X123472171Y-106310593D01*
X123472171Y-106310591D01*
X123416211Y-106138361D01*
X123333996Y-105977006D01*
X123227553Y-105830499D01*
X123099501Y-105702447D01*
X122952994Y-105596004D01*
X122952993Y-105596003D01*
X122952991Y-105596002D01*
X122791637Y-105513788D01*
X122619406Y-105457828D01*
X122440549Y-105429500D01*
X122440546Y-105429500D01*
X122259454Y-105429500D01*
X122259451Y-105429500D01*
X122080593Y-105457828D01*
X121908362Y-105513788D01*
X121747008Y-105596002D01*
X121673752Y-105649225D01*
X121600499Y-105702447D01*
X121472447Y-105830499D01*
X121419225Y-105903752D01*
X121366002Y-105977008D01*
X121283788Y-106138362D01*
X121227828Y-106310593D01*
X121199500Y-106489450D01*
X120960500Y-106489450D01*
X120932171Y-106310593D01*
X120932171Y-106310591D01*
X120876211Y-106138361D01*
X120793996Y-105977006D01*
X120687553Y-105830499D01*
X120559501Y-105702447D01*
X120412994Y-105596004D01*
X120412993Y-105596003D01*
X120412991Y-105596002D01*
X120251637Y-105513788D01*
X120079406Y-105457828D01*
X119900549Y-105429500D01*
X119900546Y-105429500D01*
X119719454Y-105429500D01*
X119719451Y-105429500D01*
X119540593Y-105457828D01*
X119368362Y-105513788D01*
X119207008Y-105596002D01*
X119133752Y-105649225D01*
X119060499Y-105702447D01*
X118932447Y-105830499D01*
X118879225Y-105903752D01*
X118826002Y-105977008D01*
X118743788Y-106138362D01*
X118687828Y-106310593D01*
X118659500Y-106489450D01*
X118420500Y-106489450D01*
X118392171Y-106310593D01*
X118392171Y-106310591D01*
X118336211Y-106138361D01*
X118253996Y-105977006D01*
X118147553Y-105830499D01*
X118019501Y-105702447D01*
X117872994Y-105596004D01*
X117872993Y-105596003D01*
X117872991Y-105596002D01*
X117711637Y-105513788D01*
X117539406Y-105457828D01*
X117360549Y-105429500D01*
X117360546Y-105429500D01*
X117179454Y-105429500D01*
X117179451Y-105429500D01*
X117000593Y-105457828D01*
X116828362Y-105513788D01*
X116667008Y-105596002D01*
X116593752Y-105649225D01*
X116520499Y-105702447D01*
X116392447Y-105830499D01*
X116339225Y-105903752D01*
X116286002Y-105977008D01*
X116203788Y-106138362D01*
X116147828Y-106310593D01*
X116119500Y-106489450D01*
X115880500Y-106489450D01*
X115852171Y-106310593D01*
X115852171Y-106310591D01*
X115796211Y-106138361D01*
X115713996Y-105977006D01*
X115607553Y-105830499D01*
X115479501Y-105702447D01*
X115332994Y-105596004D01*
X115332993Y-105596003D01*
X115332991Y-105596002D01*
X115171637Y-105513788D01*
X114999406Y-105457828D01*
X114820549Y-105429500D01*
X114820546Y-105429500D01*
X114639454Y-105429500D01*
X114639451Y-105429500D01*
X114460593Y-105457828D01*
X114288362Y-105513788D01*
X114127008Y-105596002D01*
X114053752Y-105649225D01*
X113980499Y-105702447D01*
X113852447Y-105830499D01*
X113799225Y-105903752D01*
X113746002Y-105977008D01*
X113663788Y-106138362D01*
X113607828Y-106310593D01*
X113579500Y-106489450D01*
X113340500Y-106489450D01*
X113312171Y-106310593D01*
X113312171Y-106310591D01*
X113256211Y-106138361D01*
X113173996Y-105977006D01*
X113067553Y-105830499D01*
X112939501Y-105702447D01*
X112792994Y-105596004D01*
X112792993Y-105596003D01*
X112792991Y-105596002D01*
X112631637Y-105513788D01*
X112459406Y-105457828D01*
X112280549Y-105429500D01*
X112280546Y-105429500D01*
X112099454Y-105429500D01*
X112099451Y-105429500D01*
X111920593Y-105457828D01*
X111748362Y-105513788D01*
X111587008Y-105596002D01*
X111513752Y-105649225D01*
X111440499Y-105702447D01*
X111312447Y-105830499D01*
X111259225Y-105903752D01*
X111206002Y-105977008D01*
X111123788Y-106138362D01*
X111067828Y-106310593D01*
X111039500Y-106489450D01*
X110800500Y-106489450D01*
X110772171Y-106310593D01*
X110772171Y-106310591D01*
X110716211Y-106138361D01*
X110633996Y-105977006D01*
X110527553Y-105830499D01*
X110399501Y-105702447D01*
X110252994Y-105596004D01*
X110252993Y-105596003D01*
X110252991Y-105596002D01*
X110091637Y-105513788D01*
X109919406Y-105457828D01*
X109740549Y-105429500D01*
X109740546Y-105429500D01*
X109559454Y-105429500D01*
X109559451Y-105429500D01*
X109380593Y-105457828D01*
X109208362Y-105513788D01*
X109047008Y-105596002D01*
X108973752Y-105649225D01*
X108900499Y-105702447D01*
X108772447Y-105830499D01*
X108719225Y-105903752D01*
X108666002Y-105977008D01*
X108583788Y-106138362D01*
X108527828Y-106310593D01*
X108499500Y-106489450D01*
X108260500Y-106489450D01*
X108232171Y-106310593D01*
X108232171Y-106310591D01*
X108176211Y-106138361D01*
X108093996Y-105977006D01*
X107987553Y-105830499D01*
X107859501Y-105702447D01*
X107712994Y-105596004D01*
X107712993Y-105596003D01*
X107712991Y-105596002D01*
X107551637Y-105513788D01*
X107379406Y-105457828D01*
X107200549Y-105429500D01*
X107200546Y-105429500D01*
X107019454Y-105429500D01*
X107019451Y-105429500D01*
X106840593Y-105457828D01*
X106668362Y-105513788D01*
X106507008Y-105596002D01*
X106433752Y-105649225D01*
X106360499Y-105702447D01*
X106232447Y-105830499D01*
X106179225Y-105903752D01*
X106126002Y-105977008D01*
X106043788Y-106138362D01*
X105987828Y-106310593D01*
X105959500Y-106489450D01*
X102500500Y-106489450D01*
X102500500Y-100599500D01*
X102519407Y-100541309D01*
X102568907Y-100505345D01*
X102599500Y-100500500D01*
X129400500Y-100500500D01*
X129458691Y-100519407D01*
G37*
%TD.AperFunction*%
%TD*%
M02*
