M48
; DRILL file KiCad 10.0.3 date 2026-07-11T15:12:07
; FORMAT={-:-/ absolute / metric / decimal}
; #@! TF.CreationDate,2026-07-11T15:12:07+02:00
; #@! TF.GenerationSoftware,Kicad,Pcbnew,10.0.3
; #@! TF.FileFunction,Plated,1,2,PTH
FMAT,2
METRIC
; #@! TA.AperFunction,Plated,PTH,ViaDrill
T1C0.300
; #@! TA.AperFunction,Plated,PTH,ComponentDrill
T2C1.000
%
G90
G05
T1
X103.5Y-101.5
X103.5Y-140.0
X103.5Y-178.5
X116.0Y-120.0
X116.0Y-160.0
X126.0Y-178.5
X127.0Y-140.0
X128.5Y-101.5
T2
X104.57Y-106.58
X104.57Y-173.42
X104.57Y-175.96
X107.11Y-106.58
X107.11Y-173.42
X107.11Y-175.96
X109.65Y-106.58
X109.65Y-173.42
X109.65Y-175.96
X112.19Y-106.58
X112.19Y-173.42
X112.19Y-175.96
X114.73Y-106.58
X114.73Y-173.42
X114.73Y-175.96
X117.27Y-106.58
X117.27Y-173.42
X117.27Y-175.96
X119.81Y-106.58
X119.81Y-173.42
X119.81Y-175.96
X122.35Y-106.58
X122.35Y-173.42
X122.35Y-175.96
X124.89Y-106.58
X124.89Y-173.42
X124.89Y-175.96
X127.43Y-106.58
X127.43Y-173.42
X127.43Y-175.96
M30
