%TF.GenerationSoftware,KiCad,Pcbnew,10.0.3*%
%TF.CreationDate,2026-07-11T15:12:07+02:00*%
%TF.ProjectId,musicbrain-i2criser,6d757369-6362-4726-9169-6e2d69326372,1.0*%
%TF.SameCoordinates,Original*%
%TF.FileFunction,Copper,L2,Bot*%
%TF.FilePolarity,Positive*%
%FSLAX46Y46*%
G04 Gerber Fmt 4.6, Leading zero omitted, Abs format (unit mm)*
G04 Created by KiCad (PCBNEW 10.0.3) date 2026-07-11 15:12:07*
%MOMM*%
%LPD*%
G01*
G04 APERTURE LIST*
%TA.AperFunction,ComponentPad*%
%ADD10R,1.700000X1.700000*%
%TD*%
%TA.AperFunction,ComponentPad*%
%ADD11C,1.700000*%
%TD*%
%TA.AperFunction,ViaPad*%
%ADD12C,0.500000*%
%TD*%
%TA.AperFunction,Conductor*%
%ADD13C,0.250000*%
%TD*%
G04 APERTURE END LIST*
D10*
%TO.P,J1,1*%
%TO.N,GND*%
X127430000Y-173420000D03*
D11*
%TO.P,J1,2*%
%TO.N,N/C*%
X127430000Y-175960000D03*
%TO.P,J1,3*%
%TO.N,GND*%
X124890000Y-173420000D03*
%TO.P,J1,4*%
%TO.N,N/C*%
X124890000Y-175960000D03*
%TO.P,J1,5*%
%TO.N,GND*%
X122350000Y-173420000D03*
%TO.P,J1,6*%
%TO.N,+3V3*%
X122350000Y-175960000D03*
%TO.P,J1,7*%
%TO.N,N/C*%
X119810000Y-173420000D03*
%TO.P,J1,8*%
%TO.N,GND*%
X119810000Y-175960000D03*
%TO.P,J1,9*%
%TO.N,N/C*%
X117270000Y-173420000D03*
%TO.P,J1,10*%
%TO.N,GND*%
X117270000Y-175960000D03*
%TO.P,J1,11*%
%TO.N,N/C*%
X114730000Y-173420000D03*
%TO.P,J1,12*%
%TO.N,GND*%
X114730000Y-175960000D03*
%TO.P,J1,13*%
%TO.N,N/C*%
X112190000Y-173420000D03*
%TO.P,J1,14*%
%TO.N,GND*%
X112190000Y-175960000D03*
%TO.P,J1,15*%
%TO.N,N/C*%
X109650000Y-173420000D03*
%TO.P,J1,16*%
%TO.N,/IRQ*%
X109650000Y-175960000D03*
%TO.P,J1,17*%
%TO.N,/SDA*%
X107110000Y-173420000D03*
%TO.P,J1,18*%
%TO.N,/SCL*%
X107110000Y-175960000D03*
%TO.P,J1,19*%
%TO.N,N/C*%
X104570000Y-173420000D03*
%TO.P,J1,20*%
X104570000Y-175960000D03*
%TD*%
D10*
%TO.P,J2,1*%
%TO.N,GND*%
X104570000Y-106580000D03*
D11*
%TO.P,J2,2*%
%TO.N,/SDA*%
X107110000Y-106580000D03*
%TO.P,J2,3*%
%TO.N,/SCL*%
X109650000Y-106580000D03*
%TO.P,J2,4*%
%TO.N,/IRQ*%
X112190000Y-106580000D03*
%TO.P,J2,5*%
%TO.N,N/C*%
X114730000Y-106580000D03*
%TO.P,J2,6*%
X117270000Y-106580000D03*
%TO.P,J2,7*%
X119810000Y-106580000D03*
%TO.P,J2,8*%
X122350000Y-106580000D03*
%TO.P,J2,9*%
X124890000Y-106580000D03*
%TO.P,J2,10*%
%TO.N,+3V3*%
X127430000Y-106580000D03*
%TD*%
D12*
%TO.N,GND*%
X103500000Y-101500000D03*
X128500000Y-101500000D03*
X103500000Y-178500000D03*
X126000000Y-178500000D03*
X103500000Y-140000000D03*
X127000000Y-140000000D03*
X116000000Y-120000000D03*
X116000000Y-160000000D03*
%TD*%
%TO.N,/SDA*%
D13*
X107110000Y-173420000D02*
X105840000Y-173420000D01*
X105840000Y-173420000D02*
X105840000Y-109500000D01*
X105840000Y-109500000D02*
X107110000Y-109500000D01*
X107110000Y-109500000D02*
X107110000Y-106580000D01*
%TO.N,/SCL*%
X107110000Y-175960000D02*
X107110000Y-174690000D01*
X107110000Y-174690000D02*
X108380000Y-174690000D01*
X108380000Y-174690000D02*
X108380000Y-110300000D01*
X108380000Y-110300000D02*
X109650000Y-110300000D01*
X109650000Y-110300000D02*
X109650000Y-106580000D01*
%TO.N,/IRQ*%
X109650000Y-175960000D02*
X109650000Y-174690000D01*
X109650000Y-174690000D02*
X110920000Y-174690000D01*
X110920000Y-174690000D02*
X110920000Y-111100000D01*
X110920000Y-111100000D02*
X112190000Y-111100000D01*
X112190000Y-111100000D02*
X112190000Y-106580000D01*
%TD*%
%TA.AperFunction,Conductor*%
%TO.N,GND*%
G36*
X129458691Y-100519407D02*
G01*
X129494655Y-100568907D01*
X129499500Y-100599500D01*
X129499500Y-179400500D01*
X129480593Y-179458691D01*
X129431093Y-179494655D01*
X129400500Y-179499500D01*
X102599500Y-179499500D01*
X102541309Y-179480593D01*
X102505345Y-179431093D01*
X102500500Y-179400500D01*
X102500500Y-175869450D01*
X103419500Y-175869450D01*
X103419500Y-176050549D01*
X103447828Y-176229406D01*
X103447829Y-176229409D01*
X103503789Y-176401639D01*
X103586004Y-176562994D01*
X103692447Y-176709501D01*
X103820499Y-176837553D01*
X103967006Y-176943996D01*
X104128361Y-177026211D01*
X104300591Y-177082171D01*
X104372136Y-177093502D01*
X104479451Y-177110500D01*
X104479454Y-177110500D01*
X104660549Y-177110500D01*
X104749977Y-177096335D01*
X104839409Y-177082171D01*
X105011639Y-177026211D01*
X105172994Y-176943996D01*
X105319501Y-176837553D01*
X105447553Y-176709501D01*
X105553996Y-176562994D01*
X105636211Y-176401639D01*
X105692171Y-176229409D01*
X105720500Y-176050546D01*
X105720500Y-175869454D01*
X105720500Y-175869450D01*
X105692171Y-175690593D01*
X105692171Y-175690591D01*
X105636211Y-175518361D01*
X105553996Y-175357006D01*
X105447553Y-175210499D01*
X105319501Y-175082447D01*
X105172994Y-174976004D01*
X105172993Y-174976003D01*
X105172991Y-174976002D01*
X105011637Y-174893788D01*
X104839406Y-174837828D01*
X104660549Y-174809500D01*
X104660546Y-174809500D01*
X104479454Y-174809500D01*
X104479451Y-174809500D01*
X104300593Y-174837828D01*
X104128362Y-174893788D01*
X103967008Y-174976002D01*
X103893752Y-175029225D01*
X103820499Y-175082447D01*
X103692447Y-175210499D01*
X103647262Y-175272691D01*
X103586002Y-175357008D01*
X103503788Y-175518362D01*
X103447828Y-175690593D01*
X103419500Y-175869450D01*
X102500500Y-175869450D01*
X102500500Y-173329450D01*
X103419500Y-173329450D01*
X103419500Y-173510549D01*
X103447828Y-173689406D01*
X103489123Y-173816503D01*
X103503789Y-173861639D01*
X103586004Y-174022994D01*
X103692447Y-174169501D01*
X103820499Y-174297553D01*
X103967006Y-174403996D01*
X104128361Y-174486211D01*
X104300591Y-174542171D01*
X104372136Y-174553502D01*
X104479451Y-174570500D01*
X104479454Y-174570500D01*
X104660549Y-174570500D01*
X104749977Y-174556335D01*
X104839409Y-174542171D01*
X105011639Y-174486211D01*
X105172994Y-174403996D01*
X105319501Y-174297553D01*
X105447553Y-174169501D01*
X105553996Y-174022994D01*
X105624803Y-173884027D01*
X105668066Y-173840766D01*
X105728498Y-173831194D01*
X105738627Y-173833347D01*
X105783982Y-173845500D01*
X105896018Y-173845500D01*
X105974899Y-173845500D01*
X106033090Y-173864407D01*
X106063107Y-173899552D01*
X106126004Y-174022994D01*
X106232447Y-174169501D01*
X106360499Y-174297553D01*
X106507006Y-174403996D01*
X106645970Y-174474802D01*
X106689234Y-174518066D01*
X106698805Y-174578498D01*
X106696651Y-174588633D01*
X106684500Y-174633982D01*
X106684500Y-174824898D01*
X106665593Y-174883089D01*
X106630445Y-174913107D01*
X106507016Y-174975997D01*
X106507009Y-174976001D01*
X106419101Y-175039869D01*
X106360499Y-175082447D01*
X106232447Y-175210499D01*
X106187262Y-175272691D01*
X106126002Y-175357008D01*
X106043788Y-175518362D01*
X105987828Y-175690593D01*
X105959500Y-175869450D01*
X105959500Y-176050549D01*
X105987828Y-176229406D01*
X105987829Y-176229409D01*
X106043789Y-176401639D01*
X106126004Y-176562994D01*
X106232447Y-176709501D01*
X106360499Y-176837553D01*
X106507006Y-176943996D01*
X106668361Y-177026211D01*
X106840591Y-177082171D01*
X106912136Y-177093502D01*
X107019451Y-177110500D01*
X107019454Y-177110500D01*
X107200549Y-177110500D01*
X107289977Y-177096335D01*
X107379409Y-177082171D01*
X107551639Y-177026211D01*
X107712994Y-176943996D01*
X107859501Y-176837553D01*
X107987553Y-176709501D01*
X108093996Y-176562994D01*
X108176211Y-176401639D01*
X108232171Y-176229409D01*
X108260500Y-176050546D01*
X108260500Y-175869454D01*
X108260500Y-175869450D01*
X108232171Y-175690593D01*
X108232171Y-175690591D01*
X108176211Y-175518361D01*
X108093996Y-175357006D01*
X108032736Y-175272688D01*
X108013830Y-175214500D01*
X108032737Y-175156309D01*
X108082237Y-175120345D01*
X108112830Y-175115500D01*
X108436016Y-175115500D01*
X108436018Y-175115500D01*
X108544237Y-175086503D01*
X108544239Y-175086501D01*
X108544241Y-175086501D01*
X108573064Y-175069859D01*
X108641263Y-175030485D01*
X108720485Y-174951263D01*
X108776503Y-174854237D01*
X108805500Y-174746018D01*
X108805500Y-174422829D01*
X108824407Y-174364638D01*
X108873907Y-174328674D01*
X108935093Y-174328674D01*
X108962686Y-174342734D01*
X109047006Y-174403996D01*
X109185970Y-174474802D01*
X109229234Y-174518066D01*
X109238805Y-174578498D01*
X109236651Y-174588633D01*
X109224500Y-174633982D01*
X109224500Y-174824898D01*
X109205593Y-174883089D01*
X109170445Y-174913107D01*
X109047016Y-174975997D01*
X109047009Y-174976001D01*
X108959101Y-175039869D01*
X108900499Y-175082447D01*
X108772447Y-175210499D01*
X108727262Y-175272691D01*
X108666002Y-175357008D01*
X108583788Y-175518362D01*
X108527828Y-175690593D01*
X108499500Y-175869450D01*
X108499500Y-176050549D01*
X108527828Y-176229406D01*
X108527829Y-176229409D01*
X108583789Y-176401639D01*
X108666004Y-176562994D01*
X108772447Y-176709501D01*
X108900499Y-176837553D01*
X109047006Y-176943996D01*
X109208361Y-177026211D01*
X109380591Y-177082171D01*
X109452136Y-177093502D01*
X109559451Y-177110500D01*
X109559454Y-177110500D01*
X109740549Y-177110500D01*
X109829977Y-177096335D01*
X109919409Y-177082171D01*
X110091639Y-177026211D01*
X110252994Y-176943996D01*
X110399501Y-176837553D01*
X110527553Y-176709501D01*
X110633996Y-176562994D01*
X110716211Y-176401639D01*
X110772171Y-176229409D01*
X110800500Y-176050546D01*
X110800500Y-175869454D01*
X110800500Y-175869450D01*
X121199500Y-175869450D01*
X121199500Y-176050549D01*
X121227828Y-176229406D01*
X121227829Y-176229409D01*
X121283789Y-176401639D01*
X121366004Y-176562994D01*
X121472447Y-176709501D01*
X121600499Y-176837553D01*
X121747006Y-176943996D01*
X121908361Y-177026211D01*
X122080591Y-177082171D01*
X122152136Y-177093502D01*
X122259451Y-177110500D01*
X122259454Y-177110500D01*
X122440549Y-177110500D01*
X122529977Y-177096335D01*
X122619409Y-177082171D01*
X122791639Y-177026211D01*
X122952994Y-176943996D01*
X123099501Y-176837553D01*
X123227553Y-176709501D01*
X123333996Y-176562994D01*
X123416211Y-176401639D01*
X123472171Y-176229409D01*
X123500500Y-176050546D01*
X123500500Y-175869454D01*
X123500500Y-175869450D01*
X123739500Y-175869450D01*
X123739500Y-176050549D01*
X123767828Y-176229406D01*
X123767829Y-176229409D01*
X123823789Y-176401639D01*
X123906004Y-176562994D01*
X124012447Y-176709501D01*
X124140499Y-176837553D01*
X124287006Y-176943996D01*
X124448361Y-177026211D01*
X124620591Y-177082171D01*
X124692136Y-177093502D01*
X124799451Y-177110500D01*
X124799454Y-177110500D01*
X124980549Y-177110500D01*
X125069977Y-177096335D01*
X125159409Y-177082171D01*
X125331639Y-177026211D01*
X125492994Y-176943996D01*
X125639501Y-176837553D01*
X125767553Y-176709501D01*
X125873996Y-176562994D01*
X125956211Y-176401639D01*
X126012171Y-176229409D01*
X126040500Y-176050546D01*
X126040500Y-175869454D01*
X126040500Y-175869450D01*
X126279500Y-175869450D01*
X126279500Y-176050549D01*
X126307828Y-176229406D01*
X126307829Y-176229409D01*
X126363789Y-176401639D01*
X126446004Y-176562994D01*
X126552447Y-176709501D01*
X126680499Y-176837553D01*
X126827006Y-176943996D01*
X126988361Y-177026211D01*
X127160591Y-177082171D01*
X127232136Y-177093502D01*
X127339451Y-177110500D01*
X127339454Y-177110500D01*
X127520549Y-177110500D01*
X127609977Y-177096335D01*
X127699409Y-177082171D01*
X127871639Y-177026211D01*
X128032994Y-176943996D01*
X128179501Y-176837553D01*
X128307553Y-176709501D01*
X128413996Y-176562994D01*
X128496211Y-176401639D01*
X128552171Y-176229409D01*
X128580500Y-176050546D01*
X128580500Y-175869454D01*
X128580500Y-175869450D01*
X128552171Y-175690593D01*
X128552171Y-175690591D01*
X128496211Y-175518361D01*
X128413996Y-175357006D01*
X128307553Y-175210499D01*
X128179501Y-175082447D01*
X128032994Y-174976004D01*
X128032993Y-174976003D01*
X128032991Y-174976002D01*
X127871637Y-174893788D01*
X127699406Y-174837828D01*
X127520549Y-174809500D01*
X127520546Y-174809500D01*
X127339454Y-174809500D01*
X127339451Y-174809500D01*
X127160593Y-174837828D01*
X126988362Y-174893788D01*
X126827008Y-174976002D01*
X126753752Y-175029225D01*
X126680499Y-175082447D01*
X126552447Y-175210499D01*
X126507262Y-175272691D01*
X126446002Y-175357008D01*
X126363788Y-175518362D01*
X126307828Y-175690593D01*
X126279500Y-175869450D01*
X126040500Y-175869450D01*
X126012171Y-175690593D01*
X126012171Y-175690591D01*
X125956211Y-175518361D01*
X125873996Y-175357006D01*
X125767553Y-175210499D01*
X125639501Y-175082447D01*
X125492994Y-174976004D01*
X125492993Y-174976003D01*
X125492991Y-174976002D01*
X125331637Y-174893788D01*
X125159406Y-174837828D01*
X124980549Y-174809500D01*
X124980546Y-174809500D01*
X124799454Y-174809500D01*
X124799451Y-174809500D01*
X124620593Y-174837828D01*
X124448362Y-174893788D01*
X124287008Y-174976002D01*
X124213752Y-175029225D01*
X124140499Y-175082447D01*
X124012447Y-175210499D01*
X123967262Y-175272691D01*
X123906002Y-175357008D01*
X123823788Y-175518362D01*
X123767828Y-175690593D01*
X123739500Y-175869450D01*
X123500500Y-175869450D01*
X123472171Y-175690593D01*
X123472171Y-175690591D01*
X123416211Y-175518361D01*
X123333996Y-175357006D01*
X123227553Y-175210499D01*
X123099501Y-175082447D01*
X122952994Y-174976004D01*
X122952993Y-174976003D01*
X122952991Y-174976002D01*
X122791637Y-174893788D01*
X122619406Y-174837828D01*
X122440549Y-174809500D01*
X122440546Y-174809500D01*
X122259454Y-174809500D01*
X122259451Y-174809500D01*
X122080593Y-174837828D01*
X121908362Y-174893788D01*
X121747008Y-174976002D01*
X121673752Y-175029225D01*
X121600499Y-175082447D01*
X121472447Y-175210499D01*
X121427262Y-175272691D01*
X121366002Y-175357008D01*
X121283788Y-175518362D01*
X121227828Y-175690593D01*
X121199500Y-175869450D01*
X110800500Y-175869450D01*
X110772171Y-175690593D01*
X110772171Y-175690591D01*
X110716211Y-175518361D01*
X110633996Y-175357006D01*
X110572736Y-175272688D01*
X110553830Y-175214500D01*
X110572737Y-175156309D01*
X110622237Y-175120345D01*
X110652830Y-175115500D01*
X110976016Y-175115500D01*
X110976018Y-175115500D01*
X111084237Y-175086503D01*
X111084239Y-175086501D01*
X111084241Y-175086501D01*
X111113064Y-175069859D01*
X111181263Y-175030485D01*
X111260485Y-174951263D01*
X111316503Y-174854237D01*
X111345500Y-174746018D01*
X111345500Y-174422829D01*
X111364407Y-174364638D01*
X111413907Y-174328674D01*
X111475093Y-174328674D01*
X111502686Y-174342734D01*
X111587006Y-174403996D01*
X111748361Y-174486211D01*
X111920591Y-174542171D01*
X111992136Y-174553502D01*
X112099451Y-174570500D01*
X112099454Y-174570500D01*
X112280549Y-174570500D01*
X112369977Y-174556335D01*
X112459409Y-174542171D01*
X112631639Y-174486211D01*
X112792994Y-174403996D01*
X112939501Y-174297553D01*
X113067553Y-174169501D01*
X113173996Y-174022994D01*
X113256211Y-173861639D01*
X113312171Y-173689409D01*
X113340500Y-173510546D01*
X113340500Y-173329454D01*
X113340500Y-173329450D01*
X113579500Y-173329450D01*
X113579500Y-173510549D01*
X113607828Y-173689406D01*
X113649123Y-173816503D01*
X113663789Y-173861639D01*
X113746004Y-174022994D01*
X113852447Y-174169501D01*
X113980499Y-174297553D01*
X114127006Y-174403996D01*
X114288361Y-174486211D01*
X114460591Y-174542171D01*
X114532136Y-174553502D01*
X114639451Y-174570500D01*
X114639454Y-174570500D01*
X114820549Y-174570500D01*
X114909977Y-174556335D01*
X114999409Y-174542171D01*
X115171639Y-174486211D01*
X115332994Y-174403996D01*
X115479501Y-174297553D01*
X115607553Y-174169501D01*
X115713996Y-174022994D01*
X115796211Y-173861639D01*
X115852171Y-173689409D01*
X115880500Y-173510546D01*
X115880500Y-173329454D01*
X115880500Y-173329450D01*
X116119500Y-173329450D01*
X116119500Y-173510549D01*
X116147828Y-173689406D01*
X116189123Y-173816503D01*
X116203789Y-173861639D01*
X116286004Y-174022994D01*
X116392447Y-174169501D01*
X116520499Y-174297553D01*
X116667006Y-174403996D01*
X116828361Y-174486211D01*
X117000591Y-174542171D01*
X117072136Y-174553502D01*
X117179451Y-174570500D01*
X117179454Y-174570500D01*
X117360549Y-174570500D01*
X117449977Y-174556335D01*
X117539409Y-174542171D01*
X117711639Y-174486211D01*
X117872994Y-174403996D01*
X118019501Y-174297553D01*
X118147553Y-174169501D01*
X118253996Y-174022994D01*
X118336211Y-173861639D01*
X118392171Y-173689409D01*
X118420500Y-173510546D01*
X118420500Y-173329454D01*
X118420500Y-173329450D01*
X118659500Y-173329450D01*
X118659500Y-173510549D01*
X118687828Y-173689406D01*
X118729123Y-173816503D01*
X118743789Y-173861639D01*
X118826004Y-174022994D01*
X118932447Y-174169501D01*
X119060499Y-174297553D01*
X119207006Y-174403996D01*
X119368361Y-174486211D01*
X119540591Y-174542171D01*
X119612136Y-174553502D01*
X119719451Y-174570500D01*
X119719454Y-174570500D01*
X119900549Y-174570500D01*
X119989977Y-174556335D01*
X120079409Y-174542171D01*
X120251639Y-174486211D01*
X120412994Y-174403996D01*
X120559501Y-174297553D01*
X120687553Y-174169501D01*
X120793996Y-174022994D01*
X120876211Y-173861639D01*
X120932171Y-173689409D01*
X120960500Y-173510546D01*
X120960500Y-173329454D01*
X120960500Y-173329450D01*
X120932171Y-173150593D01*
X120932171Y-173150591D01*
X120876211Y-172978361D01*
X120793996Y-172817006D01*
X120687553Y-172670499D01*
X120559501Y-172542447D01*
X120412994Y-172436004D01*
X120412993Y-172436003D01*
X120412991Y-172436002D01*
X120251637Y-172353788D01*
X120079406Y-172297828D01*
X119900549Y-172269500D01*
X119900546Y-172269500D01*
X119719454Y-172269500D01*
X119719451Y-172269500D01*
X119540593Y-172297828D01*
X119368362Y-172353788D01*
X119207008Y-172436002D01*
X119152835Y-172475361D01*
X119060499Y-172542447D01*
X118932447Y-172670499D01*
X118879225Y-172743752D01*
X118826002Y-172817008D01*
X118743788Y-172978362D01*
X118687828Y-173150593D01*
X118659500Y-173329450D01*
X118420500Y-173329450D01*
X118392171Y-173150593D01*
X118392171Y-173150591D01*
X118336211Y-172978361D01*
X118253996Y-172817006D01*
X118147553Y-172670499D01*
X118019501Y-172542447D01*
X117872994Y-172436004D01*
X117872993Y-172436003D01*
X117872991Y-172436002D01*
X117711637Y-172353788D01*
X117539406Y-172297828D01*
X117360549Y-172269500D01*
X117360546Y-172269500D01*
X117179454Y-172269500D01*
X117179451Y-172269500D01*
X117000593Y-172297828D01*
X116828362Y-172353788D01*
X116667008Y-172436002D01*
X116612835Y-172475361D01*
X116520499Y-172542447D01*
X116392447Y-172670499D01*
X116339225Y-172743752D01*
X116286002Y-172817008D01*
X116203788Y-172978362D01*
X116147828Y-173150593D01*
X116119500Y-173329450D01*
X115880500Y-173329450D01*
X115852171Y-173150593D01*
X115852171Y-173150591D01*
X115796211Y-172978361D01*
X115713996Y-172817006D01*
X115607553Y-172670499D01*
X115479501Y-172542447D01*
X115332994Y-172436004D01*
X115332993Y-172436003D01*
X115332991Y-172436002D01*
X115171637Y-172353788D01*
X114999406Y-172297828D01*
X114820549Y-172269500D01*
X114820546Y-172269500D01*
X114639454Y-172269500D01*
X114639451Y-172269500D01*
X114460593Y-172297828D01*
X114288362Y-172353788D01*
X114127008Y-172436002D01*
X114072835Y-172475361D01*
X113980499Y-172542447D01*
X113852447Y-172670499D01*
X113799225Y-172743752D01*
X113746002Y-172817008D01*
X113663788Y-172978362D01*
X113607828Y-173150593D01*
X113579500Y-173329450D01*
X113340500Y-173329450D01*
X113312171Y-173150593D01*
X113312171Y-173150591D01*
X113256211Y-172978361D01*
X113173996Y-172817006D01*
X113067553Y-172670499D01*
X112939501Y-172542447D01*
X112792994Y-172436004D01*
X112792993Y-172436003D01*
X112792991Y-172436002D01*
X112631637Y-172353788D01*
X112459406Y-172297828D01*
X112280549Y-172269500D01*
X112280546Y-172269500D01*
X112099454Y-172269500D01*
X112099451Y-172269500D01*
X111920593Y-172297828D01*
X111748362Y-172353788D01*
X111587008Y-172436002D01*
X111570821Y-172447763D01*
X111502688Y-172497263D01*
X111444500Y-172516170D01*
X111386309Y-172497263D01*
X111350345Y-172447763D01*
X111345500Y-172417170D01*
X111345500Y-111624500D01*
X111364407Y-111566309D01*
X111413907Y-111530345D01*
X111444500Y-111525500D01*
X112246016Y-111525500D01*
X112246018Y-111525500D01*
X112354237Y-111496503D01*
X112354239Y-111496501D01*
X112354241Y-111496501D01*
X112383064Y-111479859D01*
X112451263Y-111440485D01*
X112530485Y-111361263D01*
X112586503Y-111264237D01*
X112615500Y-111156018D01*
X112615500Y-107715101D01*
X112634407Y-107656910D01*
X112669552Y-107626892D01*
X112792994Y-107563996D01*
X112939501Y-107457553D01*
X113067553Y-107329501D01*
X113173996Y-107182994D01*
X113256211Y-107021639D01*
X113312171Y-106849409D01*
X113340500Y-106670546D01*
X113340500Y-106489454D01*
X113340500Y-106489450D01*
X113579500Y-106489450D01*
X113579500Y-106670549D01*
X113607828Y-106849406D01*
X113607829Y-106849409D01*
X113663789Y-107021639D01*
X113746004Y-107182994D01*
X113852447Y-107329501D01*
X113980499Y-107457553D01*
X114127006Y-107563996D01*
X114288361Y-107646211D01*
X114460591Y-107702171D01*
X114532136Y-107713502D01*
X114639451Y-107730500D01*
X114639454Y-107730500D01*
X114820549Y-107730500D01*
X114917772Y-107715101D01*
X114999409Y-107702171D01*
X115171639Y-107646211D01*
X115332994Y-107563996D01*
X115479501Y-107457553D01*
X115607553Y-107329501D01*
X115713996Y-107182994D01*
X115796211Y-107021639D01*
X115852171Y-106849409D01*
X115880500Y-106670546D01*
X115880500Y-106489454D01*
X115880500Y-106489450D01*
X116119500Y-106489450D01*
X116119500Y-106670549D01*
X116147828Y-106849406D01*
X116147829Y-106849409D01*
X116203789Y-107021639D01*
X116286004Y-107182994D01*
X116392447Y-107329501D01*
X116520499Y-107457553D01*
X116667006Y-107563996D01*
X116828361Y-107646211D01*
X117000591Y-107702171D01*
X117072136Y-107713502D01*
X117179451Y-107730500D01*
X117179454Y-107730500D01*
X117360549Y-107730500D01*
X117457772Y-107715101D01*
X117539409Y-107702171D01*
X117711639Y-107646211D01*
X117872994Y-107563996D01*
X118019501Y-107457553D01*
X118147553Y-107329501D01*
X118253996Y-107182994D01*
X118336211Y-107021639D01*
X118392171Y-106849409D01*
X118420500Y-106670546D01*
X118420500Y-106489454D01*
X118420500Y-106489450D01*
X118659500Y-106489450D01*
X118659500Y-106670549D01*
X118687828Y-106849406D01*
X118687829Y-106849409D01*
X118743789Y-107021639D01*
X118826004Y-107182994D01*
X118932447Y-107329501D01*
X119060499Y-107457553D01*
X119207006Y-107563996D01*
X119368361Y-107646211D01*
X119540591Y-107702171D01*
X119612136Y-107713502D01*
X119719451Y-107730500D01*
X119719454Y-107730500D01*
X119900549Y-107730500D01*
X119997772Y-107715101D01*
X120079409Y-107702171D01*
X120251639Y-107646211D01*
X120412994Y-107563996D01*
X120559501Y-107457553D01*
X120687553Y-107329501D01*
X120793996Y-107182994D01*
X120876211Y-107021639D01*
X120932171Y-106849409D01*
X120960500Y-106670546D01*
X120960500Y-106489454D01*
X120960500Y-106489450D01*
X121199500Y-106489450D01*
X121199500Y-106670549D01*
X121227828Y-106849406D01*
X121227829Y-106849409D01*
X121283789Y-107021639D01*
X121366004Y-107182994D01*
X121472447Y-107329501D01*
X121600499Y-107457553D01*
X121747006Y-107563996D01*
X121908361Y-107646211D01*
X122080591Y-107702171D01*
X122152136Y-107713502D01*
X122259451Y-107730500D01*
X122259454Y-107730500D01*
X122440549Y-107730500D01*
X122537772Y-107715101D01*
X122619409Y-107702171D01*
X122791639Y-107646211D01*
X122952994Y-107563996D01*
X123099501Y-107457553D01*
X123227553Y-107329501D01*
X123333996Y-107182994D01*
X123416211Y-107021639D01*
X123472171Y-106849409D01*
X123500500Y-106670546D01*
X123500500Y-106489454D01*
X123500500Y-106489450D01*
X123739500Y-106489450D01*
X123739500Y-106670549D01*
X123767828Y-106849406D01*
X123767829Y-106849409D01*
X123823789Y-107021639D01*
X123906004Y-107182994D01*
X124012447Y-107329501D01*
X124140499Y-107457553D01*
X124287006Y-107563996D01*
X124448361Y-107646211D01*
X124620591Y-107702171D01*
X124692136Y-107713502D01*
X124799451Y-107730500D01*
X124799454Y-107730500D01*
X124980549Y-107730500D01*
X125077772Y-107715101D01*
X125159409Y-107702171D01*
X125331639Y-107646211D01*
X125492994Y-107563996D01*
X125639501Y-107457553D01*
X125767553Y-107329501D01*
X125873996Y-107182994D01*
X125956211Y-107021639D01*
X126012171Y-106849409D01*
X126040500Y-106670546D01*
X126040500Y-106489454D01*
X126040500Y-106489450D01*
X126279500Y-106489450D01*
X126279500Y-106670549D01*
X126307828Y-106849406D01*
X126307829Y-106849409D01*
X126363789Y-107021639D01*
X126446004Y-107182994D01*
X126552447Y-107329501D01*
X126680499Y-107457553D01*
X126827006Y-107563996D01*
X126988361Y-107646211D01*
X127160591Y-107702171D01*
X127232136Y-107713502D01*
X127339451Y-107730500D01*
X127339454Y-107730500D01*
X127520549Y-107730500D01*
X127617772Y-107715101D01*
X127699409Y-107702171D01*
X127871639Y-107646211D01*
X128032994Y-107563996D01*
X128179501Y-107457553D01*
X128307553Y-107329501D01*
X128413996Y-107182994D01*
X128496211Y-107021639D01*
X128552171Y-106849409D01*
X128580500Y-106670546D01*
X128580500Y-106489454D01*
X128580500Y-106489450D01*
X128552171Y-106310593D01*
X128552171Y-106310591D01*
X128496211Y-106138361D01*
X128413996Y-105977006D01*
X128307553Y-105830499D01*
X128179501Y-105702447D01*
X128032994Y-105596004D01*
X128032993Y-105596003D01*
X128032991Y-105596002D01*
X127871637Y-105513788D01*
X127699406Y-105457828D01*
X127520549Y-105429500D01*
X127520546Y-105429500D01*
X127339454Y-105429500D01*
X127339451Y-105429500D01*
X127160593Y-105457828D01*
X126988362Y-105513788D01*
X126827008Y-105596002D01*
X126753752Y-105649225D01*
X126680499Y-105702447D01*
X126552447Y-105830499D01*
X126499225Y-105903752D01*
X126446002Y-105977008D01*
X126363788Y-106138362D01*
X126307828Y-106310593D01*
X126279500Y-106489450D01*
X126040500Y-106489450D01*
X126012171Y-106310593D01*
X126012171Y-106310591D01*
X125956211Y-106138361D01*
X125873996Y-105977006D01*
X125767553Y-105830499D01*
X125639501Y-105702447D01*
X125492994Y-105596004D01*
X125492993Y-105596003D01*
X125492991Y-105596002D01*
X125331637Y-105513788D01*
X125159406Y-105457828D01*
X124980549Y-105429500D01*
X124980546Y-105429500D01*
X124799454Y-105429500D01*
X124799451Y-105429500D01*
X124620593Y-105457828D01*
X124448362Y-105513788D01*
X124287008Y-105596002D01*
X124213752Y-105649225D01*
X124140499Y-105702447D01*
X124012447Y-105830499D01*
X123959225Y-105903752D01*
X123906002Y-105977008D01*
X123823788Y-106138362D01*
X123767828Y-106310593D01*
X123739500Y-106489450D01*
X123500500Y-106489450D01*
X123472171Y-106310593D01*
X123472171Y-106310591D01*
X123416211Y-106138361D01*
X123333996Y-105977006D01*
X123227553Y-105830499D01*
X123099501Y-105702447D01*
X122952994Y-105596004D01*
X122952993Y-105596003D01*
X122952991Y-105596002D01*
X122791637Y-105513788D01*
X122619406Y-105457828D01*
X122440549Y-105429500D01*
X122440546Y-105429500D01*
X122259454Y-105429500D01*
X122259451Y-105429500D01*
X122080593Y-105457828D01*
X121908362Y-105513788D01*
X121747008Y-105596002D01*
X121673752Y-105649225D01*
X121600499Y-105702447D01*
X121472447Y-105830499D01*
X121419225Y-105903752D01*
X121366002Y-105977008D01*
X121283788Y-106138362D01*
X121227828Y-106310593D01*
X121199500Y-106489450D01*
X120960500Y-106489450D01*
X120932171Y-106310593D01*
X120932171Y-106310591D01*
X120876211Y-106138361D01*
X120793996Y-105977006D01*
X120687553Y-105830499D01*
X120559501Y-105702447D01*
X120412994Y-105596004D01*
X120412993Y-105596003D01*
X120412991Y-105596002D01*
X120251637Y-105513788D01*
X120079406Y-105457828D01*
X119900549Y-105429500D01*
X119900546Y-105429500D01*
X119719454Y-105429500D01*
X119719451Y-105429500D01*
X119540593Y-105457828D01*
X119368362Y-105513788D01*
X119207008Y-105596002D01*
X119133752Y-105649225D01*
X119060499Y-105702447D01*
X118932447Y-105830499D01*
X118879225Y-105903752D01*
X118826002Y-105977008D01*
X118743788Y-106138362D01*
X118687828Y-106310593D01*
X118659500Y-106489450D01*
X118420500Y-106489450D01*
X118392171Y-106310593D01*
X118392171Y-106310591D01*
X118336211Y-106138361D01*
X118253996Y-105977006D01*
X118147553Y-105830499D01*
X118019501Y-105702447D01*
X117872994Y-105596004D01*
X117872993Y-105596003D01*
X117872991Y-105596002D01*
X117711637Y-105513788D01*
X117539406Y-105457828D01*
X117360549Y-105429500D01*
X117360546Y-105429500D01*
X117179454Y-105429500D01*
X117179451Y-105429500D01*
X117000593Y-105457828D01*
X116828362Y-105513788D01*
X116667008Y-105596002D01*
X116593752Y-105649225D01*
X116520499Y-105702447D01*
X116392447Y-105830499D01*
X116339225Y-105903752D01*
X116286002Y-105977008D01*
X116203788Y-106138362D01*
X116147828Y-106310593D01*
X116119500Y-106489450D01*
X115880500Y-106489450D01*
X115852171Y-106310593D01*
X115852171Y-106310591D01*
X115796211Y-106138361D01*
X115713996Y-105977006D01*
X115607553Y-105830499D01*
X115479501Y-105702447D01*
X115332994Y-105596004D01*
X115332993Y-105596003D01*
X115332991Y-105596002D01*
X115171637Y-105513788D01*
X114999406Y-105457828D01*
X114820549Y-105429500D01*
X114820546Y-105429500D01*
X114639454Y-105429500D01*
X114639451Y-105429500D01*
X114460593Y-105457828D01*
X114288362Y-105513788D01*
X114127008Y-105596002D01*
X114053752Y-105649225D01*
X113980499Y-105702447D01*
X113852447Y-105830499D01*
X113799225Y-105903752D01*
X113746002Y-105977008D01*
X113663788Y-106138362D01*
X113607828Y-106310593D01*
X113579500Y-106489450D01*
X113340500Y-106489450D01*
X113312171Y-106310593D01*
X113312171Y-106310591D01*
X113256211Y-106138361D01*
X113173996Y-105977006D01*
X113067553Y-105830499D01*
X112939501Y-105702447D01*
X112792994Y-105596004D01*
X112792993Y-105596003D01*
X112792991Y-105596002D01*
X112631637Y-105513788D01*
X112459406Y-105457828D01*
X112280549Y-105429500D01*
X112280546Y-105429500D01*
X112099454Y-105429500D01*
X112099451Y-105429500D01*
X111920593Y-105457828D01*
X111748362Y-105513788D01*
X111587008Y-105596002D01*
X111513752Y-105649225D01*
X111440499Y-105702447D01*
X111312447Y-105830499D01*
X111259225Y-105903752D01*
X111206002Y-105977008D01*
X111123788Y-106138362D01*
X111067828Y-106310593D01*
X111039500Y-106489450D01*
X111039500Y-106670549D01*
X111067828Y-106849406D01*
X111067829Y-106849409D01*
X111123789Y-107021639D01*
X111206004Y-107182994D01*
X111312447Y-107329501D01*
X111440499Y-107457553D01*
X111587006Y-107563996D01*
X111710446Y-107626892D01*
X111753710Y-107670156D01*
X111764500Y-107715101D01*
X111764500Y-110575500D01*
X111745593Y-110633691D01*
X111696093Y-110669655D01*
X111665500Y-110674500D01*
X110976018Y-110674500D01*
X110863982Y-110674500D01*
X110797748Y-110692247D01*
X110755758Y-110703498D01*
X110658739Y-110759513D01*
X110579513Y-110838739D01*
X110523498Y-110935758D01*
X110494500Y-111043983D01*
X110494500Y-172417170D01*
X110475593Y-172475361D01*
X110426093Y-172511325D01*
X110364907Y-172511325D01*
X110337313Y-172497265D01*
X110252994Y-172436004D01*
X110252993Y-172436003D01*
X110252991Y-172436002D01*
X110091637Y-172353788D01*
X109919406Y-172297828D01*
X109740549Y-172269500D01*
X109740546Y-172269500D01*
X109559454Y-172269500D01*
X109559451Y-172269500D01*
X109380593Y-172297828D01*
X109208362Y-172353788D01*
X109047008Y-172436002D01*
X109030821Y-172447763D01*
X108962688Y-172497263D01*
X108904500Y-172516170D01*
X108846309Y-172497263D01*
X108810345Y-172447763D01*
X108805500Y-172417170D01*
X108805500Y-110824500D01*
X108824407Y-110766309D01*
X108873907Y-110730345D01*
X108904500Y-110725500D01*
X109706016Y-110725500D01*
X109706018Y-110725500D01*
X109814237Y-110696503D01*
X109814239Y-110696501D01*
X109814241Y-110696501D01*
X109860739Y-110669655D01*
X109911263Y-110640485D01*
X109990485Y-110561263D01*
X110046503Y-110464237D01*
X110075500Y-110356018D01*
X110075500Y-107715101D01*
X110094407Y-107656910D01*
X110129552Y-107626892D01*
X110252994Y-107563996D01*
X110399501Y-107457553D01*
X110527553Y-107329501D01*
X110633996Y-107182994D01*
X110716211Y-107021639D01*
X110772171Y-106849409D01*
X110800500Y-106670546D01*
X110800500Y-106489454D01*
X110800500Y-106489450D01*
X110772171Y-106310593D01*
X110772171Y-106310591D01*
X110716211Y-106138361D01*
X110633996Y-105977006D01*
X110527553Y-105830499D01*
X110399501Y-105702447D01*
X110252994Y-105596004D01*
X110252993Y-105596003D01*
X110252991Y-105596002D01*
X110091637Y-105513788D01*
X109919406Y-105457828D01*
X109740549Y-105429500D01*
X109740546Y-105429500D01*
X109559454Y-105429500D01*
X109559451Y-105429500D01*
X109380593Y-105457828D01*
X109208362Y-105513788D01*
X109047008Y-105596002D01*
X108973752Y-105649225D01*
X108900499Y-105702447D01*
X108772447Y-105830499D01*
X108719225Y-105903752D01*
X108666002Y-105977008D01*
X108583788Y-106138362D01*
X108527828Y-106310593D01*
X108499500Y-106489450D01*
X108499500Y-106670549D01*
X108527828Y-106849406D01*
X108527829Y-106849409D01*
X108583789Y-107021639D01*
X108666004Y-107182994D01*
X108772447Y-107329501D01*
X108900499Y-107457553D01*
X109047006Y-107563996D01*
X109170446Y-107626892D01*
X109213710Y-107670156D01*
X109224500Y-107715101D01*
X109224500Y-109775500D01*
X109205593Y-109833691D01*
X109156093Y-109869655D01*
X109125500Y-109874500D01*
X108436018Y-109874500D01*
X108323982Y-109874500D01*
X108257748Y-109892247D01*
X108215758Y-109903498D01*
X108118739Y-109959513D01*
X108039513Y-110038739D01*
X107983498Y-110135758D01*
X107954500Y-110243983D01*
X107954500Y-172417170D01*
X107935593Y-172475361D01*
X107886093Y-172511325D01*
X107824907Y-172511325D01*
X107797313Y-172497265D01*
X107712994Y-172436004D01*
X107712993Y-172436003D01*
X107712991Y-172436002D01*
X107551637Y-172353788D01*
X107379406Y-172297828D01*
X107200549Y-172269500D01*
X107200546Y-172269500D01*
X107019454Y-172269500D01*
X107019451Y-172269500D01*
X106840593Y-172297828D01*
X106668362Y-172353788D01*
X106507008Y-172436002D01*
X106490821Y-172447763D01*
X106422688Y-172497263D01*
X106364500Y-172516170D01*
X106306309Y-172497263D01*
X106270345Y-172447763D01*
X106265500Y-172417170D01*
X106265500Y-110024500D01*
X106284407Y-109966309D01*
X106333907Y-109930345D01*
X106364500Y-109925500D01*
X107166016Y-109925500D01*
X107166018Y-109925500D01*
X107274237Y-109896503D01*
X107274239Y-109896501D01*
X107274241Y-109896501D01*
X107320739Y-109869655D01*
X107371263Y-109840485D01*
X107450485Y-109761263D01*
X107506503Y-109664237D01*
X107535500Y-109556018D01*
X107535500Y-107715101D01*
X107554407Y-107656910D01*
X107589552Y-107626892D01*
X107712994Y-107563996D01*
X107859501Y-107457553D01*
X107987553Y-107329501D01*
X108093996Y-107182994D01*
X108176211Y-107021639D01*
X108232171Y-106849409D01*
X108260500Y-106670546D01*
X108260500Y-106489454D01*
X108260500Y-106489450D01*
X108232171Y-106310593D01*
X108232171Y-106310591D01*
X108176211Y-106138361D01*
X108093996Y-105977006D01*
X107987553Y-105830499D01*
X107859501Y-105702447D01*
X107712994Y-105596004D01*
X107712993Y-105596003D01*
X107712991Y-105596002D01*
X107551637Y-105513788D01*
X107379406Y-105457828D01*
X107200549Y-105429500D01*
X107200546Y-105429500D01*
X107019454Y-105429500D01*
X107019451Y-105429500D01*
X106840593Y-105457828D01*
X106668362Y-105513788D01*
X106507008Y-105596002D01*
X106433752Y-105649225D01*
X106360499Y-105702447D01*
X106232447Y-105830499D01*
X106179225Y-105903752D01*
X106126002Y-105977008D01*
X106043788Y-106138362D01*
X105987828Y-106310593D01*
X105959500Y-106489450D01*
X105959500Y-106670549D01*
X105987828Y-106849406D01*
X105987829Y-106849409D01*
X106043789Y-107021639D01*
X106126004Y-107182994D01*
X106232447Y-107329501D01*
X106360499Y-107457553D01*
X106507006Y-107563996D01*
X106630446Y-107626892D01*
X106673710Y-107670156D01*
X106684500Y-107715101D01*
X106684500Y-108975500D01*
X106665593Y-109033691D01*
X106616093Y-109069655D01*
X106585500Y-109074500D01*
X105896018Y-109074500D01*
X105783982Y-109074500D01*
X105717748Y-109092247D01*
X105675758Y-109103498D01*
X105578739Y-109159513D01*
X105499513Y-109238739D01*
X105443498Y-109335758D01*
X105414500Y-109443983D01*
X105414500Y-172417170D01*
X105395593Y-172475361D01*
X105346093Y-172511325D01*
X105284907Y-172511325D01*
X105257313Y-172497265D01*
X105172994Y-172436004D01*
X105172993Y-172436003D01*
X105172991Y-172436002D01*
X105011637Y-172353788D01*
X104839406Y-172297828D01*
X104660549Y-172269500D01*
X104660546Y-172269500D01*
X104479454Y-172269500D01*
X104479451Y-172269500D01*
X104300593Y-172297828D01*
X104128362Y-172353788D01*
X103967008Y-172436002D01*
X103912835Y-172475361D01*
X103820499Y-172542447D01*
X103692447Y-172670499D01*
X103639225Y-172743752D01*
X103586002Y-172817008D01*
X103503788Y-172978362D01*
X103447828Y-173150593D01*
X103419500Y-173329450D01*
X102500500Y-173329450D01*
X102500500Y-100599500D01*
X102519407Y-100541309D01*
X102568907Y-100505345D01*
X102599500Y-100500500D01*
X129400500Y-100500500D01*
X129458691Y-100519407D01*
G37*
%TD.AperFunction*%
%TD*%
M02*
