%TF.GenerationSoftware,KiCad,Pcbnew,10.0.3*%
%TF.CreationDate,2026-07-09T02:27:14+02:00*%
%TF.ProjectId,musicbrain-riser,6d757369-6362-4726-9169-6e2d72697365,1.0*%
%TF.SameCoordinates,Original*%
%TF.FileFunction,Drillmap*%
%TF.FilePolarity,Positive*%
%FSLAX45Y45*%
G04 Gerber Fmt 4.5, Leading zero omitted, Abs format (unit mm)*
G04 Created by KiCad (PCBNEW 10.0.3) date 2026-07-09 02:27:14*
%MOMM*%
%LPD*%
G01*
G04 APERTURE LIST*
%ADD10C,0.100000*%
%ADD11C,0.200000*%
G04 APERTURE END LIST*
D10*
X10200000Y-10000000D02*
X13300000Y-10000000D01*
X13300000Y-18000000D01*
X10200000Y-18000000D01*
X10200000Y-10000000D01*
D11*
X10455777Y-18316484D02*
X10455777Y-18116484D01*
X10455777Y-18116484D02*
X10503396Y-18116484D01*
X10503396Y-18116484D02*
X10531967Y-18126008D01*
X10531967Y-18126008D02*
X10551015Y-18145055D01*
X10551015Y-18145055D02*
X10560539Y-18164103D01*
X10560539Y-18164103D02*
X10570063Y-18202198D01*
X10570063Y-18202198D02*
X10570063Y-18230770D01*
X10570063Y-18230770D02*
X10560539Y-18268865D01*
X10560539Y-18268865D02*
X10551015Y-18287912D01*
X10551015Y-18287912D02*
X10531967Y-18306960D01*
X10531967Y-18306960D02*
X10503396Y-18316484D01*
X10503396Y-18316484D02*
X10455777Y-18316484D01*
X10655777Y-18316484D02*
X10655777Y-18183150D01*
X10655777Y-18221246D02*
X10665301Y-18202198D01*
X10665301Y-18202198D02*
X10674824Y-18192674D01*
X10674824Y-18192674D02*
X10693872Y-18183150D01*
X10693872Y-18183150D02*
X10712920Y-18183150D01*
X10779586Y-18316484D02*
X10779586Y-18183150D01*
X10779586Y-18116484D02*
X10770063Y-18126008D01*
X10770063Y-18126008D02*
X10779586Y-18135531D01*
X10779586Y-18135531D02*
X10789110Y-18126008D01*
X10789110Y-18126008D02*
X10779586Y-18116484D01*
X10779586Y-18116484D02*
X10779586Y-18135531D01*
X10903396Y-18316484D02*
X10884348Y-18306960D01*
X10884348Y-18306960D02*
X10874824Y-18287912D01*
X10874824Y-18287912D02*
X10874824Y-18116484D01*
X11008158Y-18316484D02*
X10989110Y-18306960D01*
X10989110Y-18306960D02*
X10979586Y-18287912D01*
X10979586Y-18287912D02*
X10979586Y-18116484D01*
X11236729Y-18316484D02*
X11236729Y-18116484D01*
X11236729Y-18116484D02*
X11303396Y-18259341D01*
X11303396Y-18259341D02*
X11370062Y-18116484D01*
X11370062Y-18116484D02*
X11370062Y-18316484D01*
X11551015Y-18316484D02*
X11551015Y-18211722D01*
X11551015Y-18211722D02*
X11541491Y-18192674D01*
X11541491Y-18192674D02*
X11522443Y-18183150D01*
X11522443Y-18183150D02*
X11484348Y-18183150D01*
X11484348Y-18183150D02*
X11465301Y-18192674D01*
X11551015Y-18306960D02*
X11531967Y-18316484D01*
X11531967Y-18316484D02*
X11484348Y-18316484D01*
X11484348Y-18316484D02*
X11465301Y-18306960D01*
X11465301Y-18306960D02*
X11455777Y-18287912D01*
X11455777Y-18287912D02*
X11455777Y-18268865D01*
X11455777Y-18268865D02*
X11465301Y-18249817D01*
X11465301Y-18249817D02*
X11484348Y-18240293D01*
X11484348Y-18240293D02*
X11531967Y-18240293D01*
X11531967Y-18240293D02*
X11551015Y-18230770D01*
X11646253Y-18183150D02*
X11646253Y-18383150D01*
X11646253Y-18192674D02*
X11665301Y-18183150D01*
X11665301Y-18183150D02*
X11703396Y-18183150D01*
X11703396Y-18183150D02*
X11722443Y-18192674D01*
X11722443Y-18192674D02*
X11731967Y-18202198D01*
X11731967Y-18202198D02*
X11741491Y-18221246D01*
X11741491Y-18221246D02*
X11741491Y-18278389D01*
X11741491Y-18278389D02*
X11731967Y-18297436D01*
X11731967Y-18297436D02*
X11722443Y-18306960D01*
X11722443Y-18306960D02*
X11703396Y-18316484D01*
X11703396Y-18316484D02*
X11665301Y-18316484D01*
X11665301Y-18316484D02*
X11646253Y-18306960D01*
X11827205Y-18297436D02*
X11836729Y-18306960D01*
X11836729Y-18306960D02*
X11827205Y-18316484D01*
X11827205Y-18316484D02*
X11817682Y-18306960D01*
X11817682Y-18306960D02*
X11827205Y-18297436D01*
X11827205Y-18297436D02*
X11827205Y-18316484D01*
X11827205Y-18192674D02*
X11836729Y-18202198D01*
X11836729Y-18202198D02*
X11827205Y-18211722D01*
X11827205Y-18211722D02*
X11817682Y-18202198D01*
X11817682Y-18202198D02*
X11827205Y-18192674D01*
X11827205Y-18192674D02*
X11827205Y-18211722D01*
M02*
