%TF.GenerationSoftware,KiCad,Pcbnew,10.0.3*%
%TF.CreationDate,2026-07-09T02:27:14+02:00*%
%TF.ProjectId,musicbrain-riser,6d757369-6362-4726-9169-6e2d72697365,1.0*%
%TF.SameCoordinates,Original*%
%TF.FileFunction,Copper,L2,Bot*%
%TF.FilePolarity,Positive*%
%FSLAX46Y46*%
G04 Gerber Fmt 4.6, Leading zero omitted, Abs format (unit mm)*
G04 Created by KiCad (PCBNEW 10.0.3) date 2026-07-09 02:27:14*
%MOMM*%
%LPD*%
G01*
G04 APERTURE LIST*
%TA.AperFunction,ComponentPad*%
%ADD10R,1.700000X1.700000*%
%TD*%
%TA.AperFunction,ComponentPad*%
%ADD11C,1.700000*%
%TD*%
%TA.AperFunction,ViaPad*%
%ADD12C,0.500000*%
%TD*%
G04 APERTURE END LIST*
D10*
%TO.P,J1,1*%
%TO.N,GND*%
X128930000Y-173420000D03*
D11*
%TO.P,J1,2*%
%TO.N,+12V*%
X128930000Y-175960000D03*
%TO.P,J1,3*%
%TO.N,GND*%
X126390000Y-173420000D03*
%TO.P,J1,4*%
%TO.N,-12V*%
X126390000Y-175960000D03*
%TO.P,J1,5*%
%TO.N,GND*%
X123850000Y-173420000D03*
%TO.P,J1,6*%
%TO.N,+3V3*%
X123850000Y-175960000D03*
%TO.P,J1,7*%
%TO.N,/SCLK*%
X121310000Y-173420000D03*
%TO.P,J1,8*%
%TO.N,GND*%
X121310000Y-175960000D03*
%TO.P,J1,9*%
%TO.N,/MOSI*%
X118770000Y-173420000D03*
%TO.P,J1,10*%
%TO.N,GND*%
X118770000Y-175960000D03*
%TO.P,J1,11*%
%TO.N,/MISO*%
X116230000Y-173420000D03*
%TO.P,J1,12*%
%TO.N,GND*%
X116230000Y-175960000D03*
%TO.P,J1,13*%
%TO.N,/CS*%
X113690000Y-173420000D03*
%TO.P,J1,14*%
%TO.N,GND*%
X113690000Y-175960000D03*
%TO.P,J1,15*%
%TO.N,/LDAC*%
X111150000Y-173420000D03*
%TO.P,J1,16*%
%TO.N,/IRQ*%
X111150000Y-175960000D03*
%TO.P,J1,17*%
%TO.N,/SDA*%
X108610000Y-173420000D03*
%TO.P,J1,18*%
%TO.N,/SCL*%
X108610000Y-175960000D03*
%TO.P,J1,19*%
%TO.N,/SPARE1*%
X106070000Y-173420000D03*
%TO.P,J1,20*%
%TO.N,/SPARE2*%
X106070000Y-175960000D03*
%TD*%
D10*
%TO.P,J2,1*%
%TO.N,/SPARE1*%
X106070000Y-106580000D03*
D11*
%TO.P,J2,2*%
%TO.N,/SPARE2*%
X106070000Y-104040000D03*
%TO.P,J2,3*%
%TO.N,/SDA*%
X108610000Y-106580000D03*
%TO.P,J2,4*%
%TO.N,/SCL*%
X108610000Y-104040000D03*
%TO.P,J2,5*%
%TO.N,/LDAC*%
X111150000Y-106580000D03*
%TO.P,J2,6*%
%TO.N,/IRQ*%
X111150000Y-104040000D03*
%TO.P,J2,7*%
%TO.N,/CS*%
X113690000Y-106580000D03*
%TO.P,J2,8*%
%TO.N,GND*%
X113690000Y-104040000D03*
%TO.P,J2,9*%
%TO.N,/MISO*%
X116230000Y-106580000D03*
%TO.P,J2,10*%
%TO.N,GND*%
X116230000Y-104040000D03*
%TO.P,J2,11*%
%TO.N,/MOSI*%
X118770000Y-106580000D03*
%TO.P,J2,12*%
%TO.N,GND*%
X118770000Y-104040000D03*
%TO.P,J2,13*%
%TO.N,/SCLK*%
X121310000Y-106580000D03*
%TO.P,J2,14*%
%TO.N,GND*%
X121310000Y-104040000D03*
%TO.P,J2,15*%
X123850000Y-106580000D03*
%TO.P,J2,16*%
%TO.N,+3V3*%
X123850000Y-104040000D03*
%TO.P,J2,17*%
%TO.N,GND*%
X126390000Y-106580000D03*
%TO.P,J2,18*%
%TO.N,-12V*%
X126390000Y-104040000D03*
%TO.P,J2,19*%
%TO.N,GND*%
X128930000Y-106580000D03*
%TO.P,J2,20*%
%TO.N,+12V*%
X128930000Y-104040000D03*
%TD*%
D12*
%TO.N,GND*%
X104000000Y-102000000D03*
X131000000Y-102000000D03*
X104000000Y-178000000D03*
X131000000Y-178000000D03*
X104000000Y-140000000D03*
X131000000Y-140000000D03*
X117500000Y-140000000D03*
%TO.N,/SCL*%
X110000000Y-120000000D03*
%TO.N,+3V3*%
X125000000Y-120000000D03*
%TO.N,/SCL*%
X110000000Y-160000000D03*
%TO.N,+3V3*%
X125000000Y-160000000D03*
%TD*%
%TA.AperFunction,Conductor*%
%TO.N,GND*%
G36*
X132458691Y-100519407D02*
G01*
X132494655Y-100568907D01*
X132499500Y-100599500D01*
X132499500Y-179400500D01*
X132480593Y-179458691D01*
X132431093Y-179494655D01*
X132400500Y-179499500D01*
X102599500Y-179499500D01*
X102541309Y-179480593D01*
X102505345Y-179431093D01*
X102500500Y-179400500D01*
X102500500Y-175869450D01*
X104919500Y-175869450D01*
X104919500Y-176050549D01*
X104947828Y-176229406D01*
X104947829Y-176229409D01*
X105003789Y-176401639D01*
X105086004Y-176562994D01*
X105192447Y-176709501D01*
X105320499Y-176837553D01*
X105467006Y-176943996D01*
X105628361Y-177026211D01*
X105800591Y-177082171D01*
X105872136Y-177093502D01*
X105979451Y-177110500D01*
X105979454Y-177110500D01*
X106160549Y-177110500D01*
X106249977Y-177096335D01*
X106339409Y-177082171D01*
X106511639Y-177026211D01*
X106672994Y-176943996D01*
X106819501Y-176837553D01*
X106947553Y-176709501D01*
X107053996Y-176562994D01*
X107136211Y-176401639D01*
X107192171Y-176229409D01*
X107220500Y-176050546D01*
X107220500Y-175869454D01*
X107220500Y-175869450D01*
X107459500Y-175869450D01*
X107459500Y-176050549D01*
X107487828Y-176229406D01*
X107487829Y-176229409D01*
X107543789Y-176401639D01*
X107626004Y-176562994D01*
X107732447Y-176709501D01*
X107860499Y-176837553D01*
X108007006Y-176943996D01*
X108168361Y-177026211D01*
X108340591Y-177082171D01*
X108412136Y-177093502D01*
X108519451Y-177110500D01*
X108519454Y-177110500D01*
X108700549Y-177110500D01*
X108789977Y-177096335D01*
X108879409Y-177082171D01*
X109051639Y-177026211D01*
X109212994Y-176943996D01*
X109359501Y-176837553D01*
X109487553Y-176709501D01*
X109593996Y-176562994D01*
X109676211Y-176401639D01*
X109732171Y-176229409D01*
X109760500Y-176050546D01*
X109760500Y-175869454D01*
X109760500Y-175869450D01*
X109999500Y-175869450D01*
X109999500Y-176050549D01*
X110027828Y-176229406D01*
X110027829Y-176229409D01*
X110083789Y-176401639D01*
X110166004Y-176562994D01*
X110272447Y-176709501D01*
X110400499Y-176837553D01*
X110547006Y-176943996D01*
X110708361Y-177026211D01*
X110880591Y-177082171D01*
X110952136Y-177093502D01*
X111059451Y-177110500D01*
X111059454Y-177110500D01*
X111240549Y-177110500D01*
X111329977Y-177096335D01*
X111419409Y-177082171D01*
X111591639Y-177026211D01*
X111752994Y-176943996D01*
X111899501Y-176837553D01*
X112027553Y-176709501D01*
X112133996Y-176562994D01*
X112216211Y-176401639D01*
X112272171Y-176229409D01*
X112300500Y-176050546D01*
X112300500Y-175869454D01*
X112300500Y-175869450D01*
X122699500Y-175869450D01*
X122699500Y-176050549D01*
X122727828Y-176229406D01*
X122727829Y-176229409D01*
X122783789Y-176401639D01*
X122866004Y-176562994D01*
X122972447Y-176709501D01*
X123100499Y-176837553D01*
X123247006Y-176943996D01*
X123408361Y-177026211D01*
X123580591Y-177082171D01*
X123652136Y-177093502D01*
X123759451Y-177110500D01*
X123759454Y-177110500D01*
X123940549Y-177110500D01*
X124029977Y-177096335D01*
X124119409Y-177082171D01*
X124291639Y-177026211D01*
X124452994Y-176943996D01*
X124599501Y-176837553D01*
X124727553Y-176709501D01*
X124833996Y-176562994D01*
X124916211Y-176401639D01*
X124972171Y-176229409D01*
X125000500Y-176050546D01*
X125000500Y-175869454D01*
X125000500Y-175869450D01*
X125239500Y-175869450D01*
X125239500Y-176050549D01*
X125267828Y-176229406D01*
X125267829Y-176229409D01*
X125323789Y-176401639D01*
X125406004Y-176562994D01*
X125512447Y-176709501D01*
X125640499Y-176837553D01*
X125787006Y-176943996D01*
X125948361Y-177026211D01*
X126120591Y-177082171D01*
X126192136Y-177093502D01*
X126299451Y-177110500D01*
X126299454Y-177110500D01*
X126480549Y-177110500D01*
X126569977Y-177096335D01*
X126659409Y-177082171D01*
X126831639Y-177026211D01*
X126992994Y-176943996D01*
X127139501Y-176837553D01*
X127267553Y-176709501D01*
X127373996Y-176562994D01*
X127456211Y-176401639D01*
X127512171Y-176229409D01*
X127540500Y-176050546D01*
X127540500Y-175869454D01*
X127540500Y-175869450D01*
X127779500Y-175869450D01*
X127779500Y-176050549D01*
X127807828Y-176229406D01*
X127807829Y-176229409D01*
X127863789Y-176401639D01*
X127946004Y-176562994D01*
X128052447Y-176709501D01*
X128180499Y-176837553D01*
X128327006Y-176943996D01*
X128488361Y-177026211D01*
X128660591Y-177082171D01*
X128732136Y-177093502D01*
X128839451Y-177110500D01*
X128839454Y-177110500D01*
X129020549Y-177110500D01*
X129109977Y-177096335D01*
X129199409Y-177082171D01*
X129371639Y-177026211D01*
X129532994Y-176943996D01*
X129679501Y-176837553D01*
X129807553Y-176709501D01*
X129913996Y-176562994D01*
X129996211Y-176401639D01*
X130052171Y-176229409D01*
X130080500Y-176050546D01*
X130080500Y-175869454D01*
X130080500Y-175869450D01*
X130052171Y-175690593D01*
X130052171Y-175690591D01*
X129996211Y-175518361D01*
X129913996Y-175357006D01*
X129807553Y-175210499D01*
X129679501Y-175082447D01*
X129532994Y-174976004D01*
X129532993Y-174976003D01*
X129532991Y-174976002D01*
X129371637Y-174893788D01*
X129199406Y-174837828D01*
X129020549Y-174809500D01*
X129020546Y-174809500D01*
X128839454Y-174809500D01*
X128839451Y-174809500D01*
X128660593Y-174837828D01*
X128488362Y-174893788D01*
X128327008Y-174976002D01*
X128253752Y-175029225D01*
X128180499Y-175082447D01*
X128052447Y-175210499D01*
X127999225Y-175283752D01*
X127946002Y-175357008D01*
X127863788Y-175518362D01*
X127807828Y-175690593D01*
X127779500Y-175869450D01*
X127540500Y-175869450D01*
X127512171Y-175690593D01*
X127512171Y-175690591D01*
X127456211Y-175518361D01*
X127373996Y-175357006D01*
X127267553Y-175210499D01*
X127139501Y-175082447D01*
X126992994Y-174976004D01*
X126992993Y-174976003D01*
X126992991Y-174976002D01*
X126831637Y-174893788D01*
X126659406Y-174837828D01*
X126480549Y-174809500D01*
X126480546Y-174809500D01*
X126299454Y-174809500D01*
X126299451Y-174809500D01*
X126120593Y-174837828D01*
X125948362Y-174893788D01*
X125787008Y-174976002D01*
X125713752Y-175029225D01*
X125640499Y-175082447D01*
X125512447Y-175210499D01*
X125459225Y-175283752D01*
X125406002Y-175357008D01*
X125323788Y-175518362D01*
X125267828Y-175690593D01*
X125239500Y-175869450D01*
X125000500Y-175869450D01*
X124972171Y-175690593D01*
X124972171Y-175690591D01*
X124916211Y-175518361D01*
X124833996Y-175357006D01*
X124727553Y-175210499D01*
X124599501Y-175082447D01*
X124452994Y-174976004D01*
X124452993Y-174976003D01*
X124452991Y-174976002D01*
X124291637Y-174893788D01*
X124119406Y-174837828D01*
X123940549Y-174809500D01*
X123940546Y-174809500D01*
X123759454Y-174809500D01*
X123759451Y-174809500D01*
X123580593Y-174837828D01*
X123408362Y-174893788D01*
X123247008Y-174976002D01*
X123173752Y-175029225D01*
X123100499Y-175082447D01*
X122972447Y-175210499D01*
X122919225Y-175283752D01*
X122866002Y-175357008D01*
X122783788Y-175518362D01*
X122727828Y-175690593D01*
X122699500Y-175869450D01*
X112300500Y-175869450D01*
X112272171Y-175690593D01*
X112272171Y-175690591D01*
X112216211Y-175518361D01*
X112133996Y-175357006D01*
X112027553Y-175210499D01*
X111899501Y-175082447D01*
X111752994Y-174976004D01*
X111752993Y-174976003D01*
X111752991Y-174976002D01*
X111591637Y-174893788D01*
X111419406Y-174837828D01*
X111240549Y-174809500D01*
X111240546Y-174809500D01*
X111059454Y-174809500D01*
X111059451Y-174809500D01*
X110880593Y-174837828D01*
X110708362Y-174893788D01*
X110547008Y-174976002D01*
X110473752Y-175029225D01*
X110400499Y-175082447D01*
X110272447Y-175210499D01*
X110219225Y-175283752D01*
X110166002Y-175357008D01*
X110083788Y-175518362D01*
X110027828Y-175690593D01*
X109999500Y-175869450D01*
X109760500Y-175869450D01*
X109732171Y-175690593D01*
X109732171Y-175690591D01*
X109676211Y-175518361D01*
X109593996Y-175357006D01*
X109487553Y-175210499D01*
X109359501Y-175082447D01*
X109212994Y-174976004D01*
X109212993Y-174976003D01*
X109212991Y-174976002D01*
X109051637Y-174893788D01*
X108879406Y-174837828D01*
X108700549Y-174809500D01*
X108700546Y-174809500D01*
X108519454Y-174809500D01*
X108519451Y-174809500D01*
X108340593Y-174837828D01*
X108168362Y-174893788D01*
X108007008Y-174976002D01*
X107933752Y-175029225D01*
X107860499Y-175082447D01*
X107732447Y-175210499D01*
X107679225Y-175283752D01*
X107626002Y-175357008D01*
X107543788Y-175518362D01*
X107487828Y-175690593D01*
X107459500Y-175869450D01*
X107220500Y-175869450D01*
X107192171Y-175690593D01*
X107192171Y-175690591D01*
X107136211Y-175518361D01*
X107053996Y-175357006D01*
X106947553Y-175210499D01*
X106819501Y-175082447D01*
X106672994Y-174976004D01*
X106672993Y-174976003D01*
X106672991Y-174976002D01*
X106511637Y-174893788D01*
X106339406Y-174837828D01*
X106160549Y-174809500D01*
X106160546Y-174809500D01*
X105979454Y-174809500D01*
X105979451Y-174809500D01*
X105800593Y-174837828D01*
X105628362Y-174893788D01*
X105467008Y-174976002D01*
X105393752Y-175029225D01*
X105320499Y-175082447D01*
X105192447Y-175210499D01*
X105139225Y-175283752D01*
X105086002Y-175357008D01*
X105003788Y-175518362D01*
X104947828Y-175690593D01*
X104919500Y-175869450D01*
X102500500Y-175869450D01*
X102500500Y-173329450D01*
X104919500Y-173329450D01*
X104919500Y-173510549D01*
X104947828Y-173689406D01*
X104947829Y-173689409D01*
X105003789Y-173861639D01*
X105086004Y-174022994D01*
X105192447Y-174169501D01*
X105320499Y-174297553D01*
X105467006Y-174403996D01*
X105628361Y-174486211D01*
X105800591Y-174542171D01*
X105872136Y-174553502D01*
X105979451Y-174570500D01*
X105979454Y-174570500D01*
X106160549Y-174570500D01*
X106249977Y-174556335D01*
X106339409Y-174542171D01*
X106511639Y-174486211D01*
X106672994Y-174403996D01*
X106819501Y-174297553D01*
X106947553Y-174169501D01*
X107053996Y-174022994D01*
X107136211Y-173861639D01*
X107192171Y-173689409D01*
X107220500Y-173510546D01*
X107220500Y-173329454D01*
X107220500Y-173329450D01*
X107459500Y-173329450D01*
X107459500Y-173510549D01*
X107487828Y-173689406D01*
X107487829Y-173689409D01*
X107543789Y-173861639D01*
X107626004Y-174022994D01*
X107732447Y-174169501D01*
X107860499Y-174297553D01*
X108007006Y-174403996D01*
X108168361Y-174486211D01*
X108340591Y-174542171D01*
X108412136Y-174553502D01*
X108519451Y-174570500D01*
X108519454Y-174570500D01*
X108700549Y-174570500D01*
X108789977Y-174556335D01*
X108879409Y-174542171D01*
X109051639Y-174486211D01*
X109212994Y-174403996D01*
X109359501Y-174297553D01*
X109487553Y-174169501D01*
X109593996Y-174022994D01*
X109676211Y-173861639D01*
X109732171Y-173689409D01*
X109760500Y-173510546D01*
X109760500Y-173329454D01*
X109760500Y-173329450D01*
X109999500Y-173329450D01*
X109999500Y-173510549D01*
X110027828Y-173689406D01*
X110027829Y-173689409D01*
X110083789Y-173861639D01*
X110166004Y-174022994D01*
X110272447Y-174169501D01*
X110400499Y-174297553D01*
X110547006Y-174403996D01*
X110708361Y-174486211D01*
X110880591Y-174542171D01*
X110952136Y-174553502D01*
X111059451Y-174570500D01*
X111059454Y-174570500D01*
X111240549Y-174570500D01*
X111329977Y-174556335D01*
X111419409Y-174542171D01*
X111591639Y-174486211D01*
X111752994Y-174403996D01*
X111899501Y-174297553D01*
X112027553Y-174169501D01*
X112133996Y-174022994D01*
X112216211Y-173861639D01*
X112272171Y-173689409D01*
X112300500Y-173510546D01*
X112300500Y-173329454D01*
X112300500Y-173329450D01*
X112539500Y-173329450D01*
X112539500Y-173510549D01*
X112567828Y-173689406D01*
X112567829Y-173689409D01*
X112623789Y-173861639D01*
X112706004Y-174022994D01*
X112812447Y-174169501D01*
X112940499Y-174297553D01*
X113087006Y-174403996D01*
X113248361Y-174486211D01*
X113420591Y-174542171D01*
X113492136Y-174553502D01*
X113599451Y-174570500D01*
X113599454Y-174570500D01*
X113780549Y-174570500D01*
X113869977Y-174556335D01*
X113959409Y-174542171D01*
X114131639Y-174486211D01*
X114292994Y-174403996D01*
X114439501Y-174297553D01*
X114567553Y-174169501D01*
X114673996Y-174022994D01*
X114756211Y-173861639D01*
X114812171Y-173689409D01*
X114840500Y-173510546D01*
X114840500Y-173329454D01*
X114840500Y-173329450D01*
X115079500Y-173329450D01*
X115079500Y-173510549D01*
X115107828Y-173689406D01*
X115107829Y-173689409D01*
X115163789Y-173861639D01*
X115246004Y-174022994D01*
X115352447Y-174169501D01*
X115480499Y-174297553D01*
X115627006Y-174403996D01*
X115788361Y-174486211D01*
X115960591Y-174542171D01*
X116032136Y-174553502D01*
X116139451Y-174570500D01*
X116139454Y-174570500D01*
X116320549Y-174570500D01*
X116409977Y-174556335D01*
X116499409Y-174542171D01*
X116671639Y-174486211D01*
X116832994Y-174403996D01*
X116979501Y-174297553D01*
X117107553Y-174169501D01*
X117213996Y-174022994D01*
X117296211Y-173861639D01*
X117352171Y-173689409D01*
X117380500Y-173510546D01*
X117380500Y-173329454D01*
X117380500Y-173329450D01*
X117619500Y-173329450D01*
X117619500Y-173510549D01*
X117647828Y-173689406D01*
X117647829Y-173689409D01*
X117703789Y-173861639D01*
X117786004Y-174022994D01*
X117892447Y-174169501D01*
X118020499Y-174297553D01*
X118167006Y-174403996D01*
X118328361Y-174486211D01*
X118500591Y-174542171D01*
X118572136Y-174553502D01*
X118679451Y-174570500D01*
X118679454Y-174570500D01*
X118860549Y-174570500D01*
X118949977Y-174556335D01*
X119039409Y-174542171D01*
X119211639Y-174486211D01*
X119372994Y-174403996D01*
X119519501Y-174297553D01*
X119647553Y-174169501D01*
X119753996Y-174022994D01*
X119836211Y-173861639D01*
X119892171Y-173689409D01*
X119920500Y-173510546D01*
X119920500Y-173329454D01*
X119920500Y-173329450D01*
X120159500Y-173329450D01*
X120159500Y-173510549D01*
X120187828Y-173689406D01*
X120187829Y-173689409D01*
X120243789Y-173861639D01*
X120326004Y-174022994D01*
X120432447Y-174169501D01*
X120560499Y-174297553D01*
X120707006Y-174403996D01*
X120868361Y-174486211D01*
X121040591Y-174542171D01*
X121112136Y-174553502D01*
X121219451Y-174570500D01*
X121219454Y-174570500D01*
X121400549Y-174570500D01*
X121489977Y-174556335D01*
X121579409Y-174542171D01*
X121751639Y-174486211D01*
X121912994Y-174403996D01*
X122059501Y-174297553D01*
X122187553Y-174169501D01*
X122293996Y-174022994D01*
X122376211Y-173861639D01*
X122432171Y-173689409D01*
X122460500Y-173510546D01*
X122460500Y-173329454D01*
X122460500Y-173329450D01*
X122432171Y-173150593D01*
X122432171Y-173150591D01*
X122376211Y-172978361D01*
X122293996Y-172817006D01*
X122187553Y-172670499D01*
X122059501Y-172542447D01*
X121912994Y-172436004D01*
X121912993Y-172436003D01*
X121912991Y-172436002D01*
X121751637Y-172353788D01*
X121579406Y-172297828D01*
X121400549Y-172269500D01*
X121400546Y-172269500D01*
X121219454Y-172269500D01*
X121219451Y-172269500D01*
X121040593Y-172297828D01*
X120868362Y-172353788D01*
X120707008Y-172436002D01*
X120633752Y-172489225D01*
X120560499Y-172542447D01*
X120432447Y-172670499D01*
X120379225Y-172743752D01*
X120326002Y-172817008D01*
X120243788Y-172978362D01*
X120187828Y-173150593D01*
X120159500Y-173329450D01*
X119920500Y-173329450D01*
X119892171Y-173150593D01*
X119892171Y-173150591D01*
X119836211Y-172978361D01*
X119753996Y-172817006D01*
X119647553Y-172670499D01*
X119519501Y-172542447D01*
X119372994Y-172436004D01*
X119372993Y-172436003D01*
X119372991Y-172436002D01*
X119211637Y-172353788D01*
X119039406Y-172297828D01*
X118860549Y-172269500D01*
X118860546Y-172269500D01*
X118679454Y-172269500D01*
X118679451Y-172269500D01*
X118500593Y-172297828D01*
X118328362Y-172353788D01*
X118167008Y-172436002D01*
X118093752Y-172489225D01*
X118020499Y-172542447D01*
X117892447Y-172670499D01*
X117839225Y-172743752D01*
X117786002Y-172817008D01*
X117703788Y-172978362D01*
X117647828Y-173150593D01*
X117619500Y-173329450D01*
X117380500Y-173329450D01*
X117352171Y-173150593D01*
X117352171Y-173150591D01*
X117296211Y-172978361D01*
X117213996Y-172817006D01*
X117107553Y-172670499D01*
X116979501Y-172542447D01*
X116832994Y-172436004D01*
X116832993Y-172436003D01*
X116832991Y-172436002D01*
X116671637Y-172353788D01*
X116499406Y-172297828D01*
X116320549Y-172269500D01*
X116320546Y-172269500D01*
X116139454Y-172269500D01*
X116139451Y-172269500D01*
X115960593Y-172297828D01*
X115788362Y-172353788D01*
X115627008Y-172436002D01*
X115553752Y-172489225D01*
X115480499Y-172542447D01*
X115352447Y-172670499D01*
X115299225Y-172743752D01*
X115246002Y-172817008D01*
X115163788Y-172978362D01*
X115107828Y-173150593D01*
X115079500Y-173329450D01*
X114840500Y-173329450D01*
X114812171Y-173150593D01*
X114812171Y-173150591D01*
X114756211Y-172978361D01*
X114673996Y-172817006D01*
X114567553Y-172670499D01*
X114439501Y-172542447D01*
X114292994Y-172436004D01*
X114292993Y-172436003D01*
X114292991Y-172436002D01*
X114131637Y-172353788D01*
X113959406Y-172297828D01*
X113780549Y-172269500D01*
X113780546Y-172269500D01*
X113599454Y-172269500D01*
X113599451Y-172269500D01*
X113420593Y-172297828D01*
X113248362Y-172353788D01*
X113087008Y-172436002D01*
X113013752Y-172489225D01*
X112940499Y-172542447D01*
X112812447Y-172670499D01*
X112759225Y-172743752D01*
X112706002Y-172817008D01*
X112623788Y-172978362D01*
X112567828Y-173150593D01*
X112539500Y-173329450D01*
X112300500Y-173329450D01*
X112272171Y-173150593D01*
X112272171Y-173150591D01*
X112216211Y-172978361D01*
X112133996Y-172817006D01*
X112027553Y-172670499D01*
X111899501Y-172542447D01*
X111752994Y-172436004D01*
X111752993Y-172436003D01*
X111752991Y-172436002D01*
X111591637Y-172353788D01*
X111419406Y-172297828D01*
X111240549Y-172269500D01*
X111240546Y-172269500D01*
X111059454Y-172269500D01*
X111059451Y-172269500D01*
X110880593Y-172297828D01*
X110708362Y-172353788D01*
X110547008Y-172436002D01*
X110473752Y-172489225D01*
X110400499Y-172542447D01*
X110272447Y-172670499D01*
X110219225Y-172743752D01*
X110166002Y-172817008D01*
X110083788Y-172978362D01*
X110027828Y-173150593D01*
X109999500Y-173329450D01*
X109760500Y-173329450D01*
X109732171Y-173150593D01*
X109732171Y-173150591D01*
X109676211Y-172978361D01*
X109593996Y-172817006D01*
X109487553Y-172670499D01*
X109359501Y-172542447D01*
X109212994Y-172436004D01*
X109212993Y-172436003D01*
X109212991Y-172436002D01*
X109051637Y-172353788D01*
X108879406Y-172297828D01*
X108700549Y-172269500D01*
X108700546Y-172269500D01*
X108519454Y-172269500D01*
X108519451Y-172269500D01*
X108340593Y-172297828D01*
X108168362Y-172353788D01*
X108007008Y-172436002D01*
X107933752Y-172489225D01*
X107860499Y-172542447D01*
X107732447Y-172670499D01*
X107679225Y-172743752D01*
X107626002Y-172817008D01*
X107543788Y-172978362D01*
X107487828Y-173150593D01*
X107459500Y-173329450D01*
X107220500Y-173329450D01*
X107192171Y-173150593D01*
X107192171Y-173150591D01*
X107136211Y-172978361D01*
X107053996Y-172817006D01*
X106947553Y-172670499D01*
X106819501Y-172542447D01*
X106672994Y-172436004D01*
X106672993Y-172436003D01*
X106672991Y-172436002D01*
X106511637Y-172353788D01*
X106339406Y-172297828D01*
X106160549Y-172269500D01*
X106160546Y-172269500D01*
X105979454Y-172269500D01*
X105979451Y-172269500D01*
X105800593Y-172297828D01*
X105628362Y-172353788D01*
X105467008Y-172436002D01*
X105393752Y-172489225D01*
X105320499Y-172542447D01*
X105192447Y-172670499D01*
X105139225Y-172743752D01*
X105086002Y-172817008D01*
X105003788Y-172978362D01*
X104947828Y-173150593D01*
X104919500Y-173329450D01*
X102500500Y-173329450D01*
X102500500Y-159927525D01*
X109449500Y-159927525D01*
X109449500Y-160072474D01*
X109487017Y-160212489D01*
X109559487Y-160338010D01*
X109559489Y-160338012D01*
X109559491Y-160338015D01*
X109661985Y-160440509D01*
X109661987Y-160440510D01*
X109661989Y-160440512D01*
X109787511Y-160512982D01*
X109787512Y-160512982D01*
X109787515Y-160512984D01*
X109927525Y-160550500D01*
X109927526Y-160550500D01*
X110072474Y-160550500D01*
X110072475Y-160550500D01*
X110212485Y-160512984D01*
X110212487Y-160512982D01*
X110212489Y-160512982D01*
X110338010Y-160440512D01*
X110338010Y-160440511D01*
X110338015Y-160440509D01*
X110440509Y-160338015D01*
X110512984Y-160212485D01*
X110550500Y-160072475D01*
X110550500Y-159927525D01*
X124449500Y-159927525D01*
X124449500Y-160072474D01*
X124487017Y-160212489D01*
X124559487Y-160338010D01*
X124559489Y-160338012D01*
X124559491Y-160338015D01*
X124661985Y-160440509D01*
X124661987Y-160440510D01*
X124661989Y-160440512D01*
X124787511Y-160512982D01*
X124787512Y-160512982D01*
X124787515Y-160512984D01*
X124927525Y-160550500D01*
X124927526Y-160550500D01*
X125072474Y-160550500D01*
X125072475Y-160550500D01*
X125212485Y-160512984D01*
X125212487Y-160512982D01*
X125212489Y-160512982D01*
X125338010Y-160440512D01*
X125338010Y-160440511D01*
X125338015Y-160440509D01*
X125440509Y-160338015D01*
X125512984Y-160212485D01*
X125550500Y-160072475D01*
X125550500Y-159927525D01*
X125512984Y-159787515D01*
X125512982Y-159787512D01*
X125512982Y-159787510D01*
X125440512Y-159661989D01*
X125440510Y-159661987D01*
X125440509Y-159661985D01*
X125338015Y-159559491D01*
X125338012Y-159559489D01*
X125338010Y-159559487D01*
X125212488Y-159487017D01*
X125212489Y-159487017D01*
X125182896Y-159479087D01*
X125072475Y-159449500D01*
X124927525Y-159449500D01*
X124865790Y-159466041D01*
X124787510Y-159487017D01*
X124661989Y-159559487D01*
X124559487Y-159661989D01*
X124487017Y-159787510D01*
X124449500Y-159927525D01*
X110550500Y-159927525D01*
X110512984Y-159787515D01*
X110512982Y-159787512D01*
X110512982Y-159787510D01*
X110440512Y-159661989D01*
X110440510Y-159661987D01*
X110440509Y-159661985D01*
X110338015Y-159559491D01*
X110338012Y-159559489D01*
X110338010Y-159559487D01*
X110212488Y-159487017D01*
X110212489Y-159487017D01*
X110182896Y-159479087D01*
X110072475Y-159449500D01*
X109927525Y-159449500D01*
X109865790Y-159466041D01*
X109787510Y-159487017D01*
X109661989Y-159559487D01*
X109559487Y-159661989D01*
X109487017Y-159787510D01*
X109449500Y-159927525D01*
X102500500Y-159927525D01*
X102500500Y-119927525D01*
X109449500Y-119927525D01*
X109449500Y-120072474D01*
X109487017Y-120212489D01*
X109559487Y-120338010D01*
X109559489Y-120338012D01*
X109559491Y-120338015D01*
X109661985Y-120440509D01*
X109661987Y-120440510D01*
X109661989Y-120440512D01*
X109787511Y-120512982D01*
X109787512Y-120512982D01*
X109787515Y-120512984D01*
X109927525Y-120550500D01*
X109927526Y-120550500D01*
X110072474Y-120550500D01*
X110072475Y-120550500D01*
X110212485Y-120512984D01*
X110212487Y-120512982D01*
X110212489Y-120512982D01*
X110338010Y-120440512D01*
X110338010Y-120440511D01*
X110338015Y-120440509D01*
X110440509Y-120338015D01*
X110512984Y-120212485D01*
X110550500Y-120072475D01*
X110550500Y-119927525D01*
X124449500Y-119927525D01*
X124449500Y-120072474D01*
X124487017Y-120212489D01*
X124559487Y-120338010D01*
X124559489Y-120338012D01*
X124559491Y-120338015D01*
X124661985Y-120440509D01*
X124661987Y-120440510D01*
X124661989Y-120440512D01*
X124787511Y-120512982D01*
X124787512Y-120512982D01*
X124787515Y-120512984D01*
X124927525Y-120550500D01*
X124927526Y-120550500D01*
X125072474Y-120550500D01*
X125072475Y-120550500D01*
X125212485Y-120512984D01*
X125212487Y-120512982D01*
X125212489Y-120512982D01*
X125338010Y-120440512D01*
X125338010Y-120440511D01*
X125338015Y-120440509D01*
X125440509Y-120338015D01*
X125512984Y-120212485D01*
X125550500Y-120072475D01*
X125550500Y-119927525D01*
X125512984Y-119787515D01*
X125512982Y-119787512D01*
X125512982Y-119787510D01*
X125440512Y-119661989D01*
X125440510Y-119661987D01*
X125440509Y-119661985D01*
X125338015Y-119559491D01*
X125338012Y-119559489D01*
X125338010Y-119559487D01*
X125212488Y-119487017D01*
X125212489Y-119487017D01*
X125182896Y-119479087D01*
X125072475Y-119449500D01*
X124927525Y-119449500D01*
X124865790Y-119466041D01*
X124787510Y-119487017D01*
X124661989Y-119559487D01*
X124559487Y-119661989D01*
X124487017Y-119787510D01*
X124449500Y-119927525D01*
X110550500Y-119927525D01*
X110512984Y-119787515D01*
X110512982Y-119787512D01*
X110512982Y-119787510D01*
X110440512Y-119661989D01*
X110440510Y-119661987D01*
X110440509Y-119661985D01*
X110338015Y-119559491D01*
X110338012Y-119559489D01*
X110338010Y-119559487D01*
X110212488Y-119487017D01*
X110212489Y-119487017D01*
X110182896Y-119479087D01*
X110072475Y-119449500D01*
X109927525Y-119449500D01*
X109865790Y-119466041D01*
X109787510Y-119487017D01*
X109661989Y-119559487D01*
X109559487Y-119661989D01*
X109487017Y-119787510D01*
X109449500Y-119927525D01*
X102500500Y-119927525D01*
X102500500Y-105685130D01*
X104919500Y-105685130D01*
X104919500Y-107474860D01*
X104919501Y-107474863D01*
X104922414Y-107499990D01*
X104947756Y-107557385D01*
X104967794Y-107602765D01*
X105047235Y-107682206D01*
X105150009Y-107727585D01*
X105175135Y-107730500D01*
X106964864Y-107730499D01*
X106989991Y-107727585D01*
X107092765Y-107682206D01*
X107172206Y-107602765D01*
X107217585Y-107499991D01*
X107220500Y-107474865D01*
X107220499Y-106489450D01*
X107459500Y-106489450D01*
X107459500Y-106670549D01*
X107487828Y-106849406D01*
X107487829Y-106849409D01*
X107543789Y-107021639D01*
X107626004Y-107182994D01*
X107732447Y-107329501D01*
X107860499Y-107457553D01*
X108007006Y-107563996D01*
X108168361Y-107646211D01*
X108340591Y-107702171D01*
X108412136Y-107713502D01*
X108519451Y-107730500D01*
X108519454Y-107730500D01*
X108700549Y-107730500D01*
X108789977Y-107716335D01*
X108879409Y-107702171D01*
X109051639Y-107646211D01*
X109212994Y-107563996D01*
X109359501Y-107457553D01*
X109487553Y-107329501D01*
X109593996Y-107182994D01*
X109676211Y-107021639D01*
X109732171Y-106849409D01*
X109760500Y-106670546D01*
X109760500Y-106489454D01*
X109760500Y-106489450D01*
X109999500Y-106489450D01*
X109999500Y-106670549D01*
X110027828Y-106849406D01*
X110027829Y-106849409D01*
X110083789Y-107021639D01*
X110166004Y-107182994D01*
X110272447Y-107329501D01*
X110400499Y-107457553D01*
X110547006Y-107563996D01*
X110708361Y-107646211D01*
X110880591Y-107702171D01*
X110952136Y-107713502D01*
X111059451Y-107730500D01*
X111059454Y-107730500D01*
X111240549Y-107730500D01*
X111329977Y-107716335D01*
X111419409Y-107702171D01*
X111591639Y-107646211D01*
X111752994Y-107563996D01*
X111899501Y-107457553D01*
X112027553Y-107329501D01*
X112133996Y-107182994D01*
X112216211Y-107021639D01*
X112272171Y-106849409D01*
X112300500Y-106670546D01*
X112300500Y-106489454D01*
X112300500Y-106489450D01*
X112539500Y-106489450D01*
X112539500Y-106670549D01*
X112567828Y-106849406D01*
X112567829Y-106849409D01*
X112623789Y-107021639D01*
X112706004Y-107182994D01*
X112812447Y-107329501D01*
X112940499Y-107457553D01*
X113087006Y-107563996D01*
X113248361Y-107646211D01*
X113420591Y-107702171D01*
X113492136Y-107713502D01*
X113599451Y-107730500D01*
X113599454Y-107730500D01*
X113780549Y-107730500D01*
X113869977Y-107716335D01*
X113959409Y-107702171D01*
X114131639Y-107646211D01*
X114292994Y-107563996D01*
X114439501Y-107457553D01*
X114567553Y-107329501D01*
X114673996Y-107182994D01*
X114756211Y-107021639D01*
X114812171Y-106849409D01*
X114840500Y-106670546D01*
X114840500Y-106489454D01*
X114840500Y-106489450D01*
X115079500Y-106489450D01*
X115079500Y-106670549D01*
X115107828Y-106849406D01*
X115107829Y-106849409D01*
X115163789Y-107021639D01*
X115246004Y-107182994D01*
X115352447Y-107329501D01*
X115480499Y-107457553D01*
X115627006Y-107563996D01*
X115788361Y-107646211D01*
X115960591Y-107702171D01*
X116032136Y-107713502D01*
X116139451Y-107730500D01*
X116139454Y-107730500D01*
X116320549Y-107730500D01*
X116409977Y-107716335D01*
X116499409Y-107702171D01*
X116671639Y-107646211D01*
X116832994Y-107563996D01*
X116979501Y-107457553D01*
X117107553Y-107329501D01*
X117213996Y-107182994D01*
X117296211Y-107021639D01*
X117352171Y-106849409D01*
X117380500Y-106670546D01*
X117380500Y-106489454D01*
X117380500Y-106489450D01*
X117619500Y-106489450D01*
X117619500Y-106670549D01*
X117647828Y-106849406D01*
X117647829Y-106849409D01*
X117703789Y-107021639D01*
X117786004Y-107182994D01*
X117892447Y-107329501D01*
X118020499Y-107457553D01*
X118167006Y-107563996D01*
X118328361Y-107646211D01*
X118500591Y-107702171D01*
X118572136Y-107713502D01*
X118679451Y-107730500D01*
X118679454Y-107730500D01*
X118860549Y-107730500D01*
X118949977Y-107716335D01*
X119039409Y-107702171D01*
X119211639Y-107646211D01*
X119372994Y-107563996D01*
X119519501Y-107457553D01*
X119647553Y-107329501D01*
X119753996Y-107182994D01*
X119836211Y-107021639D01*
X119892171Y-106849409D01*
X119920500Y-106670546D01*
X119920500Y-106489454D01*
X119920500Y-106489450D01*
X120159500Y-106489450D01*
X120159500Y-106670549D01*
X120187828Y-106849406D01*
X120187829Y-106849409D01*
X120243789Y-107021639D01*
X120326004Y-107182994D01*
X120432447Y-107329501D01*
X120560499Y-107457553D01*
X120707006Y-107563996D01*
X120868361Y-107646211D01*
X121040591Y-107702171D01*
X121112136Y-107713502D01*
X121219451Y-107730500D01*
X121219454Y-107730500D01*
X121400549Y-107730500D01*
X121489977Y-107716335D01*
X121579409Y-107702171D01*
X121751639Y-107646211D01*
X121912994Y-107563996D01*
X122059501Y-107457553D01*
X122187553Y-107329501D01*
X122293996Y-107182994D01*
X122376211Y-107021639D01*
X122432171Y-106849409D01*
X122460500Y-106670546D01*
X122460500Y-106489454D01*
X122460500Y-106489450D01*
X122432171Y-106310593D01*
X122432171Y-106310591D01*
X122376211Y-106138361D01*
X122293996Y-105977006D01*
X122187553Y-105830499D01*
X122059501Y-105702447D01*
X121912994Y-105596004D01*
X121912993Y-105596003D01*
X121912991Y-105596002D01*
X121751637Y-105513788D01*
X121579406Y-105457828D01*
X121400549Y-105429500D01*
X121400546Y-105429500D01*
X121219454Y-105429500D01*
X121219451Y-105429500D01*
X121040593Y-105457828D01*
X120868362Y-105513788D01*
X120707008Y-105596002D01*
X120633752Y-105649225D01*
X120560499Y-105702447D01*
X120432447Y-105830499D01*
X120379225Y-105903752D01*
X120326002Y-105977008D01*
X120243788Y-106138362D01*
X120187828Y-106310593D01*
X120159500Y-106489450D01*
X119920500Y-106489450D01*
X119892171Y-106310593D01*
X119892171Y-106310591D01*
X119836211Y-106138361D01*
X119753996Y-105977006D01*
X119647553Y-105830499D01*
X119519501Y-105702447D01*
X119372994Y-105596004D01*
X119372993Y-105596003D01*
X119372991Y-105596002D01*
X119211637Y-105513788D01*
X119039406Y-105457828D01*
X118860549Y-105429500D01*
X118860546Y-105429500D01*
X118679454Y-105429500D01*
X118679451Y-105429500D01*
X118500593Y-105457828D01*
X118328362Y-105513788D01*
X118167008Y-105596002D01*
X118093752Y-105649225D01*
X118020499Y-105702447D01*
X117892447Y-105830499D01*
X117839225Y-105903752D01*
X117786002Y-105977008D01*
X117703788Y-106138362D01*
X117647828Y-106310593D01*
X117619500Y-106489450D01*
X117380500Y-106489450D01*
X117352171Y-106310593D01*
X117352171Y-106310591D01*
X117296211Y-106138361D01*
X117213996Y-105977006D01*
X117107553Y-105830499D01*
X116979501Y-105702447D01*
X116832994Y-105596004D01*
X116832993Y-105596003D01*
X116832991Y-105596002D01*
X116671637Y-105513788D01*
X116499406Y-105457828D01*
X116320549Y-105429500D01*
X116320546Y-105429500D01*
X116139454Y-105429500D01*
X116139451Y-105429500D01*
X115960593Y-105457828D01*
X115788362Y-105513788D01*
X115627008Y-105596002D01*
X115553752Y-105649225D01*
X115480499Y-105702447D01*
X115352447Y-105830499D01*
X115299225Y-105903752D01*
X115246002Y-105977008D01*
X115163788Y-106138362D01*
X115107828Y-106310593D01*
X115079500Y-106489450D01*
X114840500Y-106489450D01*
X114812171Y-106310593D01*
X114812171Y-106310591D01*
X114756211Y-106138361D01*
X114673996Y-105977006D01*
X114567553Y-105830499D01*
X114439501Y-105702447D01*
X114292994Y-105596004D01*
X114292993Y-105596003D01*
X114292991Y-105596002D01*
X114131637Y-105513788D01*
X113959406Y-105457828D01*
X113780549Y-105429500D01*
X113780546Y-105429500D01*
X113599454Y-105429500D01*
X113599451Y-105429500D01*
X113420593Y-105457828D01*
X113248362Y-105513788D01*
X113087008Y-105596002D01*
X113013752Y-105649225D01*
X112940499Y-105702447D01*
X112812447Y-105830499D01*
X112759225Y-105903752D01*
X112706002Y-105977008D01*
X112623788Y-106138362D01*
X112567828Y-106310593D01*
X112539500Y-106489450D01*
X112300500Y-106489450D01*
X112272171Y-106310593D01*
X112272171Y-106310591D01*
X112216211Y-106138361D01*
X112133996Y-105977006D01*
X112027553Y-105830499D01*
X111899501Y-105702447D01*
X111752994Y-105596004D01*
X111752993Y-105596003D01*
X111752991Y-105596002D01*
X111591637Y-105513788D01*
X111419406Y-105457828D01*
X111240549Y-105429500D01*
X111240546Y-105429500D01*
X111059454Y-105429500D01*
X111059451Y-105429500D01*
X110880593Y-105457828D01*
X110708362Y-105513788D01*
X110547008Y-105596002D01*
X110473752Y-105649225D01*
X110400499Y-105702447D01*
X110272447Y-105830499D01*
X110219225Y-105903752D01*
X110166002Y-105977008D01*
X110083788Y-106138362D01*
X110027828Y-106310593D01*
X109999500Y-106489450D01*
X109760500Y-106489450D01*
X109732171Y-106310593D01*
X109732171Y-106310591D01*
X109676211Y-106138361D01*
X109593996Y-105977006D01*
X109487553Y-105830499D01*
X109359501Y-105702447D01*
X109212994Y-105596004D01*
X109212993Y-105596003D01*
X109212991Y-105596002D01*
X109051637Y-105513788D01*
X108879406Y-105457828D01*
X108700549Y-105429500D01*
X108700546Y-105429500D01*
X108519454Y-105429500D01*
X108519451Y-105429500D01*
X108340593Y-105457828D01*
X108168362Y-105513788D01*
X108007008Y-105596002D01*
X107933752Y-105649225D01*
X107860499Y-105702447D01*
X107732447Y-105830499D01*
X107679225Y-105903752D01*
X107626002Y-105977008D01*
X107543788Y-106138362D01*
X107487828Y-106310593D01*
X107459500Y-106489450D01*
X107220499Y-106489450D01*
X107220499Y-105685136D01*
X107217585Y-105660009D01*
X107172206Y-105557235D01*
X107092765Y-105477794D01*
X106989991Y-105432415D01*
X106989990Y-105432414D01*
X106989988Y-105432414D01*
X106964868Y-105429500D01*
X105175139Y-105429500D01*
X105175136Y-105429501D01*
X105150009Y-105432414D01*
X105047235Y-105477794D01*
X104967794Y-105557235D01*
X104922414Y-105660011D01*
X104919500Y-105685130D01*
X102500500Y-105685130D01*
X102500500Y-103949450D01*
X104919500Y-103949450D01*
X104919500Y-104130549D01*
X104947828Y-104309406D01*
X104947829Y-104309409D01*
X105003789Y-104481639D01*
X105086004Y-104642994D01*
X105192447Y-104789501D01*
X105320499Y-104917553D01*
X105467006Y-105023996D01*
X105628361Y-105106211D01*
X105800591Y-105162171D01*
X105872136Y-105173502D01*
X105979451Y-105190500D01*
X105979454Y-105190500D01*
X106160549Y-105190500D01*
X106249977Y-105176335D01*
X106339409Y-105162171D01*
X106511639Y-105106211D01*
X106672994Y-105023996D01*
X106819501Y-104917553D01*
X106947553Y-104789501D01*
X107053996Y-104642994D01*
X107136211Y-104481639D01*
X107192171Y-104309409D01*
X107220500Y-104130546D01*
X107220500Y-103949454D01*
X107220500Y-103949450D01*
X107459500Y-103949450D01*
X107459500Y-104130549D01*
X107487828Y-104309406D01*
X107487829Y-104309409D01*
X107543789Y-104481639D01*
X107626004Y-104642994D01*
X107732447Y-104789501D01*
X107860499Y-104917553D01*
X108007006Y-105023996D01*
X108168361Y-105106211D01*
X108340591Y-105162171D01*
X108412136Y-105173502D01*
X108519451Y-105190500D01*
X108519454Y-105190500D01*
X108700549Y-105190500D01*
X108789977Y-105176335D01*
X108879409Y-105162171D01*
X109051639Y-105106211D01*
X109212994Y-105023996D01*
X109359501Y-104917553D01*
X109487553Y-104789501D01*
X109593996Y-104642994D01*
X109676211Y-104481639D01*
X109732171Y-104309409D01*
X109760500Y-104130546D01*
X109760500Y-103949454D01*
X109760500Y-103949450D01*
X109999500Y-103949450D01*
X109999500Y-104130549D01*
X110027828Y-104309406D01*
X110027829Y-104309409D01*
X110083789Y-104481639D01*
X110166004Y-104642994D01*
X110272447Y-104789501D01*
X110400499Y-104917553D01*
X110547006Y-105023996D01*
X110708361Y-105106211D01*
X110880591Y-105162171D01*
X110952136Y-105173502D01*
X111059451Y-105190500D01*
X111059454Y-105190500D01*
X111240549Y-105190500D01*
X111329977Y-105176335D01*
X111419409Y-105162171D01*
X111591639Y-105106211D01*
X111752994Y-105023996D01*
X111899501Y-104917553D01*
X112027553Y-104789501D01*
X112133996Y-104642994D01*
X112216211Y-104481639D01*
X112272171Y-104309409D01*
X112300500Y-104130546D01*
X112300500Y-103949454D01*
X112300500Y-103949450D01*
X122699500Y-103949450D01*
X122699500Y-104130549D01*
X122727828Y-104309406D01*
X122727829Y-104309409D01*
X122783789Y-104481639D01*
X122866004Y-104642994D01*
X122972447Y-104789501D01*
X123100499Y-104917553D01*
X123247006Y-105023996D01*
X123408361Y-105106211D01*
X123580591Y-105162171D01*
X123652136Y-105173502D01*
X123759451Y-105190500D01*
X123759454Y-105190500D01*
X123940549Y-105190500D01*
X124029977Y-105176335D01*
X124119409Y-105162171D01*
X124291639Y-105106211D01*
X124452994Y-105023996D01*
X124599501Y-104917553D01*
X124727553Y-104789501D01*
X124833996Y-104642994D01*
X124916211Y-104481639D01*
X124972171Y-104309409D01*
X125000500Y-104130546D01*
X125000500Y-103949454D01*
X125000500Y-103949450D01*
X125239500Y-103949450D01*
X125239500Y-104130549D01*
X125267828Y-104309406D01*
X125267829Y-104309409D01*
X125323789Y-104481639D01*
X125406004Y-104642994D01*
X125512447Y-104789501D01*
X125640499Y-104917553D01*
X125787006Y-105023996D01*
X125948361Y-105106211D01*
X126120591Y-105162171D01*
X126192136Y-105173502D01*
X126299451Y-105190500D01*
X126299454Y-105190500D01*
X126480549Y-105190500D01*
X126569977Y-105176335D01*
X126659409Y-105162171D01*
X126831639Y-105106211D01*
X126992994Y-105023996D01*
X127139501Y-104917553D01*
X127267553Y-104789501D01*
X127373996Y-104642994D01*
X127456211Y-104481639D01*
X127512171Y-104309409D01*
X127540500Y-104130546D01*
X127540500Y-103949454D01*
X127540500Y-103949450D01*
X127779500Y-103949450D01*
X127779500Y-104130549D01*
X127807828Y-104309406D01*
X127807829Y-104309409D01*
X127863789Y-104481639D01*
X127946004Y-104642994D01*
X128052447Y-104789501D01*
X128180499Y-104917553D01*
X128327006Y-105023996D01*
X128488361Y-105106211D01*
X128660591Y-105162171D01*
X128732136Y-105173502D01*
X128839451Y-105190500D01*
X128839454Y-105190500D01*
X129020549Y-105190500D01*
X129109977Y-105176335D01*
X129199409Y-105162171D01*
X129371639Y-105106211D01*
X129532994Y-105023996D01*
X129679501Y-104917553D01*
X129807553Y-104789501D01*
X129913996Y-104642994D01*
X129996211Y-104481639D01*
X130052171Y-104309409D01*
X130080500Y-104130546D01*
X130080500Y-103949454D01*
X130080500Y-103949450D01*
X130052171Y-103770593D01*
X130052171Y-103770591D01*
X129996211Y-103598361D01*
X129913996Y-103437006D01*
X129807553Y-103290499D01*
X129679501Y-103162447D01*
X129532994Y-103056004D01*
X129532993Y-103056003D01*
X129532991Y-103056002D01*
X129371637Y-102973788D01*
X129199406Y-102917828D01*
X129020549Y-102889500D01*
X129020546Y-102889500D01*
X128839454Y-102889500D01*
X128839451Y-102889500D01*
X128660593Y-102917828D01*
X128488362Y-102973788D01*
X128327008Y-103056002D01*
X128253752Y-103109225D01*
X128180499Y-103162447D01*
X128052447Y-103290499D01*
X127999225Y-103363752D01*
X127946002Y-103437008D01*
X127863788Y-103598362D01*
X127807828Y-103770593D01*
X127779500Y-103949450D01*
X127540500Y-103949450D01*
X127512171Y-103770593D01*
X127512171Y-103770591D01*
X127456211Y-103598361D01*
X127373996Y-103437006D01*
X127267553Y-103290499D01*
X127139501Y-103162447D01*
X126992994Y-103056004D01*
X126992993Y-103056003D01*
X126992991Y-103056002D01*
X126831637Y-102973788D01*
X126659406Y-102917828D01*
X126480549Y-102889500D01*
X126480546Y-102889500D01*
X126299454Y-102889500D01*
X126299451Y-102889500D01*
X126120593Y-102917828D01*
X125948362Y-102973788D01*
X125787008Y-103056002D01*
X125713752Y-103109225D01*
X125640499Y-103162447D01*
X125512447Y-103290499D01*
X125459225Y-103363752D01*
X125406002Y-103437008D01*
X125323788Y-103598362D01*
X125267828Y-103770593D01*
X125239500Y-103949450D01*
X125000500Y-103949450D01*
X124972171Y-103770593D01*
X124972171Y-103770591D01*
X124916211Y-103598361D01*
X124833996Y-103437006D01*
X124727553Y-103290499D01*
X124599501Y-103162447D01*
X124452994Y-103056004D01*
X124452993Y-103056003D01*
X124452991Y-103056002D01*
X124291637Y-102973788D01*
X124119406Y-102917828D01*
X123940549Y-102889500D01*
X123940546Y-102889500D01*
X123759454Y-102889500D01*
X123759451Y-102889500D01*
X123580593Y-102917828D01*
X123408362Y-102973788D01*
X123247008Y-103056002D01*
X123173752Y-103109225D01*
X123100499Y-103162447D01*
X122972447Y-103290499D01*
X122919225Y-103363752D01*
X122866002Y-103437008D01*
X122783788Y-103598362D01*
X122727828Y-103770593D01*
X122699500Y-103949450D01*
X112300500Y-103949450D01*
X112272171Y-103770593D01*
X112272171Y-103770591D01*
X112216211Y-103598361D01*
X112133996Y-103437006D01*
X112027553Y-103290499D01*
X111899501Y-103162447D01*
X111752994Y-103056004D01*
X111752993Y-103056003D01*
X111752991Y-103056002D01*
X111591637Y-102973788D01*
X111419406Y-102917828D01*
X111240549Y-102889500D01*
X111240546Y-102889500D01*
X111059454Y-102889500D01*
X111059451Y-102889500D01*
X110880593Y-102917828D01*
X110708362Y-102973788D01*
X110547008Y-103056002D01*
X110473752Y-103109225D01*
X110400499Y-103162447D01*
X110272447Y-103290499D01*
X110219225Y-103363752D01*
X110166002Y-103437008D01*
X110083788Y-103598362D01*
X110027828Y-103770593D01*
X109999500Y-103949450D01*
X109760500Y-103949450D01*
X109732171Y-103770593D01*
X109732171Y-103770591D01*
X109676211Y-103598361D01*
X109593996Y-103437006D01*
X109487553Y-103290499D01*
X109359501Y-103162447D01*
X109212994Y-103056004D01*
X109212993Y-103056003D01*
X109212991Y-103056002D01*
X109051637Y-102973788D01*
X108879406Y-102917828D01*
X108700549Y-102889500D01*
X108700546Y-102889500D01*
X108519454Y-102889500D01*
X108519451Y-102889500D01*
X108340593Y-102917828D01*
X108168362Y-102973788D01*
X108007008Y-103056002D01*
X107933752Y-103109225D01*
X107860499Y-103162447D01*
X107732447Y-103290499D01*
X107679225Y-103363752D01*
X107626002Y-103437008D01*
X107543788Y-103598362D01*
X107487828Y-103770593D01*
X107459500Y-103949450D01*
X107220500Y-103949450D01*
X107192171Y-103770593D01*
X107192171Y-103770591D01*
X107136211Y-103598361D01*
X107053996Y-103437006D01*
X106947553Y-103290499D01*
X106819501Y-103162447D01*
X106672994Y-103056004D01*
X106672993Y-103056003D01*
X106672991Y-103056002D01*
X106511637Y-102973788D01*
X106339406Y-102917828D01*
X106160549Y-102889500D01*
X106160546Y-102889500D01*
X105979454Y-102889500D01*
X105979451Y-102889500D01*
X105800593Y-102917828D01*
X105628362Y-102973788D01*
X105467008Y-103056002D01*
X105393752Y-103109225D01*
X105320499Y-103162447D01*
X105192447Y-103290499D01*
X105139225Y-103363752D01*
X105086002Y-103437008D01*
X105003788Y-103598362D01*
X104947828Y-103770593D01*
X104919500Y-103949450D01*
X102500500Y-103949450D01*
X102500500Y-100599500D01*
X102519407Y-100541309D01*
X102568907Y-100505345D01*
X102599500Y-100500500D01*
X132400500Y-100500500D01*
X132458691Y-100519407D01*
G37*
%TD.AperFunction*%
%TD*%
M02*
