M48
; DRILL file KiCad 10.0.3 date 2026-07-08T12:05:19
; FORMAT={-:-/ absolute / metric / decimal}
; #@! TF.CreationDate,2026-07-08T12:05:19+02:00
; #@! TF.GenerationSoftware,Kicad,Pcbnew,10.0.3
; #@! TF.FileFunction,Plated,1,2,PTH
FMAT,2
METRIC
; #@! TA.AperFunction,Plated,PTH,ViaDrill
T1C0.300
; #@! TA.AperFunction,Plated,PTH,ComponentDrill
T2C1.000
%
G90
G05
T1
X101.5Y-113.0
X101.5Y-133.0
X102.6Y-110.15
X110.0Y-136.5
X114.0Y-125.6
X114.6Y-115.81
X115.3Y-110.15
X116.5Y-121.8
X119.95Y-110.15
X120.3Y-118.975
X120.85Y-112.75
X120.85Y-115.725
X121.0Y-120.925
X121.0Y-124.5
X124.2Y-119.5
X125.8Y-119.5
X127.0Y-136.5
X127.2Y-111.9
X129.0Y-119.625
X129.2Y-114.425
X130.05Y-110.3
X130.1Y-115.725
X131.5Y-117.5
X133.0Y-107.0
X135.4Y-110.3
X136.6Y-124.6
X143.0Y-133.75
X148.5Y-112.0
X148.5Y-133.0
T2
X105.5Y-112.0
X105.5Y-114.54
X105.5Y-117.08
X105.5Y-119.62
X105.5Y-122.16
X108.04Y-112.0
X108.04Y-114.54
X108.04Y-117.08
X108.04Y-119.62
X108.04Y-122.16
X145.5Y-114.0
X145.5Y-116.54
X145.5Y-119.08
X145.5Y-121.62
X145.5Y-124.16
M30
