%TF.GenerationSoftware,KiCad,Pcbnew,10.0.3*%
%TF.CreationDate,2026-07-08T12:05:19+02:00*%
%TF.ProjectId,ad5754r-breakout,61643537-3534-4722-9d62-7265616b6f75,2.0*%
%TF.SameCoordinates,Original*%
%TF.FileFunction,Copper,L1,Top*%
%TF.FilePolarity,Positive*%
%FSLAX46Y46*%
G04 Gerber Fmt 4.6, Leading zero omitted, Abs format (unit mm)*
G04 Created by KiCad (PCBNEW 10.0.3) date 2026-07-08 12:05:19*
%MOMM*%
%LPD*%
G01*
G04 APERTURE LIST*
G04 Aperture macros list*
%AMRoundRect*
0 Rectangle with rounded corners*
0 $1 Rounding radius*
0 $2 $3 $4 $5 $6 $7 $8 $9 X,Y pos of 4 corners*
0 Add a 4 corners polygon primitive as box body*
4,1,4,$2,$3,$4,$5,$6,$7,$8,$9,$2,$3,0*
0 Add four circle primitives for the rounded corners*
1,1,$1+$1,$2,$3*
1,1,$1+$1,$4,$5*
1,1,$1+$1,$6,$7*
1,1,$1+$1,$8,$9*
0 Add four rect primitives between the rounded corners*
20,1,$1+$1,$2,$3,$4,$5,0*
20,1,$1+$1,$4,$5,$6,$7,0*
20,1,$1+$1,$6,$7,$8,$9,0*
20,1,$1+$1,$8,$9,$2,$3,0*%
G04 Aperture macros list end*
%TA.AperFunction,SMDPad,CuDef*%
%ADD10RoundRect,0.100000X-0.675000X-0.100000X0.675000X-0.100000X0.675000X0.100000X-0.675000X0.100000X0*%
%TD*%
%TA.AperFunction,HeatsinkPad*%
%ADD11R,3.200000X5.000000*%
%TD*%
%TA.AperFunction,SMDPad,CuDef*%
%ADD12RoundRect,0.150000X-0.825000X-0.150000X0.825000X-0.150000X0.825000X0.150000X-0.825000X0.150000X0*%
%TD*%
%TA.AperFunction,SMDPad,CuDef*%
%ADD13RoundRect,0.250000X-0.262500X-0.450000X0.262500X-0.450000X0.262500X0.450000X-0.262500X0.450000X0*%
%TD*%
%TA.AperFunction,SMDPad,CuDef*%
%ADD14RoundRect,0.250000X-1.050000X-0.550000X1.050000X-0.550000X1.050000X0.550000X-1.050000X0.550000X0*%
%TD*%
%TA.AperFunction,SMDPad,CuDef*%
%ADD15RoundRect,0.250000X-0.250000X-0.475000X0.250000X-0.475000X0.250000X0.475000X-0.250000X0.475000X0*%
%TD*%
%TA.AperFunction,ComponentPad*%
%ADD16R,1.700000X1.700000*%
%TD*%
%TA.AperFunction,ComponentPad*%
%ADD17C,1.700000*%
%TD*%
%TA.AperFunction,ViaPad*%
%ADD18C,0.500000*%
%TD*%
%TA.AperFunction,Conductor*%
%ADD19C,0.250000*%
%TD*%
%TA.AperFunction,Conductor*%
%ADD20C,0.300000*%
%TD*%
%TA.AperFunction,Conductor*%
%ADD21C,0.400000*%
%TD*%
G04 APERTURE END LIST*
D10*
%TO.P,U1,1*%
%TO.N,-12V*%
X122125000Y-114425000D03*
%TO.P,U1,2*%
%TO.N,N/C*%
X122125000Y-115075000D03*
%TO.P,U1,3*%
%TO.N,/VOUTA*%
X122125000Y-115725000D03*
%TO.P,U1,4*%
%TO.N,/VOUTB*%
X122125000Y-116375000D03*
%TO.P,U1,5*%
%TO.N,+3V3*%
X122125000Y-117025000D03*
%TO.P,U1,6*%
%TO.N,N/C*%
X122125000Y-117675000D03*
%TO.P,U1,7*%
%TO.N,/SYNC*%
X122125000Y-118325000D03*
%TO.P,U1,8*%
%TO.N,/SCLK*%
X122125000Y-118975000D03*
%TO.P,U1,9*%
%TO.N,/SDIN*%
X122125000Y-119625000D03*
%TO.P,U1,10*%
%TO.N,GND*%
X122125000Y-120275000D03*
%TO.P,U1,11*%
%TO.N,Net-(U1-~{CLR})*%
X122125000Y-120925000D03*
%TO.P,U1,12*%
%TO.N,N/C*%
X122125000Y-121575000D03*
%TO.P,U1,13*%
X127875000Y-121575000D03*
%TO.P,U1,14*%
%TO.N,+3V3*%
X127875000Y-120925000D03*
%TO.P,U1,15*%
%TO.N,GND*%
X127875000Y-120275000D03*
%TO.P,U1,16*%
%TO.N,/SDO*%
X127875000Y-119625000D03*
%TO.P,U1,17*%
%TO.N,/VREF*%
X127875000Y-118975000D03*
%TO.P,U1,18*%
%TO.N,GND*%
X127875000Y-118325000D03*
%TO.P,U1,19*%
X127875000Y-117675000D03*
%TO.P,U1,20*%
X127875000Y-117025000D03*
%TO.P,U1,21*%
X127875000Y-116375000D03*
%TO.P,U1,22*%
%TO.N,/VOUTD*%
X127875000Y-115725000D03*
%TO.P,U1,23*%
%TO.N,/VOUTC*%
X127875000Y-115075000D03*
%TO.P,U1,24*%
%TO.N,+12V*%
X127875000Y-114425000D03*
D11*
%TO.P,U1,25*%
%TO.N,-12V*%
X125000000Y-118000000D03*
%TD*%
D12*
%TO.P,U2,1*%
%TO.N,N/C*%
X123525000Y-129095000D03*
%TO.P,U2,2*%
%TO.N,+12V*%
X123525000Y-130365000D03*
%TO.P,U2,3*%
%TO.N,N/C*%
X123525000Y-131635000D03*
%TO.P,U2,4*%
%TO.N,GND*%
X123525000Y-132905000D03*
%TO.P,U2,5*%
%TO.N,N/C*%
X128475000Y-132905000D03*
%TO.P,U2,6*%
X128475000Y-131635000D03*
%TO.P,U2,7*%
X128475000Y-130365000D03*
%TO.P,U2,8*%
%TO.N,/VREF*%
X128475000Y-129095000D03*
%TD*%
D13*
%TO.P,R1,1*%
%TO.N,+3V3*%
X118087500Y-124500000D03*
%TO.P,R1,2*%
%TO.N,Net-(U1-~{CLR})*%
X119912500Y-124500000D03*
%TD*%
%TO.P,R2,1*%
%TO.N,Net-(J2-Pin_2)*%
X140412500Y-116000000D03*
%TO.P,R2,2*%
%TO.N,/VOUTA*%
X138587500Y-116000000D03*
%TD*%
%TO.P,R3,1*%
%TO.N,Net-(J2-Pin_3)*%
X140412500Y-119000000D03*
%TO.P,R3,2*%
%TO.N,/VOUTB*%
X138587500Y-119000000D03*
%TD*%
%TO.P,R4,1*%
%TO.N,Net-(J2-Pin_4)*%
X140412500Y-122000000D03*
%TO.P,R4,2*%
%TO.N,/VOUTC*%
X138587500Y-122000000D03*
%TD*%
%TO.P,R5,1*%
%TO.N,Net-(J2-Pin_5)*%
X140412500Y-125000000D03*
%TO.P,R5,2*%
%TO.N,/VOUTD*%
X138587500Y-125000000D03*
%TD*%
D14*
%TO.P,C1,1*%
%TO.N,+12V*%
X135400000Y-111500000D03*
%TO.P,C1,2*%
%TO.N,GND*%
X139000000Y-111500000D03*
%TD*%
D15*
%TO.P,C2,1*%
%TO.N,+12V*%
X130050000Y-111500000D03*
%TO.P,C2,2*%
%TO.N,GND*%
X131950000Y-111500000D03*
%TD*%
D14*
%TO.P,C3,1*%
%TO.N,GND*%
X111700000Y-111500000D03*
%TO.P,C3,2*%
%TO.N,-12V*%
X115300000Y-111500000D03*
%TD*%
D15*
%TO.P,C4,1*%
%TO.N,GND*%
X118050000Y-111500000D03*
%TO.P,C4,2*%
%TO.N,-12V*%
X119950000Y-111500000D03*
%TD*%
%TO.P,C5,1*%
%TO.N,+3V3*%
X130550000Y-121000000D03*
%TO.P,C5,2*%
%TO.N,GND*%
X132450000Y-121000000D03*
%TD*%
%TO.P,C6,1*%
%TO.N,/VREF*%
X131550000Y-131000000D03*
%TO.P,C6,2*%
%TO.N,GND*%
X133450000Y-131000000D03*
%TD*%
%TO.P,C7,1*%
%TO.N,+12V*%
X119050000Y-131000000D03*
%TO.P,C7,2*%
%TO.N,GND*%
X120950000Y-131000000D03*
%TD*%
D14*
%TO.P,C8,1*%
%TO.N,+12V*%
X112700000Y-131000000D03*
%TO.P,C8,2*%
%TO.N,GND*%
X116300000Y-131000000D03*
%TD*%
D16*
%TO.P,J1,1*%
%TO.N,GND*%
X105500000Y-112000000D03*
D17*
%TO.P,J1,2*%
%TO.N,/SYNC*%
X108040000Y-112000000D03*
%TO.P,J1,3*%
%TO.N,/SDO*%
X105500000Y-114540000D03*
%TO.P,J1,4*%
%TO.N,/SDIN*%
X108040000Y-114540000D03*
%TO.P,J1,5*%
%TO.N,/SCLK*%
X105500000Y-117080000D03*
%TO.P,J1,6*%
%TO.N,GND*%
X108040000Y-117080000D03*
%TO.P,J1,7*%
%TO.N,+3V3*%
X105500000Y-119620000D03*
%TO.P,J1,8*%
%TO.N,GND*%
X108040000Y-119620000D03*
%TO.P,J1,9*%
%TO.N,-12V*%
X105500000Y-122160000D03*
%TO.P,J1,10*%
%TO.N,+12V*%
X108040000Y-122160000D03*
%TD*%
D16*
%TO.P,J2,1*%
%TO.N,GND*%
X145500000Y-114000000D03*
D17*
%TO.P,J2,2*%
%TO.N,Net-(J2-Pin_2)*%
X145500000Y-116540000D03*
%TO.P,J2,3*%
%TO.N,Net-(J2-Pin_3)*%
X145500000Y-119080000D03*
%TO.P,J2,4*%
%TO.N,Net-(J2-Pin_4)*%
X145500000Y-121620000D03*
%TO.P,J2,5*%
%TO.N,Net-(J2-Pin_5)*%
X145500000Y-124160000D03*
%TD*%
D18*
%TO.N,/SCLK*%
X120300000Y-118975000D03*
%TO.N,/SDO*%
X129000000Y-119625000D03*
%TO.N,+3V3*%
X114600000Y-115810000D03*
%TO.N,Net-(U1-~{CLR})*%
X121000000Y-124500000D03*
X121000000Y-120925000D03*
%TO.N,-12V*%
X102600000Y-110150000D03*
X115300000Y-110150000D03*
X119950000Y-110150000D03*
X124200000Y-119500000D03*
X125800000Y-119500000D03*
%TO.N,+12V*%
X143000000Y-133750000D03*
X135400000Y-110300000D03*
X130050000Y-110300000D03*
X129200000Y-114425000D03*
%TO.N,/VOUTA*%
X120850000Y-115725000D03*
X120850000Y-112750000D03*
%TO.N,/VOUTD*%
X130100000Y-115725000D03*
X136600000Y-124600000D03*
%TO.N,GND*%
X101500000Y-113000000D03*
X148500000Y-112000000D03*
X101500000Y-133000000D03*
X148500000Y-133000000D03*
X127000000Y-136500000D03*
X110000000Y-136500000D03*
X133000000Y-107000000D03*
X116500000Y-121800000D03*
X127200000Y-111900000D03*
X131500000Y-117500000D03*
X114000000Y-125600000D03*
%TD*%
%TO.N,/SYNC*%
D19*
X108040000Y-112000000D02*
X108040000Y-112900000D01*
X108040000Y-112900000D02*
X113400000Y-112900000D01*
X113400000Y-112900000D02*
X113400000Y-118325000D01*
X113400000Y-118325000D02*
X122125000Y-118325000D01*
%TO.N,/SDIN*%
X108040000Y-114540000D02*
X111600000Y-114540000D01*
X111600000Y-114540000D02*
X111600000Y-119625000D01*
X111600000Y-119625000D02*
X122125000Y-119625000D01*
%TO.N,/SCLK*%
X120300000Y-118975000D02*
X122125000Y-118975000D01*
%TO.N,/SDO*%
X129000000Y-119625000D02*
X127875000Y-119625000D01*
%TO.N,+3V3*%
D20*
X105500000Y-119620000D02*
X106770000Y-119620000D01*
X106770000Y-119620000D02*
X106770000Y-120950000D01*
X106770000Y-120950000D02*
X112000000Y-120950000D01*
X112000000Y-120950000D02*
X112000000Y-122500000D01*
X112000000Y-122500000D02*
X130550000Y-122500000D01*
X129000000Y-122500000D02*
X129000000Y-120925000D01*
X129000000Y-120925000D02*
X128650000Y-120925000D01*
X130550000Y-122500000D02*
X130550000Y-121725000D01*
X118087500Y-122500000D02*
X118087500Y-124500000D01*
D19*
X114600000Y-115810000D02*
X114600000Y-117025000D01*
X114600000Y-117025000D02*
X122125000Y-117025000D01*
%TO.N,Net-(U1-~{CLR})*%
X119912500Y-124500000D02*
X121000000Y-124500000D01*
X121000000Y-120925000D02*
X122125000Y-120925000D01*
%TO.N,-12V*%
D21*
X105500000Y-122160000D02*
X105500000Y-124400000D01*
X105500000Y-124400000D02*
X102600000Y-124400000D01*
X102600000Y-124400000D02*
X102600000Y-110150000D01*
X115300000Y-110150000D02*
X115300000Y-110900000D01*
X119950000Y-110150000D02*
X119950000Y-110900000D01*
D19*
X122125000Y-114425000D02*
X122125000Y-113850000D01*
X122125000Y-113850000D02*
X126000000Y-113850000D01*
X126000000Y-113850000D02*
X126000000Y-115500000D01*
%TO.N,+12V*%
D21*
X108040000Y-122160000D02*
X108040000Y-131000000D01*
X108040000Y-131000000D02*
X112700000Y-131000000D01*
X112700000Y-131000000D02*
X112700000Y-133750000D01*
X112700000Y-133750000D02*
X143000000Y-133750000D01*
X119050000Y-133750000D02*
X119050000Y-131000000D01*
X119050000Y-131000000D02*
X119050000Y-129300000D01*
X119050000Y-129300000D02*
X121900000Y-129300000D01*
X121900000Y-129300000D02*
X121900000Y-130365000D01*
X121900000Y-130365000D02*
X122550000Y-130365000D01*
X135400000Y-110300000D02*
X135400000Y-110900000D01*
X130050000Y-110300000D02*
X130050000Y-110900000D01*
D19*
X129200000Y-114425000D02*
X128650000Y-114425000D01*
%TO.N,/VREF*%
X128475000Y-129095000D02*
X133400000Y-129095000D01*
X133400000Y-129095000D02*
X133400000Y-118975000D01*
X133400000Y-118975000D02*
X128650000Y-118975000D01*
X131550000Y-129095000D02*
X131550000Y-130275000D01*
%TO.N,/VOUTA*%
X122125000Y-115725000D02*
X120850000Y-115725000D01*
X120850000Y-112750000D02*
X135600000Y-112750000D01*
X135600000Y-112750000D02*
X135600000Y-116000000D01*
X135600000Y-116000000D02*
X138075000Y-116000000D01*
%TO.N,/VOUTB*%
X122125000Y-116375000D02*
X120200000Y-116375000D01*
X120200000Y-116375000D02*
X120200000Y-113350000D01*
X120200000Y-113350000D02*
X134900000Y-113350000D01*
X134900000Y-113350000D02*
X134900000Y-119000000D01*
X134900000Y-119000000D02*
X138075000Y-119000000D01*
%TO.N,/VOUTC*%
X127875000Y-115075000D02*
X134200000Y-115075000D01*
X134200000Y-115075000D02*
X134200000Y-122000000D01*
X134200000Y-122000000D02*
X138075000Y-122000000D01*
%TO.N,/VOUTD*%
X127875000Y-115725000D02*
X130100000Y-115725000D01*
X136600000Y-124600000D02*
X136600000Y-125000000D01*
X136600000Y-125000000D02*
X138075000Y-125000000D01*
%TO.N,Net-(J2-Pin_2)*%
X140412500Y-116000000D02*
X143600000Y-116000000D01*
X143600000Y-116000000D02*
X143600000Y-116540000D01*
X143600000Y-116540000D02*
X145500000Y-116540000D01*
%TO.N,Net-(J2-Pin_3)*%
X140412500Y-119000000D02*
X143600000Y-119000000D01*
X143600000Y-119000000D02*
X143600000Y-119080000D01*
X143600000Y-119080000D02*
X145500000Y-119080000D01*
%TO.N,Net-(J2-Pin_4)*%
X140412500Y-122000000D02*
X143600000Y-122000000D01*
X143600000Y-122000000D02*
X143600000Y-121620000D01*
X143600000Y-121620000D02*
X145500000Y-121620000D01*
%TO.N,Net-(J2-Pin_5)*%
X140412500Y-125000000D02*
X143600000Y-125000000D01*
X143600000Y-125000000D02*
X143600000Y-124160000D01*
X143600000Y-124160000D02*
X145500000Y-124160000D01*
%TO.N,GND*%
X108040000Y-117080000D02*
X108040000Y-119620000D01*
%TD*%
%TA.AperFunction,Conductor*%
%TO.N,GND*%
G36*
X132933691Y-119419407D02*
G01*
X132969655Y-119468907D01*
X132974500Y-119499500D01*
X132974500Y-128570500D01*
X132955593Y-128628691D01*
X132906093Y-128664655D01*
X132875500Y-128669500D01*
X129706557Y-128669500D01*
X129648366Y-128650593D01*
X129626902Y-128629289D01*
X129626461Y-128628691D01*
X129622150Y-128622850D01*
X129622146Y-128622847D01*
X129622144Y-128622845D01*
X129512883Y-128542207D01*
X129384703Y-128497355D01*
X129384694Y-128497353D01*
X129354274Y-128494500D01*
X129354266Y-128494500D01*
X127595734Y-128494500D01*
X127595725Y-128494500D01*
X127565305Y-128497353D01*
X127565296Y-128497355D01*
X127437116Y-128542207D01*
X127327855Y-128622845D01*
X127327845Y-128622855D01*
X127247207Y-128732116D01*
X127202355Y-128860296D01*
X127202353Y-128860305D01*
X127199500Y-128890725D01*
X127199500Y-129299274D01*
X127202353Y-129329694D01*
X127202355Y-129329703D01*
X127247207Y-129457883D01*
X127327845Y-129567144D01*
X127327847Y-129567146D01*
X127327850Y-129567150D01*
X127327853Y-129567152D01*
X127327855Y-129567154D01*
X127440574Y-129650345D01*
X127476167Y-129700113D01*
X127475709Y-129761296D01*
X127440574Y-129809655D01*
X127327855Y-129892845D01*
X127327845Y-129892855D01*
X127247207Y-130002116D01*
X127202355Y-130130296D01*
X127202353Y-130130305D01*
X127199500Y-130160725D01*
X127199500Y-130569274D01*
X127202353Y-130599694D01*
X127202355Y-130599703D01*
X127247207Y-130727883D01*
X127327845Y-130837144D01*
X127327847Y-130837146D01*
X127327850Y-130837150D01*
X127327853Y-130837152D01*
X127327855Y-130837154D01*
X127440574Y-130920345D01*
X127476167Y-130970113D01*
X127475709Y-131031296D01*
X127440574Y-131079655D01*
X127327855Y-131162845D01*
X127327845Y-131162855D01*
X127247207Y-131272116D01*
X127202355Y-131400296D01*
X127202353Y-131400305D01*
X127199500Y-131430725D01*
X127199500Y-131839274D01*
X127202353Y-131869694D01*
X127202355Y-131869703D01*
X127247207Y-131997883D01*
X127327845Y-132107144D01*
X127327847Y-132107146D01*
X127327850Y-132107150D01*
X127327853Y-132107152D01*
X127327855Y-132107154D01*
X127440574Y-132190345D01*
X127476167Y-132240113D01*
X127475709Y-132301296D01*
X127440574Y-132349655D01*
X127327855Y-132432845D01*
X127327845Y-132432855D01*
X127247207Y-132542116D01*
X127202355Y-132670296D01*
X127202353Y-132670305D01*
X127199500Y-132700725D01*
X127199500Y-133109272D01*
X127202500Y-133141254D01*
X127189110Y-133200956D01*
X127143185Y-133241386D01*
X127103933Y-133249500D01*
X119649500Y-133249500D01*
X119591309Y-133230593D01*
X119555345Y-133181093D01*
X119550500Y-133150500D01*
X119550500Y-132025096D01*
X119569407Y-131966905D01*
X119589681Y-131946212D01*
X119594017Y-131942924D01*
X119692922Y-131867922D01*
X119784361Y-131747342D01*
X119839877Y-131606564D01*
X119850500Y-131518102D01*
X119850500Y-130481898D01*
X119839877Y-130393436D01*
X119784361Y-130252658D01*
X119692922Y-130132078D01*
X119690572Y-130130296D01*
X119589680Y-130053786D01*
X119581291Y-130041728D01*
X119569407Y-130033094D01*
X119564256Y-130017241D01*
X119554738Y-130003560D01*
X119550500Y-129974903D01*
X119550500Y-129899500D01*
X119569407Y-129841309D01*
X119618907Y-129805345D01*
X119649500Y-129800500D01*
X121300500Y-129800500D01*
X121358691Y-129819407D01*
X121394655Y-129868907D01*
X121399500Y-129899500D01*
X121399500Y-130299108D01*
X121399500Y-130430892D01*
X121413166Y-130481893D01*
X121433609Y-130558190D01*
X121499496Y-130672309D01*
X121499498Y-130672311D01*
X121499500Y-130672314D01*
X121592686Y-130765500D01*
X121592688Y-130765501D01*
X121592690Y-130765503D01*
X121706810Y-130831390D01*
X121706808Y-130831390D01*
X121706812Y-130831391D01*
X121706814Y-130831392D01*
X121834108Y-130865500D01*
X122383686Y-130865500D01*
X122384055Y-130865620D01*
X122384426Y-130865503D01*
X122413112Y-130875060D01*
X122441877Y-130884407D01*
X122442397Y-130884788D01*
X122487118Y-130917793D01*
X122487119Y-130917793D01*
X122490574Y-130920343D01*
X122526167Y-130970111D01*
X122525709Y-131031295D01*
X122490575Y-131079654D01*
X122377852Y-131162848D01*
X122377845Y-131162855D01*
X122297207Y-131272116D01*
X122252355Y-131400296D01*
X122252353Y-131400305D01*
X122249500Y-131430725D01*
X122249500Y-131839274D01*
X122252353Y-131869694D01*
X122252355Y-131869703D01*
X122297207Y-131997883D01*
X122377845Y-132107144D01*
X122377847Y-132107146D01*
X122377850Y-132107150D01*
X122377853Y-132107152D01*
X122377855Y-132107154D01*
X122487116Y-132187792D01*
X122487117Y-132187792D01*
X122487118Y-132187793D01*
X122615301Y-132232646D01*
X122645725Y-132235499D01*
X122645727Y-132235500D01*
X122645734Y-132235500D01*
X124404273Y-132235500D01*
X124404273Y-132235499D01*
X124434699Y-132232646D01*
X124562882Y-132187793D01*
X124672150Y-132107150D01*
X124752793Y-131997882D01*
X124797646Y-131869699D01*
X124800499Y-131839273D01*
X124800500Y-131839273D01*
X124800500Y-131430727D01*
X124800499Y-131430725D01*
X124797665Y-131400503D01*
X124797646Y-131400301D01*
X124752793Y-131272118D01*
X124672150Y-131162850D01*
X124672146Y-131162847D01*
X124672144Y-131162845D01*
X124559425Y-131079655D01*
X124523832Y-131029888D01*
X124524290Y-130968704D01*
X124559425Y-130920345D01*
X124633737Y-130865500D01*
X124672150Y-130837150D01*
X124752793Y-130727882D01*
X124797646Y-130599699D01*
X124800499Y-130569273D01*
X124800500Y-130569273D01*
X124800500Y-130160727D01*
X124800499Y-130160725D01*
X124797813Y-130132081D01*
X124797646Y-130130301D01*
X124752793Y-130002118D01*
X124746256Y-129993261D01*
X124672154Y-129892855D01*
X124672152Y-129892853D01*
X124672150Y-129892850D01*
X124672146Y-129892847D01*
X124672144Y-129892845D01*
X124559425Y-129809655D01*
X124523832Y-129759888D01*
X124524290Y-129698704D01*
X124559425Y-129650345D01*
X124649500Y-129583866D01*
X124672150Y-129567150D01*
X124752793Y-129457882D01*
X124797646Y-129329699D01*
X124800499Y-129299273D01*
X124800500Y-129299273D01*
X124800500Y-128890727D01*
X124800499Y-128890725D01*
X124797646Y-128860301D01*
X124752793Y-128732118D01*
X124703003Y-128664655D01*
X124672154Y-128622855D01*
X124672151Y-128622852D01*
X124672150Y-128622850D01*
X124672146Y-128622847D01*
X124672144Y-128622845D01*
X124562883Y-128542207D01*
X124434703Y-128497355D01*
X124434694Y-128497353D01*
X124404274Y-128494500D01*
X124404266Y-128494500D01*
X122645734Y-128494500D01*
X122645725Y-128494500D01*
X122615305Y-128497353D01*
X122615296Y-128497355D01*
X122487116Y-128542207D01*
X122377855Y-128622845D01*
X122377845Y-128622855D01*
X122297207Y-128732116D01*
X122272837Y-128801762D01*
X122235772Y-128850442D01*
X122177171Y-128868039D01*
X122129893Y-128854800D01*
X122093189Y-128833609D01*
X122093191Y-128833609D01*
X122043799Y-128820375D01*
X121965892Y-128799500D01*
X119115892Y-128799500D01*
X118984108Y-128799500D01*
X118906200Y-128820375D01*
X118856809Y-128833609D01*
X118742690Y-128899496D01*
X118649496Y-128992690D01*
X118583609Y-129106809D01*
X118549500Y-129234109D01*
X118549500Y-129974903D01*
X118530593Y-130033094D01*
X118510320Y-130053786D01*
X118407082Y-130132074D01*
X118407075Y-130132081D01*
X118315640Y-130252656D01*
X118315637Y-130252660D01*
X118260123Y-130393434D01*
X118249500Y-130481893D01*
X118249500Y-131518106D01*
X118260123Y-131606565D01*
X118315637Y-131747339D01*
X118315638Y-131747341D01*
X118315639Y-131747342D01*
X118407078Y-131867922D01*
X118409421Y-131869699D01*
X118510319Y-131946212D01*
X118545262Y-131996439D01*
X118549500Y-132025096D01*
X118549500Y-133150500D01*
X118530593Y-133208691D01*
X118481093Y-133244655D01*
X118450500Y-133249500D01*
X113299500Y-133249500D01*
X113241309Y-133230593D01*
X113205345Y-133181093D01*
X113200500Y-133150500D01*
X113200500Y-132199500D01*
X113219407Y-132141309D01*
X113268907Y-132105345D01*
X113299500Y-132100500D01*
X113793100Y-132100500D01*
X113793102Y-132100500D01*
X113881564Y-132089877D01*
X114022342Y-132034361D01*
X114142922Y-131942922D01*
X114234361Y-131822342D01*
X114289877Y-131681564D01*
X114300500Y-131593102D01*
X114300500Y-130406898D01*
X114289877Y-130318436D01*
X114234361Y-130177658D01*
X114142922Y-130057078D01*
X114022342Y-129965639D01*
X114022341Y-129965638D01*
X114022339Y-129965637D01*
X113881565Y-129910123D01*
X113793106Y-129899500D01*
X113793102Y-129899500D01*
X111606898Y-129899500D01*
X111606893Y-129899500D01*
X111518434Y-129910123D01*
X111377660Y-129965637D01*
X111377656Y-129965640D01*
X111257081Y-130057075D01*
X111257075Y-130057081D01*
X111165640Y-130177656D01*
X111165637Y-130177660D01*
X111110123Y-130318434D01*
X111099147Y-130409836D01*
X111098221Y-130409724D01*
X111077197Y-130463350D01*
X111025646Y-130496307D01*
X111000706Y-130499500D01*
X108639500Y-130499500D01*
X108581309Y-130480593D01*
X108545345Y-130431093D01*
X108540500Y-130400500D01*
X108540500Y-123256886D01*
X108559407Y-123198695D01*
X108594556Y-123168676D01*
X108642994Y-123143996D01*
X108789501Y-123037553D01*
X108917553Y-122909501D01*
X109023996Y-122762994D01*
X109106211Y-122601639D01*
X109162171Y-122429409D01*
X109190500Y-122250546D01*
X109190500Y-122069454D01*
X109190500Y-122069450D01*
X109162171Y-121890593D01*
X109162171Y-121890591D01*
X109106211Y-121718361D01*
X109023996Y-121557006D01*
X109021965Y-121553692D01*
X109022991Y-121553063D01*
X109005586Y-121499507D01*
X109024489Y-121441315D01*
X109073987Y-121405347D01*
X109104586Y-121400500D01*
X111450500Y-121400500D01*
X111508691Y-121419407D01*
X111544655Y-121468907D01*
X111549500Y-121499500D01*
X111549500Y-122440691D01*
X111549500Y-122559309D01*
X111561474Y-122603996D01*
X111580202Y-122673890D01*
X111639507Y-122776608D01*
X111639509Y-122776610D01*
X111639511Y-122776613D01*
X111723387Y-122860489D01*
X111723389Y-122860490D01*
X111723391Y-122860492D01*
X111826110Y-122919797D01*
X111826111Y-122919797D01*
X111826114Y-122919799D01*
X111940691Y-122950500D01*
X117538000Y-122950500D01*
X117596191Y-122969407D01*
X117632155Y-123018907D01*
X117637000Y-123049500D01*
X117637000Y-123464999D01*
X117618093Y-123523190D01*
X117574320Y-123557096D01*
X117552658Y-123565638D01*
X117432081Y-123657075D01*
X117432075Y-123657081D01*
X117340640Y-123777656D01*
X117340637Y-123777660D01*
X117285123Y-123918434D01*
X117274500Y-124006893D01*
X117274500Y-124993106D01*
X117285123Y-125081565D01*
X117340637Y-125222339D01*
X117340638Y-125222341D01*
X117340639Y-125222342D01*
X117432078Y-125342922D01*
X117552658Y-125434361D01*
X117552659Y-125434361D01*
X117552660Y-125434362D01*
X117610510Y-125457175D01*
X117693436Y-125489877D01*
X117781898Y-125500500D01*
X117781900Y-125500500D01*
X118393100Y-125500500D01*
X118393102Y-125500500D01*
X118481564Y-125489877D01*
X118622342Y-125434361D01*
X118742922Y-125342922D01*
X118834361Y-125222342D01*
X118889877Y-125081564D01*
X118900500Y-124993102D01*
X118900500Y-124006898D01*
X118900499Y-124006893D01*
X119099500Y-124006893D01*
X119099500Y-124993106D01*
X119110123Y-125081565D01*
X119165637Y-125222339D01*
X119165638Y-125222341D01*
X119165639Y-125222342D01*
X119257078Y-125342922D01*
X119377658Y-125434361D01*
X119377659Y-125434361D01*
X119377660Y-125434362D01*
X119435510Y-125457175D01*
X119518436Y-125489877D01*
X119606898Y-125500500D01*
X119606900Y-125500500D01*
X120218100Y-125500500D01*
X120218102Y-125500500D01*
X120306564Y-125489877D01*
X120447342Y-125434361D01*
X120567922Y-125342922D01*
X120659361Y-125222342D01*
X120713876Y-125084100D01*
X120752811Y-125036906D01*
X120812053Y-125021609D01*
X120831591Y-125024794D01*
X120927525Y-125050500D01*
X120927526Y-125050500D01*
X121072474Y-125050500D01*
X121072475Y-125050500D01*
X121212485Y-125012984D01*
X121212487Y-125012982D01*
X121212489Y-125012982D01*
X121338010Y-124940512D01*
X121338010Y-124940511D01*
X121338015Y-124940509D01*
X121440509Y-124838015D01*
X121440512Y-124838010D01*
X121512982Y-124712489D01*
X121512982Y-124712487D01*
X121512984Y-124712485D01*
X121550500Y-124572475D01*
X121550500Y-124427525D01*
X121512984Y-124287515D01*
X121512982Y-124287512D01*
X121512982Y-124287510D01*
X121440512Y-124161989D01*
X121440510Y-124161987D01*
X121440509Y-124161985D01*
X121338015Y-124059491D01*
X121338012Y-124059489D01*
X121338010Y-124059487D01*
X121212488Y-123987017D01*
X121212489Y-123987017D01*
X121182896Y-123979087D01*
X121072475Y-123949500D01*
X120927525Y-123949500D01*
X120899917Y-123956897D01*
X120831595Y-123975204D01*
X120770493Y-123972001D01*
X120722943Y-123933496D01*
X120713879Y-123915907D01*
X120659361Y-123777658D01*
X120648622Y-123763497D01*
X120567924Y-123657081D01*
X120567922Y-123657078D01*
X120447342Y-123565639D01*
X120447341Y-123565638D01*
X120447339Y-123565637D01*
X120306565Y-123510123D01*
X120218106Y-123499500D01*
X120218102Y-123499500D01*
X119606898Y-123499500D01*
X119606893Y-123499500D01*
X119518434Y-123510123D01*
X119377660Y-123565637D01*
X119377656Y-123565640D01*
X119257081Y-123657075D01*
X119257075Y-123657081D01*
X119165640Y-123777656D01*
X119165637Y-123777660D01*
X119110123Y-123918434D01*
X119099500Y-124006893D01*
X118900499Y-124006893D01*
X118889877Y-123918436D01*
X118834361Y-123777658D01*
X118742922Y-123657078D01*
X118728313Y-123646000D01*
X118622341Y-123565638D01*
X118600680Y-123557096D01*
X118553483Y-123518158D01*
X118538000Y-123464999D01*
X118538000Y-123049500D01*
X118556907Y-122991309D01*
X118606407Y-122955345D01*
X118637000Y-122950500D01*
X130609307Y-122950500D01*
X130609309Y-122950500D01*
X130723886Y-122919799D01*
X130723888Y-122919797D01*
X130723890Y-122919797D01*
X130826608Y-122860492D01*
X130826608Y-122860491D01*
X130826613Y-122860489D01*
X130910489Y-122776613D01*
X130941823Y-122722342D01*
X130969797Y-122673890D01*
X130969797Y-122673888D01*
X130969799Y-122673886D01*
X131000500Y-122559309D01*
X131000500Y-122055071D01*
X131019407Y-121996880D01*
X131063185Y-121962972D01*
X131063894Y-121962692D01*
X131072342Y-121959361D01*
X131072343Y-121959360D01*
X131072344Y-121959360D01*
X131143297Y-121905554D01*
X131192922Y-121867922D01*
X131284361Y-121747342D01*
X131339877Y-121606564D01*
X131350500Y-121518102D01*
X131350500Y-120481898D01*
X131339877Y-120393436D01*
X131284361Y-120252658D01*
X131192922Y-120132078D01*
X131072342Y-120040639D01*
X131072341Y-120040638D01*
X131072339Y-120040637D01*
X130931565Y-119985123D01*
X130843106Y-119974500D01*
X130843102Y-119974500D01*
X130256898Y-119974500D01*
X130256893Y-119974500D01*
X130168434Y-119985123D01*
X130027660Y-120040637D01*
X130027656Y-120040640D01*
X129907081Y-120132075D01*
X129907075Y-120132081D01*
X129815640Y-120252656D01*
X129815637Y-120252660D01*
X129760123Y-120393434D01*
X129749500Y-120481893D01*
X129749500Y-121518106D01*
X129760123Y-121606565D01*
X129815637Y-121747339D01*
X129815638Y-121747341D01*
X129815639Y-121747342D01*
X129907078Y-121867922D01*
X129911951Y-121871617D01*
X129946892Y-121921844D01*
X129945637Y-121983017D01*
X129908666Y-122031769D01*
X129852130Y-122049500D01*
X129549500Y-122049500D01*
X129491309Y-122030593D01*
X129455345Y-121981093D01*
X129450500Y-121950500D01*
X129450500Y-120865692D01*
X129446972Y-120852525D01*
X129419799Y-120751114D01*
X129419797Y-120751111D01*
X129419797Y-120751109D01*
X129360492Y-120648391D01*
X129360490Y-120648389D01*
X129360489Y-120648387D01*
X129276613Y-120564511D01*
X129276610Y-120564509D01*
X129276608Y-120564507D01*
X129173889Y-120505202D01*
X129173890Y-120505202D01*
X129146373Y-120497829D01*
X129059309Y-120474500D01*
X129059307Y-120474500D01*
X128768050Y-120474500D01*
X128759578Y-120471747D01*
X128723105Y-120463710D01*
X128709757Y-120456909D01*
X128675304Y-120439354D01*
X128621296Y-120430800D01*
X128581520Y-120424500D01*
X127168478Y-120424500D01*
X127168476Y-120424501D01*
X127074700Y-120439352D01*
X127074697Y-120439353D01*
X127044444Y-120454768D01*
X127036554Y-120456017D01*
X127030092Y-120460713D01*
X127006906Y-120460713D01*
X126984011Y-120464339D01*
X126976895Y-120460713D01*
X126968906Y-120460713D01*
X126950148Y-120447084D01*
X126929495Y-120436561D01*
X126925869Y-120429444D01*
X126919406Y-120424749D01*
X126912241Y-120402697D01*
X126901718Y-120382044D01*
X126900499Y-120366566D01*
X126900499Y-120183439D01*
X126919406Y-120125250D01*
X126968906Y-120089286D01*
X127030092Y-120089286D01*
X127044442Y-120095230D01*
X127074696Y-120110646D01*
X127168481Y-120125500D01*
X128581518Y-120125499D01*
X128581520Y-120125499D01*
X128657687Y-120113436D01*
X128675304Y-120110646D01*
X128675304Y-120110645D01*
X128683000Y-120109427D01*
X128683214Y-120110783D01*
X128688747Y-120110782D01*
X128701773Y-120106004D01*
X128718586Y-120110778D01*
X128736061Y-120110777D01*
X128754978Y-120119198D01*
X128757324Y-120120553D01*
X128787511Y-120137982D01*
X128787512Y-120137982D01*
X128787515Y-120137984D01*
X128927525Y-120175500D01*
X128927526Y-120175500D01*
X129072474Y-120175500D01*
X129072475Y-120175500D01*
X129212485Y-120137984D01*
X129212487Y-120137982D01*
X129212489Y-120137982D01*
X129338010Y-120065512D01*
X129338010Y-120065511D01*
X129338015Y-120065509D01*
X129440509Y-119963015D01*
X129440512Y-119963010D01*
X129512982Y-119837489D01*
X129512982Y-119837487D01*
X129512984Y-119837485D01*
X129550500Y-119697475D01*
X129550500Y-119552525D01*
X129543158Y-119525124D01*
X129546359Y-119464023D01*
X129584864Y-119416472D01*
X129638784Y-119400500D01*
X132875500Y-119400500D01*
X132933691Y-119419407D01*
G37*
%TD.AperFunction*%
%TA.AperFunction,Conductor*%
G36*
X133733691Y-115519407D02*
G01*
X133769655Y-115568907D01*
X133774500Y-115599500D01*
X133774500Y-118528419D01*
X133755593Y-118586610D01*
X133706093Y-118622574D01*
X133644907Y-118622574D01*
X133626000Y-118614156D01*
X133564238Y-118578497D01*
X133528164Y-118568831D01*
X133456018Y-118549500D01*
X133456016Y-118549500D01*
X128817114Y-118549500D01*
X128772168Y-118538709D01*
X128724339Y-118514339D01*
X128675304Y-118489354D01*
X128675305Y-118489354D01*
X128581521Y-118474500D01*
X127168478Y-118474500D01*
X127168476Y-118474501D01*
X127074700Y-118489352D01*
X127074697Y-118489353D01*
X127044444Y-118504768D01*
X126984011Y-118514339D01*
X126929495Y-118486561D01*
X126901718Y-118432044D01*
X126900499Y-118416558D01*
X126900499Y-116283441D01*
X126919406Y-116225250D01*
X126968906Y-116189286D01*
X127030092Y-116189286D01*
X127044442Y-116195230D01*
X127074696Y-116210646D01*
X127168481Y-116225500D01*
X128581518Y-116225499D01*
X128581521Y-116225499D01*
X128581522Y-116225498D01*
X128628411Y-116218072D01*
X128675299Y-116210647D01*
X128675299Y-116210646D01*
X128675304Y-116210646D01*
X128772168Y-116161290D01*
X128817114Y-116150500D01*
X129709461Y-116150500D01*
X129758961Y-116163764D01*
X129887511Y-116237982D01*
X129887512Y-116237982D01*
X129887515Y-116237984D01*
X130027525Y-116275500D01*
X130027526Y-116275500D01*
X130172474Y-116275500D01*
X130172475Y-116275500D01*
X130312485Y-116237984D01*
X130312487Y-116237982D01*
X130312489Y-116237982D01*
X130438010Y-116165512D01*
X130438010Y-116165511D01*
X130438015Y-116165509D01*
X130540509Y-116063015D01*
X130568930Y-116013788D01*
X130612982Y-115937489D01*
X130612982Y-115937487D01*
X130612984Y-115937485D01*
X130650500Y-115797475D01*
X130650500Y-115652525D01*
X130643158Y-115625124D01*
X130646359Y-115564023D01*
X130684864Y-115516472D01*
X130738784Y-115500500D01*
X133675500Y-115500500D01*
X133733691Y-115519407D01*
G37*
%TD.AperFunction*%
%TA.AperFunction,Conductor*%
G36*
X149458691Y-105519407D02*
G01*
X149494655Y-105568907D01*
X149499500Y-105599500D01*
X149499500Y-139400500D01*
X149480593Y-139458691D01*
X149431093Y-139494655D01*
X149400500Y-139499500D01*
X100599500Y-139499500D01*
X100541309Y-139480593D01*
X100505345Y-139431093D01*
X100500500Y-139400500D01*
X100500500Y-110077525D01*
X102049500Y-110077525D01*
X102049500Y-110222475D01*
X102087016Y-110362485D01*
X102087018Y-110362490D01*
X102089500Y-110368480D01*
X102088333Y-110368963D01*
X102099500Y-110410634D01*
X102099500Y-124465892D01*
X102117667Y-124533691D01*
X102133609Y-124593190D01*
X102199496Y-124707309D01*
X102199498Y-124707311D01*
X102199500Y-124707314D01*
X102292686Y-124800500D01*
X102292688Y-124800501D01*
X102292690Y-124800503D01*
X102406810Y-124866390D01*
X102406808Y-124866390D01*
X102406812Y-124866391D01*
X102406814Y-124866392D01*
X102534108Y-124900500D01*
X102534110Y-124900500D01*
X105565890Y-124900500D01*
X105565892Y-124900500D01*
X105693186Y-124866392D01*
X105693188Y-124866390D01*
X105693190Y-124866390D01*
X105807309Y-124800503D01*
X105807309Y-124800502D01*
X105807314Y-124800500D01*
X105900500Y-124707314D01*
X105913672Y-124684500D01*
X105966390Y-124593190D01*
X105966390Y-124593188D01*
X105966392Y-124593186D01*
X106000500Y-124465892D01*
X106000500Y-123256886D01*
X106019407Y-123198695D01*
X106054556Y-123168676D01*
X106102994Y-123143996D01*
X106249501Y-123037553D01*
X106377553Y-122909501D01*
X106483996Y-122762994D01*
X106566211Y-122601639D01*
X106622171Y-122429409D01*
X106650500Y-122250546D01*
X106650500Y-122069454D01*
X106650500Y-122069450D01*
X106622171Y-121890593D01*
X106622171Y-121890591D01*
X106566211Y-121718361D01*
X106483996Y-121557006D01*
X106442456Y-121499831D01*
X106423550Y-121441642D01*
X106442457Y-121383451D01*
X106491957Y-121347487D01*
X106553143Y-121347487D01*
X106572050Y-121355905D01*
X106596114Y-121369799D01*
X106710691Y-121400500D01*
X106975414Y-121400500D01*
X107033605Y-121419407D01*
X107069569Y-121468907D01*
X107069569Y-121530093D01*
X107057660Y-121553462D01*
X107058035Y-121553692D01*
X107056003Y-121557006D01*
X106973788Y-121718362D01*
X106917828Y-121890593D01*
X106889500Y-122069450D01*
X106889500Y-122250549D01*
X106917828Y-122429406D01*
X106973788Y-122601637D01*
X107035290Y-122722342D01*
X107056004Y-122762994D01*
X107162447Y-122909501D01*
X107290499Y-123037553D01*
X107437006Y-123143996D01*
X107437010Y-123143998D01*
X107485444Y-123168676D01*
X107528709Y-123211940D01*
X107539500Y-123256886D01*
X107539500Y-130934108D01*
X107539500Y-131065892D01*
X107543188Y-131079655D01*
X107573609Y-131193190D01*
X107639496Y-131307309D01*
X107639498Y-131307311D01*
X107639500Y-131307314D01*
X107732686Y-131400500D01*
X107732688Y-131400501D01*
X107732690Y-131400503D01*
X107846810Y-131466390D01*
X107846808Y-131466390D01*
X107846812Y-131466391D01*
X107846814Y-131466392D01*
X107974108Y-131500500D01*
X111000706Y-131500500D01*
X111058897Y-131519407D01*
X111094861Y-131568907D01*
X111098884Y-131590195D01*
X111099147Y-131590164D01*
X111110123Y-131681565D01*
X111165637Y-131822339D01*
X111165638Y-131822341D01*
X111165639Y-131822342D01*
X111257078Y-131942922D01*
X111377658Y-132034361D01*
X111377659Y-132034361D01*
X111377660Y-132034362D01*
X111448047Y-132062119D01*
X111518436Y-132089877D01*
X111606898Y-132100500D01*
X112100500Y-132100500D01*
X112158691Y-132119407D01*
X112194655Y-132168907D01*
X112199500Y-132199500D01*
X112199500Y-133684108D01*
X112199500Y-133815892D01*
X112201264Y-133822474D01*
X112233609Y-133943190D01*
X112299496Y-134057309D01*
X112299498Y-134057311D01*
X112299500Y-134057314D01*
X112392686Y-134150500D01*
X112392688Y-134150501D01*
X112392690Y-134150503D01*
X112506810Y-134216390D01*
X112506808Y-134216390D01*
X112506812Y-134216391D01*
X112506814Y-134216392D01*
X112634108Y-134250500D01*
X118984108Y-134250500D01*
X119115892Y-134250500D01*
X142739365Y-134250500D01*
X142781038Y-134261665D01*
X142781521Y-134260501D01*
X142787513Y-134262983D01*
X142787515Y-134262984D01*
X142927525Y-134300500D01*
X142927526Y-134300500D01*
X143072474Y-134300500D01*
X143072475Y-134300500D01*
X143212485Y-134262984D01*
X143212487Y-134262982D01*
X143212489Y-134262982D01*
X143338010Y-134190512D01*
X143338010Y-134190511D01*
X143338015Y-134190509D01*
X143440509Y-134088015D01*
X143512984Y-133962485D01*
X143550500Y-133822475D01*
X143550500Y-133677525D01*
X143512984Y-133537515D01*
X143512982Y-133537512D01*
X143512982Y-133537510D01*
X143440512Y-133411989D01*
X143440510Y-133411987D01*
X143440509Y-133411985D01*
X143338015Y-133309491D01*
X143338012Y-133309489D01*
X143338010Y-133309487D01*
X143212488Y-133237017D01*
X143212489Y-133237017D01*
X143182896Y-133229087D01*
X143072475Y-133199500D01*
X142927525Y-133199500D01*
X142893224Y-133208691D01*
X142787513Y-133237016D01*
X142781521Y-133239499D01*
X142781038Y-133238334D01*
X142739365Y-133249500D01*
X129846067Y-133249500D01*
X129787876Y-133230593D01*
X129751912Y-133181093D01*
X129747500Y-133141254D01*
X129750500Y-133109272D01*
X129750500Y-132700727D01*
X129750499Y-132700725D01*
X129747646Y-132670305D01*
X129747646Y-132670301D01*
X129702793Y-132542118D01*
X129622150Y-132432850D01*
X129622146Y-132432847D01*
X129622144Y-132432845D01*
X129509425Y-132349655D01*
X129473832Y-132299888D01*
X129474290Y-132238704D01*
X129509425Y-132190345D01*
X129605542Y-132119407D01*
X129622150Y-132107150D01*
X129702793Y-131997882D01*
X129747646Y-131869699D01*
X129750499Y-131839273D01*
X129750500Y-131839273D01*
X129750500Y-131430727D01*
X129750499Y-131430725D01*
X129747665Y-131400503D01*
X129747646Y-131400301D01*
X129702793Y-131272118D01*
X129622150Y-131162850D01*
X129622146Y-131162847D01*
X129622144Y-131162845D01*
X129509425Y-131079655D01*
X129473832Y-131029888D01*
X129474290Y-130968704D01*
X129509425Y-130920345D01*
X129583737Y-130865500D01*
X129622150Y-130837150D01*
X129702793Y-130727882D01*
X129747646Y-130599699D01*
X129750499Y-130569273D01*
X129750500Y-130569273D01*
X129750500Y-130160727D01*
X129750499Y-130160725D01*
X129747813Y-130132081D01*
X129747646Y-130130301D01*
X129702793Y-130002118D01*
X129696256Y-129993261D01*
X129622154Y-129892855D01*
X129622152Y-129892853D01*
X129622150Y-129892850D01*
X129622146Y-129892847D01*
X129622144Y-129892845D01*
X129509425Y-129809655D01*
X129493079Y-129786800D01*
X129475553Y-129764857D01*
X129475427Y-129762119D01*
X129473832Y-129759888D01*
X129474042Y-129731796D01*
X129472760Y-129703736D01*
X129474268Y-129701538D01*
X129474290Y-129698704D01*
X129506428Y-129652646D01*
X129512209Y-129648028D01*
X129512882Y-129647793D01*
X129622150Y-129567150D01*
X129634617Y-129550256D01*
X129644772Y-129542146D01*
X129661840Y-129535725D01*
X129676671Y-129525119D01*
X129699353Y-129521613D01*
X129702039Y-129520603D01*
X129703424Y-129520984D01*
X129706557Y-129520500D01*
X131025500Y-129520500D01*
X131083691Y-129539407D01*
X131119655Y-129588907D01*
X131124500Y-129619500D01*
X131124500Y-129935070D01*
X131105593Y-129993261D01*
X131061819Y-130027167D01*
X131027659Y-130040637D01*
X130907081Y-130132075D01*
X130907075Y-130132081D01*
X130815640Y-130252656D01*
X130815637Y-130252660D01*
X130760123Y-130393434D01*
X130749500Y-130481893D01*
X130749500Y-131518106D01*
X130760123Y-131606565D01*
X130815637Y-131747339D01*
X130815638Y-131747341D01*
X130815639Y-131747342D01*
X130907078Y-131867922D01*
X131027658Y-131959361D01*
X131027659Y-131959361D01*
X131027660Y-131959362D01*
X131046788Y-131966905D01*
X131168436Y-132014877D01*
X131256898Y-132025500D01*
X131256900Y-132025500D01*
X131843100Y-132025500D01*
X131843102Y-132025500D01*
X131931564Y-132014877D01*
X132072342Y-131959361D01*
X132192922Y-131867922D01*
X132284361Y-131747342D01*
X132339877Y-131606564D01*
X132350500Y-131518102D01*
X132350500Y-130481898D01*
X132339877Y-130393436D01*
X132284361Y-130252658D01*
X132192922Y-130132078D01*
X132094024Y-130057081D01*
X132072340Y-130040637D01*
X132038181Y-130027167D01*
X131990984Y-129988231D01*
X131975500Y-129935070D01*
X131975500Y-129619500D01*
X131994407Y-129561309D01*
X132043907Y-129525345D01*
X132074500Y-129520500D01*
X133456016Y-129520500D01*
X133456018Y-129520500D01*
X133564237Y-129491503D01*
X133564239Y-129491501D01*
X133564241Y-129491501D01*
X133593064Y-129474859D01*
X133661263Y-129435485D01*
X133740485Y-129356263D01*
X133796503Y-129259237D01*
X133825500Y-129151018D01*
X133825500Y-124527525D01*
X136049500Y-124527525D01*
X136049500Y-124672474D01*
X136087017Y-124812489D01*
X136161236Y-124941038D01*
X136174500Y-124990538D01*
X136174500Y-125056018D01*
X136198074Y-125143997D01*
X136203498Y-125164241D01*
X136259513Y-125261260D01*
X136259515Y-125261263D01*
X136338737Y-125340485D01*
X136371079Y-125359157D01*
X136435759Y-125396501D01*
X136435757Y-125396501D01*
X136435761Y-125396502D01*
X136435763Y-125396503D01*
X136543982Y-125425500D01*
X137678559Y-125425500D01*
X137736750Y-125444407D01*
X137772714Y-125493907D01*
X137776853Y-125512696D01*
X137785123Y-125581566D01*
X137840637Y-125722339D01*
X137840638Y-125722341D01*
X137840639Y-125722342D01*
X137932078Y-125842922D01*
X138052658Y-125934361D01*
X138052659Y-125934361D01*
X138052660Y-125934362D01*
X138123047Y-125962119D01*
X138193436Y-125989877D01*
X138281898Y-126000500D01*
X138281900Y-126000500D01*
X138893100Y-126000500D01*
X138893102Y-126000500D01*
X138981564Y-125989877D01*
X139122342Y-125934361D01*
X139242922Y-125842922D01*
X139334361Y-125722342D01*
X139389877Y-125581564D01*
X139400500Y-125493102D01*
X139400500Y-124506898D01*
X139400499Y-124506893D01*
X139599500Y-124506893D01*
X139599500Y-125493106D01*
X139610123Y-125581565D01*
X139665637Y-125722339D01*
X139665638Y-125722341D01*
X139665639Y-125722342D01*
X139757078Y-125842922D01*
X139877658Y-125934361D01*
X139877659Y-125934361D01*
X139877660Y-125934362D01*
X139948047Y-125962119D01*
X140018436Y-125989877D01*
X140106898Y-126000500D01*
X140106900Y-126000500D01*
X140718100Y-126000500D01*
X140718102Y-126000500D01*
X140806564Y-125989877D01*
X140947342Y-125934361D01*
X141067922Y-125842922D01*
X141159361Y-125722342D01*
X141214877Y-125581564D01*
X141223147Y-125512695D01*
X141248858Y-125457175D01*
X141302293Y-125427369D01*
X141321441Y-125425500D01*
X143656016Y-125425500D01*
X143656018Y-125425500D01*
X143764237Y-125396503D01*
X143764239Y-125396501D01*
X143764241Y-125396501D01*
X143793064Y-125379859D01*
X143861263Y-125340485D01*
X143940485Y-125261263D01*
X143996503Y-125164237D01*
X144025500Y-125056018D01*
X144025500Y-124684500D01*
X144044407Y-124626309D01*
X144093907Y-124590345D01*
X144124500Y-124585500D01*
X144364899Y-124585500D01*
X144423090Y-124604407D01*
X144453107Y-124639552D01*
X144516004Y-124762994D01*
X144622447Y-124909501D01*
X144750499Y-125037553D01*
X144897006Y-125143996D01*
X145058361Y-125226211D01*
X145230591Y-125282171D01*
X145302136Y-125293502D01*
X145409451Y-125310500D01*
X145409454Y-125310500D01*
X145590549Y-125310500D01*
X145679977Y-125296335D01*
X145769409Y-125282171D01*
X145941639Y-125226211D01*
X146102994Y-125143996D01*
X146249501Y-125037553D01*
X146377553Y-124909501D01*
X146483996Y-124762994D01*
X146566211Y-124601639D01*
X146622171Y-124429409D01*
X146646206Y-124277658D01*
X146650500Y-124250549D01*
X146650500Y-124069450D01*
X146623582Y-123899500D01*
X146622171Y-123890591D01*
X146566211Y-123718361D01*
X146483996Y-123557006D01*
X146377553Y-123410499D01*
X146249501Y-123282447D01*
X146102994Y-123176004D01*
X146102993Y-123176003D01*
X146102991Y-123176002D01*
X145941637Y-123093788D01*
X145769406Y-123037828D01*
X145590549Y-123009500D01*
X145590546Y-123009500D01*
X145409454Y-123009500D01*
X145409451Y-123009500D01*
X145230593Y-123037828D01*
X145058362Y-123093788D01*
X144897008Y-123176002D01*
X144869182Y-123196219D01*
X144750499Y-123282447D01*
X144622447Y-123410499D01*
X144582851Y-123464999D01*
X144516002Y-123557008D01*
X144479529Y-123628590D01*
X144453107Y-123680446D01*
X144409844Y-123723710D01*
X144364899Y-123734500D01*
X143656018Y-123734500D01*
X143543982Y-123734500D01*
X143477748Y-123752247D01*
X143435758Y-123763498D01*
X143338739Y-123819513D01*
X143259513Y-123898739D01*
X143203498Y-123995758D01*
X143174500Y-124103983D01*
X143174500Y-124475500D01*
X143155593Y-124533691D01*
X143106093Y-124569655D01*
X143075500Y-124574500D01*
X141321441Y-124574500D01*
X141263250Y-124555593D01*
X141227286Y-124506093D01*
X141223147Y-124487304D01*
X141214877Y-124418436D01*
X141159361Y-124277658D01*
X141067922Y-124157078D01*
X140947342Y-124065639D01*
X140947341Y-124065638D01*
X140947339Y-124065637D01*
X140806565Y-124010123D01*
X140718106Y-123999500D01*
X140718102Y-123999500D01*
X140106898Y-123999500D01*
X140106893Y-123999500D01*
X140018434Y-124010123D01*
X139877660Y-124065637D01*
X139877656Y-124065640D01*
X139757081Y-124157075D01*
X139757075Y-124157081D01*
X139665640Y-124277656D01*
X139665637Y-124277660D01*
X139610123Y-124418434D01*
X139599500Y-124506893D01*
X139400499Y-124506893D01*
X139389877Y-124418436D01*
X139334361Y-124277658D01*
X139242922Y-124157078D01*
X139122342Y-124065639D01*
X139122341Y-124065638D01*
X139122339Y-124065637D01*
X138981565Y-124010123D01*
X138893106Y-123999500D01*
X138893102Y-123999500D01*
X138281898Y-123999500D01*
X138281893Y-123999500D01*
X138193434Y-124010123D01*
X138052660Y-124065637D01*
X138052656Y-124065640D01*
X137932081Y-124157075D01*
X137932075Y-124157081D01*
X137840640Y-124277656D01*
X137840637Y-124277660D01*
X137785123Y-124418433D01*
X137776853Y-124487304D01*
X137751142Y-124542825D01*
X137697707Y-124572631D01*
X137678559Y-124574500D01*
X137239052Y-124574500D01*
X137180861Y-124555593D01*
X137144897Y-124506093D01*
X137143430Y-124501141D01*
X137112984Y-124387515D01*
X137112982Y-124387512D01*
X137112982Y-124387510D01*
X137040512Y-124261989D01*
X137040510Y-124261987D01*
X137040509Y-124261985D01*
X136938015Y-124159491D01*
X136938012Y-124159489D01*
X136938010Y-124159487D01*
X136812488Y-124087017D01*
X136812489Y-124087017D01*
X136746943Y-124069454D01*
X136672475Y-124049500D01*
X136527525Y-124049500D01*
X136490239Y-124059491D01*
X136387510Y-124087017D01*
X136261989Y-124159487D01*
X136159487Y-124261989D01*
X136087017Y-124387510D01*
X136049500Y-124527525D01*
X133825500Y-124527525D01*
X133825500Y-122446580D01*
X133844407Y-122388389D01*
X133893907Y-122352425D01*
X133955093Y-122352425D01*
X133973995Y-122360841D01*
X134035763Y-122396503D01*
X134143982Y-122425500D01*
X137678559Y-122425500D01*
X137736750Y-122444407D01*
X137772714Y-122493907D01*
X137776853Y-122512696D01*
X137785123Y-122581566D01*
X137840637Y-122722339D01*
X137840638Y-122722341D01*
X137840639Y-122722342D01*
X137932078Y-122842922D01*
X138052658Y-122934361D01*
X138052659Y-122934361D01*
X138052660Y-122934362D01*
X138093583Y-122950500D01*
X138193436Y-122989877D01*
X138281898Y-123000500D01*
X138281900Y-123000500D01*
X138893100Y-123000500D01*
X138893102Y-123000500D01*
X138981564Y-122989877D01*
X139122342Y-122934361D01*
X139242922Y-122842922D01*
X139334361Y-122722342D01*
X139389877Y-122581564D01*
X139400500Y-122493102D01*
X139400500Y-121506898D01*
X139400499Y-121506893D01*
X139599500Y-121506893D01*
X139599500Y-122493106D01*
X139610123Y-122581565D01*
X139665637Y-122722339D01*
X139665638Y-122722341D01*
X139665639Y-122722342D01*
X139757078Y-122842922D01*
X139877658Y-122934361D01*
X139877659Y-122934361D01*
X139877660Y-122934362D01*
X139918583Y-122950500D01*
X140018436Y-122989877D01*
X140106898Y-123000500D01*
X140106900Y-123000500D01*
X140718100Y-123000500D01*
X140718102Y-123000500D01*
X140806564Y-122989877D01*
X140947342Y-122934361D01*
X141067922Y-122842922D01*
X141159361Y-122722342D01*
X141214877Y-122581564D01*
X141223147Y-122512695D01*
X141248858Y-122457175D01*
X141302293Y-122427369D01*
X141321441Y-122425500D01*
X143656016Y-122425500D01*
X143656018Y-122425500D01*
X143764237Y-122396503D01*
X143764239Y-122396501D01*
X143764241Y-122396501D01*
X143811004Y-122369502D01*
X143861263Y-122340485D01*
X143940485Y-122261263D01*
X143996503Y-122164237D01*
X144008657Y-122118875D01*
X144041982Y-122067562D01*
X144099103Y-122045636D01*
X144104284Y-122045500D01*
X144364899Y-122045500D01*
X144423090Y-122064407D01*
X144453107Y-122099552D01*
X144462953Y-122118876D01*
X144505483Y-122202347D01*
X144516004Y-122222994D01*
X144622447Y-122369501D01*
X144750499Y-122497553D01*
X144897006Y-122603996D01*
X145058361Y-122686211D01*
X145230591Y-122742171D01*
X145302136Y-122753502D01*
X145409451Y-122770500D01*
X145409454Y-122770500D01*
X145590549Y-122770500D01*
X145679977Y-122756335D01*
X145769409Y-122742171D01*
X145941639Y-122686211D01*
X146102994Y-122603996D01*
X146249501Y-122497553D01*
X146377553Y-122369501D01*
X146483996Y-122222994D01*
X146566211Y-122061639D01*
X146622171Y-121889409D01*
X146644673Y-121747339D01*
X146650500Y-121710549D01*
X146650500Y-121529450D01*
X146624534Y-121365509D01*
X146622171Y-121350591D01*
X146566211Y-121178361D01*
X146483996Y-121017006D01*
X146377553Y-120870499D01*
X146249501Y-120742447D01*
X146102994Y-120636004D01*
X146102993Y-120636003D01*
X146102991Y-120636002D01*
X145941637Y-120553788D01*
X145769406Y-120497828D01*
X145590549Y-120469500D01*
X145590546Y-120469500D01*
X145409454Y-120469500D01*
X145409451Y-120469500D01*
X145230593Y-120497828D01*
X145058362Y-120553788D01*
X144897008Y-120636002D01*
X144845552Y-120673387D01*
X144750499Y-120742447D01*
X144622447Y-120870499D01*
X144606911Y-120891883D01*
X144516002Y-121017008D01*
X144479529Y-121088590D01*
X144453107Y-121140446D01*
X144409844Y-121183710D01*
X144364899Y-121194500D01*
X143656018Y-121194500D01*
X143543982Y-121194500D01*
X143477748Y-121212247D01*
X143435758Y-121223498D01*
X143338739Y-121279513D01*
X143259513Y-121358739D01*
X143203499Y-121455757D01*
X143203497Y-121455761D01*
X143203497Y-121455763D01*
X143191778Y-121499500D01*
X143191343Y-121501124D01*
X143158018Y-121552438D01*
X143100897Y-121574364D01*
X143095716Y-121574500D01*
X141321441Y-121574500D01*
X141263250Y-121555593D01*
X141227286Y-121506093D01*
X141223147Y-121487304D01*
X141214877Y-121418436D01*
X141211746Y-121410497D01*
X141159362Y-121277660D01*
X141159361Y-121277659D01*
X141159361Y-121277658D01*
X141067922Y-121157078D01*
X140947342Y-121065639D01*
X140947341Y-121065638D01*
X140947339Y-121065637D01*
X140806565Y-121010123D01*
X140718106Y-120999500D01*
X140718102Y-120999500D01*
X140106898Y-120999500D01*
X140106893Y-120999500D01*
X140018434Y-121010123D01*
X139877660Y-121065637D01*
X139877656Y-121065640D01*
X139757081Y-121157075D01*
X139757075Y-121157081D01*
X139665640Y-121277656D01*
X139665637Y-121277660D01*
X139610123Y-121418434D01*
X139599500Y-121506893D01*
X139400499Y-121506893D01*
X139389877Y-121418436D01*
X139341179Y-121294946D01*
X139334362Y-121277660D01*
X139334361Y-121277659D01*
X139334361Y-121277658D01*
X139242922Y-121157078D01*
X139122342Y-121065639D01*
X139122341Y-121065638D01*
X139122339Y-121065637D01*
X138981565Y-121010123D01*
X138893106Y-120999500D01*
X138893102Y-120999500D01*
X138281898Y-120999500D01*
X138281893Y-120999500D01*
X138193434Y-121010123D01*
X138052660Y-121065637D01*
X138052656Y-121065640D01*
X137932081Y-121157075D01*
X137932075Y-121157081D01*
X137840640Y-121277656D01*
X137840637Y-121277660D01*
X137785123Y-121418433D01*
X137776853Y-121487304D01*
X137751142Y-121542825D01*
X137697707Y-121572631D01*
X137678559Y-121574500D01*
X134724500Y-121574500D01*
X134666309Y-121555593D01*
X134630345Y-121506093D01*
X134625500Y-121475500D01*
X134625500Y-119495977D01*
X134644407Y-119437786D01*
X134693907Y-119401822D01*
X134750120Y-119400350D01*
X134843982Y-119425500D01*
X137678559Y-119425500D01*
X137736750Y-119444407D01*
X137772714Y-119493907D01*
X137776853Y-119512696D01*
X137785123Y-119581566D01*
X137840637Y-119722339D01*
X137840638Y-119722341D01*
X137840639Y-119722342D01*
X137932078Y-119842922D01*
X138052658Y-119934361D01*
X138052659Y-119934361D01*
X138052660Y-119934362D01*
X138111461Y-119957550D01*
X138193436Y-119989877D01*
X138281898Y-120000500D01*
X138281900Y-120000500D01*
X138893100Y-120000500D01*
X138893102Y-120000500D01*
X138981564Y-119989877D01*
X139122342Y-119934361D01*
X139242922Y-119842922D01*
X139334361Y-119722342D01*
X139389877Y-119581564D01*
X139400500Y-119493102D01*
X139400500Y-118506898D01*
X139400499Y-118506893D01*
X139599500Y-118506893D01*
X139599500Y-119493106D01*
X139610123Y-119581565D01*
X139665637Y-119722339D01*
X139665638Y-119722341D01*
X139665639Y-119722342D01*
X139757078Y-119842922D01*
X139877658Y-119934361D01*
X139877659Y-119934361D01*
X139877660Y-119934362D01*
X139936461Y-119957550D01*
X140018436Y-119989877D01*
X140106898Y-120000500D01*
X140106900Y-120000500D01*
X140718100Y-120000500D01*
X140718102Y-120000500D01*
X140806564Y-119989877D01*
X140947342Y-119934361D01*
X141067922Y-119842922D01*
X141159361Y-119722342D01*
X141214877Y-119581564D01*
X141223147Y-119512695D01*
X141248858Y-119457175D01*
X141302293Y-119427369D01*
X141321441Y-119425500D01*
X143320896Y-119425500D01*
X143370394Y-119438762D01*
X143435763Y-119476503D01*
X143543982Y-119505500D01*
X144364899Y-119505500D01*
X144423090Y-119524407D01*
X144453107Y-119559552D01*
X144516004Y-119682994D01*
X144622447Y-119829501D01*
X144750499Y-119957553D01*
X144897006Y-120063996D01*
X145058361Y-120146211D01*
X145230591Y-120202171D01*
X145302136Y-120213502D01*
X145409451Y-120230500D01*
X145409454Y-120230500D01*
X145590549Y-120230500D01*
X145679977Y-120216335D01*
X145769409Y-120202171D01*
X145941639Y-120146211D01*
X146102994Y-120063996D01*
X146249501Y-119957553D01*
X146377553Y-119829501D01*
X146483996Y-119682994D01*
X146566211Y-119521639D01*
X146622171Y-119349409D01*
X146645914Y-119199500D01*
X146650500Y-119170549D01*
X146650500Y-118989450D01*
X146622171Y-118810593D01*
X146622171Y-118810591D01*
X146566211Y-118638361D01*
X146483996Y-118477006D01*
X146377553Y-118330499D01*
X146249501Y-118202447D01*
X146102994Y-118096004D01*
X146102993Y-118096003D01*
X146102991Y-118096002D01*
X145941637Y-118013788D01*
X145769406Y-117957828D01*
X145590549Y-117929500D01*
X145590546Y-117929500D01*
X145409454Y-117929500D01*
X145409451Y-117929500D01*
X145230593Y-117957828D01*
X145058362Y-118013788D01*
X144897008Y-118096002D01*
X144827902Y-118146211D01*
X144750499Y-118202447D01*
X144622447Y-118330499D01*
X144585743Y-118381018D01*
X144516002Y-118477008D01*
X144482467Y-118542825D01*
X144453107Y-118600446D01*
X144409844Y-118643710D01*
X144364899Y-118654500D01*
X143879104Y-118654500D01*
X143829605Y-118641237D01*
X143764237Y-118603497D01*
X143656018Y-118574500D01*
X143656016Y-118574500D01*
X141321441Y-118574500D01*
X141263250Y-118555593D01*
X141227286Y-118506093D01*
X141223147Y-118487304D01*
X141221910Y-118477006D01*
X141214877Y-118418436D01*
X141214876Y-118418433D01*
X141159362Y-118277660D01*
X141159361Y-118277659D01*
X141159361Y-118277658D01*
X141067922Y-118157078D01*
X140947342Y-118065639D01*
X140947341Y-118065638D01*
X140947339Y-118065637D01*
X140806565Y-118010123D01*
X140718106Y-117999500D01*
X140718102Y-117999500D01*
X140106898Y-117999500D01*
X140106893Y-117999500D01*
X140018434Y-118010123D01*
X139877660Y-118065637D01*
X139877656Y-118065640D01*
X139757081Y-118157075D01*
X139757075Y-118157081D01*
X139665640Y-118277656D01*
X139665637Y-118277660D01*
X139610123Y-118418434D01*
X139599500Y-118506893D01*
X139400499Y-118506893D01*
X139389877Y-118418436D01*
X139334361Y-118277658D01*
X139242922Y-118157078D01*
X139122342Y-118065639D01*
X139122341Y-118065638D01*
X139122339Y-118065637D01*
X138981565Y-118010123D01*
X138893106Y-117999500D01*
X138893102Y-117999500D01*
X138281898Y-117999500D01*
X138281893Y-117999500D01*
X138193434Y-118010123D01*
X138052660Y-118065637D01*
X138052656Y-118065640D01*
X137932081Y-118157075D01*
X137932075Y-118157081D01*
X137840640Y-118277656D01*
X137840637Y-118277660D01*
X137785123Y-118418433D01*
X137776853Y-118487304D01*
X137751142Y-118542825D01*
X137697707Y-118572631D01*
X137678559Y-118574500D01*
X135424500Y-118574500D01*
X135366309Y-118555593D01*
X135330345Y-118506093D01*
X135325500Y-118475500D01*
X135325500Y-116495977D01*
X135344407Y-116437786D01*
X135393907Y-116401822D01*
X135450120Y-116400350D01*
X135543982Y-116425500D01*
X137678559Y-116425500D01*
X137736750Y-116444407D01*
X137772714Y-116493907D01*
X137776853Y-116512696D01*
X137785123Y-116581566D01*
X137840637Y-116722339D01*
X137840638Y-116722341D01*
X137840639Y-116722342D01*
X137932078Y-116842922D01*
X138052658Y-116934361D01*
X138052659Y-116934361D01*
X138052660Y-116934362D01*
X138123047Y-116962119D01*
X138193436Y-116989877D01*
X138281898Y-117000500D01*
X138281900Y-117000500D01*
X138893100Y-117000500D01*
X138893102Y-117000500D01*
X138981564Y-116989877D01*
X139122342Y-116934361D01*
X139242922Y-116842922D01*
X139334361Y-116722342D01*
X139389877Y-116581564D01*
X139400500Y-116493102D01*
X139400500Y-115506898D01*
X139400499Y-115506893D01*
X139599500Y-115506893D01*
X139599500Y-116493106D01*
X139610123Y-116581565D01*
X139665637Y-116722339D01*
X139665638Y-116722341D01*
X139665639Y-116722342D01*
X139757078Y-116842922D01*
X139877658Y-116934361D01*
X139877659Y-116934361D01*
X139877660Y-116934362D01*
X139948047Y-116962119D01*
X140018436Y-116989877D01*
X140106898Y-117000500D01*
X140106900Y-117000500D01*
X140718100Y-117000500D01*
X140718102Y-117000500D01*
X140806564Y-116989877D01*
X140947342Y-116934361D01*
X141067922Y-116842922D01*
X141159361Y-116722342D01*
X141214877Y-116581564D01*
X141223147Y-116512695D01*
X141248858Y-116457175D01*
X141302293Y-116427369D01*
X141321441Y-116425500D01*
X143075500Y-116425500D01*
X143133691Y-116444407D01*
X143169655Y-116493907D01*
X143174500Y-116524500D01*
X143174500Y-116596018D01*
X143185846Y-116638361D01*
X143203498Y-116704241D01*
X143259513Y-116801260D01*
X143259515Y-116801263D01*
X143338737Y-116880485D01*
X143338739Y-116880486D01*
X143435759Y-116936501D01*
X143435757Y-116936501D01*
X143435761Y-116936502D01*
X143435763Y-116936503D01*
X143543982Y-116965500D01*
X144364899Y-116965500D01*
X144423090Y-116984407D01*
X144453107Y-117019552D01*
X144516004Y-117142994D01*
X144622447Y-117289501D01*
X144750499Y-117417553D01*
X144897006Y-117523996D01*
X145058361Y-117606211D01*
X145230591Y-117662171D01*
X145302136Y-117673502D01*
X145409451Y-117690500D01*
X145409454Y-117690500D01*
X145590549Y-117690500D01*
X145679977Y-117676335D01*
X145769409Y-117662171D01*
X145941639Y-117606211D01*
X146102994Y-117523996D01*
X146249501Y-117417553D01*
X146377553Y-117289501D01*
X146483996Y-117142994D01*
X146566211Y-116981639D01*
X146622171Y-116809409D01*
X146638829Y-116704237D01*
X146650500Y-116630549D01*
X146650500Y-116449450D01*
X146624206Y-116283441D01*
X146622171Y-116270591D01*
X146566211Y-116098361D01*
X146483996Y-115937006D01*
X146377553Y-115790499D01*
X146249501Y-115662447D01*
X146102994Y-115556004D01*
X146102993Y-115556003D01*
X146102991Y-115556002D01*
X145941637Y-115473788D01*
X145769406Y-115417828D01*
X145590549Y-115389500D01*
X145590546Y-115389500D01*
X145409454Y-115389500D01*
X145409451Y-115389500D01*
X145230593Y-115417828D01*
X145058362Y-115473788D01*
X144897008Y-115556002D01*
X144831637Y-115603497D01*
X144750499Y-115662447D01*
X144622447Y-115790499D01*
X144617379Y-115797475D01*
X144516002Y-115937008D01*
X144479529Y-116008590D01*
X144453107Y-116060446D01*
X144409844Y-116103710D01*
X144364899Y-116114500D01*
X144124500Y-116114500D01*
X144066309Y-116095593D01*
X144030345Y-116046093D01*
X144025500Y-116015500D01*
X144025500Y-115943983D01*
X144023631Y-115937006D01*
X143996503Y-115835763D01*
X143996501Y-115835760D01*
X143996501Y-115835758D01*
X143940486Y-115738739D01*
X143940485Y-115738737D01*
X143861263Y-115659515D01*
X143861260Y-115659513D01*
X143764240Y-115603498D01*
X143764242Y-115603498D01*
X143722251Y-115592247D01*
X143656018Y-115574500D01*
X143656016Y-115574500D01*
X141321441Y-115574500D01*
X141263250Y-115555593D01*
X141227286Y-115506093D01*
X141223147Y-115487304D01*
X141214877Y-115418436D01*
X141203466Y-115389500D01*
X141159362Y-115277660D01*
X141159361Y-115277659D01*
X141159361Y-115277658D01*
X141067922Y-115157078D01*
X140947342Y-115065639D01*
X140947341Y-115065638D01*
X140947339Y-115065637D01*
X140806565Y-115010123D01*
X140718106Y-114999500D01*
X140718102Y-114999500D01*
X140106898Y-114999500D01*
X140106893Y-114999500D01*
X140018434Y-115010123D01*
X139877660Y-115065637D01*
X139877656Y-115065640D01*
X139757081Y-115157075D01*
X139757075Y-115157081D01*
X139665640Y-115277656D01*
X139665637Y-115277660D01*
X139610123Y-115418434D01*
X139599500Y-115506893D01*
X139400499Y-115506893D01*
X139389877Y-115418436D01*
X139334361Y-115277658D01*
X139242922Y-115157078D01*
X139122342Y-115065639D01*
X139122341Y-115065638D01*
X139122339Y-115065637D01*
X138981565Y-115010123D01*
X138893106Y-114999500D01*
X138893102Y-114999500D01*
X138281898Y-114999500D01*
X138281893Y-114999500D01*
X138193434Y-115010123D01*
X138052660Y-115065637D01*
X138052656Y-115065640D01*
X137932081Y-115157075D01*
X137932075Y-115157081D01*
X137840640Y-115277656D01*
X137840637Y-115277660D01*
X137785123Y-115418433D01*
X137776853Y-115487304D01*
X137751142Y-115542825D01*
X137697707Y-115572631D01*
X137678559Y-115574500D01*
X136124500Y-115574500D01*
X136066309Y-115555593D01*
X136030345Y-115506093D01*
X136025500Y-115475500D01*
X136025500Y-112699500D01*
X136044407Y-112641309D01*
X136093907Y-112605345D01*
X136124500Y-112600500D01*
X136493100Y-112600500D01*
X136493102Y-112600500D01*
X136581564Y-112589877D01*
X136722342Y-112534361D01*
X136842922Y-112442922D01*
X136934361Y-112322342D01*
X136989877Y-112181564D01*
X137000500Y-112093102D01*
X137000500Y-110906898D01*
X136989877Y-110818436D01*
X136934361Y-110677658D01*
X136842922Y-110557078D01*
X136722342Y-110465639D01*
X136722341Y-110465638D01*
X136722339Y-110465637D01*
X136581565Y-110410123D01*
X136493106Y-110399500D01*
X136493102Y-110399500D01*
X136049500Y-110399500D01*
X135991309Y-110380593D01*
X135955345Y-110331093D01*
X135950500Y-110300500D01*
X135950500Y-110227525D01*
X135949147Y-110222474D01*
X135912984Y-110087515D01*
X135912982Y-110087512D01*
X135912982Y-110087510D01*
X135840512Y-109961989D01*
X135840510Y-109961987D01*
X135840509Y-109961985D01*
X135738015Y-109859491D01*
X135738012Y-109859489D01*
X135738010Y-109859487D01*
X135612488Y-109787017D01*
X135612489Y-109787017D01*
X135582896Y-109779087D01*
X135472475Y-109749500D01*
X135327525Y-109749500D01*
X135265790Y-109766041D01*
X135187510Y-109787017D01*
X135061989Y-109859487D01*
X134959487Y-109961989D01*
X134887017Y-110087510D01*
X134849500Y-110227525D01*
X134849500Y-110300500D01*
X134830593Y-110358691D01*
X134781093Y-110394655D01*
X134750500Y-110399500D01*
X134306893Y-110399500D01*
X134218434Y-110410123D01*
X134077660Y-110465637D01*
X134077656Y-110465640D01*
X133957081Y-110557075D01*
X133957075Y-110557081D01*
X133865640Y-110677656D01*
X133865637Y-110677660D01*
X133810123Y-110818434D01*
X133799500Y-110906893D01*
X133799500Y-112093106D01*
X133810123Y-112181567D01*
X133813127Y-112189184D01*
X133816884Y-112250254D01*
X133784028Y-112301868D01*
X133727108Y-112324313D01*
X133721029Y-112324500D01*
X130899394Y-112324500D01*
X130841203Y-112305593D01*
X130805239Y-112256093D01*
X130805239Y-112194907D01*
X130807297Y-112189181D01*
X130830204Y-112131093D01*
X130839877Y-112106564D01*
X130850500Y-112018102D01*
X130850500Y-110981898D01*
X130839877Y-110893436D01*
X130784361Y-110752658D01*
X130692922Y-110632078D01*
X130611326Y-110570201D01*
X130576385Y-110519976D01*
X130575521Y-110465695D01*
X130593259Y-110399500D01*
X130600500Y-110372475D01*
X130600500Y-110227525D01*
X130562984Y-110087515D01*
X130562982Y-110087512D01*
X130562982Y-110087510D01*
X130490512Y-109961989D01*
X130490510Y-109961987D01*
X130490509Y-109961985D01*
X130388015Y-109859491D01*
X130388012Y-109859489D01*
X130388010Y-109859487D01*
X130262488Y-109787017D01*
X130262489Y-109787017D01*
X130232896Y-109779087D01*
X130122475Y-109749500D01*
X129977525Y-109749500D01*
X129915790Y-109766041D01*
X129837510Y-109787017D01*
X129711989Y-109859487D01*
X129609487Y-109961989D01*
X129537017Y-110087510D01*
X129537016Y-110087515D01*
X129499500Y-110227525D01*
X129499500Y-110372475D01*
X129509588Y-110410123D01*
X129524479Y-110465696D01*
X129521277Y-110526797D01*
X129488672Y-110570202D01*
X129407083Y-110632073D01*
X129407075Y-110632081D01*
X129315640Y-110752656D01*
X129315637Y-110752660D01*
X129260123Y-110893434D01*
X129249500Y-110981893D01*
X129249500Y-112018106D01*
X129260123Y-112106565D01*
X129292703Y-112189181D01*
X129296462Y-112250251D01*
X129263607Y-112301867D01*
X129206688Y-112324313D01*
X129200606Y-112324500D01*
X121240539Y-112324500D01*
X121191039Y-112311236D01*
X121062488Y-112237017D01*
X121062489Y-112237017D01*
X121005549Y-112221760D01*
X120922475Y-112199500D01*
X120840317Y-112199500D01*
X120782126Y-112180593D01*
X120746162Y-112131093D01*
X120742023Y-112088697D01*
X120750499Y-112018109D01*
X120750500Y-112018102D01*
X120750500Y-110981898D01*
X120739877Y-110893436D01*
X120684361Y-110752658D01*
X120592922Y-110632078D01*
X120592917Y-110632074D01*
X120489680Y-110553786D01*
X120481291Y-110541728D01*
X120469407Y-110533094D01*
X120464256Y-110517241D01*
X120454738Y-110503560D01*
X120450500Y-110474903D01*
X120450500Y-110410634D01*
X120461666Y-110368963D01*
X120460500Y-110368480D01*
X120462977Y-110362496D01*
X120462984Y-110362485D01*
X120500500Y-110222475D01*
X120500500Y-110077525D01*
X120462984Y-109937515D01*
X120462982Y-109937512D01*
X120462982Y-109937510D01*
X120390512Y-109811989D01*
X120390510Y-109811987D01*
X120390509Y-109811985D01*
X120288015Y-109709491D01*
X120288012Y-109709489D01*
X120288010Y-109709487D01*
X120162488Y-109637017D01*
X120162489Y-109637017D01*
X120132896Y-109629087D01*
X120022475Y-109599500D01*
X119877525Y-109599500D01*
X119815790Y-109616041D01*
X119737510Y-109637017D01*
X119611989Y-109709487D01*
X119509487Y-109811989D01*
X119437017Y-109937510D01*
X119437016Y-109937515D01*
X119399500Y-110077525D01*
X119399500Y-110222475D01*
X119437016Y-110362485D01*
X119437018Y-110362490D01*
X119439500Y-110368480D01*
X119438333Y-110368963D01*
X119449500Y-110410634D01*
X119449500Y-110474903D01*
X119430593Y-110533094D01*
X119410320Y-110553786D01*
X119307082Y-110632074D01*
X119307075Y-110632081D01*
X119215640Y-110752656D01*
X119215637Y-110752660D01*
X119160123Y-110893434D01*
X119149500Y-110981893D01*
X119149500Y-112018106D01*
X119160123Y-112106565D01*
X119215637Y-112247339D01*
X119215638Y-112247341D01*
X119215639Y-112247342D01*
X119307078Y-112367922D01*
X119427658Y-112459361D01*
X119427659Y-112459361D01*
X119427660Y-112459362D01*
X119498047Y-112487119D01*
X119568436Y-112514877D01*
X119656898Y-112525500D01*
X119656900Y-112525500D01*
X120211216Y-112525500D01*
X120269407Y-112544407D01*
X120305371Y-112593907D01*
X120306842Y-112650124D01*
X120299500Y-112677522D01*
X120299500Y-112825500D01*
X120280593Y-112883691D01*
X120231093Y-112919655D01*
X120200500Y-112924500D01*
X120143982Y-112924500D01*
X120077748Y-112942247D01*
X120035758Y-112953498D01*
X119938739Y-113009513D01*
X119859513Y-113088739D01*
X119803498Y-113185758D01*
X119803497Y-113185763D01*
X119774500Y-113293982D01*
X119774500Y-116431018D01*
X119778088Y-116444407D01*
X119786252Y-116474878D01*
X119783049Y-116535979D01*
X119744544Y-116583529D01*
X119690625Y-116599500D01*
X115124500Y-116599500D01*
X115066309Y-116580593D01*
X115030345Y-116531093D01*
X115025500Y-116500500D01*
X115025500Y-116200538D01*
X115038764Y-116151038D01*
X115112982Y-116022489D01*
X115112982Y-116022487D01*
X115112984Y-116022485D01*
X115150500Y-115882475D01*
X115150500Y-115737525D01*
X115112984Y-115597515D01*
X115112982Y-115597512D01*
X115112982Y-115597510D01*
X115040512Y-115471989D01*
X115040510Y-115471987D01*
X115040509Y-115471985D01*
X114938015Y-115369491D01*
X114938012Y-115369489D01*
X114938010Y-115369487D01*
X114812488Y-115297017D01*
X114812489Y-115297017D01*
X114740248Y-115277660D01*
X114672475Y-115259500D01*
X114527525Y-115259500D01*
X114465790Y-115276041D01*
X114387510Y-115297017D01*
X114261989Y-115369487D01*
X114159487Y-115471989D01*
X114087017Y-115597510D01*
X114087016Y-115597515D01*
X114049500Y-115737525D01*
X114049500Y-115882475D01*
X114064112Y-115937006D01*
X114087017Y-116022489D01*
X114161236Y-116151038D01*
X114174500Y-116200538D01*
X114174500Y-116968982D01*
X114174500Y-117081018D01*
X114191106Y-117142991D01*
X114203498Y-117189241D01*
X114259513Y-117286260D01*
X114259515Y-117286263D01*
X114338737Y-117365485D01*
X114338739Y-117365486D01*
X114435759Y-117421501D01*
X114435757Y-117421501D01*
X114435761Y-117421502D01*
X114435763Y-117421503D01*
X114543982Y-117450500D01*
X120950500Y-117450500D01*
X121008691Y-117469407D01*
X121044655Y-117518907D01*
X121049500Y-117549500D01*
X121049501Y-117800500D01*
X121030594Y-117858690D01*
X120981094Y-117894654D01*
X120950501Y-117899500D01*
X113924500Y-117899500D01*
X113866309Y-117880593D01*
X113830345Y-117831093D01*
X113825500Y-117800500D01*
X113825500Y-112843983D01*
X113825500Y-112843982D01*
X113796503Y-112735763D01*
X113796501Y-112735760D01*
X113796501Y-112735758D01*
X113740486Y-112638739D01*
X113740485Y-112638737D01*
X113661263Y-112559515D01*
X113661260Y-112559513D01*
X113564240Y-112503498D01*
X113564242Y-112503498D01*
X113522251Y-112492247D01*
X113456018Y-112474500D01*
X113456016Y-112474500D01*
X109231795Y-112474500D01*
X109173604Y-112455593D01*
X109137640Y-112406093D01*
X109137640Y-112344908D01*
X109162171Y-112269409D01*
X109165205Y-112250254D01*
X109190500Y-112090549D01*
X109190500Y-111909450D01*
X109162171Y-111730593D01*
X109162171Y-111730591D01*
X109106211Y-111558361D01*
X109023996Y-111397006D01*
X108917553Y-111250499D01*
X108789501Y-111122447D01*
X108642994Y-111016004D01*
X108642993Y-111016003D01*
X108642991Y-111016002D01*
X108596176Y-110992149D01*
X108576059Y-110981899D01*
X108481639Y-110933789D01*
X108481638Y-110933788D01*
X108481637Y-110933788D01*
X108398861Y-110906893D01*
X113699500Y-110906893D01*
X113699500Y-112093106D01*
X113710123Y-112181565D01*
X113765637Y-112322339D01*
X113765638Y-112322341D01*
X113765639Y-112322342D01*
X113857078Y-112442922D01*
X113977658Y-112534361D01*
X113977659Y-112534361D01*
X113977660Y-112534362D01*
X114041439Y-112559513D01*
X114118436Y-112589877D01*
X114206898Y-112600500D01*
X114206900Y-112600500D01*
X116393100Y-112600500D01*
X116393102Y-112600500D01*
X116481564Y-112589877D01*
X116622342Y-112534361D01*
X116742922Y-112442922D01*
X116834361Y-112322342D01*
X116889877Y-112181564D01*
X116900500Y-112093102D01*
X116900500Y-110906898D01*
X116889877Y-110818436D01*
X116834361Y-110677658D01*
X116742922Y-110557078D01*
X116622342Y-110465639D01*
X116622341Y-110465638D01*
X116622339Y-110465637D01*
X116481565Y-110410123D01*
X116393106Y-110399500D01*
X116393102Y-110399500D01*
X115932085Y-110399500D01*
X115873894Y-110380593D01*
X115837930Y-110331093D01*
X115836459Y-110274876D01*
X115850500Y-110222475D01*
X115850500Y-110077525D01*
X115812984Y-109937515D01*
X115812982Y-109937512D01*
X115812982Y-109937510D01*
X115740512Y-109811989D01*
X115740510Y-109811987D01*
X115740509Y-109811985D01*
X115638015Y-109709491D01*
X115638012Y-109709489D01*
X115638010Y-109709487D01*
X115512488Y-109637017D01*
X115512489Y-109637017D01*
X115482896Y-109629087D01*
X115372475Y-109599500D01*
X115227525Y-109599500D01*
X115165790Y-109616041D01*
X115087510Y-109637017D01*
X114961989Y-109709487D01*
X114859487Y-109811989D01*
X114787017Y-109937510D01*
X114749500Y-110077525D01*
X114749500Y-110222477D01*
X114763541Y-110274876D01*
X114760340Y-110335977D01*
X114721835Y-110383528D01*
X114667915Y-110399500D01*
X114206893Y-110399500D01*
X114118434Y-110410123D01*
X113977660Y-110465637D01*
X113977656Y-110465640D01*
X113857081Y-110557075D01*
X113857075Y-110557081D01*
X113765640Y-110677656D01*
X113765637Y-110677660D01*
X113710123Y-110818434D01*
X113699500Y-110906893D01*
X108398861Y-110906893D01*
X108309406Y-110877828D01*
X108130549Y-110849500D01*
X108130546Y-110849500D01*
X107949454Y-110849500D01*
X107949451Y-110849500D01*
X107770593Y-110877828D01*
X107598362Y-110933788D01*
X107437008Y-111016002D01*
X107363752Y-111069225D01*
X107290499Y-111122447D01*
X107162447Y-111250499D01*
X107109225Y-111323752D01*
X107056002Y-111397008D01*
X106973788Y-111558362D01*
X106917828Y-111730593D01*
X106889500Y-111909450D01*
X106889500Y-112090549D01*
X106917828Y-112269406D01*
X106973788Y-112441637D01*
X107054732Y-112600499D01*
X107056004Y-112602994D01*
X107162447Y-112749501D01*
X107290499Y-112877553D01*
X107437006Y-112983996D01*
X107598361Y-113066211D01*
X107619176Y-113072974D01*
X107668676Y-113108935D01*
X107674322Y-113117629D01*
X107699511Y-113161258D01*
X107699513Y-113161260D01*
X107699515Y-113161263D01*
X107778737Y-113240485D01*
X107779784Y-113241090D01*
X107780366Y-113241735D01*
X107783883Y-113244434D01*
X107783383Y-113245085D01*
X107820728Y-113286556D01*
X107827127Y-113347406D01*
X107796537Y-113400396D01*
X107760882Y-113420983D01*
X107598360Y-113473789D01*
X107437008Y-113556002D01*
X107363752Y-113609225D01*
X107290499Y-113662447D01*
X107162447Y-113790499D01*
X107159608Y-113794407D01*
X107056002Y-113937008D01*
X106973788Y-114098362D01*
X106917828Y-114270593D01*
X106889500Y-114449450D01*
X106889500Y-114630549D01*
X106917828Y-114809406D01*
X106973788Y-114981637D01*
X107048441Y-115128152D01*
X107056004Y-115142994D01*
X107162447Y-115289501D01*
X107290499Y-115417553D01*
X107437006Y-115523996D01*
X107598361Y-115606211D01*
X107770591Y-115662171D01*
X107842136Y-115673502D01*
X107949451Y-115690500D01*
X107949454Y-115690500D01*
X108130549Y-115690500D01*
X108219977Y-115676335D01*
X108309409Y-115662171D01*
X108481639Y-115606211D01*
X108642994Y-115523996D01*
X108789501Y-115417553D01*
X108917553Y-115289501D01*
X109023996Y-115142994D01*
X109086892Y-115019553D01*
X109130156Y-114976290D01*
X109175101Y-114965500D01*
X111075500Y-114965500D01*
X111133691Y-114984407D01*
X111169655Y-115033907D01*
X111174500Y-115064500D01*
X111174500Y-119568982D01*
X111174500Y-119681018D01*
X111178910Y-119697475D01*
X111203498Y-119789241D01*
X111259513Y-119886260D01*
X111259515Y-119886263D01*
X111338737Y-119965485D01*
X111371079Y-119984157D01*
X111435759Y-120021501D01*
X111435757Y-120021501D01*
X111435761Y-120021502D01*
X111435763Y-120021503D01*
X111543982Y-120050500D01*
X121182886Y-120050500D01*
X121227831Y-120061290D01*
X121324696Y-120110646D01*
X121418481Y-120125500D01*
X122831518Y-120125499D01*
X122831521Y-120125499D01*
X122831522Y-120125498D01*
X122878411Y-120118072D01*
X122925299Y-120110647D01*
X122925300Y-120110646D01*
X122925304Y-120110646D01*
X122955553Y-120095232D01*
X122963441Y-120093983D01*
X122969907Y-120089286D01*
X122993090Y-120089286D01*
X123015984Y-120085659D01*
X123023103Y-120089286D01*
X123031093Y-120089286D01*
X123049849Y-120102913D01*
X123070502Y-120113436D01*
X123074128Y-120120553D01*
X123080593Y-120125250D01*
X123087756Y-120147296D01*
X123098281Y-120167951D01*
X123099500Y-120183441D01*
X123099500Y-120366558D01*
X123080593Y-120424749D01*
X123031093Y-120460713D01*
X122969907Y-120460713D01*
X122955555Y-120454767D01*
X122925307Y-120439355D01*
X122925305Y-120439354D01*
X122831521Y-120424500D01*
X121418478Y-120424500D01*
X121418476Y-120424501D01*
X121316999Y-120440572D01*
X121316784Y-120439219D01*
X121263921Y-120439216D01*
X121245020Y-120430800D01*
X121212486Y-120412016D01*
X121100629Y-120382044D01*
X121072475Y-120374500D01*
X120927525Y-120374500D01*
X120899371Y-120382044D01*
X120787510Y-120412017D01*
X120661989Y-120484487D01*
X120559487Y-120586989D01*
X120487017Y-120712510D01*
X120463441Y-120800498D01*
X120449500Y-120852525D01*
X120449500Y-120997475D01*
X120454734Y-121017008D01*
X120487017Y-121137489D01*
X120559487Y-121263010D01*
X120559489Y-121263012D01*
X120559491Y-121263015D01*
X120661985Y-121365509D01*
X120661987Y-121365510D01*
X120661989Y-121365512D01*
X120787511Y-121437982D01*
X120787512Y-121437982D01*
X120787515Y-121437984D01*
X120927525Y-121475500D01*
X120950500Y-121475500D01*
X121008691Y-121494407D01*
X121044655Y-121543907D01*
X121049500Y-121574499D01*
X121049500Y-121706520D01*
X121049501Y-121706523D01*
X121064352Y-121800299D01*
X121064354Y-121800304D01*
X121109755Y-121889409D01*
X121117982Y-121905554D01*
X121127554Y-121965986D01*
X121099777Y-122020503D01*
X121045261Y-122048281D01*
X121029773Y-122049500D01*
X112549500Y-122049500D01*
X112491309Y-122030593D01*
X112455345Y-121981093D01*
X112450500Y-121950500D01*
X112450500Y-120890692D01*
X112450500Y-120890691D01*
X112419799Y-120776114D01*
X112419797Y-120776111D01*
X112419797Y-120776109D01*
X112360492Y-120673391D01*
X112360490Y-120673389D01*
X112360489Y-120673387D01*
X112276613Y-120589511D01*
X112276610Y-120589509D01*
X112276608Y-120589507D01*
X112173889Y-120530202D01*
X112173890Y-120530202D01*
X112160351Y-120526574D01*
X112059309Y-120499500D01*
X112059307Y-120499500D01*
X107319500Y-120499500D01*
X107261309Y-120480593D01*
X107225345Y-120431093D01*
X107220500Y-120400500D01*
X107220500Y-119560692D01*
X107220500Y-119560691D01*
X107189799Y-119446114D01*
X107189797Y-119446111D01*
X107189797Y-119446109D01*
X107130492Y-119343391D01*
X107130490Y-119343389D01*
X107130489Y-119343387D01*
X107046613Y-119259511D01*
X107046610Y-119259509D01*
X107046608Y-119259507D01*
X106943889Y-119200202D01*
X106943890Y-119200202D01*
X106930351Y-119196574D01*
X106829309Y-119169500D01*
X106829307Y-119169500D01*
X106622363Y-119169500D01*
X106564172Y-119150593D01*
X106534153Y-119115445D01*
X106526538Y-119100500D01*
X106483996Y-119017006D01*
X106377553Y-118870499D01*
X106249501Y-118742447D01*
X106102994Y-118636004D01*
X106102993Y-118636003D01*
X106102991Y-118636002D01*
X105941637Y-118553788D01*
X105769406Y-118497828D01*
X105590549Y-118469500D01*
X105590546Y-118469500D01*
X105409454Y-118469500D01*
X105409451Y-118469500D01*
X105230593Y-118497828D01*
X105058362Y-118553788D01*
X104897008Y-118636002D01*
X104856427Y-118665486D01*
X104750499Y-118742447D01*
X104622447Y-118870499D01*
X104619087Y-118875124D01*
X104516002Y-119017008D01*
X104433788Y-119178362D01*
X104377828Y-119350593D01*
X104349500Y-119529450D01*
X104349500Y-119710549D01*
X104377828Y-119889406D01*
X104433788Y-120061637D01*
X104495850Y-120183441D01*
X104516004Y-120222994D01*
X104622447Y-120369501D01*
X104750499Y-120497553D01*
X104897006Y-120603996D01*
X105058361Y-120686211D01*
X105230591Y-120742171D01*
X105293950Y-120752206D01*
X105409451Y-120770500D01*
X105409454Y-120770500D01*
X105590549Y-120770500D01*
X105679977Y-120756335D01*
X105769409Y-120742171D01*
X105941639Y-120686211D01*
X106102994Y-120603996D01*
X106162309Y-120560900D01*
X106220499Y-120541993D01*
X106278690Y-120560900D01*
X106314654Y-120610400D01*
X106319500Y-120640993D01*
X106319500Y-120890691D01*
X106319500Y-121009309D01*
X106346574Y-121110351D01*
X106350202Y-121123890D01*
X106352685Y-121129884D01*
X106350167Y-121130926D01*
X106360495Y-121179548D01*
X106335601Y-121235440D01*
X106282609Y-121266025D01*
X106221760Y-121259621D01*
X106203852Y-121249281D01*
X106102994Y-121176004D01*
X106102993Y-121176003D01*
X106102991Y-121176002D01*
X105941637Y-121093788D01*
X105769406Y-121037828D01*
X105590549Y-121009500D01*
X105590546Y-121009500D01*
X105409454Y-121009500D01*
X105409451Y-121009500D01*
X105230593Y-121037828D01*
X105058362Y-121093788D01*
X104897008Y-121176002D01*
X104831637Y-121223497D01*
X104750499Y-121282447D01*
X104622447Y-121410499D01*
X104589561Y-121455763D01*
X104516002Y-121557008D01*
X104433788Y-121718362D01*
X104377828Y-121890593D01*
X104349500Y-122069450D01*
X104349500Y-122250549D01*
X104377828Y-122429406D01*
X104433788Y-122601637D01*
X104495290Y-122722342D01*
X104516004Y-122762994D01*
X104622447Y-122909501D01*
X104750499Y-123037553D01*
X104897006Y-123143996D01*
X104897010Y-123143998D01*
X104945444Y-123168676D01*
X104988709Y-123211940D01*
X104999500Y-123256886D01*
X104999500Y-123800500D01*
X104980593Y-123858691D01*
X104931093Y-123894655D01*
X104900500Y-123899500D01*
X103199500Y-123899500D01*
X103141309Y-123880593D01*
X103105345Y-123831093D01*
X103100500Y-123800500D01*
X103100500Y-116989450D01*
X104349500Y-116989450D01*
X104349500Y-117170549D01*
X104377828Y-117349406D01*
X104377829Y-117349409D01*
X104433789Y-117521639D01*
X104516004Y-117682994D01*
X104622447Y-117829501D01*
X104750499Y-117957553D01*
X104897006Y-118063996D01*
X105058361Y-118146211D01*
X105230591Y-118202171D01*
X105302136Y-118213502D01*
X105409451Y-118230500D01*
X105409454Y-118230500D01*
X105590549Y-118230500D01*
X105679977Y-118216335D01*
X105769409Y-118202171D01*
X105941639Y-118146211D01*
X106102994Y-118063996D01*
X106249501Y-117957553D01*
X106377553Y-117829501D01*
X106483996Y-117682994D01*
X106566211Y-117521639D01*
X106622171Y-117349409D01*
X106650500Y-117170546D01*
X106650500Y-116989454D01*
X106650500Y-116989450D01*
X106622171Y-116810593D01*
X106622171Y-116810591D01*
X106566211Y-116638361D01*
X106483996Y-116477006D01*
X106377553Y-116330499D01*
X106249501Y-116202447D01*
X106102994Y-116096004D01*
X106102993Y-116096003D01*
X106102991Y-116096002D01*
X105941637Y-116013788D01*
X105769406Y-115957828D01*
X105590549Y-115929500D01*
X105590546Y-115929500D01*
X105409454Y-115929500D01*
X105409451Y-115929500D01*
X105230593Y-115957828D01*
X105058362Y-116013788D01*
X104897008Y-116096002D01*
X104871548Y-116114500D01*
X104750499Y-116202447D01*
X104622447Y-116330499D01*
X104615192Y-116340485D01*
X104516002Y-116477008D01*
X104433788Y-116638362D01*
X104377828Y-116810593D01*
X104349500Y-116989450D01*
X103100500Y-116989450D01*
X103100500Y-114449450D01*
X104349500Y-114449450D01*
X104349500Y-114630549D01*
X104377828Y-114809406D01*
X104433788Y-114981637D01*
X104508441Y-115128152D01*
X104516004Y-115142994D01*
X104622447Y-115289501D01*
X104750499Y-115417553D01*
X104897006Y-115523996D01*
X105058361Y-115606211D01*
X105230591Y-115662171D01*
X105302136Y-115673502D01*
X105409451Y-115690500D01*
X105409454Y-115690500D01*
X105590549Y-115690500D01*
X105679977Y-115676335D01*
X105769409Y-115662171D01*
X105941639Y-115606211D01*
X106102994Y-115523996D01*
X106249501Y-115417553D01*
X106377553Y-115289501D01*
X106483996Y-115142994D01*
X106566211Y-114981639D01*
X106622171Y-114809409D01*
X106638699Y-114705054D01*
X106650500Y-114630549D01*
X106650500Y-114449450D01*
X106625943Y-114294407D01*
X106622171Y-114270591D01*
X106566211Y-114098361D01*
X106483996Y-113937006D01*
X106377553Y-113790499D01*
X106249501Y-113662447D01*
X106102994Y-113556004D01*
X106102993Y-113556003D01*
X106102991Y-113556002D01*
X105941637Y-113473788D01*
X105769406Y-113417828D01*
X105590549Y-113389500D01*
X105590546Y-113389500D01*
X105409454Y-113389500D01*
X105409451Y-113389500D01*
X105230593Y-113417828D01*
X105058362Y-113473788D01*
X104897008Y-113556002D01*
X104823752Y-113609225D01*
X104750499Y-113662447D01*
X104622447Y-113790499D01*
X104619608Y-113794407D01*
X104516002Y-113937008D01*
X104433788Y-114098362D01*
X104377828Y-114270593D01*
X104349500Y-114449450D01*
X103100500Y-114449450D01*
X103100500Y-110410634D01*
X103111666Y-110368963D01*
X103110500Y-110368480D01*
X103112977Y-110362496D01*
X103112984Y-110362485D01*
X103150500Y-110222475D01*
X103150500Y-110077525D01*
X103112984Y-109937515D01*
X103112982Y-109937512D01*
X103112982Y-109937510D01*
X103040512Y-109811989D01*
X103040510Y-109811987D01*
X103040509Y-109811985D01*
X102938015Y-109709491D01*
X102938012Y-109709489D01*
X102938010Y-109709487D01*
X102812488Y-109637017D01*
X102812489Y-109637017D01*
X102782896Y-109629087D01*
X102672475Y-109599500D01*
X102527525Y-109599500D01*
X102465790Y-109616041D01*
X102387510Y-109637017D01*
X102261989Y-109709487D01*
X102159487Y-109811989D01*
X102087017Y-109937510D01*
X102087016Y-109937515D01*
X102049500Y-110077525D01*
X100500500Y-110077525D01*
X100500500Y-105599500D01*
X100519407Y-105541309D01*
X100568907Y-105505345D01*
X100599500Y-105500500D01*
X149400500Y-105500500D01*
X149458691Y-105519407D01*
G37*
%TD.AperFunction*%
%TD*%
M02*
