%TF.GenerationSoftware,KiCad,Pcbnew,10.0.3*%
%TF.CreationDate,2026-07-08T15:24:29+02:00*%
%TF.ProjectId,musicbrain-dac8,6d757369-6362-4726-9169-6e2d64616338,1.0*%
%TF.SameCoordinates,Original*%
%TF.FileFunction,Drillmap*%
%TF.FilePolarity,Positive*%
%FSLAX45Y45*%
G04 Gerber Fmt 4.5, Leading zero omitted, Abs format (unit mm)*
G04 Created by KiCad (PCBNEW 10.0.3) date 2026-07-08 15:24:29*
%MOMM*%
%LPD*%
G01*
G04 APERTURE LIST*
%ADD10C,0.100000*%
%ADD11C,0.200000*%
G04 APERTURE END LIST*
D10*
X10000000Y-10000000D02*
X15000000Y-10000000D01*
X15000000Y-18000000D01*
X10000000Y-18000000D01*
X10000000Y-10000000D01*
D11*
D10*
X10165000Y-16145000D02*
X10195000Y-16175000D01*
X10195000Y-16145000D02*
X10165000Y-16175000D01*
X10185000Y-10185000D02*
X10215000Y-10215000D01*
X10215000Y-10185000D02*
X10185000Y-10215000D01*
X10185000Y-17685000D02*
X10215000Y-17715000D01*
X10215000Y-17685000D02*
X10185000Y-17715000D01*
X10245000Y-16065000D02*
X10275000Y-16095000D01*
X10275000Y-16065000D02*
X10245000Y-16095000D01*
X10405000Y-13485000D02*
X10435000Y-13515000D01*
X10435000Y-13485000D02*
X10405000Y-13515000D01*
X10435000Y-12635000D02*
X10465000Y-12665000D01*
X10465000Y-12635000D02*
X10435000Y-12665000D01*
X10485000Y-14385000D02*
X10515000Y-14415000D01*
X10515000Y-14385000D02*
X10485000Y-14415000D01*
X10485000Y-15485000D02*
X10515000Y-15515000D01*
X10515000Y-15485000D02*
X10485000Y-15515000D01*
X10635000Y-16845000D02*
X10665000Y-16875000D01*
X10665000Y-16845000D02*
X10635000Y-16875000D01*
X10695000Y-16925000D02*
X10725000Y-16955000D01*
X10725000Y-16925000D02*
X10695000Y-16955000D01*
X10755000Y-17005000D02*
X10785000Y-17035000D01*
X10785000Y-17005000D02*
X10755000Y-17035000D01*
X10815000Y-16635000D02*
X10845000Y-16665000D01*
X10845000Y-16635000D02*
X10815000Y-16665000D01*
X10825000Y-12922500D02*
X10855000Y-12952500D01*
X10855000Y-12922500D02*
X10825000Y-12952500D01*
X10875000Y-16225000D02*
X10905000Y-16255000D01*
X10905000Y-16225000D02*
X10875000Y-16255000D01*
X10925000Y-12857500D02*
X10955000Y-12887500D01*
X10955000Y-12857500D02*
X10925000Y-12887500D01*
X10985000Y-15985000D02*
X11015000Y-16015000D01*
X11015000Y-15985000D02*
X10985000Y-16015000D01*
X11185000Y-11785000D02*
X11215000Y-11815000D01*
X11215000Y-11785000D02*
X11185000Y-11815000D01*
X11465000Y-16225000D02*
X11495000Y-16255000D01*
X11495000Y-16225000D02*
X11465000Y-16255000D01*
X11505000Y-12095000D02*
X11535000Y-12125000D01*
X11535000Y-12095000D02*
X11505000Y-12125000D01*
X11596000Y-11415000D02*
X11626000Y-11445000D01*
X11626000Y-11415000D02*
X11596000Y-11445000D01*
X11690000Y-12095000D02*
X11720000Y-12125000D01*
X11720000Y-12095000D02*
X11690000Y-12125000D01*
X11715000Y-13182500D02*
X11745000Y-13212500D01*
X11745000Y-13182500D02*
X11715000Y-13212500D01*
X11755000Y-12792500D02*
X11785000Y-12822500D01*
X11785000Y-12792500D02*
X11755000Y-12822500D01*
X11785000Y-13247500D02*
X11815000Y-13277500D01*
X11815000Y-13247500D02*
X11785000Y-13277500D01*
X11805000Y-13065000D02*
X11835000Y-13095000D01*
X11835000Y-13065000D02*
X11805000Y-13095000D01*
X11815000Y-13312500D02*
X11845000Y-13342500D01*
X11845000Y-13312500D02*
X11815000Y-13342500D01*
X11850000Y-11495000D02*
X11880000Y-11525000D01*
X11880000Y-11495000D02*
X11850000Y-11525000D01*
X11850000Y-16635000D02*
X11880000Y-16665000D01*
X11880000Y-16635000D02*
X11850000Y-16665000D01*
X11875000Y-12857500D02*
X11905000Y-12887500D01*
X11905000Y-12857500D02*
X11875000Y-12887500D01*
X11885000Y-16065000D02*
X11915000Y-16095000D01*
X11915000Y-16065000D02*
X11885000Y-16095000D01*
X11985000Y-10385000D02*
X12015000Y-10415000D01*
X12015000Y-10385000D02*
X11985000Y-10415000D01*
X11985000Y-16365000D02*
X12015000Y-16395000D01*
X12015000Y-16365000D02*
X11985000Y-16395000D01*
X11985000Y-16845000D02*
X12015000Y-16875000D01*
X12015000Y-16845000D02*
X11985000Y-16875000D01*
X12045000Y-12385000D02*
X12075000Y-12415000D01*
X12075000Y-12385000D02*
X12045000Y-12415000D01*
X12055000Y-16285000D02*
X12085000Y-16315000D01*
X12085000Y-16285000D02*
X12055000Y-16315000D01*
X12104000Y-11575000D02*
X12134000Y-11605000D01*
X12134000Y-11575000D02*
X12104000Y-11605000D01*
X12104000Y-16845000D02*
X12134000Y-16875000D01*
X12134000Y-16845000D02*
X12104000Y-16875000D01*
X12175000Y-12922500D02*
X12205000Y-12952500D01*
X12205000Y-12922500D02*
X12175000Y-12952500D01*
X12185000Y-16225000D02*
X12215000Y-16255000D01*
X12215000Y-16225000D02*
X12185000Y-16255000D01*
X12275000Y-12857500D02*
X12305000Y-12887500D01*
X12305000Y-12857500D02*
X12275000Y-12887500D01*
X12285000Y-16925000D02*
X12315000Y-16955000D01*
X12315000Y-16925000D02*
X12285000Y-16955000D01*
X12315000Y-13247500D02*
X12345000Y-13277500D01*
X12345000Y-13247500D02*
X12315000Y-13277500D01*
X12345000Y-14921500D02*
X12375000Y-14951500D01*
X12375000Y-14921500D02*
X12345000Y-14951500D01*
X12358000Y-11655000D02*
X12388000Y-11685000D01*
X12388000Y-11655000D02*
X12358000Y-11685000D01*
X12485000Y-15785000D02*
X12515000Y-15815000D01*
X12515000Y-15785000D02*
X12485000Y-15815000D01*
X12573750Y-14635000D02*
X12603750Y-14665000D01*
X12603750Y-14635000D02*
X12573750Y-14665000D01*
X12612000Y-11815000D02*
X12642000Y-11845000D01*
X12642000Y-11815000D02*
X12612000Y-11845000D01*
X12612000Y-17005000D02*
X12642000Y-17035000D01*
X12642000Y-17005000D02*
X12612000Y-17035000D01*
X12815000Y-14635000D02*
X12845000Y-14665000D01*
X12845000Y-14635000D02*
X12815000Y-14665000D01*
X12866000Y-11735000D02*
X12896000Y-11765000D01*
X12896000Y-11735000D02*
X12866000Y-11765000D01*
X12866000Y-16925000D02*
X12896000Y-16955000D01*
X12896000Y-16925000D02*
X12866000Y-16955000D01*
X13115000Y-13182500D02*
X13145000Y-13212500D01*
X13145000Y-13182500D02*
X13115000Y-13212500D01*
X13120000Y-11575000D02*
X13150000Y-11605000D01*
X13150000Y-11575000D02*
X13120000Y-11605000D01*
X13175000Y-16065000D02*
X13205000Y-16095000D01*
X13205000Y-16065000D02*
X13175000Y-16095000D01*
X13235000Y-13312500D02*
X13265000Y-13342500D01*
X13265000Y-13312500D02*
X13235000Y-13342500D01*
X13247000Y-16065000D02*
X13277000Y-16095000D01*
X13277000Y-16065000D02*
X13247000Y-16095000D01*
X13335000Y-14921500D02*
X13365000Y-14951500D01*
X13365000Y-14921500D02*
X13335000Y-14951500D01*
X13374000Y-11635000D02*
X13404000Y-11665000D01*
X13404000Y-11635000D02*
X13374000Y-11665000D01*
X13374000Y-12857500D02*
X13404000Y-12887500D01*
X13404000Y-12857500D02*
X13374000Y-12887500D01*
X13385000Y-16635000D02*
X13415000Y-16665000D01*
X13415000Y-16635000D02*
X13385000Y-16665000D01*
X13445000Y-12792500D02*
X13475000Y-12822500D01*
X13475000Y-12792500D02*
X13445000Y-12822500D01*
X13485000Y-11735000D02*
X13515000Y-11765000D01*
X13515000Y-11735000D02*
X13485000Y-11765000D01*
X13485000Y-14285000D02*
X13515000Y-14315000D01*
X13515000Y-14285000D02*
X13485000Y-14315000D01*
X13501000Y-16145000D02*
X13531000Y-16175000D01*
X13531000Y-16145000D02*
X13501000Y-16175000D01*
X13685000Y-17115000D02*
X13715000Y-17145000D01*
X13715000Y-17115000D02*
X13685000Y-17145000D01*
X13905000Y-14921500D02*
X13935000Y-14951500D01*
X13935000Y-14921500D02*
X13905000Y-14951500D01*
X13985000Y-13985000D02*
X14015000Y-14015000D01*
X14015000Y-13985000D02*
X13985000Y-14015000D01*
X14135000Y-15685000D02*
X14165000Y-15715000D01*
X14165000Y-15685000D02*
X14135000Y-15715000D01*
X14285000Y-14921500D02*
X14315000Y-14951500D01*
X14315000Y-14921500D02*
X14285000Y-14951500D01*
X14425000Y-16145000D02*
X14455000Y-16175000D01*
X14455000Y-16145000D02*
X14425000Y-16175000D01*
X14485000Y-11985000D02*
X14515000Y-12015000D01*
X14515000Y-11985000D02*
X14485000Y-12015000D01*
X14535000Y-13705000D02*
X14565000Y-13735000D01*
X14565000Y-13705000D02*
X14535000Y-13735000D01*
X14535000Y-14635000D02*
X14565000Y-14665000D01*
X14565000Y-14635000D02*
X14535000Y-14665000D01*
X14765000Y-14285000D02*
X14795000Y-14315000D01*
X14795000Y-14285000D02*
X14765000Y-14315000D01*
X14785000Y-10185000D02*
X14815000Y-10215000D01*
X14815000Y-10185000D02*
X14785000Y-10215000D01*
X14785000Y-17685000D02*
X14815000Y-17715000D01*
X14815000Y-17685000D02*
X14785000Y-17715000D01*
X11407000Y-10658000D02*
G75*
G02*
X11307000Y-10658000I-50000J0D01*
G01*
X11307000Y-10658000D02*
G75*
G02*
X11407000Y-10658000I50000J0D01*
G01*
X11407000Y-17342000D02*
G75*
G02*
X11307000Y-17342000I-50000J0D01*
G01*
X11307000Y-17342000D02*
G75*
G02*
X11407000Y-17342000I50000J0D01*
G01*
X11407000Y-17596000D02*
G75*
G02*
X11307000Y-17596000I-50000J0D01*
G01*
X11307000Y-17596000D02*
G75*
G02*
X11407000Y-17596000I50000J0D01*
G01*
X11661000Y-10658000D02*
G75*
G02*
X11561000Y-10658000I-50000J0D01*
G01*
X11561000Y-10658000D02*
G75*
G02*
X11661000Y-10658000I50000J0D01*
G01*
X11661000Y-17342000D02*
G75*
G02*
X11561000Y-17342000I-50000J0D01*
G01*
X11561000Y-17342000D02*
G75*
G02*
X11661000Y-17342000I50000J0D01*
G01*
X11661000Y-17596000D02*
G75*
G02*
X11561000Y-17596000I-50000J0D01*
G01*
X11561000Y-17596000D02*
G75*
G02*
X11661000Y-17596000I50000J0D01*
G01*
X11915000Y-10658000D02*
G75*
G02*
X11815000Y-10658000I-50000J0D01*
G01*
X11815000Y-10658000D02*
G75*
G02*
X11915000Y-10658000I50000J0D01*
G01*
X11915000Y-17342000D02*
G75*
G02*
X11815000Y-17342000I-50000J0D01*
G01*
X11815000Y-17342000D02*
G75*
G02*
X11915000Y-17342000I50000J0D01*
G01*
X11915000Y-17596000D02*
G75*
G02*
X11815000Y-17596000I-50000J0D01*
G01*
X11815000Y-17596000D02*
G75*
G02*
X11915000Y-17596000I50000J0D01*
G01*
X12169000Y-10658000D02*
G75*
G02*
X12069000Y-10658000I-50000J0D01*
G01*
X12069000Y-10658000D02*
G75*
G02*
X12169000Y-10658000I50000J0D01*
G01*
X12169000Y-17342000D02*
G75*
G02*
X12069000Y-17342000I-50000J0D01*
G01*
X12069000Y-17342000D02*
G75*
G02*
X12169000Y-17342000I50000J0D01*
G01*
X12169000Y-17596000D02*
G75*
G02*
X12069000Y-17596000I-50000J0D01*
G01*
X12069000Y-17596000D02*
G75*
G02*
X12169000Y-17596000I50000J0D01*
G01*
X12423000Y-10658000D02*
G75*
G02*
X12323000Y-10658000I-50000J0D01*
G01*
X12323000Y-10658000D02*
G75*
G02*
X12423000Y-10658000I50000J0D01*
G01*
X12423000Y-17342000D02*
G75*
G02*
X12323000Y-17342000I-50000J0D01*
G01*
X12323000Y-17342000D02*
G75*
G02*
X12423000Y-17342000I50000J0D01*
G01*
X12423000Y-17596000D02*
G75*
G02*
X12323000Y-17596000I-50000J0D01*
G01*
X12323000Y-17596000D02*
G75*
G02*
X12423000Y-17596000I50000J0D01*
G01*
X12677000Y-10658000D02*
G75*
G02*
X12577000Y-10658000I-50000J0D01*
G01*
X12577000Y-10658000D02*
G75*
G02*
X12677000Y-10658000I50000J0D01*
G01*
X12677000Y-17342000D02*
G75*
G02*
X12577000Y-17342000I-50000J0D01*
G01*
X12577000Y-17342000D02*
G75*
G02*
X12677000Y-17342000I50000J0D01*
G01*
X12677000Y-17596000D02*
G75*
G02*
X12577000Y-17596000I-50000J0D01*
G01*
X12577000Y-17596000D02*
G75*
G02*
X12677000Y-17596000I50000J0D01*
G01*
X12931000Y-10658000D02*
G75*
G02*
X12831000Y-10658000I-50000J0D01*
G01*
X12831000Y-10658000D02*
G75*
G02*
X12931000Y-10658000I50000J0D01*
G01*
X12931000Y-17342000D02*
G75*
G02*
X12831000Y-17342000I-50000J0D01*
G01*
X12831000Y-17342000D02*
G75*
G02*
X12931000Y-17342000I50000J0D01*
G01*
X12931000Y-17596000D02*
G75*
G02*
X12831000Y-17596000I-50000J0D01*
G01*
X12831000Y-17596000D02*
G75*
G02*
X12931000Y-17596000I50000J0D01*
G01*
X13185000Y-10658000D02*
G75*
G02*
X13085000Y-10658000I-50000J0D01*
G01*
X13085000Y-10658000D02*
G75*
G02*
X13185000Y-10658000I50000J0D01*
G01*
X13185000Y-17342000D02*
G75*
G02*
X13085000Y-17342000I-50000J0D01*
G01*
X13085000Y-17342000D02*
G75*
G02*
X13185000Y-17342000I50000J0D01*
G01*
X13185000Y-17596000D02*
G75*
G02*
X13085000Y-17596000I-50000J0D01*
G01*
X13085000Y-17596000D02*
G75*
G02*
X13185000Y-17596000I50000J0D01*
G01*
X13439000Y-10658000D02*
G75*
G02*
X13339000Y-10658000I-50000J0D01*
G01*
X13339000Y-10658000D02*
G75*
G02*
X13439000Y-10658000I50000J0D01*
G01*
X13439000Y-17342000D02*
G75*
G02*
X13339000Y-17342000I-50000J0D01*
G01*
X13339000Y-17342000D02*
G75*
G02*
X13439000Y-17342000I50000J0D01*
G01*
X13439000Y-17596000D02*
G75*
G02*
X13339000Y-17596000I-50000J0D01*
G01*
X13339000Y-17596000D02*
G75*
G02*
X13439000Y-17596000I50000J0D01*
G01*
X13693000Y-10658000D02*
G75*
G02*
X13593000Y-10658000I-50000J0D01*
G01*
X13593000Y-10658000D02*
G75*
G02*
X13693000Y-10658000I50000J0D01*
G01*
X13693000Y-17342000D02*
G75*
G02*
X13593000Y-17342000I-50000J0D01*
G01*
X13593000Y-17342000D02*
G75*
G02*
X13693000Y-17342000I50000J0D01*
G01*
X13693000Y-17596000D02*
G75*
G02*
X13593000Y-17596000I-50000J0D01*
G01*
X13593000Y-17596000D02*
G75*
G02*
X13693000Y-17596000I50000J0D01*
G01*
D11*
X10255777Y-18316484D02*
X10255777Y-18116484D01*
X10255777Y-18116484D02*
X10303396Y-18116484D01*
X10303396Y-18116484D02*
X10331967Y-18126008D01*
X10331967Y-18126008D02*
X10351015Y-18145055D01*
X10351015Y-18145055D02*
X10360539Y-18164103D01*
X10360539Y-18164103D02*
X10370063Y-18202198D01*
X10370063Y-18202198D02*
X10370063Y-18230770D01*
X10370063Y-18230770D02*
X10360539Y-18268865D01*
X10360539Y-18268865D02*
X10351015Y-18287912D01*
X10351015Y-18287912D02*
X10331967Y-18306960D01*
X10331967Y-18306960D02*
X10303396Y-18316484D01*
X10303396Y-18316484D02*
X10255777Y-18316484D01*
X10455777Y-18316484D02*
X10455777Y-18183150D01*
X10455777Y-18221246D02*
X10465301Y-18202198D01*
X10465301Y-18202198D02*
X10474824Y-18192674D01*
X10474824Y-18192674D02*
X10493872Y-18183150D01*
X10493872Y-18183150D02*
X10512920Y-18183150D01*
X10579586Y-18316484D02*
X10579586Y-18183150D01*
X10579586Y-18116484D02*
X10570063Y-18126008D01*
X10570063Y-18126008D02*
X10579586Y-18135531D01*
X10579586Y-18135531D02*
X10589110Y-18126008D01*
X10589110Y-18126008D02*
X10579586Y-18116484D01*
X10579586Y-18116484D02*
X10579586Y-18135531D01*
X10703396Y-18316484D02*
X10684348Y-18306960D01*
X10684348Y-18306960D02*
X10674824Y-18287912D01*
X10674824Y-18287912D02*
X10674824Y-18116484D01*
X10808158Y-18316484D02*
X10789110Y-18306960D01*
X10789110Y-18306960D02*
X10779586Y-18287912D01*
X10779586Y-18287912D02*
X10779586Y-18116484D01*
X11036729Y-18316484D02*
X11036729Y-18116484D01*
X11036729Y-18116484D02*
X11103396Y-18259341D01*
X11103396Y-18259341D02*
X11170063Y-18116484D01*
X11170063Y-18116484D02*
X11170063Y-18316484D01*
X11351015Y-18316484D02*
X11351015Y-18211722D01*
X11351015Y-18211722D02*
X11341491Y-18192674D01*
X11341491Y-18192674D02*
X11322443Y-18183150D01*
X11322443Y-18183150D02*
X11284348Y-18183150D01*
X11284348Y-18183150D02*
X11265301Y-18192674D01*
X11351015Y-18306960D02*
X11331967Y-18316484D01*
X11331967Y-18316484D02*
X11284348Y-18316484D01*
X11284348Y-18316484D02*
X11265301Y-18306960D01*
X11265301Y-18306960D02*
X11255777Y-18287912D01*
X11255777Y-18287912D02*
X11255777Y-18268865D01*
X11255777Y-18268865D02*
X11265301Y-18249817D01*
X11265301Y-18249817D02*
X11284348Y-18240293D01*
X11284348Y-18240293D02*
X11331967Y-18240293D01*
X11331967Y-18240293D02*
X11351015Y-18230770D01*
X11446253Y-18183150D02*
X11446253Y-18383150D01*
X11446253Y-18192674D02*
X11465301Y-18183150D01*
X11465301Y-18183150D02*
X11503396Y-18183150D01*
X11503396Y-18183150D02*
X11522443Y-18192674D01*
X11522443Y-18192674D02*
X11531967Y-18202198D01*
X11531967Y-18202198D02*
X11541491Y-18221246D01*
X11541491Y-18221246D02*
X11541491Y-18278389D01*
X11541491Y-18278389D02*
X11531967Y-18297436D01*
X11531967Y-18297436D02*
X11522443Y-18306960D01*
X11522443Y-18306960D02*
X11503396Y-18316484D01*
X11503396Y-18316484D02*
X11465301Y-18316484D01*
X11465301Y-18316484D02*
X11446253Y-18306960D01*
X11627205Y-18297436D02*
X11636729Y-18306960D01*
X11636729Y-18306960D02*
X11627205Y-18316484D01*
X11627205Y-18316484D02*
X11617682Y-18306960D01*
X11617682Y-18306960D02*
X11627205Y-18297436D01*
X11627205Y-18297436D02*
X11627205Y-18316484D01*
X11627205Y-18192674D02*
X11636729Y-18202198D01*
X11636729Y-18202198D02*
X11627205Y-18211722D01*
X11627205Y-18211722D02*
X11617682Y-18202198D01*
X11617682Y-18202198D02*
X11627205Y-18192674D01*
X11627205Y-18192674D02*
X11627205Y-18211722D01*
D10*
X9965000Y-18630000D02*
X9995000Y-18660000D01*
X9995000Y-18630000D02*
X9965000Y-18660000D01*
D11*
X10293872Y-18536484D02*
X10312920Y-18536484D01*
X10312920Y-18536484D02*
X10331967Y-18546008D01*
X10331967Y-18546008D02*
X10341491Y-18555531D01*
X10341491Y-18555531D02*
X10351015Y-18574579D01*
X10351015Y-18574579D02*
X10360539Y-18612674D01*
X10360539Y-18612674D02*
X10360539Y-18660293D01*
X10360539Y-18660293D02*
X10351015Y-18698389D01*
X10351015Y-18698389D02*
X10341491Y-18717436D01*
X10341491Y-18717436D02*
X10331967Y-18726960D01*
X10331967Y-18726960D02*
X10312920Y-18736484D01*
X10312920Y-18736484D02*
X10293872Y-18736484D01*
X10293872Y-18736484D02*
X10274824Y-18726960D01*
X10274824Y-18726960D02*
X10265301Y-18717436D01*
X10265301Y-18717436D02*
X10255777Y-18698389D01*
X10255777Y-18698389D02*
X10246253Y-18660293D01*
X10246253Y-18660293D02*
X10246253Y-18612674D01*
X10246253Y-18612674D02*
X10255777Y-18574579D01*
X10255777Y-18574579D02*
X10265301Y-18555531D01*
X10265301Y-18555531D02*
X10274824Y-18546008D01*
X10274824Y-18546008D02*
X10293872Y-18536484D01*
X10455777Y-18726960D02*
X10455777Y-18736484D01*
X10455777Y-18736484D02*
X10446253Y-18755531D01*
X10446253Y-18755531D02*
X10436729Y-18765055D01*
X10522444Y-18536484D02*
X10646253Y-18536484D01*
X10646253Y-18536484D02*
X10579586Y-18612674D01*
X10579586Y-18612674D02*
X10608158Y-18612674D01*
X10608158Y-18612674D02*
X10627205Y-18622198D01*
X10627205Y-18622198D02*
X10636729Y-18631722D01*
X10636729Y-18631722D02*
X10646253Y-18650770D01*
X10646253Y-18650770D02*
X10646253Y-18698389D01*
X10646253Y-18698389D02*
X10636729Y-18717436D01*
X10636729Y-18717436D02*
X10627205Y-18726960D01*
X10627205Y-18726960D02*
X10608158Y-18736484D01*
X10608158Y-18736484D02*
X10551015Y-18736484D01*
X10551015Y-18736484D02*
X10531967Y-18726960D01*
X10531967Y-18726960D02*
X10522444Y-18717436D01*
X10770063Y-18536484D02*
X10789110Y-18536484D01*
X10789110Y-18536484D02*
X10808158Y-18546008D01*
X10808158Y-18546008D02*
X10817682Y-18555531D01*
X10817682Y-18555531D02*
X10827205Y-18574579D01*
X10827205Y-18574579D02*
X10836729Y-18612674D01*
X10836729Y-18612674D02*
X10836729Y-18660293D01*
X10836729Y-18660293D02*
X10827205Y-18698389D01*
X10827205Y-18698389D02*
X10817682Y-18717436D01*
X10817682Y-18717436D02*
X10808158Y-18726960D01*
X10808158Y-18726960D02*
X10789110Y-18736484D01*
X10789110Y-18736484D02*
X10770063Y-18736484D01*
X10770063Y-18736484D02*
X10751015Y-18726960D01*
X10751015Y-18726960D02*
X10741491Y-18717436D01*
X10741491Y-18717436D02*
X10731967Y-18698389D01*
X10731967Y-18698389D02*
X10722444Y-18660293D01*
X10722444Y-18660293D02*
X10722444Y-18612674D01*
X10722444Y-18612674D02*
X10731967Y-18574579D01*
X10731967Y-18574579D02*
X10741491Y-18555531D01*
X10741491Y-18555531D02*
X10751015Y-18546008D01*
X10751015Y-18546008D02*
X10770063Y-18536484D01*
X10960539Y-18536484D02*
X10979586Y-18536484D01*
X10979586Y-18536484D02*
X10998634Y-18546008D01*
X10998634Y-18546008D02*
X11008158Y-18555531D01*
X11008158Y-18555531D02*
X11017682Y-18574579D01*
X11017682Y-18574579D02*
X11027205Y-18612674D01*
X11027205Y-18612674D02*
X11027205Y-18660293D01*
X11027205Y-18660293D02*
X11017682Y-18698389D01*
X11017682Y-18698389D02*
X11008158Y-18717436D01*
X11008158Y-18717436D02*
X10998634Y-18726960D01*
X10998634Y-18726960D02*
X10979586Y-18736484D01*
X10979586Y-18736484D02*
X10960539Y-18736484D01*
X10960539Y-18736484D02*
X10941491Y-18726960D01*
X10941491Y-18726960D02*
X10931967Y-18717436D01*
X10931967Y-18717436D02*
X10922444Y-18698389D01*
X10922444Y-18698389D02*
X10912920Y-18660293D01*
X10912920Y-18660293D02*
X10912920Y-18612674D01*
X10912920Y-18612674D02*
X10922444Y-18574579D01*
X10922444Y-18574579D02*
X10931967Y-18555531D01*
X10931967Y-18555531D02*
X10941491Y-18546008D01*
X10941491Y-18546008D02*
X10960539Y-18536484D01*
X11112920Y-18736484D02*
X11112920Y-18603150D01*
X11112920Y-18622198D02*
X11122444Y-18612674D01*
X11122444Y-18612674D02*
X11141491Y-18603150D01*
X11141491Y-18603150D02*
X11170063Y-18603150D01*
X11170063Y-18603150D02*
X11189110Y-18612674D01*
X11189110Y-18612674D02*
X11198634Y-18631722D01*
X11198634Y-18631722D02*
X11198634Y-18736484D01*
X11198634Y-18631722D02*
X11208158Y-18612674D01*
X11208158Y-18612674D02*
X11227205Y-18603150D01*
X11227205Y-18603150D02*
X11255777Y-18603150D01*
X11255777Y-18603150D02*
X11274824Y-18612674D01*
X11274824Y-18612674D02*
X11284348Y-18631722D01*
X11284348Y-18631722D02*
X11284348Y-18736484D01*
X11379586Y-18736484D02*
X11379586Y-18603150D01*
X11379586Y-18622198D02*
X11389110Y-18612674D01*
X11389110Y-18612674D02*
X11408158Y-18603150D01*
X11408158Y-18603150D02*
X11436729Y-18603150D01*
X11436729Y-18603150D02*
X11455777Y-18612674D01*
X11455777Y-18612674D02*
X11465301Y-18631722D01*
X11465301Y-18631722D02*
X11465301Y-18736484D01*
X11465301Y-18631722D02*
X11474824Y-18612674D01*
X11474824Y-18612674D02*
X11493872Y-18603150D01*
X11493872Y-18603150D02*
X11522443Y-18603150D01*
X11522443Y-18603150D02*
X11541491Y-18612674D01*
X11541491Y-18612674D02*
X11551015Y-18631722D01*
X11551015Y-18631722D02*
X11551015Y-18736484D01*
X11941491Y-18526960D02*
X11770063Y-18784103D01*
X12198634Y-18536484D02*
X12217682Y-18536484D01*
X12217682Y-18536484D02*
X12236729Y-18546008D01*
X12236729Y-18546008D02*
X12246253Y-18555531D01*
X12246253Y-18555531D02*
X12255777Y-18574579D01*
X12255777Y-18574579D02*
X12265301Y-18612674D01*
X12265301Y-18612674D02*
X12265301Y-18660293D01*
X12265301Y-18660293D02*
X12255777Y-18698389D01*
X12255777Y-18698389D02*
X12246253Y-18717436D01*
X12246253Y-18717436D02*
X12236729Y-18726960D01*
X12236729Y-18726960D02*
X12217682Y-18736484D01*
X12217682Y-18736484D02*
X12198634Y-18736484D01*
X12198634Y-18736484D02*
X12179586Y-18726960D01*
X12179586Y-18726960D02*
X12170063Y-18717436D01*
X12170063Y-18717436D02*
X12160539Y-18698389D01*
X12160539Y-18698389D02*
X12151015Y-18660293D01*
X12151015Y-18660293D02*
X12151015Y-18612674D01*
X12151015Y-18612674D02*
X12160539Y-18574579D01*
X12160539Y-18574579D02*
X12170063Y-18555531D01*
X12170063Y-18555531D02*
X12179586Y-18546008D01*
X12179586Y-18546008D02*
X12198634Y-18536484D01*
X12360539Y-18726960D02*
X12360539Y-18736484D01*
X12360539Y-18736484D02*
X12351015Y-18755531D01*
X12351015Y-18755531D02*
X12341491Y-18765055D01*
X12484348Y-18536484D02*
X12503396Y-18536484D01*
X12503396Y-18536484D02*
X12522444Y-18546008D01*
X12522444Y-18546008D02*
X12531967Y-18555531D01*
X12531967Y-18555531D02*
X12541491Y-18574579D01*
X12541491Y-18574579D02*
X12551015Y-18612674D01*
X12551015Y-18612674D02*
X12551015Y-18660293D01*
X12551015Y-18660293D02*
X12541491Y-18698389D01*
X12541491Y-18698389D02*
X12531967Y-18717436D01*
X12531967Y-18717436D02*
X12522444Y-18726960D01*
X12522444Y-18726960D02*
X12503396Y-18736484D01*
X12503396Y-18736484D02*
X12484348Y-18736484D01*
X12484348Y-18736484D02*
X12465301Y-18726960D01*
X12465301Y-18726960D02*
X12455777Y-18717436D01*
X12455777Y-18717436D02*
X12446253Y-18698389D01*
X12446253Y-18698389D02*
X12436729Y-18660293D01*
X12436729Y-18660293D02*
X12436729Y-18612674D01*
X12436729Y-18612674D02*
X12446253Y-18574579D01*
X12446253Y-18574579D02*
X12455777Y-18555531D01*
X12455777Y-18555531D02*
X12465301Y-18546008D01*
X12465301Y-18546008D02*
X12484348Y-18536484D01*
X12741491Y-18736484D02*
X12627206Y-18736484D01*
X12684348Y-18736484D02*
X12684348Y-18536484D01*
X12684348Y-18536484D02*
X12665301Y-18565055D01*
X12665301Y-18565055D02*
X12646253Y-18584103D01*
X12646253Y-18584103D02*
X12627206Y-18593627D01*
X12931967Y-18736484D02*
X12817682Y-18736484D01*
X12874825Y-18736484D02*
X12874825Y-18536484D01*
X12874825Y-18536484D02*
X12855777Y-18565055D01*
X12855777Y-18565055D02*
X12836729Y-18584103D01*
X12836729Y-18584103D02*
X12817682Y-18593627D01*
X13046253Y-18622198D02*
X13027206Y-18612674D01*
X13027206Y-18612674D02*
X13017682Y-18603150D01*
X13017682Y-18603150D02*
X13008158Y-18584103D01*
X13008158Y-18584103D02*
X13008158Y-18574579D01*
X13008158Y-18574579D02*
X13017682Y-18555531D01*
X13017682Y-18555531D02*
X13027206Y-18546008D01*
X13027206Y-18546008D02*
X13046253Y-18536484D01*
X13046253Y-18536484D02*
X13084348Y-18536484D01*
X13084348Y-18536484D02*
X13103396Y-18546008D01*
X13103396Y-18546008D02*
X13112920Y-18555531D01*
X13112920Y-18555531D02*
X13122444Y-18574579D01*
X13122444Y-18574579D02*
X13122444Y-18584103D01*
X13122444Y-18584103D02*
X13112920Y-18603150D01*
X13112920Y-18603150D02*
X13103396Y-18612674D01*
X13103396Y-18612674D02*
X13084348Y-18622198D01*
X13084348Y-18622198D02*
X13046253Y-18622198D01*
X13046253Y-18622198D02*
X13027206Y-18631722D01*
X13027206Y-18631722D02*
X13017682Y-18641246D01*
X13017682Y-18641246D02*
X13008158Y-18660293D01*
X13008158Y-18660293D02*
X13008158Y-18698389D01*
X13008158Y-18698389D02*
X13017682Y-18717436D01*
X13017682Y-18717436D02*
X13027206Y-18726960D01*
X13027206Y-18726960D02*
X13046253Y-18736484D01*
X13046253Y-18736484D02*
X13084348Y-18736484D01*
X13084348Y-18736484D02*
X13103396Y-18726960D01*
X13103396Y-18726960D02*
X13112920Y-18717436D01*
X13112920Y-18717436D02*
X13122444Y-18698389D01*
X13122444Y-18698389D02*
X13122444Y-18660293D01*
X13122444Y-18660293D02*
X13112920Y-18641246D01*
X13112920Y-18641246D02*
X13103396Y-18631722D01*
X13103396Y-18631722D02*
X13084348Y-18622198D01*
X13198634Y-18536484D02*
X13198634Y-18574579D01*
X13274825Y-18536484D02*
X13274825Y-18574579D01*
X13570063Y-18812674D02*
X13560539Y-18803150D01*
X13560539Y-18803150D02*
X13541491Y-18774579D01*
X13541491Y-18774579D02*
X13531968Y-18755531D01*
X13531968Y-18755531D02*
X13522444Y-18726960D01*
X13522444Y-18726960D02*
X13512920Y-18679341D01*
X13512920Y-18679341D02*
X13512920Y-18641246D01*
X13512920Y-18641246D02*
X13522444Y-18593627D01*
X13522444Y-18593627D02*
X13531968Y-18565055D01*
X13531968Y-18565055D02*
X13541491Y-18546008D01*
X13541491Y-18546008D02*
X13560539Y-18517436D01*
X13560539Y-18517436D02*
X13570063Y-18507912D01*
X13627206Y-18536484D02*
X13760539Y-18536484D01*
X13760539Y-18536484D02*
X13674825Y-18736484D01*
X13922444Y-18536484D02*
X13884348Y-18536484D01*
X13884348Y-18536484D02*
X13865301Y-18546008D01*
X13865301Y-18546008D02*
X13855777Y-18555531D01*
X13855777Y-18555531D02*
X13836729Y-18584103D01*
X13836729Y-18584103D02*
X13827206Y-18622198D01*
X13827206Y-18622198D02*
X13827206Y-18698389D01*
X13827206Y-18698389D02*
X13836729Y-18717436D01*
X13836729Y-18717436D02*
X13846253Y-18726960D01*
X13846253Y-18726960D02*
X13865301Y-18736484D01*
X13865301Y-18736484D02*
X13903396Y-18736484D01*
X13903396Y-18736484D02*
X13922444Y-18726960D01*
X13922444Y-18726960D02*
X13931968Y-18717436D01*
X13931968Y-18717436D02*
X13941491Y-18698389D01*
X13941491Y-18698389D02*
X13941491Y-18650770D01*
X13941491Y-18650770D02*
X13931968Y-18631722D01*
X13931968Y-18631722D02*
X13922444Y-18622198D01*
X13922444Y-18622198D02*
X13903396Y-18612674D01*
X13903396Y-18612674D02*
X13865301Y-18612674D01*
X13865301Y-18612674D02*
X13846253Y-18622198D01*
X13846253Y-18622198D02*
X13836729Y-18631722D01*
X13836729Y-18631722D02*
X13827206Y-18650770D01*
X14179587Y-18736484D02*
X14179587Y-18536484D01*
X14265301Y-18736484D02*
X14265301Y-18631722D01*
X14265301Y-18631722D02*
X14255777Y-18612674D01*
X14255777Y-18612674D02*
X14236730Y-18603150D01*
X14236730Y-18603150D02*
X14208158Y-18603150D01*
X14208158Y-18603150D02*
X14189110Y-18612674D01*
X14189110Y-18612674D02*
X14179587Y-18622198D01*
X14389110Y-18736484D02*
X14370063Y-18726960D01*
X14370063Y-18726960D02*
X14360539Y-18717436D01*
X14360539Y-18717436D02*
X14351015Y-18698389D01*
X14351015Y-18698389D02*
X14351015Y-18641246D01*
X14351015Y-18641246D02*
X14360539Y-18622198D01*
X14360539Y-18622198D02*
X14370063Y-18612674D01*
X14370063Y-18612674D02*
X14389110Y-18603150D01*
X14389110Y-18603150D02*
X14417682Y-18603150D01*
X14417682Y-18603150D02*
X14436730Y-18612674D01*
X14436730Y-18612674D02*
X14446253Y-18622198D01*
X14446253Y-18622198D02*
X14455777Y-18641246D01*
X14455777Y-18641246D02*
X14455777Y-18698389D01*
X14455777Y-18698389D02*
X14446253Y-18717436D01*
X14446253Y-18717436D02*
X14436730Y-18726960D01*
X14436730Y-18726960D02*
X14417682Y-18736484D01*
X14417682Y-18736484D02*
X14389110Y-18736484D01*
X14570063Y-18736484D02*
X14551015Y-18726960D01*
X14551015Y-18726960D02*
X14541491Y-18707912D01*
X14541491Y-18707912D02*
X14541491Y-18536484D01*
X14722444Y-18726960D02*
X14703396Y-18736484D01*
X14703396Y-18736484D02*
X14665301Y-18736484D01*
X14665301Y-18736484D02*
X14646253Y-18726960D01*
X14646253Y-18726960D02*
X14636730Y-18707912D01*
X14636730Y-18707912D02*
X14636730Y-18631722D01*
X14636730Y-18631722D02*
X14646253Y-18612674D01*
X14646253Y-18612674D02*
X14665301Y-18603150D01*
X14665301Y-18603150D02*
X14703396Y-18603150D01*
X14703396Y-18603150D02*
X14722444Y-18612674D01*
X14722444Y-18612674D02*
X14731968Y-18631722D01*
X14731968Y-18631722D02*
X14731968Y-18650770D01*
X14731968Y-18650770D02*
X14636730Y-18669817D01*
X14808158Y-18726960D02*
X14827206Y-18736484D01*
X14827206Y-18736484D02*
X14865301Y-18736484D01*
X14865301Y-18736484D02*
X14884349Y-18726960D01*
X14884349Y-18726960D02*
X14893872Y-18707912D01*
X14893872Y-18707912D02*
X14893872Y-18698389D01*
X14893872Y-18698389D02*
X14884349Y-18679341D01*
X14884349Y-18679341D02*
X14865301Y-18669817D01*
X14865301Y-18669817D02*
X14836730Y-18669817D01*
X14836730Y-18669817D02*
X14817682Y-18660293D01*
X14817682Y-18660293D02*
X14808158Y-18641246D01*
X14808158Y-18641246D02*
X14808158Y-18631722D01*
X14808158Y-18631722D02*
X14817682Y-18612674D01*
X14817682Y-18612674D02*
X14836730Y-18603150D01*
X14836730Y-18603150D02*
X14865301Y-18603150D01*
X14865301Y-18603150D02*
X14884349Y-18612674D01*
X14960539Y-18812674D02*
X14970063Y-18803150D01*
X14970063Y-18803150D02*
X14989111Y-18774579D01*
X14989111Y-18774579D02*
X14998634Y-18755531D01*
X14998634Y-18755531D02*
X15008158Y-18726960D01*
X15008158Y-18726960D02*
X15017682Y-18679341D01*
X15017682Y-18679341D02*
X15017682Y-18641246D01*
X15017682Y-18641246D02*
X15008158Y-18593627D01*
X15008158Y-18593627D02*
X14998634Y-18565055D01*
X14998634Y-18565055D02*
X14989111Y-18546008D01*
X14989111Y-18546008D02*
X14970063Y-18517436D01*
X14970063Y-18517436D02*
X14960539Y-18507912D01*
D10*
X9995000Y-18909000D02*
G75*
G02*
X9895000Y-18909000I-50000J0D01*
G01*
X9895000Y-18909000D02*
G75*
G02*
X9995000Y-18909000I50000J0D01*
G01*
D11*
X10360539Y-19000484D02*
X10246253Y-19000484D01*
X10303396Y-19000484D02*
X10303396Y-18800484D01*
X10303396Y-18800484D02*
X10284348Y-18829055D01*
X10284348Y-18829055D02*
X10265301Y-18848103D01*
X10265301Y-18848103D02*
X10246253Y-18857627D01*
X10455777Y-18990960D02*
X10455777Y-19000484D01*
X10455777Y-19000484D02*
X10446253Y-19019531D01*
X10446253Y-19019531D02*
X10436729Y-19029055D01*
X10579586Y-18800484D02*
X10598634Y-18800484D01*
X10598634Y-18800484D02*
X10617682Y-18810008D01*
X10617682Y-18810008D02*
X10627205Y-18819531D01*
X10627205Y-18819531D02*
X10636729Y-18838579D01*
X10636729Y-18838579D02*
X10646253Y-18876674D01*
X10646253Y-18876674D02*
X10646253Y-18924293D01*
X10646253Y-18924293D02*
X10636729Y-18962389D01*
X10636729Y-18962389D02*
X10627205Y-18981436D01*
X10627205Y-18981436D02*
X10617682Y-18990960D01*
X10617682Y-18990960D02*
X10598634Y-19000484D01*
X10598634Y-19000484D02*
X10579586Y-19000484D01*
X10579586Y-19000484D02*
X10560539Y-18990960D01*
X10560539Y-18990960D02*
X10551015Y-18981436D01*
X10551015Y-18981436D02*
X10541491Y-18962389D01*
X10541491Y-18962389D02*
X10531967Y-18924293D01*
X10531967Y-18924293D02*
X10531967Y-18876674D01*
X10531967Y-18876674D02*
X10541491Y-18838579D01*
X10541491Y-18838579D02*
X10551015Y-18819531D01*
X10551015Y-18819531D02*
X10560539Y-18810008D01*
X10560539Y-18810008D02*
X10579586Y-18800484D01*
X10770063Y-18800484D02*
X10789110Y-18800484D01*
X10789110Y-18800484D02*
X10808158Y-18810008D01*
X10808158Y-18810008D02*
X10817682Y-18819531D01*
X10817682Y-18819531D02*
X10827205Y-18838579D01*
X10827205Y-18838579D02*
X10836729Y-18876674D01*
X10836729Y-18876674D02*
X10836729Y-18924293D01*
X10836729Y-18924293D02*
X10827205Y-18962389D01*
X10827205Y-18962389D02*
X10817682Y-18981436D01*
X10817682Y-18981436D02*
X10808158Y-18990960D01*
X10808158Y-18990960D02*
X10789110Y-19000484D01*
X10789110Y-19000484D02*
X10770063Y-19000484D01*
X10770063Y-19000484D02*
X10751015Y-18990960D01*
X10751015Y-18990960D02*
X10741491Y-18981436D01*
X10741491Y-18981436D02*
X10731967Y-18962389D01*
X10731967Y-18962389D02*
X10722444Y-18924293D01*
X10722444Y-18924293D02*
X10722444Y-18876674D01*
X10722444Y-18876674D02*
X10731967Y-18838579D01*
X10731967Y-18838579D02*
X10741491Y-18819531D01*
X10741491Y-18819531D02*
X10751015Y-18810008D01*
X10751015Y-18810008D02*
X10770063Y-18800484D01*
X10960539Y-18800484D02*
X10979586Y-18800484D01*
X10979586Y-18800484D02*
X10998634Y-18810008D01*
X10998634Y-18810008D02*
X11008158Y-18819531D01*
X11008158Y-18819531D02*
X11017682Y-18838579D01*
X11017682Y-18838579D02*
X11027205Y-18876674D01*
X11027205Y-18876674D02*
X11027205Y-18924293D01*
X11027205Y-18924293D02*
X11017682Y-18962389D01*
X11017682Y-18962389D02*
X11008158Y-18981436D01*
X11008158Y-18981436D02*
X10998634Y-18990960D01*
X10998634Y-18990960D02*
X10979586Y-19000484D01*
X10979586Y-19000484D02*
X10960539Y-19000484D01*
X10960539Y-19000484D02*
X10941491Y-18990960D01*
X10941491Y-18990960D02*
X10931967Y-18981436D01*
X10931967Y-18981436D02*
X10922444Y-18962389D01*
X10922444Y-18962389D02*
X10912920Y-18924293D01*
X10912920Y-18924293D02*
X10912920Y-18876674D01*
X10912920Y-18876674D02*
X10922444Y-18838579D01*
X10922444Y-18838579D02*
X10931967Y-18819531D01*
X10931967Y-18819531D02*
X10941491Y-18810008D01*
X10941491Y-18810008D02*
X10960539Y-18800484D01*
X11112920Y-19000484D02*
X11112920Y-18867150D01*
X11112920Y-18886198D02*
X11122444Y-18876674D01*
X11122444Y-18876674D02*
X11141491Y-18867150D01*
X11141491Y-18867150D02*
X11170063Y-18867150D01*
X11170063Y-18867150D02*
X11189110Y-18876674D01*
X11189110Y-18876674D02*
X11198634Y-18895722D01*
X11198634Y-18895722D02*
X11198634Y-19000484D01*
X11198634Y-18895722D02*
X11208158Y-18876674D01*
X11208158Y-18876674D02*
X11227205Y-18867150D01*
X11227205Y-18867150D02*
X11255777Y-18867150D01*
X11255777Y-18867150D02*
X11274824Y-18876674D01*
X11274824Y-18876674D02*
X11284348Y-18895722D01*
X11284348Y-18895722D02*
X11284348Y-19000484D01*
X11379586Y-19000484D02*
X11379586Y-18867150D01*
X11379586Y-18886198D02*
X11389110Y-18876674D01*
X11389110Y-18876674D02*
X11408158Y-18867150D01*
X11408158Y-18867150D02*
X11436729Y-18867150D01*
X11436729Y-18867150D02*
X11455777Y-18876674D01*
X11455777Y-18876674D02*
X11465301Y-18895722D01*
X11465301Y-18895722D02*
X11465301Y-19000484D01*
X11465301Y-18895722D02*
X11474824Y-18876674D01*
X11474824Y-18876674D02*
X11493872Y-18867150D01*
X11493872Y-18867150D02*
X11522443Y-18867150D01*
X11522443Y-18867150D02*
X11541491Y-18876674D01*
X11541491Y-18876674D02*
X11551015Y-18895722D01*
X11551015Y-18895722D02*
X11551015Y-19000484D01*
X11941491Y-18790960D02*
X11770063Y-19048103D01*
X12198634Y-18800484D02*
X12217682Y-18800484D01*
X12217682Y-18800484D02*
X12236729Y-18810008D01*
X12236729Y-18810008D02*
X12246253Y-18819531D01*
X12246253Y-18819531D02*
X12255777Y-18838579D01*
X12255777Y-18838579D02*
X12265301Y-18876674D01*
X12265301Y-18876674D02*
X12265301Y-18924293D01*
X12265301Y-18924293D02*
X12255777Y-18962389D01*
X12255777Y-18962389D02*
X12246253Y-18981436D01*
X12246253Y-18981436D02*
X12236729Y-18990960D01*
X12236729Y-18990960D02*
X12217682Y-19000484D01*
X12217682Y-19000484D02*
X12198634Y-19000484D01*
X12198634Y-19000484D02*
X12179586Y-18990960D01*
X12179586Y-18990960D02*
X12170063Y-18981436D01*
X12170063Y-18981436D02*
X12160539Y-18962389D01*
X12160539Y-18962389D02*
X12151015Y-18924293D01*
X12151015Y-18924293D02*
X12151015Y-18876674D01*
X12151015Y-18876674D02*
X12160539Y-18838579D01*
X12160539Y-18838579D02*
X12170063Y-18819531D01*
X12170063Y-18819531D02*
X12179586Y-18810008D01*
X12179586Y-18810008D02*
X12198634Y-18800484D01*
X12360539Y-18990960D02*
X12360539Y-19000484D01*
X12360539Y-19000484D02*
X12351015Y-19019531D01*
X12351015Y-19019531D02*
X12341491Y-19029055D01*
X12484348Y-18800484D02*
X12503396Y-18800484D01*
X12503396Y-18800484D02*
X12522444Y-18810008D01*
X12522444Y-18810008D02*
X12531967Y-18819531D01*
X12531967Y-18819531D02*
X12541491Y-18838579D01*
X12541491Y-18838579D02*
X12551015Y-18876674D01*
X12551015Y-18876674D02*
X12551015Y-18924293D01*
X12551015Y-18924293D02*
X12541491Y-18962389D01*
X12541491Y-18962389D02*
X12531967Y-18981436D01*
X12531967Y-18981436D02*
X12522444Y-18990960D01*
X12522444Y-18990960D02*
X12503396Y-19000484D01*
X12503396Y-19000484D02*
X12484348Y-19000484D01*
X12484348Y-19000484D02*
X12465301Y-18990960D01*
X12465301Y-18990960D02*
X12455777Y-18981436D01*
X12455777Y-18981436D02*
X12446253Y-18962389D01*
X12446253Y-18962389D02*
X12436729Y-18924293D01*
X12436729Y-18924293D02*
X12436729Y-18876674D01*
X12436729Y-18876674D02*
X12446253Y-18838579D01*
X12446253Y-18838579D02*
X12455777Y-18819531D01*
X12455777Y-18819531D02*
X12465301Y-18810008D01*
X12465301Y-18810008D02*
X12484348Y-18800484D01*
X12617682Y-18800484D02*
X12741491Y-18800484D01*
X12741491Y-18800484D02*
X12674825Y-18876674D01*
X12674825Y-18876674D02*
X12703396Y-18876674D01*
X12703396Y-18876674D02*
X12722444Y-18886198D01*
X12722444Y-18886198D02*
X12731967Y-18895722D01*
X12731967Y-18895722D02*
X12741491Y-18914770D01*
X12741491Y-18914770D02*
X12741491Y-18962389D01*
X12741491Y-18962389D02*
X12731967Y-18981436D01*
X12731967Y-18981436D02*
X12722444Y-18990960D01*
X12722444Y-18990960D02*
X12703396Y-19000484D01*
X12703396Y-19000484D02*
X12646253Y-19000484D01*
X12646253Y-19000484D02*
X12627206Y-18990960D01*
X12627206Y-18990960D02*
X12617682Y-18981436D01*
X12836729Y-19000484D02*
X12874825Y-19000484D01*
X12874825Y-19000484D02*
X12893872Y-18990960D01*
X12893872Y-18990960D02*
X12903396Y-18981436D01*
X12903396Y-18981436D02*
X12922444Y-18952865D01*
X12922444Y-18952865D02*
X12931967Y-18914770D01*
X12931967Y-18914770D02*
X12931967Y-18838579D01*
X12931967Y-18838579D02*
X12922444Y-18819531D01*
X12922444Y-18819531D02*
X12912920Y-18810008D01*
X12912920Y-18810008D02*
X12893872Y-18800484D01*
X12893872Y-18800484D02*
X12855777Y-18800484D01*
X12855777Y-18800484D02*
X12836729Y-18810008D01*
X12836729Y-18810008D02*
X12827206Y-18819531D01*
X12827206Y-18819531D02*
X12817682Y-18838579D01*
X12817682Y-18838579D02*
X12817682Y-18886198D01*
X12817682Y-18886198D02*
X12827206Y-18905246D01*
X12827206Y-18905246D02*
X12836729Y-18914770D01*
X12836729Y-18914770D02*
X12855777Y-18924293D01*
X12855777Y-18924293D02*
X12893872Y-18924293D01*
X12893872Y-18924293D02*
X12912920Y-18914770D01*
X12912920Y-18914770D02*
X12922444Y-18905246D01*
X12922444Y-18905246D02*
X12931967Y-18886198D01*
X13103396Y-18867150D02*
X13103396Y-19000484D01*
X13055777Y-18790960D02*
X13008158Y-18933817D01*
X13008158Y-18933817D02*
X13131967Y-18933817D01*
X13198634Y-18800484D02*
X13198634Y-18838579D01*
X13274825Y-18800484D02*
X13274825Y-18838579D01*
X13570063Y-19076674D02*
X13560539Y-19067150D01*
X13560539Y-19067150D02*
X13541491Y-19038579D01*
X13541491Y-19038579D02*
X13531968Y-19019531D01*
X13531968Y-19019531D02*
X13522444Y-18990960D01*
X13522444Y-18990960D02*
X13512920Y-18943341D01*
X13512920Y-18943341D02*
X13512920Y-18905246D01*
X13512920Y-18905246D02*
X13522444Y-18857627D01*
X13522444Y-18857627D02*
X13531968Y-18829055D01*
X13531968Y-18829055D02*
X13541491Y-18810008D01*
X13541491Y-18810008D02*
X13560539Y-18781436D01*
X13560539Y-18781436D02*
X13570063Y-18771912D01*
X13627206Y-18800484D02*
X13751015Y-18800484D01*
X13751015Y-18800484D02*
X13684348Y-18876674D01*
X13684348Y-18876674D02*
X13712920Y-18876674D01*
X13712920Y-18876674D02*
X13731968Y-18886198D01*
X13731968Y-18886198D02*
X13741491Y-18895722D01*
X13741491Y-18895722D02*
X13751015Y-18914770D01*
X13751015Y-18914770D02*
X13751015Y-18962389D01*
X13751015Y-18962389D02*
X13741491Y-18981436D01*
X13741491Y-18981436D02*
X13731968Y-18990960D01*
X13731968Y-18990960D02*
X13712920Y-19000484D01*
X13712920Y-19000484D02*
X13655777Y-19000484D01*
X13655777Y-19000484D02*
X13636729Y-18990960D01*
X13636729Y-18990960D02*
X13627206Y-18981436D01*
X13874825Y-18800484D02*
X13893872Y-18800484D01*
X13893872Y-18800484D02*
X13912920Y-18810008D01*
X13912920Y-18810008D02*
X13922444Y-18819531D01*
X13922444Y-18819531D02*
X13931968Y-18838579D01*
X13931968Y-18838579D02*
X13941491Y-18876674D01*
X13941491Y-18876674D02*
X13941491Y-18924293D01*
X13941491Y-18924293D02*
X13931968Y-18962389D01*
X13931968Y-18962389D02*
X13922444Y-18981436D01*
X13922444Y-18981436D02*
X13912920Y-18990960D01*
X13912920Y-18990960D02*
X13893872Y-19000484D01*
X13893872Y-19000484D02*
X13874825Y-19000484D01*
X13874825Y-19000484D02*
X13855777Y-18990960D01*
X13855777Y-18990960D02*
X13846253Y-18981436D01*
X13846253Y-18981436D02*
X13836729Y-18962389D01*
X13836729Y-18962389D02*
X13827206Y-18924293D01*
X13827206Y-18924293D02*
X13827206Y-18876674D01*
X13827206Y-18876674D02*
X13836729Y-18838579D01*
X13836729Y-18838579D02*
X13846253Y-18819531D01*
X13846253Y-18819531D02*
X13855777Y-18810008D01*
X13855777Y-18810008D02*
X13874825Y-18800484D01*
X14179587Y-19000484D02*
X14179587Y-18800484D01*
X14265301Y-19000484D02*
X14265301Y-18895722D01*
X14265301Y-18895722D02*
X14255777Y-18876674D01*
X14255777Y-18876674D02*
X14236730Y-18867150D01*
X14236730Y-18867150D02*
X14208158Y-18867150D01*
X14208158Y-18867150D02*
X14189110Y-18876674D01*
X14189110Y-18876674D02*
X14179587Y-18886198D01*
X14389110Y-19000484D02*
X14370063Y-18990960D01*
X14370063Y-18990960D02*
X14360539Y-18981436D01*
X14360539Y-18981436D02*
X14351015Y-18962389D01*
X14351015Y-18962389D02*
X14351015Y-18905246D01*
X14351015Y-18905246D02*
X14360539Y-18886198D01*
X14360539Y-18886198D02*
X14370063Y-18876674D01*
X14370063Y-18876674D02*
X14389110Y-18867150D01*
X14389110Y-18867150D02*
X14417682Y-18867150D01*
X14417682Y-18867150D02*
X14436730Y-18876674D01*
X14436730Y-18876674D02*
X14446253Y-18886198D01*
X14446253Y-18886198D02*
X14455777Y-18905246D01*
X14455777Y-18905246D02*
X14455777Y-18962389D01*
X14455777Y-18962389D02*
X14446253Y-18981436D01*
X14446253Y-18981436D02*
X14436730Y-18990960D01*
X14436730Y-18990960D02*
X14417682Y-19000484D01*
X14417682Y-19000484D02*
X14389110Y-19000484D01*
X14570063Y-19000484D02*
X14551015Y-18990960D01*
X14551015Y-18990960D02*
X14541491Y-18971912D01*
X14541491Y-18971912D02*
X14541491Y-18800484D01*
X14722444Y-18990960D02*
X14703396Y-19000484D01*
X14703396Y-19000484D02*
X14665301Y-19000484D01*
X14665301Y-19000484D02*
X14646253Y-18990960D01*
X14646253Y-18990960D02*
X14636730Y-18971912D01*
X14636730Y-18971912D02*
X14636730Y-18895722D01*
X14636730Y-18895722D02*
X14646253Y-18876674D01*
X14646253Y-18876674D02*
X14665301Y-18867150D01*
X14665301Y-18867150D02*
X14703396Y-18867150D01*
X14703396Y-18867150D02*
X14722444Y-18876674D01*
X14722444Y-18876674D02*
X14731968Y-18895722D01*
X14731968Y-18895722D02*
X14731968Y-18914770D01*
X14731968Y-18914770D02*
X14636730Y-18933817D01*
X14808158Y-18990960D02*
X14827206Y-19000484D01*
X14827206Y-19000484D02*
X14865301Y-19000484D01*
X14865301Y-19000484D02*
X14884349Y-18990960D01*
X14884349Y-18990960D02*
X14893872Y-18971912D01*
X14893872Y-18971912D02*
X14893872Y-18962389D01*
X14893872Y-18962389D02*
X14884349Y-18943341D01*
X14884349Y-18943341D02*
X14865301Y-18933817D01*
X14865301Y-18933817D02*
X14836730Y-18933817D01*
X14836730Y-18933817D02*
X14817682Y-18924293D01*
X14817682Y-18924293D02*
X14808158Y-18905246D01*
X14808158Y-18905246D02*
X14808158Y-18895722D01*
X14808158Y-18895722D02*
X14817682Y-18876674D01*
X14817682Y-18876674D02*
X14836730Y-18867150D01*
X14836730Y-18867150D02*
X14865301Y-18867150D01*
X14865301Y-18867150D02*
X14884349Y-18876674D01*
X14960539Y-19076674D02*
X14970063Y-19067150D01*
X14970063Y-19067150D02*
X14989111Y-19038579D01*
X14989111Y-19038579D02*
X14998634Y-19019531D01*
X14998634Y-19019531D02*
X15008158Y-18990960D01*
X15008158Y-18990960D02*
X15017682Y-18943341D01*
X15017682Y-18943341D02*
X15017682Y-18905246D01*
X15017682Y-18905246D02*
X15008158Y-18857627D01*
X15008158Y-18857627D02*
X14998634Y-18829055D01*
X14998634Y-18829055D02*
X14989111Y-18810008D01*
X14989111Y-18810008D02*
X14970063Y-18781436D01*
X14970063Y-18781436D02*
X14960539Y-18771912D01*
M02*
