%TF.GenerationSoftware,KiCad,Pcbnew,10.0.3*%
%TF.CreationDate,2026-07-11T14:09:23+02:00*%
%TF.ProjectId,musicbrain-dac8,6d757369-6362-4726-9169-6e2d64616338,1.0*%
%TF.SameCoordinates,Original*%
%TF.FileFunction,Legend,Top*%
%TF.FilePolarity,Positive*%
%FSLAX46Y46*%
G04 Gerber Fmt 4.6, Leading zero omitted, Abs format (unit mm)*
G04 Created by KiCad (PCBNEW 10.0.3) date 2026-07-11 14:09:23*
%MOMM*%
%LPD*%
G01*
G04 APERTURE LIST*
%ADD10C,0.150000*%
%ADD11C,0.120000*%
G04 APERTURE END LIST*
D10*
X117285714Y-161454819D02*
X117285714Y-160788152D01*
X117285714Y-160883390D02*
X117333333Y-160835771D01*
X117333333Y-160835771D02*
X117428571Y-160788152D01*
X117428571Y-160788152D02*
X117571428Y-160788152D01*
X117571428Y-160788152D02*
X117666666Y-160835771D01*
X117666666Y-160835771D02*
X117714285Y-160931009D01*
X117714285Y-160931009D02*
X117714285Y-161454819D01*
X117714285Y-160931009D02*
X117761904Y-160835771D01*
X117761904Y-160835771D02*
X117857142Y-160788152D01*
X117857142Y-160788152D02*
X117999999Y-160788152D01*
X117999999Y-160788152D02*
X118095238Y-160835771D01*
X118095238Y-160835771D02*
X118142857Y-160931009D01*
X118142857Y-160931009D02*
X118142857Y-161454819D01*
X119047618Y-160788152D02*
X119047618Y-161454819D01*
X118619047Y-160788152D02*
X118619047Y-161311961D01*
X118619047Y-161311961D02*
X118666666Y-161407200D01*
X118666666Y-161407200D02*
X118761904Y-161454819D01*
X118761904Y-161454819D02*
X118904761Y-161454819D01*
X118904761Y-161454819D02*
X118999999Y-161407200D01*
X118999999Y-161407200D02*
X119047618Y-161359580D01*
X119476190Y-161407200D02*
X119571428Y-161454819D01*
X119571428Y-161454819D02*
X119761904Y-161454819D01*
X119761904Y-161454819D02*
X119857142Y-161407200D01*
X119857142Y-161407200D02*
X119904761Y-161311961D01*
X119904761Y-161311961D02*
X119904761Y-161264342D01*
X119904761Y-161264342D02*
X119857142Y-161169104D01*
X119857142Y-161169104D02*
X119761904Y-161121485D01*
X119761904Y-161121485D02*
X119619047Y-161121485D01*
X119619047Y-161121485D02*
X119523809Y-161073866D01*
X119523809Y-161073866D02*
X119476190Y-160978628D01*
X119476190Y-160978628D02*
X119476190Y-160931009D01*
X119476190Y-160931009D02*
X119523809Y-160835771D01*
X119523809Y-160835771D02*
X119619047Y-160788152D01*
X119619047Y-160788152D02*
X119761904Y-160788152D01*
X119761904Y-160788152D02*
X119857142Y-160835771D01*
X120333333Y-161454819D02*
X120333333Y-160788152D01*
X120333333Y-160454819D02*
X120285714Y-160502438D01*
X120285714Y-160502438D02*
X120333333Y-160550057D01*
X120333333Y-160550057D02*
X120380952Y-160502438D01*
X120380952Y-160502438D02*
X120333333Y-160454819D01*
X120333333Y-160454819D02*
X120333333Y-160550057D01*
X121238094Y-161407200D02*
X121142856Y-161454819D01*
X121142856Y-161454819D02*
X120952380Y-161454819D01*
X120952380Y-161454819D02*
X120857142Y-161407200D01*
X120857142Y-161407200D02*
X120809523Y-161359580D01*
X120809523Y-161359580D02*
X120761904Y-161264342D01*
X120761904Y-161264342D02*
X120761904Y-160978628D01*
X120761904Y-160978628D02*
X120809523Y-160883390D01*
X120809523Y-160883390D02*
X120857142Y-160835771D01*
X120857142Y-160835771D02*
X120952380Y-160788152D01*
X120952380Y-160788152D02*
X121142856Y-160788152D01*
X121142856Y-160788152D02*
X121238094Y-160835771D01*
X121666666Y-161454819D02*
X121666666Y-160454819D01*
X121666666Y-160835771D02*
X121761904Y-160788152D01*
X121761904Y-160788152D02*
X121952380Y-160788152D01*
X121952380Y-160788152D02*
X122047618Y-160835771D01*
X122047618Y-160835771D02*
X122095237Y-160883390D01*
X122095237Y-160883390D02*
X122142856Y-160978628D01*
X122142856Y-160978628D02*
X122142856Y-161264342D01*
X122142856Y-161264342D02*
X122095237Y-161359580D01*
X122095237Y-161359580D02*
X122047618Y-161407200D01*
X122047618Y-161407200D02*
X121952380Y-161454819D01*
X121952380Y-161454819D02*
X121761904Y-161454819D01*
X121761904Y-161454819D02*
X121666666Y-161407200D01*
X122571428Y-161454819D02*
X122571428Y-160788152D01*
X122571428Y-160978628D02*
X122619047Y-160883390D01*
X122619047Y-160883390D02*
X122666666Y-160835771D01*
X122666666Y-160835771D02*
X122761904Y-160788152D01*
X122761904Y-160788152D02*
X122857142Y-160788152D01*
X123619047Y-161454819D02*
X123619047Y-160931009D01*
X123619047Y-160931009D02*
X123571428Y-160835771D01*
X123571428Y-160835771D02*
X123476190Y-160788152D01*
X123476190Y-160788152D02*
X123285714Y-160788152D01*
X123285714Y-160788152D02*
X123190476Y-160835771D01*
X123619047Y-161407200D02*
X123523809Y-161454819D01*
X123523809Y-161454819D02*
X123285714Y-161454819D01*
X123285714Y-161454819D02*
X123190476Y-161407200D01*
X123190476Y-161407200D02*
X123142857Y-161311961D01*
X123142857Y-161311961D02*
X123142857Y-161216723D01*
X123142857Y-161216723D02*
X123190476Y-161121485D01*
X123190476Y-161121485D02*
X123285714Y-161073866D01*
X123285714Y-161073866D02*
X123523809Y-161073866D01*
X123523809Y-161073866D02*
X123619047Y-161026247D01*
X124095238Y-161454819D02*
X124095238Y-160788152D01*
X124095238Y-160454819D02*
X124047619Y-160502438D01*
X124047619Y-160502438D02*
X124095238Y-160550057D01*
X124095238Y-160550057D02*
X124142857Y-160502438D01*
X124142857Y-160502438D02*
X124095238Y-160454819D01*
X124095238Y-160454819D02*
X124095238Y-160550057D01*
X124571428Y-160788152D02*
X124571428Y-161454819D01*
X124571428Y-160883390D02*
X124619047Y-160835771D01*
X124619047Y-160835771D02*
X124714285Y-160788152D01*
X124714285Y-160788152D02*
X124857142Y-160788152D01*
X124857142Y-160788152D02*
X124952380Y-160835771D01*
X124952380Y-160835771D02*
X124999999Y-160931009D01*
X124999999Y-160931009D02*
X124999999Y-161454819D01*
X125476190Y-161359580D02*
X125523809Y-161407200D01*
X125523809Y-161407200D02*
X125476190Y-161454819D01*
X125476190Y-161454819D02*
X125428571Y-161407200D01*
X125428571Y-161407200D02*
X125476190Y-161359580D01*
X125476190Y-161359580D02*
X125476190Y-161454819D01*
X125952380Y-160788152D02*
X125952380Y-161454819D01*
X125952380Y-160883390D02*
X125999999Y-160835771D01*
X125999999Y-160835771D02*
X126095237Y-160788152D01*
X126095237Y-160788152D02*
X126238094Y-160788152D01*
X126238094Y-160788152D02*
X126333332Y-160835771D01*
X126333332Y-160835771D02*
X126380951Y-160931009D01*
X126380951Y-160931009D02*
X126380951Y-161454819D01*
X126999999Y-161454819D02*
X126904761Y-161407200D01*
X126904761Y-161407200D02*
X126857142Y-161311961D01*
X126857142Y-161311961D02*
X126857142Y-160454819D01*
X128095237Y-160407200D02*
X127238095Y-161692914D01*
X128428571Y-161454819D02*
X128428571Y-160454819D01*
X128857142Y-161454819D02*
X128857142Y-160931009D01*
X128857142Y-160931009D02*
X128809523Y-160835771D01*
X128809523Y-160835771D02*
X128714285Y-160788152D01*
X128714285Y-160788152D02*
X128571428Y-160788152D01*
X128571428Y-160788152D02*
X128476190Y-160835771D01*
X128476190Y-160835771D02*
X128428571Y-160883390D01*
X129238095Y-160788152D02*
X129428571Y-161454819D01*
X129428571Y-161454819D02*
X129619047Y-160978628D01*
X129619047Y-160978628D02*
X129809523Y-161454819D01*
X129809523Y-161454819D02*
X129999999Y-160788152D01*
X131095237Y-160407200D02*
X130238095Y-161692914D01*
X131857142Y-161454819D02*
X131857142Y-160454819D01*
X131857142Y-161407200D02*
X131761904Y-161454819D01*
X131761904Y-161454819D02*
X131571428Y-161454819D01*
X131571428Y-161454819D02*
X131476190Y-161407200D01*
X131476190Y-161407200D02*
X131428571Y-161359580D01*
X131428571Y-161359580D02*
X131380952Y-161264342D01*
X131380952Y-161264342D02*
X131380952Y-160978628D01*
X131380952Y-160978628D02*
X131428571Y-160883390D01*
X131428571Y-160883390D02*
X131476190Y-160835771D01*
X131476190Y-160835771D02*
X131571428Y-160788152D01*
X131571428Y-160788152D02*
X131761904Y-160788152D01*
X131761904Y-160788152D02*
X131857142Y-160835771D01*
X132761904Y-161454819D02*
X132761904Y-160931009D01*
X132761904Y-160931009D02*
X132714285Y-160835771D01*
X132714285Y-160835771D02*
X132619047Y-160788152D01*
X132619047Y-160788152D02*
X132428571Y-160788152D01*
X132428571Y-160788152D02*
X132333333Y-160835771D01*
X132761904Y-161407200D02*
X132666666Y-161454819D01*
X132666666Y-161454819D02*
X132428571Y-161454819D01*
X132428571Y-161454819D02*
X132333333Y-161407200D01*
X132333333Y-161407200D02*
X132285714Y-161311961D01*
X132285714Y-161311961D02*
X132285714Y-161216723D01*
X132285714Y-161216723D02*
X132333333Y-161121485D01*
X132333333Y-161121485D02*
X132428571Y-161073866D01*
X132428571Y-161073866D02*
X132666666Y-161073866D01*
X132666666Y-161073866D02*
X132761904Y-161026247D01*
X133666666Y-161407200D02*
X133571428Y-161454819D01*
X133571428Y-161454819D02*
X133380952Y-161454819D01*
X133380952Y-161454819D02*
X133285714Y-161407200D01*
X133285714Y-161407200D02*
X133238095Y-161359580D01*
X133238095Y-161359580D02*
X133190476Y-161264342D01*
X133190476Y-161264342D02*
X133190476Y-160978628D01*
X133190476Y-160978628D02*
X133238095Y-160883390D01*
X133238095Y-160883390D02*
X133285714Y-160835771D01*
X133285714Y-160835771D02*
X133380952Y-160788152D01*
X133380952Y-160788152D02*
X133571428Y-160788152D01*
X133571428Y-160788152D02*
X133666666Y-160835771D01*
X134238095Y-160883390D02*
X134142857Y-160835771D01*
X134142857Y-160835771D02*
X134095238Y-160788152D01*
X134095238Y-160788152D02*
X134047619Y-160692914D01*
X134047619Y-160692914D02*
X134047619Y-160645295D01*
X134047619Y-160645295D02*
X134095238Y-160550057D01*
X134095238Y-160550057D02*
X134142857Y-160502438D01*
X134142857Y-160502438D02*
X134238095Y-160454819D01*
X134238095Y-160454819D02*
X134428571Y-160454819D01*
X134428571Y-160454819D02*
X134523809Y-160502438D01*
X134523809Y-160502438D02*
X134571428Y-160550057D01*
X134571428Y-160550057D02*
X134619047Y-160645295D01*
X134619047Y-160645295D02*
X134619047Y-160692914D01*
X134619047Y-160692914D02*
X134571428Y-160788152D01*
X134571428Y-160788152D02*
X134523809Y-160835771D01*
X134523809Y-160835771D02*
X134428571Y-160883390D01*
X134428571Y-160883390D02*
X134238095Y-160883390D01*
X134238095Y-160883390D02*
X134142857Y-160931009D01*
X134142857Y-160931009D02*
X134095238Y-160978628D01*
X134095238Y-160978628D02*
X134047619Y-161073866D01*
X134047619Y-161073866D02*
X134047619Y-161264342D01*
X134047619Y-161264342D02*
X134095238Y-161359580D01*
X134095238Y-161359580D02*
X134142857Y-161407200D01*
X134142857Y-161407200D02*
X134238095Y-161454819D01*
X134238095Y-161454819D02*
X134428571Y-161454819D01*
X134428571Y-161454819D02*
X134523809Y-161407200D01*
X134523809Y-161407200D02*
X134571428Y-161359580D01*
X134571428Y-161359580D02*
X134619047Y-161264342D01*
X134619047Y-161264342D02*
X134619047Y-161073866D01*
X134619047Y-161073866D02*
X134571428Y-160978628D01*
X134571428Y-160978628D02*
X134523809Y-160931009D01*
X134523809Y-160931009D02*
X134428571Y-160883390D01*
X135809524Y-161454819D02*
X135809524Y-160788152D01*
X135809524Y-160978628D02*
X135857143Y-160883390D01*
X135857143Y-160883390D02*
X135904762Y-160835771D01*
X135904762Y-160835771D02*
X136000000Y-160788152D01*
X136000000Y-160788152D02*
X136095238Y-160788152D01*
X136809524Y-161407200D02*
X136714286Y-161454819D01*
X136714286Y-161454819D02*
X136523810Y-161454819D01*
X136523810Y-161454819D02*
X136428572Y-161407200D01*
X136428572Y-161407200D02*
X136380953Y-161311961D01*
X136380953Y-161311961D02*
X136380953Y-160931009D01*
X136380953Y-160931009D02*
X136428572Y-160835771D01*
X136428572Y-160835771D02*
X136523810Y-160788152D01*
X136523810Y-160788152D02*
X136714286Y-160788152D01*
X136714286Y-160788152D02*
X136809524Y-160835771D01*
X136809524Y-160835771D02*
X136857143Y-160931009D01*
X136857143Y-160931009D02*
X136857143Y-161026247D01*
X136857143Y-161026247D02*
X136380953Y-161121485D01*
X137190477Y-160788152D02*
X137428572Y-161454819D01*
X137428572Y-161454819D02*
X137666667Y-160788152D01*
X139333334Y-161454819D02*
X138761906Y-161454819D01*
X139047620Y-161454819D02*
X139047620Y-160454819D01*
X139047620Y-160454819D02*
X138952382Y-160597676D01*
X138952382Y-160597676D02*
X138857144Y-160692914D01*
X138857144Y-160692914D02*
X138761906Y-160740533D01*
X139761906Y-161359580D02*
X139809525Y-161407200D01*
X139809525Y-161407200D02*
X139761906Y-161454819D01*
X139761906Y-161454819D02*
X139714287Y-161407200D01*
X139714287Y-161407200D02*
X139761906Y-161359580D01*
X139761906Y-161359580D02*
X139761906Y-161454819D01*
X140428572Y-160454819D02*
X140523810Y-160454819D01*
X140523810Y-160454819D02*
X140619048Y-160502438D01*
X140619048Y-160502438D02*
X140666667Y-160550057D01*
X140666667Y-160550057D02*
X140714286Y-160645295D01*
X140714286Y-160645295D02*
X140761905Y-160835771D01*
X140761905Y-160835771D02*
X140761905Y-161073866D01*
X140761905Y-161073866D02*
X140714286Y-161264342D01*
X140714286Y-161264342D02*
X140666667Y-161359580D01*
X140666667Y-161359580D02*
X140619048Y-161407200D01*
X140619048Y-161407200D02*
X140523810Y-161454819D01*
X140523810Y-161454819D02*
X140428572Y-161454819D01*
X140428572Y-161454819D02*
X140333334Y-161407200D01*
X140333334Y-161407200D02*
X140285715Y-161359580D01*
X140285715Y-161359580D02*
X140238096Y-161264342D01*
X140238096Y-161264342D02*
X140190477Y-161073866D01*
X140190477Y-161073866D02*
X140190477Y-160835771D01*
X140190477Y-160835771D02*
X140238096Y-160645295D01*
X140238096Y-160645295D02*
X140285715Y-160550057D01*
X140285715Y-160550057D02*
X140333334Y-160502438D01*
X140333334Y-160502438D02*
X140428572Y-160454819D01*
X138366666Y-178529819D02*
X138366666Y-179244104D01*
X138366666Y-179244104D02*
X138319047Y-179386961D01*
X138319047Y-179386961D02*
X138223809Y-179482200D01*
X138223809Y-179482200D02*
X138080952Y-179529819D01*
X138080952Y-179529819D02*
X137985714Y-179529819D01*
X139366666Y-179529819D02*
X138795238Y-179529819D01*
X139080952Y-179529819D02*
X139080952Y-178529819D01*
X139080952Y-178529819D02*
X138985714Y-178672676D01*
X138985714Y-178672676D02*
X138890476Y-178767914D01*
X138890476Y-178767914D02*
X138795238Y-178815533D01*
X110966666Y-101649819D02*
X110966666Y-102364104D01*
X110966666Y-102364104D02*
X110919047Y-102506961D01*
X110919047Y-102506961D02*
X110823809Y-102602200D01*
X110823809Y-102602200D02*
X110680952Y-102649819D01*
X110680952Y-102649819D02*
X110585714Y-102649819D01*
X111395238Y-101745057D02*
X111442857Y-101697438D01*
X111442857Y-101697438D02*
X111538095Y-101649819D01*
X111538095Y-101649819D02*
X111776190Y-101649819D01*
X111776190Y-101649819D02*
X111871428Y-101697438D01*
X111871428Y-101697438D02*
X111919047Y-101745057D01*
X111919047Y-101745057D02*
X111966666Y-101840295D01*
X111966666Y-101840295D02*
X111966666Y-101935533D01*
X111966666Y-101935533D02*
X111919047Y-102078390D01*
X111919047Y-102078390D02*
X111347619Y-102649819D01*
X111347619Y-102649819D02*
X111966666Y-102649819D01*
X112738095Y-125604819D02*
X112738095Y-126414342D01*
X112738095Y-126414342D02*
X112785714Y-126509580D01*
X112785714Y-126509580D02*
X112833333Y-126557200D01*
X112833333Y-126557200D02*
X112928571Y-126604819D01*
X112928571Y-126604819D02*
X113119047Y-126604819D01*
X113119047Y-126604819D02*
X113214285Y-126557200D01*
X113214285Y-126557200D02*
X113261904Y-126509580D01*
X113261904Y-126509580D02*
X113309523Y-126414342D01*
X113309523Y-126414342D02*
X113309523Y-125604819D01*
X114309523Y-126604819D02*
X113738095Y-126604819D01*
X114023809Y-126604819D02*
X114023809Y-125604819D01*
X114023809Y-125604819D02*
X113928571Y-125747676D01*
X113928571Y-125747676D02*
X113833333Y-125842914D01*
X113833333Y-125842914D02*
X113738095Y-125890533D01*
X126738095Y-125604819D02*
X126738095Y-126414342D01*
X126738095Y-126414342D02*
X126785714Y-126509580D01*
X126785714Y-126509580D02*
X126833333Y-126557200D01*
X126833333Y-126557200D02*
X126928571Y-126604819D01*
X126928571Y-126604819D02*
X127119047Y-126604819D01*
X127119047Y-126604819D02*
X127214285Y-126557200D01*
X127214285Y-126557200D02*
X127261904Y-126509580D01*
X127261904Y-126509580D02*
X127309523Y-126414342D01*
X127309523Y-126414342D02*
X127309523Y-125604819D01*
X127738095Y-125700057D02*
X127785714Y-125652438D01*
X127785714Y-125652438D02*
X127880952Y-125604819D01*
X127880952Y-125604819D02*
X128119047Y-125604819D01*
X128119047Y-125604819D02*
X128214285Y-125652438D01*
X128214285Y-125652438D02*
X128261904Y-125700057D01*
X128261904Y-125700057D02*
X128309523Y-125795295D01*
X128309523Y-125795295D02*
X128309523Y-125890533D01*
X128309523Y-125890533D02*
X128261904Y-126033390D01*
X128261904Y-126033390D02*
X127690476Y-126604819D01*
X127690476Y-126604819D02*
X128309523Y-126604819D01*
X126038095Y-146054819D02*
X126038095Y-146864342D01*
X126038095Y-146864342D02*
X126085714Y-146959580D01*
X126085714Y-146959580D02*
X126133333Y-147007200D01*
X126133333Y-147007200D02*
X126228571Y-147054819D01*
X126228571Y-147054819D02*
X126419047Y-147054819D01*
X126419047Y-147054819D02*
X126514285Y-147007200D01*
X126514285Y-147007200D02*
X126561904Y-146959580D01*
X126561904Y-146959580D02*
X126609523Y-146864342D01*
X126609523Y-146864342D02*
X126609523Y-146054819D01*
X126990476Y-146054819D02*
X127609523Y-146054819D01*
X127609523Y-146054819D02*
X127276190Y-146435771D01*
X127276190Y-146435771D02*
X127419047Y-146435771D01*
X127419047Y-146435771D02*
X127514285Y-146483390D01*
X127514285Y-146483390D02*
X127561904Y-146531009D01*
X127561904Y-146531009D02*
X127609523Y-146626247D01*
X127609523Y-146626247D02*
X127609523Y-146864342D01*
X127609523Y-146864342D02*
X127561904Y-146959580D01*
X127561904Y-146959580D02*
X127514285Y-147007200D01*
X127514285Y-147007200D02*
X127419047Y-147054819D01*
X127419047Y-147054819D02*
X127133333Y-147054819D01*
X127133333Y-147054819D02*
X127038095Y-147007200D01*
X127038095Y-147007200D02*
X126990476Y-146959580D01*
X112983333Y-160854819D02*
X112650000Y-160378628D01*
X112411905Y-160854819D02*
X112411905Y-159854819D01*
X112411905Y-159854819D02*
X112792857Y-159854819D01*
X112792857Y-159854819D02*
X112888095Y-159902438D01*
X112888095Y-159902438D02*
X112935714Y-159950057D01*
X112935714Y-159950057D02*
X112983333Y-160045295D01*
X112983333Y-160045295D02*
X112983333Y-160188152D01*
X112983333Y-160188152D02*
X112935714Y-160283390D01*
X112935714Y-160283390D02*
X112888095Y-160331009D01*
X112888095Y-160331009D02*
X112792857Y-160378628D01*
X112792857Y-160378628D02*
X112411905Y-160378628D01*
X113935714Y-160854819D02*
X113364286Y-160854819D01*
X113650000Y-160854819D02*
X113650000Y-159854819D01*
X113650000Y-159854819D02*
X113554762Y-159997676D01*
X113554762Y-159997676D02*
X113459524Y-160092914D01*
X113459524Y-160092914D02*
X113364286Y-160140533D01*
X117593333Y-112254819D02*
X117260000Y-111778628D01*
X117021905Y-112254819D02*
X117021905Y-111254819D01*
X117021905Y-111254819D02*
X117402857Y-111254819D01*
X117402857Y-111254819D02*
X117498095Y-111302438D01*
X117498095Y-111302438D02*
X117545714Y-111350057D01*
X117545714Y-111350057D02*
X117593333Y-111445295D01*
X117593333Y-111445295D02*
X117593333Y-111588152D01*
X117593333Y-111588152D02*
X117545714Y-111683390D01*
X117545714Y-111683390D02*
X117498095Y-111731009D01*
X117498095Y-111731009D02*
X117402857Y-111778628D01*
X117402857Y-111778628D02*
X117021905Y-111778628D01*
X117974286Y-111350057D02*
X118021905Y-111302438D01*
X118021905Y-111302438D02*
X118117143Y-111254819D01*
X118117143Y-111254819D02*
X118355238Y-111254819D01*
X118355238Y-111254819D02*
X118450476Y-111302438D01*
X118450476Y-111302438D02*
X118498095Y-111350057D01*
X118498095Y-111350057D02*
X118545714Y-111445295D01*
X118545714Y-111445295D02*
X118545714Y-111540533D01*
X118545714Y-111540533D02*
X118498095Y-111683390D01*
X118498095Y-111683390D02*
X117926667Y-112254819D01*
X117926667Y-112254819D02*
X118545714Y-112254819D01*
X120133333Y-112254819D02*
X119800000Y-111778628D01*
X119561905Y-112254819D02*
X119561905Y-111254819D01*
X119561905Y-111254819D02*
X119942857Y-111254819D01*
X119942857Y-111254819D02*
X120038095Y-111302438D01*
X120038095Y-111302438D02*
X120085714Y-111350057D01*
X120085714Y-111350057D02*
X120133333Y-111445295D01*
X120133333Y-111445295D02*
X120133333Y-111588152D01*
X120133333Y-111588152D02*
X120085714Y-111683390D01*
X120085714Y-111683390D02*
X120038095Y-111731009D01*
X120038095Y-111731009D02*
X119942857Y-111778628D01*
X119942857Y-111778628D02*
X119561905Y-111778628D01*
X120466667Y-111254819D02*
X121085714Y-111254819D01*
X121085714Y-111254819D02*
X120752381Y-111635771D01*
X120752381Y-111635771D02*
X120895238Y-111635771D01*
X120895238Y-111635771D02*
X120990476Y-111683390D01*
X120990476Y-111683390D02*
X121038095Y-111731009D01*
X121038095Y-111731009D02*
X121085714Y-111826247D01*
X121085714Y-111826247D02*
X121085714Y-112064342D01*
X121085714Y-112064342D02*
X121038095Y-112159580D01*
X121038095Y-112159580D02*
X120990476Y-112207200D01*
X120990476Y-112207200D02*
X120895238Y-112254819D01*
X120895238Y-112254819D02*
X120609524Y-112254819D01*
X120609524Y-112254819D02*
X120514286Y-112207200D01*
X120514286Y-112207200D02*
X120466667Y-112159580D01*
X122673333Y-112254819D02*
X122340000Y-111778628D01*
X122101905Y-112254819D02*
X122101905Y-111254819D01*
X122101905Y-111254819D02*
X122482857Y-111254819D01*
X122482857Y-111254819D02*
X122578095Y-111302438D01*
X122578095Y-111302438D02*
X122625714Y-111350057D01*
X122625714Y-111350057D02*
X122673333Y-111445295D01*
X122673333Y-111445295D02*
X122673333Y-111588152D01*
X122673333Y-111588152D02*
X122625714Y-111683390D01*
X122625714Y-111683390D02*
X122578095Y-111731009D01*
X122578095Y-111731009D02*
X122482857Y-111778628D01*
X122482857Y-111778628D02*
X122101905Y-111778628D01*
X123530476Y-111588152D02*
X123530476Y-112254819D01*
X123292381Y-111207200D02*
X123054286Y-111921485D01*
X123054286Y-111921485D02*
X123673333Y-111921485D01*
X125213333Y-112254819D02*
X124880000Y-111778628D01*
X124641905Y-112254819D02*
X124641905Y-111254819D01*
X124641905Y-111254819D02*
X125022857Y-111254819D01*
X125022857Y-111254819D02*
X125118095Y-111302438D01*
X125118095Y-111302438D02*
X125165714Y-111350057D01*
X125165714Y-111350057D02*
X125213333Y-111445295D01*
X125213333Y-111445295D02*
X125213333Y-111588152D01*
X125213333Y-111588152D02*
X125165714Y-111683390D01*
X125165714Y-111683390D02*
X125118095Y-111731009D01*
X125118095Y-111731009D02*
X125022857Y-111778628D01*
X125022857Y-111778628D02*
X124641905Y-111778628D01*
X126118095Y-111254819D02*
X125641905Y-111254819D01*
X125641905Y-111254819D02*
X125594286Y-111731009D01*
X125594286Y-111731009D02*
X125641905Y-111683390D01*
X125641905Y-111683390D02*
X125737143Y-111635771D01*
X125737143Y-111635771D02*
X125975238Y-111635771D01*
X125975238Y-111635771D02*
X126070476Y-111683390D01*
X126070476Y-111683390D02*
X126118095Y-111731009D01*
X126118095Y-111731009D02*
X126165714Y-111826247D01*
X126165714Y-111826247D02*
X126165714Y-112064342D01*
X126165714Y-112064342D02*
X126118095Y-112159580D01*
X126118095Y-112159580D02*
X126070476Y-112207200D01*
X126070476Y-112207200D02*
X125975238Y-112254819D01*
X125975238Y-112254819D02*
X125737143Y-112254819D01*
X125737143Y-112254819D02*
X125641905Y-112207200D01*
X125641905Y-112207200D02*
X125594286Y-112159580D01*
X127753333Y-112254819D02*
X127420000Y-111778628D01*
X127181905Y-112254819D02*
X127181905Y-111254819D01*
X127181905Y-111254819D02*
X127562857Y-111254819D01*
X127562857Y-111254819D02*
X127658095Y-111302438D01*
X127658095Y-111302438D02*
X127705714Y-111350057D01*
X127705714Y-111350057D02*
X127753333Y-111445295D01*
X127753333Y-111445295D02*
X127753333Y-111588152D01*
X127753333Y-111588152D02*
X127705714Y-111683390D01*
X127705714Y-111683390D02*
X127658095Y-111731009D01*
X127658095Y-111731009D02*
X127562857Y-111778628D01*
X127562857Y-111778628D02*
X127181905Y-111778628D01*
X128610476Y-111254819D02*
X128420000Y-111254819D01*
X128420000Y-111254819D02*
X128324762Y-111302438D01*
X128324762Y-111302438D02*
X128277143Y-111350057D01*
X128277143Y-111350057D02*
X128181905Y-111492914D01*
X128181905Y-111492914D02*
X128134286Y-111683390D01*
X128134286Y-111683390D02*
X128134286Y-112064342D01*
X128134286Y-112064342D02*
X128181905Y-112159580D01*
X128181905Y-112159580D02*
X128229524Y-112207200D01*
X128229524Y-112207200D02*
X128324762Y-112254819D01*
X128324762Y-112254819D02*
X128515238Y-112254819D01*
X128515238Y-112254819D02*
X128610476Y-112207200D01*
X128610476Y-112207200D02*
X128658095Y-112159580D01*
X128658095Y-112159580D02*
X128705714Y-112064342D01*
X128705714Y-112064342D02*
X128705714Y-111826247D01*
X128705714Y-111826247D02*
X128658095Y-111731009D01*
X128658095Y-111731009D02*
X128610476Y-111683390D01*
X128610476Y-111683390D02*
X128515238Y-111635771D01*
X128515238Y-111635771D02*
X128324762Y-111635771D01*
X128324762Y-111635771D02*
X128229524Y-111683390D01*
X128229524Y-111683390D02*
X128181905Y-111731009D01*
X128181905Y-111731009D02*
X128134286Y-111826247D01*
X130293333Y-112254819D02*
X129960000Y-111778628D01*
X129721905Y-112254819D02*
X129721905Y-111254819D01*
X129721905Y-111254819D02*
X130102857Y-111254819D01*
X130102857Y-111254819D02*
X130198095Y-111302438D01*
X130198095Y-111302438D02*
X130245714Y-111350057D01*
X130245714Y-111350057D02*
X130293333Y-111445295D01*
X130293333Y-111445295D02*
X130293333Y-111588152D01*
X130293333Y-111588152D02*
X130245714Y-111683390D01*
X130245714Y-111683390D02*
X130198095Y-111731009D01*
X130198095Y-111731009D02*
X130102857Y-111778628D01*
X130102857Y-111778628D02*
X129721905Y-111778628D01*
X130626667Y-111254819D02*
X131293333Y-111254819D01*
X131293333Y-111254819D02*
X130864762Y-112254819D01*
X132833333Y-112254819D02*
X132500000Y-111778628D01*
X132261905Y-112254819D02*
X132261905Y-111254819D01*
X132261905Y-111254819D02*
X132642857Y-111254819D01*
X132642857Y-111254819D02*
X132738095Y-111302438D01*
X132738095Y-111302438D02*
X132785714Y-111350057D01*
X132785714Y-111350057D02*
X132833333Y-111445295D01*
X132833333Y-111445295D02*
X132833333Y-111588152D01*
X132833333Y-111588152D02*
X132785714Y-111683390D01*
X132785714Y-111683390D02*
X132738095Y-111731009D01*
X132738095Y-111731009D02*
X132642857Y-111778628D01*
X132642857Y-111778628D02*
X132261905Y-111778628D01*
X133404762Y-111683390D02*
X133309524Y-111635771D01*
X133309524Y-111635771D02*
X133261905Y-111588152D01*
X133261905Y-111588152D02*
X133214286Y-111492914D01*
X133214286Y-111492914D02*
X133214286Y-111445295D01*
X133214286Y-111445295D02*
X133261905Y-111350057D01*
X133261905Y-111350057D02*
X133309524Y-111302438D01*
X133309524Y-111302438D02*
X133404762Y-111254819D01*
X133404762Y-111254819D02*
X133595238Y-111254819D01*
X133595238Y-111254819D02*
X133690476Y-111302438D01*
X133690476Y-111302438D02*
X133738095Y-111350057D01*
X133738095Y-111350057D02*
X133785714Y-111445295D01*
X133785714Y-111445295D02*
X133785714Y-111492914D01*
X133785714Y-111492914D02*
X133738095Y-111588152D01*
X133738095Y-111588152D02*
X133690476Y-111635771D01*
X133690476Y-111635771D02*
X133595238Y-111683390D01*
X133595238Y-111683390D02*
X133404762Y-111683390D01*
X133404762Y-111683390D02*
X133309524Y-111731009D01*
X133309524Y-111731009D02*
X133261905Y-111778628D01*
X133261905Y-111778628D02*
X133214286Y-111873866D01*
X133214286Y-111873866D02*
X133214286Y-112064342D01*
X133214286Y-112064342D02*
X133261905Y-112159580D01*
X133261905Y-112159580D02*
X133309524Y-112207200D01*
X133309524Y-112207200D02*
X133404762Y-112254819D01*
X133404762Y-112254819D02*
X133595238Y-112254819D01*
X133595238Y-112254819D02*
X133690476Y-112207200D01*
X133690476Y-112207200D02*
X133738095Y-112159580D01*
X133738095Y-112159580D02*
X133785714Y-112064342D01*
X133785714Y-112064342D02*
X133785714Y-111873866D01*
X133785714Y-111873866D02*
X133738095Y-111778628D01*
X133738095Y-111778628D02*
X133690476Y-111731009D01*
X133690476Y-111731009D02*
X133595238Y-111683390D01*
X135373333Y-112254819D02*
X135040000Y-111778628D01*
X134801905Y-112254819D02*
X134801905Y-111254819D01*
X134801905Y-111254819D02*
X135182857Y-111254819D01*
X135182857Y-111254819D02*
X135278095Y-111302438D01*
X135278095Y-111302438D02*
X135325714Y-111350057D01*
X135325714Y-111350057D02*
X135373333Y-111445295D01*
X135373333Y-111445295D02*
X135373333Y-111588152D01*
X135373333Y-111588152D02*
X135325714Y-111683390D01*
X135325714Y-111683390D02*
X135278095Y-111731009D01*
X135278095Y-111731009D02*
X135182857Y-111778628D01*
X135182857Y-111778628D02*
X134801905Y-111778628D01*
X135849524Y-112254819D02*
X136040000Y-112254819D01*
X136040000Y-112254819D02*
X136135238Y-112207200D01*
X136135238Y-112207200D02*
X136182857Y-112159580D01*
X136182857Y-112159580D02*
X136278095Y-112016723D01*
X136278095Y-112016723D02*
X136325714Y-111826247D01*
X136325714Y-111826247D02*
X136325714Y-111445295D01*
X136325714Y-111445295D02*
X136278095Y-111350057D01*
X136278095Y-111350057D02*
X136230476Y-111302438D01*
X136230476Y-111302438D02*
X136135238Y-111254819D01*
X136135238Y-111254819D02*
X135944762Y-111254819D01*
X135944762Y-111254819D02*
X135849524Y-111302438D01*
X135849524Y-111302438D02*
X135801905Y-111350057D01*
X135801905Y-111350057D02*
X135754286Y-111445295D01*
X135754286Y-111445295D02*
X135754286Y-111683390D01*
X135754286Y-111683390D02*
X135801905Y-111778628D01*
X135801905Y-111778628D02*
X135849524Y-111826247D01*
X135849524Y-111826247D02*
X135944762Y-111873866D01*
X135944762Y-111873866D02*
X136135238Y-111873866D01*
X136135238Y-111873866D02*
X136230476Y-111826247D01*
X136230476Y-111826247D02*
X136278095Y-111778628D01*
X136278095Y-111778628D02*
X136325714Y-111683390D01*
X145633333Y-127159580D02*
X145585714Y-127207200D01*
X145585714Y-127207200D02*
X145442857Y-127254819D01*
X145442857Y-127254819D02*
X145347619Y-127254819D01*
X145347619Y-127254819D02*
X145204762Y-127207200D01*
X145204762Y-127207200D02*
X145109524Y-127111961D01*
X145109524Y-127111961D02*
X145061905Y-127016723D01*
X145061905Y-127016723D02*
X145014286Y-126826247D01*
X145014286Y-126826247D02*
X145014286Y-126683390D01*
X145014286Y-126683390D02*
X145061905Y-126492914D01*
X145061905Y-126492914D02*
X145109524Y-126397676D01*
X145109524Y-126397676D02*
X145204762Y-126302438D01*
X145204762Y-126302438D02*
X145347619Y-126254819D01*
X145347619Y-126254819D02*
X145442857Y-126254819D01*
X145442857Y-126254819D02*
X145585714Y-126302438D01*
X145585714Y-126302438D02*
X145633333Y-126350057D01*
X146585714Y-127254819D02*
X146014286Y-127254819D01*
X146300000Y-127254819D02*
X146300000Y-126254819D01*
X146300000Y-126254819D02*
X146204762Y-126397676D01*
X146204762Y-126397676D02*
X146109524Y-126492914D01*
X146109524Y-126492914D02*
X146014286Y-126540533D01*
X116353333Y-124359580D02*
X116305714Y-124407200D01*
X116305714Y-124407200D02*
X116162857Y-124454819D01*
X116162857Y-124454819D02*
X116067619Y-124454819D01*
X116067619Y-124454819D02*
X115924762Y-124407200D01*
X115924762Y-124407200D02*
X115829524Y-124311961D01*
X115829524Y-124311961D02*
X115781905Y-124216723D01*
X115781905Y-124216723D02*
X115734286Y-124026247D01*
X115734286Y-124026247D02*
X115734286Y-123883390D01*
X115734286Y-123883390D02*
X115781905Y-123692914D01*
X115781905Y-123692914D02*
X115829524Y-123597676D01*
X115829524Y-123597676D02*
X115924762Y-123502438D01*
X115924762Y-123502438D02*
X116067619Y-123454819D01*
X116067619Y-123454819D02*
X116162857Y-123454819D01*
X116162857Y-123454819D02*
X116305714Y-123502438D01*
X116305714Y-123502438D02*
X116353333Y-123550057D01*
X116734286Y-123550057D02*
X116781905Y-123502438D01*
X116781905Y-123502438D02*
X116877143Y-123454819D01*
X116877143Y-123454819D02*
X117115238Y-123454819D01*
X117115238Y-123454819D02*
X117210476Y-123502438D01*
X117210476Y-123502438D02*
X117258095Y-123550057D01*
X117258095Y-123550057D02*
X117305714Y-123645295D01*
X117305714Y-123645295D02*
X117305714Y-123740533D01*
X117305714Y-123740533D02*
X117258095Y-123883390D01*
X117258095Y-123883390D02*
X116686667Y-124454819D01*
X116686667Y-124454819D02*
X117305714Y-124454819D01*
X147433333Y-166859580D02*
X147385714Y-166907200D01*
X147385714Y-166907200D02*
X147242857Y-166954819D01*
X147242857Y-166954819D02*
X147147619Y-166954819D01*
X147147619Y-166954819D02*
X147004762Y-166907200D01*
X147004762Y-166907200D02*
X146909524Y-166811961D01*
X146909524Y-166811961D02*
X146861905Y-166716723D01*
X146861905Y-166716723D02*
X146814286Y-166526247D01*
X146814286Y-166526247D02*
X146814286Y-166383390D01*
X146814286Y-166383390D02*
X146861905Y-166192914D01*
X146861905Y-166192914D02*
X146909524Y-166097676D01*
X146909524Y-166097676D02*
X147004762Y-166002438D01*
X147004762Y-166002438D02*
X147147619Y-165954819D01*
X147147619Y-165954819D02*
X147242857Y-165954819D01*
X147242857Y-165954819D02*
X147385714Y-166002438D01*
X147385714Y-166002438D02*
X147433333Y-166050057D01*
X147766667Y-165954819D02*
X148385714Y-165954819D01*
X148385714Y-165954819D02*
X148052381Y-166335771D01*
X148052381Y-166335771D02*
X148195238Y-166335771D01*
X148195238Y-166335771D02*
X148290476Y-166383390D01*
X148290476Y-166383390D02*
X148338095Y-166431009D01*
X148338095Y-166431009D02*
X148385714Y-166526247D01*
X148385714Y-166526247D02*
X148385714Y-166764342D01*
X148385714Y-166764342D02*
X148338095Y-166859580D01*
X148338095Y-166859580D02*
X148290476Y-166907200D01*
X148290476Y-166907200D02*
X148195238Y-166954819D01*
X148195238Y-166954819D02*
X147909524Y-166954819D01*
X147909524Y-166954819D02*
X147814286Y-166907200D01*
X147814286Y-166907200D02*
X147766667Y-166859580D01*
X105453333Y-124359580D02*
X105405714Y-124407200D01*
X105405714Y-124407200D02*
X105262857Y-124454819D01*
X105262857Y-124454819D02*
X105167619Y-124454819D01*
X105167619Y-124454819D02*
X105024762Y-124407200D01*
X105024762Y-124407200D02*
X104929524Y-124311961D01*
X104929524Y-124311961D02*
X104881905Y-124216723D01*
X104881905Y-124216723D02*
X104834286Y-124026247D01*
X104834286Y-124026247D02*
X104834286Y-123883390D01*
X104834286Y-123883390D02*
X104881905Y-123692914D01*
X104881905Y-123692914D02*
X104929524Y-123597676D01*
X104929524Y-123597676D02*
X105024762Y-123502438D01*
X105024762Y-123502438D02*
X105167619Y-123454819D01*
X105167619Y-123454819D02*
X105262857Y-123454819D01*
X105262857Y-123454819D02*
X105405714Y-123502438D01*
X105405714Y-123502438D02*
X105453333Y-123550057D01*
X106310476Y-123788152D02*
X106310476Y-124454819D01*
X106072381Y-123407200D02*
X105834286Y-124121485D01*
X105834286Y-124121485D02*
X106453333Y-124121485D01*
X102553333Y-129459580D02*
X102505714Y-129507200D01*
X102505714Y-129507200D02*
X102362857Y-129554819D01*
X102362857Y-129554819D02*
X102267619Y-129554819D01*
X102267619Y-129554819D02*
X102124762Y-129507200D01*
X102124762Y-129507200D02*
X102029524Y-129411961D01*
X102029524Y-129411961D02*
X101981905Y-129316723D01*
X101981905Y-129316723D02*
X101934286Y-129126247D01*
X101934286Y-129126247D02*
X101934286Y-128983390D01*
X101934286Y-128983390D02*
X101981905Y-128792914D01*
X101981905Y-128792914D02*
X102029524Y-128697676D01*
X102029524Y-128697676D02*
X102124762Y-128602438D01*
X102124762Y-128602438D02*
X102267619Y-128554819D01*
X102267619Y-128554819D02*
X102362857Y-128554819D01*
X102362857Y-128554819D02*
X102505714Y-128602438D01*
X102505714Y-128602438D02*
X102553333Y-128650057D01*
X103458095Y-128554819D02*
X102981905Y-128554819D01*
X102981905Y-128554819D02*
X102934286Y-129031009D01*
X102934286Y-129031009D02*
X102981905Y-128983390D01*
X102981905Y-128983390D02*
X103077143Y-128935771D01*
X103077143Y-128935771D02*
X103315238Y-128935771D01*
X103315238Y-128935771D02*
X103410476Y-128983390D01*
X103410476Y-128983390D02*
X103458095Y-129031009D01*
X103458095Y-129031009D02*
X103505714Y-129126247D01*
X103505714Y-129126247D02*
X103505714Y-129364342D01*
X103505714Y-129364342D02*
X103458095Y-129459580D01*
X103458095Y-129459580D02*
X103410476Y-129507200D01*
X103410476Y-129507200D02*
X103315238Y-129554819D01*
X103315238Y-129554819D02*
X103077143Y-129554819D01*
X103077143Y-129554819D02*
X102981905Y-129507200D01*
X102981905Y-129507200D02*
X102934286Y-129459580D01*
X126633333Y-143879580D02*
X126585714Y-143927200D01*
X126585714Y-143927200D02*
X126442857Y-143974819D01*
X126442857Y-143974819D02*
X126347619Y-143974819D01*
X126347619Y-143974819D02*
X126204762Y-143927200D01*
X126204762Y-143927200D02*
X126109524Y-143831961D01*
X126109524Y-143831961D02*
X126061905Y-143736723D01*
X126061905Y-143736723D02*
X126014286Y-143546247D01*
X126014286Y-143546247D02*
X126014286Y-143403390D01*
X126014286Y-143403390D02*
X126061905Y-143212914D01*
X126061905Y-143212914D02*
X126109524Y-143117676D01*
X126109524Y-143117676D02*
X126204762Y-143022438D01*
X126204762Y-143022438D02*
X126347619Y-142974819D01*
X126347619Y-142974819D02*
X126442857Y-142974819D01*
X126442857Y-142974819D02*
X126585714Y-143022438D01*
X126585714Y-143022438D02*
X126633333Y-143070057D01*
X127490476Y-142974819D02*
X127300000Y-142974819D01*
X127300000Y-142974819D02*
X127204762Y-143022438D01*
X127204762Y-143022438D02*
X127157143Y-143070057D01*
X127157143Y-143070057D02*
X127061905Y-143212914D01*
X127061905Y-143212914D02*
X127014286Y-143403390D01*
X127014286Y-143403390D02*
X127014286Y-143784342D01*
X127014286Y-143784342D02*
X127061905Y-143879580D01*
X127061905Y-143879580D02*
X127109524Y-143927200D01*
X127109524Y-143927200D02*
X127204762Y-143974819D01*
X127204762Y-143974819D02*
X127395238Y-143974819D01*
X127395238Y-143974819D02*
X127490476Y-143927200D01*
X127490476Y-143927200D02*
X127538095Y-143879580D01*
X127538095Y-143879580D02*
X127585714Y-143784342D01*
X127585714Y-143784342D02*
X127585714Y-143546247D01*
X127585714Y-143546247D02*
X127538095Y-143451009D01*
X127538095Y-143451009D02*
X127490476Y-143403390D01*
X127490476Y-143403390D02*
X127395238Y-143355771D01*
X127395238Y-143355771D02*
X127204762Y-143355771D01*
X127204762Y-143355771D02*
X127109524Y-143403390D01*
X127109524Y-143403390D02*
X127061905Y-143451009D01*
X127061905Y-143451009D02*
X127014286Y-143546247D01*
X135013333Y-152259580D02*
X134965714Y-152307200D01*
X134965714Y-152307200D02*
X134822857Y-152354819D01*
X134822857Y-152354819D02*
X134727619Y-152354819D01*
X134727619Y-152354819D02*
X134584762Y-152307200D01*
X134584762Y-152307200D02*
X134489524Y-152211961D01*
X134489524Y-152211961D02*
X134441905Y-152116723D01*
X134441905Y-152116723D02*
X134394286Y-151926247D01*
X134394286Y-151926247D02*
X134394286Y-151783390D01*
X134394286Y-151783390D02*
X134441905Y-151592914D01*
X134441905Y-151592914D02*
X134489524Y-151497676D01*
X134489524Y-151497676D02*
X134584762Y-151402438D01*
X134584762Y-151402438D02*
X134727619Y-151354819D01*
X134727619Y-151354819D02*
X134822857Y-151354819D01*
X134822857Y-151354819D02*
X134965714Y-151402438D01*
X134965714Y-151402438D02*
X135013333Y-151450057D01*
X135346667Y-151354819D02*
X136013333Y-151354819D01*
X136013333Y-151354819D02*
X135584762Y-152354819D01*
X142233333Y-152859580D02*
X142185714Y-152907200D01*
X142185714Y-152907200D02*
X142042857Y-152954819D01*
X142042857Y-152954819D02*
X141947619Y-152954819D01*
X141947619Y-152954819D02*
X141804762Y-152907200D01*
X141804762Y-152907200D02*
X141709524Y-152811961D01*
X141709524Y-152811961D02*
X141661905Y-152716723D01*
X141661905Y-152716723D02*
X141614286Y-152526247D01*
X141614286Y-152526247D02*
X141614286Y-152383390D01*
X141614286Y-152383390D02*
X141661905Y-152192914D01*
X141661905Y-152192914D02*
X141709524Y-152097676D01*
X141709524Y-152097676D02*
X141804762Y-152002438D01*
X141804762Y-152002438D02*
X141947619Y-151954819D01*
X141947619Y-151954819D02*
X142042857Y-151954819D01*
X142042857Y-151954819D02*
X142185714Y-152002438D01*
X142185714Y-152002438D02*
X142233333Y-152050057D01*
X142804762Y-152383390D02*
X142709524Y-152335771D01*
X142709524Y-152335771D02*
X142661905Y-152288152D01*
X142661905Y-152288152D02*
X142614286Y-152192914D01*
X142614286Y-152192914D02*
X142614286Y-152145295D01*
X142614286Y-152145295D02*
X142661905Y-152050057D01*
X142661905Y-152050057D02*
X142709524Y-152002438D01*
X142709524Y-152002438D02*
X142804762Y-151954819D01*
X142804762Y-151954819D02*
X142995238Y-151954819D01*
X142995238Y-151954819D02*
X143090476Y-152002438D01*
X143090476Y-152002438D02*
X143138095Y-152050057D01*
X143138095Y-152050057D02*
X143185714Y-152145295D01*
X143185714Y-152145295D02*
X143185714Y-152192914D01*
X143185714Y-152192914D02*
X143138095Y-152288152D01*
X143138095Y-152288152D02*
X143090476Y-152335771D01*
X143090476Y-152335771D02*
X142995238Y-152383390D01*
X142995238Y-152383390D02*
X142804762Y-152383390D01*
X142804762Y-152383390D02*
X142709524Y-152431009D01*
X142709524Y-152431009D02*
X142661905Y-152478628D01*
X142661905Y-152478628D02*
X142614286Y-152573866D01*
X142614286Y-152573866D02*
X142614286Y-152764342D01*
X142614286Y-152764342D02*
X142661905Y-152859580D01*
X142661905Y-152859580D02*
X142709524Y-152907200D01*
X142709524Y-152907200D02*
X142804762Y-152954819D01*
X142804762Y-152954819D02*
X142995238Y-152954819D01*
X142995238Y-152954819D02*
X143090476Y-152907200D01*
X143090476Y-152907200D02*
X143138095Y-152859580D01*
X143138095Y-152859580D02*
X143185714Y-152764342D01*
X143185714Y-152764342D02*
X143185714Y-152573866D01*
X143185714Y-152573866D02*
X143138095Y-152478628D01*
X143138095Y-152478628D02*
X143090476Y-152431009D01*
X143090476Y-152431009D02*
X142995238Y-152383390D01*
X129877142Y-124359580D02*
X129829523Y-124407200D01*
X129829523Y-124407200D02*
X129686666Y-124454819D01*
X129686666Y-124454819D02*
X129591428Y-124454819D01*
X129591428Y-124454819D02*
X129448571Y-124407200D01*
X129448571Y-124407200D02*
X129353333Y-124311961D01*
X129353333Y-124311961D02*
X129305714Y-124216723D01*
X129305714Y-124216723D02*
X129258095Y-124026247D01*
X129258095Y-124026247D02*
X129258095Y-123883390D01*
X129258095Y-123883390D02*
X129305714Y-123692914D01*
X129305714Y-123692914D02*
X129353333Y-123597676D01*
X129353333Y-123597676D02*
X129448571Y-123502438D01*
X129448571Y-123502438D02*
X129591428Y-123454819D01*
X129591428Y-123454819D02*
X129686666Y-123454819D01*
X129686666Y-123454819D02*
X129829523Y-123502438D01*
X129829523Y-123502438D02*
X129877142Y-123550057D01*
X130829523Y-124454819D02*
X130258095Y-124454819D01*
X130543809Y-124454819D02*
X130543809Y-123454819D01*
X130543809Y-123454819D02*
X130448571Y-123597676D01*
X130448571Y-123597676D02*
X130353333Y-123692914D01*
X130353333Y-123692914D02*
X130258095Y-123740533D01*
X131448571Y-123454819D02*
X131543809Y-123454819D01*
X131543809Y-123454819D02*
X131639047Y-123502438D01*
X131639047Y-123502438D02*
X131686666Y-123550057D01*
X131686666Y-123550057D02*
X131734285Y-123645295D01*
X131734285Y-123645295D02*
X131781904Y-123835771D01*
X131781904Y-123835771D02*
X131781904Y-124073866D01*
X131781904Y-124073866D02*
X131734285Y-124264342D01*
X131734285Y-124264342D02*
X131686666Y-124359580D01*
X131686666Y-124359580D02*
X131639047Y-124407200D01*
X131639047Y-124407200D02*
X131543809Y-124454819D01*
X131543809Y-124454819D02*
X131448571Y-124454819D01*
X131448571Y-124454819D02*
X131353333Y-124407200D01*
X131353333Y-124407200D02*
X131305714Y-124359580D01*
X131305714Y-124359580D02*
X131258095Y-124264342D01*
X131258095Y-124264342D02*
X131210476Y-124073866D01*
X131210476Y-124073866D02*
X131210476Y-123835771D01*
X131210476Y-123835771D02*
X131258095Y-123645295D01*
X131258095Y-123645295D02*
X131305714Y-123550057D01*
X131305714Y-123550057D02*
X131353333Y-123502438D01*
X131353333Y-123502438D02*
X131448571Y-123454819D01*
X120077142Y-124359580D02*
X120029523Y-124407200D01*
X120029523Y-124407200D02*
X119886666Y-124454819D01*
X119886666Y-124454819D02*
X119791428Y-124454819D01*
X119791428Y-124454819D02*
X119648571Y-124407200D01*
X119648571Y-124407200D02*
X119553333Y-124311961D01*
X119553333Y-124311961D02*
X119505714Y-124216723D01*
X119505714Y-124216723D02*
X119458095Y-124026247D01*
X119458095Y-124026247D02*
X119458095Y-123883390D01*
X119458095Y-123883390D02*
X119505714Y-123692914D01*
X119505714Y-123692914D02*
X119553333Y-123597676D01*
X119553333Y-123597676D02*
X119648571Y-123502438D01*
X119648571Y-123502438D02*
X119791428Y-123454819D01*
X119791428Y-123454819D02*
X119886666Y-123454819D01*
X119886666Y-123454819D02*
X120029523Y-123502438D01*
X120029523Y-123502438D02*
X120077142Y-123550057D01*
X121029523Y-124454819D02*
X120458095Y-124454819D01*
X120743809Y-124454819D02*
X120743809Y-123454819D01*
X120743809Y-123454819D02*
X120648571Y-123597676D01*
X120648571Y-123597676D02*
X120553333Y-123692914D01*
X120553333Y-123692914D02*
X120458095Y-123740533D01*
X121410476Y-123550057D02*
X121458095Y-123502438D01*
X121458095Y-123502438D02*
X121553333Y-123454819D01*
X121553333Y-123454819D02*
X121791428Y-123454819D01*
X121791428Y-123454819D02*
X121886666Y-123502438D01*
X121886666Y-123502438D02*
X121934285Y-123550057D01*
X121934285Y-123550057D02*
X121981904Y-123645295D01*
X121981904Y-123645295D02*
X121981904Y-123740533D01*
X121981904Y-123740533D02*
X121934285Y-123883390D01*
X121934285Y-123883390D02*
X121362857Y-124454819D01*
X121362857Y-124454819D02*
X121981904Y-124454819D01*
X117877142Y-128759580D02*
X117829523Y-128807200D01*
X117829523Y-128807200D02*
X117686666Y-128854819D01*
X117686666Y-128854819D02*
X117591428Y-128854819D01*
X117591428Y-128854819D02*
X117448571Y-128807200D01*
X117448571Y-128807200D02*
X117353333Y-128711961D01*
X117353333Y-128711961D02*
X117305714Y-128616723D01*
X117305714Y-128616723D02*
X117258095Y-128426247D01*
X117258095Y-128426247D02*
X117258095Y-128283390D01*
X117258095Y-128283390D02*
X117305714Y-128092914D01*
X117305714Y-128092914D02*
X117353333Y-127997676D01*
X117353333Y-127997676D02*
X117448571Y-127902438D01*
X117448571Y-127902438D02*
X117591428Y-127854819D01*
X117591428Y-127854819D02*
X117686666Y-127854819D01*
X117686666Y-127854819D02*
X117829523Y-127902438D01*
X117829523Y-127902438D02*
X117877142Y-127950057D01*
X118829523Y-128854819D02*
X118258095Y-128854819D01*
X118543809Y-128854819D02*
X118543809Y-127854819D01*
X118543809Y-127854819D02*
X118448571Y-127997676D01*
X118448571Y-127997676D02*
X118353333Y-128092914D01*
X118353333Y-128092914D02*
X118258095Y-128140533D01*
X119162857Y-127854819D02*
X119781904Y-127854819D01*
X119781904Y-127854819D02*
X119448571Y-128235771D01*
X119448571Y-128235771D02*
X119591428Y-128235771D01*
X119591428Y-128235771D02*
X119686666Y-128283390D01*
X119686666Y-128283390D02*
X119734285Y-128331009D01*
X119734285Y-128331009D02*
X119781904Y-128426247D01*
X119781904Y-128426247D02*
X119781904Y-128664342D01*
X119781904Y-128664342D02*
X119734285Y-128759580D01*
X119734285Y-128759580D02*
X119686666Y-128807200D01*
X119686666Y-128807200D02*
X119591428Y-128854819D01*
X119591428Y-128854819D02*
X119305714Y-128854819D01*
X119305714Y-128854819D02*
X119210476Y-128807200D01*
X119210476Y-128807200D02*
X119162857Y-128759580D01*
X141657142Y-141359580D02*
X141609523Y-141407200D01*
X141609523Y-141407200D02*
X141466666Y-141454819D01*
X141466666Y-141454819D02*
X141371428Y-141454819D01*
X141371428Y-141454819D02*
X141228571Y-141407200D01*
X141228571Y-141407200D02*
X141133333Y-141311961D01*
X141133333Y-141311961D02*
X141085714Y-141216723D01*
X141085714Y-141216723D02*
X141038095Y-141026247D01*
X141038095Y-141026247D02*
X141038095Y-140883390D01*
X141038095Y-140883390D02*
X141085714Y-140692914D01*
X141085714Y-140692914D02*
X141133333Y-140597676D01*
X141133333Y-140597676D02*
X141228571Y-140502438D01*
X141228571Y-140502438D02*
X141371428Y-140454819D01*
X141371428Y-140454819D02*
X141466666Y-140454819D01*
X141466666Y-140454819D02*
X141609523Y-140502438D01*
X141609523Y-140502438D02*
X141657142Y-140550057D01*
X142609523Y-141454819D02*
X142038095Y-141454819D01*
X142323809Y-141454819D02*
X142323809Y-140454819D01*
X142323809Y-140454819D02*
X142228571Y-140597676D01*
X142228571Y-140597676D02*
X142133333Y-140692914D01*
X142133333Y-140692914D02*
X142038095Y-140740533D01*
X143466666Y-140788152D02*
X143466666Y-141454819D01*
X143228571Y-140407200D02*
X142990476Y-141121485D01*
X142990476Y-141121485D02*
X143609523Y-141121485D01*
%TO.C,J1*%
D11*
X137700000Y-172150000D02*
X137700000Y-173420000D01*
X136430000Y-172150000D02*
X137700000Y-172150000D01*
X134320000Y-174497358D02*
X134320000Y-174882642D01*
X133460000Y-174497358D02*
X133460000Y-174882642D01*
X131780000Y-174497358D02*
X131780000Y-174882642D01*
X130920000Y-174497358D02*
X130920000Y-174882642D01*
X129240000Y-174497358D02*
X129240000Y-174882642D01*
X128380000Y-174497358D02*
X128380000Y-174882642D01*
X126700000Y-174497358D02*
X126700000Y-174882642D01*
X125840000Y-174497358D02*
X125840000Y-174882642D01*
X124160000Y-174497358D02*
X124160000Y-174882642D01*
X123300000Y-174497358D02*
X123300000Y-174882642D01*
X121620000Y-174497358D02*
X121620000Y-174882642D01*
X120760000Y-174497358D02*
X120760000Y-174882642D01*
X119080000Y-174497358D02*
X119080000Y-174882642D01*
X118220000Y-174497358D02*
X118220000Y-174882642D01*
X116540000Y-174497358D02*
X116540000Y-174882642D01*
X115680000Y-174497358D02*
X115680000Y-174882642D01*
X114000000Y-174497358D02*
X114000000Y-174882642D01*
X113140000Y-174497358D02*
X113140000Y-174882642D01*
X136860000Y-174580000D02*
X136860000Y-174882642D01*
X136000000Y-174580000D02*
X136000000Y-174882642D01*
X136860000Y-177037358D02*
X136860000Y-177350000D01*
X136000000Y-177037358D02*
X136000000Y-177350000D01*
X134320000Y-177037358D02*
X134320000Y-177350000D01*
X133460000Y-177037358D02*
X133460000Y-177350000D01*
X131780000Y-177037358D02*
X131780000Y-177350000D01*
X130920000Y-177037358D02*
X130920000Y-177350000D01*
X129240000Y-177037358D02*
X129240000Y-177350000D01*
X128380000Y-177037358D02*
X128380000Y-177350000D01*
X126700000Y-177037358D02*
X126700000Y-177350000D01*
X125840000Y-177037358D02*
X125840000Y-177350000D01*
X124160000Y-177037358D02*
X124160000Y-177350000D01*
X123300000Y-177037358D02*
X123300000Y-177350000D01*
X121620000Y-177037358D02*
X121620000Y-177350000D01*
X120760000Y-177037358D02*
X120760000Y-177350000D01*
X119080000Y-177037358D02*
X119080000Y-177350000D01*
X118220000Y-177037358D02*
X118220000Y-177350000D01*
X116540000Y-177037358D02*
X116540000Y-177350000D01*
X115680000Y-177037358D02*
X115680000Y-177350000D01*
X114000000Y-177037358D02*
X114000000Y-177350000D01*
X113140000Y-177037358D02*
X113140000Y-177350000D01*
X135160000Y-177350000D02*
X135160000Y-180110000D01*
X132620000Y-177350000D02*
X132620000Y-180110000D01*
X130080000Y-177350000D02*
X130080000Y-180110000D01*
X127540000Y-177350000D02*
X127540000Y-180110000D01*
X125000000Y-177350000D02*
X125000000Y-180110000D01*
X122460000Y-177350000D02*
X122460000Y-180110000D01*
X119920000Y-177350000D02*
X119920000Y-180110000D01*
X117380000Y-177350000D02*
X117380000Y-180110000D01*
X114840000Y-177350000D02*
X114840000Y-180110000D01*
X134320000Y-180110000D02*
X134320000Y-186110000D01*
X131780000Y-180110000D02*
X131780000Y-186110000D01*
X129240000Y-180110000D02*
X129240000Y-186110000D01*
X126700000Y-180110000D02*
X126700000Y-186110000D01*
X124160000Y-180110000D02*
X124160000Y-186110000D01*
X121620000Y-180110000D02*
X121620000Y-186110000D01*
X119080000Y-180110000D02*
X119080000Y-186110000D01*
X116540000Y-180110000D02*
X116540000Y-186110000D01*
X114000000Y-180110000D02*
X114000000Y-186110000D01*
X134320000Y-186110000D02*
X133460000Y-186110000D01*
X133460000Y-186110000D02*
X133460000Y-180110000D01*
X131780000Y-186110000D02*
X130920000Y-186110000D01*
X130920000Y-186110000D02*
X130920000Y-180110000D01*
X129240000Y-186110000D02*
X128380000Y-186110000D01*
X128380000Y-186110000D02*
X128380000Y-180110000D01*
X126700000Y-186110000D02*
X125840000Y-186110000D01*
X125840000Y-186110000D02*
X125840000Y-180110000D01*
X124160000Y-186110000D02*
X123300000Y-186110000D01*
X123300000Y-186110000D02*
X123300000Y-180110000D01*
X121620000Y-186110000D02*
X120760000Y-186110000D01*
X120760000Y-186110000D02*
X120760000Y-180110000D01*
X119080000Y-186110000D02*
X118220000Y-186110000D01*
X118220000Y-186110000D02*
X118220000Y-180110000D01*
X116540000Y-186110000D02*
X115680000Y-186110000D01*
X115680000Y-186110000D02*
X115680000Y-180110000D01*
X114000000Y-186110000D02*
X113140000Y-186110000D01*
X113140000Y-186110000D02*
X113140000Y-180110000D01*
X112190000Y-177350000D02*
X137810000Y-177350000D01*
X137810000Y-180110000D01*
X112190000Y-180110000D01*
X112190000Y-177350000D01*
X136000000Y-180110000D02*
X136860000Y-180110000D01*
X136860000Y-186110000D01*
X136000000Y-186110000D01*
X136000000Y-180110000D01*
G36*
X136000000Y-180110000D02*
G01*
X136860000Y-180110000D01*
X136860000Y-186110000D01*
X136000000Y-186110000D01*
X136000000Y-180110000D01*
G37*
%TO.C,J2*%
X112300000Y-107850000D02*
X112300000Y-106580000D01*
X113570000Y-107850000D02*
X112300000Y-107850000D01*
X115680000Y-105502642D02*
X115680000Y-105190000D01*
X116540000Y-105502642D02*
X116540000Y-105190000D01*
X118220000Y-105502642D02*
X118220000Y-105190000D01*
X119080000Y-105502642D02*
X119080000Y-105190000D01*
X120760000Y-105502642D02*
X120760000Y-105190000D01*
X121620000Y-105502642D02*
X121620000Y-105190000D01*
X123300000Y-105502642D02*
X123300000Y-105190000D01*
X124160000Y-105502642D02*
X124160000Y-105190000D01*
X125840000Y-105502642D02*
X125840000Y-105190000D01*
X126700000Y-105502642D02*
X126700000Y-105190000D01*
X128380000Y-105502642D02*
X128380000Y-105190000D01*
X129240000Y-105502642D02*
X129240000Y-105190000D01*
X130920000Y-105502642D02*
X130920000Y-105190000D01*
X131780000Y-105502642D02*
X131780000Y-105190000D01*
X133460000Y-105502642D02*
X133460000Y-105190000D01*
X134320000Y-105502642D02*
X134320000Y-105190000D01*
X136000000Y-105502642D02*
X136000000Y-105190000D01*
X136860000Y-105502642D02*
X136860000Y-105190000D01*
X113140000Y-105420000D02*
X113140000Y-105190000D01*
X114000000Y-105420000D02*
X114000000Y-105190000D01*
X114840000Y-105190000D02*
X114840000Y-102430000D01*
X117380000Y-105190000D02*
X117380000Y-102430000D01*
X119920000Y-105190000D02*
X119920000Y-102430000D01*
X122460000Y-105190000D02*
X122460000Y-102430000D01*
X125000000Y-105190000D02*
X125000000Y-102430000D01*
X127540000Y-105190000D02*
X127540000Y-102430000D01*
X130080000Y-105190000D02*
X130080000Y-102430000D01*
X132620000Y-105190000D02*
X132620000Y-102430000D01*
X135160000Y-105190000D02*
X135160000Y-102430000D01*
X115680000Y-102430000D02*
X115680000Y-96430000D01*
X118220000Y-102430000D02*
X118220000Y-96430000D01*
X120760000Y-102430000D02*
X120760000Y-96430000D01*
X123300000Y-102430000D02*
X123300000Y-96430000D01*
X125840000Y-102430000D02*
X125840000Y-96430000D01*
X128380000Y-102430000D02*
X128380000Y-96430000D01*
X130920000Y-102430000D02*
X130920000Y-96430000D01*
X133460000Y-102430000D02*
X133460000Y-96430000D01*
X136000000Y-102430000D02*
X136000000Y-96430000D01*
X115680000Y-96430000D02*
X116540000Y-96430000D01*
X116540000Y-96430000D02*
X116540000Y-102430000D01*
X118220000Y-96430000D02*
X119080000Y-96430000D01*
X119080000Y-96430000D02*
X119080000Y-102430000D01*
X120760000Y-96430000D02*
X121620000Y-96430000D01*
X121620000Y-96430000D02*
X121620000Y-102430000D01*
X123300000Y-96430000D02*
X124160000Y-96430000D01*
X124160000Y-96430000D02*
X124160000Y-102430000D01*
X125840000Y-96430000D02*
X126700000Y-96430000D01*
X126700000Y-96430000D02*
X126700000Y-102430000D01*
X128380000Y-96430000D02*
X129240000Y-96430000D01*
X129240000Y-96430000D02*
X129240000Y-102430000D01*
X130920000Y-96430000D02*
X131780000Y-96430000D01*
X131780000Y-96430000D02*
X131780000Y-102430000D01*
X133460000Y-96430000D02*
X134320000Y-96430000D01*
X134320000Y-96430000D02*
X134320000Y-102430000D01*
X136000000Y-96430000D02*
X136860000Y-96430000D01*
X136860000Y-96430000D02*
X136860000Y-102430000D01*
X112190000Y-102430000D02*
X137810000Y-102430000D01*
X137810000Y-105190000D01*
X112190000Y-105190000D01*
X112190000Y-102430000D01*
X113140000Y-96430000D02*
X114000000Y-96430000D01*
X114000000Y-102430000D01*
X113140000Y-102430000D01*
X113140000Y-96430000D01*
G36*
X113140000Y-96430000D02*
G01*
X114000000Y-96430000D01*
X114000000Y-102430000D01*
X113140000Y-102430000D01*
X113140000Y-96430000D01*
G37*
%TO.C,U1*%
X111190000Y-126965000D02*
X115810000Y-126965000D01*
X115810000Y-135035000D02*
X111190000Y-135035000D01*
X109590000Y-127420000D02*
X109260000Y-127660000D01*
X109260000Y-127180000D01*
X109590000Y-127420000D01*
G36*
X109590000Y-127420000D02*
G01*
X109260000Y-127660000D01*
X109260000Y-127180000D01*
X109590000Y-127420000D01*
G37*
%TO.C,U2*%
X125190000Y-126965000D02*
X129810000Y-126965000D01*
X129810000Y-135035000D02*
X125190000Y-135035000D01*
X123590000Y-127420000D02*
X123260000Y-127660000D01*
X123260000Y-127180000D01*
X123590000Y-127420000D01*
G36*
X123590000Y-127420000D02*
G01*
X123260000Y-127660000D01*
X123260000Y-127180000D01*
X123590000Y-127420000D01*
G37*
%TO.C,U3*%
X124740000Y-147440000D02*
X128860000Y-147440000D01*
X124740000Y-147535000D02*
X124740000Y-147440000D01*
X124740000Y-152560000D02*
X124740000Y-152465000D01*
X128860000Y-147440000D02*
X128860000Y-147535000D01*
X128860000Y-152465000D02*
X128860000Y-152560000D01*
X128860000Y-152560000D02*
X124740000Y-152560000D01*
X124200000Y-147530000D02*
X123960000Y-147200000D01*
X124440000Y-147200000D01*
X124200000Y-147530000D01*
G36*
X124200000Y-147530000D02*
G01*
X123960000Y-147200000D01*
X124440000Y-147200000D01*
X124200000Y-147530000D01*
G37*
%TO.C,R1*%
X114065000Y-160627064D02*
X114065000Y-160172936D01*
X115535000Y-160627064D02*
X115535000Y-160172936D01*
%TO.C,R2*%
X116845000Y-111572936D02*
X116845000Y-112027064D01*
X115375000Y-111572936D02*
X115375000Y-112027064D01*
%TO.C,R3*%
X119385000Y-111572936D02*
X119385000Y-112027064D01*
X117915000Y-111572936D02*
X117915000Y-112027064D01*
%TO.C,R4*%
X121925000Y-111572936D02*
X121925000Y-112027064D01*
X120455000Y-111572936D02*
X120455000Y-112027064D01*
%TO.C,R5*%
X124465000Y-111572936D02*
X124465000Y-112027064D01*
X122995000Y-111572936D02*
X122995000Y-112027064D01*
%TO.C,R6*%
X127005000Y-111572936D02*
X127005000Y-112027064D01*
X125535000Y-111572936D02*
X125535000Y-112027064D01*
%TO.C,R7*%
X129545000Y-111572936D02*
X129545000Y-112027064D01*
X128075000Y-111572936D02*
X128075000Y-112027064D01*
%TO.C,R8*%
X132085000Y-111572936D02*
X132085000Y-112027064D01*
X130615000Y-111572936D02*
X130615000Y-112027064D01*
%TO.C,R9*%
X134625000Y-111572936D02*
X134625000Y-112027064D01*
X133155000Y-111572936D02*
X133155000Y-112027064D01*
%TO.C,C1*%
X142800000Y-128440000D02*
X143300000Y-128440000D01*
X143050000Y-128190000D02*
X143050000Y-128690000D01*
X143540000Y-128804437D02*
X143540000Y-128940000D01*
X143540000Y-128804437D02*
X144604437Y-127740000D01*
X143540000Y-131195563D02*
X143540000Y-131060000D01*
X143540000Y-131195563D02*
X144604437Y-132260000D01*
X144604437Y-127740000D02*
X148060000Y-127740000D01*
X144604437Y-132260000D02*
X148060000Y-132260000D01*
X148060000Y-127740000D02*
X148060000Y-128940000D01*
X148060000Y-132260000D02*
X148060000Y-131060000D01*
%TO.C,C2*%
X117465000Y-124261252D02*
X117465000Y-123738748D01*
X118935000Y-124261252D02*
X118935000Y-123738748D01*
%TO.C,C3*%
X145960000Y-163500000D02*
X145960000Y-164000000D01*
X146210000Y-163750000D02*
X145710000Y-163750000D01*
X145595563Y-164240000D02*
X145460000Y-164240000D01*
X145595563Y-164240000D02*
X146660000Y-165304437D01*
X143204437Y-164240000D02*
X143340000Y-164240000D01*
X143204437Y-164240000D02*
X142140000Y-165304437D01*
X146660000Y-165304437D02*
X146660000Y-168760000D01*
X142140000Y-165304437D02*
X142140000Y-168760000D01*
X146660000Y-168760000D02*
X145460000Y-168760000D01*
X142140000Y-168760000D02*
X143340000Y-168760000D01*
%TO.C,C4*%
X106565000Y-124261252D02*
X106565000Y-123738748D01*
X108035000Y-124261252D02*
X108035000Y-123738748D01*
%TO.C,C5*%
X103665000Y-129361252D02*
X103665000Y-128838748D01*
X105135000Y-129361252D02*
X105135000Y-128838748D01*
%TO.C,C6*%
X126538748Y-144465000D02*
X127061252Y-144465000D01*
X126538748Y-145935000D02*
X127061252Y-145935000D01*
%TO.C,C7*%
X134235000Y-151638748D02*
X134235000Y-152161252D01*
X132765000Y-151638748D02*
X132765000Y-152161252D01*
%TO.C,C8*%
X140760000Y-149500000D02*
X140760000Y-150000000D01*
X141010000Y-149750000D02*
X140510000Y-149750000D01*
X140395563Y-150240000D02*
X140260000Y-150240000D01*
X140395563Y-150240000D02*
X141460000Y-151304437D01*
X138004437Y-150240000D02*
X138140000Y-150240000D01*
X138004437Y-150240000D02*
X136940000Y-151304437D01*
X141460000Y-151304437D02*
X141460000Y-154760000D01*
X136940000Y-151304437D02*
X136940000Y-154760000D01*
X141460000Y-154760000D02*
X140260000Y-154760000D01*
X136940000Y-154760000D02*
X138140000Y-154760000D01*
%TO.C,C10*%
X131465000Y-124261252D02*
X131465000Y-123738748D01*
X132935000Y-124261252D02*
X132935000Y-123738748D01*
%TO.C,C12*%
X121665000Y-124261252D02*
X121665000Y-123738748D01*
X123135000Y-124261252D02*
X123135000Y-123738748D01*
%TO.C,C13*%
X119465000Y-128661252D02*
X119465000Y-128138748D01*
X120935000Y-128661252D02*
X120935000Y-128138748D01*
%TO.C,C14*%
X143940000Y-144000000D02*
X143940000Y-143500000D01*
X143690000Y-143750000D02*
X144190000Y-143750000D01*
X144304437Y-143260000D02*
X144440000Y-143260000D01*
X144304437Y-143260000D02*
X143240000Y-142195563D01*
X146695563Y-143260000D02*
X146560000Y-143260000D01*
X146695563Y-143260000D02*
X147760000Y-142195563D01*
X143240000Y-142195563D02*
X143240000Y-138740000D01*
X147760000Y-142195563D02*
X147760000Y-138740000D01*
X143240000Y-138740000D02*
X144440000Y-138740000D01*
X147760000Y-138740000D02*
X146560000Y-138740000D01*
%TD*%
M02*
