M48
; DRILL file KiCad 10.0.3 date 2026-07-08T12:05:21
; FORMAT={-:-/ absolute / metric / decimal}
; #@! TF.CreationDate,2026-07-08T12:05:21+02:00
; #@! TF.GenerationSoftware,Kicad,Pcbnew,10.0.3
; #@! TF.FileFunction,Plated,1,2,PTH
FMAT,2
METRIC
; #@! TA.AperFunction,Plated,PTH,ViaDrill
T1C0.300
; #@! TA.AperFunction,Plated,PTH,ComponentDrill
T2C1.000
%
G90
G05
T1
X16.6Y-105.8
X17.87Y-29.6
X19.14Y-86.99
X20.0Y-20.0
X20.0Y-122.0
X22.6Y-80.64
X23.4Y-78.1
X24.2Y-83.18
X25.0Y-85.72
X25.9Y-84.45
X35.0Y-103.0
X46.9Y-41.27
X47.5Y-104.51
X48.5Y-103.24
X49.5Y-79.37
X49.5Y-101.97
X50.5Y-100.7
X51.3Y-70.0
X51.5Y-99.43
X52.5Y-98.16
X54.0Y-79.43
X55.5Y-78.16
X56.5Y-73.6
X57.8Y-71.75
X58.5Y-88.0
X59.2Y-89.27
X59.9Y-90.54
X60.0Y-36.0
X60.6Y-91.81
X61.3Y-75.62
X62.0Y-93.08
X62.7Y-76.89
X63.4Y-94.35
X64.1Y-95.62
X64.8Y-96.89
X65.5Y-68.0
X66.2Y-86.99
X67.08Y-86.99
X70.0Y-122.0
X73.5Y-81.3
X74.0Y-79.43
X74.7Y-86.99
X75.0Y-78.16
X76.0Y-76.89
X77.0Y-75.62
X78.0Y-98.16
X79.0Y-68.0
X80.0Y-88.0
X81.0Y-71.75
X81.0Y-105.3
X82.0Y-70.0
X83.0Y-73.6
X84.0Y-81.3
X85.0Y-85.1
X86.0Y-83.2
X90.0Y-20.0
X90.2Y-76.89
X91.087Y-81.3
X92.912Y-75.62
X93.9Y-83.2
X94.0Y-79.43
X95.0Y-78.16
X96.0Y-76.89
X97.0Y-75.62
X98.0Y-99.43
X99.0Y-68.0
X100.0Y-89.27
X101.0Y-71.75
X102.0Y-70.0
X103.0Y-73.6
X104.0Y-81.3
X105.0Y-85.1
X106.0Y-83.2
X108.5Y-85.1
X113.5Y-86.99
X114.0Y-79.43
X115.0Y-78.16
X116.0Y-76.89
X117.0Y-75.62
X118.0Y-100.7
X119.0Y-68.0
X120.0Y-36.0
X120.0Y-90.54
X120.0Y-122.0
X121.0Y-71.75
X122.0Y-70.0
X123.0Y-73.6
X124.0Y-81.3
X125.0Y-85.1
X126.0Y-83.2
X128.0Y-81.3
X134.0Y-79.43
X135.0Y-78.16
X136.0Y-76.89
X137.0Y-75.62
X138.0Y-101.97
X139.0Y-68.0
X140.0Y-91.81
X141.0Y-71.75
X142.0Y-70.0
X143.0Y-73.6
X144.0Y-81.3
X145.0Y-85.1
X146.0Y-83.2
X150.0Y-20.0
X150.0Y-122.0
X154.0Y-79.43
X155.0Y-78.16
X156.0Y-76.89
X157.0Y-75.62
X158.0Y-104.51
X159.0Y-68.0
X160.0Y-93.08
X161.0Y-71.75
X162.0Y-70.0
X163.0Y-73.6
X164.0Y-81.3
X165.0Y-85.1
X166.0Y-83.2
X168.3Y-81.3
X170.84Y-75.62
X173.38Y-76.89
X174.0Y-79.43
X175.0Y-78.16
X176.0Y-76.89
X177.0Y-75.62
X178.0Y-103.24
X179.0Y-68.0
X180.0Y-36.0
X180.0Y-94.35
X181.0Y-71.75
X182.0Y-70.0
X183.0Y-73.6
X184.0Y-81.3
X185.0Y-85.1
X185.0Y-122.0
X186.0Y-83.2
X196.2Y-85.1
X197.0Y-83.2
X198.0Y-81.3
X199.0Y-73.6
X200.0Y-71.75
X200.4Y-96.89
X201.0Y-70.0
X201.1Y-71.75
X201.8Y-70.0
X202.5Y-73.6
X203.2Y-81.3
X203.9Y-85.1
X204.6Y-83.2
X205.4Y-95.62
X209.0Y-80.0
X210.0Y-20.0
X210.0Y-122.0
T2
X16.6Y-24.96
X16.6Y-27.5
X19.14Y-24.96
X19.14Y-27.5
X21.68Y-24.96
X21.68Y-27.5
X22.0Y-108.0
X22.0Y-110.54
X22.0Y-113.08
X22.0Y-115.62
X22.0Y-118.16
X24.22Y-24.96
X24.22Y-27.5
X24.54Y-108.0
X24.54Y-110.54
X24.54Y-113.08
X24.54Y-115.62
X24.54Y-118.16
X26.76Y-24.96
X26.76Y-27.5
X29.3Y-24.96
X29.3Y-27.5
X30.0Y-40.0
X30.0Y-42.54
X30.0Y-45.08
X30.0Y-47.62
X30.0Y-50.16
X30.0Y-52.7
X30.0Y-55.24
X30.0Y-57.78
X30.0Y-60.32
X30.0Y-62.86
X30.0Y-65.4
X30.0Y-67.94
X30.0Y-70.48
X30.0Y-73.02
X30.0Y-75.56
X30.0Y-78.1
X30.0Y-80.64
X30.0Y-83.18
X30.0Y-85.72
X30.0Y-88.26
X30.0Y-90.8
X30.0Y-93.34
X30.0Y-95.88
X30.0Y-98.42
X31.84Y-24.96
X31.84Y-27.5
X33.0Y-20.0
X35.54Y-20.0
X38.08Y-20.0
X40.62Y-20.0
X43.16Y-20.0
X45.24Y-40.0
X45.24Y-42.54
X45.24Y-45.08
X45.24Y-47.62
X45.24Y-50.16
X45.24Y-52.7
X45.24Y-55.24
X45.24Y-57.78
X45.24Y-60.32
X45.24Y-62.86
X45.24Y-65.4
X45.24Y-67.94
X45.24Y-70.48
X45.24Y-73.02
X45.24Y-75.56
X45.24Y-78.1
X45.24Y-80.64
X45.24Y-83.18
X45.24Y-85.72
X45.24Y-88.26
X45.24Y-90.8
X45.24Y-93.34
X45.24Y-95.88
X45.24Y-98.42
X45.7Y-20.0
X48.24Y-20.0
X50.78Y-20.0
X53.32Y-20.0
X62.0Y-108.0
X64.54Y-108.0
X67.08Y-108.0
X67.46Y-40.0
X67.46Y-42.54
X67.46Y-45.08
X67.46Y-47.62
X67.46Y-50.16
X67.46Y-52.7
X67.46Y-55.24
X67.46Y-57.78
X67.46Y-60.32
X67.46Y-62.86
X70.0Y-40.0
X70.0Y-42.54
X70.0Y-45.08
X70.0Y-47.62
X70.0Y-50.16
X70.0Y-52.7
X70.0Y-55.24
X70.0Y-57.78
X70.0Y-60.32
X70.0Y-62.86
X87.46Y-40.0
X87.46Y-42.54
X87.46Y-45.08
X87.46Y-47.62
X87.46Y-50.16
X87.46Y-52.7
X87.46Y-55.24
X87.46Y-57.78
X87.46Y-60.32
X87.46Y-62.86
X90.0Y-40.0
X90.0Y-42.54
X90.0Y-45.08
X90.0Y-47.62
X90.0Y-50.16
X90.0Y-52.7
X90.0Y-55.24
X90.0Y-57.78
X90.0Y-60.32
X90.0Y-62.86
X107.46Y-40.0
X107.46Y-42.54
X107.46Y-45.08
X107.46Y-47.62
X107.46Y-50.16
X107.46Y-52.7
X107.46Y-55.24
X107.46Y-57.78
X107.46Y-60.32
X107.46Y-62.86
X110.0Y-40.0
X110.0Y-42.54
X110.0Y-45.08
X110.0Y-47.62
X110.0Y-50.16
X110.0Y-52.7
X110.0Y-55.24
X110.0Y-57.78
X110.0Y-60.32
X110.0Y-62.86
X127.46Y-40.0
X127.46Y-42.54
X127.46Y-45.08
X127.46Y-47.62
X127.46Y-50.16
X127.46Y-52.7
X127.46Y-55.24
X127.46Y-57.78
X127.46Y-60.32
X127.46Y-62.86
X130.0Y-40.0
X130.0Y-42.54
X130.0Y-45.08
X130.0Y-47.62
X130.0Y-50.16
X130.0Y-52.7
X130.0Y-55.24
X130.0Y-57.78
X130.0Y-60.32
X130.0Y-62.86
X147.46Y-40.0
X147.46Y-42.54
X147.46Y-45.08
X147.46Y-47.62
X147.46Y-50.16
X147.46Y-52.7
X147.46Y-55.24
X147.46Y-57.78
X147.46Y-60.32
X147.46Y-62.86
X150.0Y-40.0
X150.0Y-42.54
X150.0Y-45.08
X150.0Y-47.62
X150.0Y-50.16
X150.0Y-52.7
X150.0Y-55.24
X150.0Y-57.78
X150.0Y-60.32
X150.0Y-62.86
X165.76Y-121.5
X167.46Y-40.0
X167.46Y-42.54
X167.46Y-45.08
X167.46Y-47.62
X167.46Y-50.16
X167.46Y-52.7
X167.46Y-55.24
X167.46Y-57.78
X167.46Y-60.32
X167.46Y-62.86
X168.3Y-121.5
X170.0Y-40.0
X170.0Y-42.54
X170.0Y-45.08
X170.0Y-47.62
X170.0Y-50.16
X170.0Y-52.7
X170.0Y-55.24
X170.0Y-57.78
X170.0Y-60.32
X170.0Y-62.86
X170.84Y-121.5
X173.38Y-121.5
X193.0Y-42.0
X193.0Y-44.54
X193.0Y-47.08
X193.0Y-49.62
X193.0Y-52.16
X193.0Y-104.0
X193.0Y-106.54
X193.0Y-109.08
X193.0Y-111.62
X193.0Y-114.16
X195.54Y-42.0
X195.54Y-44.54
X195.54Y-47.08
X195.54Y-49.62
X195.54Y-52.16
X195.54Y-104.0
X195.54Y-106.54
X195.54Y-109.08
X195.54Y-111.62
X195.54Y-114.16
M30
