%TF.GenerationSoftware,KiCad,Pcbnew,10.0.3*%
%TF.CreationDate,2026-07-08T12:05:28+02:00*%
%TF.ProjectId,musicbrain-enc4,6d757369-6362-4726-9169-6e2d656e6334,1.0*%
%TF.SameCoordinates,Original*%
%TF.FileFunction,Copper,L1,Top*%
%TF.FilePolarity,Positive*%
%FSLAX46Y46*%
G04 Gerber Fmt 4.6, Leading zero omitted, Abs format (unit mm)*
G04 Created by KiCad (PCBNEW 10.0.3) date 2026-07-08 12:05:28*
%MOMM*%
%LPD*%
G01*
G04 APERTURE LIST*
G04 Aperture macros list*
%AMRoundRect*
0 Rectangle with rounded corners*
0 $1 Rounding radius*
0 $2 $3 $4 $5 $6 $7 $8 $9 X,Y pos of 4 corners*
0 Add a 4 corners polygon primitive as box body*
4,1,4,$2,$3,$4,$5,$6,$7,$8,$9,$2,$3,0*
0 Add four circle primitives for the rounded corners*
1,1,$1+$1,$2,$3*
1,1,$1+$1,$4,$5*
1,1,$1+$1,$6,$7*
1,1,$1+$1,$8,$9*
0 Add four rect primitives between the rounded corners*
20,1,$1+$1,$2,$3,$4,$5,0*
20,1,$1+$1,$4,$5,$6,$7,0*
20,1,$1+$1,$6,$7,$8,$9,0*
20,1,$1+$1,$8,$9,$2,$3,0*%
G04 Aperture macros list end*
%TA.AperFunction,ComponentPad*%
%ADD10R,1.700000X1.700000*%
%TD*%
%TA.AperFunction,ComponentPad*%
%ADD11C,1.700000*%
%TD*%
%TA.AperFunction,SMDPad,CuDef*%
%ADD12RoundRect,0.150000X0.150000X-0.875000X0.150000X0.875000X-0.150000X0.875000X-0.150000X-0.875000X0*%
%TD*%
%TA.AperFunction,ComponentPad*%
%ADD13RoundRect,0.250000X0.512000X0.512000X-0.512000X0.512000X-0.512000X-0.512000X0.512000X-0.512000X0*%
%TD*%
%TA.AperFunction,ComponentPad*%
%ADD14C,1.524000*%
%TD*%
%TA.AperFunction,ComponentPad*%
%ADD15RoundRect,0.725000X0.725000X-0.975000X0.725000X0.975000X-0.725000X0.975000X-0.725000X-0.975000X0*%
%TD*%
%TA.AperFunction,SMDPad,CuDef*%
%ADD16RoundRect,0.250000X0.250000X0.475000X-0.250000X0.475000X-0.250000X-0.475000X0.250000X-0.475000X0*%
%TD*%
%TA.AperFunction,SMDPad,CuDef*%
%ADD17RoundRect,0.250000X0.550000X-1.050000X0.550000X1.050000X-0.550000X1.050000X-0.550000X-1.050000X0*%
%TD*%
%TA.AperFunction,ViaPad*%
%ADD18C,0.500000*%
%TD*%
%TA.AperFunction,Conductor*%
%ADD19C,0.250000*%
%TD*%
%TA.AperFunction,Conductor*%
%ADD20C,0.400000*%
%TD*%
G04 APERTURE END LIST*
D10*
%TO.P,J1,1*%
%TO.N,GND*%
X146430000Y-173420000D03*
D11*
%TO.P,J1,2*%
%TO.N,N/C*%
X146430000Y-175960000D03*
%TO.P,J1,3*%
%TO.N,GND*%
X143890000Y-173420000D03*
%TO.P,J1,4*%
%TO.N,N/C*%
X143890000Y-175960000D03*
%TO.P,J1,5*%
%TO.N,GND*%
X141350000Y-173420000D03*
%TO.P,J1,6*%
%TO.N,+3V3*%
X141350000Y-175960000D03*
%TO.P,J1,7*%
%TO.N,N/C*%
X138810000Y-173420000D03*
%TO.P,J1,8*%
%TO.N,GND*%
X138810000Y-175960000D03*
%TO.P,J1,9*%
%TO.N,N/C*%
X136270000Y-173420000D03*
%TO.P,J1,10*%
%TO.N,GND*%
X136270000Y-175960000D03*
%TO.P,J1,11*%
%TO.N,N/C*%
X133730000Y-173420000D03*
%TO.P,J1,12*%
%TO.N,GND*%
X133730000Y-175960000D03*
%TO.P,J1,13*%
%TO.N,N/C*%
X131190000Y-173420000D03*
%TO.P,J1,14*%
%TO.N,GND*%
X131190000Y-175960000D03*
%TO.P,J1,15*%
%TO.N,N/C*%
X128650000Y-173420000D03*
%TO.P,J1,16*%
%TO.N,/IRQ*%
X128650000Y-175960000D03*
%TO.P,J1,17*%
%TO.N,/SDA*%
X126110000Y-173420000D03*
%TO.P,J1,18*%
%TO.N,/SCL*%
X126110000Y-175960000D03*
%TO.P,J1,19*%
%TO.N,N/C*%
X123570000Y-173420000D03*
%TO.P,J1,20*%
X123570000Y-175960000D03*
%TD*%
D12*
%TO.P,U1,1*%
%TO.N,/E4A*%
X126745000Y-139650000D03*
%TO.P,U1,2*%
%TO.N,/E4S*%
X128015000Y-139650000D03*
%TO.P,U1,3*%
%TO.N,/E4B*%
X129285000Y-139650000D03*
%TO.P,U1,4*%
%TO.N,/E3A*%
X130555000Y-139650000D03*
%TO.P,U1,5*%
%TO.N,N/C*%
X131825000Y-139650000D03*
%TO.P,U1,6*%
X133095000Y-139650000D03*
%TO.P,U1,7*%
X134365000Y-139650000D03*
%TO.P,U1,8*%
X135635000Y-139650000D03*
%TO.P,U1,9*%
%TO.N,+3V3*%
X136905000Y-139650000D03*
%TO.P,U1,10*%
%TO.N,GND*%
X138175000Y-139650000D03*
%TO.P,U1,11*%
%TO.N,N/C*%
X139445000Y-139650000D03*
%TO.P,U1,12*%
%TO.N,/SCL*%
X140715000Y-139650000D03*
%TO.P,U1,13*%
%TO.N,/SDA*%
X141985000Y-139650000D03*
%TO.P,U1,14*%
%TO.N,N/C*%
X143255000Y-139650000D03*
%TO.P,U1,15*%
%TO.N,GND*%
X143255000Y-130350000D03*
%TO.P,U1,16*%
X141985000Y-130350000D03*
%TO.P,U1,17*%
X140715000Y-130350000D03*
%TO.P,U1,18*%
%TO.N,+3V3*%
X139445000Y-130350000D03*
%TO.P,U1,19*%
%TO.N,N/C*%
X138175000Y-130350000D03*
%TO.P,U1,20*%
%TO.N,/IRQ*%
X136905000Y-130350000D03*
%TO.P,U1,21*%
%TO.N,/E3S*%
X135635000Y-130350000D03*
%TO.P,U1,22*%
%TO.N,/E3B*%
X134365000Y-130350000D03*
%TO.P,U1,23*%
%TO.N,/E2A*%
X133095000Y-130350000D03*
%TO.P,U1,24*%
%TO.N,/E2S*%
X131825000Y-130350000D03*
%TO.P,U1,25*%
%TO.N,/E2B*%
X130555000Y-130350000D03*
%TO.P,U1,26*%
%TO.N,/E1A*%
X129285000Y-130350000D03*
%TO.P,U1,27*%
%TO.N,/E1S*%
X128015000Y-130350000D03*
%TO.P,U1,28*%
%TO.N,/E1B*%
X126745000Y-130350000D03*
%TD*%
D13*
%TO.P,SW1,A*%
%TO.N,/E1A*%
X111000000Y-109000000D03*
D14*
%TO.P,SW1,B*%
%TO.N,/E1B*%
X106000000Y-109000000D03*
%TO.P,SW1,C*%
%TO.N,GND*%
X108500000Y-109000000D03*
%TO.P,SW1,S1*%
%TO.N,/E1S*%
X111000000Y-111500000D03*
%TO.P,SW1,S2*%
%TO.N,GND*%
X106000000Y-111500000D03*
D15*
%TO.P,SW1,SH*%
%TO.N,N/C*%
X114950000Y-112300000D03*
X102050000Y-112300000D03*
%TD*%
D13*
%TO.P,SW2,A*%
%TO.N,/E2A*%
X127700000Y-109000000D03*
D14*
%TO.P,SW2,B*%
%TO.N,/E2B*%
X122700000Y-109000000D03*
%TO.P,SW2,C*%
%TO.N,GND*%
X125200000Y-109000000D03*
%TO.P,SW2,S1*%
%TO.N,/E2S*%
X127700000Y-111500000D03*
%TO.P,SW2,S2*%
%TO.N,GND*%
X122700000Y-111500000D03*
D15*
%TO.P,SW2,SH*%
%TO.N,N/C*%
X131650000Y-112300000D03*
X118750000Y-112300000D03*
%TD*%
D13*
%TO.P,SW3,A*%
%TO.N,/E3A*%
X144400000Y-109000000D03*
D14*
%TO.P,SW3,B*%
%TO.N,/E3B*%
X139400000Y-109000000D03*
%TO.P,SW3,C*%
%TO.N,GND*%
X141900000Y-109000000D03*
%TO.P,SW3,S1*%
%TO.N,/E3S*%
X144400000Y-111500000D03*
%TO.P,SW3,S2*%
%TO.N,GND*%
X139400000Y-111500000D03*
D15*
%TO.P,SW3,SH*%
%TO.N,N/C*%
X148350000Y-112300000D03*
X135450000Y-112300000D03*
%TD*%
D13*
%TO.P,SW4,A*%
%TO.N,/E4A*%
X161100000Y-109000000D03*
D14*
%TO.P,SW4,B*%
%TO.N,/E4B*%
X156100000Y-109000000D03*
%TO.P,SW4,C*%
%TO.N,GND*%
X158600000Y-109000000D03*
%TO.P,SW4,S1*%
%TO.N,/E4S*%
X161100000Y-111500000D03*
%TO.P,SW4,S2*%
%TO.N,GND*%
X156100000Y-111500000D03*
D15*
%TO.P,SW4,SH*%
%TO.N,N/C*%
X165050000Y-112300000D03*
X152150000Y-112300000D03*
%TD*%
D16*
%TO.P,C1,1*%
%TO.N,+3V3*%
X136050000Y-143400000D03*
%TO.P,C1,2*%
%TO.N,GND*%
X134150000Y-143400000D03*
%TD*%
D17*
%TO.P,C2,1*%
%TO.N,+3V3*%
X147000000Y-157300000D03*
%TO.P,C2,2*%
%TO.N,GND*%
X147000000Y-153700000D03*
%TD*%
D18*
%TO.N,/E1A*%
X112700000Y-109000000D03*
%TO.N,/E1B*%
X107250000Y-110400000D03*
%TO.N,/E1A*%
X129285000Y-117700000D03*
%TO.N,/E1B*%
X126745000Y-119300000D03*
%TO.N,/E1S*%
X128015000Y-118500000D03*
%TO.N,/E2A*%
X129400000Y-109000000D03*
%TO.N,/E2B*%
X123950000Y-110400000D03*
%TO.N,/E2A*%
X133095000Y-115300000D03*
%TO.N,/E2B*%
X130555000Y-116900000D03*
%TO.N,/E2S*%
X131825000Y-116100000D03*
%TO.N,/E3A*%
X146100000Y-109000000D03*
%TO.N,/E3B*%
X140650000Y-110400000D03*
%TO.N,/E3A*%
X130555000Y-144500000D03*
%TO.N,/E3B*%
X134365000Y-120100000D03*
%TO.N,/E3S*%
X135635000Y-120900000D03*
%TO.N,/E4A*%
X162800000Y-109000000D03*
%TO.N,/E4B*%
X157350000Y-110400000D03*
X129285000Y-145300000D03*
%TO.N,/E4S*%
X128015000Y-146100000D03*
%TO.N,/E4A*%
X126745000Y-146900000D03*
%TO.N,/IRQ*%
X138400000Y-128000000D03*
X140600000Y-128000000D03*
X148300000Y-171600000D03*
%TO.N,+3V3*%
X142620000Y-158500000D03*
X104800000Y-158500000D03*
X142620000Y-141800000D03*
X139900000Y-141800000D03*
X142620000Y-157300000D03*
%TO.N,GND*%
X102000000Y-102000000D03*
X168000000Y-102000000D03*
X102000000Y-176000000D03*
X168000000Y-176000000D03*
X102000000Y-130000000D03*
X168000000Y-130000000D03*
X110000000Y-150000000D03*
X120000000Y-160000000D03*
X157000000Y-160000000D03*
X168000000Y-155000000D03*
X120000000Y-135000000D03*
X152500000Y-135000000D03*
X108000000Y-122600000D03*
X152000000Y-120000000D03*
%TD*%
%TO.N,/E1A*%
D19*
X111000000Y-109000000D02*
X112700000Y-109000000D01*
%TO.N,/E1B*%
X106000000Y-109000000D02*
X107250000Y-109000000D01*
X107250000Y-109000000D02*
X107250000Y-110400000D01*
%TO.N,/E1A*%
X129285000Y-117700000D02*
X129285000Y-130350000D01*
%TO.N,/E1B*%
X126745000Y-119300000D02*
X126745000Y-130350000D01*
%TO.N,/E1S*%
X128015000Y-118500000D02*
X128015000Y-130350000D01*
%TO.N,/E2A*%
X127700000Y-109000000D02*
X129400000Y-109000000D01*
%TO.N,/E2B*%
X122700000Y-109000000D02*
X123950000Y-109000000D01*
X123950000Y-109000000D02*
X123950000Y-110400000D01*
%TO.N,/E2A*%
X133095000Y-115300000D02*
X133095000Y-130350000D01*
%TO.N,/E2B*%
X130555000Y-116900000D02*
X130555000Y-130350000D01*
%TO.N,/E2S*%
X131825000Y-116100000D02*
X131825000Y-130350000D01*
%TO.N,/E3A*%
X144400000Y-109000000D02*
X146100000Y-109000000D01*
%TO.N,/E3B*%
X139400000Y-109000000D02*
X140650000Y-109000000D01*
X140650000Y-109000000D02*
X140650000Y-110400000D01*
%TO.N,/E3A*%
X130555000Y-144500000D02*
X130555000Y-139650000D01*
%TO.N,/E3B*%
X134365000Y-120100000D02*
X134365000Y-130350000D01*
%TO.N,/E3S*%
X135635000Y-120900000D02*
X135635000Y-130350000D01*
%TO.N,/E4A*%
X161100000Y-109000000D02*
X162800000Y-109000000D01*
%TO.N,/E4B*%
X156100000Y-109000000D02*
X157350000Y-109000000D01*
X157350000Y-109000000D02*
X157350000Y-110400000D01*
X129285000Y-145300000D02*
X129285000Y-139650000D01*
%TO.N,/E4S*%
X128015000Y-146100000D02*
X128015000Y-139650000D01*
%TO.N,/E4A*%
X126745000Y-146900000D02*
X126745000Y-139650000D01*
%TO.N,/SDA*%
X126110000Y-173420000D02*
X126110000Y-153300000D01*
X126110000Y-153300000D02*
X141985000Y-153300000D01*
X141985000Y-153300000D02*
X141985000Y-139650000D01*
%TO.N,/SCL*%
X126110000Y-175960000D02*
X124840000Y-175960000D01*
X124840000Y-175960000D02*
X124840000Y-152500000D01*
X124840000Y-152500000D02*
X140715000Y-152500000D01*
X140715000Y-152500000D02*
X140715000Y-139650000D01*
%TO.N,/IRQ*%
X136905000Y-130350000D02*
X136905000Y-128000000D01*
X136905000Y-128000000D02*
X138400000Y-128000000D01*
X140600000Y-128000000D02*
X148300000Y-128000000D01*
X148300000Y-128000000D02*
X148300000Y-171600000D01*
%TO.N,+3V3*%
D20*
X141350000Y-175960000D02*
X142620000Y-175960000D01*
X142620000Y-175960000D02*
X142620000Y-141800000D01*
X104800000Y-158500000D02*
X104800000Y-114600000D01*
D19*
X104800000Y-114600000D02*
X139445000Y-114600000D01*
X139445000Y-114600000D02*
X139445000Y-130350000D01*
X139900000Y-141800000D02*
X136905000Y-141800000D01*
X136905000Y-141800000D02*
X136905000Y-139650000D01*
X136905000Y-141800000D02*
X136905000Y-143400000D01*
X136905000Y-143400000D02*
X136050000Y-143400000D01*
X142620000Y-157300000D02*
X147000000Y-157300000D01*
%TD*%
%TA.AperFunction,Conductor*%
%TO.N,GND*%
G36*
X169458691Y-100519407D02*
G01*
X169494655Y-100568907D01*
X169499500Y-100599500D01*
X169499500Y-179400500D01*
X169480593Y-179458691D01*
X169431093Y-179494655D01*
X169400500Y-179499500D01*
X100599500Y-179499500D01*
X100541309Y-179480593D01*
X100505345Y-179431093D01*
X100500500Y-179400500D01*
X100500500Y-158427525D01*
X104249500Y-158427525D01*
X104249500Y-158434410D01*
X104249500Y-158572474D01*
X104287017Y-158712489D01*
X104359487Y-158838010D01*
X104359489Y-158838012D01*
X104359491Y-158838015D01*
X104461985Y-158940509D01*
X104461987Y-158940510D01*
X104461989Y-158940512D01*
X104587511Y-159012982D01*
X104587512Y-159012982D01*
X104587515Y-159012984D01*
X104727525Y-159050500D01*
X104727526Y-159050500D01*
X104872474Y-159050500D01*
X104872475Y-159050500D01*
X105012485Y-159012984D01*
X105012487Y-159012982D01*
X105012489Y-159012982D01*
X105138010Y-158940512D01*
X105138010Y-158940511D01*
X105138015Y-158940509D01*
X105240509Y-158838015D01*
X105295411Y-158742922D01*
X105312982Y-158712489D01*
X105312982Y-158712487D01*
X105312984Y-158712485D01*
X105350500Y-158572475D01*
X105350500Y-158427525D01*
X105312984Y-158287515D01*
X105312983Y-158287513D01*
X105310501Y-158281521D01*
X105311665Y-158281038D01*
X105300500Y-158239365D01*
X105300500Y-115124500D01*
X105319407Y-115066309D01*
X105368907Y-115030345D01*
X105399500Y-115025500D01*
X132469613Y-115025500D01*
X132527804Y-115044407D01*
X132563768Y-115093907D01*
X132565240Y-115150123D01*
X132544500Y-115227525D01*
X132544500Y-115372474D01*
X132582017Y-115512489D01*
X132656236Y-115641038D01*
X132669500Y-115690538D01*
X132669500Y-129068443D01*
X132650593Y-129126634D01*
X132647854Y-129130228D01*
X132639744Y-129140381D01*
X132622850Y-129152850D01*
X132542207Y-129262118D01*
X132541972Y-129262789D01*
X132537354Y-129268571D01*
X132513301Y-129284421D01*
X132489887Y-129301167D01*
X132487913Y-129301152D01*
X132486264Y-129302239D01*
X132457498Y-129300924D01*
X132428704Y-129300709D01*
X132427088Y-129299534D01*
X132425142Y-129299446D01*
X132406787Y-129284785D01*
X132380345Y-129265574D01*
X132297154Y-129152855D01*
X132297152Y-129152853D01*
X132297150Y-129152850D01*
X132290709Y-129148096D01*
X132255118Y-129098328D01*
X132250500Y-129068443D01*
X132250500Y-116490538D01*
X132263764Y-116441038D01*
X132337982Y-116312489D01*
X132337982Y-116312487D01*
X132337984Y-116312485D01*
X132375500Y-116172475D01*
X132375500Y-116027525D01*
X132337984Y-115887515D01*
X132337982Y-115887512D01*
X132337982Y-115887510D01*
X132265512Y-115761989D01*
X132265510Y-115761987D01*
X132265509Y-115761985D01*
X132163015Y-115659491D01*
X132163012Y-115659489D01*
X132163010Y-115659487D01*
X132037488Y-115587017D01*
X132037489Y-115587017D01*
X132007896Y-115579087D01*
X131897475Y-115549500D01*
X131752525Y-115549500D01*
X131690790Y-115566041D01*
X131612510Y-115587017D01*
X131486989Y-115659487D01*
X131384487Y-115761989D01*
X131312017Y-115887510D01*
X131274500Y-116027525D01*
X131274500Y-116172474D01*
X131312017Y-116312489D01*
X131386236Y-116441038D01*
X131399500Y-116490538D01*
X131399500Y-129068443D01*
X131380593Y-129126634D01*
X131377854Y-129130228D01*
X131369744Y-129140381D01*
X131352850Y-129152850D01*
X131272207Y-129262118D01*
X131271972Y-129262789D01*
X131267354Y-129268571D01*
X131243301Y-129284421D01*
X131219887Y-129301167D01*
X131217913Y-129301152D01*
X131216264Y-129302239D01*
X131187498Y-129300924D01*
X131158704Y-129300709D01*
X131157088Y-129299534D01*
X131155142Y-129299446D01*
X131136787Y-129284785D01*
X131110345Y-129265574D01*
X131027154Y-129152855D01*
X131027152Y-129152853D01*
X131027150Y-129152850D01*
X131020709Y-129148096D01*
X130985118Y-129098328D01*
X130980500Y-129068443D01*
X130980500Y-117290538D01*
X130993764Y-117241038D01*
X131067982Y-117112489D01*
X131067982Y-117112487D01*
X131067984Y-117112485D01*
X131105500Y-116972475D01*
X131105500Y-116827525D01*
X131067984Y-116687515D01*
X131067982Y-116687512D01*
X131067982Y-116687510D01*
X130995512Y-116561989D01*
X130995510Y-116561987D01*
X130995509Y-116561985D01*
X130893015Y-116459491D01*
X130893012Y-116459489D01*
X130893010Y-116459487D01*
X130767488Y-116387017D01*
X130767489Y-116387017D01*
X130737896Y-116379087D01*
X130627475Y-116349500D01*
X130482525Y-116349500D01*
X130420790Y-116366041D01*
X130342510Y-116387017D01*
X130216989Y-116459487D01*
X130114487Y-116561989D01*
X130042017Y-116687510D01*
X130004500Y-116827525D01*
X130004500Y-116972474D01*
X130042017Y-117112489D01*
X130116236Y-117241038D01*
X130129500Y-117290538D01*
X130129500Y-129068443D01*
X130110593Y-129126634D01*
X130107854Y-129130228D01*
X130099744Y-129140381D01*
X130082850Y-129152850D01*
X130002207Y-129262118D01*
X130001972Y-129262789D01*
X129997354Y-129268571D01*
X129973301Y-129284421D01*
X129949887Y-129301167D01*
X129947913Y-129301152D01*
X129946264Y-129302239D01*
X129917498Y-129300924D01*
X129888704Y-129300709D01*
X129887088Y-129299534D01*
X129885142Y-129299446D01*
X129866787Y-129284785D01*
X129840345Y-129265574D01*
X129757154Y-129152855D01*
X129757152Y-129152853D01*
X129757150Y-129152850D01*
X129750709Y-129148096D01*
X129715118Y-129098328D01*
X129710500Y-129068443D01*
X129710500Y-118090538D01*
X129723764Y-118041038D01*
X129797982Y-117912489D01*
X129797982Y-117912487D01*
X129797984Y-117912485D01*
X129835500Y-117772475D01*
X129835500Y-117627525D01*
X129797984Y-117487515D01*
X129797982Y-117487512D01*
X129797982Y-117487510D01*
X129725512Y-117361989D01*
X129725510Y-117361987D01*
X129725509Y-117361985D01*
X129623015Y-117259491D01*
X129623012Y-117259489D01*
X129623010Y-117259487D01*
X129497488Y-117187017D01*
X129497489Y-117187017D01*
X129467896Y-117179087D01*
X129357475Y-117149500D01*
X129212525Y-117149500D01*
X129150790Y-117166041D01*
X129072510Y-117187017D01*
X128946989Y-117259487D01*
X128844487Y-117361989D01*
X128772017Y-117487510D01*
X128734500Y-117627525D01*
X128734500Y-117772474D01*
X128772017Y-117912489D01*
X128846236Y-118041038D01*
X128859500Y-118090538D01*
X128859500Y-129068443D01*
X128840593Y-129126634D01*
X128837854Y-129130228D01*
X128829744Y-129140381D01*
X128812850Y-129152850D01*
X128732207Y-129262118D01*
X128731972Y-129262789D01*
X128727354Y-129268571D01*
X128703301Y-129284421D01*
X128679887Y-129301167D01*
X128677913Y-129301152D01*
X128676264Y-129302239D01*
X128647498Y-129300924D01*
X128618704Y-129300709D01*
X128617088Y-129299534D01*
X128615142Y-129299446D01*
X128596787Y-129284785D01*
X128570345Y-129265574D01*
X128487154Y-129152855D01*
X128487152Y-129152853D01*
X128487150Y-129152850D01*
X128480709Y-129148096D01*
X128445118Y-129098328D01*
X128440500Y-129068443D01*
X128440500Y-118890538D01*
X128453764Y-118841038D01*
X128527982Y-118712489D01*
X128527982Y-118712487D01*
X128527984Y-118712485D01*
X128565500Y-118572475D01*
X128565500Y-118427525D01*
X128527984Y-118287515D01*
X128527982Y-118287512D01*
X128527982Y-118287510D01*
X128455512Y-118161989D01*
X128455510Y-118161987D01*
X128455509Y-118161985D01*
X128353015Y-118059491D01*
X128353012Y-118059489D01*
X128353010Y-118059487D01*
X128227488Y-117987017D01*
X128227489Y-117987017D01*
X128197896Y-117979087D01*
X128087475Y-117949500D01*
X127942525Y-117949500D01*
X127880790Y-117966041D01*
X127802510Y-117987017D01*
X127676989Y-118059487D01*
X127574487Y-118161989D01*
X127502017Y-118287510D01*
X127464500Y-118427525D01*
X127464500Y-118572474D01*
X127502017Y-118712489D01*
X127576236Y-118841038D01*
X127589500Y-118890538D01*
X127589500Y-129068443D01*
X127570593Y-129126634D01*
X127567854Y-129130228D01*
X127559744Y-129140381D01*
X127542850Y-129152850D01*
X127462207Y-129262118D01*
X127461972Y-129262789D01*
X127457354Y-129268571D01*
X127433301Y-129284421D01*
X127409887Y-129301167D01*
X127407913Y-129301152D01*
X127406264Y-129302239D01*
X127377498Y-129300924D01*
X127348704Y-129300709D01*
X127347088Y-129299534D01*
X127345142Y-129299446D01*
X127326787Y-129284785D01*
X127300345Y-129265574D01*
X127217154Y-129152855D01*
X127217152Y-129152853D01*
X127217150Y-129152850D01*
X127210709Y-129148096D01*
X127175118Y-129098328D01*
X127170500Y-129068443D01*
X127170500Y-119690538D01*
X127183764Y-119641038D01*
X127257982Y-119512489D01*
X127257982Y-119512487D01*
X127257984Y-119512485D01*
X127295500Y-119372475D01*
X127295500Y-119227525D01*
X127257984Y-119087515D01*
X127257982Y-119087512D01*
X127257982Y-119087510D01*
X127185512Y-118961989D01*
X127185510Y-118961987D01*
X127185509Y-118961985D01*
X127083015Y-118859491D01*
X127083012Y-118859489D01*
X127083010Y-118859487D01*
X126957488Y-118787017D01*
X126957489Y-118787017D01*
X126927896Y-118779087D01*
X126817475Y-118749500D01*
X126672525Y-118749500D01*
X126610790Y-118766041D01*
X126532510Y-118787017D01*
X126406989Y-118859487D01*
X126304487Y-118961989D01*
X126232017Y-119087510D01*
X126194500Y-119227525D01*
X126194500Y-119372474D01*
X126232017Y-119512489D01*
X126306236Y-119641038D01*
X126319500Y-119690538D01*
X126319500Y-129068443D01*
X126300593Y-129126634D01*
X126279290Y-129148097D01*
X126272853Y-129152847D01*
X126272845Y-129152855D01*
X126192207Y-129262116D01*
X126147355Y-129390296D01*
X126147353Y-129390305D01*
X126144500Y-129420725D01*
X126144500Y-131279274D01*
X126147353Y-131309694D01*
X126147355Y-131309703D01*
X126192207Y-131437883D01*
X126272845Y-131547144D01*
X126272847Y-131547146D01*
X126272850Y-131547150D01*
X126272853Y-131547152D01*
X126272855Y-131547154D01*
X126382116Y-131627792D01*
X126382117Y-131627792D01*
X126382118Y-131627793D01*
X126510301Y-131672646D01*
X126540725Y-131675499D01*
X126540727Y-131675500D01*
X126540734Y-131675500D01*
X126949273Y-131675500D01*
X126949273Y-131675499D01*
X126979699Y-131672646D01*
X127107882Y-131627793D01*
X127217150Y-131547150D01*
X127250744Y-131501630D01*
X127300345Y-131434425D01*
X127350112Y-131398832D01*
X127411296Y-131399290D01*
X127459655Y-131434425D01*
X127542845Y-131547144D01*
X127542847Y-131547146D01*
X127542850Y-131547150D01*
X127542853Y-131547152D01*
X127542855Y-131547154D01*
X127652116Y-131627792D01*
X127652117Y-131627792D01*
X127652118Y-131627793D01*
X127780301Y-131672646D01*
X127810725Y-131675499D01*
X127810727Y-131675500D01*
X127810734Y-131675500D01*
X128219273Y-131675500D01*
X128219273Y-131675499D01*
X128249699Y-131672646D01*
X128377882Y-131627793D01*
X128487150Y-131547150D01*
X128520744Y-131501630D01*
X128570345Y-131434425D01*
X128620112Y-131398832D01*
X128681296Y-131399290D01*
X128729655Y-131434425D01*
X128812845Y-131547144D01*
X128812847Y-131547146D01*
X128812850Y-131547150D01*
X128812853Y-131547152D01*
X128812855Y-131547154D01*
X128922116Y-131627792D01*
X128922117Y-131627792D01*
X128922118Y-131627793D01*
X129050301Y-131672646D01*
X129080725Y-131675499D01*
X129080727Y-131675500D01*
X129080734Y-131675500D01*
X129489273Y-131675500D01*
X129489273Y-131675499D01*
X129519699Y-131672646D01*
X129647882Y-131627793D01*
X129757150Y-131547150D01*
X129790744Y-131501630D01*
X129840345Y-131434425D01*
X129890112Y-131398832D01*
X129951296Y-131399290D01*
X129999655Y-131434425D01*
X130082845Y-131547144D01*
X130082847Y-131547146D01*
X130082850Y-131547150D01*
X130082853Y-131547152D01*
X130082855Y-131547154D01*
X130192116Y-131627792D01*
X130192117Y-131627792D01*
X130192118Y-131627793D01*
X130320301Y-131672646D01*
X130350725Y-131675499D01*
X130350727Y-131675500D01*
X130350734Y-131675500D01*
X130759273Y-131675500D01*
X130759273Y-131675499D01*
X130789699Y-131672646D01*
X130917882Y-131627793D01*
X131027150Y-131547150D01*
X131060744Y-131501630D01*
X131110345Y-131434425D01*
X131160112Y-131398832D01*
X131221296Y-131399290D01*
X131269655Y-131434425D01*
X131352845Y-131547144D01*
X131352847Y-131547146D01*
X131352850Y-131547150D01*
X131352853Y-131547152D01*
X131352855Y-131547154D01*
X131462116Y-131627792D01*
X131462117Y-131627792D01*
X131462118Y-131627793D01*
X131590301Y-131672646D01*
X131620725Y-131675499D01*
X131620727Y-131675500D01*
X131620734Y-131675500D01*
X132029273Y-131675500D01*
X132029273Y-131675499D01*
X132059699Y-131672646D01*
X132187882Y-131627793D01*
X132297150Y-131547150D01*
X132330744Y-131501630D01*
X132380345Y-131434425D01*
X132430112Y-131398832D01*
X132491296Y-131399290D01*
X132539655Y-131434425D01*
X132622845Y-131547144D01*
X132622847Y-131547146D01*
X132622850Y-131547150D01*
X132622853Y-131547152D01*
X132622855Y-131547154D01*
X132732116Y-131627792D01*
X132732117Y-131627792D01*
X132732118Y-131627793D01*
X132860301Y-131672646D01*
X132890725Y-131675499D01*
X132890727Y-131675500D01*
X132890734Y-131675500D01*
X133299273Y-131675500D01*
X133299273Y-131675499D01*
X133329699Y-131672646D01*
X133457882Y-131627793D01*
X133567150Y-131547150D01*
X133600744Y-131501630D01*
X133650345Y-131434425D01*
X133700112Y-131398832D01*
X133761296Y-131399290D01*
X133809655Y-131434425D01*
X133892845Y-131547144D01*
X133892847Y-131547146D01*
X133892850Y-131547150D01*
X133892853Y-131547152D01*
X133892855Y-131547154D01*
X134002116Y-131627792D01*
X134002117Y-131627792D01*
X134002118Y-131627793D01*
X134130301Y-131672646D01*
X134160725Y-131675499D01*
X134160727Y-131675500D01*
X134160734Y-131675500D01*
X134569273Y-131675500D01*
X134569273Y-131675499D01*
X134599699Y-131672646D01*
X134727882Y-131627793D01*
X134837150Y-131547150D01*
X134870744Y-131501630D01*
X134920345Y-131434425D01*
X134970112Y-131398832D01*
X135031296Y-131399290D01*
X135079655Y-131434425D01*
X135162845Y-131547144D01*
X135162847Y-131547146D01*
X135162850Y-131547150D01*
X135162853Y-131547152D01*
X135162855Y-131547154D01*
X135272116Y-131627792D01*
X135272117Y-131627792D01*
X135272118Y-131627793D01*
X135400301Y-131672646D01*
X135430725Y-131675499D01*
X135430727Y-131675500D01*
X135430734Y-131675500D01*
X135839273Y-131675500D01*
X135839273Y-131675499D01*
X135869699Y-131672646D01*
X135997882Y-131627793D01*
X136107150Y-131547150D01*
X136140744Y-131501630D01*
X136190345Y-131434425D01*
X136240112Y-131398832D01*
X136301296Y-131399290D01*
X136349655Y-131434425D01*
X136432845Y-131547144D01*
X136432847Y-131547146D01*
X136432850Y-131547150D01*
X136432853Y-131547152D01*
X136432855Y-131547154D01*
X136542116Y-131627792D01*
X136542117Y-131627792D01*
X136542118Y-131627793D01*
X136670301Y-131672646D01*
X136700725Y-131675499D01*
X136700727Y-131675500D01*
X136700734Y-131675500D01*
X137109273Y-131675500D01*
X137109273Y-131675499D01*
X137139699Y-131672646D01*
X137267882Y-131627793D01*
X137377150Y-131547150D01*
X137410744Y-131501630D01*
X137460345Y-131434425D01*
X137510112Y-131398832D01*
X137571296Y-131399290D01*
X137619655Y-131434425D01*
X137702845Y-131547144D01*
X137702847Y-131547146D01*
X137702850Y-131547150D01*
X137702853Y-131547152D01*
X137702855Y-131547154D01*
X137812116Y-131627792D01*
X137812117Y-131627792D01*
X137812118Y-131627793D01*
X137940301Y-131672646D01*
X137970725Y-131675499D01*
X137970727Y-131675500D01*
X137970734Y-131675500D01*
X138379273Y-131675500D01*
X138379273Y-131675499D01*
X138409699Y-131672646D01*
X138537882Y-131627793D01*
X138647150Y-131547150D01*
X138680744Y-131501630D01*
X138730345Y-131434425D01*
X138780112Y-131398832D01*
X138841296Y-131399290D01*
X138889655Y-131434425D01*
X138972845Y-131547144D01*
X138972847Y-131547146D01*
X138972850Y-131547150D01*
X138972853Y-131547152D01*
X138972855Y-131547154D01*
X139082116Y-131627792D01*
X139082117Y-131627792D01*
X139082118Y-131627793D01*
X139210301Y-131672646D01*
X139240725Y-131675499D01*
X139240727Y-131675500D01*
X139240734Y-131675500D01*
X139649273Y-131675500D01*
X139649273Y-131675499D01*
X139679699Y-131672646D01*
X139807882Y-131627793D01*
X139917150Y-131547150D01*
X139997793Y-131437882D01*
X140042646Y-131309699D01*
X140045499Y-131279273D01*
X140045500Y-131279273D01*
X140045500Y-129420727D01*
X140045499Y-129420725D01*
X140042646Y-129390305D01*
X140042646Y-129390301D01*
X139997793Y-129262118D01*
X139917150Y-129152850D01*
X139910709Y-129148096D01*
X139875118Y-129098328D01*
X139870500Y-129068443D01*
X139870500Y-128156416D01*
X139889407Y-128098225D01*
X139938907Y-128062261D01*
X140000093Y-128062261D01*
X140049593Y-128098225D01*
X140065125Y-128130790D01*
X140084522Y-128203180D01*
X140087017Y-128212489D01*
X140159487Y-128338010D01*
X140159489Y-128338012D01*
X140159491Y-128338015D01*
X140261985Y-128440509D01*
X140261987Y-128440510D01*
X140261989Y-128440512D01*
X140387511Y-128512982D01*
X140387512Y-128512982D01*
X140387515Y-128512984D01*
X140527525Y-128550500D01*
X140527526Y-128550500D01*
X140672474Y-128550500D01*
X140672475Y-128550500D01*
X140812485Y-128512984D01*
X140812487Y-128512982D01*
X140812489Y-128512982D01*
X140941039Y-128438764D01*
X140990539Y-128425500D01*
X147775500Y-128425500D01*
X147833691Y-128444407D01*
X147869655Y-128493907D01*
X147874500Y-128524500D01*
X147874500Y-155640747D01*
X147855593Y-155698938D01*
X147806093Y-155734902D01*
X147744907Y-155734902D01*
X147739181Y-155732844D01*
X147681566Y-155710123D01*
X147593106Y-155699500D01*
X147593102Y-155699500D01*
X146406898Y-155699500D01*
X146406893Y-155699500D01*
X146318434Y-155710123D01*
X146177660Y-155765637D01*
X146177656Y-155765640D01*
X146057081Y-155857075D01*
X146057075Y-155857081D01*
X145965640Y-155977656D01*
X145965637Y-155977660D01*
X145910123Y-156118434D01*
X145899500Y-156206893D01*
X145899500Y-156775500D01*
X145880593Y-156833691D01*
X145831093Y-156869655D01*
X145800500Y-156874500D01*
X143219500Y-156874500D01*
X143161309Y-156855593D01*
X143125345Y-156806093D01*
X143120500Y-156775500D01*
X143120500Y-142060634D01*
X143131666Y-142018963D01*
X143130500Y-142018480D01*
X143132977Y-142012496D01*
X143132984Y-142012485D01*
X143170500Y-141872475D01*
X143170500Y-141727525D01*
X143132984Y-141587515D01*
X143132982Y-141587512D01*
X143132982Y-141587510D01*
X143060512Y-141461989D01*
X143060510Y-141461987D01*
X143060509Y-141461985D01*
X142958015Y-141359491D01*
X142958012Y-141359489D01*
X142958010Y-141359487D01*
X142832488Y-141287017D01*
X142832489Y-141287017D01*
X142704876Y-141252823D01*
X142692475Y-141249500D01*
X142547525Y-141249500D01*
X142547522Y-141249500D01*
X142535121Y-141252823D01*
X142474020Y-141249620D01*
X142426471Y-141211114D01*
X142410500Y-141157196D01*
X142410500Y-140931556D01*
X142429407Y-140873365D01*
X142432146Y-140869771D01*
X142440254Y-140859619D01*
X142457150Y-140847150D01*
X142537793Y-140737882D01*
X142538028Y-140737208D01*
X142542646Y-140731428D01*
X142566691Y-140715582D01*
X142590112Y-140698832D01*
X142592086Y-140698846D01*
X142593736Y-140697760D01*
X142622501Y-140699074D01*
X142651296Y-140699290D01*
X142652911Y-140700464D01*
X142654858Y-140700553D01*
X142673212Y-140715213D01*
X142699655Y-140734425D01*
X142782845Y-140847144D01*
X142782847Y-140847146D01*
X142782850Y-140847150D01*
X142782853Y-140847152D01*
X142782855Y-140847154D01*
X142892116Y-140927792D01*
X142892117Y-140927792D01*
X142892118Y-140927793D01*
X143020301Y-140972646D01*
X143050725Y-140975499D01*
X143050727Y-140975500D01*
X143050734Y-140975500D01*
X143459273Y-140975500D01*
X143459273Y-140975499D01*
X143489699Y-140972646D01*
X143617882Y-140927793D01*
X143727150Y-140847150D01*
X143807793Y-140737882D01*
X143852646Y-140609699D01*
X143855499Y-140579273D01*
X143855500Y-140579273D01*
X143855500Y-138720727D01*
X143855499Y-138720725D01*
X143852646Y-138690305D01*
X143852646Y-138690301D01*
X143807793Y-138562118D01*
X143727150Y-138452850D01*
X143727146Y-138452847D01*
X143727144Y-138452845D01*
X143617883Y-138372207D01*
X143489703Y-138327355D01*
X143489694Y-138327353D01*
X143459274Y-138324500D01*
X143459266Y-138324500D01*
X143050734Y-138324500D01*
X143050725Y-138324500D01*
X143020305Y-138327353D01*
X143020296Y-138327355D01*
X142892116Y-138372207D01*
X142782855Y-138452845D01*
X142782845Y-138452855D01*
X142699655Y-138565574D01*
X142649887Y-138601167D01*
X142588704Y-138600709D01*
X142540345Y-138565574D01*
X142457154Y-138452855D01*
X142457152Y-138452853D01*
X142457150Y-138452850D01*
X142457146Y-138452847D01*
X142457144Y-138452845D01*
X142347883Y-138372207D01*
X142219703Y-138327355D01*
X142219694Y-138327353D01*
X142189274Y-138324500D01*
X142189266Y-138324500D01*
X141780734Y-138324500D01*
X141780725Y-138324500D01*
X141750305Y-138327353D01*
X141750296Y-138327355D01*
X141622116Y-138372207D01*
X141512855Y-138452845D01*
X141512845Y-138452855D01*
X141429655Y-138565574D01*
X141379887Y-138601167D01*
X141318704Y-138600709D01*
X141270345Y-138565574D01*
X141187154Y-138452855D01*
X141187152Y-138452853D01*
X141187150Y-138452850D01*
X141187146Y-138452847D01*
X141187144Y-138452845D01*
X141077883Y-138372207D01*
X140949703Y-138327355D01*
X140949694Y-138327353D01*
X140919274Y-138324500D01*
X140919266Y-138324500D01*
X140510734Y-138324500D01*
X140510725Y-138324500D01*
X140480305Y-138327353D01*
X140480296Y-138327355D01*
X140352116Y-138372207D01*
X140242855Y-138452845D01*
X140242845Y-138452855D01*
X140159655Y-138565574D01*
X140109887Y-138601167D01*
X140048704Y-138600709D01*
X140000345Y-138565574D01*
X139917154Y-138452855D01*
X139917152Y-138452853D01*
X139917150Y-138452850D01*
X139917146Y-138452847D01*
X139917144Y-138452845D01*
X139807883Y-138372207D01*
X139679703Y-138327355D01*
X139679694Y-138327353D01*
X139649274Y-138324500D01*
X139649266Y-138324500D01*
X139240734Y-138324500D01*
X139240725Y-138324500D01*
X139210305Y-138327353D01*
X139210296Y-138327355D01*
X139082116Y-138372207D01*
X138972855Y-138452845D01*
X138972845Y-138452855D01*
X138892207Y-138562116D01*
X138847355Y-138690296D01*
X138847353Y-138690305D01*
X138844500Y-138720725D01*
X138844500Y-140579274D01*
X138847353Y-140609694D01*
X138847355Y-140609703D01*
X138892207Y-140737883D01*
X138972845Y-140847144D01*
X138972847Y-140847146D01*
X138972850Y-140847150D01*
X138972853Y-140847152D01*
X138972855Y-140847154D01*
X139082116Y-140927792D01*
X139082117Y-140927792D01*
X139082118Y-140927793D01*
X139210301Y-140972646D01*
X139240725Y-140975499D01*
X139240727Y-140975500D01*
X139240734Y-140975500D01*
X139649273Y-140975500D01*
X139649273Y-140975499D01*
X139679699Y-140972646D01*
X139807882Y-140927793D01*
X139917150Y-140847150D01*
X139950744Y-140801630D01*
X140000345Y-140734425D01*
X140023194Y-140718083D01*
X140045142Y-140700553D01*
X140047880Y-140700427D01*
X140050112Y-140698832D01*
X140078202Y-140699042D01*
X140106264Y-140697760D01*
X140108461Y-140699268D01*
X140111296Y-140699290D01*
X140157354Y-140731428D01*
X140161971Y-140737208D01*
X140162207Y-140737882D01*
X140242850Y-140847150D01*
X140259745Y-140859619D01*
X140267854Y-140869771D01*
X140274273Y-140886835D01*
X140284880Y-140901665D01*
X140288386Y-140924351D01*
X140289397Y-140927038D01*
X140289015Y-140928423D01*
X140289500Y-140931556D01*
X140289500Y-141217742D01*
X140270593Y-141275933D01*
X140221093Y-141311897D01*
X140159907Y-141311897D01*
X140141001Y-141303479D01*
X140112488Y-141287017D01*
X140112485Y-141287016D01*
X139972475Y-141249500D01*
X139827525Y-141249500D01*
X139815124Y-141252823D01*
X139687510Y-141287017D01*
X139558961Y-141361236D01*
X139509461Y-141374500D01*
X137429500Y-141374500D01*
X137371309Y-141355593D01*
X137335345Y-141306093D01*
X137330500Y-141275500D01*
X137330500Y-140931556D01*
X137349407Y-140873365D01*
X137370710Y-140851902D01*
X137377150Y-140847150D01*
X137457793Y-140737882D01*
X137502646Y-140609699D01*
X137505499Y-140579273D01*
X137505500Y-140579273D01*
X137505500Y-138720727D01*
X137505499Y-138720725D01*
X137502646Y-138690305D01*
X137502646Y-138690301D01*
X137457793Y-138562118D01*
X137377150Y-138452850D01*
X137377146Y-138452847D01*
X137377144Y-138452845D01*
X137267883Y-138372207D01*
X137139703Y-138327355D01*
X137139694Y-138327353D01*
X137109274Y-138324500D01*
X137109266Y-138324500D01*
X136700734Y-138324500D01*
X136700725Y-138324500D01*
X136670305Y-138327353D01*
X136670296Y-138327355D01*
X136542116Y-138372207D01*
X136432855Y-138452845D01*
X136432845Y-138452855D01*
X136349655Y-138565574D01*
X136299887Y-138601167D01*
X136238704Y-138600709D01*
X136190345Y-138565574D01*
X136107154Y-138452855D01*
X136107152Y-138452853D01*
X136107150Y-138452850D01*
X136107146Y-138452847D01*
X136107144Y-138452845D01*
X135997883Y-138372207D01*
X135869703Y-138327355D01*
X135869694Y-138327353D01*
X135839274Y-138324500D01*
X135839266Y-138324500D01*
X135430734Y-138324500D01*
X135430725Y-138324500D01*
X135400305Y-138327353D01*
X135400296Y-138327355D01*
X135272116Y-138372207D01*
X135162855Y-138452845D01*
X135162845Y-138452855D01*
X135079655Y-138565574D01*
X135029887Y-138601167D01*
X134968704Y-138600709D01*
X134920345Y-138565574D01*
X134837154Y-138452855D01*
X134837152Y-138452853D01*
X134837150Y-138452850D01*
X134837146Y-138452847D01*
X134837144Y-138452845D01*
X134727883Y-138372207D01*
X134599703Y-138327355D01*
X134599694Y-138327353D01*
X134569274Y-138324500D01*
X134569266Y-138324500D01*
X134160734Y-138324500D01*
X134160725Y-138324500D01*
X134130305Y-138327353D01*
X134130296Y-138327355D01*
X134002116Y-138372207D01*
X133892855Y-138452845D01*
X133892845Y-138452855D01*
X133809655Y-138565574D01*
X133759887Y-138601167D01*
X133698704Y-138600709D01*
X133650345Y-138565574D01*
X133567154Y-138452855D01*
X133567152Y-138452853D01*
X133567150Y-138452850D01*
X133567146Y-138452847D01*
X133567144Y-138452845D01*
X133457883Y-138372207D01*
X133329703Y-138327355D01*
X133329694Y-138327353D01*
X133299274Y-138324500D01*
X133299266Y-138324500D01*
X132890734Y-138324500D01*
X132890725Y-138324500D01*
X132860305Y-138327353D01*
X132860296Y-138327355D01*
X132732116Y-138372207D01*
X132622855Y-138452845D01*
X132622845Y-138452855D01*
X132539655Y-138565574D01*
X132489887Y-138601167D01*
X132428704Y-138600709D01*
X132380345Y-138565574D01*
X132297154Y-138452855D01*
X132297152Y-138452853D01*
X132297150Y-138452850D01*
X132297146Y-138452847D01*
X132297144Y-138452845D01*
X132187883Y-138372207D01*
X132059703Y-138327355D01*
X132059694Y-138327353D01*
X132029274Y-138324500D01*
X132029266Y-138324500D01*
X131620734Y-138324500D01*
X131620725Y-138324500D01*
X131590305Y-138327353D01*
X131590296Y-138327355D01*
X131462116Y-138372207D01*
X131352855Y-138452845D01*
X131352845Y-138452855D01*
X131269655Y-138565574D01*
X131219887Y-138601167D01*
X131158704Y-138600709D01*
X131110345Y-138565574D01*
X131027154Y-138452855D01*
X131027152Y-138452853D01*
X131027150Y-138452850D01*
X131027146Y-138452847D01*
X131027144Y-138452845D01*
X130917883Y-138372207D01*
X130789703Y-138327355D01*
X130789694Y-138327353D01*
X130759274Y-138324500D01*
X130759266Y-138324500D01*
X130350734Y-138324500D01*
X130350725Y-138324500D01*
X130320305Y-138327353D01*
X130320296Y-138327355D01*
X130192116Y-138372207D01*
X130082855Y-138452845D01*
X130082845Y-138452855D01*
X129999655Y-138565574D01*
X129949887Y-138601167D01*
X129888704Y-138600709D01*
X129840345Y-138565574D01*
X129757154Y-138452855D01*
X129757152Y-138452853D01*
X129757150Y-138452850D01*
X129757146Y-138452847D01*
X129757144Y-138452845D01*
X129647883Y-138372207D01*
X129519703Y-138327355D01*
X129519694Y-138327353D01*
X129489274Y-138324500D01*
X129489266Y-138324500D01*
X129080734Y-138324500D01*
X129080725Y-138324500D01*
X129050305Y-138327353D01*
X129050296Y-138327355D01*
X128922116Y-138372207D01*
X128812855Y-138452845D01*
X128812845Y-138452855D01*
X128729655Y-138565574D01*
X128679887Y-138601167D01*
X128618704Y-138600709D01*
X128570345Y-138565574D01*
X128487154Y-138452855D01*
X128487152Y-138452853D01*
X128487150Y-138452850D01*
X128487146Y-138452847D01*
X128487144Y-138452845D01*
X128377883Y-138372207D01*
X128249703Y-138327355D01*
X128249694Y-138327353D01*
X128219274Y-138324500D01*
X128219266Y-138324500D01*
X127810734Y-138324500D01*
X127810725Y-138324500D01*
X127780305Y-138327353D01*
X127780296Y-138327355D01*
X127652116Y-138372207D01*
X127542855Y-138452845D01*
X127542845Y-138452855D01*
X127459655Y-138565574D01*
X127409887Y-138601167D01*
X127348704Y-138600709D01*
X127300345Y-138565574D01*
X127217154Y-138452855D01*
X127217152Y-138452853D01*
X127217150Y-138452850D01*
X127217146Y-138452847D01*
X127217144Y-138452845D01*
X127107883Y-138372207D01*
X126979703Y-138327355D01*
X126979694Y-138327353D01*
X126949274Y-138324500D01*
X126949266Y-138324500D01*
X126540734Y-138324500D01*
X126540725Y-138324500D01*
X126510305Y-138327353D01*
X126510296Y-138327355D01*
X126382116Y-138372207D01*
X126272855Y-138452845D01*
X126272845Y-138452855D01*
X126192207Y-138562116D01*
X126147355Y-138690296D01*
X126147353Y-138690305D01*
X126144500Y-138720725D01*
X126144500Y-140579274D01*
X126147353Y-140609694D01*
X126147355Y-140609703D01*
X126192207Y-140737883D01*
X126272845Y-140847144D01*
X126272847Y-140847146D01*
X126272850Y-140847150D01*
X126279286Y-140851900D01*
X126314880Y-140901665D01*
X126319500Y-140931556D01*
X126319500Y-146509461D01*
X126306236Y-146558961D01*
X126232017Y-146687510D01*
X126194500Y-146827525D01*
X126194500Y-146972474D01*
X126232017Y-147112489D01*
X126304487Y-147238010D01*
X126304489Y-147238012D01*
X126304491Y-147238015D01*
X126406985Y-147340509D01*
X126406987Y-147340510D01*
X126406989Y-147340512D01*
X126532511Y-147412982D01*
X126532512Y-147412982D01*
X126532515Y-147412984D01*
X126672525Y-147450500D01*
X126672526Y-147450500D01*
X126817474Y-147450500D01*
X126817475Y-147450500D01*
X126957485Y-147412984D01*
X126957487Y-147412982D01*
X126957489Y-147412982D01*
X127083010Y-147340512D01*
X127083010Y-147340511D01*
X127083015Y-147340509D01*
X127185509Y-147238015D01*
X127257984Y-147112485D01*
X127295500Y-146972475D01*
X127295500Y-146827525D01*
X127257984Y-146687515D01*
X127257982Y-146687512D01*
X127257982Y-146687510D01*
X127183764Y-146558961D01*
X127170500Y-146509461D01*
X127170500Y-140931556D01*
X127189407Y-140873365D01*
X127192146Y-140869771D01*
X127200254Y-140859619D01*
X127217150Y-140847150D01*
X127297793Y-140737882D01*
X127298028Y-140737208D01*
X127302646Y-140731428D01*
X127326691Y-140715582D01*
X127350112Y-140698832D01*
X127352086Y-140698846D01*
X127353736Y-140697760D01*
X127382501Y-140699074D01*
X127411296Y-140699290D01*
X127412911Y-140700464D01*
X127414858Y-140700553D01*
X127433212Y-140715213D01*
X127459655Y-140734425D01*
X127542845Y-140847144D01*
X127542847Y-140847146D01*
X127542850Y-140847150D01*
X127549286Y-140851900D01*
X127584880Y-140901665D01*
X127589500Y-140931556D01*
X127589500Y-145709461D01*
X127576236Y-145758961D01*
X127502017Y-145887510D01*
X127464500Y-146027525D01*
X127464500Y-146172474D01*
X127502017Y-146312489D01*
X127574487Y-146438010D01*
X127574489Y-146438012D01*
X127574491Y-146438015D01*
X127676985Y-146540509D01*
X127676987Y-146540510D01*
X127676989Y-146540512D01*
X127802511Y-146612982D01*
X127802512Y-146612982D01*
X127802515Y-146612984D01*
X127942525Y-146650500D01*
X127942526Y-146650500D01*
X128087474Y-146650500D01*
X128087475Y-146650500D01*
X128227485Y-146612984D01*
X128227487Y-146612982D01*
X128227489Y-146612982D01*
X128353010Y-146540512D01*
X128353010Y-146540511D01*
X128353015Y-146540509D01*
X128455509Y-146438015D01*
X128527984Y-146312485D01*
X128565500Y-146172475D01*
X128565500Y-146027525D01*
X128527984Y-145887515D01*
X128527982Y-145887512D01*
X128527982Y-145887510D01*
X128453764Y-145758961D01*
X128440500Y-145709461D01*
X128440500Y-140931556D01*
X128459407Y-140873365D01*
X128462146Y-140869771D01*
X128470254Y-140859619D01*
X128487150Y-140847150D01*
X128567793Y-140737882D01*
X128568028Y-140737208D01*
X128572646Y-140731428D01*
X128596691Y-140715582D01*
X128620112Y-140698832D01*
X128622086Y-140698846D01*
X128623736Y-140697760D01*
X128652501Y-140699074D01*
X128681296Y-140699290D01*
X128682911Y-140700464D01*
X128684858Y-140700553D01*
X128703212Y-140715213D01*
X128729655Y-140734425D01*
X128812845Y-140847144D01*
X128812847Y-140847146D01*
X128812850Y-140847150D01*
X128819286Y-140851900D01*
X128854880Y-140901665D01*
X128859500Y-140931556D01*
X128859500Y-144909461D01*
X128846236Y-144958961D01*
X128772017Y-145087510D01*
X128734500Y-145227525D01*
X128734500Y-145372474D01*
X128772017Y-145512489D01*
X128844487Y-145638010D01*
X128844489Y-145638012D01*
X128844491Y-145638015D01*
X128946985Y-145740509D01*
X128946987Y-145740510D01*
X128946989Y-145740512D01*
X129072511Y-145812982D01*
X129072512Y-145812982D01*
X129072515Y-145812984D01*
X129212525Y-145850500D01*
X129212526Y-145850500D01*
X129357474Y-145850500D01*
X129357475Y-145850500D01*
X129497485Y-145812984D01*
X129497487Y-145812982D01*
X129497489Y-145812982D01*
X129623010Y-145740512D01*
X129623010Y-145740511D01*
X129623015Y-145740509D01*
X129725509Y-145638015D01*
X129797984Y-145512485D01*
X129835500Y-145372475D01*
X129835500Y-145227525D01*
X129797984Y-145087515D01*
X129797982Y-145087512D01*
X129797982Y-145087510D01*
X129723764Y-144958961D01*
X129710500Y-144909461D01*
X129710500Y-140931556D01*
X129729407Y-140873365D01*
X129732146Y-140869771D01*
X129740254Y-140859619D01*
X129757150Y-140847150D01*
X129837793Y-140737882D01*
X129838028Y-140737208D01*
X129842646Y-140731428D01*
X129866691Y-140715582D01*
X129890112Y-140698832D01*
X129892086Y-140698846D01*
X129893736Y-140697760D01*
X129922501Y-140699074D01*
X129951296Y-140699290D01*
X129952911Y-140700464D01*
X129954858Y-140700553D01*
X129973212Y-140715213D01*
X129999655Y-140734425D01*
X130082845Y-140847144D01*
X130082847Y-140847146D01*
X130082850Y-140847150D01*
X130089286Y-140851900D01*
X130124880Y-140901665D01*
X130129500Y-140931556D01*
X130129500Y-144109461D01*
X130116236Y-144158961D01*
X130042017Y-144287510D01*
X130004500Y-144427525D01*
X130004500Y-144572474D01*
X130042017Y-144712489D01*
X130114487Y-144838010D01*
X130114489Y-144838012D01*
X130114491Y-144838015D01*
X130216985Y-144940509D01*
X130216987Y-144940510D01*
X130216989Y-144940512D01*
X130342511Y-145012982D01*
X130342512Y-145012982D01*
X130342515Y-145012984D01*
X130482525Y-145050500D01*
X130482526Y-145050500D01*
X130627474Y-145050500D01*
X130627475Y-145050500D01*
X130767485Y-145012984D01*
X130767487Y-145012982D01*
X130767489Y-145012982D01*
X130893010Y-144940512D01*
X130893010Y-144940511D01*
X130893015Y-144940509D01*
X130995509Y-144838015D01*
X131067984Y-144712485D01*
X131105500Y-144572475D01*
X131105500Y-144427525D01*
X131067984Y-144287515D01*
X131067982Y-144287512D01*
X131067982Y-144287510D01*
X130993764Y-144158961D01*
X130980500Y-144109461D01*
X130980500Y-140931556D01*
X130999407Y-140873365D01*
X131002146Y-140869771D01*
X131010254Y-140859619D01*
X131027150Y-140847150D01*
X131107793Y-140737882D01*
X131108028Y-140737208D01*
X131112646Y-140731428D01*
X131136691Y-140715582D01*
X131160112Y-140698832D01*
X131162086Y-140698846D01*
X131163736Y-140697760D01*
X131192501Y-140699074D01*
X131221296Y-140699290D01*
X131222911Y-140700464D01*
X131224858Y-140700553D01*
X131243212Y-140715213D01*
X131269655Y-140734425D01*
X131352845Y-140847144D01*
X131352847Y-140847146D01*
X131352850Y-140847150D01*
X131352853Y-140847152D01*
X131352855Y-140847154D01*
X131462116Y-140927792D01*
X131462117Y-140927792D01*
X131462118Y-140927793D01*
X131590301Y-140972646D01*
X131620725Y-140975499D01*
X131620727Y-140975500D01*
X131620734Y-140975500D01*
X132029273Y-140975500D01*
X132029273Y-140975499D01*
X132059699Y-140972646D01*
X132187882Y-140927793D01*
X132297150Y-140847150D01*
X132330744Y-140801630D01*
X132380345Y-140734425D01*
X132430112Y-140698832D01*
X132491296Y-140699290D01*
X132539655Y-140734425D01*
X132622845Y-140847144D01*
X132622847Y-140847146D01*
X132622850Y-140847150D01*
X132622853Y-140847152D01*
X132622855Y-140847154D01*
X132732116Y-140927792D01*
X132732117Y-140927792D01*
X132732118Y-140927793D01*
X132860301Y-140972646D01*
X132890725Y-140975499D01*
X132890727Y-140975500D01*
X132890734Y-140975500D01*
X133299273Y-140975500D01*
X133299273Y-140975499D01*
X133329699Y-140972646D01*
X133457882Y-140927793D01*
X133567150Y-140847150D01*
X133600744Y-140801630D01*
X133650345Y-140734425D01*
X133700112Y-140698832D01*
X133761296Y-140699290D01*
X133809655Y-140734425D01*
X133892845Y-140847144D01*
X133892847Y-140847146D01*
X133892850Y-140847150D01*
X133892853Y-140847152D01*
X133892855Y-140847154D01*
X134002116Y-140927792D01*
X134002117Y-140927792D01*
X134002118Y-140927793D01*
X134130301Y-140972646D01*
X134160725Y-140975499D01*
X134160727Y-140975500D01*
X134160734Y-140975500D01*
X134569273Y-140975500D01*
X134569273Y-140975499D01*
X134599699Y-140972646D01*
X134727882Y-140927793D01*
X134837150Y-140847150D01*
X134870744Y-140801630D01*
X134920345Y-140734425D01*
X134970112Y-140698832D01*
X135031296Y-140699290D01*
X135079655Y-140734425D01*
X135162845Y-140847144D01*
X135162847Y-140847146D01*
X135162850Y-140847150D01*
X135162853Y-140847152D01*
X135162855Y-140847154D01*
X135272116Y-140927792D01*
X135272117Y-140927792D01*
X135272118Y-140927793D01*
X135400301Y-140972646D01*
X135430725Y-140975499D01*
X135430727Y-140975500D01*
X135430734Y-140975500D01*
X135839273Y-140975500D01*
X135839273Y-140975499D01*
X135869699Y-140972646D01*
X135997882Y-140927793D01*
X136107150Y-140847150D01*
X136140744Y-140801630D01*
X136190345Y-140734425D01*
X136213194Y-140718083D01*
X136235142Y-140700553D01*
X136237880Y-140700427D01*
X136240112Y-140698832D01*
X136268202Y-140699042D01*
X136296264Y-140697760D01*
X136298461Y-140699268D01*
X136301296Y-140699290D01*
X136347354Y-140731428D01*
X136351971Y-140737208D01*
X136352207Y-140737882D01*
X136432850Y-140847150D01*
X136449745Y-140859619D01*
X136457854Y-140869771D01*
X136464273Y-140886835D01*
X136474880Y-140901665D01*
X136478386Y-140924351D01*
X136479397Y-140927038D01*
X136479015Y-140928423D01*
X136479500Y-140931556D01*
X136479500Y-142279279D01*
X136460593Y-142337470D01*
X136411093Y-142373434D01*
X136368697Y-142377573D01*
X136343109Y-142374500D01*
X136343102Y-142374500D01*
X135756898Y-142374500D01*
X135756893Y-142374500D01*
X135668434Y-142385123D01*
X135527660Y-142440637D01*
X135527656Y-142440640D01*
X135407081Y-142532075D01*
X135407075Y-142532081D01*
X135315640Y-142652656D01*
X135315637Y-142652660D01*
X135260123Y-142793434D01*
X135249500Y-142881893D01*
X135249500Y-143918106D01*
X135260123Y-144006565D01*
X135315637Y-144147339D01*
X135315638Y-144147341D01*
X135315639Y-144147342D01*
X135407078Y-144267922D01*
X135527658Y-144359361D01*
X135527659Y-144359361D01*
X135527660Y-144359362D01*
X135598047Y-144387119D01*
X135668436Y-144414877D01*
X135756898Y-144425500D01*
X135756900Y-144425500D01*
X136343100Y-144425500D01*
X136343102Y-144425500D01*
X136431564Y-144414877D01*
X136572342Y-144359361D01*
X136692922Y-144267922D01*
X136784361Y-144147342D01*
X136839877Y-144006564D01*
X136850500Y-143918102D01*
X136850853Y-143915164D01*
X136851778Y-143915275D01*
X136872803Y-143861650D01*
X136924354Y-143828693D01*
X136949294Y-143825500D01*
X136961016Y-143825500D01*
X136961018Y-143825500D01*
X137069237Y-143796503D01*
X137069239Y-143796501D01*
X137069241Y-143796501D01*
X137098064Y-143779859D01*
X137166263Y-143740485D01*
X137245485Y-143661263D01*
X137301503Y-143564237D01*
X137330500Y-143456018D01*
X137330500Y-142324500D01*
X137349407Y-142266309D01*
X137398907Y-142230345D01*
X137429500Y-142225500D01*
X139509461Y-142225500D01*
X139558961Y-142238764D01*
X139687511Y-142312982D01*
X139687512Y-142312982D01*
X139687515Y-142312984D01*
X139827525Y-142350500D01*
X139827526Y-142350500D01*
X139972474Y-142350500D01*
X139972475Y-142350500D01*
X140112485Y-142312984D01*
X140141000Y-142296520D01*
X140200847Y-142283799D01*
X140256743Y-142308685D01*
X140287336Y-142361672D01*
X140289500Y-142382257D01*
X140289500Y-151975500D01*
X140270593Y-152033691D01*
X140221093Y-152069655D01*
X140190500Y-152074500D01*
X124896018Y-152074500D01*
X124783982Y-152074500D01*
X124717748Y-152092247D01*
X124675758Y-152103498D01*
X124578739Y-152159513D01*
X124499513Y-152238739D01*
X124443498Y-152335758D01*
X124414500Y-152443983D01*
X124414500Y-172417170D01*
X124395593Y-172475361D01*
X124346093Y-172511325D01*
X124284907Y-172511325D01*
X124257313Y-172497265D01*
X124172994Y-172436004D01*
X124172993Y-172436003D01*
X124172991Y-172436002D01*
X124011637Y-172353788D01*
X123839406Y-172297828D01*
X123660549Y-172269500D01*
X123660546Y-172269500D01*
X123479454Y-172269500D01*
X123479451Y-172269500D01*
X123300593Y-172297828D01*
X123128362Y-172353788D01*
X122967008Y-172436002D01*
X122912835Y-172475361D01*
X122820499Y-172542447D01*
X122692447Y-172670499D01*
X122639225Y-172743752D01*
X122586002Y-172817008D01*
X122503788Y-172978362D01*
X122447828Y-173150593D01*
X122419500Y-173329450D01*
X122419500Y-173510549D01*
X122447828Y-173689406D01*
X122447829Y-173689409D01*
X122503789Y-173861639D01*
X122586004Y-174022994D01*
X122692447Y-174169501D01*
X122820499Y-174297553D01*
X122967006Y-174403996D01*
X123128361Y-174486211D01*
X123300591Y-174542171D01*
X123372136Y-174553502D01*
X123479451Y-174570500D01*
X123479454Y-174570500D01*
X123660549Y-174570500D01*
X123749977Y-174556335D01*
X123839409Y-174542171D01*
X124011639Y-174486211D01*
X124172994Y-174403996D01*
X124257311Y-174342736D01*
X124315499Y-174323829D01*
X124373690Y-174342736D01*
X124409654Y-174392236D01*
X124414500Y-174422829D01*
X124414500Y-174957170D01*
X124395593Y-175015361D01*
X124346093Y-175051325D01*
X124284907Y-175051325D01*
X124257313Y-175037265D01*
X124172994Y-174976004D01*
X124172993Y-174976003D01*
X124172991Y-174976002D01*
X124011637Y-174893788D01*
X123839406Y-174837828D01*
X123660549Y-174809500D01*
X123660546Y-174809500D01*
X123479454Y-174809500D01*
X123479451Y-174809500D01*
X123300593Y-174837828D01*
X123128362Y-174893788D01*
X122967008Y-174976002D01*
X122931667Y-175001679D01*
X122820499Y-175082447D01*
X122692447Y-175210499D01*
X122639225Y-175283752D01*
X122586002Y-175357008D01*
X122503788Y-175518362D01*
X122447828Y-175690593D01*
X122419500Y-175869450D01*
X122419500Y-176050549D01*
X122447828Y-176229406D01*
X122503788Y-176401637D01*
X122586001Y-176562990D01*
X122586004Y-176562994D01*
X122692447Y-176709501D01*
X122820499Y-176837553D01*
X122967006Y-176943996D01*
X123128361Y-177026211D01*
X123300591Y-177082171D01*
X123372136Y-177093502D01*
X123479451Y-177110500D01*
X123479454Y-177110500D01*
X123660549Y-177110500D01*
X123749977Y-177096335D01*
X123839409Y-177082171D01*
X124011639Y-177026211D01*
X124172994Y-176943996D01*
X124319501Y-176837553D01*
X124447553Y-176709501D01*
X124553996Y-176562994D01*
X124624803Y-176424027D01*
X124668066Y-176380766D01*
X124728498Y-176371194D01*
X124738627Y-176373347D01*
X124783982Y-176385500D01*
X124896018Y-176385500D01*
X124974899Y-176385500D01*
X125033090Y-176404407D01*
X125063107Y-176439552D01*
X125085436Y-176483375D01*
X125126001Y-176562990D01*
X125126004Y-176562994D01*
X125232447Y-176709501D01*
X125360499Y-176837553D01*
X125507006Y-176943996D01*
X125668361Y-177026211D01*
X125840591Y-177082171D01*
X125912136Y-177093502D01*
X126019451Y-177110500D01*
X126019454Y-177110500D01*
X126200549Y-177110500D01*
X126289977Y-177096335D01*
X126379409Y-177082171D01*
X126551639Y-177026211D01*
X126712994Y-176943996D01*
X126859501Y-176837553D01*
X126987553Y-176709501D01*
X127093996Y-176562994D01*
X127176211Y-176401639D01*
X127232171Y-176229409D01*
X127260500Y-176050546D01*
X127260500Y-175869454D01*
X127260500Y-175869450D01*
X127499500Y-175869450D01*
X127499500Y-176050549D01*
X127527828Y-176229406D01*
X127583788Y-176401637D01*
X127666001Y-176562990D01*
X127666004Y-176562994D01*
X127772447Y-176709501D01*
X127900499Y-176837553D01*
X128047006Y-176943996D01*
X128208361Y-177026211D01*
X128380591Y-177082171D01*
X128452136Y-177093502D01*
X128559451Y-177110500D01*
X128559454Y-177110500D01*
X128740549Y-177110500D01*
X128829977Y-177096335D01*
X128919409Y-177082171D01*
X129091639Y-177026211D01*
X129252994Y-176943996D01*
X129399501Y-176837553D01*
X129527553Y-176709501D01*
X129633996Y-176562994D01*
X129716211Y-176401639D01*
X129772171Y-176229409D01*
X129800500Y-176050546D01*
X129800500Y-175869454D01*
X129800500Y-175869450D01*
X129772171Y-175690593D01*
X129772171Y-175690591D01*
X129716211Y-175518361D01*
X129633996Y-175357006D01*
X129527553Y-175210499D01*
X129399501Y-175082447D01*
X129252994Y-174976004D01*
X129252993Y-174976003D01*
X129252991Y-174976002D01*
X129091637Y-174893788D01*
X128919406Y-174837828D01*
X128740549Y-174809500D01*
X128740546Y-174809500D01*
X128559454Y-174809500D01*
X128559451Y-174809500D01*
X128380593Y-174837828D01*
X128208362Y-174893788D01*
X128047008Y-174976002D01*
X128011667Y-175001679D01*
X127900499Y-175082447D01*
X127772447Y-175210499D01*
X127719225Y-175283752D01*
X127666002Y-175357008D01*
X127583788Y-175518362D01*
X127527828Y-175690593D01*
X127499500Y-175869450D01*
X127260500Y-175869450D01*
X127232171Y-175690593D01*
X127232171Y-175690591D01*
X127176211Y-175518361D01*
X127093996Y-175357006D01*
X126987553Y-175210499D01*
X126859501Y-175082447D01*
X126712994Y-174976004D01*
X126712993Y-174976003D01*
X126712991Y-174976002D01*
X126551637Y-174893788D01*
X126379406Y-174837828D01*
X126200549Y-174809500D01*
X126200546Y-174809500D01*
X126019454Y-174809500D01*
X126019451Y-174809500D01*
X125840593Y-174837828D01*
X125668362Y-174893788D01*
X125507008Y-174976002D01*
X125490821Y-174987763D01*
X125422688Y-175037263D01*
X125364500Y-175056170D01*
X125306309Y-175037263D01*
X125270345Y-174987763D01*
X125265500Y-174957170D01*
X125265500Y-174422829D01*
X125284407Y-174364638D01*
X125333907Y-174328674D01*
X125395093Y-174328674D01*
X125422686Y-174342734D01*
X125507006Y-174403996D01*
X125668361Y-174486211D01*
X125840591Y-174542171D01*
X125912136Y-174553502D01*
X126019451Y-174570500D01*
X126019454Y-174570500D01*
X126200549Y-174570500D01*
X126289977Y-174556335D01*
X126379409Y-174542171D01*
X126551639Y-174486211D01*
X126712994Y-174403996D01*
X126859501Y-174297553D01*
X126987553Y-174169501D01*
X127093996Y-174022994D01*
X127176211Y-173861639D01*
X127232171Y-173689409D01*
X127260500Y-173510546D01*
X127260500Y-173329454D01*
X127260500Y-173329450D01*
X127499500Y-173329450D01*
X127499500Y-173510549D01*
X127527828Y-173689406D01*
X127527829Y-173689409D01*
X127583789Y-173861639D01*
X127666004Y-174022994D01*
X127772447Y-174169501D01*
X127900499Y-174297553D01*
X128047006Y-174403996D01*
X128208361Y-174486211D01*
X128380591Y-174542171D01*
X128452136Y-174553502D01*
X128559451Y-174570500D01*
X128559454Y-174570500D01*
X128740549Y-174570500D01*
X128829977Y-174556335D01*
X128919409Y-174542171D01*
X129091639Y-174486211D01*
X129252994Y-174403996D01*
X129399501Y-174297553D01*
X129527553Y-174169501D01*
X129633996Y-174022994D01*
X129716211Y-173861639D01*
X129772171Y-173689409D01*
X129800500Y-173510546D01*
X129800500Y-173329454D01*
X129800500Y-173329450D01*
X130039500Y-173329450D01*
X130039500Y-173510549D01*
X130067828Y-173689406D01*
X130067829Y-173689409D01*
X130123789Y-173861639D01*
X130206004Y-174022994D01*
X130312447Y-174169501D01*
X130440499Y-174297553D01*
X130587006Y-174403996D01*
X130748361Y-174486211D01*
X130920591Y-174542171D01*
X130992136Y-174553502D01*
X131099451Y-174570500D01*
X131099454Y-174570500D01*
X131280549Y-174570500D01*
X131369977Y-174556335D01*
X131459409Y-174542171D01*
X131631639Y-174486211D01*
X131792994Y-174403996D01*
X131939501Y-174297553D01*
X132067553Y-174169501D01*
X132173996Y-174022994D01*
X132256211Y-173861639D01*
X132312171Y-173689409D01*
X132340500Y-173510546D01*
X132340500Y-173329454D01*
X132340500Y-173329450D01*
X132579500Y-173329450D01*
X132579500Y-173510549D01*
X132607828Y-173689406D01*
X132607829Y-173689409D01*
X132663789Y-173861639D01*
X132746004Y-174022994D01*
X132852447Y-174169501D01*
X132980499Y-174297553D01*
X133127006Y-174403996D01*
X133288361Y-174486211D01*
X133460591Y-174542171D01*
X133532136Y-174553502D01*
X133639451Y-174570500D01*
X133639454Y-174570500D01*
X133820549Y-174570500D01*
X133909977Y-174556335D01*
X133999409Y-174542171D01*
X134171639Y-174486211D01*
X134332994Y-174403996D01*
X134479501Y-174297553D01*
X134607553Y-174169501D01*
X134713996Y-174022994D01*
X134796211Y-173861639D01*
X134852171Y-173689409D01*
X134880500Y-173510546D01*
X134880500Y-173329454D01*
X134880500Y-173329450D01*
X135119500Y-173329450D01*
X135119500Y-173510549D01*
X135147828Y-173689406D01*
X135147829Y-173689409D01*
X135203789Y-173861639D01*
X135286004Y-174022994D01*
X135392447Y-174169501D01*
X135520499Y-174297553D01*
X135667006Y-174403996D01*
X135828361Y-174486211D01*
X136000591Y-174542171D01*
X136072136Y-174553502D01*
X136179451Y-174570500D01*
X136179454Y-174570500D01*
X136360549Y-174570500D01*
X136449977Y-174556335D01*
X136539409Y-174542171D01*
X136711639Y-174486211D01*
X136872994Y-174403996D01*
X137019501Y-174297553D01*
X137147553Y-174169501D01*
X137253996Y-174022994D01*
X137336211Y-173861639D01*
X137392171Y-173689409D01*
X137420500Y-173510546D01*
X137420500Y-173329454D01*
X137420500Y-173329450D01*
X137659500Y-173329450D01*
X137659500Y-173510549D01*
X137687828Y-173689406D01*
X137687829Y-173689409D01*
X137743789Y-173861639D01*
X137826004Y-174022994D01*
X137932447Y-174169501D01*
X138060499Y-174297553D01*
X138207006Y-174403996D01*
X138368361Y-174486211D01*
X138540591Y-174542171D01*
X138612136Y-174553502D01*
X138719451Y-174570500D01*
X138719454Y-174570500D01*
X138900549Y-174570500D01*
X138989977Y-174556335D01*
X139079409Y-174542171D01*
X139251639Y-174486211D01*
X139412994Y-174403996D01*
X139559501Y-174297553D01*
X139687553Y-174169501D01*
X139793996Y-174022994D01*
X139876211Y-173861639D01*
X139932171Y-173689409D01*
X139960500Y-173510546D01*
X139960500Y-173329454D01*
X139960500Y-173329450D01*
X139932171Y-173150593D01*
X139932171Y-173150591D01*
X139876211Y-172978361D01*
X139793996Y-172817006D01*
X139687553Y-172670499D01*
X139559501Y-172542447D01*
X139412994Y-172436004D01*
X139412993Y-172436003D01*
X139412991Y-172436002D01*
X139251637Y-172353788D01*
X139079406Y-172297828D01*
X138900549Y-172269500D01*
X138900546Y-172269500D01*
X138719454Y-172269500D01*
X138719451Y-172269500D01*
X138540593Y-172297828D01*
X138368362Y-172353788D01*
X138207008Y-172436002D01*
X138152835Y-172475361D01*
X138060499Y-172542447D01*
X137932447Y-172670499D01*
X137879225Y-172743752D01*
X137826002Y-172817008D01*
X137743788Y-172978362D01*
X137687828Y-173150593D01*
X137659500Y-173329450D01*
X137420500Y-173329450D01*
X137392171Y-173150593D01*
X137392171Y-173150591D01*
X137336211Y-172978361D01*
X137253996Y-172817006D01*
X137147553Y-172670499D01*
X137019501Y-172542447D01*
X136872994Y-172436004D01*
X136872993Y-172436003D01*
X136872991Y-172436002D01*
X136711637Y-172353788D01*
X136539406Y-172297828D01*
X136360549Y-172269500D01*
X136360546Y-172269500D01*
X136179454Y-172269500D01*
X136179451Y-172269500D01*
X136000593Y-172297828D01*
X135828362Y-172353788D01*
X135667008Y-172436002D01*
X135612835Y-172475361D01*
X135520499Y-172542447D01*
X135392447Y-172670499D01*
X135339225Y-172743752D01*
X135286002Y-172817008D01*
X135203788Y-172978362D01*
X135147828Y-173150593D01*
X135119500Y-173329450D01*
X134880500Y-173329450D01*
X134852171Y-173150593D01*
X134852171Y-173150591D01*
X134796211Y-172978361D01*
X134713996Y-172817006D01*
X134607553Y-172670499D01*
X134479501Y-172542447D01*
X134332994Y-172436004D01*
X134332993Y-172436003D01*
X134332991Y-172436002D01*
X134171637Y-172353788D01*
X133999406Y-172297828D01*
X133820549Y-172269500D01*
X133820546Y-172269500D01*
X133639454Y-172269500D01*
X133639451Y-172269500D01*
X133460593Y-172297828D01*
X133288362Y-172353788D01*
X133127008Y-172436002D01*
X133072835Y-172475361D01*
X132980499Y-172542447D01*
X132852447Y-172670499D01*
X132799225Y-172743752D01*
X132746002Y-172817008D01*
X132663788Y-172978362D01*
X132607828Y-173150593D01*
X132579500Y-173329450D01*
X132340500Y-173329450D01*
X132312171Y-173150593D01*
X132312171Y-173150591D01*
X132256211Y-172978361D01*
X132173996Y-172817006D01*
X132067553Y-172670499D01*
X131939501Y-172542447D01*
X131792994Y-172436004D01*
X131792993Y-172436003D01*
X131792991Y-172436002D01*
X131631637Y-172353788D01*
X131459406Y-172297828D01*
X131280549Y-172269500D01*
X131280546Y-172269500D01*
X131099454Y-172269500D01*
X131099451Y-172269500D01*
X130920593Y-172297828D01*
X130748362Y-172353788D01*
X130587008Y-172436002D01*
X130532835Y-172475361D01*
X130440499Y-172542447D01*
X130312447Y-172670499D01*
X130259225Y-172743752D01*
X130206002Y-172817008D01*
X130123788Y-172978362D01*
X130067828Y-173150593D01*
X130039500Y-173329450D01*
X129800500Y-173329450D01*
X129772171Y-173150593D01*
X129772171Y-173150591D01*
X129716211Y-172978361D01*
X129633996Y-172817006D01*
X129527553Y-172670499D01*
X129399501Y-172542447D01*
X129252994Y-172436004D01*
X129252993Y-172436003D01*
X129252991Y-172436002D01*
X129091637Y-172353788D01*
X128919406Y-172297828D01*
X128740549Y-172269500D01*
X128740546Y-172269500D01*
X128559454Y-172269500D01*
X128559451Y-172269500D01*
X128380593Y-172297828D01*
X128208362Y-172353788D01*
X128047008Y-172436002D01*
X127992835Y-172475361D01*
X127900499Y-172542447D01*
X127772447Y-172670499D01*
X127719225Y-172743752D01*
X127666002Y-172817008D01*
X127583788Y-172978362D01*
X127527828Y-173150593D01*
X127499500Y-173329450D01*
X127260500Y-173329450D01*
X127232171Y-173150593D01*
X127232171Y-173150591D01*
X127176211Y-172978361D01*
X127093996Y-172817006D01*
X126987553Y-172670499D01*
X126859501Y-172542447D01*
X126712994Y-172436004D01*
X126712990Y-172436001D01*
X126712983Y-172435997D01*
X126589555Y-172373107D01*
X126546290Y-172329843D01*
X126535500Y-172284898D01*
X126535500Y-153824500D01*
X126554407Y-153766309D01*
X126603907Y-153730345D01*
X126634500Y-153725500D01*
X142020500Y-153725500D01*
X142078691Y-153744407D01*
X142114655Y-153793907D01*
X142119500Y-153824500D01*
X142119500Y-157039365D01*
X142108334Y-157081038D01*
X142109499Y-157081521D01*
X142107016Y-157087513D01*
X142069500Y-157227525D01*
X142069500Y-157372475D01*
X142107016Y-157512485D01*
X142107018Y-157512490D01*
X142109500Y-157518480D01*
X142108333Y-157518963D01*
X142119500Y-157560634D01*
X142119500Y-158239365D01*
X142108334Y-158281038D01*
X142109499Y-158281521D01*
X142107016Y-158287513D01*
X142078724Y-158393102D01*
X142069500Y-158427525D01*
X142069500Y-158572475D01*
X142107016Y-158712485D01*
X142107018Y-158712489D01*
X142109500Y-158718480D01*
X142108333Y-158718963D01*
X142119500Y-158760634D01*
X142119500Y-174902679D01*
X142100593Y-174960870D01*
X142051093Y-174996834D01*
X141989907Y-174996834D01*
X141962310Y-174982772D01*
X141952997Y-174976006D01*
X141952993Y-174976003D01*
X141791637Y-174893788D01*
X141619406Y-174837828D01*
X141440549Y-174809500D01*
X141440546Y-174809500D01*
X141259454Y-174809500D01*
X141259451Y-174809500D01*
X141080593Y-174837828D01*
X140908362Y-174893788D01*
X140747008Y-174976002D01*
X140711667Y-175001679D01*
X140600499Y-175082447D01*
X140472447Y-175210499D01*
X140419225Y-175283752D01*
X140366002Y-175357008D01*
X140283788Y-175518362D01*
X140227828Y-175690593D01*
X140199500Y-175869450D01*
X140199500Y-176050549D01*
X140227828Y-176229406D01*
X140283788Y-176401637D01*
X140366001Y-176562990D01*
X140366004Y-176562994D01*
X140472447Y-176709501D01*
X140600499Y-176837553D01*
X140747006Y-176943996D01*
X140908361Y-177026211D01*
X141080591Y-177082171D01*
X141152136Y-177093502D01*
X141259451Y-177110500D01*
X141259454Y-177110500D01*
X141440549Y-177110500D01*
X141529977Y-177096335D01*
X141619409Y-177082171D01*
X141791639Y-177026211D01*
X141952994Y-176943996D01*
X142099501Y-176837553D01*
X142227553Y-176709501D01*
X142333996Y-176562994D01*
X142358677Y-176514554D01*
X142401942Y-176471290D01*
X142446887Y-176460500D01*
X142685890Y-176460500D01*
X142685892Y-176460500D01*
X142756177Y-176441667D01*
X142817276Y-176444869D01*
X142864826Y-176483375D01*
X142870007Y-176492348D01*
X142906000Y-176562988D01*
X142906001Y-176562990D01*
X142906004Y-176562994D01*
X143012447Y-176709501D01*
X143140499Y-176837553D01*
X143287006Y-176943996D01*
X143448361Y-177026211D01*
X143620591Y-177082171D01*
X143692136Y-177093502D01*
X143799451Y-177110500D01*
X143799454Y-177110500D01*
X143980549Y-177110500D01*
X144069977Y-177096335D01*
X144159409Y-177082171D01*
X144331639Y-177026211D01*
X144492994Y-176943996D01*
X144639501Y-176837553D01*
X144767553Y-176709501D01*
X144873996Y-176562994D01*
X144956211Y-176401639D01*
X145012171Y-176229409D01*
X145040500Y-176050546D01*
X145040500Y-175869454D01*
X145040500Y-175869450D01*
X145279500Y-175869450D01*
X145279500Y-176050549D01*
X145307828Y-176229406D01*
X145363788Y-176401637D01*
X145446001Y-176562990D01*
X145446004Y-176562994D01*
X145552447Y-176709501D01*
X145680499Y-176837553D01*
X145827006Y-176943996D01*
X145988361Y-177026211D01*
X146160591Y-177082171D01*
X146232136Y-177093502D01*
X146339451Y-177110500D01*
X146339454Y-177110500D01*
X146520549Y-177110500D01*
X146609977Y-177096335D01*
X146699409Y-177082171D01*
X146871639Y-177026211D01*
X147032994Y-176943996D01*
X147179501Y-176837553D01*
X147307553Y-176709501D01*
X147413996Y-176562994D01*
X147496211Y-176401639D01*
X147552171Y-176229409D01*
X147580500Y-176050546D01*
X147580500Y-175869454D01*
X147580500Y-175869450D01*
X147552171Y-175690593D01*
X147552171Y-175690591D01*
X147496211Y-175518361D01*
X147413996Y-175357006D01*
X147307553Y-175210499D01*
X147179501Y-175082447D01*
X147032994Y-174976004D01*
X147032993Y-174976003D01*
X147032991Y-174976002D01*
X146871637Y-174893788D01*
X146699406Y-174837828D01*
X146520549Y-174809500D01*
X146520546Y-174809500D01*
X146339454Y-174809500D01*
X146339451Y-174809500D01*
X146160593Y-174837828D01*
X145988362Y-174893788D01*
X145827008Y-174976002D01*
X145791667Y-175001679D01*
X145680499Y-175082447D01*
X145552447Y-175210499D01*
X145499225Y-175283752D01*
X145446002Y-175357008D01*
X145363788Y-175518362D01*
X145307828Y-175690593D01*
X145279500Y-175869450D01*
X145040500Y-175869450D01*
X145012171Y-175690593D01*
X145012171Y-175690591D01*
X144956211Y-175518361D01*
X144873996Y-175357006D01*
X144767553Y-175210499D01*
X144639501Y-175082447D01*
X144492994Y-174976004D01*
X144492993Y-174976003D01*
X144492991Y-174976002D01*
X144331637Y-174893788D01*
X144159406Y-174837828D01*
X143980549Y-174809500D01*
X143980546Y-174809500D01*
X143799454Y-174809500D01*
X143799451Y-174809500D01*
X143620593Y-174837828D01*
X143448362Y-174893788D01*
X143287006Y-174976003D01*
X143287002Y-174976006D01*
X143277690Y-174982772D01*
X143219499Y-175001679D01*
X143161309Y-174982771D01*
X143125345Y-174933271D01*
X143120500Y-174902679D01*
X143120500Y-158760634D01*
X143131666Y-158718963D01*
X143130500Y-158718480D01*
X143132977Y-158712496D01*
X143132984Y-158712485D01*
X143170500Y-158572475D01*
X143170500Y-158427525D01*
X143132984Y-158287515D01*
X143132983Y-158287513D01*
X143130501Y-158281521D01*
X143131665Y-158281038D01*
X143120500Y-158239365D01*
X143120500Y-157824500D01*
X143139407Y-157766309D01*
X143188907Y-157730345D01*
X143219500Y-157725500D01*
X145800500Y-157725500D01*
X145858691Y-157744407D01*
X145894655Y-157793907D01*
X145899500Y-157824500D01*
X145899500Y-158393106D01*
X145910123Y-158481565D01*
X145965637Y-158622339D01*
X145965638Y-158622341D01*
X145965639Y-158622342D01*
X146057078Y-158742922D01*
X146177658Y-158834361D01*
X146177659Y-158834361D01*
X146177660Y-158834362D01*
X146248047Y-158862119D01*
X146318436Y-158889877D01*
X146406898Y-158900500D01*
X146406900Y-158900500D01*
X147593100Y-158900500D01*
X147593102Y-158900500D01*
X147681564Y-158889877D01*
X147739183Y-158867154D01*
X147800250Y-158863396D01*
X147851866Y-158896250D01*
X147874313Y-158953169D01*
X147874500Y-158959252D01*
X147874500Y-171209461D01*
X147861236Y-171258961D01*
X147787017Y-171387510D01*
X147749500Y-171527525D01*
X147749500Y-171672474D01*
X147787017Y-171812489D01*
X147859487Y-171938010D01*
X147859489Y-171938012D01*
X147859491Y-171938015D01*
X147961985Y-172040509D01*
X147961987Y-172040510D01*
X147961989Y-172040512D01*
X148087511Y-172112982D01*
X148087512Y-172112982D01*
X148087515Y-172112984D01*
X148227525Y-172150500D01*
X148227526Y-172150500D01*
X148372474Y-172150500D01*
X148372475Y-172150500D01*
X148512485Y-172112984D01*
X148512487Y-172112982D01*
X148512489Y-172112982D01*
X148638010Y-172040512D01*
X148638010Y-172040511D01*
X148638015Y-172040509D01*
X148740509Y-171938015D01*
X148812984Y-171812485D01*
X148850500Y-171672475D01*
X148850500Y-171527525D01*
X148812984Y-171387515D01*
X148812982Y-171387512D01*
X148812982Y-171387510D01*
X148738764Y-171258961D01*
X148725500Y-171209461D01*
X148725500Y-127943983D01*
X148725500Y-127943982D01*
X148696503Y-127835763D01*
X148696501Y-127835760D01*
X148696501Y-127835758D01*
X148640486Y-127738739D01*
X148640485Y-127738737D01*
X148561263Y-127659515D01*
X148561260Y-127659513D01*
X148464240Y-127603498D01*
X148464242Y-127603498D01*
X148422251Y-127592247D01*
X148356018Y-127574500D01*
X148356016Y-127574500D01*
X140990539Y-127574500D01*
X140941039Y-127561236D01*
X140812488Y-127487017D01*
X140812489Y-127487017D01*
X140782896Y-127479087D01*
X140672475Y-127449500D01*
X140527525Y-127449500D01*
X140465790Y-127466041D01*
X140387510Y-127487017D01*
X140261989Y-127559487D01*
X140159487Y-127661989D01*
X140087018Y-127787509D01*
X140087016Y-127787513D01*
X140087016Y-127787515D01*
X140065126Y-127869208D01*
X140031802Y-127920521D01*
X139974681Y-127942447D01*
X139915580Y-127926611D01*
X139877075Y-127879061D01*
X139870500Y-127843583D01*
X139870500Y-114543983D01*
X139870500Y-114543982D01*
X139841503Y-114435763D01*
X139841501Y-114435760D01*
X139841501Y-114435758D01*
X139785486Y-114338739D01*
X139785485Y-114338737D01*
X139706263Y-114259515D01*
X139706260Y-114259513D01*
X139609240Y-114203498D01*
X139609242Y-114203498D01*
X139567251Y-114192247D01*
X139501018Y-114174500D01*
X139501016Y-114174500D01*
X136971801Y-114174500D01*
X136913610Y-114155593D01*
X136877646Y-114106093D01*
X136877646Y-114044907D01*
X136900604Y-114007441D01*
X136900562Y-114007406D01*
X136900816Y-114007095D01*
X136901797Y-114005496D01*
X136903635Y-114003656D01*
X136903647Y-114003647D01*
X137031798Y-113847494D01*
X137127023Y-113669341D01*
X137185662Y-113476033D01*
X137185663Y-113476028D01*
X137200500Y-113325387D01*
X137200500Y-111395350D01*
X143337500Y-111395350D01*
X143337500Y-111604649D01*
X143378330Y-111809917D01*
X143378332Y-111809923D01*
X143458424Y-112003281D01*
X143458425Y-112003282D01*
X143574702Y-112177304D01*
X143722696Y-112325298D01*
X143896718Y-112441575D01*
X144090080Y-112521669D01*
X144295353Y-112562500D01*
X144295354Y-112562500D01*
X144504646Y-112562500D01*
X144504647Y-112562500D01*
X144709920Y-112521669D01*
X144903282Y-112441575D01*
X145077304Y-112325298D01*
X145225298Y-112177304D01*
X145341575Y-112003282D01*
X145421669Y-111809920D01*
X145462500Y-111604647D01*
X145462500Y-111395353D01*
X145438483Y-111274612D01*
X146599500Y-111274612D01*
X146599500Y-113325387D01*
X146614336Y-113476028D01*
X146614337Y-113476033D01*
X146672977Y-113669341D01*
X146672979Y-113669346D01*
X146768199Y-113847491D01*
X146896348Y-114003641D01*
X146896353Y-114003647D01*
X146900933Y-114007406D01*
X147052508Y-114131800D01*
X147230653Y-114227020D01*
X147230659Y-114227023D01*
X147365327Y-114267873D01*
X147423966Y-114285662D01*
X147423971Y-114285663D01*
X147574612Y-114300500D01*
X147574620Y-114300500D01*
X149125388Y-114300500D01*
X149276028Y-114285663D01*
X149276033Y-114285662D01*
X149469341Y-114227023D01*
X149549925Y-114183949D01*
X149647491Y-114131800D01*
X149647492Y-114131798D01*
X149647494Y-114131798D01*
X149803647Y-114003647D01*
X149931798Y-113847494D01*
X150027023Y-113669341D01*
X150085662Y-113476033D01*
X150085663Y-113476028D01*
X150100500Y-113325387D01*
X150100500Y-111274612D01*
X150399500Y-111274612D01*
X150399500Y-113325387D01*
X150414336Y-113476028D01*
X150414337Y-113476033D01*
X150472977Y-113669341D01*
X150472979Y-113669346D01*
X150568199Y-113847491D01*
X150696348Y-114003641D01*
X150696353Y-114003647D01*
X150700933Y-114007406D01*
X150852508Y-114131800D01*
X151030653Y-114227020D01*
X151030659Y-114227023D01*
X151165327Y-114267873D01*
X151223966Y-114285662D01*
X151223971Y-114285663D01*
X151374612Y-114300500D01*
X151374620Y-114300500D01*
X152925388Y-114300500D01*
X153076028Y-114285663D01*
X153076033Y-114285662D01*
X153269341Y-114227023D01*
X153349925Y-114183949D01*
X153447491Y-114131800D01*
X153447492Y-114131798D01*
X153447494Y-114131798D01*
X153603647Y-114003647D01*
X153731798Y-113847494D01*
X153827023Y-113669341D01*
X153885662Y-113476033D01*
X153885663Y-113476028D01*
X153900500Y-113325387D01*
X153900500Y-111395350D01*
X160037500Y-111395350D01*
X160037500Y-111604649D01*
X160078330Y-111809917D01*
X160078332Y-111809923D01*
X160158424Y-112003281D01*
X160158425Y-112003282D01*
X160274702Y-112177304D01*
X160422696Y-112325298D01*
X160596718Y-112441575D01*
X160790080Y-112521669D01*
X160995353Y-112562500D01*
X160995354Y-112562500D01*
X161204646Y-112562500D01*
X161204647Y-112562500D01*
X161409920Y-112521669D01*
X161603282Y-112441575D01*
X161777304Y-112325298D01*
X161925298Y-112177304D01*
X162041575Y-112003282D01*
X162121669Y-111809920D01*
X162162500Y-111604647D01*
X162162500Y-111395353D01*
X162138483Y-111274612D01*
X163299500Y-111274612D01*
X163299500Y-113325387D01*
X163314336Y-113476028D01*
X163314337Y-113476033D01*
X163372977Y-113669341D01*
X163372979Y-113669346D01*
X163468199Y-113847491D01*
X163596348Y-114003641D01*
X163596353Y-114003647D01*
X163600933Y-114007406D01*
X163752508Y-114131800D01*
X163930653Y-114227020D01*
X163930659Y-114227023D01*
X164065327Y-114267873D01*
X164123966Y-114285662D01*
X164123971Y-114285663D01*
X164274612Y-114300500D01*
X164274620Y-114300500D01*
X165825388Y-114300500D01*
X165976028Y-114285663D01*
X165976033Y-114285662D01*
X166169341Y-114227023D01*
X166249925Y-114183949D01*
X166347491Y-114131800D01*
X166347492Y-114131798D01*
X166347494Y-114131798D01*
X166503647Y-114003647D01*
X166631798Y-113847494D01*
X166727023Y-113669341D01*
X166785662Y-113476033D01*
X166785663Y-113476028D01*
X166800500Y-113325387D01*
X166800500Y-111274612D01*
X166785663Y-111123971D01*
X166785662Y-111123966D01*
X166767873Y-111065327D01*
X166727023Y-110930659D01*
X166727020Y-110930653D01*
X166631800Y-110752508D01*
X166503651Y-110596358D01*
X166503647Y-110596353D01*
X166464867Y-110564527D01*
X166347491Y-110468199D01*
X166169346Y-110372979D01*
X166169341Y-110372977D01*
X165976033Y-110314337D01*
X165976028Y-110314336D01*
X165825388Y-110299500D01*
X165825380Y-110299500D01*
X164274620Y-110299500D01*
X164274612Y-110299500D01*
X164123971Y-110314336D01*
X164123966Y-110314337D01*
X163930658Y-110372977D01*
X163930653Y-110372979D01*
X163752508Y-110468199D01*
X163596358Y-110596348D01*
X163596348Y-110596358D01*
X163468199Y-110752508D01*
X163372979Y-110930653D01*
X163372977Y-110930658D01*
X163314337Y-111123966D01*
X163314336Y-111123971D01*
X163299500Y-111274612D01*
X162138483Y-111274612D01*
X162121669Y-111190080D01*
X162041575Y-110996718D01*
X161925298Y-110822696D01*
X161777304Y-110674702D01*
X161777300Y-110674699D01*
X161603281Y-110558424D01*
X161409923Y-110478332D01*
X161409917Y-110478330D01*
X161204649Y-110437500D01*
X161204647Y-110437500D01*
X160995353Y-110437500D01*
X160995350Y-110437500D01*
X160790082Y-110478330D01*
X160790076Y-110478332D01*
X160596718Y-110558424D01*
X160422699Y-110674699D01*
X160274699Y-110822699D01*
X160158424Y-110996718D01*
X160078332Y-111190076D01*
X160078330Y-111190082D01*
X160037500Y-111395350D01*
X153900500Y-111395350D01*
X153900500Y-111274612D01*
X153885663Y-111123971D01*
X153885662Y-111123966D01*
X153867873Y-111065327D01*
X153827023Y-110930659D01*
X153827020Y-110930653D01*
X153731800Y-110752508D01*
X153603651Y-110596358D01*
X153603647Y-110596353D01*
X153564867Y-110564527D01*
X153447491Y-110468199D01*
X153269346Y-110372979D01*
X153269341Y-110372977D01*
X153076033Y-110314337D01*
X153076028Y-110314336D01*
X152925388Y-110299500D01*
X152925380Y-110299500D01*
X151374620Y-110299500D01*
X151374612Y-110299500D01*
X151223971Y-110314336D01*
X151223966Y-110314337D01*
X151030658Y-110372977D01*
X151030653Y-110372979D01*
X150852508Y-110468199D01*
X150696358Y-110596348D01*
X150696348Y-110596358D01*
X150568199Y-110752508D01*
X150472979Y-110930653D01*
X150472977Y-110930658D01*
X150414337Y-111123966D01*
X150414336Y-111123971D01*
X150399500Y-111274612D01*
X150100500Y-111274612D01*
X150085663Y-111123971D01*
X150085662Y-111123966D01*
X150067873Y-111065327D01*
X150027023Y-110930659D01*
X150027020Y-110930653D01*
X149931800Y-110752508D01*
X149803651Y-110596358D01*
X149803647Y-110596353D01*
X149764867Y-110564527D01*
X149647491Y-110468199D01*
X149469346Y-110372979D01*
X149469341Y-110372977D01*
X149276033Y-110314337D01*
X149276028Y-110314336D01*
X149125388Y-110299500D01*
X149125380Y-110299500D01*
X147574620Y-110299500D01*
X147574612Y-110299500D01*
X147423971Y-110314336D01*
X147423966Y-110314337D01*
X147230658Y-110372977D01*
X147230653Y-110372979D01*
X147052508Y-110468199D01*
X146896358Y-110596348D01*
X146896348Y-110596358D01*
X146768199Y-110752508D01*
X146672979Y-110930653D01*
X146672977Y-110930658D01*
X146614337Y-111123966D01*
X146614336Y-111123971D01*
X146599500Y-111274612D01*
X145438483Y-111274612D01*
X145421669Y-111190080D01*
X145341575Y-110996718D01*
X145225298Y-110822696D01*
X145077304Y-110674702D01*
X145077300Y-110674699D01*
X144903281Y-110558424D01*
X144709923Y-110478332D01*
X144709917Y-110478330D01*
X144504649Y-110437500D01*
X144504647Y-110437500D01*
X144295353Y-110437500D01*
X144295350Y-110437500D01*
X144090082Y-110478330D01*
X144090076Y-110478332D01*
X143896718Y-110558424D01*
X143722699Y-110674699D01*
X143574699Y-110822699D01*
X143458424Y-110996718D01*
X143378332Y-111190076D01*
X143378330Y-111190082D01*
X143337500Y-111395350D01*
X137200500Y-111395350D01*
X137200500Y-111274612D01*
X137185663Y-111123971D01*
X137185662Y-111123966D01*
X137167873Y-111065327D01*
X137127023Y-110930659D01*
X137127020Y-110930653D01*
X137031800Y-110752508D01*
X136903651Y-110596358D01*
X136903647Y-110596353D01*
X136864867Y-110564527D01*
X136747491Y-110468199D01*
X136569346Y-110372979D01*
X136569341Y-110372977D01*
X136376033Y-110314337D01*
X136376028Y-110314336D01*
X136225388Y-110299500D01*
X136225380Y-110299500D01*
X134674620Y-110299500D01*
X134674612Y-110299500D01*
X134523971Y-110314336D01*
X134523966Y-110314337D01*
X134330658Y-110372977D01*
X134330653Y-110372979D01*
X134152508Y-110468199D01*
X133996358Y-110596348D01*
X133996348Y-110596358D01*
X133868199Y-110752508D01*
X133772979Y-110930653D01*
X133772977Y-110930658D01*
X133714337Y-111123966D01*
X133714336Y-111123971D01*
X133699500Y-111274612D01*
X133699500Y-113325387D01*
X133714336Y-113476028D01*
X133714337Y-113476033D01*
X133772977Y-113669341D01*
X133772979Y-113669346D01*
X133868199Y-113847491D01*
X133996348Y-114003641D01*
X133996353Y-114003647D01*
X133996358Y-114003651D01*
X133998203Y-114005496D01*
X133998747Y-114006564D01*
X133999438Y-114007406D01*
X133999253Y-114007557D01*
X134025980Y-114060013D01*
X134016409Y-114120445D01*
X133973144Y-114163710D01*
X133928199Y-114174500D01*
X133171801Y-114174500D01*
X133113610Y-114155593D01*
X133077646Y-114106093D01*
X133077646Y-114044907D01*
X133100604Y-114007441D01*
X133100562Y-114007406D01*
X133100816Y-114007095D01*
X133101797Y-114005496D01*
X133103635Y-114003656D01*
X133103647Y-114003647D01*
X133231798Y-113847494D01*
X133327023Y-113669341D01*
X133385662Y-113476033D01*
X133385663Y-113476028D01*
X133400500Y-113325387D01*
X133400500Y-111274612D01*
X133385663Y-111123971D01*
X133385662Y-111123966D01*
X133367873Y-111065327D01*
X133327023Y-110930659D01*
X133327020Y-110930653D01*
X133231800Y-110752508D01*
X133103651Y-110596358D01*
X133103647Y-110596353D01*
X133064867Y-110564527D01*
X132947491Y-110468199D01*
X132769346Y-110372979D01*
X132769341Y-110372977D01*
X132576033Y-110314337D01*
X132576028Y-110314336D01*
X132425388Y-110299500D01*
X132425380Y-110299500D01*
X130874620Y-110299500D01*
X130874612Y-110299500D01*
X130723971Y-110314336D01*
X130723966Y-110314337D01*
X130530658Y-110372977D01*
X130530653Y-110372979D01*
X130352508Y-110468199D01*
X130196358Y-110596348D01*
X130196348Y-110596358D01*
X130068199Y-110752508D01*
X129972979Y-110930653D01*
X129972977Y-110930658D01*
X129914337Y-111123966D01*
X129914336Y-111123971D01*
X129899500Y-111274612D01*
X129899500Y-113325387D01*
X129914336Y-113476028D01*
X129914337Y-113476033D01*
X129972977Y-113669341D01*
X129972979Y-113669346D01*
X130068199Y-113847491D01*
X130196348Y-114003641D01*
X130196353Y-114003647D01*
X130196358Y-114003651D01*
X130198203Y-114005496D01*
X130198747Y-114006564D01*
X130199438Y-114007406D01*
X130199253Y-114007557D01*
X130225980Y-114060013D01*
X130216409Y-114120445D01*
X130173144Y-114163710D01*
X130128199Y-114174500D01*
X120271801Y-114174500D01*
X120213610Y-114155593D01*
X120177646Y-114106093D01*
X120177646Y-114044907D01*
X120200604Y-114007441D01*
X120200562Y-114007406D01*
X120200816Y-114007095D01*
X120201797Y-114005496D01*
X120203635Y-114003656D01*
X120203647Y-114003647D01*
X120331798Y-113847494D01*
X120427023Y-113669341D01*
X120485662Y-113476033D01*
X120485663Y-113476028D01*
X120500500Y-113325387D01*
X120500500Y-111395350D01*
X126637500Y-111395350D01*
X126637500Y-111604649D01*
X126678330Y-111809917D01*
X126678332Y-111809923D01*
X126758424Y-112003281D01*
X126758425Y-112003282D01*
X126874702Y-112177304D01*
X127022696Y-112325298D01*
X127196718Y-112441575D01*
X127390080Y-112521669D01*
X127595353Y-112562500D01*
X127595354Y-112562500D01*
X127804646Y-112562500D01*
X127804647Y-112562500D01*
X128009920Y-112521669D01*
X128203282Y-112441575D01*
X128377304Y-112325298D01*
X128525298Y-112177304D01*
X128641575Y-112003282D01*
X128721669Y-111809920D01*
X128762500Y-111604647D01*
X128762500Y-111395353D01*
X128721669Y-111190080D01*
X128641575Y-110996718D01*
X128525298Y-110822696D01*
X128377304Y-110674702D01*
X128377300Y-110674699D01*
X128203281Y-110558424D01*
X128009923Y-110478332D01*
X128009917Y-110478330D01*
X127804649Y-110437500D01*
X127804647Y-110437500D01*
X127595353Y-110437500D01*
X127595350Y-110437500D01*
X127390082Y-110478330D01*
X127390076Y-110478332D01*
X127196718Y-110558424D01*
X127022699Y-110674699D01*
X126874699Y-110822699D01*
X126758424Y-110996718D01*
X126678332Y-111190076D01*
X126678330Y-111190082D01*
X126637500Y-111395350D01*
X120500500Y-111395350D01*
X120500500Y-111274612D01*
X120485663Y-111123971D01*
X120485662Y-111123966D01*
X120467873Y-111065327D01*
X120427023Y-110930659D01*
X120427020Y-110930653D01*
X120331800Y-110752508D01*
X120203651Y-110596358D01*
X120203647Y-110596353D01*
X120164867Y-110564527D01*
X120047491Y-110468199D01*
X119869346Y-110372979D01*
X119869341Y-110372977D01*
X119676033Y-110314337D01*
X119676028Y-110314336D01*
X119525388Y-110299500D01*
X119525380Y-110299500D01*
X117974620Y-110299500D01*
X117974612Y-110299500D01*
X117823971Y-110314336D01*
X117823966Y-110314337D01*
X117630658Y-110372977D01*
X117630653Y-110372979D01*
X117452508Y-110468199D01*
X117296358Y-110596348D01*
X117296348Y-110596358D01*
X117168199Y-110752508D01*
X117072979Y-110930653D01*
X117072977Y-110930658D01*
X117014337Y-111123966D01*
X117014336Y-111123971D01*
X116999500Y-111274612D01*
X116999500Y-113325387D01*
X117014336Y-113476028D01*
X117014337Y-113476033D01*
X117072977Y-113669341D01*
X117072979Y-113669346D01*
X117168199Y-113847491D01*
X117296348Y-114003641D01*
X117296353Y-114003647D01*
X117296358Y-114003651D01*
X117298203Y-114005496D01*
X117298747Y-114006564D01*
X117299438Y-114007406D01*
X117299253Y-114007557D01*
X117325980Y-114060013D01*
X117316409Y-114120445D01*
X117273144Y-114163710D01*
X117228199Y-114174500D01*
X116471801Y-114174500D01*
X116413610Y-114155593D01*
X116377646Y-114106093D01*
X116377646Y-114044907D01*
X116400604Y-114007441D01*
X116400562Y-114007406D01*
X116400816Y-114007095D01*
X116401797Y-114005496D01*
X116403635Y-114003656D01*
X116403647Y-114003647D01*
X116531798Y-113847494D01*
X116627023Y-113669341D01*
X116685662Y-113476033D01*
X116685663Y-113476028D01*
X116700500Y-113325387D01*
X116700500Y-111274612D01*
X116685663Y-111123971D01*
X116685662Y-111123966D01*
X116667873Y-111065327D01*
X116627023Y-110930659D01*
X116627020Y-110930653D01*
X116531800Y-110752508D01*
X116403651Y-110596358D01*
X116403647Y-110596353D01*
X116364867Y-110564527D01*
X116247491Y-110468199D01*
X116069346Y-110372979D01*
X116069341Y-110372977D01*
X115876033Y-110314337D01*
X115876028Y-110314336D01*
X115725388Y-110299500D01*
X115725380Y-110299500D01*
X114174620Y-110299500D01*
X114174612Y-110299500D01*
X114023971Y-110314336D01*
X114023966Y-110314337D01*
X113830658Y-110372977D01*
X113830653Y-110372979D01*
X113652508Y-110468199D01*
X113496358Y-110596348D01*
X113496348Y-110596358D01*
X113368199Y-110752508D01*
X113272979Y-110930653D01*
X113272977Y-110930658D01*
X113214337Y-111123966D01*
X113214336Y-111123971D01*
X113199500Y-111274612D01*
X113199500Y-113325387D01*
X113214336Y-113476028D01*
X113214337Y-113476033D01*
X113272977Y-113669341D01*
X113272979Y-113669346D01*
X113368199Y-113847491D01*
X113496348Y-114003641D01*
X113496353Y-114003647D01*
X113496358Y-114003651D01*
X113498203Y-114005496D01*
X113498747Y-114006564D01*
X113499438Y-114007406D01*
X113499253Y-114007557D01*
X113525980Y-114060013D01*
X113516409Y-114120445D01*
X113473144Y-114163710D01*
X113428199Y-114174500D01*
X105090540Y-114174500D01*
X105041041Y-114161237D01*
X104993186Y-114133608D01*
X104865892Y-114099500D01*
X104734108Y-114099500D01*
X104656200Y-114120375D01*
X104606809Y-114133609D01*
X104492690Y-114199496D01*
X104399496Y-114292690D01*
X104333609Y-114406809D01*
X104299500Y-114534109D01*
X104299500Y-158239365D01*
X104295443Y-158254506D01*
X104295951Y-158265635D01*
X104292582Y-158277872D01*
X104287016Y-158287515D01*
X104249500Y-158427525D01*
X100500500Y-158427525D01*
X100500500Y-114134300D01*
X100519407Y-114076109D01*
X100568907Y-114040145D01*
X100630093Y-114040145D01*
X100662304Y-114057771D01*
X100684649Y-114076109D01*
X100752508Y-114131800D01*
X100930653Y-114227020D01*
X100930659Y-114227023D01*
X101065327Y-114267873D01*
X101123966Y-114285662D01*
X101123971Y-114285663D01*
X101274612Y-114300500D01*
X101274620Y-114300500D01*
X102825388Y-114300500D01*
X102976028Y-114285663D01*
X102976033Y-114285662D01*
X103169341Y-114227023D01*
X103249925Y-114183949D01*
X103347491Y-114131800D01*
X103347492Y-114131798D01*
X103347494Y-114131798D01*
X103503647Y-114003647D01*
X103631798Y-113847494D01*
X103727023Y-113669341D01*
X103785662Y-113476033D01*
X103785663Y-113476028D01*
X103800500Y-113325387D01*
X103800500Y-111395350D01*
X109937500Y-111395350D01*
X109937500Y-111604649D01*
X109978330Y-111809917D01*
X109978332Y-111809923D01*
X110058424Y-112003281D01*
X110058425Y-112003282D01*
X110174702Y-112177304D01*
X110322696Y-112325298D01*
X110496718Y-112441575D01*
X110690080Y-112521669D01*
X110895353Y-112562500D01*
X110895354Y-112562500D01*
X111104646Y-112562500D01*
X111104647Y-112562500D01*
X111309920Y-112521669D01*
X111503282Y-112441575D01*
X111677304Y-112325298D01*
X111825298Y-112177304D01*
X111941575Y-112003282D01*
X112021669Y-111809920D01*
X112062500Y-111604647D01*
X112062500Y-111395353D01*
X112021669Y-111190080D01*
X111941575Y-110996718D01*
X111825298Y-110822696D01*
X111677304Y-110674702D01*
X111677300Y-110674699D01*
X111503281Y-110558424D01*
X111309923Y-110478332D01*
X111309917Y-110478330D01*
X111104649Y-110437500D01*
X111104647Y-110437500D01*
X110895353Y-110437500D01*
X110895350Y-110437500D01*
X110690082Y-110478330D01*
X110690076Y-110478332D01*
X110496718Y-110558424D01*
X110322699Y-110674699D01*
X110174699Y-110822699D01*
X110058424Y-110996718D01*
X109978332Y-111190076D01*
X109978330Y-111190082D01*
X109937500Y-111395350D01*
X103800500Y-111395350D01*
X103800500Y-111274612D01*
X103785663Y-111123971D01*
X103785662Y-111123966D01*
X103767873Y-111065327D01*
X103727023Y-110930659D01*
X103727020Y-110930653D01*
X103631800Y-110752508D01*
X103503651Y-110596358D01*
X103503647Y-110596353D01*
X103464867Y-110564527D01*
X103347491Y-110468199D01*
X103169346Y-110372979D01*
X103169341Y-110372977D01*
X102976033Y-110314337D01*
X102976028Y-110314336D01*
X102825388Y-110299500D01*
X102825380Y-110299500D01*
X101274620Y-110299500D01*
X101274612Y-110299500D01*
X101123971Y-110314336D01*
X101123966Y-110314337D01*
X100930658Y-110372977D01*
X100930653Y-110372979D01*
X100752508Y-110468199D01*
X100662305Y-110542227D01*
X100605328Y-110564527D01*
X100546125Y-110549078D01*
X100507310Y-110501781D01*
X100500500Y-110465699D01*
X100500500Y-108895350D01*
X104937500Y-108895350D01*
X104937500Y-109104649D01*
X104978330Y-109309917D01*
X104978332Y-109309923D01*
X105058424Y-109503281D01*
X105152158Y-109643565D01*
X105174702Y-109677304D01*
X105322696Y-109825298D01*
X105496718Y-109941575D01*
X105690080Y-110021669D01*
X105895353Y-110062500D01*
X105895354Y-110062500D01*
X106104646Y-110062500D01*
X106104647Y-110062500D01*
X106309920Y-110021669D01*
X106503282Y-109941575D01*
X106670499Y-109829845D01*
X106683759Y-109826105D01*
X106694907Y-109818006D01*
X106712477Y-109818006D01*
X106729387Y-109813237D01*
X106742314Y-109818006D01*
X106756093Y-109818006D01*
X106770308Y-109828334D01*
X106786791Y-109834415D01*
X106794445Y-109845870D01*
X106805593Y-109853970D01*
X106811022Y-109870681D01*
X106820783Y-109885289D01*
X106824500Y-109912161D01*
X106824500Y-110009461D01*
X106811236Y-110058961D01*
X106737017Y-110187510D01*
X106737016Y-110187515D01*
X106699500Y-110327525D01*
X106699500Y-110472475D01*
X106724166Y-110564527D01*
X106737017Y-110612489D01*
X106809487Y-110738010D01*
X106809489Y-110738012D01*
X106809491Y-110738015D01*
X106911985Y-110840509D01*
X106911987Y-110840510D01*
X106911989Y-110840512D01*
X107037511Y-110912982D01*
X107037512Y-110912982D01*
X107037515Y-110912984D01*
X107177525Y-110950500D01*
X107177526Y-110950500D01*
X107322474Y-110950500D01*
X107322475Y-110950500D01*
X107462485Y-110912984D01*
X107462487Y-110912982D01*
X107462489Y-110912982D01*
X107588010Y-110840512D01*
X107588010Y-110840511D01*
X107588015Y-110840509D01*
X107690509Y-110738015D01*
X107762984Y-110612485D01*
X107800500Y-110472475D01*
X107800500Y-110327525D01*
X107762984Y-110187515D01*
X107762982Y-110187512D01*
X107762982Y-110187510D01*
X107688764Y-110058961D01*
X107675500Y-110009461D01*
X107675500Y-108943983D01*
X107671090Y-108927524D01*
X107646503Y-108835763D01*
X107646501Y-108835760D01*
X107646501Y-108835758D01*
X107590486Y-108738739D01*
X107590485Y-108738737D01*
X107511263Y-108659515D01*
X107511260Y-108659513D01*
X107414240Y-108603498D01*
X107414242Y-108603498D01*
X107372251Y-108592247D01*
X107306018Y-108574500D01*
X107306016Y-108574500D01*
X107039943Y-108574500D01*
X107016598Y-108566915D01*
X106992485Y-108562383D01*
X106988296Y-108557719D01*
X106981752Y-108555593D01*
X106950480Y-108517895D01*
X106949423Y-108515665D01*
X106941575Y-108496718D01*
X106906947Y-108444893D01*
X109937500Y-108444893D01*
X109937500Y-109555106D01*
X109948123Y-109643565D01*
X110003637Y-109784339D01*
X110003638Y-109784341D01*
X110003639Y-109784342D01*
X110095078Y-109904922D01*
X110215658Y-109996361D01*
X110215659Y-109996361D01*
X110215660Y-109996362D01*
X110248877Y-110009461D01*
X110356436Y-110051877D01*
X110444898Y-110062500D01*
X110444900Y-110062500D01*
X111555100Y-110062500D01*
X111555102Y-110062500D01*
X111643564Y-110051877D01*
X111784342Y-109996361D01*
X111904922Y-109904922D01*
X111996361Y-109784342D01*
X112051877Y-109643564D01*
X112062500Y-109555102D01*
X112062500Y-109524500D01*
X112067345Y-109509588D01*
X112067345Y-109493907D01*
X112076561Y-109481221D01*
X112081407Y-109466309D01*
X112094092Y-109457092D01*
X112103309Y-109444407D01*
X112118221Y-109439561D01*
X112130907Y-109430345D01*
X112161500Y-109425500D01*
X112309461Y-109425500D01*
X112358961Y-109438764D01*
X112487511Y-109512982D01*
X112487512Y-109512982D01*
X112487515Y-109512984D01*
X112627525Y-109550500D01*
X112627526Y-109550500D01*
X112772474Y-109550500D01*
X112772475Y-109550500D01*
X112912485Y-109512984D01*
X112912487Y-109512982D01*
X112912489Y-109512982D01*
X113038010Y-109440512D01*
X113038010Y-109440511D01*
X113038015Y-109440509D01*
X113140509Y-109338015D01*
X113156730Y-109309920D01*
X113212982Y-109212489D01*
X113212982Y-109212487D01*
X113212984Y-109212485D01*
X113250500Y-109072475D01*
X113250500Y-108927525D01*
X113249810Y-108924953D01*
X113247442Y-108916110D01*
X113247442Y-108916109D01*
X113241879Y-108895350D01*
X121637500Y-108895350D01*
X121637500Y-109104649D01*
X121678330Y-109309917D01*
X121678332Y-109309923D01*
X121758424Y-109503281D01*
X121852158Y-109643565D01*
X121874702Y-109677304D01*
X122022696Y-109825298D01*
X122196718Y-109941575D01*
X122390080Y-110021669D01*
X122595353Y-110062500D01*
X122595354Y-110062500D01*
X122804646Y-110062500D01*
X122804647Y-110062500D01*
X123009920Y-110021669D01*
X123203282Y-109941575D01*
X123370499Y-109829845D01*
X123383759Y-109826105D01*
X123394907Y-109818006D01*
X123412477Y-109818006D01*
X123429387Y-109813237D01*
X123442314Y-109818006D01*
X123456093Y-109818006D01*
X123470308Y-109828334D01*
X123486791Y-109834415D01*
X123494445Y-109845870D01*
X123505593Y-109853970D01*
X123511022Y-109870681D01*
X123520783Y-109885289D01*
X123524500Y-109912161D01*
X123524500Y-110009461D01*
X123511236Y-110058961D01*
X123437017Y-110187510D01*
X123437016Y-110187515D01*
X123399500Y-110327525D01*
X123399500Y-110472475D01*
X123424166Y-110564527D01*
X123437017Y-110612489D01*
X123509487Y-110738010D01*
X123509489Y-110738012D01*
X123509491Y-110738015D01*
X123611985Y-110840509D01*
X123611987Y-110840510D01*
X123611989Y-110840512D01*
X123737511Y-110912982D01*
X123737512Y-110912982D01*
X123737515Y-110912984D01*
X123877525Y-110950500D01*
X123877526Y-110950500D01*
X124022474Y-110950500D01*
X124022475Y-110950500D01*
X124162485Y-110912984D01*
X124162487Y-110912982D01*
X124162489Y-110912982D01*
X124288010Y-110840512D01*
X124288010Y-110840511D01*
X124288015Y-110840509D01*
X124390509Y-110738015D01*
X124462984Y-110612485D01*
X124500500Y-110472475D01*
X124500500Y-110327525D01*
X124462984Y-110187515D01*
X124462982Y-110187512D01*
X124462982Y-110187510D01*
X124388764Y-110058961D01*
X124375500Y-110009461D01*
X124375500Y-108943983D01*
X124371090Y-108927524D01*
X124346503Y-108835763D01*
X124346501Y-108835760D01*
X124346501Y-108835758D01*
X124290486Y-108738739D01*
X124290485Y-108738737D01*
X124211263Y-108659515D01*
X124211260Y-108659513D01*
X124114240Y-108603498D01*
X124114242Y-108603498D01*
X124072251Y-108592247D01*
X124006018Y-108574500D01*
X124006016Y-108574500D01*
X123739943Y-108574500D01*
X123716598Y-108566915D01*
X123692485Y-108562383D01*
X123688296Y-108557719D01*
X123681752Y-108555593D01*
X123650480Y-108517895D01*
X123649423Y-108515665D01*
X123641575Y-108496718D01*
X123606947Y-108444893D01*
X126637500Y-108444893D01*
X126637500Y-109555106D01*
X126648123Y-109643565D01*
X126703637Y-109784339D01*
X126703638Y-109784341D01*
X126703639Y-109784342D01*
X126795078Y-109904922D01*
X126915658Y-109996361D01*
X126915659Y-109996361D01*
X126915660Y-109996362D01*
X126948877Y-110009461D01*
X127056436Y-110051877D01*
X127144898Y-110062500D01*
X127144900Y-110062500D01*
X128255100Y-110062500D01*
X128255102Y-110062500D01*
X128343564Y-110051877D01*
X128484342Y-109996361D01*
X128604922Y-109904922D01*
X128696361Y-109784342D01*
X128751877Y-109643564D01*
X128762500Y-109555102D01*
X128762500Y-109524500D01*
X128767345Y-109509588D01*
X128767345Y-109493907D01*
X128776561Y-109481221D01*
X128781407Y-109466309D01*
X128794092Y-109457092D01*
X128803309Y-109444407D01*
X128818221Y-109439561D01*
X128830907Y-109430345D01*
X128861500Y-109425500D01*
X129009461Y-109425500D01*
X129058961Y-109438764D01*
X129187511Y-109512982D01*
X129187512Y-109512982D01*
X129187515Y-109512984D01*
X129327525Y-109550500D01*
X129327526Y-109550500D01*
X129472474Y-109550500D01*
X129472475Y-109550500D01*
X129612485Y-109512984D01*
X129612487Y-109512982D01*
X129612489Y-109512982D01*
X129738010Y-109440512D01*
X129738010Y-109440511D01*
X129738015Y-109440509D01*
X129840509Y-109338015D01*
X129856730Y-109309920D01*
X129912982Y-109212489D01*
X129912982Y-109212487D01*
X129912984Y-109212485D01*
X129950500Y-109072475D01*
X129950500Y-108927525D01*
X129949810Y-108924953D01*
X129947442Y-108916110D01*
X129947442Y-108916109D01*
X129941879Y-108895350D01*
X138337500Y-108895350D01*
X138337500Y-109104649D01*
X138378330Y-109309917D01*
X138378332Y-109309923D01*
X138458424Y-109503281D01*
X138552158Y-109643565D01*
X138574702Y-109677304D01*
X138722696Y-109825298D01*
X138896718Y-109941575D01*
X139090080Y-110021669D01*
X139295353Y-110062500D01*
X139295354Y-110062500D01*
X139504646Y-110062500D01*
X139504647Y-110062500D01*
X139709920Y-110021669D01*
X139903282Y-109941575D01*
X140070499Y-109829845D01*
X140083759Y-109826105D01*
X140094907Y-109818006D01*
X140112477Y-109818006D01*
X140129387Y-109813237D01*
X140142314Y-109818006D01*
X140156093Y-109818006D01*
X140170308Y-109828334D01*
X140186791Y-109834415D01*
X140194445Y-109845870D01*
X140205593Y-109853970D01*
X140211022Y-109870681D01*
X140220783Y-109885289D01*
X140224500Y-109912161D01*
X140224500Y-110009461D01*
X140211236Y-110058961D01*
X140137017Y-110187510D01*
X140137016Y-110187515D01*
X140099500Y-110327525D01*
X140099500Y-110472475D01*
X140124166Y-110564527D01*
X140137017Y-110612489D01*
X140209487Y-110738010D01*
X140209489Y-110738012D01*
X140209491Y-110738015D01*
X140311985Y-110840509D01*
X140311987Y-110840510D01*
X140311989Y-110840512D01*
X140437511Y-110912982D01*
X140437512Y-110912982D01*
X140437515Y-110912984D01*
X140577525Y-110950500D01*
X140577526Y-110950500D01*
X140722474Y-110950500D01*
X140722475Y-110950500D01*
X140862485Y-110912984D01*
X140862487Y-110912982D01*
X140862489Y-110912982D01*
X140988010Y-110840512D01*
X140988010Y-110840511D01*
X140988015Y-110840509D01*
X141090509Y-110738015D01*
X141162984Y-110612485D01*
X141200500Y-110472475D01*
X141200500Y-110327525D01*
X141162984Y-110187515D01*
X141162982Y-110187512D01*
X141162982Y-110187510D01*
X141088764Y-110058961D01*
X141075500Y-110009461D01*
X141075500Y-108943983D01*
X141071090Y-108927524D01*
X141046503Y-108835763D01*
X141046501Y-108835760D01*
X141046501Y-108835758D01*
X140990486Y-108738739D01*
X140990485Y-108738737D01*
X140911263Y-108659515D01*
X140911260Y-108659513D01*
X140814240Y-108603498D01*
X140814242Y-108603498D01*
X140772251Y-108592247D01*
X140706018Y-108574500D01*
X140706016Y-108574500D01*
X140439943Y-108574500D01*
X140416598Y-108566915D01*
X140392485Y-108562383D01*
X140388296Y-108557719D01*
X140381752Y-108555593D01*
X140350480Y-108517895D01*
X140349423Y-108515665D01*
X140341575Y-108496718D01*
X140306947Y-108444893D01*
X143337500Y-108444893D01*
X143337500Y-109555106D01*
X143348123Y-109643565D01*
X143403637Y-109784339D01*
X143403638Y-109784341D01*
X143403639Y-109784342D01*
X143495078Y-109904922D01*
X143615658Y-109996361D01*
X143615659Y-109996361D01*
X143615660Y-109996362D01*
X143648877Y-110009461D01*
X143756436Y-110051877D01*
X143844898Y-110062500D01*
X143844900Y-110062500D01*
X144955100Y-110062500D01*
X144955102Y-110062500D01*
X145043564Y-110051877D01*
X145184342Y-109996361D01*
X145304922Y-109904922D01*
X145396361Y-109784342D01*
X145451877Y-109643564D01*
X145462500Y-109555102D01*
X145462500Y-109524500D01*
X145467345Y-109509588D01*
X145467345Y-109493907D01*
X145476561Y-109481221D01*
X145481407Y-109466309D01*
X145494092Y-109457092D01*
X145503309Y-109444407D01*
X145518221Y-109439561D01*
X145530907Y-109430345D01*
X145561500Y-109425500D01*
X145709461Y-109425500D01*
X145758961Y-109438764D01*
X145887511Y-109512982D01*
X145887512Y-109512982D01*
X145887515Y-109512984D01*
X146027525Y-109550500D01*
X146027526Y-109550500D01*
X146172474Y-109550500D01*
X146172475Y-109550500D01*
X146312485Y-109512984D01*
X146312487Y-109512982D01*
X146312489Y-109512982D01*
X146438010Y-109440512D01*
X146438010Y-109440511D01*
X146438015Y-109440509D01*
X146540509Y-109338015D01*
X146556730Y-109309920D01*
X146612982Y-109212489D01*
X146612982Y-109212487D01*
X146612984Y-109212485D01*
X146650500Y-109072475D01*
X146650500Y-108927525D01*
X146649810Y-108924953D01*
X146647442Y-108916110D01*
X146647442Y-108916109D01*
X146641879Y-108895350D01*
X155037500Y-108895350D01*
X155037500Y-109104649D01*
X155078330Y-109309917D01*
X155078332Y-109309923D01*
X155158424Y-109503281D01*
X155252158Y-109643565D01*
X155274702Y-109677304D01*
X155422696Y-109825298D01*
X155596718Y-109941575D01*
X155790080Y-110021669D01*
X155995353Y-110062500D01*
X155995354Y-110062500D01*
X156204646Y-110062500D01*
X156204647Y-110062500D01*
X156409920Y-110021669D01*
X156603282Y-109941575D01*
X156770499Y-109829845D01*
X156783759Y-109826105D01*
X156794907Y-109818006D01*
X156812477Y-109818006D01*
X156829387Y-109813237D01*
X156842314Y-109818006D01*
X156856093Y-109818006D01*
X156870308Y-109828334D01*
X156886791Y-109834415D01*
X156894445Y-109845870D01*
X156905593Y-109853970D01*
X156911022Y-109870681D01*
X156920783Y-109885289D01*
X156924500Y-109912161D01*
X156924500Y-110009461D01*
X156911236Y-110058961D01*
X156837017Y-110187510D01*
X156837016Y-110187515D01*
X156799500Y-110327525D01*
X156799500Y-110472475D01*
X156824166Y-110564527D01*
X156837017Y-110612489D01*
X156909487Y-110738010D01*
X156909489Y-110738012D01*
X156909491Y-110738015D01*
X157011985Y-110840509D01*
X157011987Y-110840510D01*
X157011989Y-110840512D01*
X157137511Y-110912982D01*
X157137512Y-110912982D01*
X157137515Y-110912984D01*
X157277525Y-110950500D01*
X157277526Y-110950500D01*
X157422474Y-110950500D01*
X157422475Y-110950500D01*
X157562485Y-110912984D01*
X157562487Y-110912982D01*
X157562489Y-110912982D01*
X157688010Y-110840512D01*
X157688010Y-110840511D01*
X157688015Y-110840509D01*
X157790509Y-110738015D01*
X157862984Y-110612485D01*
X157900500Y-110472475D01*
X157900500Y-110327525D01*
X157862984Y-110187515D01*
X157862982Y-110187512D01*
X157862982Y-110187510D01*
X157788764Y-110058961D01*
X157775500Y-110009461D01*
X157775500Y-108943983D01*
X157771090Y-108927524D01*
X157746503Y-108835763D01*
X157746501Y-108835760D01*
X157746501Y-108835758D01*
X157690486Y-108738739D01*
X157690485Y-108738737D01*
X157611263Y-108659515D01*
X157611260Y-108659513D01*
X157514240Y-108603498D01*
X157514242Y-108603498D01*
X157472251Y-108592247D01*
X157406018Y-108574500D01*
X157406016Y-108574500D01*
X157139943Y-108574500D01*
X157116598Y-108566915D01*
X157092485Y-108562383D01*
X157088296Y-108557719D01*
X157081752Y-108555593D01*
X157050480Y-108517895D01*
X157049423Y-108515665D01*
X157041575Y-108496718D01*
X157006947Y-108444893D01*
X160037500Y-108444893D01*
X160037500Y-109555106D01*
X160048123Y-109643565D01*
X160103637Y-109784339D01*
X160103638Y-109784341D01*
X160103639Y-109784342D01*
X160195078Y-109904922D01*
X160315658Y-109996361D01*
X160315659Y-109996361D01*
X160315660Y-109996362D01*
X160348877Y-110009461D01*
X160456436Y-110051877D01*
X160544898Y-110062500D01*
X160544900Y-110062500D01*
X161655100Y-110062500D01*
X161655102Y-110062500D01*
X161743564Y-110051877D01*
X161884342Y-109996361D01*
X162004922Y-109904922D01*
X162096361Y-109784342D01*
X162151877Y-109643564D01*
X162162500Y-109555102D01*
X162162500Y-109524500D01*
X162167345Y-109509588D01*
X162167345Y-109493907D01*
X162176561Y-109481221D01*
X162181407Y-109466309D01*
X162194092Y-109457092D01*
X162203309Y-109444407D01*
X162218221Y-109439561D01*
X162230907Y-109430345D01*
X162261500Y-109425500D01*
X162409461Y-109425500D01*
X162458961Y-109438764D01*
X162587511Y-109512982D01*
X162587512Y-109512982D01*
X162587515Y-109512984D01*
X162727525Y-109550500D01*
X162727526Y-109550500D01*
X162872474Y-109550500D01*
X162872475Y-109550500D01*
X163012485Y-109512984D01*
X163012487Y-109512982D01*
X163012489Y-109512982D01*
X163138010Y-109440512D01*
X163138010Y-109440511D01*
X163138015Y-109440509D01*
X163240509Y-109338015D01*
X163256730Y-109309920D01*
X163312982Y-109212489D01*
X163312982Y-109212487D01*
X163312984Y-109212485D01*
X163350500Y-109072475D01*
X163350500Y-108927525D01*
X163312984Y-108787515D01*
X163312982Y-108787511D01*
X163312982Y-108787510D01*
X163240512Y-108661989D01*
X163240510Y-108661987D01*
X163240509Y-108661985D01*
X163138015Y-108559491D01*
X163138012Y-108559489D01*
X163138010Y-108559487D01*
X163012488Y-108487017D01*
X163012489Y-108487017D01*
X162969507Y-108475500D01*
X162872475Y-108449500D01*
X162727525Y-108449500D01*
X162665790Y-108466041D01*
X162587510Y-108487017D01*
X162458961Y-108561236D01*
X162409461Y-108574500D01*
X162261500Y-108574500D01*
X162203309Y-108555593D01*
X162167345Y-108506093D01*
X162162500Y-108475500D01*
X162162500Y-108444899D01*
X162162499Y-108444893D01*
X162151877Y-108356436D01*
X162096361Y-108215658D01*
X162004922Y-108095078D01*
X161884342Y-108003639D01*
X161884341Y-108003638D01*
X161884339Y-108003637D01*
X161743565Y-107948123D01*
X161655106Y-107937500D01*
X161655102Y-107937500D01*
X160544898Y-107937500D01*
X160544893Y-107937500D01*
X160456434Y-107948123D01*
X160315660Y-108003637D01*
X160315656Y-108003640D01*
X160195081Y-108095075D01*
X160195075Y-108095081D01*
X160103640Y-108215656D01*
X160103637Y-108215660D01*
X160048123Y-108356434D01*
X160037500Y-108444893D01*
X157006947Y-108444893D01*
X156925298Y-108322696D01*
X156777304Y-108174702D01*
X156658142Y-108095081D01*
X156603281Y-108058424D01*
X156409923Y-107978332D01*
X156409917Y-107978330D01*
X156204649Y-107937500D01*
X156204647Y-107937500D01*
X155995353Y-107937500D01*
X155995350Y-107937500D01*
X155790082Y-107978330D01*
X155790076Y-107978332D01*
X155596718Y-108058424D01*
X155422699Y-108174699D01*
X155274699Y-108322699D01*
X155158424Y-108496718D01*
X155078332Y-108690076D01*
X155078330Y-108690082D01*
X155037500Y-108895350D01*
X146641879Y-108895350D01*
X146612984Y-108787515D01*
X146612982Y-108787511D01*
X146540512Y-108661989D01*
X146540510Y-108661987D01*
X146540509Y-108661985D01*
X146438015Y-108559491D01*
X146438012Y-108559489D01*
X146438010Y-108559487D01*
X146312488Y-108487017D01*
X146312489Y-108487017D01*
X146269507Y-108475500D01*
X146172475Y-108449500D01*
X146027525Y-108449500D01*
X145965790Y-108466041D01*
X145887510Y-108487017D01*
X145758961Y-108561236D01*
X145709461Y-108574500D01*
X145561500Y-108574500D01*
X145503309Y-108555593D01*
X145467345Y-108506093D01*
X145462500Y-108475500D01*
X145462500Y-108444899D01*
X145462499Y-108444893D01*
X145451877Y-108356436D01*
X145396361Y-108215658D01*
X145304922Y-108095078D01*
X145184342Y-108003639D01*
X145184341Y-108003638D01*
X145184339Y-108003637D01*
X145043565Y-107948123D01*
X144955106Y-107937500D01*
X144955102Y-107937500D01*
X143844898Y-107937500D01*
X143844893Y-107937500D01*
X143756434Y-107948123D01*
X143615660Y-108003637D01*
X143615656Y-108003640D01*
X143495081Y-108095075D01*
X143495075Y-108095081D01*
X143403640Y-108215656D01*
X143403637Y-108215660D01*
X143348123Y-108356434D01*
X143337500Y-108444893D01*
X140306947Y-108444893D01*
X140225298Y-108322696D01*
X140077304Y-108174702D01*
X139958142Y-108095081D01*
X139903281Y-108058424D01*
X139709923Y-107978332D01*
X139709917Y-107978330D01*
X139504649Y-107937500D01*
X139504647Y-107937500D01*
X139295353Y-107937500D01*
X139295350Y-107937500D01*
X139090082Y-107978330D01*
X139090076Y-107978332D01*
X138896718Y-108058424D01*
X138722699Y-108174699D01*
X138574699Y-108322699D01*
X138458424Y-108496718D01*
X138378332Y-108690076D01*
X138378330Y-108690082D01*
X138337500Y-108895350D01*
X129941879Y-108895350D01*
X129912984Y-108787515D01*
X129912982Y-108787511D01*
X129840512Y-108661989D01*
X129840510Y-108661987D01*
X129840509Y-108661985D01*
X129738015Y-108559491D01*
X129738012Y-108559489D01*
X129738010Y-108559487D01*
X129612488Y-108487017D01*
X129612489Y-108487017D01*
X129569507Y-108475500D01*
X129472475Y-108449500D01*
X129327525Y-108449500D01*
X129265790Y-108466041D01*
X129187510Y-108487017D01*
X129058961Y-108561236D01*
X129009461Y-108574500D01*
X128861500Y-108574500D01*
X128803309Y-108555593D01*
X128767345Y-108506093D01*
X128762500Y-108475500D01*
X128762500Y-108444899D01*
X128762499Y-108444893D01*
X128751877Y-108356436D01*
X128696361Y-108215658D01*
X128604922Y-108095078D01*
X128484342Y-108003639D01*
X128484341Y-108003638D01*
X128484339Y-108003637D01*
X128343565Y-107948123D01*
X128255106Y-107937500D01*
X128255102Y-107937500D01*
X127144898Y-107937500D01*
X127144893Y-107937500D01*
X127056434Y-107948123D01*
X126915660Y-108003637D01*
X126915656Y-108003640D01*
X126795081Y-108095075D01*
X126795075Y-108095081D01*
X126703640Y-108215656D01*
X126703637Y-108215660D01*
X126648123Y-108356434D01*
X126637500Y-108444893D01*
X123606947Y-108444893D01*
X123525298Y-108322696D01*
X123377304Y-108174702D01*
X123258142Y-108095081D01*
X123203281Y-108058424D01*
X123009923Y-107978332D01*
X123009917Y-107978330D01*
X122804649Y-107937500D01*
X122804647Y-107937500D01*
X122595353Y-107937500D01*
X122595350Y-107937500D01*
X122390082Y-107978330D01*
X122390076Y-107978332D01*
X122196718Y-108058424D01*
X122022699Y-108174699D01*
X121874699Y-108322699D01*
X121758424Y-108496718D01*
X121678332Y-108690076D01*
X121678330Y-108690082D01*
X121637500Y-108895350D01*
X113241879Y-108895350D01*
X113212984Y-108787515D01*
X113212982Y-108787511D01*
X113140512Y-108661989D01*
X113140510Y-108661987D01*
X113140509Y-108661985D01*
X113038015Y-108559491D01*
X113038012Y-108559489D01*
X113038010Y-108559487D01*
X112912488Y-108487017D01*
X112912489Y-108487017D01*
X112869507Y-108475500D01*
X112772475Y-108449500D01*
X112627525Y-108449500D01*
X112565790Y-108466041D01*
X112487510Y-108487017D01*
X112358961Y-108561236D01*
X112309461Y-108574500D01*
X112161500Y-108574500D01*
X112103309Y-108555593D01*
X112067345Y-108506093D01*
X112062500Y-108475500D01*
X112062500Y-108444899D01*
X112062499Y-108444893D01*
X112051877Y-108356436D01*
X111996361Y-108215658D01*
X111904922Y-108095078D01*
X111784342Y-108003639D01*
X111784341Y-108003638D01*
X111784339Y-108003637D01*
X111643565Y-107948123D01*
X111555106Y-107937500D01*
X111555102Y-107937500D01*
X110444898Y-107937500D01*
X110444893Y-107937500D01*
X110356434Y-107948123D01*
X110215660Y-108003637D01*
X110215656Y-108003640D01*
X110095081Y-108095075D01*
X110095075Y-108095081D01*
X110003640Y-108215656D01*
X110003637Y-108215660D01*
X109948123Y-108356434D01*
X109937500Y-108444893D01*
X106906947Y-108444893D01*
X106825298Y-108322696D01*
X106677304Y-108174702D01*
X106558142Y-108095081D01*
X106503281Y-108058424D01*
X106309923Y-107978332D01*
X106309917Y-107978330D01*
X106104649Y-107937500D01*
X106104647Y-107937500D01*
X105895353Y-107937500D01*
X105895350Y-107937500D01*
X105690082Y-107978330D01*
X105690076Y-107978332D01*
X105496718Y-108058424D01*
X105322699Y-108174699D01*
X105174699Y-108322699D01*
X105058424Y-108496718D01*
X104978332Y-108690076D01*
X104978330Y-108690082D01*
X104937500Y-108895350D01*
X100500500Y-108895350D01*
X100500500Y-100599500D01*
X100519407Y-100541309D01*
X100568907Y-100505345D01*
X100599500Y-100500500D01*
X169400500Y-100500500D01*
X169458691Y-100519407D01*
G37*
%TD.AperFunction*%
%TD*%
%TA.AperFunction,NonConductor*%
G36*
X138953548Y-128303073D02*
G01*
X139002089Y-128340320D01*
X139019500Y-128396394D01*
X139019500Y-129068443D01*
X139018771Y-129070686D01*
X139019397Y-129072961D01*
X139009382Y-129099582D01*
X139000593Y-129126634D01*
X138998359Y-129128884D01*
X138997854Y-129130228D01*
X138989744Y-129140381D01*
X138972850Y-129152850D01*
X138892207Y-129262118D01*
X138891972Y-129262789D01*
X138887354Y-129268571D01*
X138863301Y-129284421D01*
X138839887Y-129301167D01*
X138837913Y-129301152D01*
X138836264Y-129302239D01*
X138807498Y-129300924D01*
X138778704Y-129300709D01*
X138777114Y-129299536D01*
X138775142Y-129299446D01*
X138730345Y-129265574D01*
X138647154Y-129152855D01*
X138647152Y-129152853D01*
X138647150Y-129152850D01*
X138647146Y-129152847D01*
X138647144Y-129152845D01*
X138537883Y-129072207D01*
X138409703Y-129027355D01*
X138409694Y-129027353D01*
X138379274Y-129024500D01*
X138379266Y-129024500D01*
X137970734Y-129024500D01*
X137970725Y-129024500D01*
X137940305Y-129027353D01*
X137940296Y-129027355D01*
X137812116Y-129072207D01*
X137702855Y-129152845D01*
X137702845Y-129152855D01*
X137619655Y-129265574D01*
X137596809Y-129281912D01*
X137574858Y-129299446D01*
X137572118Y-129299571D01*
X137569887Y-129301167D01*
X137541797Y-129300956D01*
X137513736Y-129302239D01*
X137511538Y-129300730D01*
X137508704Y-129300709D01*
X137462646Y-129268571D01*
X137458027Y-129262789D01*
X137457793Y-129262118D01*
X137377150Y-129152850D01*
X137360255Y-129140381D01*
X137352146Y-129130228D01*
X137345725Y-129113160D01*
X137335118Y-129098328D01*
X137331613Y-129075645D01*
X137330603Y-129072961D01*
X137330984Y-129071575D01*
X137330500Y-129068443D01*
X137330500Y-128524500D01*
X137349407Y-128466309D01*
X137398907Y-128430345D01*
X137429500Y-128425500D01*
X138009461Y-128425500D01*
X138058961Y-128438764D01*
X138187511Y-128512982D01*
X138187512Y-128512982D01*
X138187515Y-128512984D01*
X138327525Y-128550500D01*
X138327526Y-128550500D01*
X138472474Y-128550500D01*
X138472475Y-128550500D01*
X138612485Y-128512984D01*
X138612487Y-128512982D01*
X138612489Y-128512982D01*
X138738010Y-128440512D01*
X138738010Y-128440511D01*
X138738015Y-128440509D01*
X138840509Y-128338015D01*
X138840512Y-128338008D01*
X138841958Y-128336126D01*
X138843361Y-128335161D01*
X138845097Y-128333426D01*
X138845418Y-128333747D01*
X138892383Y-128301471D01*
X138953548Y-128303073D01*
G37*
%TD.AperFunction*%
%TA.AperFunction,NonConductor*%
G36*
X138978691Y-115044407D02*
G01*
X139014655Y-115093907D01*
X139019500Y-115124500D01*
X139019500Y-127603605D01*
X139000593Y-127661796D01*
X138951093Y-127697760D01*
X138889907Y-127697760D01*
X138845378Y-127666292D01*
X138845097Y-127666574D01*
X138843456Y-127664933D01*
X138841963Y-127663878D01*
X138840517Y-127661994D01*
X138840510Y-127661987D01*
X138840509Y-127661985D01*
X138738015Y-127559491D01*
X138738012Y-127559489D01*
X138738010Y-127559487D01*
X138612488Y-127487017D01*
X138612489Y-127487017D01*
X138582896Y-127479087D01*
X138472475Y-127449500D01*
X138327525Y-127449500D01*
X138265790Y-127466041D01*
X138187510Y-127487017D01*
X138058961Y-127561236D01*
X138009461Y-127574500D01*
X136961018Y-127574500D01*
X136848982Y-127574500D01*
X136782748Y-127592247D01*
X136740758Y-127603498D01*
X136643739Y-127659513D01*
X136564513Y-127738739D01*
X136508498Y-127835758D01*
X136499536Y-127869207D01*
X136479912Y-127942447D01*
X136479500Y-127943983D01*
X136479500Y-129068443D01*
X136460593Y-129126634D01*
X136457854Y-129130228D01*
X136449744Y-129140381D01*
X136432850Y-129152850D01*
X136352207Y-129262118D01*
X136351972Y-129262789D01*
X136347354Y-129268571D01*
X136323301Y-129284421D01*
X136299887Y-129301167D01*
X136297913Y-129301152D01*
X136296264Y-129302239D01*
X136267498Y-129300924D01*
X136238704Y-129300709D01*
X136237088Y-129299534D01*
X136235142Y-129299446D01*
X136216787Y-129284785D01*
X136190345Y-129265574D01*
X136107154Y-129152855D01*
X136107152Y-129152853D01*
X136107150Y-129152850D01*
X136100709Y-129148096D01*
X136065118Y-129098328D01*
X136060500Y-129068443D01*
X136060500Y-121290538D01*
X136073764Y-121241038D01*
X136147982Y-121112489D01*
X136147982Y-121112487D01*
X136147984Y-121112485D01*
X136185500Y-120972475D01*
X136185500Y-120827525D01*
X136147984Y-120687515D01*
X136147982Y-120687512D01*
X136147982Y-120687510D01*
X136075512Y-120561989D01*
X136075510Y-120561987D01*
X136075509Y-120561985D01*
X135973015Y-120459491D01*
X135973012Y-120459489D01*
X135973010Y-120459487D01*
X135847488Y-120387017D01*
X135847489Y-120387017D01*
X135817896Y-120379087D01*
X135707475Y-120349500D01*
X135562525Y-120349500D01*
X135500790Y-120366041D01*
X135422510Y-120387017D01*
X135296989Y-120459487D01*
X135194487Y-120561989D01*
X135122017Y-120687510D01*
X135084500Y-120827525D01*
X135084500Y-120972474D01*
X135122017Y-121112489D01*
X135196236Y-121241038D01*
X135209500Y-121290538D01*
X135209500Y-129068443D01*
X135190593Y-129126634D01*
X135187854Y-129130228D01*
X135179744Y-129140381D01*
X135162850Y-129152850D01*
X135082207Y-129262118D01*
X135081972Y-129262789D01*
X135077354Y-129268571D01*
X135053301Y-129284421D01*
X135029887Y-129301167D01*
X135027913Y-129301152D01*
X135026264Y-129302239D01*
X134997498Y-129300924D01*
X134968704Y-129300709D01*
X134967088Y-129299534D01*
X134965142Y-129299446D01*
X134946787Y-129284785D01*
X134920345Y-129265574D01*
X134837154Y-129152855D01*
X134837152Y-129152853D01*
X134837150Y-129152850D01*
X134830709Y-129148096D01*
X134795118Y-129098328D01*
X134790500Y-129068443D01*
X134790500Y-120490538D01*
X134803764Y-120441038D01*
X134877982Y-120312489D01*
X134877982Y-120312487D01*
X134877984Y-120312485D01*
X134915500Y-120172475D01*
X134915500Y-120027525D01*
X134877984Y-119887515D01*
X134877982Y-119887512D01*
X134877982Y-119887510D01*
X134805512Y-119761989D01*
X134805510Y-119761987D01*
X134805509Y-119761985D01*
X134703015Y-119659491D01*
X134703012Y-119659489D01*
X134703010Y-119659487D01*
X134577488Y-119587017D01*
X134577489Y-119587017D01*
X134547896Y-119579087D01*
X134437475Y-119549500D01*
X134292525Y-119549500D01*
X134230790Y-119566041D01*
X134152510Y-119587017D01*
X134026989Y-119659487D01*
X133924487Y-119761989D01*
X133852017Y-119887510D01*
X133814500Y-120027525D01*
X133814500Y-120172474D01*
X133852017Y-120312489D01*
X133926236Y-120441038D01*
X133939500Y-120490538D01*
X133939500Y-129068443D01*
X133920593Y-129126634D01*
X133917854Y-129130228D01*
X133909744Y-129140381D01*
X133892850Y-129152850D01*
X133812207Y-129262118D01*
X133811972Y-129262789D01*
X133807354Y-129268571D01*
X133783301Y-129284421D01*
X133759887Y-129301167D01*
X133757913Y-129301152D01*
X133756264Y-129302239D01*
X133727498Y-129300924D01*
X133698704Y-129300709D01*
X133697088Y-129299534D01*
X133695142Y-129299446D01*
X133676787Y-129284785D01*
X133650345Y-129265574D01*
X133567154Y-129152855D01*
X133567152Y-129152853D01*
X133567150Y-129152850D01*
X133560709Y-129148096D01*
X133525118Y-129098328D01*
X133520500Y-129068443D01*
X133520500Y-115690538D01*
X133533764Y-115641038D01*
X133607982Y-115512489D01*
X133607982Y-115512487D01*
X133607984Y-115512485D01*
X133645500Y-115372475D01*
X133645500Y-115227525D01*
X133624760Y-115150123D01*
X133627963Y-115089022D01*
X133666468Y-115041472D01*
X133720387Y-115025500D01*
X138920500Y-115025500D01*
X138978691Y-115044407D01*
G37*
%TD.AperFunction*%
%TA.AperFunction,NonConductor*%
G36*
X141352501Y-140699074D02*
G01*
X141381296Y-140699290D01*
X141382911Y-140700464D01*
X141384858Y-140700553D01*
X141403212Y-140715213D01*
X141429655Y-140734425D01*
X141510587Y-140844084D01*
X141512850Y-140847150D01*
X141522215Y-140854061D01*
X141524967Y-140856423D01*
X141539090Y-140879588D01*
X141554880Y-140901665D01*
X141555671Y-140906786D01*
X141556817Y-140908665D01*
X141556522Y-140912294D01*
X141559500Y-140931556D01*
X141559500Y-152775500D01*
X141540593Y-152833691D01*
X141491093Y-152869655D01*
X141460500Y-152874500D01*
X141161581Y-152874500D01*
X141103390Y-152855593D01*
X141067426Y-152806093D01*
X141067426Y-152744907D01*
X141075844Y-152726000D01*
X141111502Y-152664238D01*
X141111503Y-152664237D01*
X141140500Y-152556018D01*
X141140500Y-140931556D01*
X141159407Y-140873365D01*
X141162146Y-140869771D01*
X141170254Y-140859619D01*
X141187150Y-140847150D01*
X141267793Y-140737882D01*
X141268028Y-140737208D01*
X141272646Y-140731428D01*
X141296691Y-140715582D01*
X141320112Y-140698832D01*
X141322086Y-140698846D01*
X141323736Y-140697760D01*
X141352501Y-140699074D01*
G37*
%TD.AperFunction*%
%TA.AperFunction,NonConductor*%
G36*
X125721610Y-152944407D02*
G01*
X125757574Y-152993907D01*
X125757574Y-153055093D01*
X125749156Y-153074000D01*
X125713497Y-153135761D01*
X125684500Y-153243983D01*
X125684500Y-172284898D01*
X125665593Y-172343089D01*
X125630445Y-172373107D01*
X125507016Y-172435997D01*
X125507009Y-172436001D01*
X125466626Y-172465341D01*
X125422688Y-172497263D01*
X125364500Y-172516170D01*
X125306309Y-172497263D01*
X125270345Y-172447763D01*
X125265500Y-172417170D01*
X125265500Y-153024500D01*
X125284407Y-152966309D01*
X125333907Y-152930345D01*
X125364500Y-152925500D01*
X125663419Y-152925500D01*
X125721610Y-152944407D01*
G37*
%TD.AperFunction*%
M02*
