M48
; DRILL file KiCad 10.0.3 date 2026-07-08T12:05:28
; FORMAT={-:-/ absolute / metric / decimal}
; #@! TF.CreationDate,2026-07-08T12:05:28+02:00
; #@! TF.GenerationSoftware,Kicad,Pcbnew,10.0.3
; #@! TF.FileFunction,Plated,1,2,PTH
FMAT,2
METRIC
; #@! TA.AperFunction,Plated,PTH,ViaDrill
T1C0.300
; #@! TA.AperFunction,Plated,PTH,ComponentDrill
T2C1.000
; #@! TA.AperFunction,Plated,PTH,ComponentDrill
T3C2.100
%
G90
G05
T1
X102.0Y-102.0
X102.0Y-130.0
X102.0Y-176.0
X104.8Y-158.5
X107.25Y-110.4
X108.0Y-122.6
X110.0Y-150.0
X112.7Y-109.0
X120.0Y-135.0
X120.0Y-160.0
X123.95Y-110.4
X126.745Y-119.3
X126.745Y-146.9
X128.015Y-118.5
X128.015Y-146.1
X129.285Y-117.7
X129.285Y-145.3
X129.4Y-109.0
X130.555Y-116.9
X130.555Y-144.5
X131.825Y-116.1
X133.095Y-115.3
X134.365Y-120.1
X135.635Y-120.9
X138.4Y-128.0
X139.9Y-141.8
X140.6Y-128.0
X140.65Y-110.4
X142.62Y-141.8
X142.62Y-157.3
X142.62Y-158.5
X146.1Y-109.0
X148.3Y-171.6
X152.0Y-120.0
X152.5Y-135.0
X157.0Y-160.0
X157.35Y-110.4
X162.8Y-109.0
X168.0Y-102.0
X168.0Y-130.0
X168.0Y-155.0
X168.0Y-176.0
T2
X106.0Y-109.0
X106.0Y-111.5
X108.5Y-109.0
X111.0Y-109.0
X111.0Y-111.5
X122.7Y-109.0
X122.7Y-111.5
X123.57Y-173.42
X123.57Y-175.96
X125.2Y-109.0
X126.11Y-173.42
X126.11Y-175.96
X127.7Y-109.0
X127.7Y-111.5
X128.65Y-173.42
X128.65Y-175.96
X131.19Y-173.42
X131.19Y-175.96
X133.73Y-173.42
X133.73Y-175.96
X136.27Y-173.42
X136.27Y-175.96
X138.81Y-173.42
X138.81Y-175.96
X139.4Y-109.0
X139.4Y-111.5
X141.35Y-173.42
X141.35Y-175.96
X141.9Y-109.0
X143.89Y-173.42
X143.89Y-175.96
X144.4Y-109.0
X144.4Y-111.5
X146.43Y-173.42
X146.43Y-175.96
X156.1Y-109.0
X156.1Y-111.5
X158.6Y-109.0
X161.1Y-109.0
X161.1Y-111.5
T3
X102.05Y-112.7G85X102.05Y-112.3
G05
X114.95Y-112.7G85X114.95Y-112.3
G05
X118.75Y-112.7G85X118.75Y-112.3
G05
X131.65Y-112.7G85X131.65Y-112.3
G05
X135.45Y-112.7G85X135.45Y-112.3
G05
X148.35Y-112.7G85X148.35Y-112.3
G05
X152.15Y-112.7G85X152.15Y-112.3
G05
X165.05Y-112.7G85X165.05Y-112.3
G05
M30
