%TF.GenerationSoftware,KiCad,Pcbnew,10.0.3*%
%TF.CreationDate,2026-07-08T12:05:28+02:00*%
%TF.ProjectId,musicbrain-enc4,6d757369-6362-4726-9169-6e2d656e6334,1.0*%
%TF.SameCoordinates,Original*%
%TF.FileFunction,Soldermask,Bot*%
%TF.FilePolarity,Negative*%
%FSLAX46Y46*%
G04 Gerber Fmt 4.6, Leading zero omitted, Abs format (unit mm)*
G04 Created by KiCad (PCBNEW 10.0.3) date 2026-07-08 12:05:28*
%MOMM*%
%LPD*%
G01*
G04 APERTURE LIST*
G04 Aperture macros list*
%AMRoundRect*
0 Rectangle with rounded corners*
0 $1 Rounding radius*
0 $2 $3 $4 $5 $6 $7 $8 $9 X,Y pos of 4 corners*
0 Add a 4 corners polygon primitive as box body*
4,1,4,$2,$3,$4,$5,$6,$7,$8,$9,$2,$3,0*
0 Add four circle primitives for the rounded corners*
1,1,$1+$1,$2,$3*
1,1,$1+$1,$4,$5*
1,1,$1+$1,$6,$7*
1,1,$1+$1,$8,$9*
0 Add four rect primitives between the rounded corners*
20,1,$1+$1,$2,$3,$4,$5,0*
20,1,$1+$1,$4,$5,$6,$7,0*
20,1,$1+$1,$6,$7,$8,$9,0*
20,1,$1+$1,$8,$9,$2,$3,0*%
G04 Aperture macros list end*
%ADD10R,1.700000X1.700000*%
%ADD11C,1.700000*%
%ADD12RoundRect,0.250000X0.512000X0.512000X-0.512000X0.512000X-0.512000X-0.512000X0.512000X-0.512000X0*%
%ADD13C,1.524000*%
%ADD14RoundRect,0.725000X0.725000X-0.975000X0.725000X0.975000X-0.725000X0.975000X-0.725000X-0.975000X0*%
G04 APERTURE END LIST*
D10*
%TO.C,J1*%
X146430000Y-173420000D03*
D11*
X146430000Y-175960000D03*
X143890000Y-173420000D03*
X143890000Y-175960000D03*
X141350000Y-173420000D03*
X141350000Y-175960000D03*
X138810000Y-173420000D03*
X138810000Y-175960000D03*
X136270000Y-173420000D03*
X136270000Y-175960000D03*
X133730000Y-173420000D03*
X133730000Y-175960000D03*
X131190000Y-173420000D03*
X131190000Y-175960000D03*
X128650000Y-173420000D03*
X128650000Y-175960000D03*
X126110000Y-173420000D03*
X126110000Y-175960000D03*
X123570000Y-173420000D03*
X123570000Y-175960000D03*
%TD*%
D12*
%TO.C,SW1*%
X111000000Y-109000000D03*
D13*
X106000000Y-109000000D03*
X108500000Y-109000000D03*
X111000000Y-111500000D03*
X106000000Y-111500000D03*
D14*
X114950000Y-112300000D03*
X102050000Y-112300000D03*
%TD*%
D12*
%TO.C,SW2*%
X127700000Y-109000000D03*
D13*
X122700000Y-109000000D03*
X125200000Y-109000000D03*
X127700000Y-111500000D03*
X122700000Y-111500000D03*
D14*
X131650000Y-112300000D03*
X118750000Y-112300000D03*
%TD*%
D12*
%TO.C,SW3*%
X144400000Y-109000000D03*
D13*
X139400000Y-109000000D03*
X141900000Y-109000000D03*
X144400000Y-111500000D03*
X139400000Y-111500000D03*
D14*
X148350000Y-112300000D03*
X135450000Y-112300000D03*
%TD*%
D12*
%TO.C,SW4*%
X161100000Y-109000000D03*
D13*
X156100000Y-109000000D03*
X158600000Y-109000000D03*
X161100000Y-111500000D03*
X156100000Y-111500000D03*
D14*
X165050000Y-112300000D03*
X152150000Y-112300000D03*
%TD*%
M02*
