<svg xmlns="http://www.w3.org/2000/svg" width="626" height="286" viewBox="0 0 626 286" font-family="sans-serif">
<rect width="626" height="286" fill="white"/>
<text x="12" y="26" font-size="17" font-weight="bold">J2 — USB-C</text>
<text x="12" y="46" font-size="12" fill="#666">bovenaanzicht bord (kijkend op de pinnen); pin 1 = vierkant</text>
<rect x="49.0" y="186.0" width="167.65354330708664" height="112.1338582677165" rx="4" fill="#2b2b2b"/>
<rect x="56.0" y="193.0" width="153.65354330708664" height="98.1338582677165" rx="2" fill="#3d3d3d"/>
<circle cx="89.32283464566929" cy="208.0" r="9" fill="#9aa0a6" stroke="#5f6368" stroke-width="1.5"/>
<text x="89.32283464566929" y="212.0" font-size="10" text-anchor="middle" fill="#222">A1</text>
<text x="93.32283464566929" y="176.0" font-size="12" transform="rotate(-55 93.32283464566929 176.0)">GND</text>
<circle cx="100.03149606299212" cy="208.0" r="9" fill="#ffd966" stroke="#7f6000" stroke-width="1.5"/>
<text x="100.03149606299212" y="212.0" font-size="10" text-anchor="middle" fill="#222">A4</text>
<text x="104.03149606299212" y="176.0" font-size="12" transform="rotate(-55 104.03149606299212 176.0)">VBUS</text>
<circle cx="116.09448818897638" cy="208.0" r="9" fill="#ffd966" stroke="#7f6000" stroke-width="1.5"/>
<text x="116.09448818897638" y="212.0" font-size="10" text-anchor="middle" fill="#222">A5</text>
<text x="120.09448818897638" y="176.0" font-size="12" transform="rotate(-55 120.09448818897638 176.0)">CC1</text>
<circle cx="129.48031496062993" cy="208.0" r="9" fill="#ffd966" stroke="#7f6000" stroke-width="1.5"/>
<text x="129.48031496062993" y="212.0" font-size="10" text-anchor="middle" fill="#222">A6</text>
<text x="133.48031496062993" y="176.0" font-size="12" transform="rotate(-55 133.48031496062993 176.0)">USB_DP</text>
<circle cx="136.1732283464567" cy="208.0" r="9" fill="#ffd966" stroke="#7f6000" stroke-width="1.5"/>
<text x="136.1732283464567" y="212.0" font-size="10" text-anchor="middle" fill="#222">A7</text>
<text x="140.1732283464567" y="176.0" font-size="12" transform="rotate(-55 140.1732283464567 176.0)">USB_DM</text>
<circle cx="149.55905511811022" cy="208.0" r="9" fill="#ddd" stroke="#999" stroke-width="1.5"/>
<text x="149.55905511811022" y="212.0" font-size="10" text-anchor="middle" fill="#222">A8</text>
<text x="153.55905511811022" y="176.0" font-size="12" transform="rotate(-55 153.55905511811022 176.0)">nc</text>
<circle cx="165.6220472440945" cy="208.0" r="9" fill="#ffd966" stroke="#7f6000" stroke-width="1.5"/>
<text x="165.6220472440945" y="212.0" font-size="10" text-anchor="middle" fill="#222">A9</text>
<text x="169.6220472440945" y="176.0" font-size="12" transform="rotate(-55 169.6220472440945 176.0)">VBUS</text>
<circle cx="176.3307086614173" cy="208.0" r="9" fill="#9aa0a6" stroke="#5f6368" stroke-width="1.5"/>
<text x="176.3307086614173" y="212.0" font-size="10" text-anchor="middle" fill="#222">A12</text>
<text x="180.3307086614173" y="176.0" font-size="12" transform="rotate(-55 180.3307086614173 176.0)">GND</text>
<circle cx="176.3307086614173" cy="208.0" r="9" fill="#9aa0a6" stroke="#5f6368" stroke-width="1.5"/>
<text x="176.3307086614173" y="212.0" font-size="10" text-anchor="middle" fill="#222">B1</text>
<text x="180.3307086614173" y="176.0" font-size="12" transform="rotate(-55 180.3307086614173 176.0)">GND</text>
<circle cx="165.6220472440945" cy="208.0" r="9" fill="#ffd966" stroke="#7f6000" stroke-width="1.5"/>
<text x="165.6220472440945" y="212.0" font-size="10" text-anchor="middle" fill="#222">B4</text>
<text x="169.6220472440945" y="176.0" font-size="12" transform="rotate(-55 169.6220472440945 176.0)">VBUS</text>
<circle cx="156.251968503937" cy="208.0" r="9" fill="#ffd966" stroke="#7f6000" stroke-width="1.5"/>
<text x="156.251968503937" y="212.0" font-size="10" text-anchor="middle" fill="#222">B5</text>
<text x="160.251968503937" y="176.0" font-size="12" transform="rotate(-55 160.251968503937 176.0)">CC2</text>
<circle cx="142.86614173228347" cy="208.0" r="9" fill="#ffd966" stroke="#7f6000" stroke-width="1.5"/>
<text x="142.86614173228347" y="212.0" font-size="10" text-anchor="middle" fill="#222">B6</text>
<text x="146.86614173228347" y="176.0" font-size="12" transform="rotate(-55 146.86614173228347 176.0)">USB_DP</text>
<circle cx="122.78740157480316" cy="208.0" r="9" fill="#ffd966" stroke="#7f6000" stroke-width="1.5"/>
<text x="122.78740157480316" y="212.0" font-size="10" text-anchor="middle" fill="#222">B7</text>
<text x="126.78740157480316" y="176.0" font-size="12" transform="rotate(-55 126.78740157480316 176.0)">USB_DM</text>
<circle cx="109.40157480314961" cy="208.0" r="9" fill="#ddd" stroke="#999" stroke-width="1.5"/>
<text x="109.40157480314961" y="212.0" font-size="10" text-anchor="middle" fill="#222">B8</text>
<text x="113.40157480314961" y="176.0" font-size="12" transform="rotate(-55 113.40157480314961 176.0)">nc</text>
<circle cx="100.03149606299212" cy="208.0" r="9" fill="#ffd966" stroke="#7f6000" stroke-width="1.5"/>
<text x="100.03149606299212" y="212.0" font-size="10" text-anchor="middle" fill="#222">B9</text>
<text x="104.03149606299212" y="176.0" font-size="12" transform="rotate(-55 104.03149606299212 176.0)">VBUS</text>
<circle cx="89.32283464566929" cy="208.0" r="9" fill="#9aa0a6" stroke="#5f6368" stroke-width="1.5"/>
<text x="89.32283464566929" y="212.0" font-size="10" text-anchor="middle" fill="#222">B12</text>
<text x="93.32283464566929" y="176.0" font-size="12" transform="rotate(-55 93.32283464566929 176.0)">GND</text>
<circle cx="75.0" cy="220.248031496063" r="9" fill="#9aa0a6" stroke="#5f6368" stroke-width="1.5"/>
<text x="75.0" y="224.248031496063" font-size="10" text-anchor="middle" fill="#222">SH</text>
<text x="79.0" y="176.0" font-size="12" transform="rotate(-55 79.0 176.0)">GND</text>
<circle cx="75.0" cy="276.2007874015748" r="9" fill="#9aa0a6" stroke="#5f6368" stroke-width="1.5"/>
<text x="75.0" y="280.2007874015748" font-size="10" text-anchor="middle" fill="#222">SH</text>
<text x="79.0" y="176.0" font-size="12" transform="rotate(-55 79.0 176.0)">GND</text>
<circle cx="190.65354330708664" cy="220.248031496063" r="9" fill="#9aa0a6" stroke="#5f6368" stroke-width="1.5"/>
<text x="190.65354330708664" y="224.248031496063" font-size="10" text-anchor="middle" fill="#222">SH</text>
<text x="194.65354330708664" y="176.0" font-size="12" transform="rotate(-55 194.65354330708664 176.0)">GND</text>
<circle cx="190.65354330708664" cy="276.2007874015748" r="9" fill="#9aa0a6" stroke="#5f6368" stroke-width="1.5"/>
<text x="190.65354330708664" y="280.2007874015748" font-size="10" text-anchor="middle" fill="#222">SH</text>
<text x="194.65354330708664" y="176.0" font-size="12" transform="rotate(-55 194.65354330708664 176.0)">GND</text>
</svg>