%TF.GenerationSoftware,KiCad,Pcbnew,10.0.3*%
%TF.CreationDate,2026-07-08T12:05:22+02:00*%
%TF.ProjectId,musicbrain-gate8,6d757369-6362-4726-9169-6e2d67617465,1.1*%
%TF.SameCoordinates,Original*%
%TF.FileFunction,Drillmap*%
%TF.FilePolarity,Positive*%
%FSLAX45Y45*%
G04 Gerber Fmt 4.5, Leading zero omitted, Abs format (unit mm)*
G04 Created by KiCad (PCBNEW 10.0.3) date 2026-07-08 12:05:22*
%MOMM*%
%LPD*%
G01*
G04 APERTURE LIST*
%ADD10C,0.100000*%
%ADD11C,0.200000*%
G04 APERTURE END LIST*
D10*
X10000000Y-10000000D02*
X13500000Y-10000000D01*
X13500000Y-18000000D01*
X10000000Y-18000000D01*
X10000000Y-10000000D01*
D11*
D10*
X10185000Y-10185000D02*
X10215000Y-10215000D01*
X10215000Y-10185000D02*
X10185000Y-10215000D01*
X10185000Y-13985000D02*
X10215000Y-14015000D01*
X10215000Y-13985000D02*
X10185000Y-14015000D01*
X10185000Y-16785000D02*
X10215000Y-16815000D01*
X10215000Y-16785000D02*
X10185000Y-16815000D01*
X10185000Y-17785000D02*
X10215000Y-17815000D01*
X10215000Y-17785000D02*
X10185000Y-17815000D01*
X10285000Y-11985000D02*
X10315000Y-12015000D01*
X10315000Y-11985000D02*
X10285000Y-12015000D01*
X10505000Y-14405000D02*
X10535000Y-14435000D01*
X10535000Y-14405000D02*
X10505000Y-14435000D01*
X10645000Y-14540500D02*
X10675000Y-14570500D01*
X10675000Y-14540500D02*
X10645000Y-14570500D01*
X10645000Y-14667500D02*
X10675000Y-14697500D01*
X10675000Y-14667500D02*
X10645000Y-14697500D01*
X10645000Y-14794500D02*
X10675000Y-14824500D01*
X10675000Y-14794500D02*
X10645000Y-14824500D01*
X10645000Y-14921500D02*
X10675000Y-14951500D01*
X10675000Y-14921500D02*
X10645000Y-14951500D01*
X10645000Y-15048500D02*
X10675000Y-15078500D01*
X10675000Y-15048500D02*
X10645000Y-15078500D01*
X10645000Y-15175500D02*
X10675000Y-15205500D01*
X10675000Y-15175500D02*
X10645000Y-15205500D01*
X10645000Y-15302500D02*
X10675000Y-15332500D01*
X10675000Y-15302500D02*
X10645000Y-15332500D01*
X10846000Y-11375000D02*
X10876000Y-11405000D01*
X10876000Y-11375000D02*
X10846000Y-11405000D01*
X10985000Y-16985000D02*
X11015000Y-17015000D01*
X11015000Y-16985000D02*
X10985000Y-17015000D01*
X11100000Y-11375000D02*
X11130000Y-11405000D01*
X11130000Y-11375000D02*
X11100000Y-11405000D01*
X11115000Y-15735000D02*
X11145000Y-15765000D01*
X11145000Y-15735000D02*
X11115000Y-15765000D01*
X11354000Y-11375000D02*
X11384000Y-11405000D01*
X11384000Y-11375000D02*
X11354000Y-11405000D01*
X11465000Y-14667500D02*
X11495000Y-14697500D01*
X11495000Y-14667500D02*
X11465000Y-14697500D01*
X11475000Y-15735000D02*
X11505000Y-15765000D01*
X11505000Y-15735000D02*
X11475000Y-15765000D01*
X11608000Y-11375000D02*
X11638000Y-11405000D01*
X11638000Y-11375000D02*
X11608000Y-11405000D01*
X11635000Y-17045000D02*
X11665000Y-17075000D01*
X11665000Y-17045000D02*
X11635000Y-17075000D01*
X11685000Y-10235000D02*
X11715000Y-10265000D01*
X11715000Y-10235000D02*
X11685000Y-10265000D01*
X11775000Y-17200000D02*
X11805000Y-17230000D01*
X11805000Y-17200000D02*
X11775000Y-17230000D01*
X11855000Y-17045000D02*
X11885000Y-17075000D01*
X11885000Y-17045000D02*
X11855000Y-17075000D01*
X11862000Y-11375000D02*
X11892000Y-11405000D01*
X11892000Y-11375000D02*
X11862000Y-11405000D01*
X11985000Y-11985000D02*
X12015000Y-12015000D01*
X12015000Y-11985000D02*
X11985000Y-12015000D01*
X12015000Y-17200000D02*
X12045000Y-17230000D01*
X12045000Y-17200000D02*
X12015000Y-17230000D01*
X12116000Y-11375000D02*
X12146000Y-11405000D01*
X12146000Y-11375000D02*
X12116000Y-11405000D01*
X12370000Y-11375000D02*
X12400000Y-11405000D01*
X12400000Y-11375000D02*
X12370000Y-11405000D01*
X12624000Y-11375000D02*
X12654000Y-11405000D01*
X12654000Y-11375000D02*
X12624000Y-11405000D01*
X12900000Y-15735000D02*
X12930000Y-15765000D01*
X12930000Y-15735000D02*
X12900000Y-15765000D01*
X13035000Y-14985000D02*
X13065000Y-15015000D01*
X13065000Y-14985000D02*
X13035000Y-15015000D01*
X13085000Y-15485000D02*
X13115000Y-15515000D01*
X13115000Y-15485000D02*
X13085000Y-15515000D01*
X13285000Y-10185000D02*
X13315000Y-10215000D01*
X13315000Y-10185000D02*
X13285000Y-10215000D01*
X13285000Y-17785000D02*
X13315000Y-17815000D01*
X13315000Y-17785000D02*
X13285000Y-17815000D01*
X13315000Y-16815000D02*
X13345000Y-16845000D01*
X13345000Y-16815000D02*
X13315000Y-16845000D01*
X10657000Y-10658000D02*
G75*
G02*
X10557000Y-10658000I-50000J0D01*
G01*
X10557000Y-10658000D02*
G75*
G02*
X10657000Y-10658000I50000J0D01*
G01*
X10657000Y-17342000D02*
G75*
G02*
X10557000Y-17342000I-50000J0D01*
G01*
X10557000Y-17342000D02*
G75*
G02*
X10657000Y-17342000I50000J0D01*
G01*
X10657000Y-17596000D02*
G75*
G02*
X10557000Y-17596000I-50000J0D01*
G01*
X10557000Y-17596000D02*
G75*
G02*
X10657000Y-17596000I50000J0D01*
G01*
X10911000Y-10658000D02*
G75*
G02*
X10811000Y-10658000I-50000J0D01*
G01*
X10811000Y-10658000D02*
G75*
G02*
X10911000Y-10658000I50000J0D01*
G01*
X10911000Y-17342000D02*
G75*
G02*
X10811000Y-17342000I-50000J0D01*
G01*
X10811000Y-17342000D02*
G75*
G02*
X10911000Y-17342000I50000J0D01*
G01*
X10911000Y-17596000D02*
G75*
G02*
X10811000Y-17596000I-50000J0D01*
G01*
X10811000Y-17596000D02*
G75*
G02*
X10911000Y-17596000I50000J0D01*
G01*
X11165000Y-10658000D02*
G75*
G02*
X11065000Y-10658000I-50000J0D01*
G01*
X11065000Y-10658000D02*
G75*
G02*
X11165000Y-10658000I50000J0D01*
G01*
X11165000Y-17342000D02*
G75*
G02*
X11065000Y-17342000I-50000J0D01*
G01*
X11065000Y-17342000D02*
G75*
G02*
X11165000Y-17342000I50000J0D01*
G01*
X11165000Y-17596000D02*
G75*
G02*
X11065000Y-17596000I-50000J0D01*
G01*
X11065000Y-17596000D02*
G75*
G02*
X11165000Y-17596000I50000J0D01*
G01*
X11419000Y-10658000D02*
G75*
G02*
X11319000Y-10658000I-50000J0D01*
G01*
X11319000Y-10658000D02*
G75*
G02*
X11419000Y-10658000I50000J0D01*
G01*
X11419000Y-17342000D02*
G75*
G02*
X11319000Y-17342000I-50000J0D01*
G01*
X11319000Y-17342000D02*
G75*
G02*
X11419000Y-17342000I50000J0D01*
G01*
X11419000Y-17596000D02*
G75*
G02*
X11319000Y-17596000I-50000J0D01*
G01*
X11319000Y-17596000D02*
G75*
G02*
X11419000Y-17596000I50000J0D01*
G01*
X11673000Y-10658000D02*
G75*
G02*
X11573000Y-10658000I-50000J0D01*
G01*
X11573000Y-10658000D02*
G75*
G02*
X11673000Y-10658000I50000J0D01*
G01*
X11673000Y-17342000D02*
G75*
G02*
X11573000Y-17342000I-50000J0D01*
G01*
X11573000Y-17342000D02*
G75*
G02*
X11673000Y-17342000I50000J0D01*
G01*
X11673000Y-17596000D02*
G75*
G02*
X11573000Y-17596000I-50000J0D01*
G01*
X11573000Y-17596000D02*
G75*
G02*
X11673000Y-17596000I50000J0D01*
G01*
X11927000Y-10658000D02*
G75*
G02*
X11827000Y-10658000I-50000J0D01*
G01*
X11827000Y-10658000D02*
G75*
G02*
X11927000Y-10658000I50000J0D01*
G01*
X11927000Y-17342000D02*
G75*
G02*
X11827000Y-17342000I-50000J0D01*
G01*
X11827000Y-17342000D02*
G75*
G02*
X11927000Y-17342000I50000J0D01*
G01*
X11927000Y-17596000D02*
G75*
G02*
X11827000Y-17596000I-50000J0D01*
G01*
X11827000Y-17596000D02*
G75*
G02*
X11927000Y-17596000I50000J0D01*
G01*
X12181000Y-10658000D02*
G75*
G02*
X12081000Y-10658000I-50000J0D01*
G01*
X12081000Y-10658000D02*
G75*
G02*
X12181000Y-10658000I50000J0D01*
G01*
X12181000Y-17342000D02*
G75*
G02*
X12081000Y-17342000I-50000J0D01*
G01*
X12081000Y-17342000D02*
G75*
G02*
X12181000Y-17342000I50000J0D01*
G01*
X12181000Y-17596000D02*
G75*
G02*
X12081000Y-17596000I-50000J0D01*
G01*
X12081000Y-17596000D02*
G75*
G02*
X12181000Y-17596000I50000J0D01*
G01*
X12435000Y-10658000D02*
G75*
G02*
X12335000Y-10658000I-50000J0D01*
G01*
X12335000Y-10658000D02*
G75*
G02*
X12435000Y-10658000I50000J0D01*
G01*
X12435000Y-17342000D02*
G75*
G02*
X12335000Y-17342000I-50000J0D01*
G01*
X12335000Y-17342000D02*
G75*
G02*
X12435000Y-17342000I50000J0D01*
G01*
X12435000Y-17596000D02*
G75*
G02*
X12335000Y-17596000I-50000J0D01*
G01*
X12335000Y-17596000D02*
G75*
G02*
X12435000Y-17596000I50000J0D01*
G01*
X12689000Y-10658000D02*
G75*
G02*
X12589000Y-10658000I-50000J0D01*
G01*
X12589000Y-10658000D02*
G75*
G02*
X12689000Y-10658000I50000J0D01*
G01*
X12689000Y-17342000D02*
G75*
G02*
X12589000Y-17342000I-50000J0D01*
G01*
X12589000Y-17342000D02*
G75*
G02*
X12689000Y-17342000I50000J0D01*
G01*
X12689000Y-17596000D02*
G75*
G02*
X12589000Y-17596000I-50000J0D01*
G01*
X12589000Y-17596000D02*
G75*
G02*
X12689000Y-17596000I50000J0D01*
G01*
X12943000Y-10658000D02*
G75*
G02*
X12843000Y-10658000I-50000J0D01*
G01*
X12843000Y-10658000D02*
G75*
G02*
X12943000Y-10658000I50000J0D01*
G01*
X12943000Y-17342000D02*
G75*
G02*
X12843000Y-17342000I-50000J0D01*
G01*
X12843000Y-17342000D02*
G75*
G02*
X12943000Y-17342000I50000J0D01*
G01*
X12943000Y-17596000D02*
G75*
G02*
X12843000Y-17596000I-50000J0D01*
G01*
X12843000Y-17596000D02*
G75*
G02*
X12943000Y-17596000I50000J0D01*
G01*
D11*
X10255777Y-18316484D02*
X10255777Y-18116484D01*
X10255777Y-18116484D02*
X10303396Y-18116484D01*
X10303396Y-18116484D02*
X10331967Y-18126008D01*
X10331967Y-18126008D02*
X10351015Y-18145055D01*
X10351015Y-18145055D02*
X10360539Y-18164103D01*
X10360539Y-18164103D02*
X10370063Y-18202198D01*
X10370063Y-18202198D02*
X10370063Y-18230770D01*
X10370063Y-18230770D02*
X10360539Y-18268865D01*
X10360539Y-18268865D02*
X10351015Y-18287912D01*
X10351015Y-18287912D02*
X10331967Y-18306960D01*
X10331967Y-18306960D02*
X10303396Y-18316484D01*
X10303396Y-18316484D02*
X10255777Y-18316484D01*
X10455777Y-18316484D02*
X10455777Y-18183150D01*
X10455777Y-18221246D02*
X10465301Y-18202198D01*
X10465301Y-18202198D02*
X10474824Y-18192674D01*
X10474824Y-18192674D02*
X10493872Y-18183150D01*
X10493872Y-18183150D02*
X10512920Y-18183150D01*
X10579586Y-18316484D02*
X10579586Y-18183150D01*
X10579586Y-18116484D02*
X10570063Y-18126008D01*
X10570063Y-18126008D02*
X10579586Y-18135531D01*
X10579586Y-18135531D02*
X10589110Y-18126008D01*
X10589110Y-18126008D02*
X10579586Y-18116484D01*
X10579586Y-18116484D02*
X10579586Y-18135531D01*
X10703396Y-18316484D02*
X10684348Y-18306960D01*
X10684348Y-18306960D02*
X10674824Y-18287912D01*
X10674824Y-18287912D02*
X10674824Y-18116484D01*
X10808158Y-18316484D02*
X10789110Y-18306960D01*
X10789110Y-18306960D02*
X10779586Y-18287912D01*
X10779586Y-18287912D02*
X10779586Y-18116484D01*
X11036729Y-18316484D02*
X11036729Y-18116484D01*
X11036729Y-18116484D02*
X11103396Y-18259341D01*
X11103396Y-18259341D02*
X11170063Y-18116484D01*
X11170063Y-18116484D02*
X11170063Y-18316484D01*
X11351015Y-18316484D02*
X11351015Y-18211722D01*
X11351015Y-18211722D02*
X11341491Y-18192674D01*
X11341491Y-18192674D02*
X11322443Y-18183150D01*
X11322443Y-18183150D02*
X11284348Y-18183150D01*
X11284348Y-18183150D02*
X11265301Y-18192674D01*
X11351015Y-18306960D02*
X11331967Y-18316484D01*
X11331967Y-18316484D02*
X11284348Y-18316484D01*
X11284348Y-18316484D02*
X11265301Y-18306960D01*
X11265301Y-18306960D02*
X11255777Y-18287912D01*
X11255777Y-18287912D02*
X11255777Y-18268865D01*
X11255777Y-18268865D02*
X11265301Y-18249817D01*
X11265301Y-18249817D02*
X11284348Y-18240293D01*
X11284348Y-18240293D02*
X11331967Y-18240293D01*
X11331967Y-18240293D02*
X11351015Y-18230770D01*
X11446253Y-18183150D02*
X11446253Y-18383150D01*
X11446253Y-18192674D02*
X11465301Y-18183150D01*
X11465301Y-18183150D02*
X11503396Y-18183150D01*
X11503396Y-18183150D02*
X11522443Y-18192674D01*
X11522443Y-18192674D02*
X11531967Y-18202198D01*
X11531967Y-18202198D02*
X11541491Y-18221246D01*
X11541491Y-18221246D02*
X11541491Y-18278389D01*
X11541491Y-18278389D02*
X11531967Y-18297436D01*
X11531967Y-18297436D02*
X11522443Y-18306960D01*
X11522443Y-18306960D02*
X11503396Y-18316484D01*
X11503396Y-18316484D02*
X11465301Y-18316484D01*
X11465301Y-18316484D02*
X11446253Y-18306960D01*
X11627205Y-18297436D02*
X11636729Y-18306960D01*
X11636729Y-18306960D02*
X11627205Y-18316484D01*
X11627205Y-18316484D02*
X11617682Y-18306960D01*
X11617682Y-18306960D02*
X11627205Y-18297436D01*
X11627205Y-18297436D02*
X11627205Y-18316484D01*
X11627205Y-18192674D02*
X11636729Y-18202198D01*
X11636729Y-18202198D02*
X11627205Y-18211722D01*
X11627205Y-18211722D02*
X11617682Y-18202198D01*
X11617682Y-18202198D02*
X11627205Y-18192674D01*
X11627205Y-18192674D02*
X11627205Y-18211722D01*
D10*
X9965000Y-18630000D02*
X9995000Y-18660000D01*
X9995000Y-18630000D02*
X9965000Y-18660000D01*
D11*
X10293872Y-18536484D02*
X10312920Y-18536484D01*
X10312920Y-18536484D02*
X10331967Y-18546008D01*
X10331967Y-18546008D02*
X10341491Y-18555531D01*
X10341491Y-18555531D02*
X10351015Y-18574579D01*
X10351015Y-18574579D02*
X10360539Y-18612674D01*
X10360539Y-18612674D02*
X10360539Y-18660293D01*
X10360539Y-18660293D02*
X10351015Y-18698389D01*
X10351015Y-18698389D02*
X10341491Y-18717436D01*
X10341491Y-18717436D02*
X10331967Y-18726960D01*
X10331967Y-18726960D02*
X10312920Y-18736484D01*
X10312920Y-18736484D02*
X10293872Y-18736484D01*
X10293872Y-18736484D02*
X10274824Y-18726960D01*
X10274824Y-18726960D02*
X10265301Y-18717436D01*
X10265301Y-18717436D02*
X10255777Y-18698389D01*
X10255777Y-18698389D02*
X10246253Y-18660293D01*
X10246253Y-18660293D02*
X10246253Y-18612674D01*
X10246253Y-18612674D02*
X10255777Y-18574579D01*
X10255777Y-18574579D02*
X10265301Y-18555531D01*
X10265301Y-18555531D02*
X10274824Y-18546008D01*
X10274824Y-18546008D02*
X10293872Y-18536484D01*
X10455777Y-18726960D02*
X10455777Y-18736484D01*
X10455777Y-18736484D02*
X10446253Y-18755531D01*
X10446253Y-18755531D02*
X10436729Y-18765055D01*
X10522444Y-18536484D02*
X10646253Y-18536484D01*
X10646253Y-18536484D02*
X10579586Y-18612674D01*
X10579586Y-18612674D02*
X10608158Y-18612674D01*
X10608158Y-18612674D02*
X10627205Y-18622198D01*
X10627205Y-18622198D02*
X10636729Y-18631722D01*
X10636729Y-18631722D02*
X10646253Y-18650770D01*
X10646253Y-18650770D02*
X10646253Y-18698389D01*
X10646253Y-18698389D02*
X10636729Y-18717436D01*
X10636729Y-18717436D02*
X10627205Y-18726960D01*
X10627205Y-18726960D02*
X10608158Y-18736484D01*
X10608158Y-18736484D02*
X10551015Y-18736484D01*
X10551015Y-18736484D02*
X10531967Y-18726960D01*
X10531967Y-18726960D02*
X10522444Y-18717436D01*
X10770063Y-18536484D02*
X10789110Y-18536484D01*
X10789110Y-18536484D02*
X10808158Y-18546008D01*
X10808158Y-18546008D02*
X10817682Y-18555531D01*
X10817682Y-18555531D02*
X10827205Y-18574579D01*
X10827205Y-18574579D02*
X10836729Y-18612674D01*
X10836729Y-18612674D02*
X10836729Y-18660293D01*
X10836729Y-18660293D02*
X10827205Y-18698389D01*
X10827205Y-18698389D02*
X10817682Y-18717436D01*
X10817682Y-18717436D02*
X10808158Y-18726960D01*
X10808158Y-18726960D02*
X10789110Y-18736484D01*
X10789110Y-18736484D02*
X10770063Y-18736484D01*
X10770063Y-18736484D02*
X10751015Y-18726960D01*
X10751015Y-18726960D02*
X10741491Y-18717436D01*
X10741491Y-18717436D02*
X10731967Y-18698389D01*
X10731967Y-18698389D02*
X10722444Y-18660293D01*
X10722444Y-18660293D02*
X10722444Y-18612674D01*
X10722444Y-18612674D02*
X10731967Y-18574579D01*
X10731967Y-18574579D02*
X10741491Y-18555531D01*
X10741491Y-18555531D02*
X10751015Y-18546008D01*
X10751015Y-18546008D02*
X10770063Y-18536484D01*
X10960539Y-18536484D02*
X10979586Y-18536484D01*
X10979586Y-18536484D02*
X10998634Y-18546008D01*
X10998634Y-18546008D02*
X11008158Y-18555531D01*
X11008158Y-18555531D02*
X11017682Y-18574579D01*
X11017682Y-18574579D02*
X11027205Y-18612674D01*
X11027205Y-18612674D02*
X11027205Y-18660293D01*
X11027205Y-18660293D02*
X11017682Y-18698389D01*
X11017682Y-18698389D02*
X11008158Y-18717436D01*
X11008158Y-18717436D02*
X10998634Y-18726960D01*
X10998634Y-18726960D02*
X10979586Y-18736484D01*
X10979586Y-18736484D02*
X10960539Y-18736484D01*
X10960539Y-18736484D02*
X10941491Y-18726960D01*
X10941491Y-18726960D02*
X10931967Y-18717436D01*
X10931967Y-18717436D02*
X10922444Y-18698389D01*
X10922444Y-18698389D02*
X10912920Y-18660293D01*
X10912920Y-18660293D02*
X10912920Y-18612674D01*
X10912920Y-18612674D02*
X10922444Y-18574579D01*
X10922444Y-18574579D02*
X10931967Y-18555531D01*
X10931967Y-18555531D02*
X10941491Y-18546008D01*
X10941491Y-18546008D02*
X10960539Y-18536484D01*
X11112920Y-18736484D02*
X11112920Y-18603150D01*
X11112920Y-18622198D02*
X11122444Y-18612674D01*
X11122444Y-18612674D02*
X11141491Y-18603150D01*
X11141491Y-18603150D02*
X11170063Y-18603150D01*
X11170063Y-18603150D02*
X11189110Y-18612674D01*
X11189110Y-18612674D02*
X11198634Y-18631722D01*
X11198634Y-18631722D02*
X11198634Y-18736484D01*
X11198634Y-18631722D02*
X11208158Y-18612674D01*
X11208158Y-18612674D02*
X11227205Y-18603150D01*
X11227205Y-18603150D02*
X11255777Y-18603150D01*
X11255777Y-18603150D02*
X11274824Y-18612674D01*
X11274824Y-18612674D02*
X11284348Y-18631722D01*
X11284348Y-18631722D02*
X11284348Y-18736484D01*
X11379586Y-18736484D02*
X11379586Y-18603150D01*
X11379586Y-18622198D02*
X11389110Y-18612674D01*
X11389110Y-18612674D02*
X11408158Y-18603150D01*
X11408158Y-18603150D02*
X11436729Y-18603150D01*
X11436729Y-18603150D02*
X11455777Y-18612674D01*
X11455777Y-18612674D02*
X11465301Y-18631722D01*
X11465301Y-18631722D02*
X11465301Y-18736484D01*
X11465301Y-18631722D02*
X11474824Y-18612674D01*
X11474824Y-18612674D02*
X11493872Y-18603150D01*
X11493872Y-18603150D02*
X11522443Y-18603150D01*
X11522443Y-18603150D02*
X11541491Y-18612674D01*
X11541491Y-18612674D02*
X11551015Y-18631722D01*
X11551015Y-18631722D02*
X11551015Y-18736484D01*
X11941491Y-18526960D02*
X11770063Y-18784103D01*
X12198634Y-18536484D02*
X12217682Y-18536484D01*
X12217682Y-18536484D02*
X12236729Y-18546008D01*
X12236729Y-18546008D02*
X12246253Y-18555531D01*
X12246253Y-18555531D02*
X12255777Y-18574579D01*
X12255777Y-18574579D02*
X12265301Y-18612674D01*
X12265301Y-18612674D02*
X12265301Y-18660293D01*
X12265301Y-18660293D02*
X12255777Y-18698389D01*
X12255777Y-18698389D02*
X12246253Y-18717436D01*
X12246253Y-18717436D02*
X12236729Y-18726960D01*
X12236729Y-18726960D02*
X12217682Y-18736484D01*
X12217682Y-18736484D02*
X12198634Y-18736484D01*
X12198634Y-18736484D02*
X12179586Y-18726960D01*
X12179586Y-18726960D02*
X12170063Y-18717436D01*
X12170063Y-18717436D02*
X12160539Y-18698389D01*
X12160539Y-18698389D02*
X12151015Y-18660293D01*
X12151015Y-18660293D02*
X12151015Y-18612674D01*
X12151015Y-18612674D02*
X12160539Y-18574579D01*
X12160539Y-18574579D02*
X12170063Y-18555531D01*
X12170063Y-18555531D02*
X12179586Y-18546008D01*
X12179586Y-18546008D02*
X12198634Y-18536484D01*
X12360539Y-18726960D02*
X12360539Y-18736484D01*
X12360539Y-18736484D02*
X12351015Y-18755531D01*
X12351015Y-18755531D02*
X12341491Y-18765055D01*
X12484348Y-18536484D02*
X12503396Y-18536484D01*
X12503396Y-18536484D02*
X12522444Y-18546008D01*
X12522444Y-18546008D02*
X12531967Y-18555531D01*
X12531967Y-18555531D02*
X12541491Y-18574579D01*
X12541491Y-18574579D02*
X12551015Y-18612674D01*
X12551015Y-18612674D02*
X12551015Y-18660293D01*
X12551015Y-18660293D02*
X12541491Y-18698389D01*
X12541491Y-18698389D02*
X12531967Y-18717436D01*
X12531967Y-18717436D02*
X12522444Y-18726960D01*
X12522444Y-18726960D02*
X12503396Y-18736484D01*
X12503396Y-18736484D02*
X12484348Y-18736484D01*
X12484348Y-18736484D02*
X12465301Y-18726960D01*
X12465301Y-18726960D02*
X12455777Y-18717436D01*
X12455777Y-18717436D02*
X12446253Y-18698389D01*
X12446253Y-18698389D02*
X12436729Y-18660293D01*
X12436729Y-18660293D02*
X12436729Y-18612674D01*
X12436729Y-18612674D02*
X12446253Y-18574579D01*
X12446253Y-18574579D02*
X12455777Y-18555531D01*
X12455777Y-18555531D02*
X12465301Y-18546008D01*
X12465301Y-18546008D02*
X12484348Y-18536484D01*
X12741491Y-18736484D02*
X12627206Y-18736484D01*
X12684348Y-18736484D02*
X12684348Y-18536484D01*
X12684348Y-18536484D02*
X12665301Y-18565055D01*
X12665301Y-18565055D02*
X12646253Y-18584103D01*
X12646253Y-18584103D02*
X12627206Y-18593627D01*
X12931967Y-18736484D02*
X12817682Y-18736484D01*
X12874825Y-18736484D02*
X12874825Y-18536484D01*
X12874825Y-18536484D02*
X12855777Y-18565055D01*
X12855777Y-18565055D02*
X12836729Y-18584103D01*
X12836729Y-18584103D02*
X12817682Y-18593627D01*
X13046253Y-18622198D02*
X13027206Y-18612674D01*
X13027206Y-18612674D02*
X13017682Y-18603150D01*
X13017682Y-18603150D02*
X13008158Y-18584103D01*
X13008158Y-18584103D02*
X13008158Y-18574579D01*
X13008158Y-18574579D02*
X13017682Y-18555531D01*
X13017682Y-18555531D02*
X13027206Y-18546008D01*
X13027206Y-18546008D02*
X13046253Y-18536484D01*
X13046253Y-18536484D02*
X13084348Y-18536484D01*
X13084348Y-18536484D02*
X13103396Y-18546008D01*
X13103396Y-18546008D02*
X13112920Y-18555531D01*
X13112920Y-18555531D02*
X13122444Y-18574579D01*
X13122444Y-18574579D02*
X13122444Y-18584103D01*
X13122444Y-18584103D02*
X13112920Y-18603150D01*
X13112920Y-18603150D02*
X13103396Y-18612674D01*
X13103396Y-18612674D02*
X13084348Y-18622198D01*
X13084348Y-18622198D02*
X13046253Y-18622198D01*
X13046253Y-18622198D02*
X13027206Y-18631722D01*
X13027206Y-18631722D02*
X13017682Y-18641246D01*
X13017682Y-18641246D02*
X13008158Y-18660293D01*
X13008158Y-18660293D02*
X13008158Y-18698389D01*
X13008158Y-18698389D02*
X13017682Y-18717436D01*
X13017682Y-18717436D02*
X13027206Y-18726960D01*
X13027206Y-18726960D02*
X13046253Y-18736484D01*
X13046253Y-18736484D02*
X13084348Y-18736484D01*
X13084348Y-18736484D02*
X13103396Y-18726960D01*
X13103396Y-18726960D02*
X13112920Y-18717436D01*
X13112920Y-18717436D02*
X13122444Y-18698389D01*
X13122444Y-18698389D02*
X13122444Y-18660293D01*
X13122444Y-18660293D02*
X13112920Y-18641246D01*
X13112920Y-18641246D02*
X13103396Y-18631722D01*
X13103396Y-18631722D02*
X13084348Y-18622198D01*
X13198634Y-18536484D02*
X13198634Y-18574579D01*
X13274825Y-18536484D02*
X13274825Y-18574579D01*
X13570063Y-18812674D02*
X13560539Y-18803150D01*
X13560539Y-18803150D02*
X13541491Y-18774579D01*
X13541491Y-18774579D02*
X13531968Y-18755531D01*
X13531968Y-18755531D02*
X13522444Y-18726960D01*
X13522444Y-18726960D02*
X13512920Y-18679341D01*
X13512920Y-18679341D02*
X13512920Y-18641246D01*
X13512920Y-18641246D02*
X13522444Y-18593627D01*
X13522444Y-18593627D02*
X13531968Y-18565055D01*
X13531968Y-18565055D02*
X13541491Y-18546008D01*
X13541491Y-18546008D02*
X13560539Y-18517436D01*
X13560539Y-18517436D02*
X13570063Y-18507912D01*
X13627206Y-18536484D02*
X13751015Y-18536484D01*
X13751015Y-18536484D02*
X13684348Y-18612674D01*
X13684348Y-18612674D02*
X13712920Y-18612674D01*
X13712920Y-18612674D02*
X13731968Y-18622198D01*
X13731968Y-18622198D02*
X13741491Y-18631722D01*
X13741491Y-18631722D02*
X13751015Y-18650770D01*
X13751015Y-18650770D02*
X13751015Y-18698389D01*
X13751015Y-18698389D02*
X13741491Y-18717436D01*
X13741491Y-18717436D02*
X13731968Y-18726960D01*
X13731968Y-18726960D02*
X13712920Y-18736484D01*
X13712920Y-18736484D02*
X13655777Y-18736484D01*
X13655777Y-18736484D02*
X13636729Y-18726960D01*
X13636729Y-18726960D02*
X13627206Y-18717436D01*
X13817682Y-18536484D02*
X13951015Y-18536484D01*
X13951015Y-18536484D02*
X13865301Y-18736484D01*
X14179587Y-18736484D02*
X14179587Y-18536484D01*
X14265301Y-18736484D02*
X14265301Y-18631722D01*
X14265301Y-18631722D02*
X14255777Y-18612674D01*
X14255777Y-18612674D02*
X14236730Y-18603150D01*
X14236730Y-18603150D02*
X14208158Y-18603150D01*
X14208158Y-18603150D02*
X14189110Y-18612674D01*
X14189110Y-18612674D02*
X14179587Y-18622198D01*
X14389110Y-18736484D02*
X14370063Y-18726960D01*
X14370063Y-18726960D02*
X14360539Y-18717436D01*
X14360539Y-18717436D02*
X14351015Y-18698389D01*
X14351015Y-18698389D02*
X14351015Y-18641246D01*
X14351015Y-18641246D02*
X14360539Y-18622198D01*
X14360539Y-18622198D02*
X14370063Y-18612674D01*
X14370063Y-18612674D02*
X14389110Y-18603150D01*
X14389110Y-18603150D02*
X14417682Y-18603150D01*
X14417682Y-18603150D02*
X14436730Y-18612674D01*
X14436730Y-18612674D02*
X14446253Y-18622198D01*
X14446253Y-18622198D02*
X14455777Y-18641246D01*
X14455777Y-18641246D02*
X14455777Y-18698389D01*
X14455777Y-18698389D02*
X14446253Y-18717436D01*
X14446253Y-18717436D02*
X14436730Y-18726960D01*
X14436730Y-18726960D02*
X14417682Y-18736484D01*
X14417682Y-18736484D02*
X14389110Y-18736484D01*
X14570063Y-18736484D02*
X14551015Y-18726960D01*
X14551015Y-18726960D02*
X14541491Y-18707912D01*
X14541491Y-18707912D02*
X14541491Y-18536484D01*
X14722444Y-18726960D02*
X14703396Y-18736484D01*
X14703396Y-18736484D02*
X14665301Y-18736484D01*
X14665301Y-18736484D02*
X14646253Y-18726960D01*
X14646253Y-18726960D02*
X14636730Y-18707912D01*
X14636730Y-18707912D02*
X14636730Y-18631722D01*
X14636730Y-18631722D02*
X14646253Y-18612674D01*
X14646253Y-18612674D02*
X14665301Y-18603150D01*
X14665301Y-18603150D02*
X14703396Y-18603150D01*
X14703396Y-18603150D02*
X14722444Y-18612674D01*
X14722444Y-18612674D02*
X14731968Y-18631722D01*
X14731968Y-18631722D02*
X14731968Y-18650770D01*
X14731968Y-18650770D02*
X14636730Y-18669817D01*
X14808158Y-18726960D02*
X14827206Y-18736484D01*
X14827206Y-18736484D02*
X14865301Y-18736484D01*
X14865301Y-18736484D02*
X14884349Y-18726960D01*
X14884349Y-18726960D02*
X14893872Y-18707912D01*
X14893872Y-18707912D02*
X14893872Y-18698389D01*
X14893872Y-18698389D02*
X14884349Y-18679341D01*
X14884349Y-18679341D02*
X14865301Y-18669817D01*
X14865301Y-18669817D02*
X14836730Y-18669817D01*
X14836730Y-18669817D02*
X14817682Y-18660293D01*
X14817682Y-18660293D02*
X14808158Y-18641246D01*
X14808158Y-18641246D02*
X14808158Y-18631722D01*
X14808158Y-18631722D02*
X14817682Y-18612674D01*
X14817682Y-18612674D02*
X14836730Y-18603150D01*
X14836730Y-18603150D02*
X14865301Y-18603150D01*
X14865301Y-18603150D02*
X14884349Y-18612674D01*
X14960539Y-18812674D02*
X14970063Y-18803150D01*
X14970063Y-18803150D02*
X14989111Y-18774579D01*
X14989111Y-18774579D02*
X14998634Y-18755531D01*
X14998634Y-18755531D02*
X15008158Y-18726960D01*
X15008158Y-18726960D02*
X15017682Y-18679341D01*
X15017682Y-18679341D02*
X15017682Y-18641246D01*
X15017682Y-18641246D02*
X15008158Y-18593627D01*
X15008158Y-18593627D02*
X14998634Y-18565055D01*
X14998634Y-18565055D02*
X14989111Y-18546008D01*
X14989111Y-18546008D02*
X14970063Y-18517436D01*
X14970063Y-18517436D02*
X14960539Y-18507912D01*
D10*
X9995000Y-18909000D02*
G75*
G02*
X9895000Y-18909000I-50000J0D01*
G01*
X9895000Y-18909000D02*
G75*
G02*
X9995000Y-18909000I50000J0D01*
G01*
D11*
X10360539Y-19000484D02*
X10246253Y-19000484D01*
X10303396Y-19000484D02*
X10303396Y-18800484D01*
X10303396Y-18800484D02*
X10284348Y-18829055D01*
X10284348Y-18829055D02*
X10265301Y-18848103D01*
X10265301Y-18848103D02*
X10246253Y-18857627D01*
X10455777Y-18990960D02*
X10455777Y-19000484D01*
X10455777Y-19000484D02*
X10446253Y-19019531D01*
X10446253Y-19019531D02*
X10436729Y-19029055D01*
X10579586Y-18800484D02*
X10598634Y-18800484D01*
X10598634Y-18800484D02*
X10617682Y-18810008D01*
X10617682Y-18810008D02*
X10627205Y-18819531D01*
X10627205Y-18819531D02*
X10636729Y-18838579D01*
X10636729Y-18838579D02*
X10646253Y-18876674D01*
X10646253Y-18876674D02*
X10646253Y-18924293D01*
X10646253Y-18924293D02*
X10636729Y-18962389D01*
X10636729Y-18962389D02*
X10627205Y-18981436D01*
X10627205Y-18981436D02*
X10617682Y-18990960D01*
X10617682Y-18990960D02*
X10598634Y-19000484D01*
X10598634Y-19000484D02*
X10579586Y-19000484D01*
X10579586Y-19000484D02*
X10560539Y-18990960D01*
X10560539Y-18990960D02*
X10551015Y-18981436D01*
X10551015Y-18981436D02*
X10541491Y-18962389D01*
X10541491Y-18962389D02*
X10531967Y-18924293D01*
X10531967Y-18924293D02*
X10531967Y-18876674D01*
X10531967Y-18876674D02*
X10541491Y-18838579D01*
X10541491Y-18838579D02*
X10551015Y-18819531D01*
X10551015Y-18819531D02*
X10560539Y-18810008D01*
X10560539Y-18810008D02*
X10579586Y-18800484D01*
X10770063Y-18800484D02*
X10789110Y-18800484D01*
X10789110Y-18800484D02*
X10808158Y-18810008D01*
X10808158Y-18810008D02*
X10817682Y-18819531D01*
X10817682Y-18819531D02*
X10827205Y-18838579D01*
X10827205Y-18838579D02*
X10836729Y-18876674D01*
X10836729Y-18876674D02*
X10836729Y-18924293D01*
X10836729Y-18924293D02*
X10827205Y-18962389D01*
X10827205Y-18962389D02*
X10817682Y-18981436D01*
X10817682Y-18981436D02*
X10808158Y-18990960D01*
X10808158Y-18990960D02*
X10789110Y-19000484D01*
X10789110Y-19000484D02*
X10770063Y-19000484D01*
X10770063Y-19000484D02*
X10751015Y-18990960D01*
X10751015Y-18990960D02*
X10741491Y-18981436D01*
X10741491Y-18981436D02*
X10731967Y-18962389D01*
X10731967Y-18962389D02*
X10722444Y-18924293D01*
X10722444Y-18924293D02*
X10722444Y-18876674D01*
X10722444Y-18876674D02*
X10731967Y-18838579D01*
X10731967Y-18838579D02*
X10741491Y-18819531D01*
X10741491Y-18819531D02*
X10751015Y-18810008D01*
X10751015Y-18810008D02*
X10770063Y-18800484D01*
X10960539Y-18800484D02*
X10979586Y-18800484D01*
X10979586Y-18800484D02*
X10998634Y-18810008D01*
X10998634Y-18810008D02*
X11008158Y-18819531D01*
X11008158Y-18819531D02*
X11017682Y-18838579D01*
X11017682Y-18838579D02*
X11027205Y-18876674D01*
X11027205Y-18876674D02*
X11027205Y-18924293D01*
X11027205Y-18924293D02*
X11017682Y-18962389D01*
X11017682Y-18962389D02*
X11008158Y-18981436D01*
X11008158Y-18981436D02*
X10998634Y-18990960D01*
X10998634Y-18990960D02*
X10979586Y-19000484D01*
X10979586Y-19000484D02*
X10960539Y-19000484D01*
X10960539Y-19000484D02*
X10941491Y-18990960D01*
X10941491Y-18990960D02*
X10931967Y-18981436D01*
X10931967Y-18981436D02*
X10922444Y-18962389D01*
X10922444Y-18962389D02*
X10912920Y-18924293D01*
X10912920Y-18924293D02*
X10912920Y-18876674D01*
X10912920Y-18876674D02*
X10922444Y-18838579D01*
X10922444Y-18838579D02*
X10931967Y-18819531D01*
X10931967Y-18819531D02*
X10941491Y-18810008D01*
X10941491Y-18810008D02*
X10960539Y-18800484D01*
X11112920Y-19000484D02*
X11112920Y-18867150D01*
X11112920Y-18886198D02*
X11122444Y-18876674D01*
X11122444Y-18876674D02*
X11141491Y-18867150D01*
X11141491Y-18867150D02*
X11170063Y-18867150D01*
X11170063Y-18867150D02*
X11189110Y-18876674D01*
X11189110Y-18876674D02*
X11198634Y-18895722D01*
X11198634Y-18895722D02*
X11198634Y-19000484D01*
X11198634Y-18895722D02*
X11208158Y-18876674D01*
X11208158Y-18876674D02*
X11227205Y-18867150D01*
X11227205Y-18867150D02*
X11255777Y-18867150D01*
X11255777Y-18867150D02*
X11274824Y-18876674D01*
X11274824Y-18876674D02*
X11284348Y-18895722D01*
X11284348Y-18895722D02*
X11284348Y-19000484D01*
X11379586Y-19000484D02*
X11379586Y-18867150D01*
X11379586Y-18886198D02*
X11389110Y-18876674D01*
X11389110Y-18876674D02*
X11408158Y-18867150D01*
X11408158Y-18867150D02*
X11436729Y-18867150D01*
X11436729Y-18867150D02*
X11455777Y-18876674D01*
X11455777Y-18876674D02*
X11465301Y-18895722D01*
X11465301Y-18895722D02*
X11465301Y-19000484D01*
X11465301Y-18895722D02*
X11474824Y-18876674D01*
X11474824Y-18876674D02*
X11493872Y-18867150D01*
X11493872Y-18867150D02*
X11522443Y-18867150D01*
X11522443Y-18867150D02*
X11541491Y-18876674D01*
X11541491Y-18876674D02*
X11551015Y-18895722D01*
X11551015Y-18895722D02*
X11551015Y-19000484D01*
X11941491Y-18790960D02*
X11770063Y-19048103D01*
X12198634Y-18800484D02*
X12217682Y-18800484D01*
X12217682Y-18800484D02*
X12236729Y-18810008D01*
X12236729Y-18810008D02*
X12246253Y-18819531D01*
X12246253Y-18819531D02*
X12255777Y-18838579D01*
X12255777Y-18838579D02*
X12265301Y-18876674D01*
X12265301Y-18876674D02*
X12265301Y-18924293D01*
X12265301Y-18924293D02*
X12255777Y-18962389D01*
X12255777Y-18962389D02*
X12246253Y-18981436D01*
X12246253Y-18981436D02*
X12236729Y-18990960D01*
X12236729Y-18990960D02*
X12217682Y-19000484D01*
X12217682Y-19000484D02*
X12198634Y-19000484D01*
X12198634Y-19000484D02*
X12179586Y-18990960D01*
X12179586Y-18990960D02*
X12170063Y-18981436D01*
X12170063Y-18981436D02*
X12160539Y-18962389D01*
X12160539Y-18962389D02*
X12151015Y-18924293D01*
X12151015Y-18924293D02*
X12151015Y-18876674D01*
X12151015Y-18876674D02*
X12160539Y-18838579D01*
X12160539Y-18838579D02*
X12170063Y-18819531D01*
X12170063Y-18819531D02*
X12179586Y-18810008D01*
X12179586Y-18810008D02*
X12198634Y-18800484D01*
X12360539Y-18990960D02*
X12360539Y-19000484D01*
X12360539Y-19000484D02*
X12351015Y-19019531D01*
X12351015Y-19019531D02*
X12341491Y-19029055D01*
X12484348Y-18800484D02*
X12503396Y-18800484D01*
X12503396Y-18800484D02*
X12522444Y-18810008D01*
X12522444Y-18810008D02*
X12531967Y-18819531D01*
X12531967Y-18819531D02*
X12541491Y-18838579D01*
X12541491Y-18838579D02*
X12551015Y-18876674D01*
X12551015Y-18876674D02*
X12551015Y-18924293D01*
X12551015Y-18924293D02*
X12541491Y-18962389D01*
X12541491Y-18962389D02*
X12531967Y-18981436D01*
X12531967Y-18981436D02*
X12522444Y-18990960D01*
X12522444Y-18990960D02*
X12503396Y-19000484D01*
X12503396Y-19000484D02*
X12484348Y-19000484D01*
X12484348Y-19000484D02*
X12465301Y-18990960D01*
X12465301Y-18990960D02*
X12455777Y-18981436D01*
X12455777Y-18981436D02*
X12446253Y-18962389D01*
X12446253Y-18962389D02*
X12436729Y-18924293D01*
X12436729Y-18924293D02*
X12436729Y-18876674D01*
X12436729Y-18876674D02*
X12446253Y-18838579D01*
X12446253Y-18838579D02*
X12455777Y-18819531D01*
X12455777Y-18819531D02*
X12465301Y-18810008D01*
X12465301Y-18810008D02*
X12484348Y-18800484D01*
X12617682Y-18800484D02*
X12741491Y-18800484D01*
X12741491Y-18800484D02*
X12674825Y-18876674D01*
X12674825Y-18876674D02*
X12703396Y-18876674D01*
X12703396Y-18876674D02*
X12722444Y-18886198D01*
X12722444Y-18886198D02*
X12731967Y-18895722D01*
X12731967Y-18895722D02*
X12741491Y-18914770D01*
X12741491Y-18914770D02*
X12741491Y-18962389D01*
X12741491Y-18962389D02*
X12731967Y-18981436D01*
X12731967Y-18981436D02*
X12722444Y-18990960D01*
X12722444Y-18990960D02*
X12703396Y-19000484D01*
X12703396Y-19000484D02*
X12646253Y-19000484D01*
X12646253Y-19000484D02*
X12627206Y-18990960D01*
X12627206Y-18990960D02*
X12617682Y-18981436D01*
X12836729Y-19000484D02*
X12874825Y-19000484D01*
X12874825Y-19000484D02*
X12893872Y-18990960D01*
X12893872Y-18990960D02*
X12903396Y-18981436D01*
X12903396Y-18981436D02*
X12922444Y-18952865D01*
X12922444Y-18952865D02*
X12931967Y-18914770D01*
X12931967Y-18914770D02*
X12931967Y-18838579D01*
X12931967Y-18838579D02*
X12922444Y-18819531D01*
X12922444Y-18819531D02*
X12912920Y-18810008D01*
X12912920Y-18810008D02*
X12893872Y-18800484D01*
X12893872Y-18800484D02*
X12855777Y-18800484D01*
X12855777Y-18800484D02*
X12836729Y-18810008D01*
X12836729Y-18810008D02*
X12827206Y-18819531D01*
X12827206Y-18819531D02*
X12817682Y-18838579D01*
X12817682Y-18838579D02*
X12817682Y-18886198D01*
X12817682Y-18886198D02*
X12827206Y-18905246D01*
X12827206Y-18905246D02*
X12836729Y-18914770D01*
X12836729Y-18914770D02*
X12855777Y-18924293D01*
X12855777Y-18924293D02*
X12893872Y-18924293D01*
X12893872Y-18924293D02*
X12912920Y-18914770D01*
X12912920Y-18914770D02*
X12922444Y-18905246D01*
X12922444Y-18905246D02*
X12931967Y-18886198D01*
X13103396Y-18867150D02*
X13103396Y-19000484D01*
X13055777Y-18790960D02*
X13008158Y-18933817D01*
X13008158Y-18933817D02*
X13131967Y-18933817D01*
X13198634Y-18800484D02*
X13198634Y-18838579D01*
X13274825Y-18800484D02*
X13274825Y-18838579D01*
X13570063Y-19076674D02*
X13560539Y-19067150D01*
X13560539Y-19067150D02*
X13541491Y-19038579D01*
X13541491Y-19038579D02*
X13531968Y-19019531D01*
X13531968Y-19019531D02*
X13522444Y-18990960D01*
X13522444Y-18990960D02*
X13512920Y-18943341D01*
X13512920Y-18943341D02*
X13512920Y-18905246D01*
X13512920Y-18905246D02*
X13522444Y-18857627D01*
X13522444Y-18857627D02*
X13531968Y-18829055D01*
X13531968Y-18829055D02*
X13541491Y-18810008D01*
X13541491Y-18810008D02*
X13560539Y-18781436D01*
X13560539Y-18781436D02*
X13570063Y-18771912D01*
X13627206Y-18800484D02*
X13751015Y-18800484D01*
X13751015Y-18800484D02*
X13684348Y-18876674D01*
X13684348Y-18876674D02*
X13712920Y-18876674D01*
X13712920Y-18876674D02*
X13731968Y-18886198D01*
X13731968Y-18886198D02*
X13741491Y-18895722D01*
X13741491Y-18895722D02*
X13751015Y-18914770D01*
X13751015Y-18914770D02*
X13751015Y-18962389D01*
X13751015Y-18962389D02*
X13741491Y-18981436D01*
X13741491Y-18981436D02*
X13731968Y-18990960D01*
X13731968Y-18990960D02*
X13712920Y-19000484D01*
X13712920Y-19000484D02*
X13655777Y-19000484D01*
X13655777Y-19000484D02*
X13636729Y-18990960D01*
X13636729Y-18990960D02*
X13627206Y-18981436D01*
X13874825Y-18800484D02*
X13893872Y-18800484D01*
X13893872Y-18800484D02*
X13912920Y-18810008D01*
X13912920Y-18810008D02*
X13922444Y-18819531D01*
X13922444Y-18819531D02*
X13931968Y-18838579D01*
X13931968Y-18838579D02*
X13941491Y-18876674D01*
X13941491Y-18876674D02*
X13941491Y-18924293D01*
X13941491Y-18924293D02*
X13931968Y-18962389D01*
X13931968Y-18962389D02*
X13922444Y-18981436D01*
X13922444Y-18981436D02*
X13912920Y-18990960D01*
X13912920Y-18990960D02*
X13893872Y-19000484D01*
X13893872Y-19000484D02*
X13874825Y-19000484D01*
X13874825Y-19000484D02*
X13855777Y-18990960D01*
X13855777Y-18990960D02*
X13846253Y-18981436D01*
X13846253Y-18981436D02*
X13836729Y-18962389D01*
X13836729Y-18962389D02*
X13827206Y-18924293D01*
X13827206Y-18924293D02*
X13827206Y-18876674D01*
X13827206Y-18876674D02*
X13836729Y-18838579D01*
X13836729Y-18838579D02*
X13846253Y-18819531D01*
X13846253Y-18819531D02*
X13855777Y-18810008D01*
X13855777Y-18810008D02*
X13874825Y-18800484D01*
X14179587Y-19000484D02*
X14179587Y-18800484D01*
X14265301Y-19000484D02*
X14265301Y-18895722D01*
X14265301Y-18895722D02*
X14255777Y-18876674D01*
X14255777Y-18876674D02*
X14236730Y-18867150D01*
X14236730Y-18867150D02*
X14208158Y-18867150D01*
X14208158Y-18867150D02*
X14189110Y-18876674D01*
X14189110Y-18876674D02*
X14179587Y-18886198D01*
X14389110Y-19000484D02*
X14370063Y-18990960D01*
X14370063Y-18990960D02*
X14360539Y-18981436D01*
X14360539Y-18981436D02*
X14351015Y-18962389D01*
X14351015Y-18962389D02*
X14351015Y-18905246D01*
X14351015Y-18905246D02*
X14360539Y-18886198D01*
X14360539Y-18886198D02*
X14370063Y-18876674D01*
X14370063Y-18876674D02*
X14389110Y-18867150D01*
X14389110Y-18867150D02*
X14417682Y-18867150D01*
X14417682Y-18867150D02*
X14436730Y-18876674D01*
X14436730Y-18876674D02*
X14446253Y-18886198D01*
X14446253Y-18886198D02*
X14455777Y-18905246D01*
X14455777Y-18905246D02*
X14455777Y-18962389D01*
X14455777Y-18962389D02*
X14446253Y-18981436D01*
X14446253Y-18981436D02*
X14436730Y-18990960D01*
X14436730Y-18990960D02*
X14417682Y-19000484D01*
X14417682Y-19000484D02*
X14389110Y-19000484D01*
X14570063Y-19000484D02*
X14551015Y-18990960D01*
X14551015Y-18990960D02*
X14541491Y-18971912D01*
X14541491Y-18971912D02*
X14541491Y-18800484D01*
X14722444Y-18990960D02*
X14703396Y-19000484D01*
X14703396Y-19000484D02*
X14665301Y-19000484D01*
X14665301Y-19000484D02*
X14646253Y-18990960D01*
X14646253Y-18990960D02*
X14636730Y-18971912D01*
X14636730Y-18971912D02*
X14636730Y-18895722D01*
X14636730Y-18895722D02*
X14646253Y-18876674D01*
X14646253Y-18876674D02*
X14665301Y-18867150D01*
X14665301Y-18867150D02*
X14703396Y-18867150D01*
X14703396Y-18867150D02*
X14722444Y-18876674D01*
X14722444Y-18876674D02*
X14731968Y-18895722D01*
X14731968Y-18895722D02*
X14731968Y-18914770D01*
X14731968Y-18914770D02*
X14636730Y-18933817D01*
X14808158Y-18990960D02*
X14827206Y-19000484D01*
X14827206Y-19000484D02*
X14865301Y-19000484D01*
X14865301Y-19000484D02*
X14884349Y-18990960D01*
X14884349Y-18990960D02*
X14893872Y-18971912D01*
X14893872Y-18971912D02*
X14893872Y-18962389D01*
X14893872Y-18962389D02*
X14884349Y-18943341D01*
X14884349Y-18943341D02*
X14865301Y-18933817D01*
X14865301Y-18933817D02*
X14836730Y-18933817D01*
X14836730Y-18933817D02*
X14817682Y-18924293D01*
X14817682Y-18924293D02*
X14808158Y-18905246D01*
X14808158Y-18905246D02*
X14808158Y-18895722D01*
X14808158Y-18895722D02*
X14817682Y-18876674D01*
X14817682Y-18876674D02*
X14836730Y-18867150D01*
X14836730Y-18867150D02*
X14865301Y-18867150D01*
X14865301Y-18867150D02*
X14884349Y-18876674D01*
X14960539Y-19076674D02*
X14970063Y-19067150D01*
X14970063Y-19067150D02*
X14989111Y-19038579D01*
X14989111Y-19038579D02*
X14998634Y-19019531D01*
X14998634Y-19019531D02*
X15008158Y-18990960D01*
X15008158Y-18990960D02*
X15017682Y-18943341D01*
X15017682Y-18943341D02*
X15017682Y-18905246D01*
X15017682Y-18905246D02*
X15008158Y-18857627D01*
X15008158Y-18857627D02*
X14998634Y-18829055D01*
X14998634Y-18829055D02*
X14989111Y-18810008D01*
X14989111Y-18810008D02*
X14970063Y-18781436D01*
X14970063Y-18781436D02*
X14960539Y-18771912D01*
M02*
