%TF.GenerationSoftware,KiCad,Pcbnew,10.0.3*%
%TF.CreationDate,2026-07-08T12:05:22+02:00*%
%TF.ProjectId,musicbrain-gate8,6d757369-6362-4726-9169-6e2d67617465,1.1*%
%TF.SameCoordinates,Original*%
%TF.FileFunction,Legend,Top*%
%TF.FilePolarity,Positive*%
%FSLAX46Y46*%
G04 Gerber Fmt 4.6, Leading zero omitted, Abs format (unit mm)*
G04 Created by KiCad (PCBNEW 10.0.3) date 2026-07-08 12:05:22*
%MOMM*%
%LPD*%
G01*
G04 APERTURE LIST*
%ADD10C,0.150000*%
%ADD11C,0.120000*%
G04 APERTURE END LIST*
D10*
X117954819Y-144000000D02*
X117288152Y-144000000D01*
X117383390Y-144000000D02*
X117335771Y-143952381D01*
X117335771Y-143952381D02*
X117288152Y-143857143D01*
X117288152Y-143857143D02*
X117288152Y-143714286D01*
X117288152Y-143714286D02*
X117335771Y-143619048D01*
X117335771Y-143619048D02*
X117431009Y-143571429D01*
X117431009Y-143571429D02*
X117954819Y-143571429D01*
X117431009Y-143571429D02*
X117335771Y-143523810D01*
X117335771Y-143523810D02*
X117288152Y-143428572D01*
X117288152Y-143428572D02*
X117288152Y-143285715D01*
X117288152Y-143285715D02*
X117335771Y-143190476D01*
X117335771Y-143190476D02*
X117431009Y-143142857D01*
X117431009Y-143142857D02*
X117954819Y-143142857D01*
X117288152Y-142238096D02*
X117954819Y-142238096D01*
X117288152Y-142666667D02*
X117811961Y-142666667D01*
X117811961Y-142666667D02*
X117907200Y-142619048D01*
X117907200Y-142619048D02*
X117954819Y-142523810D01*
X117954819Y-142523810D02*
X117954819Y-142380953D01*
X117954819Y-142380953D02*
X117907200Y-142285715D01*
X117907200Y-142285715D02*
X117859580Y-142238096D01*
X117907200Y-141809524D02*
X117954819Y-141714286D01*
X117954819Y-141714286D02*
X117954819Y-141523810D01*
X117954819Y-141523810D02*
X117907200Y-141428572D01*
X117907200Y-141428572D02*
X117811961Y-141380953D01*
X117811961Y-141380953D02*
X117764342Y-141380953D01*
X117764342Y-141380953D02*
X117669104Y-141428572D01*
X117669104Y-141428572D02*
X117621485Y-141523810D01*
X117621485Y-141523810D02*
X117621485Y-141666667D01*
X117621485Y-141666667D02*
X117573866Y-141761905D01*
X117573866Y-141761905D02*
X117478628Y-141809524D01*
X117478628Y-141809524D02*
X117431009Y-141809524D01*
X117431009Y-141809524D02*
X117335771Y-141761905D01*
X117335771Y-141761905D02*
X117288152Y-141666667D01*
X117288152Y-141666667D02*
X117288152Y-141523810D01*
X117288152Y-141523810D02*
X117335771Y-141428572D01*
X117954819Y-140952381D02*
X117288152Y-140952381D01*
X116954819Y-140952381D02*
X117002438Y-141000000D01*
X117002438Y-141000000D02*
X117050057Y-140952381D01*
X117050057Y-140952381D02*
X117002438Y-140904762D01*
X117002438Y-140904762D02*
X116954819Y-140952381D01*
X116954819Y-140952381D02*
X117050057Y-140952381D01*
X117907200Y-140047620D02*
X117954819Y-140142858D01*
X117954819Y-140142858D02*
X117954819Y-140333334D01*
X117954819Y-140333334D02*
X117907200Y-140428572D01*
X117907200Y-140428572D02*
X117859580Y-140476191D01*
X117859580Y-140476191D02*
X117764342Y-140523810D01*
X117764342Y-140523810D02*
X117478628Y-140523810D01*
X117478628Y-140523810D02*
X117383390Y-140476191D01*
X117383390Y-140476191D02*
X117335771Y-140428572D01*
X117335771Y-140428572D02*
X117288152Y-140333334D01*
X117288152Y-140333334D02*
X117288152Y-140142858D01*
X117288152Y-140142858D02*
X117335771Y-140047620D01*
X117954819Y-139619048D02*
X116954819Y-139619048D01*
X117335771Y-139619048D02*
X117288152Y-139523810D01*
X117288152Y-139523810D02*
X117288152Y-139333334D01*
X117288152Y-139333334D02*
X117335771Y-139238096D01*
X117335771Y-139238096D02*
X117383390Y-139190477D01*
X117383390Y-139190477D02*
X117478628Y-139142858D01*
X117478628Y-139142858D02*
X117764342Y-139142858D01*
X117764342Y-139142858D02*
X117859580Y-139190477D01*
X117859580Y-139190477D02*
X117907200Y-139238096D01*
X117907200Y-139238096D02*
X117954819Y-139333334D01*
X117954819Y-139333334D02*
X117954819Y-139523810D01*
X117954819Y-139523810D02*
X117907200Y-139619048D01*
X117954819Y-138714286D02*
X117288152Y-138714286D01*
X117478628Y-138714286D02*
X117383390Y-138666667D01*
X117383390Y-138666667D02*
X117335771Y-138619048D01*
X117335771Y-138619048D02*
X117288152Y-138523810D01*
X117288152Y-138523810D02*
X117288152Y-138428572D01*
X117954819Y-137666667D02*
X117431009Y-137666667D01*
X117431009Y-137666667D02*
X117335771Y-137714286D01*
X117335771Y-137714286D02*
X117288152Y-137809524D01*
X117288152Y-137809524D02*
X117288152Y-138000000D01*
X117288152Y-138000000D02*
X117335771Y-138095238D01*
X117907200Y-137666667D02*
X117954819Y-137761905D01*
X117954819Y-137761905D02*
X117954819Y-138000000D01*
X117954819Y-138000000D02*
X117907200Y-138095238D01*
X117907200Y-138095238D02*
X117811961Y-138142857D01*
X117811961Y-138142857D02*
X117716723Y-138142857D01*
X117716723Y-138142857D02*
X117621485Y-138095238D01*
X117621485Y-138095238D02*
X117573866Y-138000000D01*
X117573866Y-138000000D02*
X117573866Y-137761905D01*
X117573866Y-137761905D02*
X117526247Y-137666667D01*
X117954819Y-137190476D02*
X117288152Y-137190476D01*
X116954819Y-137190476D02*
X117002438Y-137238095D01*
X117002438Y-137238095D02*
X117050057Y-137190476D01*
X117050057Y-137190476D02*
X117002438Y-137142857D01*
X117002438Y-137142857D02*
X116954819Y-137190476D01*
X116954819Y-137190476D02*
X117050057Y-137190476D01*
X117288152Y-136714286D02*
X117954819Y-136714286D01*
X117383390Y-136714286D02*
X117335771Y-136666667D01*
X117335771Y-136666667D02*
X117288152Y-136571429D01*
X117288152Y-136571429D02*
X117288152Y-136428572D01*
X117288152Y-136428572D02*
X117335771Y-136333334D01*
X117335771Y-136333334D02*
X117431009Y-136285715D01*
X117431009Y-136285715D02*
X117954819Y-136285715D01*
X117859580Y-135809524D02*
X117907200Y-135761905D01*
X117907200Y-135761905D02*
X117954819Y-135809524D01*
X117954819Y-135809524D02*
X117907200Y-135857143D01*
X117907200Y-135857143D02*
X117859580Y-135809524D01*
X117859580Y-135809524D02*
X117954819Y-135809524D01*
X117288152Y-135333334D02*
X117954819Y-135333334D01*
X117383390Y-135333334D02*
X117335771Y-135285715D01*
X117335771Y-135285715D02*
X117288152Y-135190477D01*
X117288152Y-135190477D02*
X117288152Y-135047620D01*
X117288152Y-135047620D02*
X117335771Y-134952382D01*
X117335771Y-134952382D02*
X117431009Y-134904763D01*
X117431009Y-134904763D02*
X117954819Y-134904763D01*
X117954819Y-134285715D02*
X117907200Y-134380953D01*
X117907200Y-134380953D02*
X117811961Y-134428572D01*
X117811961Y-134428572D02*
X116954819Y-134428572D01*
X116907200Y-133190477D02*
X118192914Y-134047619D01*
X117954819Y-132857143D02*
X116954819Y-132857143D01*
X117954819Y-132428572D02*
X117431009Y-132428572D01*
X117431009Y-132428572D02*
X117335771Y-132476191D01*
X117335771Y-132476191D02*
X117288152Y-132571429D01*
X117288152Y-132571429D02*
X117288152Y-132714286D01*
X117288152Y-132714286D02*
X117335771Y-132809524D01*
X117335771Y-132809524D02*
X117383390Y-132857143D01*
X117288152Y-132047619D02*
X117954819Y-131857143D01*
X117954819Y-131857143D02*
X117478628Y-131666667D01*
X117478628Y-131666667D02*
X117954819Y-131476191D01*
X117954819Y-131476191D02*
X117288152Y-131285715D01*
X116907200Y-130190477D02*
X118192914Y-131047619D01*
X117288152Y-129428572D02*
X118097676Y-129428572D01*
X118097676Y-129428572D02*
X118192914Y-129476191D01*
X118192914Y-129476191D02*
X118240533Y-129523810D01*
X118240533Y-129523810D02*
X118288152Y-129619048D01*
X118288152Y-129619048D02*
X118288152Y-129761905D01*
X118288152Y-129761905D02*
X118240533Y-129857143D01*
X117907200Y-129428572D02*
X117954819Y-129523810D01*
X117954819Y-129523810D02*
X117954819Y-129714286D01*
X117954819Y-129714286D02*
X117907200Y-129809524D01*
X117907200Y-129809524D02*
X117859580Y-129857143D01*
X117859580Y-129857143D02*
X117764342Y-129904762D01*
X117764342Y-129904762D02*
X117478628Y-129904762D01*
X117478628Y-129904762D02*
X117383390Y-129857143D01*
X117383390Y-129857143D02*
X117335771Y-129809524D01*
X117335771Y-129809524D02*
X117288152Y-129714286D01*
X117288152Y-129714286D02*
X117288152Y-129523810D01*
X117288152Y-129523810D02*
X117335771Y-129428572D01*
X117954819Y-128523810D02*
X117431009Y-128523810D01*
X117431009Y-128523810D02*
X117335771Y-128571429D01*
X117335771Y-128571429D02*
X117288152Y-128666667D01*
X117288152Y-128666667D02*
X117288152Y-128857143D01*
X117288152Y-128857143D02*
X117335771Y-128952381D01*
X117907200Y-128523810D02*
X117954819Y-128619048D01*
X117954819Y-128619048D02*
X117954819Y-128857143D01*
X117954819Y-128857143D02*
X117907200Y-128952381D01*
X117907200Y-128952381D02*
X117811961Y-129000000D01*
X117811961Y-129000000D02*
X117716723Y-129000000D01*
X117716723Y-129000000D02*
X117621485Y-128952381D01*
X117621485Y-128952381D02*
X117573866Y-128857143D01*
X117573866Y-128857143D02*
X117573866Y-128619048D01*
X117573866Y-128619048D02*
X117526247Y-128523810D01*
X117288152Y-128190476D02*
X117288152Y-127809524D01*
X116954819Y-128047619D02*
X117811961Y-128047619D01*
X117811961Y-128047619D02*
X117907200Y-128000000D01*
X117907200Y-128000000D02*
X117954819Y-127904762D01*
X117954819Y-127904762D02*
X117954819Y-127809524D01*
X117907200Y-127095238D02*
X117954819Y-127190476D01*
X117954819Y-127190476D02*
X117954819Y-127380952D01*
X117954819Y-127380952D02*
X117907200Y-127476190D01*
X117907200Y-127476190D02*
X117811961Y-127523809D01*
X117811961Y-127523809D02*
X117431009Y-127523809D01*
X117431009Y-127523809D02*
X117335771Y-127476190D01*
X117335771Y-127476190D02*
X117288152Y-127380952D01*
X117288152Y-127380952D02*
X117288152Y-127190476D01*
X117288152Y-127190476D02*
X117335771Y-127095238D01*
X117335771Y-127095238D02*
X117431009Y-127047619D01*
X117431009Y-127047619D02*
X117526247Y-127047619D01*
X117526247Y-127047619D02*
X117621485Y-127523809D01*
X117383390Y-126476190D02*
X117335771Y-126571428D01*
X117335771Y-126571428D02*
X117288152Y-126619047D01*
X117288152Y-126619047D02*
X117192914Y-126666666D01*
X117192914Y-126666666D02*
X117145295Y-126666666D01*
X117145295Y-126666666D02*
X117050057Y-126619047D01*
X117050057Y-126619047D02*
X117002438Y-126571428D01*
X117002438Y-126571428D02*
X116954819Y-126476190D01*
X116954819Y-126476190D02*
X116954819Y-126285714D01*
X116954819Y-126285714D02*
X117002438Y-126190476D01*
X117002438Y-126190476D02*
X117050057Y-126142857D01*
X117050057Y-126142857D02*
X117145295Y-126095238D01*
X117145295Y-126095238D02*
X117192914Y-126095238D01*
X117192914Y-126095238D02*
X117288152Y-126142857D01*
X117288152Y-126142857D02*
X117335771Y-126190476D01*
X117335771Y-126190476D02*
X117383390Y-126285714D01*
X117383390Y-126285714D02*
X117383390Y-126476190D01*
X117383390Y-126476190D02*
X117431009Y-126571428D01*
X117431009Y-126571428D02*
X117478628Y-126619047D01*
X117478628Y-126619047D02*
X117573866Y-126666666D01*
X117573866Y-126666666D02*
X117764342Y-126666666D01*
X117764342Y-126666666D02*
X117859580Y-126619047D01*
X117859580Y-126619047D02*
X117907200Y-126571428D01*
X117907200Y-126571428D02*
X117954819Y-126476190D01*
X117954819Y-126476190D02*
X117954819Y-126285714D01*
X117954819Y-126285714D02*
X117907200Y-126190476D01*
X117907200Y-126190476D02*
X117859580Y-126142857D01*
X117859580Y-126142857D02*
X117764342Y-126095238D01*
X117764342Y-126095238D02*
X117573866Y-126095238D01*
X117573866Y-126095238D02*
X117478628Y-126142857D01*
X117478628Y-126142857D02*
X117431009Y-126190476D01*
X117431009Y-126190476D02*
X117383390Y-126285714D01*
X117954819Y-124904761D02*
X117288152Y-124904761D01*
X117478628Y-124904761D02*
X117383390Y-124857142D01*
X117383390Y-124857142D02*
X117335771Y-124809523D01*
X117335771Y-124809523D02*
X117288152Y-124714285D01*
X117288152Y-124714285D02*
X117288152Y-124619047D01*
X117907200Y-123904761D02*
X117954819Y-123999999D01*
X117954819Y-123999999D02*
X117954819Y-124190475D01*
X117954819Y-124190475D02*
X117907200Y-124285713D01*
X117907200Y-124285713D02*
X117811961Y-124333332D01*
X117811961Y-124333332D02*
X117431009Y-124333332D01*
X117431009Y-124333332D02*
X117335771Y-124285713D01*
X117335771Y-124285713D02*
X117288152Y-124190475D01*
X117288152Y-124190475D02*
X117288152Y-123999999D01*
X117288152Y-123999999D02*
X117335771Y-123904761D01*
X117335771Y-123904761D02*
X117431009Y-123857142D01*
X117431009Y-123857142D02*
X117526247Y-123857142D01*
X117526247Y-123857142D02*
X117621485Y-124333332D01*
X117288152Y-123523808D02*
X117954819Y-123285713D01*
X117954819Y-123285713D02*
X117288152Y-123047618D01*
X117954819Y-121380951D02*
X117954819Y-121952379D01*
X117954819Y-121666665D02*
X116954819Y-121666665D01*
X116954819Y-121666665D02*
X117097676Y-121761903D01*
X117097676Y-121761903D02*
X117192914Y-121857141D01*
X117192914Y-121857141D02*
X117240533Y-121952379D01*
X117859580Y-120952379D02*
X117907200Y-120904760D01*
X117907200Y-120904760D02*
X117954819Y-120952379D01*
X117954819Y-120952379D02*
X117907200Y-120999998D01*
X117907200Y-120999998D02*
X117859580Y-120952379D01*
X117859580Y-120952379D02*
X117954819Y-120952379D01*
X117954819Y-119952380D02*
X117954819Y-120523808D01*
X117954819Y-120238094D02*
X116954819Y-120238094D01*
X116954819Y-120238094D02*
X117097676Y-120333332D01*
X117097676Y-120333332D02*
X117192914Y-120428570D01*
X117192914Y-120428570D02*
X117240533Y-120523808D01*
X130866666Y-178529819D02*
X130866666Y-179244104D01*
X130866666Y-179244104D02*
X130819047Y-179386961D01*
X130819047Y-179386961D02*
X130723809Y-179482200D01*
X130723809Y-179482200D02*
X130580952Y-179529819D01*
X130580952Y-179529819D02*
X130485714Y-179529819D01*
X131866666Y-179529819D02*
X131295238Y-179529819D01*
X131580952Y-179529819D02*
X131580952Y-178529819D01*
X131580952Y-178529819D02*
X131485714Y-178672676D01*
X131485714Y-178672676D02*
X131390476Y-178767914D01*
X131390476Y-178767914D02*
X131295238Y-178815533D01*
X103466666Y-101649819D02*
X103466666Y-102364104D01*
X103466666Y-102364104D02*
X103419047Y-102506961D01*
X103419047Y-102506961D02*
X103323809Y-102602200D01*
X103323809Y-102602200D02*
X103180952Y-102649819D01*
X103180952Y-102649819D02*
X103085714Y-102649819D01*
X103895238Y-101745057D02*
X103942857Y-101697438D01*
X103942857Y-101697438D02*
X104038095Y-101649819D01*
X104038095Y-101649819D02*
X104276190Y-101649819D01*
X104276190Y-101649819D02*
X104371428Y-101697438D01*
X104371428Y-101697438D02*
X104419047Y-101745057D01*
X104419047Y-101745057D02*
X104466666Y-101840295D01*
X104466666Y-101840295D02*
X104466666Y-101935533D01*
X104466666Y-101935533D02*
X104419047Y-102078390D01*
X104419047Y-102078390D02*
X103847619Y-102649819D01*
X103847619Y-102649819D02*
X104466666Y-102649819D01*
X109738095Y-143554819D02*
X109738095Y-144364342D01*
X109738095Y-144364342D02*
X109785714Y-144459580D01*
X109785714Y-144459580D02*
X109833333Y-144507200D01*
X109833333Y-144507200D02*
X109928571Y-144554819D01*
X109928571Y-144554819D02*
X110119047Y-144554819D01*
X110119047Y-144554819D02*
X110214285Y-144507200D01*
X110214285Y-144507200D02*
X110261904Y-144459580D01*
X110261904Y-144459580D02*
X110309523Y-144364342D01*
X110309523Y-144364342D02*
X110309523Y-143554819D01*
X111309523Y-144554819D02*
X110738095Y-144554819D01*
X111023809Y-144554819D02*
X111023809Y-143554819D01*
X111023809Y-143554819D02*
X110928571Y-143697676D01*
X110928571Y-143697676D02*
X110833333Y-143792914D01*
X110833333Y-143792914D02*
X110738095Y-143840533D01*
X125238095Y-157954819D02*
X125238095Y-158764342D01*
X125238095Y-158764342D02*
X125285714Y-158859580D01*
X125285714Y-158859580D02*
X125333333Y-158907200D01*
X125333333Y-158907200D02*
X125428571Y-158954819D01*
X125428571Y-158954819D02*
X125619047Y-158954819D01*
X125619047Y-158954819D02*
X125714285Y-158907200D01*
X125714285Y-158907200D02*
X125761904Y-158859580D01*
X125761904Y-158859580D02*
X125809523Y-158764342D01*
X125809523Y-158764342D02*
X125809523Y-157954819D01*
X126238095Y-158050057D02*
X126285714Y-158002438D01*
X126285714Y-158002438D02*
X126380952Y-157954819D01*
X126380952Y-157954819D02*
X126619047Y-157954819D01*
X126619047Y-157954819D02*
X126714285Y-158002438D01*
X126714285Y-158002438D02*
X126761904Y-158050057D01*
X126761904Y-158050057D02*
X126809523Y-158145295D01*
X126809523Y-158145295D02*
X126809523Y-158240533D01*
X126809523Y-158240533D02*
X126761904Y-158383390D01*
X126761904Y-158383390D02*
X126190476Y-158954819D01*
X126190476Y-158954819D02*
X126809523Y-158954819D01*
X131453333Y-171359580D02*
X131405714Y-171407200D01*
X131405714Y-171407200D02*
X131262857Y-171454819D01*
X131262857Y-171454819D02*
X131167619Y-171454819D01*
X131167619Y-171454819D02*
X131024762Y-171407200D01*
X131024762Y-171407200D02*
X130929524Y-171311961D01*
X130929524Y-171311961D02*
X130881905Y-171216723D01*
X130881905Y-171216723D02*
X130834286Y-171026247D01*
X130834286Y-171026247D02*
X130834286Y-170883390D01*
X130834286Y-170883390D02*
X130881905Y-170692914D01*
X130881905Y-170692914D02*
X130929524Y-170597676D01*
X130929524Y-170597676D02*
X131024762Y-170502438D01*
X131024762Y-170502438D02*
X131167619Y-170454819D01*
X131167619Y-170454819D02*
X131262857Y-170454819D01*
X131262857Y-170454819D02*
X131405714Y-170502438D01*
X131405714Y-170502438D02*
X131453333Y-170550057D01*
X132405714Y-171454819D02*
X131834286Y-171454819D01*
X132120000Y-171454819D02*
X132120000Y-170454819D01*
X132120000Y-170454819D02*
X132024762Y-170597676D01*
X132024762Y-170597676D02*
X131929524Y-170692914D01*
X131929524Y-170692914D02*
X131834286Y-170740533D01*
X109333333Y-163559580D02*
X109285714Y-163607200D01*
X109285714Y-163607200D02*
X109142857Y-163654819D01*
X109142857Y-163654819D02*
X109047619Y-163654819D01*
X109047619Y-163654819D02*
X108904762Y-163607200D01*
X108904762Y-163607200D02*
X108809524Y-163511961D01*
X108809524Y-163511961D02*
X108761905Y-163416723D01*
X108761905Y-163416723D02*
X108714286Y-163226247D01*
X108714286Y-163226247D02*
X108714286Y-163083390D01*
X108714286Y-163083390D02*
X108761905Y-162892914D01*
X108761905Y-162892914D02*
X108809524Y-162797676D01*
X108809524Y-162797676D02*
X108904762Y-162702438D01*
X108904762Y-162702438D02*
X109047619Y-162654819D01*
X109047619Y-162654819D02*
X109142857Y-162654819D01*
X109142857Y-162654819D02*
X109285714Y-162702438D01*
X109285714Y-162702438D02*
X109333333Y-162750057D01*
X109714286Y-162750057D02*
X109761905Y-162702438D01*
X109761905Y-162702438D02*
X109857143Y-162654819D01*
X109857143Y-162654819D02*
X110095238Y-162654819D01*
X110095238Y-162654819D02*
X110190476Y-162702438D01*
X110190476Y-162702438D02*
X110238095Y-162750057D01*
X110238095Y-162750057D02*
X110285714Y-162845295D01*
X110285714Y-162845295D02*
X110285714Y-162940533D01*
X110285714Y-162940533D02*
X110238095Y-163083390D01*
X110238095Y-163083390D02*
X109666667Y-163654819D01*
X109666667Y-163654819D02*
X110285714Y-163654819D01*
X109333333Y-166639580D02*
X109285714Y-166687200D01*
X109285714Y-166687200D02*
X109142857Y-166734819D01*
X109142857Y-166734819D02*
X109047619Y-166734819D01*
X109047619Y-166734819D02*
X108904762Y-166687200D01*
X108904762Y-166687200D02*
X108809524Y-166591961D01*
X108809524Y-166591961D02*
X108761905Y-166496723D01*
X108761905Y-166496723D02*
X108714286Y-166306247D01*
X108714286Y-166306247D02*
X108714286Y-166163390D01*
X108714286Y-166163390D02*
X108761905Y-165972914D01*
X108761905Y-165972914D02*
X108809524Y-165877676D01*
X108809524Y-165877676D02*
X108904762Y-165782438D01*
X108904762Y-165782438D02*
X109047619Y-165734819D01*
X109047619Y-165734819D02*
X109142857Y-165734819D01*
X109142857Y-165734819D02*
X109285714Y-165782438D01*
X109285714Y-165782438D02*
X109333333Y-165830057D01*
X109666667Y-165734819D02*
X110285714Y-165734819D01*
X110285714Y-165734819D02*
X109952381Y-166115771D01*
X109952381Y-166115771D02*
X110095238Y-166115771D01*
X110095238Y-166115771D02*
X110190476Y-166163390D01*
X110190476Y-166163390D02*
X110238095Y-166211009D01*
X110238095Y-166211009D02*
X110285714Y-166306247D01*
X110285714Y-166306247D02*
X110285714Y-166544342D01*
X110285714Y-166544342D02*
X110238095Y-166639580D01*
X110238095Y-166639580D02*
X110190476Y-166687200D01*
X110190476Y-166687200D02*
X110095238Y-166734819D01*
X110095238Y-166734819D02*
X109809524Y-166734819D01*
X109809524Y-166734819D02*
X109714286Y-166687200D01*
X109714286Y-166687200D02*
X109666667Y-166639580D01*
X106793333Y-112454819D02*
X106460000Y-111978628D01*
X106221905Y-112454819D02*
X106221905Y-111454819D01*
X106221905Y-111454819D02*
X106602857Y-111454819D01*
X106602857Y-111454819D02*
X106698095Y-111502438D01*
X106698095Y-111502438D02*
X106745714Y-111550057D01*
X106745714Y-111550057D02*
X106793333Y-111645295D01*
X106793333Y-111645295D02*
X106793333Y-111788152D01*
X106793333Y-111788152D02*
X106745714Y-111883390D01*
X106745714Y-111883390D02*
X106698095Y-111931009D01*
X106698095Y-111931009D02*
X106602857Y-111978628D01*
X106602857Y-111978628D02*
X106221905Y-111978628D01*
X107745714Y-112454819D02*
X107174286Y-112454819D01*
X107460000Y-112454819D02*
X107460000Y-111454819D01*
X107460000Y-111454819D02*
X107364762Y-111597676D01*
X107364762Y-111597676D02*
X107269524Y-111692914D01*
X107269524Y-111692914D02*
X107174286Y-111740533D01*
X109333333Y-112454819D02*
X109000000Y-111978628D01*
X108761905Y-112454819D02*
X108761905Y-111454819D01*
X108761905Y-111454819D02*
X109142857Y-111454819D01*
X109142857Y-111454819D02*
X109238095Y-111502438D01*
X109238095Y-111502438D02*
X109285714Y-111550057D01*
X109285714Y-111550057D02*
X109333333Y-111645295D01*
X109333333Y-111645295D02*
X109333333Y-111788152D01*
X109333333Y-111788152D02*
X109285714Y-111883390D01*
X109285714Y-111883390D02*
X109238095Y-111931009D01*
X109238095Y-111931009D02*
X109142857Y-111978628D01*
X109142857Y-111978628D02*
X108761905Y-111978628D01*
X109714286Y-111550057D02*
X109761905Y-111502438D01*
X109761905Y-111502438D02*
X109857143Y-111454819D01*
X109857143Y-111454819D02*
X110095238Y-111454819D01*
X110095238Y-111454819D02*
X110190476Y-111502438D01*
X110190476Y-111502438D02*
X110238095Y-111550057D01*
X110238095Y-111550057D02*
X110285714Y-111645295D01*
X110285714Y-111645295D02*
X110285714Y-111740533D01*
X110285714Y-111740533D02*
X110238095Y-111883390D01*
X110238095Y-111883390D02*
X109666667Y-112454819D01*
X109666667Y-112454819D02*
X110285714Y-112454819D01*
X111873333Y-112454819D02*
X111540000Y-111978628D01*
X111301905Y-112454819D02*
X111301905Y-111454819D01*
X111301905Y-111454819D02*
X111682857Y-111454819D01*
X111682857Y-111454819D02*
X111778095Y-111502438D01*
X111778095Y-111502438D02*
X111825714Y-111550057D01*
X111825714Y-111550057D02*
X111873333Y-111645295D01*
X111873333Y-111645295D02*
X111873333Y-111788152D01*
X111873333Y-111788152D02*
X111825714Y-111883390D01*
X111825714Y-111883390D02*
X111778095Y-111931009D01*
X111778095Y-111931009D02*
X111682857Y-111978628D01*
X111682857Y-111978628D02*
X111301905Y-111978628D01*
X112206667Y-111454819D02*
X112825714Y-111454819D01*
X112825714Y-111454819D02*
X112492381Y-111835771D01*
X112492381Y-111835771D02*
X112635238Y-111835771D01*
X112635238Y-111835771D02*
X112730476Y-111883390D01*
X112730476Y-111883390D02*
X112778095Y-111931009D01*
X112778095Y-111931009D02*
X112825714Y-112026247D01*
X112825714Y-112026247D02*
X112825714Y-112264342D01*
X112825714Y-112264342D02*
X112778095Y-112359580D01*
X112778095Y-112359580D02*
X112730476Y-112407200D01*
X112730476Y-112407200D02*
X112635238Y-112454819D01*
X112635238Y-112454819D02*
X112349524Y-112454819D01*
X112349524Y-112454819D02*
X112254286Y-112407200D01*
X112254286Y-112407200D02*
X112206667Y-112359580D01*
X114413333Y-112454819D02*
X114080000Y-111978628D01*
X113841905Y-112454819D02*
X113841905Y-111454819D01*
X113841905Y-111454819D02*
X114222857Y-111454819D01*
X114222857Y-111454819D02*
X114318095Y-111502438D01*
X114318095Y-111502438D02*
X114365714Y-111550057D01*
X114365714Y-111550057D02*
X114413333Y-111645295D01*
X114413333Y-111645295D02*
X114413333Y-111788152D01*
X114413333Y-111788152D02*
X114365714Y-111883390D01*
X114365714Y-111883390D02*
X114318095Y-111931009D01*
X114318095Y-111931009D02*
X114222857Y-111978628D01*
X114222857Y-111978628D02*
X113841905Y-111978628D01*
X115270476Y-111788152D02*
X115270476Y-112454819D01*
X115032381Y-111407200D02*
X114794286Y-112121485D01*
X114794286Y-112121485D02*
X115413333Y-112121485D01*
X116953333Y-112454819D02*
X116620000Y-111978628D01*
X116381905Y-112454819D02*
X116381905Y-111454819D01*
X116381905Y-111454819D02*
X116762857Y-111454819D01*
X116762857Y-111454819D02*
X116858095Y-111502438D01*
X116858095Y-111502438D02*
X116905714Y-111550057D01*
X116905714Y-111550057D02*
X116953333Y-111645295D01*
X116953333Y-111645295D02*
X116953333Y-111788152D01*
X116953333Y-111788152D02*
X116905714Y-111883390D01*
X116905714Y-111883390D02*
X116858095Y-111931009D01*
X116858095Y-111931009D02*
X116762857Y-111978628D01*
X116762857Y-111978628D02*
X116381905Y-111978628D01*
X117858095Y-111454819D02*
X117381905Y-111454819D01*
X117381905Y-111454819D02*
X117334286Y-111931009D01*
X117334286Y-111931009D02*
X117381905Y-111883390D01*
X117381905Y-111883390D02*
X117477143Y-111835771D01*
X117477143Y-111835771D02*
X117715238Y-111835771D01*
X117715238Y-111835771D02*
X117810476Y-111883390D01*
X117810476Y-111883390D02*
X117858095Y-111931009D01*
X117858095Y-111931009D02*
X117905714Y-112026247D01*
X117905714Y-112026247D02*
X117905714Y-112264342D01*
X117905714Y-112264342D02*
X117858095Y-112359580D01*
X117858095Y-112359580D02*
X117810476Y-112407200D01*
X117810476Y-112407200D02*
X117715238Y-112454819D01*
X117715238Y-112454819D02*
X117477143Y-112454819D01*
X117477143Y-112454819D02*
X117381905Y-112407200D01*
X117381905Y-112407200D02*
X117334286Y-112359580D01*
X119493333Y-112454819D02*
X119160000Y-111978628D01*
X118921905Y-112454819D02*
X118921905Y-111454819D01*
X118921905Y-111454819D02*
X119302857Y-111454819D01*
X119302857Y-111454819D02*
X119398095Y-111502438D01*
X119398095Y-111502438D02*
X119445714Y-111550057D01*
X119445714Y-111550057D02*
X119493333Y-111645295D01*
X119493333Y-111645295D02*
X119493333Y-111788152D01*
X119493333Y-111788152D02*
X119445714Y-111883390D01*
X119445714Y-111883390D02*
X119398095Y-111931009D01*
X119398095Y-111931009D02*
X119302857Y-111978628D01*
X119302857Y-111978628D02*
X118921905Y-111978628D01*
X120350476Y-111454819D02*
X120160000Y-111454819D01*
X120160000Y-111454819D02*
X120064762Y-111502438D01*
X120064762Y-111502438D02*
X120017143Y-111550057D01*
X120017143Y-111550057D02*
X119921905Y-111692914D01*
X119921905Y-111692914D02*
X119874286Y-111883390D01*
X119874286Y-111883390D02*
X119874286Y-112264342D01*
X119874286Y-112264342D02*
X119921905Y-112359580D01*
X119921905Y-112359580D02*
X119969524Y-112407200D01*
X119969524Y-112407200D02*
X120064762Y-112454819D01*
X120064762Y-112454819D02*
X120255238Y-112454819D01*
X120255238Y-112454819D02*
X120350476Y-112407200D01*
X120350476Y-112407200D02*
X120398095Y-112359580D01*
X120398095Y-112359580D02*
X120445714Y-112264342D01*
X120445714Y-112264342D02*
X120445714Y-112026247D01*
X120445714Y-112026247D02*
X120398095Y-111931009D01*
X120398095Y-111931009D02*
X120350476Y-111883390D01*
X120350476Y-111883390D02*
X120255238Y-111835771D01*
X120255238Y-111835771D02*
X120064762Y-111835771D01*
X120064762Y-111835771D02*
X119969524Y-111883390D01*
X119969524Y-111883390D02*
X119921905Y-111931009D01*
X119921905Y-111931009D02*
X119874286Y-112026247D01*
X122033333Y-112454819D02*
X121700000Y-111978628D01*
X121461905Y-112454819D02*
X121461905Y-111454819D01*
X121461905Y-111454819D02*
X121842857Y-111454819D01*
X121842857Y-111454819D02*
X121938095Y-111502438D01*
X121938095Y-111502438D02*
X121985714Y-111550057D01*
X121985714Y-111550057D02*
X122033333Y-111645295D01*
X122033333Y-111645295D02*
X122033333Y-111788152D01*
X122033333Y-111788152D02*
X121985714Y-111883390D01*
X121985714Y-111883390D02*
X121938095Y-111931009D01*
X121938095Y-111931009D02*
X121842857Y-111978628D01*
X121842857Y-111978628D02*
X121461905Y-111978628D01*
X122366667Y-111454819D02*
X123033333Y-111454819D01*
X123033333Y-111454819D02*
X122604762Y-112454819D01*
X124573333Y-112454819D02*
X124240000Y-111978628D01*
X124001905Y-112454819D02*
X124001905Y-111454819D01*
X124001905Y-111454819D02*
X124382857Y-111454819D01*
X124382857Y-111454819D02*
X124478095Y-111502438D01*
X124478095Y-111502438D02*
X124525714Y-111550057D01*
X124525714Y-111550057D02*
X124573333Y-111645295D01*
X124573333Y-111645295D02*
X124573333Y-111788152D01*
X124573333Y-111788152D02*
X124525714Y-111883390D01*
X124525714Y-111883390D02*
X124478095Y-111931009D01*
X124478095Y-111931009D02*
X124382857Y-111978628D01*
X124382857Y-111978628D02*
X124001905Y-111978628D01*
X125144762Y-111883390D02*
X125049524Y-111835771D01*
X125049524Y-111835771D02*
X125001905Y-111788152D01*
X125001905Y-111788152D02*
X124954286Y-111692914D01*
X124954286Y-111692914D02*
X124954286Y-111645295D01*
X124954286Y-111645295D02*
X125001905Y-111550057D01*
X125001905Y-111550057D02*
X125049524Y-111502438D01*
X125049524Y-111502438D02*
X125144762Y-111454819D01*
X125144762Y-111454819D02*
X125335238Y-111454819D01*
X125335238Y-111454819D02*
X125430476Y-111502438D01*
X125430476Y-111502438D02*
X125478095Y-111550057D01*
X125478095Y-111550057D02*
X125525714Y-111645295D01*
X125525714Y-111645295D02*
X125525714Y-111692914D01*
X125525714Y-111692914D02*
X125478095Y-111788152D01*
X125478095Y-111788152D02*
X125430476Y-111835771D01*
X125430476Y-111835771D02*
X125335238Y-111883390D01*
X125335238Y-111883390D02*
X125144762Y-111883390D01*
X125144762Y-111883390D02*
X125049524Y-111931009D01*
X125049524Y-111931009D02*
X125001905Y-111978628D01*
X125001905Y-111978628D02*
X124954286Y-112073866D01*
X124954286Y-112073866D02*
X124954286Y-112264342D01*
X124954286Y-112264342D02*
X125001905Y-112359580D01*
X125001905Y-112359580D02*
X125049524Y-112407200D01*
X125049524Y-112407200D02*
X125144762Y-112454819D01*
X125144762Y-112454819D02*
X125335238Y-112454819D01*
X125335238Y-112454819D02*
X125430476Y-112407200D01*
X125430476Y-112407200D02*
X125478095Y-112359580D01*
X125478095Y-112359580D02*
X125525714Y-112264342D01*
X125525714Y-112264342D02*
X125525714Y-112073866D01*
X125525714Y-112073866D02*
X125478095Y-111978628D01*
X125478095Y-111978628D02*
X125430476Y-111931009D01*
X125430476Y-111931009D02*
X125335238Y-111883390D01*
%TO.C,J1*%
D11*
X130200000Y-172150000D02*
X130200000Y-173420000D01*
X128930000Y-172150000D02*
X130200000Y-172150000D01*
X126820000Y-174497358D02*
X126820000Y-174882642D01*
X125960000Y-174497358D02*
X125960000Y-174882642D01*
X124280000Y-174497358D02*
X124280000Y-174882642D01*
X123420000Y-174497358D02*
X123420000Y-174882642D01*
X121740000Y-174497358D02*
X121740000Y-174882642D01*
X120880000Y-174497358D02*
X120880000Y-174882642D01*
X119200000Y-174497358D02*
X119200000Y-174882642D01*
X118340000Y-174497358D02*
X118340000Y-174882642D01*
X116660000Y-174497358D02*
X116660000Y-174882642D01*
X115800000Y-174497358D02*
X115800000Y-174882642D01*
X114120000Y-174497358D02*
X114120000Y-174882642D01*
X113260000Y-174497358D02*
X113260000Y-174882642D01*
X111580000Y-174497358D02*
X111580000Y-174882642D01*
X110720000Y-174497358D02*
X110720000Y-174882642D01*
X109040000Y-174497358D02*
X109040000Y-174882642D01*
X108180000Y-174497358D02*
X108180000Y-174882642D01*
X106500000Y-174497358D02*
X106500000Y-174882642D01*
X105640000Y-174497358D02*
X105640000Y-174882642D01*
X129360000Y-174580000D02*
X129360000Y-174882642D01*
X128500000Y-174580000D02*
X128500000Y-174882642D01*
X129360000Y-177037358D02*
X129360000Y-177350000D01*
X128500000Y-177037358D02*
X128500000Y-177350000D01*
X126820000Y-177037358D02*
X126820000Y-177350000D01*
X125960000Y-177037358D02*
X125960000Y-177350000D01*
X124280000Y-177037358D02*
X124280000Y-177350000D01*
X123420000Y-177037358D02*
X123420000Y-177350000D01*
X121740000Y-177037358D02*
X121740000Y-177350000D01*
X120880000Y-177037358D02*
X120880000Y-177350000D01*
X119200000Y-177037358D02*
X119200000Y-177350000D01*
X118340000Y-177037358D02*
X118340000Y-177350000D01*
X116660000Y-177037358D02*
X116660000Y-177350000D01*
X115800000Y-177037358D02*
X115800000Y-177350000D01*
X114120000Y-177037358D02*
X114120000Y-177350000D01*
X113260000Y-177037358D02*
X113260000Y-177350000D01*
X111580000Y-177037358D02*
X111580000Y-177350000D01*
X110720000Y-177037358D02*
X110720000Y-177350000D01*
X109040000Y-177037358D02*
X109040000Y-177350000D01*
X108180000Y-177037358D02*
X108180000Y-177350000D01*
X106500000Y-177037358D02*
X106500000Y-177350000D01*
X105640000Y-177037358D02*
X105640000Y-177350000D01*
X127660000Y-177350000D02*
X127660000Y-180110000D01*
X125120000Y-177350000D02*
X125120000Y-180110000D01*
X122580000Y-177350000D02*
X122580000Y-180110000D01*
X120040000Y-177350000D02*
X120040000Y-180110000D01*
X117500000Y-177350000D02*
X117500000Y-180110000D01*
X114960000Y-177350000D02*
X114960000Y-180110000D01*
X112420000Y-177350000D02*
X112420000Y-180110000D01*
X109880000Y-177350000D02*
X109880000Y-180110000D01*
X107340000Y-177350000D02*
X107340000Y-180110000D01*
X126820000Y-180110000D02*
X126820000Y-186110000D01*
X124280000Y-180110000D02*
X124280000Y-186110000D01*
X121740000Y-180110000D02*
X121740000Y-186110000D01*
X119200000Y-180110000D02*
X119200000Y-186110000D01*
X116660000Y-180110000D02*
X116660000Y-186110000D01*
X114120000Y-180110000D02*
X114120000Y-186110000D01*
X111580000Y-180110000D02*
X111580000Y-186110000D01*
X109040000Y-180110000D02*
X109040000Y-186110000D01*
X106500000Y-180110000D02*
X106500000Y-186110000D01*
X126820000Y-186110000D02*
X125960000Y-186110000D01*
X125960000Y-186110000D02*
X125960000Y-180110000D01*
X124280000Y-186110000D02*
X123420000Y-186110000D01*
X123420000Y-186110000D02*
X123420000Y-180110000D01*
X121740000Y-186110000D02*
X120880000Y-186110000D01*
X120880000Y-186110000D02*
X120880000Y-180110000D01*
X119200000Y-186110000D02*
X118340000Y-186110000D01*
X118340000Y-186110000D02*
X118340000Y-180110000D01*
X116660000Y-186110000D02*
X115800000Y-186110000D01*
X115800000Y-186110000D02*
X115800000Y-180110000D01*
X114120000Y-186110000D02*
X113260000Y-186110000D01*
X113260000Y-186110000D02*
X113260000Y-180110000D01*
X111580000Y-186110000D02*
X110720000Y-186110000D01*
X110720000Y-186110000D02*
X110720000Y-180110000D01*
X109040000Y-186110000D02*
X108180000Y-186110000D01*
X108180000Y-186110000D02*
X108180000Y-180110000D01*
X106500000Y-186110000D02*
X105640000Y-186110000D01*
X105640000Y-186110000D02*
X105640000Y-180110000D01*
X104690000Y-177350000D02*
X130310000Y-177350000D01*
X130310000Y-180110000D01*
X104690000Y-180110000D01*
X104690000Y-177350000D01*
X128500000Y-180110000D02*
X129360000Y-180110000D01*
X129360000Y-186110000D01*
X128500000Y-186110000D01*
X128500000Y-180110000D01*
G36*
X128500000Y-180110000D02*
G01*
X129360000Y-180110000D01*
X129360000Y-186110000D01*
X128500000Y-186110000D01*
X128500000Y-180110000D01*
G37*
%TO.C,J2*%
X104800000Y-107850000D02*
X104800000Y-106580000D01*
X106070000Y-107850000D02*
X104800000Y-107850000D01*
X108180000Y-105502642D02*
X108180000Y-105190000D01*
X109040000Y-105502642D02*
X109040000Y-105190000D01*
X110720000Y-105502642D02*
X110720000Y-105190000D01*
X111580000Y-105502642D02*
X111580000Y-105190000D01*
X113260000Y-105502642D02*
X113260000Y-105190000D01*
X114120000Y-105502642D02*
X114120000Y-105190000D01*
X115800000Y-105502642D02*
X115800000Y-105190000D01*
X116660000Y-105502642D02*
X116660000Y-105190000D01*
X118340000Y-105502642D02*
X118340000Y-105190000D01*
X119200000Y-105502642D02*
X119200000Y-105190000D01*
X120880000Y-105502642D02*
X120880000Y-105190000D01*
X121740000Y-105502642D02*
X121740000Y-105190000D01*
X123420000Y-105502642D02*
X123420000Y-105190000D01*
X124280000Y-105502642D02*
X124280000Y-105190000D01*
X125960000Y-105502642D02*
X125960000Y-105190000D01*
X126820000Y-105502642D02*
X126820000Y-105190000D01*
X128500000Y-105502642D02*
X128500000Y-105190000D01*
X129360000Y-105502642D02*
X129360000Y-105190000D01*
X105640000Y-105420000D02*
X105640000Y-105190000D01*
X106500000Y-105420000D02*
X106500000Y-105190000D01*
X107340000Y-105190000D02*
X107340000Y-102430000D01*
X109880000Y-105190000D02*
X109880000Y-102430000D01*
X112420000Y-105190000D02*
X112420000Y-102430000D01*
X114960000Y-105190000D02*
X114960000Y-102430000D01*
X117500000Y-105190000D02*
X117500000Y-102430000D01*
X120040000Y-105190000D02*
X120040000Y-102430000D01*
X122580000Y-105190000D02*
X122580000Y-102430000D01*
X125120000Y-105190000D02*
X125120000Y-102430000D01*
X127660000Y-105190000D02*
X127660000Y-102430000D01*
X108180000Y-102430000D02*
X108180000Y-96430000D01*
X110720000Y-102430000D02*
X110720000Y-96430000D01*
X113260000Y-102430000D02*
X113260000Y-96430000D01*
X115800000Y-102430000D02*
X115800000Y-96430000D01*
X118340000Y-102430000D02*
X118340000Y-96430000D01*
X120880000Y-102430000D02*
X120880000Y-96430000D01*
X123420000Y-102430000D02*
X123420000Y-96430000D01*
X125960000Y-102430000D02*
X125960000Y-96430000D01*
X128500000Y-102430000D02*
X128500000Y-96430000D01*
X108180000Y-96430000D02*
X109040000Y-96430000D01*
X109040000Y-96430000D02*
X109040000Y-102430000D01*
X110720000Y-96430000D02*
X111580000Y-96430000D01*
X111580000Y-96430000D02*
X111580000Y-102430000D01*
X113260000Y-96430000D02*
X114120000Y-96430000D01*
X114120000Y-96430000D02*
X114120000Y-102430000D01*
X115800000Y-96430000D02*
X116660000Y-96430000D01*
X116660000Y-96430000D02*
X116660000Y-102430000D01*
X118340000Y-96430000D02*
X119200000Y-96430000D01*
X119200000Y-96430000D02*
X119200000Y-102430000D01*
X120880000Y-96430000D02*
X121740000Y-96430000D01*
X121740000Y-96430000D02*
X121740000Y-102430000D01*
X123420000Y-96430000D02*
X124280000Y-96430000D01*
X124280000Y-96430000D02*
X124280000Y-102430000D01*
X125960000Y-96430000D02*
X126820000Y-96430000D01*
X126820000Y-96430000D02*
X126820000Y-102430000D01*
X128500000Y-96430000D02*
X129360000Y-96430000D01*
X129360000Y-96430000D02*
X129360000Y-102430000D01*
X104690000Y-102430000D02*
X130310000Y-102430000D01*
X130310000Y-105190000D01*
X104690000Y-105190000D01*
X104690000Y-102430000D01*
X105640000Y-96430000D02*
X106500000Y-96430000D01*
X106500000Y-102430000D01*
X105640000Y-102430000D01*
X105640000Y-96430000D01*
G36*
X105640000Y-96430000D02*
G01*
X106500000Y-96430000D01*
X106500000Y-102430000D01*
X105640000Y-102430000D01*
X105640000Y-96430000D01*
G37*
%TO.C,U1*%
X108440000Y-144940000D02*
X112560000Y-144940000D01*
X108440000Y-144995000D02*
X108440000Y-144940000D01*
X108440000Y-155060000D02*
X108440000Y-155005000D01*
X112560000Y-144940000D02*
X112560000Y-144995000D01*
X112560000Y-155005000D02*
X112560000Y-155060000D01*
X112560000Y-155060000D02*
X108440000Y-155060000D01*
X107900000Y-144990000D02*
X107660000Y-144660000D01*
X108140000Y-144660000D01*
X107900000Y-144990000D01*
G36*
X107900000Y-144990000D02*
G01*
X107660000Y-144660000D01*
X108140000Y-144660000D01*
X107900000Y-144990000D01*
G37*
%TO.C,U2*%
X124150000Y-159590000D02*
X127910000Y-159590000D01*
X124150000Y-166410000D02*
X127910000Y-166410000D01*
X127910000Y-159590000D02*
X127910000Y-160850000D01*
X127910000Y-166410000D02*
X127910000Y-165150000D01*
X122870000Y-159690000D02*
X122630000Y-159360000D01*
X123110000Y-159360000D01*
X122870000Y-159690000D01*
G36*
X122870000Y-159690000D02*
G01*
X122630000Y-159360000D01*
X123110000Y-159360000D01*
X122870000Y-159690000D01*
G37*
%TO.C,C1*%
X132565000Y-171261252D02*
X132565000Y-170738748D01*
X134035000Y-171261252D02*
X134035000Y-170738748D01*
%TO.C,C2*%
X112500000Y-161560000D02*
X112000000Y-161560000D01*
X112250000Y-161810000D02*
X112250000Y-161310000D01*
X111760000Y-161195563D02*
X111760000Y-161060000D01*
X111760000Y-161195563D02*
X110695563Y-162260000D01*
X111760000Y-158804437D02*
X111760000Y-158940000D01*
X111760000Y-158804437D02*
X110695563Y-157740000D01*
X110695563Y-162260000D02*
X107240000Y-162260000D01*
X110695563Y-157740000D02*
X107240000Y-157740000D01*
X107240000Y-162260000D02*
X107240000Y-161060000D01*
X107240000Y-157740000D02*
X107240000Y-158940000D01*
%TO.C,C3*%
X109761252Y-165335000D02*
X109238748Y-165335000D01*
X109761252Y-163865000D02*
X109238748Y-163865000D01*
%TO.C,R1*%
X107875000Y-112227064D02*
X107875000Y-111772936D01*
X109345000Y-112227064D02*
X109345000Y-111772936D01*
%TO.C,R2*%
X110415000Y-112227064D02*
X110415000Y-111772936D01*
X111885000Y-112227064D02*
X111885000Y-111772936D01*
%TO.C,R3*%
X112955000Y-112227064D02*
X112955000Y-111772936D01*
X114425000Y-112227064D02*
X114425000Y-111772936D01*
%TO.C,R4*%
X115495000Y-112227064D02*
X115495000Y-111772936D01*
X116965000Y-112227064D02*
X116965000Y-111772936D01*
%TO.C,R5*%
X118035000Y-112227064D02*
X118035000Y-111772936D01*
X119505000Y-112227064D02*
X119505000Y-111772936D01*
%TO.C,R6*%
X120575000Y-112227064D02*
X120575000Y-111772936D01*
X122045000Y-112227064D02*
X122045000Y-111772936D01*
%TO.C,R7*%
X123115000Y-112227064D02*
X123115000Y-111772936D01*
X124585000Y-112227064D02*
X124585000Y-111772936D01*
%TO.C,R8*%
X125655000Y-112227064D02*
X125655000Y-111772936D01*
X127125000Y-112227064D02*
X127125000Y-111772936D01*
%TD*%
M02*
