M48
; DRILL file KiCad 10.0.3 date 2026-07-08T12:05:22
; FORMAT={-:-/ absolute / metric / decimal}
; #@! TF.CreationDate,2026-07-08T12:05:22+02:00
; #@! TF.GenerationSoftware,Kicad,Pcbnew,10.0.3
; #@! TF.FileFunction,Plated,1,2,PTH
FMAT,2
METRIC
; #@! TA.AperFunction,Plated,PTH,ViaDrill
T1C0.300
; #@! TA.AperFunction,Plated,PTH,ComponentDrill
T2C1.000
%
G90
G05
T1
X102.0Y-102.0
X102.0Y-140.0
X102.0Y-168.0
X102.0Y-178.0
X103.0Y-120.0
X105.2Y-144.2
X106.6Y-145.555
X106.6Y-146.825
X106.6Y-148.095
X106.6Y-149.365
X106.6Y-150.635
X106.6Y-151.905
X106.6Y-153.175
X108.61Y-113.9
X110.0Y-170.0
X111.15Y-113.9
X111.3Y-157.5
X113.69Y-113.9
X114.8Y-146.825
X114.9Y-157.5
X116.23Y-113.9
X116.5Y-170.6
X117.0Y-102.5
X117.9Y-172.15
X118.7Y-170.6
X118.77Y-113.9
X120.0Y-120.0
X120.3Y-172.15
X121.31Y-113.9
X123.85Y-113.9
X126.39Y-113.9
X129.15Y-157.5
X130.5Y-150.0
X131.0Y-155.0
X133.0Y-102.0
X133.0Y-178.0
X133.3Y-168.3
T2
X106.07Y-106.58
X106.07Y-173.42
X106.07Y-175.96
X108.61Y-106.58
X108.61Y-173.42
X108.61Y-175.96
X111.15Y-106.58
X111.15Y-173.42
X111.15Y-175.96
X113.69Y-106.58
X113.69Y-173.42
X113.69Y-175.96
X116.23Y-106.58
X116.23Y-173.42
X116.23Y-175.96
X118.77Y-106.58
X118.77Y-173.42
X118.77Y-175.96
X121.31Y-106.58
X121.31Y-173.42
X121.31Y-175.96
X123.85Y-106.58
X123.85Y-173.42
X123.85Y-175.96
X126.39Y-106.58
X126.39Y-173.42
X126.39Y-175.96
X128.93Y-106.58
X128.93Y-173.42
X128.93Y-175.96
M30
