%TF.GenerationSoftware,KiCad,Pcbnew,10.0.3*%
%TF.CreationDate,2026-07-08T12:05:22+02:00*%
%TF.ProjectId,musicbrain-gate8,6d757369-6362-4726-9169-6e2d67617465,1.1*%
%TF.SameCoordinates,Original*%
%TF.FileFunction,Copper,L2,Bot*%
%TF.FilePolarity,Positive*%
%FSLAX46Y46*%
G04 Gerber Fmt 4.6, Leading zero omitted, Abs format (unit mm)*
G04 Created by KiCad (PCBNEW 10.0.3) date 2026-07-08 12:05:22*
%MOMM*%
%LPD*%
G01*
G04 APERTURE LIST*
%TA.AperFunction,ComponentPad*%
%ADD10R,1.700000X1.700000*%
%TD*%
%TA.AperFunction,ComponentPad*%
%ADD11C,1.700000*%
%TD*%
%TA.AperFunction,ViaPad*%
%ADD12C,0.500000*%
%TD*%
%TA.AperFunction,Conductor*%
%ADD13C,0.250000*%
%TD*%
%TA.AperFunction,Conductor*%
%ADD14C,0.500000*%
%TD*%
G04 APERTURE END LIST*
D10*
%TO.P,J1,1*%
%TO.N,GND*%
X128930000Y-173420000D03*
D11*
%TO.P,J1,2*%
%TO.N,+12V*%
X128930000Y-175960000D03*
%TO.P,J1,3*%
%TO.N,GND*%
X126390000Y-173420000D03*
%TO.P,J1,4*%
%TO.N,N/C*%
X126390000Y-175960000D03*
%TO.P,J1,5*%
%TO.N,GND*%
X123850000Y-173420000D03*
%TO.P,J1,6*%
%TO.N,N/C*%
X123850000Y-175960000D03*
%TO.P,J1,7*%
%TO.N,/SCLK*%
X121310000Y-173420000D03*
%TO.P,J1,8*%
%TO.N,GND*%
X121310000Y-175960000D03*
%TO.P,J1,9*%
%TO.N,/MOSI*%
X118770000Y-173420000D03*
%TO.P,J1,10*%
%TO.N,GND*%
X118770000Y-175960000D03*
%TO.P,J1,11*%
%TO.N,N/C*%
X116230000Y-173420000D03*
%TO.P,J1,12*%
%TO.N,GND*%
X116230000Y-175960000D03*
%TO.P,J1,13*%
%TO.N,/CS*%
X113690000Y-173420000D03*
%TO.P,J1,14*%
%TO.N,GND*%
X113690000Y-175960000D03*
%TO.P,J1,15*%
%TO.N,N/C*%
X111150000Y-173420000D03*
%TO.P,J1,16*%
X111150000Y-175960000D03*
%TO.P,J1,17*%
X108610000Y-173420000D03*
%TO.P,J1,18*%
X108610000Y-175960000D03*
%TO.P,J1,19*%
X106070000Y-173420000D03*
%TO.P,J1,20*%
X106070000Y-175960000D03*
%TD*%
D10*
%TO.P,J2,1*%
%TO.N,GND*%
X106070000Y-106580000D03*
D11*
%TO.P,J2,2*%
%TO.N,/GATE1*%
X108610000Y-106580000D03*
%TO.P,J2,3*%
%TO.N,/GATE2*%
X111150000Y-106580000D03*
%TO.P,J2,4*%
%TO.N,/GATE3*%
X113690000Y-106580000D03*
%TO.P,J2,5*%
%TO.N,/GATE4*%
X116230000Y-106580000D03*
%TO.P,J2,6*%
%TO.N,/GATE5*%
X118770000Y-106580000D03*
%TO.P,J2,7*%
%TO.N,/GATE6*%
X121310000Y-106580000D03*
%TO.P,J2,8*%
%TO.N,/GATE7*%
X123850000Y-106580000D03*
%TO.P,J2,9*%
%TO.N,/GATE8*%
X126390000Y-106580000D03*
%TO.P,J2,10*%
%TO.N,GND*%
X128930000Y-106580000D03*
%TD*%
D12*
%TO.N,/SCLK*%
X120300000Y-172150000D03*
X117900000Y-172150000D03*
%TO.N,/CS*%
X116500000Y-170600000D03*
X118700000Y-170600000D03*
%TO.N,Net-(U1-QB)*%
X106600000Y-145555000D03*
X111150000Y-113900000D03*
%TO.N,Net-(U1-QC)*%
X106600000Y-146825000D03*
X113690000Y-113900000D03*
%TO.N,Net-(U1-QD)*%
X106600000Y-148095000D03*
X116230000Y-113900000D03*
%TO.N,Net-(U1-QE)*%
X106600000Y-149365000D03*
X118770000Y-113900000D03*
%TO.N,Net-(U1-QF)*%
X106600000Y-150635000D03*
X121310000Y-113900000D03*
%TO.N,Net-(U1-QG)*%
X106600000Y-151905000D03*
X123850000Y-113900000D03*
%TO.N,Net-(U1-QH)*%
X106600000Y-153175000D03*
X126390000Y-113900000D03*
%TO.N,Net-(U1-QA)*%
X114800000Y-146825000D03*
X108610000Y-113900000D03*
%TO.N,+5V*%
X129150000Y-157500000D03*
X105200000Y-144200000D03*
X114900000Y-157500000D03*
X111300000Y-157500000D03*
%TO.N,GND*%
X133300000Y-168300000D03*
X102000000Y-102000000D03*
X133000000Y-102000000D03*
X102000000Y-178000000D03*
X133000000Y-178000000D03*
X102000000Y-140000000D03*
X102000000Y-168000000D03*
X117000000Y-102500000D03*
X130500000Y-150000000D03*
X120000000Y-120000000D03*
X110000000Y-170000000D03*
X103000000Y-120000000D03*
X131000000Y-155000000D03*
%TD*%
%TO.N,/SCLK*%
D13*
X120300000Y-172150000D02*
X117900000Y-172150000D01*
%TO.N,/CS*%
X116500000Y-170600000D02*
X118700000Y-170600000D01*
%TO.N,Net-(U1-QB)*%
X106600000Y-145555000D02*
X111150000Y-145555000D01*
X111150000Y-145555000D02*
X111150000Y-113900000D01*
%TO.N,Net-(U1-QC)*%
X106600000Y-146825000D02*
X113690000Y-146825000D01*
X113690000Y-146825000D02*
X113690000Y-113900000D01*
%TO.N,Net-(U1-QD)*%
X106600000Y-148095000D02*
X116230000Y-148095000D01*
X116230000Y-148095000D02*
X116230000Y-113900000D01*
%TO.N,Net-(U1-QE)*%
X106600000Y-149365000D02*
X118770000Y-149365000D01*
X118770000Y-149365000D02*
X118770000Y-113900000D01*
%TO.N,Net-(U1-QF)*%
X106600000Y-150635000D02*
X121310000Y-150635000D01*
X121310000Y-150635000D02*
X121310000Y-113900000D01*
%TO.N,Net-(U1-QG)*%
X106600000Y-151905000D02*
X123850000Y-151905000D01*
X123850000Y-151905000D02*
X123850000Y-113900000D01*
%TO.N,Net-(U1-QH)*%
X106600000Y-153175000D02*
X126390000Y-153175000D01*
X126390000Y-153175000D02*
X126390000Y-113900000D01*
%TO.N,Net-(U1-QA)*%
X114800000Y-146825000D02*
X114800000Y-113250000D01*
X114800000Y-113250000D02*
X108610000Y-113250000D01*
X108610000Y-113250000D02*
X108610000Y-113900000D01*
%TO.N,+5V*%
D14*
X129150000Y-157500000D02*
X114900000Y-157500000D01*
X114900000Y-157500000D02*
X105200000Y-157500000D01*
X105200000Y-157500000D02*
X105200000Y-144200000D01*
%TD*%
%TA.AperFunction,Conductor*%
%TO.N,GND*%
G36*
X112491444Y-174073999D02*
G01*
X112530486Y-174119056D01*
X112534951Y-174127820D01*
X112659890Y-174299786D01*
X112810213Y-174450109D01*
X112982179Y-174575048D01*
X112982181Y-174575049D01*
X112982184Y-174575051D01*
X112991493Y-174579794D01*
X113042290Y-174627766D01*
X113059087Y-174695587D01*
X113036552Y-174761722D01*
X112991505Y-174800760D01*
X112982446Y-174805376D01*
X112982440Y-174805380D01*
X112928282Y-174844727D01*
X112928282Y-174844728D01*
X113560591Y-175477037D01*
X113497007Y-175494075D01*
X113382993Y-175559901D01*
X113289901Y-175652993D01*
X113224075Y-175767007D01*
X113207037Y-175830591D01*
X112574728Y-175198282D01*
X112574727Y-175198282D01*
X112535380Y-175252440D01*
X112535376Y-175252446D01*
X112530760Y-175261505D01*
X112482781Y-175312297D01*
X112414959Y-175329087D01*
X112348826Y-175306543D01*
X112309794Y-175261493D01*
X112305051Y-175252184D01*
X112305049Y-175252181D01*
X112305048Y-175252179D01*
X112180109Y-175080213D01*
X112029786Y-174929890D01*
X111857820Y-174804951D01*
X111857115Y-174804591D01*
X111849054Y-174800485D01*
X111798259Y-174752512D01*
X111781463Y-174684692D01*
X111803999Y-174618556D01*
X111849054Y-174579515D01*
X111857816Y-174575051D01*
X111944471Y-174512093D01*
X112029786Y-174450109D01*
X112029788Y-174450106D01*
X112029792Y-174450104D01*
X112180104Y-174299792D01*
X112180106Y-174299788D01*
X112180109Y-174299786D01*
X112305048Y-174127820D01*
X112305047Y-174127820D01*
X112305051Y-174127816D01*
X112309514Y-174119054D01*
X112357488Y-174068259D01*
X112425308Y-174051463D01*
X112491444Y-174073999D01*
G37*
%TD.AperFunction*%
%TA.AperFunction,Conductor*%
G36*
X115031444Y-174073999D02*
G01*
X115070486Y-174119056D01*
X115074951Y-174127820D01*
X115199890Y-174299786D01*
X115350213Y-174450109D01*
X115522179Y-174575048D01*
X115522181Y-174575049D01*
X115522184Y-174575051D01*
X115531493Y-174579794D01*
X115582290Y-174627766D01*
X115599087Y-174695587D01*
X115576552Y-174761722D01*
X115531505Y-174800760D01*
X115522446Y-174805376D01*
X115522440Y-174805380D01*
X115468282Y-174844727D01*
X115468282Y-174844728D01*
X116100591Y-175477037D01*
X116037007Y-175494075D01*
X115922993Y-175559901D01*
X115829901Y-175652993D01*
X115764075Y-175767007D01*
X115747037Y-175830591D01*
X115114728Y-175198282D01*
X115114727Y-175198282D01*
X115075380Y-175252440D01*
X115070483Y-175262051D01*
X115022506Y-175312845D01*
X114954684Y-175329638D01*
X114888550Y-175307098D01*
X114849516Y-175262048D01*
X114844626Y-175252452D01*
X114805270Y-175198282D01*
X114805269Y-175198282D01*
X114172962Y-175830590D01*
X114155925Y-175767007D01*
X114090099Y-175652993D01*
X113997007Y-175559901D01*
X113882993Y-175494075D01*
X113819409Y-175477037D01*
X114451716Y-174844728D01*
X114397547Y-174805373D01*
X114397547Y-174805372D01*
X114388500Y-174800763D01*
X114337706Y-174752788D01*
X114320912Y-174684966D01*
X114343451Y-174618832D01*
X114388508Y-174579793D01*
X114397816Y-174575051D01*
X114484471Y-174512093D01*
X114569786Y-174450109D01*
X114569788Y-174450106D01*
X114569792Y-174450104D01*
X114720104Y-174299792D01*
X114720106Y-174299788D01*
X114720109Y-174299786D01*
X114845048Y-174127820D01*
X114845047Y-174127820D01*
X114845051Y-174127816D01*
X114849514Y-174119054D01*
X114897488Y-174068259D01*
X114965308Y-174051463D01*
X115031444Y-174073999D01*
G37*
%TD.AperFunction*%
%TA.AperFunction,Conductor*%
G36*
X117571444Y-174073999D02*
G01*
X117610486Y-174119056D01*
X117614951Y-174127820D01*
X117739890Y-174299786D01*
X117890213Y-174450109D01*
X118062179Y-174575048D01*
X118062181Y-174575049D01*
X118062184Y-174575051D01*
X118071493Y-174579794D01*
X118122290Y-174627766D01*
X118139087Y-174695587D01*
X118116552Y-174761722D01*
X118071505Y-174800760D01*
X118062446Y-174805376D01*
X118062440Y-174805380D01*
X118008282Y-174844727D01*
X118008282Y-174844728D01*
X118640591Y-175477037D01*
X118577007Y-175494075D01*
X118462993Y-175559901D01*
X118369901Y-175652993D01*
X118304075Y-175767007D01*
X118287037Y-175830591D01*
X117654728Y-175198282D01*
X117654727Y-175198282D01*
X117615380Y-175252440D01*
X117610483Y-175262051D01*
X117562506Y-175312845D01*
X117494684Y-175329638D01*
X117428550Y-175307098D01*
X117389516Y-175262048D01*
X117384626Y-175252452D01*
X117345270Y-175198282D01*
X117345269Y-175198282D01*
X116712962Y-175830590D01*
X116695925Y-175767007D01*
X116630099Y-175652993D01*
X116537007Y-175559901D01*
X116422993Y-175494075D01*
X116359409Y-175477037D01*
X116991716Y-174844728D01*
X116937547Y-174805373D01*
X116937547Y-174805372D01*
X116928500Y-174800763D01*
X116877706Y-174752788D01*
X116860912Y-174684966D01*
X116883451Y-174618832D01*
X116928508Y-174579793D01*
X116937816Y-174575051D01*
X117024471Y-174512093D01*
X117109786Y-174450109D01*
X117109788Y-174450106D01*
X117109792Y-174450104D01*
X117260104Y-174299792D01*
X117260106Y-174299788D01*
X117260109Y-174299786D01*
X117385048Y-174127820D01*
X117385047Y-174127820D01*
X117385051Y-174127816D01*
X117389514Y-174119054D01*
X117437488Y-174068259D01*
X117505308Y-174051463D01*
X117571444Y-174073999D01*
G37*
%TD.AperFunction*%
%TA.AperFunction,Conductor*%
G36*
X120111444Y-174073999D02*
G01*
X120150486Y-174119056D01*
X120154951Y-174127820D01*
X120279890Y-174299786D01*
X120430213Y-174450109D01*
X120602179Y-174575048D01*
X120602181Y-174575049D01*
X120602184Y-174575051D01*
X120611493Y-174579794D01*
X120662290Y-174627766D01*
X120679087Y-174695587D01*
X120656552Y-174761722D01*
X120611505Y-174800760D01*
X120602446Y-174805376D01*
X120602440Y-174805380D01*
X120548282Y-174844727D01*
X120548282Y-174844728D01*
X121180591Y-175477037D01*
X121117007Y-175494075D01*
X121002993Y-175559901D01*
X120909901Y-175652993D01*
X120844075Y-175767007D01*
X120827037Y-175830591D01*
X120194728Y-175198282D01*
X120194727Y-175198282D01*
X120155380Y-175252440D01*
X120150483Y-175262051D01*
X120102506Y-175312845D01*
X120034684Y-175329638D01*
X119968550Y-175307098D01*
X119929516Y-175262048D01*
X119924626Y-175252452D01*
X119885270Y-175198282D01*
X119885269Y-175198282D01*
X119252962Y-175830590D01*
X119235925Y-175767007D01*
X119170099Y-175652993D01*
X119077007Y-175559901D01*
X118962993Y-175494075D01*
X118899409Y-175477037D01*
X119531716Y-174844728D01*
X119477547Y-174805373D01*
X119477547Y-174805372D01*
X119468500Y-174800763D01*
X119417706Y-174752788D01*
X119400912Y-174684966D01*
X119423451Y-174618832D01*
X119468508Y-174579793D01*
X119477816Y-174575051D01*
X119564471Y-174512093D01*
X119649786Y-174450109D01*
X119649788Y-174450106D01*
X119649792Y-174450104D01*
X119800104Y-174299792D01*
X119800106Y-174299788D01*
X119800109Y-174299786D01*
X119925048Y-174127820D01*
X119925047Y-174127820D01*
X119925051Y-174127816D01*
X119929514Y-174119054D01*
X119977488Y-174068259D01*
X120045308Y-174051463D01*
X120111444Y-174073999D01*
G37*
%TD.AperFunction*%
%TA.AperFunction,Conductor*%
G36*
X123384075Y-173612993D02*
G01*
X123449901Y-173727007D01*
X123542993Y-173820099D01*
X123657007Y-173885925D01*
X123720590Y-173902962D01*
X123088282Y-174535269D01*
X123088282Y-174535270D01*
X123142452Y-174574626D01*
X123142451Y-174574626D01*
X123151495Y-174579234D01*
X123202292Y-174627208D01*
X123219087Y-174695029D01*
X123196550Y-174761164D01*
X123151499Y-174800202D01*
X123142182Y-174804949D01*
X122970213Y-174929890D01*
X122819890Y-175080213D01*
X122694949Y-175252182D01*
X122690202Y-175261499D01*
X122642227Y-175312293D01*
X122574405Y-175329087D01*
X122508271Y-175306548D01*
X122469234Y-175261495D01*
X122464626Y-175252452D01*
X122425270Y-175198282D01*
X122425269Y-175198282D01*
X121792962Y-175830590D01*
X121775925Y-175767007D01*
X121710099Y-175652993D01*
X121617007Y-175559901D01*
X121502993Y-175494075D01*
X121439409Y-175477037D01*
X122071716Y-174844728D01*
X122017547Y-174805373D01*
X122017547Y-174805372D01*
X122008500Y-174800763D01*
X121957706Y-174752788D01*
X121940912Y-174684966D01*
X121963451Y-174618832D01*
X122008508Y-174579793D01*
X122017816Y-174575051D01*
X122104471Y-174512093D01*
X122189786Y-174450109D01*
X122189788Y-174450106D01*
X122189792Y-174450104D01*
X122340104Y-174299792D01*
X122340106Y-174299788D01*
X122340109Y-174299786D01*
X122425890Y-174181717D01*
X122465051Y-174127816D01*
X122469793Y-174118508D01*
X122517763Y-174067711D01*
X122585583Y-174050911D01*
X122651719Y-174073445D01*
X122690763Y-174118500D01*
X122695373Y-174127547D01*
X122734728Y-174181716D01*
X123367037Y-173549408D01*
X123384075Y-173612993D01*
G37*
%TD.AperFunction*%
%TA.AperFunction,Conductor*%
G36*
X125924075Y-173612993D02*
G01*
X125989901Y-173727007D01*
X126082993Y-173820099D01*
X126197007Y-173885925D01*
X126260590Y-173902962D01*
X125628282Y-174535269D01*
X125628282Y-174535270D01*
X125682452Y-174574626D01*
X125682451Y-174574626D01*
X125691495Y-174579234D01*
X125742292Y-174627208D01*
X125759087Y-174695029D01*
X125736550Y-174761164D01*
X125691499Y-174800202D01*
X125682182Y-174804949D01*
X125510213Y-174929890D01*
X125359890Y-175080213D01*
X125234949Y-175252182D01*
X125230484Y-175260946D01*
X125182509Y-175311742D01*
X125114688Y-175328536D01*
X125048553Y-175305998D01*
X125009516Y-175260946D01*
X125005050Y-175252182D01*
X124880109Y-175080213D01*
X124729786Y-174929890D01*
X124557817Y-174804949D01*
X124548504Y-174800204D01*
X124497707Y-174752230D01*
X124480912Y-174684409D01*
X124503449Y-174618274D01*
X124548507Y-174579232D01*
X124557555Y-174574622D01*
X124611716Y-174535270D01*
X124611717Y-174535270D01*
X123979408Y-173902962D01*
X124042993Y-173885925D01*
X124157007Y-173820099D01*
X124250099Y-173727007D01*
X124315925Y-173612993D01*
X124332962Y-173549408D01*
X124965270Y-174181717D01*
X124965270Y-174181716D01*
X125004622Y-174127554D01*
X125009514Y-174117954D01*
X125057488Y-174067157D01*
X125125308Y-174050361D01*
X125191444Y-174072897D01*
X125230486Y-174117954D01*
X125235375Y-174127550D01*
X125274728Y-174181716D01*
X125907037Y-173549408D01*
X125924075Y-173612993D01*
G37*
%TD.AperFunction*%
%TA.AperFunction,Conductor*%
G36*
X127542356Y-174218803D02*
G01*
X127575841Y-174280126D01*
X127574926Y-174294831D01*
X127577497Y-174294555D01*
X127586401Y-174377373D01*
X127586403Y-174377380D01*
X127636645Y-174512086D01*
X127636649Y-174512093D01*
X127722809Y-174627187D01*
X127722812Y-174627190D01*
X127837906Y-174713350D01*
X127837913Y-174713354D01*
X127969470Y-174762422D01*
X128025404Y-174804293D01*
X128049821Y-174869758D01*
X128034969Y-174938031D01*
X128013819Y-174966285D01*
X127899889Y-175080215D01*
X127774949Y-175252182D01*
X127770484Y-175260946D01*
X127722509Y-175311742D01*
X127654688Y-175328536D01*
X127588553Y-175305998D01*
X127549516Y-175260946D01*
X127545050Y-175252182D01*
X127420109Y-175080213D01*
X127269786Y-174929890D01*
X127097817Y-174804949D01*
X127088504Y-174800204D01*
X127037707Y-174752230D01*
X127020912Y-174684409D01*
X127043449Y-174618274D01*
X127088507Y-174579232D01*
X127097555Y-174574622D01*
X127151716Y-174535270D01*
X127151717Y-174535270D01*
X126519408Y-173902962D01*
X126582993Y-173885925D01*
X126697007Y-173820099D01*
X126790099Y-173727007D01*
X126855925Y-173612993D01*
X126872962Y-173549408D01*
X127542356Y-174218803D01*
G37*
%TD.AperFunction*%
%TA.AperFunction,Conductor*%
G36*
X134442539Y-100520185D02*
G01*
X134488294Y-100572989D01*
X134499500Y-100624500D01*
X134499500Y-179375500D01*
X134479815Y-179442539D01*
X134427011Y-179488294D01*
X134375500Y-179499500D01*
X100624500Y-179499500D01*
X100557461Y-179479815D01*
X100511706Y-179427011D01*
X100500500Y-179375500D01*
X100500500Y-173313713D01*
X104719500Y-173313713D01*
X104719500Y-173526286D01*
X104752753Y-173736239D01*
X104818444Y-173938414D01*
X104914951Y-174127820D01*
X105039890Y-174299786D01*
X105190213Y-174450109D01*
X105362182Y-174575050D01*
X105370946Y-174579516D01*
X105421742Y-174627491D01*
X105438536Y-174695312D01*
X105415998Y-174761447D01*
X105370946Y-174800484D01*
X105362182Y-174804949D01*
X105190213Y-174929890D01*
X105039890Y-175080213D01*
X104914951Y-175252179D01*
X104818444Y-175441585D01*
X104752753Y-175643760D01*
X104719500Y-175853713D01*
X104719500Y-176066286D01*
X104752753Y-176276239D01*
X104818444Y-176478414D01*
X104914951Y-176667820D01*
X105039890Y-176839786D01*
X105190213Y-176990109D01*
X105362179Y-177115048D01*
X105362181Y-177115049D01*
X105362184Y-177115051D01*
X105551588Y-177211557D01*
X105753757Y-177277246D01*
X105963713Y-177310500D01*
X105963714Y-177310500D01*
X106176286Y-177310500D01*
X106176287Y-177310500D01*
X106386243Y-177277246D01*
X106588412Y-177211557D01*
X106777816Y-177115051D01*
X106832572Y-177075269D01*
X106949786Y-176990109D01*
X106949788Y-176990106D01*
X106949792Y-176990104D01*
X107100104Y-176839792D01*
X107100106Y-176839788D01*
X107100109Y-176839786D01*
X107225048Y-176667820D01*
X107225047Y-176667820D01*
X107225051Y-176667816D01*
X107229514Y-176659054D01*
X107277488Y-176608259D01*
X107345308Y-176591463D01*
X107411444Y-176613999D01*
X107450486Y-176659056D01*
X107454951Y-176667820D01*
X107579890Y-176839786D01*
X107730213Y-176990109D01*
X107902179Y-177115048D01*
X107902181Y-177115049D01*
X107902184Y-177115051D01*
X108091588Y-177211557D01*
X108293757Y-177277246D01*
X108503713Y-177310500D01*
X108503714Y-177310500D01*
X108716286Y-177310500D01*
X108716287Y-177310500D01*
X108926243Y-177277246D01*
X109128412Y-177211557D01*
X109317816Y-177115051D01*
X109372572Y-177075269D01*
X109489786Y-176990109D01*
X109489788Y-176990106D01*
X109489792Y-176990104D01*
X109640104Y-176839792D01*
X109640106Y-176839788D01*
X109640109Y-176839786D01*
X109765048Y-176667820D01*
X109765047Y-176667820D01*
X109765051Y-176667816D01*
X109769514Y-176659054D01*
X109817488Y-176608259D01*
X109885308Y-176591463D01*
X109951444Y-176613999D01*
X109990486Y-176659056D01*
X109994951Y-176667820D01*
X110119890Y-176839786D01*
X110270213Y-176990109D01*
X110442179Y-177115048D01*
X110442181Y-177115049D01*
X110442184Y-177115051D01*
X110631588Y-177211557D01*
X110833757Y-177277246D01*
X111043713Y-177310500D01*
X111043714Y-177310500D01*
X111256286Y-177310500D01*
X111256287Y-177310500D01*
X111466243Y-177277246D01*
X111668412Y-177211557D01*
X111857816Y-177115051D01*
X111912572Y-177075269D01*
X112029786Y-176990109D01*
X112029788Y-176990106D01*
X112029792Y-176990104D01*
X112180104Y-176839792D01*
X112180106Y-176839788D01*
X112180109Y-176839786D01*
X112265890Y-176721717D01*
X112305051Y-176667816D01*
X112309793Y-176658508D01*
X112357763Y-176607711D01*
X112425583Y-176590911D01*
X112491719Y-176613445D01*
X112530763Y-176658500D01*
X112535373Y-176667547D01*
X112574728Y-176721716D01*
X113207037Y-176089408D01*
X113224075Y-176152993D01*
X113289901Y-176267007D01*
X113382993Y-176360099D01*
X113497007Y-176425925D01*
X113560590Y-176442962D01*
X112928282Y-177075269D01*
X112928282Y-177075270D01*
X112982449Y-177114624D01*
X113171782Y-177211095D01*
X113373870Y-177276757D01*
X113583754Y-177310000D01*
X113796246Y-177310000D01*
X114006127Y-177276757D01*
X114006130Y-177276757D01*
X114208217Y-177211095D01*
X114397554Y-177114622D01*
X114451716Y-177075270D01*
X114451717Y-177075270D01*
X113819408Y-176442962D01*
X113882993Y-176425925D01*
X113997007Y-176360099D01*
X114090099Y-176267007D01*
X114155925Y-176152993D01*
X114172962Y-176089408D01*
X114805270Y-176721717D01*
X114805270Y-176721716D01*
X114844622Y-176667554D01*
X114849514Y-176657954D01*
X114897488Y-176607157D01*
X114965308Y-176590361D01*
X115031444Y-176612897D01*
X115070486Y-176657954D01*
X115075375Y-176667550D01*
X115114728Y-176721716D01*
X115747037Y-176089408D01*
X115764075Y-176152993D01*
X115829901Y-176267007D01*
X115922993Y-176360099D01*
X116037007Y-176425925D01*
X116100590Y-176442962D01*
X115468282Y-177075269D01*
X115468282Y-177075270D01*
X115522449Y-177114624D01*
X115711782Y-177211095D01*
X115913870Y-177276757D01*
X116123754Y-177310000D01*
X116336246Y-177310000D01*
X116546127Y-177276757D01*
X116546130Y-177276757D01*
X116748217Y-177211095D01*
X116937554Y-177114622D01*
X116991716Y-177075270D01*
X116991717Y-177075270D01*
X116359408Y-176442962D01*
X116422993Y-176425925D01*
X116537007Y-176360099D01*
X116630099Y-176267007D01*
X116695925Y-176152993D01*
X116712962Y-176089409D01*
X117345270Y-176721717D01*
X117345270Y-176721716D01*
X117384622Y-176667554D01*
X117389514Y-176657954D01*
X117437488Y-176607157D01*
X117505308Y-176590361D01*
X117571444Y-176612897D01*
X117610486Y-176657954D01*
X117615375Y-176667550D01*
X117654728Y-176721716D01*
X118287037Y-176089408D01*
X118304075Y-176152993D01*
X118369901Y-176267007D01*
X118462993Y-176360099D01*
X118577007Y-176425925D01*
X118640590Y-176442962D01*
X118008282Y-177075269D01*
X118008282Y-177075270D01*
X118062449Y-177114624D01*
X118251782Y-177211095D01*
X118453870Y-177276757D01*
X118663754Y-177310000D01*
X118876246Y-177310000D01*
X119086127Y-177276757D01*
X119086130Y-177276757D01*
X119288217Y-177211095D01*
X119477554Y-177114622D01*
X119531716Y-177075270D01*
X119531717Y-177075270D01*
X118899408Y-176442962D01*
X118962993Y-176425925D01*
X119077007Y-176360099D01*
X119170099Y-176267007D01*
X119235925Y-176152993D01*
X119252962Y-176089408D01*
X119885270Y-176721717D01*
X119885270Y-176721716D01*
X119924622Y-176667554D01*
X119929514Y-176657954D01*
X119977488Y-176607157D01*
X120045308Y-176590361D01*
X120111444Y-176612897D01*
X120150486Y-176657954D01*
X120155375Y-176667550D01*
X120194728Y-176721716D01*
X120827037Y-176089408D01*
X120844075Y-176152993D01*
X120909901Y-176267007D01*
X121002993Y-176360099D01*
X121117007Y-176425925D01*
X121180590Y-176442962D01*
X120548282Y-177075269D01*
X120548282Y-177075270D01*
X120602449Y-177114624D01*
X120791782Y-177211095D01*
X120993870Y-177276757D01*
X121203754Y-177310000D01*
X121416246Y-177310000D01*
X121626127Y-177276757D01*
X121626130Y-177276757D01*
X121828217Y-177211095D01*
X122017554Y-177114622D01*
X122071716Y-177075270D01*
X122071717Y-177075270D01*
X121439408Y-176442962D01*
X121502993Y-176425925D01*
X121617007Y-176360099D01*
X121710099Y-176267007D01*
X121775925Y-176152993D01*
X121792962Y-176089408D01*
X122425270Y-176721717D01*
X122425270Y-176721716D01*
X122464622Y-176667555D01*
X122469232Y-176658507D01*
X122517205Y-176607709D01*
X122585025Y-176590912D01*
X122651161Y-176613447D01*
X122690204Y-176658504D01*
X122694949Y-176667817D01*
X122819890Y-176839786D01*
X122970213Y-176990109D01*
X123142179Y-177115048D01*
X123142181Y-177115049D01*
X123142184Y-177115051D01*
X123331588Y-177211557D01*
X123533757Y-177277246D01*
X123743713Y-177310500D01*
X123743714Y-177310500D01*
X123956286Y-177310500D01*
X123956287Y-177310500D01*
X124166243Y-177277246D01*
X124368412Y-177211557D01*
X124557816Y-177115051D01*
X124612572Y-177075269D01*
X124729786Y-176990109D01*
X124729788Y-176990106D01*
X124729792Y-176990104D01*
X124880104Y-176839792D01*
X124880106Y-176839788D01*
X124880109Y-176839786D01*
X125005048Y-176667820D01*
X125005047Y-176667820D01*
X125005051Y-176667816D01*
X125009514Y-176659054D01*
X125057488Y-176608259D01*
X125125308Y-176591463D01*
X125191444Y-176613999D01*
X125230486Y-176659056D01*
X125234951Y-176667820D01*
X125359890Y-176839786D01*
X125510213Y-176990109D01*
X125682179Y-177115048D01*
X125682181Y-177115049D01*
X125682184Y-177115051D01*
X125871588Y-177211557D01*
X126073757Y-177277246D01*
X126283713Y-177310500D01*
X126283714Y-177310500D01*
X126496286Y-177310500D01*
X126496287Y-177310500D01*
X126706243Y-177277246D01*
X126908412Y-177211557D01*
X127097816Y-177115051D01*
X127152572Y-177075269D01*
X127269786Y-176990109D01*
X127269788Y-176990106D01*
X127269792Y-176990104D01*
X127420104Y-176839792D01*
X127420106Y-176839788D01*
X127420109Y-176839786D01*
X127545048Y-176667820D01*
X127545047Y-176667820D01*
X127545051Y-176667816D01*
X127549514Y-176659054D01*
X127597488Y-176608259D01*
X127665308Y-176591463D01*
X127731444Y-176613999D01*
X127770486Y-176659056D01*
X127774951Y-176667820D01*
X127899890Y-176839786D01*
X128050213Y-176990109D01*
X128222179Y-177115048D01*
X128222181Y-177115049D01*
X128222184Y-177115051D01*
X128411588Y-177211557D01*
X128613757Y-177277246D01*
X128823713Y-177310500D01*
X128823714Y-177310500D01*
X129036286Y-177310500D01*
X129036287Y-177310500D01*
X129246243Y-177277246D01*
X129448412Y-177211557D01*
X129637816Y-177115051D01*
X129692572Y-177075269D01*
X129809786Y-176990109D01*
X129809788Y-176990106D01*
X129809792Y-176990104D01*
X129960104Y-176839792D01*
X129960106Y-176839788D01*
X129960109Y-176839786D01*
X130085048Y-176667820D01*
X130085047Y-176667820D01*
X130085051Y-176667816D01*
X130181557Y-176478412D01*
X130247246Y-176276243D01*
X130280500Y-176066287D01*
X130280500Y-175853713D01*
X130247246Y-175643757D01*
X130181557Y-175441588D01*
X130085051Y-175252184D01*
X130085049Y-175252181D01*
X130085048Y-175252179D01*
X129960109Y-175080213D01*
X129846181Y-174966285D01*
X129812696Y-174904962D01*
X129817680Y-174835270D01*
X129859552Y-174779337D01*
X129890529Y-174762422D01*
X130022086Y-174713354D01*
X130022093Y-174713350D01*
X130137187Y-174627190D01*
X130137190Y-174627187D01*
X130223350Y-174512093D01*
X130223354Y-174512086D01*
X130273596Y-174377379D01*
X130273598Y-174377372D01*
X130279999Y-174317844D01*
X130280000Y-174317827D01*
X130280000Y-173670000D01*
X129363012Y-173670000D01*
X129395925Y-173612993D01*
X129430000Y-173485826D01*
X129430000Y-173354174D01*
X129395925Y-173227007D01*
X129363012Y-173170000D01*
X130280000Y-173170000D01*
X130280000Y-172522172D01*
X130279999Y-172522155D01*
X130273598Y-172462627D01*
X130273596Y-172462620D01*
X130223354Y-172327913D01*
X130223350Y-172327906D01*
X130137190Y-172212812D01*
X130137187Y-172212809D01*
X130022093Y-172126649D01*
X130022086Y-172126645D01*
X129887379Y-172076403D01*
X129887372Y-172076401D01*
X129827844Y-172070000D01*
X129180000Y-172070000D01*
X129180000Y-172986988D01*
X129122993Y-172954075D01*
X128995826Y-172920000D01*
X128864174Y-172920000D01*
X128737007Y-172954075D01*
X128680000Y-172986988D01*
X128680000Y-172070000D01*
X128032155Y-172070000D01*
X127972627Y-172076401D01*
X127972620Y-172076403D01*
X127837913Y-172126645D01*
X127837906Y-172126649D01*
X127722812Y-172212809D01*
X127722809Y-172212812D01*
X127636649Y-172327906D01*
X127636645Y-172327913D01*
X127586403Y-172462619D01*
X127586401Y-172462626D01*
X127577497Y-172545444D01*
X127574434Y-172545114D01*
X127575336Y-172562094D01*
X127542356Y-172621195D01*
X126872962Y-173290590D01*
X126855925Y-173227007D01*
X126790099Y-173112993D01*
X126697007Y-173019901D01*
X126582993Y-172954075D01*
X126519409Y-172937037D01*
X127151716Y-172304728D01*
X127097550Y-172265375D01*
X126908217Y-172168904D01*
X126706129Y-172103242D01*
X126496246Y-172070000D01*
X126283754Y-172070000D01*
X126073872Y-172103242D01*
X126073869Y-172103242D01*
X125871782Y-172168904D01*
X125682439Y-172265380D01*
X125628282Y-172304727D01*
X125628282Y-172304728D01*
X126260591Y-172937037D01*
X126197007Y-172954075D01*
X126082993Y-173019901D01*
X125989901Y-173112993D01*
X125924075Y-173227007D01*
X125907037Y-173290591D01*
X125274728Y-172658282D01*
X125274727Y-172658282D01*
X125235380Y-172712440D01*
X125230483Y-172722051D01*
X125182506Y-172772845D01*
X125114684Y-172789638D01*
X125048550Y-172767098D01*
X125009516Y-172722048D01*
X125004626Y-172712452D01*
X124965270Y-172658282D01*
X124965269Y-172658282D01*
X124332962Y-173290590D01*
X124315925Y-173227007D01*
X124250099Y-173112993D01*
X124157007Y-173019901D01*
X124042993Y-172954075D01*
X123979409Y-172937037D01*
X124611716Y-172304728D01*
X124557550Y-172265375D01*
X124368217Y-172168904D01*
X124166129Y-172103242D01*
X123956246Y-172070000D01*
X123743754Y-172070000D01*
X123533872Y-172103242D01*
X123533869Y-172103242D01*
X123331782Y-172168904D01*
X123142439Y-172265380D01*
X123088282Y-172304727D01*
X123088282Y-172304728D01*
X123720591Y-172937037D01*
X123657007Y-172954075D01*
X123542993Y-173019901D01*
X123449901Y-173112993D01*
X123384075Y-173227007D01*
X123367037Y-173290591D01*
X122734728Y-172658282D01*
X122734727Y-172658282D01*
X122695380Y-172712440D01*
X122695376Y-172712446D01*
X122690760Y-172721505D01*
X122642781Y-172772297D01*
X122574959Y-172789087D01*
X122508826Y-172766543D01*
X122469794Y-172721493D01*
X122465051Y-172712184D01*
X122465049Y-172712181D01*
X122465048Y-172712179D01*
X122340109Y-172540213D01*
X122189786Y-172389890D01*
X122017820Y-172264951D01*
X121828414Y-172168444D01*
X121828413Y-172168443D01*
X121828412Y-172168443D01*
X121626243Y-172102754D01*
X121626241Y-172102753D01*
X121626240Y-172102753D01*
X121464957Y-172077208D01*
X121416287Y-172069500D01*
X121203713Y-172069500D01*
X121203708Y-172069500D01*
X121171665Y-172074575D01*
X121102371Y-172065620D01*
X121048919Y-172020624D01*
X121030651Y-171976296D01*
X121021658Y-171931087D01*
X121021656Y-171931082D01*
X120965087Y-171794511D01*
X120965080Y-171794498D01*
X120882951Y-171671584D01*
X120882948Y-171671580D01*
X120778419Y-171567051D01*
X120778415Y-171567048D01*
X120655501Y-171484919D01*
X120655488Y-171484912D01*
X120518917Y-171428343D01*
X120518907Y-171428340D01*
X120373920Y-171399500D01*
X120373918Y-171399500D01*
X120226082Y-171399500D01*
X120226080Y-171399500D01*
X120081092Y-171428340D01*
X120081082Y-171428343D01*
X119944510Y-171484913D01*
X119944506Y-171484915D01*
X119944505Y-171484916D01*
X119916537Y-171503603D01*
X119849863Y-171524480D01*
X119847649Y-171524500D01*
X119052600Y-171524500D01*
X118985561Y-171504815D01*
X118939806Y-171452011D01*
X118929862Y-171382853D01*
X118958887Y-171319297D01*
X119005147Y-171285939D01*
X119029008Y-171276055D01*
X119055495Y-171265084D01*
X119178416Y-171182951D01*
X119282951Y-171078416D01*
X119365084Y-170955495D01*
X119421658Y-170818913D01*
X119450500Y-170673918D01*
X119450500Y-170526082D01*
X119450500Y-170526079D01*
X119421659Y-170381092D01*
X119421658Y-170381091D01*
X119421658Y-170381087D01*
X119421656Y-170381082D01*
X119365087Y-170244511D01*
X119365080Y-170244498D01*
X119282951Y-170121584D01*
X119282948Y-170121580D01*
X119178419Y-170017051D01*
X119178415Y-170017048D01*
X119055501Y-169934919D01*
X119055488Y-169934912D01*
X118918917Y-169878343D01*
X118918907Y-169878340D01*
X118773920Y-169849500D01*
X118773918Y-169849500D01*
X118626082Y-169849500D01*
X118626080Y-169849500D01*
X118481092Y-169878340D01*
X118481082Y-169878343D01*
X118344510Y-169934913D01*
X118344506Y-169934915D01*
X118344505Y-169934916D01*
X118316537Y-169953603D01*
X118249863Y-169974480D01*
X118247649Y-169974500D01*
X116952351Y-169974500D01*
X116885312Y-169954815D01*
X116883544Y-169953658D01*
X116855495Y-169934916D01*
X116855491Y-169934914D01*
X116855489Y-169934913D01*
X116718917Y-169878343D01*
X116718907Y-169878340D01*
X116573920Y-169849500D01*
X116573918Y-169849500D01*
X116426082Y-169849500D01*
X116426080Y-169849500D01*
X116281092Y-169878340D01*
X116281082Y-169878343D01*
X116144511Y-169934912D01*
X116144498Y-169934919D01*
X116021584Y-170017048D01*
X116021580Y-170017051D01*
X115917051Y-170121580D01*
X115917048Y-170121584D01*
X115834919Y-170244498D01*
X115834912Y-170244511D01*
X115778343Y-170381082D01*
X115778340Y-170381092D01*
X115749500Y-170526079D01*
X115749500Y-170526082D01*
X115749500Y-170673918D01*
X115749500Y-170673920D01*
X115749499Y-170673920D01*
X115778340Y-170818907D01*
X115778343Y-170818917D01*
X115834912Y-170955488D01*
X115834919Y-170955501D01*
X115917048Y-171078415D01*
X115917051Y-171078419D01*
X116021580Y-171182948D01*
X116021584Y-171182951D01*
X116144498Y-171265080D01*
X116144511Y-171265087D01*
X116275387Y-171319297D01*
X116281087Y-171321658D01*
X116281091Y-171321658D01*
X116281092Y-171321659D01*
X116426079Y-171350500D01*
X116426082Y-171350500D01*
X116573920Y-171350500D01*
X116671462Y-171331096D01*
X116718913Y-171321658D01*
X116855495Y-171265084D01*
X116883462Y-171246396D01*
X116950137Y-171225520D01*
X116952351Y-171225500D01*
X117547400Y-171225500D01*
X117614439Y-171245185D01*
X117660194Y-171297989D01*
X117670138Y-171367147D01*
X117641113Y-171430703D01*
X117594853Y-171464061D01*
X117544507Y-171484914D01*
X117544498Y-171484919D01*
X117421584Y-171567048D01*
X117421580Y-171567051D01*
X117317051Y-171671580D01*
X117317048Y-171671584D01*
X117234919Y-171794498D01*
X117234912Y-171794511D01*
X117178343Y-171931082D01*
X117178340Y-171931092D01*
X117149500Y-172076079D01*
X117149500Y-172175382D01*
X117129815Y-172242421D01*
X117077011Y-172288176D01*
X117007853Y-172298120D01*
X116952616Y-172275701D01*
X116937819Y-172264950D01*
X116748414Y-172168444D01*
X116748413Y-172168443D01*
X116748412Y-172168443D01*
X116546243Y-172102754D01*
X116546241Y-172102753D01*
X116546240Y-172102753D01*
X116384957Y-172077208D01*
X116336287Y-172069500D01*
X116123713Y-172069500D01*
X116075042Y-172077208D01*
X115913760Y-172102753D01*
X115711585Y-172168444D01*
X115522179Y-172264951D01*
X115350213Y-172389890D01*
X115199890Y-172540213D01*
X115074949Y-172712182D01*
X115070484Y-172720946D01*
X115022509Y-172771742D01*
X114954688Y-172788536D01*
X114888553Y-172765998D01*
X114849516Y-172720946D01*
X114845050Y-172712182D01*
X114720109Y-172540213D01*
X114569786Y-172389890D01*
X114397820Y-172264951D01*
X114208414Y-172168444D01*
X114208413Y-172168443D01*
X114208412Y-172168443D01*
X114006243Y-172102754D01*
X114006241Y-172102753D01*
X114006240Y-172102753D01*
X113844957Y-172077208D01*
X113796287Y-172069500D01*
X113583713Y-172069500D01*
X113535042Y-172077208D01*
X113373760Y-172102753D01*
X113171585Y-172168444D01*
X112982179Y-172264951D01*
X112810213Y-172389890D01*
X112659890Y-172540213D01*
X112534949Y-172712182D01*
X112530484Y-172720946D01*
X112482509Y-172771742D01*
X112414688Y-172788536D01*
X112348553Y-172765998D01*
X112309516Y-172720946D01*
X112305050Y-172712182D01*
X112180109Y-172540213D01*
X112029786Y-172389890D01*
X111857820Y-172264951D01*
X111668414Y-172168444D01*
X111668413Y-172168443D01*
X111668412Y-172168443D01*
X111466243Y-172102754D01*
X111466241Y-172102753D01*
X111466240Y-172102753D01*
X111304957Y-172077208D01*
X111256287Y-172069500D01*
X111043713Y-172069500D01*
X110995042Y-172077208D01*
X110833760Y-172102753D01*
X110631585Y-172168444D01*
X110442179Y-172264951D01*
X110270213Y-172389890D01*
X110119890Y-172540213D01*
X109994949Y-172712182D01*
X109990484Y-172720946D01*
X109942509Y-172771742D01*
X109874688Y-172788536D01*
X109808553Y-172765998D01*
X109769516Y-172720946D01*
X109765050Y-172712182D01*
X109640109Y-172540213D01*
X109489786Y-172389890D01*
X109317820Y-172264951D01*
X109128414Y-172168444D01*
X109128413Y-172168443D01*
X109128412Y-172168443D01*
X108926243Y-172102754D01*
X108926241Y-172102753D01*
X108926240Y-172102753D01*
X108764957Y-172077208D01*
X108716287Y-172069500D01*
X108503713Y-172069500D01*
X108455042Y-172077208D01*
X108293760Y-172102753D01*
X108091585Y-172168444D01*
X107902179Y-172264951D01*
X107730213Y-172389890D01*
X107579890Y-172540213D01*
X107454949Y-172712182D01*
X107450484Y-172720946D01*
X107402509Y-172771742D01*
X107334688Y-172788536D01*
X107268553Y-172765998D01*
X107229516Y-172720946D01*
X107225050Y-172712182D01*
X107100109Y-172540213D01*
X106949786Y-172389890D01*
X106777820Y-172264951D01*
X106588414Y-172168444D01*
X106588413Y-172168443D01*
X106588412Y-172168443D01*
X106386243Y-172102754D01*
X106386241Y-172102753D01*
X106386240Y-172102753D01*
X106224957Y-172077208D01*
X106176287Y-172069500D01*
X105963713Y-172069500D01*
X105915042Y-172077208D01*
X105753760Y-172102753D01*
X105551585Y-172168444D01*
X105362179Y-172264951D01*
X105190213Y-172389890D01*
X105039890Y-172540213D01*
X104914951Y-172712179D01*
X104818444Y-172901585D01*
X104752753Y-173103760D01*
X104719500Y-173313713D01*
X100500500Y-173313713D01*
X100500500Y-157573920D01*
X104449499Y-157573920D01*
X104478340Y-157718907D01*
X104478343Y-157718917D01*
X104534912Y-157855488D01*
X104534919Y-157855501D01*
X104617048Y-157978415D01*
X104617051Y-157978419D01*
X104721580Y-158082948D01*
X104721584Y-158082951D01*
X104844498Y-158165080D01*
X104844511Y-158165087D01*
X104981082Y-158221656D01*
X104981087Y-158221658D01*
X104981091Y-158221658D01*
X104981092Y-158221659D01*
X105126079Y-158250500D01*
X105126082Y-158250500D01*
X129223920Y-158250500D01*
X129321462Y-158231096D01*
X129368913Y-158221658D01*
X129505495Y-158165084D01*
X129628416Y-158082951D01*
X129732951Y-157978416D01*
X129815084Y-157855495D01*
X129871658Y-157718913D01*
X129900500Y-157573918D01*
X129900500Y-157426082D01*
X129900500Y-157426079D01*
X129871659Y-157281092D01*
X129871658Y-157281091D01*
X129871658Y-157281087D01*
X129871656Y-157281082D01*
X129815087Y-157144511D01*
X129815080Y-157144498D01*
X129732951Y-157021584D01*
X129732948Y-157021580D01*
X129628419Y-156917051D01*
X129628415Y-156917048D01*
X129505501Y-156834919D01*
X129505488Y-156834912D01*
X129368917Y-156778343D01*
X129368907Y-156778340D01*
X129223920Y-156749500D01*
X129223918Y-156749500D01*
X114973918Y-156749500D01*
X106074500Y-156749500D01*
X106007461Y-156729815D01*
X105961706Y-156677011D01*
X105950500Y-156625500D01*
X105950500Y-153875624D01*
X105970185Y-153808585D01*
X106022989Y-153762830D01*
X106092147Y-153752886D01*
X106143391Y-153772522D01*
X106244498Y-153840080D01*
X106244511Y-153840087D01*
X106330306Y-153875624D01*
X106381087Y-153896658D01*
X106381091Y-153896658D01*
X106381092Y-153896659D01*
X106526079Y-153925500D01*
X106526082Y-153925500D01*
X106673920Y-153925500D01*
X106771462Y-153906096D01*
X106818913Y-153896658D01*
X106955495Y-153840084D01*
X106983462Y-153821396D01*
X107050137Y-153800520D01*
X107052351Y-153800500D01*
X126451607Y-153800500D01*
X126451608Y-153800499D01*
X126572452Y-153776463D01*
X126686286Y-153729311D01*
X126788733Y-153660858D01*
X126875858Y-153573733D01*
X126944311Y-153471286D01*
X126991463Y-153357452D01*
X127015500Y-153236606D01*
X127015500Y-114352351D01*
X127035185Y-114285312D01*
X127036398Y-114283460D01*
X127055084Y-114255495D01*
X127111658Y-114118913D01*
X127140500Y-113973918D01*
X127140500Y-113826082D01*
X127140500Y-113826079D01*
X127111659Y-113681092D01*
X127111658Y-113681091D01*
X127111658Y-113681087D01*
X127111656Y-113681082D01*
X127055087Y-113544511D01*
X127055080Y-113544498D01*
X126972951Y-113421584D01*
X126972948Y-113421580D01*
X126868419Y-113317051D01*
X126868415Y-113317048D01*
X126745501Y-113234919D01*
X126745488Y-113234912D01*
X126608917Y-113178343D01*
X126608907Y-113178340D01*
X126463920Y-113149500D01*
X126463918Y-113149500D01*
X126316082Y-113149500D01*
X126316080Y-113149500D01*
X126171092Y-113178340D01*
X126171082Y-113178343D01*
X126034511Y-113234912D01*
X126034498Y-113234919D01*
X125911584Y-113317048D01*
X125911580Y-113317051D01*
X125807051Y-113421580D01*
X125807048Y-113421584D01*
X125724919Y-113544498D01*
X125724912Y-113544511D01*
X125668343Y-113681082D01*
X125668340Y-113681092D01*
X125639500Y-113826079D01*
X125639500Y-113826082D01*
X125639500Y-113973918D01*
X125639500Y-113973920D01*
X125639499Y-113973920D01*
X125668340Y-114118907D01*
X125668343Y-114118917D01*
X125724913Y-114255490D01*
X125724914Y-114255492D01*
X125743602Y-114283460D01*
X125764480Y-114350138D01*
X125764500Y-114352351D01*
X125764500Y-152425500D01*
X125744815Y-152492539D01*
X125692011Y-152538294D01*
X125640500Y-152549500D01*
X124389454Y-152549500D01*
X124322415Y-152529815D01*
X124276660Y-152477011D01*
X124266716Y-152407853D01*
X124295741Y-152344297D01*
X124301773Y-152337819D01*
X124335855Y-152303736D01*
X124335858Y-152303733D01*
X124404311Y-152201286D01*
X124451463Y-152087452D01*
X124475500Y-151966606D01*
X124475500Y-114352351D01*
X124495185Y-114285312D01*
X124496398Y-114283460D01*
X124515084Y-114255495D01*
X124571658Y-114118913D01*
X124600500Y-113973918D01*
X124600500Y-113826082D01*
X124600500Y-113826079D01*
X124571659Y-113681092D01*
X124571658Y-113681091D01*
X124571658Y-113681087D01*
X124571656Y-113681082D01*
X124515087Y-113544511D01*
X124515080Y-113544498D01*
X124432951Y-113421584D01*
X124432948Y-113421580D01*
X124328419Y-113317051D01*
X124328415Y-113317048D01*
X124205501Y-113234919D01*
X124205488Y-113234912D01*
X124068917Y-113178343D01*
X124068907Y-113178340D01*
X123923920Y-113149500D01*
X123923918Y-113149500D01*
X123776082Y-113149500D01*
X123776080Y-113149500D01*
X123631092Y-113178340D01*
X123631082Y-113178343D01*
X123494511Y-113234912D01*
X123494498Y-113234919D01*
X123371584Y-113317048D01*
X123371580Y-113317051D01*
X123267051Y-113421580D01*
X123267048Y-113421584D01*
X123184919Y-113544498D01*
X123184912Y-113544511D01*
X123128343Y-113681082D01*
X123128340Y-113681092D01*
X123099500Y-113826079D01*
X123099500Y-113826082D01*
X123099500Y-113973918D01*
X123099500Y-113973920D01*
X123099499Y-113973920D01*
X123128340Y-114118907D01*
X123128343Y-114118917D01*
X123184913Y-114255490D01*
X123184914Y-114255492D01*
X123203602Y-114283460D01*
X123224480Y-114350138D01*
X123224500Y-114352351D01*
X123224500Y-151155500D01*
X123204815Y-151222539D01*
X123152011Y-151268294D01*
X123100500Y-151279500D01*
X121849454Y-151279500D01*
X121782415Y-151259815D01*
X121736660Y-151207011D01*
X121726716Y-151137853D01*
X121755741Y-151074297D01*
X121761773Y-151067819D01*
X121795855Y-151033736D01*
X121795858Y-151033733D01*
X121864311Y-150931286D01*
X121911463Y-150817452D01*
X121935500Y-150696606D01*
X121935500Y-114352351D01*
X121955185Y-114285312D01*
X121956398Y-114283460D01*
X121975084Y-114255495D01*
X122031658Y-114118913D01*
X122060500Y-113973918D01*
X122060500Y-113826082D01*
X122060500Y-113826079D01*
X122031659Y-113681092D01*
X122031658Y-113681091D01*
X122031658Y-113681087D01*
X122031656Y-113681082D01*
X121975087Y-113544511D01*
X121975080Y-113544498D01*
X121892951Y-113421584D01*
X121892948Y-113421580D01*
X121788419Y-113317051D01*
X121788415Y-113317048D01*
X121665501Y-113234919D01*
X121665488Y-113234912D01*
X121528917Y-113178343D01*
X121528907Y-113178340D01*
X121383920Y-113149500D01*
X121383918Y-113149500D01*
X121236082Y-113149500D01*
X121236080Y-113149500D01*
X121091092Y-113178340D01*
X121091082Y-113178343D01*
X120954511Y-113234912D01*
X120954498Y-113234919D01*
X120831584Y-113317048D01*
X120831580Y-113317051D01*
X120727051Y-113421580D01*
X120727048Y-113421584D01*
X120644919Y-113544498D01*
X120644912Y-113544511D01*
X120588343Y-113681082D01*
X120588340Y-113681092D01*
X120559500Y-113826079D01*
X120559500Y-113826082D01*
X120559500Y-113973918D01*
X120559500Y-113973920D01*
X120559499Y-113973920D01*
X120588340Y-114118907D01*
X120588343Y-114118917D01*
X120644913Y-114255490D01*
X120644914Y-114255492D01*
X120663602Y-114283460D01*
X120684480Y-114350138D01*
X120684500Y-114352351D01*
X120684500Y-149885500D01*
X120664815Y-149952539D01*
X120612011Y-149998294D01*
X120560500Y-150009500D01*
X119309454Y-150009500D01*
X119242415Y-149989815D01*
X119196660Y-149937011D01*
X119186716Y-149867853D01*
X119215741Y-149804297D01*
X119221773Y-149797819D01*
X119255855Y-149763736D01*
X119255858Y-149763733D01*
X119324311Y-149661286D01*
X119371463Y-149547452D01*
X119395500Y-149426606D01*
X119395500Y-114352351D01*
X119415185Y-114285312D01*
X119416398Y-114283460D01*
X119435084Y-114255495D01*
X119491658Y-114118913D01*
X119520500Y-113973918D01*
X119520500Y-113826082D01*
X119520500Y-113826079D01*
X119491659Y-113681092D01*
X119491658Y-113681091D01*
X119491658Y-113681087D01*
X119491656Y-113681082D01*
X119435087Y-113544511D01*
X119435080Y-113544498D01*
X119352951Y-113421584D01*
X119352948Y-113421580D01*
X119248419Y-113317051D01*
X119248415Y-113317048D01*
X119125501Y-113234919D01*
X119125488Y-113234912D01*
X118988917Y-113178343D01*
X118988907Y-113178340D01*
X118843920Y-113149500D01*
X118843918Y-113149500D01*
X118696082Y-113149500D01*
X118696080Y-113149500D01*
X118551092Y-113178340D01*
X118551082Y-113178343D01*
X118414511Y-113234912D01*
X118414498Y-113234919D01*
X118291584Y-113317048D01*
X118291580Y-113317051D01*
X118187051Y-113421580D01*
X118187048Y-113421584D01*
X118104919Y-113544498D01*
X118104912Y-113544511D01*
X118048343Y-113681082D01*
X118048340Y-113681092D01*
X118019500Y-113826079D01*
X118019500Y-113826082D01*
X118019500Y-113973918D01*
X118019500Y-113973920D01*
X118019499Y-113973920D01*
X118048340Y-114118907D01*
X118048343Y-114118917D01*
X118104913Y-114255490D01*
X118104914Y-114255492D01*
X118123602Y-114283460D01*
X118144480Y-114350138D01*
X118144500Y-114352351D01*
X118144500Y-148615500D01*
X118124815Y-148682539D01*
X118072011Y-148728294D01*
X118020500Y-148739500D01*
X116769454Y-148739500D01*
X116702415Y-148719815D01*
X116656660Y-148667011D01*
X116646716Y-148597853D01*
X116675741Y-148534297D01*
X116681773Y-148527819D01*
X116715855Y-148493736D01*
X116715858Y-148493733D01*
X116784311Y-148391286D01*
X116831463Y-148277452D01*
X116855500Y-148156606D01*
X116855500Y-114352351D01*
X116875185Y-114285312D01*
X116876398Y-114283460D01*
X116895084Y-114255495D01*
X116951658Y-114118913D01*
X116980500Y-113973918D01*
X116980500Y-113826082D01*
X116980500Y-113826079D01*
X116951659Y-113681092D01*
X116951658Y-113681091D01*
X116951658Y-113681087D01*
X116951656Y-113681082D01*
X116895087Y-113544511D01*
X116895080Y-113544498D01*
X116812951Y-113421584D01*
X116812948Y-113421580D01*
X116708419Y-113317051D01*
X116708415Y-113317048D01*
X116585501Y-113234919D01*
X116585488Y-113234912D01*
X116448917Y-113178343D01*
X116448907Y-113178340D01*
X116303920Y-113149500D01*
X116303918Y-113149500D01*
X116156082Y-113149500D01*
X116156080Y-113149500D01*
X116011092Y-113178340D01*
X116011082Y-113178343D01*
X115874511Y-113234912D01*
X115874498Y-113234919D01*
X115751584Y-113317048D01*
X115751580Y-113317051D01*
X115647051Y-113421580D01*
X115645354Y-113423649D01*
X115644190Y-113424441D01*
X115642741Y-113425891D01*
X115642466Y-113425616D01*
X115587609Y-113462984D01*
X115517764Y-113464855D01*
X115457995Y-113428668D01*
X115427279Y-113365913D01*
X115425500Y-113344985D01*
X115425500Y-113188393D01*
X115425499Y-113188389D01*
X115401464Y-113067555D01*
X115401463Y-113067548D01*
X115354311Y-112953714D01*
X115354310Y-112953713D01*
X115354307Y-112953707D01*
X115285858Y-112851267D01*
X115285855Y-112851263D01*
X115198736Y-112764144D01*
X115198732Y-112764141D01*
X115096292Y-112695692D01*
X115096283Y-112695687D01*
X114982454Y-112648538D01*
X114982455Y-112648538D01*
X114982452Y-112648537D01*
X114982448Y-112648536D01*
X114982444Y-112648535D01*
X114861610Y-112624500D01*
X114861606Y-112624500D01*
X108671606Y-112624500D01*
X108548394Y-112624500D01*
X108548389Y-112624500D01*
X108427555Y-112648535D01*
X108427545Y-112648538D01*
X108313716Y-112695687D01*
X108313707Y-112695692D01*
X108211267Y-112764141D01*
X108211263Y-112764144D01*
X108124144Y-112851263D01*
X108124141Y-112851267D01*
X108055692Y-112953707D01*
X108055687Y-112953716D01*
X108008538Y-113067545D01*
X108008535Y-113067555D01*
X107984500Y-113188389D01*
X107984500Y-113447648D01*
X107964815Y-113514687D01*
X107963603Y-113516538D01*
X107944913Y-113544508D01*
X107888343Y-113681082D01*
X107888340Y-113681092D01*
X107859500Y-113826079D01*
X107859500Y-113826082D01*
X107859500Y-113973918D01*
X107859500Y-113973920D01*
X107859499Y-113973920D01*
X107888340Y-114118907D01*
X107888343Y-114118917D01*
X107944912Y-114255488D01*
X107944919Y-114255501D01*
X108027048Y-114378415D01*
X108027051Y-114378419D01*
X108131580Y-114482948D01*
X108131584Y-114482951D01*
X108254498Y-114565080D01*
X108254511Y-114565087D01*
X108391082Y-114621656D01*
X108391087Y-114621658D01*
X108391091Y-114621658D01*
X108391092Y-114621659D01*
X108536079Y-114650500D01*
X108536082Y-114650500D01*
X108683920Y-114650500D01*
X108781462Y-114631096D01*
X108828913Y-114621658D01*
X108965495Y-114565084D01*
X109088416Y-114482951D01*
X109192951Y-114378416D01*
X109275084Y-114255495D01*
X109331658Y-114118913D01*
X109360224Y-113975308D01*
X109392609Y-113913397D01*
X109453325Y-113878823D01*
X109481841Y-113875500D01*
X110278159Y-113875500D01*
X110345198Y-113895185D01*
X110390953Y-113947989D01*
X110399776Y-113975308D01*
X110428340Y-114118907D01*
X110428343Y-114118917D01*
X110484913Y-114255490D01*
X110484914Y-114255492D01*
X110503602Y-114283460D01*
X110524480Y-114350138D01*
X110524500Y-114352351D01*
X110524500Y-144805500D01*
X110504815Y-144872539D01*
X110452011Y-144918294D01*
X110400500Y-144929500D01*
X107052351Y-144929500D01*
X106985312Y-144909815D01*
X106983544Y-144908658D01*
X106955495Y-144889916D01*
X106955491Y-144889914D01*
X106955489Y-144889913D01*
X106818917Y-144833343D01*
X106818907Y-144833340D01*
X106673920Y-144804500D01*
X106673918Y-144804500D01*
X106526082Y-144804500D01*
X106526080Y-144804500D01*
X106381092Y-144833340D01*
X106381082Y-144833343D01*
X106244511Y-144889912D01*
X106244493Y-144889922D01*
X106143390Y-144957477D01*
X106076713Y-144978355D01*
X106009333Y-144959870D01*
X105962643Y-144907891D01*
X105950500Y-144854375D01*
X105950500Y-144126079D01*
X105921659Y-143981092D01*
X105921658Y-143981091D01*
X105921658Y-143981087D01*
X105921656Y-143981082D01*
X105865087Y-143844511D01*
X105865080Y-143844498D01*
X105782951Y-143721584D01*
X105782948Y-143721580D01*
X105678419Y-143617051D01*
X105678415Y-143617048D01*
X105555501Y-143534919D01*
X105555488Y-143534912D01*
X105418917Y-143478343D01*
X105418907Y-143478340D01*
X105273920Y-143449500D01*
X105273918Y-143449500D01*
X105126082Y-143449500D01*
X105126080Y-143449500D01*
X104981092Y-143478340D01*
X104981082Y-143478343D01*
X104844511Y-143534912D01*
X104844498Y-143534919D01*
X104721584Y-143617048D01*
X104721580Y-143617051D01*
X104617051Y-143721580D01*
X104617048Y-143721584D01*
X104534919Y-143844498D01*
X104534912Y-143844511D01*
X104478343Y-143981082D01*
X104478340Y-143981092D01*
X104449500Y-144126079D01*
X104449500Y-144126082D01*
X104449500Y-157573918D01*
X104449500Y-157573920D01*
X104449499Y-157573920D01*
X100500500Y-157573920D01*
X100500500Y-105682155D01*
X104720000Y-105682155D01*
X104720000Y-106330000D01*
X105636988Y-106330000D01*
X105604075Y-106387007D01*
X105570000Y-106514174D01*
X105570000Y-106645826D01*
X105604075Y-106772993D01*
X105636988Y-106830000D01*
X104720000Y-106830000D01*
X104720000Y-107477844D01*
X104726401Y-107537372D01*
X104726403Y-107537379D01*
X104776645Y-107672086D01*
X104776649Y-107672093D01*
X104862809Y-107787187D01*
X104862812Y-107787190D01*
X104977906Y-107873350D01*
X104977913Y-107873354D01*
X105112620Y-107923596D01*
X105112627Y-107923598D01*
X105172155Y-107929999D01*
X105172172Y-107930000D01*
X105820000Y-107930000D01*
X105820000Y-107013012D01*
X105877007Y-107045925D01*
X106004174Y-107080000D01*
X106135826Y-107080000D01*
X106262993Y-107045925D01*
X106320000Y-107013012D01*
X106320000Y-107930000D01*
X106967828Y-107930000D01*
X106967844Y-107929999D01*
X107027372Y-107923598D01*
X107027379Y-107923596D01*
X107162086Y-107873354D01*
X107162093Y-107873350D01*
X107277187Y-107787190D01*
X107277190Y-107787187D01*
X107363350Y-107672093D01*
X107363354Y-107672086D01*
X107412422Y-107540529D01*
X107454293Y-107484595D01*
X107519757Y-107460178D01*
X107588030Y-107475030D01*
X107616285Y-107496181D01*
X107730213Y-107610109D01*
X107902179Y-107735048D01*
X107902181Y-107735049D01*
X107902184Y-107735051D01*
X108091588Y-107831557D01*
X108293757Y-107897246D01*
X108503713Y-107930500D01*
X108503714Y-107930500D01*
X108716286Y-107930500D01*
X108716287Y-107930500D01*
X108926243Y-107897246D01*
X109128412Y-107831557D01*
X109317816Y-107735051D01*
X109404471Y-107672093D01*
X109489786Y-107610109D01*
X109489788Y-107610106D01*
X109489792Y-107610104D01*
X109640104Y-107459792D01*
X109640106Y-107459788D01*
X109640109Y-107459786D01*
X109765048Y-107287820D01*
X109765047Y-107287820D01*
X109765051Y-107287816D01*
X109769514Y-107279054D01*
X109817488Y-107228259D01*
X109885308Y-107211463D01*
X109951444Y-107233999D01*
X109990486Y-107279056D01*
X109994951Y-107287820D01*
X110119890Y-107459786D01*
X110270213Y-107610109D01*
X110442179Y-107735048D01*
X110442181Y-107735049D01*
X110442184Y-107735051D01*
X110631588Y-107831557D01*
X110833757Y-107897246D01*
X111043713Y-107930500D01*
X111043714Y-107930500D01*
X111256286Y-107930500D01*
X111256287Y-107930500D01*
X111466243Y-107897246D01*
X111668412Y-107831557D01*
X111857816Y-107735051D01*
X111944471Y-107672093D01*
X112029786Y-107610109D01*
X112029788Y-107610106D01*
X112029792Y-107610104D01*
X112180104Y-107459792D01*
X112180106Y-107459788D01*
X112180109Y-107459786D01*
X112305048Y-107287820D01*
X112305047Y-107287820D01*
X112305051Y-107287816D01*
X112309514Y-107279054D01*
X112357488Y-107228259D01*
X112425308Y-107211463D01*
X112491444Y-107233999D01*
X112530486Y-107279056D01*
X112534951Y-107287820D01*
X112659890Y-107459786D01*
X112810213Y-107610109D01*
X112982179Y-107735048D01*
X112982181Y-107735049D01*
X112982184Y-107735051D01*
X113171588Y-107831557D01*
X113373757Y-107897246D01*
X113583713Y-107930500D01*
X113583714Y-107930500D01*
X113796286Y-107930500D01*
X113796287Y-107930500D01*
X114006243Y-107897246D01*
X114208412Y-107831557D01*
X114397816Y-107735051D01*
X114484471Y-107672093D01*
X114569786Y-107610109D01*
X114569788Y-107610106D01*
X114569792Y-107610104D01*
X114720104Y-107459792D01*
X114720106Y-107459788D01*
X114720109Y-107459786D01*
X114845048Y-107287820D01*
X114845047Y-107287820D01*
X114845051Y-107287816D01*
X114849514Y-107279054D01*
X114897488Y-107228259D01*
X114965308Y-107211463D01*
X115031444Y-107233999D01*
X115070486Y-107279056D01*
X115074951Y-107287820D01*
X115199890Y-107459786D01*
X115350213Y-107610109D01*
X115522179Y-107735048D01*
X115522181Y-107735049D01*
X115522184Y-107735051D01*
X115711588Y-107831557D01*
X115913757Y-107897246D01*
X116123713Y-107930500D01*
X116123714Y-107930500D01*
X116336286Y-107930500D01*
X116336287Y-107930500D01*
X116546243Y-107897246D01*
X116748412Y-107831557D01*
X116937816Y-107735051D01*
X117024471Y-107672093D01*
X117109786Y-107610109D01*
X117109788Y-107610106D01*
X117109792Y-107610104D01*
X117260104Y-107459792D01*
X117260106Y-107459788D01*
X117260109Y-107459786D01*
X117385048Y-107287820D01*
X117385047Y-107287820D01*
X117385051Y-107287816D01*
X117389514Y-107279054D01*
X117437488Y-107228259D01*
X117505308Y-107211463D01*
X117571444Y-107233999D01*
X117610486Y-107279056D01*
X117614951Y-107287820D01*
X117739890Y-107459786D01*
X117890213Y-107610109D01*
X118062179Y-107735048D01*
X118062181Y-107735049D01*
X118062184Y-107735051D01*
X118251588Y-107831557D01*
X118453757Y-107897246D01*
X118663713Y-107930500D01*
X118663714Y-107930500D01*
X118876286Y-107930500D01*
X118876287Y-107930500D01*
X119086243Y-107897246D01*
X119288412Y-107831557D01*
X119477816Y-107735051D01*
X119564471Y-107672093D01*
X119649786Y-107610109D01*
X119649788Y-107610106D01*
X119649792Y-107610104D01*
X119800104Y-107459792D01*
X119800106Y-107459788D01*
X119800109Y-107459786D01*
X119925048Y-107287820D01*
X119925047Y-107287820D01*
X119925051Y-107287816D01*
X119929514Y-107279054D01*
X119977488Y-107228259D01*
X120045308Y-107211463D01*
X120111444Y-107233999D01*
X120150486Y-107279056D01*
X120154951Y-107287820D01*
X120279890Y-107459786D01*
X120430213Y-107610109D01*
X120602179Y-107735048D01*
X120602181Y-107735049D01*
X120602184Y-107735051D01*
X120791588Y-107831557D01*
X120993757Y-107897246D01*
X121203713Y-107930500D01*
X121203714Y-107930500D01*
X121416286Y-107930500D01*
X121416287Y-107930500D01*
X121626243Y-107897246D01*
X121828412Y-107831557D01*
X122017816Y-107735051D01*
X122104471Y-107672093D01*
X122189786Y-107610109D01*
X122189788Y-107610106D01*
X122189792Y-107610104D01*
X122340104Y-107459792D01*
X122340106Y-107459788D01*
X122340109Y-107459786D01*
X122465048Y-107287820D01*
X122465047Y-107287820D01*
X122465051Y-107287816D01*
X122469514Y-107279054D01*
X122517488Y-107228259D01*
X122585308Y-107211463D01*
X122651444Y-107233999D01*
X122690486Y-107279056D01*
X122694951Y-107287820D01*
X122819890Y-107459786D01*
X122970213Y-107610109D01*
X123142179Y-107735048D01*
X123142181Y-107735049D01*
X123142184Y-107735051D01*
X123331588Y-107831557D01*
X123533757Y-107897246D01*
X123743713Y-107930500D01*
X123743714Y-107930500D01*
X123956286Y-107930500D01*
X123956287Y-107930500D01*
X124166243Y-107897246D01*
X124368412Y-107831557D01*
X124557816Y-107735051D01*
X124644471Y-107672093D01*
X124729786Y-107610109D01*
X124729788Y-107610106D01*
X124729792Y-107610104D01*
X124880104Y-107459792D01*
X124880106Y-107459788D01*
X124880109Y-107459786D01*
X125005048Y-107287820D01*
X125005047Y-107287820D01*
X125005051Y-107287816D01*
X125009514Y-107279054D01*
X125057488Y-107228259D01*
X125125308Y-107211463D01*
X125191444Y-107233999D01*
X125230486Y-107279056D01*
X125234951Y-107287820D01*
X125359890Y-107459786D01*
X125510213Y-107610109D01*
X125682179Y-107735048D01*
X125682181Y-107735049D01*
X125682184Y-107735051D01*
X125871588Y-107831557D01*
X126073757Y-107897246D01*
X126283713Y-107930500D01*
X126283714Y-107930500D01*
X126496286Y-107930500D01*
X126496287Y-107930500D01*
X126706243Y-107897246D01*
X126908412Y-107831557D01*
X127097816Y-107735051D01*
X127184471Y-107672093D01*
X127269786Y-107610109D01*
X127269788Y-107610106D01*
X127269792Y-107610104D01*
X127420104Y-107459792D01*
X127420106Y-107459788D01*
X127420109Y-107459786D01*
X127505890Y-107341717D01*
X127545051Y-107287816D01*
X127549793Y-107278508D01*
X127597763Y-107227711D01*
X127665583Y-107210911D01*
X127731719Y-107233445D01*
X127770763Y-107278500D01*
X127775373Y-107287547D01*
X127814728Y-107341716D01*
X128447037Y-106709408D01*
X128464075Y-106772993D01*
X128529901Y-106887007D01*
X128622993Y-106980099D01*
X128737007Y-107045925D01*
X128800590Y-107062962D01*
X128168282Y-107695269D01*
X128168282Y-107695270D01*
X128222449Y-107734624D01*
X128411782Y-107831095D01*
X128613870Y-107896757D01*
X128823754Y-107930000D01*
X129036246Y-107930000D01*
X129246127Y-107896757D01*
X129246130Y-107896757D01*
X129448217Y-107831095D01*
X129637554Y-107734622D01*
X129691716Y-107695270D01*
X129691717Y-107695270D01*
X129059408Y-107062962D01*
X129122993Y-107045925D01*
X129237007Y-106980099D01*
X129330099Y-106887007D01*
X129395925Y-106772993D01*
X129412962Y-106709409D01*
X130045270Y-107341717D01*
X130045270Y-107341716D01*
X130084622Y-107287554D01*
X130181095Y-107098217D01*
X130246757Y-106896130D01*
X130246757Y-106896127D01*
X130280000Y-106686246D01*
X130280000Y-106473753D01*
X130246757Y-106263872D01*
X130246757Y-106263869D01*
X130181095Y-106061782D01*
X130084624Y-105872449D01*
X130045270Y-105818282D01*
X130045269Y-105818282D01*
X129412962Y-106450590D01*
X129395925Y-106387007D01*
X129330099Y-106272993D01*
X129237007Y-106179901D01*
X129122993Y-106114075D01*
X129059409Y-106097037D01*
X129691716Y-105464728D01*
X129637550Y-105425375D01*
X129448217Y-105328904D01*
X129246129Y-105263242D01*
X129036246Y-105230000D01*
X128823754Y-105230000D01*
X128613872Y-105263242D01*
X128613869Y-105263242D01*
X128411782Y-105328904D01*
X128222439Y-105425380D01*
X128168282Y-105464727D01*
X128168282Y-105464728D01*
X128800591Y-106097037D01*
X128737007Y-106114075D01*
X128622993Y-106179901D01*
X128529901Y-106272993D01*
X128464075Y-106387007D01*
X128447037Y-106450591D01*
X127814728Y-105818282D01*
X127814727Y-105818282D01*
X127775380Y-105872440D01*
X127775376Y-105872446D01*
X127770760Y-105881505D01*
X127722781Y-105932297D01*
X127654959Y-105949087D01*
X127588826Y-105926543D01*
X127549794Y-105881493D01*
X127545051Y-105872184D01*
X127545049Y-105872181D01*
X127545048Y-105872179D01*
X127420109Y-105700213D01*
X127269786Y-105549890D01*
X127097820Y-105424951D01*
X126908414Y-105328444D01*
X126908413Y-105328443D01*
X126908412Y-105328443D01*
X126706243Y-105262754D01*
X126706241Y-105262753D01*
X126706240Y-105262753D01*
X126544957Y-105237208D01*
X126496287Y-105229500D01*
X126283713Y-105229500D01*
X126235042Y-105237208D01*
X126073760Y-105262753D01*
X125871585Y-105328444D01*
X125682179Y-105424951D01*
X125510213Y-105549890D01*
X125359890Y-105700213D01*
X125234949Y-105872182D01*
X125230484Y-105880946D01*
X125182509Y-105931742D01*
X125114688Y-105948536D01*
X125048553Y-105925998D01*
X125009516Y-105880946D01*
X125005050Y-105872182D01*
X124880109Y-105700213D01*
X124729786Y-105549890D01*
X124557820Y-105424951D01*
X124368414Y-105328444D01*
X124368413Y-105328443D01*
X124368412Y-105328443D01*
X124166243Y-105262754D01*
X124166241Y-105262753D01*
X124166240Y-105262753D01*
X124004957Y-105237208D01*
X123956287Y-105229500D01*
X123743713Y-105229500D01*
X123695042Y-105237208D01*
X123533760Y-105262753D01*
X123331585Y-105328444D01*
X123142179Y-105424951D01*
X122970213Y-105549890D01*
X122819890Y-105700213D01*
X122694949Y-105872182D01*
X122690484Y-105880946D01*
X122642509Y-105931742D01*
X122574688Y-105948536D01*
X122508553Y-105925998D01*
X122469516Y-105880946D01*
X122465050Y-105872182D01*
X122340109Y-105700213D01*
X122189786Y-105549890D01*
X122017820Y-105424951D01*
X121828414Y-105328444D01*
X121828413Y-105328443D01*
X121828412Y-105328443D01*
X121626243Y-105262754D01*
X121626241Y-105262753D01*
X121626240Y-105262753D01*
X121464957Y-105237208D01*
X121416287Y-105229500D01*
X121203713Y-105229500D01*
X121155042Y-105237208D01*
X120993760Y-105262753D01*
X120791585Y-105328444D01*
X120602179Y-105424951D01*
X120430213Y-105549890D01*
X120279890Y-105700213D01*
X120154949Y-105872182D01*
X120150484Y-105880946D01*
X120102509Y-105931742D01*
X120034688Y-105948536D01*
X119968553Y-105925998D01*
X119929516Y-105880946D01*
X119925050Y-105872182D01*
X119800109Y-105700213D01*
X119649786Y-105549890D01*
X119477820Y-105424951D01*
X119288414Y-105328444D01*
X119288413Y-105328443D01*
X119288412Y-105328443D01*
X119086243Y-105262754D01*
X119086241Y-105262753D01*
X119086240Y-105262753D01*
X118924957Y-105237208D01*
X118876287Y-105229500D01*
X118663713Y-105229500D01*
X118615042Y-105237208D01*
X118453760Y-105262753D01*
X118251585Y-105328444D01*
X118062179Y-105424951D01*
X117890213Y-105549890D01*
X117739890Y-105700213D01*
X117614949Y-105872182D01*
X117610484Y-105880946D01*
X117562509Y-105931742D01*
X117494688Y-105948536D01*
X117428553Y-105925998D01*
X117389516Y-105880946D01*
X117385050Y-105872182D01*
X117260109Y-105700213D01*
X117109786Y-105549890D01*
X116937820Y-105424951D01*
X116748414Y-105328444D01*
X116748413Y-105328443D01*
X116748412Y-105328443D01*
X116546243Y-105262754D01*
X116546241Y-105262753D01*
X116546240Y-105262753D01*
X116384957Y-105237208D01*
X116336287Y-105229500D01*
X116123713Y-105229500D01*
X116075042Y-105237208D01*
X115913760Y-105262753D01*
X115711585Y-105328444D01*
X115522179Y-105424951D01*
X115350213Y-105549890D01*
X115199890Y-105700213D01*
X115074949Y-105872182D01*
X115070484Y-105880946D01*
X115022509Y-105931742D01*
X114954688Y-105948536D01*
X114888553Y-105925998D01*
X114849516Y-105880946D01*
X114845050Y-105872182D01*
X114720109Y-105700213D01*
X114569786Y-105549890D01*
X114397820Y-105424951D01*
X114208414Y-105328444D01*
X114208413Y-105328443D01*
X114208412Y-105328443D01*
X114006243Y-105262754D01*
X114006241Y-105262753D01*
X114006240Y-105262753D01*
X113844957Y-105237208D01*
X113796287Y-105229500D01*
X113583713Y-105229500D01*
X113535042Y-105237208D01*
X113373760Y-105262753D01*
X113171585Y-105328444D01*
X112982179Y-105424951D01*
X112810213Y-105549890D01*
X112659890Y-105700213D01*
X112534949Y-105872182D01*
X112530484Y-105880946D01*
X112482509Y-105931742D01*
X112414688Y-105948536D01*
X112348553Y-105925998D01*
X112309516Y-105880946D01*
X112305050Y-105872182D01*
X112180109Y-105700213D01*
X112029786Y-105549890D01*
X111857820Y-105424951D01*
X111668414Y-105328444D01*
X111668413Y-105328443D01*
X111668412Y-105328443D01*
X111466243Y-105262754D01*
X111466241Y-105262753D01*
X111466240Y-105262753D01*
X111304957Y-105237208D01*
X111256287Y-105229500D01*
X111043713Y-105229500D01*
X110995042Y-105237208D01*
X110833760Y-105262753D01*
X110631585Y-105328444D01*
X110442179Y-105424951D01*
X110270213Y-105549890D01*
X110119890Y-105700213D01*
X109994949Y-105872182D01*
X109990484Y-105880946D01*
X109942509Y-105931742D01*
X109874688Y-105948536D01*
X109808553Y-105925998D01*
X109769516Y-105880946D01*
X109765050Y-105872182D01*
X109640109Y-105700213D01*
X109489786Y-105549890D01*
X109317820Y-105424951D01*
X109128414Y-105328444D01*
X109128413Y-105328443D01*
X109128412Y-105328443D01*
X108926243Y-105262754D01*
X108926241Y-105262753D01*
X108926240Y-105262753D01*
X108764957Y-105237208D01*
X108716287Y-105229500D01*
X108503713Y-105229500D01*
X108455042Y-105237208D01*
X108293760Y-105262753D01*
X108091585Y-105328444D01*
X107902179Y-105424951D01*
X107730215Y-105549889D01*
X107616285Y-105663819D01*
X107554962Y-105697303D01*
X107485270Y-105692319D01*
X107429337Y-105650447D01*
X107412422Y-105619470D01*
X107363354Y-105487913D01*
X107363350Y-105487906D01*
X107277190Y-105372812D01*
X107277187Y-105372809D01*
X107162093Y-105286649D01*
X107162086Y-105286645D01*
X107027379Y-105236403D01*
X107027372Y-105236401D01*
X106967844Y-105230000D01*
X106320000Y-105230000D01*
X106320000Y-106146988D01*
X106262993Y-106114075D01*
X106135826Y-106080000D01*
X106004174Y-106080000D01*
X105877007Y-106114075D01*
X105820000Y-106146988D01*
X105820000Y-105230000D01*
X105172155Y-105230000D01*
X105112627Y-105236401D01*
X105112620Y-105236403D01*
X104977913Y-105286645D01*
X104977906Y-105286649D01*
X104862812Y-105372809D01*
X104862809Y-105372812D01*
X104776649Y-105487906D01*
X104776645Y-105487913D01*
X104726403Y-105622620D01*
X104726401Y-105622627D01*
X104720000Y-105682155D01*
X100500500Y-105682155D01*
X100500500Y-100624500D01*
X100520185Y-100557461D01*
X100572989Y-100511706D01*
X100624500Y-100500500D01*
X134375500Y-100500500D01*
X134442539Y-100520185D01*
G37*
%TD.AperFunction*%
%TD*%
M02*
