%TF.GenerationSoftware,KiCad,Pcbnew,10.0.3*%
%TF.CreationDate,2026-07-08T12:05:27+02:00*%
%TF.ProjectId,musicbrain-pot8,6d757369-6362-4726-9169-6e2d706f7438,1.0*%
%TF.SameCoordinates,Original*%
%TF.FileFunction,Soldermask,Bot*%
%TF.FilePolarity,Negative*%
%FSLAX46Y46*%
G04 Gerber Fmt 4.6, Leading zero omitted, Abs format (unit mm)*
G04 Created by KiCad (PCBNEW 10.0.3) date 2026-07-08 12:05:27*
%MOMM*%
%LPD*%
G01*
G04 APERTURE LIST*
%ADD10R,1.700000X1.700000*%
%ADD11C,1.700000*%
%ADD12O,1.800000X2.100000*%
G04 APERTURE END LIST*
D10*
%TO.C,J1*%
X166430000Y-173420000D03*
D11*
X166430000Y-175960000D03*
X163890000Y-173420000D03*
X163890000Y-175960000D03*
X161350000Y-173420000D03*
X161350000Y-175960000D03*
X158810000Y-173420000D03*
X158810000Y-175960000D03*
X156270000Y-173420000D03*
X156270000Y-175960000D03*
X153730000Y-173420000D03*
X153730000Y-175960000D03*
X151190000Y-173420000D03*
X151190000Y-175960000D03*
X148650000Y-173420000D03*
X148650000Y-175960000D03*
X146110000Y-173420000D03*
X146110000Y-175960000D03*
X143570000Y-173420000D03*
X143570000Y-175960000D03*
%TD*%
%TO.C,RV1*%
X105250000Y-109300000D03*
X107750000Y-109300000D03*
X110250000Y-109300000D03*
D12*
X102150000Y-101800000D03*
X113350000Y-101800000D03*
%TD*%
D11*
%TO.C,RV2*%
X118750000Y-109300000D03*
X121250000Y-109300000D03*
X123750000Y-109300000D03*
D12*
X115650000Y-101800000D03*
X126850000Y-101800000D03*
%TD*%
D11*
%TO.C,RV3*%
X132250000Y-109300000D03*
X134750000Y-109300000D03*
X137250000Y-109300000D03*
D12*
X129150000Y-101800000D03*
X140350000Y-101800000D03*
%TD*%
D11*
%TO.C,RV4*%
X145750000Y-109300000D03*
X148250000Y-109300000D03*
X150750000Y-109300000D03*
D12*
X142650000Y-101800000D03*
X153850000Y-101800000D03*
%TD*%
D11*
%TO.C,RV5*%
X159250000Y-109300000D03*
X161750000Y-109300000D03*
X164250000Y-109300000D03*
D12*
X156150000Y-101800000D03*
X167350000Y-101800000D03*
%TD*%
D11*
%TO.C,RV6*%
X172750000Y-109300000D03*
X175250000Y-109300000D03*
X177750000Y-109300000D03*
D12*
X169650000Y-101800000D03*
X180850000Y-101800000D03*
%TD*%
D11*
%TO.C,RV7*%
X186250000Y-109300000D03*
X188750000Y-109300000D03*
X191250000Y-109300000D03*
D12*
X183150000Y-101800000D03*
X194350000Y-101800000D03*
%TD*%
D11*
%TO.C,RV8*%
X199750000Y-109300000D03*
X202250000Y-109300000D03*
X204750000Y-109300000D03*
D12*
X196650000Y-101800000D03*
X207850000Y-101800000D03*
%TD*%
M02*
