M48
; DRILL file KiCad 10.0.3 date 2026-07-08T12:05:27
; FORMAT={-:-/ absolute / metric / decimal}
; #@! TF.CreationDate,2026-07-08T12:05:27+02:00
; #@! TF.GenerationSoftware,Kicad,Pcbnew,10.0.3
; #@! TF.FileFunction,Plated,1,2,PTH
FMAT,2
METRIC
; #@! TA.AperFunction,Plated,PTH,ViaDrill
T1C0.300
; #@! TA.AperFunction,Plated,PTH,ComponentDrill
T2C1.000
; #@! TA.AperFunction,Plated,PTH,ComponentDrill
T3C1.200
%
G90
G05
T1
X100.9Y-145.0
X101.6Y-130.9
X102.0Y-178.0
X102.4Y-123.6
X103.2Y-124.4
X104.0Y-125.2
X104.8Y-126.0
X107.75Y-134.6
X110.0Y-122.0
X120.0Y-155.0
X121.25Y-135.4
X128.0Y-104.3
X134.75Y-136.2
X140.0Y-120.0
X148.25Y-137.0
X150.555Y-130.9
X150.555Y-134.6
X151.825Y-130.9
X151.825Y-135.4
X153.095Y-136.2
X154.365Y-126.0
X154.365Y-137.0
X155.635Y-124.4
X155.635Y-137.8
X156.905Y-125.2
X156.905Y-138.6
X158.175Y-123.6
X158.175Y-139.4
X159.445Y-140.2
X161.75Y-137.8
X168.0Y-120.0
X170.2Y-104.3
X175.25Y-138.6
X188.0Y-150.0
X188.75Y-139.4
X195.0Y-120.0
X202.25Y-140.2
X207.0Y-178.0
X207.5Y-145.0
T2
X105.25Y-109.3
X107.75Y-109.3
X110.25Y-109.3
X118.75Y-109.3
X121.25Y-109.3
X123.75Y-109.3
X132.25Y-109.3
X134.75Y-109.3
X137.25Y-109.3
X143.57Y-173.42
X143.57Y-175.96
X145.75Y-109.3
X146.11Y-173.42
X146.11Y-175.96
X148.25Y-109.3
X148.65Y-173.42
X148.65Y-175.96
X150.75Y-109.3
X151.19Y-173.42
X151.19Y-175.96
X153.73Y-173.42
X153.73Y-175.96
X156.27Y-173.42
X156.27Y-175.96
X158.81Y-173.42
X158.81Y-175.96
X159.25Y-109.3
X161.35Y-173.42
X161.35Y-175.96
X161.75Y-109.3
X163.89Y-173.42
X163.89Y-175.96
X164.25Y-109.3
X166.43Y-173.42
X166.43Y-175.96
X172.75Y-109.3
X175.25Y-109.3
X177.75Y-109.3
X186.25Y-109.3
X188.75Y-109.3
X191.25Y-109.3
X199.75Y-109.3
X202.25Y-109.3
X204.75Y-109.3
T3
X102.15Y-101.65G85X102.15Y-101.95
G05
X113.35Y-101.65G85X113.35Y-101.95
G05
X115.65Y-101.65G85X115.65Y-101.95
G05
X126.85Y-101.65G85X126.85Y-101.95
G05
X129.15Y-101.65G85X129.15Y-101.95
G05
X140.35Y-101.65G85X140.35Y-101.95
G05
X142.65Y-101.65G85X142.65Y-101.95
G05
X153.85Y-101.65G85X153.85Y-101.95
G05
X156.15Y-101.65G85X156.15Y-101.95
G05
X167.35Y-101.65G85X167.35Y-101.95
G05
X169.65Y-101.65G85X169.65Y-101.95
G05
X180.85Y-101.65G85X180.85Y-101.95
G05
X183.15Y-101.65G85X183.15Y-101.95
G05
X194.35Y-101.65G85X194.35Y-101.95
G05
X196.65Y-101.65G85X196.65Y-101.95
G05
X207.85Y-101.65G85X207.85Y-101.95
G05
M30
