%TF.GenerationSoftware,KiCad,Pcbnew,10.0.3*%
%TF.CreationDate,2026-07-08T12:05:28+02:00*%
%TF.ProjectId,musicbrain-enc4,6d757369-6362-4726-9169-6e2d656e6334,1.0*%
%TF.SameCoordinates,Original*%
%TF.FileFunction,Legend,Top*%
%TF.FilePolarity,Positive*%
%FSLAX46Y46*%
G04 Gerber Fmt 4.6, Leading zero omitted, Abs format (unit mm)*
G04 Created by KiCad (PCBNEW 10.0.3) date 2026-07-08 12:05:28*
%MOMM*%
%LPD*%
G01*
G04 APERTURE LIST*
%ADD10C,0.150000*%
%ADD11C,0.120000*%
G04 APERTURE END LIST*
D10*
X110309523Y-178854819D02*
X110309523Y-178188152D01*
X110309523Y-178283390D02*
X110357142Y-178235771D01*
X110357142Y-178235771D02*
X110452380Y-178188152D01*
X110452380Y-178188152D02*
X110595237Y-178188152D01*
X110595237Y-178188152D02*
X110690475Y-178235771D01*
X110690475Y-178235771D02*
X110738094Y-178331009D01*
X110738094Y-178331009D02*
X110738094Y-178854819D01*
X110738094Y-178331009D02*
X110785713Y-178235771D01*
X110785713Y-178235771D02*
X110880951Y-178188152D01*
X110880951Y-178188152D02*
X111023808Y-178188152D01*
X111023808Y-178188152D02*
X111119047Y-178235771D01*
X111119047Y-178235771D02*
X111166666Y-178331009D01*
X111166666Y-178331009D02*
X111166666Y-178854819D01*
X112071427Y-178188152D02*
X112071427Y-178854819D01*
X111642856Y-178188152D02*
X111642856Y-178711961D01*
X111642856Y-178711961D02*
X111690475Y-178807200D01*
X111690475Y-178807200D02*
X111785713Y-178854819D01*
X111785713Y-178854819D02*
X111928570Y-178854819D01*
X111928570Y-178854819D02*
X112023808Y-178807200D01*
X112023808Y-178807200D02*
X112071427Y-178759580D01*
X112499999Y-178807200D02*
X112595237Y-178854819D01*
X112595237Y-178854819D02*
X112785713Y-178854819D01*
X112785713Y-178854819D02*
X112880951Y-178807200D01*
X112880951Y-178807200D02*
X112928570Y-178711961D01*
X112928570Y-178711961D02*
X112928570Y-178664342D01*
X112928570Y-178664342D02*
X112880951Y-178569104D01*
X112880951Y-178569104D02*
X112785713Y-178521485D01*
X112785713Y-178521485D02*
X112642856Y-178521485D01*
X112642856Y-178521485D02*
X112547618Y-178473866D01*
X112547618Y-178473866D02*
X112499999Y-178378628D01*
X112499999Y-178378628D02*
X112499999Y-178331009D01*
X112499999Y-178331009D02*
X112547618Y-178235771D01*
X112547618Y-178235771D02*
X112642856Y-178188152D01*
X112642856Y-178188152D02*
X112785713Y-178188152D01*
X112785713Y-178188152D02*
X112880951Y-178235771D01*
X113357142Y-178854819D02*
X113357142Y-178188152D01*
X113357142Y-177854819D02*
X113309523Y-177902438D01*
X113309523Y-177902438D02*
X113357142Y-177950057D01*
X113357142Y-177950057D02*
X113404761Y-177902438D01*
X113404761Y-177902438D02*
X113357142Y-177854819D01*
X113357142Y-177854819D02*
X113357142Y-177950057D01*
X114261903Y-178807200D02*
X114166665Y-178854819D01*
X114166665Y-178854819D02*
X113976189Y-178854819D01*
X113976189Y-178854819D02*
X113880951Y-178807200D01*
X113880951Y-178807200D02*
X113833332Y-178759580D01*
X113833332Y-178759580D02*
X113785713Y-178664342D01*
X113785713Y-178664342D02*
X113785713Y-178378628D01*
X113785713Y-178378628D02*
X113833332Y-178283390D01*
X113833332Y-178283390D02*
X113880951Y-178235771D01*
X113880951Y-178235771D02*
X113976189Y-178188152D01*
X113976189Y-178188152D02*
X114166665Y-178188152D01*
X114166665Y-178188152D02*
X114261903Y-178235771D01*
X114690475Y-178854819D02*
X114690475Y-177854819D01*
X114690475Y-178235771D02*
X114785713Y-178188152D01*
X114785713Y-178188152D02*
X114976189Y-178188152D01*
X114976189Y-178188152D02*
X115071427Y-178235771D01*
X115071427Y-178235771D02*
X115119046Y-178283390D01*
X115119046Y-178283390D02*
X115166665Y-178378628D01*
X115166665Y-178378628D02*
X115166665Y-178664342D01*
X115166665Y-178664342D02*
X115119046Y-178759580D01*
X115119046Y-178759580D02*
X115071427Y-178807200D01*
X115071427Y-178807200D02*
X114976189Y-178854819D01*
X114976189Y-178854819D02*
X114785713Y-178854819D01*
X114785713Y-178854819D02*
X114690475Y-178807200D01*
X115595237Y-178854819D02*
X115595237Y-178188152D01*
X115595237Y-178378628D02*
X115642856Y-178283390D01*
X115642856Y-178283390D02*
X115690475Y-178235771D01*
X115690475Y-178235771D02*
X115785713Y-178188152D01*
X115785713Y-178188152D02*
X115880951Y-178188152D01*
X116642856Y-178854819D02*
X116642856Y-178331009D01*
X116642856Y-178331009D02*
X116595237Y-178235771D01*
X116595237Y-178235771D02*
X116499999Y-178188152D01*
X116499999Y-178188152D02*
X116309523Y-178188152D01*
X116309523Y-178188152D02*
X116214285Y-178235771D01*
X116642856Y-178807200D02*
X116547618Y-178854819D01*
X116547618Y-178854819D02*
X116309523Y-178854819D01*
X116309523Y-178854819D02*
X116214285Y-178807200D01*
X116214285Y-178807200D02*
X116166666Y-178711961D01*
X116166666Y-178711961D02*
X116166666Y-178616723D01*
X116166666Y-178616723D02*
X116214285Y-178521485D01*
X116214285Y-178521485D02*
X116309523Y-178473866D01*
X116309523Y-178473866D02*
X116547618Y-178473866D01*
X116547618Y-178473866D02*
X116642856Y-178426247D01*
X117119047Y-178854819D02*
X117119047Y-178188152D01*
X117119047Y-177854819D02*
X117071428Y-177902438D01*
X117071428Y-177902438D02*
X117119047Y-177950057D01*
X117119047Y-177950057D02*
X117166666Y-177902438D01*
X117166666Y-177902438D02*
X117119047Y-177854819D01*
X117119047Y-177854819D02*
X117119047Y-177950057D01*
X117595237Y-178188152D02*
X117595237Y-178854819D01*
X117595237Y-178283390D02*
X117642856Y-178235771D01*
X117642856Y-178235771D02*
X117738094Y-178188152D01*
X117738094Y-178188152D02*
X117880951Y-178188152D01*
X117880951Y-178188152D02*
X117976189Y-178235771D01*
X117976189Y-178235771D02*
X118023808Y-178331009D01*
X118023808Y-178331009D02*
X118023808Y-178854819D01*
X118499999Y-178759580D02*
X118547618Y-178807200D01*
X118547618Y-178807200D02*
X118499999Y-178854819D01*
X118499999Y-178854819D02*
X118452380Y-178807200D01*
X118452380Y-178807200D02*
X118499999Y-178759580D01*
X118499999Y-178759580D02*
X118499999Y-178854819D01*
X118976189Y-178188152D02*
X118976189Y-178854819D01*
X118976189Y-178283390D02*
X119023808Y-178235771D01*
X119023808Y-178235771D02*
X119119046Y-178188152D01*
X119119046Y-178188152D02*
X119261903Y-178188152D01*
X119261903Y-178188152D02*
X119357141Y-178235771D01*
X119357141Y-178235771D02*
X119404760Y-178331009D01*
X119404760Y-178331009D02*
X119404760Y-178854819D01*
X120023808Y-178854819D02*
X119928570Y-178807200D01*
X119928570Y-178807200D02*
X119880951Y-178711961D01*
X119880951Y-178711961D02*
X119880951Y-177854819D01*
X121119046Y-177807200D02*
X120261904Y-179092914D01*
X121452380Y-178854819D02*
X121452380Y-177854819D01*
X121880951Y-178854819D02*
X121880951Y-178331009D01*
X121880951Y-178331009D02*
X121833332Y-178235771D01*
X121833332Y-178235771D02*
X121738094Y-178188152D01*
X121738094Y-178188152D02*
X121595237Y-178188152D01*
X121595237Y-178188152D02*
X121499999Y-178235771D01*
X121499999Y-178235771D02*
X121452380Y-178283390D01*
X122261904Y-178188152D02*
X122452380Y-178854819D01*
X122452380Y-178854819D02*
X122642856Y-178378628D01*
X122642856Y-178378628D02*
X122833332Y-178854819D01*
X122833332Y-178854819D02*
X123023808Y-178188152D01*
X124119046Y-177807200D02*
X123261904Y-179092914D01*
X124833332Y-178807200D02*
X124738094Y-178854819D01*
X124738094Y-178854819D02*
X124547618Y-178854819D01*
X124547618Y-178854819D02*
X124452380Y-178807200D01*
X124452380Y-178807200D02*
X124404761Y-178711961D01*
X124404761Y-178711961D02*
X124404761Y-178331009D01*
X124404761Y-178331009D02*
X124452380Y-178235771D01*
X124452380Y-178235771D02*
X124547618Y-178188152D01*
X124547618Y-178188152D02*
X124738094Y-178188152D01*
X124738094Y-178188152D02*
X124833332Y-178235771D01*
X124833332Y-178235771D02*
X124880951Y-178331009D01*
X124880951Y-178331009D02*
X124880951Y-178426247D01*
X124880951Y-178426247D02*
X124404761Y-178521485D01*
X125309523Y-178188152D02*
X125309523Y-178854819D01*
X125309523Y-178283390D02*
X125357142Y-178235771D01*
X125357142Y-178235771D02*
X125452380Y-178188152D01*
X125452380Y-178188152D02*
X125595237Y-178188152D01*
X125595237Y-178188152D02*
X125690475Y-178235771D01*
X125690475Y-178235771D02*
X125738094Y-178331009D01*
X125738094Y-178331009D02*
X125738094Y-178854819D01*
X126642856Y-178807200D02*
X126547618Y-178854819D01*
X126547618Y-178854819D02*
X126357142Y-178854819D01*
X126357142Y-178854819D02*
X126261904Y-178807200D01*
X126261904Y-178807200D02*
X126214285Y-178759580D01*
X126214285Y-178759580D02*
X126166666Y-178664342D01*
X126166666Y-178664342D02*
X126166666Y-178378628D01*
X126166666Y-178378628D02*
X126214285Y-178283390D01*
X126214285Y-178283390D02*
X126261904Y-178235771D01*
X126261904Y-178235771D02*
X126357142Y-178188152D01*
X126357142Y-178188152D02*
X126547618Y-178188152D01*
X126547618Y-178188152D02*
X126642856Y-178235771D01*
X127499999Y-178188152D02*
X127499999Y-178854819D01*
X127261904Y-177807200D02*
X127023809Y-178521485D01*
X127023809Y-178521485D02*
X127642856Y-178521485D01*
X128785714Y-178854819D02*
X128785714Y-178188152D01*
X128785714Y-178378628D02*
X128833333Y-178283390D01*
X128833333Y-178283390D02*
X128880952Y-178235771D01*
X128880952Y-178235771D02*
X128976190Y-178188152D01*
X128976190Y-178188152D02*
X129071428Y-178188152D01*
X129785714Y-178807200D02*
X129690476Y-178854819D01*
X129690476Y-178854819D02*
X129500000Y-178854819D01*
X129500000Y-178854819D02*
X129404762Y-178807200D01*
X129404762Y-178807200D02*
X129357143Y-178711961D01*
X129357143Y-178711961D02*
X129357143Y-178331009D01*
X129357143Y-178331009D02*
X129404762Y-178235771D01*
X129404762Y-178235771D02*
X129500000Y-178188152D01*
X129500000Y-178188152D02*
X129690476Y-178188152D01*
X129690476Y-178188152D02*
X129785714Y-178235771D01*
X129785714Y-178235771D02*
X129833333Y-178331009D01*
X129833333Y-178331009D02*
X129833333Y-178426247D01*
X129833333Y-178426247D02*
X129357143Y-178521485D01*
X130166667Y-178188152D02*
X130404762Y-178854819D01*
X130404762Y-178854819D02*
X130642857Y-178188152D01*
X132309524Y-178854819D02*
X131738096Y-178854819D01*
X132023810Y-178854819D02*
X132023810Y-177854819D01*
X132023810Y-177854819D02*
X131928572Y-177997676D01*
X131928572Y-177997676D02*
X131833334Y-178092914D01*
X131833334Y-178092914D02*
X131738096Y-178140533D01*
X132738096Y-178759580D02*
X132785715Y-178807200D01*
X132785715Y-178807200D02*
X132738096Y-178854819D01*
X132738096Y-178854819D02*
X132690477Y-178807200D01*
X132690477Y-178807200D02*
X132738096Y-178759580D01*
X132738096Y-178759580D02*
X132738096Y-178854819D01*
X133404762Y-177854819D02*
X133500000Y-177854819D01*
X133500000Y-177854819D02*
X133595238Y-177902438D01*
X133595238Y-177902438D02*
X133642857Y-177950057D01*
X133642857Y-177950057D02*
X133690476Y-178045295D01*
X133690476Y-178045295D02*
X133738095Y-178235771D01*
X133738095Y-178235771D02*
X133738095Y-178473866D01*
X133738095Y-178473866D02*
X133690476Y-178664342D01*
X133690476Y-178664342D02*
X133642857Y-178759580D01*
X133642857Y-178759580D02*
X133595238Y-178807200D01*
X133595238Y-178807200D02*
X133500000Y-178854819D01*
X133500000Y-178854819D02*
X133404762Y-178854819D01*
X133404762Y-178854819D02*
X133309524Y-178807200D01*
X133309524Y-178807200D02*
X133261905Y-178759580D01*
X133261905Y-178759580D02*
X133214286Y-178664342D01*
X133214286Y-178664342D02*
X133166667Y-178473866D01*
X133166667Y-178473866D02*
X133166667Y-178235771D01*
X133166667Y-178235771D02*
X133214286Y-178045295D01*
X133214286Y-178045295D02*
X133261905Y-177950057D01*
X133261905Y-177950057D02*
X133309524Y-177902438D01*
X133309524Y-177902438D02*
X133404762Y-177854819D01*
X148366666Y-178529819D02*
X148366666Y-179244104D01*
X148366666Y-179244104D02*
X148319047Y-179386961D01*
X148319047Y-179386961D02*
X148223809Y-179482200D01*
X148223809Y-179482200D02*
X148080952Y-179529819D01*
X148080952Y-179529819D02*
X147985714Y-179529819D01*
X149366666Y-179529819D02*
X148795238Y-179529819D01*
X149080952Y-179529819D02*
X149080952Y-178529819D01*
X149080952Y-178529819D02*
X148985714Y-178672676D01*
X148985714Y-178672676D02*
X148890476Y-178767914D01*
X148890476Y-178767914D02*
X148795238Y-178815533D01*
X124338095Y-134454819D02*
X124338095Y-135264342D01*
X124338095Y-135264342D02*
X124385714Y-135359580D01*
X124385714Y-135359580D02*
X124433333Y-135407200D01*
X124433333Y-135407200D02*
X124528571Y-135454819D01*
X124528571Y-135454819D02*
X124719047Y-135454819D01*
X124719047Y-135454819D02*
X124814285Y-135407200D01*
X124814285Y-135407200D02*
X124861904Y-135359580D01*
X124861904Y-135359580D02*
X124909523Y-135264342D01*
X124909523Y-135264342D02*
X124909523Y-134454819D01*
X125909523Y-135454819D02*
X125338095Y-135454819D01*
X125623809Y-135454819D02*
X125623809Y-134454819D01*
X125623809Y-134454819D02*
X125528571Y-134597676D01*
X125528571Y-134597676D02*
X125433333Y-134692914D01*
X125433333Y-134692914D02*
X125338095Y-134740533D01*
X108907200Y-115033332D02*
X108954819Y-114890475D01*
X108954819Y-114890475D02*
X108954819Y-114652380D01*
X108954819Y-114652380D02*
X108907200Y-114557142D01*
X108907200Y-114557142D02*
X108859580Y-114509523D01*
X108859580Y-114509523D02*
X108764342Y-114461904D01*
X108764342Y-114461904D02*
X108669104Y-114461904D01*
X108669104Y-114461904D02*
X108573866Y-114509523D01*
X108573866Y-114509523D02*
X108526247Y-114557142D01*
X108526247Y-114557142D02*
X108478628Y-114652380D01*
X108478628Y-114652380D02*
X108431009Y-114842856D01*
X108431009Y-114842856D02*
X108383390Y-114938094D01*
X108383390Y-114938094D02*
X108335771Y-114985713D01*
X108335771Y-114985713D02*
X108240533Y-115033332D01*
X108240533Y-115033332D02*
X108145295Y-115033332D01*
X108145295Y-115033332D02*
X108050057Y-114985713D01*
X108050057Y-114985713D02*
X108002438Y-114938094D01*
X108002438Y-114938094D02*
X107954819Y-114842856D01*
X107954819Y-114842856D02*
X107954819Y-114604761D01*
X107954819Y-114604761D02*
X108002438Y-114461904D01*
X107954819Y-114128570D02*
X108954819Y-113890475D01*
X108954819Y-113890475D02*
X108240533Y-113699999D01*
X108240533Y-113699999D02*
X108954819Y-113509523D01*
X108954819Y-113509523D02*
X107954819Y-113271428D01*
X108954819Y-112366666D02*
X108954819Y-112938094D01*
X108954819Y-112652380D02*
X107954819Y-112652380D01*
X107954819Y-112652380D02*
X108097676Y-112747618D01*
X108097676Y-112747618D02*
X108192914Y-112842856D01*
X108192914Y-112842856D02*
X108240533Y-112938094D01*
X125607200Y-115033332D02*
X125654819Y-114890475D01*
X125654819Y-114890475D02*
X125654819Y-114652380D01*
X125654819Y-114652380D02*
X125607200Y-114557142D01*
X125607200Y-114557142D02*
X125559580Y-114509523D01*
X125559580Y-114509523D02*
X125464342Y-114461904D01*
X125464342Y-114461904D02*
X125369104Y-114461904D01*
X125369104Y-114461904D02*
X125273866Y-114509523D01*
X125273866Y-114509523D02*
X125226247Y-114557142D01*
X125226247Y-114557142D02*
X125178628Y-114652380D01*
X125178628Y-114652380D02*
X125131009Y-114842856D01*
X125131009Y-114842856D02*
X125083390Y-114938094D01*
X125083390Y-114938094D02*
X125035771Y-114985713D01*
X125035771Y-114985713D02*
X124940533Y-115033332D01*
X124940533Y-115033332D02*
X124845295Y-115033332D01*
X124845295Y-115033332D02*
X124750057Y-114985713D01*
X124750057Y-114985713D02*
X124702438Y-114938094D01*
X124702438Y-114938094D02*
X124654819Y-114842856D01*
X124654819Y-114842856D02*
X124654819Y-114604761D01*
X124654819Y-114604761D02*
X124702438Y-114461904D01*
X124654819Y-114128570D02*
X125654819Y-113890475D01*
X125654819Y-113890475D02*
X124940533Y-113699999D01*
X124940533Y-113699999D02*
X125654819Y-113509523D01*
X125654819Y-113509523D02*
X124654819Y-113271428D01*
X124750057Y-112938094D02*
X124702438Y-112890475D01*
X124702438Y-112890475D02*
X124654819Y-112795237D01*
X124654819Y-112795237D02*
X124654819Y-112557142D01*
X124654819Y-112557142D02*
X124702438Y-112461904D01*
X124702438Y-112461904D02*
X124750057Y-112414285D01*
X124750057Y-112414285D02*
X124845295Y-112366666D01*
X124845295Y-112366666D02*
X124940533Y-112366666D01*
X124940533Y-112366666D02*
X125083390Y-112414285D01*
X125083390Y-112414285D02*
X125654819Y-112985713D01*
X125654819Y-112985713D02*
X125654819Y-112366666D01*
X142307200Y-115033332D02*
X142354819Y-114890475D01*
X142354819Y-114890475D02*
X142354819Y-114652380D01*
X142354819Y-114652380D02*
X142307200Y-114557142D01*
X142307200Y-114557142D02*
X142259580Y-114509523D01*
X142259580Y-114509523D02*
X142164342Y-114461904D01*
X142164342Y-114461904D02*
X142069104Y-114461904D01*
X142069104Y-114461904D02*
X141973866Y-114509523D01*
X141973866Y-114509523D02*
X141926247Y-114557142D01*
X141926247Y-114557142D02*
X141878628Y-114652380D01*
X141878628Y-114652380D02*
X141831009Y-114842856D01*
X141831009Y-114842856D02*
X141783390Y-114938094D01*
X141783390Y-114938094D02*
X141735771Y-114985713D01*
X141735771Y-114985713D02*
X141640533Y-115033332D01*
X141640533Y-115033332D02*
X141545295Y-115033332D01*
X141545295Y-115033332D02*
X141450057Y-114985713D01*
X141450057Y-114985713D02*
X141402438Y-114938094D01*
X141402438Y-114938094D02*
X141354819Y-114842856D01*
X141354819Y-114842856D02*
X141354819Y-114604761D01*
X141354819Y-114604761D02*
X141402438Y-114461904D01*
X141354819Y-114128570D02*
X142354819Y-113890475D01*
X142354819Y-113890475D02*
X141640533Y-113699999D01*
X141640533Y-113699999D02*
X142354819Y-113509523D01*
X142354819Y-113509523D02*
X141354819Y-113271428D01*
X141354819Y-112985713D02*
X141354819Y-112366666D01*
X141354819Y-112366666D02*
X141735771Y-112699999D01*
X141735771Y-112699999D02*
X141735771Y-112557142D01*
X141735771Y-112557142D02*
X141783390Y-112461904D01*
X141783390Y-112461904D02*
X141831009Y-112414285D01*
X141831009Y-112414285D02*
X141926247Y-112366666D01*
X141926247Y-112366666D02*
X142164342Y-112366666D01*
X142164342Y-112366666D02*
X142259580Y-112414285D01*
X142259580Y-112414285D02*
X142307200Y-112461904D01*
X142307200Y-112461904D02*
X142354819Y-112557142D01*
X142354819Y-112557142D02*
X142354819Y-112842856D01*
X142354819Y-112842856D02*
X142307200Y-112938094D01*
X142307200Y-112938094D02*
X142259580Y-112985713D01*
X159007200Y-115033332D02*
X159054819Y-114890475D01*
X159054819Y-114890475D02*
X159054819Y-114652380D01*
X159054819Y-114652380D02*
X159007200Y-114557142D01*
X159007200Y-114557142D02*
X158959580Y-114509523D01*
X158959580Y-114509523D02*
X158864342Y-114461904D01*
X158864342Y-114461904D02*
X158769104Y-114461904D01*
X158769104Y-114461904D02*
X158673866Y-114509523D01*
X158673866Y-114509523D02*
X158626247Y-114557142D01*
X158626247Y-114557142D02*
X158578628Y-114652380D01*
X158578628Y-114652380D02*
X158531009Y-114842856D01*
X158531009Y-114842856D02*
X158483390Y-114938094D01*
X158483390Y-114938094D02*
X158435771Y-114985713D01*
X158435771Y-114985713D02*
X158340533Y-115033332D01*
X158340533Y-115033332D02*
X158245295Y-115033332D01*
X158245295Y-115033332D02*
X158150057Y-114985713D01*
X158150057Y-114985713D02*
X158102438Y-114938094D01*
X158102438Y-114938094D02*
X158054819Y-114842856D01*
X158054819Y-114842856D02*
X158054819Y-114604761D01*
X158054819Y-114604761D02*
X158102438Y-114461904D01*
X158054819Y-114128570D02*
X159054819Y-113890475D01*
X159054819Y-113890475D02*
X158340533Y-113699999D01*
X158340533Y-113699999D02*
X159054819Y-113509523D01*
X159054819Y-113509523D02*
X158054819Y-113271428D01*
X158388152Y-112461904D02*
X159054819Y-112461904D01*
X158007200Y-112699999D02*
X158721485Y-112938094D01*
X158721485Y-112938094D02*
X158721485Y-112319047D01*
X134933333Y-145439580D02*
X134885714Y-145487200D01*
X134885714Y-145487200D02*
X134742857Y-145534819D01*
X134742857Y-145534819D02*
X134647619Y-145534819D01*
X134647619Y-145534819D02*
X134504762Y-145487200D01*
X134504762Y-145487200D02*
X134409524Y-145391961D01*
X134409524Y-145391961D02*
X134361905Y-145296723D01*
X134361905Y-145296723D02*
X134314286Y-145106247D01*
X134314286Y-145106247D02*
X134314286Y-144963390D01*
X134314286Y-144963390D02*
X134361905Y-144772914D01*
X134361905Y-144772914D02*
X134409524Y-144677676D01*
X134409524Y-144677676D02*
X134504762Y-144582438D01*
X134504762Y-144582438D02*
X134647619Y-144534819D01*
X134647619Y-144534819D02*
X134742857Y-144534819D01*
X134742857Y-144534819D02*
X134885714Y-144582438D01*
X134885714Y-144582438D02*
X134933333Y-144630057D01*
X135885714Y-145534819D02*
X135314286Y-145534819D01*
X135600000Y-145534819D02*
X135600000Y-144534819D01*
X135600000Y-144534819D02*
X135504762Y-144677676D01*
X135504762Y-144677676D02*
X135409524Y-144772914D01*
X135409524Y-144772914D02*
X135314286Y-144820533D01*
X143633333Y-155859580D02*
X143585714Y-155907200D01*
X143585714Y-155907200D02*
X143442857Y-155954819D01*
X143442857Y-155954819D02*
X143347619Y-155954819D01*
X143347619Y-155954819D02*
X143204762Y-155907200D01*
X143204762Y-155907200D02*
X143109524Y-155811961D01*
X143109524Y-155811961D02*
X143061905Y-155716723D01*
X143061905Y-155716723D02*
X143014286Y-155526247D01*
X143014286Y-155526247D02*
X143014286Y-155383390D01*
X143014286Y-155383390D02*
X143061905Y-155192914D01*
X143061905Y-155192914D02*
X143109524Y-155097676D01*
X143109524Y-155097676D02*
X143204762Y-155002438D01*
X143204762Y-155002438D02*
X143347619Y-154954819D01*
X143347619Y-154954819D02*
X143442857Y-154954819D01*
X143442857Y-154954819D02*
X143585714Y-155002438D01*
X143585714Y-155002438D02*
X143633333Y-155050057D01*
X144014286Y-155050057D02*
X144061905Y-155002438D01*
X144061905Y-155002438D02*
X144157143Y-154954819D01*
X144157143Y-154954819D02*
X144395238Y-154954819D01*
X144395238Y-154954819D02*
X144490476Y-155002438D01*
X144490476Y-155002438D02*
X144538095Y-155050057D01*
X144538095Y-155050057D02*
X144585714Y-155145295D01*
X144585714Y-155145295D02*
X144585714Y-155240533D01*
X144585714Y-155240533D02*
X144538095Y-155383390D01*
X144538095Y-155383390D02*
X143966667Y-155954819D01*
X143966667Y-155954819D02*
X144585714Y-155954819D01*
%TO.C,J1*%
D11*
X147700000Y-172150000D02*
X147700000Y-173420000D01*
X146430000Y-172150000D02*
X147700000Y-172150000D01*
X144320000Y-174497358D02*
X144320000Y-174882642D01*
X143460000Y-174497358D02*
X143460000Y-174882642D01*
X141780000Y-174497358D02*
X141780000Y-174882642D01*
X140920000Y-174497358D02*
X140920000Y-174882642D01*
X139240000Y-174497358D02*
X139240000Y-174882642D01*
X138380000Y-174497358D02*
X138380000Y-174882642D01*
X136700000Y-174497358D02*
X136700000Y-174882642D01*
X135840000Y-174497358D02*
X135840000Y-174882642D01*
X134160000Y-174497358D02*
X134160000Y-174882642D01*
X133300000Y-174497358D02*
X133300000Y-174882642D01*
X131620000Y-174497358D02*
X131620000Y-174882642D01*
X130760000Y-174497358D02*
X130760000Y-174882642D01*
X129080000Y-174497358D02*
X129080000Y-174882642D01*
X128220000Y-174497358D02*
X128220000Y-174882642D01*
X126540000Y-174497358D02*
X126540000Y-174882642D01*
X125680000Y-174497358D02*
X125680000Y-174882642D01*
X124000000Y-174497358D02*
X124000000Y-174882642D01*
X123140000Y-174497358D02*
X123140000Y-174882642D01*
X146860000Y-174580000D02*
X146860000Y-174882642D01*
X146000000Y-174580000D02*
X146000000Y-174882642D01*
X146860000Y-177037358D02*
X146860000Y-177350000D01*
X146000000Y-177037358D02*
X146000000Y-177350000D01*
X144320000Y-177037358D02*
X144320000Y-177350000D01*
X143460000Y-177037358D02*
X143460000Y-177350000D01*
X141780000Y-177037358D02*
X141780000Y-177350000D01*
X140920000Y-177037358D02*
X140920000Y-177350000D01*
X139240000Y-177037358D02*
X139240000Y-177350000D01*
X138380000Y-177037358D02*
X138380000Y-177350000D01*
X136700000Y-177037358D02*
X136700000Y-177350000D01*
X135840000Y-177037358D02*
X135840000Y-177350000D01*
X134160000Y-177037358D02*
X134160000Y-177350000D01*
X133300000Y-177037358D02*
X133300000Y-177350000D01*
X131620000Y-177037358D02*
X131620000Y-177350000D01*
X130760000Y-177037358D02*
X130760000Y-177350000D01*
X129080000Y-177037358D02*
X129080000Y-177350000D01*
X128220000Y-177037358D02*
X128220000Y-177350000D01*
X126540000Y-177037358D02*
X126540000Y-177350000D01*
X125680000Y-177037358D02*
X125680000Y-177350000D01*
X124000000Y-177037358D02*
X124000000Y-177350000D01*
X123140000Y-177037358D02*
X123140000Y-177350000D01*
X145160000Y-177350000D02*
X145160000Y-180110000D01*
X142620000Y-177350000D02*
X142620000Y-180110000D01*
X140080000Y-177350000D02*
X140080000Y-180110000D01*
X137540000Y-177350000D02*
X137540000Y-180110000D01*
X135000000Y-177350000D02*
X135000000Y-180110000D01*
X132460000Y-177350000D02*
X132460000Y-180110000D01*
X129920000Y-177350000D02*
X129920000Y-180110000D01*
X127380000Y-177350000D02*
X127380000Y-180110000D01*
X124840000Y-177350000D02*
X124840000Y-180110000D01*
X144320000Y-180110000D02*
X144320000Y-186110000D01*
X141780000Y-180110000D02*
X141780000Y-186110000D01*
X139240000Y-180110000D02*
X139240000Y-186110000D01*
X136700000Y-180110000D02*
X136700000Y-186110000D01*
X134160000Y-180110000D02*
X134160000Y-186110000D01*
X131620000Y-180110000D02*
X131620000Y-186110000D01*
X129080000Y-180110000D02*
X129080000Y-186110000D01*
X126540000Y-180110000D02*
X126540000Y-186110000D01*
X124000000Y-180110000D02*
X124000000Y-186110000D01*
X144320000Y-186110000D02*
X143460000Y-186110000D01*
X143460000Y-186110000D02*
X143460000Y-180110000D01*
X141780000Y-186110000D02*
X140920000Y-186110000D01*
X140920000Y-186110000D02*
X140920000Y-180110000D01*
X139240000Y-186110000D02*
X138380000Y-186110000D01*
X138380000Y-186110000D02*
X138380000Y-180110000D01*
X136700000Y-186110000D02*
X135840000Y-186110000D01*
X135840000Y-186110000D02*
X135840000Y-180110000D01*
X134160000Y-186110000D02*
X133300000Y-186110000D01*
X133300000Y-186110000D02*
X133300000Y-180110000D01*
X131620000Y-186110000D02*
X130760000Y-186110000D01*
X130760000Y-186110000D02*
X130760000Y-180110000D01*
X129080000Y-186110000D02*
X128220000Y-186110000D01*
X128220000Y-186110000D02*
X128220000Y-180110000D01*
X126540000Y-186110000D02*
X125680000Y-186110000D01*
X125680000Y-186110000D02*
X125680000Y-180110000D01*
X124000000Y-186110000D02*
X123140000Y-186110000D01*
X123140000Y-186110000D02*
X123140000Y-180110000D01*
X122190000Y-177350000D02*
X147810000Y-177350000D01*
X147810000Y-180110000D01*
X122190000Y-180110000D01*
X122190000Y-177350000D01*
X146000000Y-180110000D02*
X146860000Y-180110000D01*
X146860000Y-186110000D01*
X146000000Y-186110000D01*
X146000000Y-180110000D01*
G36*
X146000000Y-180110000D02*
G01*
X146860000Y-180110000D01*
X146860000Y-186110000D01*
X146000000Y-186110000D01*
X146000000Y-180110000D01*
G37*
%TO.C,U1*%
X125940000Y-138860000D02*
X125940000Y-131140000D01*
X126185000Y-138860000D02*
X125940000Y-138860000D01*
X144060000Y-138860000D02*
X143815000Y-138860000D01*
X125940000Y-131140000D02*
X126185000Y-131140000D01*
X143815000Y-131140000D02*
X144060000Y-131140000D01*
X144060000Y-131140000D02*
X144060000Y-138860000D01*
X126180000Y-139650000D02*
X125710000Y-139990000D01*
X125710000Y-139310000D01*
X126180000Y-139650000D01*
G36*
X126180000Y-139650000D02*
G01*
X125710000Y-139990000D01*
X125710000Y-139310000D01*
X126180000Y-139650000D01*
G37*
%TO.C,SW1*%
X114850000Y-107300000D02*
X102150000Y-107300000D01*
X102150000Y-107300000D02*
X102150000Y-110350000D01*
X114850000Y-110300000D02*
X114850000Y-107300000D01*
X113200000Y-112610000D02*
X103800000Y-112610000D01*
X102150000Y-114300000D02*
X102150000Y-115000000D01*
X114850000Y-115000000D02*
X114850000Y-114500000D01*
X114000000Y-115000000D02*
X114850000Y-115000000D01*
X102150000Y-115000000D02*
X103000000Y-115000000D01*
%TO.C,SW2*%
X131550000Y-107300000D02*
X118850000Y-107300000D01*
X118850000Y-107300000D02*
X118850000Y-110350000D01*
X131550000Y-110300000D02*
X131550000Y-107300000D01*
X129900000Y-112610000D02*
X120500000Y-112610000D01*
X118850000Y-114300000D02*
X118850000Y-115000000D01*
X131550000Y-115000000D02*
X131550000Y-114500000D01*
X130700000Y-115000000D02*
X131550000Y-115000000D01*
X118850000Y-115000000D02*
X119700000Y-115000000D01*
%TO.C,SW3*%
X148250000Y-107300000D02*
X135550000Y-107300000D01*
X135550000Y-107300000D02*
X135550000Y-110350000D01*
X148250000Y-110300000D02*
X148250000Y-107300000D01*
X146600000Y-112610000D02*
X137200000Y-112610000D01*
X135550000Y-114300000D02*
X135550000Y-115000000D01*
X148250000Y-115000000D02*
X148250000Y-114500000D01*
X147400000Y-115000000D02*
X148250000Y-115000000D01*
X135550000Y-115000000D02*
X136400000Y-115000000D01*
%TO.C,SW4*%
X164950000Y-107300000D02*
X152250000Y-107300000D01*
X152250000Y-107300000D02*
X152250000Y-110350000D01*
X164950000Y-110300000D02*
X164950000Y-107300000D01*
X163300000Y-112610000D02*
X153900000Y-112610000D01*
X152250000Y-114300000D02*
X152250000Y-115000000D01*
X164950000Y-115000000D02*
X164950000Y-114500000D01*
X164100000Y-115000000D02*
X164950000Y-115000000D01*
X152250000Y-115000000D02*
X153100000Y-115000000D01*
%TO.C,C1*%
X135361252Y-144135000D02*
X134838748Y-144135000D01*
X135361252Y-142665000D02*
X134838748Y-142665000D01*
%TO.C,C2*%
X145440000Y-158500000D02*
X145440000Y-158000000D01*
X145190000Y-158250000D02*
X145690000Y-158250000D01*
X145804437Y-157760000D02*
X145940000Y-157760000D01*
X145804437Y-157760000D02*
X144740000Y-156695563D01*
X148195563Y-157760000D02*
X148060000Y-157760000D01*
X148195563Y-157760000D02*
X149260000Y-156695563D01*
X144740000Y-156695563D02*
X144740000Y-153240000D01*
X149260000Y-156695563D02*
X149260000Y-153240000D01*
X144740000Y-153240000D02*
X145940000Y-153240000D01*
X149260000Y-153240000D02*
X148060000Y-153240000D01*
%TD*%
M02*
