%TF.GenerationSoftware,KiCad,Pcbnew,10.0.3*%
%TF.CreationDate,2026-07-11T03:56:29+02:00*%
%TF.ProjectId,musicbrain-jack8,6d757369-6362-4726-9169-6e2d6a61636b,1.1*%
%TF.SameCoordinates,Original*%
%TF.FileFunction,Drillmap*%
%TF.FilePolarity,Positive*%
%FSLAX45Y45*%
G04 Gerber Fmt 4.5, Leading zero omitted, Abs format (unit mm)*
G04 Created by KiCad (PCBNEW 10.0.3) date 2026-07-11 03:56:29*
%MOMM*%
%LPD*%
G01*
G04 APERTURE LIST*
%ADD10C,0.100000*%
%ADD11C,0.200000*%
G04 APERTURE END LIST*
D10*
X10000000Y-10000000D02*
X12000000Y-10000000D01*
X12000000Y-22500000D01*
X10000000Y-22500000D01*
X10000000Y-10000000D01*
D11*
X10255777Y-22816484D02*
X10255777Y-22616484D01*
X10255777Y-22616484D02*
X10303396Y-22616484D01*
X10303396Y-22616484D02*
X10331967Y-22626008D01*
X10331967Y-22626008D02*
X10351015Y-22645055D01*
X10351015Y-22645055D02*
X10360539Y-22664103D01*
X10360539Y-22664103D02*
X10370063Y-22702198D01*
X10370063Y-22702198D02*
X10370063Y-22730769D01*
X10370063Y-22730769D02*
X10360539Y-22768865D01*
X10360539Y-22768865D02*
X10351015Y-22787912D01*
X10351015Y-22787912D02*
X10331967Y-22806960D01*
X10331967Y-22806960D02*
X10303396Y-22816484D01*
X10303396Y-22816484D02*
X10255777Y-22816484D01*
X10455777Y-22816484D02*
X10455777Y-22683150D01*
X10455777Y-22721246D02*
X10465301Y-22702198D01*
X10465301Y-22702198D02*
X10474824Y-22692674D01*
X10474824Y-22692674D02*
X10493872Y-22683150D01*
X10493872Y-22683150D02*
X10512920Y-22683150D01*
X10579586Y-22816484D02*
X10579586Y-22683150D01*
X10579586Y-22616484D02*
X10570063Y-22626008D01*
X10570063Y-22626008D02*
X10579586Y-22635531D01*
X10579586Y-22635531D02*
X10589110Y-22626008D01*
X10589110Y-22626008D02*
X10579586Y-22616484D01*
X10579586Y-22616484D02*
X10579586Y-22635531D01*
X10703396Y-22816484D02*
X10684348Y-22806960D01*
X10684348Y-22806960D02*
X10674824Y-22787912D01*
X10674824Y-22787912D02*
X10674824Y-22616484D01*
X10808158Y-22816484D02*
X10789110Y-22806960D01*
X10789110Y-22806960D02*
X10779586Y-22787912D01*
X10779586Y-22787912D02*
X10779586Y-22616484D01*
X11036729Y-22816484D02*
X11036729Y-22616484D01*
X11036729Y-22616484D02*
X11103396Y-22759341D01*
X11103396Y-22759341D02*
X11170063Y-22616484D01*
X11170063Y-22616484D02*
X11170063Y-22816484D01*
X11351015Y-22816484D02*
X11351015Y-22711722D01*
X11351015Y-22711722D02*
X11341491Y-22692674D01*
X11341491Y-22692674D02*
X11322443Y-22683150D01*
X11322443Y-22683150D02*
X11284348Y-22683150D01*
X11284348Y-22683150D02*
X11265301Y-22692674D01*
X11351015Y-22806960D02*
X11331967Y-22816484D01*
X11331967Y-22816484D02*
X11284348Y-22816484D01*
X11284348Y-22816484D02*
X11265301Y-22806960D01*
X11265301Y-22806960D02*
X11255777Y-22787912D01*
X11255777Y-22787912D02*
X11255777Y-22768865D01*
X11255777Y-22768865D02*
X11265301Y-22749817D01*
X11265301Y-22749817D02*
X11284348Y-22740293D01*
X11284348Y-22740293D02*
X11331967Y-22740293D01*
X11331967Y-22740293D02*
X11351015Y-22730769D01*
X11446253Y-22683150D02*
X11446253Y-22883150D01*
X11446253Y-22692674D02*
X11465301Y-22683150D01*
X11465301Y-22683150D02*
X11503396Y-22683150D01*
X11503396Y-22683150D02*
X11522443Y-22692674D01*
X11522443Y-22692674D02*
X11531967Y-22702198D01*
X11531967Y-22702198D02*
X11541491Y-22721246D01*
X11541491Y-22721246D02*
X11541491Y-22778388D01*
X11541491Y-22778388D02*
X11531967Y-22797436D01*
X11531967Y-22797436D02*
X11522443Y-22806960D01*
X11522443Y-22806960D02*
X11503396Y-22816484D01*
X11503396Y-22816484D02*
X11465301Y-22816484D01*
X11465301Y-22816484D02*
X11446253Y-22806960D01*
X11627205Y-22797436D02*
X11636729Y-22806960D01*
X11636729Y-22806960D02*
X11627205Y-22816484D01*
X11627205Y-22816484D02*
X11617682Y-22806960D01*
X11617682Y-22806960D02*
X11627205Y-22797436D01*
X11627205Y-22797436D02*
X11627205Y-22816484D01*
X11627205Y-22692674D02*
X11636729Y-22702198D01*
X11636729Y-22702198D02*
X11627205Y-22711722D01*
X11627205Y-22711722D02*
X11617682Y-22702198D01*
X11617682Y-22702198D02*
X11627205Y-22692674D01*
X11627205Y-22692674D02*
X11627205Y-22711722D01*
M02*
