%TF.GenerationSoftware,KiCad,Pcbnew,10.0.3*%
%TF.CreationDate,2026-07-08T12:05:29+02:00*%
%TF.ProjectId,musicbrain-jack8,6d757369-6362-4726-9169-6e2d6a61636b,1.0*%
%TF.SameCoordinates,Original*%
%TF.FileFunction,Drillmap*%
%TF.FilePolarity,Positive*%
%FSLAX45Y45*%
G04 Gerber Fmt 4.5, Leading zero omitted, Abs format (unit mm)*
G04 Created by KiCad (PCBNEW 10.0.3) date 2026-07-08 12:05:29*
%MOMM*%
%LPD*%
G01*
G04 APERTURE LIST*
%ADD10C,0.100000*%
%ADD11C,0.200000*%
G04 APERTURE END LIST*
D10*
X10000000Y-10000000D02*
X12000000Y-10000000D01*
X12000000Y-22500000D01*
X10000000Y-22500000D01*
X10000000Y-10000000D01*
D11*
D10*
X10185000Y-10185000D02*
X10215000Y-10215000D01*
X10215000Y-10185000D02*
X10185000Y-10215000D01*
X10185000Y-22305000D02*
X10215000Y-22335000D01*
X10215000Y-22305000D02*
X10185000Y-22335000D01*
X11785000Y-10185000D02*
X11815000Y-10215000D01*
X11815000Y-10185000D02*
X11785000Y-10215000D01*
X11785000Y-16235000D02*
X11815000Y-16265000D01*
X11815000Y-16235000D02*
X11785000Y-16265000D01*
X11785000Y-22285000D02*
X11815000Y-22315000D01*
X11815000Y-22285000D02*
X11785000Y-22315000D01*
X10830000Y-10308000D02*
G75*
G02*
X10770000Y-10308000I-30000J0D01*
G01*
X10770000Y-10308000D02*
G75*
G02*
X10830000Y-10308000I30000J0D01*
G01*
X10750000Y-10338000D02*
X10850000Y-10338000D01*
X10850000Y-10278000D02*
G75*
G02*
X10850000Y-10338000I0J-30000D01*
G01*
X10850000Y-10278000D02*
X10750000Y-10278000D01*
X10750000Y-10278000D02*
G75*
G03*
X10750000Y-10338000I0J-30000D01*
G01*
X10830000Y-11138000D02*
G75*
G02*
X10770000Y-11138000I-30000J0D01*
G01*
X10770000Y-11138000D02*
G75*
G02*
X10830000Y-11138000I30000J0D01*
G01*
X10750000Y-11168000D02*
X10850000Y-11168000D01*
X10850000Y-11108000D02*
G75*
G02*
X10850000Y-11168000I0J-30000D01*
G01*
X10850000Y-11108000D02*
X10750000Y-11108000D01*
X10750000Y-11108000D02*
G75*
G03*
X10750000Y-11168000I0J-30000D01*
G01*
X10830000Y-11448000D02*
G75*
G02*
X10770000Y-11448000I-30000J0D01*
G01*
X10770000Y-11448000D02*
G75*
G02*
X10830000Y-11448000I30000J0D01*
G01*
X10750000Y-11478000D02*
X10850000Y-11478000D01*
X10850000Y-11418000D02*
G75*
G02*
X10850000Y-11478000I0J-30000D01*
G01*
X10850000Y-11418000D02*
X10750000Y-11418000D01*
X10750000Y-11418000D02*
G75*
G03*
X10750000Y-11478000I0J-30000D01*
G01*
X10830000Y-11808000D02*
G75*
G02*
X10770000Y-11808000I-30000J0D01*
G01*
X10770000Y-11808000D02*
G75*
G02*
X10830000Y-11808000I30000J0D01*
G01*
X10750000Y-11838000D02*
X10850000Y-11838000D01*
X10850000Y-11778000D02*
G75*
G02*
X10850000Y-11838000I0J-30000D01*
G01*
X10850000Y-11778000D02*
X10750000Y-11778000D01*
X10750000Y-11778000D02*
G75*
G03*
X10750000Y-11838000I0J-30000D01*
G01*
X10830000Y-12638000D02*
G75*
G02*
X10770000Y-12638000I-30000J0D01*
G01*
X10770000Y-12638000D02*
G75*
G02*
X10830000Y-12638000I30000J0D01*
G01*
X10750000Y-12668000D02*
X10850000Y-12668000D01*
X10850000Y-12608000D02*
G75*
G02*
X10850000Y-12668000I0J-30000D01*
G01*
X10850000Y-12608000D02*
X10750000Y-12608000D01*
X10750000Y-12608000D02*
G75*
G03*
X10750000Y-12668000I0J-30000D01*
G01*
X10830000Y-12948000D02*
G75*
G02*
X10770000Y-12948000I-30000J0D01*
G01*
X10770000Y-12948000D02*
G75*
G02*
X10830000Y-12948000I30000J0D01*
G01*
X10750000Y-12978000D02*
X10850000Y-12978000D01*
X10850000Y-12918000D02*
G75*
G02*
X10850000Y-12978000I0J-30000D01*
G01*
X10850000Y-12918000D02*
X10750000Y-12918000D01*
X10750000Y-12918000D02*
G75*
G03*
X10750000Y-12978000I0J-30000D01*
G01*
X10830000Y-13308000D02*
G75*
G02*
X10770000Y-13308000I-30000J0D01*
G01*
X10770000Y-13308000D02*
G75*
G02*
X10830000Y-13308000I30000J0D01*
G01*
X10750000Y-13338000D02*
X10850000Y-13338000D01*
X10850000Y-13278000D02*
G75*
G02*
X10850000Y-13338000I0J-30000D01*
G01*
X10850000Y-13278000D02*
X10750000Y-13278000D01*
X10750000Y-13278000D02*
G75*
G03*
X10750000Y-13338000I0J-30000D01*
G01*
X10830000Y-14138000D02*
G75*
G02*
X10770000Y-14138000I-30000J0D01*
G01*
X10770000Y-14138000D02*
G75*
G02*
X10830000Y-14138000I30000J0D01*
G01*
X10750000Y-14168000D02*
X10850000Y-14168000D01*
X10850000Y-14108000D02*
G75*
G02*
X10850000Y-14168000I0J-30000D01*
G01*
X10850000Y-14108000D02*
X10750000Y-14108000D01*
X10750000Y-14108000D02*
G75*
G03*
X10750000Y-14168000I0J-30000D01*
G01*
X10830000Y-14448000D02*
G75*
G02*
X10770000Y-14448000I-30000J0D01*
G01*
X10770000Y-14448000D02*
G75*
G02*
X10830000Y-14448000I30000J0D01*
G01*
X10750000Y-14478000D02*
X10850000Y-14478000D01*
X10850000Y-14418000D02*
G75*
G02*
X10850000Y-14478000I0J-30000D01*
G01*
X10850000Y-14418000D02*
X10750000Y-14418000D01*
X10750000Y-14418000D02*
G75*
G03*
X10750000Y-14478000I0J-30000D01*
G01*
X10830000Y-14808000D02*
G75*
G02*
X10770000Y-14808000I-30000J0D01*
G01*
X10770000Y-14808000D02*
G75*
G02*
X10830000Y-14808000I30000J0D01*
G01*
X10750000Y-14838000D02*
X10850000Y-14838000D01*
X10850000Y-14778000D02*
G75*
G02*
X10850000Y-14838000I0J-30000D01*
G01*
X10850000Y-14778000D02*
X10750000Y-14778000D01*
X10750000Y-14778000D02*
G75*
G03*
X10750000Y-14838000I0J-30000D01*
G01*
X10830000Y-15638000D02*
G75*
G02*
X10770000Y-15638000I-30000J0D01*
G01*
X10770000Y-15638000D02*
G75*
G02*
X10830000Y-15638000I30000J0D01*
G01*
X10750000Y-15668000D02*
X10850000Y-15668000D01*
X10850000Y-15608000D02*
G75*
G02*
X10850000Y-15668000I0J-30000D01*
G01*
X10850000Y-15608000D02*
X10750000Y-15608000D01*
X10750000Y-15608000D02*
G75*
G03*
X10750000Y-15668000I0J-30000D01*
G01*
X10830000Y-15948000D02*
G75*
G02*
X10770000Y-15948000I-30000J0D01*
G01*
X10770000Y-15948000D02*
G75*
G02*
X10830000Y-15948000I30000J0D01*
G01*
X10750000Y-15978000D02*
X10850000Y-15978000D01*
X10850000Y-15918000D02*
G75*
G02*
X10850000Y-15978000I0J-30000D01*
G01*
X10850000Y-15918000D02*
X10750000Y-15918000D01*
X10750000Y-15918000D02*
G75*
G03*
X10750000Y-15978000I0J-30000D01*
G01*
X10830000Y-16308000D02*
G75*
G02*
X10770000Y-16308000I-30000J0D01*
G01*
X10770000Y-16308000D02*
G75*
G02*
X10830000Y-16308000I30000J0D01*
G01*
X10750000Y-16338000D02*
X10850000Y-16338000D01*
X10850000Y-16278000D02*
G75*
G02*
X10850000Y-16338000I0J-30000D01*
G01*
X10850000Y-16278000D02*
X10750000Y-16278000D01*
X10750000Y-16278000D02*
G75*
G03*
X10750000Y-16338000I0J-30000D01*
G01*
X10830000Y-17138000D02*
G75*
G02*
X10770000Y-17138000I-30000J0D01*
G01*
X10770000Y-17138000D02*
G75*
G02*
X10830000Y-17138000I30000J0D01*
G01*
X10750000Y-17168000D02*
X10850000Y-17168000D01*
X10850000Y-17108000D02*
G75*
G02*
X10850000Y-17168000I0J-30000D01*
G01*
X10850000Y-17108000D02*
X10750000Y-17108000D01*
X10750000Y-17108000D02*
G75*
G03*
X10750000Y-17168000I0J-30000D01*
G01*
X10830000Y-17448000D02*
G75*
G02*
X10770000Y-17448000I-30000J0D01*
G01*
X10770000Y-17448000D02*
G75*
G02*
X10830000Y-17448000I30000J0D01*
G01*
X10750000Y-17478000D02*
X10850000Y-17478000D01*
X10850000Y-17418000D02*
G75*
G02*
X10850000Y-17478000I0J-30000D01*
G01*
X10850000Y-17418000D02*
X10750000Y-17418000D01*
X10750000Y-17418000D02*
G75*
G03*
X10750000Y-17478000I0J-30000D01*
G01*
X10830000Y-17808000D02*
G75*
G02*
X10770000Y-17808000I-30000J0D01*
G01*
X10770000Y-17808000D02*
G75*
G02*
X10830000Y-17808000I30000J0D01*
G01*
X10750000Y-17838000D02*
X10850000Y-17838000D01*
X10850000Y-17778000D02*
G75*
G02*
X10850000Y-17838000I0J-30000D01*
G01*
X10850000Y-17778000D02*
X10750000Y-17778000D01*
X10750000Y-17778000D02*
G75*
G03*
X10750000Y-17838000I0J-30000D01*
G01*
X10830000Y-18638000D02*
G75*
G02*
X10770000Y-18638000I-30000J0D01*
G01*
X10770000Y-18638000D02*
G75*
G02*
X10830000Y-18638000I30000J0D01*
G01*
X10750000Y-18668000D02*
X10850000Y-18668000D01*
X10850000Y-18608000D02*
G75*
G02*
X10850000Y-18668000I0J-30000D01*
G01*
X10850000Y-18608000D02*
X10750000Y-18608000D01*
X10750000Y-18608000D02*
G75*
G03*
X10750000Y-18668000I0J-30000D01*
G01*
X10830000Y-18948000D02*
G75*
G02*
X10770000Y-18948000I-30000J0D01*
G01*
X10770000Y-18948000D02*
G75*
G02*
X10830000Y-18948000I30000J0D01*
G01*
X10750000Y-18978000D02*
X10850000Y-18978000D01*
X10850000Y-18918000D02*
G75*
G02*
X10850000Y-18978000I0J-30000D01*
G01*
X10850000Y-18918000D02*
X10750000Y-18918000D01*
X10750000Y-18918000D02*
G75*
G03*
X10750000Y-18978000I0J-30000D01*
G01*
X10830000Y-19308000D02*
G75*
G02*
X10770000Y-19308000I-30000J0D01*
G01*
X10770000Y-19308000D02*
G75*
G02*
X10830000Y-19308000I30000J0D01*
G01*
X10750000Y-19338000D02*
X10850000Y-19338000D01*
X10850000Y-19278000D02*
G75*
G02*
X10850000Y-19338000I0J-30000D01*
G01*
X10850000Y-19278000D02*
X10750000Y-19278000D01*
X10750000Y-19278000D02*
G75*
G03*
X10750000Y-19338000I0J-30000D01*
G01*
X10830000Y-20138000D02*
G75*
G02*
X10770000Y-20138000I-30000J0D01*
G01*
X10770000Y-20138000D02*
G75*
G02*
X10830000Y-20138000I30000J0D01*
G01*
X10750000Y-20168000D02*
X10850000Y-20168000D01*
X10850000Y-20108000D02*
G75*
G02*
X10850000Y-20168000I0J-30000D01*
G01*
X10850000Y-20108000D02*
X10750000Y-20108000D01*
X10750000Y-20108000D02*
G75*
G03*
X10750000Y-20168000I0J-30000D01*
G01*
X10830000Y-20448000D02*
G75*
G02*
X10770000Y-20448000I-30000J0D01*
G01*
X10770000Y-20448000D02*
G75*
G02*
X10830000Y-20448000I30000J0D01*
G01*
X10750000Y-20478000D02*
X10850000Y-20478000D01*
X10850000Y-20418000D02*
G75*
G02*
X10850000Y-20478000I0J-30000D01*
G01*
X10850000Y-20418000D02*
X10750000Y-20418000D01*
X10750000Y-20418000D02*
G75*
G03*
X10750000Y-20478000I0J-30000D01*
G01*
X10830000Y-20808000D02*
G75*
G02*
X10770000Y-20808000I-30000J0D01*
G01*
X10770000Y-20808000D02*
G75*
G02*
X10830000Y-20808000I30000J0D01*
G01*
X10750000Y-20838000D02*
X10850000Y-20838000D01*
X10850000Y-20778000D02*
G75*
G02*
X10850000Y-20838000I0J-30000D01*
G01*
X10850000Y-20778000D02*
X10750000Y-20778000D01*
X10750000Y-20778000D02*
G75*
G03*
X10750000Y-20838000I0J-30000D01*
G01*
X10830000Y-21638000D02*
G75*
G02*
X10770000Y-21638000I-30000J0D01*
G01*
X10770000Y-21638000D02*
G75*
G02*
X10830000Y-21638000I30000J0D01*
G01*
X10750000Y-21668000D02*
X10850000Y-21668000D01*
X10850000Y-21608000D02*
G75*
G02*
X10850000Y-21668000I0J-30000D01*
G01*
X10850000Y-21608000D02*
X10750000Y-21608000D01*
X10750000Y-21608000D02*
G75*
G03*
X10750000Y-21668000I0J-30000D01*
G01*
X10830000Y-21948000D02*
G75*
G02*
X10770000Y-21948000I-30000J0D01*
G01*
X10770000Y-21948000D02*
G75*
G02*
X10830000Y-21948000I30000J0D01*
G01*
X10750000Y-21978000D02*
X10850000Y-21978000D01*
X10850000Y-21918000D02*
G75*
G02*
X10850000Y-21978000I0J-30000D01*
G01*
X10850000Y-21918000D02*
X10750000Y-21918000D01*
X10750000Y-21918000D02*
G75*
G03*
X10750000Y-21978000I0J-30000D01*
G01*
X11500000Y-15057000D02*
X11500000Y-15157000D01*
X11450000Y-15107000D02*
X11550000Y-15107000D01*
X11500000Y-15311000D02*
X11500000Y-15411000D01*
X11450000Y-15361000D02*
X11550000Y-15361000D01*
X11500000Y-15565000D02*
X11500000Y-15665000D01*
X11450000Y-15615000D02*
X11550000Y-15615000D01*
X11500000Y-15819000D02*
X11500000Y-15919000D01*
X11450000Y-15869000D02*
X11550000Y-15869000D01*
X11500000Y-16073000D02*
X11500000Y-16173000D01*
X11450000Y-16123000D02*
X11550000Y-16123000D01*
X11500000Y-16327000D02*
X11500000Y-16427000D01*
X11450000Y-16377000D02*
X11550000Y-16377000D01*
X11500000Y-16581000D02*
X11500000Y-16681000D01*
X11450000Y-16631000D02*
X11550000Y-16631000D01*
X11500000Y-16835000D02*
X11500000Y-16935000D01*
X11450000Y-16885000D02*
X11550000Y-16885000D01*
X11500000Y-17089000D02*
X11500000Y-17189000D01*
X11450000Y-17139000D02*
X11550000Y-17139000D01*
X11500000Y-17343000D02*
X11500000Y-17443000D01*
X11450000Y-17393000D02*
X11550000Y-17393000D01*
D11*
X10255777Y-22816484D02*
X10255777Y-22616484D01*
X10255777Y-22616484D02*
X10303396Y-22616484D01*
X10303396Y-22616484D02*
X10331967Y-22626008D01*
X10331967Y-22626008D02*
X10351015Y-22645055D01*
X10351015Y-22645055D02*
X10360539Y-22664103D01*
X10360539Y-22664103D02*
X10370063Y-22702198D01*
X10370063Y-22702198D02*
X10370063Y-22730769D01*
X10370063Y-22730769D02*
X10360539Y-22768865D01*
X10360539Y-22768865D02*
X10351015Y-22787912D01*
X10351015Y-22787912D02*
X10331967Y-22806960D01*
X10331967Y-22806960D02*
X10303396Y-22816484D01*
X10303396Y-22816484D02*
X10255777Y-22816484D01*
X10455777Y-22816484D02*
X10455777Y-22683150D01*
X10455777Y-22721246D02*
X10465301Y-22702198D01*
X10465301Y-22702198D02*
X10474824Y-22692674D01*
X10474824Y-22692674D02*
X10493872Y-22683150D01*
X10493872Y-22683150D02*
X10512920Y-22683150D01*
X10579586Y-22816484D02*
X10579586Y-22683150D01*
X10579586Y-22616484D02*
X10570063Y-22626008D01*
X10570063Y-22626008D02*
X10579586Y-22635531D01*
X10579586Y-22635531D02*
X10589110Y-22626008D01*
X10589110Y-22626008D02*
X10579586Y-22616484D01*
X10579586Y-22616484D02*
X10579586Y-22635531D01*
X10703396Y-22816484D02*
X10684348Y-22806960D01*
X10684348Y-22806960D02*
X10674824Y-22787912D01*
X10674824Y-22787912D02*
X10674824Y-22616484D01*
X10808158Y-22816484D02*
X10789110Y-22806960D01*
X10789110Y-22806960D02*
X10779586Y-22787912D01*
X10779586Y-22787912D02*
X10779586Y-22616484D01*
X11036729Y-22816484D02*
X11036729Y-22616484D01*
X11036729Y-22616484D02*
X11103396Y-22759341D01*
X11103396Y-22759341D02*
X11170063Y-22616484D01*
X11170063Y-22616484D02*
X11170063Y-22816484D01*
X11351015Y-22816484D02*
X11351015Y-22711722D01*
X11351015Y-22711722D02*
X11341491Y-22692674D01*
X11341491Y-22692674D02*
X11322443Y-22683150D01*
X11322443Y-22683150D02*
X11284348Y-22683150D01*
X11284348Y-22683150D02*
X11265301Y-22692674D01*
X11351015Y-22806960D02*
X11331967Y-22816484D01*
X11331967Y-22816484D02*
X11284348Y-22816484D01*
X11284348Y-22816484D02*
X11265301Y-22806960D01*
X11265301Y-22806960D02*
X11255777Y-22787912D01*
X11255777Y-22787912D02*
X11255777Y-22768865D01*
X11255777Y-22768865D02*
X11265301Y-22749817D01*
X11265301Y-22749817D02*
X11284348Y-22740293D01*
X11284348Y-22740293D02*
X11331967Y-22740293D01*
X11331967Y-22740293D02*
X11351015Y-22730769D01*
X11446253Y-22683150D02*
X11446253Y-22883150D01*
X11446253Y-22692674D02*
X11465301Y-22683150D01*
X11465301Y-22683150D02*
X11503396Y-22683150D01*
X11503396Y-22683150D02*
X11522443Y-22692674D01*
X11522443Y-22692674D02*
X11531967Y-22702198D01*
X11531967Y-22702198D02*
X11541491Y-22721246D01*
X11541491Y-22721246D02*
X11541491Y-22778388D01*
X11541491Y-22778388D02*
X11531967Y-22797436D01*
X11531967Y-22797436D02*
X11522443Y-22806960D01*
X11522443Y-22806960D02*
X11503396Y-22816484D01*
X11503396Y-22816484D02*
X11465301Y-22816484D01*
X11465301Y-22816484D02*
X11446253Y-22806960D01*
X11627205Y-22797436D02*
X11636729Y-22806960D01*
X11636729Y-22806960D02*
X11627205Y-22816484D01*
X11627205Y-22816484D02*
X11617682Y-22806960D01*
X11617682Y-22806960D02*
X11627205Y-22797436D01*
X11627205Y-22797436D02*
X11627205Y-22816484D01*
X11627205Y-22692674D02*
X11636729Y-22702198D01*
X11636729Y-22702198D02*
X11627205Y-22711722D01*
X11627205Y-22711722D02*
X11617682Y-22702198D01*
X11617682Y-22702198D02*
X11627205Y-22692674D01*
X11627205Y-22692674D02*
X11627205Y-22711722D01*
D10*
X9965000Y-23130000D02*
X9995000Y-23160000D01*
X9995000Y-23130000D02*
X9965000Y-23160000D01*
D11*
X10293872Y-23036484D02*
X10312920Y-23036484D01*
X10312920Y-23036484D02*
X10331967Y-23046008D01*
X10331967Y-23046008D02*
X10341491Y-23055531D01*
X10341491Y-23055531D02*
X10351015Y-23074579D01*
X10351015Y-23074579D02*
X10360539Y-23112674D01*
X10360539Y-23112674D02*
X10360539Y-23160293D01*
X10360539Y-23160293D02*
X10351015Y-23198388D01*
X10351015Y-23198388D02*
X10341491Y-23217436D01*
X10341491Y-23217436D02*
X10331967Y-23226960D01*
X10331967Y-23226960D02*
X10312920Y-23236484D01*
X10312920Y-23236484D02*
X10293872Y-23236484D01*
X10293872Y-23236484D02*
X10274824Y-23226960D01*
X10274824Y-23226960D02*
X10265301Y-23217436D01*
X10265301Y-23217436D02*
X10255777Y-23198388D01*
X10255777Y-23198388D02*
X10246253Y-23160293D01*
X10246253Y-23160293D02*
X10246253Y-23112674D01*
X10246253Y-23112674D02*
X10255777Y-23074579D01*
X10255777Y-23074579D02*
X10265301Y-23055531D01*
X10265301Y-23055531D02*
X10274824Y-23046008D01*
X10274824Y-23046008D02*
X10293872Y-23036484D01*
X10455777Y-23226960D02*
X10455777Y-23236484D01*
X10455777Y-23236484D02*
X10446253Y-23255531D01*
X10446253Y-23255531D02*
X10436729Y-23265055D01*
X10522444Y-23036484D02*
X10646253Y-23036484D01*
X10646253Y-23036484D02*
X10579586Y-23112674D01*
X10579586Y-23112674D02*
X10608158Y-23112674D01*
X10608158Y-23112674D02*
X10627205Y-23122198D01*
X10627205Y-23122198D02*
X10636729Y-23131722D01*
X10636729Y-23131722D02*
X10646253Y-23150769D01*
X10646253Y-23150769D02*
X10646253Y-23198388D01*
X10646253Y-23198388D02*
X10636729Y-23217436D01*
X10636729Y-23217436D02*
X10627205Y-23226960D01*
X10627205Y-23226960D02*
X10608158Y-23236484D01*
X10608158Y-23236484D02*
X10551015Y-23236484D01*
X10551015Y-23236484D02*
X10531967Y-23226960D01*
X10531967Y-23226960D02*
X10522444Y-23217436D01*
X10770063Y-23036484D02*
X10789110Y-23036484D01*
X10789110Y-23036484D02*
X10808158Y-23046008D01*
X10808158Y-23046008D02*
X10817682Y-23055531D01*
X10817682Y-23055531D02*
X10827205Y-23074579D01*
X10827205Y-23074579D02*
X10836729Y-23112674D01*
X10836729Y-23112674D02*
X10836729Y-23160293D01*
X10836729Y-23160293D02*
X10827205Y-23198388D01*
X10827205Y-23198388D02*
X10817682Y-23217436D01*
X10817682Y-23217436D02*
X10808158Y-23226960D01*
X10808158Y-23226960D02*
X10789110Y-23236484D01*
X10789110Y-23236484D02*
X10770063Y-23236484D01*
X10770063Y-23236484D02*
X10751015Y-23226960D01*
X10751015Y-23226960D02*
X10741491Y-23217436D01*
X10741491Y-23217436D02*
X10731967Y-23198388D01*
X10731967Y-23198388D02*
X10722444Y-23160293D01*
X10722444Y-23160293D02*
X10722444Y-23112674D01*
X10722444Y-23112674D02*
X10731967Y-23074579D01*
X10731967Y-23074579D02*
X10741491Y-23055531D01*
X10741491Y-23055531D02*
X10751015Y-23046008D01*
X10751015Y-23046008D02*
X10770063Y-23036484D01*
X10960539Y-23036484D02*
X10979586Y-23036484D01*
X10979586Y-23036484D02*
X10998634Y-23046008D01*
X10998634Y-23046008D02*
X11008158Y-23055531D01*
X11008158Y-23055531D02*
X11017682Y-23074579D01*
X11017682Y-23074579D02*
X11027205Y-23112674D01*
X11027205Y-23112674D02*
X11027205Y-23160293D01*
X11027205Y-23160293D02*
X11017682Y-23198388D01*
X11017682Y-23198388D02*
X11008158Y-23217436D01*
X11008158Y-23217436D02*
X10998634Y-23226960D01*
X10998634Y-23226960D02*
X10979586Y-23236484D01*
X10979586Y-23236484D02*
X10960539Y-23236484D01*
X10960539Y-23236484D02*
X10941491Y-23226960D01*
X10941491Y-23226960D02*
X10931967Y-23217436D01*
X10931967Y-23217436D02*
X10922444Y-23198388D01*
X10922444Y-23198388D02*
X10912920Y-23160293D01*
X10912920Y-23160293D02*
X10912920Y-23112674D01*
X10912920Y-23112674D02*
X10922444Y-23074579D01*
X10922444Y-23074579D02*
X10931967Y-23055531D01*
X10931967Y-23055531D02*
X10941491Y-23046008D01*
X10941491Y-23046008D02*
X10960539Y-23036484D01*
X11112920Y-23236484D02*
X11112920Y-23103150D01*
X11112920Y-23122198D02*
X11122444Y-23112674D01*
X11122444Y-23112674D02*
X11141491Y-23103150D01*
X11141491Y-23103150D02*
X11170063Y-23103150D01*
X11170063Y-23103150D02*
X11189110Y-23112674D01*
X11189110Y-23112674D02*
X11198634Y-23131722D01*
X11198634Y-23131722D02*
X11198634Y-23236484D01*
X11198634Y-23131722D02*
X11208158Y-23112674D01*
X11208158Y-23112674D02*
X11227205Y-23103150D01*
X11227205Y-23103150D02*
X11255777Y-23103150D01*
X11255777Y-23103150D02*
X11274824Y-23112674D01*
X11274824Y-23112674D02*
X11284348Y-23131722D01*
X11284348Y-23131722D02*
X11284348Y-23236484D01*
X11379586Y-23236484D02*
X11379586Y-23103150D01*
X11379586Y-23122198D02*
X11389110Y-23112674D01*
X11389110Y-23112674D02*
X11408158Y-23103150D01*
X11408158Y-23103150D02*
X11436729Y-23103150D01*
X11436729Y-23103150D02*
X11455777Y-23112674D01*
X11455777Y-23112674D02*
X11465301Y-23131722D01*
X11465301Y-23131722D02*
X11465301Y-23236484D01*
X11465301Y-23131722D02*
X11474824Y-23112674D01*
X11474824Y-23112674D02*
X11493872Y-23103150D01*
X11493872Y-23103150D02*
X11522443Y-23103150D01*
X11522443Y-23103150D02*
X11541491Y-23112674D01*
X11541491Y-23112674D02*
X11551015Y-23131722D01*
X11551015Y-23131722D02*
X11551015Y-23236484D01*
X11941491Y-23026960D02*
X11770063Y-23284103D01*
X12198634Y-23036484D02*
X12217682Y-23036484D01*
X12217682Y-23036484D02*
X12236729Y-23046008D01*
X12236729Y-23046008D02*
X12246253Y-23055531D01*
X12246253Y-23055531D02*
X12255777Y-23074579D01*
X12255777Y-23074579D02*
X12265301Y-23112674D01*
X12265301Y-23112674D02*
X12265301Y-23160293D01*
X12265301Y-23160293D02*
X12255777Y-23198388D01*
X12255777Y-23198388D02*
X12246253Y-23217436D01*
X12246253Y-23217436D02*
X12236729Y-23226960D01*
X12236729Y-23226960D02*
X12217682Y-23236484D01*
X12217682Y-23236484D02*
X12198634Y-23236484D01*
X12198634Y-23236484D02*
X12179586Y-23226960D01*
X12179586Y-23226960D02*
X12170063Y-23217436D01*
X12170063Y-23217436D02*
X12160539Y-23198388D01*
X12160539Y-23198388D02*
X12151015Y-23160293D01*
X12151015Y-23160293D02*
X12151015Y-23112674D01*
X12151015Y-23112674D02*
X12160539Y-23074579D01*
X12160539Y-23074579D02*
X12170063Y-23055531D01*
X12170063Y-23055531D02*
X12179586Y-23046008D01*
X12179586Y-23046008D02*
X12198634Y-23036484D01*
X12360539Y-23226960D02*
X12360539Y-23236484D01*
X12360539Y-23236484D02*
X12351015Y-23255531D01*
X12351015Y-23255531D02*
X12341491Y-23265055D01*
X12484348Y-23036484D02*
X12503396Y-23036484D01*
X12503396Y-23036484D02*
X12522444Y-23046008D01*
X12522444Y-23046008D02*
X12531967Y-23055531D01*
X12531967Y-23055531D02*
X12541491Y-23074579D01*
X12541491Y-23074579D02*
X12551015Y-23112674D01*
X12551015Y-23112674D02*
X12551015Y-23160293D01*
X12551015Y-23160293D02*
X12541491Y-23198388D01*
X12541491Y-23198388D02*
X12531967Y-23217436D01*
X12531967Y-23217436D02*
X12522444Y-23226960D01*
X12522444Y-23226960D02*
X12503396Y-23236484D01*
X12503396Y-23236484D02*
X12484348Y-23236484D01*
X12484348Y-23236484D02*
X12465301Y-23226960D01*
X12465301Y-23226960D02*
X12455777Y-23217436D01*
X12455777Y-23217436D02*
X12446253Y-23198388D01*
X12446253Y-23198388D02*
X12436729Y-23160293D01*
X12436729Y-23160293D02*
X12436729Y-23112674D01*
X12436729Y-23112674D02*
X12446253Y-23074579D01*
X12446253Y-23074579D02*
X12455777Y-23055531D01*
X12455777Y-23055531D02*
X12465301Y-23046008D01*
X12465301Y-23046008D02*
X12484348Y-23036484D01*
X12741491Y-23236484D02*
X12627206Y-23236484D01*
X12684348Y-23236484D02*
X12684348Y-23036484D01*
X12684348Y-23036484D02*
X12665301Y-23065055D01*
X12665301Y-23065055D02*
X12646253Y-23084103D01*
X12646253Y-23084103D02*
X12627206Y-23093627D01*
X12931967Y-23236484D02*
X12817682Y-23236484D01*
X12874825Y-23236484D02*
X12874825Y-23036484D01*
X12874825Y-23036484D02*
X12855777Y-23065055D01*
X12855777Y-23065055D02*
X12836729Y-23084103D01*
X12836729Y-23084103D02*
X12817682Y-23093627D01*
X13046253Y-23122198D02*
X13027206Y-23112674D01*
X13027206Y-23112674D02*
X13017682Y-23103150D01*
X13017682Y-23103150D02*
X13008158Y-23084103D01*
X13008158Y-23084103D02*
X13008158Y-23074579D01*
X13008158Y-23074579D02*
X13017682Y-23055531D01*
X13017682Y-23055531D02*
X13027206Y-23046008D01*
X13027206Y-23046008D02*
X13046253Y-23036484D01*
X13046253Y-23036484D02*
X13084348Y-23036484D01*
X13084348Y-23036484D02*
X13103396Y-23046008D01*
X13103396Y-23046008D02*
X13112920Y-23055531D01*
X13112920Y-23055531D02*
X13122444Y-23074579D01*
X13122444Y-23074579D02*
X13122444Y-23084103D01*
X13122444Y-23084103D02*
X13112920Y-23103150D01*
X13112920Y-23103150D02*
X13103396Y-23112674D01*
X13103396Y-23112674D02*
X13084348Y-23122198D01*
X13084348Y-23122198D02*
X13046253Y-23122198D01*
X13046253Y-23122198D02*
X13027206Y-23131722D01*
X13027206Y-23131722D02*
X13017682Y-23141246D01*
X13017682Y-23141246D02*
X13008158Y-23160293D01*
X13008158Y-23160293D02*
X13008158Y-23198388D01*
X13008158Y-23198388D02*
X13017682Y-23217436D01*
X13017682Y-23217436D02*
X13027206Y-23226960D01*
X13027206Y-23226960D02*
X13046253Y-23236484D01*
X13046253Y-23236484D02*
X13084348Y-23236484D01*
X13084348Y-23236484D02*
X13103396Y-23226960D01*
X13103396Y-23226960D02*
X13112920Y-23217436D01*
X13112920Y-23217436D02*
X13122444Y-23198388D01*
X13122444Y-23198388D02*
X13122444Y-23160293D01*
X13122444Y-23160293D02*
X13112920Y-23141246D01*
X13112920Y-23141246D02*
X13103396Y-23131722D01*
X13103396Y-23131722D02*
X13084348Y-23122198D01*
X13198634Y-23036484D02*
X13198634Y-23074579D01*
X13274825Y-23036484D02*
X13274825Y-23074579D01*
X13570063Y-23312674D02*
X13560539Y-23303150D01*
X13560539Y-23303150D02*
X13541491Y-23274579D01*
X13541491Y-23274579D02*
X13531968Y-23255531D01*
X13531968Y-23255531D02*
X13522444Y-23226960D01*
X13522444Y-23226960D02*
X13512920Y-23179341D01*
X13512920Y-23179341D02*
X13512920Y-23141246D01*
X13512920Y-23141246D02*
X13522444Y-23093627D01*
X13522444Y-23093627D02*
X13531968Y-23065055D01*
X13531968Y-23065055D02*
X13541491Y-23046008D01*
X13541491Y-23046008D02*
X13560539Y-23017436D01*
X13560539Y-23017436D02*
X13570063Y-23007912D01*
X13741491Y-23036484D02*
X13646253Y-23036484D01*
X13646253Y-23036484D02*
X13636729Y-23131722D01*
X13636729Y-23131722D02*
X13646253Y-23122198D01*
X13646253Y-23122198D02*
X13665301Y-23112674D01*
X13665301Y-23112674D02*
X13712920Y-23112674D01*
X13712920Y-23112674D02*
X13731968Y-23122198D01*
X13731968Y-23122198D02*
X13741491Y-23131722D01*
X13741491Y-23131722D02*
X13751015Y-23150769D01*
X13751015Y-23150769D02*
X13751015Y-23198388D01*
X13751015Y-23198388D02*
X13741491Y-23217436D01*
X13741491Y-23217436D02*
X13731968Y-23226960D01*
X13731968Y-23226960D02*
X13712920Y-23236484D01*
X13712920Y-23236484D02*
X13665301Y-23236484D01*
X13665301Y-23236484D02*
X13646253Y-23226960D01*
X13646253Y-23226960D02*
X13636729Y-23217436D01*
X13989110Y-23236484D02*
X13989110Y-23036484D01*
X14074825Y-23236484D02*
X14074825Y-23131722D01*
X14074825Y-23131722D02*
X14065301Y-23112674D01*
X14065301Y-23112674D02*
X14046253Y-23103150D01*
X14046253Y-23103150D02*
X14017682Y-23103150D01*
X14017682Y-23103150D02*
X13998634Y-23112674D01*
X13998634Y-23112674D02*
X13989110Y-23122198D01*
X14198634Y-23236484D02*
X14179587Y-23226960D01*
X14179587Y-23226960D02*
X14170063Y-23217436D01*
X14170063Y-23217436D02*
X14160539Y-23198388D01*
X14160539Y-23198388D02*
X14160539Y-23141246D01*
X14160539Y-23141246D02*
X14170063Y-23122198D01*
X14170063Y-23122198D02*
X14179587Y-23112674D01*
X14179587Y-23112674D02*
X14198634Y-23103150D01*
X14198634Y-23103150D02*
X14227206Y-23103150D01*
X14227206Y-23103150D02*
X14246253Y-23112674D01*
X14246253Y-23112674D02*
X14255777Y-23122198D01*
X14255777Y-23122198D02*
X14265301Y-23141246D01*
X14265301Y-23141246D02*
X14265301Y-23198388D01*
X14265301Y-23198388D02*
X14255777Y-23217436D01*
X14255777Y-23217436D02*
X14246253Y-23226960D01*
X14246253Y-23226960D02*
X14227206Y-23236484D01*
X14227206Y-23236484D02*
X14198634Y-23236484D01*
X14379587Y-23236484D02*
X14360539Y-23226960D01*
X14360539Y-23226960D02*
X14351015Y-23207912D01*
X14351015Y-23207912D02*
X14351015Y-23036484D01*
X14531968Y-23226960D02*
X14512920Y-23236484D01*
X14512920Y-23236484D02*
X14474825Y-23236484D01*
X14474825Y-23236484D02*
X14455777Y-23226960D01*
X14455777Y-23226960D02*
X14446253Y-23207912D01*
X14446253Y-23207912D02*
X14446253Y-23131722D01*
X14446253Y-23131722D02*
X14455777Y-23112674D01*
X14455777Y-23112674D02*
X14474825Y-23103150D01*
X14474825Y-23103150D02*
X14512920Y-23103150D01*
X14512920Y-23103150D02*
X14531968Y-23112674D01*
X14531968Y-23112674D02*
X14541491Y-23131722D01*
X14541491Y-23131722D02*
X14541491Y-23150769D01*
X14541491Y-23150769D02*
X14446253Y-23169817D01*
X14617682Y-23226960D02*
X14636730Y-23236484D01*
X14636730Y-23236484D02*
X14674825Y-23236484D01*
X14674825Y-23236484D02*
X14693872Y-23226960D01*
X14693872Y-23226960D02*
X14703396Y-23207912D01*
X14703396Y-23207912D02*
X14703396Y-23198388D01*
X14703396Y-23198388D02*
X14693872Y-23179341D01*
X14693872Y-23179341D02*
X14674825Y-23169817D01*
X14674825Y-23169817D02*
X14646253Y-23169817D01*
X14646253Y-23169817D02*
X14627206Y-23160293D01*
X14627206Y-23160293D02*
X14617682Y-23141246D01*
X14617682Y-23141246D02*
X14617682Y-23131722D01*
X14617682Y-23131722D02*
X14627206Y-23112674D01*
X14627206Y-23112674D02*
X14646253Y-23103150D01*
X14646253Y-23103150D02*
X14674825Y-23103150D01*
X14674825Y-23103150D02*
X14693872Y-23112674D01*
X14770063Y-23312674D02*
X14779587Y-23303150D01*
X14779587Y-23303150D02*
X14798634Y-23274579D01*
X14798634Y-23274579D02*
X14808158Y-23255531D01*
X14808158Y-23255531D02*
X14817682Y-23226960D01*
X14817682Y-23226960D02*
X14827206Y-23179341D01*
X14827206Y-23179341D02*
X14827206Y-23141246D01*
X14827206Y-23141246D02*
X14817682Y-23093627D01*
X14817682Y-23093627D02*
X14808158Y-23065055D01*
X14808158Y-23065055D02*
X14798634Y-23046008D01*
X14798634Y-23046008D02*
X14779587Y-23017436D01*
X14779587Y-23017436D02*
X14770063Y-23007912D01*
D10*
X9995000Y-23409000D02*
G75*
G02*
X9935000Y-23409000I-30000J0D01*
G01*
X9935000Y-23409000D02*
G75*
G02*
X9995000Y-23409000I30000J0D01*
G01*
D11*
X10293872Y-23300484D02*
X10312920Y-23300484D01*
X10312920Y-23300484D02*
X10331967Y-23310008D01*
X10331967Y-23310008D02*
X10341491Y-23319531D01*
X10341491Y-23319531D02*
X10351015Y-23338579D01*
X10351015Y-23338579D02*
X10360539Y-23376674D01*
X10360539Y-23376674D02*
X10360539Y-23424293D01*
X10360539Y-23424293D02*
X10351015Y-23462388D01*
X10351015Y-23462388D02*
X10341491Y-23481436D01*
X10341491Y-23481436D02*
X10331967Y-23490960D01*
X10331967Y-23490960D02*
X10312920Y-23500484D01*
X10312920Y-23500484D02*
X10293872Y-23500484D01*
X10293872Y-23500484D02*
X10274824Y-23490960D01*
X10274824Y-23490960D02*
X10265301Y-23481436D01*
X10265301Y-23481436D02*
X10255777Y-23462388D01*
X10255777Y-23462388D02*
X10246253Y-23424293D01*
X10246253Y-23424293D02*
X10246253Y-23376674D01*
X10246253Y-23376674D02*
X10255777Y-23338579D01*
X10255777Y-23338579D02*
X10265301Y-23319531D01*
X10265301Y-23319531D02*
X10274824Y-23310008D01*
X10274824Y-23310008D02*
X10293872Y-23300484D01*
X10455777Y-23490960D02*
X10455777Y-23500484D01*
X10455777Y-23500484D02*
X10446253Y-23519531D01*
X10446253Y-23519531D02*
X10436729Y-23529055D01*
X10627205Y-23300484D02*
X10589110Y-23300484D01*
X10589110Y-23300484D02*
X10570063Y-23310008D01*
X10570063Y-23310008D02*
X10560539Y-23319531D01*
X10560539Y-23319531D02*
X10541491Y-23348103D01*
X10541491Y-23348103D02*
X10531967Y-23386198D01*
X10531967Y-23386198D02*
X10531967Y-23462388D01*
X10531967Y-23462388D02*
X10541491Y-23481436D01*
X10541491Y-23481436D02*
X10551015Y-23490960D01*
X10551015Y-23490960D02*
X10570063Y-23500484D01*
X10570063Y-23500484D02*
X10608158Y-23500484D01*
X10608158Y-23500484D02*
X10627205Y-23490960D01*
X10627205Y-23490960D02*
X10636729Y-23481436D01*
X10636729Y-23481436D02*
X10646253Y-23462388D01*
X10646253Y-23462388D02*
X10646253Y-23414769D01*
X10646253Y-23414769D02*
X10636729Y-23395722D01*
X10636729Y-23395722D02*
X10627205Y-23386198D01*
X10627205Y-23386198D02*
X10608158Y-23376674D01*
X10608158Y-23376674D02*
X10570063Y-23376674D01*
X10570063Y-23376674D02*
X10551015Y-23386198D01*
X10551015Y-23386198D02*
X10541491Y-23395722D01*
X10541491Y-23395722D02*
X10531967Y-23414769D01*
X10770063Y-23300484D02*
X10789110Y-23300484D01*
X10789110Y-23300484D02*
X10808158Y-23310008D01*
X10808158Y-23310008D02*
X10817682Y-23319531D01*
X10817682Y-23319531D02*
X10827205Y-23338579D01*
X10827205Y-23338579D02*
X10836729Y-23376674D01*
X10836729Y-23376674D02*
X10836729Y-23424293D01*
X10836729Y-23424293D02*
X10827205Y-23462388D01*
X10827205Y-23462388D02*
X10817682Y-23481436D01*
X10817682Y-23481436D02*
X10808158Y-23490960D01*
X10808158Y-23490960D02*
X10789110Y-23500484D01*
X10789110Y-23500484D02*
X10770063Y-23500484D01*
X10770063Y-23500484D02*
X10751015Y-23490960D01*
X10751015Y-23490960D02*
X10741491Y-23481436D01*
X10741491Y-23481436D02*
X10731967Y-23462388D01*
X10731967Y-23462388D02*
X10722444Y-23424293D01*
X10722444Y-23424293D02*
X10722444Y-23376674D01*
X10722444Y-23376674D02*
X10731967Y-23338579D01*
X10731967Y-23338579D02*
X10741491Y-23319531D01*
X10741491Y-23319531D02*
X10751015Y-23310008D01*
X10751015Y-23310008D02*
X10770063Y-23300484D01*
X10960539Y-23300484D02*
X10979586Y-23300484D01*
X10979586Y-23300484D02*
X10998634Y-23310008D01*
X10998634Y-23310008D02*
X11008158Y-23319531D01*
X11008158Y-23319531D02*
X11017682Y-23338579D01*
X11017682Y-23338579D02*
X11027205Y-23376674D01*
X11027205Y-23376674D02*
X11027205Y-23424293D01*
X11027205Y-23424293D02*
X11017682Y-23462388D01*
X11017682Y-23462388D02*
X11008158Y-23481436D01*
X11008158Y-23481436D02*
X10998634Y-23490960D01*
X10998634Y-23490960D02*
X10979586Y-23500484D01*
X10979586Y-23500484D02*
X10960539Y-23500484D01*
X10960539Y-23500484D02*
X10941491Y-23490960D01*
X10941491Y-23490960D02*
X10931967Y-23481436D01*
X10931967Y-23481436D02*
X10922444Y-23462388D01*
X10922444Y-23462388D02*
X10912920Y-23424293D01*
X10912920Y-23424293D02*
X10912920Y-23376674D01*
X10912920Y-23376674D02*
X10922444Y-23338579D01*
X10922444Y-23338579D02*
X10931967Y-23319531D01*
X10931967Y-23319531D02*
X10941491Y-23310008D01*
X10941491Y-23310008D02*
X10960539Y-23300484D01*
X11112920Y-23500484D02*
X11112920Y-23367150D01*
X11112920Y-23386198D02*
X11122444Y-23376674D01*
X11122444Y-23376674D02*
X11141491Y-23367150D01*
X11141491Y-23367150D02*
X11170063Y-23367150D01*
X11170063Y-23367150D02*
X11189110Y-23376674D01*
X11189110Y-23376674D02*
X11198634Y-23395722D01*
X11198634Y-23395722D02*
X11198634Y-23500484D01*
X11198634Y-23395722D02*
X11208158Y-23376674D01*
X11208158Y-23376674D02*
X11227205Y-23367150D01*
X11227205Y-23367150D02*
X11255777Y-23367150D01*
X11255777Y-23367150D02*
X11274824Y-23376674D01*
X11274824Y-23376674D02*
X11284348Y-23395722D01*
X11284348Y-23395722D02*
X11284348Y-23500484D01*
X11379586Y-23500484D02*
X11379586Y-23367150D01*
X11379586Y-23386198D02*
X11389110Y-23376674D01*
X11389110Y-23376674D02*
X11408158Y-23367150D01*
X11408158Y-23367150D02*
X11436729Y-23367150D01*
X11436729Y-23367150D02*
X11455777Y-23376674D01*
X11455777Y-23376674D02*
X11465301Y-23395722D01*
X11465301Y-23395722D02*
X11465301Y-23500484D01*
X11465301Y-23395722D02*
X11474824Y-23376674D01*
X11474824Y-23376674D02*
X11493872Y-23367150D01*
X11493872Y-23367150D02*
X11522443Y-23367150D01*
X11522443Y-23367150D02*
X11541491Y-23376674D01*
X11541491Y-23376674D02*
X11551015Y-23395722D01*
X11551015Y-23395722D02*
X11551015Y-23500484D01*
X11941491Y-23290960D02*
X11770063Y-23548103D01*
X12198634Y-23300484D02*
X12217682Y-23300484D01*
X12217682Y-23300484D02*
X12236729Y-23310008D01*
X12236729Y-23310008D02*
X12246253Y-23319531D01*
X12246253Y-23319531D02*
X12255777Y-23338579D01*
X12255777Y-23338579D02*
X12265301Y-23376674D01*
X12265301Y-23376674D02*
X12265301Y-23424293D01*
X12265301Y-23424293D02*
X12255777Y-23462388D01*
X12255777Y-23462388D02*
X12246253Y-23481436D01*
X12246253Y-23481436D02*
X12236729Y-23490960D01*
X12236729Y-23490960D02*
X12217682Y-23500484D01*
X12217682Y-23500484D02*
X12198634Y-23500484D01*
X12198634Y-23500484D02*
X12179586Y-23490960D01*
X12179586Y-23490960D02*
X12170063Y-23481436D01*
X12170063Y-23481436D02*
X12160539Y-23462388D01*
X12160539Y-23462388D02*
X12151015Y-23424293D01*
X12151015Y-23424293D02*
X12151015Y-23376674D01*
X12151015Y-23376674D02*
X12160539Y-23338579D01*
X12160539Y-23338579D02*
X12170063Y-23319531D01*
X12170063Y-23319531D02*
X12179586Y-23310008D01*
X12179586Y-23310008D02*
X12198634Y-23300484D01*
X12360539Y-23490960D02*
X12360539Y-23500484D01*
X12360539Y-23500484D02*
X12351015Y-23519531D01*
X12351015Y-23519531D02*
X12341491Y-23529055D01*
X12484348Y-23300484D02*
X12503396Y-23300484D01*
X12503396Y-23300484D02*
X12522444Y-23310008D01*
X12522444Y-23310008D02*
X12531967Y-23319531D01*
X12531967Y-23319531D02*
X12541491Y-23338579D01*
X12541491Y-23338579D02*
X12551015Y-23376674D01*
X12551015Y-23376674D02*
X12551015Y-23424293D01*
X12551015Y-23424293D02*
X12541491Y-23462388D01*
X12541491Y-23462388D02*
X12531967Y-23481436D01*
X12531967Y-23481436D02*
X12522444Y-23490960D01*
X12522444Y-23490960D02*
X12503396Y-23500484D01*
X12503396Y-23500484D02*
X12484348Y-23500484D01*
X12484348Y-23500484D02*
X12465301Y-23490960D01*
X12465301Y-23490960D02*
X12455777Y-23481436D01*
X12455777Y-23481436D02*
X12446253Y-23462388D01*
X12446253Y-23462388D02*
X12436729Y-23424293D01*
X12436729Y-23424293D02*
X12436729Y-23376674D01*
X12436729Y-23376674D02*
X12446253Y-23338579D01*
X12446253Y-23338579D02*
X12455777Y-23319531D01*
X12455777Y-23319531D02*
X12465301Y-23310008D01*
X12465301Y-23310008D02*
X12484348Y-23300484D01*
X12627206Y-23319531D02*
X12636729Y-23310008D01*
X12636729Y-23310008D02*
X12655777Y-23300484D01*
X12655777Y-23300484D02*
X12703396Y-23300484D01*
X12703396Y-23300484D02*
X12722444Y-23310008D01*
X12722444Y-23310008D02*
X12731967Y-23319531D01*
X12731967Y-23319531D02*
X12741491Y-23338579D01*
X12741491Y-23338579D02*
X12741491Y-23357627D01*
X12741491Y-23357627D02*
X12731967Y-23386198D01*
X12731967Y-23386198D02*
X12617682Y-23500484D01*
X12617682Y-23500484D02*
X12741491Y-23500484D01*
X12808158Y-23300484D02*
X12931967Y-23300484D01*
X12931967Y-23300484D02*
X12865301Y-23376674D01*
X12865301Y-23376674D02*
X12893872Y-23376674D01*
X12893872Y-23376674D02*
X12912920Y-23386198D01*
X12912920Y-23386198D02*
X12922444Y-23395722D01*
X12922444Y-23395722D02*
X12931967Y-23414769D01*
X12931967Y-23414769D02*
X12931967Y-23462388D01*
X12931967Y-23462388D02*
X12922444Y-23481436D01*
X12922444Y-23481436D02*
X12912920Y-23490960D01*
X12912920Y-23490960D02*
X12893872Y-23500484D01*
X12893872Y-23500484D02*
X12836729Y-23500484D01*
X12836729Y-23500484D02*
X12817682Y-23490960D01*
X12817682Y-23490960D02*
X12808158Y-23481436D01*
X13103396Y-23300484D02*
X13065301Y-23300484D01*
X13065301Y-23300484D02*
X13046253Y-23310008D01*
X13046253Y-23310008D02*
X13036729Y-23319531D01*
X13036729Y-23319531D02*
X13017682Y-23348103D01*
X13017682Y-23348103D02*
X13008158Y-23386198D01*
X13008158Y-23386198D02*
X13008158Y-23462388D01*
X13008158Y-23462388D02*
X13017682Y-23481436D01*
X13017682Y-23481436D02*
X13027206Y-23490960D01*
X13027206Y-23490960D02*
X13046253Y-23500484D01*
X13046253Y-23500484D02*
X13084348Y-23500484D01*
X13084348Y-23500484D02*
X13103396Y-23490960D01*
X13103396Y-23490960D02*
X13112920Y-23481436D01*
X13112920Y-23481436D02*
X13122444Y-23462388D01*
X13122444Y-23462388D02*
X13122444Y-23414769D01*
X13122444Y-23414769D02*
X13112920Y-23395722D01*
X13112920Y-23395722D02*
X13103396Y-23386198D01*
X13103396Y-23386198D02*
X13084348Y-23376674D01*
X13084348Y-23376674D02*
X13046253Y-23376674D01*
X13046253Y-23376674D02*
X13027206Y-23386198D01*
X13027206Y-23386198D02*
X13017682Y-23395722D01*
X13017682Y-23395722D02*
X13008158Y-23414769D01*
X13198634Y-23300484D02*
X13198634Y-23338579D01*
X13274825Y-23300484D02*
X13274825Y-23338579D01*
X13570063Y-23576674D02*
X13560539Y-23567150D01*
X13560539Y-23567150D02*
X13541491Y-23538579D01*
X13541491Y-23538579D02*
X13531968Y-23519531D01*
X13531968Y-23519531D02*
X13522444Y-23490960D01*
X13522444Y-23490960D02*
X13512920Y-23443341D01*
X13512920Y-23443341D02*
X13512920Y-23405246D01*
X13512920Y-23405246D02*
X13522444Y-23357627D01*
X13522444Y-23357627D02*
X13531968Y-23329055D01*
X13531968Y-23329055D02*
X13541491Y-23310008D01*
X13541491Y-23310008D02*
X13560539Y-23281436D01*
X13560539Y-23281436D02*
X13570063Y-23271912D01*
X13684348Y-23300484D02*
X13703396Y-23300484D01*
X13703396Y-23300484D02*
X13722444Y-23310008D01*
X13722444Y-23310008D02*
X13731968Y-23319531D01*
X13731968Y-23319531D02*
X13741491Y-23338579D01*
X13741491Y-23338579D02*
X13751015Y-23376674D01*
X13751015Y-23376674D02*
X13751015Y-23424293D01*
X13751015Y-23424293D02*
X13741491Y-23462388D01*
X13741491Y-23462388D02*
X13731968Y-23481436D01*
X13731968Y-23481436D02*
X13722444Y-23490960D01*
X13722444Y-23490960D02*
X13703396Y-23500484D01*
X13703396Y-23500484D02*
X13684348Y-23500484D01*
X13684348Y-23500484D02*
X13665301Y-23490960D01*
X13665301Y-23490960D02*
X13655777Y-23481436D01*
X13655777Y-23481436D02*
X13646253Y-23462388D01*
X13646253Y-23462388D02*
X13636729Y-23424293D01*
X13636729Y-23424293D02*
X13636729Y-23376674D01*
X13636729Y-23376674D02*
X13646253Y-23338579D01*
X13646253Y-23338579D02*
X13655777Y-23319531D01*
X13655777Y-23319531D02*
X13665301Y-23310008D01*
X13665301Y-23310008D02*
X13684348Y-23300484D01*
X13989110Y-23500484D02*
X13989110Y-23300484D01*
X14074825Y-23500484D02*
X14074825Y-23395722D01*
X14074825Y-23395722D02*
X14065301Y-23376674D01*
X14065301Y-23376674D02*
X14046253Y-23367150D01*
X14046253Y-23367150D02*
X14017682Y-23367150D01*
X14017682Y-23367150D02*
X13998634Y-23376674D01*
X13998634Y-23376674D02*
X13989110Y-23386198D01*
X14198634Y-23500484D02*
X14179587Y-23490960D01*
X14179587Y-23490960D02*
X14170063Y-23481436D01*
X14170063Y-23481436D02*
X14160539Y-23462388D01*
X14160539Y-23462388D02*
X14160539Y-23405246D01*
X14160539Y-23405246D02*
X14170063Y-23386198D01*
X14170063Y-23386198D02*
X14179587Y-23376674D01*
X14179587Y-23376674D02*
X14198634Y-23367150D01*
X14198634Y-23367150D02*
X14227206Y-23367150D01*
X14227206Y-23367150D02*
X14246253Y-23376674D01*
X14246253Y-23376674D02*
X14255777Y-23386198D01*
X14255777Y-23386198D02*
X14265301Y-23405246D01*
X14265301Y-23405246D02*
X14265301Y-23462388D01*
X14265301Y-23462388D02*
X14255777Y-23481436D01*
X14255777Y-23481436D02*
X14246253Y-23490960D01*
X14246253Y-23490960D02*
X14227206Y-23500484D01*
X14227206Y-23500484D02*
X14198634Y-23500484D01*
X14379587Y-23500484D02*
X14360539Y-23490960D01*
X14360539Y-23490960D02*
X14351015Y-23471912D01*
X14351015Y-23471912D02*
X14351015Y-23300484D01*
X14531968Y-23490960D02*
X14512920Y-23500484D01*
X14512920Y-23500484D02*
X14474825Y-23500484D01*
X14474825Y-23500484D02*
X14455777Y-23490960D01*
X14455777Y-23490960D02*
X14446253Y-23471912D01*
X14446253Y-23471912D02*
X14446253Y-23395722D01*
X14446253Y-23395722D02*
X14455777Y-23376674D01*
X14455777Y-23376674D02*
X14474825Y-23367150D01*
X14474825Y-23367150D02*
X14512920Y-23367150D01*
X14512920Y-23367150D02*
X14531968Y-23376674D01*
X14531968Y-23376674D02*
X14541491Y-23395722D01*
X14541491Y-23395722D02*
X14541491Y-23414769D01*
X14541491Y-23414769D02*
X14446253Y-23433817D01*
X14617682Y-23490960D02*
X14636730Y-23500484D01*
X14636730Y-23500484D02*
X14674825Y-23500484D01*
X14674825Y-23500484D02*
X14693872Y-23490960D01*
X14693872Y-23490960D02*
X14703396Y-23471912D01*
X14703396Y-23471912D02*
X14703396Y-23462388D01*
X14703396Y-23462388D02*
X14693872Y-23443341D01*
X14693872Y-23443341D02*
X14674825Y-23433817D01*
X14674825Y-23433817D02*
X14646253Y-23433817D01*
X14646253Y-23433817D02*
X14627206Y-23424293D01*
X14627206Y-23424293D02*
X14617682Y-23405246D01*
X14617682Y-23405246D02*
X14617682Y-23395722D01*
X14617682Y-23395722D02*
X14627206Y-23376674D01*
X14627206Y-23376674D02*
X14646253Y-23367150D01*
X14646253Y-23367150D02*
X14674825Y-23367150D01*
X14674825Y-23367150D02*
X14693872Y-23376674D01*
X14941492Y-23424293D02*
X15093873Y-23424293D01*
X15017682Y-23500484D02*
X15017682Y-23348103D01*
X15331968Y-23319531D02*
X15341492Y-23310008D01*
X15341492Y-23310008D02*
X15360539Y-23300484D01*
X15360539Y-23300484D02*
X15408158Y-23300484D01*
X15408158Y-23300484D02*
X15427206Y-23310008D01*
X15427206Y-23310008D02*
X15436730Y-23319531D01*
X15436730Y-23319531D02*
X15446253Y-23338579D01*
X15446253Y-23338579D02*
X15446253Y-23357627D01*
X15446253Y-23357627D02*
X15436730Y-23386198D01*
X15436730Y-23386198D02*
X15322444Y-23500484D01*
X15322444Y-23500484D02*
X15446253Y-23500484D01*
X15617682Y-23367150D02*
X15617682Y-23500484D01*
X15570063Y-23290960D02*
X15522444Y-23433817D01*
X15522444Y-23433817D02*
X15646253Y-23433817D01*
X15865301Y-23490960D02*
X15884349Y-23500484D01*
X15884349Y-23500484D02*
X15922444Y-23500484D01*
X15922444Y-23500484D02*
X15941492Y-23490960D01*
X15941492Y-23490960D02*
X15951015Y-23471912D01*
X15951015Y-23471912D02*
X15951015Y-23462388D01*
X15951015Y-23462388D02*
X15941492Y-23443341D01*
X15941492Y-23443341D02*
X15922444Y-23433817D01*
X15922444Y-23433817D02*
X15893873Y-23433817D01*
X15893873Y-23433817D02*
X15874825Y-23424293D01*
X15874825Y-23424293D02*
X15865301Y-23405246D01*
X15865301Y-23405246D02*
X15865301Y-23395722D01*
X15865301Y-23395722D02*
X15874825Y-23376674D01*
X15874825Y-23376674D02*
X15893873Y-23367150D01*
X15893873Y-23367150D02*
X15922444Y-23367150D01*
X15922444Y-23367150D02*
X15941492Y-23376674D01*
X16065301Y-23500484D02*
X16046254Y-23490960D01*
X16046254Y-23490960D02*
X16036730Y-23471912D01*
X16036730Y-23471912D02*
X16036730Y-23300484D01*
X16170063Y-23500484D02*
X16151015Y-23490960D01*
X16151015Y-23490960D02*
X16141492Y-23481436D01*
X16141492Y-23481436D02*
X16131968Y-23462388D01*
X16131968Y-23462388D02*
X16131968Y-23405246D01*
X16131968Y-23405246D02*
X16141492Y-23386198D01*
X16141492Y-23386198D02*
X16151015Y-23376674D01*
X16151015Y-23376674D02*
X16170063Y-23367150D01*
X16170063Y-23367150D02*
X16198635Y-23367150D01*
X16198635Y-23367150D02*
X16217682Y-23376674D01*
X16217682Y-23376674D02*
X16227206Y-23386198D01*
X16227206Y-23386198D02*
X16236730Y-23405246D01*
X16236730Y-23405246D02*
X16236730Y-23462388D01*
X16236730Y-23462388D02*
X16227206Y-23481436D01*
X16227206Y-23481436D02*
X16217682Y-23490960D01*
X16217682Y-23490960D02*
X16198635Y-23500484D01*
X16198635Y-23500484D02*
X16170063Y-23500484D01*
X16293873Y-23367150D02*
X16370063Y-23367150D01*
X16322444Y-23300484D02*
X16322444Y-23471912D01*
X16322444Y-23471912D02*
X16331968Y-23490960D01*
X16331968Y-23490960D02*
X16351015Y-23500484D01*
X16351015Y-23500484D02*
X16370063Y-23500484D01*
X16427206Y-23490960D02*
X16446254Y-23500484D01*
X16446254Y-23500484D02*
X16484349Y-23500484D01*
X16484349Y-23500484D02*
X16503396Y-23490960D01*
X16503396Y-23490960D02*
X16512920Y-23471912D01*
X16512920Y-23471912D02*
X16512920Y-23462388D01*
X16512920Y-23462388D02*
X16503396Y-23443341D01*
X16503396Y-23443341D02*
X16484349Y-23433817D01*
X16484349Y-23433817D02*
X16455777Y-23433817D01*
X16455777Y-23433817D02*
X16436730Y-23424293D01*
X16436730Y-23424293D02*
X16427206Y-23405246D01*
X16427206Y-23405246D02*
X16427206Y-23395722D01*
X16427206Y-23395722D02*
X16436730Y-23376674D01*
X16436730Y-23376674D02*
X16455777Y-23367150D01*
X16455777Y-23367150D02*
X16484349Y-23367150D01*
X16484349Y-23367150D02*
X16503396Y-23376674D01*
X16579587Y-23576674D02*
X16589111Y-23567150D01*
X16589111Y-23567150D02*
X16608158Y-23538579D01*
X16608158Y-23538579D02*
X16617682Y-23519531D01*
X16617682Y-23519531D02*
X16627206Y-23490960D01*
X16627206Y-23490960D02*
X16636730Y-23443341D01*
X16636730Y-23443341D02*
X16636730Y-23405246D01*
X16636730Y-23405246D02*
X16627206Y-23357627D01*
X16627206Y-23357627D02*
X16617682Y-23329055D01*
X16617682Y-23329055D02*
X16608158Y-23310008D01*
X16608158Y-23310008D02*
X16589111Y-23281436D01*
X16589111Y-23281436D02*
X16579587Y-23271912D01*
D10*
X9945000Y-23623000D02*
X9945000Y-23723000D01*
X9895000Y-23673000D02*
X9995000Y-23673000D01*
D11*
X10360539Y-23764484D02*
X10246253Y-23764484D01*
X10303396Y-23764484D02*
X10303396Y-23564484D01*
X10303396Y-23564484D02*
X10284348Y-23593055D01*
X10284348Y-23593055D02*
X10265301Y-23612103D01*
X10265301Y-23612103D02*
X10246253Y-23621627D01*
X10455777Y-23754960D02*
X10455777Y-23764484D01*
X10455777Y-23764484D02*
X10446253Y-23783531D01*
X10446253Y-23783531D02*
X10436729Y-23793055D01*
X10579586Y-23564484D02*
X10598634Y-23564484D01*
X10598634Y-23564484D02*
X10617682Y-23574008D01*
X10617682Y-23574008D02*
X10627205Y-23583531D01*
X10627205Y-23583531D02*
X10636729Y-23602579D01*
X10636729Y-23602579D02*
X10646253Y-23640674D01*
X10646253Y-23640674D02*
X10646253Y-23688293D01*
X10646253Y-23688293D02*
X10636729Y-23726388D01*
X10636729Y-23726388D02*
X10627205Y-23745436D01*
X10627205Y-23745436D02*
X10617682Y-23754960D01*
X10617682Y-23754960D02*
X10598634Y-23764484D01*
X10598634Y-23764484D02*
X10579586Y-23764484D01*
X10579586Y-23764484D02*
X10560539Y-23754960D01*
X10560539Y-23754960D02*
X10551015Y-23745436D01*
X10551015Y-23745436D02*
X10541491Y-23726388D01*
X10541491Y-23726388D02*
X10531967Y-23688293D01*
X10531967Y-23688293D02*
X10531967Y-23640674D01*
X10531967Y-23640674D02*
X10541491Y-23602579D01*
X10541491Y-23602579D02*
X10551015Y-23583531D01*
X10551015Y-23583531D02*
X10560539Y-23574008D01*
X10560539Y-23574008D02*
X10579586Y-23564484D01*
X10770063Y-23564484D02*
X10789110Y-23564484D01*
X10789110Y-23564484D02*
X10808158Y-23574008D01*
X10808158Y-23574008D02*
X10817682Y-23583531D01*
X10817682Y-23583531D02*
X10827205Y-23602579D01*
X10827205Y-23602579D02*
X10836729Y-23640674D01*
X10836729Y-23640674D02*
X10836729Y-23688293D01*
X10836729Y-23688293D02*
X10827205Y-23726388D01*
X10827205Y-23726388D02*
X10817682Y-23745436D01*
X10817682Y-23745436D02*
X10808158Y-23754960D01*
X10808158Y-23754960D02*
X10789110Y-23764484D01*
X10789110Y-23764484D02*
X10770063Y-23764484D01*
X10770063Y-23764484D02*
X10751015Y-23754960D01*
X10751015Y-23754960D02*
X10741491Y-23745436D01*
X10741491Y-23745436D02*
X10731967Y-23726388D01*
X10731967Y-23726388D02*
X10722444Y-23688293D01*
X10722444Y-23688293D02*
X10722444Y-23640674D01*
X10722444Y-23640674D02*
X10731967Y-23602579D01*
X10731967Y-23602579D02*
X10741491Y-23583531D01*
X10741491Y-23583531D02*
X10751015Y-23574008D01*
X10751015Y-23574008D02*
X10770063Y-23564484D01*
X10960539Y-23564484D02*
X10979586Y-23564484D01*
X10979586Y-23564484D02*
X10998634Y-23574008D01*
X10998634Y-23574008D02*
X11008158Y-23583531D01*
X11008158Y-23583531D02*
X11017682Y-23602579D01*
X11017682Y-23602579D02*
X11027205Y-23640674D01*
X11027205Y-23640674D02*
X11027205Y-23688293D01*
X11027205Y-23688293D02*
X11017682Y-23726388D01*
X11017682Y-23726388D02*
X11008158Y-23745436D01*
X11008158Y-23745436D02*
X10998634Y-23754960D01*
X10998634Y-23754960D02*
X10979586Y-23764484D01*
X10979586Y-23764484D02*
X10960539Y-23764484D01*
X10960539Y-23764484D02*
X10941491Y-23754960D01*
X10941491Y-23754960D02*
X10931967Y-23745436D01*
X10931967Y-23745436D02*
X10922444Y-23726388D01*
X10922444Y-23726388D02*
X10912920Y-23688293D01*
X10912920Y-23688293D02*
X10912920Y-23640674D01*
X10912920Y-23640674D02*
X10922444Y-23602579D01*
X10922444Y-23602579D02*
X10931967Y-23583531D01*
X10931967Y-23583531D02*
X10941491Y-23574008D01*
X10941491Y-23574008D02*
X10960539Y-23564484D01*
X11112920Y-23764484D02*
X11112920Y-23631150D01*
X11112920Y-23650198D02*
X11122444Y-23640674D01*
X11122444Y-23640674D02*
X11141491Y-23631150D01*
X11141491Y-23631150D02*
X11170063Y-23631150D01*
X11170063Y-23631150D02*
X11189110Y-23640674D01*
X11189110Y-23640674D02*
X11198634Y-23659722D01*
X11198634Y-23659722D02*
X11198634Y-23764484D01*
X11198634Y-23659722D02*
X11208158Y-23640674D01*
X11208158Y-23640674D02*
X11227205Y-23631150D01*
X11227205Y-23631150D02*
X11255777Y-23631150D01*
X11255777Y-23631150D02*
X11274824Y-23640674D01*
X11274824Y-23640674D02*
X11284348Y-23659722D01*
X11284348Y-23659722D02*
X11284348Y-23764484D01*
X11379586Y-23764484D02*
X11379586Y-23631150D01*
X11379586Y-23650198D02*
X11389110Y-23640674D01*
X11389110Y-23640674D02*
X11408158Y-23631150D01*
X11408158Y-23631150D02*
X11436729Y-23631150D01*
X11436729Y-23631150D02*
X11455777Y-23640674D01*
X11455777Y-23640674D02*
X11465301Y-23659722D01*
X11465301Y-23659722D02*
X11465301Y-23764484D01*
X11465301Y-23659722D02*
X11474824Y-23640674D01*
X11474824Y-23640674D02*
X11493872Y-23631150D01*
X11493872Y-23631150D02*
X11522443Y-23631150D01*
X11522443Y-23631150D02*
X11541491Y-23640674D01*
X11541491Y-23640674D02*
X11551015Y-23659722D01*
X11551015Y-23659722D02*
X11551015Y-23764484D01*
X11941491Y-23554960D02*
X11770063Y-23812103D01*
X12198634Y-23564484D02*
X12217682Y-23564484D01*
X12217682Y-23564484D02*
X12236729Y-23574008D01*
X12236729Y-23574008D02*
X12246253Y-23583531D01*
X12246253Y-23583531D02*
X12255777Y-23602579D01*
X12255777Y-23602579D02*
X12265301Y-23640674D01*
X12265301Y-23640674D02*
X12265301Y-23688293D01*
X12265301Y-23688293D02*
X12255777Y-23726388D01*
X12255777Y-23726388D02*
X12246253Y-23745436D01*
X12246253Y-23745436D02*
X12236729Y-23754960D01*
X12236729Y-23754960D02*
X12217682Y-23764484D01*
X12217682Y-23764484D02*
X12198634Y-23764484D01*
X12198634Y-23764484D02*
X12179586Y-23754960D01*
X12179586Y-23754960D02*
X12170063Y-23745436D01*
X12170063Y-23745436D02*
X12160539Y-23726388D01*
X12160539Y-23726388D02*
X12151015Y-23688293D01*
X12151015Y-23688293D02*
X12151015Y-23640674D01*
X12151015Y-23640674D02*
X12160539Y-23602579D01*
X12160539Y-23602579D02*
X12170063Y-23583531D01*
X12170063Y-23583531D02*
X12179586Y-23574008D01*
X12179586Y-23574008D02*
X12198634Y-23564484D01*
X12360539Y-23754960D02*
X12360539Y-23764484D01*
X12360539Y-23764484D02*
X12351015Y-23783531D01*
X12351015Y-23783531D02*
X12341491Y-23793055D01*
X12484348Y-23564484D02*
X12503396Y-23564484D01*
X12503396Y-23564484D02*
X12522444Y-23574008D01*
X12522444Y-23574008D02*
X12531967Y-23583531D01*
X12531967Y-23583531D02*
X12541491Y-23602579D01*
X12541491Y-23602579D02*
X12551015Y-23640674D01*
X12551015Y-23640674D02*
X12551015Y-23688293D01*
X12551015Y-23688293D02*
X12541491Y-23726388D01*
X12541491Y-23726388D02*
X12531967Y-23745436D01*
X12531967Y-23745436D02*
X12522444Y-23754960D01*
X12522444Y-23754960D02*
X12503396Y-23764484D01*
X12503396Y-23764484D02*
X12484348Y-23764484D01*
X12484348Y-23764484D02*
X12465301Y-23754960D01*
X12465301Y-23754960D02*
X12455777Y-23745436D01*
X12455777Y-23745436D02*
X12446253Y-23726388D01*
X12446253Y-23726388D02*
X12436729Y-23688293D01*
X12436729Y-23688293D02*
X12436729Y-23640674D01*
X12436729Y-23640674D02*
X12446253Y-23602579D01*
X12446253Y-23602579D02*
X12455777Y-23583531D01*
X12455777Y-23583531D02*
X12465301Y-23574008D01*
X12465301Y-23574008D02*
X12484348Y-23564484D01*
X12617682Y-23564484D02*
X12741491Y-23564484D01*
X12741491Y-23564484D02*
X12674825Y-23640674D01*
X12674825Y-23640674D02*
X12703396Y-23640674D01*
X12703396Y-23640674D02*
X12722444Y-23650198D01*
X12722444Y-23650198D02*
X12731967Y-23659722D01*
X12731967Y-23659722D02*
X12741491Y-23678769D01*
X12741491Y-23678769D02*
X12741491Y-23726388D01*
X12741491Y-23726388D02*
X12731967Y-23745436D01*
X12731967Y-23745436D02*
X12722444Y-23754960D01*
X12722444Y-23754960D02*
X12703396Y-23764484D01*
X12703396Y-23764484D02*
X12646253Y-23764484D01*
X12646253Y-23764484D02*
X12627206Y-23754960D01*
X12627206Y-23754960D02*
X12617682Y-23745436D01*
X12836729Y-23764484D02*
X12874825Y-23764484D01*
X12874825Y-23764484D02*
X12893872Y-23754960D01*
X12893872Y-23754960D02*
X12903396Y-23745436D01*
X12903396Y-23745436D02*
X12922444Y-23716865D01*
X12922444Y-23716865D02*
X12931967Y-23678769D01*
X12931967Y-23678769D02*
X12931967Y-23602579D01*
X12931967Y-23602579D02*
X12922444Y-23583531D01*
X12922444Y-23583531D02*
X12912920Y-23574008D01*
X12912920Y-23574008D02*
X12893872Y-23564484D01*
X12893872Y-23564484D02*
X12855777Y-23564484D01*
X12855777Y-23564484D02*
X12836729Y-23574008D01*
X12836729Y-23574008D02*
X12827206Y-23583531D01*
X12827206Y-23583531D02*
X12817682Y-23602579D01*
X12817682Y-23602579D02*
X12817682Y-23650198D01*
X12817682Y-23650198D02*
X12827206Y-23669246D01*
X12827206Y-23669246D02*
X12836729Y-23678769D01*
X12836729Y-23678769D02*
X12855777Y-23688293D01*
X12855777Y-23688293D02*
X12893872Y-23688293D01*
X12893872Y-23688293D02*
X12912920Y-23678769D01*
X12912920Y-23678769D02*
X12922444Y-23669246D01*
X12922444Y-23669246D02*
X12931967Y-23650198D01*
X13103396Y-23631150D02*
X13103396Y-23764484D01*
X13055777Y-23554960D02*
X13008158Y-23697817D01*
X13008158Y-23697817D02*
X13131967Y-23697817D01*
X13198634Y-23564484D02*
X13198634Y-23602579D01*
X13274825Y-23564484D02*
X13274825Y-23602579D01*
X13570063Y-23840674D02*
X13560539Y-23831150D01*
X13560539Y-23831150D02*
X13541491Y-23802579D01*
X13541491Y-23802579D02*
X13531968Y-23783531D01*
X13531968Y-23783531D02*
X13522444Y-23754960D01*
X13522444Y-23754960D02*
X13512920Y-23707341D01*
X13512920Y-23707341D02*
X13512920Y-23669246D01*
X13512920Y-23669246D02*
X13522444Y-23621627D01*
X13522444Y-23621627D02*
X13531968Y-23593055D01*
X13531968Y-23593055D02*
X13541491Y-23574008D01*
X13541491Y-23574008D02*
X13560539Y-23545436D01*
X13560539Y-23545436D02*
X13570063Y-23535912D01*
X13751015Y-23764484D02*
X13636729Y-23764484D01*
X13693872Y-23764484D02*
X13693872Y-23564484D01*
X13693872Y-23564484D02*
X13674825Y-23593055D01*
X13674825Y-23593055D02*
X13655777Y-23612103D01*
X13655777Y-23612103D02*
X13636729Y-23621627D01*
X13874825Y-23564484D02*
X13893872Y-23564484D01*
X13893872Y-23564484D02*
X13912920Y-23574008D01*
X13912920Y-23574008D02*
X13922444Y-23583531D01*
X13922444Y-23583531D02*
X13931968Y-23602579D01*
X13931968Y-23602579D02*
X13941491Y-23640674D01*
X13941491Y-23640674D02*
X13941491Y-23688293D01*
X13941491Y-23688293D02*
X13931968Y-23726388D01*
X13931968Y-23726388D02*
X13922444Y-23745436D01*
X13922444Y-23745436D02*
X13912920Y-23754960D01*
X13912920Y-23754960D02*
X13893872Y-23764484D01*
X13893872Y-23764484D02*
X13874825Y-23764484D01*
X13874825Y-23764484D02*
X13855777Y-23754960D01*
X13855777Y-23754960D02*
X13846253Y-23745436D01*
X13846253Y-23745436D02*
X13836729Y-23726388D01*
X13836729Y-23726388D02*
X13827206Y-23688293D01*
X13827206Y-23688293D02*
X13827206Y-23640674D01*
X13827206Y-23640674D02*
X13836729Y-23602579D01*
X13836729Y-23602579D02*
X13846253Y-23583531D01*
X13846253Y-23583531D02*
X13855777Y-23574008D01*
X13855777Y-23574008D02*
X13874825Y-23564484D01*
X14179587Y-23764484D02*
X14179587Y-23564484D01*
X14265301Y-23764484D02*
X14265301Y-23659722D01*
X14265301Y-23659722D02*
X14255777Y-23640674D01*
X14255777Y-23640674D02*
X14236730Y-23631150D01*
X14236730Y-23631150D02*
X14208158Y-23631150D01*
X14208158Y-23631150D02*
X14189110Y-23640674D01*
X14189110Y-23640674D02*
X14179587Y-23650198D01*
X14389110Y-23764484D02*
X14370063Y-23754960D01*
X14370063Y-23754960D02*
X14360539Y-23745436D01*
X14360539Y-23745436D02*
X14351015Y-23726388D01*
X14351015Y-23726388D02*
X14351015Y-23669246D01*
X14351015Y-23669246D02*
X14360539Y-23650198D01*
X14360539Y-23650198D02*
X14370063Y-23640674D01*
X14370063Y-23640674D02*
X14389110Y-23631150D01*
X14389110Y-23631150D02*
X14417682Y-23631150D01*
X14417682Y-23631150D02*
X14436730Y-23640674D01*
X14436730Y-23640674D02*
X14446253Y-23650198D01*
X14446253Y-23650198D02*
X14455777Y-23669246D01*
X14455777Y-23669246D02*
X14455777Y-23726388D01*
X14455777Y-23726388D02*
X14446253Y-23745436D01*
X14446253Y-23745436D02*
X14436730Y-23754960D01*
X14436730Y-23754960D02*
X14417682Y-23764484D01*
X14417682Y-23764484D02*
X14389110Y-23764484D01*
X14570063Y-23764484D02*
X14551015Y-23754960D01*
X14551015Y-23754960D02*
X14541491Y-23735912D01*
X14541491Y-23735912D02*
X14541491Y-23564484D01*
X14722444Y-23754960D02*
X14703396Y-23764484D01*
X14703396Y-23764484D02*
X14665301Y-23764484D01*
X14665301Y-23764484D02*
X14646253Y-23754960D01*
X14646253Y-23754960D02*
X14636730Y-23735912D01*
X14636730Y-23735912D02*
X14636730Y-23659722D01*
X14636730Y-23659722D02*
X14646253Y-23640674D01*
X14646253Y-23640674D02*
X14665301Y-23631150D01*
X14665301Y-23631150D02*
X14703396Y-23631150D01*
X14703396Y-23631150D02*
X14722444Y-23640674D01*
X14722444Y-23640674D02*
X14731968Y-23659722D01*
X14731968Y-23659722D02*
X14731968Y-23678769D01*
X14731968Y-23678769D02*
X14636730Y-23697817D01*
X14808158Y-23754960D02*
X14827206Y-23764484D01*
X14827206Y-23764484D02*
X14865301Y-23764484D01*
X14865301Y-23764484D02*
X14884349Y-23754960D01*
X14884349Y-23754960D02*
X14893872Y-23735912D01*
X14893872Y-23735912D02*
X14893872Y-23726388D01*
X14893872Y-23726388D02*
X14884349Y-23707341D01*
X14884349Y-23707341D02*
X14865301Y-23697817D01*
X14865301Y-23697817D02*
X14836730Y-23697817D01*
X14836730Y-23697817D02*
X14817682Y-23688293D01*
X14817682Y-23688293D02*
X14808158Y-23669246D01*
X14808158Y-23669246D02*
X14808158Y-23659722D01*
X14808158Y-23659722D02*
X14817682Y-23640674D01*
X14817682Y-23640674D02*
X14836730Y-23631150D01*
X14836730Y-23631150D02*
X14865301Y-23631150D01*
X14865301Y-23631150D02*
X14884349Y-23640674D01*
X14960539Y-23840674D02*
X14970063Y-23831150D01*
X14970063Y-23831150D02*
X14989111Y-23802579D01*
X14989111Y-23802579D02*
X14998634Y-23783531D01*
X14998634Y-23783531D02*
X15008158Y-23754960D01*
X15008158Y-23754960D02*
X15017682Y-23707341D01*
X15017682Y-23707341D02*
X15017682Y-23669246D01*
X15017682Y-23669246D02*
X15008158Y-23621627D01*
X15008158Y-23621627D02*
X14998634Y-23593055D01*
X14998634Y-23593055D02*
X14989111Y-23574008D01*
X14989111Y-23574008D02*
X14970063Y-23545436D01*
X14970063Y-23545436D02*
X14960539Y-23535912D01*
M02*
