%TF.GenerationSoftware,KiCad,Pcbnew,10.0.3*%
%TF.CreationDate,2026-07-08T12:05:29+02:00*%
%TF.ProjectId,musicbrain-jack8,6d757369-6362-4726-9169-6e2d6a61636b,1.0*%
%TF.SameCoordinates,Original*%
%TF.FileFunction,Legend,Top*%
%TF.FilePolarity,Positive*%
%FSLAX46Y46*%
G04 Gerber Fmt 4.6, Leading zero omitted, Abs format (unit mm)*
G04 Created by KiCad (PCBNEW 10.0.3) date 2026-07-08 12:05:29*
%MOMM*%
%LPD*%
G01*
G04 APERTURE LIST*
%ADD10C,0.150000*%
%ADD11C,0.120000*%
G04 APERTURE END LIST*
D10*
X110454819Y-235404761D02*
X109788152Y-235404761D01*
X109883390Y-235404761D02*
X109835771Y-235357142D01*
X109835771Y-235357142D02*
X109788152Y-235261904D01*
X109788152Y-235261904D02*
X109788152Y-235119047D01*
X109788152Y-235119047D02*
X109835771Y-235023809D01*
X109835771Y-235023809D02*
X109931009Y-234976190D01*
X109931009Y-234976190D02*
X110454819Y-234976190D01*
X109931009Y-234976190D02*
X109835771Y-234928571D01*
X109835771Y-234928571D02*
X109788152Y-234833333D01*
X109788152Y-234833333D02*
X109788152Y-234690476D01*
X109788152Y-234690476D02*
X109835771Y-234595237D01*
X109835771Y-234595237D02*
X109931009Y-234547618D01*
X109931009Y-234547618D02*
X110454819Y-234547618D01*
X109788152Y-233642857D02*
X110454819Y-233642857D01*
X109788152Y-234071428D02*
X110311961Y-234071428D01*
X110311961Y-234071428D02*
X110407200Y-234023809D01*
X110407200Y-234023809D02*
X110454819Y-233928571D01*
X110454819Y-233928571D02*
X110454819Y-233785714D01*
X110454819Y-233785714D02*
X110407200Y-233690476D01*
X110407200Y-233690476D02*
X110359580Y-233642857D01*
X110407200Y-233214285D02*
X110454819Y-233119047D01*
X110454819Y-233119047D02*
X110454819Y-232928571D01*
X110454819Y-232928571D02*
X110407200Y-232833333D01*
X110407200Y-232833333D02*
X110311961Y-232785714D01*
X110311961Y-232785714D02*
X110264342Y-232785714D01*
X110264342Y-232785714D02*
X110169104Y-232833333D01*
X110169104Y-232833333D02*
X110121485Y-232928571D01*
X110121485Y-232928571D02*
X110121485Y-233071428D01*
X110121485Y-233071428D02*
X110073866Y-233166666D01*
X110073866Y-233166666D02*
X109978628Y-233214285D01*
X109978628Y-233214285D02*
X109931009Y-233214285D01*
X109931009Y-233214285D02*
X109835771Y-233166666D01*
X109835771Y-233166666D02*
X109788152Y-233071428D01*
X109788152Y-233071428D02*
X109788152Y-232928571D01*
X109788152Y-232928571D02*
X109835771Y-232833333D01*
X110454819Y-232357142D02*
X109788152Y-232357142D01*
X109454819Y-232357142D02*
X109502438Y-232404761D01*
X109502438Y-232404761D02*
X109550057Y-232357142D01*
X109550057Y-232357142D02*
X109502438Y-232309523D01*
X109502438Y-232309523D02*
X109454819Y-232357142D01*
X109454819Y-232357142D02*
X109550057Y-232357142D01*
X110407200Y-231452381D02*
X110454819Y-231547619D01*
X110454819Y-231547619D02*
X110454819Y-231738095D01*
X110454819Y-231738095D02*
X110407200Y-231833333D01*
X110407200Y-231833333D02*
X110359580Y-231880952D01*
X110359580Y-231880952D02*
X110264342Y-231928571D01*
X110264342Y-231928571D02*
X109978628Y-231928571D01*
X109978628Y-231928571D02*
X109883390Y-231880952D01*
X109883390Y-231880952D02*
X109835771Y-231833333D01*
X109835771Y-231833333D02*
X109788152Y-231738095D01*
X109788152Y-231738095D02*
X109788152Y-231547619D01*
X109788152Y-231547619D02*
X109835771Y-231452381D01*
X110454819Y-231023809D02*
X109454819Y-231023809D01*
X109835771Y-231023809D02*
X109788152Y-230928571D01*
X109788152Y-230928571D02*
X109788152Y-230738095D01*
X109788152Y-230738095D02*
X109835771Y-230642857D01*
X109835771Y-230642857D02*
X109883390Y-230595238D01*
X109883390Y-230595238D02*
X109978628Y-230547619D01*
X109978628Y-230547619D02*
X110264342Y-230547619D01*
X110264342Y-230547619D02*
X110359580Y-230595238D01*
X110359580Y-230595238D02*
X110407200Y-230642857D01*
X110407200Y-230642857D02*
X110454819Y-230738095D01*
X110454819Y-230738095D02*
X110454819Y-230928571D01*
X110454819Y-230928571D02*
X110407200Y-231023809D01*
X110454819Y-230119047D02*
X109788152Y-230119047D01*
X109978628Y-230119047D02*
X109883390Y-230071428D01*
X109883390Y-230071428D02*
X109835771Y-230023809D01*
X109835771Y-230023809D02*
X109788152Y-229928571D01*
X109788152Y-229928571D02*
X109788152Y-229833333D01*
X110454819Y-229071428D02*
X109931009Y-229071428D01*
X109931009Y-229071428D02*
X109835771Y-229119047D01*
X109835771Y-229119047D02*
X109788152Y-229214285D01*
X109788152Y-229214285D02*
X109788152Y-229404761D01*
X109788152Y-229404761D02*
X109835771Y-229499999D01*
X110407200Y-229071428D02*
X110454819Y-229166666D01*
X110454819Y-229166666D02*
X110454819Y-229404761D01*
X110454819Y-229404761D02*
X110407200Y-229499999D01*
X110407200Y-229499999D02*
X110311961Y-229547618D01*
X110311961Y-229547618D02*
X110216723Y-229547618D01*
X110216723Y-229547618D02*
X110121485Y-229499999D01*
X110121485Y-229499999D02*
X110073866Y-229404761D01*
X110073866Y-229404761D02*
X110073866Y-229166666D01*
X110073866Y-229166666D02*
X110026247Y-229071428D01*
X110454819Y-228595237D02*
X109788152Y-228595237D01*
X109454819Y-228595237D02*
X109502438Y-228642856D01*
X109502438Y-228642856D02*
X109550057Y-228595237D01*
X109550057Y-228595237D02*
X109502438Y-228547618D01*
X109502438Y-228547618D02*
X109454819Y-228595237D01*
X109454819Y-228595237D02*
X109550057Y-228595237D01*
X109788152Y-228119047D02*
X110454819Y-228119047D01*
X109883390Y-228119047D02*
X109835771Y-228071428D01*
X109835771Y-228071428D02*
X109788152Y-227976190D01*
X109788152Y-227976190D02*
X109788152Y-227833333D01*
X109788152Y-227833333D02*
X109835771Y-227738095D01*
X109835771Y-227738095D02*
X109931009Y-227690476D01*
X109931009Y-227690476D02*
X110454819Y-227690476D01*
X110359580Y-227214285D02*
X110407200Y-227166666D01*
X110407200Y-227166666D02*
X110454819Y-227214285D01*
X110454819Y-227214285D02*
X110407200Y-227261904D01*
X110407200Y-227261904D02*
X110359580Y-227214285D01*
X110359580Y-227214285D02*
X110454819Y-227214285D01*
X109788152Y-226738095D02*
X110454819Y-226738095D01*
X109883390Y-226738095D02*
X109835771Y-226690476D01*
X109835771Y-226690476D02*
X109788152Y-226595238D01*
X109788152Y-226595238D02*
X109788152Y-226452381D01*
X109788152Y-226452381D02*
X109835771Y-226357143D01*
X109835771Y-226357143D02*
X109931009Y-226309524D01*
X109931009Y-226309524D02*
X110454819Y-226309524D01*
X110454819Y-225690476D02*
X110407200Y-225785714D01*
X110407200Y-225785714D02*
X110311961Y-225833333D01*
X110311961Y-225833333D02*
X109454819Y-225833333D01*
X109407200Y-224595238D02*
X110692914Y-225452380D01*
X110454819Y-224261904D02*
X109454819Y-224261904D01*
X110454819Y-223833333D02*
X109931009Y-223833333D01*
X109931009Y-223833333D02*
X109835771Y-223880952D01*
X109835771Y-223880952D02*
X109788152Y-223976190D01*
X109788152Y-223976190D02*
X109788152Y-224119047D01*
X109788152Y-224119047D02*
X109835771Y-224214285D01*
X109835771Y-224214285D02*
X109883390Y-224261904D01*
X109788152Y-223452380D02*
X110454819Y-223261904D01*
X110454819Y-223261904D02*
X109978628Y-223071428D01*
X109978628Y-223071428D02*
X110454819Y-222880952D01*
X110454819Y-222880952D02*
X109788152Y-222690476D01*
X109407200Y-221595238D02*
X110692914Y-222452380D01*
X109788152Y-221261904D02*
X110645295Y-221261904D01*
X110645295Y-221261904D02*
X110740533Y-221309523D01*
X110740533Y-221309523D02*
X110788152Y-221404761D01*
X110788152Y-221404761D02*
X110788152Y-221452380D01*
X109454819Y-221261904D02*
X109502438Y-221309523D01*
X109502438Y-221309523D02*
X109550057Y-221261904D01*
X109550057Y-221261904D02*
X109502438Y-221214285D01*
X109502438Y-221214285D02*
X109454819Y-221261904D01*
X109454819Y-221261904D02*
X109550057Y-221261904D01*
X110454819Y-220357143D02*
X109931009Y-220357143D01*
X109931009Y-220357143D02*
X109835771Y-220404762D01*
X109835771Y-220404762D02*
X109788152Y-220500000D01*
X109788152Y-220500000D02*
X109788152Y-220690476D01*
X109788152Y-220690476D02*
X109835771Y-220785714D01*
X110407200Y-220357143D02*
X110454819Y-220452381D01*
X110454819Y-220452381D02*
X110454819Y-220690476D01*
X110454819Y-220690476D02*
X110407200Y-220785714D01*
X110407200Y-220785714D02*
X110311961Y-220833333D01*
X110311961Y-220833333D02*
X110216723Y-220833333D01*
X110216723Y-220833333D02*
X110121485Y-220785714D01*
X110121485Y-220785714D02*
X110073866Y-220690476D01*
X110073866Y-220690476D02*
X110073866Y-220452381D01*
X110073866Y-220452381D02*
X110026247Y-220357143D01*
X110407200Y-219452381D02*
X110454819Y-219547619D01*
X110454819Y-219547619D02*
X110454819Y-219738095D01*
X110454819Y-219738095D02*
X110407200Y-219833333D01*
X110407200Y-219833333D02*
X110359580Y-219880952D01*
X110359580Y-219880952D02*
X110264342Y-219928571D01*
X110264342Y-219928571D02*
X109978628Y-219928571D01*
X109978628Y-219928571D02*
X109883390Y-219880952D01*
X109883390Y-219880952D02*
X109835771Y-219833333D01*
X109835771Y-219833333D02*
X109788152Y-219738095D01*
X109788152Y-219738095D02*
X109788152Y-219547619D01*
X109788152Y-219547619D02*
X109835771Y-219452381D01*
X110454819Y-219023809D02*
X109454819Y-219023809D01*
X110073866Y-218928571D02*
X110454819Y-218642857D01*
X109788152Y-218642857D02*
X110169104Y-219023809D01*
X109883390Y-218071428D02*
X109835771Y-218166666D01*
X109835771Y-218166666D02*
X109788152Y-218214285D01*
X109788152Y-218214285D02*
X109692914Y-218261904D01*
X109692914Y-218261904D02*
X109645295Y-218261904D01*
X109645295Y-218261904D02*
X109550057Y-218214285D01*
X109550057Y-218214285D02*
X109502438Y-218166666D01*
X109502438Y-218166666D02*
X109454819Y-218071428D01*
X109454819Y-218071428D02*
X109454819Y-217880952D01*
X109454819Y-217880952D02*
X109502438Y-217785714D01*
X109502438Y-217785714D02*
X109550057Y-217738095D01*
X109550057Y-217738095D02*
X109645295Y-217690476D01*
X109645295Y-217690476D02*
X109692914Y-217690476D01*
X109692914Y-217690476D02*
X109788152Y-217738095D01*
X109788152Y-217738095D02*
X109835771Y-217785714D01*
X109835771Y-217785714D02*
X109883390Y-217880952D01*
X109883390Y-217880952D02*
X109883390Y-218071428D01*
X109883390Y-218071428D02*
X109931009Y-218166666D01*
X109931009Y-218166666D02*
X109978628Y-218214285D01*
X109978628Y-218214285D02*
X110073866Y-218261904D01*
X110073866Y-218261904D02*
X110264342Y-218261904D01*
X110264342Y-218261904D02*
X110359580Y-218214285D01*
X110359580Y-218214285D02*
X110407200Y-218166666D01*
X110407200Y-218166666D02*
X110454819Y-218071428D01*
X110454819Y-218071428D02*
X110454819Y-217880952D01*
X110454819Y-217880952D02*
X110407200Y-217785714D01*
X110407200Y-217785714D02*
X110359580Y-217738095D01*
X110359580Y-217738095D02*
X110264342Y-217690476D01*
X110264342Y-217690476D02*
X110073866Y-217690476D01*
X110073866Y-217690476D02*
X109978628Y-217738095D01*
X109978628Y-217738095D02*
X109931009Y-217785714D01*
X109931009Y-217785714D02*
X109883390Y-217880952D01*
X110454819Y-216499999D02*
X109788152Y-216499999D01*
X109978628Y-216499999D02*
X109883390Y-216452380D01*
X109883390Y-216452380D02*
X109835771Y-216404761D01*
X109835771Y-216404761D02*
X109788152Y-216309523D01*
X109788152Y-216309523D02*
X109788152Y-216214285D01*
X110407200Y-215499999D02*
X110454819Y-215595237D01*
X110454819Y-215595237D02*
X110454819Y-215785713D01*
X110454819Y-215785713D02*
X110407200Y-215880951D01*
X110407200Y-215880951D02*
X110311961Y-215928570D01*
X110311961Y-215928570D02*
X109931009Y-215928570D01*
X109931009Y-215928570D02*
X109835771Y-215880951D01*
X109835771Y-215880951D02*
X109788152Y-215785713D01*
X109788152Y-215785713D02*
X109788152Y-215595237D01*
X109788152Y-215595237D02*
X109835771Y-215499999D01*
X109835771Y-215499999D02*
X109931009Y-215452380D01*
X109931009Y-215452380D02*
X110026247Y-215452380D01*
X110026247Y-215452380D02*
X110121485Y-215928570D01*
X109788152Y-215119046D02*
X110454819Y-214880951D01*
X110454819Y-214880951D02*
X109788152Y-214642856D01*
X110454819Y-212976189D02*
X110454819Y-213547617D01*
X110454819Y-213261903D02*
X109454819Y-213261903D01*
X109454819Y-213261903D02*
X109597676Y-213357141D01*
X109597676Y-213357141D02*
X109692914Y-213452379D01*
X109692914Y-213452379D02*
X109740533Y-213547617D01*
X110359580Y-212547617D02*
X110407200Y-212499998D01*
X110407200Y-212499998D02*
X110454819Y-212547617D01*
X110454819Y-212547617D02*
X110407200Y-212595236D01*
X110407200Y-212595236D02*
X110359580Y-212547617D01*
X110359580Y-212547617D02*
X110454819Y-212547617D01*
X109454819Y-211880951D02*
X109454819Y-211785713D01*
X109454819Y-211785713D02*
X109502438Y-211690475D01*
X109502438Y-211690475D02*
X109550057Y-211642856D01*
X109550057Y-211642856D02*
X109645295Y-211595237D01*
X109645295Y-211595237D02*
X109835771Y-211547618D01*
X109835771Y-211547618D02*
X110073866Y-211547618D01*
X110073866Y-211547618D02*
X110264342Y-211595237D01*
X110264342Y-211595237D02*
X110359580Y-211642856D01*
X110359580Y-211642856D02*
X110407200Y-211690475D01*
X110407200Y-211690475D02*
X110454819Y-211785713D01*
X110454819Y-211785713D02*
X110454819Y-211880951D01*
X110454819Y-211880951D02*
X110407200Y-211976189D01*
X110407200Y-211976189D02*
X110359580Y-212023808D01*
X110359580Y-212023808D02*
X110264342Y-212071427D01*
X110264342Y-212071427D02*
X110073866Y-212119046D01*
X110073866Y-212119046D02*
X109835771Y-212119046D01*
X109835771Y-212119046D02*
X109645295Y-212071427D01*
X109645295Y-212071427D02*
X109550057Y-212023808D01*
X109550057Y-212023808D02*
X109502438Y-211976189D01*
X109502438Y-211976189D02*
X109454819Y-211880951D01*
X113754819Y-108333333D02*
X114469104Y-108333333D01*
X114469104Y-108333333D02*
X114611961Y-108380952D01*
X114611961Y-108380952D02*
X114707200Y-108476190D01*
X114707200Y-108476190D02*
X114754819Y-108619047D01*
X114754819Y-108619047D02*
X114754819Y-108714285D01*
X113850057Y-107904761D02*
X113802438Y-107857142D01*
X113802438Y-107857142D02*
X113754819Y-107761904D01*
X113754819Y-107761904D02*
X113754819Y-107523809D01*
X113754819Y-107523809D02*
X113802438Y-107428571D01*
X113802438Y-107428571D02*
X113850057Y-107380952D01*
X113850057Y-107380952D02*
X113945295Y-107333333D01*
X113945295Y-107333333D02*
X114040533Y-107333333D01*
X114040533Y-107333333D02*
X114183390Y-107380952D01*
X114183390Y-107380952D02*
X114754819Y-107952380D01*
X114754819Y-107952380D02*
X114754819Y-107333333D01*
X113754819Y-123333333D02*
X114469104Y-123333333D01*
X114469104Y-123333333D02*
X114611961Y-123380952D01*
X114611961Y-123380952D02*
X114707200Y-123476190D01*
X114707200Y-123476190D02*
X114754819Y-123619047D01*
X114754819Y-123619047D02*
X114754819Y-123714285D01*
X113754819Y-122952380D02*
X113754819Y-122333333D01*
X113754819Y-122333333D02*
X114135771Y-122666666D01*
X114135771Y-122666666D02*
X114135771Y-122523809D01*
X114135771Y-122523809D02*
X114183390Y-122428571D01*
X114183390Y-122428571D02*
X114231009Y-122380952D01*
X114231009Y-122380952D02*
X114326247Y-122333333D01*
X114326247Y-122333333D02*
X114564342Y-122333333D01*
X114564342Y-122333333D02*
X114659580Y-122380952D01*
X114659580Y-122380952D02*
X114707200Y-122428571D01*
X114707200Y-122428571D02*
X114754819Y-122523809D01*
X114754819Y-122523809D02*
X114754819Y-122809523D01*
X114754819Y-122809523D02*
X114707200Y-122904761D01*
X114707200Y-122904761D02*
X114659580Y-122952380D01*
X113754819Y-138333333D02*
X114469104Y-138333333D01*
X114469104Y-138333333D02*
X114611961Y-138380952D01*
X114611961Y-138380952D02*
X114707200Y-138476190D01*
X114707200Y-138476190D02*
X114754819Y-138619047D01*
X114754819Y-138619047D02*
X114754819Y-138714285D01*
X114088152Y-137428571D02*
X114754819Y-137428571D01*
X113707200Y-137666666D02*
X114421485Y-137904761D01*
X114421485Y-137904761D02*
X114421485Y-137285714D01*
X113754819Y-153333333D02*
X114469104Y-153333333D01*
X114469104Y-153333333D02*
X114611961Y-153380952D01*
X114611961Y-153380952D02*
X114707200Y-153476190D01*
X114707200Y-153476190D02*
X114754819Y-153619047D01*
X114754819Y-153619047D02*
X114754819Y-153714285D01*
X113754819Y-152380952D02*
X113754819Y-152857142D01*
X113754819Y-152857142D02*
X114231009Y-152904761D01*
X114231009Y-152904761D02*
X114183390Y-152857142D01*
X114183390Y-152857142D02*
X114135771Y-152761904D01*
X114135771Y-152761904D02*
X114135771Y-152523809D01*
X114135771Y-152523809D02*
X114183390Y-152428571D01*
X114183390Y-152428571D02*
X114231009Y-152380952D01*
X114231009Y-152380952D02*
X114326247Y-152333333D01*
X114326247Y-152333333D02*
X114564342Y-152333333D01*
X114564342Y-152333333D02*
X114659580Y-152380952D01*
X114659580Y-152380952D02*
X114707200Y-152428571D01*
X114707200Y-152428571D02*
X114754819Y-152523809D01*
X114754819Y-152523809D02*
X114754819Y-152761904D01*
X114754819Y-152761904D02*
X114707200Y-152857142D01*
X114707200Y-152857142D02*
X114659580Y-152904761D01*
X113754819Y-168333333D02*
X114469104Y-168333333D01*
X114469104Y-168333333D02*
X114611961Y-168380952D01*
X114611961Y-168380952D02*
X114707200Y-168476190D01*
X114707200Y-168476190D02*
X114754819Y-168619047D01*
X114754819Y-168619047D02*
X114754819Y-168714285D01*
X113754819Y-167428571D02*
X113754819Y-167619047D01*
X113754819Y-167619047D02*
X113802438Y-167714285D01*
X113802438Y-167714285D02*
X113850057Y-167761904D01*
X113850057Y-167761904D02*
X113992914Y-167857142D01*
X113992914Y-167857142D02*
X114183390Y-167904761D01*
X114183390Y-167904761D02*
X114564342Y-167904761D01*
X114564342Y-167904761D02*
X114659580Y-167857142D01*
X114659580Y-167857142D02*
X114707200Y-167809523D01*
X114707200Y-167809523D02*
X114754819Y-167714285D01*
X114754819Y-167714285D02*
X114754819Y-167523809D01*
X114754819Y-167523809D02*
X114707200Y-167428571D01*
X114707200Y-167428571D02*
X114659580Y-167380952D01*
X114659580Y-167380952D02*
X114564342Y-167333333D01*
X114564342Y-167333333D02*
X114326247Y-167333333D01*
X114326247Y-167333333D02*
X114231009Y-167380952D01*
X114231009Y-167380952D02*
X114183390Y-167428571D01*
X114183390Y-167428571D02*
X114135771Y-167523809D01*
X114135771Y-167523809D02*
X114135771Y-167714285D01*
X114135771Y-167714285D02*
X114183390Y-167809523D01*
X114183390Y-167809523D02*
X114231009Y-167857142D01*
X114231009Y-167857142D02*
X114326247Y-167904761D01*
X113754819Y-183333333D02*
X114469104Y-183333333D01*
X114469104Y-183333333D02*
X114611961Y-183380952D01*
X114611961Y-183380952D02*
X114707200Y-183476190D01*
X114707200Y-183476190D02*
X114754819Y-183619047D01*
X114754819Y-183619047D02*
X114754819Y-183714285D01*
X113754819Y-182952380D02*
X113754819Y-182285714D01*
X113754819Y-182285714D02*
X114754819Y-182714285D01*
X113754819Y-198333333D02*
X114469104Y-198333333D01*
X114469104Y-198333333D02*
X114611961Y-198380952D01*
X114611961Y-198380952D02*
X114707200Y-198476190D01*
X114707200Y-198476190D02*
X114754819Y-198619047D01*
X114754819Y-198619047D02*
X114754819Y-198714285D01*
X114183390Y-197714285D02*
X114135771Y-197809523D01*
X114135771Y-197809523D02*
X114088152Y-197857142D01*
X114088152Y-197857142D02*
X113992914Y-197904761D01*
X113992914Y-197904761D02*
X113945295Y-197904761D01*
X113945295Y-197904761D02*
X113850057Y-197857142D01*
X113850057Y-197857142D02*
X113802438Y-197809523D01*
X113802438Y-197809523D02*
X113754819Y-197714285D01*
X113754819Y-197714285D02*
X113754819Y-197523809D01*
X113754819Y-197523809D02*
X113802438Y-197428571D01*
X113802438Y-197428571D02*
X113850057Y-197380952D01*
X113850057Y-197380952D02*
X113945295Y-197333333D01*
X113945295Y-197333333D02*
X113992914Y-197333333D01*
X113992914Y-197333333D02*
X114088152Y-197380952D01*
X114088152Y-197380952D02*
X114135771Y-197428571D01*
X114135771Y-197428571D02*
X114183390Y-197523809D01*
X114183390Y-197523809D02*
X114183390Y-197714285D01*
X114183390Y-197714285D02*
X114231009Y-197809523D01*
X114231009Y-197809523D02*
X114278628Y-197857142D01*
X114278628Y-197857142D02*
X114373866Y-197904761D01*
X114373866Y-197904761D02*
X114564342Y-197904761D01*
X114564342Y-197904761D02*
X114659580Y-197857142D01*
X114659580Y-197857142D02*
X114707200Y-197809523D01*
X114707200Y-197809523D02*
X114754819Y-197714285D01*
X114754819Y-197714285D02*
X114754819Y-197523809D01*
X114754819Y-197523809D02*
X114707200Y-197428571D01*
X114707200Y-197428571D02*
X114659580Y-197380952D01*
X114659580Y-197380952D02*
X114564342Y-197333333D01*
X114564342Y-197333333D02*
X114373866Y-197333333D01*
X114373866Y-197333333D02*
X114278628Y-197380952D01*
X114278628Y-197380952D02*
X114231009Y-197428571D01*
X114231009Y-197428571D02*
X114183390Y-197523809D01*
X113754819Y-213333333D02*
X114469104Y-213333333D01*
X114469104Y-213333333D02*
X114611961Y-213380952D01*
X114611961Y-213380952D02*
X114707200Y-213476190D01*
X114707200Y-213476190D02*
X114754819Y-213619047D01*
X114754819Y-213619047D02*
X114754819Y-213714285D01*
X114754819Y-212809523D02*
X114754819Y-212619047D01*
X114754819Y-212619047D02*
X114707200Y-212523809D01*
X114707200Y-212523809D02*
X114659580Y-212476190D01*
X114659580Y-212476190D02*
X114516723Y-212380952D01*
X114516723Y-212380952D02*
X114326247Y-212333333D01*
X114326247Y-212333333D02*
X113945295Y-212333333D01*
X113945295Y-212333333D02*
X113850057Y-212380952D01*
X113850057Y-212380952D02*
X113802438Y-212428571D01*
X113802438Y-212428571D02*
X113754819Y-212523809D01*
X113754819Y-212523809D02*
X113754819Y-212714285D01*
X113754819Y-212714285D02*
X113802438Y-212809523D01*
X113802438Y-212809523D02*
X113850057Y-212857142D01*
X113850057Y-212857142D02*
X113945295Y-212904761D01*
X113945295Y-212904761D02*
X114183390Y-212904761D01*
X114183390Y-212904761D02*
X114278628Y-212857142D01*
X114278628Y-212857142D02*
X114326247Y-212809523D01*
X114326247Y-212809523D02*
X114373866Y-212714285D01*
X114373866Y-212714285D02*
X114373866Y-212523809D01*
X114373866Y-212523809D02*
X114326247Y-212428571D01*
X114326247Y-212428571D02*
X114278628Y-212380952D01*
X114278628Y-212380952D02*
X114183390Y-212333333D01*
X117466666Y-148324819D02*
X117466666Y-149039104D01*
X117466666Y-149039104D02*
X117419047Y-149181961D01*
X117419047Y-149181961D02*
X117323809Y-149277200D01*
X117323809Y-149277200D02*
X117180952Y-149324819D01*
X117180952Y-149324819D02*
X117085714Y-149324819D01*
X118466666Y-149324819D02*
X117895238Y-149324819D01*
X118180952Y-149324819D02*
X118180952Y-148324819D01*
X118180952Y-148324819D02*
X118085714Y-148467676D01*
X118085714Y-148467676D02*
X117990476Y-148562914D01*
X117990476Y-148562914D02*
X117895238Y-148610533D01*
X102666666Y-219254819D02*
X102666666Y-219969104D01*
X102666666Y-219969104D02*
X102619047Y-220111961D01*
X102619047Y-220111961D02*
X102523809Y-220207200D01*
X102523809Y-220207200D02*
X102380952Y-220254819D01*
X102380952Y-220254819D02*
X102285714Y-220254819D01*
X103142857Y-220254819D02*
X103142857Y-219254819D01*
X103142857Y-219254819D02*
X103523809Y-219254819D01*
X103523809Y-219254819D02*
X103619047Y-219302438D01*
X103619047Y-219302438D02*
X103666666Y-219350057D01*
X103666666Y-219350057D02*
X103714285Y-219445295D01*
X103714285Y-219445295D02*
X103714285Y-219588152D01*
X103714285Y-219588152D02*
X103666666Y-219683390D01*
X103666666Y-219683390D02*
X103619047Y-219731009D01*
X103619047Y-219731009D02*
X103523809Y-219778628D01*
X103523809Y-219778628D02*
X103142857Y-219778628D01*
X104666666Y-220254819D02*
X104095238Y-220254819D01*
X104380952Y-220254819D02*
X104380952Y-219254819D01*
X104380952Y-219254819D02*
X104285714Y-219397676D01*
X104285714Y-219397676D02*
X104190476Y-219492914D01*
X104190476Y-219492914D02*
X104095238Y-219540533D01*
%TO.C,J2*%
D11*
X103500000Y-102250000D02*
X112500000Y-102250000D01*
X112500000Y-114080000D01*
X103500000Y-114080000D01*
X103500000Y-102250000D01*
%TO.C,J3*%
X103500000Y-117250000D02*
X112500000Y-117250000D01*
X112500000Y-129080000D01*
X103500000Y-129080000D01*
X103500000Y-117250000D01*
%TO.C,J4*%
X103500000Y-132250000D02*
X112500000Y-132250000D01*
X112500000Y-144080000D01*
X103500000Y-144080000D01*
X103500000Y-132250000D01*
%TO.C,J5*%
X103500000Y-147250000D02*
X112500000Y-147250000D01*
X112500000Y-159080000D01*
X103500000Y-159080000D01*
X103500000Y-147250000D01*
%TO.C,J6*%
X103500000Y-162250000D02*
X112500000Y-162250000D01*
X112500000Y-174080000D01*
X103500000Y-174080000D01*
X103500000Y-162250000D01*
%TO.C,J7*%
X103500000Y-177250000D02*
X112500000Y-177250000D01*
X112500000Y-189080000D01*
X103500000Y-189080000D01*
X103500000Y-177250000D01*
%TO.C,J8*%
X103500000Y-192250000D02*
X112500000Y-192250000D01*
X112500000Y-204080000D01*
X103500000Y-204080000D01*
X103500000Y-192250000D01*
%TO.C,J9*%
X103500000Y-207250000D02*
X112500000Y-207250000D01*
X112500000Y-219080000D01*
X103500000Y-219080000D01*
X103500000Y-207250000D01*
%TD*%
M02*
