M48
; DRILL file KiCad 10.0.3 date 2026-07-11T11:21:13
; FORMAT={-:-/ absolute / metric / decimal}
; #@! TF.CreationDate,2026-07-11T11:21:13+02:00
; #@! TF.GenerationSoftware,Kicad,Pcbnew,10.0.3
; #@! TF.FileFunction,Plated,1,2,PTH
FMAT,2
METRIC
; #@! TA.AperFunction,Plated,PTH,ViaDrill
T1C0.300
; #@! TA.AperFunction,Plated,PTH,ComponentDrill
T2C1.000
%
G90
G05
T1
X102.0Y-102.0
X102.0Y-155.0
X102.0Y-208.0
X118.0Y-102.0
X118.0Y-128.0
X118.0Y-186.0
X118.0Y-208.0
T2
X112.5Y-104.375
X112.5Y-106.875
X112.5Y-109.375
X112.5Y-118.125
X112.5Y-120.625
X112.5Y-123.125
X112.5Y-131.875
X112.5Y-134.375
X112.5Y-136.875
X112.5Y-145.625
X112.5Y-148.125
X112.5Y-150.625
X112.5Y-159.375
X112.5Y-161.875
X112.5Y-164.375
X112.5Y-173.125
X112.5Y-175.625
X112.5Y-178.125
X112.5Y-186.875
X112.5Y-189.375
X112.5Y-191.875
X112.5Y-200.625
X112.5Y-203.125
X112.5Y-205.625
X116.5Y-143.57
X116.5Y-146.11
X116.5Y-148.65
X116.5Y-151.19
X116.5Y-153.73
X116.5Y-156.27
X116.5Y-158.81
X116.5Y-161.35
X116.5Y-163.89
X116.5Y-166.43
M30
