%TF.GenerationSoftware,KiCad,Pcbnew,10.0.3*%
%TF.CreationDate,2026-07-11T11:21:13+02:00*%
%TF.ProjectId,musicbrain-pot8front,6d757369-6362-4726-9169-6e2d706f7438,1.0*%
%TF.SameCoordinates,Original*%
%TF.FileFunction,Drillmap*%
%TF.FilePolarity,Positive*%
%FSLAX45Y45*%
G04 Gerber Fmt 4.5, Leading zero omitted, Abs format (unit mm)*
G04 Created by KiCad (PCBNEW 10.0.3) date 2026-07-11 11:21:13*
%MOMM*%
%LPD*%
G01*
G04 APERTURE LIST*
%ADD10C,0.100000*%
%ADD11C,0.200000*%
%ADD12C,0.120000*%
G04 APERTURE END LIST*
D10*
X10000000Y-10000000D02*
X12000000Y-10000000D01*
X12000000Y-21000000D01*
X10000000Y-21000000D01*
X10000000Y-10000000D01*
D11*
D12*
X10440000Y-10067500D02*
X10560000Y-10187500D01*
X10560000Y-10067500D02*
X10440000Y-10187500D01*
D10*
X10440000Y-10112500D02*
X10440000Y-10142500D01*
X10560000Y-10142500D02*
G75*
G02*
X10440000Y-10142500I-60000J0D01*
G01*
X10560000Y-10142500D02*
X10560000Y-10112500D01*
X10560000Y-10112500D02*
G75*
G03*
X10440000Y-10112500I-60000J0D01*
G01*
D12*
X10440000Y-11187500D02*
X10560000Y-11307500D01*
X10560000Y-11187500D02*
X10440000Y-11307500D01*
D10*
X10440000Y-11232500D02*
X10440000Y-11262500D01*
X10560000Y-11262500D02*
G75*
G02*
X10440000Y-11262500I-60000J0D01*
G01*
X10560000Y-11262500D02*
X10560000Y-11232500D01*
X10560000Y-11232500D02*
G75*
G03*
X10440000Y-11232500I-60000J0D01*
G01*
D12*
X10440000Y-11442500D02*
X10560000Y-11562500D01*
X10560000Y-11442500D02*
X10440000Y-11562500D01*
D10*
X10440000Y-11487500D02*
X10440000Y-11517500D01*
X10560000Y-11517500D02*
G75*
G02*
X10440000Y-11517500I-60000J0D01*
G01*
X10560000Y-11517500D02*
X10560000Y-11487500D01*
X10560000Y-11487500D02*
G75*
G03*
X10440000Y-11487500I-60000J0D01*
G01*
D12*
X10440000Y-12562500D02*
X10560000Y-12682500D01*
X10560000Y-12562500D02*
X10440000Y-12682500D01*
D10*
X10440000Y-12607500D02*
X10440000Y-12637500D01*
X10560000Y-12637500D02*
G75*
G02*
X10440000Y-12637500I-60000J0D01*
G01*
X10560000Y-12637500D02*
X10560000Y-12607500D01*
X10560000Y-12607500D02*
G75*
G03*
X10440000Y-12607500I-60000J0D01*
G01*
D12*
X10440000Y-12817500D02*
X10560000Y-12937500D01*
X10560000Y-12817500D02*
X10440000Y-12937500D01*
D10*
X10440000Y-12862500D02*
X10440000Y-12892500D01*
X10560000Y-12892500D02*
G75*
G02*
X10440000Y-12892500I-60000J0D01*
G01*
X10560000Y-12892500D02*
X10560000Y-12862500D01*
X10560000Y-12862500D02*
G75*
G03*
X10440000Y-12862500I-60000J0D01*
G01*
D12*
X10440000Y-13937500D02*
X10560000Y-14057500D01*
X10560000Y-13937500D02*
X10440000Y-14057500D01*
D10*
X10440000Y-13982500D02*
X10440000Y-14012500D01*
X10560000Y-14012500D02*
G75*
G02*
X10440000Y-14012500I-60000J0D01*
G01*
X10560000Y-14012500D02*
X10560000Y-13982500D01*
X10560000Y-13982500D02*
G75*
G03*
X10440000Y-13982500I-60000J0D01*
G01*
D12*
X10440000Y-14192500D02*
X10560000Y-14312500D01*
X10560000Y-14192500D02*
X10440000Y-14312500D01*
D10*
X10440000Y-14237500D02*
X10440000Y-14267500D01*
X10560000Y-14267500D02*
G75*
G02*
X10440000Y-14267500I-60000J0D01*
G01*
X10560000Y-14267500D02*
X10560000Y-14237500D01*
X10560000Y-14237500D02*
G75*
G03*
X10440000Y-14237500I-60000J0D01*
G01*
D12*
X10440000Y-15312500D02*
X10560000Y-15432500D01*
X10560000Y-15312500D02*
X10440000Y-15432500D01*
D10*
X10440000Y-15357500D02*
X10440000Y-15387500D01*
X10560000Y-15387500D02*
G75*
G02*
X10440000Y-15387500I-60000J0D01*
G01*
X10560000Y-15387500D02*
X10560000Y-15357500D01*
X10560000Y-15357500D02*
G75*
G03*
X10440000Y-15357500I-60000J0D01*
G01*
D12*
X10440000Y-15567500D02*
X10560000Y-15687500D01*
X10560000Y-15567500D02*
X10440000Y-15687500D01*
D10*
X10440000Y-15612500D02*
X10440000Y-15642500D01*
X10560000Y-15642500D02*
G75*
G02*
X10440000Y-15642500I-60000J0D01*
G01*
X10560000Y-15642500D02*
X10560000Y-15612500D01*
X10560000Y-15612500D02*
G75*
G03*
X10440000Y-15612500I-60000J0D01*
G01*
D12*
X10440000Y-16687500D02*
X10560000Y-16807500D01*
X10560000Y-16687500D02*
X10440000Y-16807500D01*
D10*
X10440000Y-16732500D02*
X10440000Y-16762500D01*
X10560000Y-16762500D02*
G75*
G02*
X10440000Y-16762500I-60000J0D01*
G01*
X10560000Y-16762500D02*
X10560000Y-16732500D01*
X10560000Y-16732500D02*
G75*
G03*
X10440000Y-16732500I-60000J0D01*
G01*
D12*
X10440000Y-16942500D02*
X10560000Y-17062500D01*
X10560000Y-16942500D02*
X10440000Y-17062500D01*
D10*
X10440000Y-16987500D02*
X10440000Y-17017500D01*
X10560000Y-17017500D02*
G75*
G02*
X10440000Y-17017500I-60000J0D01*
G01*
X10560000Y-17017500D02*
X10560000Y-16987500D01*
X10560000Y-16987500D02*
G75*
G03*
X10440000Y-16987500I-60000J0D01*
G01*
D12*
X10440000Y-18062500D02*
X10560000Y-18182500D01*
X10560000Y-18062500D02*
X10440000Y-18182500D01*
D10*
X10440000Y-18107500D02*
X10440000Y-18137500D01*
X10560000Y-18137500D02*
G75*
G02*
X10440000Y-18137500I-60000J0D01*
G01*
X10560000Y-18137500D02*
X10560000Y-18107500D01*
X10560000Y-18107500D02*
G75*
G03*
X10440000Y-18107500I-60000J0D01*
G01*
D12*
X10440000Y-18317500D02*
X10560000Y-18437500D01*
X10560000Y-18317500D02*
X10440000Y-18437500D01*
D10*
X10440000Y-18362500D02*
X10440000Y-18392500D01*
X10560000Y-18392500D02*
G75*
G02*
X10440000Y-18392500I-60000J0D01*
G01*
X10560000Y-18392500D02*
X10560000Y-18362500D01*
X10560000Y-18362500D02*
G75*
G03*
X10440000Y-18362500I-60000J0D01*
G01*
D12*
X10440000Y-19437500D02*
X10560000Y-19557500D01*
X10560000Y-19437500D02*
X10440000Y-19557500D01*
D10*
X10440000Y-19482500D02*
X10440000Y-19512500D01*
X10560000Y-19512500D02*
G75*
G02*
X10440000Y-19512500I-60000J0D01*
G01*
X10560000Y-19512500D02*
X10560000Y-19482500D01*
X10560000Y-19482500D02*
G75*
G03*
X10440000Y-19482500I-60000J0D01*
G01*
D12*
X10440000Y-19692500D02*
X10560000Y-19812500D01*
X10560000Y-19692500D02*
X10440000Y-19812500D01*
D10*
X10440000Y-19737500D02*
X10440000Y-19767500D01*
X10560000Y-19767500D02*
G75*
G02*
X10440000Y-19767500I-60000J0D01*
G01*
X10560000Y-19767500D02*
X10560000Y-19737500D01*
X10560000Y-19737500D02*
G75*
G03*
X10440000Y-19737500I-60000J0D01*
G01*
D12*
X10440000Y-20812500D02*
X10560000Y-20932500D01*
X10560000Y-20812500D02*
X10440000Y-20932500D01*
D10*
X10440000Y-20857500D02*
X10440000Y-20887500D01*
X10560000Y-20887500D02*
G75*
G02*
X10440000Y-20887500I-60000J0D01*
G01*
X10560000Y-20887500D02*
X10560000Y-20857500D01*
X10560000Y-20857500D02*
G75*
G03*
X10440000Y-20857500I-60000J0D01*
G01*
D11*
X10255777Y-21316484D02*
X10255777Y-21116484D01*
X10255777Y-21116484D02*
X10303396Y-21116484D01*
X10303396Y-21116484D02*
X10331967Y-21126008D01*
X10331967Y-21126008D02*
X10351015Y-21145055D01*
X10351015Y-21145055D02*
X10360539Y-21164103D01*
X10360539Y-21164103D02*
X10370063Y-21202198D01*
X10370063Y-21202198D02*
X10370063Y-21230770D01*
X10370063Y-21230770D02*
X10360539Y-21268865D01*
X10360539Y-21268865D02*
X10351015Y-21287912D01*
X10351015Y-21287912D02*
X10331967Y-21306960D01*
X10331967Y-21306960D02*
X10303396Y-21316484D01*
X10303396Y-21316484D02*
X10255777Y-21316484D01*
X10455777Y-21316484D02*
X10455777Y-21183150D01*
X10455777Y-21221246D02*
X10465301Y-21202198D01*
X10465301Y-21202198D02*
X10474824Y-21192674D01*
X10474824Y-21192674D02*
X10493872Y-21183150D01*
X10493872Y-21183150D02*
X10512920Y-21183150D01*
X10579586Y-21316484D02*
X10579586Y-21183150D01*
X10579586Y-21116484D02*
X10570063Y-21126008D01*
X10570063Y-21126008D02*
X10579586Y-21135531D01*
X10579586Y-21135531D02*
X10589110Y-21126008D01*
X10589110Y-21126008D02*
X10579586Y-21116484D01*
X10579586Y-21116484D02*
X10579586Y-21135531D01*
X10703396Y-21316484D02*
X10684348Y-21306960D01*
X10684348Y-21306960D02*
X10674824Y-21287912D01*
X10674824Y-21287912D02*
X10674824Y-21116484D01*
X10808158Y-21316484D02*
X10789110Y-21306960D01*
X10789110Y-21306960D02*
X10779586Y-21287912D01*
X10779586Y-21287912D02*
X10779586Y-21116484D01*
X11036729Y-21316484D02*
X11036729Y-21116484D01*
X11036729Y-21116484D02*
X11103396Y-21259341D01*
X11103396Y-21259341D02*
X11170063Y-21116484D01*
X11170063Y-21116484D02*
X11170063Y-21316484D01*
X11351015Y-21316484D02*
X11351015Y-21211722D01*
X11351015Y-21211722D02*
X11341491Y-21192674D01*
X11341491Y-21192674D02*
X11322443Y-21183150D01*
X11322443Y-21183150D02*
X11284348Y-21183150D01*
X11284348Y-21183150D02*
X11265301Y-21192674D01*
X11351015Y-21306960D02*
X11331967Y-21316484D01*
X11331967Y-21316484D02*
X11284348Y-21316484D01*
X11284348Y-21316484D02*
X11265301Y-21306960D01*
X11265301Y-21306960D02*
X11255777Y-21287912D01*
X11255777Y-21287912D02*
X11255777Y-21268865D01*
X11255777Y-21268865D02*
X11265301Y-21249817D01*
X11265301Y-21249817D02*
X11284348Y-21240293D01*
X11284348Y-21240293D02*
X11331967Y-21240293D01*
X11331967Y-21240293D02*
X11351015Y-21230770D01*
X11446253Y-21183150D02*
X11446253Y-21383150D01*
X11446253Y-21192674D02*
X11465301Y-21183150D01*
X11465301Y-21183150D02*
X11503396Y-21183150D01*
X11503396Y-21183150D02*
X11522443Y-21192674D01*
X11522443Y-21192674D02*
X11531967Y-21202198D01*
X11531967Y-21202198D02*
X11541491Y-21221246D01*
X11541491Y-21221246D02*
X11541491Y-21278389D01*
X11541491Y-21278389D02*
X11531967Y-21297436D01*
X11531967Y-21297436D02*
X11522443Y-21306960D01*
X11522443Y-21306960D02*
X11503396Y-21316484D01*
X11503396Y-21316484D02*
X11465301Y-21316484D01*
X11465301Y-21316484D02*
X11446253Y-21306960D01*
X11627205Y-21297436D02*
X11636729Y-21306960D01*
X11636729Y-21306960D02*
X11627205Y-21316484D01*
X11627205Y-21316484D02*
X11617682Y-21306960D01*
X11617682Y-21306960D02*
X11627205Y-21297436D01*
X11627205Y-21297436D02*
X11627205Y-21316484D01*
X11627205Y-21192674D02*
X11636729Y-21202198D01*
X11636729Y-21202198D02*
X11627205Y-21211722D01*
X11627205Y-21211722D02*
X11617682Y-21202198D01*
X11617682Y-21202198D02*
X11627205Y-21192674D01*
X11627205Y-21192674D02*
X11627205Y-21211722D01*
D12*
X9875000Y-21585000D02*
X9995000Y-21705000D01*
X9995000Y-21585000D02*
X9875000Y-21705000D01*
D11*
X10360539Y-21736484D02*
X10246253Y-21736484D01*
X10303396Y-21736484D02*
X10303396Y-21536484D01*
X10303396Y-21536484D02*
X10284348Y-21565055D01*
X10284348Y-21565055D02*
X10265301Y-21584103D01*
X10265301Y-21584103D02*
X10246253Y-21593627D01*
X10455777Y-21726960D02*
X10455777Y-21736484D01*
X10455777Y-21736484D02*
X10446253Y-21755531D01*
X10446253Y-21755531D02*
X10436729Y-21765055D01*
X10531967Y-21555531D02*
X10541491Y-21546008D01*
X10541491Y-21546008D02*
X10560539Y-21536484D01*
X10560539Y-21536484D02*
X10608158Y-21536484D01*
X10608158Y-21536484D02*
X10627205Y-21546008D01*
X10627205Y-21546008D02*
X10636729Y-21555531D01*
X10636729Y-21555531D02*
X10646253Y-21574579D01*
X10646253Y-21574579D02*
X10646253Y-21593627D01*
X10646253Y-21593627D02*
X10636729Y-21622198D01*
X10636729Y-21622198D02*
X10522444Y-21736484D01*
X10522444Y-21736484D02*
X10646253Y-21736484D01*
X10770063Y-21536484D02*
X10789110Y-21536484D01*
X10789110Y-21536484D02*
X10808158Y-21546008D01*
X10808158Y-21546008D02*
X10817682Y-21555531D01*
X10817682Y-21555531D02*
X10827205Y-21574579D01*
X10827205Y-21574579D02*
X10836729Y-21612674D01*
X10836729Y-21612674D02*
X10836729Y-21660293D01*
X10836729Y-21660293D02*
X10827205Y-21698389D01*
X10827205Y-21698389D02*
X10817682Y-21717436D01*
X10817682Y-21717436D02*
X10808158Y-21726960D01*
X10808158Y-21726960D02*
X10789110Y-21736484D01*
X10789110Y-21736484D02*
X10770063Y-21736484D01*
X10770063Y-21736484D02*
X10751015Y-21726960D01*
X10751015Y-21726960D02*
X10741491Y-21717436D01*
X10741491Y-21717436D02*
X10731967Y-21698389D01*
X10731967Y-21698389D02*
X10722444Y-21660293D01*
X10722444Y-21660293D02*
X10722444Y-21612674D01*
X10722444Y-21612674D02*
X10731967Y-21574579D01*
X10731967Y-21574579D02*
X10741491Y-21555531D01*
X10741491Y-21555531D02*
X10751015Y-21546008D01*
X10751015Y-21546008D02*
X10770063Y-21536484D01*
X10960539Y-21536484D02*
X10979586Y-21536484D01*
X10979586Y-21536484D02*
X10998634Y-21546008D01*
X10998634Y-21546008D02*
X11008158Y-21555531D01*
X11008158Y-21555531D02*
X11017682Y-21574579D01*
X11017682Y-21574579D02*
X11027205Y-21612674D01*
X11027205Y-21612674D02*
X11027205Y-21660293D01*
X11027205Y-21660293D02*
X11017682Y-21698389D01*
X11017682Y-21698389D02*
X11008158Y-21717436D01*
X11008158Y-21717436D02*
X10998634Y-21726960D01*
X10998634Y-21726960D02*
X10979586Y-21736484D01*
X10979586Y-21736484D02*
X10960539Y-21736484D01*
X10960539Y-21736484D02*
X10941491Y-21726960D01*
X10941491Y-21726960D02*
X10931967Y-21717436D01*
X10931967Y-21717436D02*
X10922444Y-21698389D01*
X10922444Y-21698389D02*
X10912920Y-21660293D01*
X10912920Y-21660293D02*
X10912920Y-21612674D01*
X10912920Y-21612674D02*
X10922444Y-21574579D01*
X10922444Y-21574579D02*
X10931967Y-21555531D01*
X10931967Y-21555531D02*
X10941491Y-21546008D01*
X10941491Y-21546008D02*
X10960539Y-21536484D01*
X11112920Y-21736484D02*
X11112920Y-21603150D01*
X11112920Y-21622198D02*
X11122444Y-21612674D01*
X11122444Y-21612674D02*
X11141491Y-21603150D01*
X11141491Y-21603150D02*
X11170063Y-21603150D01*
X11170063Y-21603150D02*
X11189110Y-21612674D01*
X11189110Y-21612674D02*
X11198634Y-21631722D01*
X11198634Y-21631722D02*
X11198634Y-21736484D01*
X11198634Y-21631722D02*
X11208158Y-21612674D01*
X11208158Y-21612674D02*
X11227205Y-21603150D01*
X11227205Y-21603150D02*
X11255777Y-21603150D01*
X11255777Y-21603150D02*
X11274824Y-21612674D01*
X11274824Y-21612674D02*
X11284348Y-21631722D01*
X11284348Y-21631722D02*
X11284348Y-21736484D01*
X11379586Y-21736484D02*
X11379586Y-21603150D01*
X11379586Y-21622198D02*
X11389110Y-21612674D01*
X11389110Y-21612674D02*
X11408158Y-21603150D01*
X11408158Y-21603150D02*
X11436729Y-21603150D01*
X11436729Y-21603150D02*
X11455777Y-21612674D01*
X11455777Y-21612674D02*
X11465301Y-21631722D01*
X11465301Y-21631722D02*
X11465301Y-21736484D01*
X11465301Y-21631722D02*
X11474824Y-21612674D01*
X11474824Y-21612674D02*
X11493872Y-21603150D01*
X11493872Y-21603150D02*
X11522443Y-21603150D01*
X11522443Y-21603150D02*
X11541491Y-21612674D01*
X11541491Y-21612674D02*
X11551015Y-21631722D01*
X11551015Y-21631722D02*
X11551015Y-21736484D01*
X11941491Y-21526960D02*
X11770063Y-21784103D01*
X12198634Y-21536484D02*
X12217682Y-21536484D01*
X12217682Y-21536484D02*
X12236729Y-21546008D01*
X12236729Y-21546008D02*
X12246253Y-21555531D01*
X12246253Y-21555531D02*
X12255777Y-21574579D01*
X12255777Y-21574579D02*
X12265301Y-21612674D01*
X12265301Y-21612674D02*
X12265301Y-21660293D01*
X12265301Y-21660293D02*
X12255777Y-21698389D01*
X12255777Y-21698389D02*
X12246253Y-21717436D01*
X12246253Y-21717436D02*
X12236729Y-21726960D01*
X12236729Y-21726960D02*
X12217682Y-21736484D01*
X12217682Y-21736484D02*
X12198634Y-21736484D01*
X12198634Y-21736484D02*
X12179586Y-21726960D01*
X12179586Y-21726960D02*
X12170063Y-21717436D01*
X12170063Y-21717436D02*
X12160539Y-21698389D01*
X12160539Y-21698389D02*
X12151015Y-21660293D01*
X12151015Y-21660293D02*
X12151015Y-21612674D01*
X12151015Y-21612674D02*
X12160539Y-21574579D01*
X12160539Y-21574579D02*
X12170063Y-21555531D01*
X12170063Y-21555531D02*
X12179586Y-21546008D01*
X12179586Y-21546008D02*
X12198634Y-21536484D01*
X12360539Y-21726960D02*
X12360539Y-21736484D01*
X12360539Y-21736484D02*
X12351015Y-21755531D01*
X12351015Y-21755531D02*
X12341491Y-21765055D01*
X12484348Y-21536484D02*
X12503396Y-21536484D01*
X12503396Y-21536484D02*
X12522444Y-21546008D01*
X12522444Y-21546008D02*
X12531967Y-21555531D01*
X12531967Y-21555531D02*
X12541491Y-21574579D01*
X12541491Y-21574579D02*
X12551015Y-21612674D01*
X12551015Y-21612674D02*
X12551015Y-21660293D01*
X12551015Y-21660293D02*
X12541491Y-21698389D01*
X12541491Y-21698389D02*
X12531967Y-21717436D01*
X12531967Y-21717436D02*
X12522444Y-21726960D01*
X12522444Y-21726960D02*
X12503396Y-21736484D01*
X12503396Y-21736484D02*
X12484348Y-21736484D01*
X12484348Y-21736484D02*
X12465301Y-21726960D01*
X12465301Y-21726960D02*
X12455777Y-21717436D01*
X12455777Y-21717436D02*
X12446253Y-21698389D01*
X12446253Y-21698389D02*
X12436729Y-21660293D01*
X12436729Y-21660293D02*
X12436729Y-21612674D01*
X12436729Y-21612674D02*
X12446253Y-21574579D01*
X12446253Y-21574579D02*
X12455777Y-21555531D01*
X12455777Y-21555531D02*
X12465301Y-21546008D01*
X12465301Y-21546008D02*
X12484348Y-21536484D01*
X12722444Y-21603150D02*
X12722444Y-21736484D01*
X12674825Y-21526960D02*
X12627206Y-21669817D01*
X12627206Y-21669817D02*
X12751015Y-21669817D01*
X12808158Y-21536484D02*
X12941491Y-21536484D01*
X12941491Y-21536484D02*
X12855777Y-21736484D01*
X13008158Y-21555531D02*
X13017682Y-21546008D01*
X13017682Y-21546008D02*
X13036729Y-21536484D01*
X13036729Y-21536484D02*
X13084348Y-21536484D01*
X13084348Y-21536484D02*
X13103396Y-21546008D01*
X13103396Y-21546008D02*
X13112920Y-21555531D01*
X13112920Y-21555531D02*
X13122444Y-21574579D01*
X13122444Y-21574579D02*
X13122444Y-21593627D01*
X13122444Y-21593627D02*
X13112920Y-21622198D01*
X13112920Y-21622198D02*
X12998634Y-21736484D01*
X12998634Y-21736484D02*
X13122444Y-21736484D01*
X13198634Y-21536484D02*
X13198634Y-21574579D01*
X13274825Y-21536484D02*
X13274825Y-21574579D01*
X13570063Y-21812674D02*
X13560539Y-21803150D01*
X13560539Y-21803150D02*
X13541491Y-21774579D01*
X13541491Y-21774579D02*
X13531968Y-21755531D01*
X13531968Y-21755531D02*
X13522444Y-21726960D01*
X13522444Y-21726960D02*
X13512920Y-21679341D01*
X13512920Y-21679341D02*
X13512920Y-21641246D01*
X13512920Y-21641246D02*
X13522444Y-21593627D01*
X13522444Y-21593627D02*
X13531968Y-21565055D01*
X13531968Y-21565055D02*
X13541491Y-21546008D01*
X13541491Y-21546008D02*
X13560539Y-21517436D01*
X13560539Y-21517436D02*
X13570063Y-21507912D01*
X13684348Y-21536484D02*
X13703396Y-21536484D01*
X13703396Y-21536484D02*
X13722444Y-21546008D01*
X13722444Y-21546008D02*
X13731968Y-21555531D01*
X13731968Y-21555531D02*
X13741491Y-21574579D01*
X13741491Y-21574579D02*
X13751015Y-21612674D01*
X13751015Y-21612674D02*
X13751015Y-21660293D01*
X13751015Y-21660293D02*
X13741491Y-21698389D01*
X13741491Y-21698389D02*
X13731968Y-21717436D01*
X13731968Y-21717436D02*
X13722444Y-21726960D01*
X13722444Y-21726960D02*
X13703396Y-21736484D01*
X13703396Y-21736484D02*
X13684348Y-21736484D01*
X13684348Y-21736484D02*
X13665301Y-21726960D01*
X13665301Y-21726960D02*
X13655777Y-21717436D01*
X13655777Y-21717436D02*
X13646253Y-21698389D01*
X13646253Y-21698389D02*
X13636729Y-21660293D01*
X13636729Y-21660293D02*
X13636729Y-21612674D01*
X13636729Y-21612674D02*
X13646253Y-21574579D01*
X13646253Y-21574579D02*
X13655777Y-21555531D01*
X13655777Y-21555531D02*
X13665301Y-21546008D01*
X13665301Y-21546008D02*
X13684348Y-21536484D01*
X13989110Y-21736484D02*
X13989110Y-21536484D01*
X14074825Y-21736484D02*
X14074825Y-21631722D01*
X14074825Y-21631722D02*
X14065301Y-21612674D01*
X14065301Y-21612674D02*
X14046253Y-21603150D01*
X14046253Y-21603150D02*
X14017682Y-21603150D01*
X14017682Y-21603150D02*
X13998634Y-21612674D01*
X13998634Y-21612674D02*
X13989110Y-21622198D01*
X14198634Y-21736484D02*
X14179587Y-21726960D01*
X14179587Y-21726960D02*
X14170063Y-21717436D01*
X14170063Y-21717436D02*
X14160539Y-21698389D01*
X14160539Y-21698389D02*
X14160539Y-21641246D01*
X14160539Y-21641246D02*
X14170063Y-21622198D01*
X14170063Y-21622198D02*
X14179587Y-21612674D01*
X14179587Y-21612674D02*
X14198634Y-21603150D01*
X14198634Y-21603150D02*
X14227206Y-21603150D01*
X14227206Y-21603150D02*
X14246253Y-21612674D01*
X14246253Y-21612674D02*
X14255777Y-21622198D01*
X14255777Y-21622198D02*
X14265301Y-21641246D01*
X14265301Y-21641246D02*
X14265301Y-21698389D01*
X14265301Y-21698389D02*
X14255777Y-21717436D01*
X14255777Y-21717436D02*
X14246253Y-21726960D01*
X14246253Y-21726960D02*
X14227206Y-21736484D01*
X14227206Y-21736484D02*
X14198634Y-21736484D01*
X14379587Y-21736484D02*
X14360539Y-21726960D01*
X14360539Y-21726960D02*
X14351015Y-21707912D01*
X14351015Y-21707912D02*
X14351015Y-21536484D01*
X14531968Y-21726960D02*
X14512920Y-21736484D01*
X14512920Y-21736484D02*
X14474825Y-21736484D01*
X14474825Y-21736484D02*
X14455777Y-21726960D01*
X14455777Y-21726960D02*
X14446253Y-21707912D01*
X14446253Y-21707912D02*
X14446253Y-21631722D01*
X14446253Y-21631722D02*
X14455777Y-21612674D01*
X14455777Y-21612674D02*
X14474825Y-21603150D01*
X14474825Y-21603150D02*
X14512920Y-21603150D01*
X14512920Y-21603150D02*
X14531968Y-21612674D01*
X14531968Y-21612674D02*
X14541491Y-21631722D01*
X14541491Y-21631722D02*
X14541491Y-21650770D01*
X14541491Y-21650770D02*
X14446253Y-21669817D01*
X14617682Y-21726960D02*
X14636730Y-21736484D01*
X14636730Y-21736484D02*
X14674825Y-21736484D01*
X14674825Y-21736484D02*
X14693872Y-21726960D01*
X14693872Y-21726960D02*
X14703396Y-21707912D01*
X14703396Y-21707912D02*
X14703396Y-21698389D01*
X14703396Y-21698389D02*
X14693872Y-21679341D01*
X14693872Y-21679341D02*
X14674825Y-21669817D01*
X14674825Y-21669817D02*
X14646253Y-21669817D01*
X14646253Y-21669817D02*
X14627206Y-21660293D01*
X14627206Y-21660293D02*
X14617682Y-21641246D01*
X14617682Y-21641246D02*
X14617682Y-21631722D01*
X14617682Y-21631722D02*
X14627206Y-21612674D01*
X14627206Y-21612674D02*
X14646253Y-21603150D01*
X14646253Y-21603150D02*
X14674825Y-21603150D01*
X14674825Y-21603150D02*
X14693872Y-21612674D01*
X14941492Y-21660293D02*
X15093873Y-21660293D01*
X15017682Y-21736484D02*
X15017682Y-21584103D01*
X15446253Y-21736484D02*
X15331968Y-21736484D01*
X15389111Y-21736484D02*
X15389111Y-21536484D01*
X15389111Y-21536484D02*
X15370063Y-21565055D01*
X15370063Y-21565055D02*
X15351015Y-21584103D01*
X15351015Y-21584103D02*
X15331968Y-21593627D01*
X15617682Y-21536484D02*
X15579587Y-21536484D01*
X15579587Y-21536484D02*
X15560539Y-21546008D01*
X15560539Y-21546008D02*
X15551015Y-21555531D01*
X15551015Y-21555531D02*
X15531968Y-21584103D01*
X15531968Y-21584103D02*
X15522444Y-21622198D01*
X15522444Y-21622198D02*
X15522444Y-21698389D01*
X15522444Y-21698389D02*
X15531968Y-21717436D01*
X15531968Y-21717436D02*
X15541492Y-21726960D01*
X15541492Y-21726960D02*
X15560539Y-21736484D01*
X15560539Y-21736484D02*
X15598634Y-21736484D01*
X15598634Y-21736484D02*
X15617682Y-21726960D01*
X15617682Y-21726960D02*
X15627206Y-21717436D01*
X15627206Y-21717436D02*
X15636730Y-21698389D01*
X15636730Y-21698389D02*
X15636730Y-21650770D01*
X15636730Y-21650770D02*
X15627206Y-21631722D01*
X15627206Y-21631722D02*
X15617682Y-21622198D01*
X15617682Y-21622198D02*
X15598634Y-21612674D01*
X15598634Y-21612674D02*
X15560539Y-21612674D01*
X15560539Y-21612674D02*
X15541492Y-21622198D01*
X15541492Y-21622198D02*
X15531968Y-21631722D01*
X15531968Y-21631722D02*
X15522444Y-21650770D01*
X15865301Y-21726960D02*
X15884349Y-21736484D01*
X15884349Y-21736484D02*
X15922444Y-21736484D01*
X15922444Y-21736484D02*
X15941492Y-21726960D01*
X15941492Y-21726960D02*
X15951015Y-21707912D01*
X15951015Y-21707912D02*
X15951015Y-21698389D01*
X15951015Y-21698389D02*
X15941492Y-21679341D01*
X15941492Y-21679341D02*
X15922444Y-21669817D01*
X15922444Y-21669817D02*
X15893873Y-21669817D01*
X15893873Y-21669817D02*
X15874825Y-21660293D01*
X15874825Y-21660293D02*
X15865301Y-21641246D01*
X15865301Y-21641246D02*
X15865301Y-21631722D01*
X15865301Y-21631722D02*
X15874825Y-21612674D01*
X15874825Y-21612674D02*
X15893873Y-21603150D01*
X15893873Y-21603150D02*
X15922444Y-21603150D01*
X15922444Y-21603150D02*
X15941492Y-21612674D01*
X16065301Y-21736484D02*
X16046254Y-21726960D01*
X16046254Y-21726960D02*
X16036730Y-21707912D01*
X16036730Y-21707912D02*
X16036730Y-21536484D01*
X16170063Y-21736484D02*
X16151015Y-21726960D01*
X16151015Y-21726960D02*
X16141492Y-21717436D01*
X16141492Y-21717436D02*
X16131968Y-21698389D01*
X16131968Y-21698389D02*
X16131968Y-21641246D01*
X16131968Y-21641246D02*
X16141492Y-21622198D01*
X16141492Y-21622198D02*
X16151015Y-21612674D01*
X16151015Y-21612674D02*
X16170063Y-21603150D01*
X16170063Y-21603150D02*
X16198635Y-21603150D01*
X16198635Y-21603150D02*
X16217682Y-21612674D01*
X16217682Y-21612674D02*
X16227206Y-21622198D01*
X16227206Y-21622198D02*
X16236730Y-21641246D01*
X16236730Y-21641246D02*
X16236730Y-21698389D01*
X16236730Y-21698389D02*
X16227206Y-21717436D01*
X16227206Y-21717436D02*
X16217682Y-21726960D01*
X16217682Y-21726960D02*
X16198635Y-21736484D01*
X16198635Y-21736484D02*
X16170063Y-21736484D01*
X16293873Y-21603150D02*
X16370063Y-21603150D01*
X16322444Y-21536484D02*
X16322444Y-21707912D01*
X16322444Y-21707912D02*
X16331968Y-21726960D01*
X16331968Y-21726960D02*
X16351015Y-21736484D01*
X16351015Y-21736484D02*
X16370063Y-21736484D01*
X16427206Y-21726960D02*
X16446254Y-21736484D01*
X16446254Y-21736484D02*
X16484349Y-21736484D01*
X16484349Y-21736484D02*
X16503396Y-21726960D01*
X16503396Y-21726960D02*
X16512920Y-21707912D01*
X16512920Y-21707912D02*
X16512920Y-21698389D01*
X16512920Y-21698389D02*
X16503396Y-21679341D01*
X16503396Y-21679341D02*
X16484349Y-21669817D01*
X16484349Y-21669817D02*
X16455777Y-21669817D01*
X16455777Y-21669817D02*
X16436730Y-21660293D01*
X16436730Y-21660293D02*
X16427206Y-21641246D01*
X16427206Y-21641246D02*
X16427206Y-21631722D01*
X16427206Y-21631722D02*
X16436730Y-21612674D01*
X16436730Y-21612674D02*
X16455777Y-21603150D01*
X16455777Y-21603150D02*
X16484349Y-21603150D01*
X16484349Y-21603150D02*
X16503396Y-21612674D01*
X16579587Y-21812674D02*
X16589111Y-21803150D01*
X16589111Y-21803150D02*
X16608158Y-21774579D01*
X16608158Y-21774579D02*
X16617682Y-21755531D01*
X16617682Y-21755531D02*
X16627206Y-21726960D01*
X16627206Y-21726960D02*
X16636730Y-21679341D01*
X16636730Y-21679341D02*
X16636730Y-21641246D01*
X16636730Y-21641246D02*
X16627206Y-21593627D01*
X16627206Y-21593627D02*
X16617682Y-21565055D01*
X16617682Y-21565055D02*
X16608158Y-21546008D01*
X16608158Y-21546008D02*
X16589111Y-21517436D01*
X16589111Y-21517436D02*
X16579587Y-21507912D01*
X16941492Y-21812674D02*
X16931968Y-21803150D01*
X16931968Y-21803150D02*
X16912920Y-21774579D01*
X16912920Y-21774579D02*
X16903397Y-21755531D01*
X16903397Y-21755531D02*
X16893873Y-21726960D01*
X16893873Y-21726960D02*
X16884349Y-21679341D01*
X16884349Y-21679341D02*
X16884349Y-21641246D01*
X16884349Y-21641246D02*
X16893873Y-21593627D01*
X16893873Y-21593627D02*
X16903397Y-21565055D01*
X16903397Y-21565055D02*
X16912920Y-21546008D01*
X16912920Y-21546008D02*
X16931968Y-21517436D01*
X16931968Y-21517436D02*
X16941492Y-21507912D01*
X17017682Y-21603150D02*
X17017682Y-21736484D01*
X17017682Y-21622198D02*
X17027206Y-21612674D01*
X17027206Y-21612674D02*
X17046254Y-21603150D01*
X17046254Y-21603150D02*
X17074825Y-21603150D01*
X17074825Y-21603150D02*
X17093873Y-21612674D01*
X17093873Y-21612674D02*
X17103397Y-21631722D01*
X17103397Y-21631722D02*
X17103397Y-21736484D01*
X17227206Y-21736484D02*
X17208158Y-21726960D01*
X17208158Y-21726960D02*
X17198635Y-21717436D01*
X17198635Y-21717436D02*
X17189111Y-21698389D01*
X17189111Y-21698389D02*
X17189111Y-21641246D01*
X17189111Y-21641246D02*
X17198635Y-21622198D01*
X17198635Y-21622198D02*
X17208158Y-21612674D01*
X17208158Y-21612674D02*
X17227206Y-21603150D01*
X17227206Y-21603150D02*
X17255778Y-21603150D01*
X17255778Y-21603150D02*
X17274825Y-21612674D01*
X17274825Y-21612674D02*
X17284349Y-21622198D01*
X17284349Y-21622198D02*
X17293873Y-21641246D01*
X17293873Y-21641246D02*
X17293873Y-21698389D01*
X17293873Y-21698389D02*
X17284349Y-21717436D01*
X17284349Y-21717436D02*
X17274825Y-21726960D01*
X17274825Y-21726960D02*
X17255778Y-21736484D01*
X17255778Y-21736484D02*
X17227206Y-21736484D01*
X17351016Y-21603150D02*
X17427206Y-21603150D01*
X17379587Y-21536484D02*
X17379587Y-21707912D01*
X17379587Y-21707912D02*
X17389111Y-21726960D01*
X17389111Y-21726960D02*
X17408158Y-21736484D01*
X17408158Y-21736484D02*
X17427206Y-21736484D01*
X17646254Y-21603150D02*
X17646254Y-21803150D01*
X17646254Y-21612674D02*
X17665301Y-21603150D01*
X17665301Y-21603150D02*
X17703397Y-21603150D01*
X17703397Y-21603150D02*
X17722444Y-21612674D01*
X17722444Y-21612674D02*
X17731968Y-21622198D01*
X17731968Y-21622198D02*
X17741492Y-21641246D01*
X17741492Y-21641246D02*
X17741492Y-21698389D01*
X17741492Y-21698389D02*
X17731968Y-21717436D01*
X17731968Y-21717436D02*
X17722444Y-21726960D01*
X17722444Y-21726960D02*
X17703397Y-21736484D01*
X17703397Y-21736484D02*
X17665301Y-21736484D01*
X17665301Y-21736484D02*
X17646254Y-21726960D01*
X17855778Y-21736484D02*
X17836730Y-21726960D01*
X17836730Y-21726960D02*
X17827206Y-21707912D01*
X17827206Y-21707912D02*
X17827206Y-21536484D01*
X18017682Y-21736484D02*
X18017682Y-21631722D01*
X18017682Y-21631722D02*
X18008159Y-21612674D01*
X18008159Y-21612674D02*
X17989111Y-21603150D01*
X17989111Y-21603150D02*
X17951016Y-21603150D01*
X17951016Y-21603150D02*
X17931968Y-21612674D01*
X18017682Y-21726960D02*
X17998635Y-21736484D01*
X17998635Y-21736484D02*
X17951016Y-21736484D01*
X17951016Y-21736484D02*
X17931968Y-21726960D01*
X17931968Y-21726960D02*
X17922444Y-21707912D01*
X17922444Y-21707912D02*
X17922444Y-21688865D01*
X17922444Y-21688865D02*
X17931968Y-21669817D01*
X17931968Y-21669817D02*
X17951016Y-21660293D01*
X17951016Y-21660293D02*
X17998635Y-21660293D01*
X17998635Y-21660293D02*
X18017682Y-21650770D01*
X18084349Y-21603150D02*
X18160539Y-21603150D01*
X18112920Y-21536484D02*
X18112920Y-21707912D01*
X18112920Y-21707912D02*
X18122444Y-21726960D01*
X18122444Y-21726960D02*
X18141492Y-21736484D01*
X18141492Y-21736484D02*
X18160539Y-21736484D01*
X18303397Y-21726960D02*
X18284349Y-21736484D01*
X18284349Y-21736484D02*
X18246254Y-21736484D01*
X18246254Y-21736484D02*
X18227206Y-21726960D01*
X18227206Y-21726960D02*
X18217682Y-21707912D01*
X18217682Y-21707912D02*
X18217682Y-21631722D01*
X18217682Y-21631722D02*
X18227206Y-21612674D01*
X18227206Y-21612674D02*
X18246254Y-21603150D01*
X18246254Y-21603150D02*
X18284349Y-21603150D01*
X18284349Y-21603150D02*
X18303397Y-21612674D01*
X18303397Y-21612674D02*
X18312920Y-21631722D01*
X18312920Y-21631722D02*
X18312920Y-21650770D01*
X18312920Y-21650770D02*
X18217682Y-21669817D01*
X18484349Y-21736484D02*
X18484349Y-21536484D01*
X18484349Y-21726960D02*
X18465301Y-21736484D01*
X18465301Y-21736484D02*
X18427206Y-21736484D01*
X18427206Y-21736484D02*
X18408159Y-21726960D01*
X18408159Y-21726960D02*
X18398635Y-21717436D01*
X18398635Y-21717436D02*
X18389111Y-21698389D01*
X18389111Y-21698389D02*
X18389111Y-21641246D01*
X18389111Y-21641246D02*
X18398635Y-21622198D01*
X18398635Y-21622198D02*
X18408159Y-21612674D01*
X18408159Y-21612674D02*
X18427206Y-21603150D01*
X18427206Y-21603150D02*
X18465301Y-21603150D01*
X18465301Y-21603150D02*
X18484349Y-21612674D01*
X18560540Y-21812674D02*
X18570063Y-21803150D01*
X18570063Y-21803150D02*
X18589111Y-21774579D01*
X18589111Y-21774579D02*
X18598635Y-21755531D01*
X18598635Y-21755531D02*
X18608159Y-21726960D01*
X18608159Y-21726960D02*
X18617682Y-21679341D01*
X18617682Y-21679341D02*
X18617682Y-21641246D01*
X18617682Y-21641246D02*
X18608159Y-21593627D01*
X18608159Y-21593627D02*
X18598635Y-21565055D01*
X18598635Y-21565055D02*
X18589111Y-21546008D01*
X18589111Y-21546008D02*
X18570063Y-21517436D01*
X18570063Y-21517436D02*
X18560540Y-21507912D01*
M02*
