%TF.GenerationSoftware,KiCad,Pcbnew,10.0.3*%
%TF.CreationDate,2026-07-11T11:21:13+02:00*%
%TF.ProjectId,musicbrain-pot8front,6d757369-6362-4726-9169-6e2d706f7438,1.0*%
%TF.SameCoordinates,Original*%
%TF.FileFunction,Copper,L2,Bot*%
%TF.FilePolarity,Positive*%
%FSLAX46Y46*%
G04 Gerber Fmt 4.6, Leading zero omitted, Abs format (unit mm)*
G04 Created by KiCad (PCBNEW 10.0.3) date 2026-07-11 11:21:13*
%MOMM*%
%LPD*%
G01*
G04 APERTURE LIST*
%TA.AperFunction,ComponentPad*%
%ADD10C,1.700000*%
%TD*%
%TA.AperFunction,ComponentPad*%
%ADD11R,1.700000X1.700000*%
%TD*%
%TA.AperFunction,ComponentPad*%
%ADD12O,1.700000X1.700000*%
%TD*%
%TA.AperFunction,ViaPad*%
%ADD13C,0.500000*%
%TD*%
%TA.AperFunction,Conductor*%
%ADD14C,0.300000*%
%TD*%
G04 APERTURE END LIST*
D10*
%TO.P,RV1,1*%
%TO.N,GND*%
X112500000Y-104375000D03*
%TO.P,RV1,2*%
%TO.N,/W1*%
X112500000Y-106875000D03*
%TO.P,RV1,3*%
%TO.N,+3V3*%
X112500000Y-109375000D03*
%TD*%
%TO.P,RV2,1*%
%TO.N,GND*%
X112500000Y-118125000D03*
%TO.P,RV2,2*%
%TO.N,/W2*%
X112500000Y-120625000D03*
%TO.P,RV2,3*%
%TO.N,+3V3*%
X112500000Y-123125000D03*
%TD*%
%TO.P,RV3,1*%
%TO.N,GND*%
X112500000Y-131875000D03*
%TO.P,RV3,2*%
%TO.N,/W3*%
X112500000Y-134375000D03*
%TO.P,RV3,3*%
%TO.N,+3V3*%
X112500000Y-136875000D03*
%TD*%
%TO.P,RV4,1*%
%TO.N,GND*%
X112500000Y-145625000D03*
%TO.P,RV4,2*%
%TO.N,/W4*%
X112500000Y-148125000D03*
%TO.P,RV4,3*%
%TO.N,+3V3*%
X112500000Y-150625000D03*
%TD*%
%TO.P,RV5,1*%
%TO.N,GND*%
X112500000Y-159375000D03*
%TO.P,RV5,2*%
%TO.N,/W5*%
X112500000Y-161875000D03*
%TO.P,RV5,3*%
%TO.N,+3V3*%
X112500000Y-164375000D03*
%TD*%
%TO.P,RV6,1*%
%TO.N,GND*%
X112500000Y-173125000D03*
%TO.P,RV6,2*%
%TO.N,/W6*%
X112500000Y-175625000D03*
%TO.P,RV6,3*%
%TO.N,+3V3*%
X112500000Y-178125000D03*
%TD*%
%TO.P,RV7,1*%
%TO.N,GND*%
X112500000Y-186875000D03*
%TO.P,RV7,2*%
%TO.N,/W7*%
X112500000Y-189375000D03*
%TO.P,RV7,3*%
%TO.N,+3V3*%
X112500000Y-191875000D03*
%TD*%
%TO.P,RV8,1*%
%TO.N,GND*%
X112500000Y-200625000D03*
%TO.P,RV8,2*%
%TO.N,/W8*%
X112500000Y-203125000D03*
%TO.P,RV8,3*%
%TO.N,+3V3*%
X112500000Y-205625000D03*
%TD*%
D11*
%TO.P,J1,1*%
%TO.N,GND*%
X116500000Y-143570000D03*
D12*
%TO.P,J1,2*%
%TO.N,/W1*%
X116500000Y-146110000D03*
%TO.P,J1,3*%
%TO.N,/W2*%
X116500000Y-148650000D03*
%TO.P,J1,4*%
%TO.N,/W3*%
X116500000Y-151190000D03*
%TO.P,J1,5*%
%TO.N,/W4*%
X116500000Y-153730000D03*
%TO.P,J1,6*%
%TO.N,/W5*%
X116500000Y-156270000D03*
%TO.P,J1,7*%
%TO.N,/W6*%
X116500000Y-158810000D03*
%TO.P,J1,8*%
%TO.N,/W7*%
X116500000Y-161350000D03*
%TO.P,J1,9*%
%TO.N,/W8*%
X116500000Y-163890000D03*
%TO.P,J1,10*%
%TO.N,+3V3*%
X116500000Y-166430000D03*
%TD*%
D13*
%TO.N,GND*%
X102000000Y-102000000D03*
X118000000Y-102000000D03*
X102000000Y-208000000D03*
X118000000Y-208000000D03*
X102000000Y-155000000D03*
X118000000Y-128000000D03*
X118000000Y-186000000D03*
%TD*%
%TO.N,+3V3*%
D14*
X110500000Y-109375000D02*
X110500000Y-205625000D01*
X112500000Y-109375000D02*
X110500000Y-109375000D01*
X112500000Y-123125000D02*
X110500000Y-123125000D01*
X112500000Y-136875000D02*
X110500000Y-136875000D01*
X112500000Y-150625000D02*
X110500000Y-150625000D01*
X112500000Y-164375000D02*
X110500000Y-164375000D01*
X112500000Y-178125000D02*
X110500000Y-178125000D01*
X112500000Y-191875000D02*
X110500000Y-191875000D01*
X112500000Y-205625000D02*
X110500000Y-205625000D01*
X110500000Y-165230000D02*
X115300000Y-165230000D01*
X115300000Y-165230000D02*
X116500000Y-166430000D01*
%TD*%
%TA.AperFunction,Conductor*%
%TO.N,GND*%
G36*
X103979716Y-100519407D02*
G01*
X104015680Y-100568907D01*
X104015680Y-100630093D01*
X104009735Y-100644444D01*
X103980127Y-100702552D01*
X103980123Y-100702561D01*
X103926598Y-100867293D01*
X103926597Y-100867297D01*
X103899500Y-101038385D01*
X103899500Y-101511614D01*
X103926597Y-101682702D01*
X103926598Y-101682706D01*
X103980123Y-101847438D01*
X103980125Y-101847441D01*
X103980126Y-101847444D01*
X103980127Y-101847445D01*
X104058768Y-102001788D01*
X104160586Y-102141928D01*
X104283072Y-102264414D01*
X104423212Y-102366232D01*
X104577555Y-102444873D01*
X104577557Y-102444873D01*
X104577558Y-102444874D01*
X104577561Y-102444876D01*
X104742293Y-102498401D01*
X104742297Y-102498402D01*
X104913386Y-102525500D01*
X104913389Y-102525500D01*
X105086614Y-102525500D01*
X105257702Y-102498402D01*
X105257706Y-102498401D01*
X105422438Y-102444876D01*
X105422440Y-102444874D01*
X105422445Y-102444873D01*
X105576788Y-102366232D01*
X105716928Y-102264414D01*
X105839414Y-102141928D01*
X105941232Y-102001788D01*
X106019873Y-101847445D01*
X106019874Y-101847440D01*
X106019876Y-101847438D01*
X106073401Y-101682706D01*
X106073402Y-101682702D01*
X106100500Y-101511614D01*
X106100500Y-101038385D01*
X106073402Y-100867297D01*
X106073401Y-100867293D01*
X106019876Y-100702561D01*
X106019872Y-100702552D01*
X105990265Y-100644444D01*
X105980694Y-100584012D01*
X106008472Y-100529496D01*
X106062989Y-100501719D01*
X106078475Y-100500500D01*
X119400500Y-100500500D01*
X119458691Y-100519407D01*
X119494655Y-100568907D01*
X119499500Y-100599500D01*
X119499500Y-209400500D01*
X119480593Y-209458691D01*
X119431093Y-209494655D01*
X119400500Y-209499500D01*
X106078475Y-209499500D01*
X106020284Y-209480593D01*
X105984320Y-209431093D01*
X105984320Y-209369907D01*
X105990265Y-209355556D01*
X106019872Y-209297447D01*
X106019876Y-209297438D01*
X106073401Y-209132706D01*
X106073402Y-209132702D01*
X106100500Y-208961614D01*
X106100500Y-208488385D01*
X106073402Y-208317297D01*
X106073401Y-208317293D01*
X106019876Y-208152561D01*
X106019874Y-208152558D01*
X106019873Y-208152557D01*
X106019873Y-208152555D01*
X105941232Y-207998212D01*
X105839414Y-207858072D01*
X105716928Y-207735586D01*
X105576788Y-207633768D01*
X105576787Y-207633767D01*
X105576785Y-207633766D01*
X105422441Y-207555125D01*
X105422438Y-207555123D01*
X105257706Y-207501598D01*
X105257702Y-207501597D01*
X105086614Y-207474500D01*
X105086611Y-207474500D01*
X104913389Y-207474500D01*
X104913386Y-207474500D01*
X104742297Y-207501597D01*
X104742293Y-207501598D01*
X104577561Y-207555123D01*
X104577558Y-207555125D01*
X104423214Y-207633766D01*
X104283073Y-207735585D01*
X104160585Y-207858073D01*
X104058766Y-207998214D01*
X103980125Y-208152558D01*
X103980123Y-208152561D01*
X103926598Y-208317293D01*
X103926597Y-208317297D01*
X103899500Y-208488385D01*
X103899500Y-208961614D01*
X103926597Y-209132702D01*
X103926598Y-209132706D01*
X103980123Y-209297438D01*
X103980127Y-209297447D01*
X104009735Y-209355556D01*
X104019306Y-209415988D01*
X103991528Y-209470504D01*
X103937011Y-209498281D01*
X103921525Y-209499500D01*
X100599500Y-209499500D01*
X100541309Y-209480593D01*
X100505345Y-209431093D01*
X100500500Y-209400500D01*
X100500500Y-194738385D01*
X103899500Y-194738385D01*
X103899500Y-195211614D01*
X103926597Y-195382702D01*
X103926598Y-195382706D01*
X103980123Y-195547438D01*
X103980125Y-195547441D01*
X103980126Y-195547444D01*
X103980127Y-195547445D01*
X104058768Y-195701788D01*
X104160586Y-195841928D01*
X104283072Y-195964414D01*
X104423212Y-196066232D01*
X104577555Y-196144873D01*
X104577557Y-196144873D01*
X104577558Y-196144874D01*
X104577561Y-196144876D01*
X104611323Y-196155846D01*
X104660823Y-196191810D01*
X104679730Y-196250001D01*
X104660822Y-196308191D01*
X104611323Y-196344154D01*
X104577561Y-196355123D01*
X104577558Y-196355125D01*
X104423214Y-196433766D01*
X104283073Y-196535585D01*
X104160585Y-196658073D01*
X104058766Y-196798214D01*
X103980125Y-196952558D01*
X103980123Y-196952561D01*
X103926598Y-197117293D01*
X103926597Y-197117297D01*
X103899500Y-197288385D01*
X103899500Y-197761614D01*
X103926597Y-197932702D01*
X103926598Y-197932706D01*
X103980123Y-198097438D01*
X103980125Y-198097441D01*
X103980126Y-198097444D01*
X103980127Y-198097445D01*
X104058768Y-198251788D01*
X104160586Y-198391928D01*
X104283072Y-198514414D01*
X104423212Y-198616232D01*
X104577555Y-198694873D01*
X104577557Y-198694873D01*
X104577558Y-198694874D01*
X104577561Y-198694876D01*
X104742293Y-198748401D01*
X104742297Y-198748402D01*
X104913386Y-198775500D01*
X104913389Y-198775500D01*
X105086614Y-198775500D01*
X105257702Y-198748402D01*
X105257706Y-198748401D01*
X105422438Y-198694876D01*
X105422440Y-198694874D01*
X105422445Y-198694873D01*
X105576788Y-198616232D01*
X105716928Y-198514414D01*
X105839414Y-198391928D01*
X105941232Y-198251788D01*
X106019873Y-198097445D01*
X106019874Y-198097440D01*
X106019876Y-198097438D01*
X106073401Y-197932706D01*
X106073402Y-197932702D01*
X106100500Y-197761614D01*
X106100500Y-197288385D01*
X106073402Y-197117297D01*
X106073401Y-197117293D01*
X106019876Y-196952561D01*
X106019874Y-196952558D01*
X106019873Y-196952557D01*
X106019873Y-196952555D01*
X105941232Y-196798212D01*
X105839414Y-196658072D01*
X105716928Y-196535586D01*
X105576788Y-196433768D01*
X105576787Y-196433767D01*
X105576785Y-196433766D01*
X105422443Y-196355126D01*
X105388677Y-196344155D01*
X105339176Y-196308191D01*
X105320269Y-196250000D01*
X105339176Y-196191809D01*
X105388675Y-196155845D01*
X105422445Y-196144873D01*
X105576788Y-196066232D01*
X105716928Y-195964414D01*
X105839414Y-195841928D01*
X105941232Y-195701788D01*
X106019873Y-195547445D01*
X106019874Y-195547440D01*
X106019876Y-195547438D01*
X106073401Y-195382706D01*
X106073402Y-195382702D01*
X106100500Y-195211614D01*
X106100500Y-194738385D01*
X106073402Y-194567297D01*
X106073401Y-194567293D01*
X106019876Y-194402561D01*
X106019874Y-194402558D01*
X106019873Y-194402557D01*
X106019873Y-194402555D01*
X105941232Y-194248212D01*
X105839414Y-194108072D01*
X105716928Y-193985586D01*
X105576788Y-193883768D01*
X105576787Y-193883767D01*
X105576785Y-193883766D01*
X105422441Y-193805125D01*
X105422438Y-193805123D01*
X105257706Y-193751598D01*
X105257702Y-193751597D01*
X105086614Y-193724500D01*
X105086611Y-193724500D01*
X104913389Y-193724500D01*
X104913386Y-193724500D01*
X104742297Y-193751597D01*
X104742293Y-193751598D01*
X104577561Y-193805123D01*
X104577558Y-193805125D01*
X104423214Y-193883766D01*
X104283073Y-193985585D01*
X104160585Y-194108073D01*
X104058766Y-194248214D01*
X103980125Y-194402558D01*
X103980123Y-194402561D01*
X103926598Y-194567293D01*
X103926597Y-194567297D01*
X103899500Y-194738385D01*
X100500500Y-194738385D01*
X100500500Y-180988385D01*
X103899500Y-180988385D01*
X103899500Y-181461614D01*
X103926597Y-181632702D01*
X103926598Y-181632706D01*
X103980123Y-181797438D01*
X103980125Y-181797441D01*
X103980126Y-181797444D01*
X103980127Y-181797445D01*
X104058768Y-181951788D01*
X104160586Y-182091928D01*
X104283072Y-182214414D01*
X104423212Y-182316232D01*
X104577555Y-182394873D01*
X104577557Y-182394873D01*
X104577558Y-182394874D01*
X104577561Y-182394876D01*
X104611323Y-182405846D01*
X104660823Y-182441810D01*
X104679730Y-182500001D01*
X104660822Y-182558191D01*
X104611323Y-182594154D01*
X104577561Y-182605123D01*
X104577558Y-182605125D01*
X104423214Y-182683766D01*
X104283073Y-182785585D01*
X104160585Y-182908073D01*
X104058766Y-183048214D01*
X103980125Y-183202558D01*
X103980123Y-183202561D01*
X103926598Y-183367293D01*
X103926597Y-183367297D01*
X103899500Y-183538385D01*
X103899500Y-184011614D01*
X103926597Y-184182702D01*
X103926598Y-184182706D01*
X103980123Y-184347438D01*
X103980125Y-184347441D01*
X103980126Y-184347444D01*
X103980127Y-184347445D01*
X104058768Y-184501788D01*
X104160586Y-184641928D01*
X104283072Y-184764414D01*
X104423212Y-184866232D01*
X104577555Y-184944873D01*
X104577557Y-184944873D01*
X104577558Y-184944874D01*
X104577561Y-184944876D01*
X104742293Y-184998401D01*
X104742297Y-184998402D01*
X104913386Y-185025500D01*
X104913389Y-185025500D01*
X105086614Y-185025500D01*
X105257702Y-184998402D01*
X105257706Y-184998401D01*
X105422438Y-184944876D01*
X105422440Y-184944874D01*
X105422445Y-184944873D01*
X105576788Y-184866232D01*
X105716928Y-184764414D01*
X105839414Y-184641928D01*
X105941232Y-184501788D01*
X106019873Y-184347445D01*
X106019874Y-184347440D01*
X106019876Y-184347438D01*
X106073401Y-184182706D01*
X106073402Y-184182702D01*
X106100500Y-184011614D01*
X106100500Y-183538385D01*
X106073402Y-183367297D01*
X106073401Y-183367293D01*
X106019876Y-183202561D01*
X106019874Y-183202558D01*
X106019873Y-183202557D01*
X106019873Y-183202555D01*
X105941232Y-183048212D01*
X105839414Y-182908072D01*
X105716928Y-182785586D01*
X105576788Y-182683768D01*
X105576787Y-182683767D01*
X105576785Y-182683766D01*
X105422443Y-182605126D01*
X105388677Y-182594155D01*
X105339176Y-182558191D01*
X105320269Y-182500000D01*
X105339176Y-182441809D01*
X105388675Y-182405845D01*
X105422445Y-182394873D01*
X105576788Y-182316232D01*
X105716928Y-182214414D01*
X105839414Y-182091928D01*
X105941232Y-181951788D01*
X106019873Y-181797445D01*
X106019874Y-181797440D01*
X106019876Y-181797438D01*
X106073401Y-181632706D01*
X106073402Y-181632702D01*
X106100500Y-181461614D01*
X106100500Y-180988385D01*
X106073402Y-180817297D01*
X106073401Y-180817293D01*
X106019876Y-180652561D01*
X106019874Y-180652558D01*
X106019873Y-180652557D01*
X106019873Y-180652555D01*
X105941232Y-180498212D01*
X105839414Y-180358072D01*
X105716928Y-180235586D01*
X105576788Y-180133768D01*
X105576787Y-180133767D01*
X105576785Y-180133766D01*
X105422441Y-180055125D01*
X105422438Y-180055123D01*
X105257706Y-180001598D01*
X105257702Y-180001597D01*
X105086614Y-179974500D01*
X105086611Y-179974500D01*
X104913389Y-179974500D01*
X104913386Y-179974500D01*
X104742297Y-180001597D01*
X104742293Y-180001598D01*
X104577561Y-180055123D01*
X104577558Y-180055125D01*
X104423214Y-180133766D01*
X104283073Y-180235585D01*
X104160585Y-180358073D01*
X104058766Y-180498214D01*
X103980125Y-180652558D01*
X103980123Y-180652561D01*
X103926598Y-180817293D01*
X103926597Y-180817297D01*
X103899500Y-180988385D01*
X100500500Y-180988385D01*
X100500500Y-167238385D01*
X103899500Y-167238385D01*
X103899500Y-167711614D01*
X103926597Y-167882702D01*
X103926598Y-167882706D01*
X103980123Y-168047438D01*
X103980125Y-168047441D01*
X103980126Y-168047444D01*
X103980127Y-168047445D01*
X104058768Y-168201788D01*
X104160586Y-168341928D01*
X104283072Y-168464414D01*
X104423212Y-168566232D01*
X104577555Y-168644873D01*
X104577557Y-168644873D01*
X104577558Y-168644874D01*
X104577561Y-168644876D01*
X104611323Y-168655846D01*
X104660823Y-168691810D01*
X104679730Y-168750001D01*
X104660822Y-168808191D01*
X104611323Y-168844154D01*
X104577561Y-168855123D01*
X104577558Y-168855125D01*
X104423214Y-168933766D01*
X104283073Y-169035585D01*
X104160585Y-169158073D01*
X104058766Y-169298214D01*
X103980125Y-169452558D01*
X103980123Y-169452561D01*
X103926598Y-169617293D01*
X103926597Y-169617297D01*
X103899500Y-169788385D01*
X103899500Y-170261614D01*
X103926597Y-170432702D01*
X103926598Y-170432706D01*
X103980123Y-170597438D01*
X103980125Y-170597441D01*
X103980126Y-170597444D01*
X103980127Y-170597445D01*
X104058768Y-170751788D01*
X104160586Y-170891928D01*
X104283072Y-171014414D01*
X104423212Y-171116232D01*
X104577555Y-171194873D01*
X104577557Y-171194873D01*
X104577558Y-171194874D01*
X104577561Y-171194876D01*
X104742293Y-171248401D01*
X104742297Y-171248402D01*
X104913386Y-171275500D01*
X104913389Y-171275500D01*
X105086614Y-171275500D01*
X105257702Y-171248402D01*
X105257706Y-171248401D01*
X105422438Y-171194876D01*
X105422440Y-171194874D01*
X105422445Y-171194873D01*
X105576788Y-171116232D01*
X105716928Y-171014414D01*
X105839414Y-170891928D01*
X105941232Y-170751788D01*
X106019873Y-170597445D01*
X106019874Y-170597440D01*
X106019876Y-170597438D01*
X106073401Y-170432706D01*
X106073402Y-170432702D01*
X106100500Y-170261614D01*
X106100500Y-169788385D01*
X106073402Y-169617297D01*
X106073401Y-169617293D01*
X106019876Y-169452561D01*
X106019874Y-169452558D01*
X106019873Y-169452557D01*
X106019873Y-169452555D01*
X105941232Y-169298212D01*
X105839414Y-169158072D01*
X105716928Y-169035586D01*
X105576788Y-168933768D01*
X105576787Y-168933767D01*
X105576785Y-168933766D01*
X105422443Y-168855126D01*
X105388677Y-168844155D01*
X105339176Y-168808191D01*
X105320269Y-168750000D01*
X105339176Y-168691809D01*
X105388675Y-168655845D01*
X105422445Y-168644873D01*
X105576788Y-168566232D01*
X105716928Y-168464414D01*
X105839414Y-168341928D01*
X105941232Y-168201788D01*
X106019873Y-168047445D01*
X106019874Y-168047440D01*
X106019876Y-168047438D01*
X106073401Y-167882706D01*
X106073402Y-167882702D01*
X106100500Y-167711614D01*
X106100500Y-167238385D01*
X106073402Y-167067297D01*
X106073401Y-167067293D01*
X106019876Y-166902561D01*
X106019874Y-166902558D01*
X106019873Y-166902557D01*
X106019873Y-166902555D01*
X105941232Y-166748212D01*
X105839414Y-166608072D01*
X105716928Y-166485586D01*
X105576788Y-166383768D01*
X105576787Y-166383767D01*
X105576785Y-166383766D01*
X105422441Y-166305125D01*
X105422438Y-166305123D01*
X105257706Y-166251598D01*
X105257702Y-166251597D01*
X105086614Y-166224500D01*
X105086611Y-166224500D01*
X104913389Y-166224500D01*
X104913386Y-166224500D01*
X104742297Y-166251597D01*
X104742293Y-166251598D01*
X104577561Y-166305123D01*
X104577558Y-166305125D01*
X104423214Y-166383766D01*
X104283073Y-166485585D01*
X104160585Y-166608073D01*
X104058766Y-166748214D01*
X103980125Y-166902558D01*
X103980123Y-166902561D01*
X103926598Y-167067293D01*
X103926597Y-167067297D01*
X103899500Y-167238385D01*
X100500500Y-167238385D01*
X100500500Y-153488385D01*
X103899500Y-153488385D01*
X103899500Y-153961614D01*
X103926597Y-154132702D01*
X103926598Y-154132706D01*
X103980123Y-154297438D01*
X103980125Y-154297441D01*
X103980126Y-154297444D01*
X103980127Y-154297445D01*
X104058768Y-154451788D01*
X104160586Y-154591928D01*
X104283072Y-154714414D01*
X104423212Y-154816232D01*
X104577555Y-154894873D01*
X104577557Y-154894873D01*
X104577558Y-154894874D01*
X104577561Y-154894876D01*
X104611323Y-154905846D01*
X104660823Y-154941810D01*
X104679730Y-155000001D01*
X104660822Y-155058191D01*
X104611323Y-155094154D01*
X104577561Y-155105123D01*
X104577558Y-155105125D01*
X104423214Y-155183766D01*
X104283073Y-155285585D01*
X104160585Y-155408073D01*
X104058766Y-155548214D01*
X103980125Y-155702558D01*
X103980123Y-155702561D01*
X103926598Y-155867293D01*
X103926597Y-155867297D01*
X103899500Y-156038385D01*
X103899500Y-156511614D01*
X103926597Y-156682702D01*
X103926598Y-156682706D01*
X103980123Y-156847438D01*
X103980125Y-156847441D01*
X103980126Y-156847444D01*
X103980127Y-156847445D01*
X104058768Y-157001788D01*
X104160586Y-157141928D01*
X104283072Y-157264414D01*
X104423212Y-157366232D01*
X104577555Y-157444873D01*
X104577557Y-157444873D01*
X104577558Y-157444874D01*
X104577561Y-157444876D01*
X104742293Y-157498401D01*
X104742297Y-157498402D01*
X104913386Y-157525500D01*
X104913389Y-157525500D01*
X105086614Y-157525500D01*
X105257702Y-157498402D01*
X105257706Y-157498401D01*
X105422438Y-157444876D01*
X105422440Y-157444874D01*
X105422445Y-157444873D01*
X105576788Y-157366232D01*
X105716928Y-157264414D01*
X105839414Y-157141928D01*
X105941232Y-157001788D01*
X106019873Y-156847445D01*
X106019874Y-156847440D01*
X106019876Y-156847438D01*
X106073401Y-156682706D01*
X106073402Y-156682702D01*
X106100500Y-156511614D01*
X106100500Y-156038385D01*
X106073402Y-155867297D01*
X106073401Y-155867293D01*
X106019876Y-155702561D01*
X106019874Y-155702558D01*
X106019873Y-155702557D01*
X106019873Y-155702555D01*
X105941232Y-155548212D01*
X105839414Y-155408072D01*
X105716928Y-155285586D01*
X105576788Y-155183768D01*
X105576787Y-155183767D01*
X105576785Y-155183766D01*
X105422443Y-155105126D01*
X105388677Y-155094155D01*
X105339176Y-155058191D01*
X105320269Y-155000000D01*
X105339176Y-154941809D01*
X105388675Y-154905845D01*
X105422445Y-154894873D01*
X105576788Y-154816232D01*
X105716928Y-154714414D01*
X105839414Y-154591928D01*
X105941232Y-154451788D01*
X106019873Y-154297445D01*
X106019874Y-154297440D01*
X106019876Y-154297438D01*
X106073401Y-154132706D01*
X106073402Y-154132702D01*
X106100500Y-153961614D01*
X106100500Y-153488385D01*
X106073402Y-153317297D01*
X106073401Y-153317293D01*
X106019876Y-153152561D01*
X106019874Y-153152558D01*
X106019873Y-153152557D01*
X106019873Y-153152555D01*
X105941232Y-152998212D01*
X105839414Y-152858072D01*
X105716928Y-152735586D01*
X105576788Y-152633768D01*
X105576787Y-152633767D01*
X105576785Y-152633766D01*
X105422441Y-152555125D01*
X105422438Y-152555123D01*
X105257706Y-152501598D01*
X105257702Y-152501597D01*
X105086614Y-152474500D01*
X105086611Y-152474500D01*
X104913389Y-152474500D01*
X104913386Y-152474500D01*
X104742297Y-152501597D01*
X104742293Y-152501598D01*
X104577561Y-152555123D01*
X104577558Y-152555125D01*
X104423214Y-152633766D01*
X104283073Y-152735585D01*
X104160585Y-152858073D01*
X104058766Y-152998214D01*
X103980125Y-153152558D01*
X103980123Y-153152561D01*
X103926598Y-153317293D01*
X103926597Y-153317297D01*
X103899500Y-153488385D01*
X100500500Y-153488385D01*
X100500500Y-139738385D01*
X103899500Y-139738385D01*
X103899500Y-140211614D01*
X103926597Y-140382702D01*
X103926598Y-140382706D01*
X103980123Y-140547438D01*
X103980125Y-140547441D01*
X103980126Y-140547444D01*
X103980127Y-140547445D01*
X104058768Y-140701788D01*
X104160586Y-140841928D01*
X104283072Y-140964414D01*
X104423212Y-141066232D01*
X104577555Y-141144873D01*
X104577557Y-141144873D01*
X104577558Y-141144874D01*
X104577561Y-141144876D01*
X104611323Y-141155846D01*
X104660823Y-141191810D01*
X104679730Y-141250001D01*
X104660822Y-141308191D01*
X104611323Y-141344154D01*
X104577561Y-141355123D01*
X104577558Y-141355125D01*
X104423214Y-141433766D01*
X104283073Y-141535585D01*
X104160585Y-141658073D01*
X104058766Y-141798214D01*
X103980125Y-141952558D01*
X103980123Y-141952561D01*
X103926598Y-142117293D01*
X103926597Y-142117297D01*
X103899500Y-142288385D01*
X103899500Y-142761614D01*
X103926597Y-142932702D01*
X103926598Y-142932706D01*
X103980123Y-143097438D01*
X103980125Y-143097441D01*
X103980126Y-143097444D01*
X103980127Y-143097445D01*
X104058768Y-143251788D01*
X104160586Y-143391928D01*
X104283072Y-143514414D01*
X104423212Y-143616232D01*
X104577555Y-143694873D01*
X104577557Y-143694873D01*
X104577558Y-143694874D01*
X104577561Y-143694876D01*
X104742293Y-143748401D01*
X104742297Y-143748402D01*
X104913386Y-143775500D01*
X104913389Y-143775500D01*
X105086614Y-143775500D01*
X105257702Y-143748402D01*
X105257706Y-143748401D01*
X105422438Y-143694876D01*
X105422440Y-143694874D01*
X105422445Y-143694873D01*
X105576788Y-143616232D01*
X105716928Y-143514414D01*
X105839414Y-143391928D01*
X105941232Y-143251788D01*
X106019873Y-143097445D01*
X106019874Y-143097440D01*
X106019876Y-143097438D01*
X106073401Y-142932706D01*
X106073402Y-142932702D01*
X106100500Y-142761614D01*
X106100500Y-142288385D01*
X106073402Y-142117297D01*
X106073401Y-142117293D01*
X106019876Y-141952561D01*
X106019874Y-141952558D01*
X106019873Y-141952557D01*
X106019873Y-141952555D01*
X105941232Y-141798212D01*
X105839414Y-141658072D01*
X105716928Y-141535586D01*
X105576788Y-141433768D01*
X105576787Y-141433767D01*
X105576785Y-141433766D01*
X105422443Y-141355126D01*
X105388677Y-141344155D01*
X105339176Y-141308191D01*
X105320269Y-141250000D01*
X105339176Y-141191809D01*
X105388675Y-141155845D01*
X105422445Y-141144873D01*
X105576788Y-141066232D01*
X105716928Y-140964414D01*
X105839414Y-140841928D01*
X105941232Y-140701788D01*
X106019873Y-140547445D01*
X106019874Y-140547440D01*
X106019876Y-140547438D01*
X106073401Y-140382706D01*
X106073402Y-140382702D01*
X106100500Y-140211614D01*
X106100500Y-139738385D01*
X106073402Y-139567297D01*
X106073401Y-139567293D01*
X106019876Y-139402561D01*
X106019874Y-139402558D01*
X106019873Y-139402557D01*
X106019873Y-139402555D01*
X105941232Y-139248212D01*
X105839414Y-139108072D01*
X105716928Y-138985586D01*
X105576788Y-138883768D01*
X105576787Y-138883767D01*
X105576785Y-138883766D01*
X105422441Y-138805125D01*
X105422438Y-138805123D01*
X105257706Y-138751598D01*
X105257702Y-138751597D01*
X105086614Y-138724500D01*
X105086611Y-138724500D01*
X104913389Y-138724500D01*
X104913386Y-138724500D01*
X104742297Y-138751597D01*
X104742293Y-138751598D01*
X104577561Y-138805123D01*
X104577558Y-138805125D01*
X104423214Y-138883766D01*
X104283073Y-138985585D01*
X104160585Y-139108073D01*
X104058766Y-139248214D01*
X103980125Y-139402558D01*
X103980123Y-139402561D01*
X103926598Y-139567293D01*
X103926597Y-139567297D01*
X103899500Y-139738385D01*
X100500500Y-139738385D01*
X100500500Y-125988385D01*
X103899500Y-125988385D01*
X103899500Y-126461614D01*
X103926597Y-126632702D01*
X103926598Y-126632706D01*
X103980123Y-126797438D01*
X103980125Y-126797441D01*
X103980126Y-126797444D01*
X103980127Y-126797445D01*
X104058768Y-126951788D01*
X104160586Y-127091928D01*
X104283072Y-127214414D01*
X104423212Y-127316232D01*
X104577555Y-127394873D01*
X104577557Y-127394873D01*
X104577558Y-127394874D01*
X104577561Y-127394876D01*
X104611323Y-127405846D01*
X104660823Y-127441810D01*
X104679730Y-127500001D01*
X104660822Y-127558191D01*
X104611323Y-127594154D01*
X104577561Y-127605123D01*
X104577558Y-127605125D01*
X104423214Y-127683766D01*
X104283073Y-127785585D01*
X104160585Y-127908073D01*
X104058766Y-128048214D01*
X103980125Y-128202558D01*
X103980123Y-128202561D01*
X103926598Y-128367293D01*
X103926597Y-128367297D01*
X103899500Y-128538385D01*
X103899500Y-129011614D01*
X103926597Y-129182702D01*
X103926598Y-129182706D01*
X103980123Y-129347438D01*
X103980125Y-129347441D01*
X103980126Y-129347444D01*
X103980127Y-129347445D01*
X104058768Y-129501788D01*
X104160586Y-129641928D01*
X104283072Y-129764414D01*
X104423212Y-129866232D01*
X104577555Y-129944873D01*
X104577557Y-129944873D01*
X104577558Y-129944874D01*
X104577561Y-129944876D01*
X104742293Y-129998401D01*
X104742297Y-129998402D01*
X104913386Y-130025500D01*
X104913389Y-130025500D01*
X105086614Y-130025500D01*
X105257702Y-129998402D01*
X105257706Y-129998401D01*
X105422438Y-129944876D01*
X105422440Y-129944874D01*
X105422445Y-129944873D01*
X105576788Y-129866232D01*
X105716928Y-129764414D01*
X105839414Y-129641928D01*
X105941232Y-129501788D01*
X106019873Y-129347445D01*
X106019874Y-129347440D01*
X106019876Y-129347438D01*
X106073401Y-129182706D01*
X106073402Y-129182702D01*
X106100500Y-129011614D01*
X106100500Y-128538385D01*
X106073402Y-128367297D01*
X106073401Y-128367293D01*
X106019876Y-128202561D01*
X106019874Y-128202558D01*
X106019873Y-128202557D01*
X106019873Y-128202555D01*
X105941232Y-128048212D01*
X105839414Y-127908072D01*
X105716928Y-127785586D01*
X105576788Y-127683768D01*
X105576787Y-127683767D01*
X105576785Y-127683766D01*
X105422443Y-127605126D01*
X105388677Y-127594155D01*
X105339176Y-127558191D01*
X105320269Y-127500000D01*
X105339176Y-127441809D01*
X105388675Y-127405845D01*
X105422445Y-127394873D01*
X105576788Y-127316232D01*
X105716928Y-127214414D01*
X105839414Y-127091928D01*
X105941232Y-126951788D01*
X106019873Y-126797445D01*
X106019874Y-126797440D01*
X106019876Y-126797438D01*
X106073401Y-126632706D01*
X106073402Y-126632702D01*
X106100500Y-126461614D01*
X106100500Y-125988385D01*
X106073402Y-125817297D01*
X106073401Y-125817293D01*
X106019876Y-125652561D01*
X106019874Y-125652558D01*
X106019873Y-125652557D01*
X106019873Y-125652555D01*
X105941232Y-125498212D01*
X105839414Y-125358072D01*
X105716928Y-125235586D01*
X105576788Y-125133768D01*
X105576787Y-125133767D01*
X105576785Y-125133766D01*
X105422441Y-125055125D01*
X105422438Y-125055123D01*
X105257706Y-125001598D01*
X105257702Y-125001597D01*
X105086614Y-124974500D01*
X105086611Y-124974500D01*
X104913389Y-124974500D01*
X104913386Y-124974500D01*
X104742297Y-125001597D01*
X104742293Y-125001598D01*
X104577561Y-125055123D01*
X104577558Y-125055125D01*
X104423214Y-125133766D01*
X104283073Y-125235585D01*
X104160585Y-125358073D01*
X104058766Y-125498214D01*
X103980125Y-125652558D01*
X103980123Y-125652561D01*
X103926598Y-125817293D01*
X103926597Y-125817297D01*
X103899500Y-125988385D01*
X100500500Y-125988385D01*
X100500500Y-112238385D01*
X103899500Y-112238385D01*
X103899500Y-112711614D01*
X103926597Y-112882702D01*
X103926598Y-112882706D01*
X103980123Y-113047438D01*
X103980125Y-113047441D01*
X103980126Y-113047444D01*
X103980127Y-113047445D01*
X104058768Y-113201788D01*
X104160586Y-113341928D01*
X104283072Y-113464414D01*
X104423212Y-113566232D01*
X104577555Y-113644873D01*
X104577557Y-113644873D01*
X104577558Y-113644874D01*
X104577561Y-113644876D01*
X104611323Y-113655846D01*
X104660823Y-113691810D01*
X104679730Y-113750001D01*
X104660822Y-113808191D01*
X104611323Y-113844154D01*
X104577561Y-113855123D01*
X104577558Y-113855125D01*
X104423214Y-113933766D01*
X104283073Y-114035585D01*
X104160585Y-114158073D01*
X104058766Y-114298214D01*
X103980125Y-114452558D01*
X103980123Y-114452561D01*
X103926598Y-114617293D01*
X103926597Y-114617297D01*
X103899500Y-114788385D01*
X103899500Y-115261614D01*
X103926597Y-115432702D01*
X103926598Y-115432706D01*
X103980123Y-115597438D01*
X103980125Y-115597441D01*
X103980126Y-115597444D01*
X103980127Y-115597445D01*
X104058768Y-115751788D01*
X104160586Y-115891928D01*
X104283072Y-116014414D01*
X104423212Y-116116232D01*
X104577555Y-116194873D01*
X104577557Y-116194873D01*
X104577558Y-116194874D01*
X104577561Y-116194876D01*
X104742293Y-116248401D01*
X104742297Y-116248402D01*
X104913386Y-116275500D01*
X104913389Y-116275500D01*
X105086614Y-116275500D01*
X105257702Y-116248402D01*
X105257706Y-116248401D01*
X105422438Y-116194876D01*
X105422440Y-116194874D01*
X105422445Y-116194873D01*
X105576788Y-116116232D01*
X105716928Y-116014414D01*
X105839414Y-115891928D01*
X105941232Y-115751788D01*
X106019873Y-115597445D01*
X106019874Y-115597440D01*
X106019876Y-115597438D01*
X106073401Y-115432706D01*
X106073402Y-115432702D01*
X106100500Y-115261614D01*
X106100500Y-114788385D01*
X106073402Y-114617297D01*
X106073401Y-114617293D01*
X106019876Y-114452561D01*
X106019874Y-114452558D01*
X106019873Y-114452557D01*
X106019873Y-114452555D01*
X105941232Y-114298212D01*
X105839414Y-114158072D01*
X105716928Y-114035586D01*
X105576788Y-113933768D01*
X105576787Y-113933767D01*
X105576785Y-113933766D01*
X105422443Y-113855126D01*
X105388677Y-113844155D01*
X105339176Y-113808191D01*
X105320269Y-113750000D01*
X105339176Y-113691809D01*
X105388675Y-113655845D01*
X105422445Y-113644873D01*
X105576788Y-113566232D01*
X105716928Y-113464414D01*
X105839414Y-113341928D01*
X105941232Y-113201788D01*
X106019873Y-113047445D01*
X106019874Y-113047440D01*
X106019876Y-113047438D01*
X106073401Y-112882706D01*
X106073402Y-112882702D01*
X106100500Y-112711614D01*
X106100500Y-112238385D01*
X106073402Y-112067297D01*
X106073401Y-112067293D01*
X106019876Y-111902561D01*
X106019874Y-111902558D01*
X106019873Y-111902557D01*
X106019873Y-111902555D01*
X105941232Y-111748212D01*
X105839414Y-111608072D01*
X105716928Y-111485586D01*
X105576788Y-111383768D01*
X105576787Y-111383767D01*
X105576785Y-111383766D01*
X105422441Y-111305125D01*
X105422438Y-111305123D01*
X105257706Y-111251598D01*
X105257702Y-111251597D01*
X105086614Y-111224500D01*
X105086611Y-111224500D01*
X104913389Y-111224500D01*
X104913386Y-111224500D01*
X104742297Y-111251597D01*
X104742293Y-111251598D01*
X104577561Y-111305123D01*
X104577558Y-111305125D01*
X104423214Y-111383766D01*
X104283073Y-111485585D01*
X104160585Y-111608073D01*
X104058766Y-111748214D01*
X103980125Y-111902558D01*
X103980123Y-111902561D01*
X103926598Y-112067293D01*
X103926597Y-112067297D01*
X103899500Y-112238385D01*
X100500500Y-112238385D01*
X100500500Y-109315691D01*
X110049500Y-109315691D01*
X110049500Y-205565691D01*
X110049500Y-205684309D01*
X110057870Y-205715546D01*
X110080202Y-205798890D01*
X110139507Y-205901608D01*
X110139509Y-205901610D01*
X110139511Y-205901613D01*
X110223387Y-205985489D01*
X110223389Y-205985490D01*
X110223391Y-205985492D01*
X110326110Y-206044797D01*
X110326111Y-206044797D01*
X110326114Y-206044799D01*
X110440691Y-206075500D01*
X111377637Y-206075500D01*
X111435828Y-206094407D01*
X111465845Y-206129553D01*
X111516004Y-206227994D01*
X111622447Y-206374501D01*
X111750499Y-206502553D01*
X111897006Y-206608996D01*
X112058361Y-206691211D01*
X112230591Y-206747171D01*
X112302136Y-206758502D01*
X112409451Y-206775500D01*
X112409454Y-206775500D01*
X112590549Y-206775500D01*
X112679977Y-206761335D01*
X112769409Y-206747171D01*
X112941639Y-206691211D01*
X113102994Y-206608996D01*
X113249501Y-206502553D01*
X113377553Y-206374501D01*
X113483996Y-206227994D01*
X113566211Y-206066639D01*
X113622171Y-205894409D01*
X113650500Y-205715546D01*
X113650500Y-205534454D01*
X113650500Y-205534450D01*
X113622171Y-205355593D01*
X113622171Y-205355591D01*
X113566211Y-205183361D01*
X113483996Y-205022006D01*
X113377553Y-204875499D01*
X113249501Y-204747447D01*
X113102994Y-204641004D01*
X113102993Y-204641003D01*
X113102991Y-204641002D01*
X112941637Y-204558788D01*
X112769406Y-204502828D01*
X112590549Y-204474500D01*
X112590546Y-204474500D01*
X112409454Y-204474500D01*
X112409451Y-204474500D01*
X112230593Y-204502828D01*
X112058362Y-204558788D01*
X111897008Y-204641002D01*
X111823752Y-204694225D01*
X111750499Y-204747447D01*
X111622447Y-204875499D01*
X111569225Y-204948752D01*
X111516002Y-205022008D01*
X111488747Y-205075500D01*
X111473160Y-205106093D01*
X111465847Y-205120445D01*
X111422582Y-205163710D01*
X111377637Y-205174500D01*
X111049500Y-205174500D01*
X110991309Y-205155593D01*
X110955345Y-205106093D01*
X110950500Y-205075500D01*
X110950500Y-203034450D01*
X111349500Y-203034450D01*
X111349500Y-203215549D01*
X111377828Y-203394406D01*
X111377829Y-203394409D01*
X111433789Y-203566639D01*
X111516004Y-203727994D01*
X111622447Y-203874501D01*
X111750499Y-204002553D01*
X111897006Y-204108996D01*
X112058361Y-204191211D01*
X112230591Y-204247171D01*
X112302136Y-204258502D01*
X112409451Y-204275500D01*
X112409454Y-204275500D01*
X112590549Y-204275500D01*
X112679977Y-204261335D01*
X112769409Y-204247171D01*
X112941639Y-204191211D01*
X113102994Y-204108996D01*
X113249501Y-204002553D01*
X113377553Y-203874501D01*
X113483996Y-203727994D01*
X113566211Y-203566639D01*
X113622171Y-203394409D01*
X113650500Y-203215546D01*
X113650500Y-203034454D01*
X113650500Y-203034450D01*
X113622171Y-202855593D01*
X113622171Y-202855591D01*
X113566211Y-202683361D01*
X113483996Y-202522006D01*
X113377553Y-202375499D01*
X113249501Y-202247447D01*
X113102994Y-202141004D01*
X113102993Y-202141003D01*
X113102991Y-202141002D01*
X112941637Y-202058788D01*
X112769406Y-202002828D01*
X112590549Y-201974500D01*
X112590546Y-201974500D01*
X112409454Y-201974500D01*
X112409451Y-201974500D01*
X112230593Y-202002828D01*
X112058362Y-202058788D01*
X111897008Y-202141002D01*
X111823752Y-202194225D01*
X111750499Y-202247447D01*
X111622447Y-202375499D01*
X111569225Y-202448752D01*
X111516002Y-202522008D01*
X111433788Y-202683362D01*
X111377828Y-202855593D01*
X111349500Y-203034450D01*
X110950500Y-203034450D01*
X110950500Y-192424500D01*
X110969407Y-192366309D01*
X111018907Y-192330345D01*
X111049500Y-192325500D01*
X111377637Y-192325500D01*
X111435828Y-192344407D01*
X111465845Y-192379553D01*
X111516004Y-192477994D01*
X111622447Y-192624501D01*
X111750499Y-192752553D01*
X111897006Y-192858996D01*
X112058361Y-192941211D01*
X112230591Y-192997171D01*
X112302136Y-193008502D01*
X112409451Y-193025500D01*
X112409454Y-193025500D01*
X112590549Y-193025500D01*
X112679977Y-193011335D01*
X112769409Y-192997171D01*
X112941639Y-192941211D01*
X113102994Y-192858996D01*
X113249501Y-192752553D01*
X113377553Y-192624501D01*
X113483996Y-192477994D01*
X113566211Y-192316639D01*
X113622171Y-192144409D01*
X113650500Y-191965546D01*
X113650500Y-191784454D01*
X113650500Y-191784450D01*
X113622171Y-191605593D01*
X113622171Y-191605591D01*
X113566211Y-191433361D01*
X113483996Y-191272006D01*
X113377553Y-191125499D01*
X113249501Y-190997447D01*
X113102994Y-190891004D01*
X113102993Y-190891003D01*
X113102991Y-190891002D01*
X112941637Y-190808788D01*
X112769406Y-190752828D01*
X112590549Y-190724500D01*
X112590546Y-190724500D01*
X112409454Y-190724500D01*
X112409451Y-190724500D01*
X112230593Y-190752828D01*
X112058362Y-190808788D01*
X111897008Y-190891002D01*
X111823752Y-190944225D01*
X111750499Y-190997447D01*
X111622447Y-191125499D01*
X111569225Y-191198752D01*
X111516002Y-191272008D01*
X111488747Y-191325500D01*
X111473160Y-191356093D01*
X111465847Y-191370445D01*
X111422582Y-191413710D01*
X111377637Y-191424500D01*
X111049500Y-191424500D01*
X110991309Y-191405593D01*
X110955345Y-191356093D01*
X110950500Y-191325500D01*
X110950500Y-189284450D01*
X111349500Y-189284450D01*
X111349500Y-189465549D01*
X111377828Y-189644406D01*
X111377829Y-189644409D01*
X111433789Y-189816639D01*
X111516004Y-189977994D01*
X111622447Y-190124501D01*
X111750499Y-190252553D01*
X111897006Y-190358996D01*
X112058361Y-190441211D01*
X112230591Y-190497171D01*
X112302136Y-190508502D01*
X112409451Y-190525500D01*
X112409454Y-190525500D01*
X112590549Y-190525500D01*
X112679977Y-190511335D01*
X112769409Y-190497171D01*
X112941639Y-190441211D01*
X113102994Y-190358996D01*
X113249501Y-190252553D01*
X113377553Y-190124501D01*
X113483996Y-189977994D01*
X113566211Y-189816639D01*
X113622171Y-189644409D01*
X113650500Y-189465546D01*
X113650500Y-189284454D01*
X113650500Y-189284450D01*
X113622171Y-189105593D01*
X113622171Y-189105591D01*
X113566211Y-188933361D01*
X113483996Y-188772006D01*
X113377553Y-188625499D01*
X113249501Y-188497447D01*
X113102994Y-188391004D01*
X113102993Y-188391003D01*
X113102991Y-188391002D01*
X112941637Y-188308788D01*
X112769406Y-188252828D01*
X112590549Y-188224500D01*
X112590546Y-188224500D01*
X112409454Y-188224500D01*
X112409451Y-188224500D01*
X112230593Y-188252828D01*
X112058362Y-188308788D01*
X111897008Y-188391002D01*
X111823752Y-188444225D01*
X111750499Y-188497447D01*
X111622447Y-188625499D01*
X111569225Y-188698752D01*
X111516002Y-188772008D01*
X111433788Y-188933362D01*
X111377828Y-189105593D01*
X111349500Y-189284450D01*
X110950500Y-189284450D01*
X110950500Y-178674500D01*
X110969407Y-178616309D01*
X111018907Y-178580345D01*
X111049500Y-178575500D01*
X111377637Y-178575500D01*
X111435828Y-178594407D01*
X111465845Y-178629553D01*
X111516004Y-178727994D01*
X111622447Y-178874501D01*
X111750499Y-179002553D01*
X111897006Y-179108996D01*
X112058361Y-179191211D01*
X112230591Y-179247171D01*
X112302136Y-179258502D01*
X112409451Y-179275500D01*
X112409454Y-179275500D01*
X112590549Y-179275500D01*
X112679977Y-179261335D01*
X112769409Y-179247171D01*
X112941639Y-179191211D01*
X113102994Y-179108996D01*
X113249501Y-179002553D01*
X113377553Y-178874501D01*
X113483996Y-178727994D01*
X113566211Y-178566639D01*
X113622171Y-178394409D01*
X113650500Y-178215546D01*
X113650500Y-178034454D01*
X113650500Y-178034450D01*
X113622171Y-177855593D01*
X113622171Y-177855591D01*
X113566211Y-177683361D01*
X113483996Y-177522006D01*
X113377553Y-177375499D01*
X113249501Y-177247447D01*
X113102994Y-177141004D01*
X113102993Y-177141003D01*
X113102991Y-177141002D01*
X112941637Y-177058788D01*
X112769406Y-177002828D01*
X112590549Y-176974500D01*
X112590546Y-176974500D01*
X112409454Y-176974500D01*
X112409451Y-176974500D01*
X112230593Y-177002828D01*
X112058362Y-177058788D01*
X111897008Y-177141002D01*
X111823752Y-177194225D01*
X111750499Y-177247447D01*
X111622447Y-177375499D01*
X111569225Y-177448752D01*
X111516002Y-177522008D01*
X111488747Y-177575500D01*
X111473160Y-177606093D01*
X111465847Y-177620445D01*
X111422582Y-177663710D01*
X111377637Y-177674500D01*
X111049500Y-177674500D01*
X110991309Y-177655593D01*
X110955345Y-177606093D01*
X110950500Y-177575500D01*
X110950500Y-175534450D01*
X111349500Y-175534450D01*
X111349500Y-175715549D01*
X111377828Y-175894406D01*
X111377829Y-175894409D01*
X111433789Y-176066639D01*
X111516004Y-176227994D01*
X111622447Y-176374501D01*
X111750499Y-176502553D01*
X111897006Y-176608996D01*
X112058361Y-176691211D01*
X112230591Y-176747171D01*
X112302136Y-176758502D01*
X112409451Y-176775500D01*
X112409454Y-176775500D01*
X112590549Y-176775500D01*
X112679977Y-176761335D01*
X112769409Y-176747171D01*
X112941639Y-176691211D01*
X113102994Y-176608996D01*
X113249501Y-176502553D01*
X113377553Y-176374501D01*
X113483996Y-176227994D01*
X113566211Y-176066639D01*
X113622171Y-175894409D01*
X113650500Y-175715546D01*
X113650500Y-175534454D01*
X113650500Y-175534450D01*
X113622171Y-175355593D01*
X113622171Y-175355591D01*
X113566211Y-175183361D01*
X113483996Y-175022006D01*
X113377553Y-174875499D01*
X113249501Y-174747447D01*
X113102994Y-174641004D01*
X113102993Y-174641003D01*
X113102991Y-174641002D01*
X112941637Y-174558788D01*
X112769406Y-174502828D01*
X112590549Y-174474500D01*
X112590546Y-174474500D01*
X112409454Y-174474500D01*
X112409451Y-174474500D01*
X112230593Y-174502828D01*
X112058362Y-174558788D01*
X111897008Y-174641002D01*
X111823752Y-174694225D01*
X111750499Y-174747447D01*
X111622447Y-174875499D01*
X111569225Y-174948752D01*
X111516002Y-175022008D01*
X111433788Y-175183362D01*
X111377828Y-175355593D01*
X111349500Y-175534450D01*
X110950500Y-175534450D01*
X110950500Y-165779500D01*
X110969407Y-165721309D01*
X111018907Y-165685345D01*
X111049500Y-165680500D01*
X115072389Y-165680500D01*
X115130580Y-165699407D01*
X115142393Y-165709496D01*
X115387817Y-165954920D01*
X115415594Y-166009437D01*
X115411968Y-166055515D01*
X115377829Y-166160587D01*
X115377827Y-166160598D01*
X115349500Y-166339450D01*
X115349500Y-166520549D01*
X115377828Y-166699406D01*
X115377829Y-166699409D01*
X115433789Y-166871639D01*
X115516004Y-167032994D01*
X115622447Y-167179501D01*
X115750499Y-167307553D01*
X115897006Y-167413996D01*
X116058361Y-167496211D01*
X116230591Y-167552171D01*
X116302136Y-167563502D01*
X116409451Y-167580500D01*
X116409454Y-167580500D01*
X116590549Y-167580500D01*
X116679977Y-167566335D01*
X116769409Y-167552171D01*
X116941639Y-167496211D01*
X117102994Y-167413996D01*
X117249501Y-167307553D01*
X117377553Y-167179501D01*
X117483996Y-167032994D01*
X117566211Y-166871639D01*
X117622171Y-166699409D01*
X117650500Y-166520546D01*
X117650500Y-166339454D01*
X117650500Y-166339450D01*
X117622171Y-166160593D01*
X117622171Y-166160591D01*
X117566211Y-165988361D01*
X117483996Y-165827006D01*
X117377553Y-165680499D01*
X117249501Y-165552447D01*
X117102994Y-165446004D01*
X117102993Y-165446003D01*
X117102991Y-165446002D01*
X116941637Y-165363788D01*
X116769406Y-165307828D01*
X116590549Y-165279500D01*
X116590546Y-165279500D01*
X116409454Y-165279500D01*
X116409451Y-165279500D01*
X116230598Y-165307827D01*
X116230587Y-165307829D01*
X116125515Y-165341968D01*
X116064330Y-165341967D01*
X116024921Y-165317817D01*
X115632275Y-164925172D01*
X115576614Y-164869511D01*
X115568011Y-164864544D01*
X115568008Y-164864541D01*
X115473890Y-164810202D01*
X115473886Y-164810200D01*
X115449673Y-164803712D01*
X115449673Y-164803713D01*
X115359309Y-164779500D01*
X115359307Y-164779500D01*
X113714539Y-164779500D01*
X113656348Y-164760593D01*
X113620384Y-164711093D01*
X113620384Y-164649908D01*
X113622171Y-164644409D01*
X113646153Y-164492994D01*
X113650500Y-164465549D01*
X113650500Y-164284450D01*
X113622171Y-164105593D01*
X113622171Y-164105591D01*
X113566211Y-163933361D01*
X113497980Y-163799450D01*
X115349500Y-163799450D01*
X115349500Y-163980549D01*
X115377828Y-164159406D01*
X115418456Y-164284450D01*
X115433789Y-164331639D01*
X115516004Y-164492994D01*
X115622447Y-164639501D01*
X115750499Y-164767553D01*
X115897006Y-164873996D01*
X116058361Y-164956211D01*
X116230591Y-165012171D01*
X116302136Y-165023502D01*
X116409451Y-165040500D01*
X116409454Y-165040500D01*
X116590549Y-165040500D01*
X116679977Y-165026335D01*
X116769409Y-165012171D01*
X116941639Y-164956211D01*
X117102994Y-164873996D01*
X117249501Y-164767553D01*
X117377553Y-164639501D01*
X117483996Y-164492994D01*
X117566211Y-164331639D01*
X117622171Y-164159409D01*
X117650500Y-163980546D01*
X117650500Y-163799454D01*
X117650500Y-163799450D01*
X117622171Y-163620593D01*
X117622171Y-163620591D01*
X117566211Y-163448361D01*
X117483996Y-163287006D01*
X117377553Y-163140499D01*
X117249501Y-163012447D01*
X117102994Y-162906004D01*
X117102993Y-162906003D01*
X117102991Y-162906002D01*
X116941637Y-162823788D01*
X116769406Y-162767828D01*
X116590549Y-162739500D01*
X116590546Y-162739500D01*
X116409454Y-162739500D01*
X116409451Y-162739500D01*
X116230593Y-162767828D01*
X116058362Y-162823788D01*
X115897008Y-162906002D01*
X115848547Y-162941211D01*
X115750499Y-163012447D01*
X115622447Y-163140499D01*
X115569225Y-163213752D01*
X115516002Y-163287008D01*
X115433788Y-163448362D01*
X115377828Y-163620593D01*
X115349500Y-163799450D01*
X113497980Y-163799450D01*
X113483996Y-163772006D01*
X113377553Y-163625499D01*
X113249501Y-163497447D01*
X113102994Y-163391004D01*
X113102993Y-163391003D01*
X113102991Y-163391002D01*
X112941637Y-163308788D01*
X112769406Y-163252828D01*
X112590549Y-163224500D01*
X112590546Y-163224500D01*
X112409454Y-163224500D01*
X112409451Y-163224500D01*
X112230593Y-163252828D01*
X112058362Y-163308788D01*
X111897008Y-163391002D01*
X111823752Y-163444225D01*
X111750499Y-163497447D01*
X111622447Y-163625499D01*
X111569225Y-163698752D01*
X111516002Y-163772008D01*
X111502018Y-163799454D01*
X111473160Y-163856093D01*
X111465847Y-163870445D01*
X111422582Y-163913710D01*
X111377637Y-163924500D01*
X111049500Y-163924500D01*
X110991309Y-163905593D01*
X110955345Y-163856093D01*
X110950500Y-163825500D01*
X110950500Y-161784450D01*
X111349500Y-161784450D01*
X111349500Y-161965549D01*
X111377828Y-162144406D01*
X111404843Y-162227553D01*
X111433789Y-162316639D01*
X111516004Y-162477994D01*
X111622447Y-162624501D01*
X111750499Y-162752553D01*
X111897006Y-162858996D01*
X112058361Y-162941211D01*
X112230591Y-162997171D01*
X112302136Y-163008502D01*
X112409451Y-163025500D01*
X112409454Y-163025500D01*
X112590549Y-163025500D01*
X112679977Y-163011335D01*
X112769409Y-162997171D01*
X112941639Y-162941211D01*
X113102994Y-162858996D01*
X113249501Y-162752553D01*
X113377553Y-162624501D01*
X113483996Y-162477994D01*
X113566211Y-162316639D01*
X113622171Y-162144409D01*
X113650500Y-161965546D01*
X113650500Y-161784454D01*
X113650500Y-161784450D01*
X113631614Y-161665212D01*
X113622171Y-161605591D01*
X113566211Y-161433361D01*
X113483996Y-161272006D01*
X113474874Y-161259450D01*
X115349500Y-161259450D01*
X115349500Y-161440549D01*
X115377828Y-161619406D01*
X115377829Y-161619409D01*
X115433789Y-161791639D01*
X115516004Y-161952994D01*
X115622447Y-162099501D01*
X115750499Y-162227553D01*
X115897006Y-162333996D01*
X116058361Y-162416211D01*
X116230591Y-162472171D01*
X116302136Y-162483502D01*
X116409451Y-162500500D01*
X116409454Y-162500500D01*
X116590549Y-162500500D01*
X116679977Y-162486335D01*
X116769409Y-162472171D01*
X116941639Y-162416211D01*
X117102994Y-162333996D01*
X117249501Y-162227553D01*
X117377553Y-162099501D01*
X117483996Y-161952994D01*
X117566211Y-161791639D01*
X117622171Y-161619409D01*
X117650500Y-161440546D01*
X117650500Y-161259454D01*
X117650500Y-161259450D01*
X117622171Y-161080593D01*
X117622171Y-161080591D01*
X117566211Y-160908361D01*
X117483996Y-160747006D01*
X117377553Y-160600499D01*
X117249501Y-160472447D01*
X117102994Y-160366004D01*
X117102993Y-160366003D01*
X117102991Y-160366002D01*
X116941637Y-160283788D01*
X116769406Y-160227828D01*
X116590549Y-160199500D01*
X116590546Y-160199500D01*
X116409454Y-160199500D01*
X116409451Y-160199500D01*
X116230593Y-160227828D01*
X116058362Y-160283788D01*
X115897008Y-160366002D01*
X115823752Y-160419225D01*
X115750499Y-160472447D01*
X115622447Y-160600499D01*
X115569225Y-160673752D01*
X115516002Y-160747008D01*
X115433788Y-160908362D01*
X115377828Y-161080593D01*
X115349500Y-161259450D01*
X113474874Y-161259450D01*
X113377553Y-161125499D01*
X113249501Y-160997447D01*
X113102994Y-160891004D01*
X113102993Y-160891003D01*
X113102991Y-160891002D01*
X112941637Y-160808788D01*
X112769406Y-160752828D01*
X112590549Y-160724500D01*
X112590546Y-160724500D01*
X112409454Y-160724500D01*
X112409451Y-160724500D01*
X112230593Y-160752828D01*
X112058362Y-160808788D01*
X111897008Y-160891002D01*
X111823752Y-160944225D01*
X111750499Y-160997447D01*
X111622447Y-161125499D01*
X111569225Y-161198752D01*
X111516002Y-161272008D01*
X111433788Y-161433362D01*
X111377828Y-161605593D01*
X111349500Y-161784450D01*
X110950500Y-161784450D01*
X110950500Y-158719450D01*
X115349500Y-158719450D01*
X115349500Y-158900549D01*
X115377828Y-159079406D01*
X115377829Y-159079409D01*
X115433789Y-159251639D01*
X115516004Y-159412994D01*
X115622447Y-159559501D01*
X115750499Y-159687553D01*
X115897006Y-159793996D01*
X116058361Y-159876211D01*
X116230591Y-159932171D01*
X116302136Y-159943502D01*
X116409451Y-159960500D01*
X116409454Y-159960500D01*
X116590549Y-159960500D01*
X116679977Y-159946335D01*
X116769409Y-159932171D01*
X116941639Y-159876211D01*
X117102994Y-159793996D01*
X117249501Y-159687553D01*
X117377553Y-159559501D01*
X117483996Y-159412994D01*
X117566211Y-159251639D01*
X117622171Y-159079409D01*
X117650500Y-158900546D01*
X117650500Y-158719454D01*
X117650500Y-158719450D01*
X117622171Y-158540593D01*
X117622171Y-158540591D01*
X117566211Y-158368361D01*
X117483996Y-158207006D01*
X117377553Y-158060499D01*
X117249501Y-157932447D01*
X117102994Y-157826004D01*
X117102993Y-157826003D01*
X117102991Y-157826002D01*
X116941637Y-157743788D01*
X116769406Y-157687828D01*
X116590549Y-157659500D01*
X116590546Y-157659500D01*
X116409454Y-157659500D01*
X116409451Y-157659500D01*
X116230593Y-157687828D01*
X116058362Y-157743788D01*
X115897008Y-157826002D01*
X115823752Y-157879225D01*
X115750499Y-157932447D01*
X115622447Y-158060499D01*
X115569225Y-158133752D01*
X115516002Y-158207008D01*
X115433788Y-158368362D01*
X115377828Y-158540593D01*
X115349500Y-158719450D01*
X110950500Y-158719450D01*
X110950500Y-156179450D01*
X115349500Y-156179450D01*
X115349500Y-156360549D01*
X115377828Y-156539406D01*
X115424386Y-156682701D01*
X115433789Y-156711639D01*
X115516004Y-156872994D01*
X115622447Y-157019501D01*
X115750499Y-157147553D01*
X115897006Y-157253996D01*
X116058361Y-157336211D01*
X116230591Y-157392171D01*
X116302136Y-157403502D01*
X116409451Y-157420500D01*
X116409454Y-157420500D01*
X116590549Y-157420500D01*
X116679977Y-157406335D01*
X116769409Y-157392171D01*
X116941639Y-157336211D01*
X117102994Y-157253996D01*
X117249501Y-157147553D01*
X117377553Y-157019501D01*
X117483996Y-156872994D01*
X117566211Y-156711639D01*
X117622171Y-156539409D01*
X117650500Y-156360546D01*
X117650500Y-156179454D01*
X117650500Y-156179450D01*
X117631614Y-156060212D01*
X117622171Y-156000591D01*
X117566211Y-155828361D01*
X117483996Y-155667006D01*
X117377553Y-155520499D01*
X117249501Y-155392447D01*
X117102994Y-155286004D01*
X117102993Y-155286003D01*
X117102991Y-155286002D01*
X116941637Y-155203788D01*
X116769406Y-155147828D01*
X116590549Y-155119500D01*
X116590546Y-155119500D01*
X116409454Y-155119500D01*
X116409451Y-155119500D01*
X116230593Y-155147828D01*
X116058362Y-155203788D01*
X115897008Y-155286002D01*
X115823752Y-155339225D01*
X115750499Y-155392447D01*
X115622447Y-155520499D01*
X115602311Y-155548214D01*
X115516002Y-155667008D01*
X115433788Y-155828362D01*
X115377828Y-156000593D01*
X115349500Y-156179450D01*
X110950500Y-156179450D01*
X110950500Y-153639450D01*
X115349500Y-153639450D01*
X115349500Y-153820549D01*
X115377828Y-153999406D01*
X115433788Y-154171637D01*
X115497890Y-154297445D01*
X115516004Y-154332994D01*
X115622447Y-154479501D01*
X115750499Y-154607553D01*
X115897006Y-154713996D01*
X116058361Y-154796211D01*
X116230591Y-154852171D01*
X116302136Y-154863502D01*
X116409451Y-154880500D01*
X116409454Y-154880500D01*
X116590549Y-154880500D01*
X116679977Y-154866335D01*
X116769409Y-154852171D01*
X116941639Y-154796211D01*
X117102994Y-154713996D01*
X117249501Y-154607553D01*
X117377553Y-154479501D01*
X117483996Y-154332994D01*
X117566211Y-154171639D01*
X117622171Y-153999409D01*
X117650500Y-153820546D01*
X117650500Y-153639454D01*
X117650500Y-153639450D01*
X117622171Y-153460593D01*
X117622171Y-153460591D01*
X117566211Y-153288361D01*
X117483996Y-153127006D01*
X117377553Y-152980499D01*
X117249501Y-152852447D01*
X117102994Y-152746004D01*
X117102993Y-152746003D01*
X117102991Y-152746002D01*
X116941637Y-152663788D01*
X116769406Y-152607828D01*
X116590549Y-152579500D01*
X116590546Y-152579500D01*
X116409454Y-152579500D01*
X116409451Y-152579500D01*
X116230593Y-152607828D01*
X116058362Y-152663788D01*
X115897008Y-152746002D01*
X115823752Y-152799225D01*
X115750499Y-152852447D01*
X115622447Y-152980499D01*
X115569225Y-153053752D01*
X115516002Y-153127008D01*
X115433788Y-153288362D01*
X115377828Y-153460593D01*
X115349500Y-153639450D01*
X110950500Y-153639450D01*
X110950500Y-151174500D01*
X110969407Y-151116309D01*
X111018907Y-151080345D01*
X111049500Y-151075500D01*
X111377637Y-151075500D01*
X111435828Y-151094407D01*
X111465845Y-151129553D01*
X111516004Y-151227994D01*
X111622447Y-151374501D01*
X111750499Y-151502553D01*
X111897006Y-151608996D01*
X112058361Y-151691211D01*
X112230591Y-151747171D01*
X112302136Y-151758502D01*
X112409451Y-151775500D01*
X112409454Y-151775500D01*
X112590549Y-151775500D01*
X112679977Y-151761335D01*
X112769409Y-151747171D01*
X112941639Y-151691211D01*
X113102994Y-151608996D01*
X113249501Y-151502553D01*
X113377553Y-151374501D01*
X113483996Y-151227994D01*
X113549493Y-151099450D01*
X115349500Y-151099450D01*
X115349500Y-151280549D01*
X115377828Y-151459406D01*
X115433788Y-151631637D01*
X115464142Y-151691211D01*
X115516004Y-151792994D01*
X115622447Y-151939501D01*
X115750499Y-152067553D01*
X115897006Y-152173996D01*
X116058361Y-152256211D01*
X116230591Y-152312171D01*
X116302136Y-152323502D01*
X116409451Y-152340500D01*
X116409454Y-152340500D01*
X116590549Y-152340500D01*
X116679977Y-152326335D01*
X116769409Y-152312171D01*
X116941639Y-152256211D01*
X117102994Y-152173996D01*
X117249501Y-152067553D01*
X117377553Y-151939501D01*
X117483996Y-151792994D01*
X117566211Y-151631639D01*
X117622171Y-151459409D01*
X117650500Y-151280546D01*
X117650500Y-151099454D01*
X117650500Y-151099450D01*
X117622171Y-150920593D01*
X117622171Y-150920591D01*
X117566211Y-150748361D01*
X117483996Y-150587006D01*
X117377553Y-150440499D01*
X117249501Y-150312447D01*
X117102994Y-150206004D01*
X117102993Y-150206003D01*
X117102991Y-150206002D01*
X116941637Y-150123788D01*
X116769406Y-150067828D01*
X116590549Y-150039500D01*
X116590546Y-150039500D01*
X116409454Y-150039500D01*
X116409451Y-150039500D01*
X116230593Y-150067828D01*
X116058362Y-150123788D01*
X115897008Y-150206002D01*
X115823752Y-150259225D01*
X115750499Y-150312447D01*
X115622447Y-150440499D01*
X115569225Y-150513752D01*
X115516002Y-150587008D01*
X115433788Y-150748362D01*
X115377828Y-150920593D01*
X115349500Y-151099450D01*
X113549493Y-151099450D01*
X113566211Y-151066639D01*
X113622171Y-150894409D01*
X113636335Y-150804977D01*
X113650500Y-150715549D01*
X113650500Y-150534450D01*
X113622171Y-150355593D01*
X113622171Y-150355591D01*
X113566211Y-150183361D01*
X113483996Y-150022006D01*
X113377553Y-149875499D01*
X113249501Y-149747447D01*
X113102994Y-149641004D01*
X113102993Y-149641003D01*
X113102991Y-149641002D01*
X112941637Y-149558788D01*
X112769406Y-149502828D01*
X112590549Y-149474500D01*
X112590546Y-149474500D01*
X112409454Y-149474500D01*
X112409451Y-149474500D01*
X112230593Y-149502828D01*
X112058362Y-149558788D01*
X111897008Y-149641002D01*
X111823752Y-149694225D01*
X111750499Y-149747447D01*
X111622447Y-149875499D01*
X111569225Y-149948752D01*
X111516002Y-150022008D01*
X111507090Y-150039500D01*
X111473160Y-150106093D01*
X111465847Y-150120445D01*
X111422582Y-150163710D01*
X111377637Y-150174500D01*
X111049500Y-150174500D01*
X110991309Y-150155593D01*
X110955345Y-150106093D01*
X110950500Y-150075500D01*
X110950500Y-148034450D01*
X111349500Y-148034450D01*
X111349500Y-148215549D01*
X111377828Y-148394406D01*
X111377829Y-148394409D01*
X111433789Y-148566639D01*
X111516004Y-148727994D01*
X111622447Y-148874501D01*
X111750499Y-149002553D01*
X111897006Y-149108996D01*
X112058361Y-149191211D01*
X112230591Y-149247171D01*
X112302136Y-149258502D01*
X112409451Y-149275500D01*
X112409454Y-149275500D01*
X112590549Y-149275500D01*
X112679977Y-149261335D01*
X112769409Y-149247171D01*
X112941639Y-149191211D01*
X113102994Y-149108996D01*
X113249501Y-149002553D01*
X113377553Y-148874501D01*
X113483996Y-148727994D01*
X113566211Y-148566639D01*
X113568547Y-148559450D01*
X115349500Y-148559450D01*
X115349500Y-148740549D01*
X115377828Y-148919406D01*
X115404843Y-149002553D01*
X115433789Y-149091639D01*
X115516004Y-149252994D01*
X115622447Y-149399501D01*
X115750499Y-149527553D01*
X115897006Y-149633996D01*
X116058361Y-149716211D01*
X116230591Y-149772171D01*
X116302136Y-149783502D01*
X116409451Y-149800500D01*
X116409454Y-149800500D01*
X116590549Y-149800500D01*
X116679977Y-149786335D01*
X116769409Y-149772171D01*
X116941639Y-149716211D01*
X117102994Y-149633996D01*
X117249501Y-149527553D01*
X117377553Y-149399501D01*
X117483996Y-149252994D01*
X117566211Y-149091639D01*
X117622171Y-148919409D01*
X117650500Y-148740546D01*
X117650500Y-148559454D01*
X117650500Y-148559450D01*
X117631614Y-148440212D01*
X117622171Y-148380591D01*
X117566211Y-148208361D01*
X117483996Y-148047006D01*
X117377553Y-147900499D01*
X117249501Y-147772447D01*
X117102994Y-147666004D01*
X117102993Y-147666003D01*
X117102991Y-147666002D01*
X116941637Y-147583788D01*
X116769406Y-147527828D01*
X116590549Y-147499500D01*
X116590546Y-147499500D01*
X116409454Y-147499500D01*
X116409451Y-147499500D01*
X116230593Y-147527828D01*
X116058362Y-147583788D01*
X115897008Y-147666002D01*
X115823752Y-147719225D01*
X115750499Y-147772447D01*
X115622447Y-147900499D01*
X115569225Y-147973752D01*
X115516002Y-148047008D01*
X115433788Y-148208362D01*
X115377828Y-148380593D01*
X115349500Y-148559450D01*
X113568547Y-148559450D01*
X113622171Y-148394409D01*
X113650500Y-148215546D01*
X113650500Y-148034454D01*
X113650500Y-148034450D01*
X113622171Y-147855593D01*
X113622171Y-147855591D01*
X113566211Y-147683361D01*
X113483996Y-147522006D01*
X113377553Y-147375499D01*
X113249501Y-147247447D01*
X113102994Y-147141004D01*
X113102993Y-147141003D01*
X113102991Y-147141002D01*
X112941637Y-147058788D01*
X112769406Y-147002828D01*
X112590549Y-146974500D01*
X112590546Y-146974500D01*
X112409454Y-146974500D01*
X112409451Y-146974500D01*
X112230593Y-147002828D01*
X112058362Y-147058788D01*
X111897008Y-147141002D01*
X111848547Y-147176211D01*
X111750499Y-147247447D01*
X111622447Y-147375499D01*
X111569225Y-147448752D01*
X111516002Y-147522008D01*
X111433788Y-147683362D01*
X111377828Y-147855593D01*
X111349500Y-148034450D01*
X110950500Y-148034450D01*
X110950500Y-146019450D01*
X115349500Y-146019450D01*
X115349500Y-146200549D01*
X115377828Y-146379406D01*
X115377829Y-146379409D01*
X115433789Y-146551639D01*
X115516004Y-146712994D01*
X115622447Y-146859501D01*
X115750499Y-146987553D01*
X115897006Y-147093996D01*
X116058361Y-147176211D01*
X116230591Y-147232171D01*
X116302136Y-147243502D01*
X116409451Y-147260500D01*
X116409454Y-147260500D01*
X116590549Y-147260500D01*
X116679977Y-147246335D01*
X116769409Y-147232171D01*
X116941639Y-147176211D01*
X117102994Y-147093996D01*
X117249501Y-146987553D01*
X117377553Y-146859501D01*
X117483996Y-146712994D01*
X117566211Y-146551639D01*
X117622171Y-146379409D01*
X117650500Y-146200546D01*
X117650500Y-146019454D01*
X117650500Y-146019450D01*
X117622171Y-145840593D01*
X117622171Y-145840591D01*
X117566211Y-145668361D01*
X117483996Y-145507006D01*
X117377553Y-145360499D01*
X117249501Y-145232447D01*
X117102994Y-145126004D01*
X117102993Y-145126003D01*
X117102991Y-145126002D01*
X116941637Y-145043788D01*
X116769406Y-144987828D01*
X116590549Y-144959500D01*
X116590546Y-144959500D01*
X116409454Y-144959500D01*
X116409451Y-144959500D01*
X116230593Y-144987828D01*
X116058362Y-145043788D01*
X115897008Y-145126002D01*
X115823752Y-145179225D01*
X115750499Y-145232447D01*
X115622447Y-145360499D01*
X115569225Y-145433752D01*
X115516002Y-145507008D01*
X115433788Y-145668362D01*
X115377828Y-145840593D01*
X115349500Y-146019450D01*
X110950500Y-146019450D01*
X110950500Y-137424500D01*
X110969407Y-137366309D01*
X111018907Y-137330345D01*
X111049500Y-137325500D01*
X111377637Y-137325500D01*
X111435828Y-137344407D01*
X111465845Y-137379553D01*
X111516004Y-137477994D01*
X111622447Y-137624501D01*
X111750499Y-137752553D01*
X111897006Y-137858996D01*
X112058361Y-137941211D01*
X112230591Y-137997171D01*
X112302136Y-138008502D01*
X112409451Y-138025500D01*
X112409454Y-138025500D01*
X112590549Y-138025500D01*
X112679977Y-138011335D01*
X112769409Y-137997171D01*
X112941639Y-137941211D01*
X113102994Y-137858996D01*
X113249501Y-137752553D01*
X113377553Y-137624501D01*
X113483996Y-137477994D01*
X113566211Y-137316639D01*
X113622171Y-137144409D01*
X113650500Y-136965546D01*
X113650500Y-136784454D01*
X113650500Y-136784450D01*
X113622171Y-136605593D01*
X113622171Y-136605591D01*
X113566211Y-136433361D01*
X113483996Y-136272006D01*
X113377553Y-136125499D01*
X113249501Y-135997447D01*
X113102994Y-135891004D01*
X113102993Y-135891003D01*
X113102991Y-135891002D01*
X112941637Y-135808788D01*
X112769406Y-135752828D01*
X112590549Y-135724500D01*
X112590546Y-135724500D01*
X112409454Y-135724500D01*
X112409451Y-135724500D01*
X112230593Y-135752828D01*
X112058362Y-135808788D01*
X111897008Y-135891002D01*
X111823752Y-135944225D01*
X111750499Y-135997447D01*
X111622447Y-136125499D01*
X111569225Y-136198752D01*
X111516002Y-136272008D01*
X111488747Y-136325500D01*
X111473160Y-136356093D01*
X111465847Y-136370445D01*
X111422582Y-136413710D01*
X111377637Y-136424500D01*
X111049500Y-136424500D01*
X110991309Y-136405593D01*
X110955345Y-136356093D01*
X110950500Y-136325500D01*
X110950500Y-134284450D01*
X111349500Y-134284450D01*
X111349500Y-134465549D01*
X111377828Y-134644406D01*
X111377829Y-134644409D01*
X111433789Y-134816639D01*
X111516004Y-134977994D01*
X111622447Y-135124501D01*
X111750499Y-135252553D01*
X111897006Y-135358996D01*
X112058361Y-135441211D01*
X112230591Y-135497171D01*
X112302136Y-135508502D01*
X112409451Y-135525500D01*
X112409454Y-135525500D01*
X112590549Y-135525500D01*
X112679977Y-135511335D01*
X112769409Y-135497171D01*
X112941639Y-135441211D01*
X113102994Y-135358996D01*
X113249501Y-135252553D01*
X113377553Y-135124501D01*
X113483996Y-134977994D01*
X113566211Y-134816639D01*
X113622171Y-134644409D01*
X113650500Y-134465546D01*
X113650500Y-134284454D01*
X113650500Y-134284450D01*
X113622171Y-134105593D01*
X113622171Y-134105591D01*
X113566211Y-133933361D01*
X113483996Y-133772006D01*
X113377553Y-133625499D01*
X113249501Y-133497447D01*
X113102994Y-133391004D01*
X113102993Y-133391003D01*
X113102991Y-133391002D01*
X112941637Y-133308788D01*
X112769406Y-133252828D01*
X112590549Y-133224500D01*
X112590546Y-133224500D01*
X112409454Y-133224500D01*
X112409451Y-133224500D01*
X112230593Y-133252828D01*
X112058362Y-133308788D01*
X111897008Y-133391002D01*
X111823752Y-133444225D01*
X111750499Y-133497447D01*
X111622447Y-133625499D01*
X111569225Y-133698752D01*
X111516002Y-133772008D01*
X111433788Y-133933362D01*
X111377828Y-134105593D01*
X111349500Y-134284450D01*
X110950500Y-134284450D01*
X110950500Y-123674500D01*
X110969407Y-123616309D01*
X111018907Y-123580345D01*
X111049500Y-123575500D01*
X111377637Y-123575500D01*
X111435828Y-123594407D01*
X111465845Y-123629553D01*
X111516004Y-123727994D01*
X111622447Y-123874501D01*
X111750499Y-124002553D01*
X111897006Y-124108996D01*
X112058361Y-124191211D01*
X112230591Y-124247171D01*
X112302136Y-124258502D01*
X112409451Y-124275500D01*
X112409454Y-124275500D01*
X112590549Y-124275500D01*
X112679977Y-124261335D01*
X112769409Y-124247171D01*
X112941639Y-124191211D01*
X113102994Y-124108996D01*
X113249501Y-124002553D01*
X113377553Y-123874501D01*
X113483996Y-123727994D01*
X113566211Y-123566639D01*
X113622171Y-123394409D01*
X113650500Y-123215546D01*
X113650500Y-123034454D01*
X113650500Y-123034450D01*
X113622171Y-122855593D01*
X113622171Y-122855591D01*
X113566211Y-122683361D01*
X113483996Y-122522006D01*
X113377553Y-122375499D01*
X113249501Y-122247447D01*
X113102994Y-122141004D01*
X113102993Y-122141003D01*
X113102991Y-122141002D01*
X112941637Y-122058788D01*
X112769406Y-122002828D01*
X112590549Y-121974500D01*
X112590546Y-121974500D01*
X112409454Y-121974500D01*
X112409451Y-121974500D01*
X112230593Y-122002828D01*
X112058362Y-122058788D01*
X111897008Y-122141002D01*
X111823752Y-122194225D01*
X111750499Y-122247447D01*
X111622447Y-122375499D01*
X111569225Y-122448752D01*
X111516002Y-122522008D01*
X111488747Y-122575500D01*
X111473160Y-122606093D01*
X111465847Y-122620445D01*
X111422582Y-122663710D01*
X111377637Y-122674500D01*
X111049500Y-122674500D01*
X110991309Y-122655593D01*
X110955345Y-122606093D01*
X110950500Y-122575500D01*
X110950500Y-120534450D01*
X111349500Y-120534450D01*
X111349500Y-120715549D01*
X111377828Y-120894406D01*
X111377829Y-120894409D01*
X111433789Y-121066639D01*
X111516004Y-121227994D01*
X111622447Y-121374501D01*
X111750499Y-121502553D01*
X111897006Y-121608996D01*
X112058361Y-121691211D01*
X112230591Y-121747171D01*
X112302136Y-121758502D01*
X112409451Y-121775500D01*
X112409454Y-121775500D01*
X112590549Y-121775500D01*
X112679977Y-121761335D01*
X112769409Y-121747171D01*
X112941639Y-121691211D01*
X113102994Y-121608996D01*
X113249501Y-121502553D01*
X113377553Y-121374501D01*
X113483996Y-121227994D01*
X113566211Y-121066639D01*
X113622171Y-120894409D01*
X113650500Y-120715546D01*
X113650500Y-120534454D01*
X113650500Y-120534450D01*
X113622171Y-120355593D01*
X113622171Y-120355591D01*
X113566211Y-120183361D01*
X113483996Y-120022006D01*
X113377553Y-119875499D01*
X113249501Y-119747447D01*
X113102994Y-119641004D01*
X113102993Y-119641003D01*
X113102991Y-119641002D01*
X112941637Y-119558788D01*
X112769406Y-119502828D01*
X112590549Y-119474500D01*
X112590546Y-119474500D01*
X112409454Y-119474500D01*
X112409451Y-119474500D01*
X112230593Y-119502828D01*
X112058362Y-119558788D01*
X111897008Y-119641002D01*
X111823752Y-119694225D01*
X111750499Y-119747447D01*
X111622447Y-119875499D01*
X111569225Y-119948752D01*
X111516002Y-120022008D01*
X111433788Y-120183362D01*
X111377828Y-120355593D01*
X111349500Y-120534450D01*
X110950500Y-120534450D01*
X110950500Y-109924500D01*
X110969407Y-109866309D01*
X111018907Y-109830345D01*
X111049500Y-109825500D01*
X111377637Y-109825500D01*
X111435828Y-109844407D01*
X111465845Y-109879553D01*
X111516004Y-109977994D01*
X111622447Y-110124501D01*
X111750499Y-110252553D01*
X111897006Y-110358996D01*
X112058361Y-110441211D01*
X112230591Y-110497171D01*
X112302136Y-110508502D01*
X112409451Y-110525500D01*
X112409454Y-110525500D01*
X112590549Y-110525500D01*
X112679977Y-110511335D01*
X112769409Y-110497171D01*
X112941639Y-110441211D01*
X113102994Y-110358996D01*
X113249501Y-110252553D01*
X113377553Y-110124501D01*
X113483996Y-109977994D01*
X113566211Y-109816639D01*
X113622171Y-109644409D01*
X113650500Y-109465546D01*
X113650500Y-109284454D01*
X113650500Y-109284450D01*
X113622171Y-109105593D01*
X113622171Y-109105591D01*
X113566211Y-108933361D01*
X113483996Y-108772006D01*
X113377553Y-108625499D01*
X113249501Y-108497447D01*
X113102994Y-108391004D01*
X113102993Y-108391003D01*
X113102991Y-108391002D01*
X112941637Y-108308788D01*
X112769406Y-108252828D01*
X112590549Y-108224500D01*
X112590546Y-108224500D01*
X112409454Y-108224500D01*
X112409451Y-108224500D01*
X112230593Y-108252828D01*
X112058362Y-108308788D01*
X111897008Y-108391002D01*
X111823752Y-108444225D01*
X111750499Y-108497447D01*
X111622447Y-108625499D01*
X111569225Y-108698752D01*
X111516002Y-108772008D01*
X111465847Y-108870445D01*
X111422582Y-108913710D01*
X111377637Y-108924500D01*
X110559309Y-108924500D01*
X110440691Y-108924500D01*
X110370567Y-108943289D01*
X110326109Y-108955202D01*
X110223391Y-109014507D01*
X110139507Y-109098391D01*
X110080202Y-109201109D01*
X110080201Y-109201114D01*
X110049500Y-109315691D01*
X100500500Y-109315691D01*
X100500500Y-106784450D01*
X111349500Y-106784450D01*
X111349500Y-106965549D01*
X111377828Y-107144406D01*
X111377829Y-107144409D01*
X111433789Y-107316639D01*
X111516004Y-107477994D01*
X111622447Y-107624501D01*
X111750499Y-107752553D01*
X111897006Y-107858996D01*
X112058361Y-107941211D01*
X112230591Y-107997171D01*
X112302136Y-108008502D01*
X112409451Y-108025500D01*
X112409454Y-108025500D01*
X112590549Y-108025500D01*
X112679977Y-108011335D01*
X112769409Y-107997171D01*
X112941639Y-107941211D01*
X113102994Y-107858996D01*
X113249501Y-107752553D01*
X113377553Y-107624501D01*
X113483996Y-107477994D01*
X113566211Y-107316639D01*
X113622171Y-107144409D01*
X113650500Y-106965546D01*
X113650500Y-106784454D01*
X113650500Y-106784450D01*
X113622171Y-106605593D01*
X113622171Y-106605591D01*
X113566211Y-106433361D01*
X113483996Y-106272006D01*
X113377553Y-106125499D01*
X113249501Y-105997447D01*
X113102994Y-105891004D01*
X113102993Y-105891003D01*
X113102991Y-105891002D01*
X112941637Y-105808788D01*
X112769406Y-105752828D01*
X112590549Y-105724500D01*
X112590546Y-105724500D01*
X112409454Y-105724500D01*
X112409451Y-105724500D01*
X112230593Y-105752828D01*
X112058362Y-105808788D01*
X111897008Y-105891002D01*
X111823752Y-105944225D01*
X111750499Y-105997447D01*
X111622447Y-106125499D01*
X111569225Y-106198752D01*
X111516002Y-106272008D01*
X111433788Y-106433362D01*
X111377828Y-106605593D01*
X111349500Y-106784450D01*
X100500500Y-106784450D01*
X100500500Y-100599500D01*
X100519407Y-100541309D01*
X100568907Y-100505345D01*
X100599500Y-100500500D01*
X103921525Y-100500500D01*
X103979716Y-100519407D01*
G37*
%TD.AperFunction*%
%TD*%
M02*
