%TF.GenerationSoftware,KiCad,Pcbnew,10.0.3*%
%TF.CreationDate,2026-07-11T11:21:13+02:00*%
%TF.ProjectId,musicbrain-pot8front,6d757369-6362-4726-9169-6e2d706f7438,1.0*%
%TF.SameCoordinates,Original*%
%TF.FileFunction,Drillmap*%
%TF.FilePolarity,Positive*%
%FSLAX45Y45*%
G04 Gerber Fmt 4.5, Leading zero omitted, Abs format (unit mm)*
G04 Created by KiCad (PCBNEW 10.0.3) date 2026-07-11 11:21:13*
%MOMM*%
%LPD*%
G01*
G04 APERTURE LIST*
%ADD10C,0.100000*%
%ADD11C,0.200000*%
G04 APERTURE END LIST*
D10*
X10000000Y-10000000D02*
X12000000Y-10000000D01*
X12000000Y-21000000D01*
X10000000Y-21000000D01*
X10000000Y-10000000D01*
D11*
D10*
X10185000Y-10185000D02*
X10215000Y-10215000D01*
X10215000Y-10185000D02*
X10185000Y-10215000D01*
X10185000Y-15485000D02*
X10215000Y-15515000D01*
X10215000Y-15485000D02*
X10185000Y-15515000D01*
X10185000Y-20785000D02*
X10215000Y-20815000D01*
X10215000Y-20785000D02*
X10185000Y-20815000D01*
X11785000Y-10185000D02*
X11815000Y-10215000D01*
X11815000Y-10185000D02*
X11785000Y-10215000D01*
X11785000Y-12785000D02*
X11815000Y-12815000D01*
X11815000Y-12785000D02*
X11785000Y-12815000D01*
X11785000Y-18585000D02*
X11815000Y-18615000D01*
X11815000Y-18585000D02*
X11785000Y-18615000D01*
X11785000Y-20785000D02*
X11815000Y-20815000D01*
X11815000Y-20785000D02*
X11785000Y-20815000D01*
X11300000Y-10437500D02*
G75*
G02*
X11200000Y-10437500I-50000J0D01*
G01*
X11200000Y-10437500D02*
G75*
G02*
X11300000Y-10437500I50000J0D01*
G01*
X11300000Y-10687500D02*
G75*
G02*
X11200000Y-10687500I-50000J0D01*
G01*
X11200000Y-10687500D02*
G75*
G02*
X11300000Y-10687500I50000J0D01*
G01*
X11300000Y-10937500D02*
G75*
G02*
X11200000Y-10937500I-50000J0D01*
G01*
X11200000Y-10937500D02*
G75*
G02*
X11300000Y-10937500I50000J0D01*
G01*
X11300000Y-11812500D02*
G75*
G02*
X11200000Y-11812500I-50000J0D01*
G01*
X11200000Y-11812500D02*
G75*
G02*
X11300000Y-11812500I50000J0D01*
G01*
X11300000Y-12062500D02*
G75*
G02*
X11200000Y-12062500I-50000J0D01*
G01*
X11200000Y-12062500D02*
G75*
G02*
X11300000Y-12062500I50000J0D01*
G01*
X11300000Y-12312500D02*
G75*
G02*
X11200000Y-12312500I-50000J0D01*
G01*
X11200000Y-12312500D02*
G75*
G02*
X11300000Y-12312500I50000J0D01*
G01*
X11300000Y-13187500D02*
G75*
G02*
X11200000Y-13187500I-50000J0D01*
G01*
X11200000Y-13187500D02*
G75*
G02*
X11300000Y-13187500I50000J0D01*
G01*
X11300000Y-13437500D02*
G75*
G02*
X11200000Y-13437500I-50000J0D01*
G01*
X11200000Y-13437500D02*
G75*
G02*
X11300000Y-13437500I50000J0D01*
G01*
X11300000Y-13687500D02*
G75*
G02*
X11200000Y-13687500I-50000J0D01*
G01*
X11200000Y-13687500D02*
G75*
G02*
X11300000Y-13687500I50000J0D01*
G01*
X11300000Y-14562500D02*
G75*
G02*
X11200000Y-14562500I-50000J0D01*
G01*
X11200000Y-14562500D02*
G75*
G02*
X11300000Y-14562500I50000J0D01*
G01*
X11300000Y-14812500D02*
G75*
G02*
X11200000Y-14812500I-50000J0D01*
G01*
X11200000Y-14812500D02*
G75*
G02*
X11300000Y-14812500I50000J0D01*
G01*
X11300000Y-15062500D02*
G75*
G02*
X11200000Y-15062500I-50000J0D01*
G01*
X11200000Y-15062500D02*
G75*
G02*
X11300000Y-15062500I50000J0D01*
G01*
X11300000Y-15937500D02*
G75*
G02*
X11200000Y-15937500I-50000J0D01*
G01*
X11200000Y-15937500D02*
G75*
G02*
X11300000Y-15937500I50000J0D01*
G01*
X11300000Y-16187500D02*
G75*
G02*
X11200000Y-16187500I-50000J0D01*
G01*
X11200000Y-16187500D02*
G75*
G02*
X11300000Y-16187500I50000J0D01*
G01*
X11300000Y-16437500D02*
G75*
G02*
X11200000Y-16437500I-50000J0D01*
G01*
X11200000Y-16437500D02*
G75*
G02*
X11300000Y-16437500I50000J0D01*
G01*
X11300000Y-17312500D02*
G75*
G02*
X11200000Y-17312500I-50000J0D01*
G01*
X11200000Y-17312500D02*
G75*
G02*
X11300000Y-17312500I50000J0D01*
G01*
X11300000Y-17562500D02*
G75*
G02*
X11200000Y-17562500I-50000J0D01*
G01*
X11200000Y-17562500D02*
G75*
G02*
X11300000Y-17562500I50000J0D01*
G01*
X11300000Y-17812500D02*
G75*
G02*
X11200000Y-17812500I-50000J0D01*
G01*
X11200000Y-17812500D02*
G75*
G02*
X11300000Y-17812500I50000J0D01*
G01*
X11300000Y-18687500D02*
G75*
G02*
X11200000Y-18687500I-50000J0D01*
G01*
X11200000Y-18687500D02*
G75*
G02*
X11300000Y-18687500I50000J0D01*
G01*
X11300000Y-18937500D02*
G75*
G02*
X11200000Y-18937500I-50000J0D01*
G01*
X11200000Y-18937500D02*
G75*
G02*
X11300000Y-18937500I50000J0D01*
G01*
X11300000Y-19187500D02*
G75*
G02*
X11200000Y-19187500I-50000J0D01*
G01*
X11200000Y-19187500D02*
G75*
G02*
X11300000Y-19187500I50000J0D01*
G01*
X11300000Y-20062500D02*
G75*
G02*
X11200000Y-20062500I-50000J0D01*
G01*
X11200000Y-20062500D02*
G75*
G02*
X11300000Y-20062500I50000J0D01*
G01*
X11300000Y-20312500D02*
G75*
G02*
X11200000Y-20312500I-50000J0D01*
G01*
X11200000Y-20312500D02*
G75*
G02*
X11300000Y-20312500I50000J0D01*
G01*
X11300000Y-20562500D02*
G75*
G02*
X11200000Y-20562500I-50000J0D01*
G01*
X11200000Y-20562500D02*
G75*
G02*
X11300000Y-20562500I50000J0D01*
G01*
X11700000Y-14357000D02*
G75*
G02*
X11600000Y-14357000I-50000J0D01*
G01*
X11600000Y-14357000D02*
G75*
G02*
X11700000Y-14357000I50000J0D01*
G01*
X11700000Y-14611000D02*
G75*
G02*
X11600000Y-14611000I-50000J0D01*
G01*
X11600000Y-14611000D02*
G75*
G02*
X11700000Y-14611000I50000J0D01*
G01*
X11700000Y-14865000D02*
G75*
G02*
X11600000Y-14865000I-50000J0D01*
G01*
X11600000Y-14865000D02*
G75*
G02*
X11700000Y-14865000I50000J0D01*
G01*
X11700000Y-15119000D02*
G75*
G02*
X11600000Y-15119000I-50000J0D01*
G01*
X11600000Y-15119000D02*
G75*
G02*
X11700000Y-15119000I50000J0D01*
G01*
X11700000Y-15373000D02*
G75*
G02*
X11600000Y-15373000I-50000J0D01*
G01*
X11600000Y-15373000D02*
G75*
G02*
X11700000Y-15373000I50000J0D01*
G01*
X11700000Y-15627000D02*
G75*
G02*
X11600000Y-15627000I-50000J0D01*
G01*
X11600000Y-15627000D02*
G75*
G02*
X11700000Y-15627000I50000J0D01*
G01*
X11700000Y-15881000D02*
G75*
G02*
X11600000Y-15881000I-50000J0D01*
G01*
X11600000Y-15881000D02*
G75*
G02*
X11700000Y-15881000I50000J0D01*
G01*
X11700000Y-16135000D02*
G75*
G02*
X11600000Y-16135000I-50000J0D01*
G01*
X11600000Y-16135000D02*
G75*
G02*
X11700000Y-16135000I50000J0D01*
G01*
X11700000Y-16389000D02*
G75*
G02*
X11600000Y-16389000I-50000J0D01*
G01*
X11600000Y-16389000D02*
G75*
G02*
X11700000Y-16389000I50000J0D01*
G01*
X11700000Y-16643000D02*
G75*
G02*
X11600000Y-16643000I-50000J0D01*
G01*
X11600000Y-16643000D02*
G75*
G02*
X11700000Y-16643000I50000J0D01*
G01*
D11*
X10255777Y-21316484D02*
X10255777Y-21116484D01*
X10255777Y-21116484D02*
X10303396Y-21116484D01*
X10303396Y-21116484D02*
X10331967Y-21126008D01*
X10331967Y-21126008D02*
X10351015Y-21145055D01*
X10351015Y-21145055D02*
X10360539Y-21164103D01*
X10360539Y-21164103D02*
X10370063Y-21202198D01*
X10370063Y-21202198D02*
X10370063Y-21230770D01*
X10370063Y-21230770D02*
X10360539Y-21268865D01*
X10360539Y-21268865D02*
X10351015Y-21287912D01*
X10351015Y-21287912D02*
X10331967Y-21306960D01*
X10331967Y-21306960D02*
X10303396Y-21316484D01*
X10303396Y-21316484D02*
X10255777Y-21316484D01*
X10455777Y-21316484D02*
X10455777Y-21183150D01*
X10455777Y-21221246D02*
X10465301Y-21202198D01*
X10465301Y-21202198D02*
X10474824Y-21192674D01*
X10474824Y-21192674D02*
X10493872Y-21183150D01*
X10493872Y-21183150D02*
X10512920Y-21183150D01*
X10579586Y-21316484D02*
X10579586Y-21183150D01*
X10579586Y-21116484D02*
X10570063Y-21126008D01*
X10570063Y-21126008D02*
X10579586Y-21135531D01*
X10579586Y-21135531D02*
X10589110Y-21126008D01*
X10589110Y-21126008D02*
X10579586Y-21116484D01*
X10579586Y-21116484D02*
X10579586Y-21135531D01*
X10703396Y-21316484D02*
X10684348Y-21306960D01*
X10684348Y-21306960D02*
X10674824Y-21287912D01*
X10674824Y-21287912D02*
X10674824Y-21116484D01*
X10808158Y-21316484D02*
X10789110Y-21306960D01*
X10789110Y-21306960D02*
X10779586Y-21287912D01*
X10779586Y-21287912D02*
X10779586Y-21116484D01*
X11036729Y-21316484D02*
X11036729Y-21116484D01*
X11036729Y-21116484D02*
X11103396Y-21259341D01*
X11103396Y-21259341D02*
X11170063Y-21116484D01*
X11170063Y-21116484D02*
X11170063Y-21316484D01*
X11351015Y-21316484D02*
X11351015Y-21211722D01*
X11351015Y-21211722D02*
X11341491Y-21192674D01*
X11341491Y-21192674D02*
X11322443Y-21183150D01*
X11322443Y-21183150D02*
X11284348Y-21183150D01*
X11284348Y-21183150D02*
X11265301Y-21192674D01*
X11351015Y-21306960D02*
X11331967Y-21316484D01*
X11331967Y-21316484D02*
X11284348Y-21316484D01*
X11284348Y-21316484D02*
X11265301Y-21306960D01*
X11265301Y-21306960D02*
X11255777Y-21287912D01*
X11255777Y-21287912D02*
X11255777Y-21268865D01*
X11255777Y-21268865D02*
X11265301Y-21249817D01*
X11265301Y-21249817D02*
X11284348Y-21240293D01*
X11284348Y-21240293D02*
X11331967Y-21240293D01*
X11331967Y-21240293D02*
X11351015Y-21230770D01*
X11446253Y-21183150D02*
X11446253Y-21383150D01*
X11446253Y-21192674D02*
X11465301Y-21183150D01*
X11465301Y-21183150D02*
X11503396Y-21183150D01*
X11503396Y-21183150D02*
X11522443Y-21192674D01*
X11522443Y-21192674D02*
X11531967Y-21202198D01*
X11531967Y-21202198D02*
X11541491Y-21221246D01*
X11541491Y-21221246D02*
X11541491Y-21278389D01*
X11541491Y-21278389D02*
X11531967Y-21297436D01*
X11531967Y-21297436D02*
X11522443Y-21306960D01*
X11522443Y-21306960D02*
X11503396Y-21316484D01*
X11503396Y-21316484D02*
X11465301Y-21316484D01*
X11465301Y-21316484D02*
X11446253Y-21306960D01*
X11627205Y-21297436D02*
X11636729Y-21306960D01*
X11636729Y-21306960D02*
X11627205Y-21316484D01*
X11627205Y-21316484D02*
X11617682Y-21306960D01*
X11617682Y-21306960D02*
X11627205Y-21297436D01*
X11627205Y-21297436D02*
X11627205Y-21316484D01*
X11627205Y-21192674D02*
X11636729Y-21202198D01*
X11636729Y-21202198D02*
X11627205Y-21211722D01*
X11627205Y-21211722D02*
X11617682Y-21202198D01*
X11617682Y-21202198D02*
X11627205Y-21192674D01*
X11627205Y-21192674D02*
X11627205Y-21211722D01*
D10*
X9965000Y-21630000D02*
X9995000Y-21660000D01*
X9995000Y-21630000D02*
X9965000Y-21660000D01*
D11*
X10293872Y-21536484D02*
X10312920Y-21536484D01*
X10312920Y-21536484D02*
X10331967Y-21546008D01*
X10331967Y-21546008D02*
X10341491Y-21555531D01*
X10341491Y-21555531D02*
X10351015Y-21574579D01*
X10351015Y-21574579D02*
X10360539Y-21612674D01*
X10360539Y-21612674D02*
X10360539Y-21660293D01*
X10360539Y-21660293D02*
X10351015Y-21698389D01*
X10351015Y-21698389D02*
X10341491Y-21717436D01*
X10341491Y-21717436D02*
X10331967Y-21726960D01*
X10331967Y-21726960D02*
X10312920Y-21736484D01*
X10312920Y-21736484D02*
X10293872Y-21736484D01*
X10293872Y-21736484D02*
X10274824Y-21726960D01*
X10274824Y-21726960D02*
X10265301Y-21717436D01*
X10265301Y-21717436D02*
X10255777Y-21698389D01*
X10255777Y-21698389D02*
X10246253Y-21660293D01*
X10246253Y-21660293D02*
X10246253Y-21612674D01*
X10246253Y-21612674D02*
X10255777Y-21574579D01*
X10255777Y-21574579D02*
X10265301Y-21555531D01*
X10265301Y-21555531D02*
X10274824Y-21546008D01*
X10274824Y-21546008D02*
X10293872Y-21536484D01*
X10455777Y-21726960D02*
X10455777Y-21736484D01*
X10455777Y-21736484D02*
X10446253Y-21755531D01*
X10446253Y-21755531D02*
X10436729Y-21765055D01*
X10522444Y-21536484D02*
X10646253Y-21536484D01*
X10646253Y-21536484D02*
X10579586Y-21612674D01*
X10579586Y-21612674D02*
X10608158Y-21612674D01*
X10608158Y-21612674D02*
X10627205Y-21622198D01*
X10627205Y-21622198D02*
X10636729Y-21631722D01*
X10636729Y-21631722D02*
X10646253Y-21650770D01*
X10646253Y-21650770D02*
X10646253Y-21698389D01*
X10646253Y-21698389D02*
X10636729Y-21717436D01*
X10636729Y-21717436D02*
X10627205Y-21726960D01*
X10627205Y-21726960D02*
X10608158Y-21736484D01*
X10608158Y-21736484D02*
X10551015Y-21736484D01*
X10551015Y-21736484D02*
X10531967Y-21726960D01*
X10531967Y-21726960D02*
X10522444Y-21717436D01*
X10770063Y-21536484D02*
X10789110Y-21536484D01*
X10789110Y-21536484D02*
X10808158Y-21546008D01*
X10808158Y-21546008D02*
X10817682Y-21555531D01*
X10817682Y-21555531D02*
X10827205Y-21574579D01*
X10827205Y-21574579D02*
X10836729Y-21612674D01*
X10836729Y-21612674D02*
X10836729Y-21660293D01*
X10836729Y-21660293D02*
X10827205Y-21698389D01*
X10827205Y-21698389D02*
X10817682Y-21717436D01*
X10817682Y-21717436D02*
X10808158Y-21726960D01*
X10808158Y-21726960D02*
X10789110Y-21736484D01*
X10789110Y-21736484D02*
X10770063Y-21736484D01*
X10770063Y-21736484D02*
X10751015Y-21726960D01*
X10751015Y-21726960D02*
X10741491Y-21717436D01*
X10741491Y-21717436D02*
X10731967Y-21698389D01*
X10731967Y-21698389D02*
X10722444Y-21660293D01*
X10722444Y-21660293D02*
X10722444Y-21612674D01*
X10722444Y-21612674D02*
X10731967Y-21574579D01*
X10731967Y-21574579D02*
X10741491Y-21555531D01*
X10741491Y-21555531D02*
X10751015Y-21546008D01*
X10751015Y-21546008D02*
X10770063Y-21536484D01*
X10960539Y-21536484D02*
X10979586Y-21536484D01*
X10979586Y-21536484D02*
X10998634Y-21546008D01*
X10998634Y-21546008D02*
X11008158Y-21555531D01*
X11008158Y-21555531D02*
X11017682Y-21574579D01*
X11017682Y-21574579D02*
X11027205Y-21612674D01*
X11027205Y-21612674D02*
X11027205Y-21660293D01*
X11027205Y-21660293D02*
X11017682Y-21698389D01*
X11017682Y-21698389D02*
X11008158Y-21717436D01*
X11008158Y-21717436D02*
X10998634Y-21726960D01*
X10998634Y-21726960D02*
X10979586Y-21736484D01*
X10979586Y-21736484D02*
X10960539Y-21736484D01*
X10960539Y-21736484D02*
X10941491Y-21726960D01*
X10941491Y-21726960D02*
X10931967Y-21717436D01*
X10931967Y-21717436D02*
X10922444Y-21698389D01*
X10922444Y-21698389D02*
X10912920Y-21660293D01*
X10912920Y-21660293D02*
X10912920Y-21612674D01*
X10912920Y-21612674D02*
X10922444Y-21574579D01*
X10922444Y-21574579D02*
X10931967Y-21555531D01*
X10931967Y-21555531D02*
X10941491Y-21546008D01*
X10941491Y-21546008D02*
X10960539Y-21536484D01*
X11112920Y-21736484D02*
X11112920Y-21603150D01*
X11112920Y-21622198D02*
X11122444Y-21612674D01*
X11122444Y-21612674D02*
X11141491Y-21603150D01*
X11141491Y-21603150D02*
X11170063Y-21603150D01*
X11170063Y-21603150D02*
X11189110Y-21612674D01*
X11189110Y-21612674D02*
X11198634Y-21631722D01*
X11198634Y-21631722D02*
X11198634Y-21736484D01*
X11198634Y-21631722D02*
X11208158Y-21612674D01*
X11208158Y-21612674D02*
X11227205Y-21603150D01*
X11227205Y-21603150D02*
X11255777Y-21603150D01*
X11255777Y-21603150D02*
X11274824Y-21612674D01*
X11274824Y-21612674D02*
X11284348Y-21631722D01*
X11284348Y-21631722D02*
X11284348Y-21736484D01*
X11379586Y-21736484D02*
X11379586Y-21603150D01*
X11379586Y-21622198D02*
X11389110Y-21612674D01*
X11389110Y-21612674D02*
X11408158Y-21603150D01*
X11408158Y-21603150D02*
X11436729Y-21603150D01*
X11436729Y-21603150D02*
X11455777Y-21612674D01*
X11455777Y-21612674D02*
X11465301Y-21631722D01*
X11465301Y-21631722D02*
X11465301Y-21736484D01*
X11465301Y-21631722D02*
X11474824Y-21612674D01*
X11474824Y-21612674D02*
X11493872Y-21603150D01*
X11493872Y-21603150D02*
X11522443Y-21603150D01*
X11522443Y-21603150D02*
X11541491Y-21612674D01*
X11541491Y-21612674D02*
X11551015Y-21631722D01*
X11551015Y-21631722D02*
X11551015Y-21736484D01*
X11941491Y-21526960D02*
X11770063Y-21784103D01*
X12198634Y-21536484D02*
X12217682Y-21536484D01*
X12217682Y-21536484D02*
X12236729Y-21546008D01*
X12236729Y-21546008D02*
X12246253Y-21555531D01*
X12246253Y-21555531D02*
X12255777Y-21574579D01*
X12255777Y-21574579D02*
X12265301Y-21612674D01*
X12265301Y-21612674D02*
X12265301Y-21660293D01*
X12265301Y-21660293D02*
X12255777Y-21698389D01*
X12255777Y-21698389D02*
X12246253Y-21717436D01*
X12246253Y-21717436D02*
X12236729Y-21726960D01*
X12236729Y-21726960D02*
X12217682Y-21736484D01*
X12217682Y-21736484D02*
X12198634Y-21736484D01*
X12198634Y-21736484D02*
X12179586Y-21726960D01*
X12179586Y-21726960D02*
X12170063Y-21717436D01*
X12170063Y-21717436D02*
X12160539Y-21698389D01*
X12160539Y-21698389D02*
X12151015Y-21660293D01*
X12151015Y-21660293D02*
X12151015Y-21612674D01*
X12151015Y-21612674D02*
X12160539Y-21574579D01*
X12160539Y-21574579D02*
X12170063Y-21555531D01*
X12170063Y-21555531D02*
X12179586Y-21546008D01*
X12179586Y-21546008D02*
X12198634Y-21536484D01*
X12360539Y-21726960D02*
X12360539Y-21736484D01*
X12360539Y-21736484D02*
X12351015Y-21755531D01*
X12351015Y-21755531D02*
X12341491Y-21765055D01*
X12484348Y-21536484D02*
X12503396Y-21536484D01*
X12503396Y-21536484D02*
X12522444Y-21546008D01*
X12522444Y-21546008D02*
X12531967Y-21555531D01*
X12531967Y-21555531D02*
X12541491Y-21574579D01*
X12541491Y-21574579D02*
X12551015Y-21612674D01*
X12551015Y-21612674D02*
X12551015Y-21660293D01*
X12551015Y-21660293D02*
X12541491Y-21698389D01*
X12541491Y-21698389D02*
X12531967Y-21717436D01*
X12531967Y-21717436D02*
X12522444Y-21726960D01*
X12522444Y-21726960D02*
X12503396Y-21736484D01*
X12503396Y-21736484D02*
X12484348Y-21736484D01*
X12484348Y-21736484D02*
X12465301Y-21726960D01*
X12465301Y-21726960D02*
X12455777Y-21717436D01*
X12455777Y-21717436D02*
X12446253Y-21698389D01*
X12446253Y-21698389D02*
X12436729Y-21660293D01*
X12436729Y-21660293D02*
X12436729Y-21612674D01*
X12436729Y-21612674D02*
X12446253Y-21574579D01*
X12446253Y-21574579D02*
X12455777Y-21555531D01*
X12455777Y-21555531D02*
X12465301Y-21546008D01*
X12465301Y-21546008D02*
X12484348Y-21536484D01*
X12741491Y-21736484D02*
X12627206Y-21736484D01*
X12684348Y-21736484D02*
X12684348Y-21536484D01*
X12684348Y-21536484D02*
X12665301Y-21565055D01*
X12665301Y-21565055D02*
X12646253Y-21584103D01*
X12646253Y-21584103D02*
X12627206Y-21593627D01*
X12931967Y-21736484D02*
X12817682Y-21736484D01*
X12874825Y-21736484D02*
X12874825Y-21536484D01*
X12874825Y-21536484D02*
X12855777Y-21565055D01*
X12855777Y-21565055D02*
X12836729Y-21584103D01*
X12836729Y-21584103D02*
X12817682Y-21593627D01*
X13046253Y-21622198D02*
X13027206Y-21612674D01*
X13027206Y-21612674D02*
X13017682Y-21603150D01*
X13017682Y-21603150D02*
X13008158Y-21584103D01*
X13008158Y-21584103D02*
X13008158Y-21574579D01*
X13008158Y-21574579D02*
X13017682Y-21555531D01*
X13017682Y-21555531D02*
X13027206Y-21546008D01*
X13027206Y-21546008D02*
X13046253Y-21536484D01*
X13046253Y-21536484D02*
X13084348Y-21536484D01*
X13084348Y-21536484D02*
X13103396Y-21546008D01*
X13103396Y-21546008D02*
X13112920Y-21555531D01*
X13112920Y-21555531D02*
X13122444Y-21574579D01*
X13122444Y-21574579D02*
X13122444Y-21584103D01*
X13122444Y-21584103D02*
X13112920Y-21603150D01*
X13112920Y-21603150D02*
X13103396Y-21612674D01*
X13103396Y-21612674D02*
X13084348Y-21622198D01*
X13084348Y-21622198D02*
X13046253Y-21622198D01*
X13046253Y-21622198D02*
X13027206Y-21631722D01*
X13027206Y-21631722D02*
X13017682Y-21641246D01*
X13017682Y-21641246D02*
X13008158Y-21660293D01*
X13008158Y-21660293D02*
X13008158Y-21698389D01*
X13008158Y-21698389D02*
X13017682Y-21717436D01*
X13017682Y-21717436D02*
X13027206Y-21726960D01*
X13027206Y-21726960D02*
X13046253Y-21736484D01*
X13046253Y-21736484D02*
X13084348Y-21736484D01*
X13084348Y-21736484D02*
X13103396Y-21726960D01*
X13103396Y-21726960D02*
X13112920Y-21717436D01*
X13112920Y-21717436D02*
X13122444Y-21698389D01*
X13122444Y-21698389D02*
X13122444Y-21660293D01*
X13122444Y-21660293D02*
X13112920Y-21641246D01*
X13112920Y-21641246D02*
X13103396Y-21631722D01*
X13103396Y-21631722D02*
X13084348Y-21622198D01*
X13198634Y-21536484D02*
X13198634Y-21574579D01*
X13274825Y-21536484D02*
X13274825Y-21574579D01*
X13570063Y-21812674D02*
X13560539Y-21803150D01*
X13560539Y-21803150D02*
X13541491Y-21774579D01*
X13541491Y-21774579D02*
X13531968Y-21755531D01*
X13531968Y-21755531D02*
X13522444Y-21726960D01*
X13522444Y-21726960D02*
X13512920Y-21679341D01*
X13512920Y-21679341D02*
X13512920Y-21641246D01*
X13512920Y-21641246D02*
X13522444Y-21593627D01*
X13522444Y-21593627D02*
X13531968Y-21565055D01*
X13531968Y-21565055D02*
X13541491Y-21546008D01*
X13541491Y-21546008D02*
X13560539Y-21517436D01*
X13560539Y-21517436D02*
X13570063Y-21507912D01*
X13627206Y-21536484D02*
X13760539Y-21536484D01*
X13760539Y-21536484D02*
X13674825Y-21736484D01*
X13989110Y-21736484D02*
X13989110Y-21536484D01*
X14074825Y-21736484D02*
X14074825Y-21631722D01*
X14074825Y-21631722D02*
X14065301Y-21612674D01*
X14065301Y-21612674D02*
X14046253Y-21603150D01*
X14046253Y-21603150D02*
X14017682Y-21603150D01*
X14017682Y-21603150D02*
X13998634Y-21612674D01*
X13998634Y-21612674D02*
X13989110Y-21622198D01*
X14198634Y-21736484D02*
X14179587Y-21726960D01*
X14179587Y-21726960D02*
X14170063Y-21717436D01*
X14170063Y-21717436D02*
X14160539Y-21698389D01*
X14160539Y-21698389D02*
X14160539Y-21641246D01*
X14160539Y-21641246D02*
X14170063Y-21622198D01*
X14170063Y-21622198D02*
X14179587Y-21612674D01*
X14179587Y-21612674D02*
X14198634Y-21603150D01*
X14198634Y-21603150D02*
X14227206Y-21603150D01*
X14227206Y-21603150D02*
X14246253Y-21612674D01*
X14246253Y-21612674D02*
X14255777Y-21622198D01*
X14255777Y-21622198D02*
X14265301Y-21641246D01*
X14265301Y-21641246D02*
X14265301Y-21698389D01*
X14265301Y-21698389D02*
X14255777Y-21717436D01*
X14255777Y-21717436D02*
X14246253Y-21726960D01*
X14246253Y-21726960D02*
X14227206Y-21736484D01*
X14227206Y-21736484D02*
X14198634Y-21736484D01*
X14379587Y-21736484D02*
X14360539Y-21726960D01*
X14360539Y-21726960D02*
X14351015Y-21707912D01*
X14351015Y-21707912D02*
X14351015Y-21536484D01*
X14531968Y-21726960D02*
X14512920Y-21736484D01*
X14512920Y-21736484D02*
X14474825Y-21736484D01*
X14474825Y-21736484D02*
X14455777Y-21726960D01*
X14455777Y-21726960D02*
X14446253Y-21707912D01*
X14446253Y-21707912D02*
X14446253Y-21631722D01*
X14446253Y-21631722D02*
X14455777Y-21612674D01*
X14455777Y-21612674D02*
X14474825Y-21603150D01*
X14474825Y-21603150D02*
X14512920Y-21603150D01*
X14512920Y-21603150D02*
X14531968Y-21612674D01*
X14531968Y-21612674D02*
X14541491Y-21631722D01*
X14541491Y-21631722D02*
X14541491Y-21650770D01*
X14541491Y-21650770D02*
X14446253Y-21669817D01*
X14617682Y-21726960D02*
X14636730Y-21736484D01*
X14636730Y-21736484D02*
X14674825Y-21736484D01*
X14674825Y-21736484D02*
X14693872Y-21726960D01*
X14693872Y-21726960D02*
X14703396Y-21707912D01*
X14703396Y-21707912D02*
X14703396Y-21698389D01*
X14703396Y-21698389D02*
X14693872Y-21679341D01*
X14693872Y-21679341D02*
X14674825Y-21669817D01*
X14674825Y-21669817D02*
X14646253Y-21669817D01*
X14646253Y-21669817D02*
X14627206Y-21660293D01*
X14627206Y-21660293D02*
X14617682Y-21641246D01*
X14617682Y-21641246D02*
X14617682Y-21631722D01*
X14617682Y-21631722D02*
X14627206Y-21612674D01*
X14627206Y-21612674D02*
X14646253Y-21603150D01*
X14646253Y-21603150D02*
X14674825Y-21603150D01*
X14674825Y-21603150D02*
X14693872Y-21612674D01*
X14770063Y-21812674D02*
X14779587Y-21803150D01*
X14779587Y-21803150D02*
X14798634Y-21774579D01*
X14798634Y-21774579D02*
X14808158Y-21755531D01*
X14808158Y-21755531D02*
X14817682Y-21726960D01*
X14817682Y-21726960D02*
X14827206Y-21679341D01*
X14827206Y-21679341D02*
X14827206Y-21641246D01*
X14827206Y-21641246D02*
X14817682Y-21593627D01*
X14817682Y-21593627D02*
X14808158Y-21565055D01*
X14808158Y-21565055D02*
X14798634Y-21546008D01*
X14798634Y-21546008D02*
X14779587Y-21517436D01*
X14779587Y-21517436D02*
X14770063Y-21507912D01*
D10*
X9995000Y-21909000D02*
G75*
G02*
X9895000Y-21909000I-50000J0D01*
G01*
X9895000Y-21909000D02*
G75*
G02*
X9995000Y-21909000I50000J0D01*
G01*
D11*
X10360539Y-22000484D02*
X10246253Y-22000484D01*
X10303396Y-22000484D02*
X10303396Y-21800484D01*
X10303396Y-21800484D02*
X10284348Y-21829055D01*
X10284348Y-21829055D02*
X10265301Y-21848103D01*
X10265301Y-21848103D02*
X10246253Y-21857627D01*
X10455777Y-21990960D02*
X10455777Y-22000484D01*
X10455777Y-22000484D02*
X10446253Y-22019531D01*
X10446253Y-22019531D02*
X10436729Y-22029055D01*
X10579586Y-21800484D02*
X10598634Y-21800484D01*
X10598634Y-21800484D02*
X10617682Y-21810008D01*
X10617682Y-21810008D02*
X10627205Y-21819531D01*
X10627205Y-21819531D02*
X10636729Y-21838579D01*
X10636729Y-21838579D02*
X10646253Y-21876674D01*
X10646253Y-21876674D02*
X10646253Y-21924293D01*
X10646253Y-21924293D02*
X10636729Y-21962389D01*
X10636729Y-21962389D02*
X10627205Y-21981436D01*
X10627205Y-21981436D02*
X10617682Y-21990960D01*
X10617682Y-21990960D02*
X10598634Y-22000484D01*
X10598634Y-22000484D02*
X10579586Y-22000484D01*
X10579586Y-22000484D02*
X10560539Y-21990960D01*
X10560539Y-21990960D02*
X10551015Y-21981436D01*
X10551015Y-21981436D02*
X10541491Y-21962389D01*
X10541491Y-21962389D02*
X10531967Y-21924293D01*
X10531967Y-21924293D02*
X10531967Y-21876674D01*
X10531967Y-21876674D02*
X10541491Y-21838579D01*
X10541491Y-21838579D02*
X10551015Y-21819531D01*
X10551015Y-21819531D02*
X10560539Y-21810008D01*
X10560539Y-21810008D02*
X10579586Y-21800484D01*
X10770063Y-21800484D02*
X10789110Y-21800484D01*
X10789110Y-21800484D02*
X10808158Y-21810008D01*
X10808158Y-21810008D02*
X10817682Y-21819531D01*
X10817682Y-21819531D02*
X10827205Y-21838579D01*
X10827205Y-21838579D02*
X10836729Y-21876674D01*
X10836729Y-21876674D02*
X10836729Y-21924293D01*
X10836729Y-21924293D02*
X10827205Y-21962389D01*
X10827205Y-21962389D02*
X10817682Y-21981436D01*
X10817682Y-21981436D02*
X10808158Y-21990960D01*
X10808158Y-21990960D02*
X10789110Y-22000484D01*
X10789110Y-22000484D02*
X10770063Y-22000484D01*
X10770063Y-22000484D02*
X10751015Y-21990960D01*
X10751015Y-21990960D02*
X10741491Y-21981436D01*
X10741491Y-21981436D02*
X10731967Y-21962389D01*
X10731967Y-21962389D02*
X10722444Y-21924293D01*
X10722444Y-21924293D02*
X10722444Y-21876674D01*
X10722444Y-21876674D02*
X10731967Y-21838579D01*
X10731967Y-21838579D02*
X10741491Y-21819531D01*
X10741491Y-21819531D02*
X10751015Y-21810008D01*
X10751015Y-21810008D02*
X10770063Y-21800484D01*
X10960539Y-21800484D02*
X10979586Y-21800484D01*
X10979586Y-21800484D02*
X10998634Y-21810008D01*
X10998634Y-21810008D02*
X11008158Y-21819531D01*
X11008158Y-21819531D02*
X11017682Y-21838579D01*
X11017682Y-21838579D02*
X11027205Y-21876674D01*
X11027205Y-21876674D02*
X11027205Y-21924293D01*
X11027205Y-21924293D02*
X11017682Y-21962389D01*
X11017682Y-21962389D02*
X11008158Y-21981436D01*
X11008158Y-21981436D02*
X10998634Y-21990960D01*
X10998634Y-21990960D02*
X10979586Y-22000484D01*
X10979586Y-22000484D02*
X10960539Y-22000484D01*
X10960539Y-22000484D02*
X10941491Y-21990960D01*
X10941491Y-21990960D02*
X10931967Y-21981436D01*
X10931967Y-21981436D02*
X10922444Y-21962389D01*
X10922444Y-21962389D02*
X10912920Y-21924293D01*
X10912920Y-21924293D02*
X10912920Y-21876674D01*
X10912920Y-21876674D02*
X10922444Y-21838579D01*
X10922444Y-21838579D02*
X10931967Y-21819531D01*
X10931967Y-21819531D02*
X10941491Y-21810008D01*
X10941491Y-21810008D02*
X10960539Y-21800484D01*
X11112920Y-22000484D02*
X11112920Y-21867150D01*
X11112920Y-21886198D02*
X11122444Y-21876674D01*
X11122444Y-21876674D02*
X11141491Y-21867150D01*
X11141491Y-21867150D02*
X11170063Y-21867150D01*
X11170063Y-21867150D02*
X11189110Y-21876674D01*
X11189110Y-21876674D02*
X11198634Y-21895722D01*
X11198634Y-21895722D02*
X11198634Y-22000484D01*
X11198634Y-21895722D02*
X11208158Y-21876674D01*
X11208158Y-21876674D02*
X11227205Y-21867150D01*
X11227205Y-21867150D02*
X11255777Y-21867150D01*
X11255777Y-21867150D02*
X11274824Y-21876674D01*
X11274824Y-21876674D02*
X11284348Y-21895722D01*
X11284348Y-21895722D02*
X11284348Y-22000484D01*
X11379586Y-22000484D02*
X11379586Y-21867150D01*
X11379586Y-21886198D02*
X11389110Y-21876674D01*
X11389110Y-21876674D02*
X11408158Y-21867150D01*
X11408158Y-21867150D02*
X11436729Y-21867150D01*
X11436729Y-21867150D02*
X11455777Y-21876674D01*
X11455777Y-21876674D02*
X11465301Y-21895722D01*
X11465301Y-21895722D02*
X11465301Y-22000484D01*
X11465301Y-21895722D02*
X11474824Y-21876674D01*
X11474824Y-21876674D02*
X11493872Y-21867150D01*
X11493872Y-21867150D02*
X11522443Y-21867150D01*
X11522443Y-21867150D02*
X11541491Y-21876674D01*
X11541491Y-21876674D02*
X11551015Y-21895722D01*
X11551015Y-21895722D02*
X11551015Y-22000484D01*
X11941491Y-21790960D02*
X11770063Y-22048103D01*
X12198634Y-21800484D02*
X12217682Y-21800484D01*
X12217682Y-21800484D02*
X12236729Y-21810008D01*
X12236729Y-21810008D02*
X12246253Y-21819531D01*
X12246253Y-21819531D02*
X12255777Y-21838579D01*
X12255777Y-21838579D02*
X12265301Y-21876674D01*
X12265301Y-21876674D02*
X12265301Y-21924293D01*
X12265301Y-21924293D02*
X12255777Y-21962389D01*
X12255777Y-21962389D02*
X12246253Y-21981436D01*
X12246253Y-21981436D02*
X12236729Y-21990960D01*
X12236729Y-21990960D02*
X12217682Y-22000484D01*
X12217682Y-22000484D02*
X12198634Y-22000484D01*
X12198634Y-22000484D02*
X12179586Y-21990960D01*
X12179586Y-21990960D02*
X12170063Y-21981436D01*
X12170063Y-21981436D02*
X12160539Y-21962389D01*
X12160539Y-21962389D02*
X12151015Y-21924293D01*
X12151015Y-21924293D02*
X12151015Y-21876674D01*
X12151015Y-21876674D02*
X12160539Y-21838579D01*
X12160539Y-21838579D02*
X12170063Y-21819531D01*
X12170063Y-21819531D02*
X12179586Y-21810008D01*
X12179586Y-21810008D02*
X12198634Y-21800484D01*
X12360539Y-21990960D02*
X12360539Y-22000484D01*
X12360539Y-22000484D02*
X12351015Y-22019531D01*
X12351015Y-22019531D02*
X12341491Y-22029055D01*
X12484348Y-21800484D02*
X12503396Y-21800484D01*
X12503396Y-21800484D02*
X12522444Y-21810008D01*
X12522444Y-21810008D02*
X12531967Y-21819531D01*
X12531967Y-21819531D02*
X12541491Y-21838579D01*
X12541491Y-21838579D02*
X12551015Y-21876674D01*
X12551015Y-21876674D02*
X12551015Y-21924293D01*
X12551015Y-21924293D02*
X12541491Y-21962389D01*
X12541491Y-21962389D02*
X12531967Y-21981436D01*
X12531967Y-21981436D02*
X12522444Y-21990960D01*
X12522444Y-21990960D02*
X12503396Y-22000484D01*
X12503396Y-22000484D02*
X12484348Y-22000484D01*
X12484348Y-22000484D02*
X12465301Y-21990960D01*
X12465301Y-21990960D02*
X12455777Y-21981436D01*
X12455777Y-21981436D02*
X12446253Y-21962389D01*
X12446253Y-21962389D02*
X12436729Y-21924293D01*
X12436729Y-21924293D02*
X12436729Y-21876674D01*
X12436729Y-21876674D02*
X12446253Y-21838579D01*
X12446253Y-21838579D02*
X12455777Y-21819531D01*
X12455777Y-21819531D02*
X12465301Y-21810008D01*
X12465301Y-21810008D02*
X12484348Y-21800484D01*
X12617682Y-21800484D02*
X12741491Y-21800484D01*
X12741491Y-21800484D02*
X12674825Y-21876674D01*
X12674825Y-21876674D02*
X12703396Y-21876674D01*
X12703396Y-21876674D02*
X12722444Y-21886198D01*
X12722444Y-21886198D02*
X12731967Y-21895722D01*
X12731967Y-21895722D02*
X12741491Y-21914770D01*
X12741491Y-21914770D02*
X12741491Y-21962389D01*
X12741491Y-21962389D02*
X12731967Y-21981436D01*
X12731967Y-21981436D02*
X12722444Y-21990960D01*
X12722444Y-21990960D02*
X12703396Y-22000484D01*
X12703396Y-22000484D02*
X12646253Y-22000484D01*
X12646253Y-22000484D02*
X12627206Y-21990960D01*
X12627206Y-21990960D02*
X12617682Y-21981436D01*
X12836729Y-22000484D02*
X12874825Y-22000484D01*
X12874825Y-22000484D02*
X12893872Y-21990960D01*
X12893872Y-21990960D02*
X12903396Y-21981436D01*
X12903396Y-21981436D02*
X12922444Y-21952865D01*
X12922444Y-21952865D02*
X12931967Y-21914770D01*
X12931967Y-21914770D02*
X12931967Y-21838579D01*
X12931967Y-21838579D02*
X12922444Y-21819531D01*
X12922444Y-21819531D02*
X12912920Y-21810008D01*
X12912920Y-21810008D02*
X12893872Y-21800484D01*
X12893872Y-21800484D02*
X12855777Y-21800484D01*
X12855777Y-21800484D02*
X12836729Y-21810008D01*
X12836729Y-21810008D02*
X12827206Y-21819531D01*
X12827206Y-21819531D02*
X12817682Y-21838579D01*
X12817682Y-21838579D02*
X12817682Y-21886198D01*
X12817682Y-21886198D02*
X12827206Y-21905246D01*
X12827206Y-21905246D02*
X12836729Y-21914770D01*
X12836729Y-21914770D02*
X12855777Y-21924293D01*
X12855777Y-21924293D02*
X12893872Y-21924293D01*
X12893872Y-21924293D02*
X12912920Y-21914770D01*
X12912920Y-21914770D02*
X12922444Y-21905246D01*
X12922444Y-21905246D02*
X12931967Y-21886198D01*
X13103396Y-21867150D02*
X13103396Y-22000484D01*
X13055777Y-21790960D02*
X13008158Y-21933817D01*
X13008158Y-21933817D02*
X13131967Y-21933817D01*
X13198634Y-21800484D02*
X13198634Y-21838579D01*
X13274825Y-21800484D02*
X13274825Y-21838579D01*
X13570063Y-22076674D02*
X13560539Y-22067150D01*
X13560539Y-22067150D02*
X13541491Y-22038579D01*
X13541491Y-22038579D02*
X13531968Y-22019531D01*
X13531968Y-22019531D02*
X13522444Y-21990960D01*
X13522444Y-21990960D02*
X13512920Y-21943341D01*
X13512920Y-21943341D02*
X13512920Y-21905246D01*
X13512920Y-21905246D02*
X13522444Y-21857627D01*
X13522444Y-21857627D02*
X13531968Y-21829055D01*
X13531968Y-21829055D02*
X13541491Y-21810008D01*
X13541491Y-21810008D02*
X13560539Y-21781436D01*
X13560539Y-21781436D02*
X13570063Y-21771912D01*
X13627206Y-21800484D02*
X13751015Y-21800484D01*
X13751015Y-21800484D02*
X13684348Y-21876674D01*
X13684348Y-21876674D02*
X13712920Y-21876674D01*
X13712920Y-21876674D02*
X13731968Y-21886198D01*
X13731968Y-21886198D02*
X13741491Y-21895722D01*
X13741491Y-21895722D02*
X13751015Y-21914770D01*
X13751015Y-21914770D02*
X13751015Y-21962389D01*
X13751015Y-21962389D02*
X13741491Y-21981436D01*
X13741491Y-21981436D02*
X13731968Y-21990960D01*
X13731968Y-21990960D02*
X13712920Y-22000484D01*
X13712920Y-22000484D02*
X13655777Y-22000484D01*
X13655777Y-22000484D02*
X13636729Y-21990960D01*
X13636729Y-21990960D02*
X13627206Y-21981436D01*
X13922444Y-21867150D02*
X13922444Y-22000484D01*
X13874825Y-21790960D02*
X13827206Y-21933817D01*
X13827206Y-21933817D02*
X13951015Y-21933817D01*
X14179587Y-22000484D02*
X14179587Y-21800484D01*
X14265301Y-22000484D02*
X14265301Y-21895722D01*
X14265301Y-21895722D02*
X14255777Y-21876674D01*
X14255777Y-21876674D02*
X14236730Y-21867150D01*
X14236730Y-21867150D02*
X14208158Y-21867150D01*
X14208158Y-21867150D02*
X14189110Y-21876674D01*
X14189110Y-21876674D02*
X14179587Y-21886198D01*
X14389110Y-22000484D02*
X14370063Y-21990960D01*
X14370063Y-21990960D02*
X14360539Y-21981436D01*
X14360539Y-21981436D02*
X14351015Y-21962389D01*
X14351015Y-21962389D02*
X14351015Y-21905246D01*
X14351015Y-21905246D02*
X14360539Y-21886198D01*
X14360539Y-21886198D02*
X14370063Y-21876674D01*
X14370063Y-21876674D02*
X14389110Y-21867150D01*
X14389110Y-21867150D02*
X14417682Y-21867150D01*
X14417682Y-21867150D02*
X14436730Y-21876674D01*
X14436730Y-21876674D02*
X14446253Y-21886198D01*
X14446253Y-21886198D02*
X14455777Y-21905246D01*
X14455777Y-21905246D02*
X14455777Y-21962389D01*
X14455777Y-21962389D02*
X14446253Y-21981436D01*
X14446253Y-21981436D02*
X14436730Y-21990960D01*
X14436730Y-21990960D02*
X14417682Y-22000484D01*
X14417682Y-22000484D02*
X14389110Y-22000484D01*
X14570063Y-22000484D02*
X14551015Y-21990960D01*
X14551015Y-21990960D02*
X14541491Y-21971912D01*
X14541491Y-21971912D02*
X14541491Y-21800484D01*
X14722444Y-21990960D02*
X14703396Y-22000484D01*
X14703396Y-22000484D02*
X14665301Y-22000484D01*
X14665301Y-22000484D02*
X14646253Y-21990960D01*
X14646253Y-21990960D02*
X14636730Y-21971912D01*
X14636730Y-21971912D02*
X14636730Y-21895722D01*
X14636730Y-21895722D02*
X14646253Y-21876674D01*
X14646253Y-21876674D02*
X14665301Y-21867150D01*
X14665301Y-21867150D02*
X14703396Y-21867150D01*
X14703396Y-21867150D02*
X14722444Y-21876674D01*
X14722444Y-21876674D02*
X14731968Y-21895722D01*
X14731968Y-21895722D02*
X14731968Y-21914770D01*
X14731968Y-21914770D02*
X14636730Y-21933817D01*
X14808158Y-21990960D02*
X14827206Y-22000484D01*
X14827206Y-22000484D02*
X14865301Y-22000484D01*
X14865301Y-22000484D02*
X14884349Y-21990960D01*
X14884349Y-21990960D02*
X14893872Y-21971912D01*
X14893872Y-21971912D02*
X14893872Y-21962389D01*
X14893872Y-21962389D02*
X14884349Y-21943341D01*
X14884349Y-21943341D02*
X14865301Y-21933817D01*
X14865301Y-21933817D02*
X14836730Y-21933817D01*
X14836730Y-21933817D02*
X14817682Y-21924293D01*
X14817682Y-21924293D02*
X14808158Y-21905246D01*
X14808158Y-21905246D02*
X14808158Y-21895722D01*
X14808158Y-21895722D02*
X14817682Y-21876674D01*
X14817682Y-21876674D02*
X14836730Y-21867150D01*
X14836730Y-21867150D02*
X14865301Y-21867150D01*
X14865301Y-21867150D02*
X14884349Y-21876674D01*
X14960539Y-22076674D02*
X14970063Y-22067150D01*
X14970063Y-22067150D02*
X14989111Y-22038579D01*
X14989111Y-22038579D02*
X14998634Y-22019531D01*
X14998634Y-22019531D02*
X15008158Y-21990960D01*
X15008158Y-21990960D02*
X15017682Y-21943341D01*
X15017682Y-21943341D02*
X15017682Y-21905246D01*
X15017682Y-21905246D02*
X15008158Y-21857627D01*
X15008158Y-21857627D02*
X14998634Y-21829055D01*
X14998634Y-21829055D02*
X14989111Y-21810008D01*
X14989111Y-21810008D02*
X14970063Y-21781436D01*
X14970063Y-21781436D02*
X14960539Y-21771912D01*
M02*
