%TF.GenerationSoftware,KiCad,Pcbnew,10.0.3*%
%TF.CreationDate,2026-07-08T12:05:30+02:00*%
%TF.ProjectId,musicbrain-jack4,6d757369-6362-4726-9169-6e2d6a61636b,1.0*%
%TF.SameCoordinates,Original*%
%TF.FileFunction,Legend,Top*%
%TF.FilePolarity,Positive*%
%FSLAX46Y46*%
G04 Gerber Fmt 4.6, Leading zero omitted, Abs format (unit mm)*
G04 Created by KiCad (PCBNEW 10.0.3) date 2026-07-08 12:05:30*
%MOMM*%
%LPD*%
G01*
G04 APERTURE LIST*
%ADD10C,0.150000*%
%ADD11C,0.120000*%
G04 APERTURE END LIST*
D10*
X110454819Y-175404761D02*
X109788152Y-175404761D01*
X109883390Y-175404761D02*
X109835771Y-175357142D01*
X109835771Y-175357142D02*
X109788152Y-175261904D01*
X109788152Y-175261904D02*
X109788152Y-175119047D01*
X109788152Y-175119047D02*
X109835771Y-175023809D01*
X109835771Y-175023809D02*
X109931009Y-174976190D01*
X109931009Y-174976190D02*
X110454819Y-174976190D01*
X109931009Y-174976190D02*
X109835771Y-174928571D01*
X109835771Y-174928571D02*
X109788152Y-174833333D01*
X109788152Y-174833333D02*
X109788152Y-174690476D01*
X109788152Y-174690476D02*
X109835771Y-174595237D01*
X109835771Y-174595237D02*
X109931009Y-174547618D01*
X109931009Y-174547618D02*
X110454819Y-174547618D01*
X109788152Y-173642857D02*
X110454819Y-173642857D01*
X109788152Y-174071428D02*
X110311961Y-174071428D01*
X110311961Y-174071428D02*
X110407200Y-174023809D01*
X110407200Y-174023809D02*
X110454819Y-173928571D01*
X110454819Y-173928571D02*
X110454819Y-173785714D01*
X110454819Y-173785714D02*
X110407200Y-173690476D01*
X110407200Y-173690476D02*
X110359580Y-173642857D01*
X110407200Y-173214285D02*
X110454819Y-173119047D01*
X110454819Y-173119047D02*
X110454819Y-172928571D01*
X110454819Y-172928571D02*
X110407200Y-172833333D01*
X110407200Y-172833333D02*
X110311961Y-172785714D01*
X110311961Y-172785714D02*
X110264342Y-172785714D01*
X110264342Y-172785714D02*
X110169104Y-172833333D01*
X110169104Y-172833333D02*
X110121485Y-172928571D01*
X110121485Y-172928571D02*
X110121485Y-173071428D01*
X110121485Y-173071428D02*
X110073866Y-173166666D01*
X110073866Y-173166666D02*
X109978628Y-173214285D01*
X109978628Y-173214285D02*
X109931009Y-173214285D01*
X109931009Y-173214285D02*
X109835771Y-173166666D01*
X109835771Y-173166666D02*
X109788152Y-173071428D01*
X109788152Y-173071428D02*
X109788152Y-172928571D01*
X109788152Y-172928571D02*
X109835771Y-172833333D01*
X110454819Y-172357142D02*
X109788152Y-172357142D01*
X109454819Y-172357142D02*
X109502438Y-172404761D01*
X109502438Y-172404761D02*
X109550057Y-172357142D01*
X109550057Y-172357142D02*
X109502438Y-172309523D01*
X109502438Y-172309523D02*
X109454819Y-172357142D01*
X109454819Y-172357142D02*
X109550057Y-172357142D01*
X110407200Y-171452381D02*
X110454819Y-171547619D01*
X110454819Y-171547619D02*
X110454819Y-171738095D01*
X110454819Y-171738095D02*
X110407200Y-171833333D01*
X110407200Y-171833333D02*
X110359580Y-171880952D01*
X110359580Y-171880952D02*
X110264342Y-171928571D01*
X110264342Y-171928571D02*
X109978628Y-171928571D01*
X109978628Y-171928571D02*
X109883390Y-171880952D01*
X109883390Y-171880952D02*
X109835771Y-171833333D01*
X109835771Y-171833333D02*
X109788152Y-171738095D01*
X109788152Y-171738095D02*
X109788152Y-171547619D01*
X109788152Y-171547619D02*
X109835771Y-171452381D01*
X110454819Y-171023809D02*
X109454819Y-171023809D01*
X109835771Y-171023809D02*
X109788152Y-170928571D01*
X109788152Y-170928571D02*
X109788152Y-170738095D01*
X109788152Y-170738095D02*
X109835771Y-170642857D01*
X109835771Y-170642857D02*
X109883390Y-170595238D01*
X109883390Y-170595238D02*
X109978628Y-170547619D01*
X109978628Y-170547619D02*
X110264342Y-170547619D01*
X110264342Y-170547619D02*
X110359580Y-170595238D01*
X110359580Y-170595238D02*
X110407200Y-170642857D01*
X110407200Y-170642857D02*
X110454819Y-170738095D01*
X110454819Y-170738095D02*
X110454819Y-170928571D01*
X110454819Y-170928571D02*
X110407200Y-171023809D01*
X110454819Y-170119047D02*
X109788152Y-170119047D01*
X109978628Y-170119047D02*
X109883390Y-170071428D01*
X109883390Y-170071428D02*
X109835771Y-170023809D01*
X109835771Y-170023809D02*
X109788152Y-169928571D01*
X109788152Y-169928571D02*
X109788152Y-169833333D01*
X110454819Y-169071428D02*
X109931009Y-169071428D01*
X109931009Y-169071428D02*
X109835771Y-169119047D01*
X109835771Y-169119047D02*
X109788152Y-169214285D01*
X109788152Y-169214285D02*
X109788152Y-169404761D01*
X109788152Y-169404761D02*
X109835771Y-169499999D01*
X110407200Y-169071428D02*
X110454819Y-169166666D01*
X110454819Y-169166666D02*
X110454819Y-169404761D01*
X110454819Y-169404761D02*
X110407200Y-169499999D01*
X110407200Y-169499999D02*
X110311961Y-169547618D01*
X110311961Y-169547618D02*
X110216723Y-169547618D01*
X110216723Y-169547618D02*
X110121485Y-169499999D01*
X110121485Y-169499999D02*
X110073866Y-169404761D01*
X110073866Y-169404761D02*
X110073866Y-169166666D01*
X110073866Y-169166666D02*
X110026247Y-169071428D01*
X110454819Y-168595237D02*
X109788152Y-168595237D01*
X109454819Y-168595237D02*
X109502438Y-168642856D01*
X109502438Y-168642856D02*
X109550057Y-168595237D01*
X109550057Y-168595237D02*
X109502438Y-168547618D01*
X109502438Y-168547618D02*
X109454819Y-168595237D01*
X109454819Y-168595237D02*
X109550057Y-168595237D01*
X109788152Y-168119047D02*
X110454819Y-168119047D01*
X109883390Y-168119047D02*
X109835771Y-168071428D01*
X109835771Y-168071428D02*
X109788152Y-167976190D01*
X109788152Y-167976190D02*
X109788152Y-167833333D01*
X109788152Y-167833333D02*
X109835771Y-167738095D01*
X109835771Y-167738095D02*
X109931009Y-167690476D01*
X109931009Y-167690476D02*
X110454819Y-167690476D01*
X110359580Y-167214285D02*
X110407200Y-167166666D01*
X110407200Y-167166666D02*
X110454819Y-167214285D01*
X110454819Y-167214285D02*
X110407200Y-167261904D01*
X110407200Y-167261904D02*
X110359580Y-167214285D01*
X110359580Y-167214285D02*
X110454819Y-167214285D01*
X109788152Y-166738095D02*
X110454819Y-166738095D01*
X109883390Y-166738095D02*
X109835771Y-166690476D01*
X109835771Y-166690476D02*
X109788152Y-166595238D01*
X109788152Y-166595238D02*
X109788152Y-166452381D01*
X109788152Y-166452381D02*
X109835771Y-166357143D01*
X109835771Y-166357143D02*
X109931009Y-166309524D01*
X109931009Y-166309524D02*
X110454819Y-166309524D01*
X110454819Y-165690476D02*
X110407200Y-165785714D01*
X110407200Y-165785714D02*
X110311961Y-165833333D01*
X110311961Y-165833333D02*
X109454819Y-165833333D01*
X109407200Y-164595238D02*
X110692914Y-165452380D01*
X110454819Y-164261904D02*
X109454819Y-164261904D01*
X110454819Y-163833333D02*
X109931009Y-163833333D01*
X109931009Y-163833333D02*
X109835771Y-163880952D01*
X109835771Y-163880952D02*
X109788152Y-163976190D01*
X109788152Y-163976190D02*
X109788152Y-164119047D01*
X109788152Y-164119047D02*
X109835771Y-164214285D01*
X109835771Y-164214285D02*
X109883390Y-164261904D01*
X109788152Y-163452380D02*
X110454819Y-163261904D01*
X110454819Y-163261904D02*
X109978628Y-163071428D01*
X109978628Y-163071428D02*
X110454819Y-162880952D01*
X110454819Y-162880952D02*
X109788152Y-162690476D01*
X109407200Y-161595238D02*
X110692914Y-162452380D01*
X109788152Y-161261904D02*
X110645295Y-161261904D01*
X110645295Y-161261904D02*
X110740533Y-161309523D01*
X110740533Y-161309523D02*
X110788152Y-161404761D01*
X110788152Y-161404761D02*
X110788152Y-161452380D01*
X109454819Y-161261904D02*
X109502438Y-161309523D01*
X109502438Y-161309523D02*
X109550057Y-161261904D01*
X109550057Y-161261904D02*
X109502438Y-161214285D01*
X109502438Y-161214285D02*
X109454819Y-161261904D01*
X109454819Y-161261904D02*
X109550057Y-161261904D01*
X110454819Y-160357143D02*
X109931009Y-160357143D01*
X109931009Y-160357143D02*
X109835771Y-160404762D01*
X109835771Y-160404762D02*
X109788152Y-160500000D01*
X109788152Y-160500000D02*
X109788152Y-160690476D01*
X109788152Y-160690476D02*
X109835771Y-160785714D01*
X110407200Y-160357143D02*
X110454819Y-160452381D01*
X110454819Y-160452381D02*
X110454819Y-160690476D01*
X110454819Y-160690476D02*
X110407200Y-160785714D01*
X110407200Y-160785714D02*
X110311961Y-160833333D01*
X110311961Y-160833333D02*
X110216723Y-160833333D01*
X110216723Y-160833333D02*
X110121485Y-160785714D01*
X110121485Y-160785714D02*
X110073866Y-160690476D01*
X110073866Y-160690476D02*
X110073866Y-160452381D01*
X110073866Y-160452381D02*
X110026247Y-160357143D01*
X110407200Y-159452381D02*
X110454819Y-159547619D01*
X110454819Y-159547619D02*
X110454819Y-159738095D01*
X110454819Y-159738095D02*
X110407200Y-159833333D01*
X110407200Y-159833333D02*
X110359580Y-159880952D01*
X110359580Y-159880952D02*
X110264342Y-159928571D01*
X110264342Y-159928571D02*
X109978628Y-159928571D01*
X109978628Y-159928571D02*
X109883390Y-159880952D01*
X109883390Y-159880952D02*
X109835771Y-159833333D01*
X109835771Y-159833333D02*
X109788152Y-159738095D01*
X109788152Y-159738095D02*
X109788152Y-159547619D01*
X109788152Y-159547619D02*
X109835771Y-159452381D01*
X110454819Y-159023809D02*
X109454819Y-159023809D01*
X110073866Y-158928571D02*
X110454819Y-158642857D01*
X109788152Y-158642857D02*
X110169104Y-159023809D01*
X109788152Y-157785714D02*
X110454819Y-157785714D01*
X109407200Y-158023809D02*
X110121485Y-158261904D01*
X110121485Y-158261904D02*
X110121485Y-157642857D01*
X110454819Y-156499999D02*
X109788152Y-156499999D01*
X109978628Y-156499999D02*
X109883390Y-156452380D01*
X109883390Y-156452380D02*
X109835771Y-156404761D01*
X109835771Y-156404761D02*
X109788152Y-156309523D01*
X109788152Y-156309523D02*
X109788152Y-156214285D01*
X110407200Y-155499999D02*
X110454819Y-155595237D01*
X110454819Y-155595237D02*
X110454819Y-155785713D01*
X110454819Y-155785713D02*
X110407200Y-155880951D01*
X110407200Y-155880951D02*
X110311961Y-155928570D01*
X110311961Y-155928570D02*
X109931009Y-155928570D01*
X109931009Y-155928570D02*
X109835771Y-155880951D01*
X109835771Y-155880951D02*
X109788152Y-155785713D01*
X109788152Y-155785713D02*
X109788152Y-155595237D01*
X109788152Y-155595237D02*
X109835771Y-155499999D01*
X109835771Y-155499999D02*
X109931009Y-155452380D01*
X109931009Y-155452380D02*
X110026247Y-155452380D01*
X110026247Y-155452380D02*
X110121485Y-155928570D01*
X109788152Y-155119046D02*
X110454819Y-154880951D01*
X110454819Y-154880951D02*
X109788152Y-154642856D01*
X110454819Y-152976189D02*
X110454819Y-153547617D01*
X110454819Y-153261903D02*
X109454819Y-153261903D01*
X109454819Y-153261903D02*
X109597676Y-153357141D01*
X109597676Y-153357141D02*
X109692914Y-153452379D01*
X109692914Y-153452379D02*
X109740533Y-153547617D01*
X110359580Y-152547617D02*
X110407200Y-152499998D01*
X110407200Y-152499998D02*
X110454819Y-152547617D01*
X110454819Y-152547617D02*
X110407200Y-152595236D01*
X110407200Y-152595236D02*
X110359580Y-152547617D01*
X110359580Y-152547617D02*
X110454819Y-152547617D01*
X109454819Y-151880951D02*
X109454819Y-151785713D01*
X109454819Y-151785713D02*
X109502438Y-151690475D01*
X109502438Y-151690475D02*
X109550057Y-151642856D01*
X109550057Y-151642856D02*
X109645295Y-151595237D01*
X109645295Y-151595237D02*
X109835771Y-151547618D01*
X109835771Y-151547618D02*
X110073866Y-151547618D01*
X110073866Y-151547618D02*
X110264342Y-151595237D01*
X110264342Y-151595237D02*
X110359580Y-151642856D01*
X110359580Y-151642856D02*
X110407200Y-151690475D01*
X110407200Y-151690475D02*
X110454819Y-151785713D01*
X110454819Y-151785713D02*
X110454819Y-151880951D01*
X110454819Y-151880951D02*
X110407200Y-151976189D01*
X110407200Y-151976189D02*
X110359580Y-152023808D01*
X110359580Y-152023808D02*
X110264342Y-152071427D01*
X110264342Y-152071427D02*
X110073866Y-152119046D01*
X110073866Y-152119046D02*
X109835771Y-152119046D01*
X109835771Y-152119046D02*
X109645295Y-152071427D01*
X109645295Y-152071427D02*
X109550057Y-152023808D01*
X109550057Y-152023808D02*
X109502438Y-151976189D01*
X109502438Y-151976189D02*
X109454819Y-151880951D01*
X113754819Y-108333333D02*
X114469104Y-108333333D01*
X114469104Y-108333333D02*
X114611961Y-108380952D01*
X114611961Y-108380952D02*
X114707200Y-108476190D01*
X114707200Y-108476190D02*
X114754819Y-108619047D01*
X114754819Y-108619047D02*
X114754819Y-108714285D01*
X113850057Y-107904761D02*
X113802438Y-107857142D01*
X113802438Y-107857142D02*
X113754819Y-107761904D01*
X113754819Y-107761904D02*
X113754819Y-107523809D01*
X113754819Y-107523809D02*
X113802438Y-107428571D01*
X113802438Y-107428571D02*
X113850057Y-107380952D01*
X113850057Y-107380952D02*
X113945295Y-107333333D01*
X113945295Y-107333333D02*
X114040533Y-107333333D01*
X114040533Y-107333333D02*
X114183390Y-107380952D01*
X114183390Y-107380952D02*
X114754819Y-107952380D01*
X114754819Y-107952380D02*
X114754819Y-107333333D01*
X113754819Y-123333333D02*
X114469104Y-123333333D01*
X114469104Y-123333333D02*
X114611961Y-123380952D01*
X114611961Y-123380952D02*
X114707200Y-123476190D01*
X114707200Y-123476190D02*
X114754819Y-123619047D01*
X114754819Y-123619047D02*
X114754819Y-123714285D01*
X113754819Y-122952380D02*
X113754819Y-122333333D01*
X113754819Y-122333333D02*
X114135771Y-122666666D01*
X114135771Y-122666666D02*
X114135771Y-122523809D01*
X114135771Y-122523809D02*
X114183390Y-122428571D01*
X114183390Y-122428571D02*
X114231009Y-122380952D01*
X114231009Y-122380952D02*
X114326247Y-122333333D01*
X114326247Y-122333333D02*
X114564342Y-122333333D01*
X114564342Y-122333333D02*
X114659580Y-122380952D01*
X114659580Y-122380952D02*
X114707200Y-122428571D01*
X114707200Y-122428571D02*
X114754819Y-122523809D01*
X114754819Y-122523809D02*
X114754819Y-122809523D01*
X114754819Y-122809523D02*
X114707200Y-122904761D01*
X114707200Y-122904761D02*
X114659580Y-122952380D01*
X113754819Y-138333333D02*
X114469104Y-138333333D01*
X114469104Y-138333333D02*
X114611961Y-138380952D01*
X114611961Y-138380952D02*
X114707200Y-138476190D01*
X114707200Y-138476190D02*
X114754819Y-138619047D01*
X114754819Y-138619047D02*
X114754819Y-138714285D01*
X114088152Y-137428571D02*
X114754819Y-137428571D01*
X113707200Y-137666666D02*
X114421485Y-137904761D01*
X114421485Y-137904761D02*
X114421485Y-137285714D01*
X113754819Y-153333333D02*
X114469104Y-153333333D01*
X114469104Y-153333333D02*
X114611961Y-153380952D01*
X114611961Y-153380952D02*
X114707200Y-153476190D01*
X114707200Y-153476190D02*
X114754819Y-153619047D01*
X114754819Y-153619047D02*
X114754819Y-153714285D01*
X113754819Y-152380952D02*
X113754819Y-152857142D01*
X113754819Y-152857142D02*
X114231009Y-152904761D01*
X114231009Y-152904761D02*
X114183390Y-152857142D01*
X114183390Y-152857142D02*
X114135771Y-152761904D01*
X114135771Y-152761904D02*
X114135771Y-152523809D01*
X114135771Y-152523809D02*
X114183390Y-152428571D01*
X114183390Y-152428571D02*
X114231009Y-152380952D01*
X114231009Y-152380952D02*
X114326247Y-152333333D01*
X114326247Y-152333333D02*
X114564342Y-152333333D01*
X114564342Y-152333333D02*
X114659580Y-152380952D01*
X114659580Y-152380952D02*
X114707200Y-152428571D01*
X114707200Y-152428571D02*
X114754819Y-152523809D01*
X114754819Y-152523809D02*
X114754819Y-152761904D01*
X114754819Y-152761904D02*
X114707200Y-152857142D01*
X114707200Y-152857142D02*
X114659580Y-152904761D01*
X117466666Y-123404819D02*
X117466666Y-124119104D01*
X117466666Y-124119104D02*
X117419047Y-124261961D01*
X117419047Y-124261961D02*
X117323809Y-124357200D01*
X117323809Y-124357200D02*
X117180952Y-124404819D01*
X117180952Y-124404819D02*
X117085714Y-124404819D01*
X118466666Y-124404819D02*
X117895238Y-124404819D01*
X118180952Y-124404819D02*
X118180952Y-123404819D01*
X118180952Y-123404819D02*
X118085714Y-123547676D01*
X118085714Y-123547676D02*
X117990476Y-123642914D01*
X117990476Y-123642914D02*
X117895238Y-123690533D01*
X102666666Y-159254819D02*
X102666666Y-159969104D01*
X102666666Y-159969104D02*
X102619047Y-160111961D01*
X102619047Y-160111961D02*
X102523809Y-160207200D01*
X102523809Y-160207200D02*
X102380952Y-160254819D01*
X102380952Y-160254819D02*
X102285714Y-160254819D01*
X103142857Y-160254819D02*
X103142857Y-159254819D01*
X103142857Y-159254819D02*
X103523809Y-159254819D01*
X103523809Y-159254819D02*
X103619047Y-159302438D01*
X103619047Y-159302438D02*
X103666666Y-159350057D01*
X103666666Y-159350057D02*
X103714285Y-159445295D01*
X103714285Y-159445295D02*
X103714285Y-159588152D01*
X103714285Y-159588152D02*
X103666666Y-159683390D01*
X103666666Y-159683390D02*
X103619047Y-159731009D01*
X103619047Y-159731009D02*
X103523809Y-159778628D01*
X103523809Y-159778628D02*
X103142857Y-159778628D01*
X104666666Y-160254819D02*
X104095238Y-160254819D01*
X104380952Y-160254819D02*
X104380952Y-159254819D01*
X104380952Y-159254819D02*
X104285714Y-159397676D01*
X104285714Y-159397676D02*
X104190476Y-159492914D01*
X104190476Y-159492914D02*
X104095238Y-159540533D01*
%TO.C,J2*%
D11*
X103500000Y-102250000D02*
X112500000Y-102250000D01*
X112500000Y-114080000D01*
X103500000Y-114080000D01*
X103500000Y-102250000D01*
%TO.C,J3*%
X103500000Y-117250000D02*
X112500000Y-117250000D01*
X112500000Y-129080000D01*
X103500000Y-129080000D01*
X103500000Y-117250000D01*
%TO.C,J4*%
X103500000Y-132250000D02*
X112500000Y-132250000D01*
X112500000Y-144080000D01*
X103500000Y-144080000D01*
X103500000Y-132250000D01*
%TO.C,J5*%
X103500000Y-147250000D02*
X112500000Y-147250000D01*
X112500000Y-159080000D01*
X103500000Y-159080000D01*
X103500000Y-147250000D01*
%TD*%
M02*
