%TF.GenerationSoftware,KiCad,Pcbnew,10.0.3*%
%TF.CreationDate,2026-07-08T12:05:22+02:00*%
%TF.ProjectId,musicbrain-gate8,6d757369-6362-4726-9169-6e2d67617465,1.1*%
%TF.SameCoordinates,Original*%
%TF.FileFunction,Copper,L1,Top*%
%TF.FilePolarity,Positive*%
%FSLAX46Y46*%
G04 Gerber Fmt 4.6, Leading zero omitted, Abs format (unit mm)*
G04 Created by KiCad (PCBNEW 10.0.3) date 2026-07-08 12:05:22*
%MOMM*%
%LPD*%
G01*
G04 APERTURE LIST*
G04 Aperture macros list*
%AMRoundRect*
0 Rectangle with rounded corners*
0 $1 Rounding radius*
0 $2 $3 $4 $5 $6 $7 $8 $9 X,Y pos of 4 corners*
0 Add a 4 corners polygon primitive as box body*
4,1,4,$2,$3,$4,$5,$6,$7,$8,$9,$2,$3,0*
0 Add four circle primitives for the rounded corners*
1,1,$1+$1,$2,$3*
1,1,$1+$1,$4,$5*
1,1,$1+$1,$6,$7*
1,1,$1+$1,$8,$9*
0 Add four rect primitives between the rounded corners*
20,1,$1+$1,$2,$3,$4,$5,0*
20,1,$1+$1,$4,$5,$6,$7,0*
20,1,$1+$1,$6,$7,$8,$9,0*
20,1,$1+$1,$8,$9,$2,$3,0*%
G04 Aperture macros list end*
%TA.AperFunction,ComponentPad*%
%ADD10R,1.700000X1.700000*%
%TD*%
%TA.AperFunction,ComponentPad*%
%ADD11C,1.700000*%
%TD*%
%TA.AperFunction,SMDPad,CuDef*%
%ADD12RoundRect,0.150000X-0.825000X-0.150000X0.825000X-0.150000X0.825000X0.150000X-0.825000X0.150000X0*%
%TD*%
%TA.AperFunction,SMDPad,CuDef*%
%ADD13RoundRect,0.375000X-0.625000X-0.375000X0.625000X-0.375000X0.625000X0.375000X-0.625000X0.375000X0*%
%TD*%
%TA.AperFunction,SMDPad,CuDef*%
%ADD14RoundRect,0.500000X-0.500000X-1.400000X0.500000X-1.400000X0.500000X1.400000X-0.500000X1.400000X0*%
%TD*%
%TA.AperFunction,SMDPad,CuDef*%
%ADD15RoundRect,0.250000X-0.250000X-0.475000X0.250000X-0.475000X0.250000X0.475000X-0.250000X0.475000X0*%
%TD*%
%TA.AperFunction,SMDPad,CuDef*%
%ADD16RoundRect,0.250000X-1.050000X-0.550000X1.050000X-0.550000X1.050000X0.550000X-1.050000X0.550000X0*%
%TD*%
%TA.AperFunction,SMDPad,CuDef*%
%ADD17RoundRect,0.250000X-0.262500X-0.450000X0.262500X-0.450000X0.262500X0.450000X-0.262500X0.450000X0*%
%TD*%
%TA.AperFunction,ViaPad*%
%ADD18C,0.500000*%
%TD*%
%TA.AperFunction,Conductor*%
%ADD19C,0.250000*%
%TD*%
%TA.AperFunction,Conductor*%
%ADD20C,0.500000*%
%TD*%
G04 APERTURE END LIST*
D10*
%TO.P,J1,1*%
%TO.N,GND*%
X128930000Y-173420000D03*
D11*
%TO.P,J1,2*%
%TO.N,+12V*%
X128930000Y-175960000D03*
%TO.P,J1,3*%
%TO.N,GND*%
X126390000Y-173420000D03*
%TO.P,J1,4*%
%TO.N,N/C*%
X126390000Y-175960000D03*
%TO.P,J1,5*%
%TO.N,GND*%
X123850000Y-173420000D03*
%TO.P,J1,6*%
%TO.N,N/C*%
X123850000Y-175960000D03*
%TO.P,J1,7*%
%TO.N,/SCLK*%
X121310000Y-173420000D03*
%TO.P,J1,8*%
%TO.N,GND*%
X121310000Y-175960000D03*
%TO.P,J1,9*%
%TO.N,/MOSI*%
X118770000Y-173420000D03*
%TO.P,J1,10*%
%TO.N,GND*%
X118770000Y-175960000D03*
%TO.P,J1,11*%
%TO.N,N/C*%
X116230000Y-173420000D03*
%TO.P,J1,12*%
%TO.N,GND*%
X116230000Y-175960000D03*
%TO.P,J1,13*%
%TO.N,/CS*%
X113690000Y-173420000D03*
%TO.P,J1,14*%
%TO.N,GND*%
X113690000Y-175960000D03*
%TO.P,J1,15*%
%TO.N,N/C*%
X111150000Y-173420000D03*
%TO.P,J1,16*%
X111150000Y-175960000D03*
%TO.P,J1,17*%
X108610000Y-173420000D03*
%TO.P,J1,18*%
X108610000Y-175960000D03*
%TO.P,J1,19*%
X106070000Y-173420000D03*
%TO.P,J1,20*%
X106070000Y-175960000D03*
%TD*%
D10*
%TO.P,J2,1*%
%TO.N,GND*%
X106070000Y-106580000D03*
D11*
%TO.P,J2,2*%
%TO.N,/GATE1*%
X108610000Y-106580000D03*
%TO.P,J2,3*%
%TO.N,/GATE2*%
X111150000Y-106580000D03*
%TO.P,J2,4*%
%TO.N,/GATE3*%
X113690000Y-106580000D03*
%TO.P,J2,5*%
%TO.N,/GATE4*%
X116230000Y-106580000D03*
%TO.P,J2,6*%
%TO.N,/GATE5*%
X118770000Y-106580000D03*
%TO.P,J2,7*%
%TO.N,/GATE6*%
X121310000Y-106580000D03*
%TO.P,J2,8*%
%TO.N,/GATE7*%
X123850000Y-106580000D03*
%TO.P,J2,9*%
%TO.N,/GATE8*%
X126390000Y-106580000D03*
%TO.P,J2,10*%
%TO.N,GND*%
X128930000Y-106580000D03*
%TD*%
D12*
%TO.P,U1,1*%
%TO.N,Net-(U1-QB)*%
X108025000Y-145555000D03*
%TO.P,U1,2*%
%TO.N,Net-(U1-QC)*%
X108025000Y-146825000D03*
%TO.P,U1,3*%
%TO.N,Net-(U1-QD)*%
X108025000Y-148095000D03*
%TO.P,U1,4*%
%TO.N,Net-(U1-QE)*%
X108025000Y-149365000D03*
%TO.P,U1,5*%
%TO.N,Net-(U1-QF)*%
X108025000Y-150635000D03*
%TO.P,U1,6*%
%TO.N,Net-(U1-QG)*%
X108025000Y-151905000D03*
%TO.P,U1,7*%
%TO.N,Net-(U1-QH)*%
X108025000Y-153175000D03*
%TO.P,U1,8*%
%TO.N,GND*%
X108025000Y-154445000D03*
%TO.P,U1,9*%
%TO.N,N/C*%
X112975000Y-154445000D03*
%TO.P,U1,10*%
%TO.N,+5V*%
X112975000Y-153175000D03*
%TO.P,U1,11*%
%TO.N,/SCLK*%
X112975000Y-151905000D03*
%TO.P,U1,12*%
%TO.N,/CS*%
X112975000Y-150635000D03*
%TO.P,U1,13*%
%TO.N,GND*%
X112975000Y-149365000D03*
%TO.P,U1,14*%
%TO.N,/MOSI*%
X112975000Y-148095000D03*
%TO.P,U1,15*%
%TO.N,Net-(U1-QA)*%
X112975000Y-146825000D03*
%TO.P,U1,16*%
%TO.N,+5V*%
X112975000Y-145555000D03*
%TD*%
D13*
%TO.P,U2,1*%
%TO.N,GND*%
X122850000Y-160700000D03*
%TO.P,U2,2*%
%TO.N,+5V*%
X122850000Y-163000000D03*
D14*
X129150000Y-163000000D03*
D13*
%TO.P,U2,3*%
%TO.N,+12V*%
X122850000Y-165300000D03*
%TD*%
D15*
%TO.P,C1,1*%
%TO.N,+12V*%
X133300000Y-171950000D03*
%TO.P,C1,2*%
%TO.N,GND*%
X133300000Y-170050000D03*
%TD*%
D16*
%TO.P,C2,1*%
%TO.N,+5V*%
X111300000Y-160000000D03*
%TO.P,C2,2*%
%TO.N,GND*%
X107700000Y-160000000D03*
%TD*%
D15*
%TO.P,C3,1*%
%TO.N,+5V*%
X110450000Y-164600000D03*
%TO.P,C3,2*%
%TO.N,GND*%
X108550000Y-164600000D03*
%TD*%
D17*
%TO.P,R1,1*%
%TO.N,Net-(U1-QA)*%
X108610000Y-112912500D03*
%TO.P,R1,2*%
%TO.N,/GATE1*%
X108610000Y-111087500D03*
%TD*%
%TO.P,R2,1*%
%TO.N,Net-(U1-QB)*%
X111150000Y-112912500D03*
%TO.P,R2,2*%
%TO.N,/GATE2*%
X111150000Y-111087500D03*
%TD*%
%TO.P,R3,1*%
%TO.N,Net-(U1-QC)*%
X113690000Y-112912500D03*
%TO.P,R3,2*%
%TO.N,/GATE3*%
X113690000Y-111087500D03*
%TD*%
%TO.P,R4,1*%
%TO.N,Net-(U1-QD)*%
X116230000Y-112912500D03*
%TO.P,R4,2*%
%TO.N,/GATE4*%
X116230000Y-111087500D03*
%TD*%
%TO.P,R5,1*%
%TO.N,Net-(U1-QE)*%
X118770000Y-112912500D03*
%TO.P,R5,2*%
%TO.N,/GATE5*%
X118770000Y-111087500D03*
%TD*%
%TO.P,R6,1*%
%TO.N,Net-(U1-QF)*%
X121310000Y-112912500D03*
%TO.P,R6,2*%
%TO.N,/GATE6*%
X121310000Y-111087500D03*
%TD*%
%TO.P,R7,1*%
%TO.N,Net-(U1-QG)*%
X123850000Y-112912500D03*
%TO.P,R7,2*%
%TO.N,/GATE7*%
X123850000Y-111087500D03*
%TD*%
%TO.P,R8,1*%
%TO.N,Net-(U1-QH)*%
X126390000Y-112912500D03*
%TO.P,R8,2*%
%TO.N,/GATE8*%
X126390000Y-111087500D03*
%TD*%
D18*
%TO.N,/SCLK*%
X120300000Y-172150000D03*
X117900000Y-172150000D03*
%TO.N,/CS*%
X116500000Y-170600000D03*
X118700000Y-170600000D03*
%TO.N,Net-(U1-QB)*%
X106600000Y-145555000D03*
X111150000Y-113900000D03*
%TO.N,Net-(U1-QC)*%
X106600000Y-146825000D03*
X113690000Y-113900000D03*
%TO.N,Net-(U1-QD)*%
X106600000Y-148095000D03*
X116230000Y-113900000D03*
%TO.N,Net-(U1-QE)*%
X106600000Y-149365000D03*
X118770000Y-113900000D03*
%TO.N,Net-(U1-QF)*%
X106600000Y-150635000D03*
X121310000Y-113900000D03*
%TO.N,Net-(U1-QG)*%
X106600000Y-151905000D03*
X123850000Y-113900000D03*
%TO.N,Net-(U1-QH)*%
X106600000Y-153175000D03*
X126390000Y-113900000D03*
%TO.N,Net-(U1-QA)*%
X114800000Y-146825000D03*
X108610000Y-113900000D03*
%TO.N,+5V*%
X129150000Y-157500000D03*
X105200000Y-144200000D03*
X114900000Y-157500000D03*
X111300000Y-157500000D03*
%TO.N,GND*%
X133300000Y-168300000D03*
X102000000Y-102000000D03*
X133000000Y-102000000D03*
X102000000Y-178000000D03*
X133000000Y-178000000D03*
X102000000Y-140000000D03*
X102000000Y-168000000D03*
X117000000Y-102500000D03*
X130500000Y-150000000D03*
X120000000Y-120000000D03*
X110000000Y-170000000D03*
X103000000Y-120000000D03*
X131000000Y-155000000D03*
%TD*%
%TO.N,/SCLK*%
D19*
X121310000Y-173420000D02*
X121310000Y-172150000D01*
X121310000Y-172150000D02*
X120300000Y-172150000D01*
X117900000Y-172150000D02*
X117900000Y-151905000D01*
X117900000Y-151905000D02*
X112975000Y-151905000D01*
%TO.N,/MOSI*%
X118770000Y-173420000D02*
X118770000Y-171400000D01*
X118770000Y-171400000D02*
X119500000Y-171400000D01*
X119500000Y-171400000D02*
X119500000Y-148095000D01*
X119500000Y-148095000D02*
X112975000Y-148095000D01*
%TO.N,/CS*%
X113690000Y-173420000D02*
X113690000Y-170600000D01*
X113690000Y-170600000D02*
X116500000Y-170600000D01*
X118700000Y-170600000D02*
X118700000Y-150635000D01*
X118700000Y-150635000D02*
X112975000Y-150635000D01*
%TO.N,Net-(U1-QB)*%
X108025000Y-145555000D02*
X106600000Y-145555000D01*
X111150000Y-113900000D02*
X111150000Y-112912500D01*
%TO.N,Net-(U1-QC)*%
X108025000Y-146825000D02*
X106600000Y-146825000D01*
X113690000Y-113900000D02*
X113690000Y-112912500D01*
%TO.N,Net-(U1-QD)*%
X108025000Y-148095000D02*
X106600000Y-148095000D01*
X116230000Y-113900000D02*
X116230000Y-112912500D01*
%TO.N,Net-(U1-QE)*%
X108025000Y-149365000D02*
X106600000Y-149365000D01*
X118770000Y-113900000D02*
X118770000Y-112912500D01*
%TO.N,Net-(U1-QF)*%
X108025000Y-150635000D02*
X106600000Y-150635000D01*
X121310000Y-113900000D02*
X121310000Y-112912500D01*
%TO.N,Net-(U1-QG)*%
X108025000Y-151905000D02*
X106600000Y-151905000D01*
X123850000Y-113900000D02*
X123850000Y-112912500D01*
%TO.N,Net-(U1-QH)*%
X108025000Y-153175000D02*
X106600000Y-153175000D01*
X126390000Y-113900000D02*
X126390000Y-112912500D01*
%TO.N,Net-(U1-QA)*%
X112975000Y-146825000D02*
X114800000Y-146825000D01*
X108610000Y-113900000D02*
X108610000Y-112912500D01*
%TO.N,/GATE1*%
X108610000Y-111087500D02*
X108610000Y-106580000D01*
%TO.N,/GATE2*%
X111150000Y-111087500D02*
X111150000Y-106580000D01*
%TO.N,/GATE3*%
X113690000Y-111087500D02*
X113690000Y-106580000D01*
%TO.N,/GATE4*%
X116230000Y-111087500D02*
X116230000Y-106580000D01*
%TO.N,/GATE5*%
X118770000Y-111087500D02*
X118770000Y-106580000D01*
%TO.N,/GATE6*%
X121310000Y-111087500D02*
X121310000Y-106580000D01*
%TO.N,/GATE7*%
X123850000Y-111087500D02*
X123850000Y-106580000D01*
%TO.N,/GATE8*%
X126390000Y-111087500D02*
X126390000Y-106580000D01*
%TO.N,+12V*%
D20*
X128930000Y-175960000D02*
X131800000Y-175960000D01*
X131800000Y-175960000D02*
X131800000Y-169300000D01*
X131800000Y-169300000D02*
X122850000Y-169300000D01*
X122850000Y-169300000D02*
X122850000Y-165300000D01*
D19*
X131800000Y-171950000D02*
X133300000Y-171950000D01*
%TO.N,+5V*%
D20*
X122850000Y-163000000D02*
X129150000Y-163000000D01*
X129150000Y-163000000D02*
X129150000Y-157500000D01*
D19*
X105200000Y-144200000D02*
X112975000Y-144200000D01*
X112975000Y-144200000D02*
X112975000Y-145555000D01*
X114900000Y-157500000D02*
X114900000Y-153175000D01*
X114900000Y-153175000D02*
X112975000Y-153175000D01*
D20*
X111300000Y-157500000D02*
X111300000Y-160000000D01*
D19*
X111300000Y-160000000D02*
X111300000Y-164600000D01*
X111300000Y-164600000D02*
X110450000Y-164600000D01*
%TO.N,GND*%
X133300000Y-170050000D02*
X133300000Y-168300000D01*
%TD*%
%TA.AperFunction,Conductor*%
%TO.N,GND*%
G36*
X134442539Y-100520185D02*
G01*
X134488294Y-100572989D01*
X134499500Y-100624500D01*
X134499500Y-169287599D01*
X134479815Y-169354638D01*
X134427011Y-169400393D01*
X134357853Y-169410337D01*
X134294297Y-169381312D01*
X134257794Y-169326604D01*
X134234357Y-169255878D01*
X134234356Y-169255875D01*
X134142315Y-169106654D01*
X134018345Y-168982684D01*
X133869124Y-168890643D01*
X133869119Y-168890641D01*
X133702697Y-168835494D01*
X133702690Y-168835493D01*
X133599986Y-168825000D01*
X133550000Y-168825000D01*
X133550000Y-169926000D01*
X133530315Y-169993039D01*
X133477511Y-170038794D01*
X133426000Y-170050000D01*
X133174000Y-170050000D01*
X133106961Y-170030315D01*
X133061206Y-169977511D01*
X133050000Y-169926000D01*
X133050000Y-168825000D01*
X133049999Y-168824999D01*
X133000029Y-168825000D01*
X133000011Y-168825001D01*
X132897302Y-168835494D01*
X132730880Y-168890641D01*
X132730875Y-168890643D01*
X132618940Y-168959686D01*
X132551547Y-168978126D01*
X132484884Y-168957203D01*
X132450741Y-168923038D01*
X132382951Y-168821584D01*
X132382948Y-168821580D01*
X132278419Y-168717051D01*
X132278415Y-168717048D01*
X132155501Y-168634919D01*
X132155488Y-168634912D01*
X132018917Y-168578343D01*
X132018907Y-168578340D01*
X131873920Y-168549500D01*
X131873918Y-168549500D01*
X123724500Y-168549500D01*
X123657461Y-168529815D01*
X123611706Y-168477011D01*
X123600500Y-168425500D01*
X123600500Y-166642894D01*
X123620185Y-166575855D01*
X123672989Y-166530100D01*
X123694565Y-166522562D01*
X123778693Y-166501641D01*
X123949296Y-166417030D01*
X124097722Y-166297722D01*
X124217030Y-166149296D01*
X124301641Y-165978693D01*
X124347600Y-165793889D01*
X124350500Y-165751123D01*
X124350499Y-164848878D01*
X124347600Y-164806111D01*
X124301641Y-164621307D01*
X124220667Y-164458037D01*
X124217032Y-164450707D01*
X124217030Y-164450704D01*
X124097722Y-164302278D01*
X124097721Y-164302277D01*
X124028514Y-164246647D01*
X123988595Y-164189304D01*
X123986015Y-164119482D01*
X124021594Y-164059349D01*
X124028514Y-164053353D01*
X124037909Y-164045800D01*
X124097722Y-163997722D01*
X124217030Y-163849296D01*
X124231854Y-163819406D01*
X124279275Y-163768093D01*
X124342942Y-163750500D01*
X127525501Y-163750500D01*
X127592540Y-163770185D01*
X127638295Y-163822989D01*
X127649501Y-163874500D01*
X127649501Y-164458034D01*
X127660113Y-164577415D01*
X127716089Y-164773045D01*
X127716090Y-164773048D01*
X127716091Y-164773049D01*
X127810302Y-164953407D01*
X127810304Y-164953409D01*
X127938890Y-165111109D01*
X128032803Y-165187684D01*
X128096593Y-165239698D01*
X128276951Y-165333909D01*
X128472582Y-165389886D01*
X128591963Y-165400500D01*
X129708036Y-165400499D01*
X129827418Y-165389886D01*
X130023049Y-165333909D01*
X130203407Y-165239698D01*
X130361109Y-165111109D01*
X130489698Y-164953407D01*
X130583909Y-164773049D01*
X130639886Y-164577418D01*
X130650500Y-164458037D01*
X130650499Y-161541964D01*
X130639886Y-161422582D01*
X130586158Y-161234812D01*
X130583910Y-161226954D01*
X130583909Y-161226953D01*
X130583909Y-161226951D01*
X130489698Y-161046593D01*
X130398119Y-160934280D01*
X130361109Y-160888890D01*
X130203409Y-160760304D01*
X130203410Y-160760304D01*
X130203407Y-160760302D01*
X130023049Y-160666091D01*
X130023048Y-160666090D01*
X130023043Y-160666088D01*
X129990387Y-160656744D01*
X129931349Y-160619376D01*
X129901887Y-160556022D01*
X129900500Y-160537529D01*
X129900500Y-157426079D01*
X129871659Y-157281092D01*
X129871658Y-157281091D01*
X129871658Y-157281087D01*
X129871656Y-157281082D01*
X129815087Y-157144511D01*
X129815080Y-157144498D01*
X129732951Y-157021584D01*
X129732948Y-157021580D01*
X129628419Y-156917051D01*
X129628415Y-156917048D01*
X129505501Y-156834919D01*
X129505488Y-156834912D01*
X129368917Y-156778343D01*
X129368907Y-156778340D01*
X129223920Y-156749500D01*
X129223918Y-156749500D01*
X129076082Y-156749500D01*
X129076080Y-156749500D01*
X128931092Y-156778340D01*
X128931082Y-156778343D01*
X128794511Y-156834912D01*
X128794498Y-156834919D01*
X128671584Y-156917048D01*
X128671580Y-156917051D01*
X128567051Y-157021580D01*
X128567048Y-157021584D01*
X128484919Y-157144498D01*
X128484912Y-157144511D01*
X128428343Y-157281082D01*
X128428340Y-157281092D01*
X128399500Y-157426079D01*
X128399500Y-160537529D01*
X128379815Y-160604568D01*
X128327011Y-160650323D01*
X128309613Y-160656744D01*
X128276956Y-160666088D01*
X128206872Y-160702697D01*
X128096593Y-160760302D01*
X128096591Y-160760303D01*
X128096590Y-160760304D01*
X127938890Y-160888890D01*
X127810304Y-161046590D01*
X127716089Y-161226954D01*
X127660114Y-161422583D01*
X127660113Y-161422586D01*
X127649500Y-161541966D01*
X127649500Y-162125500D01*
X127629815Y-162192539D01*
X127577011Y-162238294D01*
X127525500Y-162249500D01*
X124342942Y-162249500D01*
X124275903Y-162229815D01*
X124231854Y-162180594D01*
X124217030Y-162150704D01*
X124097724Y-162002280D01*
X124097722Y-162002278D01*
X124028112Y-161946324D01*
X123988196Y-161888985D01*
X123985616Y-161819163D01*
X124021194Y-161759030D01*
X124028115Y-161753033D01*
X124097366Y-161697367D01*
X124097367Y-161697366D01*
X124216607Y-161549025D01*
X124216609Y-161549022D01*
X124301168Y-161378523D01*
X124347102Y-161193824D01*
X124350000Y-161151096D01*
X124350000Y-160950000D01*
X121350000Y-160950000D01*
X121350000Y-161151096D01*
X121352897Y-161193824D01*
X121398831Y-161378523D01*
X121483390Y-161549022D01*
X121483392Y-161549025D01*
X121602630Y-161697364D01*
X121671884Y-161753031D01*
X121711803Y-161810375D01*
X121714383Y-161880197D01*
X121678805Y-161940329D01*
X121671885Y-161946326D01*
X121602276Y-162002280D01*
X121482969Y-162150704D01*
X121482967Y-162150707D01*
X121398360Y-162321302D01*
X121352400Y-162506107D01*
X121349500Y-162548879D01*
X121349500Y-163451122D01*
X121349501Y-163451125D01*
X121352399Y-163493886D01*
X121352399Y-163493887D01*
X121362048Y-163532684D01*
X121394210Y-163662011D01*
X121398360Y-163678696D01*
X121482967Y-163849292D01*
X121482969Y-163849295D01*
X121602277Y-163997721D01*
X121602278Y-163997722D01*
X121671486Y-164053353D01*
X121711405Y-164110696D01*
X121713985Y-164180518D01*
X121678406Y-164240651D01*
X121671486Y-164246647D01*
X121602278Y-164302277D01*
X121602277Y-164302278D01*
X121482969Y-164450704D01*
X121482967Y-164450707D01*
X121398360Y-164621302D01*
X121352400Y-164806107D01*
X121349500Y-164848879D01*
X121349500Y-165751122D01*
X121349501Y-165751125D01*
X121352399Y-165793886D01*
X121352399Y-165793887D01*
X121398360Y-165978696D01*
X121482967Y-166149292D01*
X121482969Y-166149295D01*
X121602277Y-166297721D01*
X121602278Y-166297722D01*
X121750704Y-166417030D01*
X121750707Y-166417032D01*
X121836005Y-166459335D01*
X121921307Y-166501641D01*
X122005427Y-166522560D01*
X122065732Y-166557840D01*
X122097392Y-166620126D01*
X122099500Y-166642894D01*
X122099500Y-169373918D01*
X122099500Y-169373920D01*
X122099499Y-169373920D01*
X122128340Y-169518907D01*
X122128343Y-169518917D01*
X122184912Y-169655488D01*
X122184919Y-169655501D01*
X122267048Y-169778415D01*
X122267051Y-169778419D01*
X122371580Y-169882948D01*
X122371584Y-169882951D01*
X122494498Y-169965080D01*
X122494511Y-169965087D01*
X122631082Y-170021656D01*
X122631087Y-170021658D01*
X122631091Y-170021658D01*
X122631092Y-170021659D01*
X122776079Y-170050500D01*
X122776082Y-170050500D01*
X122923918Y-170050500D01*
X130925500Y-170050500D01*
X130992539Y-170070185D01*
X131038294Y-170122989D01*
X131049500Y-170174500D01*
X131049500Y-175085500D01*
X131029815Y-175152539D01*
X130977011Y-175198294D01*
X130925500Y-175209500D01*
X130117221Y-175209500D01*
X130050182Y-175189815D01*
X130016903Y-175158385D01*
X129960107Y-175080211D01*
X129846181Y-174966285D01*
X129812696Y-174904962D01*
X129817680Y-174835270D01*
X129859552Y-174779337D01*
X129890529Y-174762422D01*
X130022086Y-174713354D01*
X130022093Y-174713350D01*
X130137187Y-174627190D01*
X130137190Y-174627187D01*
X130223350Y-174512093D01*
X130223354Y-174512086D01*
X130273596Y-174377379D01*
X130273598Y-174377372D01*
X130279999Y-174317844D01*
X130280000Y-174317827D01*
X130280000Y-173670000D01*
X129363012Y-173670000D01*
X129395925Y-173612993D01*
X129430000Y-173485826D01*
X129430000Y-173354174D01*
X129395925Y-173227007D01*
X129363012Y-173170000D01*
X130280000Y-173170000D01*
X130280000Y-172522172D01*
X130279999Y-172522155D01*
X130273598Y-172462627D01*
X130273596Y-172462620D01*
X130223354Y-172327913D01*
X130223350Y-172327906D01*
X130137190Y-172212812D01*
X130137187Y-172212809D01*
X130022093Y-172126649D01*
X130022086Y-172126645D01*
X129887379Y-172076403D01*
X129887372Y-172076401D01*
X129827844Y-172070000D01*
X129180000Y-172070000D01*
X129180000Y-172986988D01*
X129122993Y-172954075D01*
X128995826Y-172920000D01*
X128864174Y-172920000D01*
X128737007Y-172954075D01*
X128680000Y-172986988D01*
X128680000Y-172070000D01*
X128032155Y-172070000D01*
X127972627Y-172076401D01*
X127972620Y-172076403D01*
X127837913Y-172126645D01*
X127837906Y-172126649D01*
X127722812Y-172212809D01*
X127722809Y-172212812D01*
X127636649Y-172327906D01*
X127636645Y-172327913D01*
X127586403Y-172462619D01*
X127586401Y-172462626D01*
X127577497Y-172545444D01*
X127574434Y-172545114D01*
X127575336Y-172562094D01*
X127542356Y-172621195D01*
X126872962Y-173290590D01*
X126855925Y-173227007D01*
X126790099Y-173112993D01*
X126697007Y-173019901D01*
X126582993Y-172954075D01*
X126519409Y-172937037D01*
X127151716Y-172304728D01*
X127097550Y-172265375D01*
X126908217Y-172168904D01*
X126706129Y-172103242D01*
X126496246Y-172070000D01*
X126283754Y-172070000D01*
X126073872Y-172103242D01*
X126073869Y-172103242D01*
X125871782Y-172168904D01*
X125682439Y-172265380D01*
X125628282Y-172304727D01*
X125628282Y-172304728D01*
X126260591Y-172937037D01*
X126197007Y-172954075D01*
X126082993Y-173019901D01*
X125989901Y-173112993D01*
X125924075Y-173227007D01*
X125907037Y-173290591D01*
X125274728Y-172658282D01*
X125274727Y-172658282D01*
X125235380Y-172712440D01*
X125230483Y-172722051D01*
X125182506Y-172772845D01*
X125114684Y-172789638D01*
X125048550Y-172767098D01*
X125009516Y-172722048D01*
X125004626Y-172712452D01*
X124965270Y-172658282D01*
X124965269Y-172658282D01*
X124332962Y-173290590D01*
X124315925Y-173227007D01*
X124250099Y-173112993D01*
X124157007Y-173019901D01*
X124042993Y-172954075D01*
X123979409Y-172937037D01*
X124611716Y-172304728D01*
X124557550Y-172265375D01*
X124368217Y-172168904D01*
X124166129Y-172103242D01*
X123956246Y-172070000D01*
X123743754Y-172070000D01*
X123533872Y-172103242D01*
X123533869Y-172103242D01*
X123331782Y-172168904D01*
X123142439Y-172265380D01*
X123088282Y-172304727D01*
X123088282Y-172304728D01*
X123720591Y-172937037D01*
X123657007Y-172954075D01*
X123542993Y-173019901D01*
X123449901Y-173112993D01*
X123384075Y-173227007D01*
X123367037Y-173290591D01*
X122734728Y-172658282D01*
X122734727Y-172658282D01*
X122695380Y-172712440D01*
X122695376Y-172712446D01*
X122690760Y-172721505D01*
X122642781Y-172772297D01*
X122574959Y-172789087D01*
X122508826Y-172766543D01*
X122469794Y-172721493D01*
X122465051Y-172712184D01*
X122465049Y-172712181D01*
X122465048Y-172712179D01*
X122340109Y-172540213D01*
X122189786Y-172389890D01*
X122017819Y-172264950D01*
X122003203Y-172257503D01*
X121952408Y-172209527D01*
X121935500Y-172147019D01*
X121935500Y-172088393D01*
X121935499Y-172088389D01*
X121933115Y-172076403D01*
X121911463Y-171967548D01*
X121864311Y-171853714D01*
X121864310Y-171853713D01*
X121864307Y-171853707D01*
X121795858Y-171751267D01*
X121795855Y-171751263D01*
X121708736Y-171664144D01*
X121708732Y-171664141D01*
X121606292Y-171595692D01*
X121606283Y-171595687D01*
X121492454Y-171548538D01*
X121492455Y-171548538D01*
X121492452Y-171548537D01*
X121492448Y-171548536D01*
X121492444Y-171548535D01*
X121371610Y-171524500D01*
X121371606Y-171524500D01*
X120752351Y-171524500D01*
X120685312Y-171504815D01*
X120683544Y-171503658D01*
X120655495Y-171484916D01*
X120655491Y-171484914D01*
X120655489Y-171484913D01*
X120518917Y-171428343D01*
X120518907Y-171428340D01*
X120373920Y-171399500D01*
X120373918Y-171399500D01*
X120249500Y-171399500D01*
X120182461Y-171379815D01*
X120136706Y-171327011D01*
X120125500Y-171275500D01*
X120125500Y-160248903D01*
X121350000Y-160248903D01*
X121350000Y-160450000D01*
X122600000Y-160450000D01*
X123100000Y-160450000D01*
X124350000Y-160450000D01*
X124350000Y-160248903D01*
X124347102Y-160206175D01*
X124301168Y-160021476D01*
X124216609Y-159850977D01*
X124216607Y-159850974D01*
X124097367Y-159702633D01*
X124097366Y-159702632D01*
X123949025Y-159583392D01*
X123949022Y-159583390D01*
X123778523Y-159498831D01*
X123593824Y-159452897D01*
X123551097Y-159450000D01*
X123100000Y-159450000D01*
X123100000Y-160450000D01*
X122600000Y-160450000D01*
X122600000Y-159450000D01*
X122148903Y-159450000D01*
X122106175Y-159452897D01*
X121921476Y-159498831D01*
X121750977Y-159583390D01*
X121750974Y-159583392D01*
X121602633Y-159702632D01*
X121602632Y-159702633D01*
X121483392Y-159850974D01*
X121483390Y-159850977D01*
X121398831Y-160021476D01*
X121352897Y-160206175D01*
X121350000Y-160248903D01*
X120125500Y-160248903D01*
X120125500Y-148033393D01*
X120125499Y-148033389D01*
X120101464Y-147912555D01*
X120101463Y-147912548D01*
X120054311Y-147798714D01*
X120054310Y-147798713D01*
X120054307Y-147798707D01*
X119985858Y-147696267D01*
X119985855Y-147696263D01*
X119898736Y-147609144D01*
X119898732Y-147609141D01*
X119796292Y-147540692D01*
X119796283Y-147540687D01*
X119682454Y-147493538D01*
X119682455Y-147493538D01*
X119682452Y-147493537D01*
X119682448Y-147493536D01*
X119682444Y-147493535D01*
X119561610Y-147469500D01*
X119561606Y-147469500D01*
X115503965Y-147469500D01*
X115436926Y-147449815D01*
X115391171Y-147397011D01*
X115381227Y-147327853D01*
X115400863Y-147276609D01*
X115465080Y-147180501D01*
X115465080Y-147180500D01*
X115465084Y-147180495D01*
X115521658Y-147043913D01*
X115550500Y-146898918D01*
X115550500Y-146751082D01*
X115550500Y-146751079D01*
X115521659Y-146606092D01*
X115521658Y-146606091D01*
X115521658Y-146606087D01*
X115507715Y-146572426D01*
X115465087Y-146469511D01*
X115465080Y-146469498D01*
X115382951Y-146346584D01*
X115382948Y-146346580D01*
X115278419Y-146242051D01*
X115278415Y-146242048D01*
X115155501Y-146159919D01*
X115155488Y-146159912D01*
X115018917Y-146103343D01*
X115018907Y-146103340D01*
X114873920Y-146074500D01*
X114873918Y-146074500D01*
X114726082Y-146074500D01*
X114726080Y-146074500D01*
X114581092Y-146103340D01*
X114581083Y-146103343D01*
X114570216Y-146107844D01*
X114500746Y-146115308D01*
X114438268Y-146084030D01*
X114402620Y-146023938D01*
X114403693Y-145958686D01*
X114447598Y-145807569D01*
X114450500Y-145770694D01*
X114450500Y-145339306D01*
X114447598Y-145302431D01*
X114401744Y-145144602D01*
X114318081Y-145003135D01*
X114318079Y-145003133D01*
X114318076Y-145003129D01*
X114201870Y-144886923D01*
X114201862Y-144886917D01*
X114111271Y-144833342D01*
X114060398Y-144803256D01*
X114060397Y-144803255D01*
X114060396Y-144803255D01*
X114060393Y-144803254D01*
X113902573Y-144757402D01*
X113902567Y-144757401D01*
X113865701Y-144754500D01*
X113865694Y-144754500D01*
X113724500Y-144754500D01*
X113657461Y-144734815D01*
X113611706Y-144682011D01*
X113600500Y-144630500D01*
X113600500Y-144138393D01*
X113600499Y-144138389D01*
X113576464Y-144017555D01*
X113576463Y-144017548D01*
X113529311Y-143903714D01*
X113529310Y-143903713D01*
X113529307Y-143903707D01*
X113460858Y-143801267D01*
X113460855Y-143801263D01*
X113373736Y-143714144D01*
X113373732Y-143714141D01*
X113271292Y-143645692D01*
X113271283Y-143645687D01*
X113157454Y-143598538D01*
X113157455Y-143598538D01*
X113157452Y-143598537D01*
X113157448Y-143598536D01*
X113157444Y-143598535D01*
X113036610Y-143574500D01*
X113036606Y-143574500D01*
X105652351Y-143574500D01*
X105585312Y-143554815D01*
X105583544Y-143553658D01*
X105555495Y-143534916D01*
X105555491Y-143534914D01*
X105555489Y-143534913D01*
X105418917Y-143478343D01*
X105418907Y-143478340D01*
X105273920Y-143449500D01*
X105273918Y-143449500D01*
X105126082Y-143449500D01*
X105126080Y-143449500D01*
X104981092Y-143478340D01*
X104981082Y-143478343D01*
X104844511Y-143534912D01*
X104844498Y-143534919D01*
X104721584Y-143617048D01*
X104721580Y-143617051D01*
X104617051Y-143721580D01*
X104617048Y-143721584D01*
X104534919Y-143844498D01*
X104534912Y-143844511D01*
X104478343Y-143981082D01*
X104478340Y-143981092D01*
X104449500Y-144126079D01*
X104449500Y-144126082D01*
X104449500Y-144273918D01*
X104449500Y-144273920D01*
X104449499Y-144273920D01*
X104478340Y-144418907D01*
X104478343Y-144418917D01*
X104534912Y-144555488D01*
X104534919Y-144555501D01*
X104617048Y-144678415D01*
X104617051Y-144678419D01*
X104721580Y-144782948D01*
X104721584Y-144782951D01*
X104844498Y-144865080D01*
X104844511Y-144865087D01*
X104981082Y-144921656D01*
X104981087Y-144921658D01*
X104981091Y-144921658D01*
X104981092Y-144921659D01*
X105126079Y-144950500D01*
X105126082Y-144950500D01*
X105273920Y-144950500D01*
X105371462Y-144931096D01*
X105418913Y-144921658D01*
X105555495Y-144865084D01*
X105583462Y-144846396D01*
X105650137Y-144825520D01*
X105652351Y-144825500D01*
X105968770Y-144825500D01*
X106035809Y-144845185D01*
X106081564Y-144897989D01*
X106091508Y-144967147D01*
X106062483Y-145030703D01*
X106056451Y-145037181D01*
X106017051Y-145076580D01*
X106017048Y-145076584D01*
X105934919Y-145199498D01*
X105934912Y-145199511D01*
X105878343Y-145336082D01*
X105878340Y-145336092D01*
X105849500Y-145481079D01*
X105849500Y-145481082D01*
X105849500Y-145628918D01*
X105849500Y-145628920D01*
X105849499Y-145628920D01*
X105878340Y-145773907D01*
X105878343Y-145773917D01*
X105934912Y-145910488D01*
X105934919Y-145910501D01*
X106017048Y-146033415D01*
X106017051Y-146033419D01*
X106085951Y-146102319D01*
X106119436Y-146163642D01*
X106114452Y-146233334D01*
X106085951Y-146277681D01*
X106017051Y-146346580D01*
X106017048Y-146346584D01*
X105934919Y-146469498D01*
X105934912Y-146469511D01*
X105878343Y-146606082D01*
X105878340Y-146606092D01*
X105849500Y-146751079D01*
X105849500Y-146751082D01*
X105849500Y-146898918D01*
X105849500Y-146898920D01*
X105849499Y-146898920D01*
X105878340Y-147043907D01*
X105878343Y-147043917D01*
X105934912Y-147180488D01*
X105934919Y-147180501D01*
X106017048Y-147303415D01*
X106017051Y-147303419D01*
X106085951Y-147372319D01*
X106119436Y-147433642D01*
X106114452Y-147503334D01*
X106085951Y-147547681D01*
X106017051Y-147616580D01*
X106017048Y-147616584D01*
X105934919Y-147739498D01*
X105934912Y-147739511D01*
X105878343Y-147876082D01*
X105878340Y-147876092D01*
X105849500Y-148021079D01*
X105849500Y-148021082D01*
X105849500Y-148168918D01*
X105849500Y-148168920D01*
X105849499Y-148168920D01*
X105878340Y-148313907D01*
X105878343Y-148313917D01*
X105934912Y-148450488D01*
X105934919Y-148450501D01*
X106017048Y-148573415D01*
X106017051Y-148573419D01*
X106085951Y-148642319D01*
X106119436Y-148703642D01*
X106114452Y-148773334D01*
X106085951Y-148817681D01*
X106017051Y-148886580D01*
X106017048Y-148886584D01*
X105934919Y-149009498D01*
X105934912Y-149009511D01*
X105878343Y-149146082D01*
X105878340Y-149146092D01*
X105849500Y-149291079D01*
X105849500Y-149291082D01*
X105849500Y-149438918D01*
X105849500Y-149438920D01*
X105849499Y-149438920D01*
X105878340Y-149583907D01*
X105878343Y-149583917D01*
X105934912Y-149720488D01*
X105934919Y-149720501D01*
X106017048Y-149843415D01*
X106017051Y-149843419D01*
X106085951Y-149912319D01*
X106119436Y-149973642D01*
X106114452Y-150043334D01*
X106085951Y-150087681D01*
X106017051Y-150156580D01*
X106017048Y-150156584D01*
X105934919Y-150279498D01*
X105934912Y-150279511D01*
X105878343Y-150416082D01*
X105878340Y-150416092D01*
X105849500Y-150561079D01*
X105849500Y-150561082D01*
X105849500Y-150708918D01*
X105849500Y-150708920D01*
X105849499Y-150708920D01*
X105878340Y-150853907D01*
X105878343Y-150853917D01*
X105934912Y-150990488D01*
X105934919Y-150990501D01*
X106017048Y-151113415D01*
X106017051Y-151113419D01*
X106085951Y-151182319D01*
X106119436Y-151243642D01*
X106114452Y-151313334D01*
X106085951Y-151357681D01*
X106017051Y-151426580D01*
X106017048Y-151426584D01*
X105934919Y-151549498D01*
X105934912Y-151549511D01*
X105878343Y-151686082D01*
X105878340Y-151686092D01*
X105849500Y-151831079D01*
X105849500Y-151831082D01*
X105849500Y-151978918D01*
X105849500Y-151978920D01*
X105849499Y-151978920D01*
X105878340Y-152123907D01*
X105878343Y-152123917D01*
X105934912Y-152260488D01*
X105934919Y-152260501D01*
X106017048Y-152383415D01*
X106017051Y-152383419D01*
X106085951Y-152452319D01*
X106119436Y-152513642D01*
X106114452Y-152583334D01*
X106085951Y-152627681D01*
X106017051Y-152696580D01*
X106017048Y-152696584D01*
X105934919Y-152819498D01*
X105934912Y-152819511D01*
X105878343Y-152956082D01*
X105878340Y-152956092D01*
X105849500Y-153101079D01*
X105849500Y-153101082D01*
X105849500Y-153248918D01*
X105849500Y-153248920D01*
X105849499Y-153248920D01*
X105878340Y-153393907D01*
X105878343Y-153393917D01*
X105934912Y-153530488D01*
X105934919Y-153530501D01*
X106017048Y-153653415D01*
X106017051Y-153653419D01*
X106121580Y-153757948D01*
X106121584Y-153757951D01*
X106244498Y-153840080D01*
X106244511Y-153840087D01*
X106373335Y-153893447D01*
X106381087Y-153896658D01*
X106492164Y-153918753D01*
X106554075Y-153951138D01*
X106588649Y-154011853D01*
X106587050Y-154074964D01*
X106552899Y-154192511D01*
X106552704Y-154194998D01*
X106552705Y-154195000D01*
X109497295Y-154195000D01*
X109497295Y-154194998D01*
X109497100Y-154192513D01*
X109451281Y-154034801D01*
X109367685Y-153893447D01*
X109362900Y-153887278D01*
X109365366Y-153885364D01*
X109338802Y-153836776D01*
X109343749Y-153767082D01*
X109364856Y-153734232D01*
X109363301Y-153733026D01*
X109368077Y-153726868D01*
X109368081Y-153726865D01*
X109451744Y-153585398D01*
X109497598Y-153427569D01*
X109500500Y-153390694D01*
X109500500Y-152959306D01*
X109497598Y-152922431D01*
X109484897Y-152878716D01*
X109451745Y-152764606D01*
X109451744Y-152764603D01*
X109451744Y-152764602D01*
X109368081Y-152623135D01*
X109368078Y-152623132D01*
X109363298Y-152616969D01*
X109365750Y-152615066D01*
X109339155Y-152566421D01*
X109344104Y-152496726D01*
X109364940Y-152464304D01*
X109363298Y-152463031D01*
X109368075Y-152456870D01*
X109368081Y-152456865D01*
X109451744Y-152315398D01*
X109497598Y-152157569D01*
X109500500Y-152120694D01*
X109500500Y-151689306D01*
X109497598Y-151652431D01*
X109451744Y-151494602D01*
X109368081Y-151353135D01*
X109368078Y-151353132D01*
X109363298Y-151346969D01*
X109365750Y-151345066D01*
X109339155Y-151296421D01*
X109344104Y-151226726D01*
X109364940Y-151194304D01*
X109363298Y-151193031D01*
X109368075Y-151186870D01*
X109368081Y-151186865D01*
X109451744Y-151045398D01*
X109497598Y-150887569D01*
X109500500Y-150850694D01*
X109500500Y-150419306D01*
X109497598Y-150382431D01*
X109451744Y-150224602D01*
X109368081Y-150083135D01*
X109368078Y-150083132D01*
X109363298Y-150076969D01*
X109365750Y-150075066D01*
X109339155Y-150026421D01*
X109344104Y-149956726D01*
X109364940Y-149924304D01*
X109363298Y-149923031D01*
X109368075Y-149916870D01*
X109368081Y-149916865D01*
X109451744Y-149775398D01*
X109497598Y-149617569D01*
X109500500Y-149580694D01*
X109500500Y-149149306D01*
X109497598Y-149112431D01*
X109451744Y-148954602D01*
X109368081Y-148813135D01*
X109368078Y-148813132D01*
X109363298Y-148806969D01*
X109365750Y-148805066D01*
X109339155Y-148756421D01*
X109344104Y-148686726D01*
X109364940Y-148654304D01*
X109363298Y-148653031D01*
X109368075Y-148646870D01*
X109368081Y-148646865D01*
X109451744Y-148505398D01*
X109497598Y-148347569D01*
X109500500Y-148310694D01*
X109500500Y-147879306D01*
X109497598Y-147842431D01*
X109484897Y-147798716D01*
X109451745Y-147684606D01*
X109451744Y-147684603D01*
X109451744Y-147684602D01*
X109368081Y-147543135D01*
X109368078Y-147543132D01*
X109363298Y-147536969D01*
X109365750Y-147535066D01*
X109339155Y-147486421D01*
X109344104Y-147416726D01*
X109364940Y-147384304D01*
X109363298Y-147383031D01*
X109368075Y-147376870D01*
X109368081Y-147376865D01*
X109451744Y-147235398D01*
X109497598Y-147077569D01*
X109500500Y-147040694D01*
X109500500Y-146609306D01*
X109497598Y-146572431D01*
X109451744Y-146414602D01*
X109368081Y-146273135D01*
X109368078Y-146273132D01*
X109363298Y-146266969D01*
X109365750Y-146265066D01*
X109339155Y-146216421D01*
X109344104Y-146146726D01*
X109364940Y-146114304D01*
X109363298Y-146113031D01*
X109368075Y-146106870D01*
X109368081Y-146106865D01*
X109451744Y-145965398D01*
X109497598Y-145807569D01*
X109500500Y-145770694D01*
X109500500Y-145339306D01*
X109497598Y-145302431D01*
X109451744Y-145144602D01*
X109373691Y-145012621D01*
X109356508Y-144944897D01*
X109378668Y-144878634D01*
X109433134Y-144834871D01*
X109480423Y-144825500D01*
X111519577Y-144825500D01*
X111586616Y-144845185D01*
X111632371Y-144897989D01*
X111642315Y-144967147D01*
X111626309Y-145012621D01*
X111548255Y-145144603D01*
X111548254Y-145144606D01*
X111502402Y-145302426D01*
X111502401Y-145302432D01*
X111499500Y-145339298D01*
X111499500Y-145770701D01*
X111502401Y-145807567D01*
X111502402Y-145807573D01*
X111548254Y-145965393D01*
X111548255Y-145965396D01*
X111631917Y-146106862D01*
X111636702Y-146113031D01*
X111634256Y-146114927D01*
X111660857Y-146163642D01*
X111655873Y-146233334D01*
X111635069Y-146265703D01*
X111636702Y-146266969D01*
X111631917Y-146273137D01*
X111548255Y-146414603D01*
X111548254Y-146414606D01*
X111502402Y-146572426D01*
X111502401Y-146572432D01*
X111499500Y-146609298D01*
X111499500Y-147040701D01*
X111502401Y-147077567D01*
X111502402Y-147077573D01*
X111548254Y-147235393D01*
X111548255Y-147235396D01*
X111631917Y-147376862D01*
X111636702Y-147383031D01*
X111634256Y-147384927D01*
X111660857Y-147433642D01*
X111655873Y-147503334D01*
X111635069Y-147535703D01*
X111636702Y-147536969D01*
X111631917Y-147543137D01*
X111548255Y-147684603D01*
X111548254Y-147684606D01*
X111502402Y-147842426D01*
X111502401Y-147842432D01*
X111499500Y-147879298D01*
X111499500Y-148310701D01*
X111502401Y-148347567D01*
X111502402Y-148347573D01*
X111548254Y-148505393D01*
X111548255Y-148505396D01*
X111631917Y-148646862D01*
X111636702Y-148653031D01*
X111634369Y-148654840D01*
X111661210Y-148703995D01*
X111656226Y-148773687D01*
X111635470Y-148806021D01*
X111637097Y-148807283D01*
X111632313Y-148813449D01*
X111548718Y-148954801D01*
X111502899Y-149112513D01*
X111502704Y-149114998D01*
X111502705Y-149115000D01*
X114447295Y-149115000D01*
X114447295Y-149114998D01*
X114447100Y-149112513D01*
X114401281Y-148954801D01*
X114373379Y-148907621D01*
X114356196Y-148839897D01*
X114378356Y-148773635D01*
X114432822Y-148729871D01*
X114480111Y-148720500D01*
X118750500Y-148720500D01*
X118817539Y-148740185D01*
X118863294Y-148792989D01*
X118874500Y-148844500D01*
X118874500Y-149885500D01*
X118854815Y-149952539D01*
X118802011Y-149998294D01*
X118750500Y-150009500D01*
X114480111Y-150009500D01*
X114413072Y-149989815D01*
X114367317Y-149937011D01*
X114357373Y-149867853D01*
X114373379Y-149822379D01*
X114401281Y-149775198D01*
X114447100Y-149617486D01*
X114447295Y-149615001D01*
X114447295Y-149615000D01*
X111502705Y-149615000D01*
X111502704Y-149615001D01*
X111502899Y-149617486D01*
X111548718Y-149775198D01*
X111632314Y-149916552D01*
X111637100Y-149922722D01*
X111634640Y-149924629D01*
X111661210Y-149973288D01*
X111656226Y-150042980D01*
X111635162Y-150075781D01*
X111636699Y-150076974D01*
X111631915Y-150083140D01*
X111548255Y-150224603D01*
X111548254Y-150224606D01*
X111502402Y-150382426D01*
X111502401Y-150382432D01*
X111499500Y-150419298D01*
X111499500Y-150850701D01*
X111502401Y-150887567D01*
X111502402Y-150887573D01*
X111548254Y-151045393D01*
X111548255Y-151045396D01*
X111631917Y-151186862D01*
X111636702Y-151193031D01*
X111634256Y-151194927D01*
X111660857Y-151243642D01*
X111655873Y-151313334D01*
X111635069Y-151345703D01*
X111636702Y-151346969D01*
X111631917Y-151353137D01*
X111548255Y-151494603D01*
X111548254Y-151494606D01*
X111502402Y-151652426D01*
X111502401Y-151652432D01*
X111499500Y-151689298D01*
X111499500Y-152120701D01*
X111502401Y-152157567D01*
X111502402Y-152157573D01*
X111548254Y-152315393D01*
X111548255Y-152315396D01*
X111631917Y-152456862D01*
X111636702Y-152463031D01*
X111634256Y-152464927D01*
X111660857Y-152513642D01*
X111655873Y-152583334D01*
X111635069Y-152615703D01*
X111636702Y-152616969D01*
X111631917Y-152623137D01*
X111548255Y-152764603D01*
X111548254Y-152764606D01*
X111502402Y-152922426D01*
X111502401Y-152922432D01*
X111499500Y-152959298D01*
X111499500Y-153390701D01*
X111502401Y-153427567D01*
X111502402Y-153427573D01*
X111548254Y-153585393D01*
X111548255Y-153585396D01*
X111631917Y-153726862D01*
X111636702Y-153733031D01*
X111634256Y-153734927D01*
X111660857Y-153783642D01*
X111655873Y-153853334D01*
X111635069Y-153885703D01*
X111636702Y-153886969D01*
X111631917Y-153893137D01*
X111548255Y-154034603D01*
X111548254Y-154034606D01*
X111502402Y-154192426D01*
X111502401Y-154192432D01*
X111499500Y-154229298D01*
X111499500Y-154660701D01*
X111502401Y-154697567D01*
X111502402Y-154697573D01*
X111548254Y-154855393D01*
X111548255Y-154855396D01*
X111631917Y-154996862D01*
X111631923Y-154996870D01*
X111748129Y-155113076D01*
X111748133Y-155113079D01*
X111748135Y-155113081D01*
X111889602Y-155196744D01*
X111889609Y-155196746D01*
X112047426Y-155242597D01*
X112047429Y-155242597D01*
X112047431Y-155242598D01*
X112084306Y-155245500D01*
X112084314Y-155245500D01*
X113865686Y-155245500D01*
X113865694Y-155245500D01*
X113902569Y-155242598D01*
X113902571Y-155242597D01*
X113902573Y-155242597D01*
X114060392Y-155196746D01*
X114060392Y-155196745D01*
X114060398Y-155196744D01*
X114087381Y-155180786D01*
X114155102Y-155163604D01*
X114221365Y-155185764D01*
X114265128Y-155240229D01*
X114274500Y-155287519D01*
X114274500Y-157047648D01*
X114254815Y-157114687D01*
X114253603Y-157116538D01*
X114234913Y-157144508D01*
X114178343Y-157281082D01*
X114178340Y-157281092D01*
X114149500Y-157426079D01*
X114149500Y-157426082D01*
X114149500Y-157573918D01*
X114149500Y-157573920D01*
X114149499Y-157573920D01*
X114178340Y-157718907D01*
X114178343Y-157718917D01*
X114234912Y-157855488D01*
X114234919Y-157855501D01*
X114317048Y-157978415D01*
X114317051Y-157978419D01*
X114421580Y-158082948D01*
X114421584Y-158082951D01*
X114544498Y-158165080D01*
X114544511Y-158165087D01*
X114681082Y-158221656D01*
X114681087Y-158221658D01*
X114681091Y-158221658D01*
X114681092Y-158221659D01*
X114826079Y-158250500D01*
X114826082Y-158250500D01*
X114973920Y-158250500D01*
X115071462Y-158231096D01*
X115118913Y-158221658D01*
X115255495Y-158165084D01*
X115378416Y-158082951D01*
X115482951Y-157978416D01*
X115565084Y-157855495D01*
X115621658Y-157718913D01*
X115650500Y-157573918D01*
X115650500Y-157426082D01*
X115650500Y-157426079D01*
X115621659Y-157281092D01*
X115621658Y-157281091D01*
X115621658Y-157281087D01*
X115621656Y-157281082D01*
X115565086Y-157144508D01*
X115546397Y-157116538D01*
X115525520Y-157049861D01*
X115525500Y-157047648D01*
X115525500Y-153113393D01*
X115525499Y-153113389D01*
X115501464Y-152992555D01*
X115501463Y-152992548D01*
X115454311Y-152878714D01*
X115454310Y-152878713D01*
X115454307Y-152878707D01*
X115385858Y-152776267D01*
X115385855Y-152776263D01*
X115351773Y-152742181D01*
X115318288Y-152680858D01*
X115323272Y-152611166D01*
X115365144Y-152555233D01*
X115430608Y-152530816D01*
X115439454Y-152530500D01*
X117150500Y-152530500D01*
X117217539Y-152550185D01*
X117263294Y-152602989D01*
X117274500Y-152654500D01*
X117274500Y-170013770D01*
X117254815Y-170080809D01*
X117202011Y-170126564D01*
X117132853Y-170136508D01*
X117069297Y-170107483D01*
X117062819Y-170101451D01*
X116978419Y-170017051D01*
X116978415Y-170017048D01*
X116855501Y-169934919D01*
X116855488Y-169934912D01*
X116718917Y-169878343D01*
X116718907Y-169878340D01*
X116573920Y-169849500D01*
X116573918Y-169849500D01*
X116426082Y-169849500D01*
X116426080Y-169849500D01*
X116281092Y-169878340D01*
X116281082Y-169878343D01*
X116144510Y-169934913D01*
X116144506Y-169934915D01*
X116144505Y-169934916D01*
X116116537Y-169953603D01*
X116049863Y-169974480D01*
X116047649Y-169974500D01*
X113628389Y-169974500D01*
X113507555Y-169998535D01*
X113507545Y-169998538D01*
X113393716Y-170045687D01*
X113393707Y-170045692D01*
X113291267Y-170114141D01*
X113291263Y-170114144D01*
X113204144Y-170201263D01*
X113204141Y-170201267D01*
X113135692Y-170303707D01*
X113135687Y-170303716D01*
X113088538Y-170417545D01*
X113088535Y-170417555D01*
X113064500Y-170538389D01*
X113064500Y-172147019D01*
X113044815Y-172214058D01*
X112996797Y-172257503D01*
X112982180Y-172264950D01*
X112810213Y-172389890D01*
X112659890Y-172540213D01*
X112534949Y-172712182D01*
X112530484Y-172720946D01*
X112482509Y-172771742D01*
X112414688Y-172788536D01*
X112348553Y-172765998D01*
X112309516Y-172720946D01*
X112305050Y-172712182D01*
X112180109Y-172540213D01*
X112029786Y-172389890D01*
X111857820Y-172264951D01*
X111668414Y-172168444D01*
X111668413Y-172168443D01*
X111668412Y-172168443D01*
X111466243Y-172102754D01*
X111466241Y-172102753D01*
X111466240Y-172102753D01*
X111304957Y-172077208D01*
X111256287Y-172069500D01*
X111043713Y-172069500D01*
X110995042Y-172077208D01*
X110833760Y-172102753D01*
X110631585Y-172168444D01*
X110442179Y-172264951D01*
X110270213Y-172389890D01*
X110119890Y-172540213D01*
X109994949Y-172712182D01*
X109990484Y-172720946D01*
X109942509Y-172771742D01*
X109874688Y-172788536D01*
X109808553Y-172765998D01*
X109769516Y-172720946D01*
X109765050Y-172712182D01*
X109640109Y-172540213D01*
X109489786Y-172389890D01*
X109317820Y-172264951D01*
X109128414Y-172168444D01*
X109128413Y-172168443D01*
X109128412Y-172168443D01*
X108926243Y-172102754D01*
X108926241Y-172102753D01*
X108926240Y-172102753D01*
X108764957Y-172077208D01*
X108716287Y-172069500D01*
X108503713Y-172069500D01*
X108455042Y-172077208D01*
X108293760Y-172102753D01*
X108091585Y-172168444D01*
X107902179Y-172264951D01*
X107730213Y-172389890D01*
X107579890Y-172540213D01*
X107454949Y-172712182D01*
X107450484Y-172720946D01*
X107402509Y-172771742D01*
X107334688Y-172788536D01*
X107268553Y-172765998D01*
X107229516Y-172720946D01*
X107225050Y-172712182D01*
X107100109Y-172540213D01*
X106949786Y-172389890D01*
X106777820Y-172264951D01*
X106588414Y-172168444D01*
X106588413Y-172168443D01*
X106588412Y-172168443D01*
X106386243Y-172102754D01*
X106386241Y-172102753D01*
X106386240Y-172102753D01*
X106224957Y-172077208D01*
X106176287Y-172069500D01*
X105963713Y-172069500D01*
X105915042Y-172077208D01*
X105753760Y-172102753D01*
X105551585Y-172168444D01*
X105362179Y-172264951D01*
X105190213Y-172389890D01*
X105039890Y-172540213D01*
X104914951Y-172712179D01*
X104818444Y-172901585D01*
X104752753Y-173103760D01*
X104719500Y-173313713D01*
X104719500Y-173526286D01*
X104752753Y-173736239D01*
X104818444Y-173938414D01*
X104914951Y-174127820D01*
X105039890Y-174299786D01*
X105190213Y-174450109D01*
X105362182Y-174575050D01*
X105370946Y-174579516D01*
X105421742Y-174627491D01*
X105438536Y-174695312D01*
X105415998Y-174761447D01*
X105370946Y-174800484D01*
X105362182Y-174804949D01*
X105190213Y-174929890D01*
X105039890Y-175080213D01*
X104914951Y-175252179D01*
X104818444Y-175441585D01*
X104752753Y-175643760D01*
X104751291Y-175652993D01*
X104719500Y-175853713D01*
X104719500Y-176066287D01*
X104752754Y-176276243D01*
X104805448Y-176438419D01*
X104818444Y-176478414D01*
X104914951Y-176667820D01*
X105039890Y-176839786D01*
X105190213Y-176990109D01*
X105362179Y-177115048D01*
X105362181Y-177115049D01*
X105362184Y-177115051D01*
X105551588Y-177211557D01*
X105753757Y-177277246D01*
X105963713Y-177310500D01*
X105963714Y-177310500D01*
X106176286Y-177310500D01*
X106176287Y-177310500D01*
X106386243Y-177277246D01*
X106588412Y-177211557D01*
X106777816Y-177115051D01*
X106832572Y-177075269D01*
X106949786Y-176990109D01*
X106949788Y-176990106D01*
X106949792Y-176990104D01*
X107100104Y-176839792D01*
X107100106Y-176839788D01*
X107100109Y-176839786D01*
X107225048Y-176667820D01*
X107225047Y-176667820D01*
X107225051Y-176667816D01*
X107229514Y-176659054D01*
X107277488Y-176608259D01*
X107345308Y-176591463D01*
X107411444Y-176613999D01*
X107450486Y-176659056D01*
X107454951Y-176667820D01*
X107579890Y-176839786D01*
X107730213Y-176990109D01*
X107902179Y-177115048D01*
X107902181Y-177115049D01*
X107902184Y-177115051D01*
X108091588Y-177211557D01*
X108293757Y-177277246D01*
X108503713Y-177310500D01*
X108503714Y-177310500D01*
X108716286Y-177310500D01*
X108716287Y-177310500D01*
X108926243Y-177277246D01*
X109128412Y-177211557D01*
X109317816Y-177115051D01*
X109372572Y-177075269D01*
X109489786Y-176990109D01*
X109489788Y-176990106D01*
X109489792Y-176990104D01*
X109640104Y-176839792D01*
X109640106Y-176839788D01*
X109640109Y-176839786D01*
X109765048Y-176667820D01*
X109765047Y-176667820D01*
X109765051Y-176667816D01*
X109769514Y-176659054D01*
X109817488Y-176608259D01*
X109885308Y-176591463D01*
X109951444Y-176613999D01*
X109990486Y-176659056D01*
X109994951Y-176667820D01*
X110119890Y-176839786D01*
X110270213Y-176990109D01*
X110442179Y-177115048D01*
X110442181Y-177115049D01*
X110442184Y-177115051D01*
X110631588Y-177211557D01*
X110833757Y-177277246D01*
X111043713Y-177310500D01*
X111043714Y-177310500D01*
X111256286Y-177310500D01*
X111256287Y-177310500D01*
X111466243Y-177277246D01*
X111668412Y-177211557D01*
X111857816Y-177115051D01*
X111912572Y-177075269D01*
X112029786Y-176990109D01*
X112029788Y-176990106D01*
X112029792Y-176990104D01*
X112180104Y-176839792D01*
X112180106Y-176839788D01*
X112180109Y-176839786D01*
X112265890Y-176721717D01*
X112305051Y-176667816D01*
X112309793Y-176658508D01*
X112357763Y-176607711D01*
X112425583Y-176590911D01*
X112491719Y-176613445D01*
X112530763Y-176658500D01*
X112535373Y-176667547D01*
X112574728Y-176721716D01*
X113207037Y-176089408D01*
X113224075Y-176152993D01*
X113289901Y-176267007D01*
X113382993Y-176360099D01*
X113497007Y-176425925D01*
X113560590Y-176442962D01*
X112928282Y-177075269D01*
X112928282Y-177075270D01*
X112982449Y-177114624D01*
X113171782Y-177211095D01*
X113373870Y-177276757D01*
X113583754Y-177310000D01*
X113796246Y-177310000D01*
X114006127Y-177276757D01*
X114006130Y-177276757D01*
X114208217Y-177211095D01*
X114397554Y-177114622D01*
X114451716Y-177075270D01*
X114451717Y-177075270D01*
X113819408Y-176442962D01*
X113882993Y-176425925D01*
X113997007Y-176360099D01*
X114090099Y-176267007D01*
X114155925Y-176152993D01*
X114172962Y-176089408D01*
X114805270Y-176721717D01*
X114805270Y-176721716D01*
X114844622Y-176667554D01*
X114849514Y-176657954D01*
X114897488Y-176607157D01*
X114965308Y-176590361D01*
X115031444Y-176612897D01*
X115070486Y-176657954D01*
X115075375Y-176667550D01*
X115114728Y-176721716D01*
X115747037Y-176089408D01*
X115764075Y-176152993D01*
X115829901Y-176267007D01*
X115922993Y-176360099D01*
X116037007Y-176425925D01*
X116100590Y-176442962D01*
X115468282Y-177075269D01*
X115468282Y-177075270D01*
X115522449Y-177114624D01*
X115711782Y-177211095D01*
X115913870Y-177276757D01*
X116123754Y-177310000D01*
X116336246Y-177310000D01*
X116546127Y-177276757D01*
X116546130Y-177276757D01*
X116748217Y-177211095D01*
X116937554Y-177114622D01*
X116991716Y-177075270D01*
X116991717Y-177075270D01*
X116359408Y-176442962D01*
X116422993Y-176425925D01*
X116537007Y-176360099D01*
X116630099Y-176267007D01*
X116695925Y-176152993D01*
X116712962Y-176089409D01*
X117345270Y-176721717D01*
X117345270Y-176721716D01*
X117384622Y-176667554D01*
X117389514Y-176657954D01*
X117437488Y-176607157D01*
X117505308Y-176590361D01*
X117571444Y-176612897D01*
X117610486Y-176657954D01*
X117615375Y-176667550D01*
X117654728Y-176721716D01*
X118287037Y-176089408D01*
X118304075Y-176152993D01*
X118369901Y-176267007D01*
X118462993Y-176360099D01*
X118577007Y-176425925D01*
X118640590Y-176442962D01*
X118008282Y-177075269D01*
X118008282Y-177075270D01*
X118062449Y-177114624D01*
X118251782Y-177211095D01*
X118453870Y-177276757D01*
X118663754Y-177310000D01*
X118876246Y-177310000D01*
X119086127Y-177276757D01*
X119086130Y-177276757D01*
X119288217Y-177211095D01*
X119477554Y-177114622D01*
X119531716Y-177075270D01*
X119531717Y-177075270D01*
X118899408Y-176442962D01*
X118962993Y-176425925D01*
X119077007Y-176360099D01*
X119170099Y-176267007D01*
X119235925Y-176152993D01*
X119252962Y-176089408D01*
X119885270Y-176721717D01*
X119885270Y-176721716D01*
X119924622Y-176667554D01*
X119929514Y-176657954D01*
X119977488Y-176607157D01*
X120045308Y-176590361D01*
X120111444Y-176612897D01*
X120150486Y-176657954D01*
X120155375Y-176667550D01*
X120194728Y-176721716D01*
X120827037Y-176089408D01*
X120844075Y-176152993D01*
X120909901Y-176267007D01*
X121002993Y-176360099D01*
X121117007Y-176425925D01*
X121180590Y-176442962D01*
X120548282Y-177075269D01*
X120548282Y-177075270D01*
X120602449Y-177114624D01*
X120791782Y-177211095D01*
X120993870Y-177276757D01*
X121203754Y-177310000D01*
X121416246Y-177310000D01*
X121626127Y-177276757D01*
X121626130Y-177276757D01*
X121828217Y-177211095D01*
X122017554Y-177114622D01*
X122071716Y-177075270D01*
X122071717Y-177075270D01*
X121439408Y-176442962D01*
X121502993Y-176425925D01*
X121617007Y-176360099D01*
X121710099Y-176267007D01*
X121775925Y-176152993D01*
X121792962Y-176089408D01*
X122425270Y-176721717D01*
X122425270Y-176721716D01*
X122464622Y-176667555D01*
X122469232Y-176658507D01*
X122517205Y-176607709D01*
X122585025Y-176590912D01*
X122651161Y-176613447D01*
X122690204Y-176658504D01*
X122694949Y-176667817D01*
X122819890Y-176839786D01*
X122970213Y-176990109D01*
X123142179Y-177115048D01*
X123142181Y-177115049D01*
X123142184Y-177115051D01*
X123331588Y-177211557D01*
X123533757Y-177277246D01*
X123743713Y-177310500D01*
X123743714Y-177310500D01*
X123956286Y-177310500D01*
X123956287Y-177310500D01*
X124166243Y-177277246D01*
X124368412Y-177211557D01*
X124557816Y-177115051D01*
X124612572Y-177075269D01*
X124729786Y-176990109D01*
X124729788Y-176990106D01*
X124729792Y-176990104D01*
X124880104Y-176839792D01*
X124880106Y-176839788D01*
X124880109Y-176839786D01*
X125005048Y-176667820D01*
X125005047Y-176667820D01*
X125005051Y-176667816D01*
X125009514Y-176659054D01*
X125057488Y-176608259D01*
X125125308Y-176591463D01*
X125191444Y-176613999D01*
X125230486Y-176659056D01*
X125234951Y-176667820D01*
X125359890Y-176839786D01*
X125510213Y-176990109D01*
X125682179Y-177115048D01*
X125682181Y-177115049D01*
X125682184Y-177115051D01*
X125871588Y-177211557D01*
X126073757Y-177277246D01*
X126283713Y-177310500D01*
X126283714Y-177310500D01*
X126496286Y-177310500D01*
X126496287Y-177310500D01*
X126706243Y-177277246D01*
X126908412Y-177211557D01*
X127097816Y-177115051D01*
X127152572Y-177075269D01*
X127269786Y-176990109D01*
X127269788Y-176990106D01*
X127269792Y-176990104D01*
X127420104Y-176839792D01*
X127420106Y-176839788D01*
X127420109Y-176839786D01*
X127545048Y-176667820D01*
X127545047Y-176667820D01*
X127545051Y-176667816D01*
X127549514Y-176659054D01*
X127597488Y-176608259D01*
X127665308Y-176591463D01*
X127731444Y-176613999D01*
X127770486Y-176659056D01*
X127774951Y-176667820D01*
X127899890Y-176839786D01*
X128050213Y-176990109D01*
X128222179Y-177115048D01*
X128222181Y-177115049D01*
X128222184Y-177115051D01*
X128411588Y-177211557D01*
X128613757Y-177277246D01*
X128823713Y-177310500D01*
X128823714Y-177310500D01*
X129036286Y-177310500D01*
X129036287Y-177310500D01*
X129246243Y-177277246D01*
X129448412Y-177211557D01*
X129637816Y-177115051D01*
X129692572Y-177075269D01*
X129809786Y-176990109D01*
X129809788Y-176990106D01*
X129809792Y-176990104D01*
X129960104Y-176839792D01*
X129960108Y-176839786D01*
X130016903Y-176761615D01*
X130072233Y-176718949D01*
X130117221Y-176710500D01*
X131873920Y-176710500D01*
X131971462Y-176691096D01*
X132018913Y-176681658D01*
X132155495Y-176625084D01*
X132278416Y-176542951D01*
X132382951Y-176438416D01*
X132465084Y-176315495D01*
X132521658Y-176178913D01*
X132531096Y-176131462D01*
X132550500Y-176033920D01*
X132550500Y-173220442D01*
X132570185Y-173153403D01*
X132622989Y-173107648D01*
X132692147Y-173097704D01*
X132726903Y-173108059D01*
X132730662Y-173109811D01*
X132730666Y-173109814D01*
X132897203Y-173164999D01*
X132999991Y-173175500D01*
X133600008Y-173175499D01*
X133600016Y-173175498D01*
X133600019Y-173175498D01*
X133656302Y-173169748D01*
X133702797Y-173164999D01*
X133869334Y-173109814D01*
X134018656Y-173017712D01*
X134142712Y-172893656D01*
X134234814Y-172744334D01*
X134257795Y-172674981D01*
X134297566Y-172617538D01*
X134362082Y-172590715D01*
X134430858Y-172603030D01*
X134482058Y-172650573D01*
X134499500Y-172713987D01*
X134499500Y-179375500D01*
X134479815Y-179442539D01*
X134427011Y-179488294D01*
X134375500Y-179499500D01*
X100624500Y-179499500D01*
X100557461Y-179479815D01*
X100511706Y-179427011D01*
X100500500Y-179375500D01*
X100500500Y-165124986D01*
X107550001Y-165124986D01*
X107560494Y-165227697D01*
X107615641Y-165394119D01*
X107615643Y-165394124D01*
X107707684Y-165543345D01*
X107831654Y-165667315D01*
X107980875Y-165759356D01*
X107980880Y-165759358D01*
X108147302Y-165814505D01*
X108147309Y-165814506D01*
X108250019Y-165824999D01*
X108299999Y-165824998D01*
X108300000Y-165824998D01*
X108300000Y-164850000D01*
X107550001Y-164850000D01*
X107550001Y-165124986D01*
X100500500Y-165124986D01*
X100500500Y-164075013D01*
X107550000Y-164075013D01*
X107550000Y-164350000D01*
X108300000Y-164350000D01*
X108300000Y-163375000D01*
X108299999Y-163374999D01*
X108250029Y-163375000D01*
X108250011Y-163375001D01*
X108147302Y-163385494D01*
X107980880Y-163440641D01*
X107980875Y-163440643D01*
X107831654Y-163532684D01*
X107707684Y-163656654D01*
X107615643Y-163805875D01*
X107615641Y-163805880D01*
X107560494Y-163972302D01*
X107560493Y-163972309D01*
X107550000Y-164075013D01*
X100500500Y-164075013D01*
X100500500Y-160599986D01*
X105900001Y-160599986D01*
X105910494Y-160702697D01*
X105965641Y-160869119D01*
X105965643Y-160869124D01*
X106057684Y-161018345D01*
X106181654Y-161142315D01*
X106330875Y-161234356D01*
X106330880Y-161234358D01*
X106497302Y-161289505D01*
X106497309Y-161289506D01*
X106600019Y-161299999D01*
X107449999Y-161299999D01*
X107450000Y-161299998D01*
X107450000Y-160250000D01*
X105900001Y-160250000D01*
X105900001Y-160599986D01*
X100500500Y-160599986D01*
X100500500Y-159400013D01*
X105900000Y-159400013D01*
X105900000Y-159750000D01*
X107450000Y-159750000D01*
X107450000Y-158700000D01*
X107950000Y-158700000D01*
X107950000Y-161299999D01*
X108799972Y-161299999D01*
X108799986Y-161299998D01*
X108902697Y-161289505D01*
X109069119Y-161234358D01*
X109069124Y-161234356D01*
X109218345Y-161142315D01*
X109342317Y-161018343D01*
X109394167Y-160934281D01*
X109446115Y-160887556D01*
X109515077Y-160876333D01*
X109579159Y-160904176D01*
X109605244Y-160934279D01*
X109657288Y-161018656D01*
X109781344Y-161142712D01*
X109930666Y-161234814D01*
X110097203Y-161289999D01*
X110199991Y-161300500D01*
X110550500Y-161300499D01*
X110617539Y-161320183D01*
X110663294Y-161372987D01*
X110674500Y-161424499D01*
X110674500Y-163250500D01*
X110654815Y-163317539D01*
X110602011Y-163363294D01*
X110550500Y-163374500D01*
X110149998Y-163374500D01*
X110149980Y-163374501D01*
X110047203Y-163385000D01*
X110047200Y-163385001D01*
X109880668Y-163440185D01*
X109880663Y-163440187D01*
X109731342Y-163532289D01*
X109607288Y-163656343D01*
X109607283Y-163656349D01*
X109605241Y-163659661D01*
X109603247Y-163661453D01*
X109602807Y-163662011D01*
X109602711Y-163661935D01*
X109553291Y-163706383D01*
X109484328Y-163717602D01*
X109420247Y-163689755D01*
X109394168Y-163659656D01*
X109392319Y-163656659D01*
X109392316Y-163656655D01*
X109268345Y-163532684D01*
X109119124Y-163440643D01*
X109119119Y-163440641D01*
X108952697Y-163385494D01*
X108952690Y-163385493D01*
X108849986Y-163375000D01*
X108800000Y-163375000D01*
X108800000Y-165824999D01*
X108849972Y-165824999D01*
X108849986Y-165824998D01*
X108952697Y-165814505D01*
X109119119Y-165759358D01*
X109119124Y-165759356D01*
X109268345Y-165667315D01*
X109392318Y-165543342D01*
X109394165Y-165540348D01*
X109395969Y-165538724D01*
X109396798Y-165537677D01*
X109396976Y-165537818D01*
X109446110Y-165493621D01*
X109515073Y-165482396D01*
X109579156Y-165510236D01*
X109605243Y-165540341D01*
X109607288Y-165543656D01*
X109731344Y-165667712D01*
X109880666Y-165759814D01*
X110047203Y-165814999D01*
X110149991Y-165825500D01*
X110750008Y-165825499D01*
X110750016Y-165825498D01*
X110750019Y-165825498D01*
X110806302Y-165819748D01*
X110852797Y-165814999D01*
X111019334Y-165759814D01*
X111168656Y-165667712D01*
X111292712Y-165543656D01*
X111384814Y-165394334D01*
X111425516Y-165271502D01*
X111465289Y-165214058D01*
X111495767Y-165195947D01*
X111596286Y-165154311D01*
X111698733Y-165085858D01*
X111785858Y-164998733D01*
X111854311Y-164896286D01*
X111901463Y-164782452D01*
X111925500Y-164661606D01*
X111925500Y-161424499D01*
X111945185Y-161357460D01*
X111997989Y-161311705D01*
X112049500Y-161300499D01*
X112400002Y-161300499D01*
X112400008Y-161300499D01*
X112502797Y-161289999D01*
X112669334Y-161234814D01*
X112818656Y-161142712D01*
X112942712Y-161018656D01*
X113034814Y-160869334D01*
X113089999Y-160702797D01*
X113100500Y-160600009D01*
X113100499Y-159399992D01*
X113089999Y-159297203D01*
X113034814Y-159130666D01*
X112942712Y-158981344D01*
X112818656Y-158857288D01*
X112669334Y-158765186D01*
X112502797Y-158710001D01*
X112502795Y-158710000D01*
X112400016Y-158699500D01*
X112400009Y-158699500D01*
X112174500Y-158699500D01*
X112107461Y-158679815D01*
X112061706Y-158627011D01*
X112050500Y-158575500D01*
X112050500Y-157426079D01*
X112021659Y-157281092D01*
X112021658Y-157281091D01*
X112021658Y-157281087D01*
X112021656Y-157281082D01*
X111965087Y-157144511D01*
X111965080Y-157144498D01*
X111882951Y-157021584D01*
X111882948Y-157021580D01*
X111778419Y-156917051D01*
X111778415Y-156917048D01*
X111655501Y-156834919D01*
X111655488Y-156834912D01*
X111518917Y-156778343D01*
X111518907Y-156778340D01*
X111373920Y-156749500D01*
X111373918Y-156749500D01*
X111226082Y-156749500D01*
X111226080Y-156749500D01*
X111081092Y-156778340D01*
X111081082Y-156778343D01*
X110944511Y-156834912D01*
X110944498Y-156834919D01*
X110821584Y-156917048D01*
X110821580Y-156917051D01*
X110717051Y-157021580D01*
X110717048Y-157021584D01*
X110634919Y-157144498D01*
X110634912Y-157144511D01*
X110578343Y-157281082D01*
X110578340Y-157281092D01*
X110549500Y-157426079D01*
X110549500Y-158575500D01*
X110529815Y-158642539D01*
X110477011Y-158688294D01*
X110425501Y-158699500D01*
X110199999Y-158699500D01*
X110199980Y-158699501D01*
X110097203Y-158710000D01*
X110097200Y-158710001D01*
X109930668Y-158765185D01*
X109930663Y-158765187D01*
X109781342Y-158857289D01*
X109657288Y-158981343D01*
X109657285Y-158981347D01*
X109605244Y-159065719D01*
X109553296Y-159112444D01*
X109484334Y-159123665D01*
X109420252Y-159095822D01*
X109394167Y-159065719D01*
X109342315Y-158981654D01*
X109218345Y-158857684D01*
X109069124Y-158765643D01*
X109069119Y-158765641D01*
X108902697Y-158710494D01*
X108902690Y-158710493D01*
X108799986Y-158700000D01*
X107950000Y-158700000D01*
X107450000Y-158700000D01*
X106600028Y-158700000D01*
X106600012Y-158700001D01*
X106497302Y-158710494D01*
X106330880Y-158765641D01*
X106330875Y-158765643D01*
X106181654Y-158857684D01*
X106057684Y-158981654D01*
X105965643Y-159130875D01*
X105965641Y-159130880D01*
X105910494Y-159297302D01*
X105910493Y-159297309D01*
X105900000Y-159400013D01*
X100500500Y-159400013D01*
X100500500Y-154695001D01*
X106552704Y-154695001D01*
X106552899Y-154697486D01*
X106598718Y-154855198D01*
X106682314Y-154996552D01*
X106682321Y-154996561D01*
X106798438Y-155112678D01*
X106798447Y-155112685D01*
X106939803Y-155196282D01*
X106939806Y-155196283D01*
X107097504Y-155242099D01*
X107097510Y-155242100D01*
X107134350Y-155244999D01*
X107134366Y-155245000D01*
X107775000Y-155245000D01*
X108275000Y-155245000D01*
X108915634Y-155245000D01*
X108915649Y-155244999D01*
X108952489Y-155242100D01*
X108952495Y-155242099D01*
X109110193Y-155196283D01*
X109110196Y-155196282D01*
X109251552Y-155112685D01*
X109251561Y-155112678D01*
X109367678Y-154996561D01*
X109367685Y-154996552D01*
X109451281Y-154855198D01*
X109497100Y-154697486D01*
X109497295Y-154695001D01*
X109497295Y-154695000D01*
X108275000Y-154695000D01*
X108275000Y-155245000D01*
X107775000Y-155245000D01*
X107775000Y-154695000D01*
X106552705Y-154695000D01*
X106552704Y-154695001D01*
X100500500Y-154695001D01*
X100500500Y-105682155D01*
X104720000Y-105682155D01*
X104720000Y-106330000D01*
X105636988Y-106330000D01*
X105604075Y-106387007D01*
X105570000Y-106514174D01*
X105570000Y-106645826D01*
X105604075Y-106772993D01*
X105636988Y-106830000D01*
X104720000Y-106830000D01*
X104720000Y-107477844D01*
X104726401Y-107537372D01*
X104726403Y-107537379D01*
X104776645Y-107672086D01*
X104776649Y-107672093D01*
X104862809Y-107787187D01*
X104862812Y-107787190D01*
X104977906Y-107873350D01*
X104977913Y-107873354D01*
X105112620Y-107923596D01*
X105112627Y-107923598D01*
X105172155Y-107929999D01*
X105172172Y-107930000D01*
X105820000Y-107930000D01*
X105820000Y-107013012D01*
X105877007Y-107045925D01*
X106004174Y-107080000D01*
X106135826Y-107080000D01*
X106262993Y-107045925D01*
X106320000Y-107013012D01*
X106320000Y-107930000D01*
X106967828Y-107930000D01*
X106967844Y-107929999D01*
X107027372Y-107923598D01*
X107027379Y-107923596D01*
X107162086Y-107873354D01*
X107162093Y-107873350D01*
X107277187Y-107787190D01*
X107277190Y-107787187D01*
X107363350Y-107672093D01*
X107363354Y-107672086D01*
X107412422Y-107540529D01*
X107454293Y-107484595D01*
X107519757Y-107460178D01*
X107588030Y-107475030D01*
X107616285Y-107496181D01*
X107730213Y-107610109D01*
X107902181Y-107735050D01*
X107916792Y-107742494D01*
X107967589Y-107790467D01*
X107984500Y-107852980D01*
X107984500Y-109910411D01*
X107964815Y-109977450D01*
X107925598Y-110015949D01*
X107878844Y-110044787D01*
X107754789Y-110168842D01*
X107662687Y-110318163D01*
X107662686Y-110318166D01*
X107607501Y-110484703D01*
X107607501Y-110484704D01*
X107607500Y-110484704D01*
X107597000Y-110587483D01*
X107597000Y-111587501D01*
X107597001Y-111587519D01*
X107607500Y-111690296D01*
X107607501Y-111690299D01*
X107662686Y-111856833D01*
X107662688Y-111856838D01*
X107710839Y-111934905D01*
X107729279Y-112002297D01*
X107710839Y-112065095D01*
X107662688Y-112143161D01*
X107662686Y-112143165D01*
X107662686Y-112143166D01*
X107607501Y-112309703D01*
X107607501Y-112309704D01*
X107607500Y-112309704D01*
X107597000Y-112412483D01*
X107597000Y-113412501D01*
X107597001Y-113412519D01*
X107607500Y-113515296D01*
X107607501Y-113515299D01*
X107662685Y-113681831D01*
X107662687Y-113681836D01*
X107754789Y-113831157D01*
X107823969Y-113900337D01*
X107857454Y-113961660D01*
X107858948Y-113971147D01*
X107888340Y-114118907D01*
X107888343Y-114118917D01*
X107944912Y-114255488D01*
X107944919Y-114255501D01*
X108027048Y-114378415D01*
X108027051Y-114378419D01*
X108131580Y-114482948D01*
X108131584Y-114482951D01*
X108254498Y-114565080D01*
X108254511Y-114565087D01*
X108391082Y-114621656D01*
X108391087Y-114621658D01*
X108391091Y-114621658D01*
X108391092Y-114621659D01*
X108536079Y-114650500D01*
X108536082Y-114650500D01*
X108683920Y-114650500D01*
X108781462Y-114631096D01*
X108828913Y-114621658D01*
X108965495Y-114565084D01*
X109088416Y-114482951D01*
X109192951Y-114378416D01*
X109275084Y-114255495D01*
X109331658Y-114118913D01*
X109360500Y-113973918D01*
X109361689Y-113967943D01*
X109363374Y-113968278D01*
X109386460Y-113911088D01*
X109396013Y-113900354D01*
X109465212Y-113831156D01*
X109557314Y-113681834D01*
X109612499Y-113515297D01*
X109623000Y-113412509D01*
X109622999Y-112412492D01*
X109612499Y-112309703D01*
X109557314Y-112143166D01*
X109509159Y-112065094D01*
X109490720Y-111997705D01*
X109509159Y-111934905D01*
X109557314Y-111856834D01*
X109612499Y-111690297D01*
X109623000Y-111587509D01*
X109622999Y-110587492D01*
X109612499Y-110484703D01*
X109557314Y-110318166D01*
X109465212Y-110168844D01*
X109341156Y-110044788D01*
X109341155Y-110044787D01*
X109294402Y-110015949D01*
X109247678Y-109964000D01*
X109235500Y-109910411D01*
X109235500Y-107852980D01*
X109255185Y-107785941D01*
X109303208Y-107742494D01*
X109317818Y-107735050D01*
X109489786Y-107610109D01*
X109489788Y-107610106D01*
X109489792Y-107610104D01*
X109640104Y-107459792D01*
X109640106Y-107459788D01*
X109640109Y-107459786D01*
X109765048Y-107287820D01*
X109765047Y-107287820D01*
X109765051Y-107287816D01*
X109769514Y-107279054D01*
X109817488Y-107228259D01*
X109885308Y-107211463D01*
X109951444Y-107233999D01*
X109990486Y-107279056D01*
X109994951Y-107287820D01*
X110119890Y-107459786D01*
X110270213Y-107610109D01*
X110442181Y-107735050D01*
X110456792Y-107742494D01*
X110507589Y-107790467D01*
X110524500Y-107852980D01*
X110524500Y-109910411D01*
X110504815Y-109977450D01*
X110465598Y-110015949D01*
X110418844Y-110044787D01*
X110294789Y-110168842D01*
X110202687Y-110318163D01*
X110202686Y-110318166D01*
X110147501Y-110484703D01*
X110147501Y-110484704D01*
X110147500Y-110484704D01*
X110137000Y-110587483D01*
X110137000Y-111587501D01*
X110137001Y-111587519D01*
X110147500Y-111690296D01*
X110147501Y-111690299D01*
X110202686Y-111856833D01*
X110202688Y-111856838D01*
X110250839Y-111934905D01*
X110269279Y-112002297D01*
X110250839Y-112065095D01*
X110202688Y-112143161D01*
X110202686Y-112143165D01*
X110202686Y-112143166D01*
X110147501Y-112309703D01*
X110147501Y-112309704D01*
X110147500Y-112309704D01*
X110137000Y-112412483D01*
X110137000Y-113412501D01*
X110137001Y-113412519D01*
X110147500Y-113515296D01*
X110147501Y-113515299D01*
X110202685Y-113681831D01*
X110202687Y-113681836D01*
X110294789Y-113831157D01*
X110363969Y-113900337D01*
X110397454Y-113961660D01*
X110398948Y-113971147D01*
X110428340Y-114118907D01*
X110428343Y-114118917D01*
X110484912Y-114255488D01*
X110484919Y-114255501D01*
X110567048Y-114378415D01*
X110567051Y-114378419D01*
X110671580Y-114482948D01*
X110671584Y-114482951D01*
X110794498Y-114565080D01*
X110794511Y-114565087D01*
X110931082Y-114621656D01*
X110931087Y-114621658D01*
X110931091Y-114621658D01*
X110931092Y-114621659D01*
X111076079Y-114650500D01*
X111076082Y-114650500D01*
X111223920Y-114650500D01*
X111321462Y-114631096D01*
X111368913Y-114621658D01*
X111505495Y-114565084D01*
X111628416Y-114482951D01*
X111732951Y-114378416D01*
X111815084Y-114255495D01*
X111871658Y-114118913D01*
X111900500Y-113973918D01*
X111901689Y-113967943D01*
X111903374Y-113968278D01*
X111926460Y-113911088D01*
X111936013Y-113900354D01*
X112005212Y-113831156D01*
X112097314Y-113681834D01*
X112152499Y-113515297D01*
X112163000Y-113412509D01*
X112162999Y-112412492D01*
X112152499Y-112309703D01*
X112097314Y-112143166D01*
X112049159Y-112065094D01*
X112030720Y-111997705D01*
X112049159Y-111934905D01*
X112097314Y-111856834D01*
X112152499Y-111690297D01*
X112163000Y-111587509D01*
X112162999Y-110587492D01*
X112152499Y-110484703D01*
X112097314Y-110318166D01*
X112005212Y-110168844D01*
X111881156Y-110044788D01*
X111881155Y-110044787D01*
X111834402Y-110015949D01*
X111787678Y-109964000D01*
X111775500Y-109910411D01*
X111775500Y-107852980D01*
X111795185Y-107785941D01*
X111843208Y-107742494D01*
X111857818Y-107735050D01*
X112029786Y-107610109D01*
X112029788Y-107610106D01*
X112029792Y-107610104D01*
X112180104Y-107459792D01*
X112180106Y-107459788D01*
X112180109Y-107459786D01*
X112305048Y-107287820D01*
X112305047Y-107287820D01*
X112305051Y-107287816D01*
X112309514Y-107279054D01*
X112357488Y-107228259D01*
X112425308Y-107211463D01*
X112491444Y-107233999D01*
X112530486Y-107279056D01*
X112534951Y-107287820D01*
X112659890Y-107459786D01*
X112810213Y-107610109D01*
X112982181Y-107735050D01*
X112996792Y-107742494D01*
X113047589Y-107790467D01*
X113064500Y-107852980D01*
X113064500Y-109910411D01*
X113044815Y-109977450D01*
X113005598Y-110015949D01*
X112958844Y-110044787D01*
X112834789Y-110168842D01*
X112742687Y-110318163D01*
X112742686Y-110318166D01*
X112687501Y-110484703D01*
X112687501Y-110484704D01*
X112687500Y-110484704D01*
X112677000Y-110587483D01*
X112677000Y-111587501D01*
X112677001Y-111587519D01*
X112687500Y-111690296D01*
X112687501Y-111690299D01*
X112742686Y-111856833D01*
X112742688Y-111856838D01*
X112790839Y-111934905D01*
X112809279Y-112002297D01*
X112790839Y-112065095D01*
X112742688Y-112143161D01*
X112742686Y-112143165D01*
X112742686Y-112143166D01*
X112687501Y-112309703D01*
X112687501Y-112309704D01*
X112687500Y-112309704D01*
X112677000Y-112412483D01*
X112677000Y-113412501D01*
X112677001Y-113412519D01*
X112687500Y-113515296D01*
X112687501Y-113515299D01*
X112742685Y-113681831D01*
X112742687Y-113681836D01*
X112834789Y-113831157D01*
X112903969Y-113900337D01*
X112937454Y-113961660D01*
X112938948Y-113971147D01*
X112968340Y-114118907D01*
X112968343Y-114118917D01*
X113024912Y-114255488D01*
X113024919Y-114255501D01*
X113107048Y-114378415D01*
X113107051Y-114378419D01*
X113211580Y-114482948D01*
X113211584Y-114482951D01*
X113334498Y-114565080D01*
X113334511Y-114565087D01*
X113471082Y-114621656D01*
X113471087Y-114621658D01*
X113471091Y-114621658D01*
X113471092Y-114621659D01*
X113616079Y-114650500D01*
X113616082Y-114650500D01*
X113763920Y-114650500D01*
X113861462Y-114631096D01*
X113908913Y-114621658D01*
X114045495Y-114565084D01*
X114168416Y-114482951D01*
X114272951Y-114378416D01*
X114355084Y-114255495D01*
X114411658Y-114118913D01*
X114440500Y-113973918D01*
X114441689Y-113967943D01*
X114443374Y-113968278D01*
X114466460Y-113911088D01*
X114476013Y-113900354D01*
X114545212Y-113831156D01*
X114637314Y-113681834D01*
X114692499Y-113515297D01*
X114703000Y-113412509D01*
X114702999Y-112412492D01*
X114692499Y-112309703D01*
X114637314Y-112143166D01*
X114589159Y-112065094D01*
X114570720Y-111997705D01*
X114589159Y-111934905D01*
X114637314Y-111856834D01*
X114692499Y-111690297D01*
X114703000Y-111587509D01*
X114702999Y-110587492D01*
X114692499Y-110484703D01*
X114637314Y-110318166D01*
X114545212Y-110168844D01*
X114421156Y-110044788D01*
X114421155Y-110044787D01*
X114374402Y-110015949D01*
X114327678Y-109964000D01*
X114315500Y-109910411D01*
X114315500Y-107852980D01*
X114335185Y-107785941D01*
X114383208Y-107742494D01*
X114397818Y-107735050D01*
X114569786Y-107610109D01*
X114569788Y-107610106D01*
X114569792Y-107610104D01*
X114720104Y-107459792D01*
X114720106Y-107459788D01*
X114720109Y-107459786D01*
X114845048Y-107287820D01*
X114845047Y-107287820D01*
X114845051Y-107287816D01*
X114849514Y-107279054D01*
X114897488Y-107228259D01*
X114965308Y-107211463D01*
X115031444Y-107233999D01*
X115070486Y-107279056D01*
X115074951Y-107287820D01*
X115199890Y-107459786D01*
X115350213Y-107610109D01*
X115522181Y-107735050D01*
X115536792Y-107742494D01*
X115587589Y-107790467D01*
X115604500Y-107852980D01*
X115604500Y-109910411D01*
X115584815Y-109977450D01*
X115545598Y-110015949D01*
X115498844Y-110044787D01*
X115374789Y-110168842D01*
X115282687Y-110318163D01*
X115282686Y-110318166D01*
X115227501Y-110484703D01*
X115227501Y-110484704D01*
X115227500Y-110484704D01*
X115217000Y-110587483D01*
X115217000Y-111587501D01*
X115217001Y-111587519D01*
X115227500Y-111690296D01*
X115227501Y-111690299D01*
X115282686Y-111856833D01*
X115282688Y-111856838D01*
X115330839Y-111934905D01*
X115349279Y-112002297D01*
X115330839Y-112065095D01*
X115282688Y-112143161D01*
X115282686Y-112143165D01*
X115282686Y-112143166D01*
X115227501Y-112309703D01*
X115227501Y-112309704D01*
X115227500Y-112309704D01*
X115217000Y-112412483D01*
X115217000Y-113412501D01*
X115217001Y-113412519D01*
X115227500Y-113515296D01*
X115227501Y-113515299D01*
X115282685Y-113681831D01*
X115282687Y-113681836D01*
X115374789Y-113831157D01*
X115443969Y-113900337D01*
X115477454Y-113961660D01*
X115478948Y-113971147D01*
X115508340Y-114118907D01*
X115508343Y-114118917D01*
X115564912Y-114255488D01*
X115564919Y-114255501D01*
X115647048Y-114378415D01*
X115647051Y-114378419D01*
X115751580Y-114482948D01*
X115751584Y-114482951D01*
X115874498Y-114565080D01*
X115874511Y-114565087D01*
X116011082Y-114621656D01*
X116011087Y-114621658D01*
X116011091Y-114621658D01*
X116011092Y-114621659D01*
X116156079Y-114650500D01*
X116156082Y-114650500D01*
X116303920Y-114650500D01*
X116401462Y-114631096D01*
X116448913Y-114621658D01*
X116585495Y-114565084D01*
X116708416Y-114482951D01*
X116812951Y-114378416D01*
X116895084Y-114255495D01*
X116951658Y-114118913D01*
X116980500Y-113973918D01*
X116981689Y-113967943D01*
X116983374Y-113968278D01*
X117006460Y-113911088D01*
X117016013Y-113900354D01*
X117085212Y-113831156D01*
X117177314Y-113681834D01*
X117232499Y-113515297D01*
X117243000Y-113412509D01*
X117242999Y-112412492D01*
X117232499Y-112309703D01*
X117177314Y-112143166D01*
X117129159Y-112065094D01*
X117110720Y-111997705D01*
X117129159Y-111934905D01*
X117177314Y-111856834D01*
X117232499Y-111690297D01*
X117243000Y-111587509D01*
X117242999Y-110587492D01*
X117232499Y-110484703D01*
X117177314Y-110318166D01*
X117085212Y-110168844D01*
X116961156Y-110044788D01*
X116961155Y-110044787D01*
X116914402Y-110015949D01*
X116867678Y-109964000D01*
X116855500Y-109910411D01*
X116855500Y-107852980D01*
X116875185Y-107785941D01*
X116923208Y-107742494D01*
X116937818Y-107735050D01*
X117109786Y-107610109D01*
X117109788Y-107610106D01*
X117109792Y-107610104D01*
X117260104Y-107459792D01*
X117260106Y-107459788D01*
X117260109Y-107459786D01*
X117385048Y-107287820D01*
X117385047Y-107287820D01*
X117385051Y-107287816D01*
X117389514Y-107279054D01*
X117437488Y-107228259D01*
X117505308Y-107211463D01*
X117571444Y-107233999D01*
X117610486Y-107279056D01*
X117614951Y-107287820D01*
X117739890Y-107459786D01*
X117890213Y-107610109D01*
X118062181Y-107735050D01*
X118076792Y-107742494D01*
X118127589Y-107790467D01*
X118144500Y-107852980D01*
X118144500Y-109910411D01*
X118124815Y-109977450D01*
X118085598Y-110015949D01*
X118038844Y-110044787D01*
X117914789Y-110168842D01*
X117822687Y-110318163D01*
X117822686Y-110318166D01*
X117767501Y-110484703D01*
X117767501Y-110484704D01*
X117767500Y-110484704D01*
X117757000Y-110587483D01*
X117757000Y-111587501D01*
X117757001Y-111587519D01*
X117767500Y-111690296D01*
X117767501Y-111690299D01*
X117822686Y-111856833D01*
X117822688Y-111856838D01*
X117870839Y-111934905D01*
X117889279Y-112002297D01*
X117870839Y-112065095D01*
X117822688Y-112143161D01*
X117822686Y-112143165D01*
X117822686Y-112143166D01*
X117767501Y-112309703D01*
X117767501Y-112309704D01*
X117767500Y-112309704D01*
X117757000Y-112412483D01*
X117757000Y-113412501D01*
X117757001Y-113412519D01*
X117767500Y-113515296D01*
X117767501Y-113515299D01*
X117822685Y-113681831D01*
X117822687Y-113681836D01*
X117914789Y-113831157D01*
X117983969Y-113900337D01*
X118017454Y-113961660D01*
X118018948Y-113971147D01*
X118048340Y-114118907D01*
X118048343Y-114118917D01*
X118104912Y-114255488D01*
X118104919Y-114255501D01*
X118187048Y-114378415D01*
X118187051Y-114378419D01*
X118291580Y-114482948D01*
X118291584Y-114482951D01*
X118414498Y-114565080D01*
X118414511Y-114565087D01*
X118551082Y-114621656D01*
X118551087Y-114621658D01*
X118551091Y-114621658D01*
X118551092Y-114621659D01*
X118696079Y-114650500D01*
X118696082Y-114650500D01*
X118843920Y-114650500D01*
X118941462Y-114631096D01*
X118988913Y-114621658D01*
X119125495Y-114565084D01*
X119248416Y-114482951D01*
X119352951Y-114378416D01*
X119435084Y-114255495D01*
X119491658Y-114118913D01*
X119520500Y-113973918D01*
X119521689Y-113967943D01*
X119523374Y-113968278D01*
X119546460Y-113911088D01*
X119556013Y-113900354D01*
X119625212Y-113831156D01*
X119717314Y-113681834D01*
X119772499Y-113515297D01*
X119783000Y-113412509D01*
X119782999Y-112412492D01*
X119772499Y-112309703D01*
X119717314Y-112143166D01*
X119669159Y-112065094D01*
X119650720Y-111997705D01*
X119669159Y-111934905D01*
X119717314Y-111856834D01*
X119772499Y-111690297D01*
X119783000Y-111587509D01*
X119782999Y-110587492D01*
X119772499Y-110484703D01*
X119717314Y-110318166D01*
X119625212Y-110168844D01*
X119501156Y-110044788D01*
X119501155Y-110044787D01*
X119454402Y-110015949D01*
X119407678Y-109964000D01*
X119395500Y-109910411D01*
X119395500Y-107852980D01*
X119415185Y-107785941D01*
X119463208Y-107742494D01*
X119477818Y-107735050D01*
X119649786Y-107610109D01*
X119649788Y-107610106D01*
X119649792Y-107610104D01*
X119800104Y-107459792D01*
X119800106Y-107459788D01*
X119800109Y-107459786D01*
X119925048Y-107287820D01*
X119925047Y-107287820D01*
X119925051Y-107287816D01*
X119929514Y-107279054D01*
X119977488Y-107228259D01*
X120045308Y-107211463D01*
X120111444Y-107233999D01*
X120150486Y-107279056D01*
X120154951Y-107287820D01*
X120279890Y-107459786D01*
X120430213Y-107610109D01*
X120602181Y-107735050D01*
X120616792Y-107742494D01*
X120667589Y-107790467D01*
X120684500Y-107852980D01*
X120684500Y-109910411D01*
X120664815Y-109977450D01*
X120625598Y-110015949D01*
X120578844Y-110044787D01*
X120454789Y-110168842D01*
X120362687Y-110318163D01*
X120362686Y-110318166D01*
X120307501Y-110484703D01*
X120307501Y-110484704D01*
X120307500Y-110484704D01*
X120297000Y-110587483D01*
X120297000Y-111587501D01*
X120297001Y-111587519D01*
X120307500Y-111690296D01*
X120307501Y-111690299D01*
X120362686Y-111856833D01*
X120362688Y-111856838D01*
X120410839Y-111934905D01*
X120429279Y-112002297D01*
X120410839Y-112065095D01*
X120362688Y-112143161D01*
X120362686Y-112143165D01*
X120362686Y-112143166D01*
X120307501Y-112309703D01*
X120307501Y-112309704D01*
X120307500Y-112309704D01*
X120297000Y-112412483D01*
X120297000Y-113412501D01*
X120297001Y-113412519D01*
X120307500Y-113515296D01*
X120307501Y-113515299D01*
X120362685Y-113681831D01*
X120362687Y-113681836D01*
X120454789Y-113831157D01*
X120523969Y-113900337D01*
X120557454Y-113961660D01*
X120558948Y-113971147D01*
X120588340Y-114118907D01*
X120588343Y-114118917D01*
X120644912Y-114255488D01*
X120644919Y-114255501D01*
X120727048Y-114378415D01*
X120727051Y-114378419D01*
X120831580Y-114482948D01*
X120831584Y-114482951D01*
X120954498Y-114565080D01*
X120954511Y-114565087D01*
X121091082Y-114621656D01*
X121091087Y-114621658D01*
X121091091Y-114621658D01*
X121091092Y-114621659D01*
X121236079Y-114650500D01*
X121236082Y-114650500D01*
X121383920Y-114650500D01*
X121481462Y-114631096D01*
X121528913Y-114621658D01*
X121665495Y-114565084D01*
X121788416Y-114482951D01*
X121892951Y-114378416D01*
X121975084Y-114255495D01*
X122031658Y-114118913D01*
X122060500Y-113973918D01*
X122061689Y-113967943D01*
X122063374Y-113968278D01*
X122086460Y-113911088D01*
X122096013Y-113900354D01*
X122165212Y-113831156D01*
X122257314Y-113681834D01*
X122312499Y-113515297D01*
X122323000Y-113412509D01*
X122322999Y-112412492D01*
X122312499Y-112309703D01*
X122257314Y-112143166D01*
X122209159Y-112065094D01*
X122190720Y-111997705D01*
X122209159Y-111934905D01*
X122257314Y-111856834D01*
X122312499Y-111690297D01*
X122323000Y-111587509D01*
X122322999Y-110587492D01*
X122312499Y-110484703D01*
X122257314Y-110318166D01*
X122165212Y-110168844D01*
X122041156Y-110044788D01*
X122041155Y-110044787D01*
X121994402Y-110015949D01*
X121947678Y-109964000D01*
X121935500Y-109910411D01*
X121935500Y-107852980D01*
X121955185Y-107785941D01*
X122003208Y-107742494D01*
X122017818Y-107735050D01*
X122189786Y-107610109D01*
X122189788Y-107610106D01*
X122189792Y-107610104D01*
X122340104Y-107459792D01*
X122340106Y-107459788D01*
X122340109Y-107459786D01*
X122465048Y-107287820D01*
X122465047Y-107287820D01*
X122465051Y-107287816D01*
X122469514Y-107279054D01*
X122517488Y-107228259D01*
X122585308Y-107211463D01*
X122651444Y-107233999D01*
X122690486Y-107279056D01*
X122694951Y-107287820D01*
X122819890Y-107459786D01*
X122970213Y-107610109D01*
X123142181Y-107735050D01*
X123156792Y-107742494D01*
X123207589Y-107790467D01*
X123224500Y-107852980D01*
X123224500Y-109910411D01*
X123204815Y-109977450D01*
X123165598Y-110015949D01*
X123118844Y-110044787D01*
X122994789Y-110168842D01*
X122902687Y-110318163D01*
X122902686Y-110318166D01*
X122847501Y-110484703D01*
X122847501Y-110484704D01*
X122847500Y-110484704D01*
X122837000Y-110587483D01*
X122837000Y-111587501D01*
X122837001Y-111587519D01*
X122847500Y-111690296D01*
X122847501Y-111690299D01*
X122902686Y-111856833D01*
X122902688Y-111856838D01*
X122950839Y-111934905D01*
X122969279Y-112002297D01*
X122950839Y-112065095D01*
X122902688Y-112143161D01*
X122902686Y-112143165D01*
X122902686Y-112143166D01*
X122847501Y-112309703D01*
X122847501Y-112309704D01*
X122847500Y-112309704D01*
X122837000Y-112412483D01*
X122837000Y-113412501D01*
X122837001Y-113412519D01*
X122847500Y-113515296D01*
X122847501Y-113515299D01*
X122902685Y-113681831D01*
X122902687Y-113681836D01*
X122994789Y-113831157D01*
X123063969Y-113900337D01*
X123097454Y-113961660D01*
X123098948Y-113971147D01*
X123128340Y-114118907D01*
X123128343Y-114118917D01*
X123184912Y-114255488D01*
X123184919Y-114255501D01*
X123267048Y-114378415D01*
X123267051Y-114378419D01*
X123371580Y-114482948D01*
X123371584Y-114482951D01*
X123494498Y-114565080D01*
X123494511Y-114565087D01*
X123631082Y-114621656D01*
X123631087Y-114621658D01*
X123631091Y-114621658D01*
X123631092Y-114621659D01*
X123776079Y-114650500D01*
X123776082Y-114650500D01*
X123923920Y-114650500D01*
X124021462Y-114631096D01*
X124068913Y-114621658D01*
X124205495Y-114565084D01*
X124328416Y-114482951D01*
X124432951Y-114378416D01*
X124515084Y-114255495D01*
X124571658Y-114118913D01*
X124600500Y-113973918D01*
X124601689Y-113967943D01*
X124603374Y-113968278D01*
X124626460Y-113911088D01*
X124636013Y-113900354D01*
X124705212Y-113831156D01*
X124797314Y-113681834D01*
X124852499Y-113515297D01*
X124863000Y-113412509D01*
X124862999Y-112412492D01*
X124852499Y-112309703D01*
X124797314Y-112143166D01*
X124749159Y-112065094D01*
X124730720Y-111997705D01*
X124749159Y-111934905D01*
X124797314Y-111856834D01*
X124852499Y-111690297D01*
X124863000Y-111587509D01*
X124862999Y-110587492D01*
X124852499Y-110484703D01*
X124797314Y-110318166D01*
X124705212Y-110168844D01*
X124581156Y-110044788D01*
X124581155Y-110044787D01*
X124534402Y-110015949D01*
X124487678Y-109964000D01*
X124475500Y-109910411D01*
X124475500Y-107852980D01*
X124495185Y-107785941D01*
X124543208Y-107742494D01*
X124557818Y-107735050D01*
X124729786Y-107610109D01*
X124729788Y-107610106D01*
X124729792Y-107610104D01*
X124880104Y-107459792D01*
X124880106Y-107459788D01*
X124880109Y-107459786D01*
X125005048Y-107287820D01*
X125005047Y-107287820D01*
X125005051Y-107287816D01*
X125009514Y-107279054D01*
X125057488Y-107228259D01*
X125125308Y-107211463D01*
X125191444Y-107233999D01*
X125230486Y-107279056D01*
X125234951Y-107287820D01*
X125359890Y-107459786D01*
X125510213Y-107610109D01*
X125682181Y-107735050D01*
X125696792Y-107742494D01*
X125747589Y-107790467D01*
X125764500Y-107852980D01*
X125764500Y-109910411D01*
X125744815Y-109977450D01*
X125705598Y-110015949D01*
X125658844Y-110044787D01*
X125534789Y-110168842D01*
X125442687Y-110318163D01*
X125442686Y-110318166D01*
X125387501Y-110484703D01*
X125387501Y-110484704D01*
X125387500Y-110484704D01*
X125377000Y-110587483D01*
X125377000Y-111587501D01*
X125377001Y-111587519D01*
X125387500Y-111690296D01*
X125387501Y-111690299D01*
X125442686Y-111856833D01*
X125442688Y-111856838D01*
X125490839Y-111934905D01*
X125509279Y-112002297D01*
X125490839Y-112065095D01*
X125442688Y-112143161D01*
X125442686Y-112143165D01*
X125442686Y-112143166D01*
X125387501Y-112309703D01*
X125387501Y-112309704D01*
X125387500Y-112309704D01*
X125377000Y-112412483D01*
X125377000Y-113412501D01*
X125377001Y-113412519D01*
X125387500Y-113515296D01*
X125387501Y-113515299D01*
X125442685Y-113681831D01*
X125442687Y-113681836D01*
X125534789Y-113831157D01*
X125603969Y-113900337D01*
X125637454Y-113961660D01*
X125638948Y-113971147D01*
X125668340Y-114118907D01*
X125668343Y-114118917D01*
X125724912Y-114255488D01*
X125724919Y-114255501D01*
X125807048Y-114378415D01*
X125807051Y-114378419D01*
X125911580Y-114482948D01*
X125911584Y-114482951D01*
X126034498Y-114565080D01*
X126034511Y-114565087D01*
X126171082Y-114621656D01*
X126171087Y-114621658D01*
X126171091Y-114621658D01*
X126171092Y-114621659D01*
X126316079Y-114650500D01*
X126316082Y-114650500D01*
X126463920Y-114650500D01*
X126561462Y-114631096D01*
X126608913Y-114621658D01*
X126745495Y-114565084D01*
X126868416Y-114482951D01*
X126972951Y-114378416D01*
X127055084Y-114255495D01*
X127111658Y-114118913D01*
X127140500Y-113973918D01*
X127141689Y-113967943D01*
X127143374Y-113968278D01*
X127166460Y-113911088D01*
X127176013Y-113900354D01*
X127245212Y-113831156D01*
X127337314Y-113681834D01*
X127392499Y-113515297D01*
X127403000Y-113412509D01*
X127402999Y-112412492D01*
X127392499Y-112309703D01*
X127337314Y-112143166D01*
X127289159Y-112065094D01*
X127270720Y-111997705D01*
X127289159Y-111934905D01*
X127337314Y-111856834D01*
X127392499Y-111690297D01*
X127403000Y-111587509D01*
X127402999Y-110587492D01*
X127392499Y-110484703D01*
X127337314Y-110318166D01*
X127245212Y-110168844D01*
X127121156Y-110044788D01*
X127121155Y-110044787D01*
X127074402Y-110015949D01*
X127027678Y-109964000D01*
X127015500Y-109910411D01*
X127015500Y-107852980D01*
X127035185Y-107785941D01*
X127083208Y-107742494D01*
X127097818Y-107735050D01*
X127269786Y-107610109D01*
X127269788Y-107610106D01*
X127269792Y-107610104D01*
X127420104Y-107459792D01*
X127420106Y-107459788D01*
X127420109Y-107459786D01*
X127505890Y-107341717D01*
X127545051Y-107287816D01*
X127549793Y-107278508D01*
X127597763Y-107227711D01*
X127665583Y-107210911D01*
X127731719Y-107233445D01*
X127770763Y-107278500D01*
X127775373Y-107287547D01*
X127814728Y-107341716D01*
X128447037Y-106709408D01*
X128464075Y-106772993D01*
X128529901Y-106887007D01*
X128622993Y-106980099D01*
X128737007Y-107045925D01*
X128800590Y-107062962D01*
X128168282Y-107695269D01*
X128168282Y-107695270D01*
X128222449Y-107734624D01*
X128411782Y-107831095D01*
X128613870Y-107896757D01*
X128823754Y-107930000D01*
X129036246Y-107930000D01*
X129246127Y-107896757D01*
X129246130Y-107896757D01*
X129448217Y-107831095D01*
X129637554Y-107734622D01*
X129691716Y-107695270D01*
X129691717Y-107695270D01*
X129059408Y-107062962D01*
X129122993Y-107045925D01*
X129237007Y-106980099D01*
X129330099Y-106887007D01*
X129395925Y-106772993D01*
X129412962Y-106709409D01*
X130045270Y-107341717D01*
X130045270Y-107341716D01*
X130084622Y-107287554D01*
X130181095Y-107098217D01*
X130246757Y-106896130D01*
X130246757Y-106896127D01*
X130280000Y-106686246D01*
X130280000Y-106473753D01*
X130246757Y-106263872D01*
X130246757Y-106263869D01*
X130181095Y-106061782D01*
X130084624Y-105872449D01*
X130045270Y-105818282D01*
X130045269Y-105818282D01*
X129412962Y-106450590D01*
X129395925Y-106387007D01*
X129330099Y-106272993D01*
X129237007Y-106179901D01*
X129122993Y-106114075D01*
X129059409Y-106097037D01*
X129691716Y-105464728D01*
X129637550Y-105425375D01*
X129448217Y-105328904D01*
X129246129Y-105263242D01*
X129036246Y-105230000D01*
X128823754Y-105230000D01*
X128613872Y-105263242D01*
X128613869Y-105263242D01*
X128411782Y-105328904D01*
X128222439Y-105425380D01*
X128168282Y-105464727D01*
X128168282Y-105464728D01*
X128800591Y-106097037D01*
X128737007Y-106114075D01*
X128622993Y-106179901D01*
X128529901Y-106272993D01*
X128464075Y-106387007D01*
X128447037Y-106450591D01*
X127814728Y-105818282D01*
X127814727Y-105818282D01*
X127775380Y-105872440D01*
X127775376Y-105872446D01*
X127770760Y-105881505D01*
X127722781Y-105932297D01*
X127654959Y-105949087D01*
X127588826Y-105926543D01*
X127549794Y-105881493D01*
X127545051Y-105872184D01*
X127545049Y-105872181D01*
X127545048Y-105872179D01*
X127420109Y-105700213D01*
X127269786Y-105549890D01*
X127097820Y-105424951D01*
X126908414Y-105328444D01*
X126908413Y-105328443D01*
X126908412Y-105328443D01*
X126706243Y-105262754D01*
X126706241Y-105262753D01*
X126706240Y-105262753D01*
X126544957Y-105237208D01*
X126496287Y-105229500D01*
X126283713Y-105229500D01*
X126235042Y-105237208D01*
X126073760Y-105262753D01*
X125871585Y-105328444D01*
X125682179Y-105424951D01*
X125510213Y-105549890D01*
X125359890Y-105700213D01*
X125234949Y-105872182D01*
X125230484Y-105880946D01*
X125182509Y-105931742D01*
X125114688Y-105948536D01*
X125048553Y-105925998D01*
X125009516Y-105880946D01*
X125005050Y-105872182D01*
X124880109Y-105700213D01*
X124729786Y-105549890D01*
X124557820Y-105424951D01*
X124368414Y-105328444D01*
X124368413Y-105328443D01*
X124368412Y-105328443D01*
X124166243Y-105262754D01*
X124166241Y-105262753D01*
X124166240Y-105262753D01*
X124004957Y-105237208D01*
X123956287Y-105229500D01*
X123743713Y-105229500D01*
X123695042Y-105237208D01*
X123533760Y-105262753D01*
X123331585Y-105328444D01*
X123142179Y-105424951D01*
X122970213Y-105549890D01*
X122819890Y-105700213D01*
X122694949Y-105872182D01*
X122690484Y-105880946D01*
X122642509Y-105931742D01*
X122574688Y-105948536D01*
X122508553Y-105925998D01*
X122469516Y-105880946D01*
X122465050Y-105872182D01*
X122340109Y-105700213D01*
X122189786Y-105549890D01*
X122017820Y-105424951D01*
X121828414Y-105328444D01*
X121828413Y-105328443D01*
X121828412Y-105328443D01*
X121626243Y-105262754D01*
X121626241Y-105262753D01*
X121626240Y-105262753D01*
X121464957Y-105237208D01*
X121416287Y-105229500D01*
X121203713Y-105229500D01*
X121155042Y-105237208D01*
X120993760Y-105262753D01*
X120791585Y-105328444D01*
X120602179Y-105424951D01*
X120430213Y-105549890D01*
X120279890Y-105700213D01*
X120154949Y-105872182D01*
X120150484Y-105880946D01*
X120102509Y-105931742D01*
X120034688Y-105948536D01*
X119968553Y-105925998D01*
X119929516Y-105880946D01*
X119925050Y-105872182D01*
X119800109Y-105700213D01*
X119649786Y-105549890D01*
X119477820Y-105424951D01*
X119288414Y-105328444D01*
X119288413Y-105328443D01*
X119288412Y-105328443D01*
X119086243Y-105262754D01*
X119086241Y-105262753D01*
X119086240Y-105262753D01*
X118924957Y-105237208D01*
X118876287Y-105229500D01*
X118663713Y-105229500D01*
X118615042Y-105237208D01*
X118453760Y-105262753D01*
X118251585Y-105328444D01*
X118062179Y-105424951D01*
X117890213Y-105549890D01*
X117739890Y-105700213D01*
X117614949Y-105872182D01*
X117610484Y-105880946D01*
X117562509Y-105931742D01*
X117494688Y-105948536D01*
X117428553Y-105925998D01*
X117389516Y-105880946D01*
X117385050Y-105872182D01*
X117260109Y-105700213D01*
X117109786Y-105549890D01*
X116937820Y-105424951D01*
X116748414Y-105328444D01*
X116748413Y-105328443D01*
X116748412Y-105328443D01*
X116546243Y-105262754D01*
X116546241Y-105262753D01*
X116546240Y-105262753D01*
X116384957Y-105237208D01*
X116336287Y-105229500D01*
X116123713Y-105229500D01*
X116075042Y-105237208D01*
X115913760Y-105262753D01*
X115711585Y-105328444D01*
X115522179Y-105424951D01*
X115350213Y-105549890D01*
X115199890Y-105700213D01*
X115074949Y-105872182D01*
X115070484Y-105880946D01*
X115022509Y-105931742D01*
X114954688Y-105948536D01*
X114888553Y-105925998D01*
X114849516Y-105880946D01*
X114845050Y-105872182D01*
X114720109Y-105700213D01*
X114569786Y-105549890D01*
X114397820Y-105424951D01*
X114208414Y-105328444D01*
X114208413Y-105328443D01*
X114208412Y-105328443D01*
X114006243Y-105262754D01*
X114006241Y-105262753D01*
X114006240Y-105262753D01*
X113844957Y-105237208D01*
X113796287Y-105229500D01*
X113583713Y-105229500D01*
X113535042Y-105237208D01*
X113373760Y-105262753D01*
X113171585Y-105328444D01*
X112982179Y-105424951D01*
X112810213Y-105549890D01*
X112659890Y-105700213D01*
X112534949Y-105872182D01*
X112530484Y-105880946D01*
X112482509Y-105931742D01*
X112414688Y-105948536D01*
X112348553Y-105925998D01*
X112309516Y-105880946D01*
X112305050Y-105872182D01*
X112180109Y-105700213D01*
X112029786Y-105549890D01*
X111857820Y-105424951D01*
X111668414Y-105328444D01*
X111668413Y-105328443D01*
X111668412Y-105328443D01*
X111466243Y-105262754D01*
X111466241Y-105262753D01*
X111466240Y-105262753D01*
X111304957Y-105237208D01*
X111256287Y-105229500D01*
X111043713Y-105229500D01*
X110995042Y-105237208D01*
X110833760Y-105262753D01*
X110631585Y-105328444D01*
X110442179Y-105424951D01*
X110270213Y-105549890D01*
X110119890Y-105700213D01*
X109994949Y-105872182D01*
X109990484Y-105880946D01*
X109942509Y-105931742D01*
X109874688Y-105948536D01*
X109808553Y-105925998D01*
X109769516Y-105880946D01*
X109765050Y-105872182D01*
X109640109Y-105700213D01*
X109489786Y-105549890D01*
X109317820Y-105424951D01*
X109128414Y-105328444D01*
X109128413Y-105328443D01*
X109128412Y-105328443D01*
X108926243Y-105262754D01*
X108926241Y-105262753D01*
X108926240Y-105262753D01*
X108764957Y-105237208D01*
X108716287Y-105229500D01*
X108503713Y-105229500D01*
X108455042Y-105237208D01*
X108293760Y-105262753D01*
X108091585Y-105328444D01*
X107902179Y-105424951D01*
X107730215Y-105549889D01*
X107616285Y-105663819D01*
X107554962Y-105697303D01*
X107485270Y-105692319D01*
X107429337Y-105650447D01*
X107412422Y-105619470D01*
X107363354Y-105487913D01*
X107363350Y-105487906D01*
X107277190Y-105372812D01*
X107277187Y-105372809D01*
X107162093Y-105286649D01*
X107162086Y-105286645D01*
X107027379Y-105236403D01*
X107027372Y-105236401D01*
X106967844Y-105230000D01*
X106320000Y-105230000D01*
X106320000Y-106146988D01*
X106262993Y-106114075D01*
X106135826Y-106080000D01*
X106004174Y-106080000D01*
X105877007Y-106114075D01*
X105820000Y-106146988D01*
X105820000Y-105230000D01*
X105172155Y-105230000D01*
X105112627Y-105236401D01*
X105112620Y-105236403D01*
X104977913Y-105286645D01*
X104977906Y-105286649D01*
X104862812Y-105372809D01*
X104862809Y-105372812D01*
X104776649Y-105487906D01*
X104776645Y-105487913D01*
X104726403Y-105622620D01*
X104726401Y-105622627D01*
X104720000Y-105682155D01*
X100500500Y-105682155D01*
X100500500Y-100624500D01*
X100520185Y-100557461D01*
X100572989Y-100511706D01*
X100624500Y-100500500D01*
X134375500Y-100500500D01*
X134442539Y-100520185D01*
G37*
%TD.AperFunction*%
%TA.AperFunction,Conductor*%
G36*
X112491444Y-174073999D02*
G01*
X112530486Y-174119056D01*
X112534951Y-174127820D01*
X112659890Y-174299786D01*
X112810213Y-174450109D01*
X112982179Y-174575048D01*
X112982181Y-174575049D01*
X112982184Y-174575051D01*
X112991493Y-174579794D01*
X113042290Y-174627766D01*
X113059087Y-174695587D01*
X113036552Y-174761722D01*
X112991505Y-174800760D01*
X112982446Y-174805376D01*
X112982440Y-174805380D01*
X112928282Y-174844727D01*
X112928282Y-174844728D01*
X113560591Y-175477037D01*
X113497007Y-175494075D01*
X113382993Y-175559901D01*
X113289901Y-175652993D01*
X113224075Y-175767007D01*
X113207037Y-175830591D01*
X112574728Y-175198282D01*
X112574727Y-175198282D01*
X112535380Y-175252440D01*
X112535376Y-175252446D01*
X112530760Y-175261505D01*
X112482781Y-175312297D01*
X112414959Y-175329087D01*
X112348826Y-175306543D01*
X112309794Y-175261493D01*
X112305051Y-175252184D01*
X112305049Y-175252181D01*
X112305048Y-175252179D01*
X112180109Y-175080213D01*
X112029786Y-174929890D01*
X111857820Y-174804951D01*
X111857115Y-174804591D01*
X111849054Y-174800485D01*
X111798259Y-174752512D01*
X111781463Y-174684692D01*
X111803999Y-174618556D01*
X111849054Y-174579515D01*
X111857816Y-174575051D01*
X111944471Y-174512093D01*
X112029786Y-174450109D01*
X112029788Y-174450106D01*
X112029792Y-174450104D01*
X112180104Y-174299792D01*
X112180106Y-174299788D01*
X112180109Y-174299786D01*
X112305048Y-174127820D01*
X112305047Y-174127820D01*
X112305051Y-174127816D01*
X112309514Y-174119054D01*
X112357488Y-174068259D01*
X112425308Y-174051463D01*
X112491444Y-174073999D01*
G37*
%TD.AperFunction*%
%TA.AperFunction,Conductor*%
G36*
X115031444Y-174073999D02*
G01*
X115070486Y-174119056D01*
X115074951Y-174127820D01*
X115199890Y-174299786D01*
X115350213Y-174450109D01*
X115522179Y-174575048D01*
X115522181Y-174575049D01*
X115522184Y-174575051D01*
X115531493Y-174579794D01*
X115582290Y-174627766D01*
X115599087Y-174695587D01*
X115576552Y-174761722D01*
X115531505Y-174800760D01*
X115522446Y-174805376D01*
X115522440Y-174805380D01*
X115468282Y-174844727D01*
X115468282Y-174844728D01*
X116100591Y-175477037D01*
X116037007Y-175494075D01*
X115922993Y-175559901D01*
X115829901Y-175652993D01*
X115764075Y-175767007D01*
X115747037Y-175830591D01*
X115114728Y-175198282D01*
X115114727Y-175198282D01*
X115075380Y-175252440D01*
X115070483Y-175262051D01*
X115022506Y-175312845D01*
X114954684Y-175329638D01*
X114888550Y-175307098D01*
X114849516Y-175262048D01*
X114844626Y-175252452D01*
X114805270Y-175198282D01*
X114805269Y-175198282D01*
X114172962Y-175830590D01*
X114155925Y-175767007D01*
X114090099Y-175652993D01*
X113997007Y-175559901D01*
X113882993Y-175494075D01*
X113819409Y-175477037D01*
X114451716Y-174844728D01*
X114397547Y-174805373D01*
X114397547Y-174805372D01*
X114388500Y-174800763D01*
X114337706Y-174752788D01*
X114320912Y-174684966D01*
X114343451Y-174618832D01*
X114388508Y-174579793D01*
X114397816Y-174575051D01*
X114484471Y-174512093D01*
X114569786Y-174450109D01*
X114569788Y-174450106D01*
X114569792Y-174450104D01*
X114720104Y-174299792D01*
X114720106Y-174299788D01*
X114720109Y-174299786D01*
X114845048Y-174127820D01*
X114845047Y-174127820D01*
X114845051Y-174127816D01*
X114849514Y-174119054D01*
X114897488Y-174068259D01*
X114965308Y-174051463D01*
X115031444Y-174073999D01*
G37*
%TD.AperFunction*%
%TA.AperFunction,Conductor*%
G36*
X117571444Y-174073999D02*
G01*
X117610486Y-174119056D01*
X117614951Y-174127820D01*
X117739890Y-174299786D01*
X117890213Y-174450109D01*
X118062179Y-174575048D01*
X118062181Y-174575049D01*
X118062184Y-174575051D01*
X118071493Y-174579794D01*
X118122290Y-174627766D01*
X118139087Y-174695587D01*
X118116552Y-174761722D01*
X118071505Y-174800760D01*
X118062446Y-174805376D01*
X118062440Y-174805380D01*
X118008282Y-174844727D01*
X118008282Y-174844728D01*
X118640591Y-175477037D01*
X118577007Y-175494075D01*
X118462993Y-175559901D01*
X118369901Y-175652993D01*
X118304075Y-175767007D01*
X118287037Y-175830591D01*
X117654728Y-175198282D01*
X117654727Y-175198282D01*
X117615380Y-175252440D01*
X117610483Y-175262051D01*
X117562506Y-175312845D01*
X117494684Y-175329638D01*
X117428550Y-175307098D01*
X117389516Y-175262048D01*
X117384626Y-175252452D01*
X117345270Y-175198282D01*
X117345269Y-175198282D01*
X116712962Y-175830590D01*
X116695925Y-175767007D01*
X116630099Y-175652993D01*
X116537007Y-175559901D01*
X116422993Y-175494075D01*
X116359409Y-175477037D01*
X116991716Y-174844728D01*
X116937547Y-174805373D01*
X116937547Y-174805372D01*
X116928500Y-174800763D01*
X116877706Y-174752788D01*
X116860912Y-174684966D01*
X116883451Y-174618832D01*
X116928508Y-174579793D01*
X116937816Y-174575051D01*
X117024471Y-174512093D01*
X117109786Y-174450109D01*
X117109788Y-174450106D01*
X117109792Y-174450104D01*
X117260104Y-174299792D01*
X117260106Y-174299788D01*
X117260109Y-174299786D01*
X117385048Y-174127820D01*
X117385047Y-174127820D01*
X117385051Y-174127816D01*
X117389514Y-174119054D01*
X117437488Y-174068259D01*
X117505308Y-174051463D01*
X117571444Y-174073999D01*
G37*
%TD.AperFunction*%
%TA.AperFunction,Conductor*%
G36*
X120111444Y-174073999D02*
G01*
X120150486Y-174119056D01*
X120154951Y-174127820D01*
X120279890Y-174299786D01*
X120430213Y-174450109D01*
X120602179Y-174575048D01*
X120602181Y-174575049D01*
X120602184Y-174575051D01*
X120611493Y-174579794D01*
X120662290Y-174627766D01*
X120679087Y-174695587D01*
X120656552Y-174761722D01*
X120611505Y-174800760D01*
X120602446Y-174805376D01*
X120602440Y-174805380D01*
X120548282Y-174844727D01*
X120548282Y-174844728D01*
X121180591Y-175477037D01*
X121117007Y-175494075D01*
X121002993Y-175559901D01*
X120909901Y-175652993D01*
X120844075Y-175767007D01*
X120827037Y-175830591D01*
X120194728Y-175198282D01*
X120194727Y-175198282D01*
X120155380Y-175252440D01*
X120150483Y-175262051D01*
X120102506Y-175312845D01*
X120034684Y-175329638D01*
X119968550Y-175307098D01*
X119929516Y-175262048D01*
X119924626Y-175252452D01*
X119885270Y-175198282D01*
X119885269Y-175198282D01*
X119252962Y-175830590D01*
X119235925Y-175767007D01*
X119170099Y-175652993D01*
X119077007Y-175559901D01*
X118962993Y-175494075D01*
X118899409Y-175477037D01*
X119531716Y-174844728D01*
X119477547Y-174805373D01*
X119477547Y-174805372D01*
X119468500Y-174800763D01*
X119417706Y-174752788D01*
X119400912Y-174684966D01*
X119423451Y-174618832D01*
X119468508Y-174579793D01*
X119477816Y-174575051D01*
X119564471Y-174512093D01*
X119649786Y-174450109D01*
X119649788Y-174450106D01*
X119649792Y-174450104D01*
X119800104Y-174299792D01*
X119800106Y-174299788D01*
X119800109Y-174299786D01*
X119925048Y-174127820D01*
X119925047Y-174127820D01*
X119925051Y-174127816D01*
X119929514Y-174119054D01*
X119977488Y-174068259D01*
X120045308Y-174051463D01*
X120111444Y-174073999D01*
G37*
%TD.AperFunction*%
%TA.AperFunction,Conductor*%
G36*
X123384075Y-173612993D02*
G01*
X123449901Y-173727007D01*
X123542993Y-173820099D01*
X123657007Y-173885925D01*
X123720590Y-173902962D01*
X123088282Y-174535269D01*
X123088282Y-174535270D01*
X123142452Y-174574626D01*
X123142451Y-174574626D01*
X123151495Y-174579234D01*
X123202292Y-174627208D01*
X123219087Y-174695029D01*
X123196550Y-174761164D01*
X123151499Y-174800202D01*
X123142182Y-174804949D01*
X122970213Y-174929890D01*
X122819890Y-175080213D01*
X122694949Y-175252182D01*
X122690202Y-175261499D01*
X122642227Y-175312293D01*
X122574405Y-175329087D01*
X122508271Y-175306548D01*
X122469234Y-175261495D01*
X122464626Y-175252452D01*
X122425270Y-175198282D01*
X122425269Y-175198282D01*
X121792962Y-175830590D01*
X121775925Y-175767007D01*
X121710099Y-175652993D01*
X121617007Y-175559901D01*
X121502993Y-175494075D01*
X121439409Y-175477037D01*
X122071716Y-174844728D01*
X122017547Y-174805373D01*
X122017547Y-174805372D01*
X122008500Y-174800763D01*
X121957706Y-174752788D01*
X121940912Y-174684966D01*
X121963451Y-174618832D01*
X122008508Y-174579793D01*
X122017816Y-174575051D01*
X122104471Y-174512093D01*
X122189786Y-174450109D01*
X122189788Y-174450106D01*
X122189792Y-174450104D01*
X122340104Y-174299792D01*
X122340106Y-174299788D01*
X122340109Y-174299786D01*
X122425890Y-174181717D01*
X122465051Y-174127816D01*
X122469793Y-174118508D01*
X122517763Y-174067711D01*
X122585583Y-174050911D01*
X122651719Y-174073445D01*
X122690763Y-174118500D01*
X122695373Y-174127547D01*
X122734728Y-174181716D01*
X123367037Y-173549408D01*
X123384075Y-173612993D01*
G37*
%TD.AperFunction*%
%TA.AperFunction,Conductor*%
G36*
X125924075Y-173612993D02*
G01*
X125989901Y-173727007D01*
X126082993Y-173820099D01*
X126197007Y-173885925D01*
X126260590Y-173902962D01*
X125628282Y-174535269D01*
X125628282Y-174535270D01*
X125682452Y-174574626D01*
X125682451Y-174574626D01*
X125691495Y-174579234D01*
X125742292Y-174627208D01*
X125759087Y-174695029D01*
X125736550Y-174761164D01*
X125691499Y-174800202D01*
X125682182Y-174804949D01*
X125510213Y-174929890D01*
X125359890Y-175080213D01*
X125234949Y-175252182D01*
X125230484Y-175260946D01*
X125182509Y-175311742D01*
X125114688Y-175328536D01*
X125048553Y-175305998D01*
X125009516Y-175260946D01*
X125005050Y-175252182D01*
X124880109Y-175080213D01*
X124729786Y-174929890D01*
X124557817Y-174804949D01*
X124548504Y-174800204D01*
X124497707Y-174752230D01*
X124480912Y-174684409D01*
X124503449Y-174618274D01*
X124548507Y-174579232D01*
X124557555Y-174574622D01*
X124611716Y-174535270D01*
X124611717Y-174535270D01*
X123979408Y-173902962D01*
X124042993Y-173885925D01*
X124157007Y-173820099D01*
X124250099Y-173727007D01*
X124315925Y-173612993D01*
X124332962Y-173549408D01*
X124965270Y-174181717D01*
X124965270Y-174181716D01*
X125004622Y-174127554D01*
X125009514Y-174117954D01*
X125057488Y-174067157D01*
X125125308Y-174050361D01*
X125191444Y-174072897D01*
X125230486Y-174117954D01*
X125235375Y-174127550D01*
X125274728Y-174181716D01*
X125907037Y-173549408D01*
X125924075Y-173612993D01*
G37*
%TD.AperFunction*%
%TA.AperFunction,Conductor*%
G36*
X127542356Y-174218803D02*
G01*
X127575841Y-174280126D01*
X127574926Y-174294831D01*
X127577497Y-174294555D01*
X127586401Y-174377373D01*
X127586403Y-174377380D01*
X127636645Y-174512086D01*
X127636649Y-174512093D01*
X127722809Y-174627187D01*
X127722812Y-174627190D01*
X127837906Y-174713350D01*
X127837913Y-174713354D01*
X127969470Y-174762422D01*
X128025404Y-174804293D01*
X128049821Y-174869758D01*
X128034969Y-174938031D01*
X128013819Y-174966285D01*
X127899889Y-175080215D01*
X127774949Y-175252182D01*
X127770484Y-175260946D01*
X127722509Y-175311742D01*
X127654688Y-175328536D01*
X127588553Y-175305998D01*
X127549516Y-175260946D01*
X127545050Y-175252182D01*
X127420109Y-175080213D01*
X127269786Y-174929890D01*
X127097817Y-174804949D01*
X127088504Y-174800204D01*
X127037707Y-174752230D01*
X127020912Y-174684409D01*
X127043449Y-174618274D01*
X127088507Y-174579232D01*
X127097555Y-174574622D01*
X127151716Y-174535270D01*
X127151717Y-174535270D01*
X126519408Y-173902962D01*
X126582993Y-173885925D01*
X126697007Y-173820099D01*
X126790099Y-173727007D01*
X126855925Y-173612993D01*
X126872962Y-173549408D01*
X127542356Y-174218803D01*
G37*
%TD.AperFunction*%
%TD*%
M02*
