%TF.GenerationSoftware,KiCad,Pcbnew,10.0.3*%
%TF.CreationDate,2026-07-11T20:32:27+02:00*%
%TF.ProjectId,musicbrain-busboard-v2,6d757369-6362-4726-9169-6e2d62757362,2.0*%
%TF.SameCoordinates,Original*%
%TF.FileFunction,Drillmap*%
%TF.FilePolarity,Positive*%
%FSLAX45Y45*%
G04 Gerber Fmt 4.5, Leading zero omitted, Abs format (unit mm)*
G04 Created by KiCad (PCBNEW 10.0.3) date 2026-07-11 20:32:27*
%MOMM*%
%LPD*%
G01*
G04 APERTURE LIST*
%ADD10C,0.100000*%
%ADD11C,0.200000*%
%ADD12C,0.320000*%
G04 APERTURE END LIST*
D10*
X1500000Y-1000000D02*
X21500000Y-1000000D01*
X21500000Y-12500000D01*
X1500000Y-12500000D01*
X1500000Y-1000000D01*
D11*
D12*
X1640000Y-1140000D02*
X1960000Y-1460000D01*
X1960000Y-1140000D02*
X1640000Y-1460000D01*
X12340000Y-12040000D02*
X12660000Y-12360000D01*
X12660000Y-12040000D02*
X12340000Y-12360000D01*
X13840000Y-12040000D02*
X14160000Y-12360000D01*
X14160000Y-12040000D02*
X13840000Y-12360000D01*
X16140000Y-1140000D02*
X16460000Y-1460000D01*
X16460000Y-1140000D02*
X16140000Y-1460000D01*
X21040000Y-1140000D02*
X21360000Y-1460000D01*
X21360000Y-1140000D02*
X21040000Y-1460000D01*
D11*
X1755777Y-12816484D02*
X1755777Y-12616484D01*
X1755777Y-12616484D02*
X1803396Y-12616484D01*
X1803396Y-12616484D02*
X1831967Y-12626008D01*
X1831967Y-12626008D02*
X1851015Y-12645055D01*
X1851015Y-12645055D02*
X1860539Y-12664103D01*
X1860539Y-12664103D02*
X1870062Y-12702198D01*
X1870062Y-12702198D02*
X1870062Y-12730769D01*
X1870062Y-12730769D02*
X1860539Y-12768865D01*
X1860539Y-12768865D02*
X1851015Y-12787912D01*
X1851015Y-12787912D02*
X1831967Y-12806960D01*
X1831967Y-12806960D02*
X1803396Y-12816484D01*
X1803396Y-12816484D02*
X1755777Y-12816484D01*
X1955777Y-12816484D02*
X1955777Y-12683150D01*
X1955777Y-12721246D02*
X1965301Y-12702198D01*
X1965301Y-12702198D02*
X1974824Y-12692674D01*
X1974824Y-12692674D02*
X1993872Y-12683150D01*
X1993872Y-12683150D02*
X2012920Y-12683150D01*
X2079586Y-12816484D02*
X2079586Y-12683150D01*
X2079586Y-12616484D02*
X2070062Y-12626008D01*
X2070062Y-12626008D02*
X2079586Y-12635531D01*
X2079586Y-12635531D02*
X2089110Y-12626008D01*
X2089110Y-12626008D02*
X2079586Y-12616484D01*
X2079586Y-12616484D02*
X2079586Y-12635531D01*
X2203396Y-12816484D02*
X2184348Y-12806960D01*
X2184348Y-12806960D02*
X2174824Y-12787912D01*
X2174824Y-12787912D02*
X2174824Y-12616484D01*
X2308158Y-12816484D02*
X2289110Y-12806960D01*
X2289110Y-12806960D02*
X2279586Y-12787912D01*
X2279586Y-12787912D02*
X2279586Y-12616484D01*
X2536729Y-12816484D02*
X2536729Y-12616484D01*
X2536729Y-12616484D02*
X2603396Y-12759341D01*
X2603396Y-12759341D02*
X2670063Y-12616484D01*
X2670063Y-12616484D02*
X2670063Y-12816484D01*
X2851015Y-12816484D02*
X2851015Y-12711722D01*
X2851015Y-12711722D02*
X2841491Y-12692674D01*
X2841491Y-12692674D02*
X2822443Y-12683150D01*
X2822443Y-12683150D02*
X2784348Y-12683150D01*
X2784348Y-12683150D02*
X2765301Y-12692674D01*
X2851015Y-12806960D02*
X2831967Y-12816484D01*
X2831967Y-12816484D02*
X2784348Y-12816484D01*
X2784348Y-12816484D02*
X2765301Y-12806960D01*
X2765301Y-12806960D02*
X2755777Y-12787912D01*
X2755777Y-12787912D02*
X2755777Y-12768865D01*
X2755777Y-12768865D02*
X2765301Y-12749817D01*
X2765301Y-12749817D02*
X2784348Y-12740293D01*
X2784348Y-12740293D02*
X2831967Y-12740293D01*
X2831967Y-12740293D02*
X2851015Y-12730769D01*
X2946253Y-12683150D02*
X2946253Y-12883150D01*
X2946253Y-12692674D02*
X2965301Y-12683150D01*
X2965301Y-12683150D02*
X3003396Y-12683150D01*
X3003396Y-12683150D02*
X3022443Y-12692674D01*
X3022443Y-12692674D02*
X3031967Y-12702198D01*
X3031967Y-12702198D02*
X3041491Y-12721246D01*
X3041491Y-12721246D02*
X3041491Y-12778388D01*
X3041491Y-12778388D02*
X3031967Y-12797436D01*
X3031967Y-12797436D02*
X3022443Y-12806960D01*
X3022443Y-12806960D02*
X3003396Y-12816484D01*
X3003396Y-12816484D02*
X2965301Y-12816484D01*
X2965301Y-12816484D02*
X2946253Y-12806960D01*
X3127205Y-12797436D02*
X3136729Y-12806960D01*
X3136729Y-12806960D02*
X3127205Y-12816484D01*
X3127205Y-12816484D02*
X3117682Y-12806960D01*
X3117682Y-12806960D02*
X3127205Y-12797436D01*
X3127205Y-12797436D02*
X3127205Y-12816484D01*
X3127205Y-12692674D02*
X3136729Y-12702198D01*
X3136729Y-12702198D02*
X3127205Y-12711722D01*
X3127205Y-12711722D02*
X3117682Y-12702198D01*
X3117682Y-12702198D02*
X3127205Y-12692674D01*
X3127205Y-12692674D02*
X3127205Y-12711722D01*
X1295000Y-13045000D02*
X1495000Y-13245000D01*
X1495000Y-13045000D02*
X1295000Y-13245000D01*
X1736729Y-13036484D02*
X1860539Y-13036484D01*
X1860539Y-13036484D02*
X1793872Y-13112674D01*
X1793872Y-13112674D02*
X1822443Y-13112674D01*
X1822443Y-13112674D02*
X1841491Y-13122198D01*
X1841491Y-13122198D02*
X1851015Y-13131722D01*
X1851015Y-13131722D02*
X1860539Y-13150769D01*
X1860539Y-13150769D02*
X1860539Y-13198388D01*
X1860539Y-13198388D02*
X1851015Y-13217436D01*
X1851015Y-13217436D02*
X1841491Y-13226960D01*
X1841491Y-13226960D02*
X1822443Y-13236484D01*
X1822443Y-13236484D02*
X1765301Y-13236484D01*
X1765301Y-13236484D02*
X1746253Y-13226960D01*
X1746253Y-13226960D02*
X1736729Y-13217436D01*
X1955777Y-13226960D02*
X1955777Y-13236484D01*
X1955777Y-13236484D02*
X1946253Y-13255531D01*
X1946253Y-13255531D02*
X1936729Y-13265055D01*
X2031967Y-13055531D02*
X2041491Y-13046008D01*
X2041491Y-13046008D02*
X2060539Y-13036484D01*
X2060539Y-13036484D02*
X2108158Y-13036484D01*
X2108158Y-13036484D02*
X2127205Y-13046008D01*
X2127205Y-13046008D02*
X2136729Y-13055531D01*
X2136729Y-13055531D02*
X2146253Y-13074579D01*
X2146253Y-13074579D02*
X2146253Y-13093627D01*
X2146253Y-13093627D02*
X2136729Y-13122198D01*
X2136729Y-13122198D02*
X2022443Y-13236484D01*
X2022443Y-13236484D02*
X2146253Y-13236484D01*
X2270063Y-13036484D02*
X2289110Y-13036484D01*
X2289110Y-13036484D02*
X2308158Y-13046008D01*
X2308158Y-13046008D02*
X2317682Y-13055531D01*
X2317682Y-13055531D02*
X2327205Y-13074579D01*
X2327205Y-13074579D02*
X2336729Y-13112674D01*
X2336729Y-13112674D02*
X2336729Y-13160293D01*
X2336729Y-13160293D02*
X2327205Y-13198388D01*
X2327205Y-13198388D02*
X2317682Y-13217436D01*
X2317682Y-13217436D02*
X2308158Y-13226960D01*
X2308158Y-13226960D02*
X2289110Y-13236484D01*
X2289110Y-13236484D02*
X2270063Y-13236484D01*
X2270063Y-13236484D02*
X2251015Y-13226960D01*
X2251015Y-13226960D02*
X2241491Y-13217436D01*
X2241491Y-13217436D02*
X2231967Y-13198388D01*
X2231967Y-13198388D02*
X2222444Y-13160293D01*
X2222444Y-13160293D02*
X2222444Y-13112674D01*
X2222444Y-13112674D02*
X2231967Y-13074579D01*
X2231967Y-13074579D02*
X2241491Y-13055531D01*
X2241491Y-13055531D02*
X2251015Y-13046008D01*
X2251015Y-13046008D02*
X2270063Y-13036484D01*
X2460539Y-13036484D02*
X2479586Y-13036484D01*
X2479586Y-13036484D02*
X2498634Y-13046008D01*
X2498634Y-13046008D02*
X2508158Y-13055531D01*
X2508158Y-13055531D02*
X2517682Y-13074579D01*
X2517682Y-13074579D02*
X2527205Y-13112674D01*
X2527205Y-13112674D02*
X2527205Y-13160293D01*
X2527205Y-13160293D02*
X2517682Y-13198388D01*
X2517682Y-13198388D02*
X2508158Y-13217436D01*
X2508158Y-13217436D02*
X2498634Y-13226960D01*
X2498634Y-13226960D02*
X2479586Y-13236484D01*
X2479586Y-13236484D02*
X2460539Y-13236484D01*
X2460539Y-13236484D02*
X2441491Y-13226960D01*
X2441491Y-13226960D02*
X2431967Y-13217436D01*
X2431967Y-13217436D02*
X2422444Y-13198388D01*
X2422444Y-13198388D02*
X2412920Y-13160293D01*
X2412920Y-13160293D02*
X2412920Y-13112674D01*
X2412920Y-13112674D02*
X2422444Y-13074579D01*
X2422444Y-13074579D02*
X2431967Y-13055531D01*
X2431967Y-13055531D02*
X2441491Y-13046008D01*
X2441491Y-13046008D02*
X2460539Y-13036484D01*
X2612920Y-13236484D02*
X2612920Y-13103150D01*
X2612920Y-13122198D02*
X2622444Y-13112674D01*
X2622444Y-13112674D02*
X2641491Y-13103150D01*
X2641491Y-13103150D02*
X2670063Y-13103150D01*
X2670063Y-13103150D02*
X2689110Y-13112674D01*
X2689110Y-13112674D02*
X2698634Y-13131722D01*
X2698634Y-13131722D02*
X2698634Y-13236484D01*
X2698634Y-13131722D02*
X2708158Y-13112674D01*
X2708158Y-13112674D02*
X2727205Y-13103150D01*
X2727205Y-13103150D02*
X2755777Y-13103150D01*
X2755777Y-13103150D02*
X2774825Y-13112674D01*
X2774825Y-13112674D02*
X2784348Y-13131722D01*
X2784348Y-13131722D02*
X2784348Y-13236484D01*
X2879586Y-13236484D02*
X2879586Y-13103150D01*
X2879586Y-13122198D02*
X2889110Y-13112674D01*
X2889110Y-13112674D02*
X2908158Y-13103150D01*
X2908158Y-13103150D02*
X2936729Y-13103150D01*
X2936729Y-13103150D02*
X2955777Y-13112674D01*
X2955777Y-13112674D02*
X2965301Y-13131722D01*
X2965301Y-13131722D02*
X2965301Y-13236484D01*
X2965301Y-13131722D02*
X2974824Y-13112674D01*
X2974824Y-13112674D02*
X2993872Y-13103150D01*
X2993872Y-13103150D02*
X3022443Y-13103150D01*
X3022443Y-13103150D02*
X3041491Y-13112674D01*
X3041491Y-13112674D02*
X3051015Y-13131722D01*
X3051015Y-13131722D02*
X3051015Y-13236484D01*
X3441491Y-13026960D02*
X3270063Y-13284103D01*
X3698634Y-13036484D02*
X3717682Y-13036484D01*
X3717682Y-13036484D02*
X3736729Y-13046008D01*
X3736729Y-13046008D02*
X3746253Y-13055531D01*
X3746253Y-13055531D02*
X3755777Y-13074579D01*
X3755777Y-13074579D02*
X3765301Y-13112674D01*
X3765301Y-13112674D02*
X3765301Y-13160293D01*
X3765301Y-13160293D02*
X3755777Y-13198388D01*
X3755777Y-13198388D02*
X3746253Y-13217436D01*
X3746253Y-13217436D02*
X3736729Y-13226960D01*
X3736729Y-13226960D02*
X3717682Y-13236484D01*
X3717682Y-13236484D02*
X3698634Y-13236484D01*
X3698634Y-13236484D02*
X3679586Y-13226960D01*
X3679586Y-13226960D02*
X3670063Y-13217436D01*
X3670063Y-13217436D02*
X3660539Y-13198388D01*
X3660539Y-13198388D02*
X3651015Y-13160293D01*
X3651015Y-13160293D02*
X3651015Y-13112674D01*
X3651015Y-13112674D02*
X3660539Y-13074579D01*
X3660539Y-13074579D02*
X3670063Y-13055531D01*
X3670063Y-13055531D02*
X3679586Y-13046008D01*
X3679586Y-13046008D02*
X3698634Y-13036484D01*
X3860539Y-13226960D02*
X3860539Y-13236484D01*
X3860539Y-13236484D02*
X3851015Y-13255531D01*
X3851015Y-13255531D02*
X3841491Y-13265055D01*
X4051015Y-13236484D02*
X3936729Y-13236484D01*
X3993872Y-13236484D02*
X3993872Y-13036484D01*
X3993872Y-13036484D02*
X3974825Y-13065055D01*
X3974825Y-13065055D02*
X3955777Y-13084103D01*
X3955777Y-13084103D02*
X3936729Y-13093627D01*
X4127206Y-13055531D02*
X4136729Y-13046008D01*
X4136729Y-13046008D02*
X4155777Y-13036484D01*
X4155777Y-13036484D02*
X4203396Y-13036484D01*
X4203396Y-13036484D02*
X4222444Y-13046008D01*
X4222444Y-13046008D02*
X4231968Y-13055531D01*
X4231968Y-13055531D02*
X4241491Y-13074579D01*
X4241491Y-13074579D02*
X4241491Y-13093627D01*
X4241491Y-13093627D02*
X4231968Y-13122198D01*
X4231968Y-13122198D02*
X4117682Y-13236484D01*
X4117682Y-13236484D02*
X4241491Y-13236484D01*
X4412920Y-13036484D02*
X4374825Y-13036484D01*
X4374825Y-13036484D02*
X4355777Y-13046008D01*
X4355777Y-13046008D02*
X4346253Y-13055531D01*
X4346253Y-13055531D02*
X4327206Y-13084103D01*
X4327206Y-13084103D02*
X4317682Y-13122198D01*
X4317682Y-13122198D02*
X4317682Y-13198388D01*
X4317682Y-13198388D02*
X4327206Y-13217436D01*
X4327206Y-13217436D02*
X4336729Y-13226960D01*
X4336729Y-13226960D02*
X4355777Y-13236484D01*
X4355777Y-13236484D02*
X4393872Y-13236484D01*
X4393872Y-13236484D02*
X4412920Y-13226960D01*
X4412920Y-13226960D02*
X4422444Y-13217436D01*
X4422444Y-13217436D02*
X4431968Y-13198388D01*
X4431968Y-13198388D02*
X4431968Y-13150769D01*
X4431968Y-13150769D02*
X4422444Y-13131722D01*
X4422444Y-13131722D02*
X4412920Y-13122198D01*
X4412920Y-13122198D02*
X4393872Y-13112674D01*
X4393872Y-13112674D02*
X4355777Y-13112674D01*
X4355777Y-13112674D02*
X4336729Y-13122198D01*
X4336729Y-13122198D02*
X4327206Y-13131722D01*
X4327206Y-13131722D02*
X4317682Y-13150769D01*
X4555777Y-13036484D02*
X4574825Y-13036484D01*
X4574825Y-13036484D02*
X4593872Y-13046008D01*
X4593872Y-13046008D02*
X4603396Y-13055531D01*
X4603396Y-13055531D02*
X4612920Y-13074579D01*
X4612920Y-13074579D02*
X4622444Y-13112674D01*
X4622444Y-13112674D02*
X4622444Y-13160293D01*
X4622444Y-13160293D02*
X4612920Y-13198388D01*
X4612920Y-13198388D02*
X4603396Y-13217436D01*
X4603396Y-13217436D02*
X4593872Y-13226960D01*
X4593872Y-13226960D02*
X4574825Y-13236484D01*
X4574825Y-13236484D02*
X4555777Y-13236484D01*
X4555777Y-13236484D02*
X4536729Y-13226960D01*
X4536729Y-13226960D02*
X4527206Y-13217436D01*
X4527206Y-13217436D02*
X4517682Y-13198388D01*
X4517682Y-13198388D02*
X4508158Y-13160293D01*
X4508158Y-13160293D02*
X4508158Y-13112674D01*
X4508158Y-13112674D02*
X4517682Y-13074579D01*
X4517682Y-13074579D02*
X4527206Y-13055531D01*
X4527206Y-13055531D02*
X4536729Y-13046008D01*
X4536729Y-13046008D02*
X4555777Y-13036484D01*
X4698634Y-13036484D02*
X4698634Y-13074579D01*
X4774825Y-13036484D02*
X4774825Y-13074579D01*
X5070063Y-13312674D02*
X5060539Y-13303150D01*
X5060539Y-13303150D02*
X5041491Y-13274579D01*
X5041491Y-13274579D02*
X5031968Y-13255531D01*
X5031968Y-13255531D02*
X5022444Y-13226960D01*
X5022444Y-13226960D02*
X5012920Y-13179341D01*
X5012920Y-13179341D02*
X5012920Y-13141246D01*
X5012920Y-13141246D02*
X5022444Y-13093627D01*
X5022444Y-13093627D02*
X5031968Y-13065055D01*
X5031968Y-13065055D02*
X5041491Y-13046008D01*
X5041491Y-13046008D02*
X5060539Y-13017436D01*
X5060539Y-13017436D02*
X5070063Y-13007912D01*
X5241491Y-13036484D02*
X5146253Y-13036484D01*
X5146253Y-13036484D02*
X5136730Y-13131722D01*
X5136730Y-13131722D02*
X5146253Y-13122198D01*
X5146253Y-13122198D02*
X5165301Y-13112674D01*
X5165301Y-13112674D02*
X5212920Y-13112674D01*
X5212920Y-13112674D02*
X5231968Y-13122198D01*
X5231968Y-13122198D02*
X5241491Y-13131722D01*
X5241491Y-13131722D02*
X5251015Y-13150769D01*
X5251015Y-13150769D02*
X5251015Y-13198388D01*
X5251015Y-13198388D02*
X5241491Y-13217436D01*
X5241491Y-13217436D02*
X5231968Y-13226960D01*
X5231968Y-13226960D02*
X5212920Y-13236484D01*
X5212920Y-13236484D02*
X5165301Y-13236484D01*
X5165301Y-13236484D02*
X5146253Y-13226960D01*
X5146253Y-13226960D02*
X5136730Y-13217436D01*
X5489111Y-13236484D02*
X5489111Y-13036484D01*
X5574825Y-13236484D02*
X5574825Y-13131722D01*
X5574825Y-13131722D02*
X5565301Y-13112674D01*
X5565301Y-13112674D02*
X5546253Y-13103150D01*
X5546253Y-13103150D02*
X5517682Y-13103150D01*
X5517682Y-13103150D02*
X5498634Y-13112674D01*
X5498634Y-13112674D02*
X5489111Y-13122198D01*
X5698634Y-13236484D02*
X5679587Y-13226960D01*
X5679587Y-13226960D02*
X5670063Y-13217436D01*
X5670063Y-13217436D02*
X5660539Y-13198388D01*
X5660539Y-13198388D02*
X5660539Y-13141246D01*
X5660539Y-13141246D02*
X5670063Y-13122198D01*
X5670063Y-13122198D02*
X5679587Y-13112674D01*
X5679587Y-13112674D02*
X5698634Y-13103150D01*
X5698634Y-13103150D02*
X5727206Y-13103150D01*
X5727206Y-13103150D02*
X5746253Y-13112674D01*
X5746253Y-13112674D02*
X5755777Y-13122198D01*
X5755777Y-13122198D02*
X5765301Y-13141246D01*
X5765301Y-13141246D02*
X5765301Y-13198388D01*
X5765301Y-13198388D02*
X5755777Y-13217436D01*
X5755777Y-13217436D02*
X5746253Y-13226960D01*
X5746253Y-13226960D02*
X5727206Y-13236484D01*
X5727206Y-13236484D02*
X5698634Y-13236484D01*
X5879587Y-13236484D02*
X5860539Y-13226960D01*
X5860539Y-13226960D02*
X5851015Y-13207912D01*
X5851015Y-13207912D02*
X5851015Y-13036484D01*
X6031968Y-13226960D02*
X6012920Y-13236484D01*
X6012920Y-13236484D02*
X5974825Y-13236484D01*
X5974825Y-13236484D02*
X5955777Y-13226960D01*
X5955777Y-13226960D02*
X5946253Y-13207912D01*
X5946253Y-13207912D02*
X5946253Y-13131722D01*
X5946253Y-13131722D02*
X5955777Y-13112674D01*
X5955777Y-13112674D02*
X5974825Y-13103150D01*
X5974825Y-13103150D02*
X6012920Y-13103150D01*
X6012920Y-13103150D02*
X6031968Y-13112674D01*
X6031968Y-13112674D02*
X6041491Y-13131722D01*
X6041491Y-13131722D02*
X6041491Y-13150769D01*
X6041491Y-13150769D02*
X5946253Y-13169817D01*
X6117682Y-13226960D02*
X6136730Y-13236484D01*
X6136730Y-13236484D02*
X6174825Y-13236484D01*
X6174825Y-13236484D02*
X6193872Y-13226960D01*
X6193872Y-13226960D02*
X6203396Y-13207912D01*
X6203396Y-13207912D02*
X6203396Y-13198388D01*
X6203396Y-13198388D02*
X6193872Y-13179341D01*
X6193872Y-13179341D02*
X6174825Y-13169817D01*
X6174825Y-13169817D02*
X6146253Y-13169817D01*
X6146253Y-13169817D02*
X6127206Y-13160293D01*
X6127206Y-13160293D02*
X6117682Y-13141246D01*
X6117682Y-13141246D02*
X6117682Y-13131722D01*
X6117682Y-13131722D02*
X6127206Y-13112674D01*
X6127206Y-13112674D02*
X6146253Y-13103150D01*
X6146253Y-13103150D02*
X6174825Y-13103150D01*
X6174825Y-13103150D02*
X6193872Y-13112674D01*
X6270063Y-13312674D02*
X6279587Y-13303150D01*
X6279587Y-13303150D02*
X6298634Y-13274579D01*
X6298634Y-13274579D02*
X6308158Y-13255531D01*
X6308158Y-13255531D02*
X6317682Y-13226960D01*
X6317682Y-13226960D02*
X6327206Y-13179341D01*
X6327206Y-13179341D02*
X6327206Y-13141246D01*
X6327206Y-13141246D02*
X6317682Y-13093627D01*
X6317682Y-13093627D02*
X6308158Y-13065055D01*
X6308158Y-13065055D02*
X6298634Y-13046008D01*
X6298634Y-13046008D02*
X6279587Y-13017436D01*
X6279587Y-13017436D02*
X6270063Y-13007912D01*
X6631968Y-13312674D02*
X6622444Y-13303150D01*
X6622444Y-13303150D02*
X6603396Y-13274579D01*
X6603396Y-13274579D02*
X6593872Y-13255531D01*
X6593872Y-13255531D02*
X6584349Y-13226960D01*
X6584349Y-13226960D02*
X6574825Y-13179341D01*
X6574825Y-13179341D02*
X6574825Y-13141246D01*
X6574825Y-13141246D02*
X6584349Y-13093627D01*
X6584349Y-13093627D02*
X6593872Y-13065055D01*
X6593872Y-13065055D02*
X6603396Y-13046008D01*
X6603396Y-13046008D02*
X6622444Y-13017436D01*
X6622444Y-13017436D02*
X6631968Y-13007912D01*
X6708158Y-13103150D02*
X6708158Y-13236484D01*
X6708158Y-13122198D02*
X6717682Y-13112674D01*
X6717682Y-13112674D02*
X6736730Y-13103150D01*
X6736730Y-13103150D02*
X6765301Y-13103150D01*
X6765301Y-13103150D02*
X6784349Y-13112674D01*
X6784349Y-13112674D02*
X6793872Y-13131722D01*
X6793872Y-13131722D02*
X6793872Y-13236484D01*
X6917682Y-13236484D02*
X6898634Y-13226960D01*
X6898634Y-13226960D02*
X6889111Y-13217436D01*
X6889111Y-13217436D02*
X6879587Y-13198388D01*
X6879587Y-13198388D02*
X6879587Y-13141246D01*
X6879587Y-13141246D02*
X6889111Y-13122198D01*
X6889111Y-13122198D02*
X6898634Y-13112674D01*
X6898634Y-13112674D02*
X6917682Y-13103150D01*
X6917682Y-13103150D02*
X6946253Y-13103150D01*
X6946253Y-13103150D02*
X6965301Y-13112674D01*
X6965301Y-13112674D02*
X6974825Y-13122198D01*
X6974825Y-13122198D02*
X6984349Y-13141246D01*
X6984349Y-13141246D02*
X6984349Y-13198388D01*
X6984349Y-13198388D02*
X6974825Y-13217436D01*
X6974825Y-13217436D02*
X6965301Y-13226960D01*
X6965301Y-13226960D02*
X6946253Y-13236484D01*
X6946253Y-13236484D02*
X6917682Y-13236484D01*
X7041492Y-13103150D02*
X7117682Y-13103150D01*
X7070063Y-13036484D02*
X7070063Y-13207912D01*
X7070063Y-13207912D02*
X7079587Y-13226960D01*
X7079587Y-13226960D02*
X7098634Y-13236484D01*
X7098634Y-13236484D02*
X7117682Y-13236484D01*
X7336730Y-13103150D02*
X7336730Y-13303150D01*
X7336730Y-13112674D02*
X7355777Y-13103150D01*
X7355777Y-13103150D02*
X7393873Y-13103150D01*
X7393873Y-13103150D02*
X7412920Y-13112674D01*
X7412920Y-13112674D02*
X7422444Y-13122198D01*
X7422444Y-13122198D02*
X7431968Y-13141246D01*
X7431968Y-13141246D02*
X7431968Y-13198388D01*
X7431968Y-13198388D02*
X7422444Y-13217436D01*
X7422444Y-13217436D02*
X7412920Y-13226960D01*
X7412920Y-13226960D02*
X7393873Y-13236484D01*
X7393873Y-13236484D02*
X7355777Y-13236484D01*
X7355777Y-13236484D02*
X7336730Y-13226960D01*
X7546253Y-13236484D02*
X7527206Y-13226960D01*
X7527206Y-13226960D02*
X7517682Y-13207912D01*
X7517682Y-13207912D02*
X7517682Y-13036484D01*
X7708158Y-13236484D02*
X7708158Y-13131722D01*
X7708158Y-13131722D02*
X7698634Y-13112674D01*
X7698634Y-13112674D02*
X7679587Y-13103150D01*
X7679587Y-13103150D02*
X7641492Y-13103150D01*
X7641492Y-13103150D02*
X7622444Y-13112674D01*
X7708158Y-13226960D02*
X7689111Y-13236484D01*
X7689111Y-13236484D02*
X7641492Y-13236484D01*
X7641492Y-13236484D02*
X7622444Y-13226960D01*
X7622444Y-13226960D02*
X7612920Y-13207912D01*
X7612920Y-13207912D02*
X7612920Y-13188865D01*
X7612920Y-13188865D02*
X7622444Y-13169817D01*
X7622444Y-13169817D02*
X7641492Y-13160293D01*
X7641492Y-13160293D02*
X7689111Y-13160293D01*
X7689111Y-13160293D02*
X7708158Y-13150769D01*
X7774825Y-13103150D02*
X7851015Y-13103150D01*
X7803396Y-13036484D02*
X7803396Y-13207912D01*
X7803396Y-13207912D02*
X7812920Y-13226960D01*
X7812920Y-13226960D02*
X7831968Y-13236484D01*
X7831968Y-13236484D02*
X7851015Y-13236484D01*
X7993873Y-13226960D02*
X7974825Y-13236484D01*
X7974825Y-13236484D02*
X7936730Y-13236484D01*
X7936730Y-13236484D02*
X7917682Y-13226960D01*
X7917682Y-13226960D02*
X7908158Y-13207912D01*
X7908158Y-13207912D02*
X7908158Y-13131722D01*
X7908158Y-13131722D02*
X7917682Y-13112674D01*
X7917682Y-13112674D02*
X7936730Y-13103150D01*
X7936730Y-13103150D02*
X7974825Y-13103150D01*
X7974825Y-13103150D02*
X7993873Y-13112674D01*
X7993873Y-13112674D02*
X8003396Y-13131722D01*
X8003396Y-13131722D02*
X8003396Y-13150769D01*
X8003396Y-13150769D02*
X7908158Y-13169817D01*
X8174825Y-13236484D02*
X8174825Y-13036484D01*
X8174825Y-13226960D02*
X8155777Y-13236484D01*
X8155777Y-13236484D02*
X8117682Y-13236484D01*
X8117682Y-13236484D02*
X8098634Y-13226960D01*
X8098634Y-13226960D02*
X8089111Y-13217436D01*
X8089111Y-13217436D02*
X8079587Y-13198388D01*
X8079587Y-13198388D02*
X8079587Y-13141246D01*
X8079587Y-13141246D02*
X8089111Y-13122198D01*
X8089111Y-13122198D02*
X8098634Y-13112674D01*
X8098634Y-13112674D02*
X8117682Y-13103150D01*
X8117682Y-13103150D02*
X8155777Y-13103150D01*
X8155777Y-13103150D02*
X8174825Y-13112674D01*
X8251015Y-13312674D02*
X8260539Y-13303150D01*
X8260539Y-13303150D02*
X8279587Y-13274579D01*
X8279587Y-13274579D02*
X8289111Y-13255531D01*
X8289111Y-13255531D02*
X8298634Y-13226960D01*
X8298634Y-13226960D02*
X8308158Y-13179341D01*
X8308158Y-13179341D02*
X8308158Y-13141246D01*
X8308158Y-13141246D02*
X8298634Y-13093627D01*
X8298634Y-13093627D02*
X8289111Y-13065055D01*
X8289111Y-13065055D02*
X8279587Y-13046008D01*
X8279587Y-13046008D02*
X8260539Y-13017436D01*
X8260539Y-13017436D02*
X8251015Y-13007912D01*
M02*
