M48
; DRILL file KiCad 10.0.3 date 2026-07-11T21:52:19
; FORMAT={-:-/ absolute / metric / decimal}
; #@! TF.CreationDate,2026-07-11T21:52:19+02:00
; #@! TF.GenerationSoftware,Kicad,Pcbnew,10.0.3
; #@! TF.FileFunction,Plated,1,2,PTH
FMAT,2
METRIC
; #@! TA.AperFunction,Plated,PTH,ViaDrill
T1C0.300
; #@! TA.AperFunction,Plated,PTH,ComponentDrill
T2C0.800
; #@! TA.AperFunction,Plated,PTH,ComponentDrill
T3C1.000
%
G90
G05
T1
X20.0Y-22.0
X20.0Y-122.0
X28.0Y-90.0
X30.738Y-118.304
X32.555Y-102.874
X32.646Y-52.08
X33.14Y-106.3
X33.18Y-100.52
X33.97Y-107.942
X34.627Y-53.403
X36.644Y-46.433
X36.72Y-97.57
X36.77Y-102.871
X37.188Y-101.072
X38.035Y-100.911
X38.889Y-106.326
X39.131Y-98.478
X39.507Y-107.859
X40.815Y-86.573
X41.619Y-100.264
X41.791Y-49.511
X43.626Y-83.307
X43.626Y-86.086
X43.776Y-14.902
X44.0Y-22.0
X44.2Y-24.129
X46.038Y-104.148
X47.048Y-71.216
X47.096Y-56.479
X48.116Y-59.837
X48.244Y-85.809
X48.31Y-65.82
X48.644Y-102.158
X48.751Y-41.527
X48.831Y-62.061
X48.831Y-63.918
X48.85Y-55.53
X48.963Y-73.583
X49.125Y-58.556
X49.588Y-43.852
X51.901Y-93.98
X52.143Y-74.541
X53.768Y-76.173
X53.881Y-95.957
X54.056Y-24.129
X54.1Y-103.39
X54.627Y-106.163
X55.68Y-54.09
X56.63Y-84.224
X56.664Y-83.034
X57.0Y-124.0
X57.056Y-98.692
X57.27Y-84.96
X57.333Y-69.523
X58.023Y-26.607
X58.527Y-27.377
X59.031Y-19.181
X59.786Y-83.919
X61.519Y-76.173
X61.6Y-66.342
X61.957Y-58.178
X61.961Y-64.697
X62.0Y-11.0
X63.727Y-66.405
X63.883Y-64.81
X64.002Y-24.125
X64.213Y-58.248
X64.25Y-85.87
X64.313Y-57.301
X64.64Y-79.01
X64.658Y-59.579
X64.93Y-38.83
X66.0Y-36.8
X66.773Y-24.514
X67.803Y-24.872
X69.587Y-73.695
X69.796Y-72.865
X71.781Y-60.835
X72.154Y-120.283
X76.609Y-94.995
X77.9Y-101.09
X78.311Y-103.138
X81.25Y-92.488
X86.03Y-118.3
X86.042Y-59.081
X86.212Y-93.521
X87.092Y-108.928
X89.112Y-95.841
X90.0Y-12.0
X91.19Y-99.01
X92.712Y-102.747
X93.856Y-29.085
X94.257Y-102.421
X94.77Y-108.9
X96.523Y-63.603
X96.979Y-55.804
X98.0Y-98.946
X98.872Y-68.738
X99.236Y-29.613
X100.0Y-11.0
X102.0Y-106.289
X104.322Y-100.956
X105.35Y-98.226
X108.67Y-28.316
X110.0Y-124.0
X111.269Y-67.258
X111.681Y-41.984
X113.95Y-29.585
X113.95Y-32.158
X116.244Y-115.826
X116.698Y-23.773
X120.0Y-36.8
X120.0Y-124.0
X121.219Y-16.46
X121.219Y-98.525
X131.631Y-45.781
X136.144Y-59.168
X138.631Y-110.452
X141.526Y-66.917
X143.606Y-105.913
X143.76Y-13.55
X150.0Y-20.3
X150.0Y-124.0
X150.54Y-15.792
X151.102Y-19.554
X151.219Y-11.33
X151.457Y-46.35
X152.289Y-16.13
X153.626Y-16.227
X154.959Y-14.7
X157.517Y-14.7
X158.29Y-18.18
X159.44Y-15.13
X170.0Y-12.0
X171.531Y-60.97
X173.456Y-17.731
X175.238Y-106.616
X175.649Y-17.43
X176.297Y-105.561
X180.0Y-36.8
X185.0Y-121.0
X188.381Y-45.781
X191.434Y-49.062
X192.186Y-54.102
X194.078Y-50.957
X209.0Y-80.0
X210.0Y-20.0
X210.0Y-118.0
T2
X52.0Y-100.0
X52.0Y-102.54
X52.0Y-105.08
X59.62Y-100.0
X59.62Y-102.54
X59.62Y-105.08
X79.0Y-104.88
X79.0Y-112.5
X81.54Y-104.88
X81.54Y-112.5
X84.08Y-104.88
X84.08Y-112.5
T3
X22.0Y-108.0
X22.0Y-110.54
X22.0Y-113.08
X22.0Y-115.62
X22.0Y-118.16
X24.11Y-13.5
X24.11Y-16.04
X24.54Y-108.0
X24.54Y-110.54
X24.54Y-113.08
X24.54Y-115.62
X24.54Y-118.16
X26.65Y-13.5
X26.65Y-16.04
X29.19Y-13.5
X29.19Y-16.04
X30.0Y-40.0
X30.0Y-42.54
X30.0Y-45.08
X30.0Y-47.62
X30.0Y-50.16
X30.0Y-52.7
X30.0Y-55.24
X30.0Y-57.78
X30.0Y-60.32
X30.0Y-62.86
X30.0Y-65.4
X30.0Y-67.94
X30.0Y-70.48
X30.0Y-73.02
X30.0Y-75.56
X30.0Y-78.1
X30.0Y-80.64
X30.0Y-83.18
X30.0Y-85.72
X30.0Y-88.26
X30.0Y-90.8
X30.0Y-93.34
X30.0Y-95.88
X30.0Y-98.42
X31.73Y-13.5
X31.73Y-16.04
X33.0Y-20.0
X33.0Y-118.96
X33.0Y-121.5
X34.27Y-13.5
X34.27Y-16.04
X35.54Y-20.0
X35.54Y-118.96
X35.54Y-121.5
X36.81Y-13.5
X36.81Y-16.04
X38.08Y-20.0
X38.08Y-118.96
X38.08Y-121.5
X39.35Y-13.5
X39.35Y-16.04
X40.62Y-20.0
X40.62Y-118.96
X40.62Y-121.5
X43.0Y-13.5
X43.16Y-20.0
X43.16Y-118.96
X43.16Y-121.5
X45.24Y-40.0
X45.24Y-42.54
X45.24Y-45.08
X45.24Y-47.62
X45.24Y-50.16
X45.24Y-52.7
X45.24Y-55.24
X45.24Y-57.78
X45.24Y-60.32
X45.24Y-62.86
X45.24Y-65.4
X45.24Y-67.94
X45.24Y-70.48
X45.24Y-73.02
X45.24Y-75.56
X45.24Y-78.1
X45.24Y-80.64
X45.24Y-83.18
X45.24Y-85.72
X45.24Y-88.26
X45.24Y-90.8
X45.24Y-93.34
X45.24Y-95.88
X45.24Y-98.42
X45.54Y-13.5
X45.7Y-20.0
X45.7Y-118.96
X45.7Y-121.5
X48.24Y-20.0
X48.24Y-118.96
X48.24Y-121.5
X50.78Y-20.0
X52.0Y-121.5
X53.32Y-20.0
X54.54Y-121.5
X57.08Y-121.5
X59.62Y-121.5
X62.0Y-72.0
X63.5Y-121.5
X64.54Y-72.0
X66.04Y-121.5
X67.08Y-72.0
X67.46Y-40.0
X67.46Y-42.54
X67.46Y-45.08
X67.46Y-47.62
X67.46Y-50.16
X67.46Y-52.7
X67.46Y-55.24
X67.46Y-57.78
X67.46Y-60.32
X67.46Y-62.86
X68.58Y-121.5
X70.0Y-40.0
X70.0Y-42.54
X70.0Y-45.08
X70.0Y-47.62
X70.0Y-50.16
X70.0Y-52.7
X70.0Y-55.24
X70.0Y-57.78
X70.0Y-60.32
X70.0Y-62.86
X71.12Y-121.5
X75.0Y-121.5
X77.54Y-121.5
X80.08Y-121.5
X84.0Y-121.5
X86.54Y-121.5
X87.46Y-40.0
X87.46Y-42.54
X87.46Y-45.08
X87.46Y-47.62
X87.46Y-50.16
X87.46Y-52.7
X87.46Y-55.24
X87.46Y-57.78
X87.46Y-60.32
X87.46Y-62.86
X89.08Y-121.5
X90.0Y-40.0
X90.0Y-42.54
X90.0Y-45.08
X90.0Y-47.62
X90.0Y-50.16
X90.0Y-52.7
X90.0Y-55.24
X90.0Y-57.78
X90.0Y-60.32
X90.0Y-62.86
X93.0Y-121.5
X95.54Y-121.5
X98.08Y-121.5
X102.0Y-121.5
X104.54Y-121.5
X107.08Y-121.5
X107.46Y-40.0
X107.46Y-42.54
X107.46Y-45.08
X107.46Y-47.62
X107.46Y-50.16
X107.46Y-52.7
X107.46Y-55.24
X107.46Y-57.78
X107.46Y-60.32
X107.46Y-62.86
X108.0Y-19.96
X108.0Y-22.5
X109.62Y-121.5
X110.0Y-40.0
X110.0Y-42.54
X110.0Y-45.08
X110.0Y-47.62
X110.0Y-50.16
X110.0Y-52.7
X110.0Y-55.24
X110.0Y-57.78
X110.0Y-60.32
X110.0Y-62.86
X110.54Y-19.96
X110.54Y-22.5
X113.08Y-19.96
X113.08Y-22.5
X115.62Y-19.96
X115.62Y-22.5
X118.16Y-19.96
X118.16Y-22.5
X120.7Y-19.96
X120.7Y-22.5
X123.24Y-19.96
X123.24Y-22.5
X125.78Y-19.96
X125.78Y-22.5
X127.46Y-40.0
X127.46Y-42.54
X127.46Y-45.08
X127.46Y-47.62
X127.46Y-50.16
X127.46Y-52.7
X127.46Y-55.24
X127.46Y-57.78
X127.46Y-60.32
X127.46Y-62.86
X128.32Y-19.96
X128.32Y-22.5
X130.0Y-40.0
X130.0Y-42.54
X130.0Y-45.08
X130.0Y-47.62
X130.0Y-50.16
X130.0Y-52.7
X130.0Y-55.24
X130.0Y-57.78
X130.0Y-60.32
X130.0Y-62.86
X130.86Y-19.96
X130.86Y-22.5
X133.4Y-19.96
X133.4Y-22.5
X135.94Y-19.96
X135.94Y-22.5
X138.48Y-19.96
X138.48Y-22.5
X147.46Y-40.0
X147.46Y-42.54
X147.46Y-45.08
X147.46Y-47.62
X147.46Y-50.16
X147.46Y-52.7
X147.46Y-55.24
X147.46Y-57.78
X147.46Y-60.32
X147.46Y-62.86
X150.0Y-40.0
X150.0Y-42.54
X150.0Y-45.08
X150.0Y-47.62
X150.0Y-50.16
X150.0Y-52.7
X150.0Y-55.24
X150.0Y-57.78
X150.0Y-60.32
X150.0Y-62.86
X167.46Y-40.0
X167.46Y-42.54
X167.46Y-45.08
X167.46Y-47.62
X167.46Y-50.16
X167.46Y-52.7
X167.46Y-55.24
X167.46Y-57.78
X167.46Y-60.32
X167.46Y-62.86
X170.0Y-40.0
X170.0Y-42.54
X170.0Y-45.08
X170.0Y-47.62
X170.0Y-50.16
X170.0Y-52.7
X170.0Y-55.24
X170.0Y-57.78
X170.0Y-60.32
X170.0Y-62.86
X193.0Y-42.0
X193.0Y-44.54
X193.0Y-47.08
X193.0Y-49.62
X193.0Y-52.16
X193.0Y-104.0
X193.0Y-106.54
X193.0Y-109.08
X193.0Y-111.62
X193.0Y-114.16
X195.54Y-42.0
X195.54Y-44.54
X195.54Y-47.08
X195.54Y-49.62
X195.54Y-52.16
X195.54Y-104.0
X195.54Y-106.54
X195.54Y-109.08
X195.54Y-111.62
X195.54Y-114.16
X204.0Y-121.5
X206.54Y-121.5
X209.08Y-121.5
X211.62Y-121.5
M30
