%TF.GenerationSoftware,KiCad,Pcbnew,10.0.3*%
%TF.CreationDate,2026-07-11T21:52:19+02:00*%
%TF.ProjectId,musicbrain-busboard-v2,6d757369-6362-4726-9169-6e2d62757362,2.0*%
%TF.SameCoordinates,Original*%
%TF.FileFunction,Soldermask,Top*%
%TF.FilePolarity,Negative*%
%FSLAX46Y46*%
G04 Gerber Fmt 4.6, Leading zero omitted, Abs format (unit mm)*
G04 Created by KiCad (PCBNEW 10.0.3) date 2026-07-11 21:52:19*
%MOMM*%
%LPD*%
G01*
G04 APERTURE LIST*
G04 Aperture macros list*
%AMRoundRect*
0 Rectangle with rounded corners*
0 $1 Rounding radius*
0 $2 $3 $4 $5 $6 $7 $8 $9 X,Y pos of 4 corners*
0 Add a 4 corners polygon primitive as box body*
4,1,4,$2,$3,$4,$5,$6,$7,$8,$9,$2,$3,0*
0 Add four circle primitives for the rounded corners*
1,1,$1+$1,$2,$3*
1,1,$1+$1,$4,$5*
1,1,$1+$1,$6,$7*
1,1,$1+$1,$8,$9*
0 Add four rect primitives between the rounded corners*
20,1,$1+$1,$2,$3,$4,$5,0*
20,1,$1+$1,$4,$5,$6,$7,0*
20,1,$1+$1,$6,$7,$8,$9,0*
20,1,$1+$1,$8,$9,$2,$3,0*%
%AMFreePoly0*
4,1,6,1.000000,0.000000,0.500000,-0.750000,-0.500000,-0.750000,-0.500000,0.750000,0.500000,0.750000,1.000000,0.000000,1.000000,0.000000,$1*%
%AMFreePoly1*
4,1,6,0.500000,-0.750000,-0.650000,-0.750000,-0.150000,0.000000,-0.650000,0.750000,0.500000,0.750000,0.500000,-0.750000,0.500000,-0.750000,$1*%
G04 Aperture macros list end*
%ADD10R,1.700000X1.700000*%
%ADD11O,1.700000X1.700000*%
%ADD12RoundRect,0.250000X-0.600000X-0.600000X0.600000X-0.600000X0.600000X0.600000X-0.600000X0.600000X0*%
%ADD13C,1.700000*%
%ADD14R,1.500000X2.300000*%
%ADD15O,1.500000X2.300000*%
%ADD16RoundRect,0.375000X-0.625000X-0.375000X0.625000X-0.375000X0.625000X0.375000X-0.625000X0.375000X0*%
%ADD17RoundRect,0.500000X-0.500000X-1.400000X0.500000X-1.400000X0.500000X1.400000X-0.500000X1.400000X0*%
%ADD18RoundRect,0.250000X-0.262500X-0.450000X0.262500X-0.450000X0.262500X0.450000X-0.262500X0.450000X0*%
%ADD19RoundRect,0.250000X0.262500X0.450000X-0.262500X0.450000X-0.262500X-0.450000X0.262500X-0.450000X0*%
%ADD20RoundRect,0.250000X-1.050000X-0.550000X1.050000X-0.550000X1.050000X0.550000X-1.050000X0.550000X0*%
%ADD21RoundRect,0.250000X-0.250000X-0.475000X0.250000X-0.475000X0.250000X0.475000X-0.250000X0.475000X0*%
%ADD22RoundRect,0.150000X-0.512500X-0.150000X0.512500X-0.150000X0.512500X0.150000X-0.512500X0.150000X0*%
%ADD23RoundRect,0.150000X-0.587500X-0.150000X0.587500X-0.150000X0.587500X0.150000X-0.587500X0.150000X0*%
%ADD24RoundRect,0.250000X0.450000X-0.262500X0.450000X0.262500X-0.450000X0.262500X-0.450000X-0.262500X0*%
%ADD25RoundRect,0.250000X0.475000X-0.250000X0.475000X0.250000X-0.475000X0.250000X-0.475000X-0.250000X0*%
%ADD26RoundRect,0.150000X0.875000X0.150000X-0.875000X0.150000X-0.875000X-0.150000X0.875000X-0.150000X0*%
%ADD27RoundRect,0.150000X0.150000X-0.825000X0.150000X0.825000X-0.150000X0.825000X-0.150000X-0.825000X0*%
%ADD28RoundRect,0.150000X0.150000X-0.875000X0.150000X0.875000X-0.150000X0.875000X-0.150000X-0.875000X0*%
%ADD29RoundRect,0.250000X0.600000X-0.600000X0.600000X0.600000X-0.600000X0.600000X-0.600000X-0.600000X0*%
%ADD30RoundRect,0.150000X-0.825000X-0.150000X0.825000X-0.150000X0.825000X0.150000X-0.825000X0.150000X0*%
%ADD31RoundRect,0.250000X-0.550000X-0.550000X0.550000X-0.550000X0.550000X0.550000X-0.550000X0.550000X0*%
%ADD32C,1.600000*%
%ADD33RoundRect,0.250000X0.550000X-0.550000X0.550000X0.550000X-0.550000X0.550000X-0.550000X-0.550000X0*%
%ADD34RoundRect,0.250000X-0.450000X0.262500X-0.450000X-0.262500X0.450000X-0.262500X0.450000X0.262500X0*%
%ADD35RoundRect,0.112500X-0.187500X-0.112500X0.187500X-0.112500X0.187500X0.112500X-0.187500X0.112500X0*%
%ADD36FreePoly0,0.000000*%
%ADD37FreePoly1,0.000000*%
%ADD38C,3.200000*%
G04 APERTURE END LIST*
%TO.C,JP1*%
G36*
X97275000Y-106250000D02*
G01*
X99725000Y-106250000D01*
X99725000Y-107750000D01*
X97275000Y-107750000D01*
X97275000Y-106250000D01*
G37*
%TD*%
D10*
%TO.C,U1*%
X30000000Y-40000000D03*
D11*
X30000000Y-42540000D03*
X30000000Y-45080000D03*
X30000000Y-47620000D03*
X30000000Y-50160000D03*
X30000000Y-52700000D03*
X30000000Y-55240000D03*
X30000000Y-57780000D03*
X30000000Y-60320000D03*
X30000000Y-62860000D03*
X30000000Y-65400000D03*
X30000000Y-67940000D03*
X30000000Y-70480000D03*
X30000000Y-73020000D03*
X30000000Y-75560000D03*
X30000000Y-78100000D03*
X30000000Y-80640000D03*
X30000000Y-83180000D03*
X30000000Y-85720000D03*
X30000000Y-88260000D03*
X30000000Y-90800000D03*
X30000000Y-93340000D03*
X30000000Y-95880000D03*
X30000000Y-98420000D03*
X45240000Y-98420000D03*
X45240000Y-95880000D03*
X45240000Y-93340000D03*
X45240000Y-90800000D03*
X45240000Y-88260000D03*
X45240000Y-85720000D03*
X45240000Y-83180000D03*
X45240000Y-80640000D03*
X45240000Y-78100000D03*
X45240000Y-75560000D03*
X45240000Y-73020000D03*
X45240000Y-70480000D03*
X45240000Y-67940000D03*
X45240000Y-65400000D03*
X45240000Y-62860000D03*
X45240000Y-60320000D03*
X45240000Y-57780000D03*
X45240000Y-55240000D03*
X45240000Y-52700000D03*
X45240000Y-50160000D03*
X45240000Y-47620000D03*
X45240000Y-45080000D03*
X45240000Y-42540000D03*
X45240000Y-40000000D03*
%TD*%
D12*
%TO.C,J9*%
X22000000Y-108000000D03*
D13*
X24540000Y-108000000D03*
X22000000Y-110540000D03*
X24540000Y-110540000D03*
X22000000Y-113080000D03*
X24540000Y-113080000D03*
X22000000Y-115620000D03*
X24540000Y-115620000D03*
X22000000Y-118160000D03*
X24540000Y-118160000D03*
%TD*%
D14*
%TO.C,U2*%
X62000000Y-72000000D03*
D15*
X64540000Y-72000000D03*
X67080000Y-72000000D03*
%TD*%
D16*
%TO.C,U3*%
X76850000Y-88700000D03*
X76850000Y-91000000D03*
D17*
X83150000Y-91000000D03*
D16*
X76850000Y-93300000D03*
%TD*%
D18*
%TO.C,R1*%
X52087500Y-73020000D03*
X53912500Y-73020000D03*
%TD*%
D19*
%TO.C,R2*%
X50412500Y-71750000D03*
X48587500Y-71750000D03*
%TD*%
D18*
%TO.C,R3*%
X91087500Y-104000000D03*
X92912500Y-104000000D03*
%TD*%
%TO.C,R4*%
X91087500Y-107000000D03*
X92912500Y-107000000D03*
%TD*%
D20*
%TO.C,C1*%
X93200000Y-112000000D03*
X96800000Y-112000000D03*
%TD*%
D21*
%TO.C,C2*%
X99250000Y-112000000D03*
X101150000Y-112000000D03*
%TD*%
D20*
%TO.C,C3*%
X105600000Y-112000000D03*
X109200000Y-112000000D03*
%TD*%
D21*
%TO.C,C4*%
X111650000Y-112000000D03*
X113550000Y-112000000D03*
%TD*%
D20*
%TO.C,C5*%
X118000000Y-112000000D03*
X121600000Y-112000000D03*
%TD*%
D21*
%TO.C,C6*%
X124050000Y-112000000D03*
X125950000Y-112000000D03*
%TD*%
D20*
%TO.C,C7*%
X130400000Y-112000000D03*
X134000000Y-112000000D03*
%TD*%
D21*
%TO.C,C8*%
X136450000Y-112000000D03*
X138350000Y-112000000D03*
%TD*%
D10*
%TO.C,J1*%
X70000000Y-40000000D03*
D13*
X67460000Y-40000000D03*
X70000000Y-42540000D03*
X67460000Y-42540000D03*
X70000000Y-45080000D03*
X67460000Y-45080000D03*
X70000000Y-47620000D03*
X67460000Y-47620000D03*
X70000000Y-50160000D03*
X67460000Y-50160000D03*
X70000000Y-52700000D03*
X67460000Y-52700000D03*
X70000000Y-55240000D03*
X67460000Y-55240000D03*
X70000000Y-57780000D03*
X67460000Y-57780000D03*
X70000000Y-60320000D03*
X67460000Y-60320000D03*
X70000000Y-62860000D03*
X67460000Y-62860000D03*
%TD*%
D10*
%TO.C,J2*%
X90000000Y-40000000D03*
D13*
X87460000Y-40000000D03*
X90000000Y-42540000D03*
X87460000Y-42540000D03*
X90000000Y-45080000D03*
X87460000Y-45080000D03*
X90000000Y-47620000D03*
X87460000Y-47620000D03*
X90000000Y-50160000D03*
X87460000Y-50160000D03*
X90000000Y-52700000D03*
X87460000Y-52700000D03*
X90000000Y-55240000D03*
X87460000Y-55240000D03*
X90000000Y-57780000D03*
X87460000Y-57780000D03*
X90000000Y-60320000D03*
X87460000Y-60320000D03*
X90000000Y-62860000D03*
X87460000Y-62860000D03*
%TD*%
D10*
%TO.C,J3*%
X110000000Y-40000000D03*
D13*
X107460000Y-40000000D03*
X110000000Y-42540000D03*
X107460000Y-42540000D03*
X110000000Y-45080000D03*
X107460000Y-45080000D03*
X110000000Y-47620000D03*
X107460000Y-47620000D03*
X110000000Y-50160000D03*
X107460000Y-50160000D03*
X110000000Y-52700000D03*
X107460000Y-52700000D03*
X110000000Y-55240000D03*
X107460000Y-55240000D03*
X110000000Y-57780000D03*
X107460000Y-57780000D03*
X110000000Y-60320000D03*
X107460000Y-60320000D03*
X110000000Y-62860000D03*
X107460000Y-62860000D03*
%TD*%
D10*
%TO.C,J4*%
X130000000Y-40000000D03*
D13*
X127460000Y-40000000D03*
X130000000Y-42540000D03*
X127460000Y-42540000D03*
X130000000Y-45080000D03*
X127460000Y-45080000D03*
X130000000Y-47620000D03*
X127460000Y-47620000D03*
X130000000Y-50160000D03*
X127460000Y-50160000D03*
X130000000Y-52700000D03*
X127460000Y-52700000D03*
X130000000Y-55240000D03*
X127460000Y-55240000D03*
X130000000Y-57780000D03*
X127460000Y-57780000D03*
X130000000Y-60320000D03*
X127460000Y-60320000D03*
X130000000Y-62860000D03*
X127460000Y-62860000D03*
%TD*%
D10*
%TO.C,J5*%
X150000000Y-40000000D03*
D13*
X147460000Y-40000000D03*
X150000000Y-42540000D03*
X147460000Y-42540000D03*
X150000000Y-45080000D03*
X147460000Y-45080000D03*
X150000000Y-47620000D03*
X147460000Y-47620000D03*
X150000000Y-50160000D03*
X147460000Y-50160000D03*
X150000000Y-52700000D03*
X147460000Y-52700000D03*
X150000000Y-55240000D03*
X147460000Y-55240000D03*
X150000000Y-57780000D03*
X147460000Y-57780000D03*
X150000000Y-60320000D03*
X147460000Y-60320000D03*
X150000000Y-62860000D03*
X147460000Y-62860000D03*
%TD*%
D10*
%TO.C,J6*%
X170000000Y-40000000D03*
D13*
X167460000Y-40000000D03*
X170000000Y-42540000D03*
X167460000Y-42540000D03*
X170000000Y-45080000D03*
X167460000Y-45080000D03*
X170000000Y-47620000D03*
X167460000Y-47620000D03*
X170000000Y-50160000D03*
X167460000Y-50160000D03*
X170000000Y-52700000D03*
X167460000Y-52700000D03*
X170000000Y-55240000D03*
X167460000Y-55240000D03*
X170000000Y-57780000D03*
X167460000Y-57780000D03*
X170000000Y-60320000D03*
X167460000Y-60320000D03*
X170000000Y-62860000D03*
X167460000Y-62860000D03*
%TD*%
D12*
%TO.C,J7*%
X193000000Y-42000000D03*
D13*
X195540000Y-42000000D03*
X193000000Y-44540000D03*
X195540000Y-44540000D03*
X193000000Y-47080000D03*
X195540000Y-47080000D03*
X193000000Y-49620000D03*
X195540000Y-49620000D03*
X193000000Y-52160000D03*
X195540000Y-52160000D03*
%TD*%
D12*
%TO.C,J8*%
X193000000Y-104000000D03*
D13*
X195540000Y-104000000D03*
X193000000Y-106540000D03*
X195540000Y-106540000D03*
X193000000Y-109080000D03*
X195540000Y-109080000D03*
X193000000Y-111620000D03*
X195540000Y-111620000D03*
X193000000Y-114160000D03*
X195540000Y-114160000D03*
%TD*%
D10*
%TO.C,J10*%
X33000000Y-121500000D03*
D13*
X33000000Y-118960000D03*
X35540000Y-121500000D03*
X35540000Y-118960000D03*
X38080000Y-121500000D03*
X38080000Y-118960000D03*
X40620000Y-121500000D03*
X40620000Y-118960000D03*
X43160000Y-121500000D03*
X43160000Y-118960000D03*
X45700000Y-121500000D03*
X45700000Y-118960000D03*
X48240000Y-121500000D03*
X48240000Y-118960000D03*
%TD*%
D10*
%TO.C,J13*%
X75000000Y-121500000D03*
D13*
X77540000Y-121500000D03*
X80080000Y-121500000D03*
%TD*%
D10*
%TO.C,J14*%
X84000000Y-121500000D03*
D13*
X86540000Y-121500000D03*
X89080000Y-121500000D03*
%TD*%
D10*
%TO.C,J15*%
X93000000Y-121500000D03*
D13*
X95540000Y-121500000D03*
X98080000Y-121500000D03*
%TD*%
D10*
%TO.C,J16*%
X102000000Y-121500000D03*
D13*
X104540000Y-121500000D03*
X107080000Y-121500000D03*
X109620000Y-121500000D03*
%TD*%
D10*
%TO.C,J19*%
X52000000Y-121500000D03*
D13*
X54540000Y-121500000D03*
X57080000Y-121500000D03*
X59620000Y-121500000D03*
%TD*%
D10*
%TO.C,J20*%
X63500000Y-121500000D03*
D13*
X66040000Y-121500000D03*
X68580000Y-121500000D03*
X71120000Y-121500000D03*
%TD*%
D10*
%TO.C,J11*%
X33000000Y-20000000D03*
D13*
X35540000Y-20000000D03*
X38080000Y-20000000D03*
X40620000Y-20000000D03*
X43160000Y-20000000D03*
X45700000Y-20000000D03*
X48240000Y-20000000D03*
X50780000Y-20000000D03*
X53320000Y-20000000D03*
%TD*%
D10*
%TO.C,J12*%
X204000000Y-121500000D03*
D13*
X206540000Y-121500000D03*
X209080000Y-121500000D03*
X211620000Y-121500000D03*
%TD*%
D10*
%TO.C,J17*%
X39350000Y-13500000D03*
D13*
X39350000Y-16040000D03*
X36810000Y-13500000D03*
X36810000Y-16040000D03*
X34270000Y-13500000D03*
X34270000Y-16040000D03*
X31730000Y-13500000D03*
X31730000Y-16040000D03*
X29190000Y-13500000D03*
X29190000Y-16040000D03*
X26650000Y-13500000D03*
X26650000Y-16040000D03*
X24110000Y-13500000D03*
X24110000Y-16040000D03*
%TD*%
D10*
%TO.C,J18*%
X43000000Y-13500000D03*
D13*
X45540000Y-13500000D03*
%TD*%
D22*
%TO.C,U13*%
X52862500Y-15550000D03*
X52862500Y-16500000D03*
X52862500Y-17450000D03*
X55137500Y-17450000D03*
X55137500Y-15550000D03*
%TD*%
D23*
%TO.C,D3*%
X61062500Y-15550000D03*
X61062500Y-17450000D03*
X62937500Y-16500000D03*
%TD*%
D24*
%TO.C,R14*%
X48900000Y-13512500D03*
X48900000Y-11687500D03*
%TD*%
%TO.C,R15*%
X51500000Y-13112500D03*
X51500000Y-11287500D03*
%TD*%
D25*
%TO.C,C14*%
X59000000Y-17450000D03*
X59000000Y-15550000D03*
%TD*%
D26*
%TO.C,U4*%
X60150000Y-63985000D03*
X60150000Y-62715000D03*
X60150000Y-61445000D03*
X60150000Y-60175000D03*
X60150000Y-58905000D03*
X60150000Y-57635000D03*
X60150000Y-56365000D03*
X60150000Y-55095000D03*
X60150000Y-53825000D03*
X60150000Y-52555000D03*
X60150000Y-51285000D03*
X60150000Y-50015000D03*
X50850000Y-50015000D03*
X50850000Y-51285000D03*
X50850000Y-52555000D03*
X50850000Y-53825000D03*
X50850000Y-55095000D03*
X50850000Y-56365000D03*
X50850000Y-57635000D03*
X50850000Y-58905000D03*
X50850000Y-60175000D03*
X50850000Y-61445000D03*
X50850000Y-62715000D03*
X50850000Y-63985000D03*
%TD*%
D27*
%TO.C,U5*%
X32555000Y-109475000D03*
X33825000Y-109475000D03*
X35095000Y-109475000D03*
X36365000Y-109475000D03*
X37635000Y-109475000D03*
X38905000Y-109475000D03*
X40175000Y-109475000D03*
X41445000Y-109475000D03*
X41445000Y-104525000D03*
X40175000Y-104525000D03*
X38905000Y-104525000D03*
X37635000Y-104525000D03*
X36365000Y-104525000D03*
X35095000Y-104525000D03*
X33825000Y-104525000D03*
X32555000Y-104525000D03*
%TD*%
%TO.C,U6*%
X148555000Y-17975000D03*
X149825000Y-17975000D03*
X151095000Y-17975000D03*
X152365000Y-17975000D03*
X153635000Y-17975000D03*
X154905000Y-17975000D03*
X156175000Y-17975000D03*
X157445000Y-17975000D03*
X157445000Y-13025000D03*
X156175000Y-13025000D03*
X154905000Y-13025000D03*
X153635000Y-13025000D03*
X152365000Y-13025000D03*
X151095000Y-13025000D03*
X149825000Y-13025000D03*
X148555000Y-13025000D03*
%TD*%
D22*
%TO.C,U7*%
X57862500Y-83050000D03*
X57862500Y-84000000D03*
X57862500Y-84950000D03*
X60137500Y-84950000D03*
X60137500Y-83050000D03*
%TD*%
D28*
%TO.C,U8*%
X89285000Y-35650000D03*
X90555000Y-35650000D03*
X91825000Y-35650000D03*
X93095000Y-35650000D03*
X94365000Y-35650000D03*
X95635000Y-35650000D03*
X96905000Y-35650000D03*
X98175000Y-35650000D03*
X99445000Y-35650000D03*
X100715000Y-35650000D03*
X100715000Y-26350000D03*
X99445000Y-26350000D03*
X98175000Y-26350000D03*
X96905000Y-26350000D03*
X95635000Y-26350000D03*
X94365000Y-26350000D03*
X93095000Y-26350000D03*
X91825000Y-26350000D03*
X90555000Y-26350000D03*
X89285000Y-26350000D03*
%TD*%
D29*
%TO.C,J21*%
X108000000Y-22500000D03*
D13*
X108000000Y-19960000D03*
X110540000Y-22500000D03*
X110540000Y-19960000D03*
X113080000Y-22500000D03*
X113080000Y-19960000D03*
X115620000Y-22500000D03*
X115620000Y-19960000D03*
X118160000Y-22500000D03*
X118160000Y-19960000D03*
X120700000Y-22500000D03*
X120700000Y-19960000D03*
X123240000Y-22500000D03*
X123240000Y-19960000D03*
X125780000Y-22500000D03*
X125780000Y-19960000D03*
X128320000Y-22500000D03*
X128320000Y-19960000D03*
X130860000Y-22500000D03*
X130860000Y-19960000D03*
X133400000Y-22500000D03*
X133400000Y-19960000D03*
X135940000Y-22500000D03*
X135940000Y-19960000D03*
X138480000Y-22500000D03*
X138480000Y-19960000D03*
%TD*%
D30*
%TO.C,U12*%
X89525000Y-97095000D03*
X89525000Y-98365000D03*
X89525000Y-99635000D03*
X89525000Y-100905000D03*
X94475000Y-100905000D03*
X94475000Y-99635000D03*
X94475000Y-98365000D03*
X94475000Y-97095000D03*
%TD*%
D31*
%TO.C,U9*%
X52000000Y-100000000D03*
D32*
X52000000Y-102540000D03*
X52000000Y-105080000D03*
X59620000Y-105080000D03*
X59620000Y-102540000D03*
X59620000Y-100000000D03*
%TD*%
D33*
%TO.C,U10*%
X79000000Y-112500000D03*
D32*
X81540000Y-112500000D03*
X84080000Y-112500000D03*
X84080000Y-104880000D03*
X81540000Y-104880000D03*
X79000000Y-104880000D03*
%TD*%
D22*
%TO.C,U11*%
X86862500Y-115050000D03*
X86862500Y-116000000D03*
X86862500Y-116950000D03*
X89137500Y-116950000D03*
X89137500Y-115050000D03*
%TD*%
D18*
%TO.C,R5*%
X33387500Y-96200000D03*
X35212500Y-96200000D03*
%TD*%
D21*
%TO.C,C9*%
X39950000Y-92500000D03*
X41850000Y-92500000D03*
%TD*%
D24*
%TO.C,R33*%
X142500000Y-13712500D03*
X142500000Y-11887500D03*
%TD*%
D25*
%TO.C,C18*%
X145000000Y-13450000D03*
X145000000Y-11550000D03*
%TD*%
%TO.C,C10*%
X49500000Y-67450000D03*
X49500000Y-65550000D03*
%TD*%
D21*
%TO.C,C15*%
X33650000Y-99200000D03*
X35550000Y-99200000D03*
%TD*%
D25*
%TO.C,C16*%
X152000000Y-23750000D03*
X152000000Y-21850000D03*
%TD*%
D21*
%TO.C,C17*%
X62050000Y-80000000D03*
X63950000Y-80000000D03*
%TD*%
D25*
%TO.C,C11*%
X85800000Y-24950000D03*
X85800000Y-23050000D03*
%TD*%
D21*
%TO.C,C12*%
X57050000Y-93000000D03*
X58950000Y-93000000D03*
%TD*%
D25*
%TO.C,C13*%
X88000000Y-94450000D03*
X88000000Y-92550000D03*
%TD*%
D34*
%TO.C,R21*%
X78000000Y-99247500D03*
X78000000Y-101072500D03*
%TD*%
%TO.C,R22*%
X98000000Y-100517500D03*
X98000000Y-102342500D03*
%TD*%
%TO.C,R23*%
X118000000Y-101787500D03*
X118000000Y-103612500D03*
%TD*%
%TO.C,R24*%
X138000000Y-103057500D03*
X138000000Y-104882500D03*
%TD*%
%TO.C,R25*%
X158000000Y-105597500D03*
X158000000Y-107422500D03*
%TD*%
%TO.C,R26*%
X178000000Y-104327500D03*
X178000000Y-106152500D03*
%TD*%
D24*
%TO.C,R27*%
X168500000Y-16412500D03*
X168500000Y-14587500D03*
%TD*%
%TO.C,R28*%
X170700000Y-16412500D03*
X170700000Y-14587500D03*
%TD*%
%TO.C,R29*%
X172900000Y-16412500D03*
X172900000Y-14587500D03*
%TD*%
%TO.C,R30*%
X175100000Y-16412500D03*
X175100000Y-14587500D03*
%TD*%
%TO.C,R31*%
X177300000Y-16412500D03*
X177300000Y-14587500D03*
%TD*%
%TO.C,R32*%
X179500000Y-16412500D03*
X179500000Y-14587500D03*
%TD*%
D34*
%TO.C,R16*%
X103400000Y-29587500D03*
X103400000Y-31412500D03*
%TD*%
%TO.C,R17*%
X105600000Y-29587500D03*
X105600000Y-31412500D03*
%TD*%
%TO.C,R18*%
X107800000Y-29587500D03*
X107800000Y-31412500D03*
%TD*%
%TO.C,R19*%
X110000000Y-29587500D03*
X110000000Y-31412500D03*
%TD*%
%TO.C,R20*%
X112200000Y-29587500D03*
X112200000Y-31412500D03*
%TD*%
D24*
%TO.C,R6*%
X50000000Y-95712500D03*
X50000000Y-93887500D03*
%TD*%
D34*
%TO.C,R7*%
X79500000Y-115587500D03*
X79500000Y-117412500D03*
%TD*%
D35*
%TO.C,D1*%
X52950000Y-91500000D03*
X55050000Y-91500000D03*
%TD*%
%TO.C,D2*%
X87450000Y-108000000D03*
X89550000Y-108000000D03*
%TD*%
D19*
%TO.C,R8*%
X70912500Y-100400000D03*
X69087500Y-100400000D03*
%TD*%
D18*
%TO.C,R9*%
X86587500Y-105300000D03*
X88412500Y-105300000D03*
%TD*%
%TO.C,R10*%
X91587500Y-116000000D03*
X93412500Y-116000000D03*
%TD*%
D24*
%TO.C,R11*%
X87500000Y-112412500D03*
X87500000Y-110587500D03*
%TD*%
D19*
%TO.C,R13*%
X91912500Y-93800000D03*
X90087500Y-93800000D03*
%TD*%
D24*
%TO.C,R12*%
X102000000Y-104912500D03*
X102000000Y-103087500D03*
%TD*%
D36*
%TO.C,JP1*%
X97775000Y-107000000D03*
D37*
X99225000Y-107000000D03*
%TD*%
D38*
%TO.C,H1*%
X18000000Y-13000000D03*
%TD*%
%TO.C,H2*%
X163000000Y-13000000D03*
%TD*%
%TO.C,H3*%
X212000000Y-13000000D03*
%TD*%
%TO.C,H4*%
X125000000Y-122000000D03*
%TD*%
%TO.C,H5*%
X140000000Y-122000000D03*
%TD*%
M02*
