%TF.GenerationSoftware,KiCad,Pcbnew,10.0.3*%
%TF.CreationDate,2026-07-11T20:32:26+02:00*%
%TF.ProjectId,musicbrain-busboard-v2,6d757369-6362-4726-9169-6e2d62757362,2.0*%
%TF.SameCoordinates,Original*%
%TF.FileFunction,Soldermask,Bot*%
%TF.FilePolarity,Negative*%
%FSLAX46Y46*%
G04 Gerber Fmt 4.6, Leading zero omitted, Abs format (unit mm)*
G04 Created by KiCad (PCBNEW 10.0.3) date 2026-07-11 20:32:26*
%MOMM*%
%LPD*%
G01*
G04 APERTURE LIST*
G04 Aperture macros list*
%AMRoundRect*
0 Rectangle with rounded corners*
0 $1 Rounding radius*
0 $2 $3 $4 $5 $6 $7 $8 $9 X,Y pos of 4 corners*
0 Add a 4 corners polygon primitive as box body*
4,1,4,$2,$3,$4,$5,$6,$7,$8,$9,$2,$3,0*
0 Add four circle primitives for the rounded corners*
1,1,$1+$1,$2,$3*
1,1,$1+$1,$4,$5*
1,1,$1+$1,$6,$7*
1,1,$1+$1,$8,$9*
0 Add four rect primitives between the rounded corners*
20,1,$1+$1,$2,$3,$4,$5,0*
20,1,$1+$1,$4,$5,$6,$7,0*
20,1,$1+$1,$6,$7,$8,$9,0*
20,1,$1+$1,$8,$9,$2,$3,0*%
G04 Aperture macros list end*
%ADD10R,1.700000X1.700000*%
%ADD11O,1.700000X1.700000*%
%ADD12RoundRect,0.250000X-0.600000X-0.600000X0.600000X-0.600000X0.600000X0.600000X-0.600000X0.600000X0*%
%ADD13C,1.700000*%
%ADD14R,1.500000X2.300000*%
%ADD15O,1.500000X2.300000*%
%ADD16RoundRect,0.250000X0.600000X-0.600000X0.600000X0.600000X-0.600000X0.600000X-0.600000X-0.600000X0*%
%ADD17RoundRect,0.250000X-0.550000X-0.550000X0.550000X-0.550000X0.550000X0.550000X-0.550000X0.550000X0*%
%ADD18C,1.600000*%
%ADD19RoundRect,0.250000X0.550000X-0.550000X0.550000X0.550000X-0.550000X0.550000X-0.550000X-0.550000X0*%
%ADD20C,3.200000*%
G04 APERTURE END LIST*
D10*
%TO.C,U1*%
X30000000Y-40000000D03*
D11*
X30000000Y-42540000D03*
X30000000Y-45080000D03*
X30000000Y-47620000D03*
X30000000Y-50160000D03*
X30000000Y-52700000D03*
X30000000Y-55240000D03*
X30000000Y-57780000D03*
X30000000Y-60320000D03*
X30000000Y-62860000D03*
X30000000Y-65400000D03*
X30000000Y-67940000D03*
X30000000Y-70480000D03*
X30000000Y-73020000D03*
X30000000Y-75560000D03*
X30000000Y-78100000D03*
X30000000Y-80640000D03*
X30000000Y-83180000D03*
X30000000Y-85720000D03*
X30000000Y-88260000D03*
X30000000Y-90800000D03*
X30000000Y-93340000D03*
X30000000Y-95880000D03*
X30000000Y-98420000D03*
X45240000Y-98420000D03*
X45240000Y-95880000D03*
X45240000Y-93340000D03*
X45240000Y-90800000D03*
X45240000Y-88260000D03*
X45240000Y-85720000D03*
X45240000Y-83180000D03*
X45240000Y-80640000D03*
X45240000Y-78100000D03*
X45240000Y-75560000D03*
X45240000Y-73020000D03*
X45240000Y-70480000D03*
X45240000Y-67940000D03*
X45240000Y-65400000D03*
X45240000Y-62860000D03*
X45240000Y-60320000D03*
X45240000Y-57780000D03*
X45240000Y-55240000D03*
X45240000Y-52700000D03*
X45240000Y-50160000D03*
X45240000Y-47620000D03*
X45240000Y-45080000D03*
X45240000Y-42540000D03*
X45240000Y-40000000D03*
%TD*%
D12*
%TO.C,J9*%
X22000000Y-108000000D03*
D13*
X24540000Y-108000000D03*
X22000000Y-110540000D03*
X24540000Y-110540000D03*
X22000000Y-113080000D03*
X24540000Y-113080000D03*
X22000000Y-115620000D03*
X24540000Y-115620000D03*
X22000000Y-118160000D03*
X24540000Y-118160000D03*
%TD*%
D14*
%TO.C,U2*%
X62000000Y-72000000D03*
D15*
X64540000Y-72000000D03*
X67080000Y-72000000D03*
%TD*%
D10*
%TO.C,J1*%
X70000000Y-40000000D03*
D13*
X67460000Y-40000000D03*
X70000000Y-42540000D03*
X67460000Y-42540000D03*
X70000000Y-45080000D03*
X67460000Y-45080000D03*
X70000000Y-47620000D03*
X67460000Y-47620000D03*
X70000000Y-50160000D03*
X67460000Y-50160000D03*
X70000000Y-52700000D03*
X67460000Y-52700000D03*
X70000000Y-55240000D03*
X67460000Y-55240000D03*
X70000000Y-57780000D03*
X67460000Y-57780000D03*
X70000000Y-60320000D03*
X67460000Y-60320000D03*
X70000000Y-62860000D03*
X67460000Y-62860000D03*
%TD*%
D10*
%TO.C,J2*%
X90000000Y-40000000D03*
D13*
X87460000Y-40000000D03*
X90000000Y-42540000D03*
X87460000Y-42540000D03*
X90000000Y-45080000D03*
X87460000Y-45080000D03*
X90000000Y-47620000D03*
X87460000Y-47620000D03*
X90000000Y-50160000D03*
X87460000Y-50160000D03*
X90000000Y-52700000D03*
X87460000Y-52700000D03*
X90000000Y-55240000D03*
X87460000Y-55240000D03*
X90000000Y-57780000D03*
X87460000Y-57780000D03*
X90000000Y-60320000D03*
X87460000Y-60320000D03*
X90000000Y-62860000D03*
X87460000Y-62860000D03*
%TD*%
D10*
%TO.C,J3*%
X110000000Y-40000000D03*
D13*
X107460000Y-40000000D03*
X110000000Y-42540000D03*
X107460000Y-42540000D03*
X110000000Y-45080000D03*
X107460000Y-45080000D03*
X110000000Y-47620000D03*
X107460000Y-47620000D03*
X110000000Y-50160000D03*
X107460000Y-50160000D03*
X110000000Y-52700000D03*
X107460000Y-52700000D03*
X110000000Y-55240000D03*
X107460000Y-55240000D03*
X110000000Y-57780000D03*
X107460000Y-57780000D03*
X110000000Y-60320000D03*
X107460000Y-60320000D03*
X110000000Y-62860000D03*
X107460000Y-62860000D03*
%TD*%
D10*
%TO.C,J4*%
X130000000Y-40000000D03*
D13*
X127460000Y-40000000D03*
X130000000Y-42540000D03*
X127460000Y-42540000D03*
X130000000Y-45080000D03*
X127460000Y-45080000D03*
X130000000Y-47620000D03*
X127460000Y-47620000D03*
X130000000Y-50160000D03*
X127460000Y-50160000D03*
X130000000Y-52700000D03*
X127460000Y-52700000D03*
X130000000Y-55240000D03*
X127460000Y-55240000D03*
X130000000Y-57780000D03*
X127460000Y-57780000D03*
X130000000Y-60320000D03*
X127460000Y-60320000D03*
X130000000Y-62860000D03*
X127460000Y-62860000D03*
%TD*%
D10*
%TO.C,J5*%
X150000000Y-40000000D03*
D13*
X147460000Y-40000000D03*
X150000000Y-42540000D03*
X147460000Y-42540000D03*
X150000000Y-45080000D03*
X147460000Y-45080000D03*
X150000000Y-47620000D03*
X147460000Y-47620000D03*
X150000000Y-50160000D03*
X147460000Y-50160000D03*
X150000000Y-52700000D03*
X147460000Y-52700000D03*
X150000000Y-55240000D03*
X147460000Y-55240000D03*
X150000000Y-57780000D03*
X147460000Y-57780000D03*
X150000000Y-60320000D03*
X147460000Y-60320000D03*
X150000000Y-62860000D03*
X147460000Y-62860000D03*
%TD*%
D10*
%TO.C,J6*%
X170000000Y-40000000D03*
D13*
X167460000Y-40000000D03*
X170000000Y-42540000D03*
X167460000Y-42540000D03*
X170000000Y-45080000D03*
X167460000Y-45080000D03*
X170000000Y-47620000D03*
X167460000Y-47620000D03*
X170000000Y-50160000D03*
X167460000Y-50160000D03*
X170000000Y-52700000D03*
X167460000Y-52700000D03*
X170000000Y-55240000D03*
X167460000Y-55240000D03*
X170000000Y-57780000D03*
X167460000Y-57780000D03*
X170000000Y-60320000D03*
X167460000Y-60320000D03*
X170000000Y-62860000D03*
X167460000Y-62860000D03*
%TD*%
D12*
%TO.C,J7*%
X193000000Y-42000000D03*
D13*
X195540000Y-42000000D03*
X193000000Y-44540000D03*
X195540000Y-44540000D03*
X193000000Y-47080000D03*
X195540000Y-47080000D03*
X193000000Y-49620000D03*
X195540000Y-49620000D03*
X193000000Y-52160000D03*
X195540000Y-52160000D03*
%TD*%
D12*
%TO.C,J8*%
X193000000Y-104000000D03*
D13*
X195540000Y-104000000D03*
X193000000Y-106540000D03*
X195540000Y-106540000D03*
X193000000Y-109080000D03*
X195540000Y-109080000D03*
X193000000Y-111620000D03*
X195540000Y-111620000D03*
X193000000Y-114160000D03*
X195540000Y-114160000D03*
%TD*%
D10*
%TO.C,J10*%
X33000000Y-121500000D03*
D13*
X33000000Y-118960000D03*
X35540000Y-121500000D03*
X35540000Y-118960000D03*
X38080000Y-121500000D03*
X38080000Y-118960000D03*
X40620000Y-121500000D03*
X40620000Y-118960000D03*
X43160000Y-121500000D03*
X43160000Y-118960000D03*
X45700000Y-121500000D03*
X45700000Y-118960000D03*
X48240000Y-121500000D03*
X48240000Y-118960000D03*
%TD*%
D10*
%TO.C,J13*%
X75000000Y-121500000D03*
D13*
X77540000Y-121500000D03*
X80080000Y-121500000D03*
%TD*%
D10*
%TO.C,J14*%
X84000000Y-121500000D03*
D13*
X86540000Y-121500000D03*
X89080000Y-121500000D03*
%TD*%
D10*
%TO.C,J15*%
X93000000Y-121500000D03*
D13*
X95540000Y-121500000D03*
X98080000Y-121500000D03*
%TD*%
D10*
%TO.C,J16*%
X102000000Y-121500000D03*
D13*
X104540000Y-121500000D03*
X107080000Y-121500000D03*
X109620000Y-121500000D03*
%TD*%
D10*
%TO.C,J19*%
X52000000Y-121500000D03*
D13*
X54540000Y-121500000D03*
X57080000Y-121500000D03*
X59620000Y-121500000D03*
%TD*%
D10*
%TO.C,J20*%
X63500000Y-121500000D03*
D13*
X66040000Y-121500000D03*
X68580000Y-121500000D03*
X71120000Y-121500000D03*
%TD*%
D10*
%TO.C,J11*%
X33000000Y-20000000D03*
D13*
X35540000Y-20000000D03*
X38080000Y-20000000D03*
X40620000Y-20000000D03*
X43160000Y-20000000D03*
X45700000Y-20000000D03*
X48240000Y-20000000D03*
X50780000Y-20000000D03*
X53320000Y-20000000D03*
%TD*%
D10*
%TO.C,J12*%
X204000000Y-121500000D03*
D13*
X206540000Y-121500000D03*
X209080000Y-121500000D03*
X211620000Y-121500000D03*
%TD*%
D10*
%TO.C,J17*%
X39350000Y-13500000D03*
D13*
X39350000Y-16040000D03*
X36810000Y-13500000D03*
X36810000Y-16040000D03*
X34270000Y-13500000D03*
X34270000Y-16040000D03*
X31730000Y-13500000D03*
X31730000Y-16040000D03*
X29190000Y-13500000D03*
X29190000Y-16040000D03*
X26650000Y-13500000D03*
X26650000Y-16040000D03*
X24110000Y-13500000D03*
X24110000Y-16040000D03*
%TD*%
D10*
%TO.C,J18*%
X43000000Y-13500000D03*
D13*
X45540000Y-13500000D03*
%TD*%
D16*
%TO.C,J21*%
X108000000Y-22500000D03*
D13*
X108000000Y-19960000D03*
X110540000Y-22500000D03*
X110540000Y-19960000D03*
X113080000Y-22500000D03*
X113080000Y-19960000D03*
X115620000Y-22500000D03*
X115620000Y-19960000D03*
X118160000Y-22500000D03*
X118160000Y-19960000D03*
X120700000Y-22500000D03*
X120700000Y-19960000D03*
X123240000Y-22500000D03*
X123240000Y-19960000D03*
X125780000Y-22500000D03*
X125780000Y-19960000D03*
X128320000Y-22500000D03*
X128320000Y-19960000D03*
X130860000Y-22500000D03*
X130860000Y-19960000D03*
X133400000Y-22500000D03*
X133400000Y-19960000D03*
X135940000Y-22500000D03*
X135940000Y-19960000D03*
X138480000Y-22500000D03*
X138480000Y-19960000D03*
%TD*%
D17*
%TO.C,U9*%
X52000000Y-100000000D03*
D18*
X52000000Y-102540000D03*
X52000000Y-105080000D03*
X59620000Y-105080000D03*
X59620000Y-102540000D03*
X59620000Y-100000000D03*
%TD*%
D19*
%TO.C,U10*%
X79000000Y-112500000D03*
D18*
X81540000Y-112500000D03*
X84080000Y-112500000D03*
X84080000Y-104880000D03*
X81540000Y-104880000D03*
X79000000Y-104880000D03*
%TD*%
D20*
%TO.C,H1*%
X18000000Y-13000000D03*
%TD*%
%TO.C,H2*%
X163000000Y-13000000D03*
%TD*%
%TO.C,H3*%
X212000000Y-13000000D03*
%TD*%
%TO.C,H4*%
X125000000Y-122000000D03*
%TD*%
%TO.C,H5*%
X140000000Y-122000000D03*
%TD*%
M02*
