#VRML V2.0 utf8
Transform {
  translation 4.8425 -0.0000 2.4606
  children [ Shape { appearance Appearance { material Material { diffuseColor 0.08 0.08 0.08 shininess 0.1 } }
    geometry Box { size 9.6850 7.8346 4.9213 } } ]
}
Shape { appearance Appearance { material Material { diffuseColor 0.72 0.72 0.75 shininess 0.6 } }
  geometry IndexedFaceSet {
    solid FALSE creaseAngle 0.8
    coord Coordinate { point [ -2.7559 1.8701 2.4409 -2.7559 1.8064 1.9569 -2.7559 1.6195 1.5059 -2.7559 1.3223 1.1186 -2.7559 0.9350 0.8214 -2.7559 0.4840 0.6346 -2.7559 0.0000 0.5709 -2.7559 -0.4840 0.6346 -2.7559 -0.9350 0.8214 -2.7559 -1.3223 1.1186 -2.7559 -1.6195 1.5059 -2.7559 -1.8064 1.9569 -2.7559 -1.8701 2.4409 -2.7559 -1.8064 2.9250 -2.7559 -1.6195 3.3760 -2.7559 -1.3223 3.7633 -2.7559 -0.9350 4.0605 -2.7559 -0.4840 4.2473 -2.7559 -0.0000 4.3110 -2.7559 0.4840 4.2473 -2.7559 0.9350 4.0605 -2.7559 1.3223 3.7633 -2.7559 1.6195 3.3760 -2.7559 1.8064 2.9250 0.0000 1.8701 2.4409 0.0000 1.8064 1.9569 0.0000 1.6195 1.5059 0.0000 1.3223 1.1186 0.0000 0.9350 0.8214 0.0000 0.4840 0.6346 0.0000 0.0000 0.5709 0.0000 -0.4840 0.6346 0.0000 -0.9350 0.8214 0.0000 -1.3223 1.1186 0.0000 -1.6195 1.5059 0.0000 -1.8064 1.9569 0.0000 -1.8701 2.4409 0.0000 -1.8064 2.9250 0.0000 -1.6195 3.3760 0.0000 -1.3223 3.7633 0.0000 -0.9350 4.0605 0.0000 -0.4840 4.2473 0.0000 -0.0000 4.3110 0.0000 0.4840 4.2473 0.0000 0.9350 4.0605 0.0000 1.3223 3.7633 0.0000 1.6195 3.3760 0.0000 1.8064 2.9250 -2.7559 0.0000 2.4409 0.0000 0.0000 2.4409 ] }
    coordIndex [ 0 1 25 24 -1 48 1 0 -1 49 24 25 -1 1 2 26 25 -1 48 2 1 -1 49 25 26 -1 2 3 27 26 -1 48 3 2 -1 49 26 27 -1 3 4 28 27 -1 48 4 3 -1 49 27 28 -1 4 5 29 28 -1 48 5 4 -1 49 28 29 -1 5 6 30 29 -1 48 6 5 -1 49 29 30 -1 6 7 31 30 -1 48 7 6 -1 49 30 31 -1 7 8 32 31 -1 48 8 7 -1 49 31 32 -1 8 9 33 32 -1 48 9 8 -1 49 32 33 -1 9 10 34 33 -1 48 10 9 -1 49 33 34 -1 10 11 35 34 -1 48 11 10 -1 49 34 35 -1 11 12 36 35 -1 48 12 11 -1 49 35 36 -1 12 13 37 36 -1 48 13 12 -1 49 36 37 -1 13 14 38 37 -1 48 14 13 -1 49 37 38 -1 14 15 39 38 -1 48 15 14 -1 49 38 39 -1 15 16 40 39 -1 48 16 15 -1 49 39 40 -1 16 17 41 40 -1 48 17 16 -1 49 40 41 -1 17 18 42 41 -1 48 18 17 -1 49 41 42 -1 18 19 43 42 -1 48 19 18 -1 49 42 43 -1 19 20 44 43 -1 48 20 19 -1 49 43 44 -1 20 21 45 44 -1 48 21 20 -1 49 44 45 -1 21 22 46 45 -1 48 22 21 -1 49 45 46 -1 22 23 47 46 -1 48 23 22 -1 49 46 47 -1 23 0 24 47 -1 48 0 23 -1 49 47 24 -1 ]
  } }
Transform {
  translation -0.9055 0.0000 2.4409
  rotation 1 0 0 0.0
  children [ Shape { appearance Appearance { material Material { diffuseColor 0.72 0.72 0.75 shininess 0.4 } }
    geometry Box { size 0.8661 5.5118 3.1822 } } ]
}
Transform {
  translation -0.9055 0.0000 2.4409
  rotation 1 0 0 1.0472
  children [ Shape { appearance Appearance { material Material { diffuseColor 0.72 0.72 0.75 shininess 0.4 } }
    geometry Box { size 0.8661 5.5118 3.1822 } } ]
}
Transform {
  translation -0.9055 0.0000 2.4409
  rotation 1 0 0 2.0944
  children [ Shape { appearance Appearance { material Material { diffuseColor 0.72 0.72 0.75 shininess 0.4 } }
    geometry Box { size 0.8661 5.5118 3.1822 } } ]
}
Shape { appearance Appearance { material Material { diffuseColor 0.08 0.08 0.08 shininess 0.6 } }
  geometry IndexedFaceSet {
    solid FALSE creaseAngle 0.8
    coord Coordinate { point [ -2.7953 1.4961 2.4409 -2.7953 1.4451 2.0537 -2.7953 1.2956 1.6929 -2.7953 1.0579 1.3831 -2.7953 0.7480 1.1453 -2.7953 0.3872 0.9959 -2.7953 0.0000 0.9449 -2.7953 -0.3872 0.9959 -2.7953 -0.7480 1.1453 -2.7953 -1.0579 1.3831 -2.7953 -1.2956 1.6929 -2.7953 -1.4451 2.0537 -2.7953 -1.4961 2.4409 -2.7953 -1.4451 2.8282 -2.7953 -1.2956 3.1890 -2.7953 -1.0579 3.4988 -2.7953 -0.7480 3.7366 -2.7953 -0.3872 3.8860 -2.7953 -0.0000 3.9370 -2.7953 0.3872 3.8860 -2.7953 0.7480 3.7366 -2.7953 1.0579 3.4988 -2.7953 1.2956 3.1890 -2.7953 1.4451 2.8282 -2.3622 1.4961 2.4409 -2.3622 1.4451 2.0537 -2.3622 1.2956 1.6929 -2.3622 1.0579 1.3831 -2.3622 0.7480 1.1453 -2.3622 0.3872 0.9959 -2.3622 0.0000 0.9449 -2.3622 -0.3872 0.9959 -2.3622 -0.7480 1.1453 -2.3622 -1.0579 1.3831 -2.3622 -1.2956 1.6929 -2.3622 -1.4451 2.0537 -2.3622 -1.4961 2.4409 -2.3622 -1.4451 2.8282 -2.3622 -1.2956 3.1890 -2.3622 -1.0579 3.4988 -2.3622 -0.7480 3.7366 -2.3622 -0.3872 3.8860 -2.3622 -0.0000 3.9370 -2.3622 0.3872 3.8860 -2.3622 0.7480 3.7366 -2.3622 1.0579 3.4988 -2.3622 1.2956 3.1890 -2.3622 1.4451 2.8282 -2.7953 0.0000 2.4409 -2.3622 0.0000 2.4409 ] }
    coordIndex [ 0 1 25 24 -1 48 1 0 -1 49 24 25 -1 1 2 26 25 -1 48 2 1 -1 49 25 26 -1 2 3 27 26 -1 48 3 2 -1 49 26 27 -1 3 4 28 27 -1 48 4 3 -1 49 27 28 -1 4 5 29 28 -1 48 5 4 -1 49 28 29 -1 5 6 30 29 -1 48 6 5 -1 49 29 30 -1 6 7 31 30 -1 48 7 6 -1 49 30 31 -1 7 8 32 31 -1 48 8 7 -1 49 31 32 -1 8 9 33 32 -1 48 9 8 -1 49 32 33 -1 9 10 34 33 -1 48 10 9 -1 49 33 34 -1 10 11 35 34 -1 48 11 10 -1 49 34 35 -1 11 12 36 35 -1 48 12 11 -1 49 35 36 -1 12 13 37 36 -1 48 13 12 -1 49 36 37 -1 13 14 38 37 -1 48 14 13 -1 49 37 38 -1 14 15 39 38 -1 48 15 14 -1 49 38 39 -1 15 16 40 39 -1 48 16 15 -1 49 39 40 -1 16 17 41 40 -1 48 17 16 -1 49 40 41 -1 17 18 42 41 -1 48 18 17 -1 49 41 42 -1 18 19 43 42 -1 48 19 18 -1 49 42 43 -1 19 20 44 43 -1 48 20 19 -1 49 43 44 -1 20 21 45 44 -1 48 21 20 -1 49 44 45 -1 21 22 46 45 -1 48 22 21 -1 49 45 46 -1 22 23 47 46 -1 48 23 22 -1 49 46 47 -1 23 0 24 47 -1 48 0 23 -1 49 47 24 -1 ]
  } }
