#VRML V2.0 utf8
Transform {
  translation -3.0413 2.2441 4.8228
  children [ Shape { appearance Appearance { material Material { diffuseColor 0.08 0.08 0.08 shininess 0.1 } }
    geometry Box { size 9.4291 6.5354 9.6457 } } ]
}
Shape { appearance Appearance { material Material { diffuseColor 0.72 0.72 0.75 shininess 0.6 } }
  geometry IndexedFaceSet {
    solid FALSE creaseAngle 0.8
    coord Coordinate { point [ 1.6732 4.1142 2.4409 1.6732 4.0505 1.9569 1.6732 3.8636 1.5059 1.6732 3.5664 1.1186 1.6732 3.1791 0.8214 1.6732 2.7281 0.6346 1.6732 2.2441 0.5709 1.6732 1.7601 0.6346 1.6732 1.3091 0.8214 1.6732 0.9217 1.1186 1.6732 0.6246 1.5059 1.6732 0.4377 1.9569 1.6732 0.3740 2.4409 1.6732 0.4377 2.9250 1.6732 0.6246 3.3760 1.6732 0.9217 3.7633 1.6732 1.3091 4.0605 1.6732 1.7601 4.2473 1.6732 2.2441 4.3110 1.6732 2.7281 4.2473 1.6732 3.1791 4.0605 1.6732 3.5664 3.7633 1.6732 3.8636 3.3760 1.6732 4.0505 2.9250 4.4291 4.1142 2.4409 4.4291 4.0505 1.9569 4.4291 3.8636 1.5059 4.4291 3.5664 1.1186 4.4291 3.1791 0.8214 4.4291 2.7281 0.6346 4.4291 2.2441 0.5709 4.4291 1.7601 0.6346 4.4291 1.3091 0.8214 4.4291 0.9217 1.1186 4.4291 0.6246 1.5059 4.4291 0.4377 1.9569 4.4291 0.3740 2.4409 4.4291 0.4377 2.9250 4.4291 0.6246 3.3760 4.4291 0.9217 3.7633 4.4291 1.3091 4.0605 4.4291 1.7601 4.2473 4.4291 2.2441 4.3110 4.4291 2.7281 4.2473 4.4291 3.1791 4.0605 4.4291 3.5664 3.7633 4.4291 3.8636 3.3760 4.4291 4.0505 2.9250 ] }
    coordIndex [ 0 1 25 24 -1 1 2 26 25 -1 2 3 27 26 -1 3 4 28 27 -1 4 5 29 28 -1 5 6 30 29 -1 6 7 31 30 -1 7 8 32 31 -1 8 9 33 32 -1 9 10 34 33 -1 10 11 35 34 -1 11 12 36 35 -1 12 13 37 36 -1 13 14 38 37 -1 14 15 39 38 -1 15 16 40 39 -1 16 17 41 40 -1 17 18 42 41 -1 18 19 43 42 -1 19 20 44 43 -1 20 21 45 44 -1 21 22 46 45 -1 22 23 47 46 -1 23 0 24 47 -1 23 22 21 20 19 18 17 16 15 14 13 12 11 10 9 8 7 6 5 4 3 2 1 0 -1 24 25 26 27 28 29 30 31 32 33 34 35 36 37 38 39 40 41 42 43 44 45 46 47 -1 ]
  } }
Transform {
  translation 2.5787 2.2441 2.4409
  rotation 1 0 0 0.0
  children [ Shape { appearance Appearance { material Material { diffuseColor 0.72 0.72 0.75 shininess 0.4 } }
    geometry Box { size 0.8661 5.5118 3.1822 } } ]
}
Transform {
  translation 2.5787 2.2441 2.4409
  rotation 1 0 0 1.0472
  children [ Shape { appearance Appearance { material Material { diffuseColor 0.72 0.72 0.75 shininess 0.4 } }
    geometry Box { size 0.8661 5.5118 3.1822 } } ]
}
Transform {
  translation 2.5787 2.2441 2.4409
  rotation 1 0 0 2.0944
  children [ Shape { appearance Appearance { material Material { diffuseColor 0.72 0.72 0.75 shininess 0.4 } }
    geometry Box { size 0.8661 5.5118 3.1822 } } ]
}
Shape { appearance Appearance { material Material { diffuseColor 0.08 0.08 0.08 shininess 0.6 } }
  geometry IndexedFaceSet {
    solid FALSE creaseAngle 0.8
    coord Coordinate { point [ 4.0748 3.7402 2.4409 4.0748 3.6892 2.0537 4.0748 3.5397 1.6929 4.0748 3.3020 1.3831 4.0748 2.9921 1.1453 4.0748 2.6313 0.9959 4.0748 2.2441 0.9449 4.0748 1.8569 0.9959 4.0748 1.4961 1.1453 4.0748 1.1862 1.3831 4.0748 0.9485 1.6929 4.0748 0.7990 2.0537 4.0748 0.7480 2.4409 4.0748 0.7990 2.8282 4.0748 0.9485 3.1890 4.0748 1.1862 3.4988 4.0748 1.4961 3.7366 4.0748 1.8569 3.8860 4.0748 2.2441 3.9370 4.0748 2.6313 3.8860 4.0748 2.9921 3.7366 4.0748 3.3020 3.4988 4.0748 3.5397 3.1890 4.0748 3.6892 2.8282 4.4685 3.7402 2.4409 4.4685 3.6892 2.0537 4.4685 3.5397 1.6929 4.4685 3.3020 1.3831 4.4685 2.9921 1.1453 4.4685 2.6313 0.9959 4.4685 2.2441 0.9449 4.4685 1.8569 0.9959 4.4685 1.4961 1.1453 4.4685 1.1862 1.3831 4.4685 0.9485 1.6929 4.4685 0.7990 2.0537 4.4685 0.7480 2.4409 4.4685 0.7990 2.8282 4.4685 0.9485 3.1890 4.4685 1.1862 3.4988 4.4685 1.4961 3.7366 4.4685 1.8569 3.8860 4.4685 2.2441 3.9370 4.4685 2.6313 3.8860 4.4685 2.9921 3.7366 4.4685 3.3020 3.4988 4.4685 3.5397 3.1890 4.4685 3.6892 2.8282 ] }
    coordIndex [ 0 1 25 24 -1 1 2 26 25 -1 2 3 27 26 -1 3 4 28 27 -1 4 5 29 28 -1 5 6 30 29 -1 6 7 31 30 -1 7 8 32 31 -1 8 9 33 32 -1 9 10 34 33 -1 10 11 35 34 -1 11 12 36 35 -1 12 13 37 36 -1 13 14 38 37 -1 14 15 39 38 -1 15 16 40 39 -1 16 17 41 40 -1 17 18 42 41 -1 18 19 43 42 -1 19 20 44 43 -1 20 21 45 44 -1 21 22 46 45 -1 22 23 47 46 -1 23 0 24 47 -1 23 22 21 20 19 18 17 16 15 14 13 12 11 10 9 8 7 6 5 4 3 2 1 0 -1 24 25 26 27 28 29 30 31 32 33 34 35 36 37 38 39 40 41 42 43 44 45 46 47 -1 ]
  } }
Shape { appearance Appearance { material Material { diffuseColor 0.72 0.72 0.75 shininess 0.6 } }
  geometry IndexedFaceSet {
    solid FALSE creaseAngle 0.8
    coord Coordinate { point [ 1.6732 4.1142 7.2441 1.6732 4.0505 6.7601 1.6732 3.8636 6.3091 1.6732 3.5664 5.9217 1.6732 3.1791 5.6246 1.6732 2.7281 5.4377 1.6732 2.2441 5.3740 1.6732 1.7601 5.4377 1.6732 1.3091 5.6246 1.6732 0.9217 5.9217 1.6732 0.6246 6.3091 1.6732 0.4377 6.7601 1.6732 0.3740 7.2441 1.6732 0.4377 7.7281 1.6732 0.6246 8.1791 1.6732 0.9217 8.5664 1.6732 1.3091 8.8636 1.6732 1.7601 9.0505 1.6732 2.2441 9.1142 1.6732 2.7281 9.0505 1.6732 3.1791 8.8636 1.6732 3.5664 8.5664 1.6732 3.8636 8.1791 1.6732 4.0505 7.7281 4.4291 4.1142 7.2441 4.4291 4.0505 6.7601 4.4291 3.8636 6.3091 4.4291 3.5664 5.9217 4.4291 3.1791 5.6246 4.4291 2.7281 5.4377 4.4291 2.2441 5.3740 4.4291 1.7601 5.4377 4.4291 1.3091 5.6246 4.4291 0.9217 5.9217 4.4291 0.6246 6.3091 4.4291 0.4377 6.7601 4.4291 0.3740 7.2441 4.4291 0.4377 7.7281 4.4291 0.6246 8.1791 4.4291 0.9217 8.5664 4.4291 1.3091 8.8636 4.4291 1.7601 9.0505 4.4291 2.2441 9.1142 4.4291 2.7281 9.0505 4.4291 3.1791 8.8636 4.4291 3.5664 8.5664 4.4291 3.8636 8.1791 4.4291 4.0505 7.7281 ] }
    coordIndex [ 0 1 25 24 -1 1 2 26 25 -1 2 3 27 26 -1 3 4 28 27 -1 4 5 29 28 -1 5 6 30 29 -1 6 7 31 30 -1 7 8 32 31 -1 8 9 33 32 -1 9 10 34 33 -1 10 11 35 34 -1 11 12 36 35 -1 12 13 37 36 -1 13 14 38 37 -1 14 15 39 38 -1 15 16 40 39 -1 16 17 41 40 -1 17 18 42 41 -1 18 19 43 42 -1 19 20 44 43 -1 20 21 45 44 -1 21 22 46 45 -1 22 23 47 46 -1 23 0 24 47 -1 23 22 21 20 19 18 17 16 15 14 13 12 11 10 9 8 7 6 5 4 3 2 1 0 -1 24 25 26 27 28 29 30 31 32 33 34 35 36 37 38 39 40 41 42 43 44 45 46 47 -1 ]
  } }
Transform {
  translation 2.5787 2.2441 7.2441
  rotation 1 0 0 0.0
  children [ Shape { appearance Appearance { material Material { diffuseColor 0.72 0.72 0.75 shininess 0.4 } }
    geometry Box { size 0.8661 5.5118 3.1822 } } ]
}
Transform {
  translation 2.5787 2.2441 7.2441
  rotation 1 0 0 1.0472
  children [ Shape { appearance Appearance { material Material { diffuseColor 0.72 0.72 0.75 shininess 0.4 } }
    geometry Box { size 0.8661 5.5118 3.1822 } } ]
}
Transform {
  translation 2.5787 2.2441 7.2441
  rotation 1 0 0 2.0944
  children [ Shape { appearance Appearance { material Material { diffuseColor 0.72 0.72 0.75 shininess 0.4 } }
    geometry Box { size 0.8661 5.5118 3.1822 } } ]
}
Shape { appearance Appearance { material Material { diffuseColor 0.08 0.08 0.08 shininess 0.6 } }
  geometry IndexedFaceSet {
    solid FALSE creaseAngle 0.8
    coord Coordinate { point [ 4.0748 3.7402 7.2441 4.0748 3.6892 6.8569 4.0748 3.5397 6.4961 4.0748 3.3020 6.1862 4.0748 2.9921 5.9485 4.0748 2.6313 5.7990 4.0748 2.2441 5.7480 4.0748 1.8569 5.7990 4.0748 1.4961 5.9485 4.0748 1.1862 6.1862 4.0748 0.9485 6.4961 4.0748 0.7990 6.8569 4.0748 0.7480 7.2441 4.0748 0.7990 7.6313 4.0748 0.9485 7.9921 4.0748 1.1862 8.3020 4.0748 1.4961 8.5397 4.0748 1.8569 8.6892 4.0748 2.2441 8.7402 4.0748 2.6313 8.6892 4.0748 2.9921 8.5397 4.0748 3.3020 8.3020 4.0748 3.5397 7.9921 4.0748 3.6892 7.6313 4.4685 3.7402 7.2441 4.4685 3.6892 6.8569 4.4685 3.5397 6.4961 4.4685 3.3020 6.1862 4.4685 2.9921 5.9485 4.4685 2.6313 5.7990 4.4685 2.2441 5.7480 4.4685 1.8569 5.7990 4.4685 1.4961 5.9485 4.4685 1.1862 6.1862 4.4685 0.9485 6.4961 4.4685 0.7990 6.8569 4.4685 0.7480 7.2441 4.4685 0.7990 7.6313 4.4685 0.9485 7.9921 4.4685 1.1862 8.3020 4.4685 1.4961 8.5397 4.4685 1.8569 8.6892 4.4685 2.2441 8.7402 4.4685 2.6313 8.6892 4.4685 2.9921 8.5397 4.4685 3.3020 8.3020 4.4685 3.5397 7.9921 4.4685 3.6892 7.6313 ] }
    coordIndex [ 0 1 25 24 -1 1 2 26 25 -1 2 3 27 26 -1 3 4 28 27 -1 4 5 29 28 -1 5 6 30 29 -1 6 7 31 30 -1 7 8 32 31 -1 8 9 33 32 -1 9 10 34 33 -1 10 11 35 34 -1 11 12 36 35 -1 12 13 37 36 -1 13 14 38 37 -1 14 15 39 38 -1 15 16 40 39 -1 16 17 41 40 -1 17 18 42 41 -1 18 19 43 42 -1 19 20 44 43 -1 20 21 45 44 -1 21 22 46 45 -1 22 23 47 46 -1 23 0 24 47 -1 23 22 21 20 19 18 17 16 15 14 13 12 11 10 9 8 7 6 5 4 3 2 1 0 -1 24 25 26 27 28 29 30 31 32 33 34 35 36 37 38 39 40 41 42 43 44 45 46 47 -1 ]
  } }
