#VRML V2.0 utf8
Transform {
  translation 0.0000 -1.8110 2.9528
  children [ Shape { appearance Appearance { material Material { diffuseColor 0.08 0.08 0.08 shininess 0.1 } }
    geometry Box { size 7.8740 6.2205 5.9055 } } ]
}
Shape { appearance Appearance { material Material { diffuseColor 0.72 0.72 0.75 shininess 0.6 } }
  geometry IndexedFaceSet {
    solid FALSE creaseAngle 0.8
    coord Coordinate { point [ 2.8740 -4.9213 3.1496 2.7761 -4.9213 2.4058 2.4890 -4.9213 1.7126 2.0322 -4.9213 1.1174 1.4370 -4.9213 0.6606 0.7439 -4.9213 0.3735 0.0000 -4.9213 0.2756 -0.7439 -4.9213 0.3735 -1.4370 -4.9213 0.6606 -2.0322 -4.9213 1.1174 -2.4890 -4.9213 1.7126 -2.7761 -4.9213 2.4058 -2.8740 -4.9213 3.1496 -2.7761 -4.9213 3.8935 -2.4890 -4.9213 4.5866 -2.0322 -4.9213 5.1818 -1.4370 -4.9213 5.6386 -0.7439 -4.9213 5.9257 -0.0000 -4.9213 6.0236 0.7439 -4.9213 5.9257 1.4370 -4.9213 5.6386 2.0322 -4.9213 5.1818 2.4890 -4.9213 4.5866 2.7761 -4.9213 3.8935 2.8740 -6.3780 3.1496 2.7761 -6.3780 2.4058 2.4890 -6.3780 1.7126 2.0322 -6.3780 1.1174 1.4370 -6.3780 0.6606 0.7439 -6.3780 0.3735 0.0000 -6.3780 0.2756 -0.7439 -6.3780 0.3735 -1.4370 -6.3780 0.6606 -2.0322 -6.3780 1.1174 -2.4890 -6.3780 1.7126 -2.7761 -6.3780 2.4058 -2.8740 -6.3780 3.1496 -2.7761 -6.3780 3.8935 -2.4890 -6.3780 4.5866 -2.0322 -6.3780 5.1818 -1.4370 -6.3780 5.6386 -0.7439 -6.3780 5.9257 -0.0000 -6.3780 6.0236 0.7439 -6.3780 5.9257 1.4370 -6.3780 5.6386 2.0322 -6.3780 5.1818 2.4890 -6.3780 4.5866 2.7761 -6.3780 3.8935 ] }
    coordIndex [ 0 1 25 24 -1 1 2 26 25 -1 2 3 27 26 -1 3 4 28 27 -1 4 5 29 28 -1 5 6 30 29 -1 6 7 31 30 -1 7 8 32 31 -1 8 9 33 32 -1 9 10 34 33 -1 10 11 35 34 -1 11 12 36 35 -1 12 13 37 36 -1 13 14 38 37 -1 14 15 39 38 -1 15 16 40 39 -1 16 17 41 40 -1 17 18 42 41 -1 18 19 43 42 -1 19 20 44 43 -1 20 21 45 44 -1 21 22 46 45 -1 22 23 47 46 -1 23 0 24 47 -1 23 22 21 20 19 18 17 16 15 14 13 12 11 10 9 8 7 6 5 4 3 2 1 0 -1 24 25 26 27 28 29 30 31 32 33 34 35 36 37 38 39 40 41 42 43 44 45 46 47 -1 ]
  } }
Shape { appearance Appearance { material Material { diffuseColor 0.08 0.08 0.08 shininess 0.6 } }
  geometry IndexedFaceSet {
    solid FALSE creaseAngle 0.8
    coord Coordinate { point [ 2.2047 -5.6693 3.1496 2.1296 -5.6693 2.5790 1.9093 -5.6693 2.0472 1.5590 -5.6693 1.5906 1.1024 -5.6693 1.2403 0.5706 -5.6693 1.0200 0.0000 -5.6693 0.9449 -0.5706 -5.6693 1.0200 -1.1024 -5.6693 1.2403 -1.5590 -5.6693 1.5906 -1.9093 -5.6693 2.0472 -2.1296 -5.6693 2.5790 -2.2047 -5.6693 3.1496 -2.1296 -5.6693 3.7202 -1.9093 -5.6693 4.2520 -1.5590 -5.6693 4.7086 -1.1024 -5.6693 5.0590 -0.5706 -5.6693 5.2792 -0.0000 -5.6693 5.3543 0.5706 -5.6693 5.2792 1.1024 -5.6693 5.0590 1.5590 -5.6693 4.7086 1.9093 -5.6693 4.2520 2.1296 -5.6693 3.7202 2.2047 -5.9055 3.1496 2.1296 -5.9055 2.5790 1.9093 -5.9055 2.0472 1.5590 -5.9055 1.5906 1.1024 -5.9055 1.2403 0.5706 -5.9055 1.0200 0.0000 -5.9055 0.9449 -0.5706 -5.9055 1.0200 -1.1024 -5.9055 1.2403 -1.5590 -5.9055 1.5906 -1.9093 -5.9055 2.0472 -2.1296 -5.9055 2.5790 -2.2047 -5.9055 3.1496 -2.1296 -5.9055 3.7202 -1.9093 -5.9055 4.2520 -1.5590 -5.9055 4.7086 -1.1024 -5.9055 5.0590 -0.5706 -5.9055 5.2792 -0.0000 -5.9055 5.3543 0.5706 -5.9055 5.2792 1.1024 -5.9055 5.0590 1.5590 -5.9055 4.7086 1.9093 -5.9055 4.2520 2.1296 -5.9055 3.7202 ] }
    coordIndex [ 0 1 25 24 -1 1 2 26 25 -1 2 3 27 26 -1 3 4 28 27 -1 4 5 29 28 -1 5 6 30 29 -1 6 7 31 30 -1 7 8 32 31 -1 8 9 33 32 -1 9 10 34 33 -1 10 11 35 34 -1 11 12 36 35 -1 12 13 37 36 -1 13 14 38 37 -1 14 15 39 38 -1 15 16 40 39 -1 16 17 41 40 -1 17 18 42 41 -1 18 19 43 42 -1 19 20 44 43 -1 20 21 45 44 -1 21 22 46 45 -1 22 23 47 46 -1 23 0 24 47 -1 23 22 21 20 19 18 17 16 15 14 13 12 11 10 9 8 7 6 5 4 3 2 1 0 -1 24 25 26 27 28 29 30 31 32 33 34 35 36 37 38 39 40 41 42 43 44 45 46 47 -1 ]
  } }
Shape { appearance Appearance { material Material { diffuseColor 0.72 0.72 0.75 shininess 0.6 } }
  geometry IndexedFaceSet {
    solid FALSE creaseAngle 0.8
    coord Coordinate { point [ -1.2008 -5.6693 3.1496 -1.2068 -5.6693 3.1038 -1.2245 -5.6693 3.0610 -1.2527 -5.6693 3.0243 -1.2894 -5.6693 2.9962 -1.3321 -5.6693 2.9785 -1.3780 -5.6693 2.9724 -1.4238 -5.6693 2.9785 -1.4665 -5.6693 2.9962 -1.5032 -5.6693 3.0243 -1.5314 -5.6693 3.0610 -1.5491 -5.6693 3.1038 -1.5551 -5.6693 3.1496 -1.5491 -5.6693 3.1955 -1.5314 -5.6693 3.2382 -1.5032 -5.6693 3.2749 -1.4665 -5.6693 3.3030 -1.4238 -5.6693 3.3207 -1.3780 -5.6693 3.3268 -1.3321 -5.6693 3.3207 -1.2894 -5.6693 3.3030 -1.2527 -5.6693 3.2749 -1.2245 -5.6693 3.2382 -1.2068 -5.6693 3.1955 -1.2008 -6.2992 3.1496 -1.2068 -6.2992 3.1038 -1.2245 -6.2992 3.0610 -1.2527 -6.2992 3.0243 -1.2894 -6.2992 2.9962 -1.3321 -6.2992 2.9785 -1.3780 -6.2992 2.9724 -1.4238 -6.2992 2.9785 -1.4665 -6.2992 2.9962 -1.5032 -6.2992 3.0243 -1.5314 -6.2992 3.0610 -1.5491 -6.2992 3.1038 -1.5551 -6.2992 3.1496 -1.5491 -6.2992 3.1955 -1.5314 -6.2992 3.2382 -1.5032 -6.2992 3.2749 -1.4665 -6.2992 3.3030 -1.4238 -6.2992 3.3207 -1.3780 -6.2992 3.3268 -1.3321 -6.2992 3.3207 -1.2894 -6.2992 3.3030 -1.2527 -6.2992 3.2749 -1.2245 -6.2992 3.2382 -1.2068 -6.2992 3.1955 ] }
    coordIndex [ 0 1 25 24 -1 1 2 26 25 -1 2 3 27 26 -1 3 4 28 27 -1 4 5 29 28 -1 5 6 30 29 -1 6 7 31 30 -1 7 8 32 31 -1 8 9 33 32 -1 9 10 34 33 -1 10 11 35 34 -1 11 12 36 35 -1 12 13 37 36 -1 13 14 38 37 -1 14 15 39 38 -1 15 16 40 39 -1 16 17 41 40 -1 17 18 42 41 -1 18 19 43 42 -1 19 20 44 43 -1 20 21 45 44 -1 21 22 46 45 -1 22 23 47 46 -1 23 0 24 47 -1 23 22 21 20 19 18 17 16 15 14 13 12 11 10 9 8 7 6 5 4 3 2 1 0 -1 24 25 26 27 28 29 30 31 32 33 34 35 36 37 38 39 40 41 42 43 44 45 46 47 -1 ]
  } }
Shape { appearance Appearance { material Material { diffuseColor 0.72 0.72 0.75 shininess 0.6 } }
  geometry IndexedFaceSet {
    solid FALSE creaseAngle 0.8
    coord Coordinate { point [ -0.7972 -5.6693 4.1240 -0.8032 -5.6693 4.0781 -0.8209 -5.6693 4.0354 -0.8491 -5.6693 3.9987 -0.8858 -5.6693 3.9705 -0.9285 -5.6693 3.9528 -0.9744 -5.6693 3.9468 -1.0202 -5.6693 3.9528 -1.0629 -5.6693 3.9705 -1.0996 -5.6693 3.9987 -1.1278 -5.6693 4.0354 -1.1455 -5.6693 4.0781 -1.1515 -5.6693 4.1240 -1.1455 -5.6693 4.1698 -1.1278 -5.6693 4.2125 -1.0996 -5.6693 4.2492 -1.0629 -5.6693 4.2774 -1.0202 -5.6693 4.2951 -0.9744 -5.6693 4.3011 -0.9285 -5.6693 4.2951 -0.8858 -5.6693 4.2774 -0.8491 -5.6693 4.2492 -0.8209 -5.6693 4.2125 -0.8032 -5.6693 4.1698 -0.7972 -6.2992 4.1240 -0.8032 -6.2992 4.0781 -0.8209 -6.2992 4.0354 -0.8491 -6.2992 3.9987 -0.8858 -6.2992 3.9705 -0.9285 -6.2992 3.9528 -0.9744 -6.2992 3.9468 -1.0202 -6.2992 3.9528 -1.0629 -6.2992 3.9705 -1.0996 -6.2992 3.9987 -1.1278 -6.2992 4.0354 -1.1455 -6.2992 4.0781 -1.1515 -6.2992 4.1240 -1.1455 -6.2992 4.1698 -1.1278 -6.2992 4.2125 -1.0996 -6.2992 4.2492 -1.0629 -6.2992 4.2774 -1.0202 -6.2992 4.2951 -0.9744 -6.2992 4.3011 -0.9285 -6.2992 4.2951 -0.8858 -6.2992 4.2774 -0.8491 -6.2992 4.2492 -0.8209 -6.2992 4.2125 -0.8032 -6.2992 4.1698 ] }
    coordIndex [ 0 1 25 24 -1 1 2 26 25 -1 2 3 27 26 -1 3 4 28 27 -1 4 5 29 28 -1 5 6 30 29 -1 6 7 31 30 -1 7 8 32 31 -1 8 9 33 32 -1 9 10 34 33 -1 10 11 35 34 -1 11 12 36 35 -1 12 13 37 36 -1 13 14 38 37 -1 14 15 39 38 -1 15 16 40 39 -1 16 17 41 40 -1 17 18 42 41 -1 18 19 43 42 -1 19 20 44 43 -1 20 21 45 44 -1 21 22 46 45 -1 22 23 47 46 -1 23 0 24 47 -1 23 22 21 20 19 18 17 16 15 14 13 12 11 10 9 8 7 6 5 4 3 2 1 0 -1 24 25 26 27 28 29 30 31 32 33 34 35 36 37 38 39 40 41 42 43 44 45 46 47 -1 ]
  } }
Shape { appearance Appearance { material Material { diffuseColor 0.72 0.72 0.75 shininess 0.6 } }
  geometry IndexedFaceSet {
    solid FALSE creaseAngle 0.8
    coord Coordinate { point [ 0.1772 -5.6693 4.5276 0.1711 -5.6693 4.4817 0.1534 -5.6693 4.4390 0.1253 -5.6693 4.4023 0.0886 -5.6693 4.3741 0.0459 -5.6693 4.3564 0.0000 -5.6693 4.3504 -0.0459 -5.6693 4.3564 -0.0886 -5.6693 4.3741 -0.1253 -5.6693 4.4023 -0.1534 -5.6693 4.4390 -0.1711 -5.6693 4.4817 -0.1772 -5.6693 4.5276 -0.1711 -5.6693 4.5734 -0.1534 -5.6693 4.6161 -0.1253 -5.6693 4.6528 -0.0886 -5.6693 4.6810 -0.0459 -5.6693 4.6987 -0.0000 -5.6693 4.7047 0.0459 -5.6693 4.6987 0.0886 -5.6693 4.6810 0.1253 -5.6693 4.6528 0.1534 -5.6693 4.6161 0.1711 -5.6693 4.5734 0.1772 -6.2992 4.5276 0.1711 -6.2992 4.4817 0.1534 -6.2992 4.4390 0.1253 -6.2992 4.4023 0.0886 -6.2992 4.3741 0.0459 -6.2992 4.3564 0.0000 -6.2992 4.3504 -0.0459 -6.2992 4.3564 -0.0886 -6.2992 4.3741 -0.1253 -6.2992 4.4023 -0.1534 -6.2992 4.4390 -0.1711 -6.2992 4.4817 -0.1772 -6.2992 4.5276 -0.1711 -6.2992 4.5734 -0.1534 -6.2992 4.6161 -0.1253 -6.2992 4.6528 -0.0886 -6.2992 4.6810 -0.0459 -6.2992 4.6987 -0.0000 -6.2992 4.7047 0.0459 -6.2992 4.6987 0.0886 -6.2992 4.6810 0.1253 -6.2992 4.6528 0.1534 -6.2992 4.6161 0.1711 -6.2992 4.5734 ] }
    coordIndex [ 0 1 25 24 -1 1 2 26 25 -1 2 3 27 26 -1 3 4 28 27 -1 4 5 29 28 -1 5 6 30 29 -1 6 7 31 30 -1 7 8 32 31 -1 8 9 33 32 -1 9 10 34 33 -1 10 11 35 34 -1 11 12 36 35 -1 12 13 37 36 -1 13 14 38 37 -1 14 15 39 38 -1 15 16 40 39 -1 16 17 41 40 -1 17 18 42 41 -1 18 19 43 42 -1 19 20 44 43 -1 20 21 45 44 -1 21 22 46 45 -1 22 23 47 46 -1 23 0 24 47 -1 23 22 21 20 19 18 17 16 15 14 13 12 11 10 9 8 7 6 5 4 3 2 1 0 -1 24 25 26 27 28 29 30 31 32 33 34 35 36 37 38 39 40 41 42 43 44 45 46 47 -1 ]
  } }
Shape { appearance Appearance { material Material { diffuseColor 0.72 0.72 0.75 shininess 0.6 } }
  geometry IndexedFaceSet {
    solid FALSE creaseAngle 0.8
    coord Coordinate { point [ 1.1515 -5.6693 4.1240 1.1455 -5.6693 4.0781 1.1278 -5.6693 4.0354 1.0996 -5.6693 3.9987 1.0629 -5.6693 3.9705 1.0202 -5.6693 3.9528 0.9744 -5.6693 3.9468 0.9285 -5.6693 3.9528 0.8858 -5.6693 3.9705 0.8491 -5.6693 3.9987 0.8209 -5.6693 4.0354 0.8032 -5.6693 4.0781 0.7972 -5.6693 4.1240 0.8032 -5.6693 4.1698 0.8209 -5.6693 4.2125 0.8491 -5.6693 4.2492 0.8858 -5.6693 4.2774 0.9285 -5.6693 4.2951 0.9744 -5.6693 4.3011 1.0202 -5.6693 4.2951 1.0629 -5.6693 4.2774 1.0996 -5.6693 4.2492 1.1278 -5.6693 4.2125 1.1455 -5.6693 4.1698 1.1515 -6.2992 4.1240 1.1455 -6.2992 4.0781 1.1278 -6.2992 4.0354 1.0996 -6.2992 3.9987 1.0629 -6.2992 3.9705 1.0202 -6.2992 3.9528 0.9744 -6.2992 3.9468 0.9285 -6.2992 3.9528 0.8858 -6.2992 3.9705 0.8491 -6.2992 3.9987 0.8209 -6.2992 4.0354 0.8032 -6.2992 4.0781 0.7972 -6.2992 4.1240 0.8032 -6.2992 4.1698 0.8209 -6.2992 4.2125 0.8491 -6.2992 4.2492 0.8858 -6.2992 4.2774 0.9285 -6.2992 4.2951 0.9744 -6.2992 4.3011 1.0202 -6.2992 4.2951 1.0629 -6.2992 4.2774 1.0996 -6.2992 4.2492 1.1278 -6.2992 4.2125 1.1455 -6.2992 4.1698 ] }
    coordIndex [ 0 1 25 24 -1 1 2 26 25 -1 2 3 27 26 -1 3 4 28 27 -1 4 5 29 28 -1 5 6 30 29 -1 6 7 31 30 -1 7 8 32 31 -1 8 9 33 32 -1 9 10 34 33 -1 10 11 35 34 -1 11 12 36 35 -1 12 13 37 36 -1 13 14 38 37 -1 14 15 39 38 -1 15 16 40 39 -1 16 17 41 40 -1 17 18 42 41 -1 18 19 43 42 -1 19 20 44 43 -1 20 21 45 44 -1 21 22 46 45 -1 22 23 47 46 -1 23 0 24 47 -1 23 22 21 20 19 18 17 16 15 14 13 12 11 10 9 8 7 6 5 4 3 2 1 0 -1 24 25 26 27 28 29 30 31 32 33 34 35 36 37 38 39 40 41 42 43 44 45 46 47 -1 ]
  } }
Shape { appearance Appearance { material Material { diffuseColor 0.72 0.72 0.75 shininess 0.6 } }
  geometry IndexedFaceSet {
    solid FALSE creaseAngle 0.8
    coord Coordinate { point [ 1.5551 -5.6693 3.1496 1.5491 -5.6693 3.1038 1.5314 -5.6693 3.0610 1.5032 -5.6693 3.0243 1.4665 -5.6693 2.9962 1.4238 -5.6693 2.9785 1.3780 -5.6693 2.9724 1.3321 -5.6693 2.9785 1.2894 -5.6693 2.9962 1.2527 -5.6693 3.0243 1.2245 -5.6693 3.0610 1.2068 -5.6693 3.1038 1.2008 -5.6693 3.1496 1.2068 -5.6693 3.1955 1.2245 -5.6693 3.2382 1.2527 -5.6693 3.2749 1.2894 -5.6693 3.3030 1.3321 -5.6693 3.3207 1.3780 -5.6693 3.3268 1.4238 -5.6693 3.3207 1.4665 -5.6693 3.3030 1.5032 -5.6693 3.2749 1.5314 -5.6693 3.2382 1.5491 -5.6693 3.1955 1.5551 -6.2992 3.1496 1.5491 -6.2992 3.1038 1.5314 -6.2992 3.0610 1.5032 -6.2992 3.0243 1.4665 -6.2992 2.9962 1.4238 -6.2992 2.9785 1.3780 -6.2992 2.9724 1.3321 -6.2992 2.9785 1.2894 -6.2992 2.9962 1.2527 -6.2992 3.0243 1.2245 -6.2992 3.0610 1.2068 -6.2992 3.1038 1.2008 -6.2992 3.1496 1.2068 -6.2992 3.1955 1.2245 -6.2992 3.2382 1.2527 -6.2992 3.2749 1.2894 -6.2992 3.3030 1.3321 -6.2992 3.3207 1.3780 -6.2992 3.3268 1.4238 -6.2992 3.3207 1.4665 -6.2992 3.3030 1.5032 -6.2992 3.2749 1.5314 -6.2992 3.2382 1.5491 -6.2992 3.1955 ] }
    coordIndex [ 0 1 25 24 -1 1 2 26 25 -1 2 3 27 26 -1 3 4 28 27 -1 4 5 29 28 -1 5 6 30 29 -1 6 7 31 30 -1 7 8 32 31 -1 8 9 33 32 -1 9 10 34 33 -1 10 11 35 34 -1 11 12 36 35 -1 12 13 37 36 -1 13 14 38 37 -1 14 15 39 38 -1 15 16 40 39 -1 16 17 41 40 -1 17 18 42 41 -1 18 19 43 42 -1 19 20 44 43 -1 20 21 45 44 -1 21 22 46 45 -1 22 23 47 46 -1 23 0 24 47 -1 23 22 21 20 19 18 17 16 15 14 13 12 11 10 9 8 7 6 5 4 3 2 1 0 -1 24 25 26 27 28 29 30 31 32 33 34 35 36 37 38 39 40 41 42 43 44 45 46 47 -1 ]
  } }
