%TF.GenerationSoftware,KiCad,Pcbnew,10.0.3*%
%TF.CreationDate,2026-07-08T12:05:19+02:00*%
%TF.ProjectId,ad5754r-breakout,61643537-3534-4722-9d62-7265616b6f75,2.0*%
%TF.SameCoordinates,Original*%
%TF.FileFunction,Drillmap*%
%TF.FilePolarity,Positive*%
%FSLAX45Y45*%
G04 Gerber Fmt 4.5, Leading zero omitted, Abs format (unit mm)*
G04 Created by KiCad (PCBNEW 10.0.3) date 2026-07-08 12:05:19*
%MOMM*%
%LPD*%
G01*
G04 APERTURE LIST*
%ADD10C,0.100000*%
%ADD11C,0.200000*%
G04 APERTURE END LIST*
D10*
X10000000Y-10500000D02*
X15000000Y-10500000D01*
X15000000Y-14000000D01*
X10000000Y-14000000D01*
X10000000Y-10500000D01*
D11*
X10255777Y-14316484D02*
X10255777Y-14116484D01*
X10255777Y-14116484D02*
X10303396Y-14116484D01*
X10303396Y-14116484D02*
X10331967Y-14126008D01*
X10331967Y-14126008D02*
X10351015Y-14145055D01*
X10351015Y-14145055D02*
X10360539Y-14164103D01*
X10360539Y-14164103D02*
X10370063Y-14202198D01*
X10370063Y-14202198D02*
X10370063Y-14230769D01*
X10370063Y-14230769D02*
X10360539Y-14268865D01*
X10360539Y-14268865D02*
X10351015Y-14287912D01*
X10351015Y-14287912D02*
X10331967Y-14306960D01*
X10331967Y-14306960D02*
X10303396Y-14316484D01*
X10303396Y-14316484D02*
X10255777Y-14316484D01*
X10455777Y-14316484D02*
X10455777Y-14183150D01*
X10455777Y-14221246D02*
X10465301Y-14202198D01*
X10465301Y-14202198D02*
X10474824Y-14192674D01*
X10474824Y-14192674D02*
X10493872Y-14183150D01*
X10493872Y-14183150D02*
X10512920Y-14183150D01*
X10579586Y-14316484D02*
X10579586Y-14183150D01*
X10579586Y-14116484D02*
X10570063Y-14126008D01*
X10570063Y-14126008D02*
X10579586Y-14135531D01*
X10579586Y-14135531D02*
X10589110Y-14126008D01*
X10589110Y-14126008D02*
X10579586Y-14116484D01*
X10579586Y-14116484D02*
X10579586Y-14135531D01*
X10703396Y-14316484D02*
X10684348Y-14306960D01*
X10684348Y-14306960D02*
X10674824Y-14287912D01*
X10674824Y-14287912D02*
X10674824Y-14116484D01*
X10808158Y-14316484D02*
X10789110Y-14306960D01*
X10789110Y-14306960D02*
X10779586Y-14287912D01*
X10779586Y-14287912D02*
X10779586Y-14116484D01*
X11036729Y-14316484D02*
X11036729Y-14116484D01*
X11036729Y-14116484D02*
X11103396Y-14259341D01*
X11103396Y-14259341D02*
X11170063Y-14116484D01*
X11170063Y-14116484D02*
X11170063Y-14316484D01*
X11351015Y-14316484D02*
X11351015Y-14211722D01*
X11351015Y-14211722D02*
X11341491Y-14192674D01*
X11341491Y-14192674D02*
X11322443Y-14183150D01*
X11322443Y-14183150D02*
X11284348Y-14183150D01*
X11284348Y-14183150D02*
X11265301Y-14192674D01*
X11351015Y-14306960D02*
X11331967Y-14316484D01*
X11331967Y-14316484D02*
X11284348Y-14316484D01*
X11284348Y-14316484D02*
X11265301Y-14306960D01*
X11265301Y-14306960D02*
X11255777Y-14287912D01*
X11255777Y-14287912D02*
X11255777Y-14268865D01*
X11255777Y-14268865D02*
X11265301Y-14249817D01*
X11265301Y-14249817D02*
X11284348Y-14240293D01*
X11284348Y-14240293D02*
X11331967Y-14240293D01*
X11331967Y-14240293D02*
X11351015Y-14230769D01*
X11446253Y-14183150D02*
X11446253Y-14383150D01*
X11446253Y-14192674D02*
X11465301Y-14183150D01*
X11465301Y-14183150D02*
X11503396Y-14183150D01*
X11503396Y-14183150D02*
X11522443Y-14192674D01*
X11522443Y-14192674D02*
X11531967Y-14202198D01*
X11531967Y-14202198D02*
X11541491Y-14221246D01*
X11541491Y-14221246D02*
X11541491Y-14278388D01*
X11541491Y-14278388D02*
X11531967Y-14297436D01*
X11531967Y-14297436D02*
X11522443Y-14306960D01*
X11522443Y-14306960D02*
X11503396Y-14316484D01*
X11503396Y-14316484D02*
X11465301Y-14316484D01*
X11465301Y-14316484D02*
X11446253Y-14306960D01*
X11627205Y-14297436D02*
X11636729Y-14306960D01*
X11636729Y-14306960D02*
X11627205Y-14316484D01*
X11627205Y-14316484D02*
X11617682Y-14306960D01*
X11617682Y-14306960D02*
X11627205Y-14297436D01*
X11627205Y-14297436D02*
X11627205Y-14316484D01*
X11627205Y-14192674D02*
X11636729Y-14202198D01*
X11636729Y-14202198D02*
X11627205Y-14211722D01*
X11627205Y-14211722D02*
X11617682Y-14202198D01*
X11617682Y-14202198D02*
X11627205Y-14192674D01*
X11627205Y-14192674D02*
X11627205Y-14211722D01*
M02*
