%TF.GenerationSoftware,KiCad,Pcbnew,10.0.3*%
%TF.CreationDate,2026-07-08T12:05:19+02:00*%
%TF.ProjectId,ad5754r-breakout,61643537-3534-4722-9d62-7265616b6f75,2.0*%
%TF.SameCoordinates,Original*%
%TF.FileFunction,Legend,Top*%
%TF.FilePolarity,Positive*%
%FSLAX46Y46*%
G04 Gerber Fmt 4.6, Leading zero omitted, Abs format (unit mm)*
G04 Created by KiCad (PCBNEW 10.0.3) date 2026-07-08 12:05:19*
%MOMM*%
%LPD*%
G01*
G04 APERTURE LIST*
%ADD10C,0.200000*%
%ADD11C,0.150000*%
%ADD12C,0.120000*%
G04 APERTURE END LIST*
D10*
X111171429Y-137701885D02*
X111742858Y-137701885D01*
X111057143Y-138044742D02*
X111457143Y-136844742D01*
X111457143Y-136844742D02*
X111857143Y-138044742D01*
X112257143Y-138044742D02*
X112257143Y-136844742D01*
X112257143Y-136844742D02*
X112542857Y-136844742D01*
X112542857Y-136844742D02*
X112714286Y-136901885D01*
X112714286Y-136901885D02*
X112828571Y-137016171D01*
X112828571Y-137016171D02*
X112885714Y-137130457D01*
X112885714Y-137130457D02*
X112942857Y-137359028D01*
X112942857Y-137359028D02*
X112942857Y-137530457D01*
X112942857Y-137530457D02*
X112885714Y-137759028D01*
X112885714Y-137759028D02*
X112828571Y-137873314D01*
X112828571Y-137873314D02*
X112714286Y-137987600D01*
X112714286Y-137987600D02*
X112542857Y-138044742D01*
X112542857Y-138044742D02*
X112257143Y-138044742D01*
X114028571Y-136844742D02*
X113457143Y-136844742D01*
X113457143Y-136844742D02*
X113400000Y-137416171D01*
X113400000Y-137416171D02*
X113457143Y-137359028D01*
X113457143Y-137359028D02*
X113571429Y-137301885D01*
X113571429Y-137301885D02*
X113857143Y-137301885D01*
X113857143Y-137301885D02*
X113971429Y-137359028D01*
X113971429Y-137359028D02*
X114028571Y-137416171D01*
X114028571Y-137416171D02*
X114085714Y-137530457D01*
X114085714Y-137530457D02*
X114085714Y-137816171D01*
X114085714Y-137816171D02*
X114028571Y-137930457D01*
X114028571Y-137930457D02*
X113971429Y-137987600D01*
X113971429Y-137987600D02*
X113857143Y-138044742D01*
X113857143Y-138044742D02*
X113571429Y-138044742D01*
X113571429Y-138044742D02*
X113457143Y-137987600D01*
X113457143Y-137987600D02*
X113400000Y-137930457D01*
X114485714Y-136844742D02*
X115285714Y-136844742D01*
X115285714Y-136844742D02*
X114771428Y-138044742D01*
X116314285Y-136844742D02*
X115742857Y-136844742D01*
X115742857Y-136844742D02*
X115685714Y-137416171D01*
X115685714Y-137416171D02*
X115742857Y-137359028D01*
X115742857Y-137359028D02*
X115857143Y-137301885D01*
X115857143Y-137301885D02*
X116142857Y-137301885D01*
X116142857Y-137301885D02*
X116257143Y-137359028D01*
X116257143Y-137359028D02*
X116314285Y-137416171D01*
X116314285Y-137416171D02*
X116371428Y-137530457D01*
X116371428Y-137530457D02*
X116371428Y-137816171D01*
X116371428Y-137816171D02*
X116314285Y-137930457D01*
X116314285Y-137930457D02*
X116257143Y-137987600D01*
X116257143Y-137987600D02*
X116142857Y-138044742D01*
X116142857Y-138044742D02*
X115857143Y-138044742D01*
X115857143Y-138044742D02*
X115742857Y-137987600D01*
X115742857Y-137987600D02*
X115685714Y-137930457D01*
X117400000Y-137244742D02*
X117400000Y-138044742D01*
X117114285Y-136787600D02*
X116828571Y-137644742D01*
X116828571Y-137644742D02*
X117571428Y-137644742D01*
X118942857Y-138044742D02*
X118942857Y-136844742D01*
X118942857Y-136844742D02*
X119228571Y-136844742D01*
X119228571Y-136844742D02*
X119400000Y-136901885D01*
X119400000Y-136901885D02*
X119514285Y-137016171D01*
X119514285Y-137016171D02*
X119571428Y-137130457D01*
X119571428Y-137130457D02*
X119628571Y-137359028D01*
X119628571Y-137359028D02*
X119628571Y-137530457D01*
X119628571Y-137530457D02*
X119571428Y-137759028D01*
X119571428Y-137759028D02*
X119514285Y-137873314D01*
X119514285Y-137873314D02*
X119400000Y-137987600D01*
X119400000Y-137987600D02*
X119228571Y-138044742D01*
X119228571Y-138044742D02*
X118942857Y-138044742D01*
X120085714Y-137701885D02*
X120657143Y-137701885D01*
X119971428Y-138044742D02*
X120371428Y-136844742D01*
X120371428Y-136844742D02*
X120771428Y-138044742D01*
X121857142Y-137930457D02*
X121799999Y-137987600D01*
X121799999Y-137987600D02*
X121628571Y-138044742D01*
X121628571Y-138044742D02*
X121514285Y-138044742D01*
X121514285Y-138044742D02*
X121342856Y-137987600D01*
X121342856Y-137987600D02*
X121228571Y-137873314D01*
X121228571Y-137873314D02*
X121171428Y-137759028D01*
X121171428Y-137759028D02*
X121114285Y-137530457D01*
X121114285Y-137530457D02*
X121114285Y-137359028D01*
X121114285Y-137359028D02*
X121171428Y-137130457D01*
X121171428Y-137130457D02*
X121228571Y-137016171D01*
X121228571Y-137016171D02*
X121342856Y-136901885D01*
X121342856Y-136901885D02*
X121514285Y-136844742D01*
X121514285Y-136844742D02*
X121628571Y-136844742D01*
X121628571Y-136844742D02*
X121799999Y-136901885D01*
X121799999Y-136901885D02*
X121857142Y-136959028D01*
X123285714Y-138044742D02*
X123285714Y-136844742D01*
X123285714Y-137301885D02*
X123400000Y-137244742D01*
X123400000Y-137244742D02*
X123628571Y-137244742D01*
X123628571Y-137244742D02*
X123742857Y-137301885D01*
X123742857Y-137301885D02*
X123800000Y-137359028D01*
X123800000Y-137359028D02*
X123857142Y-137473314D01*
X123857142Y-137473314D02*
X123857142Y-137816171D01*
X123857142Y-137816171D02*
X123800000Y-137930457D01*
X123800000Y-137930457D02*
X123742857Y-137987600D01*
X123742857Y-137987600D02*
X123628571Y-138044742D01*
X123628571Y-138044742D02*
X123400000Y-138044742D01*
X123400000Y-138044742D02*
X123285714Y-137987600D01*
X124371428Y-138044742D02*
X124371428Y-137244742D01*
X124371428Y-137473314D02*
X124428571Y-137359028D01*
X124428571Y-137359028D02*
X124485714Y-137301885D01*
X124485714Y-137301885D02*
X124599999Y-137244742D01*
X124599999Y-137244742D02*
X124714285Y-137244742D01*
X125571428Y-137987600D02*
X125457142Y-138044742D01*
X125457142Y-138044742D02*
X125228571Y-138044742D01*
X125228571Y-138044742D02*
X125114285Y-137987600D01*
X125114285Y-137987600D02*
X125057142Y-137873314D01*
X125057142Y-137873314D02*
X125057142Y-137416171D01*
X125057142Y-137416171D02*
X125114285Y-137301885D01*
X125114285Y-137301885D02*
X125228571Y-137244742D01*
X125228571Y-137244742D02*
X125457142Y-137244742D01*
X125457142Y-137244742D02*
X125571428Y-137301885D01*
X125571428Y-137301885D02*
X125628571Y-137416171D01*
X125628571Y-137416171D02*
X125628571Y-137530457D01*
X125628571Y-137530457D02*
X125057142Y-137644742D01*
X126657142Y-138044742D02*
X126657142Y-137416171D01*
X126657142Y-137416171D02*
X126599999Y-137301885D01*
X126599999Y-137301885D02*
X126485713Y-137244742D01*
X126485713Y-137244742D02*
X126257142Y-137244742D01*
X126257142Y-137244742D02*
X126142856Y-137301885D01*
X126657142Y-137987600D02*
X126542856Y-138044742D01*
X126542856Y-138044742D02*
X126257142Y-138044742D01*
X126257142Y-138044742D02*
X126142856Y-137987600D01*
X126142856Y-137987600D02*
X126085713Y-137873314D01*
X126085713Y-137873314D02*
X126085713Y-137759028D01*
X126085713Y-137759028D02*
X126142856Y-137644742D01*
X126142856Y-137644742D02*
X126257142Y-137587600D01*
X126257142Y-137587600D02*
X126542856Y-137587600D01*
X126542856Y-137587600D02*
X126657142Y-137530457D01*
X127228570Y-138044742D02*
X127228570Y-136844742D01*
X127342856Y-137587600D02*
X127685713Y-138044742D01*
X127685713Y-137244742D02*
X127228570Y-137701885D01*
X128371427Y-138044742D02*
X128257142Y-137987600D01*
X128257142Y-137987600D02*
X128199999Y-137930457D01*
X128199999Y-137930457D02*
X128142856Y-137816171D01*
X128142856Y-137816171D02*
X128142856Y-137473314D01*
X128142856Y-137473314D02*
X128199999Y-137359028D01*
X128199999Y-137359028D02*
X128257142Y-137301885D01*
X128257142Y-137301885D02*
X128371427Y-137244742D01*
X128371427Y-137244742D02*
X128542856Y-137244742D01*
X128542856Y-137244742D02*
X128657142Y-137301885D01*
X128657142Y-137301885D02*
X128714285Y-137359028D01*
X128714285Y-137359028D02*
X128771427Y-137473314D01*
X128771427Y-137473314D02*
X128771427Y-137816171D01*
X128771427Y-137816171D02*
X128714285Y-137930457D01*
X128714285Y-137930457D02*
X128657142Y-137987600D01*
X128657142Y-137987600D02*
X128542856Y-138044742D01*
X128542856Y-138044742D02*
X128371427Y-138044742D01*
X129799999Y-137244742D02*
X129799999Y-138044742D01*
X129285713Y-137244742D02*
X129285713Y-137873314D01*
X129285713Y-137873314D02*
X129342856Y-137987600D01*
X129342856Y-137987600D02*
X129457141Y-138044742D01*
X129457141Y-138044742D02*
X129628570Y-138044742D01*
X129628570Y-138044742D02*
X129742856Y-137987600D01*
X129742856Y-137987600D02*
X129799999Y-137930457D01*
X130199998Y-137244742D02*
X130657141Y-137244742D01*
X130371427Y-136844742D02*
X130371427Y-137873314D01*
X130371427Y-137873314D02*
X130428570Y-137987600D01*
X130428570Y-137987600D02*
X130542855Y-138044742D01*
X130542855Y-138044742D02*
X130657141Y-138044742D01*
X132885713Y-138044742D02*
X132885713Y-137244742D01*
X132885713Y-137473314D02*
X132942856Y-137359028D01*
X132942856Y-137359028D02*
X132999999Y-137301885D01*
X132999999Y-137301885D02*
X133114284Y-137244742D01*
X133114284Y-137244742D02*
X133228570Y-137244742D01*
X134085713Y-137987600D02*
X133971427Y-138044742D01*
X133971427Y-138044742D02*
X133742856Y-138044742D01*
X133742856Y-138044742D02*
X133628570Y-137987600D01*
X133628570Y-137987600D02*
X133571427Y-137873314D01*
X133571427Y-137873314D02*
X133571427Y-137416171D01*
X133571427Y-137416171D02*
X133628570Y-137301885D01*
X133628570Y-137301885D02*
X133742856Y-137244742D01*
X133742856Y-137244742D02*
X133971427Y-137244742D01*
X133971427Y-137244742D02*
X134085713Y-137301885D01*
X134085713Y-137301885D02*
X134142856Y-137416171D01*
X134142856Y-137416171D02*
X134142856Y-137530457D01*
X134142856Y-137530457D02*
X133571427Y-137644742D01*
X134542855Y-137244742D02*
X134828569Y-138044742D01*
X134828569Y-138044742D02*
X135114284Y-137244742D01*
X136428570Y-136959028D02*
X136485713Y-136901885D01*
X136485713Y-136901885D02*
X136599999Y-136844742D01*
X136599999Y-136844742D02*
X136885713Y-136844742D01*
X136885713Y-136844742D02*
X136999999Y-136901885D01*
X136999999Y-136901885D02*
X137057141Y-136959028D01*
X137057141Y-136959028D02*
X137114284Y-137073314D01*
X137114284Y-137073314D02*
X137114284Y-137187600D01*
X137114284Y-137187600D02*
X137057141Y-137359028D01*
X137057141Y-137359028D02*
X136371427Y-138044742D01*
X136371427Y-138044742D02*
X137114284Y-138044742D01*
X137628570Y-137930457D02*
X137685713Y-137987600D01*
X137685713Y-137987600D02*
X137628570Y-138044742D01*
X137628570Y-138044742D02*
X137571427Y-137987600D01*
X137571427Y-137987600D02*
X137628570Y-137930457D01*
X137628570Y-137930457D02*
X137628570Y-138044742D01*
X138428570Y-136844742D02*
X138542856Y-136844742D01*
X138542856Y-136844742D02*
X138657142Y-136901885D01*
X138657142Y-136901885D02*
X138714285Y-136959028D01*
X138714285Y-136959028D02*
X138771427Y-137073314D01*
X138771427Y-137073314D02*
X138828570Y-137301885D01*
X138828570Y-137301885D02*
X138828570Y-137587600D01*
X138828570Y-137587600D02*
X138771427Y-137816171D01*
X138771427Y-137816171D02*
X138714285Y-137930457D01*
X138714285Y-137930457D02*
X138657142Y-137987600D01*
X138657142Y-137987600D02*
X138542856Y-138044742D01*
X138542856Y-138044742D02*
X138428570Y-138044742D01*
X138428570Y-138044742D02*
X138314285Y-137987600D01*
X138314285Y-137987600D02*
X138257142Y-137930457D01*
X138257142Y-137930457D02*
X138199999Y-137816171D01*
X138199999Y-137816171D02*
X138142856Y-137587600D01*
X138142856Y-137587600D02*
X138142856Y-137301885D01*
X138142856Y-137301885D02*
X138199999Y-137073314D01*
X138199999Y-137073314D02*
X138257142Y-136959028D01*
X138257142Y-136959028D02*
X138314285Y-136901885D01*
X138314285Y-136901885D02*
X138428570Y-136844742D01*
D11*
X124238095Y-112604819D02*
X124238095Y-113414342D01*
X124238095Y-113414342D02*
X124285714Y-113509580D01*
X124285714Y-113509580D02*
X124333333Y-113557200D01*
X124333333Y-113557200D02*
X124428571Y-113604819D01*
X124428571Y-113604819D02*
X124619047Y-113604819D01*
X124619047Y-113604819D02*
X124714285Y-113557200D01*
X124714285Y-113557200D02*
X124761904Y-113509580D01*
X124761904Y-113509580D02*
X124809523Y-113414342D01*
X124809523Y-113414342D02*
X124809523Y-112604819D01*
X125809523Y-113604819D02*
X125238095Y-113604819D01*
X125523809Y-113604819D02*
X125523809Y-112604819D01*
X125523809Y-112604819D02*
X125428571Y-112747676D01*
X125428571Y-112747676D02*
X125333333Y-112842914D01*
X125333333Y-112842914D02*
X125238095Y-112890533D01*
X125238095Y-127054819D02*
X125238095Y-127864342D01*
X125238095Y-127864342D02*
X125285714Y-127959580D01*
X125285714Y-127959580D02*
X125333333Y-128007200D01*
X125333333Y-128007200D02*
X125428571Y-128054819D01*
X125428571Y-128054819D02*
X125619047Y-128054819D01*
X125619047Y-128054819D02*
X125714285Y-128007200D01*
X125714285Y-128007200D02*
X125761904Y-127959580D01*
X125761904Y-127959580D02*
X125809523Y-127864342D01*
X125809523Y-127864342D02*
X125809523Y-127054819D01*
X126238095Y-127150057D02*
X126285714Y-127102438D01*
X126285714Y-127102438D02*
X126380952Y-127054819D01*
X126380952Y-127054819D02*
X126619047Y-127054819D01*
X126619047Y-127054819D02*
X126714285Y-127102438D01*
X126714285Y-127102438D02*
X126761904Y-127150057D01*
X126761904Y-127150057D02*
X126809523Y-127245295D01*
X126809523Y-127245295D02*
X126809523Y-127340533D01*
X126809523Y-127340533D02*
X126761904Y-127483390D01*
X126761904Y-127483390D02*
X126190476Y-128054819D01*
X126190476Y-128054819D02*
X126809523Y-128054819D01*
X118833333Y-123304819D02*
X118500000Y-122828628D01*
X118261905Y-123304819D02*
X118261905Y-122304819D01*
X118261905Y-122304819D02*
X118642857Y-122304819D01*
X118642857Y-122304819D02*
X118738095Y-122352438D01*
X118738095Y-122352438D02*
X118785714Y-122400057D01*
X118785714Y-122400057D02*
X118833333Y-122495295D01*
X118833333Y-122495295D02*
X118833333Y-122638152D01*
X118833333Y-122638152D02*
X118785714Y-122733390D01*
X118785714Y-122733390D02*
X118738095Y-122781009D01*
X118738095Y-122781009D02*
X118642857Y-122828628D01*
X118642857Y-122828628D02*
X118261905Y-122828628D01*
X119785714Y-123304819D02*
X119214286Y-123304819D01*
X119500000Y-123304819D02*
X119500000Y-122304819D01*
X119500000Y-122304819D02*
X119404762Y-122447676D01*
X119404762Y-122447676D02*
X119309524Y-122542914D01*
X119309524Y-122542914D02*
X119214286Y-122590533D01*
X139333333Y-118104819D02*
X139000000Y-117628628D01*
X138761905Y-118104819D02*
X138761905Y-117104819D01*
X138761905Y-117104819D02*
X139142857Y-117104819D01*
X139142857Y-117104819D02*
X139238095Y-117152438D01*
X139238095Y-117152438D02*
X139285714Y-117200057D01*
X139285714Y-117200057D02*
X139333333Y-117295295D01*
X139333333Y-117295295D02*
X139333333Y-117438152D01*
X139333333Y-117438152D02*
X139285714Y-117533390D01*
X139285714Y-117533390D02*
X139238095Y-117581009D01*
X139238095Y-117581009D02*
X139142857Y-117628628D01*
X139142857Y-117628628D02*
X138761905Y-117628628D01*
X139714286Y-117200057D02*
X139761905Y-117152438D01*
X139761905Y-117152438D02*
X139857143Y-117104819D01*
X139857143Y-117104819D02*
X140095238Y-117104819D01*
X140095238Y-117104819D02*
X140190476Y-117152438D01*
X140190476Y-117152438D02*
X140238095Y-117200057D01*
X140238095Y-117200057D02*
X140285714Y-117295295D01*
X140285714Y-117295295D02*
X140285714Y-117390533D01*
X140285714Y-117390533D02*
X140238095Y-117533390D01*
X140238095Y-117533390D02*
X139666667Y-118104819D01*
X139666667Y-118104819D02*
X140285714Y-118104819D01*
X139333333Y-121104819D02*
X139000000Y-120628628D01*
X138761905Y-121104819D02*
X138761905Y-120104819D01*
X138761905Y-120104819D02*
X139142857Y-120104819D01*
X139142857Y-120104819D02*
X139238095Y-120152438D01*
X139238095Y-120152438D02*
X139285714Y-120200057D01*
X139285714Y-120200057D02*
X139333333Y-120295295D01*
X139333333Y-120295295D02*
X139333333Y-120438152D01*
X139333333Y-120438152D02*
X139285714Y-120533390D01*
X139285714Y-120533390D02*
X139238095Y-120581009D01*
X139238095Y-120581009D02*
X139142857Y-120628628D01*
X139142857Y-120628628D02*
X138761905Y-120628628D01*
X139666667Y-120104819D02*
X140285714Y-120104819D01*
X140285714Y-120104819D02*
X139952381Y-120485771D01*
X139952381Y-120485771D02*
X140095238Y-120485771D01*
X140095238Y-120485771D02*
X140190476Y-120533390D01*
X140190476Y-120533390D02*
X140238095Y-120581009D01*
X140238095Y-120581009D02*
X140285714Y-120676247D01*
X140285714Y-120676247D02*
X140285714Y-120914342D01*
X140285714Y-120914342D02*
X140238095Y-121009580D01*
X140238095Y-121009580D02*
X140190476Y-121057200D01*
X140190476Y-121057200D02*
X140095238Y-121104819D01*
X140095238Y-121104819D02*
X139809524Y-121104819D01*
X139809524Y-121104819D02*
X139714286Y-121057200D01*
X139714286Y-121057200D02*
X139666667Y-121009580D01*
X139333333Y-124104819D02*
X139000000Y-123628628D01*
X138761905Y-124104819D02*
X138761905Y-123104819D01*
X138761905Y-123104819D02*
X139142857Y-123104819D01*
X139142857Y-123104819D02*
X139238095Y-123152438D01*
X139238095Y-123152438D02*
X139285714Y-123200057D01*
X139285714Y-123200057D02*
X139333333Y-123295295D01*
X139333333Y-123295295D02*
X139333333Y-123438152D01*
X139333333Y-123438152D02*
X139285714Y-123533390D01*
X139285714Y-123533390D02*
X139238095Y-123581009D01*
X139238095Y-123581009D02*
X139142857Y-123628628D01*
X139142857Y-123628628D02*
X138761905Y-123628628D01*
X140190476Y-123438152D02*
X140190476Y-124104819D01*
X139952381Y-123057200D02*
X139714286Y-123771485D01*
X139714286Y-123771485D02*
X140333333Y-123771485D01*
X139333333Y-127104819D02*
X139000000Y-126628628D01*
X138761905Y-127104819D02*
X138761905Y-126104819D01*
X138761905Y-126104819D02*
X139142857Y-126104819D01*
X139142857Y-126104819D02*
X139238095Y-126152438D01*
X139238095Y-126152438D02*
X139285714Y-126200057D01*
X139285714Y-126200057D02*
X139333333Y-126295295D01*
X139333333Y-126295295D02*
X139333333Y-126438152D01*
X139333333Y-126438152D02*
X139285714Y-126533390D01*
X139285714Y-126533390D02*
X139238095Y-126581009D01*
X139238095Y-126581009D02*
X139142857Y-126628628D01*
X139142857Y-126628628D02*
X138761905Y-126628628D01*
X140238095Y-126104819D02*
X139761905Y-126104819D01*
X139761905Y-126104819D02*
X139714286Y-126581009D01*
X139714286Y-126581009D02*
X139761905Y-126533390D01*
X139761905Y-126533390D02*
X139857143Y-126485771D01*
X139857143Y-126485771D02*
X140095238Y-126485771D01*
X140095238Y-126485771D02*
X140190476Y-126533390D01*
X140190476Y-126533390D02*
X140238095Y-126581009D01*
X140238095Y-126581009D02*
X140285714Y-126676247D01*
X140285714Y-126676247D02*
X140285714Y-126914342D01*
X140285714Y-126914342D02*
X140238095Y-127009580D01*
X140238095Y-127009580D02*
X140190476Y-127057200D01*
X140190476Y-127057200D02*
X140095238Y-127104819D01*
X140095238Y-127104819D02*
X139857143Y-127104819D01*
X139857143Y-127104819D02*
X139761905Y-127057200D01*
X139761905Y-127057200D02*
X139714286Y-127009580D01*
X137033333Y-108659580D02*
X136985714Y-108707200D01*
X136985714Y-108707200D02*
X136842857Y-108754819D01*
X136842857Y-108754819D02*
X136747619Y-108754819D01*
X136747619Y-108754819D02*
X136604762Y-108707200D01*
X136604762Y-108707200D02*
X136509524Y-108611961D01*
X136509524Y-108611961D02*
X136461905Y-108516723D01*
X136461905Y-108516723D02*
X136414286Y-108326247D01*
X136414286Y-108326247D02*
X136414286Y-108183390D01*
X136414286Y-108183390D02*
X136461905Y-107992914D01*
X136461905Y-107992914D02*
X136509524Y-107897676D01*
X136509524Y-107897676D02*
X136604762Y-107802438D01*
X136604762Y-107802438D02*
X136747619Y-107754819D01*
X136747619Y-107754819D02*
X136842857Y-107754819D01*
X136842857Y-107754819D02*
X136985714Y-107802438D01*
X136985714Y-107802438D02*
X137033333Y-107850057D01*
X137985714Y-108754819D02*
X137414286Y-108754819D01*
X137700000Y-108754819D02*
X137700000Y-107754819D01*
X137700000Y-107754819D02*
X137604762Y-107897676D01*
X137604762Y-107897676D02*
X137509524Y-107992914D01*
X137509524Y-107992914D02*
X137414286Y-108040533D01*
X130833333Y-110179580D02*
X130785714Y-110227200D01*
X130785714Y-110227200D02*
X130642857Y-110274819D01*
X130642857Y-110274819D02*
X130547619Y-110274819D01*
X130547619Y-110274819D02*
X130404762Y-110227200D01*
X130404762Y-110227200D02*
X130309524Y-110131961D01*
X130309524Y-110131961D02*
X130261905Y-110036723D01*
X130261905Y-110036723D02*
X130214286Y-109846247D01*
X130214286Y-109846247D02*
X130214286Y-109703390D01*
X130214286Y-109703390D02*
X130261905Y-109512914D01*
X130261905Y-109512914D02*
X130309524Y-109417676D01*
X130309524Y-109417676D02*
X130404762Y-109322438D01*
X130404762Y-109322438D02*
X130547619Y-109274819D01*
X130547619Y-109274819D02*
X130642857Y-109274819D01*
X130642857Y-109274819D02*
X130785714Y-109322438D01*
X130785714Y-109322438D02*
X130833333Y-109370057D01*
X131214286Y-109370057D02*
X131261905Y-109322438D01*
X131261905Y-109322438D02*
X131357143Y-109274819D01*
X131357143Y-109274819D02*
X131595238Y-109274819D01*
X131595238Y-109274819D02*
X131690476Y-109322438D01*
X131690476Y-109322438D02*
X131738095Y-109370057D01*
X131738095Y-109370057D02*
X131785714Y-109465295D01*
X131785714Y-109465295D02*
X131785714Y-109560533D01*
X131785714Y-109560533D02*
X131738095Y-109703390D01*
X131738095Y-109703390D02*
X131166667Y-110274819D01*
X131166667Y-110274819D02*
X131785714Y-110274819D01*
X113333333Y-108659580D02*
X113285714Y-108707200D01*
X113285714Y-108707200D02*
X113142857Y-108754819D01*
X113142857Y-108754819D02*
X113047619Y-108754819D01*
X113047619Y-108754819D02*
X112904762Y-108707200D01*
X112904762Y-108707200D02*
X112809524Y-108611961D01*
X112809524Y-108611961D02*
X112761905Y-108516723D01*
X112761905Y-108516723D02*
X112714286Y-108326247D01*
X112714286Y-108326247D02*
X112714286Y-108183390D01*
X112714286Y-108183390D02*
X112761905Y-107992914D01*
X112761905Y-107992914D02*
X112809524Y-107897676D01*
X112809524Y-107897676D02*
X112904762Y-107802438D01*
X112904762Y-107802438D02*
X113047619Y-107754819D01*
X113047619Y-107754819D02*
X113142857Y-107754819D01*
X113142857Y-107754819D02*
X113285714Y-107802438D01*
X113285714Y-107802438D02*
X113333333Y-107850057D01*
X113666667Y-107754819D02*
X114285714Y-107754819D01*
X114285714Y-107754819D02*
X113952381Y-108135771D01*
X113952381Y-108135771D02*
X114095238Y-108135771D01*
X114095238Y-108135771D02*
X114190476Y-108183390D01*
X114190476Y-108183390D02*
X114238095Y-108231009D01*
X114238095Y-108231009D02*
X114285714Y-108326247D01*
X114285714Y-108326247D02*
X114285714Y-108564342D01*
X114285714Y-108564342D02*
X114238095Y-108659580D01*
X114238095Y-108659580D02*
X114190476Y-108707200D01*
X114190476Y-108707200D02*
X114095238Y-108754819D01*
X114095238Y-108754819D02*
X113809524Y-108754819D01*
X113809524Y-108754819D02*
X113714286Y-108707200D01*
X113714286Y-108707200D02*
X113666667Y-108659580D01*
X118833333Y-110179580D02*
X118785714Y-110227200D01*
X118785714Y-110227200D02*
X118642857Y-110274819D01*
X118642857Y-110274819D02*
X118547619Y-110274819D01*
X118547619Y-110274819D02*
X118404762Y-110227200D01*
X118404762Y-110227200D02*
X118309524Y-110131961D01*
X118309524Y-110131961D02*
X118261905Y-110036723D01*
X118261905Y-110036723D02*
X118214286Y-109846247D01*
X118214286Y-109846247D02*
X118214286Y-109703390D01*
X118214286Y-109703390D02*
X118261905Y-109512914D01*
X118261905Y-109512914D02*
X118309524Y-109417676D01*
X118309524Y-109417676D02*
X118404762Y-109322438D01*
X118404762Y-109322438D02*
X118547619Y-109274819D01*
X118547619Y-109274819D02*
X118642857Y-109274819D01*
X118642857Y-109274819D02*
X118785714Y-109322438D01*
X118785714Y-109322438D02*
X118833333Y-109370057D01*
X119690476Y-109608152D02*
X119690476Y-110274819D01*
X119452381Y-109227200D02*
X119214286Y-109941485D01*
X119214286Y-109941485D02*
X119833333Y-109941485D01*
X131333333Y-119679580D02*
X131285714Y-119727200D01*
X131285714Y-119727200D02*
X131142857Y-119774819D01*
X131142857Y-119774819D02*
X131047619Y-119774819D01*
X131047619Y-119774819D02*
X130904762Y-119727200D01*
X130904762Y-119727200D02*
X130809524Y-119631961D01*
X130809524Y-119631961D02*
X130761905Y-119536723D01*
X130761905Y-119536723D02*
X130714286Y-119346247D01*
X130714286Y-119346247D02*
X130714286Y-119203390D01*
X130714286Y-119203390D02*
X130761905Y-119012914D01*
X130761905Y-119012914D02*
X130809524Y-118917676D01*
X130809524Y-118917676D02*
X130904762Y-118822438D01*
X130904762Y-118822438D02*
X131047619Y-118774819D01*
X131047619Y-118774819D02*
X131142857Y-118774819D01*
X131142857Y-118774819D02*
X131285714Y-118822438D01*
X131285714Y-118822438D02*
X131333333Y-118870057D01*
X132238095Y-118774819D02*
X131761905Y-118774819D01*
X131761905Y-118774819D02*
X131714286Y-119251009D01*
X131714286Y-119251009D02*
X131761905Y-119203390D01*
X131761905Y-119203390D02*
X131857143Y-119155771D01*
X131857143Y-119155771D02*
X132095238Y-119155771D01*
X132095238Y-119155771D02*
X132190476Y-119203390D01*
X132190476Y-119203390D02*
X132238095Y-119251009D01*
X132238095Y-119251009D02*
X132285714Y-119346247D01*
X132285714Y-119346247D02*
X132285714Y-119584342D01*
X132285714Y-119584342D02*
X132238095Y-119679580D01*
X132238095Y-119679580D02*
X132190476Y-119727200D01*
X132190476Y-119727200D02*
X132095238Y-119774819D01*
X132095238Y-119774819D02*
X131857143Y-119774819D01*
X131857143Y-119774819D02*
X131761905Y-119727200D01*
X131761905Y-119727200D02*
X131714286Y-119679580D01*
X132333333Y-129679580D02*
X132285714Y-129727200D01*
X132285714Y-129727200D02*
X132142857Y-129774819D01*
X132142857Y-129774819D02*
X132047619Y-129774819D01*
X132047619Y-129774819D02*
X131904762Y-129727200D01*
X131904762Y-129727200D02*
X131809524Y-129631961D01*
X131809524Y-129631961D02*
X131761905Y-129536723D01*
X131761905Y-129536723D02*
X131714286Y-129346247D01*
X131714286Y-129346247D02*
X131714286Y-129203390D01*
X131714286Y-129203390D02*
X131761905Y-129012914D01*
X131761905Y-129012914D02*
X131809524Y-128917676D01*
X131809524Y-128917676D02*
X131904762Y-128822438D01*
X131904762Y-128822438D02*
X132047619Y-128774819D01*
X132047619Y-128774819D02*
X132142857Y-128774819D01*
X132142857Y-128774819D02*
X132285714Y-128822438D01*
X132285714Y-128822438D02*
X132333333Y-128870057D01*
X133190476Y-128774819D02*
X133000000Y-128774819D01*
X133000000Y-128774819D02*
X132904762Y-128822438D01*
X132904762Y-128822438D02*
X132857143Y-128870057D01*
X132857143Y-128870057D02*
X132761905Y-129012914D01*
X132761905Y-129012914D02*
X132714286Y-129203390D01*
X132714286Y-129203390D02*
X132714286Y-129584342D01*
X132714286Y-129584342D02*
X132761905Y-129679580D01*
X132761905Y-129679580D02*
X132809524Y-129727200D01*
X132809524Y-129727200D02*
X132904762Y-129774819D01*
X132904762Y-129774819D02*
X133095238Y-129774819D01*
X133095238Y-129774819D02*
X133190476Y-129727200D01*
X133190476Y-129727200D02*
X133238095Y-129679580D01*
X133238095Y-129679580D02*
X133285714Y-129584342D01*
X133285714Y-129584342D02*
X133285714Y-129346247D01*
X133285714Y-129346247D02*
X133238095Y-129251009D01*
X133238095Y-129251009D02*
X133190476Y-129203390D01*
X133190476Y-129203390D02*
X133095238Y-129155771D01*
X133095238Y-129155771D02*
X132904762Y-129155771D01*
X132904762Y-129155771D02*
X132809524Y-129203390D01*
X132809524Y-129203390D02*
X132761905Y-129251009D01*
X132761905Y-129251009D02*
X132714286Y-129346247D01*
X119833333Y-129679580D02*
X119785714Y-129727200D01*
X119785714Y-129727200D02*
X119642857Y-129774819D01*
X119642857Y-129774819D02*
X119547619Y-129774819D01*
X119547619Y-129774819D02*
X119404762Y-129727200D01*
X119404762Y-129727200D02*
X119309524Y-129631961D01*
X119309524Y-129631961D02*
X119261905Y-129536723D01*
X119261905Y-129536723D02*
X119214286Y-129346247D01*
X119214286Y-129346247D02*
X119214286Y-129203390D01*
X119214286Y-129203390D02*
X119261905Y-129012914D01*
X119261905Y-129012914D02*
X119309524Y-128917676D01*
X119309524Y-128917676D02*
X119404762Y-128822438D01*
X119404762Y-128822438D02*
X119547619Y-128774819D01*
X119547619Y-128774819D02*
X119642857Y-128774819D01*
X119642857Y-128774819D02*
X119785714Y-128822438D01*
X119785714Y-128822438D02*
X119833333Y-128870057D01*
X120166667Y-128774819D02*
X120833333Y-128774819D01*
X120833333Y-128774819D02*
X120404762Y-129774819D01*
X114333333Y-128159580D02*
X114285714Y-128207200D01*
X114285714Y-128207200D02*
X114142857Y-128254819D01*
X114142857Y-128254819D02*
X114047619Y-128254819D01*
X114047619Y-128254819D02*
X113904762Y-128207200D01*
X113904762Y-128207200D02*
X113809524Y-128111961D01*
X113809524Y-128111961D02*
X113761905Y-128016723D01*
X113761905Y-128016723D02*
X113714286Y-127826247D01*
X113714286Y-127826247D02*
X113714286Y-127683390D01*
X113714286Y-127683390D02*
X113761905Y-127492914D01*
X113761905Y-127492914D02*
X113809524Y-127397676D01*
X113809524Y-127397676D02*
X113904762Y-127302438D01*
X113904762Y-127302438D02*
X114047619Y-127254819D01*
X114047619Y-127254819D02*
X114142857Y-127254819D01*
X114142857Y-127254819D02*
X114285714Y-127302438D01*
X114285714Y-127302438D02*
X114333333Y-127350057D01*
X114904762Y-127683390D02*
X114809524Y-127635771D01*
X114809524Y-127635771D02*
X114761905Y-127588152D01*
X114761905Y-127588152D02*
X114714286Y-127492914D01*
X114714286Y-127492914D02*
X114714286Y-127445295D01*
X114714286Y-127445295D02*
X114761905Y-127350057D01*
X114761905Y-127350057D02*
X114809524Y-127302438D01*
X114809524Y-127302438D02*
X114904762Y-127254819D01*
X114904762Y-127254819D02*
X115095238Y-127254819D01*
X115095238Y-127254819D02*
X115190476Y-127302438D01*
X115190476Y-127302438D02*
X115238095Y-127350057D01*
X115238095Y-127350057D02*
X115285714Y-127445295D01*
X115285714Y-127445295D02*
X115285714Y-127492914D01*
X115285714Y-127492914D02*
X115238095Y-127588152D01*
X115238095Y-127588152D02*
X115190476Y-127635771D01*
X115190476Y-127635771D02*
X115095238Y-127683390D01*
X115095238Y-127683390D02*
X114904762Y-127683390D01*
X114904762Y-127683390D02*
X114809524Y-127731009D01*
X114809524Y-127731009D02*
X114761905Y-127778628D01*
X114761905Y-127778628D02*
X114714286Y-127873866D01*
X114714286Y-127873866D02*
X114714286Y-128064342D01*
X114714286Y-128064342D02*
X114761905Y-128159580D01*
X114761905Y-128159580D02*
X114809524Y-128207200D01*
X114809524Y-128207200D02*
X114904762Y-128254819D01*
X114904762Y-128254819D02*
X115095238Y-128254819D01*
X115095238Y-128254819D02*
X115190476Y-128207200D01*
X115190476Y-128207200D02*
X115238095Y-128159580D01*
X115238095Y-128159580D02*
X115285714Y-128064342D01*
X115285714Y-128064342D02*
X115285714Y-127873866D01*
X115285714Y-127873866D02*
X115238095Y-127778628D01*
X115238095Y-127778628D02*
X115190476Y-127731009D01*
X115190476Y-127731009D02*
X115095238Y-127683390D01*
X106436666Y-109074819D02*
X106436666Y-109789104D01*
X106436666Y-109789104D02*
X106389047Y-109931961D01*
X106389047Y-109931961D02*
X106293809Y-110027200D01*
X106293809Y-110027200D02*
X106150952Y-110074819D01*
X106150952Y-110074819D02*
X106055714Y-110074819D01*
X107436666Y-110074819D02*
X106865238Y-110074819D01*
X107150952Y-110074819D02*
X107150952Y-109074819D01*
X107150952Y-109074819D02*
X107055714Y-109217676D01*
X107055714Y-109217676D02*
X106960476Y-109312914D01*
X106960476Y-109312914D02*
X106865238Y-109360533D01*
X145166666Y-111074819D02*
X145166666Y-111789104D01*
X145166666Y-111789104D02*
X145119047Y-111931961D01*
X145119047Y-111931961D02*
X145023809Y-112027200D01*
X145023809Y-112027200D02*
X144880952Y-112074819D01*
X144880952Y-112074819D02*
X144785714Y-112074819D01*
X145595238Y-111170057D02*
X145642857Y-111122438D01*
X145642857Y-111122438D02*
X145738095Y-111074819D01*
X145738095Y-111074819D02*
X145976190Y-111074819D01*
X145976190Y-111074819D02*
X146071428Y-111122438D01*
X146071428Y-111122438D02*
X146119047Y-111170057D01*
X146119047Y-111170057D02*
X146166666Y-111265295D01*
X146166666Y-111265295D02*
X146166666Y-111360533D01*
X146166666Y-111360533D02*
X146119047Y-111503390D01*
X146119047Y-111503390D02*
X145547619Y-112074819D01*
X145547619Y-112074819D02*
X146166666Y-112074819D01*
%TO.C,U1*%
D12*
X122690000Y-113965000D02*
X127310000Y-113965000D01*
X127310000Y-122035000D02*
X122690000Y-122035000D01*
X121090000Y-114420000D02*
X120760000Y-114660000D01*
X120760000Y-114180000D01*
X121090000Y-114420000D01*
G36*
X121090000Y-114420000D02*
G01*
X120760000Y-114660000D01*
X120760000Y-114180000D01*
X121090000Y-114420000D01*
G37*
%TO.C,U2*%
X123940000Y-128440000D02*
X128060000Y-128440000D01*
X123940000Y-128535000D02*
X123940000Y-128440000D01*
X123940000Y-133560000D02*
X123940000Y-133465000D01*
X128060000Y-128440000D02*
X128060000Y-128535000D01*
X128060000Y-133465000D02*
X128060000Y-133560000D01*
X128060000Y-133560000D02*
X123940000Y-133560000D01*
X123400000Y-128530000D02*
X123160000Y-128200000D01*
X123640000Y-128200000D01*
X123400000Y-128530000D01*
G36*
X123400000Y-128530000D02*
G01*
X123160000Y-128200000D01*
X123640000Y-128200000D01*
X123400000Y-128530000D01*
G37*
%TO.C,R1*%
X118772936Y-123765000D02*
X119227064Y-123765000D01*
X118772936Y-125235000D02*
X119227064Y-125235000D01*
%TO.C,R2*%
X139727064Y-116735000D02*
X139272936Y-116735000D01*
X139727064Y-115265000D02*
X139272936Y-115265000D01*
%TO.C,R3*%
X139727064Y-119735000D02*
X139272936Y-119735000D01*
X139727064Y-118265000D02*
X139272936Y-118265000D01*
%TO.C,R4*%
X139727064Y-122735000D02*
X139272936Y-122735000D01*
X139727064Y-121265000D02*
X139272936Y-121265000D01*
%TO.C,R5*%
X139727064Y-125735000D02*
X139272936Y-125735000D01*
X139727064Y-124265000D02*
X139272936Y-124265000D01*
%TO.C,C1*%
X134200000Y-109940000D02*
X134700000Y-109940000D01*
X134450000Y-109690000D02*
X134450000Y-110190000D01*
X134940000Y-110304437D02*
X134940000Y-110440000D01*
X134940000Y-110304437D02*
X136004437Y-109240000D01*
X134940000Y-112695563D02*
X134940000Y-112560000D01*
X134940000Y-112695563D02*
X136004437Y-113760000D01*
X136004437Y-109240000D02*
X139460000Y-109240000D01*
X136004437Y-113760000D02*
X139460000Y-113760000D01*
X139460000Y-109240000D02*
X139460000Y-110440000D01*
X139460000Y-113760000D02*
X139460000Y-112560000D01*
%TO.C,C2*%
X130738748Y-110765000D02*
X131261252Y-110765000D01*
X130738748Y-112235000D02*
X131261252Y-112235000D01*
%TO.C,C3*%
X110500000Y-109940000D02*
X111000000Y-109940000D01*
X110750000Y-109690000D02*
X110750000Y-110190000D01*
X111240000Y-110304437D02*
X111240000Y-110440000D01*
X111240000Y-110304437D02*
X112304437Y-109240000D01*
X111240000Y-112695563D02*
X111240000Y-112560000D01*
X111240000Y-112695563D02*
X112304437Y-113760000D01*
X112304437Y-109240000D02*
X115760000Y-109240000D01*
X112304437Y-113760000D02*
X115760000Y-113760000D01*
X115760000Y-109240000D02*
X115760000Y-110440000D01*
X115760000Y-113760000D02*
X115760000Y-112560000D01*
%TO.C,C4*%
X118738748Y-110765000D02*
X119261252Y-110765000D01*
X118738748Y-112235000D02*
X119261252Y-112235000D01*
%TO.C,C5*%
X131238748Y-120265000D02*
X131761252Y-120265000D01*
X131238748Y-121735000D02*
X131761252Y-121735000D01*
%TO.C,C6*%
X132238748Y-130265000D02*
X132761252Y-130265000D01*
X132238748Y-131735000D02*
X132761252Y-131735000D01*
%TO.C,C7*%
X119738748Y-130265000D02*
X120261252Y-130265000D01*
X119738748Y-131735000D02*
X120261252Y-131735000D01*
%TO.C,C8*%
X111500000Y-129440000D02*
X112000000Y-129440000D01*
X111750000Y-129190000D02*
X111750000Y-129690000D01*
X112240000Y-129804437D02*
X112240000Y-129940000D01*
X112240000Y-129804437D02*
X113304437Y-128740000D01*
X112240000Y-132195563D02*
X112240000Y-132060000D01*
X112240000Y-132195563D02*
X113304437Y-133260000D01*
X113304437Y-128740000D02*
X116760000Y-128740000D01*
X113304437Y-133260000D02*
X116760000Y-133260000D01*
X116760000Y-128740000D02*
X116760000Y-129940000D01*
X116760000Y-133260000D02*
X116760000Y-132060000D01*
%TO.C,J1*%
X104120000Y-110620000D02*
X105500000Y-110620000D01*
X104120000Y-112000000D02*
X104120000Y-110620000D01*
X104120000Y-113270000D02*
X104120000Y-123540000D01*
X104120000Y-113270000D02*
X106770000Y-113270000D01*
X104120000Y-123540000D02*
X109420000Y-123540000D01*
X106770000Y-110620000D02*
X109420000Y-110620000D01*
X106770000Y-113270000D02*
X106770000Y-110620000D01*
X109420000Y-110620000D02*
X109420000Y-123540000D01*
%TO.C,J2*%
X144120000Y-112620000D02*
X145500000Y-112620000D01*
X144120000Y-114000000D02*
X144120000Y-112620000D01*
X144120000Y-115270000D02*
X144120000Y-125540000D01*
X144120000Y-115270000D02*
X146880000Y-115270000D01*
X144120000Y-125540000D02*
X146880000Y-125540000D01*
X146880000Y-115270000D02*
X146880000Y-125540000D01*
%TD*%
M02*
