%TF.GenerationSoftware,KiCad,Pcbnew,10.0.3*%
%TF.CreationDate,2026-07-08T12:05:19+02:00*%
%TF.ProjectId,ad5754r-breakout,61643537-3534-4722-9d62-7265616b6f75,2.0*%
%TF.SameCoordinates,Original*%
%TF.FileFunction,Copper,L2,Bot*%
%TF.FilePolarity,Positive*%
%FSLAX46Y46*%
G04 Gerber Fmt 4.6, Leading zero omitted, Abs format (unit mm)*
G04 Created by KiCad (PCBNEW 10.0.3) date 2026-07-08 12:05:19*
%MOMM*%
%LPD*%
G01*
G04 APERTURE LIST*
%TA.AperFunction,ComponentPad*%
%ADD10R,1.700000X1.700000*%
%TD*%
%TA.AperFunction,ComponentPad*%
%ADD11C,1.700000*%
%TD*%
%TA.AperFunction,ViaPad*%
%ADD12C,0.500000*%
%TD*%
%TA.AperFunction,Conductor*%
%ADD13C,0.250000*%
%TD*%
%TA.AperFunction,Conductor*%
%ADD14C,0.300000*%
%TD*%
%TA.AperFunction,Conductor*%
%ADD15C,0.400000*%
%TD*%
G04 APERTURE END LIST*
D10*
%TO.P,J1,1*%
%TO.N,GND*%
X105500000Y-112000000D03*
D11*
%TO.P,J1,2*%
%TO.N,/SYNC*%
X108040000Y-112000000D03*
%TO.P,J1,3*%
%TO.N,/SDO*%
X105500000Y-114540000D03*
%TO.P,J1,4*%
%TO.N,/SDIN*%
X108040000Y-114540000D03*
%TO.P,J1,5*%
%TO.N,/SCLK*%
X105500000Y-117080000D03*
%TO.P,J1,6*%
%TO.N,GND*%
X108040000Y-117080000D03*
%TO.P,J1,7*%
%TO.N,+3V3*%
X105500000Y-119620000D03*
%TO.P,J1,8*%
%TO.N,GND*%
X108040000Y-119620000D03*
%TO.P,J1,9*%
%TO.N,-12V*%
X105500000Y-122160000D03*
%TO.P,J1,10*%
%TO.N,+12V*%
X108040000Y-122160000D03*
%TD*%
D10*
%TO.P,J2,1*%
%TO.N,GND*%
X145500000Y-114000000D03*
D11*
%TO.P,J2,2*%
%TO.N,Net-(J2-Pin_2)*%
X145500000Y-116540000D03*
%TO.P,J2,3*%
%TO.N,Net-(J2-Pin_3)*%
X145500000Y-119080000D03*
%TO.P,J2,4*%
%TO.N,Net-(J2-Pin_4)*%
X145500000Y-121620000D03*
%TO.P,J2,5*%
%TO.N,Net-(J2-Pin_5)*%
X145500000Y-124160000D03*
%TD*%
D12*
%TO.N,/SCLK*%
X120300000Y-118975000D03*
%TO.N,/SDO*%
X129000000Y-119625000D03*
%TO.N,+3V3*%
X114600000Y-115810000D03*
%TO.N,Net-(U1-~{CLR})*%
X121000000Y-124500000D03*
X121000000Y-120925000D03*
%TO.N,-12V*%
X102600000Y-110150000D03*
X115300000Y-110150000D03*
X119950000Y-110150000D03*
X124200000Y-119500000D03*
X125800000Y-119500000D03*
%TO.N,+12V*%
X143000000Y-133750000D03*
X135400000Y-110300000D03*
X130050000Y-110300000D03*
X129200000Y-114425000D03*
%TO.N,/VOUTA*%
X120850000Y-115725000D03*
X120850000Y-112750000D03*
%TO.N,/VOUTD*%
X130100000Y-115725000D03*
X136600000Y-124600000D03*
%TO.N,GND*%
X101500000Y-113000000D03*
X148500000Y-112000000D03*
X101500000Y-133000000D03*
X148500000Y-133000000D03*
X127000000Y-136500000D03*
X110000000Y-136500000D03*
X133000000Y-107000000D03*
X116500000Y-121800000D03*
X127200000Y-111900000D03*
X131500000Y-117500000D03*
X114000000Y-125600000D03*
%TD*%
%TO.N,/SCLK*%
D13*
X105500000Y-117080000D02*
X106770000Y-118350000D01*
X106770000Y-118350000D02*
X119900000Y-118350000D01*
X119900000Y-118350000D02*
X119900000Y-118975000D01*
X119900000Y-118975000D02*
X120300000Y-118975000D01*
%TO.N,/SDO*%
X105500000Y-114540000D02*
X103400000Y-115400000D01*
X103400000Y-115400000D02*
X103400000Y-127600000D01*
X103400000Y-127600000D02*
X129000000Y-127600000D01*
X129000000Y-127600000D02*
X129000000Y-119625000D01*
%TO.N,+3V3*%
D14*
X105500000Y-119620000D02*
X104200000Y-120700000D01*
X104200000Y-120700000D02*
X104200000Y-115810000D01*
X104200000Y-115810000D02*
X114600000Y-115810000D01*
%TO.N,Net-(U1-~{CLR})*%
D13*
X121000000Y-124500000D02*
X121000000Y-120925000D01*
%TO.N,-12V*%
D15*
X102600000Y-110150000D02*
X119950000Y-110150000D01*
X105500000Y-122160000D02*
X104600000Y-126900000D01*
X104600000Y-126900000D02*
X124200000Y-126900000D01*
X124200000Y-126900000D02*
X124200000Y-119500000D01*
X124200000Y-119500000D02*
X125800000Y-119500000D01*
%TO.N,+12V*%
X143000000Y-133750000D02*
X143000000Y-110300000D01*
X143000000Y-110300000D02*
X127875000Y-110300000D01*
X129200000Y-110300000D02*
X129200000Y-114425000D01*
%TO.N,/VOUTA*%
D13*
X120850000Y-115725000D02*
X120850000Y-112750000D01*
%TO.N,/VOUTD*%
X130100000Y-115725000D02*
X130100000Y-124600000D01*
X130100000Y-124600000D02*
X136600000Y-124600000D01*
%TD*%
%TA.AperFunction,Conductor*%
%TO.N,GND*%
G36*
X149458691Y-105519407D02*
G01*
X149494655Y-105568907D01*
X149499500Y-105599500D01*
X149499500Y-139400500D01*
X149480593Y-139458691D01*
X149431093Y-139494655D01*
X149400500Y-139499500D01*
X100599500Y-139499500D01*
X100541309Y-139480593D01*
X100505345Y-139431093D01*
X100500500Y-139400500D01*
X100500500Y-115398277D01*
X102970832Y-115398277D01*
X102970832Y-115398278D01*
X102973704Y-115420791D01*
X102974500Y-115433319D01*
X102974500Y-127543982D01*
X102974500Y-127656018D01*
X103000072Y-127751455D01*
X103003498Y-127764241D01*
X103059513Y-127861260D01*
X103059515Y-127861263D01*
X103138737Y-127940485D01*
X103138739Y-127940486D01*
X103235759Y-127996501D01*
X103235757Y-127996501D01*
X103235761Y-127996502D01*
X103235763Y-127996503D01*
X103343982Y-128025500D01*
X103343984Y-128025500D01*
X129056016Y-128025500D01*
X129056018Y-128025500D01*
X129164237Y-127996503D01*
X129164239Y-127996501D01*
X129164241Y-127996501D01*
X129193064Y-127979859D01*
X129261263Y-127940485D01*
X129340485Y-127861263D01*
X129396503Y-127764237D01*
X129425500Y-127656018D01*
X129425500Y-120015538D01*
X129438764Y-119966038D01*
X129489764Y-119877704D01*
X129535233Y-119836763D01*
X129596084Y-119830367D01*
X129649072Y-119860960D01*
X129673958Y-119916856D01*
X129674500Y-119927204D01*
X129674500Y-124543982D01*
X129674500Y-124656018D01*
X129678910Y-124672475D01*
X129703498Y-124764241D01*
X129759513Y-124861260D01*
X129759515Y-124861263D01*
X129838737Y-124940485D01*
X129838739Y-124940486D01*
X129935759Y-124996501D01*
X129935757Y-124996501D01*
X129935761Y-124996502D01*
X129935763Y-124996503D01*
X130043982Y-125025500D01*
X136209461Y-125025500D01*
X136258961Y-125038764D01*
X136387511Y-125112982D01*
X136387512Y-125112982D01*
X136387515Y-125112984D01*
X136527525Y-125150500D01*
X136527526Y-125150500D01*
X136672474Y-125150500D01*
X136672475Y-125150500D01*
X136812485Y-125112984D01*
X136812487Y-125112982D01*
X136812489Y-125112982D01*
X136938010Y-125040512D01*
X136938010Y-125040511D01*
X136938015Y-125040509D01*
X137040509Y-124938015D01*
X137112984Y-124812485D01*
X137150500Y-124672475D01*
X137150500Y-124527525D01*
X137112984Y-124387515D01*
X137112982Y-124387512D01*
X137112982Y-124387510D01*
X137040512Y-124261989D01*
X137040510Y-124261987D01*
X137040509Y-124261985D01*
X136938015Y-124159491D01*
X136938012Y-124159489D01*
X136938010Y-124159487D01*
X136812488Y-124087017D01*
X136812489Y-124087017D01*
X136746943Y-124069454D01*
X136672475Y-124049500D01*
X136527525Y-124049500D01*
X136465790Y-124066041D01*
X136387510Y-124087017D01*
X136258961Y-124161236D01*
X136209461Y-124174500D01*
X130624500Y-124174500D01*
X130566309Y-124155593D01*
X130530345Y-124106093D01*
X130525500Y-124075500D01*
X130525500Y-116115538D01*
X130538764Y-116066038D01*
X130612982Y-115937489D01*
X130612982Y-115937487D01*
X130612984Y-115937485D01*
X130650500Y-115797475D01*
X130650500Y-115652525D01*
X130612984Y-115512515D01*
X130612982Y-115512512D01*
X130612982Y-115512510D01*
X130540512Y-115386989D01*
X130540510Y-115386987D01*
X130540509Y-115386985D01*
X130438015Y-115284491D01*
X130438012Y-115284489D01*
X130438010Y-115284487D01*
X130312488Y-115212017D01*
X130312489Y-115212017D01*
X130276262Y-115202310D01*
X130172475Y-115174500D01*
X130027525Y-115174500D01*
X129965790Y-115191041D01*
X129887510Y-115212017D01*
X129761989Y-115284487D01*
X129659487Y-115386989D01*
X129587017Y-115512510D01*
X129549500Y-115652525D01*
X129549500Y-115797474D01*
X129587017Y-115937489D01*
X129661236Y-116066038D01*
X129674500Y-116115538D01*
X129674500Y-119322795D01*
X129655593Y-119380986D01*
X129606093Y-119416950D01*
X129544907Y-119416950D01*
X129495407Y-119380986D01*
X129489764Y-119372295D01*
X129440512Y-119286989D01*
X129440510Y-119286987D01*
X129440509Y-119286985D01*
X129338015Y-119184491D01*
X129338012Y-119184489D01*
X129338010Y-119184487D01*
X129212488Y-119112017D01*
X129212489Y-119112017D01*
X129182896Y-119104087D01*
X129072475Y-119074500D01*
X128927525Y-119074500D01*
X128865790Y-119091041D01*
X128787510Y-119112017D01*
X128661989Y-119184487D01*
X128559487Y-119286989D01*
X128487017Y-119412510D01*
X128457776Y-119521639D01*
X128449500Y-119552525D01*
X128449500Y-119697475D01*
X128455258Y-119718963D01*
X128487017Y-119837489D01*
X128561236Y-119966038D01*
X128574500Y-120015538D01*
X128574500Y-127075500D01*
X128555593Y-127133691D01*
X128506093Y-127169655D01*
X128475500Y-127174500D01*
X124773623Y-127174500D01*
X124715432Y-127155593D01*
X124679468Y-127106093D01*
X124677996Y-127049878D01*
X124700500Y-126965892D01*
X124700500Y-120099500D01*
X124719407Y-120041309D01*
X124768907Y-120005345D01*
X124799500Y-120000500D01*
X125539365Y-120000500D01*
X125581038Y-120011665D01*
X125581521Y-120010501D01*
X125587513Y-120012983D01*
X125587515Y-120012984D01*
X125727525Y-120050500D01*
X125727526Y-120050500D01*
X125872474Y-120050500D01*
X125872475Y-120050500D01*
X126012485Y-120012984D01*
X126012487Y-120012982D01*
X126012489Y-120012982D01*
X126138010Y-119940512D01*
X126138010Y-119940511D01*
X126138015Y-119940509D01*
X126240509Y-119838015D01*
X126285185Y-119760634D01*
X126312982Y-119712489D01*
X126312982Y-119712487D01*
X126312984Y-119712485D01*
X126350500Y-119572475D01*
X126350500Y-119427525D01*
X126312984Y-119287515D01*
X126312982Y-119287512D01*
X126312982Y-119287510D01*
X126240512Y-119161989D01*
X126240510Y-119161987D01*
X126240509Y-119161985D01*
X126138015Y-119059491D01*
X126138012Y-119059489D01*
X126138010Y-119059487D01*
X126012488Y-118987017D01*
X126012489Y-118987017D01*
X125982896Y-118979087D01*
X125872475Y-118949500D01*
X125727525Y-118949500D01*
X125680855Y-118962005D01*
X125587513Y-118987016D01*
X125581521Y-118989499D01*
X125581038Y-118988334D01*
X125539365Y-118999500D01*
X124460635Y-118999500D01*
X124418961Y-118988334D01*
X124418479Y-118989499D01*
X124412486Y-118987016D01*
X124342480Y-118968258D01*
X124272475Y-118949500D01*
X124127525Y-118949500D01*
X124065790Y-118966041D01*
X123987510Y-118987017D01*
X123861989Y-119059487D01*
X123759487Y-119161989D01*
X123687017Y-119287510D01*
X123670114Y-119350593D01*
X123649500Y-119427525D01*
X123649500Y-119572475D01*
X123687016Y-119712485D01*
X123687018Y-119712489D01*
X123689500Y-119718480D01*
X123688333Y-119718963D01*
X123699500Y-119760634D01*
X123699500Y-126300500D01*
X123680593Y-126358691D01*
X123631093Y-126394655D01*
X123600500Y-126399500D01*
X105324039Y-126399500D01*
X105265848Y-126380593D01*
X105229884Y-126331093D01*
X105226777Y-126282032D01*
X105441625Y-125150500D01*
X105787211Y-123330409D01*
X105816641Y-123276769D01*
X105853879Y-123254725D01*
X105941639Y-123226211D01*
X106102994Y-123143996D01*
X106249501Y-123037553D01*
X106377553Y-122909501D01*
X106483996Y-122762994D01*
X106566211Y-122601639D01*
X106622171Y-122429409D01*
X106650500Y-122250546D01*
X106650500Y-122069454D01*
X106650500Y-122069450D01*
X106889500Y-122069450D01*
X106889500Y-122250549D01*
X106917828Y-122429406D01*
X106917829Y-122429409D01*
X106973789Y-122601639D01*
X107056004Y-122762994D01*
X107162447Y-122909501D01*
X107290499Y-123037553D01*
X107437006Y-123143996D01*
X107598361Y-123226211D01*
X107770591Y-123282171D01*
X107842136Y-123293502D01*
X107949451Y-123310500D01*
X107949454Y-123310500D01*
X108130549Y-123310500D01*
X108219977Y-123296335D01*
X108309409Y-123282171D01*
X108481639Y-123226211D01*
X108642994Y-123143996D01*
X108789501Y-123037553D01*
X108917553Y-122909501D01*
X109023996Y-122762994D01*
X109106211Y-122601639D01*
X109162171Y-122429409D01*
X109190500Y-122250546D01*
X109190500Y-122069454D01*
X109190500Y-122069450D01*
X109162171Y-121890593D01*
X109162171Y-121890591D01*
X109106211Y-121718361D01*
X109023996Y-121557006D01*
X108917553Y-121410499D01*
X108789501Y-121282447D01*
X108642994Y-121176004D01*
X108642993Y-121176003D01*
X108642991Y-121176002D01*
X108481637Y-121093788D01*
X108309406Y-121037828D01*
X108130549Y-121009500D01*
X108130546Y-121009500D01*
X107949454Y-121009500D01*
X107949451Y-121009500D01*
X107770593Y-121037828D01*
X107598362Y-121093788D01*
X107437008Y-121176002D01*
X107433760Y-121178362D01*
X107290499Y-121282447D01*
X107162447Y-121410499D01*
X107109225Y-121483752D01*
X107056002Y-121557008D01*
X106973788Y-121718362D01*
X106917828Y-121890593D01*
X106889500Y-122069450D01*
X106650500Y-122069450D01*
X106622171Y-121890593D01*
X106622171Y-121890591D01*
X106566211Y-121718361D01*
X106483996Y-121557006D01*
X106377553Y-121410499D01*
X106249501Y-121282447D01*
X106102994Y-121176004D01*
X106102993Y-121176003D01*
X106102991Y-121176002D01*
X105941637Y-121093788D01*
X105769406Y-121037828D01*
X105590549Y-121009500D01*
X105590546Y-121009500D01*
X105409454Y-121009500D01*
X105409451Y-121009500D01*
X105230593Y-121037828D01*
X105058362Y-121093788D01*
X104897008Y-121176002D01*
X104893760Y-121178362D01*
X104750499Y-121282447D01*
X104622447Y-121410499D01*
X104569225Y-121483752D01*
X104516002Y-121557008D01*
X104433788Y-121718362D01*
X104377828Y-121890593D01*
X104349500Y-122069450D01*
X104349500Y-122250549D01*
X104377828Y-122429406D01*
X104377829Y-122429409D01*
X104433789Y-122601639D01*
X104516004Y-122762994D01*
X104622447Y-122909501D01*
X104750499Y-123037553D01*
X104764250Y-123047544D01*
X104800214Y-123097043D01*
X104803322Y-123146104D01*
X104204387Y-126300500D01*
X104111750Y-126788388D01*
X104099500Y-126834108D01*
X104099500Y-126852902D01*
X104097762Y-126862056D01*
X104097762Y-126862062D01*
X104095993Y-126871372D01*
X104095993Y-126871373D01*
X104099228Y-126914904D01*
X104099500Y-126922239D01*
X104099500Y-126965892D01*
X104101954Y-126975050D01*
X104101983Y-126975159D01*
X104104368Y-126984102D01*
X104105757Y-127002794D01*
X104120980Y-127046390D01*
X104121940Y-127049989D01*
X104120492Y-127077001D01*
X104121082Y-127104033D01*
X104118873Y-127107216D01*
X104118666Y-127111086D01*
X104101623Y-127132081D01*
X104086206Y-127154305D01*
X104082546Y-127155582D01*
X104080105Y-127158591D01*
X104053973Y-127165560D01*
X104028441Y-127174476D01*
X104026283Y-127174500D01*
X103924500Y-127174500D01*
X103866309Y-127155593D01*
X103830345Y-127106093D01*
X103825500Y-127075500D01*
X103825500Y-121178207D01*
X103844407Y-121120016D01*
X103893907Y-121084052D01*
X103955093Y-121084052D01*
X103981679Y-121097389D01*
X103988211Y-121102011D01*
X104000025Y-121106376D01*
X104015203Y-121113499D01*
X104026114Y-121119799D01*
X104063334Y-121129772D01*
X104099476Y-121143128D01*
X104120394Y-121145061D01*
X104128526Y-121147240D01*
X104128528Y-121147241D01*
X104136128Y-121149277D01*
X104140688Y-121150499D01*
X104140689Y-121150500D01*
X104140691Y-121150500D01*
X104179230Y-121150500D01*
X104217592Y-121154046D01*
X104238296Y-121150500D01*
X104259309Y-121150500D01*
X104296531Y-121140526D01*
X104334508Y-121134022D01*
X104353590Y-121125236D01*
X104361718Y-121123059D01*
X104361720Y-121123059D01*
X104369420Y-121120995D01*
X104373886Y-121119799D01*
X104407253Y-121100534D01*
X104442258Y-121084420D01*
X104458421Y-121070992D01*
X104476613Y-121060489D01*
X104500633Y-121036467D01*
X104507351Y-121030341D01*
X104721389Y-120852525D01*
X120449500Y-120852525D01*
X120449500Y-120997475D01*
X120468071Y-121066782D01*
X120487017Y-121137489D01*
X120561236Y-121266038D01*
X120574500Y-121315538D01*
X120574500Y-124109461D01*
X120561236Y-124158961D01*
X120487017Y-124287510D01*
X120449500Y-124427525D01*
X120449500Y-124572474D01*
X120487017Y-124712489D01*
X120559487Y-124838010D01*
X120559489Y-124838012D01*
X120559491Y-124838015D01*
X120661985Y-124940509D01*
X120661987Y-124940510D01*
X120661989Y-124940512D01*
X120787511Y-125012982D01*
X120787512Y-125012982D01*
X120787515Y-125012984D01*
X120927525Y-125050500D01*
X120927526Y-125050500D01*
X121072474Y-125050500D01*
X121072475Y-125050500D01*
X121212485Y-125012984D01*
X121212487Y-125012982D01*
X121212489Y-125012982D01*
X121338010Y-124940512D01*
X121338010Y-124940511D01*
X121338015Y-124940509D01*
X121440509Y-124838015D01*
X121440512Y-124838010D01*
X121512982Y-124712489D01*
X121512982Y-124712487D01*
X121512984Y-124712485D01*
X121550500Y-124572475D01*
X121550500Y-124427525D01*
X121512984Y-124287515D01*
X121512982Y-124287512D01*
X121512982Y-124287510D01*
X121438764Y-124158961D01*
X121425500Y-124109461D01*
X121425500Y-121315538D01*
X121438764Y-121266038D01*
X121512982Y-121137489D01*
X121512982Y-121137487D01*
X121512984Y-121137485D01*
X121550500Y-120997475D01*
X121550500Y-120852525D01*
X121512984Y-120712515D01*
X121512982Y-120712512D01*
X121512982Y-120712510D01*
X121440512Y-120586989D01*
X121440510Y-120586987D01*
X121440509Y-120586985D01*
X121338015Y-120484491D01*
X121338012Y-120484489D01*
X121338010Y-120484487D01*
X121212488Y-120412017D01*
X121212489Y-120412017D01*
X121182896Y-120404087D01*
X121072475Y-120374500D01*
X120927525Y-120374500D01*
X120865790Y-120391041D01*
X120787510Y-120412017D01*
X120661989Y-120484487D01*
X120559487Y-120586989D01*
X120487017Y-120712510D01*
X120478995Y-120742449D01*
X120449500Y-120852525D01*
X104721389Y-120852525D01*
X104923448Y-120684660D01*
X104980287Y-120662020D01*
X105031653Y-120672602D01*
X105058361Y-120686211D01*
X105230591Y-120742171D01*
X105302136Y-120753502D01*
X105409451Y-120770500D01*
X105409454Y-120770500D01*
X105590549Y-120770500D01*
X105730999Y-120748255D01*
X105750271Y-120745202D01*
X105769409Y-120742171D01*
X105941639Y-120686211D01*
X106102994Y-120603996D01*
X106249501Y-120497553D01*
X106377553Y-120369501D01*
X106483996Y-120222994D01*
X106566211Y-120061639D01*
X106622171Y-119889409D01*
X106642567Y-119760634D01*
X106650500Y-119710549D01*
X106650500Y-119529450D01*
X106626985Y-119380986D01*
X106622171Y-119350591D01*
X106566211Y-119178361D01*
X106483996Y-119017006D01*
X106377553Y-118870499D01*
X106249501Y-118742447D01*
X106102994Y-118636004D01*
X106102993Y-118636003D01*
X106102991Y-118636002D01*
X105941637Y-118553788D01*
X105769406Y-118497828D01*
X105590549Y-118469500D01*
X105590546Y-118469500D01*
X105409454Y-118469500D01*
X105409451Y-118469500D01*
X105230593Y-118497828D01*
X105058362Y-118553788D01*
X104897006Y-118636003D01*
X104897002Y-118636005D01*
X104807690Y-118700895D01*
X104749500Y-118719802D01*
X104691309Y-118700894D01*
X104655345Y-118651394D01*
X104650500Y-118620802D01*
X104650500Y-118079197D01*
X104669407Y-118021006D01*
X104718907Y-117985042D01*
X104780093Y-117985042D01*
X104807685Y-117999101D01*
X104897006Y-118063996D01*
X105058361Y-118146211D01*
X105230591Y-118202171D01*
X105302136Y-118213502D01*
X105409451Y-118230500D01*
X105409454Y-118230500D01*
X105590549Y-118230500D01*
X105769404Y-118202172D01*
X105769405Y-118202171D01*
X105769409Y-118202171D01*
X105901170Y-118159360D01*
X105962353Y-118159360D01*
X106001764Y-118183511D01*
X106429513Y-118611260D01*
X106429515Y-118611263D01*
X106508737Y-118690485D01*
X106598738Y-118742447D01*
X106605763Y-118746503D01*
X106713981Y-118775500D01*
X106713982Y-118775500D01*
X119375500Y-118775500D01*
X119433691Y-118794407D01*
X119469655Y-118843907D01*
X119474500Y-118874500D01*
X119474500Y-118918982D01*
X119474500Y-119031018D01*
X119500072Y-119126455D01*
X119503498Y-119139241D01*
X119531355Y-119187489D01*
X119559515Y-119236263D01*
X119638737Y-119315485D01*
X119638739Y-119315486D01*
X119735759Y-119371501D01*
X119735757Y-119371501D01*
X119735761Y-119371502D01*
X119735763Y-119371503D01*
X119843982Y-119400500D01*
X119909461Y-119400500D01*
X119958961Y-119413764D01*
X120087511Y-119487982D01*
X120087512Y-119487982D01*
X120087515Y-119487984D01*
X120227525Y-119525500D01*
X120227526Y-119525500D01*
X120372474Y-119525500D01*
X120372475Y-119525500D01*
X120512485Y-119487984D01*
X120512487Y-119487982D01*
X120512489Y-119487982D01*
X120638010Y-119415512D01*
X120638010Y-119415511D01*
X120638015Y-119415509D01*
X120740509Y-119313015D01*
X120740512Y-119313010D01*
X120812982Y-119187489D01*
X120812982Y-119187487D01*
X120812984Y-119187485D01*
X120850500Y-119047475D01*
X120850500Y-118902525D01*
X120812984Y-118762515D01*
X120812982Y-118762512D01*
X120812982Y-118762510D01*
X120740512Y-118636989D01*
X120740510Y-118636987D01*
X120740509Y-118636985D01*
X120638015Y-118534491D01*
X120638012Y-118534489D01*
X120638010Y-118534487D01*
X120512488Y-118462017D01*
X120512484Y-118462015D01*
X120398876Y-118431573D01*
X120347562Y-118398249D01*
X120325636Y-118341127D01*
X120325500Y-118335947D01*
X120325500Y-118293983D01*
X120308490Y-118230500D01*
X120296503Y-118185763D01*
X120296501Y-118185760D01*
X120296501Y-118185758D01*
X120240486Y-118088739D01*
X120240485Y-118088737D01*
X120161263Y-118009515D01*
X120118875Y-117985042D01*
X120064240Y-117953498D01*
X120064242Y-117953498D01*
X120022251Y-117942247D01*
X119956018Y-117924500D01*
X119956016Y-117924500D01*
X106987255Y-117924500D01*
X106929064Y-117905593D01*
X106917251Y-117895504D01*
X106603511Y-117581764D01*
X106575734Y-117527247D01*
X106579359Y-117481170D01*
X106622171Y-117349409D01*
X106622172Y-117349404D01*
X106650500Y-117170549D01*
X106650500Y-116989450D01*
X106622171Y-116810593D01*
X106622171Y-116810591D01*
X106566211Y-116638361D01*
X106483996Y-116477006D01*
X106483994Y-116477002D01*
X106440901Y-116417690D01*
X106421994Y-116359500D01*
X106440902Y-116301309D01*
X106490402Y-116265345D01*
X106520994Y-116260500D01*
X114252764Y-116260500D01*
X114302262Y-116273763D01*
X114387515Y-116322984D01*
X114527525Y-116360500D01*
X114527526Y-116360500D01*
X114672474Y-116360500D01*
X114672475Y-116360500D01*
X114812485Y-116322984D01*
X114812487Y-116322982D01*
X114812489Y-116322982D01*
X114938010Y-116250512D01*
X114938010Y-116250511D01*
X114938015Y-116250509D01*
X115040509Y-116148015D01*
X115069177Y-116098361D01*
X115112982Y-116022489D01*
X115112982Y-116022487D01*
X115112984Y-116022485D01*
X115150500Y-115882475D01*
X115150500Y-115737525D01*
X115112984Y-115597515D01*
X115112982Y-115597512D01*
X115112982Y-115597510D01*
X115040512Y-115471989D01*
X115040510Y-115471987D01*
X115040509Y-115471985D01*
X114938015Y-115369491D01*
X114938012Y-115369489D01*
X114938010Y-115369487D01*
X114812488Y-115297017D01*
X114812489Y-115297017D01*
X114776053Y-115287254D01*
X114672475Y-115259500D01*
X114527525Y-115259500D01*
X114387515Y-115297016D01*
X114387514Y-115297016D01*
X114387512Y-115297017D01*
X114349973Y-115318691D01*
X114302262Y-115346236D01*
X114252764Y-115359500D01*
X109060994Y-115359500D01*
X109002803Y-115340593D01*
X108966839Y-115291093D01*
X108966839Y-115229907D01*
X108980901Y-115202310D01*
X109023994Y-115142997D01*
X109023996Y-115142994D01*
X109106211Y-114981639D01*
X109162171Y-114809409D01*
X109176335Y-114719977D01*
X109190500Y-114630549D01*
X109190500Y-114449450D01*
X109162171Y-114270593D01*
X109162171Y-114270591D01*
X109106211Y-114098361D01*
X109023996Y-113937006D01*
X108917553Y-113790499D01*
X108789501Y-113662447D01*
X108642994Y-113556004D01*
X108642993Y-113556003D01*
X108642991Y-113556002D01*
X108481637Y-113473788D01*
X108309406Y-113417828D01*
X108130549Y-113389500D01*
X108130546Y-113389500D01*
X107949454Y-113389500D01*
X107949451Y-113389500D01*
X107770593Y-113417828D01*
X107598362Y-113473788D01*
X107437008Y-113556002D01*
X107363752Y-113609225D01*
X107290499Y-113662447D01*
X107162447Y-113790499D01*
X107109225Y-113863752D01*
X107056002Y-113937008D01*
X106973788Y-114098362D01*
X106917828Y-114270593D01*
X106889500Y-114449450D01*
X106889500Y-114630549D01*
X106917828Y-114809406D01*
X106973788Y-114981637D01*
X107056003Y-115142993D01*
X107056005Y-115142997D01*
X107099099Y-115202310D01*
X107118006Y-115260500D01*
X107099098Y-115318691D01*
X107049598Y-115354655D01*
X107019006Y-115359500D01*
X106520994Y-115359500D01*
X106462803Y-115340593D01*
X106426839Y-115291093D01*
X106426839Y-115229907D01*
X106440901Y-115202310D01*
X106483994Y-115142997D01*
X106483996Y-115142994D01*
X106566211Y-114981639D01*
X106622171Y-114809409D01*
X106636335Y-114719977D01*
X106650500Y-114630549D01*
X106650500Y-114449450D01*
X106622171Y-114270593D01*
X106622171Y-114270591D01*
X106566211Y-114098361D01*
X106483996Y-113937006D01*
X106377553Y-113790499D01*
X106249501Y-113662447D01*
X106102994Y-113556004D01*
X106102993Y-113556003D01*
X106102991Y-113556002D01*
X105941637Y-113473788D01*
X105769406Y-113417828D01*
X105590549Y-113389500D01*
X105590546Y-113389500D01*
X105409454Y-113389500D01*
X105409451Y-113389500D01*
X105230593Y-113417828D01*
X105058362Y-113473788D01*
X104897008Y-113556002D01*
X104823752Y-113609225D01*
X104750499Y-113662447D01*
X104622447Y-113790499D01*
X104569225Y-113863752D01*
X104516002Y-113937008D01*
X104433788Y-114098362D01*
X104377828Y-114270593D01*
X104349500Y-114449450D01*
X104349500Y-114484921D01*
X104330593Y-114543112D01*
X104288019Y-114576536D01*
X103269582Y-114993610D01*
X103263759Y-114995994D01*
X103235763Y-115003497D01*
X103212153Y-115017127D01*
X103205962Y-115019663D01*
X103205960Y-115019665D01*
X103186906Y-115027468D01*
X103168837Y-115041217D01*
X103163832Y-115045025D01*
X103138737Y-115059515D01*
X103119462Y-115078788D01*
X103114137Y-115082841D01*
X103114137Y-115082842D01*
X103097754Y-115095309D01*
X103097746Y-115095317D01*
X103083860Y-115113263D01*
X103080010Y-115118241D01*
X103059515Y-115138737D01*
X103045879Y-115162354D01*
X103041788Y-115167642D01*
X103041786Y-115167642D01*
X103029192Y-115183921D01*
X103029186Y-115183931D01*
X103020418Y-115204861D01*
X103017986Y-115210664D01*
X103003497Y-115235763D01*
X102996439Y-115262098D01*
X102993855Y-115268268D01*
X102993855Y-115268269D01*
X102985903Y-115287254D01*
X102985901Y-115287261D01*
X102982847Y-115309756D01*
X102980375Y-115322053D01*
X102974500Y-115343981D01*
X102974500Y-115364570D01*
X102973600Y-115377886D01*
X102970832Y-115398277D01*
X100500500Y-115398277D01*
X100500500Y-111909450D01*
X106889500Y-111909450D01*
X106889500Y-112090549D01*
X106917828Y-112269406D01*
X106973788Y-112441637D01*
X107022640Y-112537515D01*
X107056004Y-112602994D01*
X107162447Y-112749501D01*
X107290499Y-112877553D01*
X107437006Y-112983996D01*
X107598361Y-113066211D01*
X107770591Y-113122171D01*
X107842136Y-113133502D01*
X107949451Y-113150500D01*
X107949454Y-113150500D01*
X108130549Y-113150500D01*
X108219977Y-113136335D01*
X108309409Y-113122171D01*
X108481639Y-113066211D01*
X108642994Y-112983996D01*
X108789501Y-112877553D01*
X108917553Y-112749501D01*
X108969846Y-112677525D01*
X120299500Y-112677525D01*
X120299500Y-112822475D01*
X120314258Y-112877553D01*
X120337017Y-112962489D01*
X120411236Y-113091038D01*
X120424500Y-113140538D01*
X120424500Y-115334461D01*
X120411236Y-115383961D01*
X120337017Y-115512510D01*
X120299500Y-115652525D01*
X120299500Y-115797474D01*
X120337017Y-115937489D01*
X120409487Y-116063010D01*
X120409489Y-116063012D01*
X120409491Y-116063015D01*
X120511985Y-116165509D01*
X120511987Y-116165510D01*
X120511989Y-116165512D01*
X120637511Y-116237982D01*
X120637512Y-116237982D01*
X120637515Y-116237984D01*
X120777525Y-116275500D01*
X120777526Y-116275500D01*
X120922474Y-116275500D01*
X120922475Y-116275500D01*
X121062485Y-116237984D01*
X121062487Y-116237982D01*
X121062489Y-116237982D01*
X121188010Y-116165512D01*
X121188010Y-116165511D01*
X121188015Y-116165509D01*
X121290509Y-116063015D01*
X121362984Y-115937485D01*
X121400500Y-115797475D01*
X121400500Y-115652525D01*
X121362984Y-115512515D01*
X121362982Y-115512512D01*
X121362982Y-115512510D01*
X121288764Y-115383961D01*
X121275500Y-115334461D01*
X121275500Y-113140538D01*
X121288764Y-113091038D01*
X121362982Y-112962489D01*
X121362982Y-112962487D01*
X121362984Y-112962485D01*
X121400500Y-112822475D01*
X121400500Y-112677525D01*
X121362984Y-112537515D01*
X121362982Y-112537512D01*
X121362982Y-112537510D01*
X121290512Y-112411989D01*
X121290510Y-112411987D01*
X121290509Y-112411985D01*
X121188015Y-112309491D01*
X121188012Y-112309489D01*
X121188010Y-112309487D01*
X121062488Y-112237017D01*
X121062489Y-112237017D01*
X121032896Y-112229087D01*
X120922475Y-112199500D01*
X120777525Y-112199500D01*
X120715790Y-112216041D01*
X120637510Y-112237017D01*
X120511989Y-112309487D01*
X120409487Y-112411989D01*
X120337017Y-112537510D01*
X120319471Y-112602992D01*
X120299500Y-112677525D01*
X108969846Y-112677525D01*
X109023996Y-112602994D01*
X109106211Y-112441639D01*
X109162171Y-112269409D01*
X109190500Y-112090546D01*
X109190500Y-111909454D01*
X109190500Y-111909450D01*
X109162171Y-111730593D01*
X109162171Y-111730591D01*
X109106211Y-111558361D01*
X109023996Y-111397006D01*
X108917553Y-111250499D01*
X108789501Y-111122447D01*
X108642994Y-111016004D01*
X108642993Y-111016003D01*
X108642991Y-111016002D01*
X108481637Y-110933788D01*
X108309406Y-110877828D01*
X108130549Y-110849500D01*
X108130546Y-110849500D01*
X107949454Y-110849500D01*
X107949451Y-110849500D01*
X107770593Y-110877828D01*
X107598362Y-110933788D01*
X107437008Y-111016002D01*
X107363752Y-111069225D01*
X107290499Y-111122447D01*
X107162447Y-111250499D01*
X107109225Y-111323752D01*
X107056002Y-111397008D01*
X106973788Y-111558362D01*
X106917828Y-111730593D01*
X106889500Y-111909450D01*
X100500500Y-111909450D01*
X100500500Y-110077525D01*
X102049500Y-110077525D01*
X102049500Y-110222475D01*
X102079087Y-110332896D01*
X102087017Y-110362489D01*
X102159487Y-110488010D01*
X102159489Y-110488012D01*
X102159491Y-110488015D01*
X102261985Y-110590509D01*
X102261987Y-110590510D01*
X102261989Y-110590512D01*
X102387511Y-110662982D01*
X102387512Y-110662982D01*
X102387515Y-110662984D01*
X102527525Y-110700500D01*
X102527526Y-110700500D01*
X102672474Y-110700500D01*
X102672475Y-110700500D01*
X102812485Y-110662984D01*
X102812488Y-110662981D01*
X102818479Y-110660501D01*
X102818961Y-110661665D01*
X102860635Y-110650500D01*
X115039365Y-110650500D01*
X115081038Y-110661665D01*
X115081521Y-110660501D01*
X115087513Y-110662983D01*
X115087515Y-110662984D01*
X115227525Y-110700500D01*
X115227526Y-110700500D01*
X115372474Y-110700500D01*
X115372475Y-110700500D01*
X115512485Y-110662984D01*
X115512488Y-110662981D01*
X115518479Y-110660501D01*
X115518961Y-110661665D01*
X115560635Y-110650500D01*
X119689365Y-110650500D01*
X119731038Y-110661665D01*
X119731521Y-110660501D01*
X119737513Y-110662983D01*
X119737515Y-110662984D01*
X119877525Y-110700500D01*
X119877526Y-110700500D01*
X120022474Y-110700500D01*
X120022475Y-110700500D01*
X120162485Y-110662984D01*
X120162487Y-110662982D01*
X120162489Y-110662982D01*
X120288010Y-110590512D01*
X120288010Y-110590511D01*
X120288015Y-110590509D01*
X120390509Y-110488015D01*
X120462984Y-110362485D01*
X120497383Y-110234108D01*
X127374500Y-110234108D01*
X127374500Y-110365892D01*
X127404579Y-110478151D01*
X127408609Y-110493190D01*
X127474496Y-110607309D01*
X127474498Y-110607311D01*
X127474500Y-110607314D01*
X127567686Y-110700500D01*
X127567688Y-110700501D01*
X127567690Y-110700503D01*
X127681810Y-110766390D01*
X127681808Y-110766390D01*
X127681812Y-110766391D01*
X127681814Y-110766392D01*
X127809108Y-110800500D01*
X128600500Y-110800500D01*
X128658691Y-110819407D01*
X128694655Y-110868907D01*
X128699500Y-110899500D01*
X128699500Y-114164365D01*
X128688334Y-114206038D01*
X128689499Y-114206521D01*
X128687016Y-114212513D01*
X128649500Y-114352525D01*
X128649500Y-114497474D01*
X128687017Y-114637489D01*
X128759487Y-114763010D01*
X128759489Y-114763012D01*
X128759491Y-114763015D01*
X128861985Y-114865509D01*
X128861987Y-114865510D01*
X128861989Y-114865512D01*
X128987511Y-114937982D01*
X128987512Y-114937982D01*
X128987515Y-114937984D01*
X129127525Y-114975500D01*
X129127526Y-114975500D01*
X129272474Y-114975500D01*
X129272475Y-114975500D01*
X129412485Y-114937984D01*
X129412487Y-114937982D01*
X129412489Y-114937982D01*
X129538010Y-114865512D01*
X129538010Y-114865511D01*
X129538015Y-114865509D01*
X129640509Y-114763015D01*
X129712984Y-114637485D01*
X129750500Y-114497475D01*
X129750500Y-114352525D01*
X129712984Y-114212515D01*
X129712983Y-114212513D01*
X129710501Y-114206521D01*
X129711665Y-114206038D01*
X129700500Y-114164365D01*
X129700500Y-110904394D01*
X129719407Y-110846203D01*
X129768907Y-110810239D01*
X129830093Y-110810239D01*
X129837390Y-110812932D01*
X129837513Y-110812983D01*
X129837515Y-110812984D01*
X129977525Y-110850500D01*
X129977526Y-110850500D01*
X130122474Y-110850500D01*
X130122475Y-110850500D01*
X130262485Y-110812984D01*
X130262488Y-110812981D01*
X130268479Y-110810501D01*
X130268961Y-110811665D01*
X130310635Y-110800500D01*
X135139365Y-110800500D01*
X135181038Y-110811665D01*
X135181521Y-110810501D01*
X135187513Y-110812983D01*
X135187515Y-110812984D01*
X135327525Y-110850500D01*
X135327526Y-110850500D01*
X135472474Y-110850500D01*
X135472475Y-110850500D01*
X135612485Y-110812984D01*
X135612488Y-110812981D01*
X135618479Y-110810501D01*
X135618961Y-110811665D01*
X135660635Y-110800500D01*
X142400500Y-110800500D01*
X142458691Y-110819407D01*
X142494655Y-110868907D01*
X142499500Y-110899500D01*
X142499500Y-133489365D01*
X142488334Y-133531038D01*
X142489499Y-133531521D01*
X142487016Y-133537513D01*
X142449500Y-133677525D01*
X142449500Y-133822474D01*
X142487017Y-133962489D01*
X142559487Y-134088010D01*
X142559489Y-134088012D01*
X142559491Y-134088015D01*
X142661985Y-134190509D01*
X142661987Y-134190510D01*
X142661989Y-134190512D01*
X142787511Y-134262982D01*
X142787512Y-134262982D01*
X142787515Y-134262984D01*
X142927525Y-134300500D01*
X142927526Y-134300500D01*
X143072474Y-134300500D01*
X143072475Y-134300500D01*
X143212485Y-134262984D01*
X143212487Y-134262982D01*
X143212489Y-134262982D01*
X143338010Y-134190512D01*
X143338010Y-134190511D01*
X143338015Y-134190509D01*
X143440509Y-134088015D01*
X143512984Y-133962485D01*
X143550500Y-133822475D01*
X143550500Y-133677525D01*
X143512984Y-133537515D01*
X143512983Y-133537513D01*
X143510501Y-133531521D01*
X143511665Y-133531038D01*
X143500500Y-133489365D01*
X143500500Y-124069450D01*
X144349500Y-124069450D01*
X144349500Y-124250549D01*
X144377828Y-124429406D01*
X144433788Y-124601637D01*
X144461495Y-124656016D01*
X144516004Y-124762994D01*
X144622447Y-124909501D01*
X144750499Y-125037553D01*
X144897006Y-125143996D01*
X145058361Y-125226211D01*
X145230591Y-125282171D01*
X145302136Y-125293502D01*
X145409451Y-125310500D01*
X145409454Y-125310500D01*
X145590549Y-125310500D01*
X145679977Y-125296335D01*
X145769409Y-125282171D01*
X145941639Y-125226211D01*
X146102994Y-125143996D01*
X146249501Y-125037553D01*
X146377553Y-124909501D01*
X146483996Y-124762994D01*
X146566211Y-124601639D01*
X146622171Y-124429409D01*
X146648688Y-124261989D01*
X146650500Y-124250549D01*
X146650500Y-124069450D01*
X146622171Y-123890593D01*
X146622171Y-123890591D01*
X146566211Y-123718361D01*
X146483996Y-123557006D01*
X146377553Y-123410499D01*
X146249501Y-123282447D01*
X146102994Y-123176004D01*
X146102993Y-123176003D01*
X146102991Y-123176002D01*
X145941637Y-123093788D01*
X145769406Y-123037828D01*
X145590549Y-123009500D01*
X145590546Y-123009500D01*
X145409454Y-123009500D01*
X145409451Y-123009500D01*
X145230593Y-123037828D01*
X145058362Y-123093788D01*
X144897008Y-123176002D01*
X144827904Y-123226209D01*
X144750499Y-123282447D01*
X144622447Y-123410499D01*
X144569225Y-123483752D01*
X144516002Y-123557008D01*
X144433788Y-123718362D01*
X144377828Y-123890593D01*
X144349500Y-124069450D01*
X143500500Y-124069450D01*
X143500500Y-121529450D01*
X144349500Y-121529450D01*
X144349500Y-121710549D01*
X144377828Y-121889406D01*
X144377829Y-121889409D01*
X144433789Y-122061639D01*
X144516004Y-122222994D01*
X144622447Y-122369501D01*
X144750499Y-122497553D01*
X144897006Y-122603996D01*
X145058361Y-122686211D01*
X145230591Y-122742171D01*
X145302136Y-122753502D01*
X145409451Y-122770500D01*
X145409454Y-122770500D01*
X145590549Y-122770500D01*
X145679977Y-122756335D01*
X145769409Y-122742171D01*
X145941639Y-122686211D01*
X146102994Y-122603996D01*
X146249501Y-122497553D01*
X146377553Y-122369501D01*
X146483996Y-122222994D01*
X146566211Y-122061639D01*
X146622171Y-121889409D01*
X146636335Y-121799977D01*
X146650500Y-121710549D01*
X146650500Y-121529450D01*
X146622171Y-121350593D01*
X146622171Y-121350591D01*
X146566211Y-121178361D01*
X146483996Y-121017006D01*
X146377553Y-120870499D01*
X146249501Y-120742447D01*
X146102994Y-120636004D01*
X146102993Y-120636003D01*
X146102991Y-120636002D01*
X145941637Y-120553788D01*
X145769406Y-120497828D01*
X145590549Y-120469500D01*
X145590546Y-120469500D01*
X145409454Y-120469500D01*
X145409451Y-120469500D01*
X145230593Y-120497828D01*
X145058362Y-120553788D01*
X144897008Y-120636002D01*
X144830034Y-120684662D01*
X144750499Y-120742447D01*
X144622447Y-120870499D01*
X144569225Y-120943752D01*
X144516002Y-121017008D01*
X144433788Y-121178362D01*
X144377828Y-121350593D01*
X144349500Y-121529450D01*
X143500500Y-121529450D01*
X143500500Y-118989450D01*
X144349500Y-118989450D01*
X144349500Y-119170549D01*
X144377828Y-119349406D01*
X144377829Y-119349409D01*
X144433789Y-119521639D01*
X144516004Y-119682994D01*
X144622447Y-119829501D01*
X144750499Y-119957553D01*
X144897006Y-120063996D01*
X145058361Y-120146211D01*
X145230591Y-120202171D01*
X145302136Y-120213502D01*
X145409451Y-120230500D01*
X145409454Y-120230500D01*
X145590549Y-120230500D01*
X145679977Y-120216335D01*
X145769409Y-120202171D01*
X145941639Y-120146211D01*
X146102994Y-120063996D01*
X146249501Y-119957553D01*
X146377553Y-119829501D01*
X146483996Y-119682994D01*
X146566211Y-119521639D01*
X146622171Y-119349409D01*
X146636335Y-119259977D01*
X146650500Y-119170549D01*
X146650500Y-118989450D01*
X146622171Y-118810593D01*
X146622171Y-118810591D01*
X146566211Y-118638361D01*
X146483996Y-118477006D01*
X146377553Y-118330499D01*
X146249501Y-118202447D01*
X146102994Y-118096004D01*
X146102993Y-118096003D01*
X146102991Y-118096002D01*
X145941637Y-118013788D01*
X145769406Y-117957828D01*
X145590549Y-117929500D01*
X145590546Y-117929500D01*
X145409454Y-117929500D01*
X145409451Y-117929500D01*
X145230593Y-117957828D01*
X145058362Y-118013788D01*
X144897008Y-118096002D01*
X144838507Y-118138506D01*
X144750499Y-118202447D01*
X144622447Y-118330499D01*
X144573224Y-118398249D01*
X144516002Y-118477008D01*
X144433788Y-118638362D01*
X144377828Y-118810593D01*
X144349500Y-118989450D01*
X143500500Y-118989450D01*
X143500500Y-116449450D01*
X144349500Y-116449450D01*
X144349500Y-116630549D01*
X144377828Y-116809406D01*
X144377829Y-116809409D01*
X144433789Y-116981639D01*
X144516004Y-117142994D01*
X144622447Y-117289501D01*
X144750499Y-117417553D01*
X144897006Y-117523996D01*
X145058361Y-117606211D01*
X145230591Y-117662171D01*
X145302136Y-117673502D01*
X145409451Y-117690500D01*
X145409454Y-117690500D01*
X145590549Y-117690500D01*
X145679977Y-117676335D01*
X145769409Y-117662171D01*
X145941639Y-117606211D01*
X146102994Y-117523996D01*
X146249501Y-117417553D01*
X146377553Y-117289501D01*
X146483996Y-117142994D01*
X146566211Y-116981639D01*
X146622171Y-116809409D01*
X146636335Y-116719977D01*
X146650500Y-116630549D01*
X146650500Y-116449450D01*
X146627036Y-116301309D01*
X146622171Y-116270591D01*
X146566211Y-116098361D01*
X146483996Y-115937006D01*
X146377553Y-115790499D01*
X146249501Y-115662447D01*
X146102994Y-115556004D01*
X146102993Y-115556003D01*
X146102991Y-115556002D01*
X145941637Y-115473788D01*
X145769406Y-115417828D01*
X145590549Y-115389500D01*
X145590546Y-115389500D01*
X145409454Y-115389500D01*
X145409451Y-115389500D01*
X145230593Y-115417828D01*
X145058362Y-115473788D01*
X144897008Y-115556002D01*
X144839871Y-115597515D01*
X144750499Y-115662447D01*
X144622447Y-115790499D01*
X144617379Y-115797475D01*
X144516002Y-115937008D01*
X144433788Y-116098362D01*
X144377828Y-116270593D01*
X144349500Y-116449450D01*
X143500500Y-116449450D01*
X143500500Y-110234109D01*
X143497383Y-110222475D01*
X143466392Y-110106814D01*
X143466390Y-110106811D01*
X143466390Y-110106809D01*
X143400503Y-109992690D01*
X143400501Y-109992688D01*
X143400500Y-109992686D01*
X143307314Y-109899500D01*
X143307311Y-109899498D01*
X143307309Y-109899496D01*
X143193189Y-109833609D01*
X143193191Y-109833609D01*
X143143799Y-109820375D01*
X143065892Y-109799500D01*
X143065890Y-109799500D01*
X135660635Y-109799500D01*
X135618961Y-109788334D01*
X135618479Y-109789499D01*
X135612486Y-109787016D01*
X135542480Y-109768258D01*
X135472475Y-109749500D01*
X135327525Y-109749500D01*
X135280855Y-109762005D01*
X135187513Y-109787016D01*
X135181521Y-109789499D01*
X135181038Y-109788334D01*
X135139365Y-109799500D01*
X130310635Y-109799500D01*
X130268961Y-109788334D01*
X130268479Y-109789499D01*
X130262486Y-109787016D01*
X130192480Y-109768258D01*
X130122475Y-109749500D01*
X129977525Y-109749500D01*
X129930855Y-109762005D01*
X129837513Y-109787016D01*
X129831521Y-109789499D01*
X129831038Y-109788334D01*
X129789365Y-109799500D01*
X127809108Y-109799500D01*
X127731200Y-109820375D01*
X127681809Y-109833609D01*
X127567690Y-109899496D01*
X127474496Y-109992690D01*
X127408609Y-110106809D01*
X127408608Y-110106814D01*
X127374500Y-110234108D01*
X120497383Y-110234108D01*
X120500500Y-110222475D01*
X120500500Y-110077525D01*
X120462984Y-109937515D01*
X120462982Y-109937512D01*
X120462982Y-109937510D01*
X120390512Y-109811989D01*
X120390510Y-109811987D01*
X120390509Y-109811985D01*
X120288015Y-109709491D01*
X120288012Y-109709489D01*
X120288010Y-109709487D01*
X120162488Y-109637017D01*
X120162489Y-109637017D01*
X120132896Y-109629087D01*
X120022475Y-109599500D01*
X119877525Y-109599500D01*
X119830855Y-109612005D01*
X119737513Y-109637016D01*
X119731521Y-109639499D01*
X119731038Y-109638334D01*
X119689365Y-109649500D01*
X115560635Y-109649500D01*
X115518961Y-109638334D01*
X115518479Y-109639499D01*
X115512486Y-109637016D01*
X115442480Y-109618258D01*
X115372475Y-109599500D01*
X115227525Y-109599500D01*
X115180855Y-109612005D01*
X115087513Y-109637016D01*
X115081521Y-109639499D01*
X115081038Y-109638334D01*
X115039365Y-109649500D01*
X102860635Y-109649500D01*
X102818961Y-109638334D01*
X102818479Y-109639499D01*
X102812486Y-109637016D01*
X102742480Y-109618258D01*
X102672475Y-109599500D01*
X102527525Y-109599500D01*
X102465790Y-109616041D01*
X102387510Y-109637017D01*
X102261989Y-109709487D01*
X102159487Y-109811989D01*
X102087017Y-109937510D01*
X102087016Y-109937515D01*
X102049500Y-110077525D01*
X100500500Y-110077525D01*
X100500500Y-105599500D01*
X100519407Y-105541309D01*
X100568907Y-105505345D01*
X100599500Y-105500500D01*
X149400500Y-105500500D01*
X149458691Y-105519407D01*
G37*
%TD.AperFunction*%
%TD*%
M02*
