%TF.GenerationSoftware,KiCad,Pcbnew,10.0.3*%
%TF.CreationDate,2026-07-11T14:09:26+02:00*%
%TF.ProjectId,musicbrain-riser,6d757369-6362-4726-9169-6e2d72697365,1.0*%
%TF.SameCoordinates,Original*%
%TF.FileFunction,Legend,Top*%
%TF.FilePolarity,Positive*%
%FSLAX46Y46*%
G04 Gerber Fmt 4.6, Leading zero omitted, Abs format (unit mm)*
G04 Created by KiCad (PCBNEW 10.0.3) date 2026-07-11 14:09:26*
%MOMM*%
%LPD*%
G01*
G04 APERTURE LIST*
%ADD10C,0.150000*%
%ADD11C,0.120000*%
G04 APERTURE END LIST*
D10*
X105904761Y-140454819D02*
X105904761Y-139788152D01*
X105904761Y-139883390D02*
X105952380Y-139835771D01*
X105952380Y-139835771D02*
X106047618Y-139788152D01*
X106047618Y-139788152D02*
X106190475Y-139788152D01*
X106190475Y-139788152D02*
X106285713Y-139835771D01*
X106285713Y-139835771D02*
X106333332Y-139931009D01*
X106333332Y-139931009D02*
X106333332Y-140454819D01*
X106333332Y-139931009D02*
X106380951Y-139835771D01*
X106380951Y-139835771D02*
X106476189Y-139788152D01*
X106476189Y-139788152D02*
X106619046Y-139788152D01*
X106619046Y-139788152D02*
X106714285Y-139835771D01*
X106714285Y-139835771D02*
X106761904Y-139931009D01*
X106761904Y-139931009D02*
X106761904Y-140454819D01*
X107666665Y-139788152D02*
X107666665Y-140454819D01*
X107238094Y-139788152D02*
X107238094Y-140311961D01*
X107238094Y-140311961D02*
X107285713Y-140407200D01*
X107285713Y-140407200D02*
X107380951Y-140454819D01*
X107380951Y-140454819D02*
X107523808Y-140454819D01*
X107523808Y-140454819D02*
X107619046Y-140407200D01*
X107619046Y-140407200D02*
X107666665Y-140359580D01*
X108095237Y-140407200D02*
X108190475Y-140454819D01*
X108190475Y-140454819D02*
X108380951Y-140454819D01*
X108380951Y-140454819D02*
X108476189Y-140407200D01*
X108476189Y-140407200D02*
X108523808Y-140311961D01*
X108523808Y-140311961D02*
X108523808Y-140264342D01*
X108523808Y-140264342D02*
X108476189Y-140169104D01*
X108476189Y-140169104D02*
X108380951Y-140121485D01*
X108380951Y-140121485D02*
X108238094Y-140121485D01*
X108238094Y-140121485D02*
X108142856Y-140073866D01*
X108142856Y-140073866D02*
X108095237Y-139978628D01*
X108095237Y-139978628D02*
X108095237Y-139931009D01*
X108095237Y-139931009D02*
X108142856Y-139835771D01*
X108142856Y-139835771D02*
X108238094Y-139788152D01*
X108238094Y-139788152D02*
X108380951Y-139788152D01*
X108380951Y-139788152D02*
X108476189Y-139835771D01*
X108952380Y-140454819D02*
X108952380Y-139788152D01*
X108952380Y-139454819D02*
X108904761Y-139502438D01*
X108904761Y-139502438D02*
X108952380Y-139550057D01*
X108952380Y-139550057D02*
X108999999Y-139502438D01*
X108999999Y-139502438D02*
X108952380Y-139454819D01*
X108952380Y-139454819D02*
X108952380Y-139550057D01*
X109857141Y-140407200D02*
X109761903Y-140454819D01*
X109761903Y-140454819D02*
X109571427Y-140454819D01*
X109571427Y-140454819D02*
X109476189Y-140407200D01*
X109476189Y-140407200D02*
X109428570Y-140359580D01*
X109428570Y-140359580D02*
X109380951Y-140264342D01*
X109380951Y-140264342D02*
X109380951Y-139978628D01*
X109380951Y-139978628D02*
X109428570Y-139883390D01*
X109428570Y-139883390D02*
X109476189Y-139835771D01*
X109476189Y-139835771D02*
X109571427Y-139788152D01*
X109571427Y-139788152D02*
X109761903Y-139788152D01*
X109761903Y-139788152D02*
X109857141Y-139835771D01*
X110285713Y-140454819D02*
X110285713Y-139454819D01*
X110285713Y-139835771D02*
X110380951Y-139788152D01*
X110380951Y-139788152D02*
X110571427Y-139788152D01*
X110571427Y-139788152D02*
X110666665Y-139835771D01*
X110666665Y-139835771D02*
X110714284Y-139883390D01*
X110714284Y-139883390D02*
X110761903Y-139978628D01*
X110761903Y-139978628D02*
X110761903Y-140264342D01*
X110761903Y-140264342D02*
X110714284Y-140359580D01*
X110714284Y-140359580D02*
X110666665Y-140407200D01*
X110666665Y-140407200D02*
X110571427Y-140454819D01*
X110571427Y-140454819D02*
X110380951Y-140454819D01*
X110380951Y-140454819D02*
X110285713Y-140407200D01*
X111190475Y-140454819D02*
X111190475Y-139788152D01*
X111190475Y-139978628D02*
X111238094Y-139883390D01*
X111238094Y-139883390D02*
X111285713Y-139835771D01*
X111285713Y-139835771D02*
X111380951Y-139788152D01*
X111380951Y-139788152D02*
X111476189Y-139788152D01*
X112238094Y-140454819D02*
X112238094Y-139931009D01*
X112238094Y-139931009D02*
X112190475Y-139835771D01*
X112190475Y-139835771D02*
X112095237Y-139788152D01*
X112095237Y-139788152D02*
X111904761Y-139788152D01*
X111904761Y-139788152D02*
X111809523Y-139835771D01*
X112238094Y-140407200D02*
X112142856Y-140454819D01*
X112142856Y-140454819D02*
X111904761Y-140454819D01*
X111904761Y-140454819D02*
X111809523Y-140407200D01*
X111809523Y-140407200D02*
X111761904Y-140311961D01*
X111761904Y-140311961D02*
X111761904Y-140216723D01*
X111761904Y-140216723D02*
X111809523Y-140121485D01*
X111809523Y-140121485D02*
X111904761Y-140073866D01*
X111904761Y-140073866D02*
X112142856Y-140073866D01*
X112142856Y-140073866D02*
X112238094Y-140026247D01*
X112714285Y-140454819D02*
X112714285Y-139788152D01*
X112714285Y-139454819D02*
X112666666Y-139502438D01*
X112666666Y-139502438D02*
X112714285Y-139550057D01*
X112714285Y-139550057D02*
X112761904Y-139502438D01*
X112761904Y-139502438D02*
X112714285Y-139454819D01*
X112714285Y-139454819D02*
X112714285Y-139550057D01*
X113190475Y-139788152D02*
X113190475Y-140454819D01*
X113190475Y-139883390D02*
X113238094Y-139835771D01*
X113238094Y-139835771D02*
X113333332Y-139788152D01*
X113333332Y-139788152D02*
X113476189Y-139788152D01*
X113476189Y-139788152D02*
X113571427Y-139835771D01*
X113571427Y-139835771D02*
X113619046Y-139931009D01*
X113619046Y-139931009D02*
X113619046Y-140454819D01*
X114095237Y-140359580D02*
X114142856Y-140407200D01*
X114142856Y-140407200D02*
X114095237Y-140454819D01*
X114095237Y-140454819D02*
X114047618Y-140407200D01*
X114047618Y-140407200D02*
X114095237Y-140359580D01*
X114095237Y-140359580D02*
X114095237Y-140454819D01*
X114571427Y-139788152D02*
X114571427Y-140454819D01*
X114571427Y-139883390D02*
X114619046Y-139835771D01*
X114619046Y-139835771D02*
X114714284Y-139788152D01*
X114714284Y-139788152D02*
X114857141Y-139788152D01*
X114857141Y-139788152D02*
X114952379Y-139835771D01*
X114952379Y-139835771D02*
X114999998Y-139931009D01*
X114999998Y-139931009D02*
X114999998Y-140454819D01*
X115619046Y-140454819D02*
X115523808Y-140407200D01*
X115523808Y-140407200D02*
X115476189Y-140311961D01*
X115476189Y-140311961D02*
X115476189Y-139454819D01*
X116714284Y-139407200D02*
X115857142Y-140692914D01*
X117047618Y-140454819D02*
X117047618Y-139454819D01*
X117476189Y-140454819D02*
X117476189Y-139931009D01*
X117476189Y-139931009D02*
X117428570Y-139835771D01*
X117428570Y-139835771D02*
X117333332Y-139788152D01*
X117333332Y-139788152D02*
X117190475Y-139788152D01*
X117190475Y-139788152D02*
X117095237Y-139835771D01*
X117095237Y-139835771D02*
X117047618Y-139883390D01*
X117857142Y-139788152D02*
X118047618Y-140454819D01*
X118047618Y-140454819D02*
X118238094Y-139978628D01*
X118238094Y-139978628D02*
X118428570Y-140454819D01*
X118428570Y-140454819D02*
X118619046Y-139788152D01*
X119714284Y-139407200D02*
X118857142Y-140692914D01*
X120047618Y-140454819D02*
X120047618Y-139788152D01*
X120047618Y-139978628D02*
X120095237Y-139883390D01*
X120095237Y-139883390D02*
X120142856Y-139835771D01*
X120142856Y-139835771D02*
X120238094Y-139788152D01*
X120238094Y-139788152D02*
X120333332Y-139788152D01*
X120666666Y-140454819D02*
X120666666Y-139788152D01*
X120666666Y-139454819D02*
X120619047Y-139502438D01*
X120619047Y-139502438D02*
X120666666Y-139550057D01*
X120666666Y-139550057D02*
X120714285Y-139502438D01*
X120714285Y-139502438D02*
X120666666Y-139454819D01*
X120666666Y-139454819D02*
X120666666Y-139550057D01*
X121095237Y-140407200D02*
X121190475Y-140454819D01*
X121190475Y-140454819D02*
X121380951Y-140454819D01*
X121380951Y-140454819D02*
X121476189Y-140407200D01*
X121476189Y-140407200D02*
X121523808Y-140311961D01*
X121523808Y-140311961D02*
X121523808Y-140264342D01*
X121523808Y-140264342D02*
X121476189Y-140169104D01*
X121476189Y-140169104D02*
X121380951Y-140121485D01*
X121380951Y-140121485D02*
X121238094Y-140121485D01*
X121238094Y-140121485D02*
X121142856Y-140073866D01*
X121142856Y-140073866D02*
X121095237Y-139978628D01*
X121095237Y-139978628D02*
X121095237Y-139931009D01*
X121095237Y-139931009D02*
X121142856Y-139835771D01*
X121142856Y-139835771D02*
X121238094Y-139788152D01*
X121238094Y-139788152D02*
X121380951Y-139788152D01*
X121380951Y-139788152D02*
X121476189Y-139835771D01*
X122333332Y-140407200D02*
X122238094Y-140454819D01*
X122238094Y-140454819D02*
X122047618Y-140454819D01*
X122047618Y-140454819D02*
X121952380Y-140407200D01*
X121952380Y-140407200D02*
X121904761Y-140311961D01*
X121904761Y-140311961D02*
X121904761Y-139931009D01*
X121904761Y-139931009D02*
X121952380Y-139835771D01*
X121952380Y-139835771D02*
X122047618Y-139788152D01*
X122047618Y-139788152D02*
X122238094Y-139788152D01*
X122238094Y-139788152D02*
X122333332Y-139835771D01*
X122333332Y-139835771D02*
X122380951Y-139931009D01*
X122380951Y-139931009D02*
X122380951Y-140026247D01*
X122380951Y-140026247D02*
X121904761Y-140121485D01*
X122809523Y-140454819D02*
X122809523Y-139788152D01*
X122809523Y-139978628D02*
X122857142Y-139883390D01*
X122857142Y-139883390D02*
X122904761Y-139835771D01*
X122904761Y-139835771D02*
X122999999Y-139788152D01*
X122999999Y-139788152D02*
X123095237Y-139788152D01*
X124190476Y-140454819D02*
X124190476Y-139788152D01*
X124190476Y-139978628D02*
X124238095Y-139883390D01*
X124238095Y-139883390D02*
X124285714Y-139835771D01*
X124285714Y-139835771D02*
X124380952Y-139788152D01*
X124380952Y-139788152D02*
X124476190Y-139788152D01*
X125190476Y-140407200D02*
X125095238Y-140454819D01*
X125095238Y-140454819D02*
X124904762Y-140454819D01*
X124904762Y-140454819D02*
X124809524Y-140407200D01*
X124809524Y-140407200D02*
X124761905Y-140311961D01*
X124761905Y-140311961D02*
X124761905Y-139931009D01*
X124761905Y-139931009D02*
X124809524Y-139835771D01*
X124809524Y-139835771D02*
X124904762Y-139788152D01*
X124904762Y-139788152D02*
X125095238Y-139788152D01*
X125095238Y-139788152D02*
X125190476Y-139835771D01*
X125190476Y-139835771D02*
X125238095Y-139931009D01*
X125238095Y-139931009D02*
X125238095Y-140026247D01*
X125238095Y-140026247D02*
X124761905Y-140121485D01*
X125571429Y-139788152D02*
X125809524Y-140454819D01*
X125809524Y-140454819D02*
X126047619Y-139788152D01*
X127714286Y-140454819D02*
X127142858Y-140454819D01*
X127428572Y-140454819D02*
X127428572Y-139454819D01*
X127428572Y-139454819D02*
X127333334Y-139597676D01*
X127333334Y-139597676D02*
X127238096Y-139692914D01*
X127238096Y-139692914D02*
X127142858Y-139740533D01*
X128142858Y-140359580D02*
X128190477Y-140407200D01*
X128190477Y-140407200D02*
X128142858Y-140454819D01*
X128142858Y-140454819D02*
X128095239Y-140407200D01*
X128095239Y-140407200D02*
X128142858Y-140359580D01*
X128142858Y-140359580D02*
X128142858Y-140454819D01*
X128809524Y-139454819D02*
X128904762Y-139454819D01*
X128904762Y-139454819D02*
X129000000Y-139502438D01*
X129000000Y-139502438D02*
X129047619Y-139550057D01*
X129047619Y-139550057D02*
X129095238Y-139645295D01*
X129095238Y-139645295D02*
X129142857Y-139835771D01*
X129142857Y-139835771D02*
X129142857Y-140073866D01*
X129142857Y-140073866D02*
X129095238Y-140264342D01*
X129095238Y-140264342D02*
X129047619Y-140359580D01*
X129047619Y-140359580D02*
X129000000Y-140407200D01*
X129000000Y-140407200D02*
X128904762Y-140454819D01*
X128904762Y-140454819D02*
X128809524Y-140454819D01*
X128809524Y-140454819D02*
X128714286Y-140407200D01*
X128714286Y-140407200D02*
X128666667Y-140359580D01*
X128666667Y-140359580D02*
X128619048Y-140264342D01*
X128619048Y-140264342D02*
X128571429Y-140073866D01*
X128571429Y-140073866D02*
X128571429Y-139835771D01*
X128571429Y-139835771D02*
X128619048Y-139645295D01*
X128619048Y-139645295D02*
X128666667Y-139550057D01*
X128666667Y-139550057D02*
X128714286Y-139502438D01*
X128714286Y-139502438D02*
X128809524Y-139454819D01*
X130866666Y-178529819D02*
X130866666Y-179244104D01*
X130866666Y-179244104D02*
X130819047Y-179386961D01*
X130819047Y-179386961D02*
X130723809Y-179482200D01*
X130723809Y-179482200D02*
X130580952Y-179529819D01*
X130580952Y-179529819D02*
X130485714Y-179529819D01*
X131866666Y-179529819D02*
X131295238Y-179529819D01*
X131580952Y-179529819D02*
X131580952Y-178529819D01*
X131580952Y-178529819D02*
X131485714Y-178672676D01*
X131485714Y-178672676D02*
X131390476Y-178767914D01*
X131390476Y-178767914D02*
X131295238Y-178815533D01*
X103466666Y-100379819D02*
X103466666Y-101094104D01*
X103466666Y-101094104D02*
X103419047Y-101236961D01*
X103419047Y-101236961D02*
X103323809Y-101332200D01*
X103323809Y-101332200D02*
X103180952Y-101379819D01*
X103180952Y-101379819D02*
X103085714Y-101379819D01*
X103895238Y-100475057D02*
X103942857Y-100427438D01*
X103942857Y-100427438D02*
X104038095Y-100379819D01*
X104038095Y-100379819D02*
X104276190Y-100379819D01*
X104276190Y-100379819D02*
X104371428Y-100427438D01*
X104371428Y-100427438D02*
X104419047Y-100475057D01*
X104419047Y-100475057D02*
X104466666Y-100570295D01*
X104466666Y-100570295D02*
X104466666Y-100665533D01*
X104466666Y-100665533D02*
X104419047Y-100808390D01*
X104419047Y-100808390D02*
X103847619Y-101379819D01*
X103847619Y-101379819D02*
X104466666Y-101379819D01*
%TO.C,J1*%
D11*
X130200000Y-172150000D02*
X130200000Y-173420000D01*
X128930000Y-172150000D02*
X130200000Y-172150000D01*
X126820000Y-174497358D02*
X126820000Y-174882642D01*
X125960000Y-174497358D02*
X125960000Y-174882642D01*
X124280000Y-174497358D02*
X124280000Y-174882642D01*
X123420000Y-174497358D02*
X123420000Y-174882642D01*
X121740000Y-174497358D02*
X121740000Y-174882642D01*
X120880000Y-174497358D02*
X120880000Y-174882642D01*
X119200000Y-174497358D02*
X119200000Y-174882642D01*
X118340000Y-174497358D02*
X118340000Y-174882642D01*
X116660000Y-174497358D02*
X116660000Y-174882642D01*
X115800000Y-174497358D02*
X115800000Y-174882642D01*
X114120000Y-174497358D02*
X114120000Y-174882642D01*
X113260000Y-174497358D02*
X113260000Y-174882642D01*
X111580000Y-174497358D02*
X111580000Y-174882642D01*
X110720000Y-174497358D02*
X110720000Y-174882642D01*
X109040000Y-174497358D02*
X109040000Y-174882642D01*
X108180000Y-174497358D02*
X108180000Y-174882642D01*
X106500000Y-174497358D02*
X106500000Y-174882642D01*
X105640000Y-174497358D02*
X105640000Y-174882642D01*
X129360000Y-174580000D02*
X129360000Y-174882642D01*
X128500000Y-174580000D02*
X128500000Y-174882642D01*
X129360000Y-177037358D02*
X129360000Y-177350000D01*
X128500000Y-177037358D02*
X128500000Y-177350000D01*
X126820000Y-177037358D02*
X126820000Y-177350000D01*
X125960000Y-177037358D02*
X125960000Y-177350000D01*
X124280000Y-177037358D02*
X124280000Y-177350000D01*
X123420000Y-177037358D02*
X123420000Y-177350000D01*
X121740000Y-177037358D02*
X121740000Y-177350000D01*
X120880000Y-177037358D02*
X120880000Y-177350000D01*
X119200000Y-177037358D02*
X119200000Y-177350000D01*
X118340000Y-177037358D02*
X118340000Y-177350000D01*
X116660000Y-177037358D02*
X116660000Y-177350000D01*
X115800000Y-177037358D02*
X115800000Y-177350000D01*
X114120000Y-177037358D02*
X114120000Y-177350000D01*
X113260000Y-177037358D02*
X113260000Y-177350000D01*
X111580000Y-177037358D02*
X111580000Y-177350000D01*
X110720000Y-177037358D02*
X110720000Y-177350000D01*
X109040000Y-177037358D02*
X109040000Y-177350000D01*
X108180000Y-177037358D02*
X108180000Y-177350000D01*
X106500000Y-177037358D02*
X106500000Y-177350000D01*
X105640000Y-177037358D02*
X105640000Y-177350000D01*
X127660000Y-177350000D02*
X127660000Y-180110000D01*
X125120000Y-177350000D02*
X125120000Y-180110000D01*
X122580000Y-177350000D02*
X122580000Y-180110000D01*
X120040000Y-177350000D02*
X120040000Y-180110000D01*
X117500000Y-177350000D02*
X117500000Y-180110000D01*
X114960000Y-177350000D02*
X114960000Y-180110000D01*
X112420000Y-177350000D02*
X112420000Y-180110000D01*
X109880000Y-177350000D02*
X109880000Y-180110000D01*
X107340000Y-177350000D02*
X107340000Y-180110000D01*
X126820000Y-180110000D02*
X126820000Y-186110000D01*
X124280000Y-180110000D02*
X124280000Y-186110000D01*
X121740000Y-180110000D02*
X121740000Y-186110000D01*
X119200000Y-180110000D02*
X119200000Y-186110000D01*
X116660000Y-180110000D02*
X116660000Y-186110000D01*
X114120000Y-180110000D02*
X114120000Y-186110000D01*
X111580000Y-180110000D02*
X111580000Y-186110000D01*
X109040000Y-180110000D02*
X109040000Y-186110000D01*
X106500000Y-180110000D02*
X106500000Y-186110000D01*
X126820000Y-186110000D02*
X125960000Y-186110000D01*
X125960000Y-186110000D02*
X125960000Y-180110000D01*
X124280000Y-186110000D02*
X123420000Y-186110000D01*
X123420000Y-186110000D02*
X123420000Y-180110000D01*
X121740000Y-186110000D02*
X120880000Y-186110000D01*
X120880000Y-186110000D02*
X120880000Y-180110000D01*
X119200000Y-186110000D02*
X118340000Y-186110000D01*
X118340000Y-186110000D02*
X118340000Y-180110000D01*
X116660000Y-186110000D02*
X115800000Y-186110000D01*
X115800000Y-186110000D02*
X115800000Y-180110000D01*
X114120000Y-186110000D02*
X113260000Y-186110000D01*
X113260000Y-186110000D02*
X113260000Y-180110000D01*
X111580000Y-186110000D02*
X110720000Y-186110000D01*
X110720000Y-186110000D02*
X110720000Y-180110000D01*
X109040000Y-186110000D02*
X108180000Y-186110000D01*
X108180000Y-186110000D02*
X108180000Y-180110000D01*
X106500000Y-186110000D02*
X105640000Y-186110000D01*
X105640000Y-186110000D02*
X105640000Y-180110000D01*
X104690000Y-177350000D02*
X130310000Y-177350000D01*
X130310000Y-180110000D01*
X104690000Y-180110000D01*
X104690000Y-177350000D01*
X128500000Y-180110000D02*
X129360000Y-180110000D01*
X129360000Y-186110000D01*
X128500000Y-186110000D01*
X128500000Y-180110000D01*
G36*
X128500000Y-180110000D02*
G01*
X129360000Y-180110000D01*
X129360000Y-186110000D01*
X128500000Y-186110000D01*
X128500000Y-180110000D01*
G37*
%TO.C,J2*%
X104800000Y-107850000D02*
X104800000Y-106580000D01*
X106070000Y-107850000D02*
X104800000Y-107850000D01*
X108180000Y-105502642D02*
X108180000Y-105117358D01*
X109040000Y-105502642D02*
X109040000Y-105117358D01*
X110720000Y-105502642D02*
X110720000Y-105117358D01*
X111580000Y-105502642D02*
X111580000Y-105117358D01*
X113260000Y-105502642D02*
X113260000Y-105117358D01*
X114120000Y-105502642D02*
X114120000Y-105117358D01*
X115800000Y-105502642D02*
X115800000Y-105117358D01*
X116660000Y-105502642D02*
X116660000Y-105117358D01*
X118340000Y-105502642D02*
X118340000Y-105117358D01*
X119200000Y-105502642D02*
X119200000Y-105117358D01*
X120880000Y-105502642D02*
X120880000Y-105117358D01*
X121740000Y-105502642D02*
X121740000Y-105117358D01*
X123420000Y-105502642D02*
X123420000Y-105117358D01*
X124280000Y-105502642D02*
X124280000Y-105117358D01*
X125960000Y-105502642D02*
X125960000Y-105117358D01*
X126820000Y-105502642D02*
X126820000Y-105117358D01*
X128500000Y-105502642D02*
X128500000Y-105117358D01*
X129360000Y-105502642D02*
X129360000Y-105117358D01*
X105640000Y-105420000D02*
X105640000Y-105117358D01*
X106500000Y-105420000D02*
X106500000Y-105117358D01*
X105640000Y-102962642D02*
X105640000Y-102650000D01*
X106500000Y-102962642D02*
X106500000Y-102650000D01*
X108180000Y-102962642D02*
X108180000Y-102650000D01*
X109040000Y-102962642D02*
X109040000Y-102650000D01*
X110720000Y-102962642D02*
X110720000Y-102650000D01*
X111580000Y-102962642D02*
X111580000Y-102650000D01*
X113260000Y-102962642D02*
X113260000Y-102650000D01*
X114120000Y-102962642D02*
X114120000Y-102650000D01*
X115800000Y-102962642D02*
X115800000Y-102650000D01*
X116660000Y-102962642D02*
X116660000Y-102650000D01*
X118340000Y-102962642D02*
X118340000Y-102650000D01*
X119200000Y-102962642D02*
X119200000Y-102650000D01*
X120880000Y-102962642D02*
X120880000Y-102650000D01*
X121740000Y-102962642D02*
X121740000Y-102650000D01*
X123420000Y-102962642D02*
X123420000Y-102650000D01*
X124280000Y-102962642D02*
X124280000Y-102650000D01*
X125960000Y-102962642D02*
X125960000Y-102650000D01*
X126820000Y-102962642D02*
X126820000Y-102650000D01*
X128500000Y-102962642D02*
X128500000Y-102650000D01*
X129360000Y-102962642D02*
X129360000Y-102650000D01*
X107340000Y-102650000D02*
X107340000Y-99890000D01*
X109880000Y-102650000D02*
X109880000Y-99890000D01*
X112420000Y-102650000D02*
X112420000Y-99890000D01*
X114960000Y-102650000D02*
X114960000Y-99890000D01*
X117500000Y-102650000D02*
X117500000Y-99890000D01*
X120040000Y-102650000D02*
X120040000Y-99890000D01*
X122580000Y-102650000D02*
X122580000Y-99890000D01*
X125120000Y-102650000D02*
X125120000Y-99890000D01*
X127660000Y-102650000D02*
X127660000Y-99890000D01*
X108180000Y-99890000D02*
X108180000Y-93890000D01*
X110720000Y-99890000D02*
X110720000Y-93890000D01*
X113260000Y-99890000D02*
X113260000Y-93890000D01*
X115800000Y-99890000D02*
X115800000Y-93890000D01*
X118340000Y-99890000D02*
X118340000Y-93890000D01*
X120880000Y-99890000D02*
X120880000Y-93890000D01*
X123420000Y-99890000D02*
X123420000Y-93890000D01*
X125960000Y-99890000D02*
X125960000Y-93890000D01*
X128500000Y-99890000D02*
X128500000Y-93890000D01*
X108180000Y-93890000D02*
X109040000Y-93890000D01*
X109040000Y-93890000D02*
X109040000Y-99890000D01*
X110720000Y-93890000D02*
X111580000Y-93890000D01*
X111580000Y-93890000D02*
X111580000Y-99890000D01*
X113260000Y-93890000D02*
X114120000Y-93890000D01*
X114120000Y-93890000D02*
X114120000Y-99890000D01*
X115800000Y-93890000D02*
X116660000Y-93890000D01*
X116660000Y-93890000D02*
X116660000Y-99890000D01*
X118340000Y-93890000D02*
X119200000Y-93890000D01*
X119200000Y-93890000D02*
X119200000Y-99890000D01*
X120880000Y-93890000D02*
X121740000Y-93890000D01*
X121740000Y-93890000D02*
X121740000Y-99890000D01*
X123420000Y-93890000D02*
X124280000Y-93890000D01*
X124280000Y-93890000D02*
X124280000Y-99890000D01*
X125960000Y-93890000D02*
X126820000Y-93890000D01*
X126820000Y-93890000D02*
X126820000Y-99890000D01*
X128500000Y-93890000D02*
X129360000Y-93890000D01*
X129360000Y-93890000D02*
X129360000Y-99890000D01*
X104690000Y-99890000D02*
X130310000Y-99890000D01*
X130310000Y-102650000D01*
X104690000Y-102650000D01*
X104690000Y-99890000D01*
X105640000Y-93890000D02*
X106500000Y-93890000D01*
X106500000Y-99890000D01*
X105640000Y-99890000D01*
X105640000Y-93890000D01*
G36*
X105640000Y-93890000D02*
G01*
X106500000Y-93890000D01*
X106500000Y-99890000D01*
X105640000Y-99890000D01*
X105640000Y-93890000D01*
G37*
%TD*%
M02*
