%TF.GenerationSoftware,KiCad,Pcbnew,10.0.3*%
%TF.CreationDate,2026-07-09T02:27:14+02:00*%
%TF.ProjectId,musicbrain-riser,6d757369-6362-4726-9169-6e2d72697365,1.0*%
%TF.SameCoordinates,Original*%
%TF.FileFunction,Copper,L1,Top*%
%TF.FilePolarity,Positive*%
%FSLAX46Y46*%
G04 Gerber Fmt 4.6, Leading zero omitted, Abs format (unit mm)*
G04 Created by KiCad (PCBNEW 10.0.3) date 2026-07-09 02:27:14*
%MOMM*%
%LPD*%
G01*
G04 APERTURE LIST*
%TA.AperFunction,ComponentPad*%
%ADD10R,1.700000X1.700000*%
%TD*%
%TA.AperFunction,ComponentPad*%
%ADD11C,1.700000*%
%TD*%
%TA.AperFunction,ViaPad*%
%ADD12C,0.500000*%
%TD*%
%TA.AperFunction,Conductor*%
%ADD13C,0.250000*%
%TD*%
G04 APERTURE END LIST*
D10*
%TO.P,J1,1*%
%TO.N,GND*%
X128930000Y-173420000D03*
D11*
%TO.P,J1,2*%
%TO.N,+12V*%
X128930000Y-175960000D03*
%TO.P,J1,3*%
%TO.N,GND*%
X126390000Y-173420000D03*
%TO.P,J1,4*%
%TO.N,-12V*%
X126390000Y-175960000D03*
%TO.P,J1,5*%
%TO.N,GND*%
X123850000Y-173420000D03*
%TO.P,J1,6*%
%TO.N,+3V3*%
X123850000Y-175960000D03*
%TO.P,J1,7*%
%TO.N,/SCLK*%
X121310000Y-173420000D03*
%TO.P,J1,8*%
%TO.N,GND*%
X121310000Y-175960000D03*
%TO.P,J1,9*%
%TO.N,/MOSI*%
X118770000Y-173420000D03*
%TO.P,J1,10*%
%TO.N,GND*%
X118770000Y-175960000D03*
%TO.P,J1,11*%
%TO.N,/MISO*%
X116230000Y-173420000D03*
%TO.P,J1,12*%
%TO.N,GND*%
X116230000Y-175960000D03*
%TO.P,J1,13*%
%TO.N,/CS*%
X113690000Y-173420000D03*
%TO.P,J1,14*%
%TO.N,GND*%
X113690000Y-175960000D03*
%TO.P,J1,15*%
%TO.N,/LDAC*%
X111150000Y-173420000D03*
%TO.P,J1,16*%
%TO.N,/IRQ*%
X111150000Y-175960000D03*
%TO.P,J1,17*%
%TO.N,/SDA*%
X108610000Y-173420000D03*
%TO.P,J1,18*%
%TO.N,/SCL*%
X108610000Y-175960000D03*
%TO.P,J1,19*%
%TO.N,/SPARE1*%
X106070000Y-173420000D03*
%TO.P,J1,20*%
%TO.N,/SPARE2*%
X106070000Y-175960000D03*
%TD*%
D10*
%TO.P,J2,1*%
%TO.N,/SPARE1*%
X106070000Y-106580000D03*
D11*
%TO.P,J2,2*%
%TO.N,/SPARE2*%
X106070000Y-104040000D03*
%TO.P,J2,3*%
%TO.N,/SDA*%
X108610000Y-106580000D03*
%TO.P,J2,4*%
%TO.N,/SCL*%
X108610000Y-104040000D03*
%TO.P,J2,5*%
%TO.N,/LDAC*%
X111150000Y-106580000D03*
%TO.P,J2,6*%
%TO.N,/IRQ*%
X111150000Y-104040000D03*
%TO.P,J2,7*%
%TO.N,/CS*%
X113690000Y-106580000D03*
%TO.P,J2,8*%
%TO.N,GND*%
X113690000Y-104040000D03*
%TO.P,J2,9*%
%TO.N,/MISO*%
X116230000Y-106580000D03*
%TO.P,J2,10*%
%TO.N,GND*%
X116230000Y-104040000D03*
%TO.P,J2,11*%
%TO.N,/MOSI*%
X118770000Y-106580000D03*
%TO.P,J2,12*%
%TO.N,GND*%
X118770000Y-104040000D03*
%TO.P,J2,13*%
%TO.N,/SCLK*%
X121310000Y-106580000D03*
%TO.P,J2,14*%
%TO.N,GND*%
X121310000Y-104040000D03*
%TO.P,J2,15*%
X123850000Y-106580000D03*
%TO.P,J2,16*%
%TO.N,+3V3*%
X123850000Y-104040000D03*
%TO.P,J2,17*%
%TO.N,GND*%
X126390000Y-106580000D03*
%TO.P,J2,18*%
%TO.N,-12V*%
X126390000Y-104040000D03*
%TO.P,J2,19*%
%TO.N,GND*%
X128930000Y-106580000D03*
%TO.P,J2,20*%
%TO.N,+12V*%
X128930000Y-104040000D03*
%TD*%
D12*
%TO.N,GND*%
X104000000Y-102000000D03*
X131000000Y-102000000D03*
X104000000Y-178000000D03*
X131000000Y-178000000D03*
X104000000Y-140000000D03*
X131000000Y-140000000D03*
X117500000Y-140000000D03*
%TO.N,/SCL*%
X110000000Y-120000000D03*
%TO.N,+3V3*%
X125000000Y-120000000D03*
%TO.N,/SCL*%
X110000000Y-160000000D03*
%TO.N,+3V3*%
X125000000Y-160000000D03*
%TD*%
%TO.N,+12V*%
D13*
X128930000Y-175960000D02*
X130200000Y-175960000D01*
X130200000Y-175960000D02*
X130200000Y-104040000D01*
X130200000Y-104040000D02*
X128930000Y-104040000D01*
%TO.N,-12V*%
X126390000Y-175960000D02*
X127660000Y-175960000D01*
X127660000Y-175960000D02*
X127660000Y-104040000D01*
X127660000Y-104040000D02*
X126390000Y-104040000D01*
%TO.N,+3V3*%
X123850000Y-175960000D02*
X125120000Y-175960000D01*
X125120000Y-175960000D02*
X125120000Y-104040000D01*
X125120000Y-104040000D02*
X123850000Y-104040000D01*
%TO.N,/SCLK*%
X121310000Y-173420000D02*
X121310000Y-106580000D01*
%TO.N,/MOSI*%
X118770000Y-173420000D02*
X118770000Y-106580000D01*
%TO.N,/MISO*%
X116230000Y-173420000D02*
X116230000Y-106580000D01*
%TO.N,/CS*%
X113690000Y-173420000D02*
X113690000Y-106580000D01*
%TO.N,/LDAC*%
X111150000Y-173420000D02*
X111150000Y-106580000D01*
%TO.N,/IRQ*%
X111150000Y-175960000D02*
X112420000Y-175960000D01*
X112420000Y-175960000D02*
X112420000Y-104040000D01*
X112420000Y-104040000D02*
X111150000Y-104040000D01*
%TO.N,/SDA*%
X108610000Y-173420000D02*
X108610000Y-106580000D01*
%TO.N,/SCL*%
X108610000Y-175960000D02*
X109880000Y-175960000D01*
X109880000Y-175960000D02*
X109880000Y-104040000D01*
X109880000Y-104040000D02*
X108610000Y-104040000D01*
%TO.N,/SPARE1*%
X106070000Y-173420000D02*
X106070000Y-106580000D01*
%TO.N,/SPARE2*%
X106070000Y-175960000D02*
X107340000Y-175960000D01*
X107340000Y-175960000D02*
X107340000Y-104040000D01*
X107340000Y-104040000D02*
X106070000Y-104040000D01*
%TD*%
%TA.AperFunction,Conductor*%
%TO.N,GND*%
G36*
X127193690Y-104962736D02*
G01*
X127229654Y-105012236D01*
X127234500Y-105042829D01*
X127234500Y-174957170D01*
X127215593Y-175015361D01*
X127166093Y-175051325D01*
X127104907Y-175051325D01*
X127077313Y-175037265D01*
X126992994Y-174976004D01*
X126992993Y-174976003D01*
X126992991Y-174976002D01*
X126831637Y-174893788D01*
X126659406Y-174837828D01*
X126480549Y-174809500D01*
X126480546Y-174809500D01*
X126299454Y-174809500D01*
X126299451Y-174809500D01*
X126120593Y-174837828D01*
X125948362Y-174893788D01*
X125787008Y-174976002D01*
X125770821Y-174987763D01*
X125702688Y-175037263D01*
X125644500Y-175056170D01*
X125586309Y-175037263D01*
X125550345Y-174987763D01*
X125545500Y-174957170D01*
X125545500Y-160104169D01*
X125548873Y-160078546D01*
X125550500Y-160072475D01*
X125550500Y-159927525D01*
X125548873Y-159921452D01*
X125545500Y-159895831D01*
X125545500Y-120104169D01*
X125548873Y-120078546D01*
X125550500Y-120072475D01*
X125550500Y-119927525D01*
X125548873Y-119921452D01*
X125545500Y-119895831D01*
X125545500Y-105042829D01*
X125564407Y-104984638D01*
X125613907Y-104948674D01*
X125675093Y-104948674D01*
X125702686Y-104962734D01*
X125787006Y-105023996D01*
X125948361Y-105106211D01*
X126120591Y-105162171D01*
X126192136Y-105173502D01*
X126299451Y-105190500D01*
X126299454Y-105190500D01*
X126480549Y-105190500D01*
X126569977Y-105176335D01*
X126659409Y-105162171D01*
X126831639Y-105106211D01*
X126992994Y-105023996D01*
X127077311Y-104962736D01*
X127135499Y-104943829D01*
X127193690Y-104962736D01*
G37*
%TD.AperFunction*%
%TA.AperFunction,Conductor*%
G36*
X129733690Y-104962736D02*
G01*
X129769654Y-105012236D01*
X129774500Y-105042829D01*
X129774500Y-174957170D01*
X129755593Y-175015361D01*
X129706093Y-175051325D01*
X129644907Y-175051325D01*
X129617313Y-175037265D01*
X129532994Y-174976004D01*
X129532993Y-174976003D01*
X129532991Y-174976002D01*
X129371637Y-174893788D01*
X129199406Y-174837828D01*
X129020549Y-174809500D01*
X129020546Y-174809500D01*
X128839454Y-174809500D01*
X128839451Y-174809500D01*
X128660593Y-174837828D01*
X128488362Y-174893788D01*
X128327008Y-174976002D01*
X128310821Y-174987763D01*
X128242688Y-175037263D01*
X128184500Y-175056170D01*
X128126309Y-175037263D01*
X128090345Y-174987763D01*
X128085500Y-174957170D01*
X128085500Y-105042829D01*
X128104407Y-104984638D01*
X128153907Y-104948674D01*
X128215093Y-104948674D01*
X128242686Y-104962734D01*
X128327006Y-105023996D01*
X128488361Y-105106211D01*
X128660591Y-105162171D01*
X128732136Y-105173502D01*
X128839451Y-105190500D01*
X128839454Y-105190500D01*
X129020549Y-105190500D01*
X129109977Y-105176335D01*
X129199409Y-105162171D01*
X129371639Y-105106211D01*
X129532994Y-105023996D01*
X129617311Y-104962736D01*
X129675499Y-104943829D01*
X129733690Y-104962736D01*
G37*
%TD.AperFunction*%
%TA.AperFunction,Conductor*%
G36*
X132458691Y-100519407D02*
G01*
X132494655Y-100568907D01*
X132499500Y-100599500D01*
X132499500Y-179400500D01*
X132480593Y-179458691D01*
X132431093Y-179494655D01*
X132400500Y-179499500D01*
X102599500Y-179499500D01*
X102541309Y-179480593D01*
X102505345Y-179431093D01*
X102500500Y-179400500D01*
X102500500Y-103949450D01*
X104919500Y-103949450D01*
X104919500Y-104130549D01*
X104947828Y-104309406D01*
X104947829Y-104309409D01*
X105003789Y-104481639D01*
X105086004Y-104642994D01*
X105192447Y-104789501D01*
X105320499Y-104917553D01*
X105467006Y-105023996D01*
X105628361Y-105106211D01*
X105800591Y-105162171D01*
X105872136Y-105173502D01*
X105979451Y-105190500D01*
X105979454Y-105190500D01*
X106160549Y-105190500D01*
X106249977Y-105176335D01*
X106339409Y-105162171D01*
X106511639Y-105106211D01*
X106672994Y-105023996D01*
X106757311Y-104962736D01*
X106815499Y-104943829D01*
X106873690Y-104962736D01*
X106909654Y-105012236D01*
X106914500Y-105042829D01*
X106914500Y-105330500D01*
X106895593Y-105388691D01*
X106846093Y-105424655D01*
X106815500Y-105429500D01*
X105175139Y-105429500D01*
X105175136Y-105429501D01*
X105150009Y-105432414D01*
X105047235Y-105477794D01*
X104967794Y-105557235D01*
X104922414Y-105660011D01*
X104919500Y-105685130D01*
X104919500Y-107474860D01*
X104919501Y-107474863D01*
X104922414Y-107499990D01*
X104939883Y-107539552D01*
X104967794Y-107602765D01*
X105047235Y-107682206D01*
X105150009Y-107727585D01*
X105175135Y-107730500D01*
X105545500Y-107730499D01*
X105603691Y-107749406D01*
X105639655Y-107798906D01*
X105644500Y-107829499D01*
X105644500Y-172284898D01*
X105625593Y-172343089D01*
X105590445Y-172373107D01*
X105467016Y-172435997D01*
X105467009Y-172436001D01*
X105412835Y-172475361D01*
X105320499Y-172542447D01*
X105192447Y-172670499D01*
X105139225Y-172743752D01*
X105086002Y-172817008D01*
X105003788Y-172978362D01*
X104947828Y-173150593D01*
X104919500Y-173329450D01*
X104919500Y-173510549D01*
X104947828Y-173689406D01*
X104947829Y-173689409D01*
X105003789Y-173861639D01*
X105086004Y-174022994D01*
X105192447Y-174169501D01*
X105320499Y-174297553D01*
X105467006Y-174403996D01*
X105628361Y-174486211D01*
X105800591Y-174542171D01*
X105872136Y-174553502D01*
X105979451Y-174570500D01*
X105979454Y-174570500D01*
X106160549Y-174570500D01*
X106249977Y-174556335D01*
X106339409Y-174542171D01*
X106511639Y-174486211D01*
X106672994Y-174403996D01*
X106757311Y-174342736D01*
X106815499Y-174323829D01*
X106873690Y-174342736D01*
X106909654Y-174392236D01*
X106914500Y-174422829D01*
X106914500Y-174957170D01*
X106895593Y-175015361D01*
X106846093Y-175051325D01*
X106784907Y-175051325D01*
X106757313Y-175037265D01*
X106672994Y-174976004D01*
X106672993Y-174976003D01*
X106672991Y-174976002D01*
X106511637Y-174893788D01*
X106339406Y-174837828D01*
X106160549Y-174809500D01*
X106160546Y-174809500D01*
X105979454Y-174809500D01*
X105979451Y-174809500D01*
X105800593Y-174837828D01*
X105628362Y-174893788D01*
X105467008Y-174976002D01*
X105412835Y-175015361D01*
X105320499Y-175082447D01*
X105192447Y-175210499D01*
X105139225Y-175283752D01*
X105086002Y-175357008D01*
X105003788Y-175518362D01*
X104947828Y-175690593D01*
X104919500Y-175869450D01*
X104919500Y-176050549D01*
X104947828Y-176229406D01*
X104989123Y-176356503D01*
X105003789Y-176401639D01*
X105086004Y-176562994D01*
X105192447Y-176709501D01*
X105320499Y-176837553D01*
X105467006Y-176943996D01*
X105628361Y-177026211D01*
X105800591Y-177082171D01*
X105872136Y-177093502D01*
X105979451Y-177110500D01*
X105979454Y-177110500D01*
X106160549Y-177110500D01*
X106249977Y-177096335D01*
X106339409Y-177082171D01*
X106511639Y-177026211D01*
X106672994Y-176943996D01*
X106819501Y-176837553D01*
X106947553Y-176709501D01*
X107053996Y-176562994D01*
X107116892Y-176439553D01*
X107160156Y-176396290D01*
X107205101Y-176385500D01*
X107396017Y-176385500D01*
X107396018Y-176385500D01*
X107441366Y-176373349D01*
X107502465Y-176376550D01*
X107550016Y-176415055D01*
X107555196Y-176424027D01*
X107626004Y-176562994D01*
X107732447Y-176709501D01*
X107860499Y-176837553D01*
X108007006Y-176943996D01*
X108168361Y-177026211D01*
X108340591Y-177082171D01*
X108412136Y-177093502D01*
X108519451Y-177110500D01*
X108519454Y-177110500D01*
X108700549Y-177110500D01*
X108789977Y-177096335D01*
X108879409Y-177082171D01*
X109051639Y-177026211D01*
X109212994Y-176943996D01*
X109359501Y-176837553D01*
X109487553Y-176709501D01*
X109593996Y-176562994D01*
X109656892Y-176439553D01*
X109700156Y-176396290D01*
X109745101Y-176385500D01*
X109936017Y-176385500D01*
X109936018Y-176385500D01*
X109981366Y-176373349D01*
X110042465Y-176376550D01*
X110090016Y-176415055D01*
X110095196Y-176424027D01*
X110166004Y-176562994D01*
X110272447Y-176709501D01*
X110400499Y-176837553D01*
X110547006Y-176943996D01*
X110708361Y-177026211D01*
X110880591Y-177082171D01*
X110952136Y-177093502D01*
X111059451Y-177110500D01*
X111059454Y-177110500D01*
X111240549Y-177110500D01*
X111329977Y-177096335D01*
X111419409Y-177082171D01*
X111591639Y-177026211D01*
X111752994Y-176943996D01*
X111899501Y-176837553D01*
X112027553Y-176709501D01*
X112133996Y-176562994D01*
X112196892Y-176439553D01*
X112240156Y-176396290D01*
X112285101Y-176385500D01*
X112476016Y-176385500D01*
X112476018Y-176385500D01*
X112584237Y-176356503D01*
X112584239Y-176356501D01*
X112584241Y-176356501D01*
X112613064Y-176339859D01*
X112681263Y-176300485D01*
X112760485Y-176221263D01*
X112816503Y-176124237D01*
X112845500Y-176016018D01*
X112845500Y-174422829D01*
X112864407Y-174364638D01*
X112913907Y-174328674D01*
X112975093Y-174328674D01*
X113002686Y-174342734D01*
X113087006Y-174403996D01*
X113248361Y-174486211D01*
X113420591Y-174542171D01*
X113492136Y-174553502D01*
X113599451Y-174570500D01*
X113599454Y-174570500D01*
X113780549Y-174570500D01*
X113869977Y-174556335D01*
X113959409Y-174542171D01*
X114131639Y-174486211D01*
X114292994Y-174403996D01*
X114439501Y-174297553D01*
X114567553Y-174169501D01*
X114673996Y-174022994D01*
X114756211Y-173861639D01*
X114812171Y-173689409D01*
X114840500Y-173510546D01*
X114840500Y-173329454D01*
X114840500Y-173329450D01*
X114812171Y-173150593D01*
X114812171Y-173150591D01*
X114756211Y-172978361D01*
X114673996Y-172817006D01*
X114567553Y-172670499D01*
X114439501Y-172542447D01*
X114292994Y-172436004D01*
X114292990Y-172436001D01*
X114292983Y-172435997D01*
X114169555Y-172373107D01*
X114126290Y-172329843D01*
X114115500Y-172284898D01*
X114115500Y-107715101D01*
X114134407Y-107656910D01*
X114169552Y-107626892D01*
X114292994Y-107563996D01*
X114439501Y-107457553D01*
X114567553Y-107329501D01*
X114673996Y-107182994D01*
X114756211Y-107021639D01*
X114812171Y-106849409D01*
X114840500Y-106670546D01*
X114840500Y-106489454D01*
X114840500Y-106489450D01*
X115079500Y-106489450D01*
X115079500Y-106670549D01*
X115107828Y-106849406D01*
X115107829Y-106849409D01*
X115163789Y-107021639D01*
X115246004Y-107182994D01*
X115352447Y-107329501D01*
X115480499Y-107457553D01*
X115627006Y-107563996D01*
X115750446Y-107626892D01*
X115793710Y-107670156D01*
X115804500Y-107715101D01*
X115804500Y-172284898D01*
X115785593Y-172343089D01*
X115750445Y-172373107D01*
X115627016Y-172435997D01*
X115627009Y-172436001D01*
X115572835Y-172475361D01*
X115480499Y-172542447D01*
X115352447Y-172670499D01*
X115299225Y-172743752D01*
X115246002Y-172817008D01*
X115163788Y-172978362D01*
X115107828Y-173150593D01*
X115079500Y-173329450D01*
X115079500Y-173510549D01*
X115107828Y-173689406D01*
X115107829Y-173689409D01*
X115163789Y-173861639D01*
X115246004Y-174022994D01*
X115352447Y-174169501D01*
X115480499Y-174297553D01*
X115627006Y-174403996D01*
X115788361Y-174486211D01*
X115960591Y-174542171D01*
X116032136Y-174553502D01*
X116139451Y-174570500D01*
X116139454Y-174570500D01*
X116320549Y-174570500D01*
X116409977Y-174556335D01*
X116499409Y-174542171D01*
X116671639Y-174486211D01*
X116832994Y-174403996D01*
X116979501Y-174297553D01*
X117107553Y-174169501D01*
X117213996Y-174022994D01*
X117296211Y-173861639D01*
X117352171Y-173689409D01*
X117380500Y-173510546D01*
X117380500Y-173329454D01*
X117380500Y-173329450D01*
X117352171Y-173150593D01*
X117352171Y-173150591D01*
X117296211Y-172978361D01*
X117213996Y-172817006D01*
X117107553Y-172670499D01*
X116979501Y-172542447D01*
X116832994Y-172436004D01*
X116832990Y-172436001D01*
X116832983Y-172435997D01*
X116709555Y-172373107D01*
X116666290Y-172329843D01*
X116655500Y-172284898D01*
X116655500Y-107715101D01*
X116674407Y-107656910D01*
X116709552Y-107626892D01*
X116832994Y-107563996D01*
X116979501Y-107457553D01*
X117107553Y-107329501D01*
X117213996Y-107182994D01*
X117296211Y-107021639D01*
X117352171Y-106849409D01*
X117380500Y-106670546D01*
X117380500Y-106489454D01*
X117380500Y-106489450D01*
X117619500Y-106489450D01*
X117619500Y-106670549D01*
X117647828Y-106849406D01*
X117647829Y-106849409D01*
X117703789Y-107021639D01*
X117786004Y-107182994D01*
X117892447Y-107329501D01*
X118020499Y-107457553D01*
X118167006Y-107563996D01*
X118290446Y-107626892D01*
X118333710Y-107670156D01*
X118344500Y-107715101D01*
X118344500Y-172284898D01*
X118325593Y-172343089D01*
X118290445Y-172373107D01*
X118167016Y-172435997D01*
X118167009Y-172436001D01*
X118112835Y-172475361D01*
X118020499Y-172542447D01*
X117892447Y-172670499D01*
X117839225Y-172743752D01*
X117786002Y-172817008D01*
X117703788Y-172978362D01*
X117647828Y-173150593D01*
X117619500Y-173329450D01*
X117619500Y-173510549D01*
X117647828Y-173689406D01*
X117647829Y-173689409D01*
X117703789Y-173861639D01*
X117786004Y-174022994D01*
X117892447Y-174169501D01*
X118020499Y-174297553D01*
X118167006Y-174403996D01*
X118328361Y-174486211D01*
X118500591Y-174542171D01*
X118572136Y-174553502D01*
X118679451Y-174570500D01*
X118679454Y-174570500D01*
X118860549Y-174570500D01*
X118949977Y-174556335D01*
X119039409Y-174542171D01*
X119211639Y-174486211D01*
X119372994Y-174403996D01*
X119519501Y-174297553D01*
X119647553Y-174169501D01*
X119753996Y-174022994D01*
X119836211Y-173861639D01*
X119892171Y-173689409D01*
X119920500Y-173510546D01*
X119920500Y-173329454D01*
X119920500Y-173329450D01*
X119892171Y-173150593D01*
X119892171Y-173150591D01*
X119836211Y-172978361D01*
X119753996Y-172817006D01*
X119647553Y-172670499D01*
X119519501Y-172542447D01*
X119372994Y-172436004D01*
X119372990Y-172436001D01*
X119372983Y-172435997D01*
X119249555Y-172373107D01*
X119206290Y-172329843D01*
X119195500Y-172284898D01*
X119195500Y-107715101D01*
X119214407Y-107656910D01*
X119249552Y-107626892D01*
X119372994Y-107563996D01*
X119519501Y-107457553D01*
X119647553Y-107329501D01*
X119753996Y-107182994D01*
X119836211Y-107021639D01*
X119892171Y-106849409D01*
X119920500Y-106670546D01*
X119920500Y-106489454D01*
X119920500Y-106489450D01*
X120159500Y-106489450D01*
X120159500Y-106670549D01*
X120187828Y-106849406D01*
X120187829Y-106849409D01*
X120243789Y-107021639D01*
X120326004Y-107182994D01*
X120432447Y-107329501D01*
X120560499Y-107457553D01*
X120707006Y-107563996D01*
X120830446Y-107626892D01*
X120873710Y-107670156D01*
X120884500Y-107715101D01*
X120884500Y-172284898D01*
X120865593Y-172343089D01*
X120830445Y-172373107D01*
X120707016Y-172435997D01*
X120707009Y-172436001D01*
X120652835Y-172475361D01*
X120560499Y-172542447D01*
X120432447Y-172670499D01*
X120379225Y-172743752D01*
X120326002Y-172817008D01*
X120243788Y-172978362D01*
X120187828Y-173150593D01*
X120159500Y-173329450D01*
X120159500Y-173510549D01*
X120187828Y-173689406D01*
X120187829Y-173689409D01*
X120243789Y-173861639D01*
X120326004Y-174022994D01*
X120432447Y-174169501D01*
X120560499Y-174297553D01*
X120707006Y-174403996D01*
X120868361Y-174486211D01*
X121040591Y-174542171D01*
X121112136Y-174553502D01*
X121219451Y-174570500D01*
X121219454Y-174570500D01*
X121400549Y-174570500D01*
X121489977Y-174556335D01*
X121579409Y-174542171D01*
X121751639Y-174486211D01*
X121912994Y-174403996D01*
X122059501Y-174297553D01*
X122187553Y-174169501D01*
X122293996Y-174022994D01*
X122376211Y-173861639D01*
X122432171Y-173689409D01*
X122460500Y-173510546D01*
X122460500Y-173329454D01*
X122460500Y-173329450D01*
X122432171Y-173150593D01*
X122432171Y-173150591D01*
X122376211Y-172978361D01*
X122293996Y-172817006D01*
X122187553Y-172670499D01*
X122059501Y-172542447D01*
X121912994Y-172436004D01*
X121912990Y-172436001D01*
X121912983Y-172435997D01*
X121789555Y-172373107D01*
X121746290Y-172329843D01*
X121735500Y-172284898D01*
X121735500Y-107715101D01*
X121754407Y-107656910D01*
X121789552Y-107626892D01*
X121912994Y-107563996D01*
X122059501Y-107457553D01*
X122187553Y-107329501D01*
X122293996Y-107182994D01*
X122376211Y-107021639D01*
X122432171Y-106849409D01*
X122460500Y-106670546D01*
X122460500Y-106489454D01*
X122460500Y-106489450D01*
X122432171Y-106310593D01*
X122432171Y-106310591D01*
X122376211Y-106138361D01*
X122293996Y-105977006D01*
X122187553Y-105830499D01*
X122059501Y-105702447D01*
X121912994Y-105596004D01*
X121912993Y-105596003D01*
X121912991Y-105596002D01*
X121751637Y-105513788D01*
X121579406Y-105457828D01*
X121400549Y-105429500D01*
X121400546Y-105429500D01*
X121219454Y-105429500D01*
X121219451Y-105429500D01*
X121040593Y-105457828D01*
X120868362Y-105513788D01*
X120707008Y-105596002D01*
X120652835Y-105635361D01*
X120560499Y-105702447D01*
X120432447Y-105830499D01*
X120379225Y-105903752D01*
X120326002Y-105977008D01*
X120243788Y-106138362D01*
X120187828Y-106310593D01*
X120159500Y-106489450D01*
X119920500Y-106489450D01*
X119892171Y-106310593D01*
X119892171Y-106310591D01*
X119836211Y-106138361D01*
X119753996Y-105977006D01*
X119647553Y-105830499D01*
X119519501Y-105702447D01*
X119372994Y-105596004D01*
X119372993Y-105596003D01*
X119372991Y-105596002D01*
X119211637Y-105513788D01*
X119039406Y-105457828D01*
X118860549Y-105429500D01*
X118860546Y-105429500D01*
X118679454Y-105429500D01*
X118679451Y-105429500D01*
X118500593Y-105457828D01*
X118328362Y-105513788D01*
X118167008Y-105596002D01*
X118112835Y-105635361D01*
X118020499Y-105702447D01*
X117892447Y-105830499D01*
X117839225Y-105903752D01*
X117786002Y-105977008D01*
X117703788Y-106138362D01*
X117647828Y-106310593D01*
X117619500Y-106489450D01*
X117380500Y-106489450D01*
X117352171Y-106310593D01*
X117352171Y-106310591D01*
X117296211Y-106138361D01*
X117213996Y-105977006D01*
X117107553Y-105830499D01*
X116979501Y-105702447D01*
X116832994Y-105596004D01*
X116832993Y-105596003D01*
X116832991Y-105596002D01*
X116671637Y-105513788D01*
X116499406Y-105457828D01*
X116320549Y-105429500D01*
X116320546Y-105429500D01*
X116139454Y-105429500D01*
X116139451Y-105429500D01*
X115960593Y-105457828D01*
X115788362Y-105513788D01*
X115627008Y-105596002D01*
X115572835Y-105635361D01*
X115480499Y-105702447D01*
X115352447Y-105830499D01*
X115299225Y-105903752D01*
X115246002Y-105977008D01*
X115163788Y-106138362D01*
X115107828Y-106310593D01*
X115079500Y-106489450D01*
X114840500Y-106489450D01*
X114812171Y-106310593D01*
X114812171Y-106310591D01*
X114756211Y-106138361D01*
X114673996Y-105977006D01*
X114567553Y-105830499D01*
X114439501Y-105702447D01*
X114292994Y-105596004D01*
X114292993Y-105596003D01*
X114292991Y-105596002D01*
X114131637Y-105513788D01*
X113959406Y-105457828D01*
X113780549Y-105429500D01*
X113780546Y-105429500D01*
X113599454Y-105429500D01*
X113599451Y-105429500D01*
X113420593Y-105457828D01*
X113248362Y-105513788D01*
X113087008Y-105596002D01*
X113070821Y-105607763D01*
X113002688Y-105657263D01*
X112944500Y-105676170D01*
X112886309Y-105657263D01*
X112850345Y-105607763D01*
X112845500Y-105577170D01*
X112845500Y-103983983D01*
X112845500Y-103983982D01*
X112836247Y-103949450D01*
X122699500Y-103949450D01*
X122699500Y-104130549D01*
X122727828Y-104309406D01*
X122727829Y-104309409D01*
X122783789Y-104481639D01*
X122866004Y-104642994D01*
X122972447Y-104789501D01*
X123100499Y-104917553D01*
X123247006Y-105023996D01*
X123408361Y-105106211D01*
X123580591Y-105162171D01*
X123652136Y-105173502D01*
X123759451Y-105190500D01*
X123759454Y-105190500D01*
X123940549Y-105190500D01*
X124029977Y-105176335D01*
X124119409Y-105162171D01*
X124291639Y-105106211D01*
X124452994Y-105023996D01*
X124537311Y-104962736D01*
X124595499Y-104943829D01*
X124653690Y-104962736D01*
X124689654Y-105012236D01*
X124694500Y-105042829D01*
X124694500Y-119485969D01*
X124675593Y-119544160D01*
X124665504Y-119555973D01*
X124661987Y-119559489D01*
X124661985Y-119559491D01*
X124559491Y-119661985D01*
X124559488Y-119661988D01*
X124559487Y-119661989D01*
X124487017Y-119787510D01*
X124487016Y-119787515D01*
X124449500Y-119927525D01*
X124449500Y-120072475D01*
X124476992Y-120175076D01*
X124487017Y-120212489D01*
X124559487Y-120338010D01*
X124559489Y-120338012D01*
X124559491Y-120338015D01*
X124661985Y-120440509D01*
X124661987Y-120440510D01*
X124665504Y-120444027D01*
X124693281Y-120498544D01*
X124694500Y-120514031D01*
X124694500Y-159485969D01*
X124675593Y-159544160D01*
X124665504Y-159555973D01*
X124661987Y-159559489D01*
X124661985Y-159559491D01*
X124559491Y-159661985D01*
X124559488Y-159661988D01*
X124559487Y-159661989D01*
X124487017Y-159787510D01*
X124487016Y-159787515D01*
X124449500Y-159927525D01*
X124449500Y-160072475D01*
X124476992Y-160175076D01*
X124487017Y-160212489D01*
X124559487Y-160338010D01*
X124559489Y-160338012D01*
X124559491Y-160338015D01*
X124661985Y-160440509D01*
X124661987Y-160440510D01*
X124665504Y-160444027D01*
X124693281Y-160498544D01*
X124694500Y-160514031D01*
X124694500Y-174957170D01*
X124675593Y-175015361D01*
X124626093Y-175051325D01*
X124564907Y-175051325D01*
X124537313Y-175037265D01*
X124452994Y-174976004D01*
X124452993Y-174976003D01*
X124452991Y-174976002D01*
X124291637Y-174893788D01*
X124119406Y-174837828D01*
X123940549Y-174809500D01*
X123940546Y-174809500D01*
X123759454Y-174809500D01*
X123759451Y-174809500D01*
X123580593Y-174837828D01*
X123408362Y-174893788D01*
X123247008Y-174976002D01*
X123192835Y-175015361D01*
X123100499Y-175082447D01*
X122972447Y-175210499D01*
X122919225Y-175283752D01*
X122866002Y-175357008D01*
X122783788Y-175518362D01*
X122727828Y-175690593D01*
X122699500Y-175869450D01*
X122699500Y-176050549D01*
X122727828Y-176229406D01*
X122769123Y-176356503D01*
X122783789Y-176401639D01*
X122866004Y-176562994D01*
X122972447Y-176709501D01*
X123100499Y-176837553D01*
X123247006Y-176943996D01*
X123408361Y-177026211D01*
X123580591Y-177082171D01*
X123652136Y-177093502D01*
X123759451Y-177110500D01*
X123759454Y-177110500D01*
X123940549Y-177110500D01*
X124029977Y-177096335D01*
X124119409Y-177082171D01*
X124291639Y-177026211D01*
X124452994Y-176943996D01*
X124599501Y-176837553D01*
X124727553Y-176709501D01*
X124833996Y-176562994D01*
X124896892Y-176439553D01*
X124940156Y-176396290D01*
X124985101Y-176385500D01*
X125176017Y-176385500D01*
X125176018Y-176385500D01*
X125221366Y-176373349D01*
X125282465Y-176376550D01*
X125330016Y-176415055D01*
X125335196Y-176424027D01*
X125406004Y-176562994D01*
X125512447Y-176709501D01*
X125640499Y-176837553D01*
X125787006Y-176943996D01*
X125948361Y-177026211D01*
X126120591Y-177082171D01*
X126192136Y-177093502D01*
X126299451Y-177110500D01*
X126299454Y-177110500D01*
X126480549Y-177110500D01*
X126569977Y-177096335D01*
X126659409Y-177082171D01*
X126831639Y-177026211D01*
X126992994Y-176943996D01*
X127139501Y-176837553D01*
X127267553Y-176709501D01*
X127373996Y-176562994D01*
X127436892Y-176439553D01*
X127480156Y-176396290D01*
X127525101Y-176385500D01*
X127716017Y-176385500D01*
X127716018Y-176385500D01*
X127761366Y-176373349D01*
X127822465Y-176376550D01*
X127870016Y-176415055D01*
X127875196Y-176424027D01*
X127946004Y-176562994D01*
X128052447Y-176709501D01*
X128180499Y-176837553D01*
X128327006Y-176943996D01*
X128488361Y-177026211D01*
X128660591Y-177082171D01*
X128732136Y-177093502D01*
X128839451Y-177110500D01*
X128839454Y-177110500D01*
X129020549Y-177110500D01*
X129109977Y-177096335D01*
X129199409Y-177082171D01*
X129371639Y-177026211D01*
X129532994Y-176943996D01*
X129679501Y-176837553D01*
X129807553Y-176709501D01*
X129913996Y-176562994D01*
X129976892Y-176439553D01*
X130020156Y-176396290D01*
X130065101Y-176385500D01*
X130256016Y-176385500D01*
X130256018Y-176385500D01*
X130364237Y-176356503D01*
X130364239Y-176356501D01*
X130364241Y-176356501D01*
X130393064Y-176339859D01*
X130461263Y-176300485D01*
X130540485Y-176221263D01*
X130596503Y-176124237D01*
X130625500Y-176016018D01*
X130625500Y-103983982D01*
X130596503Y-103875763D01*
X130596501Y-103875760D01*
X130596501Y-103875758D01*
X130540486Y-103778739D01*
X130540485Y-103778737D01*
X130461263Y-103699515D01*
X130461260Y-103699513D01*
X130364240Y-103643498D01*
X130364242Y-103643498D01*
X130301366Y-103626651D01*
X130256018Y-103614500D01*
X130256016Y-103614500D01*
X130065101Y-103614500D01*
X130006910Y-103595593D01*
X129976892Y-103560447D01*
X129913996Y-103437006D01*
X129807553Y-103290499D01*
X129679501Y-103162447D01*
X129532994Y-103056004D01*
X129532993Y-103056003D01*
X129532991Y-103056002D01*
X129371637Y-102973788D01*
X129199406Y-102917828D01*
X129020549Y-102889500D01*
X129020546Y-102889500D01*
X128839454Y-102889500D01*
X128839451Y-102889500D01*
X128660593Y-102917828D01*
X128488362Y-102973788D01*
X128327008Y-103056002D01*
X128253752Y-103109225D01*
X128180499Y-103162447D01*
X128052447Y-103290499D01*
X128009869Y-103349101D01*
X127946001Y-103437009D01*
X127945997Y-103437016D01*
X127875197Y-103575969D01*
X127831933Y-103619234D01*
X127771501Y-103628805D01*
X127761372Y-103626652D01*
X127716018Y-103614500D01*
X127716016Y-103614500D01*
X127525101Y-103614500D01*
X127466910Y-103595593D01*
X127436892Y-103560447D01*
X127373996Y-103437006D01*
X127267553Y-103290499D01*
X127139501Y-103162447D01*
X126992994Y-103056004D01*
X126992993Y-103056003D01*
X126992991Y-103056002D01*
X126831637Y-102973788D01*
X126659406Y-102917828D01*
X126480549Y-102889500D01*
X126480546Y-102889500D01*
X126299454Y-102889500D01*
X126299451Y-102889500D01*
X126120593Y-102917828D01*
X125948362Y-102973788D01*
X125787008Y-103056002D01*
X125713752Y-103109225D01*
X125640499Y-103162447D01*
X125512447Y-103290499D01*
X125469869Y-103349101D01*
X125406001Y-103437009D01*
X125405997Y-103437016D01*
X125335197Y-103575969D01*
X125291933Y-103619234D01*
X125231501Y-103628805D01*
X125221372Y-103626652D01*
X125176018Y-103614500D01*
X125176016Y-103614500D01*
X124985101Y-103614500D01*
X124926910Y-103595593D01*
X124896892Y-103560447D01*
X124833996Y-103437006D01*
X124727553Y-103290499D01*
X124599501Y-103162447D01*
X124452994Y-103056004D01*
X124452993Y-103056003D01*
X124452991Y-103056002D01*
X124291637Y-102973788D01*
X124119406Y-102917828D01*
X123940549Y-102889500D01*
X123940546Y-102889500D01*
X123759454Y-102889500D01*
X123759451Y-102889500D01*
X123580593Y-102917828D01*
X123408362Y-102973788D01*
X123247008Y-103056002D01*
X123173752Y-103109225D01*
X123100499Y-103162447D01*
X122972447Y-103290499D01*
X122919225Y-103363752D01*
X122866002Y-103437008D01*
X122783788Y-103598362D01*
X122727828Y-103770593D01*
X122699500Y-103949450D01*
X112836247Y-103949450D01*
X112816503Y-103875763D01*
X112816501Y-103875760D01*
X112816501Y-103875758D01*
X112760486Y-103778739D01*
X112760485Y-103778737D01*
X112681263Y-103699515D01*
X112681260Y-103699513D01*
X112584240Y-103643498D01*
X112584242Y-103643498D01*
X112521366Y-103626651D01*
X112476018Y-103614500D01*
X112476016Y-103614500D01*
X112285101Y-103614500D01*
X112226910Y-103595593D01*
X112196892Y-103560447D01*
X112133996Y-103437006D01*
X112027553Y-103290499D01*
X111899501Y-103162447D01*
X111752994Y-103056004D01*
X111752993Y-103056003D01*
X111752991Y-103056002D01*
X111591637Y-102973788D01*
X111419406Y-102917828D01*
X111240549Y-102889500D01*
X111240546Y-102889500D01*
X111059454Y-102889500D01*
X111059451Y-102889500D01*
X110880593Y-102917828D01*
X110708362Y-102973788D01*
X110547008Y-103056002D01*
X110473752Y-103109225D01*
X110400499Y-103162447D01*
X110272447Y-103290499D01*
X110229869Y-103349101D01*
X110166001Y-103437009D01*
X110165997Y-103437016D01*
X110095197Y-103575969D01*
X110051933Y-103619234D01*
X109991501Y-103628805D01*
X109981372Y-103626652D01*
X109936018Y-103614500D01*
X109936016Y-103614500D01*
X109745101Y-103614500D01*
X109686910Y-103595593D01*
X109656892Y-103560447D01*
X109593996Y-103437006D01*
X109487553Y-103290499D01*
X109359501Y-103162447D01*
X109212994Y-103056004D01*
X109212993Y-103056003D01*
X109212991Y-103056002D01*
X109051637Y-102973788D01*
X108879406Y-102917828D01*
X108700549Y-102889500D01*
X108700546Y-102889500D01*
X108519454Y-102889500D01*
X108519451Y-102889500D01*
X108340593Y-102917828D01*
X108168362Y-102973788D01*
X108007008Y-103056002D01*
X107933752Y-103109225D01*
X107860499Y-103162447D01*
X107732447Y-103290499D01*
X107689869Y-103349101D01*
X107626001Y-103437009D01*
X107625997Y-103437016D01*
X107555197Y-103575969D01*
X107511933Y-103619234D01*
X107451501Y-103628805D01*
X107441372Y-103626652D01*
X107396018Y-103614500D01*
X107396016Y-103614500D01*
X107205101Y-103614500D01*
X107146910Y-103595593D01*
X107116892Y-103560447D01*
X107053996Y-103437006D01*
X106947553Y-103290499D01*
X106819501Y-103162447D01*
X106672994Y-103056004D01*
X106672993Y-103056003D01*
X106672991Y-103056002D01*
X106511637Y-102973788D01*
X106339406Y-102917828D01*
X106160549Y-102889500D01*
X106160546Y-102889500D01*
X105979454Y-102889500D01*
X105979451Y-102889500D01*
X105800593Y-102917828D01*
X105628362Y-102973788D01*
X105467008Y-103056002D01*
X105393752Y-103109225D01*
X105320499Y-103162447D01*
X105192447Y-103290499D01*
X105139225Y-103363752D01*
X105086002Y-103437008D01*
X105003788Y-103598362D01*
X104947828Y-103770593D01*
X104919500Y-103949450D01*
X102500500Y-103949450D01*
X102500500Y-100599500D01*
X102519407Y-100541309D01*
X102568907Y-100505345D01*
X102599500Y-100500500D01*
X132400500Y-100500500D01*
X132458691Y-100519407D01*
G37*
%TD.AperFunction*%
%TD*%
%TA.AperFunction,NonConductor*%
G36*
X111953690Y-104962736D02*
G01*
X111989654Y-105012236D01*
X111994500Y-105042829D01*
X111994500Y-105577170D01*
X111975593Y-105635361D01*
X111926093Y-105671325D01*
X111864907Y-105671325D01*
X111837313Y-105657265D01*
X111752994Y-105596004D01*
X111752993Y-105596003D01*
X111752991Y-105596002D01*
X111591637Y-105513788D01*
X111419406Y-105457828D01*
X111240549Y-105429500D01*
X111240546Y-105429500D01*
X111059454Y-105429500D01*
X111059451Y-105429500D01*
X110880593Y-105457828D01*
X110708362Y-105513788D01*
X110547008Y-105596002D01*
X110530821Y-105607763D01*
X110462688Y-105657263D01*
X110404500Y-105676170D01*
X110346309Y-105657263D01*
X110310345Y-105607763D01*
X110305500Y-105577170D01*
X110305500Y-105042829D01*
X110324407Y-104984638D01*
X110373907Y-104948674D01*
X110435093Y-104948674D01*
X110462686Y-104962734D01*
X110547006Y-105023996D01*
X110708361Y-105106211D01*
X110880591Y-105162171D01*
X110952136Y-105173502D01*
X111059451Y-105190500D01*
X111059454Y-105190500D01*
X111240549Y-105190500D01*
X111329977Y-105176335D01*
X111419409Y-105162171D01*
X111591639Y-105106211D01*
X111752994Y-105023996D01*
X111837311Y-104962736D01*
X111895499Y-104943829D01*
X111953690Y-104962736D01*
G37*
%TD.AperFunction*%
%TA.AperFunction,NonConductor*%
G36*
X109413690Y-104962736D02*
G01*
X109449654Y-105012236D01*
X109454500Y-105042829D01*
X109454500Y-105577170D01*
X109435593Y-105635361D01*
X109386093Y-105671325D01*
X109324907Y-105671325D01*
X109297313Y-105657265D01*
X109212994Y-105596004D01*
X109212993Y-105596003D01*
X109212991Y-105596002D01*
X109051637Y-105513788D01*
X108879406Y-105457828D01*
X108700549Y-105429500D01*
X108700546Y-105429500D01*
X108519454Y-105429500D01*
X108519451Y-105429500D01*
X108340593Y-105457828D01*
X108168362Y-105513788D01*
X108007008Y-105596002D01*
X107990821Y-105607763D01*
X107922688Y-105657263D01*
X107864500Y-105676170D01*
X107806309Y-105657263D01*
X107770345Y-105607763D01*
X107765500Y-105577170D01*
X107765500Y-105042829D01*
X107784407Y-104984638D01*
X107833907Y-104948674D01*
X107895093Y-104948674D01*
X107922686Y-104962734D01*
X108007006Y-105023996D01*
X108168361Y-105106211D01*
X108340591Y-105162171D01*
X108412136Y-105173502D01*
X108519451Y-105190500D01*
X108519454Y-105190500D01*
X108700549Y-105190500D01*
X108789977Y-105176335D01*
X108879409Y-105162171D01*
X109051639Y-105106211D01*
X109212994Y-105023996D01*
X109297311Y-104962736D01*
X109355499Y-104943829D01*
X109413690Y-104962736D01*
G37*
%TD.AperFunction*%
%TA.AperFunction,NonConductor*%
G36*
X110419412Y-107488674D02*
G01*
X110435093Y-107488674D01*
X110462686Y-107502734D01*
X110547006Y-107563996D01*
X110670446Y-107626892D01*
X110713710Y-107670156D01*
X110724500Y-107715101D01*
X110724500Y-119824923D01*
X110705593Y-119883114D01*
X110656093Y-119919078D01*
X110594907Y-119919078D01*
X110545407Y-119883114D01*
X110529874Y-119850549D01*
X110512984Y-119787515D01*
X110512981Y-119787509D01*
X110440512Y-119661989D01*
X110440510Y-119661987D01*
X110440509Y-119661985D01*
X110338015Y-119559491D01*
X110338012Y-119559489D01*
X110334496Y-119555973D01*
X110306719Y-119501456D01*
X110305500Y-119485969D01*
X110305500Y-107582829D01*
X110310345Y-107567915D01*
X110310346Y-107552236D01*
X110319561Y-107539552D01*
X110324407Y-107524638D01*
X110337094Y-107515419D01*
X110346310Y-107502736D01*
X110361220Y-107497891D01*
X110373907Y-107488674D01*
X110389589Y-107488674D01*
X110404501Y-107483829D01*
X110419412Y-107488674D01*
G37*
%TD.AperFunction*%
%TA.AperFunction,NonConductor*%
G36*
X110679419Y-120092048D02*
G01*
X110717925Y-120139598D01*
X110724500Y-120175076D01*
X110724500Y-159824923D01*
X110705593Y-159883114D01*
X110656093Y-159919078D01*
X110594907Y-159919078D01*
X110545407Y-159883114D01*
X110529874Y-159850549D01*
X110512984Y-159787515D01*
X110512981Y-159787509D01*
X110440512Y-159661989D01*
X110440510Y-159661987D01*
X110440509Y-159661985D01*
X110338015Y-159559491D01*
X110338012Y-159559489D01*
X110334496Y-159555973D01*
X110306719Y-159501456D01*
X110305500Y-159485969D01*
X110305500Y-120514031D01*
X110324407Y-120455840D01*
X110334496Y-120444027D01*
X110338012Y-120440510D01*
X110338015Y-120440509D01*
X110440509Y-120338015D01*
X110512984Y-120212485D01*
X110529873Y-120149451D01*
X110563197Y-120098138D01*
X110620319Y-120076212D01*
X110679419Y-120092048D01*
G37*
%TD.AperFunction*%
%TA.AperFunction,NonConductor*%
G36*
X111953690Y-107502736D02*
G01*
X111989654Y-107552236D01*
X111994500Y-107582829D01*
X111994500Y-172417170D01*
X111975593Y-172475361D01*
X111926093Y-172511325D01*
X111864907Y-172511325D01*
X111837313Y-172497265D01*
X111752994Y-172436004D01*
X111752990Y-172436001D01*
X111752983Y-172435997D01*
X111629555Y-172373107D01*
X111586290Y-172329843D01*
X111575500Y-172284898D01*
X111575500Y-107715101D01*
X111594407Y-107656910D01*
X111629552Y-107626892D01*
X111752994Y-107563996D01*
X111837311Y-107502736D01*
X111895499Y-107483829D01*
X111953690Y-107502736D01*
G37*
%TD.AperFunction*%
%TA.AperFunction,NonConductor*%
G36*
X109413690Y-107502736D02*
G01*
X109449654Y-107552236D01*
X109454500Y-107582829D01*
X109454500Y-119895831D01*
X109451127Y-119921452D01*
X109449500Y-119927522D01*
X109449500Y-119927525D01*
X109449500Y-120072475D01*
X109451127Y-120078546D01*
X109454500Y-120104169D01*
X109454500Y-159895831D01*
X109451127Y-159921452D01*
X109449500Y-159927522D01*
X109449500Y-159927525D01*
X109449500Y-160072475D01*
X109451127Y-160078546D01*
X109454500Y-160104169D01*
X109454500Y-172417170D01*
X109435593Y-172475361D01*
X109386093Y-172511325D01*
X109324907Y-172511325D01*
X109297313Y-172497265D01*
X109212994Y-172436004D01*
X109212990Y-172436001D01*
X109212983Y-172435997D01*
X109089555Y-172373107D01*
X109046290Y-172329843D01*
X109035500Y-172284898D01*
X109035500Y-107715101D01*
X109054407Y-107656910D01*
X109089552Y-107626892D01*
X109212994Y-107563996D01*
X109297311Y-107502736D01*
X109355499Y-107483829D01*
X109413690Y-107502736D01*
G37*
%TD.AperFunction*%
%TA.AperFunction,NonConductor*%
G36*
X106873691Y-107749406D02*
G01*
X106909655Y-107798906D01*
X106914500Y-107829499D01*
X106914500Y-172417170D01*
X106895593Y-172475361D01*
X106846093Y-172511325D01*
X106784907Y-172511325D01*
X106757313Y-172497265D01*
X106672994Y-172436004D01*
X106672990Y-172436001D01*
X106672983Y-172435997D01*
X106549555Y-172373107D01*
X106506290Y-172329843D01*
X106495500Y-172284898D01*
X106495500Y-107829499D01*
X106514407Y-107771308D01*
X106563907Y-107735344D01*
X106594500Y-107730499D01*
X106815500Y-107730499D01*
X106873691Y-107749406D01*
G37*
%TD.AperFunction*%
%TA.AperFunction,NonConductor*%
G36*
X112959412Y-107488674D02*
G01*
X112975093Y-107488674D01*
X113002686Y-107502734D01*
X113087006Y-107563996D01*
X113210446Y-107626892D01*
X113253710Y-107670156D01*
X113264500Y-107715101D01*
X113264500Y-172284898D01*
X113245593Y-172343089D01*
X113210445Y-172373107D01*
X113087016Y-172435997D01*
X113087009Y-172436001D01*
X113046626Y-172465341D01*
X113002688Y-172497263D01*
X112944500Y-172516170D01*
X112886309Y-172497263D01*
X112850345Y-172447763D01*
X112845500Y-172417170D01*
X112845500Y-107582829D01*
X112850345Y-107567915D01*
X112850346Y-107552236D01*
X112859561Y-107539552D01*
X112864407Y-107524638D01*
X112877094Y-107515419D01*
X112886310Y-107502736D01*
X112901220Y-107497891D01*
X112913907Y-107488674D01*
X112929589Y-107488674D01*
X112944501Y-107483829D01*
X112959412Y-107488674D01*
G37*
%TD.AperFunction*%
%TA.AperFunction,NonConductor*%
G36*
X110679419Y-160092048D02*
G01*
X110717925Y-160139598D01*
X110724500Y-160175076D01*
X110724500Y-172284898D01*
X110705593Y-172343089D01*
X110670445Y-172373107D01*
X110547016Y-172435997D01*
X110547009Y-172436001D01*
X110506626Y-172465341D01*
X110462688Y-172497263D01*
X110404500Y-172516170D01*
X110346309Y-172497263D01*
X110310345Y-172447763D01*
X110305500Y-172417170D01*
X110305500Y-160514031D01*
X110324407Y-160455840D01*
X110334496Y-160444027D01*
X110338012Y-160440510D01*
X110338015Y-160440509D01*
X110440509Y-160338015D01*
X110512984Y-160212485D01*
X110529873Y-160149451D01*
X110563197Y-160098138D01*
X110620319Y-160076212D01*
X110679419Y-160092048D01*
G37*
%TD.AperFunction*%
%TA.AperFunction,NonConductor*%
G36*
X107879412Y-107488674D02*
G01*
X107895093Y-107488674D01*
X107922686Y-107502734D01*
X108007006Y-107563996D01*
X108130446Y-107626892D01*
X108173710Y-107670156D01*
X108184500Y-107715101D01*
X108184500Y-172284898D01*
X108165593Y-172343089D01*
X108130445Y-172373107D01*
X108007016Y-172435997D01*
X108007009Y-172436001D01*
X107966626Y-172465341D01*
X107922688Y-172497263D01*
X107864500Y-172516170D01*
X107806309Y-172497263D01*
X107770345Y-172447763D01*
X107765500Y-172417170D01*
X107765500Y-107582829D01*
X107770345Y-107567915D01*
X107770346Y-107552236D01*
X107779561Y-107539552D01*
X107784407Y-107524638D01*
X107797094Y-107515419D01*
X107806310Y-107502736D01*
X107821220Y-107497891D01*
X107833907Y-107488674D01*
X107849589Y-107488674D01*
X107864501Y-107483829D01*
X107879412Y-107488674D01*
G37*
%TD.AperFunction*%
%TA.AperFunction,NonConductor*%
G36*
X111953690Y-174342736D02*
G01*
X111989654Y-174392236D01*
X111994500Y-174422829D01*
X111994500Y-174957170D01*
X111975593Y-175015361D01*
X111926093Y-175051325D01*
X111864907Y-175051325D01*
X111837313Y-175037265D01*
X111752994Y-174976004D01*
X111752993Y-174976003D01*
X111752991Y-174976002D01*
X111591637Y-174893788D01*
X111419406Y-174837828D01*
X111240549Y-174809500D01*
X111240546Y-174809500D01*
X111059454Y-174809500D01*
X111059451Y-174809500D01*
X110880593Y-174837828D01*
X110708362Y-174893788D01*
X110547008Y-174976002D01*
X110530821Y-174987763D01*
X110462688Y-175037263D01*
X110404500Y-175056170D01*
X110346309Y-175037263D01*
X110310345Y-174987763D01*
X110305500Y-174957170D01*
X110305500Y-174422829D01*
X110324407Y-174364638D01*
X110373907Y-174328674D01*
X110435093Y-174328674D01*
X110462686Y-174342734D01*
X110547006Y-174403996D01*
X110708361Y-174486211D01*
X110880591Y-174542171D01*
X110952136Y-174553502D01*
X111059451Y-174570500D01*
X111059454Y-174570500D01*
X111240549Y-174570500D01*
X111329977Y-174556335D01*
X111419409Y-174542171D01*
X111591639Y-174486211D01*
X111752994Y-174403996D01*
X111837311Y-174342736D01*
X111895499Y-174323829D01*
X111953690Y-174342736D01*
G37*
%TD.AperFunction*%
%TA.AperFunction,NonConductor*%
G36*
X109413690Y-174342736D02*
G01*
X109449654Y-174392236D01*
X109454500Y-174422829D01*
X109454500Y-174957170D01*
X109435593Y-175015361D01*
X109386093Y-175051325D01*
X109324907Y-175051325D01*
X109297313Y-175037265D01*
X109212994Y-174976004D01*
X109212993Y-174976003D01*
X109212991Y-174976002D01*
X109051637Y-174893788D01*
X108879406Y-174837828D01*
X108700549Y-174809500D01*
X108700546Y-174809500D01*
X108519454Y-174809500D01*
X108519451Y-174809500D01*
X108340593Y-174837828D01*
X108168362Y-174893788D01*
X108007008Y-174976002D01*
X107990821Y-174987763D01*
X107922688Y-175037263D01*
X107864500Y-175056170D01*
X107806309Y-175037263D01*
X107770345Y-174987763D01*
X107765500Y-174957170D01*
X107765500Y-174422829D01*
X107784407Y-174364638D01*
X107833907Y-174328674D01*
X107895093Y-174328674D01*
X107922686Y-174342734D01*
X108007006Y-174403996D01*
X108168361Y-174486211D01*
X108340591Y-174542171D01*
X108412136Y-174553502D01*
X108519451Y-174570500D01*
X108519454Y-174570500D01*
X108700549Y-174570500D01*
X108789977Y-174556335D01*
X108879409Y-174542171D01*
X109051639Y-174486211D01*
X109212994Y-174403996D01*
X109297311Y-174342736D01*
X109355499Y-174323829D01*
X109413690Y-174342736D01*
G37*
%TD.AperFunction*%
M02*
