M48
; DRILL file KiCad 10.0.3 date 2026-07-11T14:09:26
; FORMAT={-:-/ absolute / metric / decimal}
; #@! TF.CreationDate,2026-07-11T14:09:26+02:00
; #@! TF.GenerationSoftware,Kicad,Pcbnew,10.0.3
; #@! TF.FileFunction,Plated,1,2,PTH
FMAT,2
METRIC
; #@! TA.AperFunction,Plated,PTH,ViaDrill
T1C0.300
; #@! TA.AperFunction,Plated,PTH,ComponentDrill
T2C1.000
%
G90
G05
T1
X104.0Y-102.0
X104.0Y-140.0
X104.0Y-178.0
X110.0Y-120.0
X110.0Y-160.0
X117.5Y-140.0
X125.0Y-120.0
X125.0Y-160.0
X131.0Y-102.0
X131.0Y-140.0
X131.0Y-178.0
T2
X106.07Y-104.04
X106.07Y-106.58
X106.07Y-173.42
X106.07Y-175.96
X108.61Y-104.04
X108.61Y-106.58
X108.61Y-173.42
X108.61Y-175.96
X111.15Y-104.04
X111.15Y-106.58
X111.15Y-173.42
X111.15Y-175.96
X113.69Y-104.04
X113.69Y-106.58
X113.69Y-173.42
X113.69Y-175.96
X116.23Y-104.04
X116.23Y-106.58
X116.23Y-173.42
X116.23Y-175.96
X118.77Y-104.04
X118.77Y-106.58
X118.77Y-173.42
X118.77Y-175.96
X121.31Y-104.04
X121.31Y-106.58
X121.31Y-173.42
X121.31Y-175.96
X123.85Y-104.04
X123.85Y-106.58
X123.85Y-173.42
X123.85Y-175.96
X126.39Y-104.04
X126.39Y-106.58
X126.39Y-173.42
X126.39Y-175.96
X128.93Y-104.04
X128.93Y-106.58
X128.93Y-173.42
X128.93Y-175.96
M30
