M48
; DRILL file KiCad 10.0.3 date 2026-07-08T12:05:23
; FORMAT={-:-/ absolute / metric / decimal}
; #@! TF.CreationDate,2026-07-08T12:05:23+02:00
; #@! TF.GenerationSoftware,Kicad,Pcbnew,10.0.3
; #@! TF.FileFunction,Plated,1,2,PTH
FMAT,2
METRIC
; #@! TA.AperFunction,Plated,PTH,ViaDrill
T1C0.300
; #@! TA.AperFunction,Plated,PTH,ComponentDrill
T2C1.000
%
G90
G05
T1
X102.0Y-102.0
X102.0Y-130.0
X102.0Y-152.0
X102.0Y-178.0
X105.0Y-120.0
X106.9Y-171.4
X107.0Y-131.0
X107.0Y-145.0
X109.3Y-160.0
X110.0Y-178.0
X111.1Y-171.4
X111.11Y-124.0
X111.7Y-170.9
X112.3Y-170.2
X112.9Y-169.4
X113.65Y-122.4
X114.92Y-169.4
X115.5Y-130.5
X116.19Y-120.8
X116.19Y-170.2
X116.75Y-121.6
X117.75Y-123.2
X118.73Y-119.2
X118.75Y-120.0
X119.75Y-118.4
X120.0Y-103.0
X120.0Y-155.0
X120.2Y-142.6
X120.75Y-119.2
X121.27Y-118.4
X121.75Y-120.8
X122.0Y-142.6
X122.75Y-122.4
X123.75Y-124.0
X123.81Y-120.0
X123.81Y-170.9
X124.6Y-130.5
X126.35Y-123.2
X127.4Y-136.5
X127.62Y-160.0
X127.9Y-132.0
X127.9Y-135.0
X128.3Y-138.05
X128.4Y-133.625
X128.89Y-121.6
X133.0Y-124.0
X137.8Y-136.5
X138.0Y-102.0
X138.0Y-178.0
X138.6Y-152.0
X139.0Y-126.0
T2
X104.5Y-160.0
X104.5Y-162.54
X104.5Y-165.08
X108.57Y-106.58
X108.57Y-173.42
X108.57Y-175.96
X111.11Y-106.58
X111.11Y-173.42
X111.11Y-175.96
X113.65Y-106.58
X113.65Y-173.42
X113.65Y-175.96
X116.19Y-106.58
X116.19Y-173.42
X116.19Y-175.96
X118.73Y-106.58
X118.73Y-173.42
X118.73Y-175.96
X121.27Y-106.58
X121.27Y-173.42
X121.27Y-175.96
X123.81Y-106.58
X123.81Y-173.42
X123.81Y-175.96
X126.35Y-106.58
X126.35Y-173.42
X126.35Y-175.96
X128.89Y-106.58
X128.89Y-173.42
X128.89Y-175.96
X131.43Y-106.58
X131.43Y-173.42
X131.43Y-175.96
M30
