%TF.GenerationSoftware,KiCad,Pcbnew,10.0.3*%
%TF.CreationDate,2026-07-11T12:19:42+02:00*%
%TF.ProjectId,musicbrain-adc8,6d757369-6362-4726-9169-6e2d61646338,1.2*%
%TF.SameCoordinates,Original*%
%TF.FileFunction,Copper,L2,Bot*%
%TF.FilePolarity,Positive*%
%FSLAX46Y46*%
G04 Gerber Fmt 4.6, Leading zero omitted, Abs format (unit mm)*
G04 Created by KiCad (PCBNEW 10.0.3) date 2026-07-11 12:19:42*
%MOMM*%
%LPD*%
G01*
G04 APERTURE LIST*
%TA.AperFunction,ComponentPad*%
%ADD10R,1.700000X1.700000*%
%TD*%
%TA.AperFunction,ComponentPad*%
%ADD11C,1.700000*%
%TD*%
%TA.AperFunction,ViaPad*%
%ADD12C,0.500000*%
%TD*%
%TA.AperFunction,Conductor*%
%ADD13C,0.250000*%
%TD*%
G04 APERTURE END LIST*
D10*
%TO.P,J1,1*%
%TO.N,GND*%
X131430000Y-173420000D03*
D11*
%TO.P,J1,2*%
%TO.N,+12V*%
X131430000Y-175960000D03*
%TO.P,J1,3*%
%TO.N,GND*%
X128890000Y-173420000D03*
%TO.P,J1,4*%
%TO.N,N/C*%
X128890000Y-175960000D03*
%TO.P,J1,5*%
%TO.N,GND*%
X126350000Y-173420000D03*
%TO.P,J1,6*%
%TO.N,+3V3*%
X126350000Y-175960000D03*
%TO.P,J1,7*%
%TO.N,/SCLK*%
X123810000Y-173420000D03*
%TO.P,J1,8*%
%TO.N,GND*%
X123810000Y-175960000D03*
%TO.P,J1,9*%
%TO.N,N/C*%
X121270000Y-173420000D03*
%TO.P,J1,10*%
%TO.N,GND*%
X121270000Y-175960000D03*
%TO.P,J1,11*%
%TO.N,/MISO*%
X118730000Y-173420000D03*
%TO.P,J1,12*%
%TO.N,GND*%
X118730000Y-175960000D03*
%TO.P,J1,13*%
%TO.N,/CS*%
X116190000Y-173420000D03*
%TO.P,J1,14*%
%TO.N,GND*%
X116190000Y-175960000D03*
%TO.P,J1,15*%
%TO.N,N/C*%
X113650000Y-173420000D03*
%TO.P,J1,16*%
%TO.N,/IRQ*%
X113650000Y-175960000D03*
%TO.P,J1,17*%
%TO.N,N/C*%
X111110000Y-173420000D03*
%TO.P,J1,18*%
X111110000Y-175960000D03*
%TO.P,J1,19*%
%TO.N,/CONVST*%
X108570000Y-173420000D03*
%TO.P,J1,20*%
%TO.N,/RESET*%
X108570000Y-175960000D03*
%TD*%
D10*
%TO.P,J2,1*%
%TO.N,GND*%
X108570000Y-106580000D03*
D11*
%TO.P,J2,2*%
%TO.N,/IN1*%
X111110000Y-106580000D03*
%TO.P,J2,3*%
%TO.N,/IN2*%
X113650000Y-106580000D03*
%TO.P,J2,4*%
%TO.N,/IN3*%
X116190000Y-106580000D03*
%TO.P,J2,5*%
%TO.N,/IN4*%
X118730000Y-106580000D03*
%TO.P,J2,6*%
%TO.N,/IN5*%
X121270000Y-106580000D03*
%TO.P,J2,7*%
%TO.N,/IN6*%
X123810000Y-106580000D03*
%TO.P,J2,8*%
%TO.N,/IN7*%
X126350000Y-106580000D03*
%TO.P,J2,9*%
%TO.N,/IN8*%
X128890000Y-106580000D03*
%TO.P,J2,10*%
%TO.N,GND*%
X131430000Y-106580000D03*
%TD*%
D10*
%TO.P,JP1,1*%
%TO.N,+3V3*%
X104500000Y-160000000D03*
D11*
%TO.P,JP1,2*%
%TO.N,/RANGE*%
X104500000Y-162540000D03*
%TO.P,JP1,3*%
%TO.N,GND*%
X104500000Y-165080000D03*
%TD*%
D12*
%TO.N,/RESET*%
X106900000Y-171400000D03*
X111100000Y-171400000D03*
%TO.N,/SCLK*%
X123810000Y-170900000D03*
X111700000Y-170900000D03*
%TO.N,/CS*%
X116190000Y-170200000D03*
X112300000Y-170200000D03*
%TO.N,/IRQ*%
X114920000Y-169400000D03*
X112900000Y-169400000D03*
%TO.N,+3V3*%
X122000000Y-142600000D03*
X120200000Y-142600000D03*
X127620000Y-160000000D03*
%TO.N,+5V*%
X137800000Y-136500000D03*
X127400000Y-136500000D03*
%TO.N,+3V3*%
X109300000Y-160000000D03*
%TO.N,GND*%
X115500000Y-130500000D03*
X124600000Y-130500000D03*
X127900000Y-135000000D03*
X127900000Y-132000000D03*
X128400000Y-133625000D03*
X128300000Y-138050000D03*
X102000000Y-102000000D03*
X138000000Y-102000000D03*
X102000000Y-178000000D03*
X138000000Y-178000000D03*
X102000000Y-130000000D03*
X139000000Y-126000000D03*
X120000000Y-103000000D03*
X107000000Y-145000000D03*
X138600000Y-152000000D03*
X105000000Y-120000000D03*
X107000000Y-131000000D03*
X133000000Y-124000000D03*
X120000000Y-155000000D03*
X110000000Y-178000000D03*
X102000000Y-152000000D03*
%TD*%
%TO.N,/RESET*%
D13*
X106900000Y-171400000D02*
X111100000Y-171400000D01*
%TO.N,/SCLK*%
X123810000Y-170900000D02*
X111700000Y-170900000D01*
%TO.N,/CS*%
X116190000Y-170200000D02*
X112300000Y-170200000D01*
%TO.N,/IRQ*%
X114920000Y-169400000D02*
X112900000Y-169400000D01*
%TO.N,+3V3*%
X122000000Y-142600000D02*
X120200000Y-142600000D01*
X127620000Y-160000000D02*
X104500000Y-160000000D01*
%TO.N,+5V*%
X137800000Y-136500000D02*
X127400000Y-136500000D01*
%TD*%
%TA.AperFunction,Conductor*%
%TO.N,GND*%
G36*
X139458691Y-100519407D02*
G01*
X139494655Y-100568907D01*
X139499500Y-100599500D01*
X139499500Y-179400500D01*
X139480593Y-179458691D01*
X139431093Y-179494655D01*
X139400500Y-179499500D01*
X100599500Y-179499500D01*
X100541309Y-179480593D01*
X100505345Y-179431093D01*
X100500500Y-179400500D01*
X100500500Y-175869450D01*
X107419500Y-175869450D01*
X107419500Y-176050549D01*
X107447828Y-176229406D01*
X107447829Y-176229409D01*
X107503789Y-176401639D01*
X107586004Y-176562994D01*
X107692447Y-176709501D01*
X107820499Y-176837553D01*
X107967006Y-176943996D01*
X108128361Y-177026211D01*
X108300591Y-177082171D01*
X108372136Y-177093502D01*
X108479451Y-177110500D01*
X108479454Y-177110500D01*
X108660549Y-177110500D01*
X108749977Y-177096335D01*
X108839409Y-177082171D01*
X109011639Y-177026211D01*
X109172994Y-176943996D01*
X109319501Y-176837553D01*
X109447553Y-176709501D01*
X109553996Y-176562994D01*
X109636211Y-176401639D01*
X109692171Y-176229409D01*
X109720500Y-176050546D01*
X109720500Y-175869454D01*
X109720500Y-175869450D01*
X109959500Y-175869450D01*
X109959500Y-176050549D01*
X109987828Y-176229406D01*
X109987829Y-176229409D01*
X110043789Y-176401639D01*
X110126004Y-176562994D01*
X110232447Y-176709501D01*
X110360499Y-176837553D01*
X110507006Y-176943996D01*
X110668361Y-177026211D01*
X110840591Y-177082171D01*
X110912136Y-177093502D01*
X111019451Y-177110500D01*
X111019454Y-177110500D01*
X111200549Y-177110500D01*
X111289977Y-177096335D01*
X111379409Y-177082171D01*
X111551639Y-177026211D01*
X111712994Y-176943996D01*
X111859501Y-176837553D01*
X111987553Y-176709501D01*
X112093996Y-176562994D01*
X112176211Y-176401639D01*
X112232171Y-176229409D01*
X112260500Y-176050546D01*
X112260500Y-175869454D01*
X112260500Y-175869450D01*
X112499500Y-175869450D01*
X112499500Y-176050549D01*
X112527828Y-176229406D01*
X112527829Y-176229409D01*
X112583789Y-176401639D01*
X112666004Y-176562994D01*
X112772447Y-176709501D01*
X112900499Y-176837553D01*
X113047006Y-176943996D01*
X113208361Y-177026211D01*
X113380591Y-177082171D01*
X113452136Y-177093502D01*
X113559451Y-177110500D01*
X113559454Y-177110500D01*
X113740549Y-177110500D01*
X113829977Y-177096335D01*
X113919409Y-177082171D01*
X114091639Y-177026211D01*
X114252994Y-176943996D01*
X114399501Y-176837553D01*
X114527553Y-176709501D01*
X114633996Y-176562994D01*
X114716211Y-176401639D01*
X114772171Y-176229409D01*
X114800500Y-176050546D01*
X114800500Y-175869454D01*
X114800500Y-175869450D01*
X125199500Y-175869450D01*
X125199500Y-176050549D01*
X125227828Y-176229406D01*
X125227829Y-176229409D01*
X125283789Y-176401639D01*
X125366004Y-176562994D01*
X125472447Y-176709501D01*
X125600499Y-176837553D01*
X125747006Y-176943996D01*
X125908361Y-177026211D01*
X126080591Y-177082171D01*
X126152136Y-177093502D01*
X126259451Y-177110500D01*
X126259454Y-177110500D01*
X126440549Y-177110500D01*
X126529977Y-177096335D01*
X126619409Y-177082171D01*
X126791639Y-177026211D01*
X126952994Y-176943996D01*
X127099501Y-176837553D01*
X127227553Y-176709501D01*
X127333996Y-176562994D01*
X127416211Y-176401639D01*
X127472171Y-176229409D01*
X127500500Y-176050546D01*
X127500500Y-175869454D01*
X127500500Y-175869450D01*
X127739500Y-175869450D01*
X127739500Y-176050549D01*
X127767828Y-176229406D01*
X127767829Y-176229409D01*
X127823789Y-176401639D01*
X127906004Y-176562994D01*
X128012447Y-176709501D01*
X128140499Y-176837553D01*
X128287006Y-176943996D01*
X128448361Y-177026211D01*
X128620591Y-177082171D01*
X128692136Y-177093502D01*
X128799451Y-177110500D01*
X128799454Y-177110500D01*
X128980549Y-177110500D01*
X129069977Y-177096335D01*
X129159409Y-177082171D01*
X129331639Y-177026211D01*
X129492994Y-176943996D01*
X129639501Y-176837553D01*
X129767553Y-176709501D01*
X129873996Y-176562994D01*
X129956211Y-176401639D01*
X130012171Y-176229409D01*
X130040500Y-176050546D01*
X130040500Y-175869454D01*
X130040500Y-175869450D01*
X130279500Y-175869450D01*
X130279500Y-176050549D01*
X130307828Y-176229406D01*
X130307829Y-176229409D01*
X130363789Y-176401639D01*
X130446004Y-176562994D01*
X130552447Y-176709501D01*
X130680499Y-176837553D01*
X130827006Y-176943996D01*
X130988361Y-177026211D01*
X131160591Y-177082171D01*
X131232136Y-177093502D01*
X131339451Y-177110500D01*
X131339454Y-177110500D01*
X131520549Y-177110500D01*
X131609977Y-177096335D01*
X131699409Y-177082171D01*
X131871639Y-177026211D01*
X132032994Y-176943996D01*
X132179501Y-176837553D01*
X132307553Y-176709501D01*
X132413996Y-176562994D01*
X132496211Y-176401639D01*
X132552171Y-176229409D01*
X132580500Y-176050546D01*
X132580500Y-175869454D01*
X132580500Y-175869450D01*
X132552171Y-175690593D01*
X132552171Y-175690591D01*
X132496211Y-175518361D01*
X132413996Y-175357006D01*
X132307553Y-175210499D01*
X132179501Y-175082447D01*
X132032994Y-174976004D01*
X132032993Y-174976003D01*
X132032991Y-174976002D01*
X131871637Y-174893788D01*
X131699406Y-174837828D01*
X131520549Y-174809500D01*
X131520546Y-174809500D01*
X131339454Y-174809500D01*
X131339451Y-174809500D01*
X131160593Y-174837828D01*
X130988362Y-174893788D01*
X130827008Y-174976002D01*
X130753752Y-175029225D01*
X130680499Y-175082447D01*
X130552447Y-175210499D01*
X130499225Y-175283752D01*
X130446002Y-175357008D01*
X130363788Y-175518362D01*
X130307828Y-175690593D01*
X130279500Y-175869450D01*
X130040500Y-175869450D01*
X130012171Y-175690593D01*
X130012171Y-175690591D01*
X129956211Y-175518361D01*
X129873996Y-175357006D01*
X129767553Y-175210499D01*
X129639501Y-175082447D01*
X129492994Y-174976004D01*
X129492993Y-174976003D01*
X129492991Y-174976002D01*
X129331637Y-174893788D01*
X129159406Y-174837828D01*
X128980549Y-174809500D01*
X128980546Y-174809500D01*
X128799454Y-174809500D01*
X128799451Y-174809500D01*
X128620593Y-174837828D01*
X128448362Y-174893788D01*
X128287008Y-174976002D01*
X128213752Y-175029225D01*
X128140499Y-175082447D01*
X128012447Y-175210499D01*
X127959225Y-175283752D01*
X127906002Y-175357008D01*
X127823788Y-175518362D01*
X127767828Y-175690593D01*
X127739500Y-175869450D01*
X127500500Y-175869450D01*
X127472171Y-175690593D01*
X127472171Y-175690591D01*
X127416211Y-175518361D01*
X127333996Y-175357006D01*
X127227553Y-175210499D01*
X127099501Y-175082447D01*
X126952994Y-174976004D01*
X126952993Y-174976003D01*
X126952991Y-174976002D01*
X126791637Y-174893788D01*
X126619406Y-174837828D01*
X126440549Y-174809500D01*
X126440546Y-174809500D01*
X126259454Y-174809500D01*
X126259451Y-174809500D01*
X126080593Y-174837828D01*
X125908362Y-174893788D01*
X125747008Y-174976002D01*
X125673752Y-175029225D01*
X125600499Y-175082447D01*
X125472447Y-175210499D01*
X125419225Y-175283752D01*
X125366002Y-175357008D01*
X125283788Y-175518362D01*
X125227828Y-175690593D01*
X125199500Y-175869450D01*
X114800500Y-175869450D01*
X114772171Y-175690593D01*
X114772171Y-175690591D01*
X114716211Y-175518361D01*
X114633996Y-175357006D01*
X114527553Y-175210499D01*
X114399501Y-175082447D01*
X114252994Y-174976004D01*
X114252993Y-174976003D01*
X114252991Y-174976002D01*
X114091637Y-174893788D01*
X113919406Y-174837828D01*
X113740549Y-174809500D01*
X113740546Y-174809500D01*
X113559454Y-174809500D01*
X113559451Y-174809500D01*
X113380593Y-174837828D01*
X113208362Y-174893788D01*
X113047008Y-174976002D01*
X112973752Y-175029225D01*
X112900499Y-175082447D01*
X112772447Y-175210499D01*
X112719225Y-175283752D01*
X112666002Y-175357008D01*
X112583788Y-175518362D01*
X112527828Y-175690593D01*
X112499500Y-175869450D01*
X112260500Y-175869450D01*
X112232171Y-175690593D01*
X112232171Y-175690591D01*
X112176211Y-175518361D01*
X112093996Y-175357006D01*
X111987553Y-175210499D01*
X111859501Y-175082447D01*
X111712994Y-174976004D01*
X111712993Y-174976003D01*
X111712991Y-174976002D01*
X111551637Y-174893788D01*
X111379406Y-174837828D01*
X111200549Y-174809500D01*
X111200546Y-174809500D01*
X111019454Y-174809500D01*
X111019451Y-174809500D01*
X110840593Y-174837828D01*
X110668362Y-174893788D01*
X110507008Y-174976002D01*
X110433752Y-175029225D01*
X110360499Y-175082447D01*
X110232447Y-175210499D01*
X110179225Y-175283752D01*
X110126002Y-175357008D01*
X110043788Y-175518362D01*
X109987828Y-175690593D01*
X109959500Y-175869450D01*
X109720500Y-175869450D01*
X109692171Y-175690593D01*
X109692171Y-175690591D01*
X109636211Y-175518361D01*
X109553996Y-175357006D01*
X109447553Y-175210499D01*
X109319501Y-175082447D01*
X109172994Y-174976004D01*
X109172993Y-174976003D01*
X109172991Y-174976002D01*
X109011637Y-174893788D01*
X108839406Y-174837828D01*
X108660549Y-174809500D01*
X108660546Y-174809500D01*
X108479454Y-174809500D01*
X108479451Y-174809500D01*
X108300593Y-174837828D01*
X108128362Y-174893788D01*
X107967008Y-174976002D01*
X107893752Y-175029225D01*
X107820499Y-175082447D01*
X107692447Y-175210499D01*
X107639225Y-175283752D01*
X107586002Y-175357008D01*
X107503788Y-175518362D01*
X107447828Y-175690593D01*
X107419500Y-175869450D01*
X100500500Y-175869450D01*
X100500500Y-173329450D01*
X107419500Y-173329450D01*
X107419500Y-173510549D01*
X107447828Y-173689406D01*
X107447829Y-173689409D01*
X107503789Y-173861639D01*
X107586004Y-174022994D01*
X107692447Y-174169501D01*
X107820499Y-174297553D01*
X107967006Y-174403996D01*
X108128361Y-174486211D01*
X108300591Y-174542171D01*
X108372136Y-174553502D01*
X108479451Y-174570500D01*
X108479454Y-174570500D01*
X108660549Y-174570500D01*
X108749977Y-174556335D01*
X108839409Y-174542171D01*
X109011639Y-174486211D01*
X109172994Y-174403996D01*
X109319501Y-174297553D01*
X109447553Y-174169501D01*
X109553996Y-174022994D01*
X109636211Y-173861639D01*
X109692171Y-173689409D01*
X109720500Y-173510546D01*
X109720500Y-173329454D01*
X109720500Y-173329450D01*
X109959500Y-173329450D01*
X109959500Y-173510549D01*
X109987828Y-173689406D01*
X109987829Y-173689409D01*
X110043789Y-173861639D01*
X110126004Y-174022994D01*
X110232447Y-174169501D01*
X110360499Y-174297553D01*
X110507006Y-174403996D01*
X110668361Y-174486211D01*
X110840591Y-174542171D01*
X110912136Y-174553502D01*
X111019451Y-174570500D01*
X111019454Y-174570500D01*
X111200549Y-174570500D01*
X111289977Y-174556335D01*
X111379409Y-174542171D01*
X111551639Y-174486211D01*
X111712994Y-174403996D01*
X111859501Y-174297553D01*
X111987553Y-174169501D01*
X112093996Y-174022994D01*
X112176211Y-173861639D01*
X112232171Y-173689409D01*
X112260500Y-173510546D01*
X112260500Y-173329454D01*
X112260500Y-173329450D01*
X112499500Y-173329450D01*
X112499500Y-173510549D01*
X112527828Y-173689406D01*
X112527829Y-173689409D01*
X112583789Y-173861639D01*
X112666004Y-174022994D01*
X112772447Y-174169501D01*
X112900499Y-174297553D01*
X113047006Y-174403996D01*
X113208361Y-174486211D01*
X113380591Y-174542171D01*
X113452136Y-174553502D01*
X113559451Y-174570500D01*
X113559454Y-174570500D01*
X113740549Y-174570500D01*
X113829977Y-174556335D01*
X113919409Y-174542171D01*
X114091639Y-174486211D01*
X114252994Y-174403996D01*
X114399501Y-174297553D01*
X114527553Y-174169501D01*
X114633996Y-174022994D01*
X114716211Y-173861639D01*
X114772171Y-173689409D01*
X114800500Y-173510546D01*
X114800500Y-173329454D01*
X114800500Y-173329450D01*
X115039500Y-173329450D01*
X115039500Y-173510549D01*
X115067828Y-173689406D01*
X115067829Y-173689409D01*
X115123789Y-173861639D01*
X115206004Y-174022994D01*
X115312447Y-174169501D01*
X115440499Y-174297553D01*
X115587006Y-174403996D01*
X115748361Y-174486211D01*
X115920591Y-174542171D01*
X115992136Y-174553502D01*
X116099451Y-174570500D01*
X116099454Y-174570500D01*
X116280549Y-174570500D01*
X116369977Y-174556335D01*
X116459409Y-174542171D01*
X116631639Y-174486211D01*
X116792994Y-174403996D01*
X116939501Y-174297553D01*
X117067553Y-174169501D01*
X117173996Y-174022994D01*
X117256211Y-173861639D01*
X117312171Y-173689409D01*
X117340500Y-173510546D01*
X117340500Y-173329454D01*
X117340500Y-173329450D01*
X117579500Y-173329450D01*
X117579500Y-173510549D01*
X117607828Y-173689406D01*
X117607829Y-173689409D01*
X117663789Y-173861639D01*
X117746004Y-174022994D01*
X117852447Y-174169501D01*
X117980499Y-174297553D01*
X118127006Y-174403996D01*
X118288361Y-174486211D01*
X118460591Y-174542171D01*
X118532136Y-174553502D01*
X118639451Y-174570500D01*
X118639454Y-174570500D01*
X118820549Y-174570500D01*
X118909977Y-174556335D01*
X118999409Y-174542171D01*
X119171639Y-174486211D01*
X119332994Y-174403996D01*
X119479501Y-174297553D01*
X119607553Y-174169501D01*
X119713996Y-174022994D01*
X119796211Y-173861639D01*
X119852171Y-173689409D01*
X119880500Y-173510546D01*
X119880500Y-173329454D01*
X119880500Y-173329450D01*
X120119500Y-173329450D01*
X120119500Y-173510549D01*
X120147828Y-173689406D01*
X120147829Y-173689409D01*
X120203789Y-173861639D01*
X120286004Y-174022994D01*
X120392447Y-174169501D01*
X120520499Y-174297553D01*
X120667006Y-174403996D01*
X120828361Y-174486211D01*
X121000591Y-174542171D01*
X121072136Y-174553502D01*
X121179451Y-174570500D01*
X121179454Y-174570500D01*
X121360549Y-174570500D01*
X121449977Y-174556335D01*
X121539409Y-174542171D01*
X121711639Y-174486211D01*
X121872994Y-174403996D01*
X122019501Y-174297553D01*
X122147553Y-174169501D01*
X122253996Y-174022994D01*
X122336211Y-173861639D01*
X122392171Y-173689409D01*
X122420500Y-173510546D01*
X122420500Y-173329454D01*
X122420500Y-173329450D01*
X122659500Y-173329450D01*
X122659500Y-173510549D01*
X122687828Y-173689406D01*
X122687829Y-173689409D01*
X122743789Y-173861639D01*
X122826004Y-174022994D01*
X122932447Y-174169501D01*
X123060499Y-174297553D01*
X123207006Y-174403996D01*
X123368361Y-174486211D01*
X123540591Y-174542171D01*
X123612136Y-174553502D01*
X123719451Y-174570500D01*
X123719454Y-174570500D01*
X123900549Y-174570500D01*
X123989977Y-174556335D01*
X124079409Y-174542171D01*
X124251639Y-174486211D01*
X124412994Y-174403996D01*
X124559501Y-174297553D01*
X124687553Y-174169501D01*
X124793996Y-174022994D01*
X124876211Y-173861639D01*
X124932171Y-173689409D01*
X124960500Y-173510546D01*
X124960500Y-173329454D01*
X124960500Y-173329450D01*
X124932171Y-173150593D01*
X124932171Y-173150591D01*
X124876211Y-172978361D01*
X124793996Y-172817006D01*
X124687553Y-172670499D01*
X124559501Y-172542447D01*
X124412994Y-172436004D01*
X124412993Y-172436003D01*
X124412991Y-172436002D01*
X124251637Y-172353788D01*
X124079406Y-172297828D01*
X123900549Y-172269500D01*
X123900546Y-172269500D01*
X123719454Y-172269500D01*
X123719451Y-172269500D01*
X123540593Y-172297828D01*
X123368362Y-172353788D01*
X123207008Y-172436002D01*
X123133752Y-172489225D01*
X123060499Y-172542447D01*
X122932447Y-172670499D01*
X122879225Y-172743752D01*
X122826002Y-172817008D01*
X122743788Y-172978362D01*
X122687828Y-173150593D01*
X122659500Y-173329450D01*
X122420500Y-173329450D01*
X122392171Y-173150593D01*
X122392171Y-173150591D01*
X122336211Y-172978361D01*
X122253996Y-172817006D01*
X122147553Y-172670499D01*
X122019501Y-172542447D01*
X121872994Y-172436004D01*
X121872993Y-172436003D01*
X121872991Y-172436002D01*
X121711637Y-172353788D01*
X121539406Y-172297828D01*
X121360549Y-172269500D01*
X121360546Y-172269500D01*
X121179454Y-172269500D01*
X121179451Y-172269500D01*
X121000593Y-172297828D01*
X120828362Y-172353788D01*
X120667008Y-172436002D01*
X120593752Y-172489225D01*
X120520499Y-172542447D01*
X120392447Y-172670499D01*
X120339225Y-172743752D01*
X120286002Y-172817008D01*
X120203788Y-172978362D01*
X120147828Y-173150593D01*
X120119500Y-173329450D01*
X119880500Y-173329450D01*
X119852171Y-173150593D01*
X119852171Y-173150591D01*
X119796211Y-172978361D01*
X119713996Y-172817006D01*
X119607553Y-172670499D01*
X119479501Y-172542447D01*
X119332994Y-172436004D01*
X119332993Y-172436003D01*
X119332991Y-172436002D01*
X119171637Y-172353788D01*
X118999406Y-172297828D01*
X118820549Y-172269500D01*
X118820546Y-172269500D01*
X118639454Y-172269500D01*
X118639451Y-172269500D01*
X118460593Y-172297828D01*
X118288362Y-172353788D01*
X118127008Y-172436002D01*
X118053752Y-172489225D01*
X117980499Y-172542447D01*
X117852447Y-172670499D01*
X117799225Y-172743752D01*
X117746002Y-172817008D01*
X117663788Y-172978362D01*
X117607828Y-173150593D01*
X117579500Y-173329450D01*
X117340500Y-173329450D01*
X117312171Y-173150593D01*
X117312171Y-173150591D01*
X117256211Y-172978361D01*
X117173996Y-172817006D01*
X117067553Y-172670499D01*
X116939501Y-172542447D01*
X116792994Y-172436004D01*
X116792993Y-172436003D01*
X116792991Y-172436002D01*
X116631637Y-172353788D01*
X116459406Y-172297828D01*
X116280549Y-172269500D01*
X116280546Y-172269500D01*
X116099454Y-172269500D01*
X116099451Y-172269500D01*
X115920593Y-172297828D01*
X115748362Y-172353788D01*
X115587008Y-172436002D01*
X115513752Y-172489225D01*
X115440499Y-172542447D01*
X115312447Y-172670499D01*
X115259225Y-172743752D01*
X115206002Y-172817008D01*
X115123788Y-172978362D01*
X115067828Y-173150593D01*
X115039500Y-173329450D01*
X114800500Y-173329450D01*
X114772171Y-173150593D01*
X114772171Y-173150591D01*
X114716211Y-172978361D01*
X114633996Y-172817006D01*
X114527553Y-172670499D01*
X114399501Y-172542447D01*
X114252994Y-172436004D01*
X114252993Y-172436003D01*
X114252991Y-172436002D01*
X114091637Y-172353788D01*
X113919406Y-172297828D01*
X113740549Y-172269500D01*
X113740546Y-172269500D01*
X113559454Y-172269500D01*
X113559451Y-172269500D01*
X113380593Y-172297828D01*
X113208362Y-172353788D01*
X113047008Y-172436002D01*
X112973752Y-172489225D01*
X112900499Y-172542447D01*
X112772447Y-172670499D01*
X112719225Y-172743752D01*
X112666002Y-172817008D01*
X112583788Y-172978362D01*
X112527828Y-173150593D01*
X112499500Y-173329450D01*
X112260500Y-173329450D01*
X112232171Y-173150593D01*
X112232171Y-173150591D01*
X112176211Y-172978361D01*
X112093996Y-172817006D01*
X111987553Y-172670499D01*
X111859501Y-172542447D01*
X111712994Y-172436004D01*
X111712993Y-172436003D01*
X111712991Y-172436002D01*
X111551637Y-172353788D01*
X111379406Y-172297828D01*
X111200549Y-172269500D01*
X111200546Y-172269500D01*
X111019454Y-172269500D01*
X111019451Y-172269500D01*
X110840593Y-172297828D01*
X110668362Y-172353788D01*
X110507008Y-172436002D01*
X110433752Y-172489225D01*
X110360499Y-172542447D01*
X110232447Y-172670499D01*
X110179225Y-172743752D01*
X110126002Y-172817008D01*
X110043788Y-172978362D01*
X109987828Y-173150593D01*
X109959500Y-173329450D01*
X109720500Y-173329450D01*
X109692171Y-173150593D01*
X109692171Y-173150591D01*
X109636211Y-172978361D01*
X109553996Y-172817006D01*
X109447553Y-172670499D01*
X109319501Y-172542447D01*
X109172994Y-172436004D01*
X109172993Y-172436003D01*
X109172991Y-172436002D01*
X109011637Y-172353788D01*
X108839406Y-172297828D01*
X108660549Y-172269500D01*
X108660546Y-172269500D01*
X108479454Y-172269500D01*
X108479451Y-172269500D01*
X108300593Y-172297828D01*
X108128362Y-172353788D01*
X107967008Y-172436002D01*
X107893752Y-172489225D01*
X107820499Y-172542447D01*
X107692447Y-172670499D01*
X107639225Y-172743752D01*
X107586002Y-172817008D01*
X107503788Y-172978362D01*
X107447828Y-173150593D01*
X107419500Y-173329450D01*
X100500500Y-173329450D01*
X100500500Y-171327525D01*
X106349500Y-171327525D01*
X106349500Y-171472474D01*
X106387017Y-171612489D01*
X106459487Y-171738010D01*
X106459489Y-171738012D01*
X106459491Y-171738015D01*
X106561985Y-171840509D01*
X106561987Y-171840510D01*
X106561989Y-171840512D01*
X106687511Y-171912982D01*
X106687512Y-171912982D01*
X106687515Y-171912984D01*
X106827525Y-171950500D01*
X106827526Y-171950500D01*
X106972474Y-171950500D01*
X106972475Y-171950500D01*
X107112485Y-171912984D01*
X107112487Y-171912982D01*
X107112489Y-171912982D01*
X107241039Y-171838764D01*
X107290539Y-171825500D01*
X110709461Y-171825500D01*
X110758961Y-171838764D01*
X110887511Y-171912982D01*
X110887512Y-171912982D01*
X110887515Y-171912984D01*
X111027525Y-171950500D01*
X111027526Y-171950500D01*
X111172474Y-171950500D01*
X111172475Y-171950500D01*
X111312485Y-171912984D01*
X111312487Y-171912982D01*
X111312489Y-171912982D01*
X111438010Y-171840512D01*
X111438010Y-171840511D01*
X111438015Y-171840509D01*
X111540509Y-171738015D01*
X111612984Y-171612485D01*
X111636727Y-171523875D01*
X111670050Y-171472563D01*
X111727172Y-171450636D01*
X111732353Y-171450500D01*
X111772474Y-171450500D01*
X111772475Y-171450500D01*
X111912485Y-171412984D01*
X111912487Y-171412982D01*
X111912489Y-171412982D01*
X112041039Y-171338764D01*
X112090539Y-171325500D01*
X123419461Y-171325500D01*
X123468961Y-171338764D01*
X123597511Y-171412982D01*
X123597512Y-171412982D01*
X123597515Y-171412984D01*
X123737525Y-171450500D01*
X123737526Y-171450500D01*
X123882474Y-171450500D01*
X123882475Y-171450500D01*
X124022485Y-171412984D01*
X124022487Y-171412982D01*
X124022489Y-171412982D01*
X124148010Y-171340512D01*
X124148010Y-171340511D01*
X124148015Y-171340509D01*
X124250509Y-171238015D01*
X124322984Y-171112485D01*
X124360500Y-170972475D01*
X124360500Y-170827525D01*
X124322984Y-170687515D01*
X124322982Y-170687512D01*
X124322982Y-170687510D01*
X124250512Y-170561989D01*
X124250510Y-170561987D01*
X124250509Y-170561985D01*
X124148015Y-170459491D01*
X124148012Y-170459489D01*
X124148010Y-170459487D01*
X124022488Y-170387017D01*
X124022489Y-170387017D01*
X123992896Y-170379087D01*
X123882475Y-170349500D01*
X123737525Y-170349500D01*
X123675790Y-170366041D01*
X123597510Y-170387017D01*
X123468961Y-170461236D01*
X123419461Y-170474500D01*
X116815387Y-170474500D01*
X116757196Y-170455593D01*
X116721232Y-170406093D01*
X116719760Y-170349877D01*
X116740500Y-170272474D01*
X116740500Y-170127525D01*
X116702984Y-169987515D01*
X116702982Y-169987512D01*
X116702982Y-169987510D01*
X116630512Y-169861989D01*
X116630510Y-169861987D01*
X116630509Y-169861985D01*
X116528015Y-169759491D01*
X116528012Y-169759489D01*
X116528010Y-169759487D01*
X116402488Y-169687017D01*
X116402489Y-169687017D01*
X116304956Y-169660883D01*
X116262475Y-169649500D01*
X116117525Y-169649500D01*
X116075044Y-169660883D01*
X115977510Y-169687017D01*
X115848961Y-169761236D01*
X115799461Y-169774500D01*
X115510918Y-169774500D01*
X115452727Y-169755593D01*
X115416763Y-169706093D01*
X115416763Y-169644907D01*
X115425181Y-169626000D01*
X115432983Y-169612486D01*
X115432984Y-169612485D01*
X115470500Y-169472475D01*
X115470500Y-169327525D01*
X115432984Y-169187515D01*
X115432982Y-169187512D01*
X115432982Y-169187510D01*
X115360512Y-169061989D01*
X115360510Y-169061987D01*
X115360509Y-169061985D01*
X115258015Y-168959491D01*
X115258012Y-168959489D01*
X115258010Y-168959487D01*
X115132488Y-168887017D01*
X115132489Y-168887017D01*
X115102896Y-168879087D01*
X114992475Y-168849500D01*
X114847525Y-168849500D01*
X114785790Y-168866041D01*
X114707510Y-168887017D01*
X114578961Y-168961236D01*
X114529461Y-168974500D01*
X113290539Y-168974500D01*
X113241039Y-168961236D01*
X113112488Y-168887017D01*
X113112489Y-168887017D01*
X113082896Y-168879087D01*
X112972475Y-168849500D01*
X112827525Y-168849500D01*
X112765790Y-168866041D01*
X112687510Y-168887017D01*
X112561989Y-168959487D01*
X112459487Y-169061989D01*
X112387017Y-169187510D01*
X112349500Y-169327525D01*
X112349500Y-169472477D01*
X112363541Y-169524876D01*
X112360340Y-169585977D01*
X112321835Y-169633528D01*
X112267915Y-169649500D01*
X112227525Y-169649500D01*
X112185044Y-169660883D01*
X112087510Y-169687017D01*
X111961989Y-169759487D01*
X111859487Y-169861989D01*
X111787017Y-169987510D01*
X111749500Y-170127525D01*
X111749500Y-170250500D01*
X111730593Y-170308691D01*
X111681093Y-170344655D01*
X111650500Y-170349500D01*
X111627525Y-170349500D01*
X111565790Y-170366041D01*
X111487510Y-170387017D01*
X111361989Y-170459487D01*
X111259487Y-170561989D01*
X111187017Y-170687510D01*
X111187016Y-170687515D01*
X111163272Y-170776124D01*
X111129950Y-170827437D01*
X111072828Y-170849364D01*
X111067647Y-170849500D01*
X111027525Y-170849500D01*
X110965790Y-170866041D01*
X110887510Y-170887017D01*
X110758961Y-170961236D01*
X110709461Y-170974500D01*
X107290539Y-170974500D01*
X107241039Y-170961236D01*
X107112488Y-170887017D01*
X107112489Y-170887017D01*
X107082896Y-170879087D01*
X106972475Y-170849500D01*
X106827525Y-170849500D01*
X106765790Y-170866041D01*
X106687510Y-170887017D01*
X106561989Y-170959487D01*
X106459487Y-171061989D01*
X106387017Y-171187510D01*
X106349500Y-171327525D01*
X100500500Y-171327525D01*
X100500500Y-162449450D01*
X103349500Y-162449450D01*
X103349500Y-162630549D01*
X103377828Y-162809406D01*
X103377829Y-162809409D01*
X103433789Y-162981639D01*
X103516004Y-163142994D01*
X103622447Y-163289501D01*
X103750499Y-163417553D01*
X103897006Y-163523996D01*
X104058361Y-163606211D01*
X104230591Y-163662171D01*
X104302136Y-163673502D01*
X104409451Y-163690500D01*
X104409454Y-163690500D01*
X104590549Y-163690500D01*
X104679977Y-163676335D01*
X104769409Y-163662171D01*
X104941639Y-163606211D01*
X105102994Y-163523996D01*
X105249501Y-163417553D01*
X105377553Y-163289501D01*
X105483996Y-163142994D01*
X105566211Y-162981639D01*
X105622171Y-162809409D01*
X105650500Y-162630546D01*
X105650500Y-162449454D01*
X105650500Y-162449450D01*
X105622171Y-162270593D01*
X105622171Y-162270591D01*
X105566211Y-162098361D01*
X105483996Y-161937006D01*
X105377553Y-161790499D01*
X105249501Y-161662447D01*
X105102994Y-161556004D01*
X105102993Y-161556003D01*
X105102991Y-161556002D01*
X104941637Y-161473788D01*
X104769406Y-161417828D01*
X104590549Y-161389500D01*
X104590546Y-161389500D01*
X104409454Y-161389500D01*
X104409451Y-161389500D01*
X104230593Y-161417828D01*
X104058362Y-161473788D01*
X103897008Y-161556002D01*
X103823752Y-161609225D01*
X103750499Y-161662447D01*
X103622447Y-161790499D01*
X103569225Y-161863752D01*
X103516002Y-161937008D01*
X103433788Y-162098362D01*
X103377828Y-162270593D01*
X103349500Y-162449450D01*
X100500500Y-162449450D01*
X100500500Y-159105130D01*
X103349500Y-159105130D01*
X103349500Y-160894860D01*
X103349501Y-160894863D01*
X103352414Y-160919990D01*
X103377756Y-160977385D01*
X103397794Y-161022765D01*
X103477235Y-161102206D01*
X103580009Y-161147585D01*
X103605135Y-161150500D01*
X105394864Y-161150499D01*
X105419991Y-161147585D01*
X105522765Y-161102206D01*
X105602206Y-161022765D01*
X105647585Y-160919991D01*
X105650500Y-160894865D01*
X105650500Y-160524500D01*
X105669407Y-160466309D01*
X105718907Y-160430345D01*
X105749500Y-160425500D01*
X108909461Y-160425500D01*
X108958961Y-160438764D01*
X109087511Y-160512982D01*
X109087512Y-160512982D01*
X109087515Y-160512984D01*
X109227525Y-160550500D01*
X109227526Y-160550500D01*
X109372474Y-160550500D01*
X109372475Y-160550500D01*
X109512485Y-160512984D01*
X109512487Y-160512982D01*
X109512489Y-160512982D01*
X109641039Y-160438764D01*
X109690539Y-160425500D01*
X127229461Y-160425500D01*
X127278961Y-160438764D01*
X127407511Y-160512982D01*
X127407512Y-160512982D01*
X127407515Y-160512984D01*
X127547525Y-160550500D01*
X127547526Y-160550500D01*
X127692474Y-160550500D01*
X127692475Y-160550500D01*
X127832485Y-160512984D01*
X127832487Y-160512982D01*
X127832489Y-160512982D01*
X127958010Y-160440512D01*
X127958010Y-160440511D01*
X127958015Y-160440509D01*
X128060509Y-160338015D01*
X128132984Y-160212485D01*
X128170500Y-160072475D01*
X128170500Y-159927525D01*
X128132984Y-159787515D01*
X128132982Y-159787512D01*
X128132982Y-159787510D01*
X128060512Y-159661989D01*
X128060510Y-159661987D01*
X128060509Y-159661985D01*
X127958015Y-159559491D01*
X127958012Y-159559489D01*
X127958010Y-159559487D01*
X127832488Y-159487017D01*
X127832489Y-159487017D01*
X127789507Y-159475500D01*
X127692475Y-159449500D01*
X127547525Y-159449500D01*
X127485790Y-159466041D01*
X127407510Y-159487017D01*
X127278961Y-159561236D01*
X127229461Y-159574500D01*
X109690539Y-159574500D01*
X109641039Y-159561236D01*
X109512488Y-159487017D01*
X109512489Y-159487017D01*
X109469507Y-159475500D01*
X109372475Y-159449500D01*
X109227525Y-159449500D01*
X109165790Y-159466041D01*
X109087510Y-159487017D01*
X108958961Y-159561236D01*
X108909461Y-159574500D01*
X105749499Y-159574500D01*
X105691308Y-159555593D01*
X105655344Y-159506093D01*
X105650499Y-159475500D01*
X105650499Y-159105139D01*
X105650499Y-159105136D01*
X105647585Y-159080009D01*
X105602206Y-158977235D01*
X105522765Y-158897794D01*
X105419991Y-158852415D01*
X105419990Y-158852414D01*
X105419988Y-158852414D01*
X105394868Y-158849500D01*
X103605139Y-158849500D01*
X103605136Y-158849501D01*
X103580009Y-158852414D01*
X103477235Y-158897794D01*
X103397794Y-158977235D01*
X103352414Y-159080011D01*
X103349500Y-159105130D01*
X100500500Y-159105130D01*
X100500500Y-142527525D01*
X119649500Y-142527525D01*
X119649500Y-142672474D01*
X119687017Y-142812489D01*
X119759487Y-142938010D01*
X119759489Y-142938012D01*
X119759491Y-142938015D01*
X119861985Y-143040509D01*
X119861987Y-143040510D01*
X119861989Y-143040512D01*
X119987511Y-143112982D01*
X119987512Y-143112982D01*
X119987515Y-143112984D01*
X120127525Y-143150500D01*
X120127526Y-143150500D01*
X120272474Y-143150500D01*
X120272475Y-143150500D01*
X120412485Y-143112984D01*
X120412487Y-143112982D01*
X120412489Y-143112982D01*
X120541039Y-143038764D01*
X120590539Y-143025500D01*
X121609461Y-143025500D01*
X121658961Y-143038764D01*
X121787511Y-143112982D01*
X121787512Y-143112982D01*
X121787515Y-143112984D01*
X121927525Y-143150500D01*
X121927526Y-143150500D01*
X122072474Y-143150500D01*
X122072475Y-143150500D01*
X122212485Y-143112984D01*
X122212487Y-143112982D01*
X122212489Y-143112982D01*
X122338010Y-143040512D01*
X122338010Y-143040511D01*
X122338015Y-143040509D01*
X122440509Y-142938015D01*
X122512984Y-142812485D01*
X122550500Y-142672475D01*
X122550500Y-142527525D01*
X122512984Y-142387515D01*
X122512982Y-142387512D01*
X122512982Y-142387510D01*
X122440512Y-142261989D01*
X122440510Y-142261987D01*
X122440509Y-142261985D01*
X122338015Y-142159491D01*
X122338012Y-142159489D01*
X122338010Y-142159487D01*
X122212488Y-142087017D01*
X122212489Y-142087017D01*
X122182896Y-142079087D01*
X122072475Y-142049500D01*
X121927525Y-142049500D01*
X121865790Y-142066041D01*
X121787510Y-142087017D01*
X121658961Y-142161236D01*
X121609461Y-142174500D01*
X120590539Y-142174500D01*
X120541039Y-142161236D01*
X120412488Y-142087017D01*
X120412489Y-142087017D01*
X120382896Y-142079087D01*
X120272475Y-142049500D01*
X120127525Y-142049500D01*
X120065790Y-142066041D01*
X119987510Y-142087017D01*
X119861989Y-142159487D01*
X119759487Y-142261989D01*
X119687017Y-142387510D01*
X119649500Y-142527525D01*
X100500500Y-142527525D01*
X100500500Y-136427525D01*
X126849500Y-136427525D01*
X126849500Y-136572474D01*
X126887017Y-136712489D01*
X126959487Y-136838010D01*
X126959489Y-136838012D01*
X126959491Y-136838015D01*
X127061985Y-136940509D01*
X127061987Y-136940510D01*
X127061989Y-136940512D01*
X127187511Y-137012982D01*
X127187512Y-137012982D01*
X127187515Y-137012984D01*
X127327525Y-137050500D01*
X127327526Y-137050500D01*
X127472474Y-137050500D01*
X127472475Y-137050500D01*
X127612485Y-137012984D01*
X127612487Y-137012982D01*
X127612489Y-137012982D01*
X127741039Y-136938764D01*
X127790539Y-136925500D01*
X137409461Y-136925500D01*
X137458961Y-136938764D01*
X137587511Y-137012982D01*
X137587512Y-137012982D01*
X137587515Y-137012984D01*
X137727525Y-137050500D01*
X137727526Y-137050500D01*
X137872474Y-137050500D01*
X137872475Y-137050500D01*
X138012485Y-137012984D01*
X138012487Y-137012982D01*
X138012489Y-137012982D01*
X138138010Y-136940512D01*
X138138010Y-136940511D01*
X138138015Y-136940509D01*
X138240509Y-136838015D01*
X138312984Y-136712485D01*
X138350500Y-136572475D01*
X138350500Y-136427525D01*
X138312984Y-136287515D01*
X138312982Y-136287512D01*
X138312982Y-136287510D01*
X138240512Y-136161989D01*
X138240510Y-136161987D01*
X138240509Y-136161985D01*
X138138015Y-136059491D01*
X138138012Y-136059489D01*
X138138010Y-136059487D01*
X138012488Y-135987017D01*
X138012489Y-135987017D01*
X137982896Y-135979087D01*
X137872475Y-135949500D01*
X137727525Y-135949500D01*
X137665790Y-135966041D01*
X137587510Y-135987017D01*
X137458961Y-136061236D01*
X137409461Y-136074500D01*
X127790539Y-136074500D01*
X127741039Y-136061236D01*
X127612488Y-135987017D01*
X127612489Y-135987017D01*
X127582896Y-135979087D01*
X127472475Y-135949500D01*
X127327525Y-135949500D01*
X127265790Y-135966041D01*
X127187510Y-135987017D01*
X127061989Y-136059487D01*
X126959487Y-136161989D01*
X126887017Y-136287510D01*
X126849500Y-136427525D01*
X100500500Y-136427525D01*
X100500500Y-106489450D01*
X109959500Y-106489450D01*
X109959500Y-106670549D01*
X109987828Y-106849406D01*
X109987829Y-106849409D01*
X110043789Y-107021639D01*
X110126004Y-107182994D01*
X110232447Y-107329501D01*
X110360499Y-107457553D01*
X110507006Y-107563996D01*
X110668361Y-107646211D01*
X110840591Y-107702171D01*
X110912136Y-107713502D01*
X111019451Y-107730500D01*
X111019454Y-107730500D01*
X111200549Y-107730500D01*
X111289977Y-107716335D01*
X111379409Y-107702171D01*
X111551639Y-107646211D01*
X111712994Y-107563996D01*
X111859501Y-107457553D01*
X111987553Y-107329501D01*
X112093996Y-107182994D01*
X112176211Y-107021639D01*
X112232171Y-106849409D01*
X112260500Y-106670546D01*
X112260500Y-106489454D01*
X112260500Y-106489450D01*
X112499500Y-106489450D01*
X112499500Y-106670549D01*
X112527828Y-106849406D01*
X112527829Y-106849409D01*
X112583789Y-107021639D01*
X112666004Y-107182994D01*
X112772447Y-107329501D01*
X112900499Y-107457553D01*
X113047006Y-107563996D01*
X113208361Y-107646211D01*
X113380591Y-107702171D01*
X113452136Y-107713502D01*
X113559451Y-107730500D01*
X113559454Y-107730500D01*
X113740549Y-107730500D01*
X113829977Y-107716335D01*
X113919409Y-107702171D01*
X114091639Y-107646211D01*
X114252994Y-107563996D01*
X114399501Y-107457553D01*
X114527553Y-107329501D01*
X114633996Y-107182994D01*
X114716211Y-107021639D01*
X114772171Y-106849409D01*
X114800500Y-106670546D01*
X114800500Y-106489454D01*
X114800500Y-106489450D01*
X115039500Y-106489450D01*
X115039500Y-106670549D01*
X115067828Y-106849406D01*
X115067829Y-106849409D01*
X115123789Y-107021639D01*
X115206004Y-107182994D01*
X115312447Y-107329501D01*
X115440499Y-107457553D01*
X115587006Y-107563996D01*
X115748361Y-107646211D01*
X115920591Y-107702171D01*
X115992136Y-107713502D01*
X116099451Y-107730500D01*
X116099454Y-107730500D01*
X116280549Y-107730500D01*
X116369977Y-107716335D01*
X116459409Y-107702171D01*
X116631639Y-107646211D01*
X116792994Y-107563996D01*
X116939501Y-107457553D01*
X117067553Y-107329501D01*
X117173996Y-107182994D01*
X117256211Y-107021639D01*
X117312171Y-106849409D01*
X117340500Y-106670546D01*
X117340500Y-106489454D01*
X117340500Y-106489450D01*
X117579500Y-106489450D01*
X117579500Y-106670549D01*
X117607828Y-106849406D01*
X117607829Y-106849409D01*
X117663789Y-107021639D01*
X117746004Y-107182994D01*
X117852447Y-107329501D01*
X117980499Y-107457553D01*
X118127006Y-107563996D01*
X118288361Y-107646211D01*
X118460591Y-107702171D01*
X118532136Y-107713502D01*
X118639451Y-107730500D01*
X118639454Y-107730500D01*
X118820549Y-107730500D01*
X118909977Y-107716335D01*
X118999409Y-107702171D01*
X119171639Y-107646211D01*
X119332994Y-107563996D01*
X119479501Y-107457553D01*
X119607553Y-107329501D01*
X119713996Y-107182994D01*
X119796211Y-107021639D01*
X119852171Y-106849409D01*
X119880500Y-106670546D01*
X119880500Y-106489454D01*
X119880500Y-106489450D01*
X120119500Y-106489450D01*
X120119500Y-106670549D01*
X120147828Y-106849406D01*
X120147829Y-106849409D01*
X120203789Y-107021639D01*
X120286004Y-107182994D01*
X120392447Y-107329501D01*
X120520499Y-107457553D01*
X120667006Y-107563996D01*
X120828361Y-107646211D01*
X121000591Y-107702171D01*
X121072136Y-107713502D01*
X121179451Y-107730500D01*
X121179454Y-107730500D01*
X121360549Y-107730500D01*
X121449977Y-107716335D01*
X121539409Y-107702171D01*
X121711639Y-107646211D01*
X121872994Y-107563996D01*
X122019501Y-107457553D01*
X122147553Y-107329501D01*
X122253996Y-107182994D01*
X122336211Y-107021639D01*
X122392171Y-106849409D01*
X122420500Y-106670546D01*
X122420500Y-106489454D01*
X122420500Y-106489450D01*
X122659500Y-106489450D01*
X122659500Y-106670549D01*
X122687828Y-106849406D01*
X122687829Y-106849409D01*
X122743789Y-107021639D01*
X122826004Y-107182994D01*
X122932447Y-107329501D01*
X123060499Y-107457553D01*
X123207006Y-107563996D01*
X123368361Y-107646211D01*
X123540591Y-107702171D01*
X123612136Y-107713502D01*
X123719451Y-107730500D01*
X123719454Y-107730500D01*
X123900549Y-107730500D01*
X123989977Y-107716335D01*
X124079409Y-107702171D01*
X124251639Y-107646211D01*
X124412994Y-107563996D01*
X124559501Y-107457553D01*
X124687553Y-107329501D01*
X124793996Y-107182994D01*
X124876211Y-107021639D01*
X124932171Y-106849409D01*
X124960500Y-106670546D01*
X124960500Y-106489454D01*
X124960500Y-106489450D01*
X125199500Y-106489450D01*
X125199500Y-106670549D01*
X125227828Y-106849406D01*
X125227829Y-106849409D01*
X125283789Y-107021639D01*
X125366004Y-107182994D01*
X125472447Y-107329501D01*
X125600499Y-107457553D01*
X125747006Y-107563996D01*
X125908361Y-107646211D01*
X126080591Y-107702171D01*
X126152136Y-107713502D01*
X126259451Y-107730500D01*
X126259454Y-107730500D01*
X126440549Y-107730500D01*
X126529977Y-107716335D01*
X126619409Y-107702171D01*
X126791639Y-107646211D01*
X126952994Y-107563996D01*
X127099501Y-107457553D01*
X127227553Y-107329501D01*
X127333996Y-107182994D01*
X127416211Y-107021639D01*
X127472171Y-106849409D01*
X127500500Y-106670546D01*
X127500500Y-106489454D01*
X127500500Y-106489450D01*
X127739500Y-106489450D01*
X127739500Y-106670549D01*
X127767828Y-106849406D01*
X127767829Y-106849409D01*
X127823789Y-107021639D01*
X127906004Y-107182994D01*
X128012447Y-107329501D01*
X128140499Y-107457553D01*
X128287006Y-107563996D01*
X128448361Y-107646211D01*
X128620591Y-107702171D01*
X128692136Y-107713502D01*
X128799451Y-107730500D01*
X128799454Y-107730500D01*
X128980549Y-107730500D01*
X129069977Y-107716335D01*
X129159409Y-107702171D01*
X129331639Y-107646211D01*
X129492994Y-107563996D01*
X129639501Y-107457553D01*
X129767553Y-107329501D01*
X129873996Y-107182994D01*
X129956211Y-107021639D01*
X130012171Y-106849409D01*
X130040500Y-106670546D01*
X130040500Y-106489454D01*
X130040500Y-106489450D01*
X130012171Y-106310593D01*
X130012171Y-106310591D01*
X129956211Y-106138361D01*
X129873996Y-105977006D01*
X129767553Y-105830499D01*
X129639501Y-105702447D01*
X129492994Y-105596004D01*
X129492993Y-105596003D01*
X129492991Y-105596002D01*
X129331637Y-105513788D01*
X129159406Y-105457828D01*
X128980549Y-105429500D01*
X128980546Y-105429500D01*
X128799454Y-105429500D01*
X128799451Y-105429500D01*
X128620593Y-105457828D01*
X128448362Y-105513788D01*
X128287008Y-105596002D01*
X128213752Y-105649225D01*
X128140499Y-105702447D01*
X128012447Y-105830499D01*
X127959225Y-105903752D01*
X127906002Y-105977008D01*
X127823788Y-106138362D01*
X127767828Y-106310593D01*
X127739500Y-106489450D01*
X127500500Y-106489450D01*
X127472171Y-106310593D01*
X127472171Y-106310591D01*
X127416211Y-106138361D01*
X127333996Y-105977006D01*
X127227553Y-105830499D01*
X127099501Y-105702447D01*
X126952994Y-105596004D01*
X126952993Y-105596003D01*
X126952991Y-105596002D01*
X126791637Y-105513788D01*
X126619406Y-105457828D01*
X126440549Y-105429500D01*
X126440546Y-105429500D01*
X126259454Y-105429500D01*
X126259451Y-105429500D01*
X126080593Y-105457828D01*
X125908362Y-105513788D01*
X125747008Y-105596002D01*
X125673752Y-105649225D01*
X125600499Y-105702447D01*
X125472447Y-105830499D01*
X125419225Y-105903752D01*
X125366002Y-105977008D01*
X125283788Y-106138362D01*
X125227828Y-106310593D01*
X125199500Y-106489450D01*
X124960500Y-106489450D01*
X124932171Y-106310593D01*
X124932171Y-106310591D01*
X124876211Y-106138361D01*
X124793996Y-105977006D01*
X124687553Y-105830499D01*
X124559501Y-105702447D01*
X124412994Y-105596004D01*
X124412993Y-105596003D01*
X124412991Y-105596002D01*
X124251637Y-105513788D01*
X124079406Y-105457828D01*
X123900549Y-105429500D01*
X123900546Y-105429500D01*
X123719454Y-105429500D01*
X123719451Y-105429500D01*
X123540593Y-105457828D01*
X123368362Y-105513788D01*
X123207008Y-105596002D01*
X123133752Y-105649225D01*
X123060499Y-105702447D01*
X122932447Y-105830499D01*
X122879225Y-105903752D01*
X122826002Y-105977008D01*
X122743788Y-106138362D01*
X122687828Y-106310593D01*
X122659500Y-106489450D01*
X122420500Y-106489450D01*
X122392171Y-106310593D01*
X122392171Y-106310591D01*
X122336211Y-106138361D01*
X122253996Y-105977006D01*
X122147553Y-105830499D01*
X122019501Y-105702447D01*
X121872994Y-105596004D01*
X121872993Y-105596003D01*
X121872991Y-105596002D01*
X121711637Y-105513788D01*
X121539406Y-105457828D01*
X121360549Y-105429500D01*
X121360546Y-105429500D01*
X121179454Y-105429500D01*
X121179451Y-105429500D01*
X121000593Y-105457828D01*
X120828362Y-105513788D01*
X120667008Y-105596002D01*
X120593752Y-105649225D01*
X120520499Y-105702447D01*
X120392447Y-105830499D01*
X120339225Y-105903752D01*
X120286002Y-105977008D01*
X120203788Y-106138362D01*
X120147828Y-106310593D01*
X120119500Y-106489450D01*
X119880500Y-106489450D01*
X119852171Y-106310593D01*
X119852171Y-106310591D01*
X119796211Y-106138361D01*
X119713996Y-105977006D01*
X119607553Y-105830499D01*
X119479501Y-105702447D01*
X119332994Y-105596004D01*
X119332993Y-105596003D01*
X119332991Y-105596002D01*
X119171637Y-105513788D01*
X118999406Y-105457828D01*
X118820549Y-105429500D01*
X118820546Y-105429500D01*
X118639454Y-105429500D01*
X118639451Y-105429500D01*
X118460593Y-105457828D01*
X118288362Y-105513788D01*
X118127008Y-105596002D01*
X118053752Y-105649225D01*
X117980499Y-105702447D01*
X117852447Y-105830499D01*
X117799225Y-105903752D01*
X117746002Y-105977008D01*
X117663788Y-106138362D01*
X117607828Y-106310593D01*
X117579500Y-106489450D01*
X117340500Y-106489450D01*
X117312171Y-106310593D01*
X117312171Y-106310591D01*
X117256211Y-106138361D01*
X117173996Y-105977006D01*
X117067553Y-105830499D01*
X116939501Y-105702447D01*
X116792994Y-105596004D01*
X116792993Y-105596003D01*
X116792991Y-105596002D01*
X116631637Y-105513788D01*
X116459406Y-105457828D01*
X116280549Y-105429500D01*
X116280546Y-105429500D01*
X116099454Y-105429500D01*
X116099451Y-105429500D01*
X115920593Y-105457828D01*
X115748362Y-105513788D01*
X115587008Y-105596002D01*
X115513752Y-105649225D01*
X115440499Y-105702447D01*
X115312447Y-105830499D01*
X115259225Y-105903752D01*
X115206002Y-105977008D01*
X115123788Y-106138362D01*
X115067828Y-106310593D01*
X115039500Y-106489450D01*
X114800500Y-106489450D01*
X114772171Y-106310593D01*
X114772171Y-106310591D01*
X114716211Y-106138361D01*
X114633996Y-105977006D01*
X114527553Y-105830499D01*
X114399501Y-105702447D01*
X114252994Y-105596004D01*
X114252993Y-105596003D01*
X114252991Y-105596002D01*
X114091637Y-105513788D01*
X113919406Y-105457828D01*
X113740549Y-105429500D01*
X113740546Y-105429500D01*
X113559454Y-105429500D01*
X113559451Y-105429500D01*
X113380593Y-105457828D01*
X113208362Y-105513788D01*
X113047008Y-105596002D01*
X112973752Y-105649225D01*
X112900499Y-105702447D01*
X112772447Y-105830499D01*
X112719225Y-105903752D01*
X112666002Y-105977008D01*
X112583788Y-106138362D01*
X112527828Y-106310593D01*
X112499500Y-106489450D01*
X112260500Y-106489450D01*
X112232171Y-106310593D01*
X112232171Y-106310591D01*
X112176211Y-106138361D01*
X112093996Y-105977006D01*
X111987553Y-105830499D01*
X111859501Y-105702447D01*
X111712994Y-105596004D01*
X111712993Y-105596003D01*
X111712991Y-105596002D01*
X111551637Y-105513788D01*
X111379406Y-105457828D01*
X111200549Y-105429500D01*
X111200546Y-105429500D01*
X111019454Y-105429500D01*
X111019451Y-105429500D01*
X110840593Y-105457828D01*
X110668362Y-105513788D01*
X110507008Y-105596002D01*
X110433752Y-105649225D01*
X110360499Y-105702447D01*
X110232447Y-105830499D01*
X110179225Y-105903752D01*
X110126002Y-105977008D01*
X110043788Y-106138362D01*
X109987828Y-106310593D01*
X109959500Y-106489450D01*
X100500500Y-106489450D01*
X100500500Y-100599500D01*
X100519407Y-100541309D01*
X100568907Y-100505345D01*
X100599500Y-100500500D01*
X139400500Y-100500500D01*
X139458691Y-100519407D01*
G37*
%TD.AperFunction*%
%TD*%
M02*
