%TF.GenerationSoftware,KiCad,Pcbnew,10.0.3*%
%TF.CreationDate,2026-07-08T12:05:23+02:00*%
%TF.ProjectId,musicbrain-adc8,6d757369-6362-4726-9169-6e2d61646338,1.1*%
%TF.SameCoordinates,Original*%
%TF.FileFunction,Copper,L1,Top*%
%TF.FilePolarity,Positive*%
%FSLAX46Y46*%
G04 Gerber Fmt 4.6, Leading zero omitted, Abs format (unit mm)*
G04 Created by KiCad (PCBNEW 10.0.3) date 2026-07-08 12:05:23*
%MOMM*%
%LPD*%
G01*
G04 APERTURE LIST*
G04 Aperture macros list*
%AMRoundRect*
0 Rectangle with rounded corners*
0 $1 Rounding radius*
0 $2 $3 $4 $5 $6 $7 $8 $9 X,Y pos of 4 corners*
0 Add a 4 corners polygon primitive as box body*
4,1,4,$2,$3,$4,$5,$6,$7,$8,$9,$2,$3,0*
0 Add four circle primitives for the rounded corners*
1,1,$1+$1,$2,$3*
1,1,$1+$1,$4,$5*
1,1,$1+$1,$6,$7*
1,1,$1+$1,$8,$9*
0 Add four rect primitives between the rounded corners*
20,1,$1+$1,$2,$3,$4,$5,0*
20,1,$1+$1,$4,$5,$6,$7,0*
20,1,$1+$1,$6,$7,$8,$9,0*
20,1,$1+$1,$8,$9,$2,$3,0*%
G04 Aperture macros list end*
%TA.AperFunction,ComponentPad*%
%ADD10R,1.700000X1.700000*%
%TD*%
%TA.AperFunction,ComponentPad*%
%ADD11C,1.700000*%
%TD*%
%TA.AperFunction,SMDPad,CuDef*%
%ADD12RoundRect,0.075000X-0.700000X-0.075000X0.700000X-0.075000X0.700000X0.075000X-0.700000X0.075000X0*%
%TD*%
%TA.AperFunction,SMDPad,CuDef*%
%ADD13RoundRect,0.075000X-0.075000X-0.700000X0.075000X-0.700000X0.075000X0.700000X-0.075000X0.700000X0*%
%TD*%
%TA.AperFunction,SMDPad,CuDef*%
%ADD14RoundRect,0.375000X-0.625000X-0.375000X0.625000X-0.375000X0.625000X0.375000X-0.625000X0.375000X0*%
%TD*%
%TA.AperFunction,SMDPad,CuDef*%
%ADD15RoundRect,0.500000X-0.500000X-1.400000X0.500000X-1.400000X0.500000X1.400000X-0.500000X1.400000X0*%
%TD*%
%TA.AperFunction,SMDPad,CuDef*%
%ADD16RoundRect,0.250000X-0.262500X-0.450000X0.262500X-0.450000X0.262500X0.450000X-0.262500X0.450000X0*%
%TD*%
%TA.AperFunction,SMDPad,CuDef*%
%ADD17RoundRect,0.250000X-0.250000X-0.475000X0.250000X-0.475000X0.250000X0.475000X-0.250000X0.475000X0*%
%TD*%
%TA.AperFunction,SMDPad,CuDef*%
%ADD18RoundRect,0.250000X-1.050000X-0.550000X1.050000X-0.550000X1.050000X0.550000X-1.050000X0.550000X0*%
%TD*%
%TA.AperFunction,ViaPad*%
%ADD19C,0.500000*%
%TD*%
%TA.AperFunction,Conductor*%
%ADD20C,0.250000*%
%TD*%
%TA.AperFunction,Conductor*%
%ADD21C,0.500000*%
%TD*%
G04 APERTURE END LIST*
D10*
%TO.P,J1,1*%
%TO.N,GND*%
X131430000Y-173420000D03*
D11*
%TO.P,J1,2*%
%TO.N,+12V*%
X131430000Y-175960000D03*
%TO.P,J1,3*%
%TO.N,GND*%
X128890000Y-173420000D03*
%TO.P,J1,4*%
%TO.N,N/C*%
X128890000Y-175960000D03*
%TO.P,J1,5*%
%TO.N,GND*%
X126350000Y-173420000D03*
%TO.P,J1,6*%
%TO.N,+3V3*%
X126350000Y-175960000D03*
%TO.P,J1,7*%
%TO.N,/SCLK*%
X123810000Y-173420000D03*
%TO.P,J1,8*%
%TO.N,GND*%
X123810000Y-175960000D03*
%TO.P,J1,9*%
%TO.N,N/C*%
X121270000Y-173420000D03*
%TO.P,J1,10*%
%TO.N,GND*%
X121270000Y-175960000D03*
%TO.P,J1,11*%
%TO.N,/MISO*%
X118730000Y-173420000D03*
%TO.P,J1,12*%
%TO.N,GND*%
X118730000Y-175960000D03*
%TO.P,J1,13*%
%TO.N,/CS*%
X116190000Y-173420000D03*
%TO.P,J1,14*%
%TO.N,GND*%
X116190000Y-175960000D03*
%TO.P,J1,15*%
%TO.N,N/C*%
X113650000Y-173420000D03*
%TO.P,J1,16*%
%TO.N,/IRQ*%
X113650000Y-175960000D03*
%TO.P,J1,17*%
%TO.N,N/C*%
X111110000Y-173420000D03*
%TO.P,J1,18*%
X111110000Y-175960000D03*
%TO.P,J1,19*%
%TO.N,/CONVST*%
X108570000Y-173420000D03*
%TO.P,J1,20*%
%TO.N,/RESET*%
X108570000Y-175960000D03*
%TD*%
D10*
%TO.P,J2,1*%
%TO.N,GND*%
X108570000Y-106580000D03*
D11*
%TO.P,J2,2*%
%TO.N,/IN1*%
X111110000Y-106580000D03*
%TO.P,J2,3*%
%TO.N,/IN2*%
X113650000Y-106580000D03*
%TO.P,J2,4*%
%TO.N,/IN3*%
X116190000Y-106580000D03*
%TO.P,J2,5*%
%TO.N,/IN4*%
X118730000Y-106580000D03*
%TO.P,J2,6*%
%TO.N,/IN5*%
X121270000Y-106580000D03*
%TO.P,J2,7*%
%TO.N,/IN6*%
X123810000Y-106580000D03*
%TO.P,J2,8*%
%TO.N,/IN7*%
X126350000Y-106580000D03*
%TO.P,J2,9*%
%TO.N,/IN8*%
X128890000Y-106580000D03*
%TO.P,J2,10*%
%TO.N,GND*%
X131430000Y-106580000D03*
%TD*%
D12*
%TO.P,U1,1*%
%TO.N,+5V*%
X114325000Y-131250000D03*
%TO.P,U1,2*%
%TO.N,GND*%
X114325000Y-131750000D03*
%TO.P,U1,3*%
X114325000Y-132250000D03*
%TO.P,U1,4*%
X114325000Y-132750000D03*
%TO.P,U1,5*%
X114325000Y-133250000D03*
%TO.P,U1,6*%
%TO.N,+3V3*%
X114325000Y-133750000D03*
%TO.P,U1,7*%
X114325000Y-134250000D03*
%TO.P,U1,8*%
%TO.N,/RANGE*%
X114325000Y-134750000D03*
%TO.P,U1,9*%
%TO.N,/CONVST*%
X114325000Y-135250000D03*
%TO.P,U1,10*%
X114325000Y-135750000D03*
%TO.P,U1,11*%
%TO.N,/RESET*%
X114325000Y-136250000D03*
%TO.P,U1,12*%
%TO.N,/SCLK*%
X114325000Y-136750000D03*
%TO.P,U1,13*%
%TO.N,/CS*%
X114325000Y-137250000D03*
%TO.P,U1,14*%
%TO.N,/IRQ*%
X114325000Y-137750000D03*
%TO.P,U1,15*%
%TO.N,N/C*%
X114325000Y-138250000D03*
%TO.P,U1,16*%
%TO.N,GND*%
X114325000Y-138750000D03*
D13*
%TO.P,U1,17*%
X116250000Y-140675000D03*
%TO.P,U1,18*%
X116750000Y-140675000D03*
%TO.P,U1,19*%
X117250000Y-140675000D03*
%TO.P,U1,20*%
X117750000Y-140675000D03*
%TO.P,U1,21*%
X118250000Y-140675000D03*
%TO.P,U1,22*%
X118750000Y-140675000D03*
%TO.P,U1,23*%
%TO.N,+3V3*%
X119250000Y-140675000D03*
%TO.P,U1,24*%
%TO.N,/MISO*%
X119750000Y-140675000D03*
%TO.P,U1,25*%
%TO.N,N/C*%
X120250000Y-140675000D03*
%TO.P,U1,26*%
%TO.N,GND*%
X120750000Y-140675000D03*
%TO.P,U1,27*%
X121250000Y-140675000D03*
%TO.P,U1,28*%
X121750000Y-140675000D03*
%TO.P,U1,29*%
X122250000Y-140675000D03*
%TO.P,U1,30*%
X122750000Y-140675000D03*
%TO.P,U1,31*%
X123250000Y-140675000D03*
%TO.P,U1,32*%
X123750000Y-140675000D03*
D12*
%TO.P,U1,33*%
X125675000Y-138750000D03*
%TO.P,U1,34*%
%TO.N,+3V3*%
X125675000Y-138250000D03*
%TO.P,U1,35*%
%TO.N,GND*%
X125675000Y-137750000D03*
%TO.P,U1,36*%
%TO.N,Net-(U1-REGCAP1)*%
X125675000Y-137250000D03*
%TO.P,U1,37*%
%TO.N,+5V*%
X125675000Y-136750000D03*
%TO.P,U1,38*%
X125675000Y-136250000D03*
%TO.P,U1,39*%
%TO.N,Net-(U1-REGCAP2)*%
X125675000Y-135750000D03*
%TO.P,U1,40*%
%TO.N,GND*%
X125675000Y-135250000D03*
%TO.P,U1,41*%
X125675000Y-134750000D03*
%TO.P,U1,42*%
%TO.N,Net-(U1-REFIN{slash}REFOUT)*%
X125675000Y-134250000D03*
%TO.P,U1,43*%
%TO.N,GND*%
X125675000Y-133750000D03*
%TO.P,U1,44*%
%TO.N,Net-(U1-REFCAPA)*%
X125675000Y-133250000D03*
%TO.P,U1,45*%
X125675000Y-132750000D03*
%TO.P,U1,46*%
%TO.N,GND*%
X125675000Y-132250000D03*
%TO.P,U1,47*%
X125675000Y-131750000D03*
%TO.P,U1,48*%
%TO.N,+5V*%
X125675000Y-131250000D03*
D13*
%TO.P,U1,49*%
%TO.N,Net-(U1-V1)*%
X123750000Y-129325000D03*
%TO.P,U1,50*%
%TO.N,GND*%
X123250000Y-129325000D03*
%TO.P,U1,51*%
%TO.N,Net-(U1-V2)*%
X122750000Y-129325000D03*
%TO.P,U1,52*%
%TO.N,GND*%
X122250000Y-129325000D03*
%TO.P,U1,53*%
%TO.N,Net-(U1-V3)*%
X121750000Y-129325000D03*
%TO.P,U1,54*%
%TO.N,GND*%
X121250000Y-129325000D03*
%TO.P,U1,55*%
%TO.N,Net-(U1-V4)*%
X120750000Y-129325000D03*
%TO.P,U1,56*%
%TO.N,GND*%
X120250000Y-129325000D03*
%TO.P,U1,57*%
%TO.N,Net-(U1-V5)*%
X119750000Y-129325000D03*
%TO.P,U1,58*%
%TO.N,GND*%
X119250000Y-129325000D03*
%TO.P,U1,59*%
%TO.N,Net-(U1-V6)*%
X118750000Y-129325000D03*
%TO.P,U1,60*%
%TO.N,GND*%
X118250000Y-129325000D03*
%TO.P,U1,61*%
%TO.N,Net-(U1-V7)*%
X117750000Y-129325000D03*
%TO.P,U1,62*%
%TO.N,GND*%
X117250000Y-129325000D03*
%TO.P,U1,63*%
%TO.N,Net-(U1-V8)*%
X116750000Y-129325000D03*
%TO.P,U1,64*%
%TO.N,GND*%
X116250000Y-129325000D03*
%TD*%
D10*
%TO.P,JP1,1*%
%TO.N,+3V3*%
X104500000Y-160000000D03*
D11*
%TO.P,JP1,2*%
%TO.N,/RANGE*%
X104500000Y-162540000D03*
%TO.P,JP1,3*%
%TO.N,GND*%
X104500000Y-165080000D03*
%TD*%
D14*
%TO.P,U2,1*%
%TO.N,GND*%
X129850000Y-157700000D03*
%TO.P,U2,2*%
%TO.N,+5V*%
X129850000Y-160000000D03*
D15*
X136150000Y-160000000D03*
D14*
%TO.P,U2,3*%
%TO.N,+12V*%
X129850000Y-162300000D03*
%TD*%
D16*
%TO.P,R9,1*%
%TO.N,/RESET*%
X105400000Y-173412500D03*
%TO.P,R9,2*%
%TO.N,GND*%
X105400000Y-171587500D03*
%TD*%
D17*
%TO.P,C1,1*%
%TO.N,+12V*%
X135200000Y-168950000D03*
%TO.P,C1,2*%
%TO.N,GND*%
X135200000Y-167050000D03*
%TD*%
D18*
%TO.P,C2,1*%
%TO.N,+5V*%
X135800000Y-148000000D03*
%TO.P,C2,2*%
%TO.N,GND*%
X132200000Y-148000000D03*
%TD*%
D17*
%TO.P,C3,1*%
%TO.N,+5V*%
X114250000Y-128850000D03*
%TO.P,C3,2*%
%TO.N,GND*%
X114250000Y-126950000D03*
%TD*%
%TO.P,C4,1*%
%TO.N,+5V*%
X129500000Y-130350000D03*
%TO.P,C4,2*%
%TO.N,GND*%
X129500000Y-128450000D03*
%TD*%
%TO.P,C5,1*%
%TO.N,+3V3*%
X128150000Y-144500000D03*
%TO.P,C5,2*%
%TO.N,GND*%
X130050000Y-144500000D03*
%TD*%
%TO.P,C6,1*%
%TO.N,Net-(U1-REGCAP1)*%
X129450000Y-137250000D03*
%TO.P,C6,2*%
%TO.N,GND*%
X131350000Y-137250000D03*
%TD*%
%TO.P,C7,1*%
%TO.N,Net-(U1-REGCAP2)*%
X133350000Y-135750000D03*
%TO.P,C7,2*%
%TO.N,GND*%
X135250000Y-135750000D03*
%TD*%
%TO.P,C8,1*%
%TO.N,Net-(U1-REFIN{slash}REFOUT)*%
X129450000Y-134250000D03*
%TO.P,C8,2*%
%TO.N,GND*%
X131350000Y-134250000D03*
%TD*%
%TO.P,C9,1*%
%TO.N,Net-(U1-REFCAPA)*%
X133350000Y-133000000D03*
%TO.P,C9,2*%
%TO.N,GND*%
X135250000Y-133000000D03*
%TD*%
D16*
%TO.P,R1,1*%
%TO.N,Net-(U1-V1)*%
X111110000Y-112712500D03*
%TO.P,R1,2*%
%TO.N,/IN1*%
X111110000Y-110887500D03*
%TD*%
%TO.P,R2,1*%
%TO.N,Net-(U1-V2)*%
X113650000Y-112712500D03*
%TO.P,R2,2*%
%TO.N,/IN2*%
X113650000Y-110887500D03*
%TD*%
%TO.P,R3,1*%
%TO.N,Net-(U1-V3)*%
X116190000Y-112712500D03*
%TO.P,R3,2*%
%TO.N,/IN3*%
X116190000Y-110887500D03*
%TD*%
%TO.P,R4,1*%
%TO.N,Net-(U1-V4)*%
X118730000Y-112712500D03*
%TO.P,R4,2*%
%TO.N,/IN4*%
X118730000Y-110887500D03*
%TD*%
%TO.P,R5,1*%
%TO.N,Net-(U1-V5)*%
X121270000Y-112712500D03*
%TO.P,R5,2*%
%TO.N,/IN5*%
X121270000Y-110887500D03*
%TD*%
%TO.P,R6,1*%
%TO.N,Net-(U1-V6)*%
X123810000Y-112712500D03*
%TO.P,R6,2*%
%TO.N,/IN6*%
X123810000Y-110887500D03*
%TD*%
%TO.P,R7,1*%
%TO.N,Net-(U1-V7)*%
X126350000Y-112712500D03*
%TO.P,R7,2*%
%TO.N,/IN7*%
X126350000Y-110887500D03*
%TD*%
%TO.P,R8,1*%
%TO.N,Net-(U1-V8)*%
X128890000Y-112712500D03*
%TO.P,R8,2*%
%TO.N,/IN8*%
X128890000Y-110887500D03*
%TD*%
D19*
%TO.N,Net-(U1-V1)*%
X123750000Y-124000000D03*
X111110000Y-124000000D03*
%TO.N,Net-(U1-V2)*%
X122750000Y-122400000D03*
X113650000Y-122400000D03*
%TO.N,Net-(U1-V3)*%
X121750000Y-120800000D03*
X116190000Y-120800000D03*
%TO.N,Net-(U1-V4)*%
X120750000Y-119200000D03*
X118730000Y-119200000D03*
%TO.N,Net-(U1-V5)*%
X119750000Y-118400000D03*
X121270000Y-118400000D03*
%TO.N,Net-(U1-V6)*%
X118750000Y-120000000D03*
X123810000Y-120000000D03*
%TO.N,Net-(U1-V7)*%
X117750000Y-123200000D03*
X126350000Y-123200000D03*
%TO.N,Net-(U1-V8)*%
X116750000Y-121600000D03*
X128890000Y-121600000D03*
%TO.N,/RESET*%
X106900000Y-171400000D03*
X111100000Y-171400000D03*
%TO.N,/SCLK*%
X123810000Y-170900000D03*
X111700000Y-170900000D03*
%TO.N,/CS*%
X116190000Y-170200000D03*
X112300000Y-170200000D03*
%TO.N,/IRQ*%
X114920000Y-169400000D03*
X112900000Y-169400000D03*
%TO.N,+3V3*%
X122000000Y-142600000D03*
X120200000Y-142600000D03*
X127620000Y-160000000D03*
%TO.N,+5V*%
X137800000Y-136500000D03*
X127400000Y-136500000D03*
%TO.N,+3V3*%
X109300000Y-160000000D03*
%TO.N,GND*%
X115500000Y-130500000D03*
X124600000Y-130500000D03*
X127900000Y-135000000D03*
X127900000Y-132000000D03*
X128400000Y-133625000D03*
X128300000Y-138050000D03*
X102000000Y-102000000D03*
X138000000Y-102000000D03*
X102000000Y-178000000D03*
X138000000Y-178000000D03*
X102000000Y-130000000D03*
X139000000Y-126000000D03*
X120000000Y-103000000D03*
X107000000Y-145000000D03*
X138600000Y-152000000D03*
X105000000Y-120000000D03*
X107000000Y-131000000D03*
X133000000Y-124000000D03*
X120000000Y-155000000D03*
X110000000Y-178000000D03*
X102000000Y-152000000D03*
%TD*%
%TO.N,Net-(U1-V1)*%
D20*
X123750000Y-129325000D02*
X123750000Y-124000000D01*
X111110000Y-124000000D02*
X111110000Y-112712500D01*
%TO.N,Net-(U1-V2)*%
X122750000Y-129325000D02*
X122750000Y-122400000D01*
X113650000Y-122400000D02*
X113650000Y-112712500D01*
%TO.N,Net-(U1-V3)*%
X121750000Y-129325000D02*
X121750000Y-120800000D01*
X116190000Y-120800000D02*
X116190000Y-112712500D01*
%TO.N,Net-(U1-V4)*%
X120750000Y-129325000D02*
X120750000Y-119200000D01*
X118730000Y-119200000D02*
X118730000Y-112712500D01*
%TO.N,Net-(U1-V5)*%
X119750000Y-129325000D02*
X119750000Y-118400000D01*
X121270000Y-118400000D02*
X121270000Y-112712500D01*
%TO.N,Net-(U1-V6)*%
X118750000Y-129325000D02*
X118750000Y-120000000D01*
X123810000Y-120000000D02*
X123810000Y-112712500D01*
%TO.N,Net-(U1-V7)*%
X117750000Y-129325000D02*
X117750000Y-123200000D01*
X126350000Y-123200000D02*
X126350000Y-112712500D01*
%TO.N,Net-(U1-V8)*%
X116750000Y-129325000D02*
X116750000Y-121600000D01*
X128890000Y-121600000D02*
X128890000Y-112712500D01*
%TO.N,/IN1*%
X111110000Y-110887500D02*
X111110000Y-106580000D01*
%TO.N,/IN2*%
X113650000Y-110887500D02*
X113650000Y-106580000D01*
%TO.N,/IN3*%
X116190000Y-110887500D02*
X116190000Y-106580000D01*
%TO.N,/IN4*%
X118730000Y-110887500D02*
X118730000Y-106580000D01*
%TO.N,/IN5*%
X121270000Y-110887500D02*
X121270000Y-106580000D01*
%TO.N,/IN6*%
X123810000Y-110887500D02*
X123810000Y-106580000D01*
%TO.N,/IN7*%
X126350000Y-110887500D02*
X126350000Y-106580000D01*
%TO.N,/IN8*%
X128890000Y-110887500D02*
X128890000Y-106580000D01*
%TO.N,/RANGE*%
X109900000Y-134750000D02*
X114325000Y-134750000D01*
%TO.N,/CONVST*%
X110500000Y-135250000D02*
X114325000Y-135250000D01*
X110500000Y-135750000D02*
X114325000Y-135750000D01*
%TO.N,/RESET*%
X111100000Y-136250000D02*
X114325000Y-136250000D01*
%TO.N,/SCLK*%
X111700000Y-136750000D02*
X114325000Y-136750000D01*
%TO.N,/CS*%
X112300000Y-137250000D02*
X114325000Y-137250000D01*
%TO.N,/IRQ*%
X112900000Y-137750000D02*
X114325000Y-137750000D01*
%TO.N,/RANGE*%
X109900000Y-134750000D02*
X109900000Y-162540000D01*
%TO.N,/CONVST*%
X110500000Y-135250000D02*
X110500000Y-172000000D01*
%TO.N,/RESET*%
X111100000Y-136250000D02*
X111100000Y-171400000D01*
%TO.N,/SCLK*%
X111700000Y-136750000D02*
X111700000Y-170900000D01*
%TO.N,/CS*%
X112300000Y-137250000D02*
X112300000Y-170200000D01*
%TO.N,/IRQ*%
X112900000Y-137750000D02*
X112900000Y-169400000D01*
%TO.N,/RANGE*%
X104500000Y-162540000D02*
X109900000Y-162540000D01*
%TO.N,/CONVST*%
X108570000Y-173420000D02*
X108570000Y-172000000D01*
X108570000Y-172000000D02*
X110500000Y-172000000D01*
%TO.N,/RESET*%
X108570000Y-175960000D02*
X106900000Y-175960000D01*
X106900000Y-175960000D02*
X106900000Y-171400000D01*
X106900000Y-173412500D02*
X105400000Y-173412500D01*
%TO.N,/SCLK*%
X123810000Y-173420000D02*
X123810000Y-170900000D01*
%TO.N,/CS*%
X116190000Y-173420000D02*
X116190000Y-170200000D01*
%TO.N,/IRQ*%
X113650000Y-175960000D02*
X114920000Y-175960000D01*
X114920000Y-175960000D02*
X114920000Y-169400000D01*
%TO.N,/MISO*%
X119750000Y-140675000D02*
X119750000Y-141850000D01*
X119750000Y-141850000D02*
X120900000Y-141850000D01*
X120900000Y-141850000D02*
X120900000Y-171900000D01*
X120900000Y-171900000D02*
X118730000Y-171900000D01*
X118730000Y-171900000D02*
X118730000Y-173420000D01*
%TO.N,+3V3*%
X126350000Y-175960000D02*
X127620000Y-175960000D01*
X127620000Y-175960000D02*
X127620000Y-138250000D01*
X127620000Y-138250000D02*
X125675000Y-138250000D01*
X127620000Y-144500000D02*
X128150000Y-144500000D01*
X127620000Y-142600000D02*
X122000000Y-142600000D01*
X120200000Y-142600000D02*
X119250000Y-142600000D01*
X119250000Y-142600000D02*
X119250000Y-140675000D01*
%TO.N,+12V*%
D21*
X131430000Y-175960000D02*
X133500000Y-175960000D01*
X133500000Y-175960000D02*
X133500000Y-162300000D01*
X133500000Y-162300000D02*
X129850000Y-162300000D01*
D20*
X133500000Y-168950000D02*
X135200000Y-168950000D01*
%TO.N,+5V*%
D21*
X129850000Y-160000000D02*
X136150000Y-160000000D01*
X136150000Y-160000000D02*
X136150000Y-146000000D01*
X136150000Y-146000000D02*
X137800000Y-146000000D01*
X137800000Y-146000000D02*
X137800000Y-130500000D01*
X137800000Y-130500000D02*
X126900000Y-130500000D01*
X126900000Y-130500000D02*
X126200000Y-130500000D01*
X126200000Y-130500000D02*
X126200000Y-131100000D01*
D20*
X136150000Y-148000000D02*
X135800000Y-148000000D01*
X126200000Y-131100000D02*
X114325000Y-131100000D01*
X114325000Y-131100000D02*
X114325000Y-128850000D01*
X114325000Y-128850000D02*
X114250000Y-128850000D01*
X129500000Y-130500000D02*
X129500000Y-130350000D01*
X127400000Y-136250000D02*
X127400000Y-136750000D01*
X127400000Y-136750000D02*
X125675000Y-136750000D01*
X127400000Y-136250000D02*
X125675000Y-136250000D01*
%TO.N,Net-(U1-REGCAP1)*%
X125675000Y-137250000D02*
X129450000Y-137250000D01*
%TO.N,Net-(U1-REGCAP2)*%
X125675000Y-135750000D02*
X133350000Y-135750000D01*
%TO.N,Net-(U1-REFIN{slash}REFOUT)*%
X125675000Y-134250000D02*
X129450000Y-134250000D01*
%TO.N,Net-(U1-REFCAPA)*%
X125675000Y-133250000D02*
X126900000Y-133250000D01*
X125675000Y-132750000D02*
X126900000Y-132750000D01*
X126900000Y-132750000D02*
X126900000Y-133250000D01*
X126900000Y-133000000D02*
X133350000Y-133000000D01*
%TO.N,+3V3*%
X109300000Y-160000000D02*
X109300000Y-133750000D01*
X109300000Y-133750000D02*
X114325000Y-133750000D01*
X109300000Y-134250000D02*
X114325000Y-134250000D01*
%TO.N,GND*%
X123250000Y-129325000D02*
X123250000Y-130500000D01*
X122250000Y-129325000D02*
X122250000Y-130500000D01*
X121250000Y-129325000D02*
X121250000Y-130500000D01*
X120250000Y-129325000D02*
X120250000Y-130500000D01*
X119250000Y-129325000D02*
X119250000Y-130500000D01*
X118250000Y-129325000D02*
X118250000Y-130500000D01*
X117250000Y-129325000D02*
X117250000Y-130500000D01*
X116250000Y-129325000D02*
X116250000Y-130500000D01*
X115500000Y-130500000D02*
X124600000Y-130500000D01*
X125675000Y-135250000D02*
X126500000Y-135250000D01*
X125675000Y-134750000D02*
X126500000Y-134750000D01*
X126500000Y-134750000D02*
X126500000Y-135250000D01*
X126500000Y-135000000D02*
X127900000Y-135000000D01*
X125675000Y-132250000D02*
X126500000Y-132250000D01*
X125675000Y-131750000D02*
X126500000Y-131750000D01*
X126500000Y-131750000D02*
X126500000Y-132250000D01*
X126500000Y-132000000D02*
X127900000Y-132000000D01*
X125675000Y-133750000D02*
X128400000Y-133750000D01*
X128400000Y-133750000D02*
X128400000Y-133625000D01*
X125675000Y-137750000D02*
X128300000Y-137750000D01*
X128300000Y-137750000D02*
X128300000Y-138050000D01*
%TD*%
%TA.AperFunction,Conductor*%
%TO.N,GND*%
G36*
X128658797Y-133444407D02*
G01*
X128694761Y-133493907D01*
X128694761Y-133555093D01*
X128692703Y-133560819D01*
X128660123Y-133643434D01*
X128649147Y-133734836D01*
X128648221Y-133734724D01*
X128627197Y-133788350D01*
X128575646Y-133821307D01*
X128550706Y-133824500D01*
X127125411Y-133824500D01*
X127067220Y-133805593D01*
X127031256Y-133756093D01*
X127031256Y-133694907D01*
X127067220Y-133645407D01*
X127075910Y-133639764D01*
X127098324Y-133626822D01*
X127161263Y-133590485D01*
X127240485Y-133511263D01*
X127261422Y-133474999D01*
X127306892Y-133434059D01*
X127347158Y-133425500D01*
X128600606Y-133425500D01*
X128658797Y-133444407D01*
G37*
%TD.AperFunction*%
%TA.AperFunction,Conductor*%
G36*
X139458691Y-100519407D02*
G01*
X139494655Y-100568907D01*
X139499500Y-100599500D01*
X139499500Y-179400500D01*
X139480593Y-179458691D01*
X139431093Y-179494655D01*
X139400500Y-179499500D01*
X100599500Y-179499500D01*
X100541309Y-179480593D01*
X100505345Y-179431093D01*
X100500500Y-179400500D01*
X100500500Y-162449450D01*
X103349500Y-162449450D01*
X103349500Y-162630549D01*
X103377828Y-162809406D01*
X103430038Y-162970096D01*
X103433789Y-162981639D01*
X103516004Y-163142994D01*
X103622447Y-163289501D01*
X103750499Y-163417553D01*
X103897006Y-163523996D01*
X104058361Y-163606211D01*
X104230591Y-163662171D01*
X104302136Y-163673502D01*
X104409451Y-163690500D01*
X104409454Y-163690500D01*
X104590549Y-163690500D01*
X104679977Y-163676335D01*
X104769409Y-163662171D01*
X104941639Y-163606211D01*
X105102994Y-163523996D01*
X105249501Y-163417553D01*
X105377553Y-163289501D01*
X105483996Y-163142994D01*
X105546892Y-163019553D01*
X105590156Y-162976290D01*
X105635101Y-162965500D01*
X109956017Y-162965500D01*
X109956018Y-162965500D01*
X109956018Y-162965499D01*
X109962450Y-162964653D01*
X109962883Y-162967948D01*
X110010320Y-162970096D01*
X110058143Y-163008262D01*
X110074500Y-163062771D01*
X110074500Y-171475500D01*
X110055593Y-171533691D01*
X110006093Y-171569655D01*
X109975500Y-171574500D01*
X108626018Y-171574500D01*
X108513982Y-171574500D01*
X108447748Y-171592247D01*
X108405758Y-171603498D01*
X108308739Y-171659513D01*
X108229513Y-171738739D01*
X108173498Y-171835758D01*
X108144500Y-171943983D01*
X108144500Y-172284898D01*
X108125593Y-172343089D01*
X108090445Y-172373107D01*
X107967016Y-172435997D01*
X107967009Y-172436001D01*
X107909010Y-172478140D01*
X107820499Y-172542447D01*
X107692447Y-172670499D01*
X107678164Y-172690158D01*
X107586001Y-172817009D01*
X107585997Y-172817016D01*
X107512709Y-172960852D01*
X107469445Y-173004117D01*
X107409013Y-173013688D01*
X107354496Y-172985910D01*
X107326719Y-172931394D01*
X107325500Y-172915907D01*
X107325500Y-171790538D01*
X107338764Y-171741038D01*
X107412982Y-171612489D01*
X107412982Y-171612487D01*
X107412984Y-171612485D01*
X107450500Y-171472475D01*
X107450500Y-171327525D01*
X107412984Y-171187515D01*
X107412982Y-171187512D01*
X107412982Y-171187510D01*
X107340512Y-171061989D01*
X107340510Y-171061987D01*
X107340509Y-171061985D01*
X107238015Y-170959491D01*
X107238012Y-170959489D01*
X107238010Y-170959487D01*
X107112488Y-170887017D01*
X107112489Y-170887017D01*
X107082896Y-170879087D01*
X106972475Y-170849500D01*
X106827525Y-170849500D01*
X106765790Y-170866041D01*
X106687510Y-170887017D01*
X106561989Y-170959487D01*
X106459487Y-171061989D01*
X106387017Y-171187510D01*
X106387016Y-171187515D01*
X106349500Y-171327525D01*
X106349500Y-171472475D01*
X106357813Y-171503498D01*
X106387017Y-171612489D01*
X106461236Y-171741038D01*
X106474500Y-171790538D01*
X106474500Y-172888000D01*
X106469655Y-172902911D01*
X106469655Y-172918593D01*
X106460438Y-172931278D01*
X106455593Y-172946191D01*
X106442907Y-172955407D01*
X106433691Y-172968093D01*
X106418778Y-172972938D01*
X106406093Y-172982155D01*
X106375500Y-172987000D01*
X106308941Y-172987000D01*
X106250750Y-172968093D01*
X106214786Y-172918593D01*
X106210647Y-172899804D01*
X106202377Y-172830936D01*
X106196885Y-172817009D01*
X106146862Y-172690160D01*
X106146861Y-172690159D01*
X106146861Y-172690158D01*
X106055422Y-172569578D01*
X105934842Y-172478139D01*
X105934841Y-172478138D01*
X105934839Y-172478137D01*
X105794065Y-172422623D01*
X105705606Y-172412000D01*
X105705602Y-172412000D01*
X105094398Y-172412000D01*
X105094393Y-172412000D01*
X105005934Y-172422623D01*
X104865160Y-172478137D01*
X104865156Y-172478140D01*
X104744581Y-172569575D01*
X104744575Y-172569581D01*
X104653140Y-172690156D01*
X104653137Y-172690160D01*
X104597623Y-172830934D01*
X104587000Y-172919393D01*
X104587000Y-173905606D01*
X104597623Y-173994065D01*
X104653137Y-174134839D01*
X104653138Y-174134841D01*
X104653139Y-174134842D01*
X104744578Y-174255422D01*
X104865158Y-174346861D01*
X104865159Y-174346861D01*
X104865160Y-174346862D01*
X104910237Y-174364638D01*
X105005936Y-174402377D01*
X105094398Y-174413000D01*
X105094400Y-174413000D01*
X105705600Y-174413000D01*
X105705602Y-174413000D01*
X105794064Y-174402377D01*
X105934842Y-174346861D01*
X106055422Y-174255422D01*
X106146861Y-174134842D01*
X106202377Y-173994064D01*
X106210647Y-173925195D01*
X106214786Y-173916258D01*
X106214786Y-173906407D01*
X106227366Y-173889091D01*
X106236358Y-173869675D01*
X106244959Y-173864877D01*
X106250750Y-173856907D01*
X106271103Y-173850293D01*
X106289793Y-173839869D01*
X106308941Y-173838000D01*
X106375500Y-173838000D01*
X106433691Y-173856907D01*
X106469655Y-173906407D01*
X106474500Y-173937000D01*
X106474500Y-176016018D01*
X106500072Y-176111455D01*
X106503498Y-176124241D01*
X106531355Y-176172489D01*
X106559515Y-176221263D01*
X106638737Y-176300485D01*
X106638739Y-176300486D01*
X106735759Y-176356501D01*
X106735757Y-176356501D01*
X106735761Y-176356502D01*
X106735763Y-176356503D01*
X106843982Y-176385500D01*
X106956018Y-176385500D01*
X107434899Y-176385500D01*
X107493090Y-176404407D01*
X107523107Y-176439552D01*
X107559257Y-176510500D01*
X107586001Y-176562990D01*
X107586004Y-176562994D01*
X107692447Y-176709501D01*
X107820499Y-176837553D01*
X107967006Y-176943996D01*
X108128361Y-177026211D01*
X108300591Y-177082171D01*
X108372136Y-177093502D01*
X108479451Y-177110500D01*
X108479454Y-177110500D01*
X108660549Y-177110500D01*
X108749977Y-177096335D01*
X108839409Y-177082171D01*
X109011639Y-177026211D01*
X109172994Y-176943996D01*
X109319501Y-176837553D01*
X109447553Y-176709501D01*
X109553996Y-176562994D01*
X109636211Y-176401639D01*
X109692171Y-176229409D01*
X109720500Y-176050546D01*
X109720500Y-175869454D01*
X109720500Y-175869450D01*
X109959500Y-175869450D01*
X109959500Y-176050549D01*
X109987828Y-176229406D01*
X110043788Y-176401637D01*
X110126001Y-176562990D01*
X110126004Y-176562994D01*
X110232447Y-176709501D01*
X110360499Y-176837553D01*
X110507006Y-176943996D01*
X110668361Y-177026211D01*
X110840591Y-177082171D01*
X110912136Y-177093502D01*
X111019451Y-177110500D01*
X111019454Y-177110500D01*
X111200549Y-177110500D01*
X111289977Y-177096335D01*
X111379409Y-177082171D01*
X111551639Y-177026211D01*
X111712994Y-176943996D01*
X111859501Y-176837553D01*
X111987553Y-176709501D01*
X112093996Y-176562994D01*
X112176211Y-176401639D01*
X112232171Y-176229409D01*
X112260500Y-176050546D01*
X112260500Y-175869454D01*
X112260500Y-175869450D01*
X112232171Y-175690593D01*
X112232171Y-175690591D01*
X112176211Y-175518361D01*
X112093996Y-175357006D01*
X111987553Y-175210499D01*
X111859501Y-175082447D01*
X111712994Y-174976004D01*
X111712993Y-174976003D01*
X111712991Y-174976002D01*
X111551637Y-174893788D01*
X111379406Y-174837828D01*
X111200549Y-174809500D01*
X111200546Y-174809500D01*
X111019454Y-174809500D01*
X111019451Y-174809500D01*
X110840593Y-174837828D01*
X110668362Y-174893788D01*
X110507008Y-174976002D01*
X110452835Y-175015361D01*
X110360499Y-175082447D01*
X110232447Y-175210499D01*
X110179225Y-175283752D01*
X110126002Y-175357008D01*
X110043788Y-175518362D01*
X109987828Y-175690593D01*
X109959500Y-175869450D01*
X109720500Y-175869450D01*
X109692171Y-175690593D01*
X109692171Y-175690591D01*
X109636211Y-175518361D01*
X109553996Y-175357006D01*
X109447553Y-175210499D01*
X109319501Y-175082447D01*
X109172994Y-174976004D01*
X109172993Y-174976003D01*
X109172991Y-174976002D01*
X109011637Y-174893788D01*
X108839406Y-174837828D01*
X108660549Y-174809500D01*
X108660546Y-174809500D01*
X108479454Y-174809500D01*
X108479451Y-174809500D01*
X108300593Y-174837828D01*
X108128362Y-174893788D01*
X107967008Y-174976002D01*
X107912835Y-175015361D01*
X107820499Y-175082447D01*
X107692447Y-175210499D01*
X107639225Y-175283752D01*
X107586002Y-175357008D01*
X107568890Y-175390593D01*
X107523107Y-175480446D01*
X107506717Y-175496836D01*
X107493090Y-175515593D01*
X107485492Y-175518061D01*
X107479844Y-175523710D01*
X107434899Y-175534500D01*
X107424500Y-175534500D01*
X107366309Y-175515593D01*
X107330345Y-175466093D01*
X107325500Y-175435500D01*
X107325500Y-173924092D01*
X107344407Y-173865901D01*
X107393907Y-173829937D01*
X107455093Y-173829937D01*
X107504593Y-173865901D01*
X107512708Y-173879145D01*
X107586004Y-174022994D01*
X107692447Y-174169501D01*
X107820499Y-174297553D01*
X107967006Y-174403996D01*
X108128361Y-174486211D01*
X108300591Y-174542171D01*
X108372136Y-174553502D01*
X108479451Y-174570500D01*
X108479454Y-174570500D01*
X108660549Y-174570500D01*
X108749977Y-174556335D01*
X108839409Y-174542171D01*
X109011639Y-174486211D01*
X109172994Y-174403996D01*
X109319501Y-174297553D01*
X109447553Y-174169501D01*
X109553996Y-174022994D01*
X109636211Y-173861639D01*
X109692171Y-173689409D01*
X109720500Y-173510546D01*
X109720500Y-173329454D01*
X109720500Y-173329450D01*
X109692171Y-173150593D01*
X109692171Y-173150591D01*
X109636211Y-172978361D01*
X109553996Y-172817006D01*
X109447553Y-172670499D01*
X109371555Y-172594501D01*
X109343780Y-172539987D01*
X109353351Y-172479555D01*
X109396616Y-172436290D01*
X109441561Y-172425500D01*
X110238439Y-172425500D01*
X110296630Y-172444407D01*
X110332594Y-172493907D01*
X110332594Y-172555093D01*
X110308444Y-172594501D01*
X110232447Y-172670499D01*
X110218164Y-172690158D01*
X110126002Y-172817008D01*
X110043788Y-172978362D01*
X109987828Y-173150593D01*
X109959500Y-173329450D01*
X109959500Y-173510549D01*
X109987828Y-173689406D01*
X110043788Y-173861637D01*
X110111263Y-173994065D01*
X110126004Y-174022994D01*
X110232447Y-174169501D01*
X110360499Y-174297553D01*
X110507006Y-174403996D01*
X110668361Y-174486211D01*
X110840591Y-174542171D01*
X110912136Y-174553502D01*
X111019451Y-174570500D01*
X111019454Y-174570500D01*
X111200549Y-174570500D01*
X111289977Y-174556335D01*
X111379409Y-174542171D01*
X111551639Y-174486211D01*
X111712994Y-174403996D01*
X111859501Y-174297553D01*
X111987553Y-174169501D01*
X112093996Y-174022994D01*
X112176211Y-173861639D01*
X112232171Y-173689409D01*
X112260500Y-173510546D01*
X112260500Y-173329454D01*
X112260500Y-173329450D01*
X112499500Y-173329450D01*
X112499500Y-173510549D01*
X112527828Y-173689406D01*
X112583788Y-173861637D01*
X112651263Y-173994065D01*
X112666004Y-174022994D01*
X112772447Y-174169501D01*
X112900499Y-174297553D01*
X113047006Y-174403996D01*
X113208361Y-174486211D01*
X113380591Y-174542171D01*
X113452136Y-174553502D01*
X113559451Y-174570500D01*
X113559454Y-174570500D01*
X113740549Y-174570500D01*
X113829977Y-174556335D01*
X113919409Y-174542171D01*
X114091639Y-174486211D01*
X114252994Y-174403996D01*
X114337311Y-174342736D01*
X114395499Y-174323829D01*
X114453690Y-174342736D01*
X114489654Y-174392236D01*
X114494500Y-174422829D01*
X114494500Y-174957170D01*
X114475593Y-175015361D01*
X114426093Y-175051325D01*
X114364907Y-175051325D01*
X114337313Y-175037265D01*
X114252994Y-174976004D01*
X114252993Y-174976003D01*
X114252991Y-174976002D01*
X114091637Y-174893788D01*
X113919406Y-174837828D01*
X113740549Y-174809500D01*
X113740546Y-174809500D01*
X113559454Y-174809500D01*
X113559451Y-174809500D01*
X113380593Y-174837828D01*
X113208362Y-174893788D01*
X113047008Y-174976002D01*
X112992835Y-175015361D01*
X112900499Y-175082447D01*
X112772447Y-175210499D01*
X112719225Y-175283752D01*
X112666002Y-175357008D01*
X112583788Y-175518362D01*
X112527828Y-175690593D01*
X112499500Y-175869450D01*
X112499500Y-176050549D01*
X112527828Y-176229406D01*
X112583788Y-176401637D01*
X112666001Y-176562990D01*
X112666004Y-176562994D01*
X112772447Y-176709501D01*
X112900499Y-176837553D01*
X113047006Y-176943996D01*
X113208361Y-177026211D01*
X113380591Y-177082171D01*
X113452136Y-177093502D01*
X113559451Y-177110500D01*
X113559454Y-177110500D01*
X113740549Y-177110500D01*
X113829977Y-177096335D01*
X113919409Y-177082171D01*
X114091639Y-177026211D01*
X114252994Y-176943996D01*
X114399501Y-176837553D01*
X114527553Y-176709501D01*
X114633996Y-176562994D01*
X114696892Y-176439553D01*
X114740156Y-176396290D01*
X114785101Y-176385500D01*
X114976016Y-176385500D01*
X114976018Y-176385500D01*
X115084237Y-176356503D01*
X115084239Y-176356501D01*
X115084241Y-176356501D01*
X115113064Y-176339859D01*
X115181263Y-176300485D01*
X115260485Y-176221263D01*
X115316503Y-176124237D01*
X115345500Y-176016018D01*
X115345500Y-174422829D01*
X115364407Y-174364638D01*
X115413907Y-174328674D01*
X115475093Y-174328674D01*
X115502686Y-174342734D01*
X115587006Y-174403996D01*
X115748361Y-174486211D01*
X115920591Y-174542171D01*
X115992136Y-174553502D01*
X116099451Y-174570500D01*
X116099454Y-174570500D01*
X116280549Y-174570500D01*
X116369977Y-174556335D01*
X116459409Y-174542171D01*
X116631639Y-174486211D01*
X116792994Y-174403996D01*
X116939501Y-174297553D01*
X117067553Y-174169501D01*
X117173996Y-174022994D01*
X117256211Y-173861639D01*
X117312171Y-173689409D01*
X117340500Y-173510546D01*
X117340500Y-173329454D01*
X117340500Y-173329450D01*
X117579500Y-173329450D01*
X117579500Y-173510549D01*
X117607828Y-173689406D01*
X117663788Y-173861637D01*
X117731263Y-173994065D01*
X117746004Y-174022994D01*
X117852447Y-174169501D01*
X117980499Y-174297553D01*
X118127006Y-174403996D01*
X118288361Y-174486211D01*
X118460591Y-174542171D01*
X118532136Y-174553502D01*
X118639451Y-174570500D01*
X118639454Y-174570500D01*
X118820549Y-174570500D01*
X118909977Y-174556335D01*
X118999409Y-174542171D01*
X119171639Y-174486211D01*
X119332994Y-174403996D01*
X119479501Y-174297553D01*
X119607553Y-174169501D01*
X119713996Y-174022994D01*
X119796211Y-173861639D01*
X119852171Y-173689409D01*
X119880500Y-173510546D01*
X119880500Y-173329454D01*
X119880500Y-173329450D01*
X119852171Y-173150593D01*
X119852171Y-173150591D01*
X119796211Y-172978361D01*
X119713996Y-172817006D01*
X119607553Y-172670499D01*
X119479501Y-172542447D01*
X119427396Y-172504591D01*
X119391434Y-172455092D01*
X119391434Y-172393907D01*
X119427398Y-172344407D01*
X119485589Y-172325500D01*
X120514411Y-172325500D01*
X120572602Y-172344407D01*
X120608566Y-172393907D01*
X120608566Y-172455093D01*
X120572603Y-172504591D01*
X120520499Y-172542447D01*
X120392447Y-172670499D01*
X120378164Y-172690158D01*
X120286002Y-172817008D01*
X120203788Y-172978362D01*
X120147828Y-173150593D01*
X120119500Y-173329450D01*
X120119500Y-173510549D01*
X120147828Y-173689406D01*
X120203788Y-173861637D01*
X120271263Y-173994065D01*
X120286004Y-174022994D01*
X120392447Y-174169501D01*
X120520499Y-174297553D01*
X120667006Y-174403996D01*
X120828361Y-174486211D01*
X121000591Y-174542171D01*
X121072136Y-174553502D01*
X121179451Y-174570500D01*
X121179454Y-174570500D01*
X121360549Y-174570500D01*
X121449977Y-174556335D01*
X121539409Y-174542171D01*
X121711639Y-174486211D01*
X121872994Y-174403996D01*
X122019501Y-174297553D01*
X122147553Y-174169501D01*
X122253996Y-174022994D01*
X122336211Y-173861639D01*
X122392171Y-173689409D01*
X122420500Y-173510546D01*
X122420500Y-173329454D01*
X122420500Y-173329450D01*
X122659500Y-173329450D01*
X122659500Y-173510549D01*
X122687828Y-173689406D01*
X122743788Y-173861637D01*
X122811263Y-173994065D01*
X122826004Y-174022994D01*
X122932447Y-174169501D01*
X123060499Y-174297553D01*
X123207006Y-174403996D01*
X123368361Y-174486211D01*
X123540591Y-174542171D01*
X123612136Y-174553502D01*
X123719451Y-174570500D01*
X123719454Y-174570500D01*
X123900549Y-174570500D01*
X123989977Y-174556335D01*
X124079409Y-174542171D01*
X124251639Y-174486211D01*
X124412994Y-174403996D01*
X124559501Y-174297553D01*
X124687553Y-174169501D01*
X124793996Y-174022994D01*
X124876211Y-173861639D01*
X124932171Y-173689409D01*
X124960500Y-173510546D01*
X124960500Y-173329454D01*
X124960500Y-173329450D01*
X124932171Y-173150593D01*
X124932171Y-173150591D01*
X124876211Y-172978361D01*
X124793996Y-172817006D01*
X124687553Y-172670499D01*
X124559501Y-172542447D01*
X124412994Y-172436004D01*
X124412990Y-172436001D01*
X124412983Y-172435997D01*
X124289555Y-172373107D01*
X124246290Y-172329843D01*
X124235500Y-172284898D01*
X124235500Y-171290538D01*
X124248764Y-171241038D01*
X124322982Y-171112489D01*
X124322982Y-171112487D01*
X124322984Y-171112485D01*
X124360500Y-170972475D01*
X124360500Y-170827525D01*
X124322984Y-170687515D01*
X124322982Y-170687512D01*
X124322982Y-170687510D01*
X124250512Y-170561989D01*
X124250510Y-170561987D01*
X124250509Y-170561985D01*
X124148015Y-170459491D01*
X124148012Y-170459489D01*
X124148010Y-170459487D01*
X124022488Y-170387017D01*
X124022489Y-170387017D01*
X123992896Y-170379087D01*
X123882475Y-170349500D01*
X123737525Y-170349500D01*
X123675790Y-170366041D01*
X123597510Y-170387017D01*
X123471989Y-170459487D01*
X123369487Y-170561989D01*
X123297017Y-170687510D01*
X123280139Y-170750500D01*
X123259500Y-170827525D01*
X123259500Y-170972475D01*
X123289087Y-171082896D01*
X123297017Y-171112489D01*
X123371236Y-171241038D01*
X123384500Y-171290538D01*
X123384500Y-172284898D01*
X123365593Y-172343089D01*
X123330445Y-172373107D01*
X123207016Y-172435997D01*
X123207009Y-172436001D01*
X123149010Y-172478140D01*
X123060499Y-172542447D01*
X122932447Y-172670499D01*
X122918164Y-172690158D01*
X122826002Y-172817008D01*
X122743788Y-172978362D01*
X122687828Y-173150593D01*
X122659500Y-173329450D01*
X122420500Y-173329450D01*
X122392171Y-173150593D01*
X122392171Y-173150591D01*
X122336211Y-172978361D01*
X122253996Y-172817006D01*
X122147553Y-172670499D01*
X122019501Y-172542447D01*
X121872994Y-172436004D01*
X121872993Y-172436003D01*
X121872991Y-172436002D01*
X121711637Y-172353788D01*
X121539406Y-172297828D01*
X121360549Y-172269500D01*
X121360546Y-172269500D01*
X121349467Y-172269500D01*
X121291276Y-172250593D01*
X121255312Y-172201093D01*
X121255312Y-172139907D01*
X121263731Y-172120999D01*
X121296503Y-172064237D01*
X121325500Y-171956018D01*
X121325500Y-142902204D01*
X121344407Y-142844013D01*
X121393907Y-142808049D01*
X121455093Y-142808049D01*
X121504593Y-142844013D01*
X121510232Y-142852697D01*
X121559491Y-142938015D01*
X121661985Y-143040509D01*
X121661987Y-143040510D01*
X121661989Y-143040512D01*
X121787511Y-143112982D01*
X121787512Y-143112982D01*
X121787515Y-143112984D01*
X121927525Y-143150500D01*
X121927526Y-143150500D01*
X122072474Y-143150500D01*
X122072475Y-143150500D01*
X122212485Y-143112984D01*
X122212487Y-143112982D01*
X122212489Y-143112982D01*
X122341039Y-143038764D01*
X122390539Y-143025500D01*
X127095500Y-143025500D01*
X127153691Y-143044407D01*
X127189655Y-143093907D01*
X127194500Y-143124500D01*
X127194500Y-159609461D01*
X127181236Y-159658961D01*
X127107017Y-159787510D01*
X127069500Y-159927525D01*
X127069500Y-160072474D01*
X127107017Y-160212489D01*
X127181236Y-160341038D01*
X127194500Y-160390538D01*
X127194500Y-174957170D01*
X127175593Y-175015361D01*
X127126093Y-175051325D01*
X127064907Y-175051325D01*
X127037313Y-175037265D01*
X126952994Y-174976004D01*
X126952993Y-174976003D01*
X126952991Y-174976002D01*
X126791637Y-174893788D01*
X126619406Y-174837828D01*
X126440549Y-174809500D01*
X126440546Y-174809500D01*
X126259454Y-174809500D01*
X126259451Y-174809500D01*
X126080593Y-174837828D01*
X125908362Y-174893788D01*
X125747008Y-174976002D01*
X125692835Y-175015361D01*
X125600499Y-175082447D01*
X125472447Y-175210499D01*
X125419225Y-175283752D01*
X125366002Y-175357008D01*
X125283788Y-175518362D01*
X125227828Y-175690593D01*
X125199500Y-175869450D01*
X125199500Y-176050549D01*
X125227828Y-176229406D01*
X125283788Y-176401637D01*
X125366001Y-176562990D01*
X125366004Y-176562994D01*
X125472447Y-176709501D01*
X125600499Y-176837553D01*
X125747006Y-176943996D01*
X125908361Y-177026211D01*
X126080591Y-177082171D01*
X126152136Y-177093502D01*
X126259451Y-177110500D01*
X126259454Y-177110500D01*
X126440549Y-177110500D01*
X126529977Y-177096335D01*
X126619409Y-177082171D01*
X126791639Y-177026211D01*
X126952994Y-176943996D01*
X127099501Y-176837553D01*
X127227553Y-176709501D01*
X127333996Y-176562994D01*
X127396892Y-176439553D01*
X127440156Y-176396290D01*
X127485101Y-176385500D01*
X127676017Y-176385500D01*
X127676018Y-176385500D01*
X127721366Y-176373349D01*
X127782465Y-176376550D01*
X127830016Y-176415055D01*
X127835198Y-176424030D01*
X127906001Y-176562990D01*
X127906004Y-176562994D01*
X128012447Y-176709501D01*
X128140499Y-176837553D01*
X128287006Y-176943996D01*
X128448361Y-177026211D01*
X128620591Y-177082171D01*
X128692136Y-177093502D01*
X128799451Y-177110500D01*
X128799454Y-177110500D01*
X128980549Y-177110500D01*
X129069977Y-177096335D01*
X129159409Y-177082171D01*
X129331639Y-177026211D01*
X129492994Y-176943996D01*
X129639501Y-176837553D01*
X129767553Y-176709501D01*
X129873996Y-176562994D01*
X129956211Y-176401639D01*
X130012171Y-176229409D01*
X130040500Y-176050546D01*
X130040500Y-175869454D01*
X130040500Y-175869450D01*
X130012171Y-175690593D01*
X130012171Y-175690591D01*
X129956211Y-175518361D01*
X129873996Y-175357006D01*
X129767553Y-175210499D01*
X129639501Y-175082447D01*
X129492994Y-174976004D01*
X129492993Y-174976003D01*
X129492991Y-174976002D01*
X129331637Y-174893788D01*
X129159406Y-174837828D01*
X128980549Y-174809500D01*
X128980546Y-174809500D01*
X128799454Y-174809500D01*
X128799451Y-174809500D01*
X128620593Y-174837828D01*
X128448362Y-174893788D01*
X128287008Y-174976002D01*
X128270821Y-174987763D01*
X128202688Y-175037263D01*
X128144500Y-175056170D01*
X128086309Y-175037263D01*
X128050345Y-174987763D01*
X128045500Y-174957170D01*
X128045500Y-161870400D01*
X128549500Y-161870400D01*
X128549500Y-162729599D01*
X128555684Y-162797656D01*
X128555686Y-162797662D01*
X128604485Y-162954263D01*
X128604490Y-162954275D01*
X128689349Y-163094649D01*
X128689350Y-163094650D01*
X128689352Y-163094653D01*
X128805347Y-163210648D01*
X128805349Y-163210649D01*
X128805350Y-163210650D01*
X128945724Y-163295509D01*
X128945727Y-163295510D01*
X128945730Y-163295512D01*
X129102343Y-163344315D01*
X129170406Y-163350500D01*
X129170412Y-163350500D01*
X130529588Y-163350500D01*
X130529594Y-163350500D01*
X130597657Y-163344315D01*
X130754270Y-163295512D01*
X130894653Y-163210648D01*
X131010648Y-163094653D01*
X131095512Y-162954270D01*
X131097719Y-162947184D01*
X131106177Y-162920047D01*
X131141540Y-162870116D01*
X131199498Y-162850507D01*
X131200694Y-162850500D01*
X132850500Y-162850500D01*
X132908691Y-162869407D01*
X132944655Y-162918907D01*
X132949500Y-162949500D01*
X132949500Y-175310500D01*
X132930593Y-175368691D01*
X132881093Y-175404655D01*
X132850500Y-175409500D01*
X132501411Y-175409500D01*
X132443220Y-175390593D01*
X132416906Y-175359787D01*
X132416030Y-175360325D01*
X132413998Y-175357009D01*
X132413996Y-175357006D01*
X132307553Y-175210499D01*
X132179501Y-175082447D01*
X132032994Y-174976004D01*
X132032993Y-174976003D01*
X132032991Y-174976002D01*
X131871637Y-174893788D01*
X131699406Y-174837828D01*
X131520549Y-174809500D01*
X131520546Y-174809500D01*
X131339454Y-174809500D01*
X131339451Y-174809500D01*
X131160593Y-174837828D01*
X130988362Y-174893788D01*
X130827008Y-174976002D01*
X130772835Y-175015361D01*
X130680499Y-175082447D01*
X130552447Y-175210499D01*
X130499225Y-175283752D01*
X130446002Y-175357008D01*
X130363788Y-175518362D01*
X130307828Y-175690593D01*
X130279500Y-175869450D01*
X130279500Y-176050549D01*
X130307828Y-176229406D01*
X130363788Y-176401637D01*
X130446001Y-176562990D01*
X130446004Y-176562994D01*
X130552447Y-176709501D01*
X130680499Y-176837553D01*
X130827006Y-176943996D01*
X130988361Y-177026211D01*
X131160591Y-177082171D01*
X131232136Y-177093502D01*
X131339451Y-177110500D01*
X131339454Y-177110500D01*
X131520549Y-177110500D01*
X131609977Y-177096335D01*
X131699409Y-177082171D01*
X131871639Y-177026211D01*
X132032994Y-176943996D01*
X132179501Y-176837553D01*
X132307553Y-176709501D01*
X132413996Y-176562994D01*
X132413998Y-176562989D01*
X132416030Y-176559675D01*
X132417298Y-176560452D01*
X132456479Y-176521284D01*
X132501411Y-176510500D01*
X133572474Y-176510500D01*
X133572475Y-176510500D01*
X133712485Y-176472984D01*
X133712487Y-176472982D01*
X133712489Y-176472982D01*
X133838010Y-176400512D01*
X133838010Y-176400511D01*
X133838015Y-176400509D01*
X133940509Y-176298015D01*
X134012984Y-176172485D01*
X134050500Y-176032475D01*
X134050500Y-169474500D01*
X134055345Y-169459588D01*
X134055345Y-169443907D01*
X134064561Y-169431221D01*
X134069407Y-169416309D01*
X134082092Y-169407092D01*
X134091309Y-169394407D01*
X134106221Y-169389561D01*
X134118907Y-169380345D01*
X134149500Y-169375500D01*
X134300706Y-169375500D01*
X134358897Y-169394407D01*
X134394861Y-169443907D01*
X134398884Y-169465195D01*
X134399147Y-169465164D01*
X134410123Y-169556565D01*
X134465637Y-169697339D01*
X134465638Y-169697341D01*
X134465639Y-169697342D01*
X134557078Y-169817922D01*
X134677658Y-169909361D01*
X134677659Y-169909361D01*
X134677660Y-169909362D01*
X134686840Y-169912982D01*
X134818436Y-169964877D01*
X134906898Y-169975500D01*
X134906900Y-169975500D01*
X135493100Y-169975500D01*
X135493102Y-169975500D01*
X135581564Y-169964877D01*
X135722342Y-169909361D01*
X135842922Y-169817922D01*
X135934361Y-169697342D01*
X135989877Y-169556564D01*
X136000500Y-169468102D01*
X136000500Y-168431898D01*
X135989877Y-168343436D01*
X135934361Y-168202658D01*
X135842922Y-168082078D01*
X135722342Y-167990639D01*
X135722341Y-167990638D01*
X135722339Y-167990637D01*
X135581565Y-167935123D01*
X135493106Y-167924500D01*
X135493102Y-167924500D01*
X134906898Y-167924500D01*
X134906893Y-167924500D01*
X134818434Y-167935123D01*
X134677660Y-167990637D01*
X134677656Y-167990640D01*
X134557081Y-168082075D01*
X134557075Y-168082081D01*
X134465640Y-168202656D01*
X134465637Y-168202660D01*
X134410123Y-168343434D01*
X134399147Y-168434836D01*
X134398221Y-168434724D01*
X134394861Y-168443297D01*
X134394861Y-168456093D01*
X134383963Y-168471092D01*
X134377197Y-168488350D01*
X134366418Y-168495240D01*
X134358897Y-168505593D01*
X134341264Y-168511322D01*
X134325646Y-168521307D01*
X134300706Y-168524500D01*
X134149500Y-168524500D01*
X134091309Y-168505593D01*
X134055345Y-168456093D01*
X134050500Y-168425500D01*
X134050500Y-162227525D01*
X134012984Y-162087515D01*
X134012982Y-162087512D01*
X134012982Y-162087510D01*
X133940512Y-161961989D01*
X133940510Y-161961987D01*
X133940509Y-161961985D01*
X133838015Y-161859491D01*
X133838012Y-161859489D01*
X133838010Y-161859487D01*
X133712488Y-161787017D01*
X133712489Y-161787017D01*
X133682896Y-161779087D01*
X133572475Y-161749500D01*
X133572474Y-161749500D01*
X131200694Y-161749500D01*
X131142503Y-161730593D01*
X131106539Y-161681093D01*
X131106177Y-161679953D01*
X131095514Y-161645736D01*
X131095509Y-161645724D01*
X131010650Y-161505350D01*
X131010649Y-161505349D01*
X131010648Y-161505347D01*
X130894653Y-161389352D01*
X130894650Y-161389350D01*
X130894649Y-161389349D01*
X130754275Y-161304490D01*
X130754263Y-161304485D01*
X130597662Y-161255686D01*
X130597656Y-161255684D01*
X130529599Y-161249500D01*
X130529594Y-161249500D01*
X129170406Y-161249500D01*
X129170400Y-161249500D01*
X129102343Y-161255684D01*
X129102337Y-161255686D01*
X128945736Y-161304485D01*
X128945724Y-161304490D01*
X128805350Y-161389349D01*
X128689349Y-161505350D01*
X128604490Y-161645724D01*
X128604485Y-161645736D01*
X128555686Y-161802337D01*
X128555684Y-161802343D01*
X128549500Y-161870400D01*
X128045500Y-161870400D01*
X128045500Y-160390538D01*
X128058764Y-160341038D01*
X128132982Y-160212489D01*
X128132982Y-160212487D01*
X128132984Y-160212485D01*
X128170500Y-160072475D01*
X128170500Y-159927525D01*
X128132984Y-159787515D01*
X128132982Y-159787512D01*
X128132982Y-159787510D01*
X128058764Y-159658961D01*
X128045500Y-159609461D01*
X128045500Y-145624500D01*
X128064407Y-145566309D01*
X128113907Y-145530345D01*
X128144500Y-145525500D01*
X128443100Y-145525500D01*
X128443102Y-145525500D01*
X128531564Y-145514877D01*
X128672342Y-145459361D01*
X128792922Y-145367922D01*
X128884361Y-145247342D01*
X128939877Y-145106564D01*
X128950500Y-145018102D01*
X128950500Y-143981898D01*
X128939877Y-143893436D01*
X128884361Y-143752658D01*
X128792922Y-143632078D01*
X128672342Y-143540639D01*
X128672341Y-143540638D01*
X128672339Y-143540637D01*
X128531565Y-143485123D01*
X128443106Y-143474500D01*
X128443102Y-143474500D01*
X128144500Y-143474500D01*
X128086309Y-143455593D01*
X128050345Y-143406093D01*
X128045500Y-143375500D01*
X128045500Y-138193983D01*
X128025120Y-138117924D01*
X128016503Y-138085763D01*
X128016501Y-138085760D01*
X128016501Y-138085758D01*
X127960486Y-137988739D01*
X127960485Y-137988737D01*
X127881263Y-137909515D01*
X127857929Y-137896043D01*
X127795910Y-137860236D01*
X127754970Y-137814766D01*
X127748575Y-137753916D01*
X127779168Y-137700928D01*
X127835063Y-137676042D01*
X127845411Y-137675500D01*
X128550706Y-137675500D01*
X128608897Y-137694407D01*
X128644861Y-137743907D01*
X128648884Y-137765195D01*
X128649147Y-137765164D01*
X128660123Y-137856565D01*
X128715637Y-137997339D01*
X128715638Y-137997341D01*
X128715639Y-137997342D01*
X128807078Y-138117922D01*
X128927658Y-138209361D01*
X128927659Y-138209361D01*
X128927660Y-138209362D01*
X128998047Y-138237119D01*
X129068436Y-138264877D01*
X129156898Y-138275500D01*
X129156900Y-138275500D01*
X129743100Y-138275500D01*
X129743102Y-138275500D01*
X129831564Y-138264877D01*
X129972342Y-138209361D01*
X130092922Y-138117922D01*
X130184361Y-137997342D01*
X130239877Y-137856564D01*
X130250500Y-137768102D01*
X130250500Y-136731898D01*
X130239877Y-136643436D01*
X130209488Y-136566375D01*
X130184362Y-136502660D01*
X130184361Y-136502659D01*
X130184361Y-136502658D01*
X130092922Y-136382078D01*
X130055082Y-136353383D01*
X130020140Y-136303157D01*
X130021394Y-136241985D01*
X130058364Y-136193232D01*
X130114902Y-136175500D01*
X132450706Y-136175500D01*
X132508897Y-136194407D01*
X132544861Y-136243907D01*
X132548884Y-136265195D01*
X132549147Y-136265164D01*
X132560123Y-136356565D01*
X132615637Y-136497339D01*
X132615638Y-136497341D01*
X132615639Y-136497342D01*
X132707078Y-136617922D01*
X132827658Y-136709361D01*
X132827659Y-136709361D01*
X132827660Y-136709362D01*
X132884810Y-136731899D01*
X132968436Y-136764877D01*
X133056898Y-136775500D01*
X133056900Y-136775500D01*
X133643100Y-136775500D01*
X133643102Y-136775500D01*
X133731564Y-136764877D01*
X133872342Y-136709361D01*
X133992922Y-136617922D01*
X134084361Y-136497342D01*
X134139877Y-136356564D01*
X134150500Y-136268102D01*
X134150500Y-135231898D01*
X134139877Y-135143436D01*
X134109488Y-135066375D01*
X134084362Y-135002660D01*
X134084361Y-135002659D01*
X134084361Y-135002658D01*
X133992922Y-134882078D01*
X133872342Y-134790639D01*
X133872341Y-134790638D01*
X133872339Y-134790637D01*
X133731565Y-134735123D01*
X133643106Y-134724500D01*
X133643102Y-134724500D01*
X133056898Y-134724500D01*
X133056893Y-134724500D01*
X132968434Y-134735123D01*
X132827660Y-134790637D01*
X132827656Y-134790640D01*
X132707081Y-134882075D01*
X132707075Y-134882081D01*
X132615640Y-135002656D01*
X132615637Y-135002660D01*
X132560123Y-135143434D01*
X132549147Y-135234836D01*
X132548221Y-135234724D01*
X132527197Y-135288350D01*
X132475646Y-135321307D01*
X132450706Y-135324500D01*
X130114902Y-135324500D01*
X130056711Y-135305593D01*
X130020747Y-135256093D01*
X130020747Y-135194907D01*
X130055083Y-135146616D01*
X130092922Y-135117922D01*
X130184361Y-134997342D01*
X130239877Y-134856564D01*
X130250500Y-134768102D01*
X130250500Y-133731898D01*
X130239877Y-133643436D01*
X130207297Y-133560819D01*
X130203538Y-133499749D01*
X130236393Y-133448133D01*
X130293312Y-133425687D01*
X130299394Y-133425500D01*
X132450706Y-133425500D01*
X132508897Y-133444407D01*
X132544861Y-133493907D01*
X132548884Y-133515195D01*
X132549147Y-133515164D01*
X132560123Y-133606565D01*
X132615637Y-133747339D01*
X132615638Y-133747341D01*
X132615639Y-133747342D01*
X132707078Y-133867922D01*
X132827658Y-133959361D01*
X132827659Y-133959361D01*
X132827660Y-133959362D01*
X132887343Y-133982898D01*
X132968436Y-134014877D01*
X133056898Y-134025500D01*
X133056900Y-134025500D01*
X133643100Y-134025500D01*
X133643102Y-134025500D01*
X133731564Y-134014877D01*
X133872342Y-133959361D01*
X133992922Y-133867922D01*
X134084361Y-133747342D01*
X134139877Y-133606564D01*
X134150500Y-133518102D01*
X134150500Y-132481898D01*
X134139877Y-132393436D01*
X134084361Y-132252658D01*
X133992922Y-132132078D01*
X133872342Y-132040639D01*
X133872341Y-132040638D01*
X133872339Y-132040637D01*
X133731565Y-131985123D01*
X133643106Y-131974500D01*
X133643102Y-131974500D01*
X133056898Y-131974500D01*
X133056893Y-131974500D01*
X132968434Y-131985123D01*
X132827660Y-132040637D01*
X132827656Y-132040640D01*
X132707081Y-132132075D01*
X132707075Y-132132081D01*
X132615640Y-132252656D01*
X132615637Y-132252660D01*
X132560123Y-132393434D01*
X132549147Y-132484836D01*
X132548221Y-132484724D01*
X132527197Y-132538350D01*
X132475646Y-132571307D01*
X132450706Y-132574500D01*
X127347158Y-132574500D01*
X127288967Y-132555593D01*
X127261422Y-132525001D01*
X127258518Y-132519972D01*
X127240485Y-132488737D01*
X127161263Y-132409515D01*
X127161260Y-132409513D01*
X127064240Y-132353498D01*
X127064242Y-132353498D01*
X127022251Y-132342247D01*
X126956018Y-132324500D01*
X126956016Y-132324500D01*
X126535915Y-132324500D01*
X126492437Y-132314442D01*
X126483625Y-132310134D01*
X126483626Y-132310134D01*
X126465377Y-132307475D01*
X126410636Y-132299500D01*
X124939364Y-132299500D01*
X124895570Y-132305880D01*
X124866373Y-132310134D01*
X124753790Y-132365173D01*
X124665173Y-132453790D01*
X124610134Y-132566373D01*
X124610134Y-132566375D01*
X124599500Y-132639364D01*
X124599500Y-132860636D01*
X124610134Y-132933625D01*
X124621327Y-132956521D01*
X124629896Y-133017104D01*
X124621327Y-133043478D01*
X124610134Y-133066375D01*
X124599500Y-133139364D01*
X124599500Y-133360636D01*
X124606621Y-133409513D01*
X124610134Y-133433626D01*
X124639604Y-133493907D01*
X124665174Y-133546211D01*
X124753789Y-133634826D01*
X124807450Y-133661059D01*
X124851424Y-133703603D01*
X124861993Y-133763869D01*
X124835120Y-133818837D01*
X124807451Y-133838940D01*
X124787930Y-133848483D01*
X124753790Y-133865173D01*
X124665173Y-133953790D01*
X124610134Y-134066373D01*
X124610134Y-134066374D01*
X124610134Y-134066375D01*
X124599500Y-134139364D01*
X124599500Y-134360636D01*
X124608007Y-134419027D01*
X124610134Y-134433626D01*
X124634222Y-134482898D01*
X124665174Y-134546211D01*
X124753789Y-134634826D01*
X124866375Y-134689866D01*
X124939364Y-134700500D01*
X124939367Y-134700500D01*
X126410632Y-134700500D01*
X126410636Y-134700500D01*
X126483625Y-134689866D01*
X126492437Y-134685557D01*
X126535915Y-134675500D01*
X128550706Y-134675500D01*
X128608897Y-134694407D01*
X128644861Y-134743907D01*
X128648884Y-134765195D01*
X128649147Y-134765164D01*
X128660123Y-134856565D01*
X128715637Y-134997339D01*
X128715638Y-134997341D01*
X128715639Y-134997342D01*
X128807078Y-135117922D01*
X128840723Y-135143436D01*
X128844917Y-135146616D01*
X128879860Y-135196843D01*
X128878606Y-135258015D01*
X128841636Y-135306768D01*
X128785098Y-135324500D01*
X126535915Y-135324500D01*
X126492437Y-135314442D01*
X126483625Y-135310134D01*
X126483626Y-135310134D01*
X126465377Y-135307475D01*
X126410636Y-135299500D01*
X124939364Y-135299500D01*
X124897543Y-135305593D01*
X124866373Y-135310134D01*
X124753790Y-135365173D01*
X124665173Y-135453790D01*
X124610134Y-135566373D01*
X124610134Y-135566374D01*
X124610134Y-135566375D01*
X124599500Y-135639364D01*
X124599500Y-135860636D01*
X124610134Y-135933625D01*
X124621326Y-135956520D01*
X124621327Y-135956521D01*
X124629896Y-136017104D01*
X124621327Y-136043478D01*
X124610134Y-136066375D01*
X124599500Y-136139364D01*
X124599500Y-136360636D01*
X124610134Y-136433625D01*
X124621326Y-136456520D01*
X124621327Y-136456521D01*
X124629896Y-136517104D01*
X124621327Y-136543478D01*
X124610134Y-136566375D01*
X124599500Y-136639364D01*
X124599500Y-136860636D01*
X124610134Y-136933625D01*
X124621326Y-136956520D01*
X124621327Y-136956521D01*
X124629896Y-137017104D01*
X124621327Y-137043478D01*
X124610134Y-137066375D01*
X124599500Y-137139364D01*
X124599500Y-137360636D01*
X124608007Y-137419027D01*
X124610134Y-137433626D01*
X124634222Y-137482898D01*
X124665174Y-137546211D01*
X124753789Y-137634826D01*
X124807450Y-137661059D01*
X124851424Y-137703603D01*
X124861993Y-137763869D01*
X124835120Y-137818837D01*
X124807451Y-137838940D01*
X124787930Y-137848483D01*
X124753790Y-137865173D01*
X124665173Y-137953790D01*
X124610134Y-138066373D01*
X124610134Y-138066374D01*
X124610134Y-138066375D01*
X124599500Y-138139364D01*
X124599500Y-138360636D01*
X124610134Y-138433625D01*
X124665174Y-138546211D01*
X124753789Y-138634826D01*
X124866375Y-138689866D01*
X124939364Y-138700500D01*
X124939367Y-138700500D01*
X126410632Y-138700500D01*
X126410636Y-138700500D01*
X126483625Y-138689866D01*
X126492437Y-138685557D01*
X126535915Y-138675500D01*
X127095500Y-138675500D01*
X127153691Y-138694407D01*
X127189655Y-138743907D01*
X127194500Y-138774500D01*
X127194500Y-142075500D01*
X127175593Y-142133691D01*
X127126093Y-142169655D01*
X127095500Y-142174500D01*
X122390539Y-142174500D01*
X122341039Y-142161236D01*
X122212488Y-142087017D01*
X122212489Y-142087017D01*
X122169507Y-142075500D01*
X122072475Y-142049500D01*
X121927525Y-142049500D01*
X121865790Y-142066041D01*
X121787510Y-142087017D01*
X121661989Y-142159487D01*
X121559487Y-142261989D01*
X121510236Y-142347295D01*
X121464767Y-142388236D01*
X121403916Y-142394632D01*
X121350928Y-142364039D01*
X121326042Y-142308143D01*
X121325500Y-142297795D01*
X121325500Y-141793983D01*
X121325500Y-141793982D01*
X121296503Y-141685763D01*
X121296501Y-141685760D01*
X121296501Y-141685758D01*
X121240486Y-141588739D01*
X121240485Y-141588737D01*
X121161263Y-141509515D01*
X121161260Y-141509513D01*
X121064240Y-141453498D01*
X121064242Y-141453498D01*
X121022251Y-141442247D01*
X120956018Y-141424500D01*
X120956016Y-141424500D01*
X120799500Y-141424500D01*
X120741309Y-141405593D01*
X120705345Y-141356093D01*
X120700500Y-141325500D01*
X120700500Y-139939367D01*
X120700500Y-139939364D01*
X120689866Y-139866375D01*
X120634826Y-139753789D01*
X120546211Y-139665174D01*
X120433625Y-139610134D01*
X120433626Y-139610134D01*
X120415377Y-139607475D01*
X120360636Y-139599500D01*
X120139364Y-139599500D01*
X120084622Y-139607475D01*
X120066374Y-139610134D01*
X120043479Y-139621327D01*
X119982896Y-139629896D01*
X119956521Y-139621327D01*
X119933625Y-139610134D01*
X119860636Y-139599500D01*
X119639364Y-139599500D01*
X119584622Y-139607475D01*
X119566374Y-139610134D01*
X119543479Y-139621327D01*
X119482896Y-139629896D01*
X119456521Y-139621327D01*
X119433625Y-139610134D01*
X119360636Y-139599500D01*
X119139364Y-139599500D01*
X119095570Y-139605880D01*
X119066373Y-139610134D01*
X118953790Y-139665173D01*
X118865173Y-139753790D01*
X118810134Y-139866373D01*
X118810134Y-139866375D01*
X118799500Y-139939364D01*
X118799500Y-141410636D01*
X118810134Y-141483625D01*
X118814441Y-141492436D01*
X118824500Y-141535914D01*
X118824500Y-142656018D01*
X118828910Y-142672475D01*
X118853498Y-142764241D01*
X118904573Y-142852704D01*
X118909515Y-142861263D01*
X118988737Y-142940485D01*
X118988739Y-142940486D01*
X119085759Y-142996501D01*
X119085757Y-142996501D01*
X119085761Y-142996502D01*
X119085763Y-142996503D01*
X119193982Y-143025500D01*
X119306018Y-143025500D01*
X119809461Y-143025500D01*
X119858961Y-143038764D01*
X119987511Y-143112982D01*
X119987512Y-143112982D01*
X119987515Y-143112984D01*
X120127525Y-143150500D01*
X120127526Y-143150500D01*
X120272476Y-143150500D01*
X120272476Y-143150499D01*
X120349876Y-143129760D01*
X120410977Y-143132961D01*
X120458528Y-143171466D01*
X120474500Y-143225386D01*
X120474500Y-171375500D01*
X120455593Y-171433691D01*
X120406093Y-171469655D01*
X120375500Y-171474500D01*
X118786018Y-171474500D01*
X118673982Y-171474500D01*
X118607748Y-171492247D01*
X118565758Y-171503498D01*
X118468739Y-171559513D01*
X118389513Y-171638739D01*
X118333498Y-171735758D01*
X118304500Y-171843983D01*
X118304500Y-172284898D01*
X118285593Y-172343089D01*
X118250445Y-172373107D01*
X118127016Y-172435997D01*
X118127009Y-172436001D01*
X118069010Y-172478140D01*
X117980499Y-172542447D01*
X117852447Y-172670499D01*
X117838164Y-172690158D01*
X117746002Y-172817008D01*
X117663788Y-172978362D01*
X117607828Y-173150593D01*
X117579500Y-173329450D01*
X117340500Y-173329450D01*
X117312171Y-173150593D01*
X117312171Y-173150591D01*
X117256211Y-172978361D01*
X117173996Y-172817006D01*
X117067553Y-172670499D01*
X116939501Y-172542447D01*
X116792994Y-172436004D01*
X116792990Y-172436001D01*
X116792983Y-172435997D01*
X116669555Y-172373107D01*
X116626290Y-172329843D01*
X116615500Y-172284898D01*
X116615500Y-170590538D01*
X116628764Y-170541038D01*
X116702982Y-170412489D01*
X116702982Y-170412487D01*
X116702984Y-170412485D01*
X116740500Y-170272475D01*
X116740500Y-170127525D01*
X116702984Y-169987515D01*
X116702982Y-169987512D01*
X116702982Y-169987510D01*
X116630512Y-169861989D01*
X116630510Y-169861987D01*
X116630509Y-169861985D01*
X116528015Y-169759491D01*
X116528012Y-169759489D01*
X116528010Y-169759487D01*
X116402488Y-169687017D01*
X116402489Y-169687017D01*
X116372896Y-169679087D01*
X116262475Y-169649500D01*
X116117525Y-169649500D01*
X116055790Y-169666041D01*
X115977510Y-169687017D01*
X115851989Y-169759487D01*
X115749487Y-169861989D01*
X115677017Y-169987510D01*
X115639500Y-170127525D01*
X115639500Y-170272474D01*
X115677017Y-170412489D01*
X115751236Y-170541038D01*
X115764500Y-170590538D01*
X115764500Y-172284898D01*
X115745593Y-172343089D01*
X115710445Y-172373107D01*
X115587016Y-172435997D01*
X115587009Y-172436001D01*
X115560733Y-172455092D01*
X115502688Y-172497263D01*
X115444500Y-172516170D01*
X115386309Y-172497263D01*
X115350345Y-172447763D01*
X115345500Y-172417170D01*
X115345500Y-169790538D01*
X115358764Y-169741038D01*
X115432982Y-169612489D01*
X115432982Y-169612487D01*
X115432984Y-169612485D01*
X115470500Y-169472475D01*
X115470500Y-169327525D01*
X115432984Y-169187515D01*
X115432982Y-169187512D01*
X115432982Y-169187510D01*
X115360512Y-169061989D01*
X115360510Y-169061987D01*
X115360509Y-169061985D01*
X115258015Y-168959491D01*
X115258012Y-168959489D01*
X115258010Y-168959487D01*
X115132488Y-168887017D01*
X115132489Y-168887017D01*
X115102896Y-168879087D01*
X114992475Y-168849500D01*
X114847525Y-168849500D01*
X114785790Y-168866041D01*
X114707510Y-168887017D01*
X114581989Y-168959487D01*
X114479487Y-169061989D01*
X114407017Y-169187510D01*
X114369500Y-169327525D01*
X114369500Y-169472474D01*
X114407017Y-169612489D01*
X114481236Y-169741038D01*
X114494500Y-169790538D01*
X114494500Y-172417170D01*
X114475593Y-172475361D01*
X114426093Y-172511325D01*
X114364907Y-172511325D01*
X114337313Y-172497265D01*
X114252994Y-172436004D01*
X114252993Y-172436003D01*
X114252991Y-172436002D01*
X114091637Y-172353788D01*
X113919406Y-172297828D01*
X113740549Y-172269500D01*
X113740546Y-172269500D01*
X113559454Y-172269500D01*
X113559451Y-172269500D01*
X113380593Y-172297828D01*
X113208362Y-172353788D01*
X113047008Y-172436002D01*
X112989012Y-172478139D01*
X112900499Y-172542447D01*
X112772447Y-172670499D01*
X112758164Y-172690158D01*
X112666002Y-172817008D01*
X112583788Y-172978362D01*
X112527828Y-173150593D01*
X112499500Y-173329450D01*
X112260500Y-173329450D01*
X112232171Y-173150593D01*
X112232171Y-173150591D01*
X112176211Y-172978361D01*
X112093996Y-172817006D01*
X111987553Y-172670499D01*
X111859501Y-172542447D01*
X111712994Y-172436004D01*
X111712993Y-172436003D01*
X111712991Y-172436002D01*
X111551637Y-172353788D01*
X111379406Y-172297828D01*
X111200549Y-172269500D01*
X111200546Y-172269500D01*
X111019454Y-172269500D01*
X111019452Y-172269500D01*
X111012164Y-172270654D01*
X111008873Y-172270132D01*
X111005814Y-172271450D01*
X110978945Y-172265391D01*
X110951732Y-172261080D01*
X110949375Y-172258723D01*
X110946127Y-172257991D01*
X110927950Y-172237296D01*
X110908469Y-172217813D01*
X110907948Y-172214522D01*
X110905750Y-172212020D01*
X110904227Y-172191025D01*
X110898901Y-172157381D01*
X110900106Y-172151095D01*
X110900539Y-172149172D01*
X110925500Y-172056018D01*
X110925500Y-172038477D01*
X110927925Y-172027723D01*
X110938192Y-172010435D01*
X110944407Y-171991309D01*
X110953457Y-171984733D01*
X110959169Y-171975117D01*
X110977636Y-171967166D01*
X110993907Y-171955345D01*
X111011603Y-171952542D01*
X111015367Y-171950922D01*
X111018035Y-171951523D01*
X111024500Y-171950500D01*
X111172474Y-171950500D01*
X111172475Y-171950500D01*
X111312485Y-171912984D01*
X111312487Y-171912982D01*
X111312489Y-171912982D01*
X111438010Y-171840512D01*
X111438010Y-171840511D01*
X111438015Y-171840509D01*
X111540509Y-171738015D01*
X111585831Y-171659515D01*
X111612982Y-171612489D01*
X111612982Y-171612487D01*
X111612984Y-171612485D01*
X111636727Y-171523875D01*
X111670050Y-171472563D01*
X111727172Y-171450636D01*
X111732353Y-171450500D01*
X111772474Y-171450500D01*
X111772475Y-171450500D01*
X111912485Y-171412984D01*
X111912487Y-171412982D01*
X111912489Y-171412982D01*
X112038010Y-171340512D01*
X112038010Y-171340511D01*
X112038015Y-171340509D01*
X112140509Y-171238015D01*
X112212984Y-171112485D01*
X112250500Y-170972475D01*
X112250500Y-170849500D01*
X112269407Y-170791309D01*
X112318907Y-170755345D01*
X112349500Y-170750500D01*
X112372474Y-170750500D01*
X112372475Y-170750500D01*
X112512485Y-170712984D01*
X112512487Y-170712982D01*
X112512489Y-170712982D01*
X112638010Y-170640512D01*
X112638010Y-170640511D01*
X112638015Y-170640509D01*
X112740509Y-170538015D01*
X112785845Y-170459491D01*
X112812982Y-170412489D01*
X112812982Y-170412487D01*
X112812984Y-170412485D01*
X112850500Y-170272475D01*
X112850500Y-170127525D01*
X112836459Y-170075123D01*
X112839660Y-170014023D01*
X112878165Y-169966472D01*
X112932085Y-169950500D01*
X112972474Y-169950500D01*
X112972475Y-169950500D01*
X113112485Y-169912984D01*
X113112487Y-169912982D01*
X113112489Y-169912982D01*
X113238010Y-169840512D01*
X113238010Y-169840511D01*
X113238015Y-169840509D01*
X113340509Y-169738015D01*
X113363992Y-169697342D01*
X113412982Y-169612489D01*
X113412982Y-169612487D01*
X113412984Y-169612485D01*
X113450500Y-169472475D01*
X113450500Y-169327525D01*
X113412984Y-169187515D01*
X113412982Y-169187512D01*
X113412982Y-169187510D01*
X113338764Y-169058961D01*
X113325500Y-169009461D01*
X113325500Y-138755148D01*
X113344407Y-138696957D01*
X113393907Y-138660993D01*
X113455093Y-138660993D01*
X113467981Y-138666208D01*
X113516368Y-138689863D01*
X113516372Y-138689864D01*
X113516375Y-138689866D01*
X113589364Y-138700500D01*
X113589367Y-138700500D01*
X115060632Y-138700500D01*
X115060636Y-138700500D01*
X115133625Y-138689866D01*
X115246211Y-138634826D01*
X115334826Y-138546211D01*
X115389866Y-138433625D01*
X115400500Y-138360636D01*
X115400500Y-138139364D01*
X115389866Y-138066375D01*
X115378672Y-138043479D01*
X115370102Y-137982898D01*
X115378673Y-137956520D01*
X115380008Y-137953789D01*
X115389866Y-137933625D01*
X115400500Y-137860636D01*
X115400500Y-137639364D01*
X115389866Y-137566375D01*
X115378672Y-137543479D01*
X115370102Y-137482898D01*
X115378673Y-137456520D01*
X115389866Y-137433625D01*
X115400500Y-137360636D01*
X115400500Y-137139364D01*
X115389866Y-137066375D01*
X115378672Y-137043479D01*
X115370102Y-136982898D01*
X115378673Y-136956520D01*
X115389866Y-136933625D01*
X115400500Y-136860636D01*
X115400500Y-136639364D01*
X115389866Y-136566375D01*
X115378672Y-136543479D01*
X115370102Y-136482898D01*
X115378673Y-136456520D01*
X115389866Y-136433625D01*
X115400500Y-136360636D01*
X115400500Y-136139364D01*
X115389866Y-136066375D01*
X115378672Y-136043479D01*
X115370102Y-135982898D01*
X115378673Y-135956520D01*
X115389866Y-135933625D01*
X115400500Y-135860636D01*
X115400500Y-135639364D01*
X115389866Y-135566375D01*
X115378672Y-135543479D01*
X115370102Y-135482898D01*
X115378673Y-135456520D01*
X115380008Y-135453789D01*
X115389866Y-135433625D01*
X115400500Y-135360636D01*
X115400500Y-135139364D01*
X115389866Y-135066375D01*
X115378672Y-135043479D01*
X115370102Y-134982898D01*
X115378673Y-134956520D01*
X115389866Y-134933625D01*
X115400500Y-134860636D01*
X115400500Y-134639364D01*
X115389866Y-134566375D01*
X115378672Y-134543479D01*
X115370102Y-134482898D01*
X115378673Y-134456520D01*
X115389866Y-134433625D01*
X115400500Y-134360636D01*
X115400500Y-134139364D01*
X115389866Y-134066375D01*
X115378672Y-134043479D01*
X115370102Y-133982898D01*
X115378673Y-133956520D01*
X115380008Y-133953789D01*
X115389866Y-133933625D01*
X115400500Y-133860636D01*
X115400500Y-133639364D01*
X115389866Y-133566375D01*
X115334826Y-133453789D01*
X115246211Y-133365174D01*
X115133625Y-133310134D01*
X115133626Y-133310134D01*
X115115377Y-133307475D01*
X115060636Y-133299500D01*
X113589364Y-133299500D01*
X113534622Y-133307475D01*
X113516374Y-133310134D01*
X113507563Y-133314442D01*
X113464085Y-133324500D01*
X109356018Y-133324500D01*
X109243982Y-133324500D01*
X109177748Y-133342247D01*
X109135758Y-133353498D01*
X109038739Y-133409513D01*
X108959513Y-133488739D01*
X108903498Y-133585758D01*
X108874500Y-133693983D01*
X108874500Y-159609461D01*
X108861236Y-159658961D01*
X108787017Y-159787510D01*
X108749500Y-159927525D01*
X108749500Y-160072474D01*
X108787017Y-160212489D01*
X108859487Y-160338010D01*
X108859489Y-160338012D01*
X108859491Y-160338015D01*
X108961985Y-160440509D01*
X108961987Y-160440510D01*
X108961989Y-160440512D01*
X109087511Y-160512982D01*
X109087512Y-160512982D01*
X109087515Y-160512984D01*
X109227525Y-160550500D01*
X109227526Y-160550500D01*
X109375500Y-160550500D01*
X109433691Y-160569407D01*
X109469655Y-160618907D01*
X109474500Y-160649500D01*
X109474500Y-162015500D01*
X109455593Y-162073691D01*
X109406093Y-162109655D01*
X109375500Y-162114500D01*
X105635101Y-162114500D01*
X105576910Y-162095593D01*
X105546892Y-162060447D01*
X105483996Y-161937006D01*
X105377553Y-161790499D01*
X105249501Y-161662447D01*
X105102994Y-161556004D01*
X105102993Y-161556003D01*
X105102991Y-161556002D01*
X104941637Y-161473788D01*
X104769406Y-161417828D01*
X104590549Y-161389500D01*
X104590546Y-161389500D01*
X104409454Y-161389500D01*
X104409451Y-161389500D01*
X104230593Y-161417828D01*
X104058362Y-161473788D01*
X103897008Y-161556002D01*
X103864995Y-161579261D01*
X103750499Y-161662447D01*
X103622447Y-161790499D01*
X103613842Y-161802343D01*
X103516002Y-161937008D01*
X103433788Y-162098362D01*
X103377828Y-162270593D01*
X103349500Y-162449450D01*
X100500500Y-162449450D01*
X100500500Y-159105130D01*
X103349500Y-159105130D01*
X103349500Y-160894860D01*
X103349501Y-160894863D01*
X103352414Y-160919990D01*
X103377756Y-160977385D01*
X103397794Y-161022765D01*
X103477235Y-161102206D01*
X103580009Y-161147585D01*
X103605135Y-161150500D01*
X105394864Y-161150499D01*
X105419991Y-161147585D01*
X105522765Y-161102206D01*
X105602206Y-161022765D01*
X105647585Y-160919991D01*
X105650500Y-160894865D01*
X105650499Y-159105136D01*
X105647585Y-159080009D01*
X105602206Y-158977235D01*
X105522765Y-158897794D01*
X105419991Y-158852415D01*
X105419990Y-158852414D01*
X105419988Y-158852414D01*
X105394868Y-158849500D01*
X103605139Y-158849500D01*
X103605136Y-158849501D01*
X103580009Y-158852414D01*
X103477235Y-158897794D01*
X103397794Y-158977235D01*
X103352414Y-159080011D01*
X103349500Y-159105130D01*
X100500500Y-159105130D01*
X100500500Y-131139364D01*
X113249500Y-131139364D01*
X113249500Y-131360636D01*
X113260134Y-131433625D01*
X113315174Y-131546211D01*
X113403789Y-131634826D01*
X113516375Y-131689866D01*
X113589364Y-131700500D01*
X113589367Y-131700500D01*
X115060632Y-131700500D01*
X115060636Y-131700500D01*
X115133625Y-131689866D01*
X115246211Y-131634826D01*
X115326542Y-131554494D01*
X115381057Y-131526719D01*
X115396544Y-131525500D01*
X124603456Y-131525500D01*
X124661647Y-131544407D01*
X124673453Y-131554490D01*
X124753789Y-131634826D01*
X124866375Y-131689866D01*
X124939364Y-131700500D01*
X124939367Y-131700500D01*
X126410632Y-131700500D01*
X126410636Y-131700500D01*
X126483625Y-131689866D01*
X126596211Y-131634826D01*
X126684826Y-131546211D01*
X126739866Y-131433625D01*
X126750500Y-131360636D01*
X126750500Y-131149500D01*
X126769407Y-131091309D01*
X126818907Y-131055345D01*
X126849500Y-131050500D01*
X128681390Y-131050500D01*
X128739581Y-131069407D01*
X128760411Y-131092809D01*
X128761548Y-131091947D01*
X128765638Y-131097341D01*
X128765639Y-131097342D01*
X128857078Y-131217922D01*
X128977658Y-131309361D01*
X128977659Y-131309361D01*
X128977660Y-131309362D01*
X129048047Y-131337119D01*
X129118436Y-131364877D01*
X129206898Y-131375500D01*
X129206900Y-131375500D01*
X129793100Y-131375500D01*
X129793102Y-131375500D01*
X129881564Y-131364877D01*
X130022342Y-131309361D01*
X130142922Y-131217922D01*
X130234361Y-131097342D01*
X130234361Y-131097341D01*
X130238452Y-131091947D01*
X130240464Y-131093473D01*
X130277313Y-131059525D01*
X130318610Y-131050500D01*
X137150500Y-131050500D01*
X137208691Y-131069407D01*
X137244655Y-131118907D01*
X137249500Y-131149500D01*
X137249500Y-145350500D01*
X137230593Y-145408691D01*
X137181093Y-145444655D01*
X137150500Y-145449500D01*
X136222475Y-145449500D01*
X136077525Y-145449500D01*
X136040724Y-145459361D01*
X135937510Y-145487017D01*
X135811989Y-145559487D01*
X135709487Y-145661989D01*
X135637017Y-145787510D01*
X135599500Y-145927525D01*
X135599500Y-146800500D01*
X135580593Y-146858691D01*
X135531093Y-146894655D01*
X135500500Y-146899500D01*
X134706893Y-146899500D01*
X134618434Y-146910123D01*
X134477660Y-146965637D01*
X134477656Y-146965640D01*
X134357081Y-147057075D01*
X134357075Y-147057081D01*
X134265640Y-147177656D01*
X134265637Y-147177660D01*
X134210123Y-147318434D01*
X134199500Y-147406893D01*
X134199500Y-148593106D01*
X134210123Y-148681565D01*
X134265637Y-148822339D01*
X134265638Y-148822341D01*
X134265639Y-148822342D01*
X134357078Y-148942922D01*
X134477658Y-149034361D01*
X134477659Y-149034361D01*
X134477660Y-149034362D01*
X134548047Y-149062119D01*
X134618436Y-149089877D01*
X134706898Y-149100500D01*
X135500500Y-149100500D01*
X135558691Y-149119407D01*
X135594655Y-149168907D01*
X135599500Y-149199500D01*
X135599500Y-157711652D01*
X135580593Y-157769843D01*
X135531093Y-157805807D01*
X135511586Y-157810029D01*
X135470745Y-157814631D01*
X135470743Y-157814631D01*
X135300477Y-157874211D01*
X135300476Y-157874211D01*
X135147741Y-157970181D01*
X135020181Y-158097741D01*
X134924211Y-158250476D01*
X134924211Y-158250477D01*
X134864633Y-158420738D01*
X134864630Y-158420750D01*
X134849500Y-158555029D01*
X134849500Y-159350500D01*
X134830593Y-159408691D01*
X134781093Y-159444655D01*
X134750500Y-159449500D01*
X131200694Y-159449500D01*
X131142503Y-159430593D01*
X131106539Y-159381093D01*
X131106177Y-159379953D01*
X131095514Y-159345736D01*
X131095509Y-159345724D01*
X131010650Y-159205350D01*
X131010649Y-159205349D01*
X131010648Y-159205347D01*
X130894653Y-159089352D01*
X130894650Y-159089350D01*
X130894649Y-159089349D01*
X130754275Y-159004490D01*
X130754263Y-159004485D01*
X130597662Y-158955686D01*
X130597656Y-158955684D01*
X130529599Y-158949500D01*
X130529594Y-158949500D01*
X129170406Y-158949500D01*
X129170400Y-158949500D01*
X129102343Y-158955684D01*
X129102337Y-158955686D01*
X128945736Y-159004485D01*
X128945724Y-159004490D01*
X128805350Y-159089349D01*
X128689349Y-159205350D01*
X128604490Y-159345724D01*
X128604485Y-159345736D01*
X128555686Y-159502337D01*
X128555684Y-159502343D01*
X128549500Y-159570400D01*
X128549500Y-160429599D01*
X128555684Y-160497656D01*
X128555686Y-160497662D01*
X128604485Y-160654263D01*
X128604490Y-160654275D01*
X128689349Y-160794649D01*
X128689350Y-160794650D01*
X128689352Y-160794653D01*
X128805347Y-160910648D01*
X128805349Y-160910649D01*
X128805350Y-160910650D01*
X128945724Y-160995509D01*
X128945727Y-160995510D01*
X128945730Y-160995512D01*
X129102343Y-161044315D01*
X129170406Y-161050500D01*
X129170412Y-161050500D01*
X130529588Y-161050500D01*
X130529594Y-161050500D01*
X130597657Y-161044315D01*
X130754270Y-160995512D01*
X130894653Y-160910648D01*
X131010648Y-160794653D01*
X131095512Y-160654270D01*
X131097719Y-160647184D01*
X131106177Y-160620047D01*
X131141540Y-160570116D01*
X131199498Y-160550507D01*
X131200694Y-160550500D01*
X134750500Y-160550500D01*
X134808691Y-160569407D01*
X134844655Y-160618907D01*
X134849500Y-160649500D01*
X134849500Y-161444970D01*
X134864630Y-161579249D01*
X134864633Y-161579261D01*
X134924211Y-161749522D01*
X134924211Y-161749523D01*
X135020181Y-161902258D01*
X135020184Y-161902262D01*
X135147738Y-162029816D01*
X135147740Y-162029817D01*
X135147741Y-162029818D01*
X135282511Y-162114500D01*
X135300478Y-162125789D01*
X135368657Y-162149646D01*
X135470738Y-162185366D01*
X135470742Y-162185367D01*
X135470745Y-162185368D01*
X135470746Y-162185368D01*
X135470750Y-162185369D01*
X135605029Y-162200499D01*
X135605045Y-162200499D01*
X135605046Y-162200500D01*
X135605047Y-162200500D01*
X136694953Y-162200500D01*
X136694954Y-162200500D01*
X136694955Y-162200499D01*
X136694970Y-162200499D01*
X136829249Y-162185369D01*
X136829251Y-162185368D01*
X136829255Y-162185368D01*
X136999522Y-162125789D01*
X137152262Y-162029816D01*
X137279816Y-161902262D01*
X137375789Y-161749522D01*
X137435368Y-161579255D01*
X137437988Y-161556002D01*
X137450499Y-161444970D01*
X137450500Y-161444953D01*
X137450500Y-158555046D01*
X137450499Y-158555029D01*
X137435369Y-158420750D01*
X137435366Y-158420738D01*
X137411014Y-158351145D01*
X137375789Y-158250478D01*
X137279816Y-158097738D01*
X137152262Y-157970184D01*
X137152259Y-157970182D01*
X137152258Y-157970181D01*
X136999523Y-157874211D01*
X136829255Y-157814631D01*
X136788414Y-157810029D01*
X136732706Y-157784724D01*
X136702512Y-157731508D01*
X136700500Y-157711652D01*
X136700500Y-149199500D01*
X136719407Y-149141309D01*
X136768907Y-149105345D01*
X136799500Y-149100500D01*
X136893100Y-149100500D01*
X136893102Y-149100500D01*
X136981564Y-149089877D01*
X137122342Y-149034361D01*
X137242922Y-148942922D01*
X137334361Y-148822342D01*
X137389877Y-148681564D01*
X137400500Y-148593102D01*
X137400500Y-147406898D01*
X137389877Y-147318436D01*
X137334361Y-147177658D01*
X137242922Y-147057078D01*
X137122342Y-146965639D01*
X137122341Y-146965638D01*
X137122339Y-146965637D01*
X136981565Y-146910123D01*
X136893106Y-146899500D01*
X136893102Y-146899500D01*
X136799500Y-146899500D01*
X136784588Y-146894655D01*
X136768907Y-146894655D01*
X136756221Y-146885438D01*
X136741309Y-146880593D01*
X136732092Y-146867907D01*
X136719407Y-146858691D01*
X136714561Y-146843778D01*
X136705345Y-146831093D01*
X136700500Y-146800500D01*
X136700500Y-146649500D01*
X136719407Y-146591309D01*
X136768907Y-146555345D01*
X136799500Y-146550500D01*
X137872474Y-146550500D01*
X137872475Y-146550500D01*
X138012485Y-146512984D01*
X138012487Y-146512982D01*
X138012489Y-146512982D01*
X138138010Y-146440512D01*
X138138010Y-146440511D01*
X138138015Y-146440509D01*
X138240509Y-146338015D01*
X138312984Y-146212485D01*
X138350500Y-146072475D01*
X138350500Y-130427525D01*
X138312984Y-130287515D01*
X138312982Y-130287512D01*
X138312982Y-130287510D01*
X138240512Y-130161989D01*
X138240510Y-130161987D01*
X138240509Y-130161985D01*
X138138015Y-130059491D01*
X138138012Y-130059489D01*
X138138010Y-130059487D01*
X138012488Y-129987017D01*
X138012489Y-129987017D01*
X137982896Y-129979087D01*
X137872475Y-129949500D01*
X137872474Y-129949500D01*
X130399500Y-129949500D01*
X130341309Y-129930593D01*
X130305345Y-129881093D01*
X130300500Y-129850500D01*
X130300500Y-129831899D01*
X130300499Y-129831893D01*
X130289877Y-129743436D01*
X130234361Y-129602658D01*
X130142922Y-129482078D01*
X130022342Y-129390639D01*
X130022341Y-129390638D01*
X130022339Y-129390637D01*
X129881565Y-129335123D01*
X129793106Y-129324500D01*
X129793102Y-129324500D01*
X129206898Y-129324500D01*
X129206893Y-129324500D01*
X129118434Y-129335123D01*
X128977660Y-129390637D01*
X128977656Y-129390640D01*
X128857081Y-129482075D01*
X128857075Y-129482081D01*
X128765640Y-129602656D01*
X128765637Y-129602660D01*
X128710123Y-129743434D01*
X128699500Y-129831893D01*
X128699500Y-129850500D01*
X128680593Y-129908691D01*
X128631093Y-129944655D01*
X128600500Y-129949500D01*
X126972475Y-129949500D01*
X126272475Y-129949500D01*
X126127525Y-129949500D01*
X126065790Y-129966041D01*
X125987510Y-129987017D01*
X125861989Y-130059487D01*
X125759487Y-130161989D01*
X125687017Y-130287510D01*
X125649500Y-130427525D01*
X125649500Y-130575500D01*
X125630593Y-130633691D01*
X125581093Y-130669655D01*
X125550500Y-130674500D01*
X114849500Y-130674500D01*
X114791309Y-130655593D01*
X114755345Y-130606093D01*
X114750500Y-130575500D01*
X114750500Y-129875096D01*
X114769407Y-129816905D01*
X114789681Y-129796212D01*
X114892922Y-129717922D01*
X114984361Y-129597342D01*
X115039877Y-129456564D01*
X115050500Y-129368102D01*
X115050500Y-128331898D01*
X115039877Y-128243436D01*
X114984361Y-128102658D01*
X114892922Y-127982078D01*
X114772342Y-127890639D01*
X114772341Y-127890638D01*
X114772339Y-127890637D01*
X114631565Y-127835123D01*
X114543106Y-127824500D01*
X114543102Y-127824500D01*
X113956898Y-127824500D01*
X113956893Y-127824500D01*
X113868434Y-127835123D01*
X113727660Y-127890637D01*
X113727656Y-127890640D01*
X113607081Y-127982075D01*
X113607075Y-127982081D01*
X113515640Y-128102656D01*
X113515637Y-128102660D01*
X113460123Y-128243434D01*
X113449500Y-128331893D01*
X113449500Y-129368106D01*
X113460123Y-129456565D01*
X113515637Y-129597339D01*
X113515638Y-129597341D01*
X113515639Y-129597342D01*
X113607078Y-129717922D01*
X113727658Y-129809361D01*
X113727659Y-129809361D01*
X113727660Y-129809362D01*
X113836819Y-129852409D01*
X113884016Y-129891345D01*
X113899500Y-129944506D01*
X113899500Y-130700500D01*
X113880593Y-130758691D01*
X113831093Y-130794655D01*
X113800500Y-130799500D01*
X113589364Y-130799500D01*
X113545570Y-130805880D01*
X113516373Y-130810134D01*
X113403790Y-130865173D01*
X113315173Y-130953790D01*
X113260134Y-131066373D01*
X113260134Y-131066375D01*
X113249500Y-131139364D01*
X100500500Y-131139364D01*
X100500500Y-106489450D01*
X109959500Y-106489450D01*
X109959500Y-106670549D01*
X109987828Y-106849406D01*
X109987829Y-106849409D01*
X110043789Y-107021639D01*
X110126004Y-107182994D01*
X110232447Y-107329501D01*
X110360499Y-107457553D01*
X110507006Y-107563996D01*
X110630446Y-107626892D01*
X110673710Y-107670156D01*
X110684500Y-107715101D01*
X110684500Y-109842640D01*
X110665593Y-109900831D01*
X110621820Y-109934737D01*
X110575158Y-109953138D01*
X110454581Y-110044575D01*
X110454575Y-110044581D01*
X110363140Y-110165156D01*
X110363137Y-110165160D01*
X110307623Y-110305934D01*
X110297000Y-110394393D01*
X110297000Y-111380606D01*
X110307623Y-111469065D01*
X110363137Y-111609839D01*
X110363140Y-111609843D01*
X110458670Y-111735818D01*
X110457551Y-111736666D01*
X110481930Y-111784513D01*
X110472359Y-111844945D01*
X110458484Y-111864041D01*
X110458670Y-111864182D01*
X110363140Y-111990156D01*
X110363137Y-111990160D01*
X110307623Y-112130934D01*
X110297000Y-112219393D01*
X110297000Y-113205606D01*
X110307623Y-113294065D01*
X110363137Y-113434839D01*
X110363138Y-113434841D01*
X110363139Y-113434842D01*
X110454578Y-113555422D01*
X110575158Y-113646861D01*
X110575159Y-113646861D01*
X110575160Y-113646862D01*
X110621819Y-113665262D01*
X110669016Y-113704198D01*
X110684500Y-113757359D01*
X110684500Y-123609461D01*
X110671236Y-123658961D01*
X110597017Y-123787510D01*
X110559500Y-123927525D01*
X110559500Y-124072474D01*
X110597017Y-124212489D01*
X110669487Y-124338010D01*
X110669489Y-124338012D01*
X110669491Y-124338015D01*
X110771985Y-124440509D01*
X110771987Y-124440510D01*
X110771989Y-124440512D01*
X110897511Y-124512982D01*
X110897512Y-124512982D01*
X110897515Y-124512984D01*
X111037525Y-124550500D01*
X111037526Y-124550500D01*
X111182474Y-124550500D01*
X111182475Y-124550500D01*
X111322485Y-124512984D01*
X111322487Y-124512982D01*
X111322489Y-124512982D01*
X111448010Y-124440512D01*
X111448010Y-124440511D01*
X111448015Y-124440509D01*
X111550509Y-124338015D01*
X111622984Y-124212485D01*
X111660500Y-124072475D01*
X111660500Y-123927525D01*
X111622984Y-123787515D01*
X111622982Y-123787512D01*
X111622982Y-123787510D01*
X111548764Y-123658961D01*
X111535500Y-123609461D01*
X111535500Y-113757359D01*
X111554407Y-113699168D01*
X111598181Y-113665262D01*
X111644839Y-113646862D01*
X111644838Y-113646862D01*
X111644842Y-113646861D01*
X111765422Y-113555422D01*
X111856861Y-113434842D01*
X111912377Y-113294064D01*
X111923000Y-113205602D01*
X111923000Y-112219398D01*
X111912377Y-112130936D01*
X111856861Y-111990158D01*
X111765422Y-111869578D01*
X111765421Y-111869577D01*
X111761330Y-111864182D01*
X111762448Y-111863333D01*
X111738070Y-111815487D01*
X111747641Y-111755055D01*
X111761515Y-111735958D01*
X111761330Y-111735818D01*
X111765422Y-111730422D01*
X111856861Y-111609842D01*
X111912377Y-111469064D01*
X111923000Y-111380602D01*
X111923000Y-110394398D01*
X111912377Y-110305936D01*
X111856861Y-110165158D01*
X111765422Y-110044578D01*
X111644842Y-109953139D01*
X111644841Y-109953138D01*
X111598180Y-109934737D01*
X111550983Y-109895800D01*
X111535500Y-109842640D01*
X111535500Y-107715101D01*
X111554407Y-107656910D01*
X111589552Y-107626892D01*
X111712994Y-107563996D01*
X111859501Y-107457553D01*
X111987553Y-107329501D01*
X112093996Y-107182994D01*
X112176211Y-107021639D01*
X112232171Y-106849409D01*
X112260500Y-106670546D01*
X112260500Y-106489454D01*
X112260500Y-106489450D01*
X112499500Y-106489450D01*
X112499500Y-106670549D01*
X112527828Y-106849406D01*
X112527829Y-106849409D01*
X112583789Y-107021639D01*
X112666004Y-107182994D01*
X112772447Y-107329501D01*
X112900499Y-107457553D01*
X113047006Y-107563996D01*
X113170446Y-107626892D01*
X113213710Y-107670156D01*
X113224500Y-107715101D01*
X113224500Y-109842640D01*
X113205593Y-109900831D01*
X113161820Y-109934737D01*
X113115158Y-109953138D01*
X112994581Y-110044575D01*
X112994575Y-110044581D01*
X112903140Y-110165156D01*
X112903137Y-110165160D01*
X112847623Y-110305934D01*
X112837000Y-110394393D01*
X112837000Y-111380606D01*
X112847623Y-111469065D01*
X112903137Y-111609839D01*
X112903140Y-111609843D01*
X112998670Y-111735818D01*
X112997551Y-111736666D01*
X113021930Y-111784513D01*
X113012359Y-111844945D01*
X112998484Y-111864041D01*
X112998670Y-111864182D01*
X112903140Y-111990156D01*
X112903137Y-111990160D01*
X112847623Y-112130934D01*
X112837000Y-112219393D01*
X112837000Y-113205606D01*
X112847623Y-113294065D01*
X112903137Y-113434839D01*
X112903138Y-113434841D01*
X112903139Y-113434842D01*
X112994578Y-113555422D01*
X113115158Y-113646861D01*
X113115159Y-113646861D01*
X113115160Y-113646862D01*
X113161819Y-113665262D01*
X113209016Y-113704198D01*
X113224500Y-113757359D01*
X113224500Y-122009461D01*
X113211236Y-122058961D01*
X113137017Y-122187510D01*
X113099500Y-122327525D01*
X113099500Y-122472474D01*
X113137017Y-122612489D01*
X113209487Y-122738010D01*
X113209489Y-122738012D01*
X113209491Y-122738015D01*
X113311985Y-122840509D01*
X113311987Y-122840510D01*
X113311989Y-122840512D01*
X113437511Y-122912982D01*
X113437512Y-122912982D01*
X113437515Y-122912984D01*
X113577525Y-122950500D01*
X113577526Y-122950500D01*
X113722474Y-122950500D01*
X113722475Y-122950500D01*
X113862485Y-122912984D01*
X113862487Y-122912982D01*
X113862489Y-122912982D01*
X113988010Y-122840512D01*
X113988010Y-122840511D01*
X113988015Y-122840509D01*
X114090509Y-122738015D01*
X114119953Y-122687017D01*
X114162982Y-122612489D01*
X114162982Y-122612487D01*
X114162984Y-122612485D01*
X114200500Y-122472475D01*
X114200500Y-122327525D01*
X114162984Y-122187515D01*
X114162982Y-122187512D01*
X114162982Y-122187510D01*
X114088764Y-122058961D01*
X114075500Y-122009461D01*
X114075500Y-113757359D01*
X114094407Y-113699168D01*
X114138181Y-113665262D01*
X114184839Y-113646862D01*
X114184838Y-113646862D01*
X114184842Y-113646861D01*
X114305422Y-113555422D01*
X114396861Y-113434842D01*
X114452377Y-113294064D01*
X114463000Y-113205602D01*
X114463000Y-112219398D01*
X114452377Y-112130936D01*
X114396861Y-111990158D01*
X114305422Y-111869578D01*
X114305421Y-111869577D01*
X114301330Y-111864182D01*
X114302448Y-111863333D01*
X114278070Y-111815487D01*
X114287641Y-111755055D01*
X114301515Y-111735958D01*
X114301330Y-111735818D01*
X114305422Y-111730422D01*
X114396861Y-111609842D01*
X114452377Y-111469064D01*
X114463000Y-111380602D01*
X114463000Y-110394398D01*
X114452377Y-110305936D01*
X114396861Y-110165158D01*
X114305422Y-110044578D01*
X114184842Y-109953139D01*
X114184841Y-109953138D01*
X114138180Y-109934737D01*
X114090983Y-109895800D01*
X114075500Y-109842640D01*
X114075500Y-107715101D01*
X114094407Y-107656910D01*
X114129552Y-107626892D01*
X114252994Y-107563996D01*
X114399501Y-107457553D01*
X114527553Y-107329501D01*
X114633996Y-107182994D01*
X114716211Y-107021639D01*
X114772171Y-106849409D01*
X114800500Y-106670546D01*
X114800500Y-106489454D01*
X114800500Y-106489450D01*
X115039500Y-106489450D01*
X115039500Y-106670549D01*
X115067828Y-106849406D01*
X115067829Y-106849409D01*
X115123789Y-107021639D01*
X115206004Y-107182994D01*
X115312447Y-107329501D01*
X115440499Y-107457553D01*
X115587006Y-107563996D01*
X115710446Y-107626892D01*
X115753710Y-107670156D01*
X115764500Y-107715101D01*
X115764500Y-109842640D01*
X115745593Y-109900831D01*
X115701820Y-109934737D01*
X115655158Y-109953138D01*
X115534581Y-110044575D01*
X115534575Y-110044581D01*
X115443140Y-110165156D01*
X115443137Y-110165160D01*
X115387623Y-110305934D01*
X115377000Y-110394393D01*
X115377000Y-111380606D01*
X115387623Y-111469065D01*
X115443137Y-111609839D01*
X115443140Y-111609843D01*
X115538670Y-111735818D01*
X115537551Y-111736666D01*
X115561930Y-111784513D01*
X115552359Y-111844945D01*
X115538484Y-111864041D01*
X115538670Y-111864182D01*
X115443140Y-111990156D01*
X115443137Y-111990160D01*
X115387623Y-112130934D01*
X115377000Y-112219393D01*
X115377000Y-113205606D01*
X115387623Y-113294065D01*
X115443137Y-113434839D01*
X115443138Y-113434841D01*
X115443139Y-113434842D01*
X115534578Y-113555422D01*
X115655158Y-113646861D01*
X115655159Y-113646861D01*
X115655160Y-113646862D01*
X115701819Y-113665262D01*
X115749016Y-113704198D01*
X115764500Y-113757359D01*
X115764500Y-120409461D01*
X115751236Y-120458961D01*
X115677017Y-120587510D01*
X115639500Y-120727525D01*
X115639500Y-120872474D01*
X115677017Y-121012489D01*
X115749487Y-121138010D01*
X115749489Y-121138012D01*
X115749491Y-121138015D01*
X115851985Y-121240509D01*
X115851987Y-121240510D01*
X115851989Y-121240512D01*
X115977511Y-121312982D01*
X115977512Y-121312982D01*
X115977515Y-121312984D01*
X116117525Y-121350500D01*
X116117915Y-121350500D01*
X116118181Y-121350586D01*
X116123958Y-121351347D01*
X116123817Y-121352417D01*
X116176106Y-121369407D01*
X116212070Y-121418907D01*
X116213541Y-121475124D01*
X116199500Y-121527522D01*
X116199500Y-121672474D01*
X116237017Y-121812489D01*
X116311236Y-121941038D01*
X116324500Y-121990538D01*
X116324500Y-128464085D01*
X116314441Y-128507565D01*
X116310134Y-128516373D01*
X116310134Y-128516375D01*
X116299500Y-128589364D01*
X116299500Y-130060636D01*
X116308007Y-130119027D01*
X116310134Y-130133626D01*
X116365173Y-130246209D01*
X116365174Y-130246211D01*
X116453789Y-130334826D01*
X116566375Y-130389866D01*
X116639364Y-130400500D01*
X116639367Y-130400500D01*
X116860632Y-130400500D01*
X116860636Y-130400500D01*
X116933625Y-130389866D01*
X117046211Y-130334826D01*
X117134826Y-130246211D01*
X117161059Y-130192549D01*
X117203602Y-130148576D01*
X117263868Y-130138006D01*
X117318836Y-130164878D01*
X117338940Y-130192548D01*
X117365174Y-130246211D01*
X117453789Y-130334826D01*
X117566375Y-130389866D01*
X117639364Y-130400500D01*
X117639367Y-130400500D01*
X117860632Y-130400500D01*
X117860636Y-130400500D01*
X117933625Y-130389866D01*
X118046211Y-130334826D01*
X118134826Y-130246211D01*
X118161059Y-130192549D01*
X118203602Y-130148576D01*
X118263868Y-130138006D01*
X118318836Y-130164878D01*
X118338940Y-130192548D01*
X118365174Y-130246211D01*
X118453789Y-130334826D01*
X118566375Y-130389866D01*
X118639364Y-130400500D01*
X118639367Y-130400500D01*
X118860632Y-130400500D01*
X118860636Y-130400500D01*
X118933625Y-130389866D01*
X119046211Y-130334826D01*
X119134826Y-130246211D01*
X119161059Y-130192549D01*
X119203602Y-130148576D01*
X119263868Y-130138006D01*
X119318836Y-130164878D01*
X119338940Y-130192548D01*
X119365174Y-130246211D01*
X119453789Y-130334826D01*
X119566375Y-130389866D01*
X119639364Y-130400500D01*
X119639367Y-130400500D01*
X119860632Y-130400500D01*
X119860636Y-130400500D01*
X119933625Y-130389866D01*
X120046211Y-130334826D01*
X120134826Y-130246211D01*
X120161059Y-130192549D01*
X120203602Y-130148576D01*
X120263868Y-130138006D01*
X120318836Y-130164878D01*
X120338940Y-130192548D01*
X120365174Y-130246211D01*
X120453789Y-130334826D01*
X120566375Y-130389866D01*
X120639364Y-130400500D01*
X120639367Y-130400500D01*
X120860632Y-130400500D01*
X120860636Y-130400500D01*
X120933625Y-130389866D01*
X121046211Y-130334826D01*
X121134826Y-130246211D01*
X121161059Y-130192549D01*
X121203602Y-130148576D01*
X121263868Y-130138006D01*
X121318836Y-130164878D01*
X121338940Y-130192548D01*
X121365174Y-130246211D01*
X121453789Y-130334826D01*
X121566375Y-130389866D01*
X121639364Y-130400500D01*
X121639367Y-130400500D01*
X121860632Y-130400500D01*
X121860636Y-130400500D01*
X121933625Y-130389866D01*
X122046211Y-130334826D01*
X122134826Y-130246211D01*
X122161059Y-130192549D01*
X122203602Y-130148576D01*
X122263868Y-130138006D01*
X122318836Y-130164878D01*
X122338940Y-130192548D01*
X122365174Y-130246211D01*
X122453789Y-130334826D01*
X122566375Y-130389866D01*
X122639364Y-130400500D01*
X122639367Y-130400500D01*
X122860632Y-130400500D01*
X122860636Y-130400500D01*
X122933625Y-130389866D01*
X123046211Y-130334826D01*
X123134826Y-130246211D01*
X123161059Y-130192549D01*
X123203602Y-130148576D01*
X123263868Y-130138006D01*
X123318836Y-130164878D01*
X123338940Y-130192548D01*
X123365174Y-130246211D01*
X123453789Y-130334826D01*
X123566375Y-130389866D01*
X123639364Y-130400500D01*
X123639367Y-130400500D01*
X123860632Y-130400500D01*
X123860636Y-130400500D01*
X123933625Y-130389866D01*
X124046211Y-130334826D01*
X124134826Y-130246211D01*
X124189866Y-130133625D01*
X124200500Y-130060636D01*
X124200500Y-128589364D01*
X124189866Y-128516375D01*
X124185558Y-128507564D01*
X124175500Y-128464085D01*
X124175500Y-124390538D01*
X124188764Y-124341038D01*
X124262982Y-124212489D01*
X124262982Y-124212487D01*
X124262984Y-124212485D01*
X124300500Y-124072475D01*
X124300500Y-123927525D01*
X124262984Y-123787515D01*
X124262982Y-123787512D01*
X124262982Y-123787510D01*
X124190512Y-123661989D01*
X124190510Y-123661987D01*
X124190509Y-123661985D01*
X124088015Y-123559491D01*
X124088012Y-123559489D01*
X124088010Y-123559487D01*
X123962488Y-123487017D01*
X123962489Y-123487017D01*
X123932896Y-123479087D01*
X123822475Y-123449500D01*
X123677525Y-123449500D01*
X123615790Y-123466041D01*
X123537510Y-123487017D01*
X123411989Y-123559487D01*
X123411988Y-123559488D01*
X123411985Y-123559490D01*
X123411985Y-123559491D01*
X123344501Y-123626974D01*
X123289987Y-123654750D01*
X123229555Y-123645179D01*
X123186290Y-123601914D01*
X123175500Y-123556969D01*
X123175500Y-122790538D01*
X123188764Y-122741038D01*
X123262982Y-122612489D01*
X123262982Y-122612487D01*
X123262984Y-122612485D01*
X123300500Y-122472475D01*
X123300500Y-122327525D01*
X123262984Y-122187515D01*
X123262982Y-122187512D01*
X123262982Y-122187510D01*
X123190512Y-122061989D01*
X123190510Y-122061987D01*
X123190509Y-122061985D01*
X123088015Y-121959491D01*
X123088012Y-121959489D01*
X123088010Y-121959487D01*
X122962488Y-121887017D01*
X122962489Y-121887017D01*
X122932896Y-121879087D01*
X122822475Y-121849500D01*
X122677525Y-121849500D01*
X122615790Y-121866041D01*
X122537510Y-121887017D01*
X122411989Y-121959487D01*
X122411988Y-121959488D01*
X122411985Y-121959490D01*
X122411985Y-121959491D01*
X122344501Y-122026974D01*
X122289987Y-122054750D01*
X122229555Y-122045179D01*
X122186290Y-122001914D01*
X122175500Y-121956969D01*
X122175500Y-121190538D01*
X122188764Y-121141038D01*
X122262982Y-121012489D01*
X122262982Y-121012487D01*
X122262984Y-121012485D01*
X122300500Y-120872475D01*
X122300500Y-120727525D01*
X122262984Y-120587515D01*
X122262982Y-120587512D01*
X122262982Y-120587510D01*
X122190512Y-120461989D01*
X122190510Y-120461987D01*
X122190509Y-120461985D01*
X122088015Y-120359491D01*
X122088012Y-120359489D01*
X122088010Y-120359487D01*
X121962488Y-120287017D01*
X121962489Y-120287017D01*
X121932896Y-120279087D01*
X121822475Y-120249500D01*
X121677525Y-120249500D01*
X121615790Y-120266041D01*
X121537510Y-120287017D01*
X121411989Y-120359487D01*
X121411988Y-120359488D01*
X121411985Y-120359490D01*
X121411985Y-120359491D01*
X121344501Y-120426974D01*
X121289987Y-120454750D01*
X121229555Y-120445179D01*
X121186290Y-120401914D01*
X121175500Y-120356969D01*
X121175500Y-119590538D01*
X121188764Y-119541038D01*
X121262982Y-119412489D01*
X121262982Y-119412487D01*
X121262984Y-119412485D01*
X121300500Y-119272475D01*
X121300500Y-119127525D01*
X121284678Y-119068477D01*
X121287880Y-119007377D01*
X121326386Y-118959827D01*
X121354675Y-118947230D01*
X121482485Y-118912984D01*
X121482487Y-118912982D01*
X121482489Y-118912982D01*
X121608010Y-118840512D01*
X121608010Y-118840511D01*
X121608015Y-118840509D01*
X121710509Y-118738015D01*
X121739953Y-118687017D01*
X121782982Y-118612489D01*
X121782982Y-118612487D01*
X121782984Y-118612485D01*
X121820500Y-118472475D01*
X121820500Y-118327525D01*
X121782984Y-118187515D01*
X121782982Y-118187512D01*
X121782982Y-118187510D01*
X121708764Y-118058961D01*
X121695500Y-118009461D01*
X121695500Y-113757359D01*
X121714407Y-113699168D01*
X121758181Y-113665262D01*
X121804839Y-113646862D01*
X121804838Y-113646862D01*
X121804842Y-113646861D01*
X121925422Y-113555422D01*
X122016861Y-113434842D01*
X122072377Y-113294064D01*
X122083000Y-113205602D01*
X122083000Y-112219398D01*
X122072377Y-112130936D01*
X122016861Y-111990158D01*
X121925422Y-111869578D01*
X121925421Y-111869577D01*
X121921330Y-111864182D01*
X121922448Y-111863333D01*
X121898070Y-111815487D01*
X121907641Y-111755055D01*
X121921515Y-111735958D01*
X121921330Y-111735818D01*
X121925422Y-111730422D01*
X122016861Y-111609842D01*
X122072377Y-111469064D01*
X122083000Y-111380602D01*
X122083000Y-110394398D01*
X122072377Y-110305936D01*
X122016861Y-110165158D01*
X121925422Y-110044578D01*
X121804842Y-109953139D01*
X121804841Y-109953138D01*
X121758180Y-109934737D01*
X121710983Y-109895800D01*
X121695500Y-109842640D01*
X121695500Y-107715101D01*
X121714407Y-107656910D01*
X121749552Y-107626892D01*
X121872994Y-107563996D01*
X122019501Y-107457553D01*
X122147553Y-107329501D01*
X122253996Y-107182994D01*
X122336211Y-107021639D01*
X122392171Y-106849409D01*
X122420500Y-106670546D01*
X122420500Y-106489454D01*
X122420500Y-106489450D01*
X122659500Y-106489450D01*
X122659500Y-106670549D01*
X122687828Y-106849406D01*
X122687829Y-106849409D01*
X122743789Y-107021639D01*
X122826004Y-107182994D01*
X122932447Y-107329501D01*
X123060499Y-107457553D01*
X123207006Y-107563996D01*
X123330446Y-107626892D01*
X123373710Y-107670156D01*
X123384500Y-107715101D01*
X123384500Y-109842640D01*
X123365593Y-109900831D01*
X123321820Y-109934737D01*
X123275158Y-109953138D01*
X123154581Y-110044575D01*
X123154575Y-110044581D01*
X123063140Y-110165156D01*
X123063137Y-110165160D01*
X123007623Y-110305934D01*
X122997000Y-110394393D01*
X122997000Y-111380606D01*
X123007623Y-111469065D01*
X123063137Y-111609839D01*
X123063140Y-111609843D01*
X123158670Y-111735818D01*
X123157551Y-111736666D01*
X123181930Y-111784513D01*
X123172359Y-111844945D01*
X123158484Y-111864041D01*
X123158670Y-111864182D01*
X123063140Y-111990156D01*
X123063137Y-111990160D01*
X123007623Y-112130934D01*
X122997000Y-112219393D01*
X122997000Y-113205606D01*
X123007623Y-113294065D01*
X123063137Y-113434839D01*
X123063138Y-113434841D01*
X123063139Y-113434842D01*
X123154578Y-113555422D01*
X123275158Y-113646861D01*
X123275159Y-113646861D01*
X123275160Y-113646862D01*
X123321819Y-113665262D01*
X123369016Y-113704198D01*
X123384500Y-113757359D01*
X123384500Y-119609461D01*
X123371236Y-119658961D01*
X123297017Y-119787510D01*
X123259500Y-119927525D01*
X123259500Y-120072474D01*
X123297017Y-120212489D01*
X123369487Y-120338010D01*
X123369489Y-120338012D01*
X123369491Y-120338015D01*
X123471985Y-120440509D01*
X123471987Y-120440510D01*
X123471989Y-120440512D01*
X123597511Y-120512982D01*
X123597512Y-120512982D01*
X123597515Y-120512984D01*
X123737525Y-120550500D01*
X123737526Y-120550500D01*
X123882474Y-120550500D01*
X123882475Y-120550500D01*
X124022485Y-120512984D01*
X124022487Y-120512982D01*
X124022489Y-120512982D01*
X124148010Y-120440512D01*
X124148010Y-120440511D01*
X124148015Y-120440509D01*
X124250509Y-120338015D01*
X124279953Y-120287017D01*
X124322982Y-120212489D01*
X124322982Y-120212487D01*
X124322984Y-120212485D01*
X124360500Y-120072475D01*
X124360500Y-119927525D01*
X124322984Y-119787515D01*
X124322982Y-119787512D01*
X124322982Y-119787510D01*
X124248764Y-119658961D01*
X124235500Y-119609461D01*
X124235500Y-113757359D01*
X124254407Y-113699168D01*
X124298181Y-113665262D01*
X124344839Y-113646862D01*
X124344838Y-113646862D01*
X124344842Y-113646861D01*
X124465422Y-113555422D01*
X124556861Y-113434842D01*
X124612377Y-113294064D01*
X124623000Y-113205602D01*
X124623000Y-112219398D01*
X124612377Y-112130936D01*
X124556861Y-111990158D01*
X124465422Y-111869578D01*
X124465421Y-111869577D01*
X124461330Y-111864182D01*
X124462448Y-111863333D01*
X124438070Y-111815487D01*
X124447641Y-111755055D01*
X124461515Y-111735958D01*
X124461330Y-111735818D01*
X124465422Y-111730422D01*
X124556861Y-111609842D01*
X124612377Y-111469064D01*
X124623000Y-111380602D01*
X124623000Y-110394398D01*
X124612377Y-110305936D01*
X124556861Y-110165158D01*
X124465422Y-110044578D01*
X124344842Y-109953139D01*
X124344841Y-109953138D01*
X124298180Y-109934737D01*
X124250983Y-109895800D01*
X124235500Y-109842640D01*
X124235500Y-107715101D01*
X124254407Y-107656910D01*
X124289552Y-107626892D01*
X124412994Y-107563996D01*
X124559501Y-107457553D01*
X124687553Y-107329501D01*
X124793996Y-107182994D01*
X124876211Y-107021639D01*
X124932171Y-106849409D01*
X124960500Y-106670546D01*
X124960500Y-106489454D01*
X124960500Y-106489450D01*
X125199500Y-106489450D01*
X125199500Y-106670549D01*
X125227828Y-106849406D01*
X125227829Y-106849409D01*
X125283789Y-107021639D01*
X125366004Y-107182994D01*
X125472447Y-107329501D01*
X125600499Y-107457553D01*
X125747006Y-107563996D01*
X125870446Y-107626892D01*
X125913710Y-107670156D01*
X125924500Y-107715101D01*
X125924500Y-109842640D01*
X125905593Y-109900831D01*
X125861820Y-109934737D01*
X125815158Y-109953138D01*
X125694581Y-110044575D01*
X125694575Y-110044581D01*
X125603140Y-110165156D01*
X125603137Y-110165160D01*
X125547623Y-110305934D01*
X125537000Y-110394393D01*
X125537000Y-111380606D01*
X125547623Y-111469065D01*
X125603137Y-111609839D01*
X125603140Y-111609843D01*
X125698670Y-111735818D01*
X125697551Y-111736666D01*
X125721930Y-111784513D01*
X125712359Y-111844945D01*
X125698484Y-111864041D01*
X125698670Y-111864182D01*
X125603140Y-111990156D01*
X125603137Y-111990160D01*
X125547623Y-112130934D01*
X125537000Y-112219393D01*
X125537000Y-113205606D01*
X125547623Y-113294065D01*
X125603137Y-113434839D01*
X125603138Y-113434841D01*
X125603139Y-113434842D01*
X125694578Y-113555422D01*
X125815158Y-113646861D01*
X125815159Y-113646861D01*
X125815160Y-113646862D01*
X125861819Y-113665262D01*
X125909016Y-113704198D01*
X125924500Y-113757359D01*
X125924500Y-122809461D01*
X125911236Y-122858961D01*
X125837017Y-122987510D01*
X125799500Y-123127525D01*
X125799500Y-123272474D01*
X125837017Y-123412489D01*
X125909487Y-123538010D01*
X125909489Y-123538012D01*
X125909491Y-123538015D01*
X126011985Y-123640509D01*
X126011987Y-123640510D01*
X126011989Y-123640512D01*
X126137511Y-123712982D01*
X126137512Y-123712982D01*
X126137515Y-123712984D01*
X126277525Y-123750500D01*
X126277526Y-123750500D01*
X126422474Y-123750500D01*
X126422475Y-123750500D01*
X126562485Y-123712984D01*
X126562487Y-123712982D01*
X126562489Y-123712982D01*
X126688010Y-123640512D01*
X126688010Y-123640511D01*
X126688015Y-123640509D01*
X126790509Y-123538015D01*
X126819953Y-123487017D01*
X126862982Y-123412489D01*
X126862982Y-123412487D01*
X126862984Y-123412485D01*
X126900500Y-123272475D01*
X126900500Y-123127525D01*
X126862984Y-122987515D01*
X126862982Y-122987512D01*
X126862982Y-122987510D01*
X126788764Y-122858961D01*
X126775500Y-122809461D01*
X126775500Y-113757359D01*
X126794407Y-113699168D01*
X126838181Y-113665262D01*
X126884839Y-113646862D01*
X126884838Y-113646862D01*
X126884842Y-113646861D01*
X127005422Y-113555422D01*
X127096861Y-113434842D01*
X127152377Y-113294064D01*
X127163000Y-113205602D01*
X127163000Y-112219398D01*
X127152377Y-112130936D01*
X127096861Y-111990158D01*
X127005422Y-111869578D01*
X127005421Y-111869577D01*
X127001330Y-111864182D01*
X127002448Y-111863333D01*
X126978070Y-111815487D01*
X126987641Y-111755055D01*
X127001515Y-111735958D01*
X127001330Y-111735818D01*
X127005422Y-111730422D01*
X127096861Y-111609842D01*
X127152377Y-111469064D01*
X127163000Y-111380602D01*
X127163000Y-110394398D01*
X127152377Y-110305936D01*
X127096861Y-110165158D01*
X127005422Y-110044578D01*
X126884842Y-109953139D01*
X126884841Y-109953138D01*
X126838180Y-109934737D01*
X126790983Y-109895800D01*
X126775500Y-109842640D01*
X126775500Y-107715101D01*
X126794407Y-107656910D01*
X126829552Y-107626892D01*
X126952994Y-107563996D01*
X127099501Y-107457553D01*
X127227553Y-107329501D01*
X127333996Y-107182994D01*
X127416211Y-107021639D01*
X127472171Y-106849409D01*
X127500500Y-106670546D01*
X127500500Y-106489454D01*
X127500500Y-106489450D01*
X127739500Y-106489450D01*
X127739500Y-106670549D01*
X127767828Y-106849406D01*
X127767829Y-106849409D01*
X127823789Y-107021639D01*
X127906004Y-107182994D01*
X128012447Y-107329501D01*
X128140499Y-107457553D01*
X128287006Y-107563996D01*
X128410446Y-107626892D01*
X128453710Y-107670156D01*
X128464500Y-107715101D01*
X128464500Y-109842640D01*
X128445593Y-109900831D01*
X128401820Y-109934737D01*
X128355158Y-109953138D01*
X128234581Y-110044575D01*
X128234575Y-110044581D01*
X128143140Y-110165156D01*
X128143137Y-110165160D01*
X128087623Y-110305934D01*
X128077000Y-110394393D01*
X128077000Y-111380606D01*
X128087623Y-111469065D01*
X128143137Y-111609839D01*
X128143140Y-111609843D01*
X128238670Y-111735818D01*
X128237551Y-111736666D01*
X128261930Y-111784513D01*
X128252359Y-111844945D01*
X128238484Y-111864041D01*
X128238670Y-111864182D01*
X128143140Y-111990156D01*
X128143137Y-111990160D01*
X128087623Y-112130934D01*
X128077000Y-112219393D01*
X128077000Y-113205606D01*
X128087623Y-113294065D01*
X128143137Y-113434839D01*
X128143138Y-113434841D01*
X128143139Y-113434842D01*
X128234578Y-113555422D01*
X128355158Y-113646861D01*
X128355159Y-113646861D01*
X128355160Y-113646862D01*
X128401819Y-113665262D01*
X128449016Y-113704198D01*
X128464500Y-113757359D01*
X128464500Y-121209461D01*
X128451236Y-121258961D01*
X128377017Y-121387510D01*
X128339500Y-121527525D01*
X128339500Y-121672474D01*
X128377017Y-121812489D01*
X128449487Y-121938010D01*
X128449489Y-121938012D01*
X128449491Y-121938015D01*
X128551985Y-122040509D01*
X128551987Y-122040510D01*
X128551989Y-122040512D01*
X128677511Y-122112982D01*
X128677512Y-122112982D01*
X128677515Y-122112984D01*
X128817525Y-122150500D01*
X128817526Y-122150500D01*
X128962474Y-122150500D01*
X128962475Y-122150500D01*
X129102485Y-122112984D01*
X129102487Y-122112982D01*
X129102489Y-122112982D01*
X129228010Y-122040512D01*
X129228010Y-122040511D01*
X129228015Y-122040509D01*
X129330509Y-121938015D01*
X129359953Y-121887017D01*
X129402982Y-121812489D01*
X129402982Y-121812487D01*
X129402984Y-121812485D01*
X129440500Y-121672475D01*
X129440500Y-121527525D01*
X129402984Y-121387515D01*
X129402982Y-121387512D01*
X129402982Y-121387510D01*
X129328764Y-121258961D01*
X129315500Y-121209461D01*
X129315500Y-113757359D01*
X129334407Y-113699168D01*
X129378181Y-113665262D01*
X129424839Y-113646862D01*
X129424838Y-113646862D01*
X129424842Y-113646861D01*
X129545422Y-113555422D01*
X129636861Y-113434842D01*
X129692377Y-113294064D01*
X129703000Y-113205602D01*
X129703000Y-112219398D01*
X129692377Y-112130936D01*
X129636861Y-111990158D01*
X129545422Y-111869578D01*
X129545421Y-111869577D01*
X129541330Y-111864182D01*
X129542448Y-111863333D01*
X129518070Y-111815487D01*
X129527641Y-111755055D01*
X129541515Y-111735958D01*
X129541330Y-111735818D01*
X129545422Y-111730422D01*
X129636861Y-111609842D01*
X129692377Y-111469064D01*
X129703000Y-111380602D01*
X129703000Y-110394398D01*
X129692377Y-110305936D01*
X129636861Y-110165158D01*
X129545422Y-110044578D01*
X129424842Y-109953139D01*
X129424841Y-109953138D01*
X129378180Y-109934737D01*
X129330983Y-109895800D01*
X129315500Y-109842640D01*
X129315500Y-107715101D01*
X129334407Y-107656910D01*
X129369552Y-107626892D01*
X129492994Y-107563996D01*
X129639501Y-107457553D01*
X129767553Y-107329501D01*
X129873996Y-107182994D01*
X129956211Y-107021639D01*
X130012171Y-106849409D01*
X130040500Y-106670546D01*
X130040500Y-106489454D01*
X130040500Y-106489450D01*
X130012171Y-106310593D01*
X130012171Y-106310591D01*
X129956211Y-106138361D01*
X129873996Y-105977006D01*
X129767553Y-105830499D01*
X129639501Y-105702447D01*
X129492994Y-105596004D01*
X129492993Y-105596003D01*
X129492991Y-105596002D01*
X129331637Y-105513788D01*
X129159406Y-105457828D01*
X128980549Y-105429500D01*
X128980546Y-105429500D01*
X128799454Y-105429500D01*
X128799451Y-105429500D01*
X128620593Y-105457828D01*
X128448362Y-105513788D01*
X128287008Y-105596002D01*
X128213752Y-105649225D01*
X128140499Y-105702447D01*
X128012447Y-105830499D01*
X127959225Y-105903752D01*
X127906002Y-105977008D01*
X127823788Y-106138362D01*
X127767828Y-106310593D01*
X127739500Y-106489450D01*
X127500500Y-106489450D01*
X127472171Y-106310593D01*
X127472171Y-106310591D01*
X127416211Y-106138361D01*
X127333996Y-105977006D01*
X127227553Y-105830499D01*
X127099501Y-105702447D01*
X126952994Y-105596004D01*
X126952993Y-105596003D01*
X126952991Y-105596002D01*
X126791637Y-105513788D01*
X126619406Y-105457828D01*
X126440549Y-105429500D01*
X126440546Y-105429500D01*
X126259454Y-105429500D01*
X126259451Y-105429500D01*
X126080593Y-105457828D01*
X125908362Y-105513788D01*
X125747008Y-105596002D01*
X125673752Y-105649225D01*
X125600499Y-105702447D01*
X125472447Y-105830499D01*
X125419225Y-105903752D01*
X125366002Y-105977008D01*
X125283788Y-106138362D01*
X125227828Y-106310593D01*
X125199500Y-106489450D01*
X124960500Y-106489450D01*
X124932171Y-106310593D01*
X124932171Y-106310591D01*
X124876211Y-106138361D01*
X124793996Y-105977006D01*
X124687553Y-105830499D01*
X124559501Y-105702447D01*
X124412994Y-105596004D01*
X124412993Y-105596003D01*
X124412991Y-105596002D01*
X124251637Y-105513788D01*
X124079406Y-105457828D01*
X123900549Y-105429500D01*
X123900546Y-105429500D01*
X123719454Y-105429500D01*
X123719451Y-105429500D01*
X123540593Y-105457828D01*
X123368362Y-105513788D01*
X123207008Y-105596002D01*
X123133752Y-105649225D01*
X123060499Y-105702447D01*
X122932447Y-105830499D01*
X122879225Y-105903752D01*
X122826002Y-105977008D01*
X122743788Y-106138362D01*
X122687828Y-106310593D01*
X122659500Y-106489450D01*
X122420500Y-106489450D01*
X122392171Y-106310593D01*
X122392171Y-106310591D01*
X122336211Y-106138361D01*
X122253996Y-105977006D01*
X122147553Y-105830499D01*
X122019501Y-105702447D01*
X121872994Y-105596004D01*
X121872993Y-105596003D01*
X121872991Y-105596002D01*
X121711637Y-105513788D01*
X121539406Y-105457828D01*
X121360549Y-105429500D01*
X121360546Y-105429500D01*
X121179454Y-105429500D01*
X121179451Y-105429500D01*
X121000593Y-105457828D01*
X120828362Y-105513788D01*
X120667008Y-105596002D01*
X120593752Y-105649225D01*
X120520499Y-105702447D01*
X120392447Y-105830499D01*
X120339225Y-105903752D01*
X120286002Y-105977008D01*
X120203788Y-106138362D01*
X120147828Y-106310593D01*
X120119500Y-106489450D01*
X120119500Y-106670549D01*
X120147828Y-106849406D01*
X120147829Y-106849409D01*
X120203789Y-107021639D01*
X120286004Y-107182994D01*
X120392447Y-107329501D01*
X120520499Y-107457553D01*
X120667006Y-107563996D01*
X120790446Y-107626892D01*
X120833710Y-107670156D01*
X120844500Y-107715101D01*
X120844500Y-109842640D01*
X120825593Y-109900831D01*
X120781820Y-109934737D01*
X120735158Y-109953138D01*
X120614581Y-110044575D01*
X120614575Y-110044581D01*
X120523140Y-110165156D01*
X120523137Y-110165160D01*
X120467623Y-110305934D01*
X120457000Y-110394393D01*
X120457000Y-111380606D01*
X120467623Y-111469065D01*
X120523137Y-111609839D01*
X120523140Y-111609843D01*
X120618670Y-111735818D01*
X120617551Y-111736666D01*
X120641930Y-111784513D01*
X120632359Y-111844945D01*
X120618484Y-111864041D01*
X120618670Y-111864182D01*
X120523140Y-111990156D01*
X120523137Y-111990160D01*
X120467623Y-112130934D01*
X120457000Y-112219393D01*
X120457000Y-113205606D01*
X120467623Y-113294065D01*
X120523137Y-113434839D01*
X120523138Y-113434841D01*
X120523139Y-113434842D01*
X120614578Y-113555422D01*
X120735158Y-113646861D01*
X120735159Y-113646861D01*
X120735160Y-113646862D01*
X120781819Y-113665262D01*
X120829016Y-113704198D01*
X120844500Y-113757359D01*
X120844500Y-118009461D01*
X120831236Y-118058961D01*
X120757017Y-118187510D01*
X120719500Y-118327525D01*
X120719500Y-118472475D01*
X120719499Y-118472475D01*
X120735321Y-118531522D01*
X120732118Y-118592623D01*
X120693613Y-118640173D01*
X120665318Y-118652770D01*
X120537515Y-118687015D01*
X120537511Y-118687017D01*
X120411989Y-118759487D01*
X120411983Y-118759492D01*
X120390359Y-118781116D01*
X120335842Y-118808892D01*
X120275410Y-118799320D01*
X120232146Y-118756054D01*
X120222576Y-118695622D01*
X120234620Y-118661612D01*
X120262984Y-118612485D01*
X120300500Y-118472475D01*
X120300500Y-118327525D01*
X120262984Y-118187515D01*
X120262982Y-118187512D01*
X120262982Y-118187510D01*
X120190512Y-118061989D01*
X120190510Y-118061987D01*
X120190509Y-118061985D01*
X120088015Y-117959491D01*
X120088012Y-117959489D01*
X120088010Y-117959487D01*
X119962488Y-117887017D01*
X119962489Y-117887017D01*
X119932896Y-117879087D01*
X119822475Y-117849500D01*
X119677525Y-117849500D01*
X119615790Y-117866041D01*
X119537510Y-117887017D01*
X119411989Y-117959487D01*
X119411988Y-117959488D01*
X119411985Y-117959490D01*
X119411985Y-117959491D01*
X119324501Y-118046974D01*
X119269987Y-118074750D01*
X119209555Y-118065179D01*
X119166290Y-118021914D01*
X119155500Y-117976969D01*
X119155500Y-113757359D01*
X119174407Y-113699168D01*
X119218181Y-113665262D01*
X119264839Y-113646862D01*
X119264838Y-113646862D01*
X119264842Y-113646861D01*
X119385422Y-113555422D01*
X119476861Y-113434842D01*
X119532377Y-113294064D01*
X119543000Y-113205602D01*
X119543000Y-112219398D01*
X119532377Y-112130936D01*
X119476861Y-111990158D01*
X119385422Y-111869578D01*
X119385421Y-111869577D01*
X119381330Y-111864182D01*
X119382448Y-111863333D01*
X119358070Y-111815487D01*
X119367641Y-111755055D01*
X119381515Y-111735958D01*
X119381330Y-111735818D01*
X119385422Y-111730422D01*
X119476861Y-111609842D01*
X119532377Y-111469064D01*
X119543000Y-111380602D01*
X119543000Y-110394398D01*
X119532377Y-110305936D01*
X119476861Y-110165158D01*
X119385422Y-110044578D01*
X119264842Y-109953139D01*
X119264841Y-109953138D01*
X119218180Y-109934737D01*
X119170983Y-109895800D01*
X119155500Y-109842640D01*
X119155500Y-107715101D01*
X119174407Y-107656910D01*
X119209552Y-107626892D01*
X119332994Y-107563996D01*
X119479501Y-107457553D01*
X119607553Y-107329501D01*
X119713996Y-107182994D01*
X119796211Y-107021639D01*
X119852171Y-106849409D01*
X119880500Y-106670546D01*
X119880500Y-106489454D01*
X119880500Y-106489450D01*
X119852171Y-106310593D01*
X119852171Y-106310591D01*
X119796211Y-106138361D01*
X119713996Y-105977006D01*
X119607553Y-105830499D01*
X119479501Y-105702447D01*
X119332994Y-105596004D01*
X119332993Y-105596003D01*
X119332991Y-105596002D01*
X119171637Y-105513788D01*
X118999406Y-105457828D01*
X118820549Y-105429500D01*
X118820546Y-105429500D01*
X118639454Y-105429500D01*
X118639451Y-105429500D01*
X118460593Y-105457828D01*
X118288362Y-105513788D01*
X118127008Y-105596002D01*
X118053752Y-105649225D01*
X117980499Y-105702447D01*
X117852447Y-105830499D01*
X117799225Y-105903752D01*
X117746002Y-105977008D01*
X117663788Y-106138362D01*
X117607828Y-106310593D01*
X117579500Y-106489450D01*
X117579500Y-106670549D01*
X117607828Y-106849406D01*
X117607829Y-106849409D01*
X117663789Y-107021639D01*
X117746004Y-107182994D01*
X117852447Y-107329501D01*
X117980499Y-107457553D01*
X118127006Y-107563996D01*
X118250446Y-107626892D01*
X118293710Y-107670156D01*
X118304500Y-107715101D01*
X118304500Y-109842640D01*
X118285593Y-109900831D01*
X118241820Y-109934737D01*
X118195158Y-109953138D01*
X118074581Y-110044575D01*
X118074575Y-110044581D01*
X117983140Y-110165156D01*
X117983137Y-110165160D01*
X117927623Y-110305934D01*
X117917000Y-110394393D01*
X117917000Y-111380606D01*
X117927623Y-111469065D01*
X117983137Y-111609839D01*
X117983140Y-111609843D01*
X118078670Y-111735818D01*
X118077551Y-111736666D01*
X118101930Y-111784513D01*
X118092359Y-111844945D01*
X118078484Y-111864041D01*
X118078670Y-111864182D01*
X117983140Y-111990156D01*
X117983137Y-111990160D01*
X117927623Y-112130934D01*
X117917000Y-112219393D01*
X117917000Y-113205606D01*
X117927623Y-113294065D01*
X117983137Y-113434839D01*
X117983138Y-113434841D01*
X117983139Y-113434842D01*
X118074578Y-113555422D01*
X118195158Y-113646861D01*
X118195159Y-113646861D01*
X118195160Y-113646862D01*
X118241819Y-113665262D01*
X118289016Y-113704198D01*
X118304500Y-113757359D01*
X118304500Y-118809461D01*
X118291236Y-118858961D01*
X118217017Y-118987510D01*
X118179500Y-119127525D01*
X118179500Y-119272474D01*
X118217017Y-119412489D01*
X118289487Y-119538010D01*
X118289489Y-119538012D01*
X118289491Y-119538015D01*
X118293832Y-119542356D01*
X118321608Y-119596871D01*
X118312037Y-119657303D01*
X118309564Y-119661858D01*
X118237016Y-119787513D01*
X118199500Y-119927525D01*
X118199500Y-120072474D01*
X118237017Y-120212489D01*
X118311236Y-120341038D01*
X118324500Y-120390538D01*
X118324500Y-122756969D01*
X118305593Y-122815160D01*
X118256093Y-122851124D01*
X118194907Y-122851124D01*
X118155498Y-122826974D01*
X118088015Y-122759491D01*
X118088012Y-122759489D01*
X118088010Y-122759487D01*
X117962488Y-122687017D01*
X117962489Y-122687017D01*
X117932896Y-122679087D01*
X117822475Y-122649500D01*
X117677525Y-122649500D01*
X117615790Y-122666041D01*
X117537510Y-122687017D01*
X117411989Y-122759487D01*
X117411988Y-122759488D01*
X117411985Y-122759490D01*
X117411985Y-122759491D01*
X117344501Y-122826974D01*
X117289987Y-122854750D01*
X117229555Y-122845179D01*
X117186290Y-122801914D01*
X117175500Y-122756969D01*
X117175500Y-121990538D01*
X117188764Y-121941038D01*
X117262982Y-121812489D01*
X117262982Y-121812487D01*
X117262984Y-121812485D01*
X117300500Y-121672475D01*
X117300500Y-121527525D01*
X117262984Y-121387515D01*
X117262982Y-121387512D01*
X117262982Y-121387510D01*
X117190512Y-121261989D01*
X117190510Y-121261987D01*
X117190509Y-121261985D01*
X117088015Y-121159491D01*
X117088012Y-121159489D01*
X117088010Y-121159487D01*
X116962488Y-121087017D01*
X116962489Y-121087017D01*
X116932896Y-121079087D01*
X116822475Y-121049500D01*
X116822474Y-121049500D01*
X116822085Y-121049500D01*
X116821818Y-121049413D01*
X116816042Y-121048653D01*
X116816182Y-121047582D01*
X116763894Y-121030593D01*
X116727930Y-120981093D01*
X116726459Y-120924876D01*
X116740499Y-120872477D01*
X116740500Y-120872475D01*
X116740500Y-120727525D01*
X116702984Y-120587515D01*
X116702982Y-120587512D01*
X116702982Y-120587510D01*
X116628764Y-120458961D01*
X116615500Y-120409461D01*
X116615500Y-113757359D01*
X116634407Y-113699168D01*
X116678181Y-113665262D01*
X116724839Y-113646862D01*
X116724838Y-113646862D01*
X116724842Y-113646861D01*
X116845422Y-113555422D01*
X116936861Y-113434842D01*
X116992377Y-113294064D01*
X117003000Y-113205602D01*
X117003000Y-112219398D01*
X116992377Y-112130936D01*
X116936861Y-111990158D01*
X116845422Y-111869578D01*
X116845421Y-111869577D01*
X116841330Y-111864182D01*
X116842448Y-111863333D01*
X116818070Y-111815487D01*
X116827641Y-111755055D01*
X116841515Y-111735958D01*
X116841330Y-111735818D01*
X116845422Y-111730422D01*
X116936861Y-111609842D01*
X116992377Y-111469064D01*
X117003000Y-111380602D01*
X117003000Y-110394398D01*
X116992377Y-110305936D01*
X116936861Y-110165158D01*
X116845422Y-110044578D01*
X116724842Y-109953139D01*
X116724841Y-109953138D01*
X116678180Y-109934737D01*
X116630983Y-109895800D01*
X116615500Y-109842640D01*
X116615500Y-107715101D01*
X116634407Y-107656910D01*
X116669552Y-107626892D01*
X116792994Y-107563996D01*
X116939501Y-107457553D01*
X117067553Y-107329501D01*
X117173996Y-107182994D01*
X117256211Y-107021639D01*
X117312171Y-106849409D01*
X117340500Y-106670546D01*
X117340500Y-106489454D01*
X117340500Y-106489450D01*
X117312171Y-106310593D01*
X117312171Y-106310591D01*
X117256211Y-106138361D01*
X117173996Y-105977006D01*
X117067553Y-105830499D01*
X116939501Y-105702447D01*
X116792994Y-105596004D01*
X116792993Y-105596003D01*
X116792991Y-105596002D01*
X116631637Y-105513788D01*
X116459406Y-105457828D01*
X116280549Y-105429500D01*
X116280546Y-105429500D01*
X116099454Y-105429500D01*
X116099451Y-105429500D01*
X115920593Y-105457828D01*
X115748362Y-105513788D01*
X115587008Y-105596002D01*
X115513752Y-105649225D01*
X115440499Y-105702447D01*
X115312447Y-105830499D01*
X115259225Y-105903752D01*
X115206002Y-105977008D01*
X115123788Y-106138362D01*
X115067828Y-106310593D01*
X115039500Y-106489450D01*
X114800500Y-106489450D01*
X114772171Y-106310593D01*
X114772171Y-106310591D01*
X114716211Y-106138361D01*
X114633996Y-105977006D01*
X114527553Y-105830499D01*
X114399501Y-105702447D01*
X114252994Y-105596004D01*
X114252993Y-105596003D01*
X114252991Y-105596002D01*
X114091637Y-105513788D01*
X113919406Y-105457828D01*
X113740549Y-105429500D01*
X113740546Y-105429500D01*
X113559454Y-105429500D01*
X113559451Y-105429500D01*
X113380593Y-105457828D01*
X113208362Y-105513788D01*
X113047008Y-105596002D01*
X112973752Y-105649225D01*
X112900499Y-105702447D01*
X112772447Y-105830499D01*
X112719225Y-105903752D01*
X112666002Y-105977008D01*
X112583788Y-106138362D01*
X112527828Y-106310593D01*
X112499500Y-106489450D01*
X112260500Y-106489450D01*
X112232171Y-106310593D01*
X112232171Y-106310591D01*
X112176211Y-106138361D01*
X112093996Y-105977006D01*
X111987553Y-105830499D01*
X111859501Y-105702447D01*
X111712994Y-105596004D01*
X111712993Y-105596003D01*
X111712991Y-105596002D01*
X111551637Y-105513788D01*
X111379406Y-105457828D01*
X111200549Y-105429500D01*
X111200546Y-105429500D01*
X111019454Y-105429500D01*
X111019451Y-105429500D01*
X110840593Y-105457828D01*
X110668362Y-105513788D01*
X110507008Y-105596002D01*
X110433752Y-105649225D01*
X110360499Y-105702447D01*
X110232447Y-105830499D01*
X110179225Y-105903752D01*
X110126002Y-105977008D01*
X110043788Y-106138362D01*
X109987828Y-106310593D01*
X109959500Y-106489450D01*
X100500500Y-106489450D01*
X100500500Y-100599500D01*
X100519407Y-100541309D01*
X100568907Y-100505345D01*
X100599500Y-100500500D01*
X139400500Y-100500500D01*
X139458691Y-100519407D01*
G37*
%TD.AperFunction*%
%TD*%
M02*
