M48
; DRILL file KiCad 10.0.3 date 2026-07-08T13:38:43
; FORMAT={-:-/ absolute / metric / decimal}
; #@! TF.CreationDate,2026-07-08T13:38:43+02:00
; #@! TF.GenerationSoftware,Kicad,Pcbnew,10.0.3
; #@! TF.FileFunction,Plated,1,2,PTH
FMAT,2
METRIC
; #@! TA.AperFunction,Plated,PTH,ViaDrill
T1C0.300
; #@! TA.AperFunction,Plated,PTH,ComponentDrill
T2C1.000
%
G90
G05
T1
X101.8Y-161.6
X102.0Y-102.0
X102.0Y-177.0
X102.6Y-160.8
X104.2Y-135.0
X104.5Y-126.5
X105.0Y-144.0
X105.0Y-155.0
X106.5Y-168.6
X107.1Y-169.4
X107.7Y-170.2
X108.3Y-166.5
X108.4Y-129.375
X108.9Y-162.4
X109.4Y-128.725
X110.0Y-160.0
X112.0Y-118.0
X114.8Y-162.4
X115.2Y-121.1
X116.11Y-114.3
X117.05Y-121.1
X117.3Y-131.975
X117.7Y-128.075
X118.0Y-132.625
X118.2Y-130.8
X118.3Y-133.275
X118.65Y-115.1
X118.65Y-166.5
X118.9Y-128.725
X119.0Y-160.8
X120.0Y-104.0
X120.0Y-163.8
X120.0Y-168.6
X120.6Y-124.0
X120.7Y-163.0
X121.19Y-115.9
X121.19Y-168.6
X121.9Y-129.375
X122.0Y-162.4
X122.9Y-128.725
X123.0Y-169.4
X123.3Y-132.625
X123.6Y-149.365
X123.73Y-116.7
X125.0Y-158.0
X125.887Y-146.5
X126.27Y-118.3
X126.27Y-170.2
X128.3Y-146.5
X128.81Y-117.5
X128.81Y-169.4
X131.3Y-131.975
X131.35Y-115.9
X131.9Y-160.8
X132.5Y-133.275
X132.62Y-160.8
X133.5Y-149.365
X133.89Y-116.5
X133.89Y-128.725
X134.0Y-166.5
X134.6Y-128.075
X135.0Y-117.5
X135.0Y-143.0
X135.16Y-161.6
X137.0Y-171.3
X139.2Y-149.365
X140.0Y-140.0
X141.5Y-157.0
X143.0Y-149.365
X144.4Y-161.6
X145.0Y-120.0
X146.0Y-145.0
X148.0Y-102.0
X148.0Y-177.0
T2
X113.57Y-106.58
X113.57Y-173.42
X113.57Y-175.96
X116.11Y-106.58
X116.11Y-173.42
X116.11Y-175.96
X118.65Y-106.58
X118.65Y-173.42
X118.65Y-175.96
X121.19Y-106.58
X121.19Y-173.42
X121.19Y-175.96
X123.73Y-106.58
X123.73Y-173.42
X123.73Y-175.96
X126.27Y-106.58
X126.27Y-173.42
X126.27Y-175.96
X128.81Y-106.58
X128.81Y-173.42
X128.81Y-175.96
X131.35Y-106.58
X131.35Y-173.42
X131.35Y-175.96
X133.89Y-106.58
X133.89Y-173.42
X133.89Y-175.96
X136.43Y-106.58
X136.43Y-173.42
X136.43Y-175.96
M30
