%TF.GenerationSoftware,KiCad,Pcbnew,10.0.3*%
%TF.CreationDate,2026-07-08T12:05:24+02:00*%
%TF.ProjectId,musicbrain-dac8,6d757369-6362-4726-9169-6e2d64616338,1.0*%
%TF.SameCoordinates,Original*%
%TF.FileFunction,Soldermask,Top*%
%TF.FilePolarity,Negative*%
%FSLAX46Y46*%
G04 Gerber Fmt 4.6, Leading zero omitted, Abs format (unit mm)*
G04 Created by KiCad (PCBNEW 10.0.3) date 2026-07-08 12:05:24*
%MOMM*%
%LPD*%
G01*
G04 APERTURE LIST*
G04 Aperture macros list*
%AMRoundRect*
0 Rectangle with rounded corners*
0 $1 Rounding radius*
0 $2 $3 $4 $5 $6 $7 $8 $9 X,Y pos of 4 corners*
0 Add a 4 corners polygon primitive as box body*
4,1,4,$2,$3,$4,$5,$6,$7,$8,$9,$2,$3,0*
0 Add four circle primitives for the rounded corners*
1,1,$1+$1,$2,$3*
1,1,$1+$1,$4,$5*
1,1,$1+$1,$6,$7*
1,1,$1+$1,$8,$9*
0 Add four rect primitives between the rounded corners*
20,1,$1+$1,$2,$3,$4,$5,0*
20,1,$1+$1,$4,$5,$6,$7,0*
20,1,$1+$1,$6,$7,$8,$9,0*
20,1,$1+$1,$8,$9,$2,$3,0*%
G04 Aperture macros list end*
%ADD10R,1.700000X1.700000*%
%ADD11C,1.700000*%
%ADD12RoundRect,0.100000X-0.675000X-0.100000X0.675000X-0.100000X0.675000X0.100000X-0.675000X0.100000X0*%
%ADD13R,3.200000X5.000000*%
%ADD14RoundRect,0.150000X-0.825000X-0.150000X0.825000X-0.150000X0.825000X0.150000X-0.825000X0.150000X0*%
%ADD15RoundRect,0.250000X0.450000X-0.262500X0.450000X0.262500X-0.450000X0.262500X-0.450000X-0.262500X0*%
%ADD16RoundRect,0.250000X-0.450000X0.262500X-0.450000X-0.262500X0.450000X-0.262500X0.450000X0.262500X0*%
%ADD17RoundRect,0.250000X-1.050000X-0.550000X1.050000X-0.550000X1.050000X0.550000X-1.050000X0.550000X0*%
%ADD18RoundRect,0.250000X0.475000X-0.250000X0.475000X0.250000X-0.475000X0.250000X-0.475000X-0.250000X0*%
%ADD19RoundRect,0.250000X-0.550000X1.050000X-0.550000X-1.050000X0.550000X-1.050000X0.550000X1.050000X0*%
%ADD20RoundRect,0.250000X-0.250000X-0.475000X0.250000X-0.475000X0.250000X0.475000X-0.250000X0.475000X0*%
%ADD21RoundRect,0.250000X-0.475000X0.250000X-0.475000X-0.250000X0.475000X-0.250000X0.475000X0.250000X0*%
G04 APERTURE END LIST*
D10*
%TO.C,J1*%
X136430000Y-173420000D03*
D11*
X136430000Y-175960000D03*
X133890000Y-173420000D03*
X133890000Y-175960000D03*
X131350000Y-173420000D03*
X131350000Y-175960000D03*
X128810000Y-173420000D03*
X128810000Y-175960000D03*
X126270000Y-173420000D03*
X126270000Y-175960000D03*
X123730000Y-173420000D03*
X123730000Y-175960000D03*
X121190000Y-173420000D03*
X121190000Y-175960000D03*
X118650000Y-173420000D03*
X118650000Y-175960000D03*
X116110000Y-173420000D03*
X116110000Y-175960000D03*
X113570000Y-173420000D03*
X113570000Y-175960000D03*
%TD*%
D10*
%TO.C,J2*%
X113570000Y-106580000D03*
D11*
X116110000Y-106580000D03*
X118650000Y-106580000D03*
X121190000Y-106580000D03*
X123730000Y-106580000D03*
X126270000Y-106580000D03*
X128810000Y-106580000D03*
X131350000Y-106580000D03*
X133890000Y-106580000D03*
X136430000Y-106580000D03*
%TD*%
D12*
%TO.C,U1*%
X110625000Y-127425000D03*
X110625000Y-128075000D03*
X110625000Y-128725000D03*
X110625000Y-129375000D03*
X110625000Y-130025000D03*
X110625000Y-130675000D03*
X110625000Y-131325000D03*
X110625000Y-131975000D03*
X110625000Y-132625000D03*
X110625000Y-133275000D03*
X110625000Y-133925000D03*
X110625000Y-134575000D03*
X116375000Y-134575000D03*
X116375000Y-133925000D03*
X116375000Y-133275000D03*
X116375000Y-132625000D03*
X116375000Y-131975000D03*
X116375000Y-131325000D03*
X116375000Y-130675000D03*
X116375000Y-130025000D03*
X116375000Y-129375000D03*
X116375000Y-128725000D03*
X116375000Y-128075000D03*
X116375000Y-127425000D03*
D13*
X113500000Y-131000000D03*
%TD*%
D12*
%TO.C,U2*%
X124625000Y-127425000D03*
X124625000Y-128075000D03*
X124625000Y-128725000D03*
X124625000Y-129375000D03*
X124625000Y-130025000D03*
X124625000Y-130675000D03*
X124625000Y-131325000D03*
X124625000Y-131975000D03*
X124625000Y-132625000D03*
X124625000Y-133275000D03*
X124625000Y-133925000D03*
X124625000Y-134575000D03*
X130375000Y-134575000D03*
X130375000Y-133925000D03*
X130375000Y-133275000D03*
X130375000Y-132625000D03*
X130375000Y-131975000D03*
X130375000Y-131325000D03*
X130375000Y-130675000D03*
X130375000Y-130025000D03*
X130375000Y-129375000D03*
X130375000Y-128725000D03*
X130375000Y-128075000D03*
X130375000Y-127425000D03*
D13*
X127500000Y-131000000D03*
%TD*%
D14*
%TO.C,U3*%
X124325000Y-148095000D03*
X124325000Y-149365000D03*
X124325000Y-150635000D03*
X124325000Y-151905000D03*
X129275000Y-151905000D03*
X129275000Y-150635000D03*
X129275000Y-149365000D03*
X129275000Y-148095000D03*
%TD*%
D15*
%TO.C,R1*%
X114800000Y-161312500D03*
X114800000Y-159487500D03*
%TD*%
D16*
%TO.C,R2*%
X116110000Y-110887500D03*
X116110000Y-112712500D03*
%TD*%
%TO.C,R3*%
X118650000Y-110887500D03*
X118650000Y-112712500D03*
%TD*%
%TO.C,R4*%
X121190000Y-110887500D03*
X121190000Y-112712500D03*
%TD*%
%TO.C,R5*%
X123730000Y-110887500D03*
X123730000Y-112712500D03*
%TD*%
%TO.C,R6*%
X126270000Y-110887500D03*
X126270000Y-112712500D03*
%TD*%
%TO.C,R7*%
X128810000Y-110887500D03*
X128810000Y-112712500D03*
%TD*%
%TO.C,R8*%
X131350000Y-110887500D03*
X131350000Y-112712500D03*
%TD*%
%TO.C,R9*%
X133890000Y-110887500D03*
X133890000Y-112712500D03*
%TD*%
D17*
%TO.C,C1*%
X144000000Y-130000000D03*
X147600000Y-130000000D03*
%TD*%
D18*
%TO.C,C2*%
X118200000Y-124950000D03*
X118200000Y-123050000D03*
%TD*%
D19*
%TO.C,C3*%
X144400000Y-164700000D03*
X144400000Y-168300000D03*
%TD*%
D18*
%TO.C,C4*%
X107300000Y-124950000D03*
X107300000Y-123050000D03*
%TD*%
%TO.C,C5*%
X104400000Y-130050000D03*
X104400000Y-128150000D03*
%TD*%
D20*
%TO.C,C6*%
X125850000Y-145200000D03*
X127750000Y-145200000D03*
%TD*%
D21*
%TO.C,C7*%
X133500000Y-150950000D03*
X133500000Y-152850000D03*
%TD*%
D19*
%TO.C,C8*%
X139200000Y-150700000D03*
X139200000Y-154300000D03*
%TD*%
D18*
%TO.C,C10*%
X132200000Y-124950000D03*
X132200000Y-123050000D03*
%TD*%
%TO.C,C12*%
X122400000Y-124950000D03*
X122400000Y-123050000D03*
%TD*%
%TO.C,C13*%
X120200000Y-129350000D03*
X120200000Y-127450000D03*
%TD*%
M02*
