%TF.GenerationSoftware,KiCad,Pcbnew,10.0.3*%
%TF.CreationDate,2026-07-08T12:05:24+02:00*%
%TF.ProjectId,musicbrain-dac8,6d757369-6362-4726-9169-6e2d64616338,1.0*%
%TF.SameCoordinates,Original*%
%TF.FileFunction,Copper,L1,Top*%
%TF.FilePolarity,Positive*%
%FSLAX46Y46*%
G04 Gerber Fmt 4.6, Leading zero omitted, Abs format (unit mm)*
G04 Created by KiCad (PCBNEW 10.0.3) date 2026-07-08 12:05:24*
%MOMM*%
%LPD*%
G01*
G04 APERTURE LIST*
G04 Aperture macros list*
%AMRoundRect*
0 Rectangle with rounded corners*
0 $1 Rounding radius*
0 $2 $3 $4 $5 $6 $7 $8 $9 X,Y pos of 4 corners*
0 Add a 4 corners polygon primitive as box body*
4,1,4,$2,$3,$4,$5,$6,$7,$8,$9,$2,$3,0*
0 Add four circle primitives for the rounded corners*
1,1,$1+$1,$2,$3*
1,1,$1+$1,$4,$5*
1,1,$1+$1,$6,$7*
1,1,$1+$1,$8,$9*
0 Add four rect primitives between the rounded corners*
20,1,$1+$1,$2,$3,$4,$5,0*
20,1,$1+$1,$4,$5,$6,$7,0*
20,1,$1+$1,$6,$7,$8,$9,0*
20,1,$1+$1,$8,$9,$2,$3,0*%
G04 Aperture macros list end*
%TA.AperFunction,ComponentPad*%
%ADD10R,1.700000X1.700000*%
%TD*%
%TA.AperFunction,ComponentPad*%
%ADD11C,1.700000*%
%TD*%
%TA.AperFunction,SMDPad,CuDef*%
%ADD12RoundRect,0.100000X-0.675000X-0.100000X0.675000X-0.100000X0.675000X0.100000X-0.675000X0.100000X0*%
%TD*%
%TA.AperFunction,HeatsinkPad*%
%ADD13R,3.200000X5.000000*%
%TD*%
%TA.AperFunction,SMDPad,CuDef*%
%ADD14RoundRect,0.150000X-0.825000X-0.150000X0.825000X-0.150000X0.825000X0.150000X-0.825000X0.150000X0*%
%TD*%
%TA.AperFunction,SMDPad,CuDef*%
%ADD15RoundRect,0.250000X0.450000X-0.262500X0.450000X0.262500X-0.450000X0.262500X-0.450000X-0.262500X0*%
%TD*%
%TA.AperFunction,SMDPad,CuDef*%
%ADD16RoundRect,0.250000X-0.450000X0.262500X-0.450000X-0.262500X0.450000X-0.262500X0.450000X0.262500X0*%
%TD*%
%TA.AperFunction,SMDPad,CuDef*%
%ADD17RoundRect,0.250000X-1.050000X-0.550000X1.050000X-0.550000X1.050000X0.550000X-1.050000X0.550000X0*%
%TD*%
%TA.AperFunction,SMDPad,CuDef*%
%ADD18RoundRect,0.250000X0.475000X-0.250000X0.475000X0.250000X-0.475000X0.250000X-0.475000X-0.250000X0*%
%TD*%
%TA.AperFunction,SMDPad,CuDef*%
%ADD19RoundRect,0.250000X-0.550000X1.050000X-0.550000X-1.050000X0.550000X-1.050000X0.550000X1.050000X0*%
%TD*%
%TA.AperFunction,SMDPad,CuDef*%
%ADD20RoundRect,0.250000X-0.250000X-0.475000X0.250000X-0.475000X0.250000X0.475000X-0.250000X0.475000X0*%
%TD*%
%TA.AperFunction,SMDPad,CuDef*%
%ADD21RoundRect,0.250000X-0.475000X0.250000X-0.475000X-0.250000X0.475000X-0.250000X0.475000X0.250000X0*%
%TD*%
%TA.AperFunction,ViaPad*%
%ADD22C,0.500000*%
%TD*%
%TA.AperFunction,Conductor*%
%ADD23C,0.250000*%
%TD*%
%TA.AperFunction,Conductor*%
%ADD24C,0.400000*%
%TD*%
%TA.AperFunction,Conductor*%
%ADD25C,0.500000*%
%TD*%
%TA.AperFunction,Conductor*%
%ADD26C,0.300000*%
%TD*%
G04 APERTURE END LIST*
D10*
%TO.P,J1,1*%
%TO.N,GND*%
X136430000Y-173420000D03*
D11*
%TO.P,J1,2*%
%TO.N,+12V*%
X136430000Y-175960000D03*
%TO.P,J1,3*%
%TO.N,GND*%
X133890000Y-173420000D03*
%TO.P,J1,4*%
%TO.N,-12V*%
X133890000Y-175960000D03*
%TO.P,J1,5*%
%TO.N,GND*%
X131350000Y-173420000D03*
%TO.P,J1,6*%
%TO.N,+3V3*%
X131350000Y-175960000D03*
%TO.P,J1,7*%
%TO.N,/SCLK*%
X128810000Y-173420000D03*
%TO.P,J1,8*%
%TO.N,GND*%
X128810000Y-175960000D03*
%TO.P,J1,9*%
%TO.N,/MOSI*%
X126270000Y-173420000D03*
%TO.P,J1,10*%
%TO.N,GND*%
X126270000Y-175960000D03*
%TO.P,J1,11*%
%TO.N,/MISO*%
X123730000Y-173420000D03*
%TO.P,J1,12*%
%TO.N,GND*%
X123730000Y-175960000D03*
%TO.P,J1,13*%
%TO.N,/CS*%
X121190000Y-173420000D03*
%TO.P,J1,14*%
%TO.N,GND*%
X121190000Y-175960000D03*
%TO.P,J1,15*%
%TO.N,/LDAC*%
X118650000Y-173420000D03*
%TO.P,J1,16*%
%TO.N,N/C*%
X118650000Y-175960000D03*
%TO.P,J1,17*%
X116110000Y-173420000D03*
%TO.P,J1,18*%
X116110000Y-175960000D03*
%TO.P,J1,19*%
X113570000Y-173420000D03*
%TO.P,J1,20*%
X113570000Y-175960000D03*
%TD*%
D10*
%TO.P,J2,1*%
%TO.N,GND*%
X113570000Y-106580000D03*
D11*
%TO.P,J2,2*%
%TO.N,/CV1*%
X116110000Y-106580000D03*
%TO.P,J2,3*%
%TO.N,/CV2*%
X118650000Y-106580000D03*
%TO.P,J2,4*%
%TO.N,/CV3*%
X121190000Y-106580000D03*
%TO.P,J2,5*%
%TO.N,/CV4*%
X123730000Y-106580000D03*
%TO.P,J2,6*%
%TO.N,/CV5*%
X126270000Y-106580000D03*
%TO.P,J2,7*%
%TO.N,/CV6*%
X128810000Y-106580000D03*
%TO.P,J2,8*%
%TO.N,/CV7*%
X131350000Y-106580000D03*
%TO.P,J2,9*%
%TO.N,/CV8*%
X133890000Y-106580000D03*
%TO.P,J2,10*%
%TO.N,GND*%
X136430000Y-106580000D03*
%TD*%
D12*
%TO.P,U1,1*%
%TO.N,-12V*%
X110625000Y-127425000D03*
%TO.P,U1,2*%
%TO.N,N/C*%
X110625000Y-128075000D03*
%TO.P,U1,3*%
%TO.N,/VA1*%
X110625000Y-128725000D03*
%TO.P,U1,4*%
%TO.N,/VB1*%
X110625000Y-129375000D03*
%TO.P,U1,5*%
%TO.N,+3V3*%
X110625000Y-130025000D03*
%TO.P,U1,6*%
%TO.N,N/C*%
X110625000Y-130675000D03*
%TO.P,U1,7*%
%TO.N,/CS*%
X110625000Y-131325000D03*
%TO.P,U1,8*%
%TO.N,/SCLK*%
X110625000Y-131975000D03*
%TO.P,U1,9*%
%TO.N,/MOSI*%
X110625000Y-132625000D03*
%TO.P,U1,10*%
%TO.N,GND*%
X110625000Y-133275000D03*
%TO.P,U1,11*%
%TO.N,/CLR*%
X110625000Y-133925000D03*
%TO.P,U1,12*%
%TO.N,/LDAC*%
X110625000Y-134575000D03*
%TO.P,U1,13*%
%TO.N,N/C*%
X116375000Y-134575000D03*
%TO.P,U1,14*%
%TO.N,+3V3*%
X116375000Y-133925000D03*
%TO.P,U1,15*%
%TO.N,GND*%
X116375000Y-133275000D03*
%TO.P,U1,16*%
%TO.N,/DAISY*%
X116375000Y-132625000D03*
%TO.P,U1,17*%
%TO.N,/VREF*%
X116375000Y-131975000D03*
%TO.P,U1,18*%
%TO.N,GND*%
X116375000Y-131325000D03*
%TO.P,U1,19*%
X116375000Y-130675000D03*
%TO.P,U1,20*%
X116375000Y-130025000D03*
%TO.P,U1,21*%
X116375000Y-129375000D03*
%TO.P,U1,22*%
%TO.N,/VD1*%
X116375000Y-128725000D03*
%TO.P,U1,23*%
%TO.N,/VC1*%
X116375000Y-128075000D03*
%TO.P,U1,24*%
%TO.N,+12V*%
X116375000Y-127425000D03*
D13*
%TO.P,U1,25*%
%TO.N,-12V*%
X113500000Y-131000000D03*
%TD*%
D12*
%TO.P,U2,1*%
%TO.N,-12V*%
X124625000Y-127425000D03*
%TO.P,U2,2*%
%TO.N,N/C*%
X124625000Y-128075000D03*
%TO.P,U2,3*%
%TO.N,/VA2*%
X124625000Y-128725000D03*
%TO.P,U2,4*%
%TO.N,/VB2*%
X124625000Y-129375000D03*
%TO.P,U2,5*%
%TO.N,+3V3*%
X124625000Y-130025000D03*
%TO.P,U2,6*%
%TO.N,N/C*%
X124625000Y-130675000D03*
%TO.P,U2,7*%
%TO.N,/CS*%
X124625000Y-131325000D03*
%TO.P,U2,8*%
%TO.N,/SCLK*%
X124625000Y-131975000D03*
%TO.P,U2,9*%
%TO.N,/DAISY*%
X124625000Y-132625000D03*
%TO.P,U2,10*%
%TO.N,GND*%
X124625000Y-133275000D03*
%TO.P,U2,11*%
%TO.N,/CLR*%
X124625000Y-133925000D03*
%TO.P,U2,12*%
%TO.N,/LDAC*%
X124625000Y-134575000D03*
%TO.P,U2,13*%
%TO.N,N/C*%
X130375000Y-134575000D03*
%TO.P,U2,14*%
%TO.N,+3V3*%
X130375000Y-133925000D03*
%TO.P,U2,15*%
%TO.N,GND*%
X130375000Y-133275000D03*
%TO.P,U2,16*%
%TO.N,/MISO*%
X130375000Y-132625000D03*
%TO.P,U2,17*%
%TO.N,/VREF*%
X130375000Y-131975000D03*
%TO.P,U2,18*%
%TO.N,GND*%
X130375000Y-131325000D03*
%TO.P,U2,19*%
X130375000Y-130675000D03*
%TO.P,U2,20*%
X130375000Y-130025000D03*
%TO.P,U2,21*%
X130375000Y-129375000D03*
%TO.P,U2,22*%
%TO.N,/VD2*%
X130375000Y-128725000D03*
%TO.P,U2,23*%
%TO.N,/VC2*%
X130375000Y-128075000D03*
%TO.P,U2,24*%
%TO.N,+12V*%
X130375000Y-127425000D03*
D13*
%TO.P,U2,25*%
%TO.N,-12V*%
X127500000Y-131000000D03*
%TD*%
D14*
%TO.P,U3,1*%
%TO.N,N/C*%
X124325000Y-148095000D03*
%TO.P,U3,2*%
%TO.N,+12V*%
X124325000Y-149365000D03*
%TO.P,U3,3*%
%TO.N,N/C*%
X124325000Y-150635000D03*
%TO.P,U3,4*%
%TO.N,GND*%
X124325000Y-151905000D03*
%TO.P,U3,5*%
%TO.N,N/C*%
X129275000Y-151905000D03*
%TO.P,U3,6*%
X129275000Y-150635000D03*
%TO.P,U3,7*%
X129275000Y-149365000D03*
%TO.P,U3,8*%
%TO.N,/VREF*%
X129275000Y-148095000D03*
%TD*%
D15*
%TO.P,R1,1*%
%TO.N,/CLR*%
X114800000Y-161312500D03*
%TO.P,R1,2*%
%TO.N,+3V3*%
X114800000Y-159487500D03*
%TD*%
D16*
%TO.P,R2,1*%
%TO.N,/CV1*%
X116110000Y-110887500D03*
%TO.P,R2,2*%
%TO.N,/VB1*%
X116110000Y-112712500D03*
%TD*%
%TO.P,R3,1*%
%TO.N,/CV2*%
X118650000Y-110887500D03*
%TO.P,R3,2*%
%TO.N,/VA1*%
X118650000Y-112712500D03*
%TD*%
%TO.P,R4,1*%
%TO.N,/CV3*%
X121190000Y-110887500D03*
%TO.P,R4,2*%
%TO.N,/VC1*%
X121190000Y-112712500D03*
%TD*%
%TO.P,R5,1*%
%TO.N,/CV4*%
X123730000Y-110887500D03*
%TO.P,R5,2*%
%TO.N,/VD1*%
X123730000Y-112712500D03*
%TD*%
%TO.P,R6,1*%
%TO.N,/CV5*%
X126270000Y-110887500D03*
%TO.P,R6,2*%
%TO.N,/VA2*%
X126270000Y-112712500D03*
%TD*%
%TO.P,R7,1*%
%TO.N,/CV6*%
X128810000Y-110887500D03*
%TO.P,R7,2*%
%TO.N,/VB2*%
X128810000Y-112712500D03*
%TD*%
%TO.P,R8,1*%
%TO.N,/CV7*%
X131350000Y-110887500D03*
%TO.P,R8,2*%
%TO.N,/VC2*%
X131350000Y-112712500D03*
%TD*%
%TO.P,R9,1*%
%TO.N,/CV8*%
X133890000Y-110887500D03*
%TO.P,R9,2*%
%TO.N,/VD2*%
X133890000Y-112712500D03*
%TD*%
D17*
%TO.P,C1,1*%
%TO.N,+12V*%
X144000000Y-130000000D03*
%TO.P,C1,2*%
%TO.N,GND*%
X147600000Y-130000000D03*
%TD*%
D18*
%TO.P,C2,1*%
%TO.N,+12V*%
X118200000Y-124950000D03*
%TO.P,C2,2*%
%TO.N,GND*%
X118200000Y-123050000D03*
%TD*%
D19*
%TO.P,C3,1*%
%TO.N,-12V*%
X144400000Y-164700000D03*
%TO.P,C3,2*%
%TO.N,GND*%
X144400000Y-168300000D03*
%TD*%
D18*
%TO.P,C4,1*%
%TO.N,-12V*%
X107300000Y-124950000D03*
%TO.P,C4,2*%
%TO.N,GND*%
X107300000Y-123050000D03*
%TD*%
%TO.P,C5,1*%
%TO.N,+3V3*%
X104400000Y-130050000D03*
%TO.P,C5,2*%
%TO.N,GND*%
X104400000Y-128150000D03*
%TD*%
D20*
%TO.P,C6,1*%
%TO.N,/VREF*%
X125850000Y-145200000D03*
%TO.P,C6,2*%
%TO.N,GND*%
X127750000Y-145200000D03*
%TD*%
D21*
%TO.P,C7,1*%
%TO.N,+12V*%
X133500000Y-150950000D03*
%TO.P,C7,2*%
%TO.N,GND*%
X133500000Y-152850000D03*
%TD*%
D19*
%TO.P,C8,1*%
%TO.N,+12V*%
X139200000Y-150700000D03*
%TO.P,C8,2*%
%TO.N,GND*%
X139200000Y-154300000D03*
%TD*%
D18*
%TO.P,C10,1*%
%TO.N,+12V*%
X132200000Y-124950000D03*
%TO.P,C10,2*%
%TO.N,GND*%
X132200000Y-123050000D03*
%TD*%
%TO.P,C12,1*%
%TO.N,-12V*%
X122400000Y-124950000D03*
%TO.P,C12,2*%
%TO.N,GND*%
X122400000Y-123050000D03*
%TD*%
%TO.P,C13,1*%
%TO.N,+3V3*%
X120200000Y-129350000D03*
%TO.P,C13,2*%
%TO.N,GND*%
X120200000Y-127450000D03*
%TD*%
D22*
%TO.N,/VA1*%
X109400000Y-128725000D03*
X118650000Y-115100000D03*
%TO.N,/VB1*%
X108400000Y-129375000D03*
X116110000Y-114300000D03*
%TO.N,/VC1*%
X117700000Y-128075000D03*
X121190000Y-115900000D03*
%TO.N,/VD1*%
X118900000Y-128725000D03*
X123730000Y-116700000D03*
%TO.N,/VA2*%
X122900000Y-128725000D03*
X126270000Y-118300000D03*
%TO.N,/VB2*%
X121900000Y-129375000D03*
X128810000Y-117500000D03*
%TO.N,/VC2*%
X134600000Y-128075000D03*
X131350000Y-115900000D03*
%TO.N,/VD2*%
X133890000Y-128725000D03*
X133890000Y-116500000D03*
%TO.N,/SCLK*%
X128810000Y-169400000D03*
X107100000Y-169400000D03*
X123000000Y-169400000D03*
X120700000Y-163000000D03*
%TO.N,/MOSI*%
X126270000Y-170200000D03*
X107700000Y-170200000D03*
%TO.N,/LDAC*%
X122100000Y-167300000D03*
X122100000Y-163600000D03*
%TO.N,/CS*%
X121190000Y-168600000D03*
X106500000Y-168600000D03*
X120000000Y-168600000D03*
X120000000Y-163800000D03*
%TO.N,/CLR*%
X108300000Y-162400000D03*
X121400000Y-162400000D03*
X114800000Y-162400000D03*
%TO.N,/DAISY*%
X118000000Y-132625000D03*
X123300000Y-132625000D03*
%TO.N,/MISO*%
X137000000Y-171300000D03*
%TO.N,/VREF*%
X117300000Y-131975000D03*
X131300000Y-131975000D03*
X128300000Y-146500000D03*
X125887500Y-146500000D03*
%TO.N,+3V3*%
X132620000Y-160800000D03*
X102600000Y-160800000D03*
X119000000Y-160800000D03*
X131900000Y-160800000D03*
%TO.N,+12V*%
X143000000Y-149365000D03*
X123600000Y-149365000D03*
X133500000Y-149365000D03*
X139200000Y-149365000D03*
%TO.N,-12V*%
X135160000Y-161600000D03*
X101800000Y-161600000D03*
X115200000Y-121100000D03*
X117050000Y-121100000D03*
X144400000Y-161600000D03*
%TO.N,GND*%
X109600000Y-133275000D03*
X123900000Y-133275000D03*
X118300000Y-133275000D03*
X132500000Y-133275000D03*
X102000000Y-102000000D03*
X148000000Y-102000000D03*
X102000000Y-177000000D03*
X148000000Y-177000000D03*
X105000000Y-155000000D03*
X135000000Y-117500000D03*
X104200000Y-135000000D03*
X110000000Y-160000000D03*
X125000000Y-158000000D03*
X145000000Y-120000000D03*
X146000000Y-145000000D03*
X112000000Y-118000000D03*
X120000000Y-104000000D03*
X135000000Y-143000000D03*
X105000000Y-144000000D03*
X141500000Y-157000000D03*
X134000000Y-166500000D03*
X140000000Y-140000000D03*
X118200000Y-130800000D03*
X104500000Y-126500000D03*
X120600000Y-124000000D03*
%TD*%
%TO.N,/VA1*%
D23*
X110625000Y-128725000D02*
X109400000Y-128725000D01*
X118650000Y-115100000D02*
X118650000Y-112712500D01*
%TO.N,/VB1*%
X110625000Y-129375000D02*
X108400000Y-129375000D01*
X116110000Y-114300000D02*
X116110000Y-112712500D01*
%TO.N,/VC1*%
X116375000Y-128075000D02*
X117700000Y-128075000D01*
X121190000Y-115900000D02*
X121190000Y-112712500D01*
%TO.N,/VD1*%
X116375000Y-128725000D02*
X118900000Y-128725000D01*
X123730000Y-116700000D02*
X123730000Y-112712500D01*
%TO.N,/VA2*%
X124625000Y-128725000D02*
X122900000Y-128725000D01*
X126270000Y-118300000D02*
X126270000Y-112712500D01*
%TO.N,/VB2*%
X124625000Y-129375000D02*
X121900000Y-129375000D01*
X128810000Y-117500000D02*
X128810000Y-112712500D01*
%TO.N,/VC2*%
X130375000Y-128075000D02*
X134600000Y-128075000D01*
X131350000Y-115900000D02*
X131350000Y-112712500D01*
%TO.N,/VD2*%
X130375000Y-128725000D02*
X133890000Y-128725000D01*
X133890000Y-116500000D02*
X133890000Y-112712500D01*
%TO.N,/CV1*%
X116110000Y-110887500D02*
X116110000Y-106580000D01*
%TO.N,/CV2*%
X118650000Y-110887500D02*
X118650000Y-106580000D01*
%TO.N,/CV3*%
X121190000Y-110887500D02*
X121190000Y-106580000D01*
%TO.N,/CV4*%
X123730000Y-110887500D02*
X123730000Y-106580000D01*
%TO.N,/CV5*%
X126270000Y-110887500D02*
X126270000Y-106580000D01*
%TO.N,/CV6*%
X128810000Y-110887500D02*
X128810000Y-106580000D01*
%TO.N,/CV7*%
X131350000Y-110887500D02*
X131350000Y-106580000D01*
%TO.N,/CV8*%
X133890000Y-110887500D02*
X133890000Y-106580000D01*
%TO.N,/SCLK*%
X128810000Y-173420000D02*
X128810000Y-169400000D01*
X107100000Y-169400000D02*
X107100000Y-131975000D01*
X107100000Y-131975000D02*
X110625000Y-131975000D01*
X120700000Y-163000000D02*
X120700000Y-131975000D01*
X120700000Y-131975000D02*
X124625000Y-131975000D01*
%TO.N,/MOSI*%
X126270000Y-173420000D02*
X126270000Y-170200000D01*
X107700000Y-170200000D02*
X107700000Y-132625000D01*
X107700000Y-132625000D02*
X110625000Y-132625000D01*
%TO.N,/LDAC*%
X118650000Y-173420000D02*
X118650000Y-167300000D01*
X110625000Y-167300000D02*
X122100000Y-167300000D01*
X110625000Y-167300000D02*
X110625000Y-134575000D01*
X122100000Y-163600000D02*
X122100000Y-134575000D01*
X122100000Y-134575000D02*
X124625000Y-134575000D01*
%TO.N,/CS*%
X121190000Y-173420000D02*
X121190000Y-168600000D01*
X106500000Y-168600000D02*
X106500000Y-131325000D01*
X106500000Y-131325000D02*
X110625000Y-131325000D01*
X120000000Y-163800000D02*
X120000000Y-131325000D01*
X120000000Y-131325000D02*
X124625000Y-131325000D01*
%TO.N,/CLR*%
X108300000Y-162400000D02*
X108300000Y-133925000D01*
X108300000Y-133925000D02*
X110625000Y-133925000D01*
X121400000Y-162400000D02*
X121400000Y-133925000D01*
X121400000Y-133925000D02*
X124625000Y-133925000D01*
X114800000Y-162400000D02*
X114800000Y-161312500D01*
%TO.N,/DAISY*%
X116375000Y-132625000D02*
X118000000Y-132625000D01*
X123300000Y-132625000D02*
X124625000Y-132625000D01*
%TO.N,/MISO*%
X130375000Y-132625000D02*
X137000000Y-132625000D01*
X137000000Y-132625000D02*
X137000000Y-171300000D01*
%TO.N,/VREF*%
X116375000Y-131975000D02*
X117300000Y-131975000D01*
X131300000Y-131975000D02*
X130375000Y-131975000D01*
X128300000Y-146500000D02*
X128300000Y-148095000D01*
X128300000Y-148095000D02*
X129275000Y-148095000D01*
X125887500Y-146500000D02*
X125850000Y-145200000D01*
%TO.N,+3V3*%
D24*
X131350000Y-175960000D02*
X132620000Y-175960000D01*
X132620000Y-175960000D02*
X132620000Y-160800000D01*
X102600000Y-160800000D02*
X102600000Y-130025000D01*
X102600000Y-130025000D02*
X110000000Y-130025000D01*
X110000000Y-130025000D02*
X110625000Y-130025000D01*
X119000000Y-160800000D02*
X119000000Y-130025000D01*
X119000000Y-130025000D02*
X124000000Y-130025000D01*
X124000000Y-130025000D02*
X124625000Y-130025000D01*
D23*
X119000000Y-133925000D02*
X117000000Y-133925000D01*
X117000000Y-133925000D02*
X116375000Y-133925000D01*
X131900000Y-160800000D02*
X131900000Y-133925000D01*
X131900000Y-133925000D02*
X130375000Y-133925000D01*
X119000000Y-159487500D02*
X114800000Y-159487500D01*
X104400000Y-130025000D02*
X104400000Y-130050000D01*
X120200000Y-129350000D02*
X120200000Y-130025000D01*
%TO.N,+12V*%
D25*
X136430000Y-175960000D02*
X143000000Y-175960000D01*
X143000000Y-175960000D02*
X143000000Y-120300000D01*
X143000000Y-120300000D02*
X116375000Y-120300000D01*
D26*
X116375000Y-120300000D02*
X116375000Y-127425000D01*
X130375000Y-120300000D02*
X130375000Y-127425000D01*
D24*
X143000000Y-130000000D02*
X144000000Y-130000000D01*
D23*
X116375000Y-124912500D02*
X118200000Y-124950000D01*
X130375000Y-124912500D02*
X132200000Y-124950000D01*
X123600000Y-149365000D02*
X124325000Y-149365000D01*
X133500000Y-149365000D02*
X133500000Y-150950000D01*
X139200000Y-149365000D02*
X139200000Y-150700000D01*
%TO.N,-12V*%
D24*
X133890000Y-175960000D02*
X135160000Y-175960000D01*
X135160000Y-175960000D02*
X135160000Y-161600000D01*
X101800000Y-161600000D02*
X101800000Y-121100000D01*
X101800000Y-121100000D02*
X115200000Y-121100000D01*
X117050000Y-121100000D02*
X127500000Y-121100000D01*
X110625000Y-121100000D02*
X110625000Y-127425000D01*
X124625000Y-121100000D02*
X124625000Y-127425000D01*
X113500000Y-121100000D02*
X113500000Y-128600000D01*
X127500000Y-121100000D02*
X127500000Y-128600000D01*
D23*
X110625000Y-124912500D02*
X107300000Y-124950000D01*
X124625000Y-124912500D02*
X122400000Y-124950000D01*
D24*
X144400000Y-161600000D02*
X144400000Y-164700000D01*
%TO.N,GND*%
D23*
X110625000Y-133275000D02*
X109600000Y-133275000D01*
X124625000Y-133275000D02*
X123900000Y-133275000D01*
X116375000Y-133275000D02*
X118300000Y-133275000D01*
X130375000Y-133275000D02*
X132500000Y-133275000D01*
%TD*%
%TA.AperFunction,Conductor*%
%TO.N,GND*%
G36*
X142408691Y-120869407D02*
G01*
X142444655Y-120918907D01*
X142449500Y-120949500D01*
X142449500Y-129199766D01*
X142442598Y-129236084D01*
X142410123Y-129318435D01*
X142399500Y-129406893D01*
X142399500Y-130593106D01*
X142410123Y-130681565D01*
X142442597Y-130763911D01*
X142449500Y-130800230D01*
X142449500Y-175310500D01*
X142430593Y-175368691D01*
X142381093Y-175404655D01*
X142350500Y-175409500D01*
X137501411Y-175409500D01*
X137443220Y-175390593D01*
X137416906Y-175359787D01*
X137416030Y-175360325D01*
X137413998Y-175357009D01*
X137413996Y-175357006D01*
X137307553Y-175210499D01*
X137179501Y-175082447D01*
X137032994Y-174976004D01*
X137032993Y-174976003D01*
X137032991Y-174976002D01*
X136871637Y-174893788D01*
X136699406Y-174837828D01*
X136520549Y-174809500D01*
X136520546Y-174809500D01*
X136339454Y-174809500D01*
X136339451Y-174809500D01*
X136160593Y-174837828D01*
X135988362Y-174893788D01*
X135827006Y-174976003D01*
X135827002Y-174976006D01*
X135817690Y-174982772D01*
X135759499Y-175001679D01*
X135701309Y-174982771D01*
X135665345Y-174933271D01*
X135660500Y-174902679D01*
X135660500Y-161860634D01*
X135671666Y-161818963D01*
X135670500Y-161818480D01*
X135672977Y-161812496D01*
X135672984Y-161812485D01*
X135710500Y-161672475D01*
X135710500Y-161527525D01*
X135672984Y-161387515D01*
X135672982Y-161387512D01*
X135672982Y-161387510D01*
X135600512Y-161261989D01*
X135600510Y-161261987D01*
X135600509Y-161261985D01*
X135498015Y-161159491D01*
X135498012Y-161159489D01*
X135498010Y-161159487D01*
X135372488Y-161087017D01*
X135372489Y-161087017D01*
X135274027Y-161060634D01*
X135232475Y-161049500D01*
X135087525Y-161049500D01*
X135045973Y-161060634D01*
X134947510Y-161087017D01*
X134821989Y-161159487D01*
X134719487Y-161261989D01*
X134647017Y-161387510D01*
X134632919Y-161440124D01*
X134609500Y-161527525D01*
X134609500Y-161672475D01*
X134647016Y-161812485D01*
X134647018Y-161812489D01*
X134649500Y-161818480D01*
X134648333Y-161818963D01*
X134659500Y-161860634D01*
X134659500Y-174902679D01*
X134640593Y-174960870D01*
X134591093Y-174996834D01*
X134529907Y-174996834D01*
X134502310Y-174982772D01*
X134492997Y-174976006D01*
X134492993Y-174976003D01*
X134331637Y-174893788D01*
X134159406Y-174837828D01*
X133980549Y-174809500D01*
X133980546Y-174809500D01*
X133799454Y-174809500D01*
X133799451Y-174809500D01*
X133620593Y-174837828D01*
X133448362Y-174893788D01*
X133287006Y-174976003D01*
X133287002Y-174976006D01*
X133277690Y-174982772D01*
X133219499Y-175001679D01*
X133161309Y-174982771D01*
X133125345Y-174933271D01*
X133120500Y-174902679D01*
X133120500Y-161060634D01*
X133131666Y-161018963D01*
X133130500Y-161018480D01*
X133132977Y-161012496D01*
X133132984Y-161012485D01*
X133170500Y-160872475D01*
X133170500Y-160727525D01*
X133132984Y-160587515D01*
X133132982Y-160587512D01*
X133132982Y-160587510D01*
X133060512Y-160461989D01*
X133060510Y-160461987D01*
X133060509Y-160461985D01*
X132958015Y-160359491D01*
X132958012Y-160359489D01*
X132958010Y-160359487D01*
X132832488Y-160287017D01*
X132832489Y-160287017D01*
X132777923Y-160272396D01*
X132692475Y-160249500D01*
X132547525Y-160249500D01*
X132450123Y-160275599D01*
X132389022Y-160272396D01*
X132341472Y-160233891D01*
X132325500Y-160179972D01*
X132325500Y-151447695D01*
X132344407Y-151389504D01*
X132393907Y-151353540D01*
X132455093Y-151353540D01*
X132504593Y-151389504D01*
X132516594Y-151411369D01*
X132540638Y-151472339D01*
X132540640Y-151472344D01*
X132593550Y-151542116D01*
X132632078Y-151592922D01*
X132752658Y-151684361D01*
X132752659Y-151684361D01*
X132752660Y-151684362D01*
X132794154Y-151700725D01*
X132893436Y-151739877D01*
X132981898Y-151750500D01*
X132981900Y-151750500D01*
X134018100Y-151750500D01*
X134018102Y-151750500D01*
X134106564Y-151739877D01*
X134247342Y-151684361D01*
X134367922Y-151592922D01*
X134459361Y-151472342D01*
X134514877Y-151331564D01*
X134525500Y-151243102D01*
X134525500Y-150656898D01*
X134514877Y-150568436D01*
X134460571Y-150430727D01*
X134459362Y-150427660D01*
X134459361Y-150427659D01*
X134459361Y-150427658D01*
X134367922Y-150307078D01*
X134247342Y-150215639D01*
X134247341Y-150215638D01*
X134247339Y-150215637D01*
X134106565Y-150160123D01*
X134015164Y-150149147D01*
X134015273Y-150148231D01*
X133961619Y-150127171D01*
X133928683Y-150075607D01*
X133925500Y-150050705D01*
X133925500Y-149755538D01*
X133938764Y-149706038D01*
X134012982Y-149577489D01*
X134012982Y-149577487D01*
X134012984Y-149577485D01*
X134050500Y-149437475D01*
X134050500Y-149292525D01*
X134012984Y-149152515D01*
X134012982Y-149152512D01*
X134012982Y-149152510D01*
X133940512Y-149026989D01*
X133940510Y-149026987D01*
X133940509Y-149026985D01*
X133838015Y-148924491D01*
X133838012Y-148924489D01*
X133838010Y-148924487D01*
X133712488Y-148852017D01*
X133712489Y-148852017D01*
X133682896Y-148844087D01*
X133572475Y-148814500D01*
X133427525Y-148814500D01*
X133365790Y-148831041D01*
X133287510Y-148852017D01*
X133161989Y-148924487D01*
X133059487Y-149026989D01*
X132987017Y-149152510D01*
X132949500Y-149292525D01*
X132949500Y-149437474D01*
X132987017Y-149577489D01*
X133061236Y-149706038D01*
X133074500Y-149755538D01*
X133074500Y-150050705D01*
X133055593Y-150108896D01*
X133006093Y-150144860D01*
X132984804Y-150148887D01*
X132984836Y-150149147D01*
X132893434Y-150160123D01*
X132752660Y-150215637D01*
X132752656Y-150215640D01*
X132632081Y-150307075D01*
X132632075Y-150307081D01*
X132540640Y-150427656D01*
X132540637Y-150427660D01*
X132516597Y-150488623D01*
X132477660Y-150535820D01*
X132418418Y-150551117D01*
X132361499Y-150528671D01*
X132328644Y-150477055D01*
X132325500Y-150452304D01*
X132325500Y-133868983D01*
X132307150Y-133800499D01*
X132296503Y-133760763D01*
X132296501Y-133760760D01*
X132296501Y-133760758D01*
X132240486Y-133663739D01*
X132240485Y-133663737D01*
X132161263Y-133584515D01*
X132161260Y-133584513D01*
X132064240Y-133528498D01*
X132064242Y-133528498D01*
X132022251Y-133517247D01*
X131956018Y-133499500D01*
X131956016Y-133499500D01*
X131317114Y-133499500D01*
X131272168Y-133488709D01*
X131224339Y-133464339D01*
X131175304Y-133439354D01*
X131175305Y-133439354D01*
X131081521Y-133424500D01*
X129668478Y-133424500D01*
X129668476Y-133424501D01*
X129574700Y-133439352D01*
X129574697Y-133439353D01*
X129544444Y-133454768D01*
X129536554Y-133456017D01*
X129530092Y-133460713D01*
X129506906Y-133460713D01*
X129484011Y-133464339D01*
X129476895Y-133460713D01*
X129468906Y-133460713D01*
X129450148Y-133447084D01*
X129429495Y-133436561D01*
X129425869Y-133429444D01*
X129419406Y-133424749D01*
X129412241Y-133402697D01*
X129401718Y-133382044D01*
X129400499Y-133366566D01*
X129400499Y-133183439D01*
X129419406Y-133125250D01*
X129468906Y-133089286D01*
X129530092Y-133089286D01*
X129544442Y-133095230D01*
X129574696Y-133110646D01*
X129668481Y-133125500D01*
X131081518Y-133125499D01*
X131081521Y-133125499D01*
X131081522Y-133125498D01*
X131128411Y-133118072D01*
X131175299Y-133110647D01*
X131175299Y-133110646D01*
X131175304Y-133110646D01*
X131272168Y-133061290D01*
X131317114Y-133050500D01*
X136475500Y-133050500D01*
X136533691Y-133069407D01*
X136569655Y-133118907D01*
X136574500Y-133149500D01*
X136574500Y-170909461D01*
X136561236Y-170958961D01*
X136487017Y-171087510D01*
X136449500Y-171227525D01*
X136449500Y-171372474D01*
X136487017Y-171512489D01*
X136559487Y-171638010D01*
X136559489Y-171638012D01*
X136559491Y-171638015D01*
X136661985Y-171740509D01*
X136661987Y-171740510D01*
X136661989Y-171740512D01*
X136787511Y-171812982D01*
X136787512Y-171812982D01*
X136787515Y-171812984D01*
X136927525Y-171850500D01*
X136927526Y-171850500D01*
X137072474Y-171850500D01*
X137072475Y-171850500D01*
X137212485Y-171812984D01*
X137212487Y-171812982D01*
X137212489Y-171812982D01*
X137338010Y-171740512D01*
X137338010Y-171740511D01*
X137338015Y-171740509D01*
X137440509Y-171638015D01*
X137512984Y-171512485D01*
X137550500Y-171372475D01*
X137550500Y-171227525D01*
X137512984Y-171087515D01*
X137512982Y-171087512D01*
X137512982Y-171087510D01*
X137438764Y-170958961D01*
X137425500Y-170909461D01*
X137425500Y-149606893D01*
X138099500Y-149606893D01*
X138099500Y-151793106D01*
X138110123Y-151881565D01*
X138165637Y-152022339D01*
X138165638Y-152022341D01*
X138165639Y-152022342D01*
X138257078Y-152142922D01*
X138377658Y-152234361D01*
X138377659Y-152234361D01*
X138377660Y-152234362D01*
X138448047Y-152262119D01*
X138518436Y-152289877D01*
X138606898Y-152300500D01*
X138606900Y-152300500D01*
X139793100Y-152300500D01*
X139793102Y-152300500D01*
X139881564Y-152289877D01*
X140022342Y-152234361D01*
X140142922Y-152142922D01*
X140234361Y-152022342D01*
X140289877Y-151881564D01*
X140300500Y-151793102D01*
X140300500Y-149606898D01*
X140289877Y-149518436D01*
X140234361Y-149377658D01*
X140142922Y-149257078D01*
X140022342Y-149165639D01*
X140022341Y-149165638D01*
X140022339Y-149165637D01*
X139881565Y-149110123D01*
X139793106Y-149099500D01*
X139793102Y-149099500D01*
X139739533Y-149099500D01*
X139681342Y-149080593D01*
X139653796Y-149049999D01*
X139640510Y-149026987D01*
X139640509Y-149026985D01*
X139538015Y-148924491D01*
X139538012Y-148924489D01*
X139538010Y-148924487D01*
X139412488Y-148852017D01*
X139412489Y-148852017D01*
X139382896Y-148844087D01*
X139272475Y-148814500D01*
X139127525Y-148814500D01*
X139065790Y-148831041D01*
X138987510Y-148852017D01*
X138861989Y-148924487D01*
X138759489Y-149026987D01*
X138746204Y-149049999D01*
X138700735Y-149090941D01*
X138660467Y-149099500D01*
X138606893Y-149099500D01*
X138518434Y-149110123D01*
X138377660Y-149165637D01*
X138377656Y-149165640D01*
X138257081Y-149257075D01*
X138257075Y-149257081D01*
X138165640Y-149377656D01*
X138165637Y-149377660D01*
X138110123Y-149518434D01*
X138099500Y-149606893D01*
X137425500Y-149606893D01*
X137425500Y-132568983D01*
X137421090Y-132552525D01*
X137396503Y-132460763D01*
X137396501Y-132460760D01*
X137396501Y-132460758D01*
X137340486Y-132363739D01*
X137340485Y-132363737D01*
X137261263Y-132284515D01*
X137261260Y-132284513D01*
X137164240Y-132228498D01*
X137164242Y-132228498D01*
X137122251Y-132217247D01*
X137056018Y-132199500D01*
X137056016Y-132199500D01*
X131938784Y-132199500D01*
X131880593Y-132180593D01*
X131844629Y-132131093D01*
X131843158Y-132074876D01*
X131845045Y-132067829D01*
X131850500Y-132047475D01*
X131850500Y-131902525D01*
X131812984Y-131762515D01*
X131812982Y-131762512D01*
X131812982Y-131762510D01*
X131740512Y-131636989D01*
X131740510Y-131636987D01*
X131740509Y-131636985D01*
X131638015Y-131534491D01*
X131638012Y-131534489D01*
X131638010Y-131534487D01*
X131512488Y-131462017D01*
X131512489Y-131462017D01*
X131400629Y-131432044D01*
X131372475Y-131424500D01*
X131227525Y-131424500D01*
X131199371Y-131432044D01*
X131087513Y-131462016D01*
X131081521Y-131464499D01*
X131081038Y-131463334D01*
X131039365Y-131474500D01*
X129668478Y-131474500D01*
X129668476Y-131474501D01*
X129574700Y-131489352D01*
X129574697Y-131489353D01*
X129544444Y-131504768D01*
X129484011Y-131514339D01*
X129429495Y-131486561D01*
X129401718Y-131432044D01*
X129400499Y-131416558D01*
X129400499Y-129283441D01*
X129419406Y-129225250D01*
X129468906Y-129189286D01*
X129530092Y-129189286D01*
X129544442Y-129195230D01*
X129574696Y-129210646D01*
X129668481Y-129225500D01*
X131081518Y-129225499D01*
X131081521Y-129225499D01*
X131081522Y-129225498D01*
X131128411Y-129218072D01*
X131175299Y-129210647D01*
X131175299Y-129210646D01*
X131175304Y-129210646D01*
X131272168Y-129161290D01*
X131317114Y-129150500D01*
X133499461Y-129150500D01*
X133548961Y-129163764D01*
X133677511Y-129237982D01*
X133677512Y-129237982D01*
X133677515Y-129237984D01*
X133817525Y-129275500D01*
X133817526Y-129275500D01*
X133962474Y-129275500D01*
X133962475Y-129275500D01*
X134102485Y-129237984D01*
X134102487Y-129237982D01*
X134102489Y-129237982D01*
X134228010Y-129165512D01*
X134228010Y-129165511D01*
X134228015Y-129165509D01*
X134330509Y-129063015D01*
X134333937Y-129057078D01*
X134402982Y-128937489D01*
X134402982Y-128937487D01*
X134402984Y-128937485D01*
X134440500Y-128797475D01*
X134440500Y-128724500D01*
X134459407Y-128666309D01*
X134508907Y-128630345D01*
X134539500Y-128625500D01*
X134672474Y-128625500D01*
X134672475Y-128625500D01*
X134812485Y-128587984D01*
X134812487Y-128587982D01*
X134812489Y-128587982D01*
X134938010Y-128515512D01*
X134938010Y-128515511D01*
X134938015Y-128515509D01*
X135040509Y-128413015D01*
X135055535Y-128386989D01*
X135112982Y-128287489D01*
X135112982Y-128287487D01*
X135112984Y-128287485D01*
X135150500Y-128147475D01*
X135150500Y-128002525D01*
X135112984Y-127862515D01*
X135112982Y-127862512D01*
X135112982Y-127862510D01*
X135040512Y-127736989D01*
X135040510Y-127736987D01*
X135040509Y-127736985D01*
X134938015Y-127634491D01*
X134938012Y-127634489D01*
X134938010Y-127634487D01*
X134812488Y-127562017D01*
X134812489Y-127562017D01*
X134712922Y-127535338D01*
X134672475Y-127524500D01*
X134527525Y-127524500D01*
X134487078Y-127535338D01*
X134387510Y-127562017D01*
X134258961Y-127636236D01*
X134209461Y-127649500D01*
X131549500Y-127649500D01*
X131491309Y-127630593D01*
X131455345Y-127581093D01*
X131450500Y-127550500D01*
X131450499Y-127293479D01*
X131450498Y-127293476D01*
X131435647Y-127199700D01*
X131435646Y-127199698D01*
X131435646Y-127199696D01*
X131378050Y-127086658D01*
X131288342Y-126996950D01*
X131175304Y-126939354D01*
X131175305Y-126939354D01*
X131081522Y-126924500D01*
X131081519Y-126924500D01*
X130924500Y-126924500D01*
X130866309Y-126905593D01*
X130830345Y-126856093D01*
X130825500Y-126825500D01*
X130825500Y-125448401D01*
X130844407Y-125390210D01*
X130893907Y-125354246D01*
X130926533Y-125349422D01*
X131128448Y-125353571D01*
X131186238Y-125373670D01*
X131218511Y-125416231D01*
X131240637Y-125472340D01*
X131326180Y-125585145D01*
X131332078Y-125592922D01*
X131452658Y-125684361D01*
X131452659Y-125684361D01*
X131452660Y-125684362D01*
X131523047Y-125712119D01*
X131593436Y-125739877D01*
X131681898Y-125750500D01*
X131681900Y-125750500D01*
X132718100Y-125750500D01*
X132718102Y-125750500D01*
X132806564Y-125739877D01*
X132947342Y-125684361D01*
X133067922Y-125592922D01*
X133159361Y-125472342D01*
X133214877Y-125331564D01*
X133225500Y-125243102D01*
X133225500Y-124656898D01*
X133214877Y-124568436D01*
X133159361Y-124427658D01*
X133067922Y-124307078D01*
X132947342Y-124215639D01*
X132947341Y-124215638D01*
X132947339Y-124215637D01*
X132806565Y-124160123D01*
X132718106Y-124149500D01*
X132718102Y-124149500D01*
X131681898Y-124149500D01*
X131681893Y-124149500D01*
X131593434Y-124160123D01*
X131452660Y-124215637D01*
X131452656Y-124215640D01*
X131332081Y-124307075D01*
X131332075Y-124307081D01*
X131240638Y-124427658D01*
X131235770Y-124440004D01*
X131196833Y-124487201D01*
X131141639Y-124502663D01*
X130922466Y-124498159D01*
X130864676Y-124478060D01*
X130829737Y-124427832D01*
X130825500Y-124399180D01*
X130825500Y-120949500D01*
X130844407Y-120891309D01*
X130893907Y-120855345D01*
X130924500Y-120850500D01*
X142350500Y-120850500D01*
X142408691Y-120869407D01*
G37*
%TD.AperFunction*%
%TA.AperFunction,Conductor*%
G36*
X122719407Y-132419407D02*
G01*
X122755371Y-132468907D01*
X122756842Y-132525124D01*
X122749500Y-132552522D01*
X122749500Y-132697474D01*
X122787017Y-132837489D01*
X122859487Y-132963010D01*
X122859489Y-132963012D01*
X122859491Y-132963015D01*
X122961985Y-133065509D01*
X122961987Y-133065510D01*
X122961989Y-133065512D01*
X123087511Y-133137982D01*
X123087512Y-133137982D01*
X123087515Y-133137984D01*
X123227525Y-133175500D01*
X123227526Y-133175500D01*
X123372474Y-133175500D01*
X123372475Y-133175500D01*
X123512485Y-133137984D01*
X123512487Y-133137982D01*
X123512489Y-133137982D01*
X123637451Y-133065835D01*
X123697299Y-133053113D01*
X123731895Y-133063361D01*
X123824696Y-133110646D01*
X123918481Y-133125500D01*
X125331518Y-133125499D01*
X125331521Y-133125499D01*
X125331522Y-133125498D01*
X125378411Y-133118072D01*
X125425299Y-133110647D01*
X125425300Y-133110646D01*
X125425304Y-133110646D01*
X125455553Y-133095232D01*
X125463441Y-133093983D01*
X125469907Y-133089286D01*
X125493090Y-133089286D01*
X125515984Y-133085659D01*
X125523103Y-133089286D01*
X125531093Y-133089286D01*
X125549849Y-133102913D01*
X125570502Y-133113436D01*
X125574128Y-133120553D01*
X125580593Y-133125250D01*
X125587756Y-133147296D01*
X125598281Y-133167951D01*
X125599500Y-133183441D01*
X125599500Y-133366558D01*
X125580593Y-133424749D01*
X125531093Y-133460713D01*
X125469907Y-133460713D01*
X125455555Y-133454767D01*
X125425307Y-133439355D01*
X125425305Y-133439354D01*
X125331521Y-133424500D01*
X123918478Y-133424500D01*
X123918476Y-133424501D01*
X123824700Y-133439352D01*
X123824695Y-133439354D01*
X123727832Y-133488709D01*
X123682886Y-133499500D01*
X121456018Y-133499500D01*
X121343982Y-133499500D01*
X121312979Y-133507807D01*
X121250122Y-133524649D01*
X121189021Y-133521446D01*
X121141471Y-133482941D01*
X121125500Y-133429022D01*
X121125500Y-132499500D01*
X121144407Y-132441309D01*
X121193907Y-132405345D01*
X121224500Y-132400500D01*
X122661216Y-132400500D01*
X122719407Y-132419407D01*
G37*
%TD.AperFunction*%
%TA.AperFunction,Conductor*%
G36*
X109727831Y-133061290D02*
G01*
X109824696Y-133110646D01*
X109918481Y-133125500D01*
X111331518Y-133125499D01*
X111331521Y-133125499D01*
X111331522Y-133125498D01*
X111378411Y-133118072D01*
X111425299Y-133110647D01*
X111425300Y-133110646D01*
X111425304Y-133110646D01*
X111455553Y-133095232D01*
X111463441Y-133093983D01*
X111469907Y-133089286D01*
X111493090Y-133089286D01*
X111515984Y-133085659D01*
X111523103Y-133089286D01*
X111531093Y-133089286D01*
X111549849Y-133102913D01*
X111570502Y-133113436D01*
X111574128Y-133120553D01*
X111580593Y-133125250D01*
X111587756Y-133147296D01*
X111598281Y-133167951D01*
X111599500Y-133183441D01*
X111599500Y-133366558D01*
X111580593Y-133424749D01*
X111531093Y-133460713D01*
X111469907Y-133460713D01*
X111455555Y-133454767D01*
X111425307Y-133439355D01*
X111425305Y-133439354D01*
X111331521Y-133424500D01*
X109918478Y-133424500D01*
X109918476Y-133424501D01*
X109824700Y-133439352D01*
X109824695Y-133439354D01*
X109727832Y-133488709D01*
X109682886Y-133499500D01*
X108356018Y-133499500D01*
X108243982Y-133499500D01*
X108243981Y-133499500D01*
X108237550Y-133500347D01*
X108237132Y-133497177D01*
X108189002Y-133494645D01*
X108141460Y-133456129D01*
X108125500Y-133402228D01*
X108125500Y-133149500D01*
X108144407Y-133091309D01*
X108193907Y-133055345D01*
X108224500Y-133050500D01*
X109682886Y-133050500D01*
X109727831Y-133061290D01*
G37*
%TD.AperFunction*%
%TA.AperFunction,Conductor*%
G36*
X118456570Y-133060757D02*
G01*
X118493820Y-133109297D01*
X118499500Y-133142349D01*
X118499500Y-133400500D01*
X118480593Y-133458691D01*
X118431093Y-133494655D01*
X118400500Y-133499500D01*
X117317114Y-133499500D01*
X117272168Y-133488709D01*
X117224339Y-133464339D01*
X117175304Y-133439354D01*
X117175305Y-133439354D01*
X117081521Y-133424500D01*
X115668478Y-133424500D01*
X115668476Y-133424501D01*
X115574700Y-133439352D01*
X115574697Y-133439353D01*
X115544444Y-133454768D01*
X115536554Y-133456017D01*
X115530092Y-133460713D01*
X115506906Y-133460713D01*
X115484011Y-133464339D01*
X115476895Y-133460713D01*
X115468906Y-133460713D01*
X115450148Y-133447084D01*
X115429495Y-133436561D01*
X115425869Y-133429444D01*
X115419406Y-133424749D01*
X115412241Y-133402697D01*
X115401718Y-133382044D01*
X115400499Y-133366566D01*
X115400499Y-133183439D01*
X115419406Y-133125250D01*
X115468906Y-133089286D01*
X115530092Y-133089286D01*
X115544442Y-133095230D01*
X115574696Y-133110646D01*
X115668481Y-133125500D01*
X117081518Y-133125499D01*
X117081521Y-133125499D01*
X117081522Y-133125498D01*
X117128411Y-133118072D01*
X117175299Y-133110647D01*
X117175299Y-133110646D01*
X117175304Y-133110646D01*
X117272168Y-133061290D01*
X117317114Y-133050500D01*
X117609461Y-133050500D01*
X117658961Y-133063764D01*
X117787511Y-133137982D01*
X117787512Y-133137982D01*
X117787515Y-133137984D01*
X117927525Y-133175500D01*
X117927526Y-133175500D01*
X118072474Y-133175500D01*
X118072475Y-133175500D01*
X118212485Y-133137984D01*
X118212487Y-133137982D01*
X118212489Y-133137982D01*
X118338007Y-133065514D01*
X118338009Y-133065512D01*
X118338015Y-133065509D01*
X118338019Y-133065504D01*
X118340228Y-133063810D01*
X118342119Y-133063140D01*
X118343635Y-133062265D01*
X118343797Y-133062545D01*
X118397903Y-133043383D01*
X118456570Y-133060757D01*
G37*
%TD.AperFunction*%
%TA.AperFunction,Conductor*%
G36*
X118558961Y-129163764D02*
G01*
X118687511Y-129237982D01*
X118687512Y-129237982D01*
X118687515Y-129237984D01*
X118827525Y-129275500D01*
X118827526Y-129275500D01*
X118972476Y-129275500D01*
X118972476Y-129275499D01*
X119049876Y-129254760D01*
X119077955Y-129256231D01*
X119106093Y-129256231D01*
X119108279Y-129257819D01*
X119110977Y-129257961D01*
X119132828Y-129275655D01*
X119155593Y-129292195D01*
X119156428Y-129294765D01*
X119158528Y-129296466D01*
X119174500Y-129350386D01*
X119174500Y-129425500D01*
X119155593Y-129483691D01*
X119106093Y-129519655D01*
X119075500Y-129524500D01*
X119065892Y-129524500D01*
X118934108Y-129524500D01*
X118856200Y-129545375D01*
X118806809Y-129558609D01*
X118692690Y-129624496D01*
X118599496Y-129717690D01*
X118533609Y-129831809D01*
X118499500Y-129959109D01*
X118499500Y-132107650D01*
X118480593Y-132165841D01*
X118431093Y-132201805D01*
X118369907Y-132201805D01*
X118340235Y-132186194D01*
X118338013Y-132184489D01*
X118212488Y-132112017D01*
X118212489Y-132112017D01*
X118163256Y-132098825D01*
X118072475Y-132074500D01*
X117949500Y-132074500D01*
X117891309Y-132055593D01*
X117855345Y-132006093D01*
X117850500Y-131975500D01*
X117850500Y-131902525D01*
X117812984Y-131762515D01*
X117812982Y-131762512D01*
X117812982Y-131762510D01*
X117740512Y-131636989D01*
X117740510Y-131636987D01*
X117740509Y-131636985D01*
X117638015Y-131534491D01*
X117638012Y-131534489D01*
X117638010Y-131534487D01*
X117512488Y-131462017D01*
X117512489Y-131462017D01*
X117400629Y-131432044D01*
X117372475Y-131424500D01*
X117227525Y-131424500D01*
X117199371Y-131432044D01*
X117087513Y-131462016D01*
X117081521Y-131464499D01*
X117081038Y-131463334D01*
X117039365Y-131474500D01*
X115668478Y-131474500D01*
X115668476Y-131474501D01*
X115574700Y-131489352D01*
X115574697Y-131489353D01*
X115544444Y-131504768D01*
X115484011Y-131514339D01*
X115429495Y-131486561D01*
X115401718Y-131432044D01*
X115400499Y-131416558D01*
X115400499Y-129283441D01*
X115419406Y-129225250D01*
X115468906Y-129189286D01*
X115530092Y-129189286D01*
X115544442Y-129195230D01*
X115574696Y-129210646D01*
X115668481Y-129225500D01*
X117081518Y-129225499D01*
X117081521Y-129225499D01*
X117081522Y-129225498D01*
X117128411Y-129218072D01*
X117175299Y-129210647D01*
X117175299Y-129210646D01*
X117175304Y-129210646D01*
X117272168Y-129161290D01*
X117317114Y-129150500D01*
X118509461Y-129150500D01*
X118558961Y-129163764D01*
G37*
%TD.AperFunction*%
%TA.AperFunction,Conductor*%
G36*
X110083691Y-121619407D02*
G01*
X110119655Y-121668907D01*
X110124500Y-121699500D01*
X110124500Y-124394726D01*
X110105593Y-124452917D01*
X110056093Y-124488881D01*
X110026616Y-124493720D01*
X108361316Y-124512502D01*
X108302916Y-124494252D01*
X108268103Y-124449828D01*
X108259361Y-124427658D01*
X108167922Y-124307078D01*
X108047342Y-124215639D01*
X108047341Y-124215638D01*
X108047339Y-124215637D01*
X107906565Y-124160123D01*
X107818106Y-124149500D01*
X107818102Y-124149500D01*
X106781898Y-124149500D01*
X106781893Y-124149500D01*
X106693434Y-124160123D01*
X106552660Y-124215637D01*
X106552656Y-124215640D01*
X106432081Y-124307075D01*
X106432075Y-124307081D01*
X106340640Y-124427656D01*
X106340637Y-124427660D01*
X106285123Y-124568434D01*
X106274500Y-124656893D01*
X106274500Y-125243106D01*
X106285123Y-125331565D01*
X106340637Y-125472339D01*
X106340638Y-125472341D01*
X106340639Y-125472342D01*
X106432078Y-125592922D01*
X106552658Y-125684361D01*
X106552659Y-125684361D01*
X106552660Y-125684362D01*
X106623047Y-125712119D01*
X106693436Y-125739877D01*
X106781898Y-125750500D01*
X106781900Y-125750500D01*
X107818100Y-125750500D01*
X107818102Y-125750500D01*
X107906564Y-125739877D01*
X108047342Y-125684361D01*
X108167922Y-125592922D01*
X108259361Y-125472342D01*
X108277576Y-125426150D01*
X108316511Y-125378954D01*
X108368555Y-125363475D01*
X110024384Y-125344800D01*
X110082784Y-125363050D01*
X110119304Y-125412141D01*
X110124500Y-125443794D01*
X110124500Y-126825500D01*
X110105593Y-126883691D01*
X110056093Y-126919655D01*
X110025501Y-126924500D01*
X109918479Y-126924500D01*
X109918476Y-126924501D01*
X109824700Y-126939352D01*
X109824695Y-126939354D01*
X109711659Y-126996949D01*
X109621949Y-127086659D01*
X109564354Y-127199695D01*
X109549500Y-127293477D01*
X109549500Y-127556520D01*
X109549501Y-127556521D01*
X109564352Y-127650299D01*
X109564353Y-127650302D01*
X109592251Y-127705057D01*
X109601821Y-127765489D01*
X109592251Y-127794943D01*
X109564354Y-127849696D01*
X109549500Y-127943479D01*
X109549500Y-128075500D01*
X109530593Y-128133691D01*
X109481093Y-128169655D01*
X109450500Y-128174500D01*
X109327525Y-128174500D01*
X109265790Y-128191041D01*
X109187510Y-128212017D01*
X109061989Y-128284487D01*
X108959487Y-128386989D01*
X108887017Y-128512510D01*
X108849500Y-128652525D01*
X108849500Y-128797477D01*
X108851475Y-128804847D01*
X108848274Y-128865948D01*
X108809769Y-128913499D01*
X108750669Y-128929335D01*
X108706349Y-128916208D01*
X108612486Y-128862016D01*
X108542480Y-128843258D01*
X108472475Y-128824500D01*
X108327525Y-128824500D01*
X108302920Y-128831093D01*
X108187510Y-128862017D01*
X108061989Y-128934487D01*
X107959487Y-129036989D01*
X107887017Y-129162510D01*
X107849500Y-129302525D01*
X107849500Y-129425500D01*
X107830593Y-129483691D01*
X107781093Y-129519655D01*
X107750500Y-129524500D01*
X105406138Y-129524500D01*
X105347947Y-129505593D01*
X105327254Y-129485319D01*
X105267922Y-129407078D01*
X105147342Y-129315639D01*
X105147341Y-129315638D01*
X105147339Y-129315637D01*
X105006565Y-129260123D01*
X104918106Y-129249500D01*
X104918102Y-129249500D01*
X103881898Y-129249500D01*
X103881893Y-129249500D01*
X103793434Y-129260123D01*
X103652660Y-129315637D01*
X103652656Y-129315640D01*
X103532081Y-129407075D01*
X103532075Y-129407081D01*
X103518108Y-129425500D01*
X103473981Y-129483691D01*
X103472746Y-129485319D01*
X103422519Y-129520262D01*
X103393862Y-129524500D01*
X102665892Y-129524500D01*
X102534108Y-129524500D01*
X102492438Y-129535665D01*
X102425122Y-129553702D01*
X102364021Y-129550499D01*
X102316471Y-129511994D01*
X102300500Y-129458075D01*
X102300500Y-121699500D01*
X102319407Y-121641309D01*
X102368907Y-121605345D01*
X102399500Y-121600500D01*
X110025500Y-121600500D01*
X110083691Y-121619407D01*
G37*
%TD.AperFunction*%
%TA.AperFunction,Conductor*%
G36*
X124083691Y-121619407D02*
G01*
X124119655Y-121668907D01*
X124124500Y-121699500D01*
X124124500Y-124398028D01*
X124105593Y-124456219D01*
X124056093Y-124492183D01*
X124027168Y-124497014D01*
X123459536Y-124506580D01*
X123401035Y-124488656D01*
X123365771Y-124443913D01*
X123359361Y-124427658D01*
X123267922Y-124307078D01*
X123147342Y-124215639D01*
X123147341Y-124215638D01*
X123147339Y-124215637D01*
X123006565Y-124160123D01*
X122918106Y-124149500D01*
X122918102Y-124149500D01*
X121881898Y-124149500D01*
X121881893Y-124149500D01*
X121793434Y-124160123D01*
X121652660Y-124215637D01*
X121652656Y-124215640D01*
X121532081Y-124307075D01*
X121532075Y-124307081D01*
X121440640Y-124427656D01*
X121440637Y-124427660D01*
X121385123Y-124568434D01*
X121374500Y-124656893D01*
X121374500Y-125243106D01*
X121385123Y-125331565D01*
X121440637Y-125472339D01*
X121440638Y-125472341D01*
X121440639Y-125472342D01*
X121532078Y-125592922D01*
X121652658Y-125684361D01*
X121652659Y-125684361D01*
X121652660Y-125684362D01*
X121723047Y-125712119D01*
X121793436Y-125739877D01*
X121881898Y-125750500D01*
X121881900Y-125750500D01*
X122918100Y-125750500D01*
X122918102Y-125750500D01*
X123006564Y-125739877D01*
X123147342Y-125684361D01*
X123267922Y-125592922D01*
X123359361Y-125472342D01*
X123379928Y-125420185D01*
X123418864Y-125372990D01*
X123470353Y-125357521D01*
X124023834Y-125348192D01*
X124082333Y-125366116D01*
X124119126Y-125415003D01*
X124124500Y-125447178D01*
X124124500Y-126825500D01*
X124105593Y-126883691D01*
X124056093Y-126919655D01*
X124025501Y-126924500D01*
X123918479Y-126924500D01*
X123918476Y-126924501D01*
X123824700Y-126939352D01*
X123824695Y-126939354D01*
X123711659Y-126996949D01*
X123621949Y-127086659D01*
X123564354Y-127199695D01*
X123549500Y-127293477D01*
X123549500Y-127556520D01*
X123549501Y-127556521D01*
X123564352Y-127650299D01*
X123564353Y-127650302D01*
X123592251Y-127705057D01*
X123601821Y-127765489D01*
X123592251Y-127794943D01*
X123564354Y-127849696D01*
X123549500Y-127943478D01*
X123549501Y-128200500D01*
X123544656Y-128215411D01*
X123544656Y-128231093D01*
X123535438Y-128243779D01*
X123530594Y-128258690D01*
X123517910Y-128267905D01*
X123508692Y-128280593D01*
X123493777Y-128285438D01*
X123481094Y-128294654D01*
X123450501Y-128299500D01*
X123290539Y-128299500D01*
X123241039Y-128286236D01*
X123112488Y-128212017D01*
X123112489Y-128212017D01*
X123049500Y-128195139D01*
X122972475Y-128174500D01*
X122827525Y-128174500D01*
X122765790Y-128191041D01*
X122687510Y-128212017D01*
X122561989Y-128284487D01*
X122459487Y-128386989D01*
X122387017Y-128512510D01*
X122349500Y-128652525D01*
X122349500Y-128797477D01*
X122351475Y-128804847D01*
X122348274Y-128865948D01*
X122309769Y-128913499D01*
X122250669Y-128929335D01*
X122206349Y-128916208D01*
X122112486Y-128862016D01*
X122042480Y-128843258D01*
X121972475Y-128824500D01*
X121827525Y-128824500D01*
X121802920Y-128831093D01*
X121687510Y-128862017D01*
X121561989Y-128934487D01*
X121459487Y-129036989D01*
X121410236Y-129122295D01*
X121364767Y-129163236D01*
X121303916Y-129169632D01*
X121250928Y-129139039D01*
X121226042Y-129083143D01*
X121225500Y-129072795D01*
X121225500Y-129056899D01*
X121225499Y-129056893D01*
X121223109Y-129036989D01*
X121214877Y-128968436D01*
X121159361Y-128827658D01*
X121067922Y-128707078D01*
X120947342Y-128615639D01*
X120947341Y-128615638D01*
X120947339Y-128615637D01*
X120806565Y-128560123D01*
X120718106Y-128549500D01*
X120718102Y-128549500D01*
X119681898Y-128549500D01*
X119681893Y-128549500D01*
X119593436Y-128560123D01*
X119544992Y-128579227D01*
X119483923Y-128582985D01*
X119432307Y-128550130D01*
X119415916Y-128518320D01*
X119415466Y-128518507D01*
X119413227Y-128513102D01*
X119413048Y-128512754D01*
X119412984Y-128512515D01*
X119412982Y-128512512D01*
X119412982Y-128512510D01*
X119340512Y-128386989D01*
X119340510Y-128386987D01*
X119340509Y-128386985D01*
X119238015Y-128284491D01*
X119238012Y-128284489D01*
X119238010Y-128284487D01*
X119112488Y-128212017D01*
X119112489Y-128212017D01*
X119049500Y-128195139D01*
X118972475Y-128174500D01*
X118827525Y-128174500D01*
X118765790Y-128191041D01*
X118687510Y-128212017D01*
X118558961Y-128286236D01*
X118509461Y-128299500D01*
X118338784Y-128299500D01*
X118280593Y-128280593D01*
X118244629Y-128231093D01*
X118243158Y-128174876D01*
X118246515Y-128162346D01*
X118250500Y-128147475D01*
X118250500Y-128002525D01*
X118212984Y-127862515D01*
X118212982Y-127862512D01*
X118212982Y-127862510D01*
X118140512Y-127736989D01*
X118140510Y-127736987D01*
X118140509Y-127736985D01*
X118038015Y-127634491D01*
X118038012Y-127634489D01*
X118038010Y-127634487D01*
X117912488Y-127562017D01*
X117912489Y-127562017D01*
X117812922Y-127535338D01*
X117772475Y-127524500D01*
X117627525Y-127524500D01*
X117575121Y-127538541D01*
X117514020Y-127535338D01*
X117466470Y-127496832D01*
X117450499Y-127442915D01*
X117450499Y-127293482D01*
X117435646Y-127199696D01*
X117378050Y-127086658D01*
X117288342Y-126996950D01*
X117175304Y-126939354D01*
X117175305Y-126939354D01*
X117081522Y-126924500D01*
X117081519Y-126924500D01*
X116924500Y-126924500D01*
X116866309Y-126905593D01*
X116830345Y-126856093D01*
X116825500Y-126825500D01*
X116825500Y-125448401D01*
X116844407Y-125390210D01*
X116893907Y-125354246D01*
X116926533Y-125349422D01*
X117128448Y-125353571D01*
X117186238Y-125373670D01*
X117218511Y-125416231D01*
X117240637Y-125472340D01*
X117326180Y-125585145D01*
X117332078Y-125592922D01*
X117452658Y-125684361D01*
X117452659Y-125684361D01*
X117452660Y-125684362D01*
X117523047Y-125712119D01*
X117593436Y-125739877D01*
X117681898Y-125750500D01*
X117681900Y-125750500D01*
X118718100Y-125750500D01*
X118718102Y-125750500D01*
X118806564Y-125739877D01*
X118947342Y-125684361D01*
X119067922Y-125592922D01*
X119159361Y-125472342D01*
X119214877Y-125331564D01*
X119225500Y-125243102D01*
X119225500Y-124656898D01*
X119214877Y-124568436D01*
X119159361Y-124427658D01*
X119067922Y-124307078D01*
X118947342Y-124215639D01*
X118947341Y-124215638D01*
X118947339Y-124215637D01*
X118806565Y-124160123D01*
X118718106Y-124149500D01*
X118718102Y-124149500D01*
X117681898Y-124149500D01*
X117681893Y-124149500D01*
X117593434Y-124160123D01*
X117452660Y-124215637D01*
X117452656Y-124215640D01*
X117332081Y-124307075D01*
X117332075Y-124307081D01*
X117240638Y-124427658D01*
X117235770Y-124440004D01*
X117196833Y-124487201D01*
X117141639Y-124502663D01*
X116922466Y-124498159D01*
X116864676Y-124478060D01*
X116829737Y-124427832D01*
X116825500Y-124399180D01*
X116825500Y-121738784D01*
X116844407Y-121680593D01*
X116893907Y-121644629D01*
X116950124Y-121643158D01*
X116955614Y-121644629D01*
X116977522Y-121650499D01*
X116977524Y-121650500D01*
X116977525Y-121650500D01*
X117122474Y-121650500D01*
X117122475Y-121650500D01*
X117262485Y-121612984D01*
X117262488Y-121612981D01*
X117268479Y-121610501D01*
X117268961Y-121611665D01*
X117310635Y-121600500D01*
X124025500Y-121600500D01*
X124083691Y-121619407D01*
G37*
%TD.AperFunction*%
%TA.AperFunction,Conductor*%
G36*
X149458691Y-100519407D02*
G01*
X149494655Y-100568907D01*
X149499500Y-100599500D01*
X149499500Y-179400500D01*
X149480593Y-179458691D01*
X149431093Y-179494655D01*
X149400500Y-179499500D01*
X100599500Y-179499500D01*
X100541309Y-179480593D01*
X100505345Y-179431093D01*
X100500500Y-179400500D01*
X100500500Y-175869450D01*
X112419500Y-175869450D01*
X112419500Y-176050549D01*
X112447828Y-176229406D01*
X112503788Y-176401637D01*
X112586001Y-176562990D01*
X112586004Y-176562994D01*
X112692447Y-176709501D01*
X112820499Y-176837553D01*
X112967006Y-176943996D01*
X113128361Y-177026211D01*
X113300591Y-177082171D01*
X113372136Y-177093502D01*
X113479451Y-177110500D01*
X113479454Y-177110500D01*
X113660549Y-177110500D01*
X113749977Y-177096335D01*
X113839409Y-177082171D01*
X114011639Y-177026211D01*
X114172994Y-176943996D01*
X114319501Y-176837553D01*
X114447553Y-176709501D01*
X114553996Y-176562994D01*
X114636211Y-176401639D01*
X114692171Y-176229409D01*
X114720500Y-176050546D01*
X114720500Y-175869454D01*
X114720500Y-175869450D01*
X114959500Y-175869450D01*
X114959500Y-176050549D01*
X114987828Y-176229406D01*
X115043788Y-176401637D01*
X115126001Y-176562990D01*
X115126004Y-176562994D01*
X115232447Y-176709501D01*
X115360499Y-176837553D01*
X115507006Y-176943996D01*
X115668361Y-177026211D01*
X115840591Y-177082171D01*
X115912136Y-177093502D01*
X116019451Y-177110500D01*
X116019454Y-177110500D01*
X116200549Y-177110500D01*
X116289977Y-177096335D01*
X116379409Y-177082171D01*
X116551639Y-177026211D01*
X116712994Y-176943996D01*
X116859501Y-176837553D01*
X116987553Y-176709501D01*
X117093996Y-176562994D01*
X117176211Y-176401639D01*
X117232171Y-176229409D01*
X117260500Y-176050546D01*
X117260500Y-175869454D01*
X117260500Y-175869450D01*
X117499500Y-175869450D01*
X117499500Y-176050549D01*
X117527828Y-176229406D01*
X117583788Y-176401637D01*
X117666001Y-176562990D01*
X117666004Y-176562994D01*
X117772447Y-176709501D01*
X117900499Y-176837553D01*
X118047006Y-176943996D01*
X118208361Y-177026211D01*
X118380591Y-177082171D01*
X118452136Y-177093502D01*
X118559451Y-177110500D01*
X118559454Y-177110500D01*
X118740549Y-177110500D01*
X118829977Y-177096335D01*
X118919409Y-177082171D01*
X119091639Y-177026211D01*
X119252994Y-176943996D01*
X119399501Y-176837553D01*
X119527553Y-176709501D01*
X119633996Y-176562994D01*
X119716211Y-176401639D01*
X119772171Y-176229409D01*
X119800500Y-176050546D01*
X119800500Y-175869454D01*
X119800500Y-175869450D01*
X119772171Y-175690593D01*
X119772171Y-175690591D01*
X119716211Y-175518361D01*
X119633996Y-175357006D01*
X119527553Y-175210499D01*
X119399501Y-175082447D01*
X119252994Y-174976004D01*
X119252993Y-174976003D01*
X119252991Y-174976002D01*
X119091637Y-174893788D01*
X118919406Y-174837828D01*
X118740549Y-174809500D01*
X118740546Y-174809500D01*
X118559454Y-174809500D01*
X118559451Y-174809500D01*
X118380593Y-174837828D01*
X118208362Y-174893788D01*
X118047008Y-174976002D01*
X118011667Y-175001679D01*
X117900499Y-175082447D01*
X117772447Y-175210499D01*
X117719225Y-175283752D01*
X117666002Y-175357008D01*
X117583788Y-175518362D01*
X117527828Y-175690593D01*
X117499500Y-175869450D01*
X117260500Y-175869450D01*
X117232171Y-175690593D01*
X117232171Y-175690591D01*
X117176211Y-175518361D01*
X117093996Y-175357006D01*
X116987553Y-175210499D01*
X116859501Y-175082447D01*
X116712994Y-174976004D01*
X116712993Y-174976003D01*
X116712991Y-174976002D01*
X116551637Y-174893788D01*
X116379406Y-174837828D01*
X116200549Y-174809500D01*
X116200546Y-174809500D01*
X116019454Y-174809500D01*
X116019451Y-174809500D01*
X115840593Y-174837828D01*
X115668362Y-174893788D01*
X115507008Y-174976002D01*
X115471667Y-175001679D01*
X115360499Y-175082447D01*
X115232447Y-175210499D01*
X115179225Y-175283752D01*
X115126002Y-175357008D01*
X115043788Y-175518362D01*
X114987828Y-175690593D01*
X114959500Y-175869450D01*
X114720500Y-175869450D01*
X114692171Y-175690593D01*
X114692171Y-175690591D01*
X114636211Y-175518361D01*
X114553996Y-175357006D01*
X114447553Y-175210499D01*
X114319501Y-175082447D01*
X114172994Y-174976004D01*
X114172993Y-174976003D01*
X114172991Y-174976002D01*
X114011637Y-174893788D01*
X113839406Y-174837828D01*
X113660549Y-174809500D01*
X113660546Y-174809500D01*
X113479454Y-174809500D01*
X113479451Y-174809500D01*
X113300593Y-174837828D01*
X113128362Y-174893788D01*
X112967008Y-174976002D01*
X112931667Y-175001679D01*
X112820499Y-175082447D01*
X112692447Y-175210499D01*
X112639225Y-175283752D01*
X112586002Y-175357008D01*
X112503788Y-175518362D01*
X112447828Y-175690593D01*
X112419500Y-175869450D01*
X100500500Y-175869450D01*
X100500500Y-173329450D01*
X112419500Y-173329450D01*
X112419500Y-173510549D01*
X112447828Y-173689406D01*
X112447829Y-173689409D01*
X112503789Y-173861639D01*
X112586004Y-174022994D01*
X112692447Y-174169501D01*
X112820499Y-174297553D01*
X112967006Y-174403996D01*
X113128361Y-174486211D01*
X113300591Y-174542171D01*
X113372136Y-174553502D01*
X113479451Y-174570500D01*
X113479454Y-174570500D01*
X113660549Y-174570500D01*
X113749977Y-174556335D01*
X113839409Y-174542171D01*
X114011639Y-174486211D01*
X114172994Y-174403996D01*
X114319501Y-174297553D01*
X114447553Y-174169501D01*
X114553996Y-174022994D01*
X114636211Y-173861639D01*
X114692171Y-173689409D01*
X114720500Y-173510546D01*
X114720500Y-173329454D01*
X114720500Y-173329450D01*
X114959500Y-173329450D01*
X114959500Y-173510549D01*
X114987828Y-173689406D01*
X114987829Y-173689409D01*
X115043789Y-173861639D01*
X115126004Y-174022994D01*
X115232447Y-174169501D01*
X115360499Y-174297553D01*
X115507006Y-174403996D01*
X115668361Y-174486211D01*
X115840591Y-174542171D01*
X115912136Y-174553502D01*
X116019451Y-174570500D01*
X116019454Y-174570500D01*
X116200549Y-174570500D01*
X116289977Y-174556335D01*
X116379409Y-174542171D01*
X116551639Y-174486211D01*
X116712994Y-174403996D01*
X116859501Y-174297553D01*
X116987553Y-174169501D01*
X117093996Y-174022994D01*
X117176211Y-173861639D01*
X117232171Y-173689409D01*
X117260500Y-173510546D01*
X117260500Y-173329454D01*
X117260500Y-173329450D01*
X117232171Y-173150593D01*
X117232171Y-173150591D01*
X117176211Y-172978361D01*
X117093996Y-172817006D01*
X116987553Y-172670499D01*
X116859501Y-172542447D01*
X116712994Y-172436004D01*
X116712993Y-172436003D01*
X116712991Y-172436002D01*
X116551637Y-172353788D01*
X116379406Y-172297828D01*
X116200549Y-172269500D01*
X116200546Y-172269500D01*
X116019454Y-172269500D01*
X116019451Y-172269500D01*
X115840593Y-172297828D01*
X115668362Y-172353788D01*
X115507008Y-172436002D01*
X115433752Y-172489225D01*
X115360499Y-172542447D01*
X115232447Y-172670499D01*
X115179225Y-172743752D01*
X115126002Y-172817008D01*
X115043788Y-172978362D01*
X114987828Y-173150593D01*
X114959500Y-173329450D01*
X114720500Y-173329450D01*
X114692171Y-173150593D01*
X114692171Y-173150591D01*
X114636211Y-172978361D01*
X114553996Y-172817006D01*
X114447553Y-172670499D01*
X114319501Y-172542447D01*
X114172994Y-172436004D01*
X114172993Y-172436003D01*
X114172991Y-172436002D01*
X114011637Y-172353788D01*
X113839406Y-172297828D01*
X113660549Y-172269500D01*
X113660546Y-172269500D01*
X113479454Y-172269500D01*
X113479451Y-172269500D01*
X113300593Y-172297828D01*
X113128362Y-172353788D01*
X112967008Y-172436002D01*
X112893752Y-172489225D01*
X112820499Y-172542447D01*
X112692447Y-172670499D01*
X112639225Y-172743752D01*
X112586002Y-172817008D01*
X112503788Y-172978362D01*
X112447828Y-173150593D01*
X112419500Y-173329450D01*
X100500500Y-173329450D01*
X100500500Y-161527525D01*
X101249500Y-161527525D01*
X101249500Y-161672475D01*
X101279087Y-161782896D01*
X101287017Y-161812489D01*
X101359487Y-161938010D01*
X101359489Y-161938012D01*
X101359491Y-161938015D01*
X101461985Y-162040509D01*
X101461987Y-162040510D01*
X101461989Y-162040512D01*
X101587511Y-162112982D01*
X101587512Y-162112982D01*
X101587515Y-162112984D01*
X101727525Y-162150500D01*
X101727526Y-162150500D01*
X101872474Y-162150500D01*
X101872475Y-162150500D01*
X102012485Y-162112984D01*
X102012487Y-162112982D01*
X102012489Y-162112982D01*
X102138010Y-162040512D01*
X102138010Y-162040511D01*
X102138015Y-162040509D01*
X102240509Y-161938015D01*
X102292861Y-161847339D01*
X102312982Y-161812489D01*
X102312982Y-161812487D01*
X102312984Y-161812485D01*
X102350500Y-161672475D01*
X102350500Y-161527525D01*
X102330084Y-161451332D01*
X102333286Y-161390233D01*
X102371791Y-161342683D01*
X102430892Y-161326847D01*
X102451328Y-161330082D01*
X102527525Y-161350500D01*
X102527527Y-161350500D01*
X102672474Y-161350500D01*
X102672475Y-161350500D01*
X102812485Y-161312984D01*
X102812487Y-161312982D01*
X102812489Y-161312982D01*
X102938010Y-161240512D01*
X102938010Y-161240511D01*
X102938015Y-161240509D01*
X103040509Y-161138015D01*
X103069953Y-161087017D01*
X103112982Y-161012489D01*
X103112982Y-161012487D01*
X103112984Y-161012485D01*
X103150500Y-160872475D01*
X103150500Y-160727525D01*
X103112984Y-160587515D01*
X103112983Y-160587513D01*
X103110501Y-160581521D01*
X103111665Y-160581038D01*
X103100500Y-160539365D01*
X103100500Y-130624500D01*
X103105345Y-130609588D01*
X103105345Y-130593907D01*
X103114561Y-130581221D01*
X103119407Y-130566309D01*
X103132092Y-130557092D01*
X103141309Y-130544407D01*
X103156221Y-130539561D01*
X103168907Y-130530345D01*
X103199500Y-130525500D01*
X103356390Y-130525500D01*
X103414581Y-130544407D01*
X103435411Y-130567809D01*
X103436548Y-130566947D01*
X103440638Y-130572341D01*
X103440639Y-130572342D01*
X103532078Y-130692922D01*
X103652658Y-130784361D01*
X103652659Y-130784361D01*
X103652660Y-130784362D01*
X103692899Y-130800230D01*
X103793436Y-130839877D01*
X103881898Y-130850500D01*
X103881900Y-130850500D01*
X104918100Y-130850500D01*
X104918102Y-130850500D01*
X105006564Y-130839877D01*
X105147342Y-130784361D01*
X105267922Y-130692922D01*
X105359361Y-130572342D01*
X105359361Y-130572341D01*
X105363452Y-130566947D01*
X105365464Y-130568473D01*
X105402313Y-130534525D01*
X105443610Y-130525500D01*
X109450500Y-130525500D01*
X109465412Y-130530345D01*
X109481092Y-130530345D01*
X109493777Y-130539561D01*
X109508691Y-130544407D01*
X109517908Y-130557093D01*
X109530592Y-130566309D01*
X109535436Y-130581219D01*
X109544655Y-130593907D01*
X109549500Y-130624499D01*
X109549501Y-130800499D01*
X109530594Y-130858690D01*
X109481094Y-130894654D01*
X109450501Y-130899500D01*
X106556018Y-130899500D01*
X106443982Y-130899500D01*
X106377748Y-130917247D01*
X106335758Y-130928498D01*
X106238739Y-130984513D01*
X106159513Y-131063739D01*
X106103498Y-131160758D01*
X106074500Y-131268983D01*
X106074500Y-168209461D01*
X106061236Y-168258961D01*
X105987017Y-168387510D01*
X105949500Y-168527525D01*
X105949500Y-168672474D01*
X105987017Y-168812489D01*
X106059487Y-168938010D01*
X106059489Y-168938012D01*
X106059491Y-168938015D01*
X106161985Y-169040509D01*
X106161987Y-169040510D01*
X106161989Y-169040512D01*
X106287511Y-169112982D01*
X106287512Y-169112982D01*
X106287515Y-169112984D01*
X106427525Y-169150500D01*
X106427526Y-169150500D01*
X106467915Y-169150500D01*
X106526106Y-169169407D01*
X106562070Y-169218907D01*
X106563541Y-169275124D01*
X106549500Y-169327522D01*
X106549500Y-169472474D01*
X106587017Y-169612489D01*
X106659487Y-169738010D01*
X106659489Y-169738012D01*
X106659491Y-169738015D01*
X106761985Y-169840509D01*
X106761987Y-169840510D01*
X106761989Y-169840512D01*
X106887511Y-169912982D01*
X106887512Y-169912982D01*
X106887515Y-169912984D01*
X107027525Y-169950500D01*
X107027526Y-169950500D01*
X107067915Y-169950500D01*
X107126106Y-169969407D01*
X107162070Y-170018907D01*
X107163541Y-170075124D01*
X107149500Y-170127522D01*
X107149500Y-170272474D01*
X107187017Y-170412489D01*
X107259487Y-170538010D01*
X107259489Y-170538012D01*
X107259491Y-170538015D01*
X107361985Y-170640509D01*
X107361987Y-170640510D01*
X107361989Y-170640512D01*
X107487511Y-170712982D01*
X107487512Y-170712982D01*
X107487515Y-170712984D01*
X107627525Y-170750500D01*
X107627526Y-170750500D01*
X107772474Y-170750500D01*
X107772475Y-170750500D01*
X107912485Y-170712984D01*
X107912487Y-170712982D01*
X107912489Y-170712982D01*
X108038010Y-170640512D01*
X108038010Y-170640511D01*
X108038015Y-170640509D01*
X108140509Y-170538015D01*
X108212984Y-170412485D01*
X108250500Y-170272475D01*
X108250500Y-170127525D01*
X108212984Y-169987515D01*
X108212982Y-169987512D01*
X108212982Y-169987510D01*
X108138764Y-169858961D01*
X108125500Y-169809461D01*
X108125500Y-163049500D01*
X108144407Y-162991309D01*
X108193907Y-162955345D01*
X108224500Y-162950500D01*
X108372474Y-162950500D01*
X108372475Y-162950500D01*
X108512485Y-162912984D01*
X108512487Y-162912982D01*
X108512489Y-162912982D01*
X108638010Y-162840512D01*
X108638010Y-162840511D01*
X108638015Y-162840509D01*
X108740509Y-162738015D01*
X108812984Y-162612485D01*
X108850500Y-162472475D01*
X108850500Y-162327525D01*
X108812984Y-162187515D01*
X108812982Y-162187512D01*
X108812982Y-162187510D01*
X108738764Y-162058961D01*
X108725500Y-162009461D01*
X108725500Y-134449500D01*
X108744407Y-134391309D01*
X108793907Y-134355345D01*
X108824500Y-134350500D01*
X109450500Y-134350500D01*
X109508691Y-134369407D01*
X109544655Y-134418907D01*
X109549500Y-134449500D01*
X109549500Y-134706520D01*
X109549501Y-134706523D01*
X109564352Y-134800299D01*
X109564354Y-134800304D01*
X109621950Y-134913342D01*
X109711658Y-135003050D01*
X109824696Y-135060646D01*
X109918481Y-135075500D01*
X110100500Y-135075499D01*
X110158690Y-135094406D01*
X110194654Y-135143906D01*
X110199500Y-135174499D01*
X110199500Y-167356018D01*
X110203910Y-167372475D01*
X110228498Y-167464241D01*
X110256355Y-167512489D01*
X110284515Y-167561263D01*
X110363737Y-167640485D01*
X110363739Y-167640486D01*
X110460759Y-167696501D01*
X110460757Y-167696501D01*
X110460761Y-167696502D01*
X110460763Y-167696503D01*
X110568982Y-167725500D01*
X110681018Y-167725500D01*
X118125500Y-167725500D01*
X118183691Y-167744407D01*
X118219655Y-167793907D01*
X118224500Y-167824500D01*
X118224500Y-172284898D01*
X118205593Y-172343089D01*
X118170445Y-172373107D01*
X118047016Y-172435997D01*
X118047009Y-172436001D01*
X117959101Y-172499869D01*
X117900499Y-172542447D01*
X117772447Y-172670499D01*
X117719225Y-172743752D01*
X117666002Y-172817008D01*
X117583788Y-172978362D01*
X117527828Y-173150593D01*
X117499500Y-173329450D01*
X117499500Y-173510549D01*
X117527828Y-173689406D01*
X117527829Y-173689409D01*
X117583789Y-173861639D01*
X117666004Y-174022994D01*
X117772447Y-174169501D01*
X117900499Y-174297553D01*
X118047006Y-174403996D01*
X118208361Y-174486211D01*
X118380591Y-174542171D01*
X118452136Y-174553502D01*
X118559451Y-174570500D01*
X118559454Y-174570500D01*
X118740549Y-174570500D01*
X118829977Y-174556335D01*
X118919409Y-174542171D01*
X119091639Y-174486211D01*
X119252994Y-174403996D01*
X119399501Y-174297553D01*
X119527553Y-174169501D01*
X119633996Y-174022994D01*
X119716211Y-173861639D01*
X119772171Y-173689409D01*
X119800500Y-173510546D01*
X119800500Y-173329454D01*
X119800500Y-173329450D01*
X119772171Y-173150593D01*
X119772171Y-173150591D01*
X119716211Y-172978361D01*
X119633996Y-172817006D01*
X119527553Y-172670499D01*
X119399501Y-172542447D01*
X119252994Y-172436004D01*
X119252990Y-172436001D01*
X119252983Y-172435997D01*
X119129555Y-172373107D01*
X119086290Y-172329843D01*
X119075500Y-172284898D01*
X119075500Y-168527525D01*
X119449500Y-168527525D01*
X119449500Y-168672474D01*
X119487017Y-168812489D01*
X119559487Y-168938010D01*
X119559489Y-168938012D01*
X119559491Y-168938015D01*
X119661985Y-169040509D01*
X119661987Y-169040510D01*
X119661989Y-169040512D01*
X119787511Y-169112982D01*
X119787512Y-169112982D01*
X119787515Y-169112984D01*
X119927525Y-169150500D01*
X119927526Y-169150500D01*
X120072474Y-169150500D01*
X120072475Y-169150500D01*
X120212485Y-169112984D01*
X120212487Y-169112982D01*
X120212489Y-169112982D01*
X120338010Y-169040512D01*
X120338010Y-169040511D01*
X120338015Y-169040509D01*
X120440509Y-168938015D01*
X120509264Y-168818927D01*
X120517126Y-168811848D01*
X120521429Y-168802185D01*
X120539351Y-168791837D01*
X120554733Y-168777988D01*
X120565254Y-168776882D01*
X120574417Y-168771592D01*
X120595000Y-168773755D01*
X120615583Y-168771592D01*
X120624745Y-168776882D01*
X120635267Y-168777988D01*
X120650647Y-168791836D01*
X120668571Y-168802185D01*
X120680736Y-168818929D01*
X120751236Y-168941038D01*
X120764500Y-168990538D01*
X120764500Y-172284898D01*
X120745593Y-172343089D01*
X120710445Y-172373107D01*
X120587016Y-172435997D01*
X120587009Y-172436001D01*
X120499101Y-172499869D01*
X120440499Y-172542447D01*
X120312447Y-172670499D01*
X120259225Y-172743752D01*
X120206002Y-172817008D01*
X120123788Y-172978362D01*
X120067828Y-173150593D01*
X120039500Y-173329450D01*
X120039500Y-173510549D01*
X120067828Y-173689406D01*
X120067829Y-173689409D01*
X120123789Y-173861639D01*
X120206004Y-174022994D01*
X120312447Y-174169501D01*
X120440499Y-174297553D01*
X120587006Y-174403996D01*
X120748361Y-174486211D01*
X120920591Y-174542171D01*
X120992136Y-174553502D01*
X121099451Y-174570500D01*
X121099454Y-174570500D01*
X121280549Y-174570500D01*
X121369977Y-174556335D01*
X121459409Y-174542171D01*
X121631639Y-174486211D01*
X121792994Y-174403996D01*
X121939501Y-174297553D01*
X122067553Y-174169501D01*
X122173996Y-174022994D01*
X122256211Y-173861639D01*
X122312171Y-173689409D01*
X122340500Y-173510546D01*
X122340500Y-173329454D01*
X122340500Y-173329450D01*
X122579500Y-173329450D01*
X122579500Y-173510549D01*
X122607828Y-173689406D01*
X122607829Y-173689409D01*
X122663789Y-173861639D01*
X122746004Y-174022994D01*
X122852447Y-174169501D01*
X122980499Y-174297553D01*
X123127006Y-174403996D01*
X123288361Y-174486211D01*
X123460591Y-174542171D01*
X123532136Y-174553502D01*
X123639451Y-174570500D01*
X123639454Y-174570500D01*
X123820549Y-174570500D01*
X123909977Y-174556335D01*
X123999409Y-174542171D01*
X124171639Y-174486211D01*
X124332994Y-174403996D01*
X124479501Y-174297553D01*
X124607553Y-174169501D01*
X124713996Y-174022994D01*
X124796211Y-173861639D01*
X124852171Y-173689409D01*
X124880500Y-173510546D01*
X124880500Y-173329454D01*
X124880500Y-173329450D01*
X125119500Y-173329450D01*
X125119500Y-173510549D01*
X125147828Y-173689406D01*
X125147829Y-173689409D01*
X125203789Y-173861639D01*
X125286004Y-174022994D01*
X125392447Y-174169501D01*
X125520499Y-174297553D01*
X125667006Y-174403996D01*
X125828361Y-174486211D01*
X126000591Y-174542171D01*
X126072136Y-174553502D01*
X126179451Y-174570500D01*
X126179454Y-174570500D01*
X126360549Y-174570500D01*
X126449977Y-174556335D01*
X126539409Y-174542171D01*
X126711639Y-174486211D01*
X126872994Y-174403996D01*
X127019501Y-174297553D01*
X127147553Y-174169501D01*
X127253996Y-174022994D01*
X127336211Y-173861639D01*
X127392171Y-173689409D01*
X127420500Y-173510546D01*
X127420500Y-173329454D01*
X127420500Y-173329450D01*
X127659500Y-173329450D01*
X127659500Y-173510549D01*
X127687828Y-173689406D01*
X127687829Y-173689409D01*
X127743789Y-173861639D01*
X127826004Y-174022994D01*
X127932447Y-174169501D01*
X128060499Y-174297553D01*
X128207006Y-174403996D01*
X128368361Y-174486211D01*
X128540591Y-174542171D01*
X128612136Y-174553502D01*
X128719451Y-174570500D01*
X128719454Y-174570500D01*
X128900549Y-174570500D01*
X128989977Y-174556335D01*
X129079409Y-174542171D01*
X129251639Y-174486211D01*
X129412994Y-174403996D01*
X129559501Y-174297553D01*
X129687553Y-174169501D01*
X129793996Y-174022994D01*
X129876211Y-173861639D01*
X129932171Y-173689409D01*
X129960500Y-173510546D01*
X129960500Y-173329454D01*
X129960500Y-173329450D01*
X129932171Y-173150593D01*
X129932171Y-173150591D01*
X129876211Y-172978361D01*
X129793996Y-172817006D01*
X129687553Y-172670499D01*
X129559501Y-172542447D01*
X129412994Y-172436004D01*
X129412990Y-172436001D01*
X129412983Y-172435997D01*
X129289555Y-172373107D01*
X129246290Y-172329843D01*
X129235500Y-172284898D01*
X129235500Y-169790538D01*
X129248764Y-169741038D01*
X129322982Y-169612489D01*
X129322982Y-169612487D01*
X129322984Y-169612485D01*
X129360500Y-169472475D01*
X129360500Y-169327525D01*
X129322984Y-169187515D01*
X129322982Y-169187512D01*
X129322982Y-169187510D01*
X129250512Y-169061989D01*
X129250510Y-169061987D01*
X129250509Y-169061985D01*
X129148015Y-168959491D01*
X129148012Y-168959489D01*
X129148010Y-168959487D01*
X129022488Y-168887017D01*
X129022489Y-168887017D01*
X128992896Y-168879087D01*
X128882475Y-168849500D01*
X128737525Y-168849500D01*
X128675790Y-168866041D01*
X128597510Y-168887017D01*
X128471989Y-168959487D01*
X128369487Y-169061989D01*
X128297017Y-169187510D01*
X128259500Y-169327525D01*
X128259500Y-169472474D01*
X128297017Y-169612489D01*
X128371236Y-169741038D01*
X128384500Y-169790538D01*
X128384500Y-172284898D01*
X128365593Y-172343089D01*
X128330445Y-172373107D01*
X128207016Y-172435997D01*
X128207009Y-172436001D01*
X128119101Y-172499869D01*
X128060499Y-172542447D01*
X127932447Y-172670499D01*
X127879225Y-172743752D01*
X127826002Y-172817008D01*
X127743788Y-172978362D01*
X127687828Y-173150593D01*
X127659500Y-173329450D01*
X127420500Y-173329450D01*
X127392171Y-173150593D01*
X127392171Y-173150591D01*
X127336211Y-172978361D01*
X127253996Y-172817006D01*
X127147553Y-172670499D01*
X127019501Y-172542447D01*
X126872994Y-172436004D01*
X126872990Y-172436001D01*
X126872983Y-172435997D01*
X126749555Y-172373107D01*
X126706290Y-172329843D01*
X126695500Y-172284898D01*
X126695500Y-170590538D01*
X126708764Y-170541038D01*
X126782982Y-170412489D01*
X126782982Y-170412487D01*
X126782984Y-170412485D01*
X126820500Y-170272475D01*
X126820500Y-170127525D01*
X126782984Y-169987515D01*
X126782982Y-169987512D01*
X126782982Y-169987510D01*
X126710512Y-169861989D01*
X126710510Y-169861987D01*
X126710509Y-169861985D01*
X126608015Y-169759491D01*
X126608012Y-169759489D01*
X126608010Y-169759487D01*
X126482488Y-169687017D01*
X126482489Y-169687017D01*
X126452896Y-169679087D01*
X126342475Y-169649500D01*
X126197525Y-169649500D01*
X126135790Y-169666041D01*
X126057510Y-169687017D01*
X125931989Y-169759487D01*
X125829487Y-169861989D01*
X125757017Y-169987510D01*
X125719500Y-170127525D01*
X125719500Y-170272474D01*
X125757017Y-170412489D01*
X125831236Y-170541038D01*
X125844500Y-170590538D01*
X125844500Y-172284898D01*
X125825593Y-172343089D01*
X125790445Y-172373107D01*
X125667016Y-172435997D01*
X125667009Y-172436001D01*
X125579101Y-172499869D01*
X125520499Y-172542447D01*
X125392447Y-172670499D01*
X125339225Y-172743752D01*
X125286002Y-172817008D01*
X125203788Y-172978362D01*
X125147828Y-173150593D01*
X125119500Y-173329450D01*
X124880500Y-173329450D01*
X124852171Y-173150593D01*
X124852171Y-173150591D01*
X124796211Y-172978361D01*
X124713996Y-172817006D01*
X124607553Y-172670499D01*
X124479501Y-172542447D01*
X124332994Y-172436004D01*
X124332993Y-172436003D01*
X124332991Y-172436002D01*
X124171637Y-172353788D01*
X123999406Y-172297828D01*
X123820549Y-172269500D01*
X123820546Y-172269500D01*
X123639454Y-172269500D01*
X123639451Y-172269500D01*
X123460593Y-172297828D01*
X123288362Y-172353788D01*
X123127008Y-172436002D01*
X123053752Y-172489225D01*
X122980499Y-172542447D01*
X122852447Y-172670499D01*
X122799225Y-172743752D01*
X122746002Y-172817008D01*
X122663788Y-172978362D01*
X122607828Y-173150593D01*
X122579500Y-173329450D01*
X122340500Y-173329450D01*
X122312171Y-173150593D01*
X122312171Y-173150591D01*
X122256211Y-172978361D01*
X122173996Y-172817006D01*
X122067553Y-172670499D01*
X121939501Y-172542447D01*
X121792994Y-172436004D01*
X121792990Y-172436001D01*
X121792983Y-172435997D01*
X121669555Y-172373107D01*
X121626290Y-172329843D01*
X121615500Y-172284898D01*
X121615500Y-169327525D01*
X122449500Y-169327525D01*
X122449500Y-169472474D01*
X122487017Y-169612489D01*
X122559487Y-169738010D01*
X122559489Y-169738012D01*
X122559491Y-169738015D01*
X122661985Y-169840509D01*
X122661987Y-169840510D01*
X122661989Y-169840512D01*
X122787511Y-169912982D01*
X122787512Y-169912982D01*
X122787515Y-169912984D01*
X122927525Y-169950500D01*
X122927526Y-169950500D01*
X123072474Y-169950500D01*
X123072475Y-169950500D01*
X123212485Y-169912984D01*
X123212487Y-169912982D01*
X123212489Y-169912982D01*
X123338010Y-169840512D01*
X123338010Y-169840511D01*
X123338015Y-169840509D01*
X123440509Y-169738015D01*
X123469953Y-169687017D01*
X123512982Y-169612489D01*
X123512982Y-169612487D01*
X123512984Y-169612485D01*
X123550500Y-169472475D01*
X123550500Y-169327525D01*
X123512984Y-169187515D01*
X123512982Y-169187512D01*
X123512982Y-169187510D01*
X123440512Y-169061989D01*
X123440510Y-169061987D01*
X123440509Y-169061985D01*
X123338015Y-168959491D01*
X123338012Y-168959489D01*
X123338010Y-168959487D01*
X123212488Y-168887017D01*
X123212489Y-168887017D01*
X123182896Y-168879087D01*
X123072475Y-168849500D01*
X122927525Y-168849500D01*
X122865790Y-168866041D01*
X122787510Y-168887017D01*
X122661989Y-168959487D01*
X122559487Y-169061989D01*
X122487017Y-169187510D01*
X122449500Y-169327525D01*
X121615500Y-169327525D01*
X121615500Y-168990538D01*
X121628764Y-168941038D01*
X121702982Y-168812489D01*
X121702982Y-168812487D01*
X121702984Y-168812485D01*
X121740500Y-168672475D01*
X121740500Y-168527525D01*
X121702984Y-168387515D01*
X121702982Y-168387512D01*
X121702982Y-168387510D01*
X121630512Y-168261989D01*
X121630510Y-168261987D01*
X121630509Y-168261985D01*
X121528015Y-168159491D01*
X121528012Y-168159489D01*
X121528010Y-168159487D01*
X121402488Y-168087017D01*
X121402489Y-168087017D01*
X121372896Y-168079087D01*
X121262475Y-168049500D01*
X121117525Y-168049500D01*
X121055790Y-168066041D01*
X120977510Y-168087017D01*
X120851989Y-168159487D01*
X120749487Y-168261989D01*
X120680736Y-168381070D01*
X120635267Y-168422011D01*
X120574416Y-168428407D01*
X120521428Y-168397814D01*
X120509264Y-168381070D01*
X120440512Y-168261989D01*
X120440510Y-168261987D01*
X120440509Y-168261985D01*
X120338015Y-168159491D01*
X120338012Y-168159489D01*
X120338010Y-168159487D01*
X120212488Y-168087017D01*
X120212489Y-168087017D01*
X120182896Y-168079087D01*
X120072475Y-168049500D01*
X119927525Y-168049500D01*
X119865790Y-168066041D01*
X119787510Y-168087017D01*
X119661989Y-168159487D01*
X119559487Y-168261989D01*
X119487017Y-168387510D01*
X119449500Y-168527525D01*
X119075500Y-168527525D01*
X119075500Y-167824500D01*
X119094407Y-167766309D01*
X119143907Y-167730345D01*
X119174500Y-167725500D01*
X121709461Y-167725500D01*
X121758961Y-167738764D01*
X121887511Y-167812982D01*
X121887512Y-167812982D01*
X121887515Y-167812984D01*
X122027525Y-167850500D01*
X122027526Y-167850500D01*
X122172474Y-167850500D01*
X122172475Y-167850500D01*
X122312485Y-167812984D01*
X122312487Y-167812982D01*
X122312489Y-167812982D01*
X122438010Y-167740512D01*
X122438010Y-167740511D01*
X122438015Y-167740509D01*
X122540509Y-167638015D01*
X122612984Y-167512485D01*
X122650500Y-167372475D01*
X122650500Y-167227525D01*
X122612984Y-167087515D01*
X122612982Y-167087512D01*
X122612982Y-167087510D01*
X122540512Y-166961989D01*
X122540510Y-166961987D01*
X122540509Y-166961985D01*
X122438015Y-166859491D01*
X122438012Y-166859489D01*
X122438010Y-166859487D01*
X122312488Y-166787017D01*
X122312489Y-166787017D01*
X122269507Y-166775500D01*
X122172475Y-166749500D01*
X122027525Y-166749500D01*
X121965790Y-166766041D01*
X121887510Y-166787017D01*
X121758961Y-166861236D01*
X121709461Y-166874500D01*
X111149500Y-166874500D01*
X111091309Y-166855593D01*
X111055345Y-166806093D01*
X111050500Y-166775500D01*
X111050500Y-161006893D01*
X113799500Y-161006893D01*
X113799500Y-161618106D01*
X113810123Y-161706565D01*
X113865637Y-161847339D01*
X113865638Y-161847341D01*
X113865639Y-161847342D01*
X113957078Y-161967922D01*
X113957081Y-161967924D01*
X114077130Y-162058961D01*
X114077658Y-162059361D01*
X114215899Y-162113876D01*
X114263093Y-162152811D01*
X114278390Y-162212053D01*
X114275204Y-162231595D01*
X114249500Y-162327525D01*
X114249500Y-162472474D01*
X114287017Y-162612489D01*
X114359487Y-162738010D01*
X114359489Y-162738012D01*
X114359491Y-162738015D01*
X114461985Y-162840509D01*
X114461987Y-162840510D01*
X114461989Y-162840512D01*
X114587511Y-162912982D01*
X114587512Y-162912982D01*
X114587515Y-162912984D01*
X114727525Y-162950500D01*
X114727526Y-162950500D01*
X114872474Y-162950500D01*
X114872475Y-162950500D01*
X115012485Y-162912984D01*
X115012487Y-162912982D01*
X115012489Y-162912982D01*
X115138010Y-162840512D01*
X115138010Y-162840511D01*
X115138015Y-162840509D01*
X115240509Y-162738015D01*
X115312984Y-162612485D01*
X115350500Y-162472475D01*
X115350500Y-162327525D01*
X115324795Y-162231593D01*
X115327997Y-162170494D01*
X115366502Y-162122944D01*
X115384092Y-162113879D01*
X115522342Y-162059361D01*
X115642922Y-161967922D01*
X115734361Y-161847342D01*
X115789877Y-161706564D01*
X115800500Y-161618102D01*
X115800500Y-161006898D01*
X115789877Y-160918436D01*
X115734361Y-160777658D01*
X115642922Y-160657078D01*
X115522342Y-160565639D01*
X115522341Y-160565638D01*
X115522339Y-160565637D01*
X115381565Y-160510123D01*
X115293106Y-160499500D01*
X115293102Y-160499500D01*
X114306898Y-160499500D01*
X114306893Y-160499500D01*
X114218434Y-160510123D01*
X114077660Y-160565637D01*
X114077656Y-160565640D01*
X113957081Y-160657075D01*
X113957075Y-160657081D01*
X113865640Y-160777656D01*
X113865637Y-160777660D01*
X113810123Y-160918434D01*
X113799500Y-161006893D01*
X111050500Y-161006893D01*
X111050500Y-135174499D01*
X111069407Y-135116308D01*
X111118907Y-135080344D01*
X111149500Y-135075499D01*
X111331521Y-135075499D01*
X111331522Y-135075498D01*
X111378411Y-135068072D01*
X111425299Y-135060647D01*
X111425299Y-135060646D01*
X111425304Y-135060646D01*
X111538342Y-135003050D01*
X111628050Y-134913342D01*
X111685646Y-134800304D01*
X111700500Y-134706519D01*
X111700499Y-134443482D01*
X111700498Y-134443478D01*
X111700498Y-134443476D01*
X111685647Y-134349700D01*
X111685646Y-134349695D01*
X111657749Y-134294946D01*
X111648177Y-134234514D01*
X111657749Y-134205054D01*
X111685646Y-134150304D01*
X111700500Y-134056519D01*
X111700499Y-133891881D01*
X111719406Y-133833692D01*
X111768906Y-133797728D01*
X111825494Y-133796356D01*
X111830005Y-133797583D01*
X111830009Y-133797585D01*
X111855135Y-133800500D01*
X115144864Y-133800499D01*
X115169991Y-133797585D01*
X115169995Y-133797583D01*
X115174509Y-133796356D01*
X115235622Y-133799323D01*
X115283320Y-133837644D01*
X115299500Y-133891882D01*
X115299500Y-134056520D01*
X115299501Y-134056521D01*
X115314352Y-134150299D01*
X115314353Y-134150302D01*
X115342251Y-134205057D01*
X115351821Y-134265489D01*
X115342251Y-134294943D01*
X115314354Y-134349696D01*
X115299500Y-134443478D01*
X115299500Y-134706520D01*
X115299501Y-134706523D01*
X115314352Y-134800299D01*
X115314354Y-134800304D01*
X115371950Y-134913342D01*
X115461658Y-135003050D01*
X115574696Y-135060646D01*
X115668481Y-135075500D01*
X117081518Y-135075499D01*
X117081521Y-135075499D01*
X117081522Y-135075498D01*
X117128411Y-135068072D01*
X117175299Y-135060647D01*
X117175299Y-135060646D01*
X117175304Y-135060646D01*
X117288342Y-135003050D01*
X117378050Y-134913342D01*
X117435646Y-134800304D01*
X117450500Y-134706519D01*
X117450499Y-134449499D01*
X117469406Y-134391310D01*
X117518906Y-134355346D01*
X117549499Y-134350500D01*
X118400500Y-134350500D01*
X118458691Y-134369407D01*
X118494655Y-134418907D01*
X118499500Y-134449500D01*
X118499500Y-158963000D01*
X118480593Y-159021191D01*
X118431093Y-159057155D01*
X118400500Y-159062000D01*
X115844859Y-159062000D01*
X115786668Y-159043093D01*
X115752762Y-158999319D01*
X115734362Y-158952660D01*
X115734361Y-158952659D01*
X115734361Y-158952658D01*
X115642922Y-158832078D01*
X115522342Y-158740639D01*
X115522341Y-158740638D01*
X115522339Y-158740637D01*
X115381565Y-158685123D01*
X115293106Y-158674500D01*
X115293102Y-158674500D01*
X114306898Y-158674500D01*
X114306893Y-158674500D01*
X114218434Y-158685123D01*
X114077660Y-158740637D01*
X114077656Y-158740640D01*
X113957081Y-158832075D01*
X113957075Y-158832081D01*
X113865640Y-158952656D01*
X113865637Y-158952660D01*
X113810123Y-159093434D01*
X113799500Y-159181893D01*
X113799500Y-159793106D01*
X113810123Y-159881565D01*
X113865637Y-160022339D01*
X113865638Y-160022341D01*
X113865639Y-160022342D01*
X113957078Y-160142922D01*
X114077658Y-160234361D01*
X114077659Y-160234361D01*
X114077660Y-160234362D01*
X114148047Y-160262119D01*
X114218436Y-160289877D01*
X114306898Y-160300500D01*
X114306900Y-160300500D01*
X115293100Y-160300500D01*
X115293102Y-160300500D01*
X115381564Y-160289877D01*
X115522342Y-160234361D01*
X115642922Y-160142922D01*
X115734361Y-160022342D01*
X115752762Y-159975681D01*
X115791698Y-159928484D01*
X115844859Y-159913000D01*
X118400500Y-159913000D01*
X118458691Y-159931907D01*
X118494655Y-159981407D01*
X118499500Y-160012000D01*
X118499500Y-160539365D01*
X118488334Y-160581038D01*
X118489499Y-160581521D01*
X118487016Y-160587513D01*
X118449500Y-160727525D01*
X118449500Y-160872475D01*
X118479087Y-160982896D01*
X118487017Y-161012489D01*
X118559487Y-161138010D01*
X118559489Y-161138012D01*
X118559491Y-161138015D01*
X118661985Y-161240509D01*
X118661987Y-161240510D01*
X118661989Y-161240512D01*
X118787511Y-161312982D01*
X118787512Y-161312982D01*
X118787515Y-161312984D01*
X118927525Y-161350500D01*
X118927526Y-161350500D01*
X119072474Y-161350500D01*
X119072475Y-161350500D01*
X119212485Y-161312984D01*
X119212487Y-161312982D01*
X119212489Y-161312982D01*
X119338010Y-161240512D01*
X119338010Y-161240511D01*
X119338015Y-161240509D01*
X119405498Y-161173025D01*
X119460013Y-161145250D01*
X119520445Y-161154821D01*
X119563710Y-161198086D01*
X119574500Y-161243031D01*
X119574500Y-163409461D01*
X119561236Y-163458961D01*
X119487017Y-163587510D01*
X119449500Y-163727525D01*
X119449500Y-163872474D01*
X119487017Y-164012489D01*
X119559487Y-164138010D01*
X119559489Y-164138012D01*
X119559491Y-164138015D01*
X119661985Y-164240509D01*
X119661987Y-164240510D01*
X119661989Y-164240512D01*
X119787511Y-164312982D01*
X119787512Y-164312982D01*
X119787515Y-164312984D01*
X119927525Y-164350500D01*
X119927526Y-164350500D01*
X120072474Y-164350500D01*
X120072475Y-164350500D01*
X120212485Y-164312984D01*
X120212487Y-164312982D01*
X120212489Y-164312982D01*
X120338010Y-164240512D01*
X120338010Y-164240511D01*
X120338015Y-164240509D01*
X120440509Y-164138015D01*
X120496803Y-164040512D01*
X120512982Y-164012489D01*
X120512982Y-164012487D01*
X120512984Y-164012485D01*
X120550500Y-163872475D01*
X120550500Y-163727525D01*
X120536459Y-163675123D01*
X120539660Y-163614023D01*
X120578165Y-163566472D01*
X120632085Y-163550500D01*
X120772474Y-163550500D01*
X120772475Y-163550500D01*
X120912485Y-163512984D01*
X120912487Y-163512982D01*
X120912489Y-163512982D01*
X121038010Y-163440512D01*
X121038010Y-163440511D01*
X121038015Y-163440509D01*
X121140509Y-163338015D01*
X121186151Y-163258961D01*
X121212982Y-163212489D01*
X121212982Y-163212487D01*
X121212984Y-163212485D01*
X121250500Y-163072475D01*
X121250500Y-163049500D01*
X121269407Y-162991309D01*
X121318907Y-162955345D01*
X121349500Y-162950500D01*
X121472476Y-162950500D01*
X121472476Y-162950499D01*
X121549876Y-162929760D01*
X121577955Y-162931231D01*
X121606093Y-162931231D01*
X121608279Y-162932819D01*
X121610977Y-162932961D01*
X121632828Y-162950655D01*
X121655593Y-162967195D01*
X121656428Y-162969765D01*
X121658528Y-162971466D01*
X121674500Y-163025386D01*
X121674500Y-163209461D01*
X121661236Y-163258961D01*
X121587017Y-163387510D01*
X121549500Y-163527525D01*
X121549500Y-163672474D01*
X121587017Y-163812489D01*
X121659487Y-163938010D01*
X121659489Y-163938012D01*
X121659491Y-163938015D01*
X121761985Y-164040509D01*
X121761987Y-164040510D01*
X121761989Y-164040512D01*
X121887511Y-164112982D01*
X121887512Y-164112982D01*
X121887515Y-164112984D01*
X122027525Y-164150500D01*
X122027526Y-164150500D01*
X122172474Y-164150500D01*
X122172475Y-164150500D01*
X122312485Y-164112984D01*
X122312487Y-164112982D01*
X122312489Y-164112982D01*
X122438010Y-164040512D01*
X122438010Y-164040511D01*
X122438015Y-164040509D01*
X122540509Y-163938015D01*
X122612984Y-163812485D01*
X122650500Y-163672475D01*
X122650500Y-163527525D01*
X122612984Y-163387515D01*
X122612982Y-163387512D01*
X122612982Y-163387510D01*
X122538764Y-163258961D01*
X122525500Y-163209461D01*
X122525500Y-147890725D01*
X123049500Y-147890725D01*
X123049500Y-148299274D01*
X123052353Y-148329694D01*
X123052355Y-148329703D01*
X123097207Y-148457883D01*
X123177845Y-148567144D01*
X123177847Y-148567146D01*
X123177850Y-148567150D01*
X123177853Y-148567152D01*
X123177855Y-148567154D01*
X123290574Y-148650345D01*
X123326167Y-148700113D01*
X123325709Y-148761296D01*
X123290574Y-148809655D01*
X123177855Y-148892845D01*
X123177845Y-148892855D01*
X123097207Y-149002116D01*
X123052355Y-149130296D01*
X123052353Y-149130305D01*
X123049500Y-149160725D01*
X123049500Y-149569274D01*
X123052353Y-149599694D01*
X123052355Y-149599703D01*
X123097207Y-149727883D01*
X123177845Y-149837144D01*
X123177847Y-149837146D01*
X123177850Y-149837150D01*
X123177853Y-149837152D01*
X123177855Y-149837154D01*
X123290574Y-149920345D01*
X123326167Y-149970113D01*
X123325709Y-150031296D01*
X123290574Y-150079655D01*
X123177855Y-150162845D01*
X123177845Y-150162855D01*
X123097207Y-150272116D01*
X123052355Y-150400296D01*
X123052353Y-150400305D01*
X123049500Y-150430725D01*
X123049500Y-150839274D01*
X123052353Y-150869694D01*
X123052355Y-150869703D01*
X123097207Y-150997883D01*
X123177845Y-151107144D01*
X123177847Y-151107146D01*
X123177850Y-151107150D01*
X123177853Y-151107152D01*
X123177855Y-151107154D01*
X123287116Y-151187792D01*
X123287117Y-151187792D01*
X123287118Y-151187793D01*
X123415301Y-151232646D01*
X123445725Y-151235499D01*
X123445727Y-151235500D01*
X123445734Y-151235500D01*
X125204273Y-151235500D01*
X125204273Y-151235499D01*
X125234699Y-151232646D01*
X125362882Y-151187793D01*
X125472150Y-151107150D01*
X125552793Y-150997882D01*
X125597646Y-150869699D01*
X125600499Y-150839273D01*
X125600500Y-150839273D01*
X125600500Y-150430727D01*
X125600499Y-150430725D01*
X125600212Y-150427660D01*
X125597646Y-150400301D01*
X125552793Y-150272118D01*
X125511108Y-150215637D01*
X125472154Y-150162855D01*
X125472152Y-150162853D01*
X125472150Y-150162850D01*
X125472146Y-150162847D01*
X125472144Y-150162845D01*
X125359425Y-150079655D01*
X125323832Y-150029888D01*
X125324290Y-149968704D01*
X125359425Y-149920345D01*
X125426630Y-149870744D01*
X125472150Y-149837150D01*
X125552793Y-149727882D01*
X125597646Y-149599699D01*
X125600499Y-149569273D01*
X125600500Y-149569273D01*
X125600500Y-149160727D01*
X125600499Y-149160725D01*
X125597646Y-149130305D01*
X125597646Y-149130301D01*
X125552793Y-149002118D01*
X125472150Y-148892850D01*
X125472146Y-148892847D01*
X125472144Y-148892845D01*
X125359425Y-148809655D01*
X125323832Y-148759888D01*
X125324290Y-148698704D01*
X125359425Y-148650345D01*
X125426630Y-148600744D01*
X125472150Y-148567150D01*
X125552793Y-148457882D01*
X125597646Y-148329699D01*
X125600499Y-148299273D01*
X125600500Y-148299273D01*
X125600500Y-147890727D01*
X125600499Y-147890725D01*
X125597646Y-147860305D01*
X125597646Y-147860301D01*
X125552793Y-147732118D01*
X125472150Y-147622850D01*
X125472146Y-147622847D01*
X125472144Y-147622845D01*
X125362883Y-147542207D01*
X125234703Y-147497355D01*
X125234694Y-147497353D01*
X125204274Y-147494500D01*
X125204266Y-147494500D01*
X123445734Y-147494500D01*
X123445725Y-147494500D01*
X123415305Y-147497353D01*
X123415296Y-147497355D01*
X123287116Y-147542207D01*
X123177855Y-147622845D01*
X123177845Y-147622855D01*
X123097207Y-147732116D01*
X123052355Y-147860296D01*
X123052353Y-147860305D01*
X123049500Y-147890725D01*
X122525500Y-147890725D01*
X122525500Y-144681893D01*
X125049500Y-144681893D01*
X125049500Y-145718106D01*
X125060123Y-145806565D01*
X125115637Y-145947339D01*
X125115638Y-145947341D01*
X125115639Y-145947342D01*
X125207078Y-146067922D01*
X125327658Y-146159361D01*
X125327661Y-146159362D01*
X125332168Y-146161897D01*
X125373624Y-146206898D01*
X125380712Y-146267671D01*
X125375115Y-146286068D01*
X125374517Y-146287510D01*
X125337000Y-146427525D01*
X125337000Y-146572474D01*
X125374517Y-146712489D01*
X125446987Y-146838010D01*
X125446989Y-146838012D01*
X125446991Y-146838015D01*
X125549485Y-146940509D01*
X125549487Y-146940510D01*
X125549489Y-146940512D01*
X125675011Y-147012982D01*
X125675012Y-147012982D01*
X125675015Y-147012984D01*
X125815025Y-147050500D01*
X125815026Y-147050500D01*
X125959974Y-147050500D01*
X125959975Y-147050500D01*
X126099985Y-147012984D01*
X126099987Y-147012982D01*
X126099989Y-147012982D01*
X126225510Y-146940512D01*
X126225510Y-146940511D01*
X126225515Y-146940509D01*
X126328009Y-146838015D01*
X126400484Y-146712485D01*
X126438000Y-146572475D01*
X126438000Y-146427525D01*
X127749500Y-146427525D01*
X127749500Y-146572474D01*
X127787017Y-146712489D01*
X127861236Y-146841038D01*
X127874500Y-146890538D01*
X127874500Y-148038982D01*
X127874500Y-148151018D01*
X127900072Y-148246455D01*
X127903498Y-148259241D01*
X127959513Y-148356260D01*
X127959515Y-148356263D01*
X128023734Y-148420482D01*
X128043271Y-148451574D01*
X128043742Y-148451326D01*
X128047060Y-148457606D01*
X128047172Y-148457783D01*
X128047206Y-148457881D01*
X128047207Y-148457883D01*
X128127845Y-148567144D01*
X128127847Y-148567146D01*
X128127850Y-148567150D01*
X128127853Y-148567152D01*
X128127855Y-148567154D01*
X128240574Y-148650345D01*
X128276167Y-148700113D01*
X128275709Y-148761296D01*
X128240574Y-148809655D01*
X128127855Y-148892845D01*
X128127845Y-148892855D01*
X128047207Y-149002116D01*
X128002355Y-149130296D01*
X128002353Y-149130305D01*
X127999500Y-149160725D01*
X127999500Y-149569274D01*
X128002353Y-149599694D01*
X128002355Y-149599703D01*
X128047207Y-149727883D01*
X128127845Y-149837144D01*
X128127847Y-149837146D01*
X128127850Y-149837150D01*
X128127853Y-149837152D01*
X128127855Y-149837154D01*
X128240574Y-149920345D01*
X128276167Y-149970113D01*
X128275709Y-150031296D01*
X128240574Y-150079655D01*
X128127855Y-150162845D01*
X128127845Y-150162855D01*
X128047207Y-150272116D01*
X128002355Y-150400296D01*
X128002353Y-150400305D01*
X127999500Y-150430725D01*
X127999500Y-150839274D01*
X128002353Y-150869694D01*
X128002355Y-150869703D01*
X128047207Y-150997883D01*
X128127845Y-151107144D01*
X128127847Y-151107146D01*
X128127850Y-151107150D01*
X128127853Y-151107152D01*
X128127855Y-151107154D01*
X128240574Y-151190345D01*
X128276167Y-151240113D01*
X128275709Y-151301296D01*
X128240574Y-151349655D01*
X128127855Y-151432845D01*
X128127845Y-151432855D01*
X128047207Y-151542116D01*
X128002355Y-151670296D01*
X128002353Y-151670305D01*
X127999500Y-151700725D01*
X127999500Y-152109274D01*
X128002353Y-152139694D01*
X128002355Y-152139703D01*
X128047207Y-152267883D01*
X128127845Y-152377144D01*
X128127847Y-152377146D01*
X128127850Y-152377150D01*
X128127853Y-152377152D01*
X128127855Y-152377154D01*
X128237116Y-152457792D01*
X128237117Y-152457792D01*
X128237118Y-152457793D01*
X128365301Y-152502646D01*
X128395725Y-152505499D01*
X128395727Y-152505500D01*
X128395734Y-152505500D01*
X130154273Y-152505500D01*
X130154273Y-152505499D01*
X130184699Y-152502646D01*
X130312882Y-152457793D01*
X130422150Y-152377150D01*
X130502793Y-152267882D01*
X130547646Y-152139699D01*
X130550499Y-152109273D01*
X130550500Y-152109273D01*
X130550500Y-151700727D01*
X130550499Y-151700725D01*
X130547646Y-151670301D01*
X130502793Y-151542118D01*
X130451296Y-151472342D01*
X130422154Y-151432855D01*
X130422152Y-151432853D01*
X130422150Y-151432850D01*
X130422146Y-151432847D01*
X130422144Y-151432845D01*
X130309425Y-151349655D01*
X130273832Y-151299888D01*
X130274290Y-151238704D01*
X130309425Y-151190345D01*
X130376630Y-151140744D01*
X130422150Y-151107150D01*
X130502793Y-150997882D01*
X130547646Y-150869699D01*
X130550499Y-150839273D01*
X130550500Y-150839273D01*
X130550500Y-150430727D01*
X130550499Y-150430725D01*
X130550212Y-150427660D01*
X130547646Y-150400301D01*
X130502793Y-150272118D01*
X130461108Y-150215637D01*
X130422154Y-150162855D01*
X130422152Y-150162853D01*
X130422150Y-150162850D01*
X130422146Y-150162847D01*
X130422144Y-150162845D01*
X130309425Y-150079655D01*
X130273832Y-150029888D01*
X130274290Y-149968704D01*
X130309425Y-149920345D01*
X130376630Y-149870744D01*
X130422150Y-149837150D01*
X130502793Y-149727882D01*
X130547646Y-149599699D01*
X130550499Y-149569273D01*
X130550500Y-149569273D01*
X130550500Y-149160727D01*
X130550499Y-149160725D01*
X130547646Y-149130305D01*
X130547646Y-149130301D01*
X130502793Y-149002118D01*
X130422150Y-148892850D01*
X130422146Y-148892847D01*
X130422144Y-148892845D01*
X130309425Y-148809655D01*
X130273832Y-148759888D01*
X130274290Y-148698704D01*
X130309425Y-148650345D01*
X130376630Y-148600744D01*
X130422150Y-148567150D01*
X130502793Y-148457882D01*
X130547646Y-148329699D01*
X130550499Y-148299273D01*
X130550500Y-148299273D01*
X130550500Y-147890727D01*
X130550499Y-147890725D01*
X130547646Y-147860305D01*
X130547646Y-147860301D01*
X130502793Y-147732118D01*
X130422150Y-147622850D01*
X130422146Y-147622847D01*
X130422144Y-147622845D01*
X130312883Y-147542207D01*
X130184703Y-147497355D01*
X130184694Y-147497353D01*
X130154274Y-147494500D01*
X130154266Y-147494500D01*
X128824500Y-147494500D01*
X128766309Y-147475593D01*
X128730345Y-147426093D01*
X128725500Y-147395500D01*
X128725500Y-146890538D01*
X128738764Y-146841038D01*
X128812982Y-146712489D01*
X128812982Y-146712487D01*
X128812984Y-146712485D01*
X128850500Y-146572475D01*
X128850500Y-146427525D01*
X128812984Y-146287515D01*
X128812982Y-146287512D01*
X128812982Y-146287510D01*
X128740512Y-146161989D01*
X128740510Y-146161987D01*
X128740509Y-146161985D01*
X128638015Y-146059491D01*
X128638012Y-146059489D01*
X128638010Y-146059487D01*
X128512488Y-145987017D01*
X128512489Y-145987017D01*
X128482896Y-145979087D01*
X128372475Y-145949500D01*
X128227525Y-145949500D01*
X128165790Y-145966041D01*
X128087510Y-145987017D01*
X127961989Y-146059487D01*
X127859487Y-146161989D01*
X127787017Y-146287510D01*
X127749500Y-146427525D01*
X126438000Y-146427525D01*
X126400484Y-146287515D01*
X126384114Y-146259162D01*
X126371393Y-146199316D01*
X126396278Y-146143420D01*
X126410027Y-146130782D01*
X126492922Y-146067922D01*
X126584361Y-145947342D01*
X126639877Y-145806564D01*
X126650500Y-145718102D01*
X126650500Y-144681898D01*
X126639877Y-144593436D01*
X126584361Y-144452658D01*
X126492922Y-144332078D01*
X126372342Y-144240639D01*
X126372341Y-144240638D01*
X126372339Y-144240637D01*
X126231565Y-144185123D01*
X126143106Y-144174500D01*
X126143102Y-144174500D01*
X125556898Y-144174500D01*
X125556893Y-144174500D01*
X125468434Y-144185123D01*
X125327660Y-144240637D01*
X125327656Y-144240640D01*
X125207081Y-144332075D01*
X125207075Y-144332081D01*
X125115640Y-144452656D01*
X125115637Y-144452660D01*
X125060123Y-144593434D01*
X125049500Y-144681893D01*
X122525500Y-144681893D01*
X122525500Y-135099500D01*
X122544407Y-135041309D01*
X122593907Y-135005345D01*
X122624500Y-135000500D01*
X123682886Y-135000500D01*
X123727831Y-135011290D01*
X123824696Y-135060646D01*
X123918481Y-135075500D01*
X125331518Y-135075499D01*
X125331521Y-135075499D01*
X125331522Y-135075498D01*
X125378411Y-135068072D01*
X125425299Y-135060647D01*
X125425299Y-135060646D01*
X125425304Y-135060646D01*
X125538342Y-135003050D01*
X125628050Y-134913342D01*
X125685646Y-134800304D01*
X125700500Y-134706519D01*
X125700499Y-134443482D01*
X125700498Y-134443478D01*
X125700498Y-134443476D01*
X125685647Y-134349700D01*
X125685646Y-134349695D01*
X125657749Y-134294946D01*
X125648177Y-134234514D01*
X125657749Y-134205054D01*
X125685646Y-134150304D01*
X125700500Y-134056519D01*
X125700499Y-133891881D01*
X125719406Y-133833692D01*
X125768906Y-133797728D01*
X125825494Y-133796356D01*
X125830005Y-133797583D01*
X125830009Y-133797585D01*
X125855135Y-133800500D01*
X129144864Y-133800499D01*
X129169991Y-133797585D01*
X129169995Y-133797583D01*
X129174509Y-133796356D01*
X129235622Y-133799323D01*
X129283320Y-133837644D01*
X129299500Y-133891882D01*
X129299500Y-134056520D01*
X129299501Y-134056521D01*
X129314352Y-134150299D01*
X129314353Y-134150302D01*
X129342251Y-134205057D01*
X129351821Y-134265489D01*
X129342251Y-134294943D01*
X129314354Y-134349696D01*
X129299500Y-134443478D01*
X129299500Y-134706520D01*
X129299501Y-134706523D01*
X129314352Y-134800299D01*
X129314354Y-134800304D01*
X129371950Y-134913342D01*
X129461658Y-135003050D01*
X129574696Y-135060646D01*
X129668481Y-135075500D01*
X131081518Y-135075499D01*
X131081521Y-135075499D01*
X131081522Y-135075498D01*
X131128411Y-135068072D01*
X131175299Y-135060647D01*
X131175299Y-135060646D01*
X131175304Y-135060646D01*
X131288342Y-135003050D01*
X131305498Y-134985893D01*
X131360013Y-134958118D01*
X131420445Y-134967689D01*
X131463710Y-135010954D01*
X131474500Y-135055899D01*
X131474500Y-160409461D01*
X131461236Y-160458961D01*
X131387017Y-160587510D01*
X131349500Y-160727525D01*
X131349500Y-160872475D01*
X131379087Y-160982896D01*
X131387017Y-161012489D01*
X131459487Y-161138010D01*
X131459489Y-161138012D01*
X131459491Y-161138015D01*
X131561985Y-161240509D01*
X131561987Y-161240510D01*
X131561989Y-161240512D01*
X131687511Y-161312982D01*
X131687512Y-161312982D01*
X131687515Y-161312984D01*
X131827525Y-161350500D01*
X131827526Y-161350500D01*
X131972473Y-161350500D01*
X131972475Y-161350500D01*
X131994877Y-161344497D01*
X132055978Y-161347699D01*
X132103528Y-161386204D01*
X132119500Y-161440124D01*
X132119500Y-174902679D01*
X132100593Y-174960870D01*
X132051093Y-174996834D01*
X131989907Y-174996834D01*
X131962310Y-174982772D01*
X131952997Y-174976006D01*
X131952993Y-174976003D01*
X131791637Y-174893788D01*
X131619406Y-174837828D01*
X131440549Y-174809500D01*
X131440546Y-174809500D01*
X131259454Y-174809500D01*
X131259451Y-174809500D01*
X131080593Y-174837828D01*
X130908362Y-174893788D01*
X130747008Y-174976002D01*
X130711667Y-175001679D01*
X130600499Y-175082447D01*
X130472447Y-175210499D01*
X130419225Y-175283752D01*
X130366002Y-175357008D01*
X130283788Y-175518362D01*
X130227828Y-175690593D01*
X130199500Y-175869450D01*
X130199500Y-176050549D01*
X130227828Y-176229406D01*
X130283788Y-176401637D01*
X130366001Y-176562990D01*
X130366004Y-176562994D01*
X130472447Y-176709501D01*
X130600499Y-176837553D01*
X130747006Y-176943996D01*
X130908361Y-177026211D01*
X131080591Y-177082171D01*
X131152136Y-177093502D01*
X131259451Y-177110500D01*
X131259454Y-177110500D01*
X131440549Y-177110500D01*
X131529977Y-177096335D01*
X131619409Y-177082171D01*
X131791639Y-177026211D01*
X131952994Y-176943996D01*
X132099501Y-176837553D01*
X132227553Y-176709501D01*
X132333996Y-176562994D01*
X132358677Y-176514554D01*
X132401942Y-176471290D01*
X132446887Y-176460500D01*
X132685890Y-176460500D01*
X132685892Y-176460500D01*
X132756177Y-176441667D01*
X132817276Y-176444869D01*
X132864826Y-176483375D01*
X132870007Y-176492348D01*
X132906000Y-176562988D01*
X132906001Y-176562990D01*
X132906002Y-176562991D01*
X132906004Y-176562994D01*
X133012447Y-176709501D01*
X133140499Y-176837553D01*
X133287006Y-176943996D01*
X133448361Y-177026211D01*
X133620591Y-177082171D01*
X133692136Y-177093502D01*
X133799451Y-177110500D01*
X133799454Y-177110500D01*
X133980549Y-177110500D01*
X134069977Y-177096335D01*
X134159409Y-177082171D01*
X134331639Y-177026211D01*
X134492994Y-176943996D01*
X134639501Y-176837553D01*
X134767553Y-176709501D01*
X134873996Y-176562994D01*
X134898677Y-176514554D01*
X134941942Y-176471290D01*
X134986887Y-176460500D01*
X135225890Y-176460500D01*
X135225892Y-176460500D01*
X135296177Y-176441667D01*
X135357276Y-176444869D01*
X135404826Y-176483375D01*
X135410007Y-176492348D01*
X135446000Y-176562988D01*
X135446001Y-176562990D01*
X135446002Y-176562991D01*
X135446004Y-176562994D01*
X135552447Y-176709501D01*
X135680499Y-176837553D01*
X135827006Y-176943996D01*
X135988361Y-177026211D01*
X136160591Y-177082171D01*
X136232136Y-177093502D01*
X136339451Y-177110500D01*
X136339454Y-177110500D01*
X136520549Y-177110500D01*
X136609977Y-177096335D01*
X136699409Y-177082171D01*
X136871639Y-177026211D01*
X137032994Y-176943996D01*
X137179501Y-176837553D01*
X137307553Y-176709501D01*
X137413996Y-176562994D01*
X137413999Y-176562988D01*
X137416030Y-176559675D01*
X137417298Y-176560452D01*
X137456479Y-176521284D01*
X137501411Y-176510500D01*
X143072474Y-176510500D01*
X143072475Y-176510500D01*
X143212485Y-176472984D01*
X143212487Y-176472982D01*
X143212489Y-176472982D01*
X143338010Y-176400512D01*
X143338010Y-176400511D01*
X143338015Y-176400509D01*
X143440509Y-176298015D01*
X143512984Y-176172485D01*
X143550500Y-176032475D01*
X143550500Y-166369111D01*
X143569407Y-166310920D01*
X143618907Y-166274956D01*
X143680093Y-166274956D01*
X143685796Y-166277005D01*
X143718436Y-166289877D01*
X143806898Y-166300500D01*
X143806900Y-166300500D01*
X144993100Y-166300500D01*
X144993102Y-166300500D01*
X145081564Y-166289877D01*
X145222342Y-166234361D01*
X145342922Y-166142922D01*
X145434361Y-166022342D01*
X145489877Y-165881564D01*
X145500500Y-165793102D01*
X145500500Y-163606898D01*
X145489877Y-163518436D01*
X145434361Y-163377658D01*
X145342922Y-163257078D01*
X145222342Y-163165639D01*
X145222341Y-163165638D01*
X145222339Y-163165637D01*
X145081565Y-163110123D01*
X144990164Y-163099147D01*
X144990273Y-163098231D01*
X144936619Y-163077171D01*
X144903683Y-163025607D01*
X144900500Y-163000705D01*
X144900500Y-161860634D01*
X144911666Y-161818963D01*
X144910500Y-161818480D01*
X144912977Y-161812496D01*
X144912984Y-161812485D01*
X144950500Y-161672475D01*
X144950500Y-161527525D01*
X144912984Y-161387515D01*
X144912982Y-161387512D01*
X144912982Y-161387510D01*
X144840512Y-161261989D01*
X144840510Y-161261987D01*
X144840509Y-161261985D01*
X144738015Y-161159491D01*
X144738012Y-161159489D01*
X144738010Y-161159487D01*
X144612488Y-161087017D01*
X144612489Y-161087017D01*
X144514027Y-161060634D01*
X144472475Y-161049500D01*
X144327525Y-161049500D01*
X144285973Y-161060634D01*
X144187510Y-161087017D01*
X144061989Y-161159487D01*
X143959487Y-161261989D01*
X143887017Y-161387510D01*
X143872919Y-161440124D01*
X143849500Y-161527525D01*
X143849500Y-161672475D01*
X143887016Y-161812485D01*
X143887018Y-161812489D01*
X143889500Y-161818480D01*
X143888333Y-161818963D01*
X143899500Y-161860634D01*
X143899500Y-163000705D01*
X143897653Y-163006388D01*
X143898825Y-163012249D01*
X143888344Y-163035039D01*
X143880593Y-163058896D01*
X143875757Y-163062409D01*
X143873261Y-163067838D01*
X143858939Y-163074628D01*
X143831093Y-163094860D01*
X143819905Y-163097785D01*
X143811325Y-163099500D01*
X143806898Y-163099500D01*
X143718436Y-163110123D01*
X143677583Y-163126233D01*
X143668905Y-163127968D01*
X143646880Y-163125382D01*
X143624749Y-163126744D01*
X143617119Y-163121887D01*
X143608137Y-163120833D01*
X143591840Y-163105796D01*
X143573133Y-163093889D01*
X143569814Y-163085474D01*
X143563168Y-163079342D01*
X143558821Y-163057596D01*
X143550687Y-163036969D01*
X143550500Y-163030888D01*
X143550500Y-131199500D01*
X143569407Y-131141309D01*
X143618907Y-131105345D01*
X143649500Y-131100500D01*
X145093100Y-131100500D01*
X145093102Y-131100500D01*
X145181564Y-131089877D01*
X145322342Y-131034361D01*
X145442922Y-130942922D01*
X145534361Y-130822342D01*
X145589877Y-130681564D01*
X145600500Y-130593102D01*
X145600500Y-129406898D01*
X145589877Y-129318436D01*
X145547370Y-129210646D01*
X145534362Y-129177660D01*
X145534361Y-129177659D01*
X145534361Y-129177658D01*
X145442922Y-129057078D01*
X145322342Y-128965639D01*
X145322341Y-128965638D01*
X145322339Y-128965637D01*
X145181565Y-128910123D01*
X145093106Y-128899500D01*
X145093102Y-128899500D01*
X143649500Y-128899500D01*
X143591309Y-128880593D01*
X143555345Y-128831093D01*
X143550500Y-128800500D01*
X143550500Y-120227525D01*
X143512984Y-120087515D01*
X143512982Y-120087512D01*
X143512982Y-120087510D01*
X143440512Y-119961989D01*
X143440510Y-119961987D01*
X143440509Y-119961985D01*
X143338015Y-119859491D01*
X143338012Y-119859489D01*
X143338010Y-119859487D01*
X143212488Y-119787017D01*
X143212489Y-119787017D01*
X143182896Y-119779087D01*
X143072475Y-119749500D01*
X116302525Y-119749500D01*
X116240790Y-119766041D01*
X116162510Y-119787017D01*
X116036989Y-119859487D01*
X115934487Y-119961989D01*
X115862017Y-120087510D01*
X115862016Y-120087515D01*
X115824500Y-120227525D01*
X115824500Y-120372475D01*
X115862016Y-120512485D01*
X115911236Y-120597737D01*
X115924500Y-120647236D01*
X115924500Y-120924923D01*
X115905593Y-120983114D01*
X115856093Y-121019078D01*
X115794907Y-121019078D01*
X115745407Y-120983114D01*
X115729874Y-120950549D01*
X115712984Y-120887515D01*
X115712981Y-120887509D01*
X115640512Y-120761989D01*
X115640510Y-120761987D01*
X115640509Y-120761985D01*
X115538015Y-120659491D01*
X115538012Y-120659489D01*
X115538010Y-120659487D01*
X115412488Y-120587017D01*
X115412489Y-120587017D01*
X115382896Y-120579087D01*
X115272475Y-120549500D01*
X115127525Y-120549500D01*
X115080855Y-120562005D01*
X114987513Y-120587016D01*
X114981521Y-120589499D01*
X114981038Y-120588334D01*
X114939365Y-120599500D01*
X101865892Y-120599500D01*
X101734108Y-120599500D01*
X101656200Y-120620375D01*
X101606809Y-120633609D01*
X101492690Y-120699496D01*
X101399496Y-120792690D01*
X101333609Y-120906809D01*
X101299500Y-121034109D01*
X101299500Y-161339365D01*
X101295443Y-161354506D01*
X101295951Y-161365635D01*
X101292582Y-161377872D01*
X101287016Y-161387515D01*
X101249500Y-161527525D01*
X100500500Y-161527525D01*
X100500500Y-112406893D01*
X115109500Y-112406893D01*
X115109500Y-113018106D01*
X115120123Y-113106565D01*
X115175637Y-113247339D01*
X115175638Y-113247341D01*
X115175639Y-113247342D01*
X115267078Y-113367922D01*
X115387658Y-113459361D01*
X115387659Y-113459361D01*
X115387660Y-113459362D01*
X115528433Y-113514876D01*
X115528436Y-113514877D01*
X115597304Y-113523147D01*
X115652825Y-113548858D01*
X115682631Y-113602293D01*
X115684500Y-113621441D01*
X115684500Y-113909461D01*
X115671236Y-113958961D01*
X115597017Y-114087510D01*
X115559500Y-114227525D01*
X115559500Y-114372474D01*
X115597017Y-114512489D01*
X115669487Y-114638010D01*
X115669489Y-114638012D01*
X115669491Y-114638015D01*
X115771985Y-114740509D01*
X115771987Y-114740510D01*
X115771989Y-114740512D01*
X115897511Y-114812982D01*
X115897512Y-114812982D01*
X115897515Y-114812984D01*
X116037525Y-114850500D01*
X116037526Y-114850500D01*
X116182474Y-114850500D01*
X116182475Y-114850500D01*
X116322485Y-114812984D01*
X116322487Y-114812982D01*
X116322489Y-114812982D01*
X116448010Y-114740512D01*
X116448010Y-114740511D01*
X116448015Y-114740509D01*
X116550509Y-114638015D01*
X116622984Y-114512485D01*
X116660500Y-114372475D01*
X116660500Y-114227525D01*
X116622984Y-114087515D01*
X116622982Y-114087512D01*
X116622982Y-114087510D01*
X116548764Y-113958961D01*
X116535500Y-113909461D01*
X116535500Y-113621441D01*
X116554407Y-113563250D01*
X116603907Y-113527286D01*
X116622696Y-113523147D01*
X116691564Y-113514877D01*
X116832342Y-113459361D01*
X116952922Y-113367922D01*
X117044361Y-113247342D01*
X117099877Y-113106564D01*
X117110500Y-113018102D01*
X117110500Y-112406898D01*
X117110499Y-112406893D01*
X117649500Y-112406893D01*
X117649500Y-113018106D01*
X117660123Y-113106565D01*
X117715637Y-113247339D01*
X117715638Y-113247341D01*
X117715639Y-113247342D01*
X117807078Y-113367922D01*
X117927658Y-113459361D01*
X117927659Y-113459361D01*
X117927660Y-113459362D01*
X118068433Y-113514876D01*
X118068436Y-113514877D01*
X118137304Y-113523147D01*
X118192825Y-113548858D01*
X118222631Y-113602293D01*
X118224500Y-113621441D01*
X118224500Y-114709461D01*
X118211236Y-114758961D01*
X118137017Y-114887510D01*
X118099500Y-115027525D01*
X118099500Y-115172474D01*
X118137017Y-115312489D01*
X118209487Y-115438010D01*
X118209489Y-115438012D01*
X118209491Y-115438015D01*
X118311985Y-115540509D01*
X118311987Y-115540510D01*
X118311989Y-115540512D01*
X118437511Y-115612982D01*
X118437512Y-115612982D01*
X118437515Y-115612984D01*
X118577525Y-115650500D01*
X118577526Y-115650500D01*
X118722474Y-115650500D01*
X118722475Y-115650500D01*
X118862485Y-115612984D01*
X118862487Y-115612982D01*
X118862489Y-115612982D01*
X118988010Y-115540512D01*
X118988010Y-115540511D01*
X118988015Y-115540509D01*
X119090509Y-115438015D01*
X119162984Y-115312485D01*
X119200500Y-115172475D01*
X119200500Y-115027525D01*
X119162984Y-114887515D01*
X119162982Y-114887512D01*
X119162982Y-114887510D01*
X119088764Y-114758961D01*
X119075500Y-114709461D01*
X119075500Y-113621441D01*
X119094407Y-113563250D01*
X119143907Y-113527286D01*
X119162696Y-113523147D01*
X119231564Y-113514877D01*
X119372342Y-113459361D01*
X119492922Y-113367922D01*
X119584361Y-113247342D01*
X119639877Y-113106564D01*
X119650500Y-113018102D01*
X119650500Y-112406898D01*
X119650499Y-112406893D01*
X120189500Y-112406893D01*
X120189500Y-113018106D01*
X120200123Y-113106565D01*
X120255637Y-113247339D01*
X120255638Y-113247341D01*
X120255639Y-113247342D01*
X120347078Y-113367922D01*
X120467658Y-113459361D01*
X120467659Y-113459361D01*
X120467660Y-113459362D01*
X120608433Y-113514876D01*
X120608436Y-113514877D01*
X120677304Y-113523147D01*
X120732825Y-113548858D01*
X120762631Y-113602293D01*
X120764500Y-113621441D01*
X120764500Y-115509461D01*
X120751236Y-115558961D01*
X120677017Y-115687510D01*
X120639500Y-115827525D01*
X120639500Y-115972474D01*
X120677017Y-116112489D01*
X120749487Y-116238010D01*
X120749489Y-116238012D01*
X120749491Y-116238015D01*
X120851985Y-116340509D01*
X120851987Y-116340510D01*
X120851989Y-116340512D01*
X120977511Y-116412982D01*
X120977512Y-116412982D01*
X120977515Y-116412984D01*
X121117525Y-116450500D01*
X121117526Y-116450500D01*
X121262474Y-116450500D01*
X121262475Y-116450500D01*
X121402485Y-116412984D01*
X121402487Y-116412982D01*
X121402489Y-116412982D01*
X121528010Y-116340512D01*
X121528010Y-116340511D01*
X121528015Y-116340509D01*
X121630509Y-116238015D01*
X121702984Y-116112485D01*
X121740500Y-115972475D01*
X121740500Y-115827525D01*
X121702984Y-115687515D01*
X121702982Y-115687512D01*
X121702982Y-115687510D01*
X121628764Y-115558961D01*
X121615500Y-115509461D01*
X121615500Y-113621441D01*
X121634407Y-113563250D01*
X121683907Y-113527286D01*
X121702696Y-113523147D01*
X121771564Y-113514877D01*
X121912342Y-113459361D01*
X122032922Y-113367922D01*
X122124361Y-113247342D01*
X122179877Y-113106564D01*
X122190500Y-113018102D01*
X122190500Y-112406898D01*
X122190499Y-112406893D01*
X122729500Y-112406893D01*
X122729500Y-113018106D01*
X122740123Y-113106565D01*
X122795637Y-113247339D01*
X122795638Y-113247341D01*
X122795639Y-113247342D01*
X122887078Y-113367922D01*
X123007658Y-113459361D01*
X123007659Y-113459361D01*
X123007660Y-113459362D01*
X123148433Y-113514876D01*
X123148436Y-113514877D01*
X123217304Y-113523147D01*
X123272825Y-113548858D01*
X123302631Y-113602293D01*
X123304500Y-113621441D01*
X123304500Y-116309461D01*
X123291236Y-116358961D01*
X123217017Y-116487510D01*
X123179500Y-116627525D01*
X123179500Y-116772474D01*
X123217017Y-116912489D01*
X123289487Y-117038010D01*
X123289489Y-117038012D01*
X123289491Y-117038015D01*
X123391985Y-117140509D01*
X123391987Y-117140510D01*
X123391989Y-117140512D01*
X123517511Y-117212982D01*
X123517512Y-117212982D01*
X123517515Y-117212984D01*
X123657525Y-117250500D01*
X123657526Y-117250500D01*
X123802474Y-117250500D01*
X123802475Y-117250500D01*
X123942485Y-117212984D01*
X123942487Y-117212982D01*
X123942489Y-117212982D01*
X124068010Y-117140512D01*
X124068010Y-117140511D01*
X124068015Y-117140509D01*
X124170509Y-117038015D01*
X124226803Y-116940512D01*
X124242982Y-116912489D01*
X124242982Y-116912487D01*
X124242984Y-116912485D01*
X124280500Y-116772475D01*
X124280500Y-116627525D01*
X124242984Y-116487515D01*
X124242982Y-116487512D01*
X124242982Y-116487510D01*
X124168764Y-116358961D01*
X124155500Y-116309461D01*
X124155500Y-113621441D01*
X124174407Y-113563250D01*
X124223907Y-113527286D01*
X124242696Y-113523147D01*
X124311564Y-113514877D01*
X124452342Y-113459361D01*
X124572922Y-113367922D01*
X124664361Y-113247342D01*
X124719877Y-113106564D01*
X124730500Y-113018102D01*
X124730500Y-112406898D01*
X124730499Y-112406893D01*
X125269500Y-112406893D01*
X125269500Y-113018106D01*
X125280123Y-113106565D01*
X125335637Y-113247339D01*
X125335638Y-113247341D01*
X125335639Y-113247342D01*
X125427078Y-113367922D01*
X125547658Y-113459361D01*
X125547659Y-113459361D01*
X125547660Y-113459362D01*
X125688433Y-113514876D01*
X125688436Y-113514877D01*
X125757304Y-113523147D01*
X125812825Y-113548858D01*
X125842631Y-113602293D01*
X125844500Y-113621441D01*
X125844500Y-117909461D01*
X125831236Y-117958961D01*
X125757017Y-118087510D01*
X125719500Y-118227525D01*
X125719500Y-118372474D01*
X125757017Y-118512489D01*
X125829487Y-118638010D01*
X125829489Y-118638012D01*
X125829491Y-118638015D01*
X125931985Y-118740509D01*
X125931987Y-118740510D01*
X125931989Y-118740512D01*
X126057511Y-118812982D01*
X126057512Y-118812982D01*
X126057515Y-118812984D01*
X126197525Y-118850500D01*
X126197526Y-118850500D01*
X126342474Y-118850500D01*
X126342475Y-118850500D01*
X126482485Y-118812984D01*
X126482487Y-118812982D01*
X126482489Y-118812982D01*
X126608010Y-118740512D01*
X126608010Y-118740511D01*
X126608015Y-118740509D01*
X126710509Y-118638015D01*
X126782984Y-118512485D01*
X126820500Y-118372475D01*
X126820500Y-118227525D01*
X126782984Y-118087515D01*
X126782982Y-118087512D01*
X126782982Y-118087510D01*
X126708764Y-117958961D01*
X126695500Y-117909461D01*
X126695500Y-113621441D01*
X126714407Y-113563250D01*
X126763907Y-113527286D01*
X126782696Y-113523147D01*
X126851564Y-113514877D01*
X126992342Y-113459361D01*
X127112922Y-113367922D01*
X127204361Y-113247342D01*
X127259877Y-113106564D01*
X127270500Y-113018102D01*
X127270500Y-112406898D01*
X127270499Y-112406893D01*
X127809500Y-112406893D01*
X127809500Y-113018106D01*
X127820123Y-113106565D01*
X127875637Y-113247339D01*
X127875638Y-113247341D01*
X127875639Y-113247342D01*
X127967078Y-113367922D01*
X128087658Y-113459361D01*
X128087659Y-113459361D01*
X128087660Y-113459362D01*
X128228433Y-113514876D01*
X128228436Y-113514877D01*
X128297304Y-113523147D01*
X128352825Y-113548858D01*
X128382631Y-113602293D01*
X128384500Y-113621441D01*
X128384500Y-117109461D01*
X128371236Y-117158961D01*
X128297017Y-117287510D01*
X128259500Y-117427525D01*
X128259500Y-117572474D01*
X128297017Y-117712489D01*
X128369487Y-117838010D01*
X128369489Y-117838012D01*
X128369491Y-117838015D01*
X128471985Y-117940509D01*
X128471987Y-117940510D01*
X128471989Y-117940512D01*
X128597511Y-118012982D01*
X128597512Y-118012982D01*
X128597515Y-118012984D01*
X128737525Y-118050500D01*
X128737526Y-118050500D01*
X128882474Y-118050500D01*
X128882475Y-118050500D01*
X129022485Y-118012984D01*
X129022487Y-118012982D01*
X129022489Y-118012982D01*
X129148010Y-117940512D01*
X129148010Y-117940511D01*
X129148015Y-117940509D01*
X129250509Y-117838015D01*
X129322984Y-117712485D01*
X129360500Y-117572475D01*
X129360500Y-117427525D01*
X129322984Y-117287515D01*
X129322982Y-117287512D01*
X129322982Y-117287510D01*
X129248764Y-117158961D01*
X129235500Y-117109461D01*
X129235500Y-113621441D01*
X129254407Y-113563250D01*
X129303907Y-113527286D01*
X129322696Y-113523147D01*
X129391564Y-113514877D01*
X129532342Y-113459361D01*
X129652922Y-113367922D01*
X129744361Y-113247342D01*
X129799877Y-113106564D01*
X129810500Y-113018102D01*
X129810500Y-112406898D01*
X129810499Y-112406893D01*
X130349500Y-112406893D01*
X130349500Y-113018106D01*
X130360123Y-113106565D01*
X130415637Y-113247339D01*
X130415638Y-113247341D01*
X130415639Y-113247342D01*
X130507078Y-113367922D01*
X130627658Y-113459361D01*
X130627659Y-113459361D01*
X130627660Y-113459362D01*
X130768433Y-113514876D01*
X130768436Y-113514877D01*
X130837304Y-113523147D01*
X130892825Y-113548858D01*
X130922631Y-113602293D01*
X130924500Y-113621441D01*
X130924500Y-115509461D01*
X130911236Y-115558961D01*
X130837017Y-115687510D01*
X130799500Y-115827525D01*
X130799500Y-115972474D01*
X130837017Y-116112489D01*
X130909487Y-116238010D01*
X130909489Y-116238012D01*
X130909491Y-116238015D01*
X131011985Y-116340509D01*
X131011987Y-116340510D01*
X131011989Y-116340512D01*
X131137511Y-116412982D01*
X131137512Y-116412982D01*
X131137515Y-116412984D01*
X131277525Y-116450500D01*
X131277526Y-116450500D01*
X131422474Y-116450500D01*
X131422475Y-116450500D01*
X131562485Y-116412984D01*
X131562487Y-116412982D01*
X131562489Y-116412982D01*
X131688010Y-116340512D01*
X131688010Y-116340511D01*
X131688015Y-116340509D01*
X131790509Y-116238015D01*
X131862984Y-116112485D01*
X131900500Y-115972475D01*
X131900500Y-115827525D01*
X131862984Y-115687515D01*
X131862982Y-115687512D01*
X131862982Y-115687510D01*
X131788764Y-115558961D01*
X131775500Y-115509461D01*
X131775500Y-113621441D01*
X131794407Y-113563250D01*
X131843907Y-113527286D01*
X131862696Y-113523147D01*
X131931564Y-113514877D01*
X132072342Y-113459361D01*
X132192922Y-113367922D01*
X132284361Y-113247342D01*
X132339877Y-113106564D01*
X132350500Y-113018102D01*
X132350500Y-112406898D01*
X132350499Y-112406893D01*
X132889500Y-112406893D01*
X132889500Y-113018106D01*
X132900123Y-113106565D01*
X132955637Y-113247339D01*
X132955638Y-113247341D01*
X132955639Y-113247342D01*
X133047078Y-113367922D01*
X133167658Y-113459361D01*
X133167659Y-113459361D01*
X133167660Y-113459362D01*
X133308433Y-113514876D01*
X133308436Y-113514877D01*
X133377304Y-113523147D01*
X133432825Y-113548858D01*
X133462631Y-113602293D01*
X133464500Y-113621441D01*
X133464500Y-116109461D01*
X133451236Y-116158961D01*
X133377017Y-116287510D01*
X133339500Y-116427525D01*
X133339500Y-116572474D01*
X133377017Y-116712489D01*
X133449487Y-116838010D01*
X133449489Y-116838012D01*
X133449491Y-116838015D01*
X133551985Y-116940509D01*
X133551987Y-116940510D01*
X133551989Y-116940512D01*
X133677511Y-117012982D01*
X133677512Y-117012982D01*
X133677515Y-117012984D01*
X133817525Y-117050500D01*
X133817526Y-117050500D01*
X133962474Y-117050500D01*
X133962475Y-117050500D01*
X134102485Y-117012984D01*
X134102487Y-117012982D01*
X134102489Y-117012982D01*
X134228010Y-116940512D01*
X134228010Y-116940511D01*
X134228015Y-116940509D01*
X134330509Y-116838015D01*
X134402984Y-116712485D01*
X134440500Y-116572475D01*
X134440500Y-116427525D01*
X134402984Y-116287515D01*
X134402982Y-116287512D01*
X134402982Y-116287510D01*
X134328764Y-116158961D01*
X134315500Y-116109461D01*
X134315500Y-113621441D01*
X134334407Y-113563250D01*
X134383907Y-113527286D01*
X134402696Y-113523147D01*
X134471564Y-113514877D01*
X134612342Y-113459361D01*
X134732922Y-113367922D01*
X134824361Y-113247342D01*
X134879877Y-113106564D01*
X134890500Y-113018102D01*
X134890500Y-112406898D01*
X134879877Y-112318436D01*
X134824361Y-112177658D01*
X134732922Y-112057078D01*
X134612342Y-111965639D01*
X134612341Y-111965638D01*
X134612339Y-111965637D01*
X134471565Y-111910123D01*
X134383106Y-111899500D01*
X134383102Y-111899500D01*
X133396898Y-111899500D01*
X133396893Y-111899500D01*
X133308434Y-111910123D01*
X133167660Y-111965637D01*
X133167656Y-111965640D01*
X133047081Y-112057075D01*
X133047075Y-112057081D01*
X132955640Y-112177656D01*
X132955637Y-112177660D01*
X132900123Y-112318434D01*
X132889500Y-112406893D01*
X132350499Y-112406893D01*
X132339877Y-112318436D01*
X132284361Y-112177658D01*
X132192922Y-112057078D01*
X132072342Y-111965639D01*
X132072341Y-111965638D01*
X132072339Y-111965637D01*
X131931565Y-111910123D01*
X131843106Y-111899500D01*
X131843102Y-111899500D01*
X130856898Y-111899500D01*
X130856893Y-111899500D01*
X130768434Y-111910123D01*
X130627660Y-111965637D01*
X130627656Y-111965640D01*
X130507081Y-112057075D01*
X130507075Y-112057081D01*
X130415640Y-112177656D01*
X130415637Y-112177660D01*
X130360123Y-112318434D01*
X130349500Y-112406893D01*
X129810499Y-112406893D01*
X129799877Y-112318436D01*
X129744361Y-112177658D01*
X129652922Y-112057078D01*
X129532342Y-111965639D01*
X129532341Y-111965638D01*
X129532339Y-111965637D01*
X129391565Y-111910123D01*
X129303106Y-111899500D01*
X129303102Y-111899500D01*
X128316898Y-111899500D01*
X128316893Y-111899500D01*
X128228434Y-111910123D01*
X128087660Y-111965637D01*
X128087656Y-111965640D01*
X127967081Y-112057075D01*
X127967075Y-112057081D01*
X127875640Y-112177656D01*
X127875637Y-112177660D01*
X127820123Y-112318434D01*
X127809500Y-112406893D01*
X127270499Y-112406893D01*
X127259877Y-112318436D01*
X127204361Y-112177658D01*
X127112922Y-112057078D01*
X126992342Y-111965639D01*
X126992341Y-111965638D01*
X126992339Y-111965637D01*
X126851565Y-111910123D01*
X126763106Y-111899500D01*
X126763102Y-111899500D01*
X125776898Y-111899500D01*
X125776893Y-111899500D01*
X125688434Y-111910123D01*
X125547660Y-111965637D01*
X125547656Y-111965640D01*
X125427081Y-112057075D01*
X125427075Y-112057081D01*
X125335640Y-112177656D01*
X125335637Y-112177660D01*
X125280123Y-112318434D01*
X125269500Y-112406893D01*
X124730499Y-112406893D01*
X124719877Y-112318436D01*
X124664361Y-112177658D01*
X124572922Y-112057078D01*
X124452342Y-111965639D01*
X124452341Y-111965638D01*
X124452339Y-111965637D01*
X124311565Y-111910123D01*
X124223106Y-111899500D01*
X124223102Y-111899500D01*
X123236898Y-111899500D01*
X123236893Y-111899500D01*
X123148434Y-111910123D01*
X123007660Y-111965637D01*
X123007656Y-111965640D01*
X122887081Y-112057075D01*
X122887075Y-112057081D01*
X122795640Y-112177656D01*
X122795637Y-112177660D01*
X122740123Y-112318434D01*
X122729500Y-112406893D01*
X122190499Y-112406893D01*
X122179877Y-112318436D01*
X122124361Y-112177658D01*
X122032922Y-112057078D01*
X121912342Y-111965639D01*
X121912341Y-111965638D01*
X121912339Y-111965637D01*
X121771565Y-111910123D01*
X121683106Y-111899500D01*
X121683102Y-111899500D01*
X120696898Y-111899500D01*
X120696893Y-111899500D01*
X120608434Y-111910123D01*
X120467660Y-111965637D01*
X120467656Y-111965640D01*
X120347081Y-112057075D01*
X120347075Y-112057081D01*
X120255640Y-112177656D01*
X120255637Y-112177660D01*
X120200123Y-112318434D01*
X120189500Y-112406893D01*
X119650499Y-112406893D01*
X119639877Y-112318436D01*
X119584361Y-112177658D01*
X119492922Y-112057078D01*
X119372342Y-111965639D01*
X119372341Y-111965638D01*
X119372339Y-111965637D01*
X119231565Y-111910123D01*
X119143106Y-111899500D01*
X119143102Y-111899500D01*
X118156898Y-111899500D01*
X118156893Y-111899500D01*
X118068434Y-111910123D01*
X117927660Y-111965637D01*
X117927656Y-111965640D01*
X117807081Y-112057075D01*
X117807075Y-112057081D01*
X117715640Y-112177656D01*
X117715637Y-112177660D01*
X117660123Y-112318434D01*
X117649500Y-112406893D01*
X117110499Y-112406893D01*
X117099877Y-112318436D01*
X117044361Y-112177658D01*
X116952922Y-112057078D01*
X116832342Y-111965639D01*
X116832341Y-111965638D01*
X116832339Y-111965637D01*
X116691565Y-111910123D01*
X116603106Y-111899500D01*
X116603102Y-111899500D01*
X115616898Y-111899500D01*
X115616893Y-111899500D01*
X115528434Y-111910123D01*
X115387660Y-111965637D01*
X115387656Y-111965640D01*
X115267081Y-112057075D01*
X115267075Y-112057081D01*
X115175640Y-112177656D01*
X115175637Y-112177660D01*
X115120123Y-112318434D01*
X115109500Y-112406893D01*
X100500500Y-112406893D01*
X100500500Y-106489450D01*
X114959500Y-106489450D01*
X114959500Y-106670549D01*
X114987828Y-106849406D01*
X114987829Y-106849409D01*
X115043789Y-107021639D01*
X115126004Y-107182994D01*
X115232447Y-107329501D01*
X115360499Y-107457553D01*
X115507006Y-107563996D01*
X115630446Y-107626892D01*
X115673710Y-107670156D01*
X115684500Y-107715101D01*
X115684500Y-109978558D01*
X115665593Y-110036749D01*
X115616093Y-110072713D01*
X115597305Y-110076852D01*
X115528433Y-110085123D01*
X115387660Y-110140637D01*
X115387656Y-110140640D01*
X115267081Y-110232075D01*
X115267075Y-110232081D01*
X115175640Y-110352656D01*
X115175637Y-110352660D01*
X115120123Y-110493434D01*
X115109500Y-110581893D01*
X115109500Y-111193106D01*
X115120123Y-111281565D01*
X115175637Y-111422339D01*
X115175638Y-111422341D01*
X115175639Y-111422342D01*
X115267078Y-111542922D01*
X115387658Y-111634361D01*
X115387659Y-111634361D01*
X115387660Y-111634362D01*
X115458047Y-111662119D01*
X115528436Y-111689877D01*
X115616898Y-111700500D01*
X115616900Y-111700500D01*
X116603100Y-111700500D01*
X116603102Y-111700500D01*
X116691564Y-111689877D01*
X116832342Y-111634361D01*
X116952922Y-111542922D01*
X117044361Y-111422342D01*
X117099877Y-111281564D01*
X117110500Y-111193102D01*
X117110500Y-110581898D01*
X117099877Y-110493436D01*
X117044361Y-110352658D01*
X116952922Y-110232078D01*
X116832342Y-110140639D01*
X116832341Y-110140638D01*
X116832339Y-110140637D01*
X116691566Y-110085123D01*
X116622695Y-110076852D01*
X116567174Y-110051140D01*
X116537369Y-109997705D01*
X116535500Y-109978558D01*
X116535500Y-107715101D01*
X116554407Y-107656910D01*
X116589552Y-107626892D01*
X116712994Y-107563996D01*
X116859501Y-107457553D01*
X116987553Y-107329501D01*
X117093996Y-107182994D01*
X117176211Y-107021639D01*
X117232171Y-106849409D01*
X117260500Y-106670546D01*
X117260500Y-106489454D01*
X117260500Y-106489450D01*
X117499500Y-106489450D01*
X117499500Y-106670549D01*
X117527828Y-106849406D01*
X117527829Y-106849409D01*
X117583789Y-107021639D01*
X117666004Y-107182994D01*
X117772447Y-107329501D01*
X117900499Y-107457553D01*
X118047006Y-107563996D01*
X118170446Y-107626892D01*
X118213710Y-107670156D01*
X118224500Y-107715101D01*
X118224500Y-109978558D01*
X118205593Y-110036749D01*
X118156093Y-110072713D01*
X118137305Y-110076852D01*
X118068433Y-110085123D01*
X117927660Y-110140637D01*
X117927656Y-110140640D01*
X117807081Y-110232075D01*
X117807075Y-110232081D01*
X117715640Y-110352656D01*
X117715637Y-110352660D01*
X117660123Y-110493434D01*
X117649500Y-110581893D01*
X117649500Y-111193106D01*
X117660123Y-111281565D01*
X117715637Y-111422339D01*
X117715638Y-111422341D01*
X117715639Y-111422342D01*
X117807078Y-111542922D01*
X117927658Y-111634361D01*
X117927659Y-111634361D01*
X117927660Y-111634362D01*
X117998047Y-111662119D01*
X118068436Y-111689877D01*
X118156898Y-111700500D01*
X118156900Y-111700500D01*
X119143100Y-111700500D01*
X119143102Y-111700500D01*
X119231564Y-111689877D01*
X119372342Y-111634361D01*
X119492922Y-111542922D01*
X119584361Y-111422342D01*
X119639877Y-111281564D01*
X119650500Y-111193102D01*
X119650500Y-110581898D01*
X119639877Y-110493436D01*
X119584361Y-110352658D01*
X119492922Y-110232078D01*
X119372342Y-110140639D01*
X119372341Y-110140638D01*
X119372339Y-110140637D01*
X119231566Y-110085123D01*
X119162695Y-110076852D01*
X119107174Y-110051140D01*
X119077369Y-109997705D01*
X119075500Y-109978558D01*
X119075500Y-107715101D01*
X119094407Y-107656910D01*
X119129552Y-107626892D01*
X119252994Y-107563996D01*
X119399501Y-107457553D01*
X119527553Y-107329501D01*
X119633996Y-107182994D01*
X119716211Y-107021639D01*
X119772171Y-106849409D01*
X119800500Y-106670546D01*
X119800500Y-106489454D01*
X119800500Y-106489450D01*
X120039500Y-106489450D01*
X120039500Y-106670549D01*
X120067828Y-106849406D01*
X120067829Y-106849409D01*
X120123789Y-107021639D01*
X120206004Y-107182994D01*
X120312447Y-107329501D01*
X120440499Y-107457553D01*
X120587006Y-107563996D01*
X120710446Y-107626892D01*
X120753710Y-107670156D01*
X120764500Y-107715101D01*
X120764500Y-109978558D01*
X120745593Y-110036749D01*
X120696093Y-110072713D01*
X120677305Y-110076852D01*
X120608433Y-110085123D01*
X120467660Y-110140637D01*
X120467656Y-110140640D01*
X120347081Y-110232075D01*
X120347075Y-110232081D01*
X120255640Y-110352656D01*
X120255637Y-110352660D01*
X120200123Y-110493434D01*
X120189500Y-110581893D01*
X120189500Y-111193106D01*
X120200123Y-111281565D01*
X120255637Y-111422339D01*
X120255638Y-111422341D01*
X120255639Y-111422342D01*
X120347078Y-111542922D01*
X120467658Y-111634361D01*
X120467659Y-111634361D01*
X120467660Y-111634362D01*
X120538047Y-111662119D01*
X120608436Y-111689877D01*
X120696898Y-111700500D01*
X120696900Y-111700500D01*
X121683100Y-111700500D01*
X121683102Y-111700500D01*
X121771564Y-111689877D01*
X121912342Y-111634361D01*
X122032922Y-111542922D01*
X122124361Y-111422342D01*
X122179877Y-111281564D01*
X122190500Y-111193102D01*
X122190500Y-110581898D01*
X122179877Y-110493436D01*
X122124361Y-110352658D01*
X122032922Y-110232078D01*
X121912342Y-110140639D01*
X121912341Y-110140638D01*
X121912339Y-110140637D01*
X121771566Y-110085123D01*
X121702695Y-110076852D01*
X121647174Y-110051140D01*
X121617369Y-109997705D01*
X121615500Y-109978558D01*
X121615500Y-107715101D01*
X121634407Y-107656910D01*
X121669552Y-107626892D01*
X121792994Y-107563996D01*
X121939501Y-107457553D01*
X122067553Y-107329501D01*
X122173996Y-107182994D01*
X122256211Y-107021639D01*
X122312171Y-106849409D01*
X122340500Y-106670546D01*
X122340500Y-106489454D01*
X122340500Y-106489450D01*
X122579500Y-106489450D01*
X122579500Y-106670549D01*
X122607828Y-106849406D01*
X122607829Y-106849409D01*
X122663789Y-107021639D01*
X122746004Y-107182994D01*
X122852447Y-107329501D01*
X122980499Y-107457553D01*
X123127006Y-107563996D01*
X123250446Y-107626892D01*
X123293710Y-107670156D01*
X123304500Y-107715101D01*
X123304500Y-109978558D01*
X123285593Y-110036749D01*
X123236093Y-110072713D01*
X123217305Y-110076852D01*
X123148433Y-110085123D01*
X123007660Y-110140637D01*
X123007656Y-110140640D01*
X122887081Y-110232075D01*
X122887075Y-110232081D01*
X122795640Y-110352656D01*
X122795637Y-110352660D01*
X122740123Y-110493434D01*
X122729500Y-110581893D01*
X122729500Y-111193106D01*
X122740123Y-111281565D01*
X122795637Y-111422339D01*
X122795638Y-111422341D01*
X122795639Y-111422342D01*
X122887078Y-111542922D01*
X123007658Y-111634361D01*
X123007659Y-111634361D01*
X123007660Y-111634362D01*
X123078047Y-111662119D01*
X123148436Y-111689877D01*
X123236898Y-111700500D01*
X123236900Y-111700500D01*
X124223100Y-111700500D01*
X124223102Y-111700500D01*
X124311564Y-111689877D01*
X124452342Y-111634361D01*
X124572922Y-111542922D01*
X124664361Y-111422342D01*
X124719877Y-111281564D01*
X124730500Y-111193102D01*
X124730500Y-110581898D01*
X124719877Y-110493436D01*
X124664361Y-110352658D01*
X124572922Y-110232078D01*
X124452342Y-110140639D01*
X124452341Y-110140638D01*
X124452339Y-110140637D01*
X124311566Y-110085123D01*
X124242695Y-110076852D01*
X124187174Y-110051140D01*
X124157369Y-109997705D01*
X124155500Y-109978558D01*
X124155500Y-107715101D01*
X124174407Y-107656910D01*
X124209552Y-107626892D01*
X124332994Y-107563996D01*
X124479501Y-107457553D01*
X124607553Y-107329501D01*
X124713996Y-107182994D01*
X124796211Y-107021639D01*
X124852171Y-106849409D01*
X124880500Y-106670546D01*
X124880500Y-106489454D01*
X124880500Y-106489450D01*
X125119500Y-106489450D01*
X125119500Y-106670549D01*
X125147828Y-106849406D01*
X125147829Y-106849409D01*
X125203789Y-107021639D01*
X125286004Y-107182994D01*
X125392447Y-107329501D01*
X125520499Y-107457553D01*
X125667006Y-107563996D01*
X125790446Y-107626892D01*
X125833710Y-107670156D01*
X125844500Y-107715101D01*
X125844500Y-109978558D01*
X125825593Y-110036749D01*
X125776093Y-110072713D01*
X125757305Y-110076852D01*
X125688433Y-110085123D01*
X125547660Y-110140637D01*
X125547656Y-110140640D01*
X125427081Y-110232075D01*
X125427075Y-110232081D01*
X125335640Y-110352656D01*
X125335637Y-110352660D01*
X125280123Y-110493434D01*
X125269500Y-110581893D01*
X125269500Y-111193106D01*
X125280123Y-111281565D01*
X125335637Y-111422339D01*
X125335638Y-111422341D01*
X125335639Y-111422342D01*
X125427078Y-111542922D01*
X125547658Y-111634361D01*
X125547659Y-111634361D01*
X125547660Y-111634362D01*
X125618047Y-111662119D01*
X125688436Y-111689877D01*
X125776898Y-111700500D01*
X125776900Y-111700500D01*
X126763100Y-111700500D01*
X126763102Y-111700500D01*
X126851564Y-111689877D01*
X126992342Y-111634361D01*
X127112922Y-111542922D01*
X127204361Y-111422342D01*
X127259877Y-111281564D01*
X127270500Y-111193102D01*
X127270500Y-110581898D01*
X127259877Y-110493436D01*
X127204361Y-110352658D01*
X127112922Y-110232078D01*
X126992342Y-110140639D01*
X126992341Y-110140638D01*
X126992339Y-110140637D01*
X126851566Y-110085123D01*
X126782695Y-110076852D01*
X126727174Y-110051140D01*
X126697369Y-109997705D01*
X126695500Y-109978558D01*
X126695500Y-107715101D01*
X126714407Y-107656910D01*
X126749552Y-107626892D01*
X126872994Y-107563996D01*
X127019501Y-107457553D01*
X127147553Y-107329501D01*
X127253996Y-107182994D01*
X127336211Y-107021639D01*
X127392171Y-106849409D01*
X127420500Y-106670546D01*
X127420500Y-106489454D01*
X127420500Y-106489450D01*
X127659500Y-106489450D01*
X127659500Y-106670549D01*
X127687828Y-106849406D01*
X127687829Y-106849409D01*
X127743789Y-107021639D01*
X127826004Y-107182994D01*
X127932447Y-107329501D01*
X128060499Y-107457553D01*
X128207006Y-107563996D01*
X128330446Y-107626892D01*
X128373710Y-107670156D01*
X128384500Y-107715101D01*
X128384500Y-109978558D01*
X128365593Y-110036749D01*
X128316093Y-110072713D01*
X128297305Y-110076852D01*
X128228433Y-110085123D01*
X128087660Y-110140637D01*
X128087656Y-110140640D01*
X127967081Y-110232075D01*
X127967075Y-110232081D01*
X127875640Y-110352656D01*
X127875637Y-110352660D01*
X127820123Y-110493434D01*
X127809500Y-110581893D01*
X127809500Y-111193106D01*
X127820123Y-111281565D01*
X127875637Y-111422339D01*
X127875638Y-111422341D01*
X127875639Y-111422342D01*
X127967078Y-111542922D01*
X128087658Y-111634361D01*
X128087659Y-111634361D01*
X128087660Y-111634362D01*
X128158047Y-111662119D01*
X128228436Y-111689877D01*
X128316898Y-111700500D01*
X128316900Y-111700500D01*
X129303100Y-111700500D01*
X129303102Y-111700500D01*
X129391564Y-111689877D01*
X129532342Y-111634361D01*
X129652922Y-111542922D01*
X129744361Y-111422342D01*
X129799877Y-111281564D01*
X129810500Y-111193102D01*
X129810500Y-110581898D01*
X129799877Y-110493436D01*
X129744361Y-110352658D01*
X129652922Y-110232078D01*
X129532342Y-110140639D01*
X129532341Y-110140638D01*
X129532339Y-110140637D01*
X129391566Y-110085123D01*
X129322695Y-110076852D01*
X129267174Y-110051140D01*
X129237369Y-109997705D01*
X129235500Y-109978558D01*
X129235500Y-107715101D01*
X129254407Y-107656910D01*
X129289552Y-107626892D01*
X129412994Y-107563996D01*
X129559501Y-107457553D01*
X129687553Y-107329501D01*
X129793996Y-107182994D01*
X129876211Y-107021639D01*
X129932171Y-106849409D01*
X129960500Y-106670546D01*
X129960500Y-106489454D01*
X129960500Y-106489450D01*
X130199500Y-106489450D01*
X130199500Y-106670549D01*
X130227828Y-106849406D01*
X130227829Y-106849409D01*
X130283789Y-107021639D01*
X130366004Y-107182994D01*
X130472447Y-107329501D01*
X130600499Y-107457553D01*
X130747006Y-107563996D01*
X130870446Y-107626892D01*
X130913710Y-107670156D01*
X130924500Y-107715101D01*
X130924500Y-109978558D01*
X130905593Y-110036749D01*
X130856093Y-110072713D01*
X130837305Y-110076852D01*
X130768433Y-110085123D01*
X130627660Y-110140637D01*
X130627656Y-110140640D01*
X130507081Y-110232075D01*
X130507075Y-110232081D01*
X130415640Y-110352656D01*
X130415637Y-110352660D01*
X130360123Y-110493434D01*
X130349500Y-110581893D01*
X130349500Y-111193106D01*
X130360123Y-111281565D01*
X130415637Y-111422339D01*
X130415638Y-111422341D01*
X130415639Y-111422342D01*
X130507078Y-111542922D01*
X130627658Y-111634361D01*
X130627659Y-111634361D01*
X130627660Y-111634362D01*
X130698047Y-111662119D01*
X130768436Y-111689877D01*
X130856898Y-111700500D01*
X130856900Y-111700500D01*
X131843100Y-111700500D01*
X131843102Y-111700500D01*
X131931564Y-111689877D01*
X132072342Y-111634361D01*
X132192922Y-111542922D01*
X132284361Y-111422342D01*
X132339877Y-111281564D01*
X132350500Y-111193102D01*
X132350500Y-110581898D01*
X132339877Y-110493436D01*
X132284361Y-110352658D01*
X132192922Y-110232078D01*
X132072342Y-110140639D01*
X132072341Y-110140638D01*
X132072339Y-110140637D01*
X131931566Y-110085123D01*
X131862695Y-110076852D01*
X131807174Y-110051140D01*
X131777369Y-109997705D01*
X131775500Y-109978558D01*
X131775500Y-107715101D01*
X131794407Y-107656910D01*
X131829552Y-107626892D01*
X131952994Y-107563996D01*
X132099501Y-107457553D01*
X132227553Y-107329501D01*
X132333996Y-107182994D01*
X132416211Y-107021639D01*
X132472171Y-106849409D01*
X132500500Y-106670546D01*
X132500500Y-106489454D01*
X132500500Y-106489450D01*
X132739500Y-106489450D01*
X132739500Y-106670549D01*
X132767828Y-106849406D01*
X132767829Y-106849409D01*
X132823789Y-107021639D01*
X132906004Y-107182994D01*
X133012447Y-107329501D01*
X133140499Y-107457553D01*
X133287006Y-107563996D01*
X133410446Y-107626892D01*
X133453710Y-107670156D01*
X133464500Y-107715101D01*
X133464500Y-109978558D01*
X133445593Y-110036749D01*
X133396093Y-110072713D01*
X133377305Y-110076852D01*
X133308433Y-110085123D01*
X133167660Y-110140637D01*
X133167656Y-110140640D01*
X133047081Y-110232075D01*
X133047075Y-110232081D01*
X132955640Y-110352656D01*
X132955637Y-110352660D01*
X132900123Y-110493434D01*
X132889500Y-110581893D01*
X132889500Y-111193106D01*
X132900123Y-111281565D01*
X132955637Y-111422339D01*
X132955638Y-111422341D01*
X132955639Y-111422342D01*
X133047078Y-111542922D01*
X133167658Y-111634361D01*
X133167659Y-111634361D01*
X133167660Y-111634362D01*
X133238047Y-111662119D01*
X133308436Y-111689877D01*
X133396898Y-111700500D01*
X133396900Y-111700500D01*
X134383100Y-111700500D01*
X134383102Y-111700500D01*
X134471564Y-111689877D01*
X134612342Y-111634361D01*
X134732922Y-111542922D01*
X134824361Y-111422342D01*
X134879877Y-111281564D01*
X134890500Y-111193102D01*
X134890500Y-110581898D01*
X134879877Y-110493436D01*
X134824361Y-110352658D01*
X134732922Y-110232078D01*
X134612342Y-110140639D01*
X134612341Y-110140638D01*
X134612339Y-110140637D01*
X134471566Y-110085123D01*
X134402695Y-110076852D01*
X134347174Y-110051140D01*
X134317369Y-109997705D01*
X134315500Y-109978558D01*
X134315500Y-107715101D01*
X134334407Y-107656910D01*
X134369552Y-107626892D01*
X134492994Y-107563996D01*
X134639501Y-107457553D01*
X134767553Y-107329501D01*
X134873996Y-107182994D01*
X134956211Y-107021639D01*
X135012171Y-106849409D01*
X135040500Y-106670546D01*
X135040500Y-106489454D01*
X135040500Y-106489450D01*
X135012171Y-106310593D01*
X135012171Y-106310591D01*
X134956211Y-106138361D01*
X134873996Y-105977006D01*
X134767553Y-105830499D01*
X134639501Y-105702447D01*
X134492994Y-105596004D01*
X134492993Y-105596003D01*
X134492991Y-105596002D01*
X134331637Y-105513788D01*
X134159406Y-105457828D01*
X133980549Y-105429500D01*
X133980546Y-105429500D01*
X133799454Y-105429500D01*
X133799451Y-105429500D01*
X133620593Y-105457828D01*
X133448362Y-105513788D01*
X133287008Y-105596002D01*
X133213752Y-105649225D01*
X133140499Y-105702447D01*
X133012447Y-105830499D01*
X132959225Y-105903752D01*
X132906002Y-105977008D01*
X132823788Y-106138362D01*
X132767828Y-106310593D01*
X132739500Y-106489450D01*
X132500500Y-106489450D01*
X132472171Y-106310593D01*
X132472171Y-106310591D01*
X132416211Y-106138361D01*
X132333996Y-105977006D01*
X132227553Y-105830499D01*
X132099501Y-105702447D01*
X131952994Y-105596004D01*
X131952993Y-105596003D01*
X131952991Y-105596002D01*
X131791637Y-105513788D01*
X131619406Y-105457828D01*
X131440549Y-105429500D01*
X131440546Y-105429500D01*
X131259454Y-105429500D01*
X131259451Y-105429500D01*
X131080593Y-105457828D01*
X130908362Y-105513788D01*
X130747008Y-105596002D01*
X130673752Y-105649225D01*
X130600499Y-105702447D01*
X130472447Y-105830499D01*
X130419225Y-105903752D01*
X130366002Y-105977008D01*
X130283788Y-106138362D01*
X130227828Y-106310593D01*
X130199500Y-106489450D01*
X129960500Y-106489450D01*
X129932171Y-106310593D01*
X129932171Y-106310591D01*
X129876211Y-106138361D01*
X129793996Y-105977006D01*
X129687553Y-105830499D01*
X129559501Y-105702447D01*
X129412994Y-105596004D01*
X129412993Y-105596003D01*
X129412991Y-105596002D01*
X129251637Y-105513788D01*
X129079406Y-105457828D01*
X128900549Y-105429500D01*
X128900546Y-105429500D01*
X128719454Y-105429500D01*
X128719451Y-105429500D01*
X128540593Y-105457828D01*
X128368362Y-105513788D01*
X128207008Y-105596002D01*
X128133752Y-105649225D01*
X128060499Y-105702447D01*
X127932447Y-105830499D01*
X127879225Y-105903752D01*
X127826002Y-105977008D01*
X127743788Y-106138362D01*
X127687828Y-106310593D01*
X127659500Y-106489450D01*
X127420500Y-106489450D01*
X127392171Y-106310593D01*
X127392171Y-106310591D01*
X127336211Y-106138361D01*
X127253996Y-105977006D01*
X127147553Y-105830499D01*
X127019501Y-105702447D01*
X126872994Y-105596004D01*
X126872993Y-105596003D01*
X126872991Y-105596002D01*
X126711637Y-105513788D01*
X126539406Y-105457828D01*
X126360549Y-105429500D01*
X126360546Y-105429500D01*
X126179454Y-105429500D01*
X126179451Y-105429500D01*
X126000593Y-105457828D01*
X125828362Y-105513788D01*
X125667008Y-105596002D01*
X125593752Y-105649225D01*
X125520499Y-105702447D01*
X125392447Y-105830499D01*
X125339225Y-105903752D01*
X125286002Y-105977008D01*
X125203788Y-106138362D01*
X125147828Y-106310593D01*
X125119500Y-106489450D01*
X124880500Y-106489450D01*
X124852171Y-106310593D01*
X124852171Y-106310591D01*
X124796211Y-106138361D01*
X124713996Y-105977006D01*
X124607553Y-105830499D01*
X124479501Y-105702447D01*
X124332994Y-105596004D01*
X124332993Y-105596003D01*
X124332991Y-105596002D01*
X124171637Y-105513788D01*
X123999406Y-105457828D01*
X123820549Y-105429500D01*
X123820546Y-105429500D01*
X123639454Y-105429500D01*
X123639451Y-105429500D01*
X123460593Y-105457828D01*
X123288362Y-105513788D01*
X123127008Y-105596002D01*
X123053752Y-105649225D01*
X122980499Y-105702447D01*
X122852447Y-105830499D01*
X122799225Y-105903752D01*
X122746002Y-105977008D01*
X122663788Y-106138362D01*
X122607828Y-106310593D01*
X122579500Y-106489450D01*
X122340500Y-106489450D01*
X122312171Y-106310593D01*
X122312171Y-106310591D01*
X122256211Y-106138361D01*
X122173996Y-105977006D01*
X122067553Y-105830499D01*
X121939501Y-105702447D01*
X121792994Y-105596004D01*
X121792993Y-105596003D01*
X121792991Y-105596002D01*
X121631637Y-105513788D01*
X121459406Y-105457828D01*
X121280549Y-105429500D01*
X121280546Y-105429500D01*
X121099454Y-105429500D01*
X121099451Y-105429500D01*
X120920593Y-105457828D01*
X120748362Y-105513788D01*
X120587008Y-105596002D01*
X120513752Y-105649225D01*
X120440499Y-105702447D01*
X120312447Y-105830499D01*
X120259225Y-105903752D01*
X120206002Y-105977008D01*
X120123788Y-106138362D01*
X120067828Y-106310593D01*
X120039500Y-106489450D01*
X119800500Y-106489450D01*
X119772171Y-106310593D01*
X119772171Y-106310591D01*
X119716211Y-106138361D01*
X119633996Y-105977006D01*
X119527553Y-105830499D01*
X119399501Y-105702447D01*
X119252994Y-105596004D01*
X119252993Y-105596003D01*
X119252991Y-105596002D01*
X119091637Y-105513788D01*
X118919406Y-105457828D01*
X118740549Y-105429500D01*
X118740546Y-105429500D01*
X118559454Y-105429500D01*
X118559451Y-105429500D01*
X118380593Y-105457828D01*
X118208362Y-105513788D01*
X118047008Y-105596002D01*
X117973752Y-105649225D01*
X117900499Y-105702447D01*
X117772447Y-105830499D01*
X117719225Y-105903752D01*
X117666002Y-105977008D01*
X117583788Y-106138362D01*
X117527828Y-106310593D01*
X117499500Y-106489450D01*
X117260500Y-106489450D01*
X117232171Y-106310593D01*
X117232171Y-106310591D01*
X117176211Y-106138361D01*
X117093996Y-105977006D01*
X116987553Y-105830499D01*
X116859501Y-105702447D01*
X116712994Y-105596004D01*
X116712993Y-105596003D01*
X116712991Y-105596002D01*
X116551637Y-105513788D01*
X116379406Y-105457828D01*
X116200549Y-105429500D01*
X116200546Y-105429500D01*
X116019454Y-105429500D01*
X116019451Y-105429500D01*
X115840593Y-105457828D01*
X115668362Y-105513788D01*
X115507008Y-105596002D01*
X115433752Y-105649225D01*
X115360499Y-105702447D01*
X115232447Y-105830499D01*
X115179225Y-105903752D01*
X115126002Y-105977008D01*
X115043788Y-106138362D01*
X114987828Y-106310593D01*
X114959500Y-106489450D01*
X100500500Y-106489450D01*
X100500500Y-100599500D01*
X100519407Y-100541309D01*
X100568907Y-100505345D01*
X100599500Y-100500500D01*
X149400500Y-100500500D01*
X149458691Y-100519407D01*
G37*
%TD.AperFunction*%
%TD*%
%TA.AperFunction,NonConductor*%
G36*
X129883691Y-120869407D02*
G01*
X129919655Y-120918907D01*
X129924500Y-120949500D01*
X129924500Y-126825500D01*
X129905593Y-126883691D01*
X129856093Y-126919655D01*
X129825501Y-126924500D01*
X129668479Y-126924500D01*
X129668476Y-126924501D01*
X129574700Y-126939352D01*
X129574695Y-126939354D01*
X129461659Y-126996949D01*
X129371949Y-127086659D01*
X129314354Y-127199695D01*
X129299500Y-127293477D01*
X129299500Y-127556520D01*
X129299501Y-127556521D01*
X129314352Y-127650299D01*
X129314353Y-127650302D01*
X129342251Y-127705057D01*
X129351821Y-127765489D01*
X129342251Y-127794943D01*
X129314354Y-127849696D01*
X129299500Y-127943479D01*
X129299500Y-128108117D01*
X129280593Y-128166308D01*
X129231093Y-128202272D01*
X129174510Y-128203645D01*
X129169993Y-128202415D01*
X129169991Y-128202415D01*
X129169988Y-128202414D01*
X129169986Y-128202414D01*
X129144869Y-128199500D01*
X129144865Y-128199500D01*
X128099500Y-128199500D01*
X128041309Y-128180593D01*
X128005345Y-128131093D01*
X128000500Y-128100500D01*
X128000500Y-121034109D01*
X128000500Y-121034108D01*
X127984695Y-120975122D01*
X127987898Y-120914021D01*
X128026403Y-120866471D01*
X128080322Y-120850500D01*
X129825500Y-120850500D01*
X129883691Y-120869407D01*
G37*
%TD.AperFunction*%
%TA.AperFunction,NonConductor*%
G36*
X115879419Y-121192048D02*
G01*
X115917925Y-121239598D01*
X115924500Y-121275076D01*
X115924500Y-126825500D01*
X115905593Y-126883691D01*
X115856093Y-126919655D01*
X115825501Y-126924500D01*
X115668479Y-126924500D01*
X115668476Y-126924501D01*
X115574700Y-126939352D01*
X115574695Y-126939354D01*
X115461659Y-126996949D01*
X115371949Y-127086659D01*
X115314354Y-127199695D01*
X115299500Y-127293477D01*
X115299500Y-127556520D01*
X115299501Y-127556521D01*
X115314352Y-127650299D01*
X115314353Y-127650302D01*
X115342251Y-127705057D01*
X115351821Y-127765489D01*
X115342251Y-127794943D01*
X115314354Y-127849696D01*
X115299500Y-127943479D01*
X115299500Y-128108117D01*
X115280593Y-128166308D01*
X115231093Y-128202272D01*
X115174510Y-128203645D01*
X115169993Y-128202415D01*
X115169991Y-128202415D01*
X115169988Y-128202414D01*
X115169986Y-128202414D01*
X115144869Y-128199500D01*
X115144865Y-128199500D01*
X114099500Y-128199500D01*
X114041309Y-128180593D01*
X114005345Y-128131093D01*
X114000500Y-128100500D01*
X114000500Y-121699500D01*
X114019407Y-121641309D01*
X114068907Y-121605345D01*
X114099500Y-121600500D01*
X114939365Y-121600500D01*
X114981038Y-121611665D01*
X114981521Y-121610501D01*
X114987513Y-121612983D01*
X114987515Y-121612984D01*
X115127525Y-121650500D01*
X115127526Y-121650500D01*
X115272474Y-121650500D01*
X115272475Y-121650500D01*
X115412485Y-121612984D01*
X115412487Y-121612982D01*
X115412489Y-121612982D01*
X115538010Y-121540512D01*
X115538010Y-121540511D01*
X115538015Y-121540509D01*
X115640509Y-121438015D01*
X115712984Y-121312485D01*
X115729873Y-121249451D01*
X115763197Y-121198138D01*
X115820319Y-121176212D01*
X115879419Y-121192048D01*
G37*
%TD.AperFunction*%
%TA.AperFunction,NonConductor*%
G36*
X126958691Y-121619407D02*
G01*
X126994655Y-121668907D01*
X126999500Y-121699500D01*
X126999500Y-128100500D01*
X126980593Y-128158691D01*
X126931093Y-128194655D01*
X126900500Y-128199500D01*
X125855139Y-128199500D01*
X125855136Y-128199501D01*
X125830005Y-128202415D01*
X125825481Y-128203646D01*
X125764368Y-128200673D01*
X125716673Y-128162346D01*
X125700499Y-128108118D01*
X125700499Y-127943482D01*
X125700498Y-127943478D01*
X125700498Y-127943476D01*
X125685647Y-127849700D01*
X125685646Y-127849695D01*
X125657749Y-127794946D01*
X125648177Y-127734514D01*
X125657749Y-127705054D01*
X125685646Y-127650304D01*
X125700500Y-127556519D01*
X125700499Y-127293482D01*
X125685646Y-127199696D01*
X125628050Y-127086658D01*
X125538342Y-126996950D01*
X125425304Y-126939354D01*
X125425305Y-126939354D01*
X125331522Y-126924500D01*
X125331519Y-126924500D01*
X125224500Y-126924500D01*
X125166309Y-126905593D01*
X125130345Y-126856093D01*
X125125500Y-126825500D01*
X125125500Y-121699500D01*
X125144407Y-121641309D01*
X125193907Y-121605345D01*
X125224500Y-121600500D01*
X126900500Y-121600500D01*
X126958691Y-121619407D01*
G37*
%TD.AperFunction*%
%TA.AperFunction,NonConductor*%
G36*
X112958691Y-121619407D02*
G01*
X112994655Y-121668907D01*
X112999500Y-121699500D01*
X112999500Y-128100500D01*
X112980593Y-128158691D01*
X112931093Y-128194655D01*
X112900500Y-128199500D01*
X111855139Y-128199500D01*
X111855136Y-128199501D01*
X111830005Y-128202415D01*
X111825481Y-128203646D01*
X111764368Y-128200673D01*
X111716673Y-128162346D01*
X111700499Y-128108118D01*
X111700499Y-127943482D01*
X111700498Y-127943478D01*
X111700498Y-127943476D01*
X111685647Y-127849700D01*
X111685646Y-127849695D01*
X111657749Y-127794946D01*
X111648177Y-127734514D01*
X111657749Y-127705054D01*
X111685646Y-127650304D01*
X111700500Y-127556519D01*
X111700499Y-127293482D01*
X111685646Y-127199696D01*
X111628050Y-127086658D01*
X111538342Y-126996950D01*
X111425304Y-126939354D01*
X111425305Y-126939354D01*
X111331522Y-126924500D01*
X111331519Y-126924500D01*
X111224500Y-126924500D01*
X111166309Y-126905593D01*
X111130345Y-126856093D01*
X111125500Y-126825500D01*
X111125500Y-121699500D01*
X111144407Y-121641309D01*
X111193907Y-121605345D01*
X111224500Y-121600500D01*
X112900500Y-121600500D01*
X112958691Y-121619407D01*
G37*
%TD.AperFunction*%
%TA.AperFunction,NonConductor*%
G36*
X123508691Y-130544407D02*
G01*
X123544655Y-130593907D01*
X123549500Y-130624499D01*
X123549501Y-130800499D01*
X123530594Y-130858690D01*
X123481094Y-130894654D01*
X123450501Y-130899500D01*
X120056018Y-130899500D01*
X119943982Y-130899500D01*
X119877748Y-130917247D01*
X119835758Y-130928498D01*
X119738739Y-130984513D01*
X119738737Y-130984514D01*
X119738737Y-130984515D01*
X119669501Y-131053750D01*
X119614987Y-131081526D01*
X119554555Y-131071955D01*
X119511290Y-131028690D01*
X119500500Y-130983745D01*
X119500500Y-130624500D01*
X119519407Y-130566309D01*
X119568907Y-130530345D01*
X119599500Y-130525500D01*
X123450500Y-130525500D01*
X123508691Y-130544407D01*
G37*
%TD.AperFunction*%
M02*
